<?xml version="1.0" encoding="utf-8"?>
<!-- Generator: Adobe Illustrator 19.0.0, SVG Export Plug-In . SVG Version: 6.00 Build 0)  -->
<svg version="1.1" id="Layer_1" xmlns="http://www.w3.org/2000/svg" xmlns:xlink="http://www.w3.org/1999/xlink" x="0px" y="0px"
	 viewBox="0 -9 72 54" style="enable-background:new 0 -9 72 54;" xml:space="preserve">
<style type="text/css">
	.st0{font-family:'Avenir-Medium';}
	.st1{font-size:6px;}
	.st2{fill:#2F3590;}
	.st3{font-family:'Rockwell';}
	.st4{font-size:12px;}
	.st5{fill:none;stroke:#000000;stroke-width:0.5;stroke-miterlimit:10;}
	.st6{clip-path:url(#SVGID_2_);}
	.st7{clip-path:url(#SVGID_4_);fill:#F5C400;}
</style>
<text transform="matrix(1 0 0 1 5.4733 1.2063)"><tspan x="0" y="0" class="st0 st1">Panel </tspan><tspan x="4.3" y="7.2" class="st0 st1">ID</tspan></text>
<text transform="matrix(1 0 0 1 34.4655 1.2062)" class="st0 st1">Circuit ID</text>
<text transform="matrix(0.9178 0 0 1 4.5418 21.6602)" class="st2 st3 st4">Triumvi 10.1</text>
<text transform="matrix(1 0 0 1 33.9768 36.441)" class="st0 st1">Recharge</text>
<g>
	<g>
		<line class="st5" x1="61.1" y1="35" x2="65.5" y2="35"/>
		<g>
			<polygon points="64.5,36.5 69.9,35 64.5,33.6 			"/>
		</g>
	</g>
</g>
<g>
	<g>
		<defs>
			<rect id="SVGID_1_" x="8.4" y="25.9" width="19.4" height="21"/>
		</defs>
		<clipPath id="SVGID_2_">
			<use xlink:href="#SVGID_1_"  style="overflow:visible;"/>
		</clipPath>
		<g class="st6">
			<defs>
				<rect id="SVGID_3_" x="8.4" y="26" width="19.3" height="20.9"/>
			</defs>
			<clipPath id="SVGID_4_">
				<use xlink:href="#SVGID_3_"  style="overflow:visible;"/>
			</clipPath>
			<polyline class="st7" points="18,37.4 14.1,32 14.1,35.9 15.7,35.9 15.7,39.8 8.4,39.8 8.4,35.9 9.9,35.9 9.9,29.9 8.4,29.9
				8.4,26 14.1,26 18,31.5 22,26 27.7,26 27.7,29.9 26.2,29.9 26.2,35.9 27.7,35.9 27.7,39.8 20.4,39.8 20.4,35.9 22,35.9 22,32
				18,37.4 			"/>
		</g>
	</g>
</g>
</svg>
