G04 Layer_Color=128*
%FSLAX25Y25*%
%MOIN*%
G70*
G01*
G75*
%ADD13R,0.01598X0.02551*%
%ADD14R,0.01575X0.02362*%
%ADD15R,0.02362X0.01575*%
%ADD17R,0.01378X0.02598*%
%ADD18R,0.00906X0.02598*%
%ADD22R,0.02551X0.01598*%
%ADD43R,0.02441X0.04803*%
%ADD44O,0.02756X0.01969*%
%ADD45R,0.10630X0.14567*%
%ADD46R,0.01969X0.03543*%
%ADD47R,0.06500X0.04000*%
%ADD48R,0.02165X0.03347*%
D13*
X159781Y81700D02*
D03*
X162340D02*
D03*
X164899D02*
D03*
X159781Y89180D02*
D03*
X164899D02*
D03*
X162340D02*
D03*
X289466Y81700D02*
D03*
X292025D02*
D03*
X294584D02*
D03*
X289466Y89180D02*
D03*
X294584D02*
D03*
X292025D02*
D03*
X419151Y81700D02*
D03*
X421710D02*
D03*
X424269D02*
D03*
X419151Y89180D02*
D03*
X424269D02*
D03*
X421710D02*
D03*
X548836Y81700D02*
D03*
X551395D02*
D03*
X553954D02*
D03*
X548836Y89180D02*
D03*
X553954D02*
D03*
X551395D02*
D03*
X159781Y191574D02*
D03*
X162340D02*
D03*
X164899D02*
D03*
X159781Y199054D02*
D03*
X164899D02*
D03*
X162340D02*
D03*
X289466Y191574D02*
D03*
X292025D02*
D03*
X294584D02*
D03*
X289466Y199054D02*
D03*
X294584D02*
D03*
X292025D02*
D03*
X419151Y191574D02*
D03*
X421710D02*
D03*
X424269D02*
D03*
X419151Y199054D02*
D03*
X424269D02*
D03*
X421710D02*
D03*
X548836Y191574D02*
D03*
X551395D02*
D03*
X553954D02*
D03*
X548836Y199054D02*
D03*
X553954D02*
D03*
X551395D02*
D03*
X159781Y301448D02*
D03*
X162340D02*
D03*
X164899D02*
D03*
X159781Y308928D02*
D03*
X164899D02*
D03*
X162340D02*
D03*
X289466Y301448D02*
D03*
X292025D02*
D03*
X294584D02*
D03*
X289466Y308928D02*
D03*
X294584D02*
D03*
X292025D02*
D03*
X419151Y301448D02*
D03*
X421710D02*
D03*
X424269D02*
D03*
X419151Y308928D02*
D03*
X424269D02*
D03*
X421710D02*
D03*
X548836Y301448D02*
D03*
X551395D02*
D03*
X553954D02*
D03*
X548836Y308928D02*
D03*
X553954D02*
D03*
X551395D02*
D03*
X159781Y411322D02*
D03*
X162340D02*
D03*
X164899D02*
D03*
X159781Y418802D02*
D03*
X164899D02*
D03*
X162340D02*
D03*
X289466Y411322D02*
D03*
X292025D02*
D03*
X294584D02*
D03*
X289466Y418802D02*
D03*
X294584D02*
D03*
X292025D02*
D03*
X419151Y411322D02*
D03*
X421710D02*
D03*
X424269D02*
D03*
X419151Y418802D02*
D03*
X424269D02*
D03*
X421710D02*
D03*
X548836Y411322D02*
D03*
X551395D02*
D03*
X553954D02*
D03*
X548836Y418802D02*
D03*
X553954D02*
D03*
X551395D02*
D03*
X159781Y521196D02*
D03*
X162340D02*
D03*
X164899D02*
D03*
X159781Y528676D02*
D03*
X164899D02*
D03*
X162340D02*
D03*
X289466Y521196D02*
D03*
X292025D02*
D03*
X294584D02*
D03*
X289466Y528676D02*
D03*
X294584D02*
D03*
X292025D02*
D03*
X419151Y521196D02*
D03*
X421710D02*
D03*
X424269D02*
D03*
X419151Y528676D02*
D03*
X424269D02*
D03*
X421710D02*
D03*
X548836Y521196D02*
D03*
X551395D02*
D03*
X553954D02*
D03*
X548836Y528676D02*
D03*
X553954D02*
D03*
X551395D02*
D03*
X159781Y631070D02*
D03*
X162340D02*
D03*
X164899D02*
D03*
X159781Y638550D02*
D03*
X164899D02*
D03*
X162340D02*
D03*
X289466Y631070D02*
D03*
X292025D02*
D03*
X294584D02*
D03*
X289466Y638550D02*
D03*
X294584D02*
D03*
X292025D02*
D03*
X419151Y631070D02*
D03*
X421710D02*
D03*
X424269D02*
D03*
X419151Y638550D02*
D03*
X424269D02*
D03*
X421710D02*
D03*
X548836Y631070D02*
D03*
X551395D02*
D03*
X553954D02*
D03*
X548836Y638550D02*
D03*
X553954D02*
D03*
X551395D02*
D03*
D14*
X100469Y110140D02*
D03*
X104012D02*
D03*
X97012Y109940D02*
D03*
X93468D02*
D03*
X96969Y113840D02*
D03*
X100512D02*
D03*
X138012Y177240D02*
D03*
X134468D02*
D03*
X141795Y138094D02*
D03*
X145339D02*
D03*
X144468Y133740D02*
D03*
X148012D02*
D03*
X144468Y129740D02*
D03*
X148012D02*
D03*
X121012Y117740D02*
D03*
X117469D02*
D03*
X144468Y123740D02*
D03*
X148012D02*
D03*
X144569Y114340D02*
D03*
X148112D02*
D03*
X144468Y117740D02*
D03*
X148012D02*
D03*
X132069Y138040D02*
D03*
X135612D02*
D03*
X160669Y93140D02*
D03*
X164212D02*
D03*
X230153Y110140D02*
D03*
X233697D02*
D03*
X226697Y109940D02*
D03*
X223153D02*
D03*
X226654Y113840D02*
D03*
X230197D02*
D03*
X267697Y177240D02*
D03*
X264154D02*
D03*
X271480Y138094D02*
D03*
X275024D02*
D03*
X274153Y133740D02*
D03*
X277697D02*
D03*
X274153Y129740D02*
D03*
X277697D02*
D03*
X250697Y117740D02*
D03*
X247153D02*
D03*
X274153Y123740D02*
D03*
X277697D02*
D03*
X274254Y114340D02*
D03*
X277797D02*
D03*
X274153Y117740D02*
D03*
X277697D02*
D03*
X261754Y138040D02*
D03*
X265297D02*
D03*
X290353Y93140D02*
D03*
X293897D02*
D03*
X359839Y110140D02*
D03*
X363382D02*
D03*
X356382Y109940D02*
D03*
X352839D02*
D03*
X356339Y113840D02*
D03*
X359882D02*
D03*
X397382Y177240D02*
D03*
X393839D02*
D03*
X401165Y138094D02*
D03*
X404709D02*
D03*
X403839Y133740D02*
D03*
X407382D02*
D03*
X403839Y129740D02*
D03*
X407382D02*
D03*
X380382Y117740D02*
D03*
X376839D02*
D03*
X403839Y123740D02*
D03*
X407382D02*
D03*
X403939Y114340D02*
D03*
X407482D02*
D03*
X403839Y117740D02*
D03*
X407382D02*
D03*
X391439Y138040D02*
D03*
X394982D02*
D03*
X420039Y93140D02*
D03*
X423582D02*
D03*
X489524Y110140D02*
D03*
X493067D02*
D03*
X486067Y109940D02*
D03*
X482524D02*
D03*
X486024Y113840D02*
D03*
X489567D02*
D03*
X527067Y177240D02*
D03*
X523524D02*
D03*
X530850Y138094D02*
D03*
X534394D02*
D03*
X533524Y133740D02*
D03*
X537067D02*
D03*
X533524Y129740D02*
D03*
X537067D02*
D03*
X510067Y117740D02*
D03*
X506524D02*
D03*
X533524Y123740D02*
D03*
X537067D02*
D03*
X533624Y114340D02*
D03*
X537167D02*
D03*
X533524Y117740D02*
D03*
X537067D02*
D03*
X521124Y138040D02*
D03*
X524667D02*
D03*
X549724Y93140D02*
D03*
X553267D02*
D03*
X100469Y220014D02*
D03*
X104012D02*
D03*
X97012Y219814D02*
D03*
X93468D02*
D03*
X96969Y223714D02*
D03*
X100512D02*
D03*
X138012Y287114D02*
D03*
X134468D02*
D03*
X141795Y247969D02*
D03*
X145339D02*
D03*
X144468Y243614D02*
D03*
X148012D02*
D03*
X144468Y239614D02*
D03*
X148012D02*
D03*
X121012Y227614D02*
D03*
X117469D02*
D03*
X144468Y233614D02*
D03*
X148012D02*
D03*
X144569Y224214D02*
D03*
X148112D02*
D03*
X144468Y227614D02*
D03*
X148012D02*
D03*
X132069Y247914D02*
D03*
X135612D02*
D03*
X160669Y203014D02*
D03*
X164212D02*
D03*
X230153Y220014D02*
D03*
X233697D02*
D03*
X226697Y219814D02*
D03*
X223153D02*
D03*
X226654Y223714D02*
D03*
X230197D02*
D03*
X267697Y287114D02*
D03*
X264154D02*
D03*
X271480Y247969D02*
D03*
X275024D02*
D03*
X274153Y243614D02*
D03*
X277697D02*
D03*
X274153Y239614D02*
D03*
X277697D02*
D03*
X250697Y227614D02*
D03*
X247153D02*
D03*
X274153Y233614D02*
D03*
X277697D02*
D03*
X274254Y224214D02*
D03*
X277797D02*
D03*
X274153Y227614D02*
D03*
X277697D02*
D03*
X261754Y247914D02*
D03*
X265297D02*
D03*
X290353Y203014D02*
D03*
X293897D02*
D03*
X359839Y220014D02*
D03*
X363382D02*
D03*
X356382Y219814D02*
D03*
X352839D02*
D03*
X356339Y223714D02*
D03*
X359882D02*
D03*
X397382Y287114D02*
D03*
X393839D02*
D03*
X401165Y247969D02*
D03*
X404709D02*
D03*
X403839Y243614D02*
D03*
X407382D02*
D03*
X403839Y239614D02*
D03*
X407382D02*
D03*
X380382Y227614D02*
D03*
X376839D02*
D03*
X403839Y233614D02*
D03*
X407382D02*
D03*
X403939Y224214D02*
D03*
X407482D02*
D03*
X403839Y227614D02*
D03*
X407382D02*
D03*
X391439Y247914D02*
D03*
X394982D02*
D03*
X420039Y203014D02*
D03*
X423582D02*
D03*
X489524Y220014D02*
D03*
X493067D02*
D03*
X486067Y219814D02*
D03*
X482524D02*
D03*
X486024Y223714D02*
D03*
X489567D02*
D03*
X527067Y287114D02*
D03*
X523524D02*
D03*
X530850Y247969D02*
D03*
X534394D02*
D03*
X533524Y243614D02*
D03*
X537067D02*
D03*
X533524Y239614D02*
D03*
X537067D02*
D03*
X510067Y227614D02*
D03*
X506524D02*
D03*
X533524Y233614D02*
D03*
X537067D02*
D03*
X533624Y224214D02*
D03*
X537167D02*
D03*
X533524Y227614D02*
D03*
X537067D02*
D03*
X521124Y247914D02*
D03*
X524667D02*
D03*
X549724Y203014D02*
D03*
X553267D02*
D03*
X100469Y329888D02*
D03*
X104012D02*
D03*
X97012Y329688D02*
D03*
X93468D02*
D03*
X96969Y333588D02*
D03*
X100512D02*
D03*
X138012Y396988D02*
D03*
X134468D02*
D03*
X141795Y357842D02*
D03*
X145339D02*
D03*
X144468Y353488D02*
D03*
X148012D02*
D03*
X144468Y349488D02*
D03*
X148012D02*
D03*
X121012Y337488D02*
D03*
X117469D02*
D03*
X144468Y343488D02*
D03*
X148012D02*
D03*
X144569Y334088D02*
D03*
X148112D02*
D03*
X144468Y337488D02*
D03*
X148012D02*
D03*
X132069Y357788D02*
D03*
X135612D02*
D03*
X160669Y312888D02*
D03*
X164212D02*
D03*
X230153Y329888D02*
D03*
X233697D02*
D03*
X226697Y329688D02*
D03*
X223153D02*
D03*
X226654Y333588D02*
D03*
X230197D02*
D03*
X267697Y396988D02*
D03*
X264154D02*
D03*
X271480Y357842D02*
D03*
X275024D02*
D03*
X274153Y353488D02*
D03*
X277697D02*
D03*
X274153Y349488D02*
D03*
X277697D02*
D03*
X250697Y337488D02*
D03*
X247153D02*
D03*
X274153Y343488D02*
D03*
X277697D02*
D03*
X274254Y334088D02*
D03*
X277797D02*
D03*
X274153Y337488D02*
D03*
X277697D02*
D03*
X261754Y357788D02*
D03*
X265297D02*
D03*
X290353Y312888D02*
D03*
X293897D02*
D03*
X359839Y329888D02*
D03*
X363382D02*
D03*
X356382Y329688D02*
D03*
X352839D02*
D03*
X356339Y333588D02*
D03*
X359882D02*
D03*
X397382Y396988D02*
D03*
X393839D02*
D03*
X401165Y357842D02*
D03*
X404709D02*
D03*
X403839Y353488D02*
D03*
X407382D02*
D03*
X403839Y349488D02*
D03*
X407382D02*
D03*
X380382Y337488D02*
D03*
X376839D02*
D03*
X403839Y343488D02*
D03*
X407382D02*
D03*
X403939Y334088D02*
D03*
X407482D02*
D03*
X403839Y337488D02*
D03*
X407382D02*
D03*
X391439Y357788D02*
D03*
X394982D02*
D03*
X420039Y312888D02*
D03*
X423582D02*
D03*
X489524Y329888D02*
D03*
X493067D02*
D03*
X486067Y329688D02*
D03*
X482524D02*
D03*
X486024Y333588D02*
D03*
X489567D02*
D03*
X527067Y396988D02*
D03*
X523524D02*
D03*
X530850Y357842D02*
D03*
X534394D02*
D03*
X533524Y353488D02*
D03*
X537067D02*
D03*
X533524Y349488D02*
D03*
X537067D02*
D03*
X510067Y337488D02*
D03*
X506524D02*
D03*
X533524Y343488D02*
D03*
X537067D02*
D03*
X533624Y334088D02*
D03*
X537167D02*
D03*
X533524Y337488D02*
D03*
X537067D02*
D03*
X521124Y357788D02*
D03*
X524667D02*
D03*
X549724Y312888D02*
D03*
X553267D02*
D03*
X100469Y439762D02*
D03*
X104012D02*
D03*
X97012Y439562D02*
D03*
X93468D02*
D03*
X96969Y443462D02*
D03*
X100512D02*
D03*
X138012Y506862D02*
D03*
X134468D02*
D03*
X141795Y467717D02*
D03*
X145339D02*
D03*
X144468Y463362D02*
D03*
X148012D02*
D03*
X144468Y459362D02*
D03*
X148012D02*
D03*
X121012Y447362D02*
D03*
X117469D02*
D03*
X144468Y453362D02*
D03*
X148012D02*
D03*
X144569Y443962D02*
D03*
X148112D02*
D03*
X144468Y447362D02*
D03*
X148012D02*
D03*
X132069Y467662D02*
D03*
X135612D02*
D03*
X160669Y422762D02*
D03*
X164212D02*
D03*
X230153Y439762D02*
D03*
X233697D02*
D03*
X226697Y439562D02*
D03*
X223153D02*
D03*
X226654Y443462D02*
D03*
X230197D02*
D03*
X267697Y506862D02*
D03*
X264154D02*
D03*
X271480Y467717D02*
D03*
X275024D02*
D03*
X274153Y463362D02*
D03*
X277697D02*
D03*
X274153Y459362D02*
D03*
X277697D02*
D03*
X250697Y447362D02*
D03*
X247153D02*
D03*
X274153Y453362D02*
D03*
X277697D02*
D03*
X274254Y443962D02*
D03*
X277797D02*
D03*
X274153Y447362D02*
D03*
X277697D02*
D03*
X261754Y467662D02*
D03*
X265297D02*
D03*
X290353Y422762D02*
D03*
X293897D02*
D03*
X359839Y439762D02*
D03*
X363382D02*
D03*
X356382Y439562D02*
D03*
X352839D02*
D03*
X356339Y443462D02*
D03*
X359882D02*
D03*
X397382Y506862D02*
D03*
X393839D02*
D03*
X401165Y467717D02*
D03*
X404709D02*
D03*
X403839Y463362D02*
D03*
X407382D02*
D03*
X403839Y459362D02*
D03*
X407382D02*
D03*
X380382Y447362D02*
D03*
X376839D02*
D03*
X403839Y453362D02*
D03*
X407382D02*
D03*
X403939Y443962D02*
D03*
X407482D02*
D03*
X403839Y447362D02*
D03*
X407382D02*
D03*
X391439Y467662D02*
D03*
X394982D02*
D03*
X420039Y422762D02*
D03*
X423582D02*
D03*
X489524Y439762D02*
D03*
X493067D02*
D03*
X486067Y439562D02*
D03*
X482524D02*
D03*
X486024Y443462D02*
D03*
X489567D02*
D03*
X527067Y506862D02*
D03*
X523524D02*
D03*
X530850Y467717D02*
D03*
X534394D02*
D03*
X533524Y463362D02*
D03*
X537067D02*
D03*
X533524Y459362D02*
D03*
X537067D02*
D03*
X510067Y447362D02*
D03*
X506524D02*
D03*
X533524Y453362D02*
D03*
X537067D02*
D03*
X533624Y443962D02*
D03*
X537167D02*
D03*
X533524Y447362D02*
D03*
X537067D02*
D03*
X521124Y467662D02*
D03*
X524667D02*
D03*
X549724Y422762D02*
D03*
X553267D02*
D03*
X100469Y549636D02*
D03*
X104012D02*
D03*
X97012Y549436D02*
D03*
X93468D02*
D03*
X96969Y553336D02*
D03*
X100512D02*
D03*
X138012Y616736D02*
D03*
X134468D02*
D03*
X141795Y577591D02*
D03*
X145339D02*
D03*
X144468Y573236D02*
D03*
X148012D02*
D03*
X144468Y569236D02*
D03*
X148012D02*
D03*
X121012Y557236D02*
D03*
X117469D02*
D03*
X144468Y563236D02*
D03*
X148012D02*
D03*
X144569Y553836D02*
D03*
X148112D02*
D03*
X144468Y557236D02*
D03*
X148012D02*
D03*
X132069Y577536D02*
D03*
X135612D02*
D03*
X160669Y532636D02*
D03*
X164212D02*
D03*
X230153Y549636D02*
D03*
X233697D02*
D03*
X226697Y549436D02*
D03*
X223153D02*
D03*
X226654Y553336D02*
D03*
X230197D02*
D03*
X267697Y616736D02*
D03*
X264154D02*
D03*
X271480Y577591D02*
D03*
X275024D02*
D03*
X274153Y573236D02*
D03*
X277697D02*
D03*
X274153Y569236D02*
D03*
X277697D02*
D03*
X250697Y557236D02*
D03*
X247153D02*
D03*
X274153Y563236D02*
D03*
X277697D02*
D03*
X274254Y553836D02*
D03*
X277797D02*
D03*
X274153Y557236D02*
D03*
X277697D02*
D03*
X261754Y577536D02*
D03*
X265297D02*
D03*
X290353Y532636D02*
D03*
X293897D02*
D03*
X359839Y549636D02*
D03*
X363382D02*
D03*
X356382Y549436D02*
D03*
X352839D02*
D03*
X356339Y553336D02*
D03*
X359882D02*
D03*
X397382Y616736D02*
D03*
X393839D02*
D03*
X401165Y577591D02*
D03*
X404709D02*
D03*
X403839Y573236D02*
D03*
X407382D02*
D03*
X403839Y569236D02*
D03*
X407382D02*
D03*
X380382Y557236D02*
D03*
X376839D02*
D03*
X403839Y563236D02*
D03*
X407382D02*
D03*
X403939Y553836D02*
D03*
X407482D02*
D03*
X403839Y557236D02*
D03*
X407382D02*
D03*
X391439Y577536D02*
D03*
X394982D02*
D03*
X420039Y532636D02*
D03*
X423582D02*
D03*
X489524Y549636D02*
D03*
X493067D02*
D03*
X486067Y549436D02*
D03*
X482524D02*
D03*
X486024Y553336D02*
D03*
X489567D02*
D03*
X527067Y616736D02*
D03*
X523524D02*
D03*
X530850Y577591D02*
D03*
X534394D02*
D03*
X533524Y573236D02*
D03*
X537067D02*
D03*
X533524Y569236D02*
D03*
X537067D02*
D03*
X510067Y557236D02*
D03*
X506524D02*
D03*
X533524Y563236D02*
D03*
X537067D02*
D03*
X533624Y553836D02*
D03*
X537167D02*
D03*
X533524Y557236D02*
D03*
X537067D02*
D03*
X521124Y577536D02*
D03*
X524667D02*
D03*
X549724Y532636D02*
D03*
X553267D02*
D03*
X100469Y659510D02*
D03*
X104012D02*
D03*
X97012Y659310D02*
D03*
X93468D02*
D03*
X96969Y663210D02*
D03*
X100512D02*
D03*
X138012Y726610D02*
D03*
X134468D02*
D03*
X141795Y687465D02*
D03*
X145339D02*
D03*
X144468Y683110D02*
D03*
X148012D02*
D03*
X144468Y679110D02*
D03*
X148012D02*
D03*
X121012Y667110D02*
D03*
X117469D02*
D03*
X144468Y673110D02*
D03*
X148012D02*
D03*
X144569Y663710D02*
D03*
X148112D02*
D03*
X144468Y667110D02*
D03*
X148012D02*
D03*
X132069Y687410D02*
D03*
X135612D02*
D03*
X160669Y642510D02*
D03*
X164212D02*
D03*
X230153Y659510D02*
D03*
X233697D02*
D03*
X226697Y659310D02*
D03*
X223153D02*
D03*
X226654Y663210D02*
D03*
X230197D02*
D03*
X267697Y726610D02*
D03*
X264154D02*
D03*
X271480Y687465D02*
D03*
X275024D02*
D03*
X274153Y683110D02*
D03*
X277697D02*
D03*
X274153Y679110D02*
D03*
X277697D02*
D03*
X250697Y667110D02*
D03*
X247153D02*
D03*
X274153Y673110D02*
D03*
X277697D02*
D03*
X274254Y663710D02*
D03*
X277797D02*
D03*
X274153Y667110D02*
D03*
X277697D02*
D03*
X261754Y687410D02*
D03*
X265297D02*
D03*
X290353Y642510D02*
D03*
X293897D02*
D03*
X359839Y659510D02*
D03*
X363382D02*
D03*
X356382Y659310D02*
D03*
X352839D02*
D03*
X356339Y663210D02*
D03*
X359882D02*
D03*
X397382Y726610D02*
D03*
X393839D02*
D03*
X401165Y687465D02*
D03*
X404709D02*
D03*
X403839Y683110D02*
D03*
X407382D02*
D03*
X403839Y679110D02*
D03*
X407382D02*
D03*
X380382Y667110D02*
D03*
X376839D02*
D03*
X403839Y673110D02*
D03*
X407382D02*
D03*
X403939Y663710D02*
D03*
X407482D02*
D03*
X403839Y667110D02*
D03*
X407382D02*
D03*
X391439Y687410D02*
D03*
X394982D02*
D03*
X420039Y642510D02*
D03*
X423582D02*
D03*
X489524Y659510D02*
D03*
X493067D02*
D03*
X486067Y659310D02*
D03*
X482524D02*
D03*
X486024Y663210D02*
D03*
X489567D02*
D03*
X527067Y726610D02*
D03*
X523524D02*
D03*
X530850Y687465D02*
D03*
X534394D02*
D03*
X533524Y683110D02*
D03*
X537067D02*
D03*
X533524Y679110D02*
D03*
X537067D02*
D03*
X510067Y667110D02*
D03*
X506524D02*
D03*
X533524Y673110D02*
D03*
X537067D02*
D03*
X533624Y663710D02*
D03*
X537167D02*
D03*
X533524Y667110D02*
D03*
X537067D02*
D03*
X521124Y687410D02*
D03*
X524667D02*
D03*
X549724Y642510D02*
D03*
X553267D02*
D03*
D15*
X144740Y111012D02*
D03*
Y107468D02*
D03*
X141040Y111012D02*
D03*
Y107468D02*
D03*
X121740Y134468D02*
D03*
Y138012D02*
D03*
X137740Y111012D02*
D03*
Y107468D02*
D03*
X119740Y111012D02*
D03*
Y107468D02*
D03*
X117386Y131795D02*
D03*
Y135339D02*
D03*
X131940Y145168D02*
D03*
Y148712D02*
D03*
X136240D02*
D03*
Y145168D02*
D03*
X168740Y85012D02*
D03*
Y81468D02*
D03*
X274425Y111012D02*
D03*
Y107468D02*
D03*
X270725Y111012D02*
D03*
Y107468D02*
D03*
X251425Y134468D02*
D03*
Y138012D02*
D03*
X267425Y111012D02*
D03*
Y107468D02*
D03*
X249425Y111012D02*
D03*
Y107468D02*
D03*
X247071Y131795D02*
D03*
Y135339D02*
D03*
X261625Y145168D02*
D03*
Y148712D02*
D03*
X265925D02*
D03*
Y145168D02*
D03*
X298425Y85012D02*
D03*
Y81468D02*
D03*
X404110Y111012D02*
D03*
Y107468D02*
D03*
X400410Y111012D02*
D03*
Y107468D02*
D03*
X381110Y134468D02*
D03*
Y138012D02*
D03*
X397110Y111012D02*
D03*
Y107468D02*
D03*
X379110Y111012D02*
D03*
Y107468D02*
D03*
X376756Y131795D02*
D03*
Y135339D02*
D03*
X391310Y145168D02*
D03*
Y148712D02*
D03*
X395610D02*
D03*
Y145168D02*
D03*
X428110Y85012D02*
D03*
Y81468D02*
D03*
X533795Y111012D02*
D03*
Y107468D02*
D03*
X530095Y111012D02*
D03*
Y107468D02*
D03*
X510795Y134468D02*
D03*
Y138012D02*
D03*
X526795Y111012D02*
D03*
Y107468D02*
D03*
X508795Y111012D02*
D03*
Y107468D02*
D03*
X506441Y131795D02*
D03*
Y135339D02*
D03*
X520995Y145168D02*
D03*
Y148712D02*
D03*
X525295D02*
D03*
Y145168D02*
D03*
X557795Y85012D02*
D03*
Y81468D02*
D03*
X144740Y220886D02*
D03*
Y217342D02*
D03*
X141040Y220886D02*
D03*
Y217342D02*
D03*
X121740Y244342D02*
D03*
Y247886D02*
D03*
X137740Y220886D02*
D03*
Y217342D02*
D03*
X119740Y220886D02*
D03*
Y217342D02*
D03*
X117386Y241669D02*
D03*
Y245213D02*
D03*
X131940Y255043D02*
D03*
Y258586D02*
D03*
X136240D02*
D03*
Y255043D02*
D03*
X168740Y194886D02*
D03*
Y191342D02*
D03*
X274425Y220886D02*
D03*
Y217342D02*
D03*
X270725Y220886D02*
D03*
Y217342D02*
D03*
X251425Y244342D02*
D03*
Y247886D02*
D03*
X267425Y220886D02*
D03*
Y217342D02*
D03*
X249425Y220886D02*
D03*
Y217342D02*
D03*
X247071Y241669D02*
D03*
Y245213D02*
D03*
X261625Y255043D02*
D03*
Y258586D02*
D03*
X265925D02*
D03*
Y255043D02*
D03*
X298425Y194886D02*
D03*
Y191342D02*
D03*
X404110Y220886D02*
D03*
Y217342D02*
D03*
X400410Y220886D02*
D03*
Y217342D02*
D03*
X381110Y244342D02*
D03*
Y247886D02*
D03*
X397110Y220886D02*
D03*
Y217342D02*
D03*
X379110Y220886D02*
D03*
Y217342D02*
D03*
X376756Y241669D02*
D03*
Y245213D02*
D03*
X391310Y255043D02*
D03*
Y258586D02*
D03*
X395610D02*
D03*
Y255043D02*
D03*
X428110Y194886D02*
D03*
Y191342D02*
D03*
X533795Y220886D02*
D03*
Y217342D02*
D03*
X530095Y220886D02*
D03*
Y217342D02*
D03*
X510795Y244342D02*
D03*
Y247886D02*
D03*
X526795Y220886D02*
D03*
Y217342D02*
D03*
X508795Y220886D02*
D03*
Y217342D02*
D03*
X506441Y241669D02*
D03*
Y245213D02*
D03*
X520995Y255043D02*
D03*
Y258586D02*
D03*
X525295D02*
D03*
Y255043D02*
D03*
X557795Y194886D02*
D03*
Y191342D02*
D03*
X144740Y330760D02*
D03*
Y327217D02*
D03*
X141040Y330760D02*
D03*
Y327217D02*
D03*
X121740Y354217D02*
D03*
Y357760D02*
D03*
X137740Y330760D02*
D03*
Y327217D02*
D03*
X119740Y330760D02*
D03*
Y327217D02*
D03*
X117386Y351543D02*
D03*
Y355087D02*
D03*
X131940Y364917D02*
D03*
Y368460D02*
D03*
X136240D02*
D03*
Y364917D02*
D03*
X168740Y304760D02*
D03*
Y301217D02*
D03*
X274425Y330760D02*
D03*
Y327217D02*
D03*
X270725Y330760D02*
D03*
Y327217D02*
D03*
X251425Y354217D02*
D03*
Y357760D02*
D03*
X267425Y330760D02*
D03*
Y327217D02*
D03*
X249425Y330760D02*
D03*
Y327217D02*
D03*
X247071Y351543D02*
D03*
Y355087D02*
D03*
X261625Y364917D02*
D03*
Y368460D02*
D03*
X265925D02*
D03*
Y364917D02*
D03*
X298425Y304760D02*
D03*
Y301217D02*
D03*
X404110Y330760D02*
D03*
Y327217D02*
D03*
X400410Y330760D02*
D03*
Y327217D02*
D03*
X381110Y354217D02*
D03*
Y357760D02*
D03*
X397110Y330760D02*
D03*
Y327217D02*
D03*
X379110Y330760D02*
D03*
Y327217D02*
D03*
X376756Y351543D02*
D03*
Y355087D02*
D03*
X391310Y364917D02*
D03*
Y368460D02*
D03*
X395610D02*
D03*
Y364917D02*
D03*
X428110Y304760D02*
D03*
Y301217D02*
D03*
X533795Y330760D02*
D03*
Y327217D02*
D03*
X530095Y330760D02*
D03*
Y327217D02*
D03*
X510795Y354217D02*
D03*
Y357760D02*
D03*
X526795Y330760D02*
D03*
Y327217D02*
D03*
X508795Y330760D02*
D03*
Y327217D02*
D03*
X506441Y351543D02*
D03*
Y355087D02*
D03*
X520995Y364917D02*
D03*
Y368460D02*
D03*
X525295D02*
D03*
Y364917D02*
D03*
X557795Y304760D02*
D03*
Y301217D02*
D03*
X144740Y440634D02*
D03*
Y437091D02*
D03*
X141040Y440634D02*
D03*
Y437091D02*
D03*
X121740Y464091D02*
D03*
Y467634D02*
D03*
X137740Y440634D02*
D03*
Y437091D02*
D03*
X119740Y440634D02*
D03*
Y437091D02*
D03*
X117386Y461417D02*
D03*
Y464961D02*
D03*
X131940Y474791D02*
D03*
Y478334D02*
D03*
X136240D02*
D03*
Y474791D02*
D03*
X168740Y414634D02*
D03*
Y411091D02*
D03*
X274425Y440634D02*
D03*
Y437091D02*
D03*
X270725Y440634D02*
D03*
Y437091D02*
D03*
X251425Y464091D02*
D03*
Y467634D02*
D03*
X267425Y440634D02*
D03*
Y437091D02*
D03*
X249425Y440634D02*
D03*
Y437091D02*
D03*
X247071Y461417D02*
D03*
Y464961D02*
D03*
X261625Y474791D02*
D03*
Y478334D02*
D03*
X265925D02*
D03*
Y474791D02*
D03*
X298425Y414634D02*
D03*
Y411091D02*
D03*
X404110Y440634D02*
D03*
Y437091D02*
D03*
X400410Y440634D02*
D03*
Y437091D02*
D03*
X381110Y464091D02*
D03*
Y467634D02*
D03*
X397110Y440634D02*
D03*
Y437091D02*
D03*
X379110Y440634D02*
D03*
Y437091D02*
D03*
X376756Y461417D02*
D03*
Y464961D02*
D03*
X391310Y474791D02*
D03*
Y478334D02*
D03*
X395610D02*
D03*
Y474791D02*
D03*
X428110Y414634D02*
D03*
Y411091D02*
D03*
X533795Y440634D02*
D03*
Y437091D02*
D03*
X530095Y440634D02*
D03*
Y437091D02*
D03*
X510795Y464091D02*
D03*
Y467634D02*
D03*
X526795Y440634D02*
D03*
Y437091D02*
D03*
X508795Y440634D02*
D03*
Y437091D02*
D03*
X506441Y461417D02*
D03*
Y464961D02*
D03*
X520995Y474791D02*
D03*
Y478334D02*
D03*
X525295D02*
D03*
Y474791D02*
D03*
X557795Y414634D02*
D03*
Y411091D02*
D03*
X144740Y550508D02*
D03*
Y546965D02*
D03*
X141040Y550508D02*
D03*
Y546965D02*
D03*
X121740Y573965D02*
D03*
Y577508D02*
D03*
X137740Y550508D02*
D03*
Y546965D02*
D03*
X119740Y550508D02*
D03*
Y546965D02*
D03*
X117386Y571291D02*
D03*
Y574835D02*
D03*
X131940Y584665D02*
D03*
Y588208D02*
D03*
X136240D02*
D03*
Y584665D02*
D03*
X168740Y524508D02*
D03*
Y520965D02*
D03*
X274425Y550508D02*
D03*
Y546965D02*
D03*
X270725Y550508D02*
D03*
Y546965D02*
D03*
X251425Y573965D02*
D03*
Y577508D02*
D03*
X267425Y550508D02*
D03*
Y546965D02*
D03*
X249425Y550508D02*
D03*
Y546965D02*
D03*
X247071Y571291D02*
D03*
Y574835D02*
D03*
X261625Y584665D02*
D03*
Y588208D02*
D03*
X265925D02*
D03*
Y584665D02*
D03*
X298425Y524508D02*
D03*
Y520965D02*
D03*
X404110Y550508D02*
D03*
Y546965D02*
D03*
X400410Y550508D02*
D03*
Y546965D02*
D03*
X381110Y573965D02*
D03*
Y577508D02*
D03*
X397110Y550508D02*
D03*
Y546965D02*
D03*
X379110Y550508D02*
D03*
Y546965D02*
D03*
X376756Y571291D02*
D03*
Y574835D02*
D03*
X391310Y584665D02*
D03*
Y588208D02*
D03*
X395610D02*
D03*
Y584665D02*
D03*
X428110Y524508D02*
D03*
Y520965D02*
D03*
X533795Y550508D02*
D03*
Y546965D02*
D03*
X530095Y550508D02*
D03*
Y546965D02*
D03*
X510795Y573965D02*
D03*
Y577508D02*
D03*
X526795Y550508D02*
D03*
Y546965D02*
D03*
X508795Y550508D02*
D03*
Y546965D02*
D03*
X506441Y571291D02*
D03*
Y574835D02*
D03*
X520995Y584665D02*
D03*
Y588208D02*
D03*
X525295D02*
D03*
Y584665D02*
D03*
X557795Y524508D02*
D03*
Y520965D02*
D03*
X144740Y660382D02*
D03*
Y656839D02*
D03*
X141040Y660382D02*
D03*
Y656839D02*
D03*
X121740Y683839D02*
D03*
Y687382D02*
D03*
X137740Y660382D02*
D03*
Y656839D02*
D03*
X119740Y660382D02*
D03*
Y656839D02*
D03*
X117386Y681165D02*
D03*
Y684709D02*
D03*
X131940Y694539D02*
D03*
Y698082D02*
D03*
X136240D02*
D03*
Y694539D02*
D03*
X168740Y634382D02*
D03*
Y630839D02*
D03*
X274425Y660382D02*
D03*
Y656839D02*
D03*
X270725Y660382D02*
D03*
Y656839D02*
D03*
X251425Y683839D02*
D03*
Y687382D02*
D03*
X267425Y660382D02*
D03*
Y656839D02*
D03*
X249425Y660382D02*
D03*
Y656839D02*
D03*
X247071Y681165D02*
D03*
Y684709D02*
D03*
X261625Y694539D02*
D03*
Y698082D02*
D03*
X265925D02*
D03*
Y694539D02*
D03*
X298425Y634382D02*
D03*
Y630839D02*
D03*
X404110Y660382D02*
D03*
Y656839D02*
D03*
X400410Y660382D02*
D03*
Y656839D02*
D03*
X381110Y683839D02*
D03*
Y687382D02*
D03*
X397110Y660382D02*
D03*
Y656839D02*
D03*
X379110Y660382D02*
D03*
Y656839D02*
D03*
X376756Y681165D02*
D03*
Y684709D02*
D03*
X391310Y694539D02*
D03*
Y698082D02*
D03*
X395610D02*
D03*
Y694539D02*
D03*
X428110Y634382D02*
D03*
Y630839D02*
D03*
X533795Y660382D02*
D03*
Y656839D02*
D03*
X530095Y660382D02*
D03*
Y656839D02*
D03*
X510795Y683839D02*
D03*
Y687382D02*
D03*
X526795Y660382D02*
D03*
Y656839D02*
D03*
X508795Y660382D02*
D03*
Y656839D02*
D03*
X506441Y681165D02*
D03*
Y684709D02*
D03*
X520995Y694539D02*
D03*
Y698082D02*
D03*
X525295D02*
D03*
Y694539D02*
D03*
X557795Y634382D02*
D03*
Y630839D02*
D03*
D17*
X154547Y95075D02*
D03*
Y84405D02*
D03*
X142933D02*
D03*
Y95075D02*
D03*
X124547Y175075D02*
D03*
Y164406D02*
D03*
X112933D02*
D03*
Y175075D02*
D03*
X284232Y95075D02*
D03*
Y84405D02*
D03*
X272618D02*
D03*
Y95075D02*
D03*
X254232Y175075D02*
D03*
Y164406D02*
D03*
X242618D02*
D03*
Y175075D02*
D03*
X413917Y95075D02*
D03*
Y84405D02*
D03*
X402303D02*
D03*
Y95075D02*
D03*
X383917Y175075D02*
D03*
Y164406D02*
D03*
X372303D02*
D03*
Y175075D02*
D03*
X543602Y95075D02*
D03*
Y84405D02*
D03*
X531988D02*
D03*
Y95075D02*
D03*
X513602Y175075D02*
D03*
Y164406D02*
D03*
X501988D02*
D03*
Y175075D02*
D03*
X154547Y204949D02*
D03*
Y194280D02*
D03*
X142933D02*
D03*
Y204949D02*
D03*
X124547Y284949D02*
D03*
Y274279D02*
D03*
X112933D02*
D03*
Y284949D02*
D03*
X284232Y204949D02*
D03*
Y194280D02*
D03*
X272618D02*
D03*
Y204949D02*
D03*
X254232Y284949D02*
D03*
Y274279D02*
D03*
X242618D02*
D03*
Y284949D02*
D03*
X413917Y204949D02*
D03*
Y194280D02*
D03*
X402303D02*
D03*
Y204949D02*
D03*
X383917Y284949D02*
D03*
Y274279D02*
D03*
X372303D02*
D03*
Y284949D02*
D03*
X543602Y204949D02*
D03*
Y194280D02*
D03*
X531988D02*
D03*
Y204949D02*
D03*
X513602Y284949D02*
D03*
Y274279D02*
D03*
X501988D02*
D03*
Y284949D02*
D03*
X154547Y314823D02*
D03*
Y304153D02*
D03*
X142933D02*
D03*
Y314823D02*
D03*
X124547Y394823D02*
D03*
Y384154D02*
D03*
X112933D02*
D03*
Y394823D02*
D03*
X284232Y314823D02*
D03*
Y304153D02*
D03*
X272618D02*
D03*
Y314823D02*
D03*
X254232Y394823D02*
D03*
Y384154D02*
D03*
X242618D02*
D03*
Y394823D02*
D03*
X413917Y314823D02*
D03*
Y304153D02*
D03*
X402303D02*
D03*
Y314823D02*
D03*
X383917Y394823D02*
D03*
Y384154D02*
D03*
X372303D02*
D03*
Y394823D02*
D03*
X543602Y314823D02*
D03*
Y304153D02*
D03*
X531988D02*
D03*
Y314823D02*
D03*
X513602Y394823D02*
D03*
Y384154D02*
D03*
X501988D02*
D03*
Y394823D02*
D03*
X154547Y424697D02*
D03*
Y414028D02*
D03*
X142933D02*
D03*
Y424697D02*
D03*
X124547Y504697D02*
D03*
Y494028D02*
D03*
X112933D02*
D03*
Y504697D02*
D03*
X284232Y424697D02*
D03*
Y414028D02*
D03*
X272618D02*
D03*
Y424697D02*
D03*
X254232Y504697D02*
D03*
Y494028D02*
D03*
X242618D02*
D03*
Y504697D02*
D03*
X413917Y424697D02*
D03*
Y414028D02*
D03*
X402303D02*
D03*
Y424697D02*
D03*
X383917Y504697D02*
D03*
Y494028D02*
D03*
X372303D02*
D03*
Y504697D02*
D03*
X543602Y424697D02*
D03*
Y414028D02*
D03*
X531988D02*
D03*
Y424697D02*
D03*
X513602Y504697D02*
D03*
Y494028D02*
D03*
X501988D02*
D03*
Y504697D02*
D03*
X154547Y534571D02*
D03*
Y523902D02*
D03*
X142933D02*
D03*
Y534571D02*
D03*
X124547Y614571D02*
D03*
Y603902D02*
D03*
X112933D02*
D03*
Y614571D02*
D03*
X284232Y534571D02*
D03*
Y523902D02*
D03*
X272618D02*
D03*
Y534571D02*
D03*
X254232Y614571D02*
D03*
Y603902D02*
D03*
X242618D02*
D03*
Y614571D02*
D03*
X413917Y534571D02*
D03*
Y523902D02*
D03*
X402303D02*
D03*
Y534571D02*
D03*
X383917Y614571D02*
D03*
Y603902D02*
D03*
X372303D02*
D03*
Y614571D02*
D03*
X543602Y534571D02*
D03*
Y523902D02*
D03*
X531988D02*
D03*
Y534571D02*
D03*
X513602Y614571D02*
D03*
Y603902D02*
D03*
X501988D02*
D03*
Y614571D02*
D03*
X154547Y644445D02*
D03*
Y633776D02*
D03*
X142933D02*
D03*
Y644445D02*
D03*
X124547Y724445D02*
D03*
Y713776D02*
D03*
X112933D02*
D03*
Y724445D02*
D03*
X284232Y644445D02*
D03*
Y633776D02*
D03*
X272618D02*
D03*
Y644445D02*
D03*
X254232Y724445D02*
D03*
Y713776D02*
D03*
X242618D02*
D03*
Y724445D02*
D03*
X413917Y644445D02*
D03*
Y633776D02*
D03*
X402303D02*
D03*
Y644445D02*
D03*
X383917Y724445D02*
D03*
Y713776D02*
D03*
X372303D02*
D03*
Y724445D02*
D03*
X543602Y644445D02*
D03*
Y633776D02*
D03*
X531988D02*
D03*
Y644445D02*
D03*
X513602Y724445D02*
D03*
Y713776D02*
D03*
X501988D02*
D03*
Y724445D02*
D03*
D18*
X152677Y84405D02*
D03*
X151102D02*
D03*
X149528D02*
D03*
X147953D02*
D03*
X146378D02*
D03*
X144803D02*
D03*
Y95075D02*
D03*
X146378D02*
D03*
X147953D02*
D03*
X149528D02*
D03*
X151102D02*
D03*
X152677D02*
D03*
X122677Y164406D02*
D03*
X121102D02*
D03*
X119528D02*
D03*
X117953D02*
D03*
X116378D02*
D03*
X114803D02*
D03*
Y175075D02*
D03*
X116378D02*
D03*
X117953D02*
D03*
X119528D02*
D03*
X121102D02*
D03*
X122677D02*
D03*
X282362Y84405D02*
D03*
X280787D02*
D03*
X279213D02*
D03*
X277638D02*
D03*
X276063D02*
D03*
X274488D02*
D03*
Y95075D02*
D03*
X276063D02*
D03*
X277638D02*
D03*
X279213D02*
D03*
X280787D02*
D03*
X282362D02*
D03*
X252362Y164406D02*
D03*
X250787D02*
D03*
X249213D02*
D03*
X247638D02*
D03*
X246063D02*
D03*
X244488D02*
D03*
Y175075D02*
D03*
X246063D02*
D03*
X247638D02*
D03*
X249213D02*
D03*
X250787D02*
D03*
X252362D02*
D03*
X412047Y84405D02*
D03*
X410472D02*
D03*
X408898D02*
D03*
X407323D02*
D03*
X405748D02*
D03*
X404173D02*
D03*
Y95075D02*
D03*
X405748D02*
D03*
X407323D02*
D03*
X408898D02*
D03*
X410472D02*
D03*
X412047D02*
D03*
X382047Y164406D02*
D03*
X380472D02*
D03*
X378898D02*
D03*
X377323D02*
D03*
X375748D02*
D03*
X374173D02*
D03*
Y175075D02*
D03*
X375748D02*
D03*
X377323D02*
D03*
X378898D02*
D03*
X380472D02*
D03*
X382047D02*
D03*
X541732Y84405D02*
D03*
X540158D02*
D03*
X538583D02*
D03*
X537008D02*
D03*
X535433D02*
D03*
X533858D02*
D03*
Y95075D02*
D03*
X535433D02*
D03*
X537008D02*
D03*
X538583D02*
D03*
X540158D02*
D03*
X541732D02*
D03*
X511732Y164406D02*
D03*
X510157D02*
D03*
X508583D02*
D03*
X507008D02*
D03*
X505433D02*
D03*
X503858D02*
D03*
Y175075D02*
D03*
X505433D02*
D03*
X507008D02*
D03*
X508583D02*
D03*
X510157D02*
D03*
X511732D02*
D03*
X152677Y194280D02*
D03*
X151102D02*
D03*
X149528D02*
D03*
X147953D02*
D03*
X146378D02*
D03*
X144803D02*
D03*
Y204949D02*
D03*
X146378D02*
D03*
X147953D02*
D03*
X149528D02*
D03*
X151102D02*
D03*
X152677D02*
D03*
X122677Y274279D02*
D03*
X121102D02*
D03*
X119528D02*
D03*
X117953D02*
D03*
X116378D02*
D03*
X114803D02*
D03*
Y284949D02*
D03*
X116378D02*
D03*
X117953D02*
D03*
X119528D02*
D03*
X121102D02*
D03*
X122677D02*
D03*
X282362Y194280D02*
D03*
X280787D02*
D03*
X279213D02*
D03*
X277638D02*
D03*
X276063D02*
D03*
X274488D02*
D03*
Y204949D02*
D03*
X276063D02*
D03*
X277638D02*
D03*
X279213D02*
D03*
X280787D02*
D03*
X282362D02*
D03*
X252362Y274279D02*
D03*
X250787D02*
D03*
X249213D02*
D03*
X247638D02*
D03*
X246063D02*
D03*
X244488D02*
D03*
Y284949D02*
D03*
X246063D02*
D03*
X247638D02*
D03*
X249213D02*
D03*
X250787D02*
D03*
X252362D02*
D03*
X412047Y194280D02*
D03*
X410472D02*
D03*
X408898D02*
D03*
X407323D02*
D03*
X405748D02*
D03*
X404173D02*
D03*
Y204949D02*
D03*
X405748D02*
D03*
X407323D02*
D03*
X408898D02*
D03*
X410472D02*
D03*
X412047D02*
D03*
X382047Y274279D02*
D03*
X380472D02*
D03*
X378898D02*
D03*
X377323D02*
D03*
X375748D02*
D03*
X374173D02*
D03*
Y284949D02*
D03*
X375748D02*
D03*
X377323D02*
D03*
X378898D02*
D03*
X380472D02*
D03*
X382047D02*
D03*
X541732Y194280D02*
D03*
X540158D02*
D03*
X538583D02*
D03*
X537008D02*
D03*
X535433D02*
D03*
X533858D02*
D03*
Y204949D02*
D03*
X535433D02*
D03*
X537008D02*
D03*
X538583D02*
D03*
X540158D02*
D03*
X541732D02*
D03*
X511732Y274279D02*
D03*
X510157D02*
D03*
X508583D02*
D03*
X507008D02*
D03*
X505433D02*
D03*
X503858D02*
D03*
Y284949D02*
D03*
X505433D02*
D03*
X507008D02*
D03*
X508583D02*
D03*
X510157D02*
D03*
X511732D02*
D03*
X152677Y304154D02*
D03*
X151102D02*
D03*
X149528D02*
D03*
X147953D02*
D03*
X146378D02*
D03*
X144803D02*
D03*
Y314823D02*
D03*
X146378D02*
D03*
X147953D02*
D03*
X149528D02*
D03*
X151102D02*
D03*
X152677D02*
D03*
X122677Y384154D02*
D03*
X121102D02*
D03*
X119528D02*
D03*
X117953D02*
D03*
X116378D02*
D03*
X114803D02*
D03*
Y394823D02*
D03*
X116378D02*
D03*
X117953D02*
D03*
X119528D02*
D03*
X121102D02*
D03*
X122677D02*
D03*
X282362Y304154D02*
D03*
X280787D02*
D03*
X279213D02*
D03*
X277638D02*
D03*
X276063D02*
D03*
X274488D02*
D03*
Y314823D02*
D03*
X276063D02*
D03*
X277638D02*
D03*
X279213D02*
D03*
X280787D02*
D03*
X282362D02*
D03*
X252362Y384154D02*
D03*
X250787D02*
D03*
X249213D02*
D03*
X247638D02*
D03*
X246063D02*
D03*
X244488D02*
D03*
Y394823D02*
D03*
X246063D02*
D03*
X247638D02*
D03*
X249213D02*
D03*
X250787D02*
D03*
X252362D02*
D03*
X412047Y304154D02*
D03*
X410472D02*
D03*
X408898D02*
D03*
X407323D02*
D03*
X405748D02*
D03*
X404173D02*
D03*
Y314823D02*
D03*
X405748D02*
D03*
X407323D02*
D03*
X408898D02*
D03*
X410472D02*
D03*
X412047D02*
D03*
X382047Y384154D02*
D03*
X380472D02*
D03*
X378898D02*
D03*
X377323D02*
D03*
X375748D02*
D03*
X374173D02*
D03*
Y394823D02*
D03*
X375748D02*
D03*
X377323D02*
D03*
X378898D02*
D03*
X380472D02*
D03*
X382047D02*
D03*
X541732Y304154D02*
D03*
X540158D02*
D03*
X538583D02*
D03*
X537008D02*
D03*
X535433D02*
D03*
X533858D02*
D03*
Y314823D02*
D03*
X535433D02*
D03*
X537008D02*
D03*
X538583D02*
D03*
X540158D02*
D03*
X541732D02*
D03*
X511732Y384154D02*
D03*
X510157D02*
D03*
X508583D02*
D03*
X507008D02*
D03*
X505433D02*
D03*
X503858D02*
D03*
Y394823D02*
D03*
X505433D02*
D03*
X507008D02*
D03*
X508583D02*
D03*
X510157D02*
D03*
X511732D02*
D03*
X152677Y414028D02*
D03*
X151102D02*
D03*
X149528D02*
D03*
X147953D02*
D03*
X146378D02*
D03*
X144803D02*
D03*
Y424697D02*
D03*
X146378D02*
D03*
X147953D02*
D03*
X149528D02*
D03*
X151102D02*
D03*
X152677D02*
D03*
X122677Y494028D02*
D03*
X121102D02*
D03*
X119528D02*
D03*
X117953D02*
D03*
X116378D02*
D03*
X114803D02*
D03*
Y504697D02*
D03*
X116378D02*
D03*
X117953D02*
D03*
X119528D02*
D03*
X121102D02*
D03*
X122677D02*
D03*
X282362Y414028D02*
D03*
X280787D02*
D03*
X279213D02*
D03*
X277638D02*
D03*
X276063D02*
D03*
X274488D02*
D03*
Y424697D02*
D03*
X276063D02*
D03*
X277638D02*
D03*
X279213D02*
D03*
X280787D02*
D03*
X282362D02*
D03*
X252362Y494028D02*
D03*
X250787D02*
D03*
X249213D02*
D03*
X247638D02*
D03*
X246063D02*
D03*
X244488D02*
D03*
Y504697D02*
D03*
X246063D02*
D03*
X247638D02*
D03*
X249213D02*
D03*
X250787D02*
D03*
X252362D02*
D03*
X412047Y414028D02*
D03*
X410472D02*
D03*
X408898D02*
D03*
X407323D02*
D03*
X405748D02*
D03*
X404173D02*
D03*
Y424697D02*
D03*
X405748D02*
D03*
X407323D02*
D03*
X408898D02*
D03*
X410472D02*
D03*
X412047D02*
D03*
X382047Y494028D02*
D03*
X380472D02*
D03*
X378898D02*
D03*
X377323D02*
D03*
X375748D02*
D03*
X374173D02*
D03*
Y504697D02*
D03*
X375748D02*
D03*
X377323D02*
D03*
X378898D02*
D03*
X380472D02*
D03*
X382047D02*
D03*
X541732Y414028D02*
D03*
X540158D02*
D03*
X538583D02*
D03*
X537008D02*
D03*
X535433D02*
D03*
X533858D02*
D03*
Y424697D02*
D03*
X535433D02*
D03*
X537008D02*
D03*
X538583D02*
D03*
X540158D02*
D03*
X541732D02*
D03*
X511732Y494028D02*
D03*
X510157D02*
D03*
X508583D02*
D03*
X507008D02*
D03*
X505433D02*
D03*
X503858D02*
D03*
Y504697D02*
D03*
X505433D02*
D03*
X507008D02*
D03*
X508583D02*
D03*
X510157D02*
D03*
X511732D02*
D03*
X152677Y523902D02*
D03*
X151102D02*
D03*
X149528D02*
D03*
X147953D02*
D03*
X146378D02*
D03*
X144803D02*
D03*
Y534571D02*
D03*
X146378D02*
D03*
X147953D02*
D03*
X149528D02*
D03*
X151102D02*
D03*
X152677D02*
D03*
X122677Y603902D02*
D03*
X121102D02*
D03*
X119528D02*
D03*
X117953D02*
D03*
X116378D02*
D03*
X114803D02*
D03*
Y614571D02*
D03*
X116378D02*
D03*
X117953D02*
D03*
X119528D02*
D03*
X121102D02*
D03*
X122677D02*
D03*
X282362Y523902D02*
D03*
X280787D02*
D03*
X279213D02*
D03*
X277638D02*
D03*
X276063D02*
D03*
X274488D02*
D03*
Y534571D02*
D03*
X276063D02*
D03*
X277638D02*
D03*
X279213D02*
D03*
X280787D02*
D03*
X282362D02*
D03*
X252362Y603902D02*
D03*
X250787D02*
D03*
X249213D02*
D03*
X247638D02*
D03*
X246063D02*
D03*
X244488D02*
D03*
Y614571D02*
D03*
X246063D02*
D03*
X247638D02*
D03*
X249213D02*
D03*
X250787D02*
D03*
X252362D02*
D03*
X412047Y523902D02*
D03*
X410472D02*
D03*
X408898D02*
D03*
X407323D02*
D03*
X405748D02*
D03*
X404173D02*
D03*
Y534571D02*
D03*
X405748D02*
D03*
X407323D02*
D03*
X408898D02*
D03*
X410472D02*
D03*
X412047D02*
D03*
X382047Y603902D02*
D03*
X380472D02*
D03*
X378898D02*
D03*
X377323D02*
D03*
X375748D02*
D03*
X374173D02*
D03*
Y614571D02*
D03*
X375748D02*
D03*
X377323D02*
D03*
X378898D02*
D03*
X380472D02*
D03*
X382047D02*
D03*
X541732Y523902D02*
D03*
X540158D02*
D03*
X538583D02*
D03*
X537008D02*
D03*
X535433D02*
D03*
X533858D02*
D03*
Y534571D02*
D03*
X535433D02*
D03*
X537008D02*
D03*
X538583D02*
D03*
X540158D02*
D03*
X541732D02*
D03*
X511732Y603902D02*
D03*
X510157D02*
D03*
X508583D02*
D03*
X507008D02*
D03*
X505433D02*
D03*
X503858D02*
D03*
Y614571D02*
D03*
X505433D02*
D03*
X507008D02*
D03*
X508583D02*
D03*
X510157D02*
D03*
X511732D02*
D03*
X152677Y633776D02*
D03*
X151102D02*
D03*
X149528D02*
D03*
X147953D02*
D03*
X146378D02*
D03*
X144803D02*
D03*
Y644445D02*
D03*
X146378D02*
D03*
X147953D02*
D03*
X149528D02*
D03*
X151102D02*
D03*
X152677D02*
D03*
X122677Y713776D02*
D03*
X121102D02*
D03*
X119528D02*
D03*
X117953D02*
D03*
X116378D02*
D03*
X114803D02*
D03*
Y724445D02*
D03*
X116378D02*
D03*
X117953D02*
D03*
X119528D02*
D03*
X121102D02*
D03*
X122677D02*
D03*
X282362Y633776D02*
D03*
X280787D02*
D03*
X279213D02*
D03*
X277638D02*
D03*
X276063D02*
D03*
X274488D02*
D03*
Y644445D02*
D03*
X276063D02*
D03*
X277638D02*
D03*
X279213D02*
D03*
X280787D02*
D03*
X282362D02*
D03*
X252362Y713776D02*
D03*
X250787D02*
D03*
X249213D02*
D03*
X247638D02*
D03*
X246063D02*
D03*
X244488D02*
D03*
Y724445D02*
D03*
X246063D02*
D03*
X247638D02*
D03*
X249213D02*
D03*
X250787D02*
D03*
X252362D02*
D03*
X412047Y633776D02*
D03*
X410472D02*
D03*
X408898D02*
D03*
X407323D02*
D03*
X405748D02*
D03*
X404173D02*
D03*
Y644445D02*
D03*
X405748D02*
D03*
X407323D02*
D03*
X408898D02*
D03*
X410472D02*
D03*
X412047D02*
D03*
X382047Y713776D02*
D03*
X380472D02*
D03*
X378898D02*
D03*
X377323D02*
D03*
X375748D02*
D03*
X374173D02*
D03*
Y724445D02*
D03*
X375748D02*
D03*
X377323D02*
D03*
X378898D02*
D03*
X380472D02*
D03*
X382047D02*
D03*
X541732Y633776D02*
D03*
X540158D02*
D03*
X538583D02*
D03*
X537008D02*
D03*
X535433D02*
D03*
X533858D02*
D03*
Y644445D02*
D03*
X535433D02*
D03*
X537008D02*
D03*
X538583D02*
D03*
X540158D02*
D03*
X541732D02*
D03*
X511732Y713776D02*
D03*
X510157D02*
D03*
X508583D02*
D03*
X507008D02*
D03*
X505433D02*
D03*
X503858D02*
D03*
Y724445D02*
D03*
X505433D02*
D03*
X507008D02*
D03*
X508583D02*
D03*
X510157D02*
D03*
X511732D02*
D03*
D22*
X127480Y147040D02*
D03*
Y144481D02*
D03*
Y149599D02*
D03*
X120000Y144481D02*
D03*
Y147040D02*
D03*
Y149599D02*
D03*
X257165Y147040D02*
D03*
Y144481D02*
D03*
Y149599D02*
D03*
X249685Y144481D02*
D03*
Y147040D02*
D03*
Y149599D02*
D03*
X386850Y147040D02*
D03*
Y144481D02*
D03*
Y149599D02*
D03*
X379370Y144481D02*
D03*
Y147040D02*
D03*
Y149599D02*
D03*
X516535Y147040D02*
D03*
Y144481D02*
D03*
Y149599D02*
D03*
X509055Y144481D02*
D03*
Y147040D02*
D03*
Y149599D02*
D03*
X127480Y256914D02*
D03*
Y254355D02*
D03*
Y259473D02*
D03*
X120000Y254355D02*
D03*
Y256914D02*
D03*
Y259473D02*
D03*
X257165Y256914D02*
D03*
Y254355D02*
D03*
Y259473D02*
D03*
X249685Y254355D02*
D03*
Y256914D02*
D03*
Y259473D02*
D03*
X386850Y256914D02*
D03*
Y254355D02*
D03*
Y259473D02*
D03*
X379370Y254355D02*
D03*
Y256914D02*
D03*
Y259473D02*
D03*
X516535Y256914D02*
D03*
Y254355D02*
D03*
Y259473D02*
D03*
X509055Y254355D02*
D03*
Y256914D02*
D03*
Y259473D02*
D03*
X127480Y366788D02*
D03*
Y364229D02*
D03*
Y369347D02*
D03*
X120000Y364229D02*
D03*
Y366788D02*
D03*
Y369347D02*
D03*
X257165Y366788D02*
D03*
Y364229D02*
D03*
Y369347D02*
D03*
X249685Y364229D02*
D03*
Y366788D02*
D03*
Y369347D02*
D03*
X386850Y366788D02*
D03*
Y364229D02*
D03*
Y369347D02*
D03*
X379370Y364229D02*
D03*
Y366788D02*
D03*
Y369347D02*
D03*
X516535Y366788D02*
D03*
Y364229D02*
D03*
Y369347D02*
D03*
X509055Y364229D02*
D03*
Y366788D02*
D03*
Y369347D02*
D03*
X127480Y476662D02*
D03*
Y474103D02*
D03*
Y479221D02*
D03*
X120000Y474103D02*
D03*
Y476662D02*
D03*
Y479221D02*
D03*
X257165Y476662D02*
D03*
Y474103D02*
D03*
Y479221D02*
D03*
X249685Y474103D02*
D03*
Y476662D02*
D03*
Y479221D02*
D03*
X386850Y476662D02*
D03*
Y474103D02*
D03*
Y479221D02*
D03*
X379370Y474103D02*
D03*
Y476662D02*
D03*
Y479221D02*
D03*
X516535Y476662D02*
D03*
Y474103D02*
D03*
Y479221D02*
D03*
X509055Y474103D02*
D03*
Y476662D02*
D03*
Y479221D02*
D03*
X127480Y586536D02*
D03*
Y583977D02*
D03*
Y589095D02*
D03*
X120000Y583977D02*
D03*
Y586536D02*
D03*
Y589095D02*
D03*
X257165Y586536D02*
D03*
Y583977D02*
D03*
Y589095D02*
D03*
X249685Y583977D02*
D03*
Y586536D02*
D03*
Y589095D02*
D03*
X386850Y586536D02*
D03*
Y583977D02*
D03*
Y589095D02*
D03*
X379370Y583977D02*
D03*
Y586536D02*
D03*
Y589095D02*
D03*
X516535Y586536D02*
D03*
Y583977D02*
D03*
Y589095D02*
D03*
X509055Y583977D02*
D03*
Y586536D02*
D03*
Y589095D02*
D03*
X127480Y696410D02*
D03*
Y693851D02*
D03*
Y698969D02*
D03*
X120000Y693851D02*
D03*
Y696410D02*
D03*
Y698969D02*
D03*
X257165Y696410D02*
D03*
Y693851D02*
D03*
Y698969D02*
D03*
X249685Y693851D02*
D03*
Y696410D02*
D03*
Y698969D02*
D03*
X386850Y696410D02*
D03*
Y693851D02*
D03*
Y698969D02*
D03*
X379370Y693851D02*
D03*
Y696410D02*
D03*
Y698969D02*
D03*
X516535Y696410D02*
D03*
Y693851D02*
D03*
Y698969D02*
D03*
X509055Y693851D02*
D03*
Y696410D02*
D03*
Y698969D02*
D03*
D43*
X138240Y161583D02*
D03*
X134500D02*
D03*
X141980D02*
D03*
Y171898D02*
D03*
X138240D02*
D03*
X134500D02*
D03*
X267925Y161583D02*
D03*
X264185D02*
D03*
X271665D02*
D03*
Y171898D02*
D03*
X267925D02*
D03*
X264185D02*
D03*
X397610Y161583D02*
D03*
X393870D02*
D03*
X401350D02*
D03*
Y171898D02*
D03*
X397610D02*
D03*
X393870D02*
D03*
X527295Y161583D02*
D03*
X523555D02*
D03*
X531035D02*
D03*
Y171898D02*
D03*
X527295D02*
D03*
X523555D02*
D03*
X138240Y271457D02*
D03*
X134500D02*
D03*
X141980D02*
D03*
Y281772D02*
D03*
X138240D02*
D03*
X134500D02*
D03*
X267925Y271457D02*
D03*
X264185D02*
D03*
X271665D02*
D03*
Y281772D02*
D03*
X267925D02*
D03*
X264185D02*
D03*
X397610Y271457D02*
D03*
X393870D02*
D03*
X401350D02*
D03*
Y281772D02*
D03*
X397610D02*
D03*
X393870D02*
D03*
X527295Y271457D02*
D03*
X523555D02*
D03*
X531035D02*
D03*
Y281772D02*
D03*
X527295D02*
D03*
X523555D02*
D03*
X138240Y381331D02*
D03*
X134500D02*
D03*
X141980D02*
D03*
Y391646D02*
D03*
X138240D02*
D03*
X134500D02*
D03*
X267925Y381331D02*
D03*
X264185D02*
D03*
X271665D02*
D03*
Y391646D02*
D03*
X267925D02*
D03*
X264185D02*
D03*
X397610Y381331D02*
D03*
X393870D02*
D03*
X401350D02*
D03*
Y391646D02*
D03*
X397610D02*
D03*
X393870D02*
D03*
X527295Y381331D02*
D03*
X523555D02*
D03*
X531035D02*
D03*
Y391646D02*
D03*
X527295D02*
D03*
X523555D02*
D03*
X138240Y491205D02*
D03*
X134500D02*
D03*
X141980D02*
D03*
Y501520D02*
D03*
X138240D02*
D03*
X134500D02*
D03*
X267925Y491205D02*
D03*
X264185D02*
D03*
X271665D02*
D03*
Y501520D02*
D03*
X267925D02*
D03*
X264185D02*
D03*
X397610Y491205D02*
D03*
X393870D02*
D03*
X401350D02*
D03*
Y501520D02*
D03*
X397610D02*
D03*
X393870D02*
D03*
X527295Y491205D02*
D03*
X523555D02*
D03*
X531035D02*
D03*
Y501520D02*
D03*
X527295D02*
D03*
X523555D02*
D03*
X138240Y601079D02*
D03*
X134500D02*
D03*
X141980D02*
D03*
Y611394D02*
D03*
X138240D02*
D03*
X134500D02*
D03*
X267925Y601079D02*
D03*
X264185D02*
D03*
X271665D02*
D03*
Y611394D02*
D03*
X267925D02*
D03*
X264185D02*
D03*
X397610Y601079D02*
D03*
X393870D02*
D03*
X401350D02*
D03*
Y611394D02*
D03*
X397610D02*
D03*
X393870D02*
D03*
X527295Y601079D02*
D03*
X523555D02*
D03*
X531035D02*
D03*
Y611394D02*
D03*
X527295D02*
D03*
X523555D02*
D03*
X138240Y710953D02*
D03*
X134500D02*
D03*
X141980D02*
D03*
Y721268D02*
D03*
X138240D02*
D03*
X134500D02*
D03*
X267925Y710953D02*
D03*
X264185D02*
D03*
X271665D02*
D03*
Y721268D02*
D03*
X267925D02*
D03*
X264185D02*
D03*
X397610Y710953D02*
D03*
X393870D02*
D03*
X401350D02*
D03*
Y721268D02*
D03*
X397610D02*
D03*
X393870D02*
D03*
X527295Y710953D02*
D03*
X523555D02*
D03*
X531035D02*
D03*
Y721268D02*
D03*
X527295D02*
D03*
X523555D02*
D03*
D44*
X130617Y95650D02*
D03*
Y91910D02*
D03*
Y88170D02*
D03*
Y84430D02*
D03*
X115263D02*
D03*
Y88170D02*
D03*
Y91910D02*
D03*
Y95650D02*
D03*
X260302D02*
D03*
Y91910D02*
D03*
Y88170D02*
D03*
Y84430D02*
D03*
X244948D02*
D03*
Y88170D02*
D03*
Y91910D02*
D03*
Y95650D02*
D03*
X389987D02*
D03*
Y91910D02*
D03*
Y88170D02*
D03*
Y84430D02*
D03*
X374633D02*
D03*
Y88170D02*
D03*
Y91910D02*
D03*
Y95650D02*
D03*
X519672D02*
D03*
Y91910D02*
D03*
Y88170D02*
D03*
Y84430D02*
D03*
X504318D02*
D03*
Y88170D02*
D03*
Y91910D02*
D03*
Y95650D02*
D03*
X130617Y205524D02*
D03*
Y201784D02*
D03*
Y198044D02*
D03*
Y194304D02*
D03*
X115263D02*
D03*
Y198044D02*
D03*
Y201784D02*
D03*
Y205524D02*
D03*
X260302D02*
D03*
Y201784D02*
D03*
Y198044D02*
D03*
Y194304D02*
D03*
X244948D02*
D03*
Y198044D02*
D03*
Y201784D02*
D03*
Y205524D02*
D03*
X389987D02*
D03*
Y201784D02*
D03*
Y198044D02*
D03*
Y194304D02*
D03*
X374633D02*
D03*
Y198044D02*
D03*
Y201784D02*
D03*
Y205524D02*
D03*
X519672D02*
D03*
Y201784D02*
D03*
Y198044D02*
D03*
Y194304D02*
D03*
X504318D02*
D03*
Y198044D02*
D03*
Y201784D02*
D03*
Y205524D02*
D03*
X130617Y315398D02*
D03*
Y311658D02*
D03*
Y307918D02*
D03*
Y304178D02*
D03*
X115263D02*
D03*
Y307918D02*
D03*
Y311658D02*
D03*
Y315398D02*
D03*
X260302D02*
D03*
Y311658D02*
D03*
Y307918D02*
D03*
Y304178D02*
D03*
X244948D02*
D03*
Y307918D02*
D03*
Y311658D02*
D03*
Y315398D02*
D03*
X389987D02*
D03*
Y311658D02*
D03*
Y307918D02*
D03*
Y304178D02*
D03*
X374633D02*
D03*
Y307918D02*
D03*
Y311658D02*
D03*
Y315398D02*
D03*
X519672D02*
D03*
Y311658D02*
D03*
Y307918D02*
D03*
Y304178D02*
D03*
X504318D02*
D03*
Y307918D02*
D03*
Y311658D02*
D03*
Y315398D02*
D03*
X130617Y425273D02*
D03*
Y421532D02*
D03*
Y417792D02*
D03*
Y414052D02*
D03*
X115263D02*
D03*
Y417792D02*
D03*
Y421532D02*
D03*
Y425273D02*
D03*
X260302D02*
D03*
Y421532D02*
D03*
Y417792D02*
D03*
Y414052D02*
D03*
X244948D02*
D03*
Y417792D02*
D03*
Y421532D02*
D03*
Y425273D02*
D03*
X389987D02*
D03*
Y421532D02*
D03*
Y417792D02*
D03*
Y414052D02*
D03*
X374633D02*
D03*
Y417792D02*
D03*
Y421532D02*
D03*
Y425273D02*
D03*
X519672D02*
D03*
Y421532D02*
D03*
Y417792D02*
D03*
Y414052D02*
D03*
X504318D02*
D03*
Y417792D02*
D03*
Y421532D02*
D03*
Y425273D02*
D03*
X130617Y535147D02*
D03*
Y531406D02*
D03*
Y527666D02*
D03*
Y523926D02*
D03*
X115263D02*
D03*
Y527666D02*
D03*
Y531406D02*
D03*
Y535147D02*
D03*
X260302D02*
D03*
Y531406D02*
D03*
Y527666D02*
D03*
Y523926D02*
D03*
X244948D02*
D03*
Y527666D02*
D03*
Y531406D02*
D03*
Y535147D02*
D03*
X389987D02*
D03*
Y531406D02*
D03*
Y527666D02*
D03*
Y523926D02*
D03*
X374633D02*
D03*
Y527666D02*
D03*
Y531406D02*
D03*
Y535147D02*
D03*
X519672D02*
D03*
Y531406D02*
D03*
Y527666D02*
D03*
Y523926D02*
D03*
X504318D02*
D03*
Y527666D02*
D03*
Y531406D02*
D03*
Y535147D02*
D03*
X130617Y645020D02*
D03*
Y641280D02*
D03*
Y637540D02*
D03*
Y633800D02*
D03*
X115263D02*
D03*
Y637540D02*
D03*
Y641280D02*
D03*
Y645020D02*
D03*
X260302D02*
D03*
Y641280D02*
D03*
Y637540D02*
D03*
Y633800D02*
D03*
X244948D02*
D03*
Y637540D02*
D03*
Y641280D02*
D03*
Y645020D02*
D03*
X389987D02*
D03*
Y641280D02*
D03*
Y637540D02*
D03*
Y633800D02*
D03*
X374633D02*
D03*
Y637540D02*
D03*
Y641280D02*
D03*
Y645020D02*
D03*
X519672D02*
D03*
Y641280D02*
D03*
Y637540D02*
D03*
Y633800D02*
D03*
X504318D02*
D03*
Y637540D02*
D03*
Y641280D02*
D03*
Y645020D02*
D03*
D45*
X122940Y90040D02*
D03*
X252625D02*
D03*
X382310D02*
D03*
X511995D02*
D03*
X122940Y199914D02*
D03*
X252625D02*
D03*
X382310D02*
D03*
X511995D02*
D03*
X122940Y309788D02*
D03*
X252625D02*
D03*
X382310D02*
D03*
X511995D02*
D03*
X122940Y419662D02*
D03*
X252625D02*
D03*
X382310D02*
D03*
X511995D02*
D03*
X122940Y529536D02*
D03*
X252625D02*
D03*
X382310D02*
D03*
X511995D02*
D03*
X122940Y639410D02*
D03*
X252625D02*
D03*
X382310D02*
D03*
X511995D02*
D03*
D46*
X134287Y156240D02*
D03*
X140193D02*
D03*
X263972D02*
D03*
X269878D02*
D03*
X393657D02*
D03*
X399563D02*
D03*
X523343D02*
D03*
X529248D02*
D03*
X134287Y266114D02*
D03*
X140193D02*
D03*
X263972D02*
D03*
X269878D02*
D03*
X393657D02*
D03*
X399563D02*
D03*
X523343D02*
D03*
X529248D02*
D03*
X134287Y375988D02*
D03*
X140193D02*
D03*
X263972D02*
D03*
X269878D02*
D03*
X393657D02*
D03*
X399563D02*
D03*
X523343D02*
D03*
X529248D02*
D03*
X134287Y485862D02*
D03*
X140193D02*
D03*
X263972D02*
D03*
X269878D02*
D03*
X393657D02*
D03*
X399563D02*
D03*
X523343D02*
D03*
X529248D02*
D03*
X134287Y595736D02*
D03*
X140193D02*
D03*
X263972D02*
D03*
X269878D02*
D03*
X393657D02*
D03*
X399563D02*
D03*
X523343D02*
D03*
X529248D02*
D03*
X134287Y705610D02*
D03*
X140193D02*
D03*
X263972D02*
D03*
X269878D02*
D03*
X393657D02*
D03*
X399563D02*
D03*
X523343D02*
D03*
X529248D02*
D03*
D47*
X83740Y143840D02*
D03*
Y133840D02*
D03*
Y163840D02*
D03*
Y153840D02*
D03*
X213425Y143840D02*
D03*
Y133840D02*
D03*
Y163840D02*
D03*
Y153840D02*
D03*
X343110Y143840D02*
D03*
Y133840D02*
D03*
Y163840D02*
D03*
Y153840D02*
D03*
X472795Y143840D02*
D03*
Y133840D02*
D03*
Y163840D02*
D03*
Y153840D02*
D03*
X83740Y253714D02*
D03*
Y243714D02*
D03*
Y273714D02*
D03*
Y263714D02*
D03*
X213425Y253714D02*
D03*
Y243714D02*
D03*
Y273714D02*
D03*
Y263714D02*
D03*
X343110Y253714D02*
D03*
Y243714D02*
D03*
Y273714D02*
D03*
Y263714D02*
D03*
X472795Y253714D02*
D03*
Y243714D02*
D03*
Y273714D02*
D03*
Y263714D02*
D03*
X83740Y363588D02*
D03*
Y353588D02*
D03*
Y383588D02*
D03*
Y373588D02*
D03*
X213425Y363588D02*
D03*
Y353588D02*
D03*
Y383588D02*
D03*
Y373588D02*
D03*
X343110Y363588D02*
D03*
Y353588D02*
D03*
Y383588D02*
D03*
Y373588D02*
D03*
X472795Y363588D02*
D03*
Y353588D02*
D03*
Y383588D02*
D03*
Y373588D02*
D03*
X83740Y473462D02*
D03*
Y463462D02*
D03*
Y493462D02*
D03*
Y483462D02*
D03*
X213425Y473462D02*
D03*
Y463462D02*
D03*
Y493462D02*
D03*
Y483462D02*
D03*
X343110Y473462D02*
D03*
Y463462D02*
D03*
Y493462D02*
D03*
Y483462D02*
D03*
X472795Y473462D02*
D03*
Y463462D02*
D03*
Y493462D02*
D03*
Y483462D02*
D03*
X83740Y583336D02*
D03*
Y573336D02*
D03*
Y603336D02*
D03*
Y593336D02*
D03*
X213425Y583336D02*
D03*
Y573336D02*
D03*
Y603336D02*
D03*
Y593336D02*
D03*
X343110Y583336D02*
D03*
Y573336D02*
D03*
Y603336D02*
D03*
Y593336D02*
D03*
X472795Y583336D02*
D03*
Y573336D02*
D03*
Y603336D02*
D03*
Y593336D02*
D03*
X83740Y693210D02*
D03*
Y683210D02*
D03*
Y713210D02*
D03*
Y703210D02*
D03*
X213425Y693210D02*
D03*
Y683210D02*
D03*
Y713210D02*
D03*
Y703210D02*
D03*
X343110Y693210D02*
D03*
Y683210D02*
D03*
Y713210D02*
D03*
Y703210D02*
D03*
X472795Y693210D02*
D03*
Y683210D02*
D03*
Y713210D02*
D03*
Y703210D02*
D03*
D48*
X90067Y105240D02*
D03*
X93413D02*
D03*
X219752D02*
D03*
X223098D02*
D03*
X349437D02*
D03*
X352783D02*
D03*
X479122D02*
D03*
X482469D02*
D03*
X90067Y215114D02*
D03*
X93413D02*
D03*
X219752D02*
D03*
X223098D02*
D03*
X349437D02*
D03*
X352783D02*
D03*
X479122D02*
D03*
X482469D02*
D03*
X90067Y324988D02*
D03*
X93413D02*
D03*
X219752D02*
D03*
X223098D02*
D03*
X349437D02*
D03*
X352783D02*
D03*
X479122D02*
D03*
X482469D02*
D03*
X90067Y434862D02*
D03*
X93413D02*
D03*
X219752D02*
D03*
X223098D02*
D03*
X349437D02*
D03*
X352783D02*
D03*
X479122D02*
D03*
X482469D02*
D03*
X90067Y544736D02*
D03*
X93413D02*
D03*
X219752D02*
D03*
X223098D02*
D03*
X349437D02*
D03*
X352783D02*
D03*
X479122D02*
D03*
X482469D02*
D03*
X90067Y654610D02*
D03*
X93413D02*
D03*
X219752D02*
D03*
X223098D02*
D03*
X349437D02*
D03*
X352783D02*
D03*
X479122D02*
D03*
X482469D02*
D03*
M02*
