G04 Layer_Color=8421504*
%FSLAX25Y25*%
%MOIN*%
G70*
G01*
G75*
%ADD10C,0.08000*%
%ADD11R,0.08000X0.08000*%
%ADD12R,0.07087X0.05906*%
%ADD13R,0.01598X0.02551*%
%ADD14R,0.01575X0.02362*%
%ADD15R,0.02362X0.01575*%
%ADD16R,0.04134X0.05512*%
%ADD17R,0.01378X0.02598*%
%ADD18R,0.00906X0.02598*%
%ADD19R,0.25984X0.25984*%
%ADD20O,0.00984X0.02362*%
%ADD21O,0.02362X0.00984*%
%ADD22R,0.02551X0.01598*%
%ADD23O,0.02362X0.01181*%
%ADD24R,0.03937X0.06299*%
%ADD25R,0.01969X0.03937*%
%ADD26R,0.03347X0.03740*%
%ADD27R,0.03150X0.01969*%
%ADD29R,0.02756X0.03543*%
%ADD30R,0.01181X0.02953*%
%ADD31R,0.06693X0.16142*%
%ADD32R,0.03937X0.03937*%
G36*
X491325Y656280D02*
X481876D01*
X491325Y665729D01*
Y656280D01*
D02*
G37*
G36*
X361640D02*
X352191D01*
X361640Y665729D01*
Y656280D01*
D02*
G37*
G36*
X231955D02*
X222506D01*
X231955Y665729D01*
Y656280D01*
D02*
G37*
G36*
X102270D02*
X92821D01*
X102270Y665729D01*
Y656280D01*
D02*
G37*
G36*
X482302Y650289D02*
X484220Y649613D01*
X485971Y648580D01*
X487490Y647229D01*
X488720Y645609D01*
X489613Y643783D01*
X490138Y641819D01*
X490205Y640804D01*
X490130Y640799D01*
X490205Y640804D01*
X490211Y640718D01*
X490220Y640544D01*
X490226Y640371D01*
X490228Y640197D01*
Y640110D01*
X490228Y639094D01*
X489836Y637099D01*
X489066Y635217D01*
X487947Y633519D01*
X486521Y632070D01*
X484842Y630923D01*
X482974Y630121D01*
X480985Y629696D01*
X478953Y629662D01*
X476951Y630021D01*
X475057Y630760D01*
X473341Y631850D01*
X471868Y633252D01*
X470693Y634911D01*
X469861Y636766D01*
X469402Y638747D01*
X469334Y640779D01*
X469660Y642786D01*
X470367Y644692D01*
X471429Y646426D01*
X472806Y647922D01*
X474445Y649125D01*
X476286Y649988D01*
X478259Y650480D01*
X480290Y650581D01*
X482302Y650289D01*
D02*
G37*
G36*
X352617D02*
X354535Y649613D01*
X356286Y648580D01*
X357805Y647229D01*
X359034Y645609D01*
X359928Y643783D01*
X360453Y641819D01*
X360520Y640804D01*
X360445Y640799D01*
X360520Y640804D01*
X360526Y640718D01*
X360535Y640544D01*
X360540Y640371D01*
X360543Y640197D01*
Y640110D01*
X360543Y639094D01*
X360151Y637099D01*
X359381Y635217D01*
X358261Y633519D01*
X356836Y632070D01*
X355157Y630923D01*
X353289Y630121D01*
X351300Y629696D01*
X349267Y629662D01*
X347266Y630021D01*
X345372Y630760D01*
X343656Y631850D01*
X342183Y633252D01*
X341008Y634911D01*
X340176Y636766D01*
X339717Y638747D01*
X339649Y640779D01*
X339975Y642786D01*
X340682Y644692D01*
X341744Y646426D01*
X343121Y647922D01*
X344760Y649125D01*
X346601Y649988D01*
X348574Y650480D01*
X350605Y650581D01*
X352617Y650289D01*
D02*
G37*
G36*
X222932D02*
X224850Y649613D01*
X226601Y648580D01*
X228120Y647229D01*
X229349Y645609D01*
X230243Y643783D01*
X230767Y641819D01*
X230835Y640804D01*
X230760Y640799D01*
X230835Y640804D01*
X230841Y640718D01*
X230850Y640544D01*
X230855Y640371D01*
X230858Y640197D01*
Y640110D01*
X230858Y639094D01*
X230466Y637099D01*
X229696Y635217D01*
X228576Y633519D01*
X227151Y632070D01*
X225472Y630923D01*
X223604Y630121D01*
X221615Y629696D01*
X219582Y629662D01*
X217581Y630021D01*
X215687Y630760D01*
X213971Y631850D01*
X212498Y633252D01*
X211323Y634911D01*
X210490Y636766D01*
X210032Y638747D01*
X209964Y640779D01*
X210290Y642786D01*
X210997Y644692D01*
X212059Y646426D01*
X213436Y647922D01*
X215075Y649125D01*
X216916Y649988D01*
X218889Y650480D01*
X220920Y650581D01*
X222932Y650289D01*
D02*
G37*
G36*
X93247D02*
X95165Y649613D01*
X96916Y648580D01*
X98435Y647229D01*
X99664Y645609D01*
X100558Y643783D01*
X101083Y641819D01*
X101150Y640804D01*
X101075Y640799D01*
X101150Y640804D01*
X101156Y640718D01*
X101165Y640544D01*
X101170Y640371D01*
X101173Y640197D01*
Y640110D01*
X101173Y639094D01*
X100781Y637099D01*
X100011Y635217D01*
X98891Y633519D01*
X97466Y632070D01*
X95787Y630923D01*
X93918Y630121D01*
X91930Y629696D01*
X89897Y629662D01*
X87896Y630021D01*
X86002Y630760D01*
X84286Y631850D01*
X82813Y633252D01*
X81638Y634911D01*
X80805Y636766D01*
X80347Y638747D01*
X80279Y640779D01*
X80605Y642786D01*
X81312Y644692D01*
X82374Y646426D01*
X83751Y647922D01*
X85390Y649125D01*
X87231Y649988D01*
X89204Y650480D01*
X91235Y650581D01*
X93247Y650289D01*
D02*
G37*
G36*
X491325Y546406D02*
X481876D01*
X491325Y555855D01*
Y546406D01*
D02*
G37*
G36*
X361640D02*
X352191D01*
X361640Y555855D01*
Y546406D01*
D02*
G37*
G36*
X231955D02*
X222506D01*
X231955Y555855D01*
Y546406D01*
D02*
G37*
G36*
X102270D02*
X92821D01*
X102270Y555855D01*
Y546406D01*
D02*
G37*
G36*
X482302Y540414D02*
X484220Y539739D01*
X485971Y538706D01*
X487490Y537355D01*
X488720Y535735D01*
X489613Y533909D01*
X490138Y531945D01*
X490205Y530930D01*
X490130Y530925D01*
X490205Y530930D01*
X490211Y530844D01*
X490220Y530670D01*
X490226Y530497D01*
X490228Y530323D01*
Y530236D01*
X490228Y529220D01*
X489836Y527225D01*
X489066Y525343D01*
X487947Y523645D01*
X486521Y522196D01*
X484842Y521049D01*
X482974Y520247D01*
X480985Y519822D01*
X478953Y519788D01*
X476951Y520147D01*
X475057Y520886D01*
X473341Y521976D01*
X471868Y523378D01*
X470693Y525037D01*
X469861Y526892D01*
X469402Y528873D01*
X469334Y530905D01*
X469660Y532912D01*
X470367Y534818D01*
X471429Y536552D01*
X472806Y538048D01*
X474445Y539251D01*
X476286Y540114D01*
X478259Y540605D01*
X480290Y540707D01*
X482302Y540414D01*
D02*
G37*
G36*
X352617D02*
X354535Y539739D01*
X356286Y538706D01*
X357805Y537355D01*
X359034Y535735D01*
X359928Y533909D01*
X360453Y531945D01*
X360520Y530930D01*
X360445Y530925D01*
X360520Y530930D01*
X360526Y530844D01*
X360535Y530670D01*
X360540Y530497D01*
X360543Y530323D01*
Y530236D01*
X360543Y529220D01*
X360151Y527225D01*
X359381Y525343D01*
X358261Y523645D01*
X356836Y522196D01*
X355157Y521049D01*
X353289Y520247D01*
X351300Y519822D01*
X349267Y519788D01*
X347266Y520147D01*
X345372Y520886D01*
X343656Y521976D01*
X342183Y523378D01*
X341008Y525037D01*
X340176Y526892D01*
X339717Y528873D01*
X339649Y530905D01*
X339975Y532912D01*
X340682Y534818D01*
X341744Y536552D01*
X343121Y538048D01*
X344760Y539251D01*
X346601Y540114D01*
X348574Y540605D01*
X350605Y540707D01*
X352617Y540414D01*
D02*
G37*
G36*
X222932D02*
X224850Y539739D01*
X226601Y538706D01*
X228120Y537355D01*
X229349Y535735D01*
X230243Y533909D01*
X230767Y531945D01*
X230835Y530930D01*
X230760Y530925D01*
X230835Y530930D01*
X230841Y530844D01*
X230850Y530670D01*
X230855Y530497D01*
X230858Y530323D01*
Y530236D01*
X230858Y529220D01*
X230466Y527225D01*
X229696Y525343D01*
X228576Y523645D01*
X227151Y522196D01*
X225472Y521049D01*
X223604Y520247D01*
X221615Y519822D01*
X219582Y519788D01*
X217581Y520147D01*
X215687Y520886D01*
X213971Y521976D01*
X212498Y523378D01*
X211323Y525037D01*
X210490Y526892D01*
X210032Y528873D01*
X209964Y530905D01*
X210290Y532912D01*
X210997Y534818D01*
X212059Y536552D01*
X213436Y538048D01*
X215075Y539251D01*
X216916Y540114D01*
X218889Y540605D01*
X220920Y540707D01*
X222932Y540414D01*
D02*
G37*
G36*
X93247D02*
X95165Y539739D01*
X96916Y538706D01*
X98435Y537355D01*
X99664Y535735D01*
X100558Y533909D01*
X101083Y531945D01*
X101150Y530930D01*
X101075Y530925D01*
X101150Y530930D01*
X101156Y530844D01*
X101165Y530670D01*
X101170Y530497D01*
X101173Y530323D01*
Y530236D01*
X101173Y529220D01*
X100781Y527225D01*
X100011Y525343D01*
X98891Y523645D01*
X97466Y522196D01*
X95787Y521049D01*
X93918Y520247D01*
X91930Y519822D01*
X89897Y519788D01*
X87896Y520147D01*
X86002Y520886D01*
X84286Y521976D01*
X82813Y523378D01*
X81638Y525037D01*
X80805Y526892D01*
X80347Y528873D01*
X80279Y530905D01*
X80605Y532912D01*
X81312Y534818D01*
X82374Y536552D01*
X83751Y538048D01*
X85390Y539251D01*
X87231Y540114D01*
X89204Y540605D01*
X91235Y540707D01*
X93247Y540414D01*
D02*
G37*
G36*
X491325Y436532D02*
X481876D01*
X491325Y445981D01*
Y436532D01*
D02*
G37*
G36*
X361640D02*
X352191D01*
X361640Y445981D01*
Y436532D01*
D02*
G37*
G36*
X231955D02*
X222506D01*
X231955Y445981D01*
Y436532D01*
D02*
G37*
G36*
X102270D02*
X92821D01*
X102270Y445981D01*
Y436532D01*
D02*
G37*
G36*
X482302Y430541D02*
X484220Y429865D01*
X485971Y428832D01*
X487490Y427481D01*
X488720Y425861D01*
X489613Y424035D01*
X490138Y422071D01*
X490205Y421056D01*
X490130Y421051D01*
X490205Y421056D01*
X490211Y420970D01*
X490220Y420796D01*
X490226Y420623D01*
X490228Y420449D01*
Y420362D01*
X490228Y419346D01*
X489836Y417351D01*
X489066Y415469D01*
X487947Y413771D01*
X486521Y412322D01*
X484842Y411175D01*
X482974Y410373D01*
X480985Y409947D01*
X478953Y409914D01*
X476951Y410273D01*
X475057Y411012D01*
X473341Y412102D01*
X471868Y413504D01*
X470693Y415163D01*
X469861Y417018D01*
X469402Y418999D01*
X469334Y421031D01*
X469660Y423038D01*
X470367Y424944D01*
X471429Y426678D01*
X472806Y428174D01*
X474445Y429377D01*
X476286Y430240D01*
X478259Y430731D01*
X480290Y430833D01*
X482302Y430541D01*
D02*
G37*
G36*
X352617D02*
X354535Y429865D01*
X356286Y428832D01*
X357805Y427481D01*
X359034Y425861D01*
X359928Y424035D01*
X360453Y422071D01*
X360520Y421056D01*
X360445Y421051D01*
X360520Y421056D01*
X360526Y420970D01*
X360535Y420796D01*
X360540Y420623D01*
X360543Y420449D01*
Y420362D01*
X360543Y419346D01*
X360151Y417351D01*
X359381Y415469D01*
X358261Y413771D01*
X356836Y412322D01*
X355157Y411175D01*
X353289Y410373D01*
X351300Y409947D01*
X349267Y409914D01*
X347266Y410273D01*
X345372Y411012D01*
X343656Y412102D01*
X342183Y413504D01*
X341008Y415163D01*
X340176Y417018D01*
X339717Y418999D01*
X339649Y421031D01*
X339975Y423038D01*
X340682Y424944D01*
X341744Y426678D01*
X343121Y428174D01*
X344760Y429377D01*
X346601Y430240D01*
X348574Y430731D01*
X350605Y430833D01*
X352617Y430541D01*
D02*
G37*
G36*
X222932D02*
X224850Y429865D01*
X226601Y428832D01*
X228120Y427481D01*
X229349Y425861D01*
X230243Y424035D01*
X230767Y422071D01*
X230835Y421056D01*
X230760Y421051D01*
X230835Y421056D01*
X230841Y420970D01*
X230850Y420796D01*
X230855Y420623D01*
X230858Y420449D01*
Y420362D01*
X230858Y419346D01*
X230466Y417351D01*
X229696Y415469D01*
X228576Y413771D01*
X227151Y412322D01*
X225472Y411175D01*
X223604Y410373D01*
X221615Y409947D01*
X219582Y409914D01*
X217581Y410273D01*
X215687Y411012D01*
X213971Y412102D01*
X212498Y413504D01*
X211323Y415163D01*
X210490Y417018D01*
X210032Y418999D01*
X209964Y421031D01*
X210290Y423038D01*
X210997Y424944D01*
X212059Y426678D01*
X213436Y428174D01*
X215075Y429377D01*
X216916Y430240D01*
X218889Y430731D01*
X220920Y430833D01*
X222932Y430541D01*
D02*
G37*
G36*
X93247D02*
X95165Y429865D01*
X96916Y428832D01*
X98435Y427481D01*
X99664Y425861D01*
X100558Y424035D01*
X101083Y422071D01*
X101150Y421056D01*
X101075Y421051D01*
X101150Y421056D01*
X101156Y420970D01*
X101165Y420796D01*
X101170Y420623D01*
X101173Y420449D01*
Y420362D01*
X101173Y419346D01*
X100781Y417351D01*
X100011Y415469D01*
X98891Y413771D01*
X97466Y412322D01*
X95787Y411175D01*
X93918Y410373D01*
X91930Y409947D01*
X89897Y409914D01*
X87896Y410273D01*
X86002Y411012D01*
X84286Y412102D01*
X82813Y413504D01*
X81638Y415163D01*
X80805Y417018D01*
X80347Y418999D01*
X80279Y421031D01*
X80605Y423038D01*
X81312Y424944D01*
X82374Y426678D01*
X83751Y428174D01*
X85390Y429377D01*
X87231Y430240D01*
X89204Y430731D01*
X91235Y430833D01*
X93247Y430541D01*
D02*
G37*
G36*
X491325Y326658D02*
X481876D01*
X491325Y336107D01*
Y326658D01*
D02*
G37*
G36*
X361640D02*
X352191D01*
X361640Y336107D01*
Y326658D01*
D02*
G37*
G36*
X231955D02*
X222506D01*
X231955Y336107D01*
Y326658D01*
D02*
G37*
G36*
X102270D02*
X92821D01*
X102270Y336107D01*
Y326658D01*
D02*
G37*
G36*
X482302Y320667D02*
X484220Y319991D01*
X485971Y318958D01*
X487490Y317607D01*
X488720Y315987D01*
X489613Y314161D01*
X490138Y312196D01*
X490205Y311182D01*
X490130Y311177D01*
X490205Y311182D01*
X490211Y311096D01*
X490220Y310922D01*
X490226Y310749D01*
X490228Y310575D01*
Y310488D01*
X490228Y309472D01*
X489836Y307477D01*
X489066Y305595D01*
X487947Y303897D01*
X486521Y302448D01*
X484842Y301301D01*
X482974Y300499D01*
X480985Y300074D01*
X478953Y300040D01*
X476951Y300399D01*
X475057Y301138D01*
X473341Y302228D01*
X471868Y303630D01*
X470693Y305289D01*
X469861Y307144D01*
X469402Y309125D01*
X469334Y311157D01*
X469660Y313164D01*
X470367Y315070D01*
X471429Y316804D01*
X472806Y318300D01*
X474445Y319503D01*
X476286Y320366D01*
X478259Y320858D01*
X480290Y320959D01*
X482302Y320667D01*
D02*
G37*
G36*
X352617D02*
X354535Y319991D01*
X356286Y318958D01*
X357805Y317607D01*
X359034Y315987D01*
X359928Y314161D01*
X360453Y312196D01*
X360520Y311182D01*
X360445Y311177D01*
X360520Y311182D01*
X360526Y311096D01*
X360535Y310922D01*
X360540Y310749D01*
X360543Y310575D01*
Y310488D01*
X360543Y309472D01*
X360151Y307477D01*
X359381Y305595D01*
X358261Y303897D01*
X356836Y302448D01*
X355157Y301301D01*
X353289Y300499D01*
X351300Y300074D01*
X349267Y300040D01*
X347266Y300399D01*
X345372Y301138D01*
X343656Y302228D01*
X342183Y303630D01*
X341008Y305289D01*
X340176Y307144D01*
X339717Y309125D01*
X339649Y311157D01*
X339975Y313164D01*
X340682Y315070D01*
X341744Y316804D01*
X343121Y318300D01*
X344760Y319503D01*
X346601Y320366D01*
X348574Y320858D01*
X350605Y320959D01*
X352617Y320667D01*
D02*
G37*
G36*
X222932D02*
X224850Y319991D01*
X226601Y318958D01*
X228120Y317607D01*
X229349Y315987D01*
X230243Y314161D01*
X230767Y312196D01*
X230835Y311182D01*
X230760Y311177D01*
X230835Y311182D01*
X230841Y311096D01*
X230850Y310922D01*
X230855Y310749D01*
X230858Y310575D01*
Y310488D01*
X230858Y309472D01*
X230466Y307477D01*
X229696Y305595D01*
X228576Y303897D01*
X227151Y302448D01*
X225472Y301301D01*
X223604Y300499D01*
X221615Y300074D01*
X219582Y300040D01*
X217581Y300399D01*
X215687Y301138D01*
X213971Y302228D01*
X212498Y303630D01*
X211323Y305289D01*
X210490Y307144D01*
X210032Y309125D01*
X209964Y311157D01*
X210290Y313164D01*
X210997Y315070D01*
X212059Y316804D01*
X213436Y318300D01*
X215075Y319503D01*
X216916Y320366D01*
X218889Y320858D01*
X220920Y320959D01*
X222932Y320667D01*
D02*
G37*
G36*
X93247D02*
X95165Y319991D01*
X96916Y318958D01*
X98435Y317607D01*
X99664Y315987D01*
X100558Y314161D01*
X101083Y312196D01*
X101150Y311182D01*
X101075Y311177D01*
X101150Y311182D01*
X101156Y311096D01*
X101165Y310922D01*
X101170Y310749D01*
X101173Y310575D01*
Y310488D01*
X101173Y309472D01*
X100781Y307477D01*
X100011Y305595D01*
X98891Y303897D01*
X97466Y302448D01*
X95787Y301301D01*
X93918Y300499D01*
X91930Y300074D01*
X89897Y300040D01*
X87896Y300399D01*
X86002Y301138D01*
X84286Y302228D01*
X82813Y303630D01*
X81638Y305289D01*
X80805Y307144D01*
X80347Y309125D01*
X80279Y311157D01*
X80605Y313164D01*
X81312Y315070D01*
X82374Y316804D01*
X83751Y318300D01*
X85390Y319503D01*
X87231Y320366D01*
X89204Y320858D01*
X91235Y320959D01*
X93247Y320667D01*
D02*
G37*
G36*
X491325Y216784D02*
X481876D01*
X491325Y226233D01*
Y216784D01*
D02*
G37*
G36*
X361640D02*
X352191D01*
X361640Y226233D01*
Y216784D01*
D02*
G37*
G36*
X231955D02*
X222506D01*
X231955Y226233D01*
Y216784D01*
D02*
G37*
G36*
X102270D02*
X92821D01*
X102270Y226233D01*
Y216784D01*
D02*
G37*
G36*
X482302Y210792D02*
X484220Y210117D01*
X485971Y209084D01*
X487490Y207733D01*
X488720Y206113D01*
X489613Y204287D01*
X490138Y202323D01*
X490205Y201308D01*
X490130Y201303D01*
X490205Y201308D01*
X490211Y201221D01*
X490220Y201048D01*
X490226Y200875D01*
X490228Y200701D01*
Y200614D01*
X490228Y199598D01*
X489836Y197603D01*
X489066Y195721D01*
X487947Y194023D01*
X486521Y192574D01*
X484842Y191427D01*
X482974Y190625D01*
X480985Y190199D01*
X478953Y190166D01*
X476951Y190525D01*
X475057Y191264D01*
X473341Y192354D01*
X471868Y193756D01*
X470693Y195415D01*
X469861Y197270D01*
X469402Y199251D01*
X469334Y201283D01*
X469660Y203290D01*
X470367Y205196D01*
X471429Y206930D01*
X472806Y208426D01*
X474445Y209629D01*
X476286Y210492D01*
X478259Y210983D01*
X480290Y211085D01*
X482302Y210792D01*
D02*
G37*
G36*
X352617D02*
X354535Y210117D01*
X356286Y209084D01*
X357805Y207733D01*
X359034Y206113D01*
X359928Y204287D01*
X360453Y202323D01*
X360520Y201308D01*
X360445Y201303D01*
X360520Y201308D01*
X360526Y201221D01*
X360535Y201048D01*
X360540Y200875D01*
X360543Y200701D01*
Y200614D01*
X360543Y199598D01*
X360151Y197603D01*
X359381Y195721D01*
X358261Y194023D01*
X356836Y192574D01*
X355157Y191427D01*
X353289Y190625D01*
X351300Y190199D01*
X349267Y190166D01*
X347266Y190525D01*
X345372Y191264D01*
X343656Y192354D01*
X342183Y193756D01*
X341008Y195415D01*
X340176Y197270D01*
X339717Y199251D01*
X339649Y201283D01*
X339975Y203290D01*
X340682Y205196D01*
X341744Y206930D01*
X343121Y208426D01*
X344760Y209629D01*
X346601Y210492D01*
X348574Y210983D01*
X350605Y211085D01*
X352617Y210792D01*
D02*
G37*
G36*
X222932D02*
X224850Y210117D01*
X226601Y209084D01*
X228120Y207733D01*
X229349Y206113D01*
X230243Y204287D01*
X230767Y202323D01*
X230835Y201308D01*
X230760Y201303D01*
X230835Y201308D01*
X230841Y201221D01*
X230850Y201048D01*
X230855Y200875D01*
X230858Y200701D01*
Y200614D01*
X230858Y199598D01*
X230466Y197603D01*
X229696Y195721D01*
X228576Y194023D01*
X227151Y192574D01*
X225472Y191427D01*
X223604Y190625D01*
X221615Y190199D01*
X219582Y190166D01*
X217581Y190525D01*
X215687Y191264D01*
X213971Y192354D01*
X212498Y193756D01*
X211323Y195415D01*
X210490Y197270D01*
X210032Y199251D01*
X209964Y201283D01*
X210290Y203290D01*
X210997Y205196D01*
X212059Y206930D01*
X213436Y208426D01*
X215075Y209629D01*
X216916Y210492D01*
X218889Y210983D01*
X220920Y211085D01*
X222932Y210792D01*
D02*
G37*
G36*
X93247D02*
X95165Y210117D01*
X96916Y209084D01*
X98435Y207733D01*
X99664Y206113D01*
X100558Y204287D01*
X101083Y202323D01*
X101150Y201308D01*
X101075Y201303D01*
X101150Y201308D01*
X101156Y201221D01*
X101165Y201048D01*
X101170Y200875D01*
X101173Y200701D01*
Y200614D01*
X101173Y199598D01*
X100781Y197603D01*
X100011Y195721D01*
X98891Y194023D01*
X97466Y192574D01*
X95787Y191427D01*
X93918Y190625D01*
X91930Y190199D01*
X89897Y190166D01*
X87896Y190525D01*
X86002Y191264D01*
X84286Y192354D01*
X82813Y193756D01*
X81638Y195415D01*
X80805Y197270D01*
X80347Y199251D01*
X80279Y201283D01*
X80605Y203290D01*
X81312Y205196D01*
X82374Y206930D01*
X83751Y208426D01*
X85390Y209629D01*
X87231Y210492D01*
X89204Y210983D01*
X91235Y211085D01*
X93247Y210792D01*
D02*
G37*
G36*
X491325Y106910D02*
X481876D01*
X491325Y116359D01*
Y106910D01*
D02*
G37*
G36*
X361640D02*
X352191D01*
X361640Y116359D01*
Y106910D01*
D02*
G37*
G36*
X231955D02*
X222506D01*
X231955Y116359D01*
Y106910D01*
D02*
G37*
G36*
X102270D02*
X92821D01*
X102270Y116359D01*
Y106910D01*
D02*
G37*
G36*
X482302Y100918D02*
X484220Y100243D01*
X485971Y99210D01*
X487490Y97859D01*
X488720Y96239D01*
X489613Y94413D01*
X490138Y92449D01*
X490205Y91434D01*
X490130Y91429D01*
X490205Y91434D01*
X490211Y91347D01*
X490220Y91174D01*
X490226Y91001D01*
X490228Y90827D01*
Y90740D01*
X490228Y89723D01*
X489836Y87729D01*
X489066Y85847D01*
X487947Y84149D01*
X486521Y82700D01*
X484842Y81553D01*
X482974Y80751D01*
X480985Y80325D01*
X478953Y80292D01*
X476951Y80651D01*
X475057Y81390D01*
X473341Y82480D01*
X471868Y83882D01*
X470693Y85541D01*
X469861Y87396D01*
X469402Y89377D01*
X469334Y91409D01*
X469660Y93416D01*
X470367Y95322D01*
X471429Y97056D01*
X472806Y98552D01*
X474445Y99755D01*
X476286Y100618D01*
X478259Y101110D01*
X480290Y101211D01*
X482302Y100918D01*
D02*
G37*
G36*
X352617D02*
X354535Y100243D01*
X356286Y99210D01*
X357805Y97859D01*
X359034Y96239D01*
X359928Y94413D01*
X360453Y92449D01*
X360520Y91434D01*
X360445Y91429D01*
X360520Y91434D01*
X360526Y91347D01*
X360535Y91174D01*
X360540Y91001D01*
X360543Y90827D01*
Y90740D01*
X360543Y89723D01*
X360151Y87729D01*
X359381Y85847D01*
X358261Y84149D01*
X356836Y82700D01*
X355157Y81553D01*
X353289Y80751D01*
X351300Y80325D01*
X349267Y80292D01*
X347266Y80651D01*
X345372Y81390D01*
X343656Y82480D01*
X342183Y83882D01*
X341008Y85541D01*
X340176Y87396D01*
X339717Y89377D01*
X339649Y91409D01*
X339975Y93416D01*
X340682Y95322D01*
X341744Y97056D01*
X343121Y98552D01*
X344760Y99755D01*
X346601Y100618D01*
X348574Y101110D01*
X350605Y101211D01*
X352617Y100918D01*
D02*
G37*
G36*
X222932D02*
X224850Y100243D01*
X226601Y99210D01*
X228120Y97859D01*
X229349Y96239D01*
X230243Y94413D01*
X230767Y92449D01*
X230835Y91434D01*
X230760Y91429D01*
X230835Y91434D01*
X230841Y91347D01*
X230850Y91174D01*
X230855Y91001D01*
X230858Y90827D01*
Y90740D01*
X230858Y89723D01*
X230466Y87729D01*
X229696Y85847D01*
X228576Y84149D01*
X227151Y82700D01*
X225472Y81553D01*
X223604Y80751D01*
X221615Y80325D01*
X219582Y80292D01*
X217581Y80651D01*
X215687Y81390D01*
X213971Y82480D01*
X212498Y83882D01*
X211323Y85541D01*
X210490Y87396D01*
X210032Y89377D01*
X209964Y91409D01*
X210290Y93416D01*
X210997Y95322D01*
X212059Y97056D01*
X213436Y98552D01*
X215075Y99755D01*
X216916Y100618D01*
X218889Y101110D01*
X220920Y101211D01*
X222932Y100918D01*
D02*
G37*
G36*
X93247D02*
X95165Y100243D01*
X96916Y99210D01*
X98435Y97859D01*
X99664Y96239D01*
X100558Y94413D01*
X101083Y92449D01*
X101150Y91434D01*
X101075Y91429D01*
X101150Y91434D01*
X101156Y91347D01*
X101165Y91174D01*
X101170Y91001D01*
X101173Y90827D01*
Y90740D01*
X101173Y89723D01*
X100781Y87729D01*
X100011Y85847D01*
X98891Y84149D01*
X97466Y82700D01*
X95787Y81553D01*
X93918Y80751D01*
X91930Y80325D01*
X89897Y80292D01*
X87896Y80651D01*
X86002Y81390D01*
X84286Y82480D01*
X82813Y83882D01*
X81638Y85541D01*
X80805Y87396D01*
X80347Y89377D01*
X80279Y91409D01*
X80605Y93416D01*
X81312Y95322D01*
X82374Y97056D01*
X83751Y98552D01*
X85390Y99755D01*
X87231Y100618D01*
X89204Y101110D01*
X91235Y101211D01*
X93247Y100918D01*
D02*
G37*
%LPC*%
G36*
X479945Y646211D02*
X478608Y646096D01*
X477328Y645692D01*
X476168Y645018D01*
X475183Y644106D01*
X474422Y643002D01*
X473919Y641758D01*
X473701Y640434D01*
X473778Y639094D01*
X474146Y637804D01*
X474786Y636625D01*
X475669Y635614D01*
X476751Y634821D01*
X477981Y634284D01*
X479298Y634028D01*
X480639Y634066D01*
X481940Y634397D01*
X483136Y635004D01*
X484171Y635857D01*
X484995Y636916D01*
X485567Y638130D01*
X485861Y639439D01*
X485898Y640110D01*
X485897Y640197D01*
X485892Y640372D01*
X485882Y640546D01*
X485867Y640719D01*
X485858Y640806D01*
X485898Y640799D01*
X485858Y640806D01*
X485745Y641468D01*
X485304Y642736D01*
X484597Y643876D01*
X483658Y644834D01*
X482532Y645564D01*
X481274Y646031D01*
X479945Y646211D01*
D02*
G37*
G36*
X350259D02*
X348923Y646096D01*
X347643Y645692D01*
X346483Y645018D01*
X345498Y644106D01*
X344737Y643002D01*
X344234Y641758D01*
X344016Y640434D01*
X344093Y639094D01*
X344461Y637804D01*
X345101Y636625D01*
X345984Y635614D01*
X347066Y634821D01*
X348296Y634284D01*
X349613Y634028D01*
X350954Y634066D01*
X352255Y634397D01*
X353451Y635004D01*
X354486Y635857D01*
X355310Y636916D01*
X355882Y638130D01*
X356176Y639439D01*
X356213Y640110D01*
X356212Y640197D01*
X356207Y640372D01*
X356197Y640546D01*
X356182Y640719D01*
X356173Y640806D01*
X356213Y640799D01*
X356173Y640806D01*
X356060Y641468D01*
X355619Y642736D01*
X354912Y643876D01*
X353973Y644834D01*
X352847Y645564D01*
X351589Y646031D01*
X350259Y646211D01*
D02*
G37*
G36*
X220574D02*
X219238Y646096D01*
X217958Y645692D01*
X216798Y645018D01*
X215813Y644106D01*
X215052Y643002D01*
X214549Y641758D01*
X214331Y640434D01*
X214408Y639094D01*
X214775Y637804D01*
X215416Y636625D01*
X216299Y635614D01*
X217381Y634821D01*
X218611Y634284D01*
X219928Y634028D01*
X221269Y634066D01*
X222569Y634397D01*
X223766Y635004D01*
X224801Y635857D01*
X225625Y636916D01*
X226197Y638130D01*
X226491Y639439D01*
X226528Y640110D01*
X226527Y640197D01*
X226522Y640372D01*
X226512Y640546D01*
X226497Y640719D01*
X226488Y640806D01*
X226528Y640799D01*
X226488Y640806D01*
X226375Y641468D01*
X225934Y642736D01*
X225227Y643876D01*
X224288Y644834D01*
X223162Y645564D01*
X221904Y646031D01*
X220574Y646211D01*
D02*
G37*
G36*
X90889D02*
X89553Y646096D01*
X88273Y645692D01*
X87113Y645018D01*
X86128Y644106D01*
X85366Y643002D01*
X84864Y641758D01*
X84646Y640434D01*
X84723Y639094D01*
X85091Y637804D01*
X85731Y636625D01*
X86614Y635614D01*
X87696Y634821D01*
X88926Y634284D01*
X90243Y634028D01*
X91584Y634066D01*
X92884Y634397D01*
X94081Y635004D01*
X95116Y635857D01*
X95940Y636916D01*
X96512Y638130D01*
X96806Y639439D01*
X96842Y640110D01*
X96842Y640197D01*
X96837Y640372D01*
X96827Y640546D01*
X96812Y640719D01*
X96803Y640806D01*
X96842Y640799D01*
X96803Y640806D01*
X96689Y641468D01*
X96249Y642736D01*
X95542Y643876D01*
X94603Y644834D01*
X93477Y645564D01*
X92219Y646031D01*
X90889Y646211D01*
D02*
G37*
G36*
X479945Y536337D02*
X478608Y536222D01*
X477328Y535818D01*
X476168Y535144D01*
X475183Y534232D01*
X474422Y533128D01*
X473919Y531884D01*
X473701Y530560D01*
X473778Y529220D01*
X474146Y527930D01*
X474786Y526751D01*
X475669Y525740D01*
X476751Y524947D01*
X477981Y524410D01*
X479298Y524154D01*
X480639Y524192D01*
X481940Y524523D01*
X483136Y525130D01*
X484171Y525983D01*
X484995Y527042D01*
X485567Y528256D01*
X485861Y529565D01*
X485898Y530236D01*
X485897Y530323D01*
X485892Y530498D01*
X485882Y530672D01*
X485867Y530845D01*
X485858Y530932D01*
X485898Y530925D01*
X485858Y530932D01*
X485745Y531594D01*
X485304Y532862D01*
X484597Y534002D01*
X483658Y534960D01*
X482532Y535690D01*
X481274Y536157D01*
X479945Y536337D01*
D02*
G37*
G36*
X350259D02*
X348923Y536222D01*
X347643Y535818D01*
X346483Y535144D01*
X345498Y534232D01*
X344737Y533128D01*
X344234Y531884D01*
X344016Y530560D01*
X344093Y529220D01*
X344461Y527930D01*
X345101Y526751D01*
X345984Y525740D01*
X347066Y524947D01*
X348296Y524410D01*
X349613Y524154D01*
X350954Y524192D01*
X352255Y524523D01*
X353451Y525130D01*
X354486Y525983D01*
X355310Y527042D01*
X355882Y528256D01*
X356176Y529565D01*
X356213Y530236D01*
X356212Y530323D01*
X356207Y530498D01*
X356197Y530672D01*
X356182Y530845D01*
X356173Y530932D01*
X356213Y530925D01*
X356173Y530932D01*
X356060Y531594D01*
X355619Y532862D01*
X354912Y534002D01*
X353973Y534960D01*
X352847Y535690D01*
X351589Y536157D01*
X350259Y536337D01*
D02*
G37*
G36*
X220574D02*
X219238Y536222D01*
X217958Y535818D01*
X216798Y535144D01*
X215813Y534232D01*
X215052Y533128D01*
X214549Y531884D01*
X214331Y530560D01*
X214408Y529220D01*
X214775Y527930D01*
X215416Y526751D01*
X216299Y525740D01*
X217381Y524947D01*
X218611Y524410D01*
X219928Y524154D01*
X221269Y524192D01*
X222569Y524523D01*
X223766Y525130D01*
X224801Y525983D01*
X225625Y527042D01*
X226197Y528256D01*
X226491Y529565D01*
X226528Y530236D01*
X226527Y530323D01*
X226522Y530498D01*
X226512Y530672D01*
X226497Y530845D01*
X226488Y530932D01*
X226528Y530925D01*
X226488Y530932D01*
X226375Y531594D01*
X225934Y532862D01*
X225227Y534002D01*
X224288Y534960D01*
X223162Y535690D01*
X221904Y536157D01*
X220574Y536337D01*
D02*
G37*
G36*
X90889D02*
X89553Y536222D01*
X88273Y535818D01*
X87113Y535144D01*
X86128Y534232D01*
X85366Y533128D01*
X84864Y531884D01*
X84646Y530560D01*
X84723Y529220D01*
X85091Y527930D01*
X85731Y526751D01*
X86614Y525740D01*
X87696Y524947D01*
X88926Y524410D01*
X90243Y524154D01*
X91584Y524192D01*
X92884Y524523D01*
X94081Y525130D01*
X95116Y525983D01*
X95940Y527042D01*
X96512Y528256D01*
X96806Y529565D01*
X96842Y530236D01*
X96842Y530323D01*
X96837Y530498D01*
X96827Y530672D01*
X96812Y530845D01*
X96803Y530932D01*
X96842Y530925D01*
X96803Y530932D01*
X96689Y531594D01*
X96249Y532862D01*
X95542Y534002D01*
X94603Y534960D01*
X93477Y535690D01*
X92219Y536157D01*
X90889Y536337D01*
D02*
G37*
G36*
X479945Y426463D02*
X478608Y426348D01*
X477328Y425944D01*
X476168Y425270D01*
X475183Y424358D01*
X474422Y423254D01*
X473919Y422010D01*
X473701Y420686D01*
X473778Y419346D01*
X474146Y418056D01*
X474786Y416877D01*
X475669Y415866D01*
X476751Y415073D01*
X477981Y414536D01*
X479298Y414280D01*
X480639Y414319D01*
X481940Y414649D01*
X483136Y415256D01*
X484171Y416109D01*
X484995Y417168D01*
X485567Y418382D01*
X485861Y419691D01*
X485898Y420362D01*
X485897Y420449D01*
X485892Y420624D01*
X485882Y420798D01*
X485867Y420971D01*
X485858Y421058D01*
X485898Y421051D01*
X485858Y421058D01*
X485745Y421720D01*
X485304Y422988D01*
X484597Y424128D01*
X483658Y425086D01*
X482532Y425816D01*
X481274Y426283D01*
X479945Y426463D01*
D02*
G37*
G36*
X350259D02*
X348923Y426348D01*
X347643Y425944D01*
X346483Y425270D01*
X345498Y424358D01*
X344737Y423254D01*
X344234Y422010D01*
X344016Y420686D01*
X344093Y419346D01*
X344461Y418056D01*
X345101Y416877D01*
X345984Y415866D01*
X347066Y415073D01*
X348296Y414536D01*
X349613Y414280D01*
X350954Y414319D01*
X352255Y414649D01*
X353451Y415256D01*
X354486Y416109D01*
X355310Y417168D01*
X355882Y418382D01*
X356176Y419691D01*
X356213Y420362D01*
X356212Y420449D01*
X356207Y420624D01*
X356197Y420798D01*
X356182Y420971D01*
X356173Y421058D01*
X356213Y421051D01*
X356173Y421058D01*
X356060Y421720D01*
X355619Y422988D01*
X354912Y424128D01*
X353973Y425086D01*
X352847Y425816D01*
X351589Y426283D01*
X350259Y426463D01*
D02*
G37*
G36*
X220574D02*
X219238Y426348D01*
X217958Y425944D01*
X216798Y425270D01*
X215813Y424358D01*
X215052Y423254D01*
X214549Y422010D01*
X214331Y420686D01*
X214408Y419346D01*
X214775Y418056D01*
X215416Y416877D01*
X216299Y415866D01*
X217381Y415073D01*
X218611Y414536D01*
X219928Y414280D01*
X221269Y414319D01*
X222569Y414649D01*
X223766Y415256D01*
X224801Y416109D01*
X225625Y417168D01*
X226197Y418382D01*
X226491Y419691D01*
X226528Y420362D01*
X226527Y420449D01*
X226522Y420624D01*
X226512Y420798D01*
X226497Y420971D01*
X226488Y421058D01*
X226528Y421051D01*
X226488Y421058D01*
X226375Y421720D01*
X225934Y422988D01*
X225227Y424128D01*
X224288Y425086D01*
X223162Y425816D01*
X221904Y426283D01*
X220574Y426463D01*
D02*
G37*
G36*
X90889D02*
X89553Y426348D01*
X88273Y425944D01*
X87113Y425270D01*
X86128Y424358D01*
X85366Y423254D01*
X84864Y422010D01*
X84646Y420686D01*
X84723Y419346D01*
X85091Y418056D01*
X85731Y416877D01*
X86614Y415866D01*
X87696Y415073D01*
X88926Y414536D01*
X90243Y414280D01*
X91584Y414319D01*
X92884Y414649D01*
X94081Y415256D01*
X95116Y416109D01*
X95940Y417168D01*
X96512Y418382D01*
X96806Y419691D01*
X96842Y420362D01*
X96842Y420449D01*
X96837Y420624D01*
X96827Y420798D01*
X96812Y420971D01*
X96803Y421058D01*
X96842Y421051D01*
X96803Y421058D01*
X96689Y421720D01*
X96249Y422988D01*
X95542Y424128D01*
X94603Y425086D01*
X93477Y425816D01*
X92219Y426283D01*
X90889Y426463D01*
D02*
G37*
G36*
X479945Y316589D02*
X478608Y316474D01*
X477328Y316070D01*
X476168Y315396D01*
X475183Y314484D01*
X474422Y313380D01*
X473919Y312136D01*
X473701Y310812D01*
X473778Y309472D01*
X474146Y308182D01*
X474786Y307003D01*
X475669Y305992D01*
X476751Y305199D01*
X477981Y304662D01*
X479298Y304406D01*
X480639Y304444D01*
X481940Y304775D01*
X483136Y305382D01*
X484171Y306235D01*
X484995Y307294D01*
X485567Y308508D01*
X485861Y309817D01*
X485898Y310488D01*
X485897Y310575D01*
X485892Y310750D01*
X485882Y310924D01*
X485867Y311097D01*
X485858Y311184D01*
X485898Y311177D01*
X485858Y311184D01*
X485745Y311846D01*
X485304Y313113D01*
X484597Y314254D01*
X483658Y315212D01*
X482532Y315942D01*
X481274Y316409D01*
X479945Y316589D01*
D02*
G37*
G36*
X350259D02*
X348923Y316474D01*
X347643Y316070D01*
X346483Y315396D01*
X345498Y314484D01*
X344737Y313380D01*
X344234Y312136D01*
X344016Y310812D01*
X344093Y309472D01*
X344461Y308182D01*
X345101Y307003D01*
X345984Y305992D01*
X347066Y305199D01*
X348296Y304662D01*
X349613Y304406D01*
X350954Y304444D01*
X352255Y304775D01*
X353451Y305382D01*
X354486Y306235D01*
X355310Y307294D01*
X355882Y308508D01*
X356176Y309817D01*
X356213Y310488D01*
X356212Y310575D01*
X356207Y310750D01*
X356197Y310924D01*
X356182Y311097D01*
X356173Y311184D01*
X356213Y311177D01*
X356173Y311184D01*
X356060Y311846D01*
X355619Y313113D01*
X354912Y314254D01*
X353973Y315212D01*
X352847Y315942D01*
X351589Y316409D01*
X350259Y316589D01*
D02*
G37*
G36*
X220574D02*
X219238Y316474D01*
X217958Y316070D01*
X216798Y315396D01*
X215813Y314484D01*
X215052Y313380D01*
X214549Y312136D01*
X214331Y310812D01*
X214408Y309472D01*
X214775Y308182D01*
X215416Y307003D01*
X216299Y305992D01*
X217381Y305199D01*
X218611Y304662D01*
X219928Y304406D01*
X221269Y304444D01*
X222569Y304775D01*
X223766Y305382D01*
X224801Y306235D01*
X225625Y307294D01*
X226197Y308508D01*
X226491Y309817D01*
X226528Y310488D01*
X226527Y310575D01*
X226522Y310750D01*
X226512Y310924D01*
X226497Y311097D01*
X226488Y311184D01*
X226528Y311177D01*
X226488Y311184D01*
X226375Y311846D01*
X225934Y313113D01*
X225227Y314254D01*
X224288Y315212D01*
X223162Y315942D01*
X221904Y316409D01*
X220574Y316589D01*
D02*
G37*
G36*
X90889D02*
X89553Y316474D01*
X88273Y316070D01*
X87113Y315396D01*
X86128Y314484D01*
X85366Y313380D01*
X84864Y312136D01*
X84646Y310812D01*
X84723Y309472D01*
X85091Y308182D01*
X85731Y307003D01*
X86614Y305992D01*
X87696Y305199D01*
X88926Y304662D01*
X90243Y304406D01*
X91584Y304444D01*
X92884Y304775D01*
X94081Y305382D01*
X95116Y306235D01*
X95940Y307294D01*
X96512Y308508D01*
X96806Y309817D01*
X96842Y310488D01*
X96842Y310575D01*
X96837Y310750D01*
X96827Y310924D01*
X96812Y311097D01*
X96803Y311184D01*
X96842Y311177D01*
X96803Y311184D01*
X96689Y311846D01*
X96249Y313113D01*
X95542Y314254D01*
X94603Y315212D01*
X93477Y315942D01*
X92219Y316409D01*
X90889Y316589D01*
D02*
G37*
G36*
X479945Y206715D02*
X478608Y206600D01*
X477328Y206196D01*
X476168Y205522D01*
X475183Y204610D01*
X474422Y203506D01*
X473919Y202261D01*
X473701Y200938D01*
X473778Y199598D01*
X474146Y198308D01*
X474786Y197129D01*
X475669Y196118D01*
X476751Y195325D01*
X477981Y194788D01*
X479298Y194532D01*
X480639Y194570D01*
X481940Y194901D01*
X483136Y195508D01*
X484171Y196361D01*
X484995Y197420D01*
X485567Y198634D01*
X485861Y199943D01*
X485898Y200614D01*
X485897Y200701D01*
X485892Y200875D01*
X485882Y201049D01*
X485867Y201223D01*
X485858Y201310D01*
X485898Y201303D01*
X485858Y201310D01*
X485745Y201972D01*
X485304Y203239D01*
X484597Y204380D01*
X483658Y205338D01*
X482532Y206068D01*
X481274Y206535D01*
X479945Y206715D01*
D02*
G37*
G36*
X350259D02*
X348923Y206600D01*
X347643Y206196D01*
X346483Y205522D01*
X345498Y204610D01*
X344737Y203506D01*
X344234Y202261D01*
X344016Y200938D01*
X344093Y199598D01*
X344461Y198308D01*
X345101Y197129D01*
X345984Y196118D01*
X347066Y195325D01*
X348296Y194788D01*
X349613Y194532D01*
X350954Y194570D01*
X352255Y194901D01*
X353451Y195508D01*
X354486Y196361D01*
X355310Y197420D01*
X355882Y198634D01*
X356176Y199943D01*
X356213Y200614D01*
X356212Y200701D01*
X356207Y200875D01*
X356197Y201049D01*
X356182Y201223D01*
X356173Y201310D01*
X356213Y201303D01*
X356173Y201310D01*
X356060Y201972D01*
X355619Y203239D01*
X354912Y204380D01*
X353973Y205338D01*
X352847Y206068D01*
X351589Y206535D01*
X350259Y206715D01*
D02*
G37*
G36*
X220574D02*
X219238Y206600D01*
X217958Y206196D01*
X216798Y205522D01*
X215813Y204610D01*
X215052Y203506D01*
X214549Y202261D01*
X214331Y200938D01*
X214408Y199598D01*
X214775Y198308D01*
X215416Y197129D01*
X216299Y196118D01*
X217381Y195325D01*
X218611Y194788D01*
X219928Y194532D01*
X221269Y194570D01*
X222569Y194901D01*
X223766Y195508D01*
X224801Y196361D01*
X225625Y197420D01*
X226197Y198634D01*
X226491Y199943D01*
X226528Y200614D01*
X226527Y200701D01*
X226522Y200875D01*
X226512Y201049D01*
X226497Y201223D01*
X226488Y201310D01*
X226528Y201303D01*
X226488Y201310D01*
X226375Y201972D01*
X225934Y203239D01*
X225227Y204380D01*
X224288Y205338D01*
X223162Y206068D01*
X221904Y206535D01*
X220574Y206715D01*
D02*
G37*
G36*
X90889D02*
X89553Y206600D01*
X88273Y206196D01*
X87113Y205522D01*
X86128Y204610D01*
X85366Y203506D01*
X84864Y202261D01*
X84646Y200938D01*
X84723Y199598D01*
X85091Y198308D01*
X85731Y197129D01*
X86614Y196118D01*
X87696Y195325D01*
X88926Y194788D01*
X90243Y194532D01*
X91584Y194570D01*
X92884Y194901D01*
X94081Y195508D01*
X95116Y196361D01*
X95940Y197420D01*
X96512Y198634D01*
X96806Y199943D01*
X96842Y200614D01*
X96842Y200701D01*
X96837Y200875D01*
X96827Y201049D01*
X96812Y201223D01*
X96803Y201310D01*
X96842Y201303D01*
X96803Y201310D01*
X96689Y201972D01*
X96249Y203239D01*
X95542Y204380D01*
X94603Y205338D01*
X93477Y206068D01*
X92219Y206535D01*
X90889Y206715D01*
D02*
G37*
G36*
X479945Y96841D02*
X478608Y96726D01*
X477328Y96322D01*
X476168Y95648D01*
X475183Y94736D01*
X474422Y93632D01*
X473919Y92387D01*
X473701Y91064D01*
X473778Y89724D01*
X474146Y88434D01*
X474786Y87255D01*
X475669Y86244D01*
X476751Y85451D01*
X477981Y84914D01*
X479298Y84658D01*
X480639Y84696D01*
X481940Y85027D01*
X483136Y85634D01*
X484171Y86487D01*
X484995Y87546D01*
X485567Y88760D01*
X485861Y90069D01*
X485898Y90740D01*
X485897Y90827D01*
X485892Y91001D01*
X485882Y91176D01*
X485867Y91349D01*
X485858Y91436D01*
X485898Y91429D01*
X485858Y91436D01*
X485745Y92098D01*
X485304Y93366D01*
X484597Y94506D01*
X483658Y95464D01*
X482532Y96194D01*
X481274Y96661D01*
X479945Y96841D01*
D02*
G37*
G36*
X350259D02*
X348923Y96726D01*
X347643Y96322D01*
X346483Y95648D01*
X345498Y94736D01*
X344737Y93632D01*
X344234Y92387D01*
X344016Y91064D01*
X344093Y89724D01*
X344461Y88434D01*
X345101Y87255D01*
X345984Y86244D01*
X347066Y85451D01*
X348296Y84914D01*
X349613Y84658D01*
X350954Y84696D01*
X352255Y85027D01*
X353451Y85634D01*
X354486Y86487D01*
X355310Y87546D01*
X355882Y88760D01*
X356176Y90069D01*
X356213Y90740D01*
X356212Y90827D01*
X356207Y91001D01*
X356197Y91176D01*
X356182Y91349D01*
X356173Y91436D01*
X356213Y91429D01*
X356173Y91436D01*
X356060Y92098D01*
X355619Y93366D01*
X354912Y94506D01*
X353973Y95464D01*
X352847Y96194D01*
X351589Y96661D01*
X350259Y96841D01*
D02*
G37*
G36*
X220574D02*
X219238Y96726D01*
X217958Y96322D01*
X216798Y95648D01*
X215813Y94736D01*
X215052Y93632D01*
X214549Y92387D01*
X214331Y91064D01*
X214408Y89724D01*
X214775Y88434D01*
X215416Y87255D01*
X216299Y86244D01*
X217381Y85451D01*
X218611Y84914D01*
X219928Y84658D01*
X221269Y84696D01*
X222569Y85027D01*
X223766Y85634D01*
X224801Y86487D01*
X225625Y87546D01*
X226197Y88760D01*
X226491Y90069D01*
X226528Y90740D01*
X226527Y90827D01*
X226522Y91001D01*
X226512Y91176D01*
X226497Y91349D01*
X226488Y91436D01*
X226528Y91429D01*
X226488Y91436D01*
X226375Y92098D01*
X225934Y93366D01*
X225227Y94506D01*
X224288Y95464D01*
X223162Y96194D01*
X221904Y96661D01*
X220574Y96841D01*
D02*
G37*
G36*
X90889D02*
X89553Y96726D01*
X88273Y96322D01*
X87113Y95648D01*
X86128Y94736D01*
X85366Y93632D01*
X84864Y92387D01*
X84646Y91064D01*
X84723Y89724D01*
X85091Y88434D01*
X85731Y87255D01*
X86614Y86244D01*
X87696Y85451D01*
X88926Y84914D01*
X90243Y84658D01*
X91584Y84696D01*
X92884Y85027D01*
X94081Y85634D01*
X95116Y86487D01*
X95940Y87546D01*
X96512Y88760D01*
X96806Y90069D01*
X96842Y90740D01*
X96842Y90827D01*
X96837Y91001D01*
X96827Y91176D01*
X96812Y91349D01*
X96803Y91436D01*
X96842Y91429D01*
X96803Y91436D01*
X96689Y92098D01*
X96249Y93366D01*
X95542Y94506D01*
X94603Y95464D01*
X93477Y96194D01*
X92219Y96661D01*
X90889Y96841D01*
D02*
G37*
%LPD*%
D10*
X609291Y86614D02*
D03*
X47244Y722236D02*
D03*
X609291D02*
D03*
D11*
X47244Y86614D02*
D03*
D12*
X184040Y127457D02*
D03*
Y92024D02*
D03*
X313725Y127457D02*
D03*
Y92024D02*
D03*
X443410Y127457D02*
D03*
Y92024D02*
D03*
X573095Y127457D02*
D03*
Y92024D02*
D03*
X184040Y237331D02*
D03*
Y201898D02*
D03*
X313725Y237331D02*
D03*
Y201898D02*
D03*
X443410Y237331D02*
D03*
Y201898D02*
D03*
X573095Y237331D02*
D03*
Y201898D02*
D03*
X184040Y347205D02*
D03*
Y311772D02*
D03*
X313725Y347205D02*
D03*
Y311772D02*
D03*
X443410Y347205D02*
D03*
Y311772D02*
D03*
X573095Y347205D02*
D03*
Y311772D02*
D03*
X184040Y457079D02*
D03*
Y421646D02*
D03*
X313725Y457079D02*
D03*
Y421646D02*
D03*
X443410Y457079D02*
D03*
Y421646D02*
D03*
X573095Y457079D02*
D03*
Y421646D02*
D03*
X184040Y566953D02*
D03*
Y531520D02*
D03*
X313725Y566953D02*
D03*
Y531520D02*
D03*
X443410Y566953D02*
D03*
Y531520D02*
D03*
X573095Y566953D02*
D03*
Y531520D02*
D03*
X184040Y676827D02*
D03*
Y641394D02*
D03*
X313725Y676827D02*
D03*
Y641394D02*
D03*
X443410Y676827D02*
D03*
Y641394D02*
D03*
X573095Y676827D02*
D03*
Y641394D02*
D03*
D13*
X166540Y96480D02*
D03*
X163981D02*
D03*
X169099D02*
D03*
X163981Y89000D02*
D03*
X166540D02*
D03*
X169099D02*
D03*
X296225Y96480D02*
D03*
X293666D02*
D03*
X298784D02*
D03*
X293666Y89000D02*
D03*
X296225D02*
D03*
X298784D02*
D03*
X425910Y96480D02*
D03*
X423351D02*
D03*
X428469D02*
D03*
X423351Y89000D02*
D03*
X425910D02*
D03*
X428469D02*
D03*
X555595Y96480D02*
D03*
X553036D02*
D03*
X558154D02*
D03*
X553036Y89000D02*
D03*
X555595D02*
D03*
X558154D02*
D03*
X166540Y206354D02*
D03*
X163981D02*
D03*
X169099D02*
D03*
X163981Y198874D02*
D03*
X166540D02*
D03*
X169099D02*
D03*
X296225Y206354D02*
D03*
X293666D02*
D03*
X298784D02*
D03*
X293666Y198874D02*
D03*
X296225D02*
D03*
X298784D02*
D03*
X425910Y206354D02*
D03*
X423351D02*
D03*
X428469D02*
D03*
X423351Y198874D02*
D03*
X425910D02*
D03*
X428469D02*
D03*
X555595Y206354D02*
D03*
X553036D02*
D03*
X558154D02*
D03*
X553036Y198874D02*
D03*
X555595D02*
D03*
X558154D02*
D03*
X166540Y316228D02*
D03*
X163981D02*
D03*
X169099D02*
D03*
X163981Y308748D02*
D03*
X166540D02*
D03*
X169099D02*
D03*
X296225Y316228D02*
D03*
X293666D02*
D03*
X298784D02*
D03*
X293666Y308748D02*
D03*
X296225D02*
D03*
X298784D02*
D03*
X425910Y316228D02*
D03*
X423351D02*
D03*
X428469D02*
D03*
X423351Y308748D02*
D03*
X425910D02*
D03*
X428469D02*
D03*
X555595Y316228D02*
D03*
X553036D02*
D03*
X558154D02*
D03*
X553036Y308748D02*
D03*
X555595D02*
D03*
X558154D02*
D03*
X166540Y426102D02*
D03*
X163981D02*
D03*
X169099D02*
D03*
X163981Y418622D02*
D03*
X166540D02*
D03*
X169099D02*
D03*
X296225Y426102D02*
D03*
X293666D02*
D03*
X298784D02*
D03*
X293666Y418622D02*
D03*
X296225D02*
D03*
X298784D02*
D03*
X425910Y426102D02*
D03*
X423351D02*
D03*
X428469D02*
D03*
X423351Y418622D02*
D03*
X425910D02*
D03*
X428469D02*
D03*
X555595Y426102D02*
D03*
X553036D02*
D03*
X558154D02*
D03*
X553036Y418622D02*
D03*
X555595D02*
D03*
X558154D02*
D03*
X166540Y535976D02*
D03*
X163981D02*
D03*
X169099D02*
D03*
X163981Y528496D02*
D03*
X166540D02*
D03*
X169099D02*
D03*
X296225Y535976D02*
D03*
X293666D02*
D03*
X298784D02*
D03*
X293666Y528496D02*
D03*
X296225D02*
D03*
X298784D02*
D03*
X425910Y535976D02*
D03*
X423351D02*
D03*
X428469D02*
D03*
X423351Y528496D02*
D03*
X425910D02*
D03*
X428469D02*
D03*
X555595Y535976D02*
D03*
X553036D02*
D03*
X558154D02*
D03*
X553036Y528496D02*
D03*
X555595D02*
D03*
X558154D02*
D03*
X166540Y645850D02*
D03*
X163981D02*
D03*
X169099D02*
D03*
X163981Y638370D02*
D03*
X166540D02*
D03*
X169099D02*
D03*
X296225Y645850D02*
D03*
X293666D02*
D03*
X298784D02*
D03*
X293666Y638370D02*
D03*
X296225D02*
D03*
X298784D02*
D03*
X425910Y645850D02*
D03*
X423351D02*
D03*
X428469D02*
D03*
X423351Y638370D02*
D03*
X425910D02*
D03*
X428469D02*
D03*
X555595Y645850D02*
D03*
X553036D02*
D03*
X558154D02*
D03*
X553036Y638370D02*
D03*
X555595D02*
D03*
X558154D02*
D03*
D14*
X160468Y100140D02*
D03*
X164012D02*
D03*
X99912Y136540D02*
D03*
X96368D02*
D03*
X99912Y140740D02*
D03*
X96368D02*
D03*
X138012Y177240D02*
D03*
X134468D02*
D03*
X155012Y135740D02*
D03*
X151469D02*
D03*
X160912Y105540D02*
D03*
X157369D02*
D03*
X150868D02*
D03*
X154412D02*
D03*
X145212Y149440D02*
D03*
X141668D02*
D03*
X105868Y89840D02*
D03*
X109412D02*
D03*
X290154Y100140D02*
D03*
X293697D02*
D03*
X229597Y136540D02*
D03*
X226054D02*
D03*
X229597Y140740D02*
D03*
X226054D02*
D03*
X267697Y177240D02*
D03*
X264154D02*
D03*
X284697Y135740D02*
D03*
X281153D02*
D03*
X290597Y105540D02*
D03*
X287053D02*
D03*
X280554D02*
D03*
X284097D02*
D03*
X274897Y149440D02*
D03*
X271354D02*
D03*
X235554Y89840D02*
D03*
X239097D02*
D03*
X419839Y100140D02*
D03*
X423382D02*
D03*
X359282Y136540D02*
D03*
X355739D02*
D03*
X359282Y140740D02*
D03*
X355739D02*
D03*
X397382Y177240D02*
D03*
X393839D02*
D03*
X414382Y135740D02*
D03*
X410839D02*
D03*
X420282Y105540D02*
D03*
X416739D02*
D03*
X410239D02*
D03*
X413782D02*
D03*
X404582Y149440D02*
D03*
X401039D02*
D03*
X365239Y89840D02*
D03*
X368782D02*
D03*
X549524Y100140D02*
D03*
X553067D02*
D03*
X488967Y136540D02*
D03*
X485424D02*
D03*
X488967Y140740D02*
D03*
X485424D02*
D03*
X527067Y177240D02*
D03*
X523524D02*
D03*
X544067Y135740D02*
D03*
X540524D02*
D03*
X549967Y105540D02*
D03*
X546424D02*
D03*
X539924D02*
D03*
X543467D02*
D03*
X534267Y149440D02*
D03*
X530724D02*
D03*
X494924Y89840D02*
D03*
X498467D02*
D03*
X160468Y210014D02*
D03*
X164012D02*
D03*
X99912Y246414D02*
D03*
X96368D02*
D03*
X99912Y250614D02*
D03*
X96368D02*
D03*
X138012Y287114D02*
D03*
X134468D02*
D03*
X155012Y245614D02*
D03*
X151469D02*
D03*
X160912Y215414D02*
D03*
X157369D02*
D03*
X150868D02*
D03*
X154412D02*
D03*
X145212Y259314D02*
D03*
X141668D02*
D03*
X105868Y199714D02*
D03*
X109412D02*
D03*
X290154Y210014D02*
D03*
X293697D02*
D03*
X229597Y246414D02*
D03*
X226054D02*
D03*
X229597Y250614D02*
D03*
X226054D02*
D03*
X267697Y287114D02*
D03*
X264154D02*
D03*
X284697Y245614D02*
D03*
X281153D02*
D03*
X290597Y215414D02*
D03*
X287053D02*
D03*
X280554D02*
D03*
X284097D02*
D03*
X274897Y259314D02*
D03*
X271354D02*
D03*
X235554Y199714D02*
D03*
X239097D02*
D03*
X419839Y210014D02*
D03*
X423382D02*
D03*
X359282Y246414D02*
D03*
X355739D02*
D03*
X359282Y250614D02*
D03*
X355739D02*
D03*
X397382Y287114D02*
D03*
X393839D02*
D03*
X414382Y245614D02*
D03*
X410839D02*
D03*
X420282Y215414D02*
D03*
X416739D02*
D03*
X410239D02*
D03*
X413782D02*
D03*
X404582Y259314D02*
D03*
X401039D02*
D03*
X365239Y199714D02*
D03*
X368782D02*
D03*
X549524Y210014D02*
D03*
X553067D02*
D03*
X488967Y246414D02*
D03*
X485424D02*
D03*
X488967Y250614D02*
D03*
X485424D02*
D03*
X527067Y287114D02*
D03*
X523524D02*
D03*
X544067Y245614D02*
D03*
X540524D02*
D03*
X549967Y215414D02*
D03*
X546424D02*
D03*
X539924D02*
D03*
X543467D02*
D03*
X534267Y259314D02*
D03*
X530724D02*
D03*
X494924Y199714D02*
D03*
X498467D02*
D03*
X160468Y319888D02*
D03*
X164012D02*
D03*
X99912Y356288D02*
D03*
X96368D02*
D03*
X99912Y360488D02*
D03*
X96368D02*
D03*
X138012Y396988D02*
D03*
X134468D02*
D03*
X155012Y355488D02*
D03*
X151469D02*
D03*
X160912Y325288D02*
D03*
X157369D02*
D03*
X150868D02*
D03*
X154412D02*
D03*
X145212Y369188D02*
D03*
X141668D02*
D03*
X105868Y309588D02*
D03*
X109412D02*
D03*
X290154Y319888D02*
D03*
X293697D02*
D03*
X229597Y356288D02*
D03*
X226054D02*
D03*
X229597Y360488D02*
D03*
X226054D02*
D03*
X267697Y396988D02*
D03*
X264154D02*
D03*
X284697Y355488D02*
D03*
X281153D02*
D03*
X290597Y325288D02*
D03*
X287053D02*
D03*
X280554D02*
D03*
X284097D02*
D03*
X274897Y369188D02*
D03*
X271354D02*
D03*
X235554Y309588D02*
D03*
X239097D02*
D03*
X419839Y319888D02*
D03*
X423382D02*
D03*
X359282Y356288D02*
D03*
X355739D02*
D03*
X359282Y360488D02*
D03*
X355739D02*
D03*
X397382Y396988D02*
D03*
X393839D02*
D03*
X414382Y355488D02*
D03*
X410839D02*
D03*
X420282Y325288D02*
D03*
X416739D02*
D03*
X410239D02*
D03*
X413782D02*
D03*
X404582Y369188D02*
D03*
X401039D02*
D03*
X365239Y309588D02*
D03*
X368782D02*
D03*
X549524Y319888D02*
D03*
X553067D02*
D03*
X488967Y356288D02*
D03*
X485424D02*
D03*
X488967Y360488D02*
D03*
X485424D02*
D03*
X527067Y396988D02*
D03*
X523524D02*
D03*
X544067Y355488D02*
D03*
X540524D02*
D03*
X549967Y325288D02*
D03*
X546424D02*
D03*
X539924D02*
D03*
X543467D02*
D03*
X534267Y369188D02*
D03*
X530724D02*
D03*
X494924Y309588D02*
D03*
X498467D02*
D03*
X160468Y429762D02*
D03*
X164012D02*
D03*
X99912Y466162D02*
D03*
X96368D02*
D03*
X99912Y470362D02*
D03*
X96368D02*
D03*
X138012Y506862D02*
D03*
X134468D02*
D03*
X155012Y465362D02*
D03*
X151469D02*
D03*
X160912Y435162D02*
D03*
X157369D02*
D03*
X150868D02*
D03*
X154412D02*
D03*
X145212Y479062D02*
D03*
X141668D02*
D03*
X105868Y419462D02*
D03*
X109412D02*
D03*
X290154Y429762D02*
D03*
X293697D02*
D03*
X229597Y466162D02*
D03*
X226054D02*
D03*
X229597Y470362D02*
D03*
X226054D02*
D03*
X267697Y506862D02*
D03*
X264154D02*
D03*
X284697Y465362D02*
D03*
X281153D02*
D03*
X290597Y435162D02*
D03*
X287053D02*
D03*
X280554D02*
D03*
X284097D02*
D03*
X274897Y479062D02*
D03*
X271354D02*
D03*
X235554Y419462D02*
D03*
X239097D02*
D03*
X419839Y429762D02*
D03*
X423382D02*
D03*
X359282Y466162D02*
D03*
X355739D02*
D03*
X359282Y470362D02*
D03*
X355739D02*
D03*
X397382Y506862D02*
D03*
X393839D02*
D03*
X414382Y465362D02*
D03*
X410839D02*
D03*
X420282Y435162D02*
D03*
X416739D02*
D03*
X410239D02*
D03*
X413782D02*
D03*
X404582Y479062D02*
D03*
X401039D02*
D03*
X365239Y419462D02*
D03*
X368782D02*
D03*
X549524Y429762D02*
D03*
X553067D02*
D03*
X488967Y466162D02*
D03*
X485424D02*
D03*
X488967Y470362D02*
D03*
X485424D02*
D03*
X527067Y506862D02*
D03*
X523524D02*
D03*
X544067Y465362D02*
D03*
X540524D02*
D03*
X549967Y435162D02*
D03*
X546424D02*
D03*
X539924D02*
D03*
X543467D02*
D03*
X534267Y479062D02*
D03*
X530724D02*
D03*
X494924Y419462D02*
D03*
X498467D02*
D03*
X160468Y539636D02*
D03*
X164012D02*
D03*
X99912Y576036D02*
D03*
X96368D02*
D03*
X99912Y580236D02*
D03*
X96368D02*
D03*
X138012Y616736D02*
D03*
X134468D02*
D03*
X155012Y575236D02*
D03*
X151469D02*
D03*
X160912Y545036D02*
D03*
X157369D02*
D03*
X150868D02*
D03*
X154412D02*
D03*
X145212Y588936D02*
D03*
X141668D02*
D03*
X105868Y529336D02*
D03*
X109412D02*
D03*
X290154Y539636D02*
D03*
X293697D02*
D03*
X229597Y576036D02*
D03*
X226054D02*
D03*
X229597Y580236D02*
D03*
X226054D02*
D03*
X267697Y616736D02*
D03*
X264154D02*
D03*
X284697Y575236D02*
D03*
X281153D02*
D03*
X290597Y545036D02*
D03*
X287053D02*
D03*
X280554D02*
D03*
X284097D02*
D03*
X274897Y588936D02*
D03*
X271354D02*
D03*
X235554Y529336D02*
D03*
X239097D02*
D03*
X419839Y539636D02*
D03*
X423382D02*
D03*
X359282Y576036D02*
D03*
X355739D02*
D03*
X359282Y580236D02*
D03*
X355739D02*
D03*
X397382Y616736D02*
D03*
X393839D02*
D03*
X414382Y575236D02*
D03*
X410839D02*
D03*
X420282Y545036D02*
D03*
X416739D02*
D03*
X410239D02*
D03*
X413782D02*
D03*
X404582Y588936D02*
D03*
X401039D02*
D03*
X365239Y529336D02*
D03*
X368782D02*
D03*
X549524Y539636D02*
D03*
X553067D02*
D03*
X488967Y576036D02*
D03*
X485424D02*
D03*
X488967Y580236D02*
D03*
X485424D02*
D03*
X527067Y616736D02*
D03*
X523524D02*
D03*
X544067Y575236D02*
D03*
X540524D02*
D03*
X549967Y545036D02*
D03*
X546424D02*
D03*
X539924D02*
D03*
X543467D02*
D03*
X534267Y588936D02*
D03*
X530724D02*
D03*
X494924Y529336D02*
D03*
X498467D02*
D03*
X160468Y649510D02*
D03*
X164012D02*
D03*
X99912Y685910D02*
D03*
X96368D02*
D03*
X99912Y690110D02*
D03*
X96368D02*
D03*
X138012Y726610D02*
D03*
X134468D02*
D03*
X155012Y685110D02*
D03*
X151469D02*
D03*
X160912Y654910D02*
D03*
X157369D02*
D03*
X150868D02*
D03*
X154412D02*
D03*
X145212Y698810D02*
D03*
X141668D02*
D03*
X105868Y639210D02*
D03*
X109412D02*
D03*
X290154Y649510D02*
D03*
X293697D02*
D03*
X229597Y685910D02*
D03*
X226054D02*
D03*
X229597Y690110D02*
D03*
X226054D02*
D03*
X267697Y726610D02*
D03*
X264154D02*
D03*
X284697Y685110D02*
D03*
X281153D02*
D03*
X290597Y654910D02*
D03*
X287053D02*
D03*
X280554D02*
D03*
X284097D02*
D03*
X274897Y698810D02*
D03*
X271354D02*
D03*
X235554Y639210D02*
D03*
X239097D02*
D03*
X419839Y649510D02*
D03*
X423382D02*
D03*
X359282Y685910D02*
D03*
X355739D02*
D03*
X359282Y690110D02*
D03*
X355739D02*
D03*
X397382Y726610D02*
D03*
X393839D02*
D03*
X414382Y685110D02*
D03*
X410839D02*
D03*
X420282Y654910D02*
D03*
X416739D02*
D03*
X410239D02*
D03*
X413782D02*
D03*
X404582Y698810D02*
D03*
X401039D02*
D03*
X365239Y639210D02*
D03*
X368782D02*
D03*
X549524Y649510D02*
D03*
X553067D02*
D03*
X488967Y685910D02*
D03*
X485424D02*
D03*
X488967Y690110D02*
D03*
X485424D02*
D03*
X527067Y726610D02*
D03*
X523524D02*
D03*
X544067Y685110D02*
D03*
X540524D02*
D03*
X549967Y654910D02*
D03*
X546424D02*
D03*
X539924D02*
D03*
X543467D02*
D03*
X534267Y698810D02*
D03*
X530724D02*
D03*
X494924Y639210D02*
D03*
X498467D02*
D03*
D15*
X166540Y85012D02*
D03*
Y81468D02*
D03*
X145740Y173969D02*
D03*
Y177512D02*
D03*
X88540Y150969D02*
D03*
Y154512D02*
D03*
X118240Y154969D02*
D03*
Y158512D02*
D03*
X134240Y156968D02*
D03*
Y160512D02*
D03*
X149740Y173969D02*
D03*
Y177512D02*
D03*
Y147012D02*
D03*
Y143468D02*
D03*
X165840Y114269D02*
D03*
Y117812D02*
D03*
Y111212D02*
D03*
Y107668D02*
D03*
X130640Y81368D02*
D03*
Y84912D02*
D03*
X296225Y85012D02*
D03*
Y81468D02*
D03*
X275425Y173969D02*
D03*
Y177512D02*
D03*
X218225Y150969D02*
D03*
Y154512D02*
D03*
X247925Y154969D02*
D03*
Y158512D02*
D03*
X263925Y156968D02*
D03*
Y160512D02*
D03*
X279425Y173969D02*
D03*
Y177512D02*
D03*
Y147012D02*
D03*
Y143468D02*
D03*
X295525Y114269D02*
D03*
Y117812D02*
D03*
Y111212D02*
D03*
Y107668D02*
D03*
X260325Y81368D02*
D03*
Y84912D02*
D03*
X425910Y85012D02*
D03*
Y81468D02*
D03*
X405110Y173969D02*
D03*
Y177512D02*
D03*
X347910Y150969D02*
D03*
Y154512D02*
D03*
X377610Y154969D02*
D03*
Y158512D02*
D03*
X393610Y156968D02*
D03*
Y160512D02*
D03*
X409110Y173969D02*
D03*
Y177512D02*
D03*
Y147012D02*
D03*
Y143468D02*
D03*
X425210Y114269D02*
D03*
Y117812D02*
D03*
Y111212D02*
D03*
Y107668D02*
D03*
X390010Y81368D02*
D03*
Y84912D02*
D03*
X555595Y85012D02*
D03*
Y81468D02*
D03*
X534795Y173969D02*
D03*
Y177512D02*
D03*
X477595Y150969D02*
D03*
Y154512D02*
D03*
X507295Y154969D02*
D03*
Y158512D02*
D03*
X523295Y156968D02*
D03*
Y160512D02*
D03*
X538795Y173969D02*
D03*
Y177512D02*
D03*
Y147012D02*
D03*
Y143468D02*
D03*
X554895Y114269D02*
D03*
Y117812D02*
D03*
Y111212D02*
D03*
Y107668D02*
D03*
X519695Y81368D02*
D03*
Y84912D02*
D03*
X166540Y194886D02*
D03*
Y191342D02*
D03*
X145740Y283842D02*
D03*
Y287386D02*
D03*
X88540Y260842D02*
D03*
Y264386D02*
D03*
X118240Y264843D02*
D03*
Y268386D02*
D03*
X134240Y266843D02*
D03*
Y270386D02*
D03*
X149740Y283842D02*
D03*
Y287386D02*
D03*
Y256886D02*
D03*
Y253343D02*
D03*
X165840Y224143D02*
D03*
Y227686D02*
D03*
Y221086D02*
D03*
Y217543D02*
D03*
X130640Y191243D02*
D03*
Y194786D02*
D03*
X296225Y194886D02*
D03*
Y191342D02*
D03*
X275425Y283842D02*
D03*
Y287386D02*
D03*
X218225Y260842D02*
D03*
Y264386D02*
D03*
X247925Y264843D02*
D03*
Y268386D02*
D03*
X263925Y266843D02*
D03*
Y270386D02*
D03*
X279425Y283842D02*
D03*
Y287386D02*
D03*
Y256886D02*
D03*
Y253343D02*
D03*
X295525Y224143D02*
D03*
Y227686D02*
D03*
Y221086D02*
D03*
Y217543D02*
D03*
X260325Y191243D02*
D03*
Y194786D02*
D03*
X425910Y194886D02*
D03*
Y191342D02*
D03*
X405110Y283842D02*
D03*
Y287386D02*
D03*
X347910Y260842D02*
D03*
Y264386D02*
D03*
X377610Y264843D02*
D03*
Y268386D02*
D03*
X393610Y266843D02*
D03*
Y270386D02*
D03*
X409110Y283842D02*
D03*
Y287386D02*
D03*
Y256886D02*
D03*
Y253343D02*
D03*
X425210Y224143D02*
D03*
Y227686D02*
D03*
Y221086D02*
D03*
Y217543D02*
D03*
X390010Y191243D02*
D03*
Y194786D02*
D03*
X555595Y194886D02*
D03*
Y191342D02*
D03*
X534795Y283842D02*
D03*
Y287386D02*
D03*
X477595Y260842D02*
D03*
Y264386D02*
D03*
X507295Y264843D02*
D03*
Y268386D02*
D03*
X523295Y266843D02*
D03*
Y270386D02*
D03*
X538795Y283842D02*
D03*
Y287386D02*
D03*
Y256886D02*
D03*
Y253343D02*
D03*
X554895Y224143D02*
D03*
Y227686D02*
D03*
Y221086D02*
D03*
Y217543D02*
D03*
X519695Y191243D02*
D03*
Y194786D02*
D03*
X166540Y304760D02*
D03*
Y301217D02*
D03*
X145740Y393717D02*
D03*
Y397260D02*
D03*
X88540Y370717D02*
D03*
Y374260D02*
D03*
X118240Y374717D02*
D03*
Y378260D02*
D03*
X134240Y376717D02*
D03*
Y380260D02*
D03*
X149740Y393717D02*
D03*
Y397260D02*
D03*
Y366760D02*
D03*
Y363217D02*
D03*
X165840Y334017D02*
D03*
Y337560D02*
D03*
Y330960D02*
D03*
Y327417D02*
D03*
X130640Y301117D02*
D03*
Y304660D02*
D03*
X296225Y304760D02*
D03*
Y301217D02*
D03*
X275425Y393717D02*
D03*
Y397260D02*
D03*
X218225Y370717D02*
D03*
Y374260D02*
D03*
X247925Y374717D02*
D03*
Y378260D02*
D03*
X263925Y376717D02*
D03*
Y380260D02*
D03*
X279425Y393717D02*
D03*
Y397260D02*
D03*
Y366760D02*
D03*
Y363217D02*
D03*
X295525Y334017D02*
D03*
Y337560D02*
D03*
Y330960D02*
D03*
Y327417D02*
D03*
X260325Y301117D02*
D03*
Y304660D02*
D03*
X425910Y304760D02*
D03*
Y301217D02*
D03*
X405110Y393717D02*
D03*
Y397260D02*
D03*
X347910Y370717D02*
D03*
Y374260D02*
D03*
X377610Y374717D02*
D03*
Y378260D02*
D03*
X393610Y376717D02*
D03*
Y380260D02*
D03*
X409110Y393717D02*
D03*
Y397260D02*
D03*
Y366760D02*
D03*
Y363217D02*
D03*
X425210Y334017D02*
D03*
Y337560D02*
D03*
Y330960D02*
D03*
Y327417D02*
D03*
X390010Y301117D02*
D03*
Y304660D02*
D03*
X555595Y304760D02*
D03*
Y301217D02*
D03*
X534795Y393717D02*
D03*
Y397260D02*
D03*
X477595Y370717D02*
D03*
Y374260D02*
D03*
X507295Y374717D02*
D03*
Y378260D02*
D03*
X523295Y376717D02*
D03*
Y380260D02*
D03*
X538795Y393717D02*
D03*
Y397260D02*
D03*
Y366760D02*
D03*
Y363217D02*
D03*
X554895Y334017D02*
D03*
Y337560D02*
D03*
Y330960D02*
D03*
Y327417D02*
D03*
X519695Y301117D02*
D03*
Y304660D02*
D03*
X166540Y414634D02*
D03*
Y411091D02*
D03*
X145740Y503591D02*
D03*
Y507134D02*
D03*
X88540Y480591D02*
D03*
Y484134D02*
D03*
X118240Y484591D02*
D03*
Y488134D02*
D03*
X134240Y486591D02*
D03*
Y490134D02*
D03*
X149740Y503591D02*
D03*
Y507134D02*
D03*
Y476634D02*
D03*
Y473091D02*
D03*
X165840Y443891D02*
D03*
Y447434D02*
D03*
Y440834D02*
D03*
Y437291D02*
D03*
X130640Y410991D02*
D03*
Y414534D02*
D03*
X296225Y414634D02*
D03*
Y411091D02*
D03*
X275425Y503591D02*
D03*
Y507134D02*
D03*
X218225Y480591D02*
D03*
Y484134D02*
D03*
X247925Y484591D02*
D03*
Y488134D02*
D03*
X263925Y486591D02*
D03*
Y490134D02*
D03*
X279425Y503591D02*
D03*
Y507134D02*
D03*
Y476634D02*
D03*
Y473091D02*
D03*
X295525Y443891D02*
D03*
Y447434D02*
D03*
Y440834D02*
D03*
Y437291D02*
D03*
X260325Y410991D02*
D03*
Y414534D02*
D03*
X425910Y414634D02*
D03*
Y411091D02*
D03*
X405110Y503591D02*
D03*
Y507134D02*
D03*
X347910Y480591D02*
D03*
Y484134D02*
D03*
X377610Y484591D02*
D03*
Y488134D02*
D03*
X393610Y486591D02*
D03*
Y490134D02*
D03*
X409110Y503591D02*
D03*
Y507134D02*
D03*
Y476634D02*
D03*
Y473091D02*
D03*
X425210Y443891D02*
D03*
Y447434D02*
D03*
Y440834D02*
D03*
Y437291D02*
D03*
X390010Y410991D02*
D03*
Y414534D02*
D03*
X555595Y414634D02*
D03*
Y411091D02*
D03*
X534795Y503591D02*
D03*
Y507134D02*
D03*
X477595Y480591D02*
D03*
Y484134D02*
D03*
X507295Y484591D02*
D03*
Y488134D02*
D03*
X523295Y486591D02*
D03*
Y490134D02*
D03*
X538795Y503591D02*
D03*
Y507134D02*
D03*
Y476634D02*
D03*
Y473091D02*
D03*
X554895Y443891D02*
D03*
Y447434D02*
D03*
Y440834D02*
D03*
Y437291D02*
D03*
X519695Y410991D02*
D03*
Y414534D02*
D03*
X166540Y524508D02*
D03*
Y520965D02*
D03*
X145740Y613465D02*
D03*
Y617008D02*
D03*
X88540Y590465D02*
D03*
Y594008D02*
D03*
X118240Y594465D02*
D03*
Y598008D02*
D03*
X134240Y596465D02*
D03*
Y600008D02*
D03*
X149740Y613465D02*
D03*
Y617008D02*
D03*
Y586508D02*
D03*
Y582965D02*
D03*
X165840Y553765D02*
D03*
Y557308D02*
D03*
Y550708D02*
D03*
Y547165D02*
D03*
X130640Y520865D02*
D03*
Y524408D02*
D03*
X296225Y524508D02*
D03*
Y520965D02*
D03*
X275425Y613465D02*
D03*
Y617008D02*
D03*
X218225Y590465D02*
D03*
Y594008D02*
D03*
X247925Y594465D02*
D03*
Y598008D02*
D03*
X263925Y596465D02*
D03*
Y600008D02*
D03*
X279425Y613465D02*
D03*
Y617008D02*
D03*
Y586508D02*
D03*
Y582965D02*
D03*
X295525Y553765D02*
D03*
Y557308D02*
D03*
Y550708D02*
D03*
Y547165D02*
D03*
X260325Y520865D02*
D03*
Y524408D02*
D03*
X425910Y524508D02*
D03*
Y520965D02*
D03*
X405110Y613465D02*
D03*
Y617008D02*
D03*
X347910Y590465D02*
D03*
Y594008D02*
D03*
X377610Y594465D02*
D03*
Y598008D02*
D03*
X393610Y596465D02*
D03*
Y600008D02*
D03*
X409110Y613465D02*
D03*
Y617008D02*
D03*
Y586508D02*
D03*
Y582965D02*
D03*
X425210Y553765D02*
D03*
Y557308D02*
D03*
Y550708D02*
D03*
Y547165D02*
D03*
X390010Y520865D02*
D03*
Y524408D02*
D03*
X555595Y524508D02*
D03*
Y520965D02*
D03*
X534795Y613465D02*
D03*
Y617008D02*
D03*
X477595Y590465D02*
D03*
Y594008D02*
D03*
X507295Y594465D02*
D03*
Y598008D02*
D03*
X523295Y596465D02*
D03*
Y600008D02*
D03*
X538795Y613465D02*
D03*
Y617008D02*
D03*
Y586508D02*
D03*
Y582965D02*
D03*
X554895Y553765D02*
D03*
Y557308D02*
D03*
Y550708D02*
D03*
Y547165D02*
D03*
X519695Y520865D02*
D03*
Y524408D02*
D03*
X166540Y634382D02*
D03*
Y630839D02*
D03*
X145740Y723339D02*
D03*
Y726882D02*
D03*
X88540Y700339D02*
D03*
Y703882D02*
D03*
X118240Y704339D02*
D03*
Y707882D02*
D03*
X134240Y706339D02*
D03*
Y709882D02*
D03*
X149740Y723339D02*
D03*
Y726882D02*
D03*
Y696382D02*
D03*
Y692839D02*
D03*
X165840Y663639D02*
D03*
Y667182D02*
D03*
Y660582D02*
D03*
Y657039D02*
D03*
X130640Y630739D02*
D03*
Y634282D02*
D03*
X296225Y634382D02*
D03*
Y630839D02*
D03*
X275425Y723339D02*
D03*
Y726882D02*
D03*
X218225Y700339D02*
D03*
Y703882D02*
D03*
X247925Y704339D02*
D03*
Y707882D02*
D03*
X263925Y706339D02*
D03*
Y709882D02*
D03*
X279425Y723339D02*
D03*
Y726882D02*
D03*
Y696382D02*
D03*
Y692839D02*
D03*
X295525Y663639D02*
D03*
Y667182D02*
D03*
Y660582D02*
D03*
Y657039D02*
D03*
X260325Y630739D02*
D03*
Y634282D02*
D03*
X425910Y634382D02*
D03*
Y630839D02*
D03*
X405110Y723339D02*
D03*
Y726882D02*
D03*
X347910Y700339D02*
D03*
Y703882D02*
D03*
X377610Y704339D02*
D03*
Y707882D02*
D03*
X393610Y706339D02*
D03*
Y709882D02*
D03*
X409110Y723339D02*
D03*
Y726882D02*
D03*
Y696382D02*
D03*
Y692839D02*
D03*
X425210Y663639D02*
D03*
Y667182D02*
D03*
Y660582D02*
D03*
Y657039D02*
D03*
X390010Y630739D02*
D03*
Y634282D02*
D03*
X555595Y634382D02*
D03*
Y630839D02*
D03*
X534795Y723339D02*
D03*
Y726882D02*
D03*
X477595Y700339D02*
D03*
Y703882D02*
D03*
X507295Y704339D02*
D03*
Y707882D02*
D03*
X523295Y706339D02*
D03*
Y709882D02*
D03*
X538795Y723339D02*
D03*
Y726882D02*
D03*
Y696382D02*
D03*
Y692839D02*
D03*
X554895Y663639D02*
D03*
Y667182D02*
D03*
Y660582D02*
D03*
Y657039D02*
D03*
X519695Y630739D02*
D03*
Y634282D02*
D03*
D16*
X88494Y145927D02*
D03*
Y131754D02*
D03*
X82786Y145927D02*
D03*
Y131754D02*
D03*
X218179Y145927D02*
D03*
Y131754D02*
D03*
X212471Y145927D02*
D03*
Y131754D02*
D03*
X347865Y145927D02*
D03*
Y131754D02*
D03*
X342156Y145927D02*
D03*
Y131754D02*
D03*
X477550Y145927D02*
D03*
Y131754D02*
D03*
X471841Y145927D02*
D03*
Y131754D02*
D03*
X88494Y255801D02*
D03*
Y241628D02*
D03*
X82786Y255801D02*
D03*
Y241628D02*
D03*
X218179Y255801D02*
D03*
Y241628D02*
D03*
X212471Y255801D02*
D03*
Y241628D02*
D03*
X347865Y255801D02*
D03*
Y241628D02*
D03*
X342156Y255801D02*
D03*
Y241628D02*
D03*
X477550Y255801D02*
D03*
Y241628D02*
D03*
X471841Y255801D02*
D03*
Y241628D02*
D03*
X88494Y365675D02*
D03*
Y351502D02*
D03*
X82786Y365675D02*
D03*
Y351502D02*
D03*
X218179Y365675D02*
D03*
Y351502D02*
D03*
X212471Y365675D02*
D03*
Y351502D02*
D03*
X347865Y365675D02*
D03*
Y351502D02*
D03*
X342156Y365675D02*
D03*
Y351502D02*
D03*
X477550Y365675D02*
D03*
Y351502D02*
D03*
X471841Y365675D02*
D03*
Y351502D02*
D03*
X88494Y475549D02*
D03*
Y461376D02*
D03*
X82786Y475549D02*
D03*
Y461376D02*
D03*
X218179Y475549D02*
D03*
Y461376D02*
D03*
X212471Y475549D02*
D03*
Y461376D02*
D03*
X347865Y475549D02*
D03*
Y461376D02*
D03*
X342156Y475549D02*
D03*
Y461376D02*
D03*
X477550Y475549D02*
D03*
Y461376D02*
D03*
X471841Y475549D02*
D03*
Y461376D02*
D03*
X88494Y585423D02*
D03*
Y571250D02*
D03*
X82786Y585423D02*
D03*
Y571250D02*
D03*
X218179Y585423D02*
D03*
Y571250D02*
D03*
X212471Y585423D02*
D03*
Y571250D02*
D03*
X347865Y585423D02*
D03*
Y571250D02*
D03*
X342156Y585423D02*
D03*
Y571250D02*
D03*
X477550Y585423D02*
D03*
Y571250D02*
D03*
X471841Y585423D02*
D03*
Y571250D02*
D03*
X88494Y695297D02*
D03*
Y681124D02*
D03*
X82786Y695297D02*
D03*
Y681124D02*
D03*
X218179Y695297D02*
D03*
Y681124D02*
D03*
X212471Y695297D02*
D03*
Y681124D02*
D03*
X347865Y695297D02*
D03*
Y681124D02*
D03*
X342156Y695297D02*
D03*
Y681124D02*
D03*
X477550Y695297D02*
D03*
Y681124D02*
D03*
X471841Y695297D02*
D03*
Y681124D02*
D03*
D17*
X154547Y95075D02*
D03*
Y84405D02*
D03*
X142933D02*
D03*
Y95075D02*
D03*
X124547Y175075D02*
D03*
Y164406D02*
D03*
X112933D02*
D03*
Y175075D02*
D03*
X284232Y95075D02*
D03*
Y84405D02*
D03*
X272618D02*
D03*
Y95075D02*
D03*
X254232Y175075D02*
D03*
Y164406D02*
D03*
X242618D02*
D03*
Y175075D02*
D03*
X413917Y95075D02*
D03*
Y84405D02*
D03*
X402303D02*
D03*
Y95075D02*
D03*
X383917Y175075D02*
D03*
Y164406D02*
D03*
X372303D02*
D03*
Y175075D02*
D03*
X543602Y95075D02*
D03*
Y84405D02*
D03*
X531988D02*
D03*
Y95075D02*
D03*
X513602Y175075D02*
D03*
Y164406D02*
D03*
X501988D02*
D03*
Y175075D02*
D03*
X154547Y204949D02*
D03*
Y194280D02*
D03*
X142933D02*
D03*
Y204949D02*
D03*
X124547Y284949D02*
D03*
Y274279D02*
D03*
X112933D02*
D03*
Y284949D02*
D03*
X284232Y204949D02*
D03*
Y194280D02*
D03*
X272618D02*
D03*
Y204949D02*
D03*
X254232Y284949D02*
D03*
Y274279D02*
D03*
X242618D02*
D03*
Y284949D02*
D03*
X413917Y204949D02*
D03*
Y194280D02*
D03*
X402303D02*
D03*
Y204949D02*
D03*
X383917Y284949D02*
D03*
Y274279D02*
D03*
X372303D02*
D03*
Y284949D02*
D03*
X543602Y204949D02*
D03*
Y194280D02*
D03*
X531988D02*
D03*
Y204949D02*
D03*
X513602Y284949D02*
D03*
Y274279D02*
D03*
X501988D02*
D03*
Y284949D02*
D03*
X154547Y314823D02*
D03*
Y304153D02*
D03*
X142933D02*
D03*
Y314823D02*
D03*
X124547Y394823D02*
D03*
Y384154D02*
D03*
X112933D02*
D03*
Y394823D02*
D03*
X284232Y314823D02*
D03*
Y304153D02*
D03*
X272618D02*
D03*
Y314823D02*
D03*
X254232Y394823D02*
D03*
Y384154D02*
D03*
X242618D02*
D03*
Y394823D02*
D03*
X413917Y314823D02*
D03*
Y304153D02*
D03*
X402303D02*
D03*
Y314823D02*
D03*
X383917Y394823D02*
D03*
Y384154D02*
D03*
X372303D02*
D03*
Y394823D02*
D03*
X543602Y314823D02*
D03*
Y304153D02*
D03*
X531988D02*
D03*
Y314823D02*
D03*
X513602Y394823D02*
D03*
Y384154D02*
D03*
X501988D02*
D03*
Y394823D02*
D03*
X154547Y424697D02*
D03*
Y414028D02*
D03*
X142933D02*
D03*
Y424697D02*
D03*
X124547Y504697D02*
D03*
Y494028D02*
D03*
X112933D02*
D03*
Y504697D02*
D03*
X284232Y424697D02*
D03*
Y414028D02*
D03*
X272618D02*
D03*
Y424697D02*
D03*
X254232Y504697D02*
D03*
Y494028D02*
D03*
X242618D02*
D03*
Y504697D02*
D03*
X413917Y424697D02*
D03*
Y414028D02*
D03*
X402303D02*
D03*
Y424697D02*
D03*
X383917Y504697D02*
D03*
Y494028D02*
D03*
X372303D02*
D03*
Y504697D02*
D03*
X543602Y424697D02*
D03*
Y414028D02*
D03*
X531988D02*
D03*
Y424697D02*
D03*
X513602Y504697D02*
D03*
Y494028D02*
D03*
X501988D02*
D03*
Y504697D02*
D03*
X154547Y534571D02*
D03*
Y523902D02*
D03*
X142933D02*
D03*
Y534571D02*
D03*
X124547Y614571D02*
D03*
Y603902D02*
D03*
X112933D02*
D03*
Y614571D02*
D03*
X284232Y534571D02*
D03*
Y523902D02*
D03*
X272618D02*
D03*
Y534571D02*
D03*
X254232Y614571D02*
D03*
Y603902D02*
D03*
X242618D02*
D03*
Y614571D02*
D03*
X413917Y534571D02*
D03*
Y523902D02*
D03*
X402303D02*
D03*
Y534571D02*
D03*
X383917Y614571D02*
D03*
Y603902D02*
D03*
X372303D02*
D03*
Y614571D02*
D03*
X543602Y534571D02*
D03*
Y523902D02*
D03*
X531988D02*
D03*
Y534571D02*
D03*
X513602Y614571D02*
D03*
Y603902D02*
D03*
X501988D02*
D03*
Y614571D02*
D03*
X154547Y644445D02*
D03*
Y633776D02*
D03*
X142933D02*
D03*
Y644445D02*
D03*
X124547Y724445D02*
D03*
Y713776D02*
D03*
X112933D02*
D03*
Y724445D02*
D03*
X284232Y644445D02*
D03*
Y633776D02*
D03*
X272618D02*
D03*
Y644445D02*
D03*
X254232Y724445D02*
D03*
Y713776D02*
D03*
X242618D02*
D03*
Y724445D02*
D03*
X413917Y644445D02*
D03*
Y633776D02*
D03*
X402303D02*
D03*
Y644445D02*
D03*
X383917Y724445D02*
D03*
Y713776D02*
D03*
X372303D02*
D03*
Y724445D02*
D03*
X543602Y644445D02*
D03*
Y633776D02*
D03*
X531988D02*
D03*
Y644445D02*
D03*
X513602Y724445D02*
D03*
Y713776D02*
D03*
X501988D02*
D03*
Y724445D02*
D03*
D18*
X144803Y95075D02*
D03*
X146378D02*
D03*
X147953D02*
D03*
X149528D02*
D03*
X151102D02*
D03*
X152677D02*
D03*
Y84405D02*
D03*
X151102D02*
D03*
X149528D02*
D03*
X147953D02*
D03*
X146378D02*
D03*
X144803D02*
D03*
X114803Y175075D02*
D03*
X116378D02*
D03*
X117953D02*
D03*
X119528D02*
D03*
X121102D02*
D03*
X122677D02*
D03*
Y164406D02*
D03*
X121102D02*
D03*
X119528D02*
D03*
X117953D02*
D03*
X116378D02*
D03*
X114803D02*
D03*
X274488Y95075D02*
D03*
X276063D02*
D03*
X277638D02*
D03*
X279213D02*
D03*
X280787D02*
D03*
X282362D02*
D03*
Y84405D02*
D03*
X280787D02*
D03*
X279213D02*
D03*
X277638D02*
D03*
X276063D02*
D03*
X274488D02*
D03*
X244488Y175075D02*
D03*
X246063D02*
D03*
X247638D02*
D03*
X249213D02*
D03*
X250787D02*
D03*
X252362D02*
D03*
Y164406D02*
D03*
X250787D02*
D03*
X249213D02*
D03*
X247638D02*
D03*
X246063D02*
D03*
X244488D02*
D03*
X404173Y95075D02*
D03*
X405748D02*
D03*
X407323D02*
D03*
X408898D02*
D03*
X410472D02*
D03*
X412047D02*
D03*
Y84405D02*
D03*
X410472D02*
D03*
X408898D02*
D03*
X407323D02*
D03*
X405748D02*
D03*
X404173D02*
D03*
X374173Y175075D02*
D03*
X375748D02*
D03*
X377323D02*
D03*
X378898D02*
D03*
X380472D02*
D03*
X382047D02*
D03*
Y164406D02*
D03*
X380472D02*
D03*
X378898D02*
D03*
X377323D02*
D03*
X375748D02*
D03*
X374173D02*
D03*
X533858Y95075D02*
D03*
X535433D02*
D03*
X537008D02*
D03*
X538583D02*
D03*
X540158D02*
D03*
X541732D02*
D03*
Y84405D02*
D03*
X540158D02*
D03*
X538583D02*
D03*
X537008D02*
D03*
X535433D02*
D03*
X533858D02*
D03*
X503858Y175075D02*
D03*
X505433D02*
D03*
X507008D02*
D03*
X508583D02*
D03*
X510157D02*
D03*
X511732D02*
D03*
Y164406D02*
D03*
X510157D02*
D03*
X508583D02*
D03*
X507008D02*
D03*
X505433D02*
D03*
X503858D02*
D03*
X144803Y204949D02*
D03*
X146378D02*
D03*
X147953D02*
D03*
X149528D02*
D03*
X151102D02*
D03*
X152677D02*
D03*
Y194280D02*
D03*
X151102D02*
D03*
X149528D02*
D03*
X147953D02*
D03*
X146378D02*
D03*
X144803D02*
D03*
X114803Y284949D02*
D03*
X116378D02*
D03*
X117953D02*
D03*
X119528D02*
D03*
X121102D02*
D03*
X122677D02*
D03*
Y274279D02*
D03*
X121102D02*
D03*
X119528D02*
D03*
X117953D02*
D03*
X116378D02*
D03*
X114803D02*
D03*
X274488Y204949D02*
D03*
X276063D02*
D03*
X277638D02*
D03*
X279213D02*
D03*
X280787D02*
D03*
X282362D02*
D03*
Y194280D02*
D03*
X280787D02*
D03*
X279213D02*
D03*
X277638D02*
D03*
X276063D02*
D03*
X274488D02*
D03*
X244488Y284949D02*
D03*
X246063D02*
D03*
X247638D02*
D03*
X249213D02*
D03*
X250787D02*
D03*
X252362D02*
D03*
Y274279D02*
D03*
X250787D02*
D03*
X249213D02*
D03*
X247638D02*
D03*
X246063D02*
D03*
X244488D02*
D03*
X404173Y204949D02*
D03*
X405748D02*
D03*
X407323D02*
D03*
X408898D02*
D03*
X410472D02*
D03*
X412047D02*
D03*
Y194280D02*
D03*
X410472D02*
D03*
X408898D02*
D03*
X407323D02*
D03*
X405748D02*
D03*
X404173D02*
D03*
X374173Y284949D02*
D03*
X375748D02*
D03*
X377323D02*
D03*
X378898D02*
D03*
X380472D02*
D03*
X382047D02*
D03*
Y274279D02*
D03*
X380472D02*
D03*
X378898D02*
D03*
X377323D02*
D03*
X375748D02*
D03*
X374173D02*
D03*
X533858Y204949D02*
D03*
X535433D02*
D03*
X537008D02*
D03*
X538583D02*
D03*
X540158D02*
D03*
X541732D02*
D03*
Y194280D02*
D03*
X540158D02*
D03*
X538583D02*
D03*
X537008D02*
D03*
X535433D02*
D03*
X533858D02*
D03*
X503858Y284949D02*
D03*
X505433D02*
D03*
X507008D02*
D03*
X508583D02*
D03*
X510157D02*
D03*
X511732D02*
D03*
Y274279D02*
D03*
X510157D02*
D03*
X508583D02*
D03*
X507008D02*
D03*
X505433D02*
D03*
X503858D02*
D03*
X144803Y314823D02*
D03*
X146378D02*
D03*
X147953D02*
D03*
X149528D02*
D03*
X151102D02*
D03*
X152677D02*
D03*
Y304154D02*
D03*
X151102D02*
D03*
X149528D02*
D03*
X147953D02*
D03*
X146378D02*
D03*
X144803D02*
D03*
X114803Y394823D02*
D03*
X116378D02*
D03*
X117953D02*
D03*
X119528D02*
D03*
X121102D02*
D03*
X122677D02*
D03*
Y384154D02*
D03*
X121102D02*
D03*
X119528D02*
D03*
X117953D02*
D03*
X116378D02*
D03*
X114803D02*
D03*
X274488Y314823D02*
D03*
X276063D02*
D03*
X277638D02*
D03*
X279213D02*
D03*
X280787D02*
D03*
X282362D02*
D03*
Y304154D02*
D03*
X280787D02*
D03*
X279213D02*
D03*
X277638D02*
D03*
X276063D02*
D03*
X274488D02*
D03*
X244488Y394823D02*
D03*
X246063D02*
D03*
X247638D02*
D03*
X249213D02*
D03*
X250787D02*
D03*
X252362D02*
D03*
Y384154D02*
D03*
X250787D02*
D03*
X249213D02*
D03*
X247638D02*
D03*
X246063D02*
D03*
X244488D02*
D03*
X404173Y314823D02*
D03*
X405748D02*
D03*
X407323D02*
D03*
X408898D02*
D03*
X410472D02*
D03*
X412047D02*
D03*
Y304154D02*
D03*
X410472D02*
D03*
X408898D02*
D03*
X407323D02*
D03*
X405748D02*
D03*
X404173D02*
D03*
X374173Y394823D02*
D03*
X375748D02*
D03*
X377323D02*
D03*
X378898D02*
D03*
X380472D02*
D03*
X382047D02*
D03*
Y384154D02*
D03*
X380472D02*
D03*
X378898D02*
D03*
X377323D02*
D03*
X375748D02*
D03*
X374173D02*
D03*
X533858Y314823D02*
D03*
X535433D02*
D03*
X537008D02*
D03*
X538583D02*
D03*
X540158D02*
D03*
X541732D02*
D03*
Y304154D02*
D03*
X540158D02*
D03*
X538583D02*
D03*
X537008D02*
D03*
X535433D02*
D03*
X533858D02*
D03*
X503858Y394823D02*
D03*
X505433D02*
D03*
X507008D02*
D03*
X508583D02*
D03*
X510157D02*
D03*
X511732D02*
D03*
Y384154D02*
D03*
X510157D02*
D03*
X508583D02*
D03*
X507008D02*
D03*
X505433D02*
D03*
X503858D02*
D03*
X144803Y424697D02*
D03*
X146378D02*
D03*
X147953D02*
D03*
X149528D02*
D03*
X151102D02*
D03*
X152677D02*
D03*
Y414028D02*
D03*
X151102D02*
D03*
X149528D02*
D03*
X147953D02*
D03*
X146378D02*
D03*
X144803D02*
D03*
X114803Y504697D02*
D03*
X116378D02*
D03*
X117953D02*
D03*
X119528D02*
D03*
X121102D02*
D03*
X122677D02*
D03*
Y494028D02*
D03*
X121102D02*
D03*
X119528D02*
D03*
X117953D02*
D03*
X116378D02*
D03*
X114803D02*
D03*
X274488Y424697D02*
D03*
X276063D02*
D03*
X277638D02*
D03*
X279213D02*
D03*
X280787D02*
D03*
X282362D02*
D03*
Y414028D02*
D03*
X280787D02*
D03*
X279213D02*
D03*
X277638D02*
D03*
X276063D02*
D03*
X274488D02*
D03*
X244488Y504697D02*
D03*
X246063D02*
D03*
X247638D02*
D03*
X249213D02*
D03*
X250787D02*
D03*
X252362D02*
D03*
Y494028D02*
D03*
X250787D02*
D03*
X249213D02*
D03*
X247638D02*
D03*
X246063D02*
D03*
X244488D02*
D03*
X404173Y424697D02*
D03*
X405748D02*
D03*
X407323D02*
D03*
X408898D02*
D03*
X410472D02*
D03*
X412047D02*
D03*
Y414028D02*
D03*
X410472D02*
D03*
X408898D02*
D03*
X407323D02*
D03*
X405748D02*
D03*
X404173D02*
D03*
X374173Y504697D02*
D03*
X375748D02*
D03*
X377323D02*
D03*
X378898D02*
D03*
X380472D02*
D03*
X382047D02*
D03*
Y494028D02*
D03*
X380472D02*
D03*
X378898D02*
D03*
X377323D02*
D03*
X375748D02*
D03*
X374173D02*
D03*
X533858Y424697D02*
D03*
X535433D02*
D03*
X537008D02*
D03*
X538583D02*
D03*
X540158D02*
D03*
X541732D02*
D03*
Y414028D02*
D03*
X540158D02*
D03*
X538583D02*
D03*
X537008D02*
D03*
X535433D02*
D03*
X533858D02*
D03*
X503858Y504697D02*
D03*
X505433D02*
D03*
X507008D02*
D03*
X508583D02*
D03*
X510157D02*
D03*
X511732D02*
D03*
Y494028D02*
D03*
X510157D02*
D03*
X508583D02*
D03*
X507008D02*
D03*
X505433D02*
D03*
X503858D02*
D03*
X144803Y534571D02*
D03*
X146378D02*
D03*
X147953D02*
D03*
X149528D02*
D03*
X151102D02*
D03*
X152677D02*
D03*
Y523902D02*
D03*
X151102D02*
D03*
X149528D02*
D03*
X147953D02*
D03*
X146378D02*
D03*
X144803D02*
D03*
X114803Y614571D02*
D03*
X116378D02*
D03*
X117953D02*
D03*
X119528D02*
D03*
X121102D02*
D03*
X122677D02*
D03*
Y603902D02*
D03*
X121102D02*
D03*
X119528D02*
D03*
X117953D02*
D03*
X116378D02*
D03*
X114803D02*
D03*
X274488Y534571D02*
D03*
X276063D02*
D03*
X277638D02*
D03*
X279213D02*
D03*
X280787D02*
D03*
X282362D02*
D03*
Y523902D02*
D03*
X280787D02*
D03*
X279213D02*
D03*
X277638D02*
D03*
X276063D02*
D03*
X274488D02*
D03*
X244488Y614571D02*
D03*
X246063D02*
D03*
X247638D02*
D03*
X249213D02*
D03*
X250787D02*
D03*
X252362D02*
D03*
Y603902D02*
D03*
X250787D02*
D03*
X249213D02*
D03*
X247638D02*
D03*
X246063D02*
D03*
X244488D02*
D03*
X404173Y534571D02*
D03*
X405748D02*
D03*
X407323D02*
D03*
X408898D02*
D03*
X410472D02*
D03*
X412047D02*
D03*
Y523902D02*
D03*
X410472D02*
D03*
X408898D02*
D03*
X407323D02*
D03*
X405748D02*
D03*
X404173D02*
D03*
X374173Y614571D02*
D03*
X375748D02*
D03*
X377323D02*
D03*
X378898D02*
D03*
X380472D02*
D03*
X382047D02*
D03*
Y603902D02*
D03*
X380472D02*
D03*
X378898D02*
D03*
X377323D02*
D03*
X375748D02*
D03*
X374173D02*
D03*
X533858Y534571D02*
D03*
X535433D02*
D03*
X537008D02*
D03*
X538583D02*
D03*
X540158D02*
D03*
X541732D02*
D03*
Y523902D02*
D03*
X540158D02*
D03*
X538583D02*
D03*
X537008D02*
D03*
X535433D02*
D03*
X533858D02*
D03*
X503858Y614571D02*
D03*
X505433D02*
D03*
X507008D02*
D03*
X508583D02*
D03*
X510157D02*
D03*
X511732D02*
D03*
Y603902D02*
D03*
X510157D02*
D03*
X508583D02*
D03*
X507008D02*
D03*
X505433D02*
D03*
X503858D02*
D03*
X144803Y644445D02*
D03*
X146378D02*
D03*
X147953D02*
D03*
X149528D02*
D03*
X151102D02*
D03*
X152677D02*
D03*
Y633776D02*
D03*
X151102D02*
D03*
X149528D02*
D03*
X147953D02*
D03*
X146378D02*
D03*
X144803D02*
D03*
X114803Y724445D02*
D03*
X116378D02*
D03*
X117953D02*
D03*
X119528D02*
D03*
X121102D02*
D03*
X122677D02*
D03*
Y713776D02*
D03*
X121102D02*
D03*
X119528D02*
D03*
X117953D02*
D03*
X116378D02*
D03*
X114803D02*
D03*
X274488Y644445D02*
D03*
X276063D02*
D03*
X277638D02*
D03*
X279213D02*
D03*
X280787D02*
D03*
X282362D02*
D03*
Y633776D02*
D03*
X280787D02*
D03*
X279213D02*
D03*
X277638D02*
D03*
X276063D02*
D03*
X274488D02*
D03*
X244488Y724445D02*
D03*
X246063D02*
D03*
X247638D02*
D03*
X249213D02*
D03*
X250787D02*
D03*
X252362D02*
D03*
Y713776D02*
D03*
X250787D02*
D03*
X249213D02*
D03*
X247638D02*
D03*
X246063D02*
D03*
X244488D02*
D03*
X404173Y644445D02*
D03*
X405748D02*
D03*
X407323D02*
D03*
X408898D02*
D03*
X410472D02*
D03*
X412047D02*
D03*
Y633776D02*
D03*
X410472D02*
D03*
X408898D02*
D03*
X407323D02*
D03*
X405748D02*
D03*
X404173D02*
D03*
X374173Y724445D02*
D03*
X375748D02*
D03*
X377323D02*
D03*
X378898D02*
D03*
X380472D02*
D03*
X382047D02*
D03*
Y713776D02*
D03*
X380472D02*
D03*
X378898D02*
D03*
X377323D02*
D03*
X375748D02*
D03*
X374173D02*
D03*
X533858Y644445D02*
D03*
X535433D02*
D03*
X537008D02*
D03*
X538583D02*
D03*
X540158D02*
D03*
X541732D02*
D03*
Y633776D02*
D03*
X540158D02*
D03*
X538583D02*
D03*
X537008D02*
D03*
X535433D02*
D03*
X533858D02*
D03*
X503858Y724445D02*
D03*
X505433D02*
D03*
X507008D02*
D03*
X508583D02*
D03*
X510157D02*
D03*
X511732D02*
D03*
Y713776D02*
D03*
X510157D02*
D03*
X508583D02*
D03*
X507008D02*
D03*
X505433D02*
D03*
X503858D02*
D03*
D19*
X132740Y122740D02*
D03*
X262425D02*
D03*
X392110D02*
D03*
X521795D02*
D03*
X132740Y232614D02*
D03*
X262425D02*
D03*
X392110D02*
D03*
X521795D02*
D03*
X132740Y342488D02*
D03*
X262425D02*
D03*
X392110D02*
D03*
X521795D02*
D03*
X132740Y452362D02*
D03*
X262425D02*
D03*
X392110D02*
D03*
X521795D02*
D03*
X132740Y562236D02*
D03*
X262425D02*
D03*
X392110D02*
D03*
X521795D02*
D03*
X132740Y672110D02*
D03*
X262425D02*
D03*
X392110D02*
D03*
X521795D02*
D03*
D20*
X119945Y138094D02*
D03*
X121913D02*
D03*
X123882D02*
D03*
X125850D02*
D03*
X127819D02*
D03*
X129787D02*
D03*
X131756D02*
D03*
X133724D02*
D03*
X135693D02*
D03*
X137661D02*
D03*
X139630D02*
D03*
X141598D02*
D03*
X143567D02*
D03*
X145535D02*
D03*
Y107386D02*
D03*
X143567D02*
D03*
X141598D02*
D03*
X139630D02*
D03*
X137661D02*
D03*
X135693D02*
D03*
X133724D02*
D03*
X131756D02*
D03*
X129787D02*
D03*
X127819D02*
D03*
X125850D02*
D03*
X123882D02*
D03*
X121913D02*
D03*
X119945D02*
D03*
X249630Y138094D02*
D03*
X251598D02*
D03*
X253567D02*
D03*
X255535D02*
D03*
X257504D02*
D03*
X259472D02*
D03*
X261441D02*
D03*
X263409D02*
D03*
X265378D02*
D03*
X267347D02*
D03*
X269315D02*
D03*
X271284D02*
D03*
X273252D02*
D03*
X275220D02*
D03*
Y107386D02*
D03*
X273252D02*
D03*
X271284D02*
D03*
X269315D02*
D03*
X267347D02*
D03*
X265378D02*
D03*
X263409D02*
D03*
X261441D02*
D03*
X259472D02*
D03*
X257504D02*
D03*
X255535D02*
D03*
X253567D02*
D03*
X251598D02*
D03*
X249630D02*
D03*
X379315Y138094D02*
D03*
X381283D02*
D03*
X383252D02*
D03*
X385221D02*
D03*
X387189D02*
D03*
X389158D02*
D03*
X391126D02*
D03*
X393094D02*
D03*
X395063D02*
D03*
X397031D02*
D03*
X399000D02*
D03*
X400969D02*
D03*
X402937D02*
D03*
X404906D02*
D03*
Y107386D02*
D03*
X402937D02*
D03*
X400969D02*
D03*
X399000D02*
D03*
X397031D02*
D03*
X395063D02*
D03*
X393094D02*
D03*
X391126D02*
D03*
X389158D02*
D03*
X387189D02*
D03*
X385221D02*
D03*
X383252D02*
D03*
X381283D02*
D03*
X379315D02*
D03*
X509000Y138094D02*
D03*
X510968D02*
D03*
X512937D02*
D03*
X514906D02*
D03*
X516874D02*
D03*
X518843D02*
D03*
X520811D02*
D03*
X522780D02*
D03*
X524748D02*
D03*
X526717D02*
D03*
X528685D02*
D03*
X530653D02*
D03*
X532622D02*
D03*
X534590D02*
D03*
Y107386D02*
D03*
X532622D02*
D03*
X530653D02*
D03*
X528685D02*
D03*
X526717D02*
D03*
X524748D02*
D03*
X522780D02*
D03*
X520811D02*
D03*
X518843D02*
D03*
X516874D02*
D03*
X514906D02*
D03*
X512937D02*
D03*
X510968D02*
D03*
X509000D02*
D03*
X119945Y247969D02*
D03*
X121913D02*
D03*
X123882D02*
D03*
X125850D02*
D03*
X127819D02*
D03*
X129787D02*
D03*
X131756D02*
D03*
X133724D02*
D03*
X135693D02*
D03*
X137661D02*
D03*
X139630D02*
D03*
X141598D02*
D03*
X143567D02*
D03*
X145535D02*
D03*
Y217260D02*
D03*
X143567D02*
D03*
X141598D02*
D03*
X139630D02*
D03*
X137661D02*
D03*
X135693D02*
D03*
X133724D02*
D03*
X131756D02*
D03*
X129787D02*
D03*
X127819D02*
D03*
X125850D02*
D03*
X123882D02*
D03*
X121913D02*
D03*
X119945D02*
D03*
X249630Y247969D02*
D03*
X251598D02*
D03*
X253567D02*
D03*
X255535D02*
D03*
X257504D02*
D03*
X259472D02*
D03*
X261441D02*
D03*
X263409D02*
D03*
X265378D02*
D03*
X267347D02*
D03*
X269315D02*
D03*
X271284D02*
D03*
X273252D02*
D03*
X275220D02*
D03*
Y217260D02*
D03*
X273252D02*
D03*
X271284D02*
D03*
X269315D02*
D03*
X267347D02*
D03*
X265378D02*
D03*
X263409D02*
D03*
X261441D02*
D03*
X259472D02*
D03*
X257504D02*
D03*
X255535D02*
D03*
X253567D02*
D03*
X251598D02*
D03*
X249630D02*
D03*
X379315Y247969D02*
D03*
X381283D02*
D03*
X383252D02*
D03*
X385221D02*
D03*
X387189D02*
D03*
X389158D02*
D03*
X391126D02*
D03*
X393094D02*
D03*
X395063D02*
D03*
X397031D02*
D03*
X399000D02*
D03*
X400969D02*
D03*
X402937D02*
D03*
X404906D02*
D03*
Y217260D02*
D03*
X402937D02*
D03*
X400969D02*
D03*
X399000D02*
D03*
X397031D02*
D03*
X395063D02*
D03*
X393094D02*
D03*
X391126D02*
D03*
X389158D02*
D03*
X387189D02*
D03*
X385221D02*
D03*
X383252D02*
D03*
X381283D02*
D03*
X379315D02*
D03*
X509000Y247969D02*
D03*
X510968D02*
D03*
X512937D02*
D03*
X514906D02*
D03*
X516874D02*
D03*
X518843D02*
D03*
X520811D02*
D03*
X522780D02*
D03*
X524748D02*
D03*
X526717D02*
D03*
X528685D02*
D03*
X530653D02*
D03*
X532622D02*
D03*
X534590D02*
D03*
Y217260D02*
D03*
X532622D02*
D03*
X530653D02*
D03*
X528685D02*
D03*
X526717D02*
D03*
X524748D02*
D03*
X522780D02*
D03*
X520811D02*
D03*
X518843D02*
D03*
X516874D02*
D03*
X514906D02*
D03*
X512937D02*
D03*
X510968D02*
D03*
X509000D02*
D03*
X119945Y357842D02*
D03*
X121913D02*
D03*
X123882D02*
D03*
X125850D02*
D03*
X127819D02*
D03*
X129787D02*
D03*
X131756D02*
D03*
X133724D02*
D03*
X135693D02*
D03*
X137661D02*
D03*
X139630D02*
D03*
X141598D02*
D03*
X143567D02*
D03*
X145535D02*
D03*
Y327134D02*
D03*
X143567D02*
D03*
X141598D02*
D03*
X139630D02*
D03*
X137661D02*
D03*
X135693D02*
D03*
X133724D02*
D03*
X131756D02*
D03*
X129787D02*
D03*
X127819D02*
D03*
X125850D02*
D03*
X123882D02*
D03*
X121913D02*
D03*
X119945D02*
D03*
X249630Y357842D02*
D03*
X251598D02*
D03*
X253567D02*
D03*
X255535D02*
D03*
X257504D02*
D03*
X259472D02*
D03*
X261441D02*
D03*
X263409D02*
D03*
X265378D02*
D03*
X267347D02*
D03*
X269315D02*
D03*
X271284D02*
D03*
X273252D02*
D03*
X275220D02*
D03*
Y327134D02*
D03*
X273252D02*
D03*
X271284D02*
D03*
X269315D02*
D03*
X267347D02*
D03*
X265378D02*
D03*
X263409D02*
D03*
X261441D02*
D03*
X259472D02*
D03*
X257504D02*
D03*
X255535D02*
D03*
X253567D02*
D03*
X251598D02*
D03*
X249630D02*
D03*
X379315Y357842D02*
D03*
X381283D02*
D03*
X383252D02*
D03*
X385221D02*
D03*
X387189D02*
D03*
X389158D02*
D03*
X391126D02*
D03*
X393094D02*
D03*
X395063D02*
D03*
X397031D02*
D03*
X399000D02*
D03*
X400969D02*
D03*
X402937D02*
D03*
X404906D02*
D03*
Y327134D02*
D03*
X402937D02*
D03*
X400969D02*
D03*
X399000D02*
D03*
X397031D02*
D03*
X395063D02*
D03*
X393094D02*
D03*
X391126D02*
D03*
X389158D02*
D03*
X387189D02*
D03*
X385221D02*
D03*
X383252D02*
D03*
X381283D02*
D03*
X379315D02*
D03*
X509000Y357842D02*
D03*
X510968D02*
D03*
X512937D02*
D03*
X514906D02*
D03*
X516874D02*
D03*
X518843D02*
D03*
X520811D02*
D03*
X522780D02*
D03*
X524748D02*
D03*
X526717D02*
D03*
X528685D02*
D03*
X530653D02*
D03*
X532622D02*
D03*
X534590D02*
D03*
Y327134D02*
D03*
X532622D02*
D03*
X530653D02*
D03*
X528685D02*
D03*
X526717D02*
D03*
X524748D02*
D03*
X522780D02*
D03*
X520811D02*
D03*
X518843D02*
D03*
X516874D02*
D03*
X514906D02*
D03*
X512937D02*
D03*
X510968D02*
D03*
X509000D02*
D03*
X119945Y467717D02*
D03*
X121913D02*
D03*
X123882D02*
D03*
X125850D02*
D03*
X127819D02*
D03*
X129787D02*
D03*
X131756D02*
D03*
X133724D02*
D03*
X135693D02*
D03*
X137661D02*
D03*
X139630D02*
D03*
X141598D02*
D03*
X143567D02*
D03*
X145535D02*
D03*
Y437008D02*
D03*
X143567D02*
D03*
X141598D02*
D03*
X139630D02*
D03*
X137661D02*
D03*
X135693D02*
D03*
X133724D02*
D03*
X131756D02*
D03*
X129787D02*
D03*
X127819D02*
D03*
X125850D02*
D03*
X123882D02*
D03*
X121913D02*
D03*
X119945D02*
D03*
X249630Y467717D02*
D03*
X251598D02*
D03*
X253567D02*
D03*
X255535D02*
D03*
X257504D02*
D03*
X259472D02*
D03*
X261441D02*
D03*
X263409D02*
D03*
X265378D02*
D03*
X267347D02*
D03*
X269315D02*
D03*
X271284D02*
D03*
X273252D02*
D03*
X275220D02*
D03*
Y437008D02*
D03*
X273252D02*
D03*
X271284D02*
D03*
X269315D02*
D03*
X267347D02*
D03*
X265378D02*
D03*
X263409D02*
D03*
X261441D02*
D03*
X259472D02*
D03*
X257504D02*
D03*
X255535D02*
D03*
X253567D02*
D03*
X251598D02*
D03*
X249630D02*
D03*
X379315Y467717D02*
D03*
X381283D02*
D03*
X383252D02*
D03*
X385221D02*
D03*
X387189D02*
D03*
X389158D02*
D03*
X391126D02*
D03*
X393094D02*
D03*
X395063D02*
D03*
X397031D02*
D03*
X399000D02*
D03*
X400969D02*
D03*
X402937D02*
D03*
X404906D02*
D03*
Y437008D02*
D03*
X402937D02*
D03*
X400969D02*
D03*
X399000D02*
D03*
X397031D02*
D03*
X395063D02*
D03*
X393094D02*
D03*
X391126D02*
D03*
X389158D02*
D03*
X387189D02*
D03*
X385221D02*
D03*
X383252D02*
D03*
X381283D02*
D03*
X379315D02*
D03*
X509000Y467717D02*
D03*
X510968D02*
D03*
X512937D02*
D03*
X514906D02*
D03*
X516874D02*
D03*
X518843D02*
D03*
X520811D02*
D03*
X522780D02*
D03*
X524748D02*
D03*
X526717D02*
D03*
X528685D02*
D03*
X530653D02*
D03*
X532622D02*
D03*
X534590D02*
D03*
Y437008D02*
D03*
X532622D02*
D03*
X530653D02*
D03*
X528685D02*
D03*
X526717D02*
D03*
X524748D02*
D03*
X522780D02*
D03*
X520811D02*
D03*
X518843D02*
D03*
X516874D02*
D03*
X514906D02*
D03*
X512937D02*
D03*
X510968D02*
D03*
X509000D02*
D03*
X119945Y577591D02*
D03*
X121913D02*
D03*
X123882D02*
D03*
X125850D02*
D03*
X127819D02*
D03*
X129787D02*
D03*
X131756D02*
D03*
X133724D02*
D03*
X135693D02*
D03*
X137661D02*
D03*
X139630D02*
D03*
X141598D02*
D03*
X143567D02*
D03*
X145535D02*
D03*
Y546882D02*
D03*
X143567D02*
D03*
X141598D02*
D03*
X139630D02*
D03*
X137661D02*
D03*
X135693D02*
D03*
X133724D02*
D03*
X131756D02*
D03*
X129787D02*
D03*
X127819D02*
D03*
X125850D02*
D03*
X123882D02*
D03*
X121913D02*
D03*
X119945D02*
D03*
X249630Y577591D02*
D03*
X251598D02*
D03*
X253567D02*
D03*
X255535D02*
D03*
X257504D02*
D03*
X259472D02*
D03*
X261441D02*
D03*
X263409D02*
D03*
X265378D02*
D03*
X267347D02*
D03*
X269315D02*
D03*
X271284D02*
D03*
X273252D02*
D03*
X275220D02*
D03*
Y546882D02*
D03*
X273252D02*
D03*
X271284D02*
D03*
X269315D02*
D03*
X267347D02*
D03*
X265378D02*
D03*
X263409D02*
D03*
X261441D02*
D03*
X259472D02*
D03*
X257504D02*
D03*
X255535D02*
D03*
X253567D02*
D03*
X251598D02*
D03*
X249630D02*
D03*
X379315Y577591D02*
D03*
X381283D02*
D03*
X383252D02*
D03*
X385221D02*
D03*
X387189D02*
D03*
X389158D02*
D03*
X391126D02*
D03*
X393094D02*
D03*
X395063D02*
D03*
X397031D02*
D03*
X399000D02*
D03*
X400969D02*
D03*
X402937D02*
D03*
X404906D02*
D03*
Y546882D02*
D03*
X402937D02*
D03*
X400969D02*
D03*
X399000D02*
D03*
X397031D02*
D03*
X395063D02*
D03*
X393094D02*
D03*
X391126D02*
D03*
X389158D02*
D03*
X387189D02*
D03*
X385221D02*
D03*
X383252D02*
D03*
X381283D02*
D03*
X379315D02*
D03*
X509000Y577591D02*
D03*
X510968D02*
D03*
X512937D02*
D03*
X514906D02*
D03*
X516874D02*
D03*
X518843D02*
D03*
X520811D02*
D03*
X522780D02*
D03*
X524748D02*
D03*
X526717D02*
D03*
X528685D02*
D03*
X530653D02*
D03*
X532622D02*
D03*
X534590D02*
D03*
Y546882D02*
D03*
X532622D02*
D03*
X530653D02*
D03*
X528685D02*
D03*
X526717D02*
D03*
X524748D02*
D03*
X522780D02*
D03*
X520811D02*
D03*
X518843D02*
D03*
X516874D02*
D03*
X514906D02*
D03*
X512937D02*
D03*
X510968D02*
D03*
X509000D02*
D03*
X119945Y687465D02*
D03*
X121913D02*
D03*
X123882D02*
D03*
X125850D02*
D03*
X127819D02*
D03*
X129787D02*
D03*
X131756D02*
D03*
X133724D02*
D03*
X135693D02*
D03*
X137661D02*
D03*
X139630D02*
D03*
X141598D02*
D03*
X143567D02*
D03*
X145535D02*
D03*
Y656756D02*
D03*
X143567D02*
D03*
X141598D02*
D03*
X139630D02*
D03*
X137661D02*
D03*
X135693D02*
D03*
X133724D02*
D03*
X131756D02*
D03*
X129787D02*
D03*
X127819D02*
D03*
X125850D02*
D03*
X123882D02*
D03*
X121913D02*
D03*
X119945D02*
D03*
X249630Y687465D02*
D03*
X251598D02*
D03*
X253567D02*
D03*
X255535D02*
D03*
X257504D02*
D03*
X259472D02*
D03*
X261441D02*
D03*
X263409D02*
D03*
X265378D02*
D03*
X267347D02*
D03*
X269315D02*
D03*
X271284D02*
D03*
X273252D02*
D03*
X275220D02*
D03*
Y656756D02*
D03*
X273252D02*
D03*
X271284D02*
D03*
X269315D02*
D03*
X267347D02*
D03*
X265378D02*
D03*
X263409D02*
D03*
X261441D02*
D03*
X259472D02*
D03*
X257504D02*
D03*
X255535D02*
D03*
X253567D02*
D03*
X251598D02*
D03*
X249630D02*
D03*
X379315Y687465D02*
D03*
X381283D02*
D03*
X383252D02*
D03*
X385221D02*
D03*
X387189D02*
D03*
X389158D02*
D03*
X391126D02*
D03*
X393094D02*
D03*
X395063D02*
D03*
X397031D02*
D03*
X399000D02*
D03*
X400969D02*
D03*
X402937D02*
D03*
X404906D02*
D03*
Y656756D02*
D03*
X402937D02*
D03*
X400969D02*
D03*
X399000D02*
D03*
X397031D02*
D03*
X395063D02*
D03*
X393094D02*
D03*
X391126D02*
D03*
X389158D02*
D03*
X387189D02*
D03*
X385221D02*
D03*
X383252D02*
D03*
X381283D02*
D03*
X379315D02*
D03*
X509000Y687465D02*
D03*
X510968D02*
D03*
X512937D02*
D03*
X514906D02*
D03*
X516874D02*
D03*
X518843D02*
D03*
X520811D02*
D03*
X522780D02*
D03*
X524748D02*
D03*
X526717D02*
D03*
X528685D02*
D03*
X530653D02*
D03*
X532622D02*
D03*
X534590D02*
D03*
Y656756D02*
D03*
X532622D02*
D03*
X530653D02*
D03*
X528685D02*
D03*
X526717D02*
D03*
X524748D02*
D03*
X522780D02*
D03*
X520811D02*
D03*
X518843D02*
D03*
X516874D02*
D03*
X514906D02*
D03*
X512937D02*
D03*
X510968D02*
D03*
X509000D02*
D03*
D21*
X148094Y135535D02*
D03*
Y133567D02*
D03*
Y131598D02*
D03*
Y129630D02*
D03*
Y127661D02*
D03*
Y125693D02*
D03*
Y123724D02*
D03*
Y121756D02*
D03*
Y119787D02*
D03*
Y117819D02*
D03*
Y115850D02*
D03*
Y113882D02*
D03*
Y111913D02*
D03*
Y109945D02*
D03*
X117386D02*
D03*
Y111913D02*
D03*
Y113882D02*
D03*
Y115850D02*
D03*
Y117819D02*
D03*
Y119787D02*
D03*
Y121756D02*
D03*
Y123724D02*
D03*
Y125693D02*
D03*
Y127661D02*
D03*
Y129630D02*
D03*
Y131598D02*
D03*
Y133567D02*
D03*
Y135535D02*
D03*
X277780D02*
D03*
Y133567D02*
D03*
Y131598D02*
D03*
Y129630D02*
D03*
Y127661D02*
D03*
Y125693D02*
D03*
Y123724D02*
D03*
Y121756D02*
D03*
Y119787D02*
D03*
Y117819D02*
D03*
Y115850D02*
D03*
Y113882D02*
D03*
Y111913D02*
D03*
Y109945D02*
D03*
X247071D02*
D03*
Y111913D02*
D03*
Y113882D02*
D03*
Y115850D02*
D03*
Y117819D02*
D03*
Y119787D02*
D03*
Y121756D02*
D03*
Y123724D02*
D03*
Y125693D02*
D03*
Y127661D02*
D03*
Y129630D02*
D03*
Y131598D02*
D03*
Y133567D02*
D03*
Y135535D02*
D03*
X407465D02*
D03*
Y133567D02*
D03*
Y131598D02*
D03*
Y129630D02*
D03*
Y127661D02*
D03*
Y125693D02*
D03*
Y123724D02*
D03*
Y121756D02*
D03*
Y119787D02*
D03*
Y117819D02*
D03*
Y115850D02*
D03*
Y113882D02*
D03*
Y111913D02*
D03*
Y109945D02*
D03*
X376756D02*
D03*
Y111913D02*
D03*
Y113882D02*
D03*
Y115850D02*
D03*
Y117819D02*
D03*
Y119787D02*
D03*
Y121756D02*
D03*
Y123724D02*
D03*
Y125693D02*
D03*
Y127661D02*
D03*
Y129630D02*
D03*
Y131598D02*
D03*
Y133567D02*
D03*
Y135535D02*
D03*
X537150D02*
D03*
Y133567D02*
D03*
Y131598D02*
D03*
Y129630D02*
D03*
Y127661D02*
D03*
Y125693D02*
D03*
Y123724D02*
D03*
Y121756D02*
D03*
Y119787D02*
D03*
Y117819D02*
D03*
Y115850D02*
D03*
Y113882D02*
D03*
Y111913D02*
D03*
Y109945D02*
D03*
X506441D02*
D03*
Y111913D02*
D03*
Y113882D02*
D03*
Y115850D02*
D03*
Y117819D02*
D03*
Y119787D02*
D03*
Y121756D02*
D03*
Y123724D02*
D03*
Y125693D02*
D03*
Y127661D02*
D03*
Y129630D02*
D03*
Y131598D02*
D03*
Y133567D02*
D03*
Y135535D02*
D03*
X148094Y245409D02*
D03*
Y243441D02*
D03*
Y241472D02*
D03*
Y239504D02*
D03*
Y237535D02*
D03*
Y235567D02*
D03*
Y233598D02*
D03*
Y231630D02*
D03*
Y229661D02*
D03*
Y227693D02*
D03*
Y225724D02*
D03*
Y223756D02*
D03*
Y221787D02*
D03*
Y219819D02*
D03*
X117386D02*
D03*
Y221787D02*
D03*
Y223756D02*
D03*
Y225724D02*
D03*
Y227693D02*
D03*
Y229661D02*
D03*
Y231630D02*
D03*
Y233598D02*
D03*
Y235567D02*
D03*
Y237535D02*
D03*
Y239504D02*
D03*
Y241472D02*
D03*
Y243441D02*
D03*
Y245409D02*
D03*
X277780D02*
D03*
Y243441D02*
D03*
Y241472D02*
D03*
Y239504D02*
D03*
Y237535D02*
D03*
Y235567D02*
D03*
Y233598D02*
D03*
Y231630D02*
D03*
Y229661D02*
D03*
Y227693D02*
D03*
Y225724D02*
D03*
Y223756D02*
D03*
Y221787D02*
D03*
Y219819D02*
D03*
X247071D02*
D03*
Y221787D02*
D03*
Y223756D02*
D03*
Y225724D02*
D03*
Y227693D02*
D03*
Y229661D02*
D03*
Y231630D02*
D03*
Y233598D02*
D03*
Y235567D02*
D03*
Y237535D02*
D03*
Y239504D02*
D03*
Y241472D02*
D03*
Y243441D02*
D03*
Y245409D02*
D03*
X407465D02*
D03*
Y243441D02*
D03*
Y241472D02*
D03*
Y239504D02*
D03*
Y237535D02*
D03*
Y235567D02*
D03*
Y233598D02*
D03*
Y231630D02*
D03*
Y229661D02*
D03*
Y227693D02*
D03*
Y225724D02*
D03*
Y223756D02*
D03*
Y221787D02*
D03*
Y219819D02*
D03*
X376756D02*
D03*
Y221787D02*
D03*
Y223756D02*
D03*
Y225724D02*
D03*
Y227693D02*
D03*
Y229661D02*
D03*
Y231630D02*
D03*
Y233598D02*
D03*
Y235567D02*
D03*
Y237535D02*
D03*
Y239504D02*
D03*
Y241472D02*
D03*
Y243441D02*
D03*
Y245409D02*
D03*
X537150D02*
D03*
Y243441D02*
D03*
Y241472D02*
D03*
Y239504D02*
D03*
Y237535D02*
D03*
Y235567D02*
D03*
Y233598D02*
D03*
Y231630D02*
D03*
Y229661D02*
D03*
Y227693D02*
D03*
Y225724D02*
D03*
Y223756D02*
D03*
Y221787D02*
D03*
Y219819D02*
D03*
X506441D02*
D03*
Y221787D02*
D03*
Y223756D02*
D03*
Y225724D02*
D03*
Y227693D02*
D03*
Y229661D02*
D03*
Y231630D02*
D03*
Y233598D02*
D03*
Y235567D02*
D03*
Y237535D02*
D03*
Y239504D02*
D03*
Y241472D02*
D03*
Y243441D02*
D03*
Y245409D02*
D03*
X148094Y355283D02*
D03*
Y353315D02*
D03*
Y351346D02*
D03*
Y349378D02*
D03*
Y347410D02*
D03*
Y345441D02*
D03*
Y343473D02*
D03*
Y341504D02*
D03*
Y339535D02*
D03*
Y337567D02*
D03*
Y335598D02*
D03*
Y333630D02*
D03*
Y331661D02*
D03*
Y329693D02*
D03*
X117386D02*
D03*
Y331661D02*
D03*
Y333630D02*
D03*
Y335598D02*
D03*
Y337567D02*
D03*
Y339535D02*
D03*
Y341504D02*
D03*
Y343473D02*
D03*
Y345441D02*
D03*
Y347410D02*
D03*
Y349378D02*
D03*
Y351346D02*
D03*
Y353315D02*
D03*
Y355283D02*
D03*
X277780D02*
D03*
Y353315D02*
D03*
Y351346D02*
D03*
Y349378D02*
D03*
Y347410D02*
D03*
Y345441D02*
D03*
Y343473D02*
D03*
Y341504D02*
D03*
Y339535D02*
D03*
Y337567D02*
D03*
Y335598D02*
D03*
Y333630D02*
D03*
Y331661D02*
D03*
Y329693D02*
D03*
X247071D02*
D03*
Y331661D02*
D03*
Y333630D02*
D03*
Y335598D02*
D03*
Y337567D02*
D03*
Y339535D02*
D03*
Y341504D02*
D03*
Y343473D02*
D03*
Y345441D02*
D03*
Y347410D02*
D03*
Y349378D02*
D03*
Y351346D02*
D03*
Y353315D02*
D03*
Y355283D02*
D03*
X407465D02*
D03*
Y353315D02*
D03*
Y351346D02*
D03*
Y349378D02*
D03*
Y347410D02*
D03*
Y345441D02*
D03*
Y343473D02*
D03*
Y341504D02*
D03*
Y339535D02*
D03*
Y337567D02*
D03*
Y335598D02*
D03*
Y333630D02*
D03*
Y331661D02*
D03*
Y329693D02*
D03*
X376756D02*
D03*
Y331661D02*
D03*
Y333630D02*
D03*
Y335598D02*
D03*
Y337567D02*
D03*
Y339535D02*
D03*
Y341504D02*
D03*
Y343473D02*
D03*
Y345441D02*
D03*
Y347410D02*
D03*
Y349378D02*
D03*
Y351346D02*
D03*
Y353315D02*
D03*
Y355283D02*
D03*
X537150D02*
D03*
Y353315D02*
D03*
Y351346D02*
D03*
Y349378D02*
D03*
Y347410D02*
D03*
Y345441D02*
D03*
Y343473D02*
D03*
Y341504D02*
D03*
Y339535D02*
D03*
Y337567D02*
D03*
Y335598D02*
D03*
Y333630D02*
D03*
Y331661D02*
D03*
Y329693D02*
D03*
X506441D02*
D03*
Y331661D02*
D03*
Y333630D02*
D03*
Y335598D02*
D03*
Y337567D02*
D03*
Y339535D02*
D03*
Y341504D02*
D03*
Y343473D02*
D03*
Y345441D02*
D03*
Y347410D02*
D03*
Y349378D02*
D03*
Y351346D02*
D03*
Y353315D02*
D03*
Y355283D02*
D03*
X148094Y465158D02*
D03*
Y463189D02*
D03*
Y461221D02*
D03*
Y459252D02*
D03*
Y457283D02*
D03*
Y455315D02*
D03*
Y453346D02*
D03*
Y451378D02*
D03*
Y449409D02*
D03*
Y447441D02*
D03*
Y445472D02*
D03*
Y443504D02*
D03*
Y441536D02*
D03*
Y439567D02*
D03*
X117386D02*
D03*
Y441536D02*
D03*
Y443504D02*
D03*
Y445472D02*
D03*
Y447441D02*
D03*
Y449409D02*
D03*
Y451378D02*
D03*
Y453346D02*
D03*
Y455315D02*
D03*
Y457283D02*
D03*
Y459252D02*
D03*
Y461221D02*
D03*
Y463189D02*
D03*
Y465158D02*
D03*
X277780D02*
D03*
Y463189D02*
D03*
Y461221D02*
D03*
Y459252D02*
D03*
Y457283D02*
D03*
Y455315D02*
D03*
Y453346D02*
D03*
Y451378D02*
D03*
Y449409D02*
D03*
Y447441D02*
D03*
Y445472D02*
D03*
Y443504D02*
D03*
Y441536D02*
D03*
Y439567D02*
D03*
X247071D02*
D03*
Y441536D02*
D03*
Y443504D02*
D03*
Y445472D02*
D03*
Y447441D02*
D03*
Y449409D02*
D03*
Y451378D02*
D03*
Y453346D02*
D03*
Y455315D02*
D03*
Y457283D02*
D03*
Y459252D02*
D03*
Y461221D02*
D03*
Y463189D02*
D03*
Y465158D02*
D03*
X407465D02*
D03*
Y463189D02*
D03*
Y461221D02*
D03*
Y459252D02*
D03*
Y457283D02*
D03*
Y455315D02*
D03*
Y453346D02*
D03*
Y451378D02*
D03*
Y449409D02*
D03*
Y447441D02*
D03*
Y445472D02*
D03*
Y443504D02*
D03*
Y441536D02*
D03*
Y439567D02*
D03*
X376756D02*
D03*
Y441536D02*
D03*
Y443504D02*
D03*
Y445472D02*
D03*
Y447441D02*
D03*
Y449409D02*
D03*
Y451378D02*
D03*
Y453346D02*
D03*
Y455315D02*
D03*
Y457283D02*
D03*
Y459252D02*
D03*
Y461221D02*
D03*
Y463189D02*
D03*
Y465158D02*
D03*
X537150D02*
D03*
Y463189D02*
D03*
Y461221D02*
D03*
Y459252D02*
D03*
Y457283D02*
D03*
Y455315D02*
D03*
Y453346D02*
D03*
Y451378D02*
D03*
Y449409D02*
D03*
Y447441D02*
D03*
Y445472D02*
D03*
Y443504D02*
D03*
Y441536D02*
D03*
Y439567D02*
D03*
X506441D02*
D03*
Y441536D02*
D03*
Y443504D02*
D03*
Y445472D02*
D03*
Y447441D02*
D03*
Y449409D02*
D03*
Y451378D02*
D03*
Y453346D02*
D03*
Y455315D02*
D03*
Y457283D02*
D03*
Y459252D02*
D03*
Y461221D02*
D03*
Y463189D02*
D03*
Y465158D02*
D03*
X148094Y575032D02*
D03*
Y573063D02*
D03*
Y571095D02*
D03*
Y569126D02*
D03*
Y567158D02*
D03*
Y565189D02*
D03*
Y563221D02*
D03*
Y561252D02*
D03*
Y559283D02*
D03*
Y557315D02*
D03*
Y555346D02*
D03*
Y553378D02*
D03*
Y551409D02*
D03*
Y549441D02*
D03*
X117386D02*
D03*
Y551409D02*
D03*
Y553378D02*
D03*
Y555346D02*
D03*
Y557315D02*
D03*
Y559283D02*
D03*
Y561252D02*
D03*
Y563221D02*
D03*
Y565189D02*
D03*
Y567158D02*
D03*
Y569126D02*
D03*
Y571095D02*
D03*
Y573063D02*
D03*
Y575032D02*
D03*
X277780D02*
D03*
Y573063D02*
D03*
Y571095D02*
D03*
Y569126D02*
D03*
Y567158D02*
D03*
Y565189D02*
D03*
Y563221D02*
D03*
Y561252D02*
D03*
Y559283D02*
D03*
Y557315D02*
D03*
Y555346D02*
D03*
Y553378D02*
D03*
Y551409D02*
D03*
Y549441D02*
D03*
X247071D02*
D03*
Y551409D02*
D03*
Y553378D02*
D03*
Y555346D02*
D03*
Y557315D02*
D03*
Y559283D02*
D03*
Y561252D02*
D03*
Y563221D02*
D03*
Y565189D02*
D03*
Y567158D02*
D03*
Y569126D02*
D03*
Y571095D02*
D03*
Y573063D02*
D03*
Y575032D02*
D03*
X407465D02*
D03*
Y573063D02*
D03*
Y571095D02*
D03*
Y569126D02*
D03*
Y567158D02*
D03*
Y565189D02*
D03*
Y563221D02*
D03*
Y561252D02*
D03*
Y559283D02*
D03*
Y557315D02*
D03*
Y555346D02*
D03*
Y553378D02*
D03*
Y551409D02*
D03*
Y549441D02*
D03*
X376756D02*
D03*
Y551409D02*
D03*
Y553378D02*
D03*
Y555346D02*
D03*
Y557315D02*
D03*
Y559283D02*
D03*
Y561252D02*
D03*
Y563221D02*
D03*
Y565189D02*
D03*
Y567158D02*
D03*
Y569126D02*
D03*
Y571095D02*
D03*
Y573063D02*
D03*
Y575032D02*
D03*
X537150D02*
D03*
Y573063D02*
D03*
Y571095D02*
D03*
Y569126D02*
D03*
Y567158D02*
D03*
Y565189D02*
D03*
Y563221D02*
D03*
Y561252D02*
D03*
Y559283D02*
D03*
Y557315D02*
D03*
Y555346D02*
D03*
Y553378D02*
D03*
Y551409D02*
D03*
Y549441D02*
D03*
X506441D02*
D03*
Y551409D02*
D03*
Y553378D02*
D03*
Y555346D02*
D03*
Y557315D02*
D03*
Y559283D02*
D03*
Y561252D02*
D03*
Y563221D02*
D03*
Y565189D02*
D03*
Y567158D02*
D03*
Y569126D02*
D03*
Y571095D02*
D03*
Y573063D02*
D03*
Y575032D02*
D03*
X148094Y684905D02*
D03*
Y682937D02*
D03*
Y680969D02*
D03*
Y679000D02*
D03*
Y677032D02*
D03*
Y675063D02*
D03*
Y673095D02*
D03*
Y671126D02*
D03*
Y669158D02*
D03*
Y667189D02*
D03*
Y665220D02*
D03*
Y663252D02*
D03*
Y661283D02*
D03*
Y659315D02*
D03*
X117386D02*
D03*
Y661283D02*
D03*
Y663252D02*
D03*
Y665220D02*
D03*
Y667189D02*
D03*
Y669158D02*
D03*
Y671126D02*
D03*
Y673095D02*
D03*
Y675063D02*
D03*
Y677032D02*
D03*
Y679000D02*
D03*
Y680969D02*
D03*
Y682937D02*
D03*
Y684905D02*
D03*
X277780D02*
D03*
Y682937D02*
D03*
Y680969D02*
D03*
Y679000D02*
D03*
Y677032D02*
D03*
Y675063D02*
D03*
Y673095D02*
D03*
Y671126D02*
D03*
Y669158D02*
D03*
Y667189D02*
D03*
Y665220D02*
D03*
Y663252D02*
D03*
Y661283D02*
D03*
Y659315D02*
D03*
X247071D02*
D03*
Y661283D02*
D03*
Y663252D02*
D03*
Y665220D02*
D03*
Y667189D02*
D03*
Y669158D02*
D03*
Y671126D02*
D03*
Y673095D02*
D03*
Y675063D02*
D03*
Y677032D02*
D03*
Y679000D02*
D03*
Y680969D02*
D03*
Y682937D02*
D03*
Y684905D02*
D03*
X407465D02*
D03*
Y682937D02*
D03*
Y680969D02*
D03*
Y679000D02*
D03*
Y677032D02*
D03*
Y675063D02*
D03*
Y673095D02*
D03*
Y671126D02*
D03*
Y669158D02*
D03*
Y667189D02*
D03*
Y665220D02*
D03*
Y663252D02*
D03*
Y661283D02*
D03*
Y659315D02*
D03*
X376756D02*
D03*
Y661283D02*
D03*
Y663252D02*
D03*
Y665220D02*
D03*
Y667189D02*
D03*
Y669158D02*
D03*
Y671126D02*
D03*
Y673095D02*
D03*
Y675063D02*
D03*
Y677032D02*
D03*
Y679000D02*
D03*
Y680969D02*
D03*
Y682937D02*
D03*
Y684905D02*
D03*
X537150D02*
D03*
Y682937D02*
D03*
Y680969D02*
D03*
Y679000D02*
D03*
Y677032D02*
D03*
Y675063D02*
D03*
Y673095D02*
D03*
Y671126D02*
D03*
Y669158D02*
D03*
Y667189D02*
D03*
Y665220D02*
D03*
Y663252D02*
D03*
Y661283D02*
D03*
Y659315D02*
D03*
X506441D02*
D03*
Y661283D02*
D03*
Y663252D02*
D03*
Y665220D02*
D03*
Y667189D02*
D03*
Y669158D02*
D03*
Y671126D02*
D03*
Y673095D02*
D03*
Y675063D02*
D03*
Y677032D02*
D03*
Y679000D02*
D03*
Y680969D02*
D03*
Y682937D02*
D03*
Y684905D02*
D03*
D22*
X141480Y170240D02*
D03*
Y172799D02*
D03*
Y167681D02*
D03*
X134000Y172799D02*
D03*
Y170240D02*
D03*
Y167681D02*
D03*
X271165Y170240D02*
D03*
Y172799D02*
D03*
Y167681D02*
D03*
X263685Y172799D02*
D03*
Y170240D02*
D03*
Y167681D02*
D03*
X400850Y170240D02*
D03*
Y172799D02*
D03*
Y167681D02*
D03*
X393370Y172799D02*
D03*
Y170240D02*
D03*
Y167681D02*
D03*
X530535Y170240D02*
D03*
Y172799D02*
D03*
Y167681D02*
D03*
X523055Y172799D02*
D03*
Y170240D02*
D03*
Y167681D02*
D03*
X141480Y280114D02*
D03*
Y282673D02*
D03*
Y277555D02*
D03*
X134000Y282673D02*
D03*
Y280114D02*
D03*
Y277555D02*
D03*
X271165Y280114D02*
D03*
Y282673D02*
D03*
Y277555D02*
D03*
X263685Y282673D02*
D03*
Y280114D02*
D03*
Y277555D02*
D03*
X400850Y280114D02*
D03*
Y282673D02*
D03*
Y277555D02*
D03*
X393370Y282673D02*
D03*
Y280114D02*
D03*
Y277555D02*
D03*
X530535Y280114D02*
D03*
Y282673D02*
D03*
Y277555D02*
D03*
X523055Y282673D02*
D03*
Y280114D02*
D03*
Y277555D02*
D03*
X141480Y389988D02*
D03*
Y392547D02*
D03*
Y387429D02*
D03*
X134000Y392547D02*
D03*
Y389988D02*
D03*
Y387429D02*
D03*
X271165Y389988D02*
D03*
Y392547D02*
D03*
Y387429D02*
D03*
X263685Y392547D02*
D03*
Y389988D02*
D03*
Y387429D02*
D03*
X400850Y389988D02*
D03*
Y392547D02*
D03*
Y387429D02*
D03*
X393370Y392547D02*
D03*
Y389988D02*
D03*
Y387429D02*
D03*
X530535Y389988D02*
D03*
Y392547D02*
D03*
Y387429D02*
D03*
X523055Y392547D02*
D03*
Y389988D02*
D03*
Y387429D02*
D03*
X141480Y499862D02*
D03*
Y502421D02*
D03*
Y497303D02*
D03*
X134000Y502421D02*
D03*
Y499862D02*
D03*
Y497303D02*
D03*
X271165Y499862D02*
D03*
Y502421D02*
D03*
Y497303D02*
D03*
X263685Y502421D02*
D03*
Y499862D02*
D03*
Y497303D02*
D03*
X400850Y499862D02*
D03*
Y502421D02*
D03*
Y497303D02*
D03*
X393370Y502421D02*
D03*
Y499862D02*
D03*
Y497303D02*
D03*
X530535Y499862D02*
D03*
Y502421D02*
D03*
Y497303D02*
D03*
X523055Y502421D02*
D03*
Y499862D02*
D03*
Y497303D02*
D03*
X141480Y609736D02*
D03*
Y612295D02*
D03*
Y607177D02*
D03*
X134000Y612295D02*
D03*
Y609736D02*
D03*
Y607177D02*
D03*
X271165Y609736D02*
D03*
Y612295D02*
D03*
Y607177D02*
D03*
X263685Y612295D02*
D03*
Y609736D02*
D03*
Y607177D02*
D03*
X400850Y609736D02*
D03*
Y612295D02*
D03*
Y607177D02*
D03*
X393370Y612295D02*
D03*
Y609736D02*
D03*
Y607177D02*
D03*
X530535Y609736D02*
D03*
Y612295D02*
D03*
Y607177D02*
D03*
X523055Y612295D02*
D03*
Y609736D02*
D03*
Y607177D02*
D03*
X141480Y719610D02*
D03*
Y722169D02*
D03*
Y717051D02*
D03*
X134000Y722169D02*
D03*
Y719610D02*
D03*
Y717051D02*
D03*
X271165Y719610D02*
D03*
Y722169D02*
D03*
Y717051D02*
D03*
X263685Y722169D02*
D03*
Y719610D02*
D03*
Y717051D02*
D03*
X400850Y719610D02*
D03*
Y722169D02*
D03*
Y717051D02*
D03*
X393370Y722169D02*
D03*
Y719610D02*
D03*
Y717051D02*
D03*
X530535Y719610D02*
D03*
Y722169D02*
D03*
Y717051D02*
D03*
X523055Y722169D02*
D03*
Y719610D02*
D03*
Y717051D02*
D03*
D23*
X121909Y159299D02*
D03*
Y156740D02*
D03*
Y154181D02*
D03*
X130571D02*
D03*
Y156740D02*
D03*
Y159299D02*
D03*
X251594D02*
D03*
Y156740D02*
D03*
Y154181D02*
D03*
X260256D02*
D03*
Y156740D02*
D03*
Y159299D02*
D03*
X381279D02*
D03*
Y156740D02*
D03*
Y154181D02*
D03*
X389941D02*
D03*
Y156740D02*
D03*
Y159299D02*
D03*
X510965D02*
D03*
Y156740D02*
D03*
Y154181D02*
D03*
X519626D02*
D03*
Y156740D02*
D03*
Y159299D02*
D03*
X121909Y269173D02*
D03*
Y266614D02*
D03*
Y264055D02*
D03*
X130571D02*
D03*
Y266614D02*
D03*
Y269173D02*
D03*
X251594D02*
D03*
Y266614D02*
D03*
Y264055D02*
D03*
X260256D02*
D03*
Y266614D02*
D03*
Y269173D02*
D03*
X381279D02*
D03*
Y266614D02*
D03*
Y264055D02*
D03*
X389941D02*
D03*
Y266614D02*
D03*
Y269173D02*
D03*
X510965D02*
D03*
Y266614D02*
D03*
Y264055D02*
D03*
X519626D02*
D03*
Y266614D02*
D03*
Y269173D02*
D03*
X121909Y379047D02*
D03*
Y376488D02*
D03*
Y373929D02*
D03*
X130571D02*
D03*
Y376488D02*
D03*
Y379047D02*
D03*
X251594D02*
D03*
Y376488D02*
D03*
Y373929D02*
D03*
X260256D02*
D03*
Y376488D02*
D03*
Y379047D02*
D03*
X381279D02*
D03*
Y376488D02*
D03*
Y373929D02*
D03*
X389941D02*
D03*
Y376488D02*
D03*
Y379047D02*
D03*
X510965D02*
D03*
Y376488D02*
D03*
Y373929D02*
D03*
X519626D02*
D03*
Y376488D02*
D03*
Y379047D02*
D03*
X121909Y488921D02*
D03*
Y486362D02*
D03*
Y483803D02*
D03*
X130571D02*
D03*
Y486362D02*
D03*
Y488921D02*
D03*
X251594D02*
D03*
Y486362D02*
D03*
Y483803D02*
D03*
X260256D02*
D03*
Y486362D02*
D03*
Y488921D02*
D03*
X381279D02*
D03*
Y486362D02*
D03*
Y483803D02*
D03*
X389941D02*
D03*
Y486362D02*
D03*
Y488921D02*
D03*
X510965D02*
D03*
Y486362D02*
D03*
Y483803D02*
D03*
X519626D02*
D03*
Y486362D02*
D03*
Y488921D02*
D03*
X121909Y598795D02*
D03*
Y596236D02*
D03*
Y593677D02*
D03*
X130571D02*
D03*
Y596236D02*
D03*
Y598795D02*
D03*
X251594D02*
D03*
Y596236D02*
D03*
Y593677D02*
D03*
X260256D02*
D03*
Y596236D02*
D03*
Y598795D02*
D03*
X381279D02*
D03*
Y596236D02*
D03*
Y593677D02*
D03*
X389941D02*
D03*
Y596236D02*
D03*
Y598795D02*
D03*
X510965D02*
D03*
Y596236D02*
D03*
Y593677D02*
D03*
X519626D02*
D03*
Y596236D02*
D03*
Y598795D02*
D03*
X121909Y708669D02*
D03*
Y706110D02*
D03*
Y703551D02*
D03*
X130571D02*
D03*
Y706110D02*
D03*
Y708669D02*
D03*
X251594D02*
D03*
Y706110D02*
D03*
Y703551D02*
D03*
X260256D02*
D03*
Y706110D02*
D03*
Y708669D02*
D03*
X381279D02*
D03*
Y706110D02*
D03*
Y703551D02*
D03*
X389941D02*
D03*
Y706110D02*
D03*
Y708669D02*
D03*
X510965D02*
D03*
Y706110D02*
D03*
Y703551D02*
D03*
X519626D02*
D03*
Y706110D02*
D03*
Y708669D02*
D03*
D24*
X126240Y156740D02*
D03*
X255925D02*
D03*
X385610D02*
D03*
X515295D02*
D03*
X126240Y266614D02*
D03*
X255925D02*
D03*
X385610D02*
D03*
X515295D02*
D03*
X126240Y376488D02*
D03*
X255925D02*
D03*
X385610D02*
D03*
X515295D02*
D03*
X126240Y486362D02*
D03*
X255925D02*
D03*
X385610D02*
D03*
X515295D02*
D03*
X126240Y596236D02*
D03*
X255925D02*
D03*
X385610D02*
D03*
X515295D02*
D03*
X126240Y706110D02*
D03*
X255925D02*
D03*
X385610D02*
D03*
X515295D02*
D03*
D25*
X145905Y144740D02*
D03*
X141575D02*
D03*
X275590D02*
D03*
X271260D02*
D03*
X405276D02*
D03*
X400945D02*
D03*
X534961D02*
D03*
X530630D02*
D03*
X145905Y254614D02*
D03*
X141575D02*
D03*
X275590D02*
D03*
X271260D02*
D03*
X405276D02*
D03*
X400945D02*
D03*
X534961D02*
D03*
X530630D02*
D03*
X145905Y364488D02*
D03*
X141575D02*
D03*
X275590D02*
D03*
X271260D02*
D03*
X405276D02*
D03*
X400945D02*
D03*
X534961D02*
D03*
X530630D02*
D03*
X145905Y474362D02*
D03*
X141575D02*
D03*
X275590D02*
D03*
X271260D02*
D03*
X405276D02*
D03*
X400945D02*
D03*
X534961D02*
D03*
X530630D02*
D03*
X145905Y584236D02*
D03*
X141575D02*
D03*
X275590D02*
D03*
X271260D02*
D03*
X405276D02*
D03*
X400945D02*
D03*
X534961D02*
D03*
X530630D02*
D03*
X145905Y694110D02*
D03*
X141575D02*
D03*
X275590D02*
D03*
X271260D02*
D03*
X405276D02*
D03*
X400945D02*
D03*
X534961D02*
D03*
X530630D02*
D03*
D26*
X157576Y111286D02*
D03*
Y116995D02*
D03*
X162104D02*
D03*
Y111286D02*
D03*
X287261D02*
D03*
Y116995D02*
D03*
X291789D02*
D03*
Y111286D02*
D03*
X416947D02*
D03*
Y116995D02*
D03*
X421474D02*
D03*
Y111286D02*
D03*
X546631D02*
D03*
Y116995D02*
D03*
X551159D02*
D03*
Y111286D02*
D03*
X157576Y221160D02*
D03*
Y226869D02*
D03*
X162104D02*
D03*
Y221160D02*
D03*
X287261D02*
D03*
Y226869D02*
D03*
X291789D02*
D03*
Y221160D02*
D03*
X416947D02*
D03*
Y226869D02*
D03*
X421474D02*
D03*
Y221160D02*
D03*
X546631D02*
D03*
Y226869D02*
D03*
X551159D02*
D03*
Y221160D02*
D03*
X157576Y331034D02*
D03*
Y336742D02*
D03*
X162104D02*
D03*
Y331034D02*
D03*
X287261D02*
D03*
Y336742D02*
D03*
X291789D02*
D03*
Y331034D02*
D03*
X416947D02*
D03*
Y336742D02*
D03*
X421474D02*
D03*
Y331034D02*
D03*
X546631D02*
D03*
Y336742D02*
D03*
X551159D02*
D03*
Y331034D02*
D03*
X157576Y440908D02*
D03*
Y446617D02*
D03*
X162104D02*
D03*
Y440908D02*
D03*
X287261D02*
D03*
Y446617D02*
D03*
X291789D02*
D03*
Y440908D02*
D03*
X416947D02*
D03*
Y446617D02*
D03*
X421474D02*
D03*
Y440908D02*
D03*
X546631D02*
D03*
Y446617D02*
D03*
X551159D02*
D03*
Y440908D02*
D03*
X157576Y550782D02*
D03*
Y556491D02*
D03*
X162104D02*
D03*
Y550782D02*
D03*
X287261D02*
D03*
Y556491D02*
D03*
X291789D02*
D03*
Y550782D02*
D03*
X416947D02*
D03*
Y556491D02*
D03*
X421474D02*
D03*
Y550782D02*
D03*
X546631D02*
D03*
Y556491D02*
D03*
X551159D02*
D03*
Y550782D02*
D03*
X157576Y660656D02*
D03*
Y666365D02*
D03*
X162104D02*
D03*
Y660656D02*
D03*
X287261D02*
D03*
Y666365D02*
D03*
X291789D02*
D03*
Y660656D02*
D03*
X416947D02*
D03*
Y666365D02*
D03*
X421474D02*
D03*
Y660656D02*
D03*
X546631D02*
D03*
Y666365D02*
D03*
X551159D02*
D03*
Y660656D02*
D03*
D27*
X117309Y95739D02*
D03*
Y92590D02*
D03*
Y89440D02*
D03*
Y86291D02*
D03*
Y83141D02*
D03*
X125971Y95739D02*
D03*
Y92590D02*
D03*
Y89440D02*
D03*
Y86291D02*
D03*
Y83141D02*
D03*
X246994Y95739D02*
D03*
Y92590D02*
D03*
Y89440D02*
D03*
Y86291D02*
D03*
Y83141D02*
D03*
X255656Y95739D02*
D03*
Y92590D02*
D03*
Y89440D02*
D03*
Y86291D02*
D03*
Y83141D02*
D03*
X376679Y95739D02*
D03*
Y92590D02*
D03*
Y89440D02*
D03*
Y86291D02*
D03*
Y83141D02*
D03*
X385341Y95739D02*
D03*
Y92590D02*
D03*
Y89440D02*
D03*
Y86291D02*
D03*
Y83141D02*
D03*
X506365Y95739D02*
D03*
Y92590D02*
D03*
Y89440D02*
D03*
Y86291D02*
D03*
Y83141D02*
D03*
X515026Y95739D02*
D03*
Y92590D02*
D03*
Y89440D02*
D03*
Y86291D02*
D03*
Y83141D02*
D03*
X117309Y205613D02*
D03*
Y202464D02*
D03*
Y199314D02*
D03*
Y196165D02*
D03*
Y193015D02*
D03*
X125971Y205613D02*
D03*
Y202464D02*
D03*
Y199314D02*
D03*
Y196165D02*
D03*
Y193015D02*
D03*
X246994Y205613D02*
D03*
Y202464D02*
D03*
Y199314D02*
D03*
Y196165D02*
D03*
Y193015D02*
D03*
X255656Y205613D02*
D03*
Y202464D02*
D03*
Y199314D02*
D03*
Y196165D02*
D03*
Y193015D02*
D03*
X376679Y205613D02*
D03*
Y202464D02*
D03*
Y199314D02*
D03*
Y196165D02*
D03*
Y193015D02*
D03*
X385341Y205613D02*
D03*
Y202464D02*
D03*
Y199314D02*
D03*
Y196165D02*
D03*
Y193015D02*
D03*
X506365Y205613D02*
D03*
Y202464D02*
D03*
Y199314D02*
D03*
Y196165D02*
D03*
Y193015D02*
D03*
X515026Y205613D02*
D03*
Y202464D02*
D03*
Y199314D02*
D03*
Y196165D02*
D03*
Y193015D02*
D03*
X117309Y315487D02*
D03*
Y312338D02*
D03*
Y309188D02*
D03*
Y306039D02*
D03*
Y302889D02*
D03*
X125971Y315487D02*
D03*
Y312338D02*
D03*
Y309188D02*
D03*
Y306039D02*
D03*
Y302889D02*
D03*
X246994Y315487D02*
D03*
Y312338D02*
D03*
Y309188D02*
D03*
Y306039D02*
D03*
Y302889D02*
D03*
X255656Y315487D02*
D03*
Y312338D02*
D03*
Y309188D02*
D03*
Y306039D02*
D03*
Y302889D02*
D03*
X376679Y315487D02*
D03*
Y312338D02*
D03*
Y309188D02*
D03*
Y306039D02*
D03*
Y302889D02*
D03*
X385341Y315487D02*
D03*
Y312338D02*
D03*
Y309188D02*
D03*
Y306039D02*
D03*
Y302889D02*
D03*
X506365Y315487D02*
D03*
Y312338D02*
D03*
Y309188D02*
D03*
Y306039D02*
D03*
Y302889D02*
D03*
X515026Y315487D02*
D03*
Y312338D02*
D03*
Y309188D02*
D03*
Y306039D02*
D03*
Y302889D02*
D03*
X117309Y425361D02*
D03*
Y422212D02*
D03*
Y419062D02*
D03*
Y415913D02*
D03*
Y412763D02*
D03*
X125971Y425361D02*
D03*
Y422212D02*
D03*
Y419062D02*
D03*
Y415913D02*
D03*
Y412763D02*
D03*
X246994Y425361D02*
D03*
Y422212D02*
D03*
Y419062D02*
D03*
Y415913D02*
D03*
Y412763D02*
D03*
X255656Y425361D02*
D03*
Y422212D02*
D03*
Y419062D02*
D03*
Y415913D02*
D03*
Y412763D02*
D03*
X376679Y425361D02*
D03*
Y422212D02*
D03*
Y419062D02*
D03*
Y415913D02*
D03*
Y412763D02*
D03*
X385341Y425361D02*
D03*
Y422212D02*
D03*
Y419062D02*
D03*
Y415913D02*
D03*
Y412763D02*
D03*
X506365Y425361D02*
D03*
Y422212D02*
D03*
Y419062D02*
D03*
Y415913D02*
D03*
Y412763D02*
D03*
X515026Y425361D02*
D03*
Y422212D02*
D03*
Y419062D02*
D03*
Y415913D02*
D03*
Y412763D02*
D03*
X117309Y535236D02*
D03*
Y532086D02*
D03*
Y528936D02*
D03*
Y525787D02*
D03*
Y522637D02*
D03*
X125971Y535236D02*
D03*
Y532086D02*
D03*
Y528936D02*
D03*
Y525787D02*
D03*
Y522637D02*
D03*
X246994Y535236D02*
D03*
Y532086D02*
D03*
Y528936D02*
D03*
Y525787D02*
D03*
Y522637D02*
D03*
X255656Y535236D02*
D03*
Y532086D02*
D03*
Y528936D02*
D03*
Y525787D02*
D03*
Y522637D02*
D03*
X376679Y535236D02*
D03*
Y532086D02*
D03*
Y528936D02*
D03*
Y525787D02*
D03*
Y522637D02*
D03*
X385341Y535236D02*
D03*
Y532086D02*
D03*
Y528936D02*
D03*
Y525787D02*
D03*
Y522637D02*
D03*
X506365Y535236D02*
D03*
Y532086D02*
D03*
Y528936D02*
D03*
Y525787D02*
D03*
Y522637D02*
D03*
X515026Y535236D02*
D03*
Y532086D02*
D03*
Y528936D02*
D03*
Y525787D02*
D03*
Y522637D02*
D03*
X117309Y645110D02*
D03*
Y641960D02*
D03*
Y638810D02*
D03*
Y635661D02*
D03*
Y632511D02*
D03*
X125971Y645110D02*
D03*
Y641960D02*
D03*
Y638810D02*
D03*
Y635661D02*
D03*
Y632511D02*
D03*
X246994Y645110D02*
D03*
Y641960D02*
D03*
Y638810D02*
D03*
Y635661D02*
D03*
Y632511D02*
D03*
X255656Y645110D02*
D03*
Y641960D02*
D03*
Y638810D02*
D03*
Y635661D02*
D03*
Y632511D02*
D03*
X376679Y645110D02*
D03*
Y641960D02*
D03*
Y638810D02*
D03*
Y635661D02*
D03*
Y632511D02*
D03*
X385341Y645110D02*
D03*
Y641960D02*
D03*
Y638810D02*
D03*
Y635661D02*
D03*
Y632511D02*
D03*
X506365Y645110D02*
D03*
Y641960D02*
D03*
Y638810D02*
D03*
Y635661D02*
D03*
Y632511D02*
D03*
X515026Y645110D02*
D03*
Y641960D02*
D03*
Y638810D02*
D03*
Y635661D02*
D03*
Y632511D02*
D03*
D29*
X144740Y155000D02*
D03*
X142181Y162480D02*
D03*
X147299D02*
D03*
X274425Y155000D02*
D03*
X271866Y162480D02*
D03*
X276984D02*
D03*
X404110Y155000D02*
D03*
X401551Y162480D02*
D03*
X406669D02*
D03*
X533795Y155000D02*
D03*
X531236Y162480D02*
D03*
X536354D02*
D03*
X144740Y264874D02*
D03*
X142181Y272354D02*
D03*
X147299D02*
D03*
X274425Y264874D02*
D03*
X271866Y272354D02*
D03*
X276984D02*
D03*
X404110Y264874D02*
D03*
X401551Y272354D02*
D03*
X406669D02*
D03*
X533795Y264874D02*
D03*
X531236Y272354D02*
D03*
X536354D02*
D03*
X144740Y374748D02*
D03*
X142181Y382228D02*
D03*
X147299D02*
D03*
X274425Y374748D02*
D03*
X271866Y382228D02*
D03*
X276984D02*
D03*
X404110Y374748D02*
D03*
X401551Y382228D02*
D03*
X406669D02*
D03*
X533795Y374748D02*
D03*
X531236Y382228D02*
D03*
X536354D02*
D03*
X144740Y484622D02*
D03*
X142181Y492102D02*
D03*
X147299D02*
D03*
X274425Y484622D02*
D03*
X271866Y492102D02*
D03*
X276984D02*
D03*
X404110Y484622D02*
D03*
X401551Y492102D02*
D03*
X406669D02*
D03*
X533795Y484622D02*
D03*
X531236Y492102D02*
D03*
X536354D02*
D03*
X144740Y594496D02*
D03*
X142181Y601976D02*
D03*
X147299D02*
D03*
X274425Y594496D02*
D03*
X271866Y601976D02*
D03*
X276984D02*
D03*
X404110Y594496D02*
D03*
X401551Y601976D02*
D03*
X406669D02*
D03*
X533795Y594496D02*
D03*
X531236Y601976D02*
D03*
X536354D02*
D03*
X144740Y704370D02*
D03*
X142181Y711850D02*
D03*
X147299D02*
D03*
X274425Y704370D02*
D03*
X271866Y711850D02*
D03*
X276984D02*
D03*
X404110Y704370D02*
D03*
X401551Y711850D02*
D03*
X406669D02*
D03*
X533795Y704370D02*
D03*
X531236Y711850D02*
D03*
X536354D02*
D03*
D30*
X154181Y124181D02*
D03*
X156740D02*
D03*
X159299D02*
D03*
X154181Y129299D02*
D03*
X156740D02*
D03*
X159299D02*
D03*
X283866Y124181D02*
D03*
X286425D02*
D03*
X288984D02*
D03*
X283866Y129299D02*
D03*
X286425D02*
D03*
X288984D02*
D03*
X413551Y124181D02*
D03*
X416110D02*
D03*
X418669D02*
D03*
X413551Y129299D02*
D03*
X416110D02*
D03*
X418669D02*
D03*
X543236Y124181D02*
D03*
X545795D02*
D03*
X548354D02*
D03*
X543236Y129299D02*
D03*
X545795D02*
D03*
X548354D02*
D03*
X154181Y234055D02*
D03*
X156740D02*
D03*
X159299D02*
D03*
X154181Y239173D02*
D03*
X156740D02*
D03*
X159299D02*
D03*
X283866Y234055D02*
D03*
X286425D02*
D03*
X288984D02*
D03*
X283866Y239173D02*
D03*
X286425D02*
D03*
X288984D02*
D03*
X413551Y234055D02*
D03*
X416110D02*
D03*
X418669D02*
D03*
X413551Y239173D02*
D03*
X416110D02*
D03*
X418669D02*
D03*
X543236Y234055D02*
D03*
X545795D02*
D03*
X548354D02*
D03*
X543236Y239173D02*
D03*
X545795D02*
D03*
X548354D02*
D03*
X154181Y343929D02*
D03*
X156740D02*
D03*
X159299D02*
D03*
X154181Y349047D02*
D03*
X156740D02*
D03*
X159299D02*
D03*
X283866Y343929D02*
D03*
X286425D02*
D03*
X288984D02*
D03*
X283866Y349047D02*
D03*
X286425D02*
D03*
X288984D02*
D03*
X413551Y343929D02*
D03*
X416110D02*
D03*
X418669D02*
D03*
X413551Y349047D02*
D03*
X416110D02*
D03*
X418669D02*
D03*
X543236Y343929D02*
D03*
X545795D02*
D03*
X548354D02*
D03*
X543236Y349047D02*
D03*
X545795D02*
D03*
X548354D02*
D03*
X154181Y453803D02*
D03*
X156740D02*
D03*
X159299D02*
D03*
X154181Y458921D02*
D03*
X156740D02*
D03*
X159299D02*
D03*
X283866Y453803D02*
D03*
X286425D02*
D03*
X288984D02*
D03*
X283866Y458921D02*
D03*
X286425D02*
D03*
X288984D02*
D03*
X413551Y453803D02*
D03*
X416110D02*
D03*
X418669D02*
D03*
X413551Y458921D02*
D03*
X416110D02*
D03*
X418669D02*
D03*
X543236Y453803D02*
D03*
X545795D02*
D03*
X548354D02*
D03*
X543236Y458921D02*
D03*
X545795D02*
D03*
X548354D02*
D03*
X154181Y563677D02*
D03*
X156740D02*
D03*
X159299D02*
D03*
X154181Y568795D02*
D03*
X156740D02*
D03*
X159299D02*
D03*
X283866Y563677D02*
D03*
X286425D02*
D03*
X288984D02*
D03*
X283866Y568795D02*
D03*
X286425D02*
D03*
X288984D02*
D03*
X413551Y563677D02*
D03*
X416110D02*
D03*
X418669D02*
D03*
X413551Y568795D02*
D03*
X416110D02*
D03*
X418669D02*
D03*
X543236Y563677D02*
D03*
X545795D02*
D03*
X548354D02*
D03*
X543236Y568795D02*
D03*
X545795D02*
D03*
X548354D02*
D03*
X154181Y673551D02*
D03*
X156740D02*
D03*
X159299D02*
D03*
X154181Y678669D02*
D03*
X156740D02*
D03*
X159299D02*
D03*
X283866Y673551D02*
D03*
X286425D02*
D03*
X288984D02*
D03*
X283866Y678669D02*
D03*
X286425D02*
D03*
X288984D02*
D03*
X413551Y673551D02*
D03*
X416110D02*
D03*
X418669D02*
D03*
X413551Y678669D02*
D03*
X416110D02*
D03*
X418669D02*
D03*
X543236Y673551D02*
D03*
X545795D02*
D03*
X548354D02*
D03*
X543236Y678669D02*
D03*
X545795D02*
D03*
X548354D02*
D03*
D31*
X84357Y114981D02*
D03*
X214042D02*
D03*
X343727D02*
D03*
X473412D02*
D03*
X84357Y224855D02*
D03*
X214042D02*
D03*
X343727D02*
D03*
X473412D02*
D03*
X84357Y334729D02*
D03*
X214042D02*
D03*
X343727D02*
D03*
X473412D02*
D03*
X84357Y444603D02*
D03*
X214042D02*
D03*
X343727D02*
D03*
X473412D02*
D03*
X84357Y554477D02*
D03*
X214042D02*
D03*
X343727D02*
D03*
X473412D02*
D03*
X84357Y664351D02*
D03*
X214042D02*
D03*
X343727D02*
D03*
X473412D02*
D03*
D32*
X99809Y109469D02*
D03*
X229495D02*
D03*
X359179D02*
D03*
X488865D02*
D03*
X99809Y219343D02*
D03*
X229495D02*
D03*
X359179D02*
D03*
X488865D02*
D03*
X99809Y329217D02*
D03*
X229495D02*
D03*
X359179D02*
D03*
X488865D02*
D03*
X99809Y439091D02*
D03*
X229495D02*
D03*
X359179D02*
D03*
X488865D02*
D03*
X99809Y548965D02*
D03*
X229495D02*
D03*
X359179D02*
D03*
X488865D02*
D03*
X99809Y658839D02*
D03*
X229495D02*
D03*
X359179D02*
D03*
X488865D02*
D03*
M02*
