G04 Layer_Physical_Order=3*
G04 Layer_Color=16440176*
%FSLAX25Y25*%
%MOIN*%
G70*
G01*
G75*
%ADD33C,0.00800*%
%ADD34C,0.01000*%
%ADD39C,0.01800*%
D33*
X159540Y101940D02*
Y105525D01*
X149540Y91940D02*
X159540Y101940D01*
X159327Y158240D02*
X159940D01*
X147827Y146740D02*
X159327Y158240D01*
X141640Y146740D02*
X147827D01*
X135740Y140840D02*
X141640Y146740D01*
X113540Y97040D02*
Y103840D01*
X109140Y92640D02*
X113540Y97040D01*
X109140Y89540D02*
Y92640D01*
Y108240D02*
X113540Y103840D01*
X109140Y108240D02*
Y113853D01*
X112740Y106740D02*
X123140Y96340D01*
X112740Y106740D02*
Y111540D01*
X114640Y106820D02*
X122020Y99440D01*
X114640Y106820D02*
Y109940D01*
X114727Y82340D02*
X121844Y89457D01*
X138140D01*
X94340Y153740D02*
X99440Y148640D01*
Y87940D02*
Y148640D01*
Y87940D02*
X106440Y80940D01*
X100940Y122540D02*
X104040Y125640D01*
X100940Y89553D02*
Y122540D01*
Y89553D02*
X108153Y82340D01*
X112240Y84840D02*
Y86440D01*
X109140Y89540D02*
X112240Y86440D01*
X106340Y116653D02*
Y144340D01*
Y116653D02*
X109140Y113853D01*
X122020Y99440D02*
X145040D01*
X123140Y96340D02*
X144840D01*
X122420Y101340D02*
X125340D01*
X119730Y104030D02*
X122420Y101340D01*
X119730Y104030D02*
Y110430D01*
X119040Y116953D02*
Y133684D01*
X114940Y137784D02*
X119040Y133684D01*
X114940Y137784D02*
Y154440D01*
X120740Y111440D02*
Y135040D01*
X116740Y139040D02*
X120740Y135040D01*
X118840Y80940D02*
X120740Y82840D01*
X106440Y80940D02*
X118840D01*
X159540Y105525D02*
X162195Y108179D01*
X92440Y153640D02*
X92540Y153740D01*
X94340D01*
X108153Y82340D02*
X114727D01*
X112240Y84840D02*
X112740Y84340D01*
X88940Y163840D02*
X89640D01*
X95340Y169540D01*
X120340D01*
X114740Y113940D02*
X116027D01*
X163340Y146040D02*
X164640Y147340D01*
X163340Y135721D02*
Y146040D01*
X158440Y130821D02*
X163340Y135721D01*
X158440Y120760D02*
Y130821D01*
Y120760D02*
X162195Y117005D01*
Y108179D02*
Y117005D01*
X112040Y90040D02*
X116040Y94040D01*
X185040Y167640D02*
X186740Y165940D01*
X172440Y167640D02*
X185040D01*
X157740Y152940D02*
X172440Y167640D01*
X157740Y138040D02*
Y152940D01*
X168927Y154340D02*
X169640D01*
X161940Y147353D02*
X168927Y154340D01*
X184290Y174390D02*
X185440Y175540D01*
X150140Y160440D02*
X151840Y162140D01*
X150140Y155440D02*
Y160440D01*
X114940Y154440D02*
X122040Y161540D01*
X140140Y150040D02*
X147840Y157740D01*
X149453Y174640D02*
X153440D01*
X147840Y173027D02*
X149453Y174640D01*
X147840Y157740D02*
Y173027D01*
X139040Y150040D02*
X140140D01*
X142840Y148140D02*
X150140Y155440D01*
X137540Y148140D02*
X142840D01*
X157040Y120180D02*
X160794Y116426D01*
X157040Y120180D02*
Y131401D01*
X161940Y136301D01*
Y147353D01*
X161140Y149640D02*
X161540D01*
X160540Y149040D02*
X161140Y149640D01*
X160540Y136880D02*
Y149040D01*
X155640Y131980D02*
X160540Y136880D01*
X155640Y119600D02*
Y131980D01*
Y119600D02*
X159395Y115846D01*
X159740Y151240D02*
X159840D01*
X159140Y150640D02*
X159740Y151240D01*
X159140Y137460D02*
Y150640D01*
X154240Y132560D02*
X159140Y137460D01*
X154240Y119020D02*
Y132560D01*
Y119020D02*
X157994Y115266D01*
X152840Y118440D02*
X156595Y114686D01*
X152840Y118440D02*
Y118927D01*
X152740Y119027D02*
X152840Y118927D01*
X152740Y119027D02*
Y133040D01*
X157740Y138040D01*
X148140Y103240D02*
X149240Y104340D01*
X147840Y108840D02*
X149340Y107340D01*
X121940Y107840D02*
X124440Y110340D01*
X121940Y105240D02*
Y107840D01*
X124440Y110340D02*
X148553D01*
X150153Y108740D01*
X148040Y117940D02*
X150240Y115740D01*
X148040Y117940D02*
Y128740D01*
X116027Y113940D02*
X119040Y116953D01*
X106340Y144340D02*
X110140Y148140D01*
X156595Y110499D02*
Y114686D01*
X157994Y109919D02*
Y115266D01*
X159395Y109339D02*
Y115846D01*
X160794Y108759D02*
Y116426D01*
X149240Y104340D02*
X156376D01*
X160794Y108759D01*
X148760Y105940D02*
X155996D01*
X159395Y109339D01*
X149340Y107340D02*
X155416D01*
X157994Y109919D01*
X150153Y108740D02*
X154836D01*
X156595Y110499D01*
X112740Y111540D02*
X112840Y111640D01*
X144840Y96340D02*
X147540Y99040D01*
X126240Y108840D02*
X147840D01*
X123840Y106440D02*
X126240Y108840D01*
X123840Y103240D02*
Y106440D01*
X136740Y148940D02*
Y151240D01*
Y148940D02*
X137540Y148140D01*
X125840Y105140D02*
X127840Y107140D01*
X147560D01*
X148760Y105940D01*
X138340Y138440D02*
X148040Y128740D01*
X121153Y138440D02*
X138340D01*
X119540Y140053D02*
X121153Y138440D01*
X119540Y140053D02*
Y140440D01*
X129240Y105240D02*
X133740D01*
X125340Y101340D02*
X129240Y105240D01*
X116740Y139040D02*
X116840Y139140D01*
X119730Y110430D02*
X120740Y111440D01*
X176690Y174390D02*
X184290D01*
X153140Y177740D02*
X173340D01*
X176690Y174390D01*
X120340Y169540D02*
X131840Y158040D01*
Y151040D02*
Y158040D01*
X148740Y94040D02*
X153040Y98340D01*
X116040Y94040D02*
X148740D01*
X153040Y98340D02*
Y101840D01*
X142240Y84640D02*
X149540Y91940D01*
X139053Y84640D02*
X142240D01*
X137253Y82840D02*
X139053Y84640D01*
X120740Y82840D02*
X137253D01*
X289225Y101940D02*
Y105525D01*
X279225Y91940D02*
X289225Y101940D01*
X289012Y158240D02*
X289625D01*
X277512Y146740D02*
X289012Y158240D01*
X271325Y146740D02*
X277512D01*
X265425Y140840D02*
X271325Y146740D01*
X243225Y97040D02*
Y103840D01*
X238825Y92640D02*
X243225Y97040D01*
X238825Y89540D02*
Y92640D01*
Y108240D02*
X243225Y103840D01*
X238825Y108240D02*
Y113853D01*
X242425Y106740D02*
X252825Y96340D01*
X242425Y106740D02*
Y111540D01*
X244325Y106820D02*
X251705Y99440D01*
X244325Y106820D02*
Y109940D01*
X244412Y82340D02*
X251529Y89457D01*
X267825D01*
X224025Y153740D02*
X229125Y148640D01*
Y87940D02*
Y148640D01*
Y87940D02*
X236125Y80940D01*
X230625Y122540D02*
X233725Y125640D01*
X230625Y89553D02*
Y122540D01*
Y89553D02*
X237838Y82340D01*
X241925Y84840D02*
Y86440D01*
X238825Y89540D02*
X241925Y86440D01*
X236025Y116653D02*
Y144340D01*
Y116653D02*
X238825Y113853D01*
X251705Y99440D02*
X274725D01*
X252825Y96340D02*
X274525D01*
X252105Y101340D02*
X255025D01*
X249415Y104030D02*
X252105Y101340D01*
X249415Y104030D02*
Y110430D01*
X248725Y116953D02*
Y133684D01*
X244625Y137784D02*
X248725Y133684D01*
X244625Y137784D02*
Y154440D01*
X250425Y111440D02*
Y135040D01*
X246425Y139040D02*
X250425Y135040D01*
X248525Y80940D02*
X250425Y82840D01*
X236125Y80940D02*
X248525D01*
X289225Y105525D02*
X291880Y108179D01*
X222125Y153640D02*
X222225Y153740D01*
X224025D01*
X237838Y82340D02*
X244412D01*
X241925Y84840D02*
X242425Y84340D01*
X218625Y163840D02*
X219325D01*
X225025Y169540D01*
X250025D01*
X244425Y113940D02*
X245712D01*
X293025Y146040D02*
X294325Y147340D01*
X293025Y135721D02*
Y146040D01*
X288125Y130821D02*
X293025Y135721D01*
X288125Y120760D02*
Y130821D01*
Y120760D02*
X291880Y117005D01*
Y108179D02*
Y117005D01*
X241725Y90040D02*
X245725Y94040D01*
X314725Y167640D02*
X316425Y165940D01*
X302125Y167640D02*
X314725D01*
X287425Y152940D02*
X302125Y167640D01*
X287425Y138040D02*
Y152940D01*
X298612Y154340D02*
X299325D01*
X291625Y147353D02*
X298612Y154340D01*
X313975Y174390D02*
X315125Y175540D01*
X279825Y160440D02*
X281525Y162140D01*
X279825Y155440D02*
Y160440D01*
X244625Y154440D02*
X251725Y161540D01*
X269825Y150040D02*
X277525Y157740D01*
X279138Y174640D02*
X283125D01*
X277525Y173027D02*
X279138Y174640D01*
X277525Y157740D02*
Y173027D01*
X268725Y150040D02*
X269825D01*
X272525Y148140D02*
X279825Y155440D01*
X267225Y148140D02*
X272525D01*
X286725Y120180D02*
X290479Y116426D01*
X286725Y120180D02*
Y131401D01*
X291625Y136301D01*
Y147353D01*
X290825Y149640D02*
X291225D01*
X290225Y149040D02*
X290825Y149640D01*
X290225Y136880D02*
Y149040D01*
X285325Y131980D02*
X290225Y136880D01*
X285325Y119600D02*
Y131980D01*
Y119600D02*
X289079Y115846D01*
X289425Y151240D02*
X289525D01*
X288825Y150640D02*
X289425Y151240D01*
X288825Y137460D02*
Y150640D01*
X283925Y132560D02*
X288825Y137460D01*
X283925Y119020D02*
Y132560D01*
Y119020D02*
X287680Y115266D01*
X282525Y118440D02*
X286280Y114686D01*
X282525Y118440D02*
Y118927D01*
X282425Y119027D02*
X282525Y118927D01*
X282425Y119027D02*
Y133040D01*
X287425Y138040D01*
X277825Y103240D02*
X278925Y104340D01*
X277525Y108840D02*
X279025Y107340D01*
X251625Y107840D02*
X254125Y110340D01*
X251625Y105240D02*
Y107840D01*
X254125Y110340D02*
X278238D01*
X279838Y108740D01*
X277725Y117940D02*
X279925Y115740D01*
X277725Y117940D02*
Y128740D01*
X245712Y113940D02*
X248725Y116953D01*
X236025Y144340D02*
X239825Y148140D01*
X286280Y110499D02*
Y114686D01*
X287680Y109919D02*
Y115266D01*
X289079Y109339D02*
Y115846D01*
X290479Y108759D02*
Y116426D01*
X278925Y104340D02*
X286061D01*
X290479Y108759D01*
X278445Y105940D02*
X285681D01*
X289079Y109339D01*
X279025Y107340D02*
X285101D01*
X287680Y109919D01*
X279838Y108740D02*
X284521D01*
X286280Y110499D01*
X242425Y111540D02*
X242525Y111640D01*
X274525Y96340D02*
X277225Y99040D01*
X255925Y108840D02*
X277525D01*
X253525Y106440D02*
X255925Y108840D01*
X253525Y103240D02*
Y106440D01*
X266425Y148940D02*
Y151240D01*
Y148940D02*
X267225Y148140D01*
X255525Y105140D02*
X257525Y107140D01*
X277245D01*
X278445Y105940D01*
X268025Y138440D02*
X277725Y128740D01*
X250838Y138440D02*
X268025D01*
X249225Y140053D02*
X250838Y138440D01*
X249225Y140053D02*
Y140440D01*
X258925Y105240D02*
X263425D01*
X255025Y101340D02*
X258925Y105240D01*
X246425Y139040D02*
X246525Y139140D01*
X249415Y110430D02*
X250425Y111440D01*
X306375Y174390D02*
X313975D01*
X282825Y177740D02*
X303025D01*
X306375Y174390D01*
X250025Y169540D02*
X261525Y158040D01*
Y151040D02*
Y158040D01*
X278425Y94040D02*
X282725Y98340D01*
X245725Y94040D02*
X278425D01*
X282725Y98340D02*
Y101840D01*
X271925Y84640D02*
X279225Y91940D01*
X268738Y84640D02*
X271925D01*
X266938Y82840D02*
X268738Y84640D01*
X250425Y82840D02*
X266938D01*
X418910Y101940D02*
Y105525D01*
X408910Y91940D02*
X418910Y101940D01*
X418697Y158240D02*
X419310D01*
X407197Y146740D02*
X418697Y158240D01*
X401010Y146740D02*
X407197D01*
X395110Y140840D02*
X401010Y146740D01*
X372910Y97040D02*
Y103840D01*
X368510Y92640D02*
X372910Y97040D01*
X368510Y89540D02*
Y92640D01*
Y108240D02*
X372910Y103840D01*
X368510Y108240D02*
Y113853D01*
X372110Y106740D02*
X382510Y96340D01*
X372110Y106740D02*
Y111540D01*
X374010Y106820D02*
X381390Y99440D01*
X374010Y106820D02*
Y109940D01*
X374097Y82340D02*
X381214Y89457D01*
X397510D01*
X353710Y153740D02*
X358810Y148640D01*
Y87940D02*
Y148640D01*
Y87940D02*
X365810Y80940D01*
X360310Y122540D02*
X363410Y125640D01*
X360310Y89553D02*
Y122540D01*
Y89553D02*
X367523Y82340D01*
X371610Y84840D02*
Y86440D01*
X368510Y89540D02*
X371610Y86440D01*
X365710Y116653D02*
Y144340D01*
Y116653D02*
X368510Y113853D01*
X381390Y99440D02*
X404410D01*
X382510Y96340D02*
X404210D01*
X381790Y101340D02*
X384710D01*
X379100Y104030D02*
X381790Y101340D01*
X379100Y104030D02*
Y110430D01*
X378410Y116953D02*
Y133684D01*
X374310Y137784D02*
X378410Y133684D01*
X374310Y137784D02*
Y154440D01*
X380110Y111440D02*
Y135040D01*
X376110Y139040D02*
X380110Y135040D01*
X378210Y80940D02*
X380110Y82840D01*
X365810Y80940D02*
X378210D01*
X418910Y105525D02*
X421565Y108179D01*
X351810Y153640D02*
X351910Y153740D01*
X353710D01*
X367523Y82340D02*
X374097D01*
X371610Y84840D02*
X372110Y84340D01*
X348310Y163840D02*
X349010D01*
X354710Y169540D01*
X379710D01*
X374110Y113940D02*
X375397D01*
X422710Y146040D02*
X424010Y147340D01*
X422710Y135721D02*
Y146040D01*
X417810Y130821D02*
X422710Y135721D01*
X417810Y120760D02*
Y130821D01*
Y120760D02*
X421565Y117005D01*
Y108179D02*
Y117005D01*
X371410Y90040D02*
X375410Y94040D01*
X444410Y167640D02*
X446110Y165940D01*
X431810Y167640D02*
X444410D01*
X417110Y152940D02*
X431810Y167640D01*
X417110Y138040D02*
Y152940D01*
X428297Y154340D02*
X429010D01*
X421310Y147353D02*
X428297Y154340D01*
X443660Y174390D02*
X444810Y175540D01*
X409510Y160440D02*
X411210Y162140D01*
X409510Y155440D02*
Y160440D01*
X374310Y154440D02*
X381410Y161540D01*
X399510Y150040D02*
X407210Y157740D01*
X408823Y174640D02*
X412810D01*
X407210Y173027D02*
X408823Y174640D01*
X407210Y157740D02*
Y173027D01*
X398410Y150040D02*
X399510D01*
X402210Y148140D02*
X409510Y155440D01*
X396910Y148140D02*
X402210D01*
X416410Y120180D02*
X420165Y116426D01*
X416410Y120180D02*
Y131401D01*
X421310Y136301D01*
Y147353D01*
X420510Y149640D02*
X420910D01*
X419910Y149040D02*
X420510Y149640D01*
X419910Y136880D02*
Y149040D01*
X415010Y131980D02*
X419910Y136880D01*
X415010Y119600D02*
Y131980D01*
Y119600D02*
X418765Y115846D01*
X419110Y151240D02*
X419210D01*
X418510Y150640D02*
X419110Y151240D01*
X418510Y137460D02*
Y150640D01*
X413610Y132560D02*
X418510Y137460D01*
X413610Y119020D02*
Y132560D01*
Y119020D02*
X417365Y115266D01*
X412210Y118440D02*
X415965Y114686D01*
X412210Y118440D02*
Y118927D01*
X412110Y119027D02*
X412210Y118927D01*
X412110Y119027D02*
Y133040D01*
X417110Y138040D01*
X407510Y103240D02*
X408610Y104340D01*
X407210Y108840D02*
X408710Y107340D01*
X381310Y107840D02*
X383810Y110340D01*
X381310Y105240D02*
Y107840D01*
X383810Y110340D02*
X407923D01*
X409523Y108740D01*
X407410Y117940D02*
X409610Y115740D01*
X407410Y117940D02*
Y128740D01*
X375397Y113940D02*
X378410Y116953D01*
X365710Y144340D02*
X369510Y148140D01*
X415965Y110499D02*
Y114686D01*
X417365Y109919D02*
Y115266D01*
X418765Y109339D02*
Y115846D01*
X420165Y108759D02*
Y116426D01*
X408610Y104340D02*
X415746D01*
X420165Y108759D01*
X408130Y105940D02*
X415366D01*
X418765Y109339D01*
X408710Y107340D02*
X414786D01*
X417365Y109919D01*
X409523Y108740D02*
X414206D01*
X415965Y110499D01*
X372110Y111540D02*
X372210Y111640D01*
X404210Y96340D02*
X406910Y99040D01*
X385610Y108840D02*
X407210D01*
X383210Y106440D02*
X385610Y108840D01*
X383210Y103240D02*
Y106440D01*
X396110Y148940D02*
Y151240D01*
Y148940D02*
X396910Y148140D01*
X385210Y105140D02*
X387210Y107140D01*
X406930D01*
X408130Y105940D01*
X397710Y138440D02*
X407410Y128740D01*
X380523Y138440D02*
X397710D01*
X378910Y140053D02*
X380523Y138440D01*
X378910Y140053D02*
Y140440D01*
X388610Y105240D02*
X393110D01*
X384710Y101340D02*
X388610Y105240D01*
X376110Y139040D02*
X376210Y139140D01*
X379100Y110430D02*
X380110Y111440D01*
X436060Y174390D02*
X443660D01*
X412510Y177740D02*
X432710D01*
X436060Y174390D01*
X379710Y169540D02*
X391210Y158040D01*
Y151040D02*
Y158040D01*
X408110Y94040D02*
X412410Y98340D01*
X375410Y94040D02*
X408110D01*
X412410Y98340D02*
Y101840D01*
X401610Y84640D02*
X408910Y91940D01*
X398423Y84640D02*
X401610D01*
X396623Y82840D02*
X398423Y84640D01*
X380110Y82840D02*
X396623D01*
X548595Y101940D02*
Y105525D01*
X538595Y91940D02*
X548595Y101940D01*
X548382Y158240D02*
X548995D01*
X536882Y146740D02*
X548382Y158240D01*
X530695Y146740D02*
X536882D01*
X524795Y140840D02*
X530695Y146740D01*
X502595Y97040D02*
Y103840D01*
X498195Y92640D02*
X502595Y97040D01*
X498195Y89540D02*
Y92640D01*
Y108240D02*
X502595Y103840D01*
X498195Y108240D02*
Y113853D01*
X501795Y106740D02*
X512195Y96340D01*
X501795Y106740D02*
Y111540D01*
X503695Y106820D02*
X511075Y99440D01*
X503695Y106820D02*
Y109940D01*
X503782Y82340D02*
X510899Y89457D01*
X527195D01*
X483395Y153740D02*
X488495Y148640D01*
Y87940D02*
Y148640D01*
Y87940D02*
X495495Y80940D01*
X489995Y122540D02*
X493095Y125640D01*
X489995Y89553D02*
Y122540D01*
Y89553D02*
X497208Y82340D01*
X501295Y84840D02*
Y86440D01*
X498195Y89540D02*
X501295Y86440D01*
X495395Y116653D02*
Y144340D01*
Y116653D02*
X498195Y113853D01*
X511075Y99440D02*
X534095D01*
X512195Y96340D02*
X533895D01*
X511475Y101340D02*
X514395D01*
X508785Y104030D02*
X511475Y101340D01*
X508785Y104030D02*
Y110430D01*
X508095Y116953D02*
Y133684D01*
X503995Y137784D02*
X508095Y133684D01*
X503995Y137784D02*
Y154440D01*
X509795Y111440D02*
Y135040D01*
X505795Y139040D02*
X509795Y135040D01*
X507895Y80940D02*
X509795Y82840D01*
X495495Y80940D02*
X507895D01*
X548595Y105525D02*
X551250Y108179D01*
X481495Y153640D02*
X481595Y153740D01*
X483395D01*
X497208Y82340D02*
X503782D01*
X501295Y84840D02*
X501795Y84340D01*
X477995Y163840D02*
X478695D01*
X484395Y169540D01*
X509395D01*
X503795Y113940D02*
X505082D01*
X552395Y146040D02*
X553695Y147340D01*
X552395Y135721D02*
Y146040D01*
X547495Y130821D02*
X552395Y135721D01*
X547495Y120760D02*
Y130821D01*
Y120760D02*
X551250Y117005D01*
Y108179D02*
Y117005D01*
X501095Y90040D02*
X505095Y94040D01*
X574095Y167640D02*
X575795Y165940D01*
X561495Y167640D02*
X574095D01*
X546795Y152940D02*
X561495Y167640D01*
X546795Y138040D02*
Y152940D01*
X557982Y154340D02*
X558695D01*
X550995Y147353D02*
X557982Y154340D01*
X573345Y174390D02*
X574495Y175540D01*
X539195Y160440D02*
X540895Y162140D01*
X539195Y155440D02*
Y160440D01*
X503995Y154440D02*
X511095Y161540D01*
X529195Y150040D02*
X536895Y157740D01*
X538508Y174640D02*
X542495D01*
X536895Y173027D02*
X538508Y174640D01*
X536895Y157740D02*
Y173027D01*
X528095Y150040D02*
X529195D01*
X531895Y148140D02*
X539195Y155440D01*
X526595Y148140D02*
X531895D01*
X546095Y120180D02*
X549850Y116426D01*
X546095Y120180D02*
Y131401D01*
X550995Y136301D01*
Y147353D01*
X550195Y149640D02*
X550595D01*
X549595Y149040D02*
X550195Y149640D01*
X549595Y136880D02*
Y149040D01*
X544695Y131980D02*
X549595Y136880D01*
X544695Y119600D02*
Y131980D01*
Y119600D02*
X548450Y115846D01*
X548795Y151240D02*
X548895D01*
X548195Y150640D02*
X548795Y151240D01*
X548195Y137460D02*
Y150640D01*
X543295Y132560D02*
X548195Y137460D01*
X543295Y119020D02*
Y132560D01*
Y119020D02*
X547050Y115266D01*
X541895Y118440D02*
X545650Y114686D01*
X541895Y118440D02*
Y118927D01*
X541795Y119027D02*
X541895Y118927D01*
X541795Y119027D02*
Y133040D01*
X546795Y138040D01*
X537195Y103240D02*
X538295Y104340D01*
X536895Y108840D02*
X538395Y107340D01*
X510995Y107840D02*
X513495Y110340D01*
X510995Y105240D02*
Y107840D01*
X513495Y110340D02*
X537608D01*
X539208Y108740D01*
X537095Y117940D02*
X539295Y115740D01*
X537095Y117940D02*
Y128740D01*
X505082Y113940D02*
X508095Y116953D01*
X495395Y144340D02*
X499195Y148140D01*
X545650Y110499D02*
Y114686D01*
X547050Y109919D02*
Y115266D01*
X548450Y109339D02*
Y115846D01*
X549850Y108759D02*
Y116426D01*
X538295Y104340D02*
X545431D01*
X549850Y108759D01*
X537815Y105940D02*
X545051D01*
X548450Y109339D01*
X538395Y107340D02*
X544471D01*
X547050Y109919D01*
X539208Y108740D02*
X543891D01*
X545650Y110499D01*
X501795Y111540D02*
X501895Y111640D01*
X533895Y96340D02*
X536595Y99040D01*
X515295Y108840D02*
X536895D01*
X512895Y106440D02*
X515295Y108840D01*
X512895Y103240D02*
Y106440D01*
X525795Y148940D02*
Y151240D01*
Y148940D02*
X526595Y148140D01*
X514895Y105140D02*
X516895Y107140D01*
X536615D01*
X537815Y105940D01*
X527395Y138440D02*
X537095Y128740D01*
X510208Y138440D02*
X527395D01*
X508595Y140053D02*
X510208Y138440D01*
X508595Y140053D02*
Y140440D01*
X518295Y105240D02*
X522795D01*
X514395Y101340D02*
X518295Y105240D01*
X505795Y139040D02*
X505895Y139140D01*
X508785Y110430D02*
X509795Y111440D01*
X565745Y174390D02*
X573345D01*
X542195Y177740D02*
X562395D01*
X565745Y174390D01*
X509395Y169540D02*
X520895Y158040D01*
Y151040D02*
Y158040D01*
X537795Y94040D02*
X542095Y98340D01*
X505095Y94040D02*
X537795D01*
X542095Y98340D02*
Y101840D01*
X531295Y84640D02*
X538595Y91940D01*
X528108Y84640D02*
X531295D01*
X526308Y82840D02*
X528108Y84640D01*
X509795Y82840D02*
X526308D01*
X159540Y211814D02*
Y215399D01*
X149540Y201814D02*
X159540Y211814D01*
X159327Y268114D02*
X159940D01*
X147827Y256614D02*
X159327Y268114D01*
X141640Y256614D02*
X147827D01*
X135740Y250714D02*
X141640Y256614D01*
X113540Y206914D02*
Y213714D01*
X109140Y202514D02*
X113540Y206914D01*
X109140Y199414D02*
Y202514D01*
Y218114D02*
X113540Y213714D01*
X109140Y218114D02*
Y223727D01*
X112740Y216614D02*
X123140Y206214D01*
X112740Y216614D02*
Y221414D01*
X114640Y216694D02*
X122020Y209314D01*
X114640Y216694D02*
Y219814D01*
X114727Y192214D02*
X121844Y199331D01*
X138140D01*
X94340Y263614D02*
X99440Y258514D01*
Y197814D02*
Y258514D01*
Y197814D02*
X106440Y190814D01*
X100940Y232414D02*
X104040Y235514D01*
X100940Y199427D02*
Y232414D01*
Y199427D02*
X108153Y192214D01*
X112240Y194714D02*
Y196314D01*
X109140Y199414D02*
X112240Y196314D01*
X106340Y226527D02*
Y254214D01*
Y226527D02*
X109140Y223727D01*
X122020Y209314D02*
X145040D01*
X123140Y206214D02*
X144840D01*
X122420Y211214D02*
X125340D01*
X119730Y213904D02*
X122420Y211214D01*
X119730Y213904D02*
Y220304D01*
X119040Y226827D02*
Y243558D01*
X114940Y247658D02*
X119040Y243558D01*
X114940Y247658D02*
Y264314D01*
X120740Y221314D02*
Y244914D01*
X116740Y248914D02*
X120740Y244914D01*
X118840Y190814D02*
X120740Y192714D01*
X106440Y190814D02*
X118840D01*
X159540Y215399D02*
X162195Y218053D01*
X92440Y263514D02*
X92540Y263614D01*
X94340D01*
X108153Y192214D02*
X114727D01*
X112240Y194714D02*
X112740Y194214D01*
X88940Y273714D02*
X89640D01*
X95340Y279414D01*
X120340D01*
X114740Y223814D02*
X116027D01*
X163340Y255914D02*
X164640Y257214D01*
X163340Y245595D02*
Y255914D01*
X158440Y240695D02*
X163340Y245595D01*
X158440Y230634D02*
Y240695D01*
Y230634D02*
X162195Y226879D01*
Y218053D02*
Y226879D01*
X112040Y199914D02*
X116040Y203914D01*
X185040Y277514D02*
X186740Y275814D01*
X172440Y277514D02*
X185040D01*
X157740Y262814D02*
X172440Y277514D01*
X157740Y247914D02*
Y262814D01*
X168927Y264214D02*
X169640D01*
X161940Y257227D02*
X168927Y264214D01*
X184290Y284264D02*
X185440Y285414D01*
X150140Y270314D02*
X151840Y272014D01*
X150140Y265314D02*
Y270314D01*
X114940Y264314D02*
X122040Y271414D01*
X140140Y259914D02*
X147840Y267614D01*
X149453Y284514D02*
X153440D01*
X147840Y282901D02*
X149453Y284514D01*
X147840Y267614D02*
Y282901D01*
X139040Y259914D02*
X140140D01*
X142840Y258014D02*
X150140Y265314D01*
X137540Y258014D02*
X142840D01*
X157040Y230054D02*
X160794Y226300D01*
X157040Y230054D02*
Y241274D01*
X161940Y246175D01*
Y257227D01*
X161140Y259514D02*
X161540D01*
X160540Y258914D02*
X161140Y259514D01*
X160540Y246754D02*
Y258914D01*
X155640Y241854D02*
X160540Y246754D01*
X155640Y229474D02*
Y241854D01*
Y229474D02*
X159395Y225720D01*
X159740Y261114D02*
X159840D01*
X159140Y260514D02*
X159740Y261114D01*
X159140Y247334D02*
Y260514D01*
X154240Y242434D02*
X159140Y247334D01*
X154240Y228894D02*
Y242434D01*
Y228894D02*
X157994Y225140D01*
X152840Y228314D02*
X156595Y224560D01*
X152840Y228314D02*
Y228801D01*
X152740Y228901D02*
X152840Y228801D01*
X152740Y228901D02*
Y242914D01*
X157740Y247914D01*
X148140Y213114D02*
X149240Y214214D01*
X147840Y218714D02*
X149340Y217214D01*
X121940Y217714D02*
X124440Y220214D01*
X121940Y215114D02*
Y217714D01*
X124440Y220214D02*
X148553D01*
X150153Y218614D01*
X148040Y227814D02*
X150240Y225614D01*
X148040Y227814D02*
Y238614D01*
X116027Y223814D02*
X119040Y226827D01*
X106340Y254214D02*
X110140Y258014D01*
X156595Y220373D02*
Y224560D01*
X157994Y219793D02*
Y225140D01*
X159395Y219213D02*
Y225720D01*
X160794Y218633D02*
Y226300D01*
X149240Y214214D02*
X156376D01*
X160794Y218633D01*
X148760Y215814D02*
X155996D01*
X159395Y219213D01*
X149340Y217214D02*
X155416D01*
X157994Y219793D01*
X150153Y218614D02*
X154836D01*
X156595Y220373D01*
X112740Y221414D02*
X112840Y221514D01*
X144840Y206214D02*
X147540Y208914D01*
X126240Y218714D02*
X147840D01*
X123840Y216314D02*
X126240Y218714D01*
X123840Y213114D02*
Y216314D01*
X136740Y258814D02*
Y261114D01*
Y258814D02*
X137540Y258014D01*
X125840Y215014D02*
X127840Y217014D01*
X147560D01*
X148760Y215814D01*
X138340Y248314D02*
X148040Y238614D01*
X121153Y248314D02*
X138340D01*
X119540Y249927D02*
X121153Y248314D01*
X119540Y249927D02*
Y250314D01*
X129240Y215114D02*
X133740D01*
X125340Y211214D02*
X129240Y215114D01*
X116740Y248914D02*
X116840Y249014D01*
X119730Y220304D02*
X120740Y221314D01*
X176690Y284264D02*
X184290D01*
X153140Y287614D02*
X173340D01*
X176690Y284264D01*
X120340Y279414D02*
X131840Y267914D01*
Y260914D02*
Y267914D01*
X148740Y203914D02*
X153040Y208214D01*
X116040Y203914D02*
X148740D01*
X153040Y208214D02*
Y211714D01*
X142240Y194514D02*
X149540Y201814D01*
X139053Y194514D02*
X142240D01*
X137253Y192714D02*
X139053Y194514D01*
X120740Y192714D02*
X137253D01*
X289225Y211814D02*
Y215399D01*
X279225Y201814D02*
X289225Y211814D01*
X289012Y268114D02*
X289625D01*
X277512Y256614D02*
X289012Y268114D01*
X271325Y256614D02*
X277512D01*
X265425Y250714D02*
X271325Y256614D01*
X243225Y206914D02*
Y213714D01*
X238825Y202514D02*
X243225Y206914D01*
X238825Y199414D02*
Y202514D01*
Y218114D02*
X243225Y213714D01*
X238825Y218114D02*
Y223727D01*
X242425Y216614D02*
X252825Y206214D01*
X242425Y216614D02*
Y221414D01*
X244325Y216694D02*
X251705Y209314D01*
X244325Y216694D02*
Y219814D01*
X244412Y192214D02*
X251529Y199331D01*
X267825D01*
X224025Y263614D02*
X229125Y258514D01*
Y197814D02*
Y258514D01*
Y197814D02*
X236125Y190814D01*
X230625Y232414D02*
X233725Y235514D01*
X230625Y199427D02*
Y232414D01*
Y199427D02*
X237838Y192214D01*
X241925Y194714D02*
Y196314D01*
X238825Y199414D02*
X241925Y196314D01*
X236025Y226527D02*
Y254214D01*
Y226527D02*
X238825Y223727D01*
X251705Y209314D02*
X274725D01*
X252825Y206214D02*
X274525D01*
X252105Y211214D02*
X255025D01*
X249415Y213904D02*
X252105Y211214D01*
X249415Y213904D02*
Y220304D01*
X248725Y226827D02*
Y243558D01*
X244625Y247658D02*
X248725Y243558D01*
X244625Y247658D02*
Y264314D01*
X250425Y221314D02*
Y244914D01*
X246425Y248914D02*
X250425Y244914D01*
X248525Y190814D02*
X250425Y192714D01*
X236125Y190814D02*
X248525D01*
X289225Y215399D02*
X291880Y218053D01*
X222125Y263514D02*
X222225Y263614D01*
X224025D01*
X237838Y192214D02*
X244412D01*
X241925Y194714D02*
X242425Y194214D01*
X218625Y273714D02*
X219325D01*
X225025Y279414D01*
X250025D01*
X244425Y223814D02*
X245712D01*
X293025Y255914D02*
X294325Y257214D01*
X293025Y245595D02*
Y255914D01*
X288125Y240695D02*
X293025Y245595D01*
X288125Y230634D02*
Y240695D01*
Y230634D02*
X291880Y226879D01*
Y218053D02*
Y226879D01*
X241725Y199914D02*
X245725Y203914D01*
X314725Y277514D02*
X316425Y275814D01*
X302125Y277514D02*
X314725D01*
X287425Y262814D02*
X302125Y277514D01*
X287425Y247914D02*
Y262814D01*
X298612Y264214D02*
X299325D01*
X291625Y257227D02*
X298612Y264214D01*
X313975Y284264D02*
X315125Y285414D01*
X279825Y270314D02*
X281525Y272014D01*
X279825Y265314D02*
Y270314D01*
X244625Y264314D02*
X251725Y271414D01*
X269825Y259914D02*
X277525Y267614D01*
X279138Y284514D02*
X283125D01*
X277525Y282901D02*
X279138Y284514D01*
X277525Y267614D02*
Y282901D01*
X268725Y259914D02*
X269825D01*
X272525Y258014D02*
X279825Y265314D01*
X267225Y258014D02*
X272525D01*
X286725Y230054D02*
X290479Y226300D01*
X286725Y230054D02*
Y241274D01*
X291625Y246175D01*
Y257227D01*
X290825Y259514D02*
X291225D01*
X290225Y258914D02*
X290825Y259514D01*
X290225Y246754D02*
Y258914D01*
X285325Y241854D02*
X290225Y246754D01*
X285325Y229474D02*
Y241854D01*
Y229474D02*
X289079Y225720D01*
X289425Y261114D02*
X289525D01*
X288825Y260514D02*
X289425Y261114D01*
X288825Y247334D02*
Y260514D01*
X283925Y242434D02*
X288825Y247334D01*
X283925Y228894D02*
Y242434D01*
Y228894D02*
X287680Y225140D01*
X282525Y228314D02*
X286280Y224560D01*
X282525Y228314D02*
Y228801D01*
X282425Y228901D02*
X282525Y228801D01*
X282425Y228901D02*
Y242914D01*
X287425Y247914D01*
X277825Y213114D02*
X278925Y214214D01*
X277525Y218714D02*
X279025Y217214D01*
X251625Y217714D02*
X254125Y220214D01*
X251625Y215114D02*
Y217714D01*
X254125Y220214D02*
X278238D01*
X279838Y218614D01*
X277725Y227814D02*
X279925Y225614D01*
X277725Y227814D02*
Y238614D01*
X245712Y223814D02*
X248725Y226827D01*
X236025Y254214D02*
X239825Y258014D01*
X286280Y220373D02*
Y224560D01*
X287680Y219793D02*
Y225140D01*
X289079Y219213D02*
Y225720D01*
X290479Y218633D02*
Y226300D01*
X278925Y214214D02*
X286061D01*
X290479Y218633D01*
X278445Y215814D02*
X285681D01*
X289079Y219213D01*
X279025Y217214D02*
X285101D01*
X287680Y219793D01*
X279838Y218614D02*
X284521D01*
X286280Y220373D01*
X242425Y221414D02*
X242525Y221514D01*
X274525Y206214D02*
X277225Y208914D01*
X255925Y218714D02*
X277525D01*
X253525Y216314D02*
X255925Y218714D01*
X253525Y213114D02*
Y216314D01*
X266425Y258814D02*
Y261114D01*
Y258814D02*
X267225Y258014D01*
X255525Y215014D02*
X257525Y217014D01*
X277245D01*
X278445Y215814D01*
X268025Y248314D02*
X277725Y238614D01*
X250838Y248314D02*
X268025D01*
X249225Y249927D02*
X250838Y248314D01*
X249225Y249927D02*
Y250314D01*
X258925Y215114D02*
X263425D01*
X255025Y211214D02*
X258925Y215114D01*
X246425Y248914D02*
X246525Y249014D01*
X249415Y220304D02*
X250425Y221314D01*
X306375Y284264D02*
X313975D01*
X282825Y287614D02*
X303025D01*
X306375Y284264D01*
X250025Y279414D02*
X261525Y267914D01*
Y260914D02*
Y267914D01*
X278425Y203914D02*
X282725Y208214D01*
X245725Y203914D02*
X278425D01*
X282725Y208214D02*
Y211714D01*
X271925Y194514D02*
X279225Y201814D01*
X268738Y194514D02*
X271925D01*
X266938Y192714D02*
X268738Y194514D01*
X250425Y192714D02*
X266938D01*
X418910Y211814D02*
Y215399D01*
X408910Y201814D02*
X418910Y211814D01*
X418697Y268114D02*
X419310D01*
X407197Y256614D02*
X418697Y268114D01*
X401010Y256614D02*
X407197D01*
X395110Y250714D02*
X401010Y256614D01*
X372910Y206914D02*
Y213714D01*
X368510Y202514D02*
X372910Y206914D01*
X368510Y199414D02*
Y202514D01*
Y218114D02*
X372910Y213714D01*
X368510Y218114D02*
Y223727D01*
X372110Y216614D02*
X382510Y206214D01*
X372110Y216614D02*
Y221414D01*
X374010Y216694D02*
X381390Y209314D01*
X374010Y216694D02*
Y219814D01*
X374097Y192214D02*
X381214Y199331D01*
X397510D01*
X353710Y263614D02*
X358810Y258514D01*
Y197814D02*
Y258514D01*
Y197814D02*
X365810Y190814D01*
X360310Y232414D02*
X363410Y235514D01*
X360310Y199427D02*
Y232414D01*
Y199427D02*
X367523Y192214D01*
X371610Y194714D02*
Y196314D01*
X368510Y199414D02*
X371610Y196314D01*
X365710Y226527D02*
Y254214D01*
Y226527D02*
X368510Y223727D01*
X381390Y209314D02*
X404410D01*
X382510Y206214D02*
X404210D01*
X381790Y211214D02*
X384710D01*
X379100Y213904D02*
X381790Y211214D01*
X379100Y213904D02*
Y220304D01*
X378410Y226827D02*
Y243558D01*
X374310Y247658D02*
X378410Y243558D01*
X374310Y247658D02*
Y264314D01*
X380110Y221314D02*
Y244914D01*
X376110Y248914D02*
X380110Y244914D01*
X378210Y190814D02*
X380110Y192714D01*
X365810Y190814D02*
X378210D01*
X418910Y215399D02*
X421565Y218053D01*
X351810Y263514D02*
X351910Y263614D01*
X353710D01*
X367523Y192214D02*
X374097D01*
X371610Y194714D02*
X372110Y194214D01*
X348310Y273714D02*
X349010D01*
X354710Y279414D01*
X379710D01*
X374110Y223814D02*
X375397D01*
X422710Y255914D02*
X424010Y257214D01*
X422710Y245595D02*
Y255914D01*
X417810Y240695D02*
X422710Y245595D01*
X417810Y230634D02*
Y240695D01*
Y230634D02*
X421565Y226879D01*
Y218053D02*
Y226879D01*
X371410Y199914D02*
X375410Y203914D01*
X444410Y277514D02*
X446110Y275814D01*
X431810Y277514D02*
X444410D01*
X417110Y262814D02*
X431810Y277514D01*
X417110Y247914D02*
Y262814D01*
X428297Y264214D02*
X429010D01*
X421310Y257227D02*
X428297Y264214D01*
X443660Y284264D02*
X444810Y285414D01*
X409510Y270314D02*
X411210Y272014D01*
X409510Y265314D02*
Y270314D01*
X374310Y264314D02*
X381410Y271414D01*
X399510Y259914D02*
X407210Y267614D01*
X408823Y284514D02*
X412810D01*
X407210Y282901D02*
X408823Y284514D01*
X407210Y267614D02*
Y282901D01*
X398410Y259914D02*
X399510D01*
X402210Y258014D02*
X409510Y265314D01*
X396910Y258014D02*
X402210D01*
X416410Y230054D02*
X420165Y226300D01*
X416410Y230054D02*
Y241274D01*
X421310Y246175D01*
Y257227D01*
X420510Y259514D02*
X420910D01*
X419910Y258914D02*
X420510Y259514D01*
X419910Y246754D02*
Y258914D01*
X415010Y241854D02*
X419910Y246754D01*
X415010Y229474D02*
Y241854D01*
Y229474D02*
X418765Y225720D01*
X419110Y261114D02*
X419210D01*
X418510Y260514D02*
X419110Y261114D01*
X418510Y247334D02*
Y260514D01*
X413610Y242434D02*
X418510Y247334D01*
X413610Y228894D02*
Y242434D01*
Y228894D02*
X417365Y225140D01*
X412210Y228314D02*
X415965Y224560D01*
X412210Y228314D02*
Y228801D01*
X412110Y228901D02*
X412210Y228801D01*
X412110Y228901D02*
Y242914D01*
X417110Y247914D01*
X407510Y213114D02*
X408610Y214214D01*
X407210Y218714D02*
X408710Y217214D01*
X381310Y217714D02*
X383810Y220214D01*
X381310Y215114D02*
Y217714D01*
X383810Y220214D02*
X407923D01*
X409523Y218614D01*
X407410Y227814D02*
X409610Y225614D01*
X407410Y227814D02*
Y238614D01*
X375397Y223814D02*
X378410Y226827D01*
X365710Y254214D02*
X369510Y258014D01*
X415965Y220373D02*
Y224560D01*
X417365Y219793D02*
Y225140D01*
X418765Y219213D02*
Y225720D01*
X420165Y218633D02*
Y226300D01*
X408610Y214214D02*
X415746D01*
X420165Y218633D01*
X408130Y215814D02*
X415366D01*
X418765Y219213D01*
X408710Y217214D02*
X414786D01*
X417365Y219793D01*
X409523Y218614D02*
X414206D01*
X415965Y220373D01*
X372110Y221414D02*
X372210Y221514D01*
X404210Y206214D02*
X406910Y208914D01*
X385610Y218714D02*
X407210D01*
X383210Y216314D02*
X385610Y218714D01*
X383210Y213114D02*
Y216314D01*
X396110Y258814D02*
Y261114D01*
Y258814D02*
X396910Y258014D01*
X385210Y215014D02*
X387210Y217014D01*
X406930D01*
X408130Y215814D01*
X397710Y248314D02*
X407410Y238614D01*
X380523Y248314D02*
X397710D01*
X378910Y249927D02*
X380523Y248314D01*
X378910Y249927D02*
Y250314D01*
X388610Y215114D02*
X393110D01*
X384710Y211214D02*
X388610Y215114D01*
X376110Y248914D02*
X376210Y249014D01*
X379100Y220304D02*
X380110Y221314D01*
X436060Y284264D02*
X443660D01*
X412510Y287614D02*
X432710D01*
X436060Y284264D01*
X379710Y279414D02*
X391210Y267914D01*
Y260914D02*
Y267914D01*
X408110Y203914D02*
X412410Y208214D01*
X375410Y203914D02*
X408110D01*
X412410Y208214D02*
Y211714D01*
X401610Y194514D02*
X408910Y201814D01*
X398423Y194514D02*
X401610D01*
X396623Y192714D02*
X398423Y194514D01*
X380110Y192714D02*
X396623D01*
X548595Y211814D02*
Y215399D01*
X538595Y201814D02*
X548595Y211814D01*
X548382Y268114D02*
X548995D01*
X536882Y256614D02*
X548382Y268114D01*
X530695Y256614D02*
X536882D01*
X524795Y250714D02*
X530695Y256614D01*
X502595Y206914D02*
Y213714D01*
X498195Y202514D02*
X502595Y206914D01*
X498195Y199414D02*
Y202514D01*
Y218114D02*
X502595Y213714D01*
X498195Y218114D02*
Y223727D01*
X501795Y216614D02*
X512195Y206214D01*
X501795Y216614D02*
Y221414D01*
X503695Y216694D02*
X511075Y209314D01*
X503695Y216694D02*
Y219814D01*
X503782Y192214D02*
X510899Y199331D01*
X527195D01*
X483395Y263614D02*
X488495Y258514D01*
Y197814D02*
Y258514D01*
Y197814D02*
X495495Y190814D01*
X489995Y232414D02*
X493095Y235514D01*
X489995Y199427D02*
Y232414D01*
Y199427D02*
X497208Y192214D01*
X501295Y194714D02*
Y196314D01*
X498195Y199414D02*
X501295Y196314D01*
X495395Y226527D02*
Y254214D01*
Y226527D02*
X498195Y223727D01*
X511075Y209314D02*
X534095D01*
X512195Y206214D02*
X533895D01*
X511475Y211214D02*
X514395D01*
X508785Y213904D02*
X511475Y211214D01*
X508785Y213904D02*
Y220304D01*
X508095Y226827D02*
Y243558D01*
X503995Y247658D02*
X508095Y243558D01*
X503995Y247658D02*
Y264314D01*
X509795Y221314D02*
Y244914D01*
X505795Y248914D02*
X509795Y244914D01*
X507895Y190814D02*
X509795Y192714D01*
X495495Y190814D02*
X507895D01*
X548595Y215399D02*
X551250Y218053D01*
X481495Y263514D02*
X481595Y263614D01*
X483395D01*
X497208Y192214D02*
X503782D01*
X501295Y194714D02*
X501795Y194214D01*
X477995Y273714D02*
X478695D01*
X484395Y279414D01*
X509395D01*
X503795Y223814D02*
X505082D01*
X552395Y255914D02*
X553695Y257214D01*
X552395Y245595D02*
Y255914D01*
X547495Y240695D02*
X552395Y245595D01*
X547495Y230634D02*
Y240695D01*
Y230634D02*
X551250Y226879D01*
Y218053D02*
Y226879D01*
X501095Y199914D02*
X505095Y203914D01*
X574095Y277514D02*
X575795Y275814D01*
X561495Y277514D02*
X574095D01*
X546795Y262814D02*
X561495Y277514D01*
X546795Y247914D02*
Y262814D01*
X557982Y264214D02*
X558695D01*
X550995Y257227D02*
X557982Y264214D01*
X573345Y284264D02*
X574495Y285414D01*
X539195Y270314D02*
X540895Y272014D01*
X539195Y265314D02*
Y270314D01*
X503995Y264314D02*
X511095Y271414D01*
X529195Y259914D02*
X536895Y267614D01*
X538508Y284514D02*
X542495D01*
X536895Y282901D02*
X538508Y284514D01*
X536895Y267614D02*
Y282901D01*
X528095Y259914D02*
X529195D01*
X531895Y258014D02*
X539195Y265314D01*
X526595Y258014D02*
X531895D01*
X546095Y230054D02*
X549850Y226300D01*
X546095Y230054D02*
Y241274D01*
X550995Y246175D01*
Y257227D01*
X550195Y259514D02*
X550595D01*
X549595Y258914D02*
X550195Y259514D01*
X549595Y246754D02*
Y258914D01*
X544695Y241854D02*
X549595Y246754D01*
X544695Y229474D02*
Y241854D01*
Y229474D02*
X548450Y225720D01*
X548795Y261114D02*
X548895D01*
X548195Y260514D02*
X548795Y261114D01*
X548195Y247334D02*
Y260514D01*
X543295Y242434D02*
X548195Y247334D01*
X543295Y228894D02*
Y242434D01*
Y228894D02*
X547050Y225140D01*
X541895Y228314D02*
X545650Y224560D01*
X541895Y228314D02*
Y228801D01*
X541795Y228901D02*
X541895Y228801D01*
X541795Y228901D02*
Y242914D01*
X546795Y247914D01*
X537195Y213114D02*
X538295Y214214D01*
X536895Y218714D02*
X538395Y217214D01*
X510995Y217714D02*
X513495Y220214D01*
X510995Y215114D02*
Y217714D01*
X513495Y220214D02*
X537608D01*
X539208Y218614D01*
X537095Y227814D02*
X539295Y225614D01*
X537095Y227814D02*
Y238614D01*
X505082Y223814D02*
X508095Y226827D01*
X495395Y254214D02*
X499195Y258014D01*
X545650Y220373D02*
Y224560D01*
X547050Y219793D02*
Y225140D01*
X548450Y219213D02*
Y225720D01*
X549850Y218633D02*
Y226300D01*
X538295Y214214D02*
X545431D01*
X549850Y218633D01*
X537815Y215814D02*
X545051D01*
X548450Y219213D01*
X538395Y217214D02*
X544471D01*
X547050Y219793D01*
X539208Y218614D02*
X543891D01*
X545650Y220373D01*
X501795Y221414D02*
X501895Y221514D01*
X533895Y206214D02*
X536595Y208914D01*
X515295Y218714D02*
X536895D01*
X512895Y216314D02*
X515295Y218714D01*
X512895Y213114D02*
Y216314D01*
X525795Y258814D02*
Y261114D01*
Y258814D02*
X526595Y258014D01*
X514895Y215014D02*
X516895Y217014D01*
X536615D01*
X537815Y215814D01*
X527395Y248314D02*
X537095Y238614D01*
X510208Y248314D02*
X527395D01*
X508595Y249927D02*
X510208Y248314D01*
X508595Y249927D02*
Y250314D01*
X518295Y215114D02*
X522795D01*
X514395Y211214D02*
X518295Y215114D01*
X505795Y248914D02*
X505895Y249014D01*
X508785Y220304D02*
X509795Y221314D01*
X565745Y284264D02*
X573345D01*
X542195Y287614D02*
X562395D01*
X565745Y284264D01*
X509395Y279414D02*
X520895Y267914D01*
Y260914D02*
Y267914D01*
X537795Y203914D02*
X542095Y208214D01*
X505095Y203914D02*
X537795D01*
X542095Y208214D02*
Y211714D01*
X531295Y194514D02*
X538595Y201814D01*
X528108Y194514D02*
X531295D01*
X526308Y192714D02*
X528108Y194514D01*
X509795Y192714D02*
X526308D01*
X159540Y321688D02*
Y325273D01*
X149540Y311688D02*
X159540Y321688D01*
X159327Y377988D02*
X159940D01*
X147827Y366488D02*
X159327Y377988D01*
X141640Y366488D02*
X147827D01*
X135740Y360588D02*
X141640Y366488D01*
X113540Y316788D02*
Y323588D01*
X109140Y312388D02*
X113540Y316788D01*
X109140Y309288D02*
Y312388D01*
Y327988D02*
X113540Y323588D01*
X109140Y327988D02*
Y333601D01*
X112740Y326488D02*
X123140Y316088D01*
X112740Y326488D02*
Y331288D01*
X114640Y326568D02*
X122020Y319188D01*
X114640Y326568D02*
Y329688D01*
X114727Y302088D02*
X121844Y309205D01*
X138140D01*
X94340Y373488D02*
X99440Y368388D01*
Y307688D02*
Y368388D01*
Y307688D02*
X106440Y300688D01*
X100940Y342288D02*
X104040Y345388D01*
X100940Y309301D02*
Y342288D01*
Y309301D02*
X108153Y302088D01*
X112240Y304588D02*
Y306188D01*
X109140Y309288D02*
X112240Y306188D01*
X106340Y336401D02*
Y364088D01*
Y336401D02*
X109140Y333601D01*
X122020Y319188D02*
X145040D01*
X123140Y316088D02*
X144840D01*
X122420Y321088D02*
X125340D01*
X119730Y323778D02*
X122420Y321088D01*
X119730Y323778D02*
Y330178D01*
X119040Y336701D02*
Y353432D01*
X114940Y357532D02*
X119040Y353432D01*
X114940Y357532D02*
Y374188D01*
X120740Y331188D02*
Y354788D01*
X116740Y358788D02*
X120740Y354788D01*
X118840Y300688D02*
X120740Y302588D01*
X106440Y300688D02*
X118840D01*
X159540Y325273D02*
X162195Y327927D01*
X92440Y373388D02*
X92540Y373488D01*
X94340D01*
X108153Y302088D02*
X114727D01*
X112240Y304588D02*
X112740Y304088D01*
X88940Y383588D02*
X89640D01*
X95340Y389288D01*
X120340D01*
X114740Y333688D02*
X116027D01*
X163340Y365788D02*
X164640Y367088D01*
X163340Y355469D02*
Y365788D01*
X158440Y350569D02*
X163340Y355469D01*
X158440Y340508D02*
Y350569D01*
Y340508D02*
X162195Y336753D01*
Y327927D02*
Y336753D01*
X112040Y309788D02*
X116040Y313788D01*
X185040Y387388D02*
X186740Y385688D01*
X172440Y387388D02*
X185040D01*
X157740Y372688D02*
X172440Y387388D01*
X157740Y357788D02*
Y372688D01*
X168927Y374088D02*
X169640D01*
X161940Y367101D02*
X168927Y374088D01*
X184290Y394138D02*
X185440Y395288D01*
X150140Y380188D02*
X151840Y381888D01*
X150140Y375188D02*
Y380188D01*
X114940Y374188D02*
X122040Y381288D01*
X140140Y369788D02*
X147840Y377488D01*
X149453Y394388D02*
X153440D01*
X147840Y392775D02*
X149453Y394388D01*
X147840Y377488D02*
Y392775D01*
X139040Y369788D02*
X140140D01*
X142840Y367888D02*
X150140Y375188D01*
X137540Y367888D02*
X142840D01*
X157040Y339928D02*
X160794Y336174D01*
X157040Y339928D02*
Y351149D01*
X161940Y356048D01*
Y367101D01*
X161140Y369388D02*
X161540D01*
X160540Y368788D02*
X161140Y369388D01*
X160540Y356628D02*
Y368788D01*
X155640Y351728D02*
X160540Y356628D01*
X155640Y339348D02*
Y351728D01*
Y339348D02*
X159395Y335594D01*
X159740Y370988D02*
X159840D01*
X159140Y370388D02*
X159740Y370988D01*
X159140Y357208D02*
Y370388D01*
X154240Y352308D02*
X159140Y357208D01*
X154240Y338768D02*
Y352308D01*
Y338768D02*
X157994Y335014D01*
X152840Y338188D02*
X156595Y334434D01*
X152840Y338188D02*
Y338675D01*
X152740Y338775D02*
X152840Y338675D01*
X152740Y338775D02*
Y352788D01*
X157740Y357788D01*
X148140Y322988D02*
X149240Y324088D01*
X147840Y328588D02*
X149340Y327088D01*
X121940Y327588D02*
X124440Y330088D01*
X121940Y324988D02*
Y327588D01*
X124440Y330088D02*
X148553D01*
X150153Y328488D01*
X148040Y337688D02*
X150240Y335488D01*
X148040Y337688D02*
Y348488D01*
X116027Y333688D02*
X119040Y336701D01*
X106340Y364088D02*
X110140Y367888D01*
X156595Y330247D02*
Y334434D01*
X157994Y329667D02*
Y335014D01*
X159395Y329087D02*
Y335594D01*
X160794Y328507D02*
Y336174D01*
X149240Y324088D02*
X156376D01*
X160794Y328507D01*
X148760Y325688D02*
X155996D01*
X159395Y329087D01*
X149340Y327088D02*
X155416D01*
X157994Y329667D01*
X150153Y328488D02*
X154836D01*
X156595Y330247D01*
X112740Y331288D02*
X112840Y331388D01*
X144840Y316088D02*
X147540Y318788D01*
X126240Y328588D02*
X147840D01*
X123840Y326188D02*
X126240Y328588D01*
X123840Y322988D02*
Y326188D01*
X136740Y368688D02*
Y370988D01*
Y368688D02*
X137540Y367888D01*
X125840Y324888D02*
X127840Y326888D01*
X147560D01*
X148760Y325688D01*
X138340Y358188D02*
X148040Y348488D01*
X121153Y358188D02*
X138340D01*
X119540Y359801D02*
X121153Y358188D01*
X119540Y359801D02*
Y360188D01*
X129240Y324988D02*
X133740D01*
X125340Y321088D02*
X129240Y324988D01*
X116740Y358788D02*
X116840Y358888D01*
X119730Y330178D02*
X120740Y331188D01*
X176690Y394138D02*
X184290D01*
X153140Y397488D02*
X173340D01*
X176690Y394138D01*
X120340Y389288D02*
X131840Y377788D01*
Y370788D02*
Y377788D01*
X148740Y313788D02*
X153040Y318088D01*
X116040Y313788D02*
X148740D01*
X153040Y318088D02*
Y321588D01*
X142240Y304388D02*
X149540Y311688D01*
X139053Y304388D02*
X142240D01*
X137253Y302588D02*
X139053Y304388D01*
X120740Y302588D02*
X137253D01*
X289225Y321688D02*
Y325273D01*
X279225Y311688D02*
X289225Y321688D01*
X289012Y377988D02*
X289625D01*
X277512Y366488D02*
X289012Y377988D01*
X271325Y366488D02*
X277512D01*
X265425Y360588D02*
X271325Y366488D01*
X243225Y316788D02*
Y323588D01*
X238825Y312388D02*
X243225Y316788D01*
X238825Y309288D02*
Y312388D01*
Y327988D02*
X243225Y323588D01*
X238825Y327988D02*
Y333601D01*
X242425Y326488D02*
X252825Y316088D01*
X242425Y326488D02*
Y331288D01*
X244325Y326568D02*
X251705Y319188D01*
X244325Y326568D02*
Y329688D01*
X244412Y302088D02*
X251529Y309205D01*
X267825D01*
X224025Y373488D02*
X229125Y368388D01*
Y307688D02*
Y368388D01*
Y307688D02*
X236125Y300688D01*
X230625Y342288D02*
X233725Y345388D01*
X230625Y309301D02*
Y342288D01*
Y309301D02*
X237838Y302088D01*
X241925Y304588D02*
Y306188D01*
X238825Y309288D02*
X241925Y306188D01*
X236025Y336401D02*
Y364088D01*
Y336401D02*
X238825Y333601D01*
X251705Y319188D02*
X274725D01*
X252825Y316088D02*
X274525D01*
X252105Y321088D02*
X255025D01*
X249415Y323778D02*
X252105Y321088D01*
X249415Y323778D02*
Y330178D01*
X248725Y336701D02*
Y353432D01*
X244625Y357532D02*
X248725Y353432D01*
X244625Y357532D02*
Y374188D01*
X250425Y331188D02*
Y354788D01*
X246425Y358788D02*
X250425Y354788D01*
X248525Y300688D02*
X250425Y302588D01*
X236125Y300688D02*
X248525D01*
X289225Y325273D02*
X291880Y327927D01*
X222125Y373388D02*
X222225Y373488D01*
X224025D01*
X237838Y302088D02*
X244412D01*
X241925Y304588D02*
X242425Y304088D01*
X218625Y383588D02*
X219325D01*
X225025Y389288D01*
X250025D01*
X244425Y333688D02*
X245712D01*
X293025Y365788D02*
X294325Y367088D01*
X293025Y355469D02*
Y365788D01*
X288125Y350569D02*
X293025Y355469D01*
X288125Y340508D02*
Y350569D01*
Y340508D02*
X291880Y336753D01*
Y327927D02*
Y336753D01*
X241725Y309788D02*
X245725Y313788D01*
X314725Y387388D02*
X316425Y385688D01*
X302125Y387388D02*
X314725D01*
X287425Y372688D02*
X302125Y387388D01*
X287425Y357788D02*
Y372688D01*
X298612Y374088D02*
X299325D01*
X291625Y367101D02*
X298612Y374088D01*
X313975Y394138D02*
X315125Y395288D01*
X279825Y380188D02*
X281525Y381888D01*
X279825Y375188D02*
Y380188D01*
X244625Y374188D02*
X251725Y381288D01*
X269825Y369788D02*
X277525Y377488D01*
X279138Y394388D02*
X283125D01*
X277525Y392775D02*
X279138Y394388D01*
X277525Y377488D02*
Y392775D01*
X268725Y369788D02*
X269825D01*
X272525Y367888D02*
X279825Y375188D01*
X267225Y367888D02*
X272525D01*
X286725Y339928D02*
X290479Y336174D01*
X286725Y339928D02*
Y351149D01*
X291625Y356048D01*
Y367101D01*
X290825Y369388D02*
X291225D01*
X290225Y368788D02*
X290825Y369388D01*
X290225Y356628D02*
Y368788D01*
X285325Y351728D02*
X290225Y356628D01*
X285325Y339348D02*
Y351728D01*
Y339348D02*
X289079Y335594D01*
X289425Y370988D02*
X289525D01*
X288825Y370388D02*
X289425Y370988D01*
X288825Y357208D02*
Y370388D01*
X283925Y352308D02*
X288825Y357208D01*
X283925Y338768D02*
Y352308D01*
Y338768D02*
X287680Y335014D01*
X282525Y338188D02*
X286280Y334434D01*
X282525Y338188D02*
Y338675D01*
X282425Y338775D02*
X282525Y338675D01*
X282425Y338775D02*
Y352788D01*
X287425Y357788D01*
X277825Y322988D02*
X278925Y324088D01*
X277525Y328588D02*
X279025Y327088D01*
X251625Y327588D02*
X254125Y330088D01*
X251625Y324988D02*
Y327588D01*
X254125Y330088D02*
X278238D01*
X279838Y328488D01*
X277725Y337688D02*
X279925Y335488D01*
X277725Y337688D02*
Y348488D01*
X245712Y333688D02*
X248725Y336701D01*
X236025Y364088D02*
X239825Y367888D01*
X286280Y330247D02*
Y334434D01*
X287680Y329667D02*
Y335014D01*
X289079Y329087D02*
Y335594D01*
X290479Y328507D02*
Y336174D01*
X278925Y324088D02*
X286061D01*
X290479Y328507D01*
X278445Y325688D02*
X285681D01*
X289079Y329087D01*
X279025Y327088D02*
X285101D01*
X287680Y329667D01*
X279838Y328488D02*
X284521D01*
X286280Y330247D01*
X242425Y331288D02*
X242525Y331388D01*
X274525Y316088D02*
X277225Y318788D01*
X255925Y328588D02*
X277525D01*
X253525Y326188D02*
X255925Y328588D01*
X253525Y322988D02*
Y326188D01*
X266425Y368688D02*
Y370988D01*
Y368688D02*
X267225Y367888D01*
X255525Y324888D02*
X257525Y326888D01*
X277245D01*
X278445Y325688D01*
X268025Y358188D02*
X277725Y348488D01*
X250838Y358188D02*
X268025D01*
X249225Y359801D02*
X250838Y358188D01*
X249225Y359801D02*
Y360188D01*
X258925Y324988D02*
X263425D01*
X255025Y321088D02*
X258925Y324988D01*
X246425Y358788D02*
X246525Y358888D01*
X249415Y330178D02*
X250425Y331188D01*
X306375Y394138D02*
X313975D01*
X282825Y397488D02*
X303025D01*
X306375Y394138D01*
X250025Y389288D02*
X261525Y377788D01*
Y370788D02*
Y377788D01*
X278425Y313788D02*
X282725Y318088D01*
X245725Y313788D02*
X278425D01*
X282725Y318088D02*
Y321588D01*
X271925Y304388D02*
X279225Y311688D01*
X268738Y304388D02*
X271925D01*
X266938Y302588D02*
X268738Y304388D01*
X250425Y302588D02*
X266938D01*
X418910Y321688D02*
Y325273D01*
X408910Y311688D02*
X418910Y321688D01*
X418697Y377988D02*
X419310D01*
X407197Y366488D02*
X418697Y377988D01*
X401010Y366488D02*
X407197D01*
X395110Y360588D02*
X401010Y366488D01*
X372910Y316788D02*
Y323588D01*
X368510Y312388D02*
X372910Y316788D01*
X368510Y309288D02*
Y312388D01*
Y327988D02*
X372910Y323588D01*
X368510Y327988D02*
Y333601D01*
X372110Y326488D02*
X382510Y316088D01*
X372110Y326488D02*
Y331288D01*
X374010Y326568D02*
X381390Y319188D01*
X374010Y326568D02*
Y329688D01*
X374097Y302088D02*
X381214Y309205D01*
X397510D01*
X353710Y373488D02*
X358810Y368388D01*
Y307688D02*
Y368388D01*
Y307688D02*
X365810Y300688D01*
X360310Y342288D02*
X363410Y345388D01*
X360310Y309301D02*
Y342288D01*
Y309301D02*
X367523Y302088D01*
X371610Y304588D02*
Y306188D01*
X368510Y309288D02*
X371610Y306188D01*
X365710Y336401D02*
Y364088D01*
Y336401D02*
X368510Y333601D01*
X381390Y319188D02*
X404410D01*
X382510Y316088D02*
X404210D01*
X381790Y321088D02*
X384710D01*
X379100Y323778D02*
X381790Y321088D01*
X379100Y323778D02*
Y330178D01*
X378410Y336701D02*
Y353432D01*
X374310Y357532D02*
X378410Y353432D01*
X374310Y357532D02*
Y374188D01*
X380110Y331188D02*
Y354788D01*
X376110Y358788D02*
X380110Y354788D01*
X378210Y300688D02*
X380110Y302588D01*
X365810Y300688D02*
X378210D01*
X418910Y325273D02*
X421565Y327927D01*
X351810Y373388D02*
X351910Y373488D01*
X353710D01*
X367523Y302088D02*
X374097D01*
X371610Y304588D02*
X372110Y304088D01*
X348310Y383588D02*
X349010D01*
X354710Y389288D01*
X379710D01*
X374110Y333688D02*
X375397D01*
X422710Y365788D02*
X424010Y367088D01*
X422710Y355469D02*
Y365788D01*
X417810Y350569D02*
X422710Y355469D01*
X417810Y340508D02*
Y350569D01*
Y340508D02*
X421565Y336753D01*
Y327927D02*
Y336753D01*
X371410Y309788D02*
X375410Y313788D01*
X444410Y387388D02*
X446110Y385688D01*
X431810Y387388D02*
X444410D01*
X417110Y372688D02*
X431810Y387388D01*
X417110Y357788D02*
Y372688D01*
X428297Y374088D02*
X429010D01*
X421310Y367101D02*
X428297Y374088D01*
X443660Y394138D02*
X444810Y395288D01*
X409510Y380188D02*
X411210Y381888D01*
X409510Y375188D02*
Y380188D01*
X374310Y374188D02*
X381410Y381288D01*
X399510Y369788D02*
X407210Y377488D01*
X408823Y394388D02*
X412810D01*
X407210Y392775D02*
X408823Y394388D01*
X407210Y377488D02*
Y392775D01*
X398410Y369788D02*
X399510D01*
X402210Y367888D02*
X409510Y375188D01*
X396910Y367888D02*
X402210D01*
X416410Y339928D02*
X420165Y336174D01*
X416410Y339928D02*
Y351149D01*
X421310Y356048D01*
Y367101D01*
X420510Y369388D02*
X420910D01*
X419910Y368788D02*
X420510Y369388D01*
X419910Y356628D02*
Y368788D01*
X415010Y351728D02*
X419910Y356628D01*
X415010Y339348D02*
Y351728D01*
Y339348D02*
X418765Y335594D01*
X419110Y370988D02*
X419210D01*
X418510Y370388D02*
X419110Y370988D01*
X418510Y357208D02*
Y370388D01*
X413610Y352308D02*
X418510Y357208D01*
X413610Y338768D02*
Y352308D01*
Y338768D02*
X417365Y335014D01*
X412210Y338188D02*
X415965Y334434D01*
X412210Y338188D02*
Y338675D01*
X412110Y338775D02*
X412210Y338675D01*
X412110Y338775D02*
Y352788D01*
X417110Y357788D01*
X407510Y322988D02*
X408610Y324088D01*
X407210Y328588D02*
X408710Y327088D01*
X381310Y327588D02*
X383810Y330088D01*
X381310Y324988D02*
Y327588D01*
X383810Y330088D02*
X407923D01*
X409523Y328488D01*
X407410Y337688D02*
X409610Y335488D01*
X407410Y337688D02*
Y348488D01*
X375397Y333688D02*
X378410Y336701D01*
X365710Y364088D02*
X369510Y367888D01*
X415965Y330247D02*
Y334434D01*
X417365Y329667D02*
Y335014D01*
X418765Y329087D02*
Y335594D01*
X420165Y328507D02*
Y336174D01*
X408610Y324088D02*
X415746D01*
X420165Y328507D01*
X408130Y325688D02*
X415366D01*
X418765Y329087D01*
X408710Y327088D02*
X414786D01*
X417365Y329667D01*
X409523Y328488D02*
X414206D01*
X415965Y330247D01*
X372110Y331288D02*
X372210Y331388D01*
X404210Y316088D02*
X406910Y318788D01*
X385610Y328588D02*
X407210D01*
X383210Y326188D02*
X385610Y328588D01*
X383210Y322988D02*
Y326188D01*
X396110Y368688D02*
Y370988D01*
Y368688D02*
X396910Y367888D01*
X385210Y324888D02*
X387210Y326888D01*
X406930D01*
X408130Y325688D01*
X397710Y358188D02*
X407410Y348488D01*
X380523Y358188D02*
X397710D01*
X378910Y359801D02*
X380523Y358188D01*
X378910Y359801D02*
Y360188D01*
X388610Y324988D02*
X393110D01*
X384710Y321088D02*
X388610Y324988D01*
X376110Y358788D02*
X376210Y358888D01*
X379100Y330178D02*
X380110Y331188D01*
X436060Y394138D02*
X443660D01*
X412510Y397488D02*
X432710D01*
X436060Y394138D01*
X379710Y389288D02*
X391210Y377788D01*
Y370788D02*
Y377788D01*
X408110Y313788D02*
X412410Y318088D01*
X375410Y313788D02*
X408110D01*
X412410Y318088D02*
Y321588D01*
X401610Y304388D02*
X408910Y311688D01*
X398423Y304388D02*
X401610D01*
X396623Y302588D02*
X398423Y304388D01*
X380110Y302588D02*
X396623D01*
X548595Y321688D02*
Y325273D01*
X538595Y311688D02*
X548595Y321688D01*
X548382Y377988D02*
X548995D01*
X536882Y366488D02*
X548382Y377988D01*
X530695Y366488D02*
X536882D01*
X524795Y360588D02*
X530695Y366488D01*
X502595Y316788D02*
Y323588D01*
X498195Y312388D02*
X502595Y316788D01*
X498195Y309288D02*
Y312388D01*
Y327988D02*
X502595Y323588D01*
X498195Y327988D02*
Y333601D01*
X501795Y326488D02*
X512195Y316088D01*
X501795Y326488D02*
Y331288D01*
X503695Y326568D02*
X511075Y319188D01*
X503695Y326568D02*
Y329688D01*
X503782Y302088D02*
X510899Y309205D01*
X527195D01*
X483395Y373488D02*
X488495Y368388D01*
Y307688D02*
Y368388D01*
Y307688D02*
X495495Y300688D01*
X489995Y342288D02*
X493095Y345388D01*
X489995Y309301D02*
Y342288D01*
Y309301D02*
X497208Y302088D01*
X501295Y304588D02*
Y306188D01*
X498195Y309288D02*
X501295Y306188D01*
X495395Y336401D02*
Y364088D01*
Y336401D02*
X498195Y333601D01*
X511075Y319188D02*
X534095D01*
X512195Y316088D02*
X533895D01*
X511475Y321088D02*
X514395D01*
X508785Y323778D02*
X511475Y321088D01*
X508785Y323778D02*
Y330178D01*
X508095Y336701D02*
Y353432D01*
X503995Y357532D02*
X508095Y353432D01*
X503995Y357532D02*
Y374188D01*
X509795Y331188D02*
Y354788D01*
X505795Y358788D02*
X509795Y354788D01*
X507895Y300688D02*
X509795Y302588D01*
X495495Y300688D02*
X507895D01*
X548595Y325273D02*
X551250Y327927D01*
X481495Y373388D02*
X481595Y373488D01*
X483395D01*
X497208Y302088D02*
X503782D01*
X501295Y304588D02*
X501795Y304088D01*
X477995Y383588D02*
X478695D01*
X484395Y389288D01*
X509395D01*
X503795Y333688D02*
X505082D01*
X552395Y365788D02*
X553695Y367088D01*
X552395Y355469D02*
Y365788D01*
X547495Y350569D02*
X552395Y355469D01*
X547495Y340508D02*
Y350569D01*
Y340508D02*
X551250Y336753D01*
Y327927D02*
Y336753D01*
X501095Y309788D02*
X505095Y313788D01*
X574095Y387388D02*
X575795Y385688D01*
X561495Y387388D02*
X574095D01*
X546795Y372688D02*
X561495Y387388D01*
X546795Y357788D02*
Y372688D01*
X557982Y374088D02*
X558695D01*
X550995Y367101D02*
X557982Y374088D01*
X573345Y394138D02*
X574495Y395288D01*
X539195Y380188D02*
X540895Y381888D01*
X539195Y375188D02*
Y380188D01*
X503995Y374188D02*
X511095Y381288D01*
X529195Y369788D02*
X536895Y377488D01*
X538508Y394388D02*
X542495D01*
X536895Y392775D02*
X538508Y394388D01*
X536895Y377488D02*
Y392775D01*
X528095Y369788D02*
X529195D01*
X531895Y367888D02*
X539195Y375188D01*
X526595Y367888D02*
X531895D01*
X546095Y339928D02*
X549850Y336174D01*
X546095Y339928D02*
Y351149D01*
X550995Y356048D01*
Y367101D01*
X550195Y369388D02*
X550595D01*
X549595Y368788D02*
X550195Y369388D01*
X549595Y356628D02*
Y368788D01*
X544695Y351728D02*
X549595Y356628D01*
X544695Y339348D02*
Y351728D01*
Y339348D02*
X548450Y335594D01*
X548795Y370988D02*
X548895D01*
X548195Y370388D02*
X548795Y370988D01*
X548195Y357208D02*
Y370388D01*
X543295Y352308D02*
X548195Y357208D01*
X543295Y338768D02*
Y352308D01*
Y338768D02*
X547050Y335014D01*
X541895Y338188D02*
X545650Y334434D01*
X541895Y338188D02*
Y338675D01*
X541795Y338775D02*
X541895Y338675D01*
X541795Y338775D02*
Y352788D01*
X546795Y357788D01*
X537195Y322988D02*
X538295Y324088D01*
X536895Y328588D02*
X538395Y327088D01*
X510995Y327588D02*
X513495Y330088D01*
X510995Y324988D02*
Y327588D01*
X513495Y330088D02*
X537608D01*
X539208Y328488D01*
X537095Y337688D02*
X539295Y335488D01*
X537095Y337688D02*
Y348488D01*
X505082Y333688D02*
X508095Y336701D01*
X495395Y364088D02*
X499195Y367888D01*
X545650Y330247D02*
Y334434D01*
X547050Y329667D02*
Y335014D01*
X548450Y329087D02*
Y335594D01*
X549850Y328507D02*
Y336174D01*
X538295Y324088D02*
X545431D01*
X549850Y328507D01*
X537815Y325688D02*
X545051D01*
X548450Y329087D01*
X538395Y327088D02*
X544471D01*
X547050Y329667D01*
X539208Y328488D02*
X543891D01*
X545650Y330247D01*
X501795Y331288D02*
X501895Y331388D01*
X533895Y316088D02*
X536595Y318788D01*
X515295Y328588D02*
X536895D01*
X512895Y326188D02*
X515295Y328588D01*
X512895Y322988D02*
Y326188D01*
X525795Y368688D02*
Y370988D01*
Y368688D02*
X526595Y367888D01*
X514895Y324888D02*
X516895Y326888D01*
X536615D01*
X537815Y325688D01*
X527395Y358188D02*
X537095Y348488D01*
X510208Y358188D02*
X527395D01*
X508595Y359801D02*
X510208Y358188D01*
X508595Y359801D02*
Y360188D01*
X518295Y324988D02*
X522795D01*
X514395Y321088D02*
X518295Y324988D01*
X505795Y358788D02*
X505895Y358888D01*
X508785Y330178D02*
X509795Y331188D01*
X565745Y394138D02*
X573345D01*
X542195Y397488D02*
X562395D01*
X565745Y394138D01*
X509395Y389288D02*
X520895Y377788D01*
Y370788D02*
Y377788D01*
X537795Y313788D02*
X542095Y318088D01*
X505095Y313788D02*
X537795D01*
X542095Y318088D02*
Y321588D01*
X531295Y304388D02*
X538595Y311688D01*
X528108Y304388D02*
X531295D01*
X526308Y302588D02*
X528108Y304388D01*
X509795Y302588D02*
X526308D01*
X159540Y431562D02*
Y435147D01*
X149540Y421562D02*
X159540Y431562D01*
X159327Y487862D02*
X159940D01*
X147827Y476362D02*
X159327Y487862D01*
X141640Y476362D02*
X147827D01*
X135740Y470462D02*
X141640Y476362D01*
X113540Y426662D02*
Y433462D01*
X109140Y422262D02*
X113540Y426662D01*
X109140Y419162D02*
Y422262D01*
Y437862D02*
X113540Y433462D01*
X109140Y437862D02*
Y443475D01*
X112740Y436362D02*
X123140Y425962D01*
X112740Y436362D02*
Y441162D01*
X114640Y436442D02*
X122020Y429062D01*
X114640Y436442D02*
Y439562D01*
X114727Y411962D02*
X121844Y419079D01*
X138140D01*
X94340Y483362D02*
X99440Y478262D01*
Y417562D02*
Y478262D01*
Y417562D02*
X106440Y410562D01*
X100940Y452162D02*
X104040Y455262D01*
X100940Y419175D02*
Y452162D01*
Y419175D02*
X108153Y411962D01*
X112240Y414462D02*
Y416062D01*
X109140Y419162D02*
X112240Y416062D01*
X106340Y446275D02*
Y473962D01*
Y446275D02*
X109140Y443475D01*
X122020Y429062D02*
X145040D01*
X123140Y425962D02*
X144840D01*
X122420Y430962D02*
X125340D01*
X119730Y433652D02*
X122420Y430962D01*
X119730Y433652D02*
Y440052D01*
X119040Y446575D02*
Y463306D01*
X114940Y467406D02*
X119040Y463306D01*
X114940Y467406D02*
Y484062D01*
X120740Y441062D02*
Y464662D01*
X116740Y468662D02*
X120740Y464662D01*
X118840Y410562D02*
X120740Y412462D01*
X106440Y410562D02*
X118840D01*
X159540Y435147D02*
X162195Y437801D01*
X92440Y483262D02*
X92540Y483362D01*
X94340D01*
X108153Y411962D02*
X114727D01*
X112240Y414462D02*
X112740Y413962D01*
X88940Y493462D02*
X89640D01*
X95340Y499162D01*
X120340D01*
X114740Y443562D02*
X116027D01*
X163340Y475662D02*
X164640Y476962D01*
X163340Y465343D02*
Y475662D01*
X158440Y460443D02*
X163340Y465343D01*
X158440Y450382D02*
Y460443D01*
Y450382D02*
X162195Y446628D01*
Y437801D02*
Y446628D01*
X112040Y419662D02*
X116040Y423662D01*
X185040Y497262D02*
X186740Y495562D01*
X172440Y497262D02*
X185040D01*
X157740Y482562D02*
X172440Y497262D01*
X157740Y467662D02*
Y482562D01*
X168927Y483962D02*
X169640D01*
X161940Y476975D02*
X168927Y483962D01*
X184290Y504012D02*
X185440Y505162D01*
X150140Y490062D02*
X151840Y491762D01*
X150140Y485062D02*
Y490062D01*
X114940Y484062D02*
X122040Y491162D01*
X140140Y479662D02*
X147840Y487362D01*
X149453Y504262D02*
X153440D01*
X147840Y502649D02*
X149453Y504262D01*
X147840Y487362D02*
Y502649D01*
X139040Y479662D02*
X140140D01*
X142840Y477762D02*
X150140Y485062D01*
X137540Y477762D02*
X142840D01*
X157040Y449802D02*
X160794Y446048D01*
X157040Y449802D02*
Y461023D01*
X161940Y465922D01*
Y476975D01*
X161140Y479262D02*
X161540D01*
X160540Y478662D02*
X161140Y479262D01*
X160540Y466502D02*
Y478662D01*
X155640Y461602D02*
X160540Y466502D01*
X155640Y449222D02*
Y461602D01*
Y449222D02*
X159395Y445468D01*
X159740Y480862D02*
X159840D01*
X159140Y480262D02*
X159740Y480862D01*
X159140Y467082D02*
Y480262D01*
X154240Y462182D02*
X159140Y467082D01*
X154240Y448642D02*
Y462182D01*
Y448642D02*
X157994Y444888D01*
X152840Y448062D02*
X156595Y444308D01*
X152840Y448062D02*
Y448549D01*
X152740Y448649D02*
X152840Y448549D01*
X152740Y448649D02*
Y462662D01*
X157740Y467662D01*
X148140Y432862D02*
X149240Y433962D01*
X147840Y438462D02*
X149340Y436962D01*
X121940Y437462D02*
X124440Y439962D01*
X121940Y434862D02*
Y437462D01*
X124440Y439962D02*
X148553D01*
X150153Y438362D01*
X148040Y447562D02*
X150240Y445362D01*
X148040Y447562D02*
Y458362D01*
X116027Y443562D02*
X119040Y446575D01*
X106340Y473962D02*
X110140Y477762D01*
X156595Y440121D02*
Y444308D01*
X157994Y439541D02*
Y444888D01*
X159395Y438961D02*
Y445468D01*
X160794Y438381D02*
Y446048D01*
X149240Y433962D02*
X156376D01*
X160794Y438381D01*
X148760Y435562D02*
X155996D01*
X159395Y438961D01*
X149340Y436962D02*
X155416D01*
X157994Y439541D01*
X150153Y438362D02*
X154836D01*
X156595Y440121D01*
X112740Y441162D02*
X112840Y441262D01*
X144840Y425962D02*
X147540Y428662D01*
X126240Y438462D02*
X147840D01*
X123840Y436062D02*
X126240Y438462D01*
X123840Y432862D02*
Y436062D01*
X136740Y478562D02*
Y480862D01*
Y478562D02*
X137540Y477762D01*
X125840Y434762D02*
X127840Y436762D01*
X147560D01*
X148760Y435562D01*
X138340Y468062D02*
X148040Y458362D01*
X121153Y468062D02*
X138340D01*
X119540Y469675D02*
X121153Y468062D01*
X119540Y469675D02*
Y470062D01*
X129240Y434862D02*
X133740D01*
X125340Y430962D02*
X129240Y434862D01*
X116740Y468662D02*
X116840Y468762D01*
X119730Y440052D02*
X120740Y441062D01*
X176690Y504012D02*
X184290D01*
X153140Y507362D02*
X173340D01*
X176690Y504012D01*
X120340Y499162D02*
X131840Y487662D01*
Y480662D02*
Y487662D01*
X148740Y423662D02*
X153040Y427962D01*
X116040Y423662D02*
X148740D01*
X153040Y427962D02*
Y431462D01*
X142240Y414262D02*
X149540Y421562D01*
X139053Y414262D02*
X142240D01*
X137253Y412462D02*
X139053Y414262D01*
X120740Y412462D02*
X137253D01*
X289225Y431562D02*
Y435147D01*
X279225Y421562D02*
X289225Y431562D01*
X289012Y487862D02*
X289625D01*
X277512Y476362D02*
X289012Y487862D01*
X271325Y476362D02*
X277512D01*
X265425Y470462D02*
X271325Y476362D01*
X243225Y426662D02*
Y433462D01*
X238825Y422262D02*
X243225Y426662D01*
X238825Y419162D02*
Y422262D01*
Y437862D02*
X243225Y433462D01*
X238825Y437862D02*
Y443475D01*
X242425Y436362D02*
X252825Y425962D01*
X242425Y436362D02*
Y441162D01*
X244325Y436442D02*
X251705Y429062D01*
X244325Y436442D02*
Y439562D01*
X244412Y411962D02*
X251529Y419079D01*
X267825D01*
X224025Y483362D02*
X229125Y478262D01*
Y417562D02*
Y478262D01*
Y417562D02*
X236125Y410562D01*
X230625Y452162D02*
X233725Y455262D01*
X230625Y419175D02*
Y452162D01*
Y419175D02*
X237838Y411962D01*
X241925Y414462D02*
Y416062D01*
X238825Y419162D02*
X241925Y416062D01*
X236025Y446275D02*
Y473962D01*
Y446275D02*
X238825Y443475D01*
X251705Y429062D02*
X274725D01*
X252825Y425962D02*
X274525D01*
X252105Y430962D02*
X255025D01*
X249415Y433652D02*
X252105Y430962D01*
X249415Y433652D02*
Y440052D01*
X248725Y446575D02*
Y463306D01*
X244625Y467406D02*
X248725Y463306D01*
X244625Y467406D02*
Y484062D01*
X250425Y441062D02*
Y464662D01*
X246425Y468662D02*
X250425Y464662D01*
X248525Y410562D02*
X250425Y412462D01*
X236125Y410562D02*
X248525D01*
X289225Y435147D02*
X291880Y437801D01*
X222125Y483262D02*
X222225Y483362D01*
X224025D01*
X237838Y411962D02*
X244412D01*
X241925Y414462D02*
X242425Y413962D01*
X218625Y493462D02*
X219325D01*
X225025Y499162D01*
X250025D01*
X244425Y443562D02*
X245712D01*
X293025Y475662D02*
X294325Y476962D01*
X293025Y465343D02*
Y475662D01*
X288125Y460443D02*
X293025Y465343D01*
X288125Y450382D02*
Y460443D01*
Y450382D02*
X291880Y446628D01*
Y437801D02*
Y446628D01*
X241725Y419662D02*
X245725Y423662D01*
X314725Y497262D02*
X316425Y495562D01*
X302125Y497262D02*
X314725D01*
X287425Y482562D02*
X302125Y497262D01*
X287425Y467662D02*
Y482562D01*
X298612Y483962D02*
X299325D01*
X291625Y476975D02*
X298612Y483962D01*
X313975Y504012D02*
X315125Y505162D01*
X279825Y490062D02*
X281525Y491762D01*
X279825Y485062D02*
Y490062D01*
X244625Y484062D02*
X251725Y491162D01*
X269825Y479662D02*
X277525Y487362D01*
X279138Y504262D02*
X283125D01*
X277525Y502649D02*
X279138Y504262D01*
X277525Y487362D02*
Y502649D01*
X268725Y479662D02*
X269825D01*
X272525Y477762D02*
X279825Y485062D01*
X267225Y477762D02*
X272525D01*
X286725Y449802D02*
X290479Y446048D01*
X286725Y449802D02*
Y461023D01*
X291625Y465922D01*
Y476975D01*
X290825Y479262D02*
X291225D01*
X290225Y478662D02*
X290825Y479262D01*
X290225Y466502D02*
Y478662D01*
X285325Y461602D02*
X290225Y466502D01*
X285325Y449222D02*
Y461602D01*
Y449222D02*
X289079Y445468D01*
X289425Y480862D02*
X289525D01*
X288825Y480262D02*
X289425Y480862D01*
X288825Y467082D02*
Y480262D01*
X283925Y462182D02*
X288825Y467082D01*
X283925Y448642D02*
Y462182D01*
Y448642D02*
X287680Y444888D01*
X282525Y448062D02*
X286280Y444308D01*
X282525Y448062D02*
Y448549D01*
X282425Y448649D02*
X282525Y448549D01*
X282425Y448649D02*
Y462662D01*
X287425Y467662D01*
X277825Y432862D02*
X278925Y433962D01*
X277525Y438462D02*
X279025Y436962D01*
X251625Y437462D02*
X254125Y439962D01*
X251625Y434862D02*
Y437462D01*
X254125Y439962D02*
X278238D01*
X279838Y438362D01*
X277725Y447562D02*
X279925Y445362D01*
X277725Y447562D02*
Y458362D01*
X245712Y443562D02*
X248725Y446575D01*
X236025Y473962D02*
X239825Y477762D01*
X286280Y440121D02*
Y444308D01*
X287680Y439541D02*
Y444888D01*
X289079Y438961D02*
Y445468D01*
X290479Y438381D02*
Y446048D01*
X278925Y433962D02*
X286061D01*
X290479Y438381D01*
X278445Y435562D02*
X285681D01*
X289079Y438961D01*
X279025Y436962D02*
X285101D01*
X287680Y439541D01*
X279838Y438362D02*
X284521D01*
X286280Y440121D01*
X242425Y441162D02*
X242525Y441262D01*
X274525Y425962D02*
X277225Y428662D01*
X255925Y438462D02*
X277525D01*
X253525Y436062D02*
X255925Y438462D01*
X253525Y432862D02*
Y436062D01*
X266425Y478562D02*
Y480862D01*
Y478562D02*
X267225Y477762D01*
X255525Y434762D02*
X257525Y436762D01*
X277245D01*
X278445Y435562D01*
X268025Y468062D02*
X277725Y458362D01*
X250838Y468062D02*
X268025D01*
X249225Y469675D02*
X250838Y468062D01*
X249225Y469675D02*
Y470062D01*
X258925Y434862D02*
X263425D01*
X255025Y430962D02*
X258925Y434862D01*
X246425Y468662D02*
X246525Y468762D01*
X249415Y440052D02*
X250425Y441062D01*
X306375Y504012D02*
X313975D01*
X282825Y507362D02*
X303025D01*
X306375Y504012D01*
X250025Y499162D02*
X261525Y487662D01*
Y480662D02*
Y487662D01*
X278425Y423662D02*
X282725Y427962D01*
X245725Y423662D02*
X278425D01*
X282725Y427962D02*
Y431462D01*
X271925Y414262D02*
X279225Y421562D01*
X268738Y414262D02*
X271925D01*
X266938Y412462D02*
X268738Y414262D01*
X250425Y412462D02*
X266938D01*
X418910Y431562D02*
Y435147D01*
X408910Y421562D02*
X418910Y431562D01*
X418697Y487862D02*
X419310D01*
X407197Y476362D02*
X418697Y487862D01*
X401010Y476362D02*
X407197D01*
X395110Y470462D02*
X401010Y476362D01*
X372910Y426662D02*
Y433462D01*
X368510Y422262D02*
X372910Y426662D01*
X368510Y419162D02*
Y422262D01*
Y437862D02*
X372910Y433462D01*
X368510Y437862D02*
Y443475D01*
X372110Y436362D02*
X382510Y425962D01*
X372110Y436362D02*
Y441162D01*
X374010Y436442D02*
X381390Y429062D01*
X374010Y436442D02*
Y439562D01*
X374097Y411962D02*
X381214Y419079D01*
X397510D01*
X353710Y483362D02*
X358810Y478262D01*
Y417562D02*
Y478262D01*
Y417562D02*
X365810Y410562D01*
X360310Y452162D02*
X363410Y455262D01*
X360310Y419175D02*
Y452162D01*
Y419175D02*
X367523Y411962D01*
X371610Y414462D02*
Y416062D01*
X368510Y419162D02*
X371610Y416062D01*
X365710Y446275D02*
Y473962D01*
Y446275D02*
X368510Y443475D01*
X381390Y429062D02*
X404410D01*
X382510Y425962D02*
X404210D01*
X381790Y430962D02*
X384710D01*
X379100Y433652D02*
X381790Y430962D01*
X379100Y433652D02*
Y440052D01*
X378410Y446575D02*
Y463306D01*
X374310Y467406D02*
X378410Y463306D01*
X374310Y467406D02*
Y484062D01*
X380110Y441062D02*
Y464662D01*
X376110Y468662D02*
X380110Y464662D01*
X378210Y410562D02*
X380110Y412462D01*
X365810Y410562D02*
X378210D01*
X418910Y435147D02*
X421565Y437801D01*
X351810Y483262D02*
X351910Y483362D01*
X353710D01*
X367523Y411962D02*
X374097D01*
X371610Y414462D02*
X372110Y413962D01*
X348310Y493462D02*
X349010D01*
X354710Y499162D01*
X379710D01*
X374110Y443562D02*
X375397D01*
X422710Y475662D02*
X424010Y476962D01*
X422710Y465343D02*
Y475662D01*
X417810Y460443D02*
X422710Y465343D01*
X417810Y450382D02*
Y460443D01*
Y450382D02*
X421565Y446628D01*
Y437801D02*
Y446628D01*
X371410Y419662D02*
X375410Y423662D01*
X444410Y497262D02*
X446110Y495562D01*
X431810Y497262D02*
X444410D01*
X417110Y482562D02*
X431810Y497262D01*
X417110Y467662D02*
Y482562D01*
X428297Y483962D02*
X429010D01*
X421310Y476975D02*
X428297Y483962D01*
X443660Y504012D02*
X444810Y505162D01*
X409510Y490062D02*
X411210Y491762D01*
X409510Y485062D02*
Y490062D01*
X374310Y484062D02*
X381410Y491162D01*
X399510Y479662D02*
X407210Y487362D01*
X408823Y504262D02*
X412810D01*
X407210Y502649D02*
X408823Y504262D01*
X407210Y487362D02*
Y502649D01*
X398410Y479662D02*
X399510D01*
X402210Y477762D02*
X409510Y485062D01*
X396910Y477762D02*
X402210D01*
X416410Y449802D02*
X420165Y446048D01*
X416410Y449802D02*
Y461023D01*
X421310Y465922D01*
Y476975D01*
X420510Y479262D02*
X420910D01*
X419910Y478662D02*
X420510Y479262D01*
X419910Y466502D02*
Y478662D01*
X415010Y461602D02*
X419910Y466502D01*
X415010Y449222D02*
Y461602D01*
Y449222D02*
X418765Y445468D01*
X419110Y480862D02*
X419210D01*
X418510Y480262D02*
X419110Y480862D01*
X418510Y467082D02*
Y480262D01*
X413610Y462182D02*
X418510Y467082D01*
X413610Y448642D02*
Y462182D01*
Y448642D02*
X417365Y444888D01*
X412210Y448062D02*
X415965Y444308D01*
X412210Y448062D02*
Y448549D01*
X412110Y448649D02*
X412210Y448549D01*
X412110Y448649D02*
Y462662D01*
X417110Y467662D01*
X407510Y432862D02*
X408610Y433962D01*
X407210Y438462D02*
X408710Y436962D01*
X381310Y437462D02*
X383810Y439962D01*
X381310Y434862D02*
Y437462D01*
X383810Y439962D02*
X407923D01*
X409523Y438362D01*
X407410Y447562D02*
X409610Y445362D01*
X407410Y447562D02*
Y458362D01*
X375397Y443562D02*
X378410Y446575D01*
X365710Y473962D02*
X369510Y477762D01*
X415965Y440121D02*
Y444308D01*
X417365Y439541D02*
Y444888D01*
X418765Y438961D02*
Y445468D01*
X420165Y438381D02*
Y446048D01*
X408610Y433962D02*
X415746D01*
X420165Y438381D01*
X408130Y435562D02*
X415366D01*
X418765Y438961D01*
X408710Y436962D02*
X414786D01*
X417365Y439541D01*
X409523Y438362D02*
X414206D01*
X415965Y440121D01*
X372110Y441162D02*
X372210Y441262D01*
X404210Y425962D02*
X406910Y428662D01*
X385610Y438462D02*
X407210D01*
X383210Y436062D02*
X385610Y438462D01*
X383210Y432862D02*
Y436062D01*
X396110Y478562D02*
Y480862D01*
Y478562D02*
X396910Y477762D01*
X385210Y434762D02*
X387210Y436762D01*
X406930D01*
X408130Y435562D01*
X397710Y468062D02*
X407410Y458362D01*
X380523Y468062D02*
X397710D01*
X378910Y469675D02*
X380523Y468062D01*
X378910Y469675D02*
Y470062D01*
X388610Y434862D02*
X393110D01*
X384710Y430962D02*
X388610Y434862D01*
X376110Y468662D02*
X376210Y468762D01*
X379100Y440052D02*
X380110Y441062D01*
X436060Y504012D02*
X443660D01*
X412510Y507362D02*
X432710D01*
X436060Y504012D01*
X379710Y499162D02*
X391210Y487662D01*
Y480662D02*
Y487662D01*
X408110Y423662D02*
X412410Y427962D01*
X375410Y423662D02*
X408110D01*
X412410Y427962D02*
Y431462D01*
X401610Y414262D02*
X408910Y421562D01*
X398423Y414262D02*
X401610D01*
X396623Y412462D02*
X398423Y414262D01*
X380110Y412462D02*
X396623D01*
X548595Y431562D02*
Y435147D01*
X538595Y421562D02*
X548595Y431562D01*
X548382Y487862D02*
X548995D01*
X536882Y476362D02*
X548382Y487862D01*
X530695Y476362D02*
X536882D01*
X524795Y470462D02*
X530695Y476362D01*
X502595Y426662D02*
Y433462D01*
X498195Y422262D02*
X502595Y426662D01*
X498195Y419162D02*
Y422262D01*
Y437862D02*
X502595Y433462D01*
X498195Y437862D02*
Y443475D01*
X501795Y436362D02*
X512195Y425962D01*
X501795Y436362D02*
Y441162D01*
X503695Y436442D02*
X511075Y429062D01*
X503695Y436442D02*
Y439562D01*
X503782Y411962D02*
X510899Y419079D01*
X527195D01*
X483395Y483362D02*
X488495Y478262D01*
Y417562D02*
Y478262D01*
Y417562D02*
X495495Y410562D01*
X489995Y452162D02*
X493095Y455262D01*
X489995Y419175D02*
Y452162D01*
Y419175D02*
X497208Y411962D01*
X501295Y414462D02*
Y416062D01*
X498195Y419162D02*
X501295Y416062D01*
X495395Y446275D02*
Y473962D01*
Y446275D02*
X498195Y443475D01*
X511075Y429062D02*
X534095D01*
X512195Y425962D02*
X533895D01*
X511475Y430962D02*
X514395D01*
X508785Y433652D02*
X511475Y430962D01*
X508785Y433652D02*
Y440052D01*
X508095Y446575D02*
Y463306D01*
X503995Y467406D02*
X508095Y463306D01*
X503995Y467406D02*
Y484062D01*
X509795Y441062D02*
Y464662D01*
X505795Y468662D02*
X509795Y464662D01*
X507895Y410562D02*
X509795Y412462D01*
X495495Y410562D02*
X507895D01*
X548595Y435147D02*
X551250Y437801D01*
X481495Y483262D02*
X481595Y483362D01*
X483395D01*
X497208Y411962D02*
X503782D01*
X501295Y414462D02*
X501795Y413962D01*
X477995Y493462D02*
X478695D01*
X484395Y499162D01*
X509395D01*
X503795Y443562D02*
X505082D01*
X552395Y475662D02*
X553695Y476962D01*
X552395Y465343D02*
Y475662D01*
X547495Y460443D02*
X552395Y465343D01*
X547495Y450382D02*
Y460443D01*
Y450382D02*
X551250Y446628D01*
Y437801D02*
Y446628D01*
X501095Y419662D02*
X505095Y423662D01*
X574095Y497262D02*
X575795Y495562D01*
X561495Y497262D02*
X574095D01*
X546795Y482562D02*
X561495Y497262D01*
X546795Y467662D02*
Y482562D01*
X557982Y483962D02*
X558695D01*
X550995Y476975D02*
X557982Y483962D01*
X573345Y504012D02*
X574495Y505162D01*
X539195Y490062D02*
X540895Y491762D01*
X539195Y485062D02*
Y490062D01*
X503995Y484062D02*
X511095Y491162D01*
X529195Y479662D02*
X536895Y487362D01*
X538508Y504262D02*
X542495D01*
X536895Y502649D02*
X538508Y504262D01*
X536895Y487362D02*
Y502649D01*
X528095Y479662D02*
X529195D01*
X531895Y477762D02*
X539195Y485062D01*
X526595Y477762D02*
X531895D01*
X546095Y449802D02*
X549850Y446048D01*
X546095Y449802D02*
Y461023D01*
X550995Y465922D01*
Y476975D01*
X550195Y479262D02*
X550595D01*
X549595Y478662D02*
X550195Y479262D01*
X549595Y466502D02*
Y478662D01*
X544695Y461602D02*
X549595Y466502D01*
X544695Y449222D02*
Y461602D01*
Y449222D02*
X548450Y445468D01*
X548795Y480862D02*
X548895D01*
X548195Y480262D02*
X548795Y480862D01*
X548195Y467082D02*
Y480262D01*
X543295Y462182D02*
X548195Y467082D01*
X543295Y448642D02*
Y462182D01*
Y448642D02*
X547050Y444888D01*
X541895Y448062D02*
X545650Y444308D01*
X541895Y448062D02*
Y448549D01*
X541795Y448649D02*
X541895Y448549D01*
X541795Y448649D02*
Y462662D01*
X546795Y467662D01*
X537195Y432862D02*
X538295Y433962D01*
X536895Y438462D02*
X538395Y436962D01*
X510995Y437462D02*
X513495Y439962D01*
X510995Y434862D02*
Y437462D01*
X513495Y439962D02*
X537608D01*
X539208Y438362D01*
X537095Y447562D02*
X539295Y445362D01*
X537095Y447562D02*
Y458362D01*
X505082Y443562D02*
X508095Y446575D01*
X495395Y473962D02*
X499195Y477762D01*
X545650Y440121D02*
Y444308D01*
X547050Y439541D02*
Y444888D01*
X548450Y438961D02*
Y445468D01*
X549850Y438381D02*
Y446048D01*
X538295Y433962D02*
X545431D01*
X549850Y438381D01*
X537815Y435562D02*
X545051D01*
X548450Y438961D01*
X538395Y436962D02*
X544471D01*
X547050Y439541D01*
X539208Y438362D02*
X543891D01*
X545650Y440121D01*
X501795Y441162D02*
X501895Y441262D01*
X533895Y425962D02*
X536595Y428662D01*
X515295Y438462D02*
X536895D01*
X512895Y436062D02*
X515295Y438462D01*
X512895Y432862D02*
Y436062D01*
X525795Y478562D02*
Y480862D01*
Y478562D02*
X526595Y477762D01*
X514895Y434762D02*
X516895Y436762D01*
X536615D01*
X537815Y435562D01*
X527395Y468062D02*
X537095Y458362D01*
X510208Y468062D02*
X527395D01*
X508595Y469675D02*
X510208Y468062D01*
X508595Y469675D02*
Y470062D01*
X518295Y434862D02*
X522795D01*
X514395Y430962D02*
X518295Y434862D01*
X505795Y468662D02*
X505895Y468762D01*
X508785Y440052D02*
X509795Y441062D01*
X565745Y504012D02*
X573345D01*
X542195Y507362D02*
X562395D01*
X565745Y504012D01*
X509395Y499162D02*
X520895Y487662D01*
Y480662D02*
Y487662D01*
X537795Y423662D02*
X542095Y427962D01*
X505095Y423662D02*
X537795D01*
X542095Y427962D02*
Y431462D01*
X531295Y414262D02*
X538595Y421562D01*
X528108Y414262D02*
X531295D01*
X526308Y412462D02*
X528108Y414262D01*
X509795Y412462D02*
X526308D01*
X159540Y541436D02*
Y545021D01*
X149540Y531436D02*
X159540Y541436D01*
X159327Y597736D02*
X159940D01*
X147827Y586236D02*
X159327Y597736D01*
X141640Y586236D02*
X147827D01*
X135740Y580336D02*
X141640Y586236D01*
X113540Y536536D02*
Y543336D01*
X109140Y532136D02*
X113540Y536536D01*
X109140Y529036D02*
Y532136D01*
Y547736D02*
X113540Y543336D01*
X109140Y547736D02*
Y553349D01*
X112740Y546236D02*
X123140Y535836D01*
X112740Y546236D02*
Y551036D01*
X114640Y546316D02*
X122020Y538936D01*
X114640Y546316D02*
Y549436D01*
X114727Y521836D02*
X121844Y528953D01*
X138140D01*
X94340Y593236D02*
X99440Y588136D01*
Y527436D02*
Y588136D01*
Y527436D02*
X106440Y520436D01*
X100940Y562036D02*
X104040Y565136D01*
X100940Y529049D02*
Y562036D01*
Y529049D02*
X108153Y521836D01*
X112240Y524336D02*
Y525936D01*
X109140Y529036D02*
X112240Y525936D01*
X106340Y556149D02*
Y583836D01*
Y556149D02*
X109140Y553349D01*
X122020Y538936D02*
X145040D01*
X123140Y535836D02*
X144840D01*
X122420Y540836D02*
X125340D01*
X119730Y543526D02*
X122420Y540836D01*
X119730Y543526D02*
Y549926D01*
X119040Y556449D02*
Y573180D01*
X114940Y577280D02*
X119040Y573180D01*
X114940Y577280D02*
Y593936D01*
X120740Y550936D02*
Y574536D01*
X116740Y578536D02*
X120740Y574536D01*
X118840Y520436D02*
X120740Y522336D01*
X106440Y520436D02*
X118840D01*
X159540Y545021D02*
X162195Y547675D01*
X92440Y593136D02*
X92540Y593236D01*
X94340D01*
X108153Y521836D02*
X114727D01*
X112240Y524336D02*
X112740Y523836D01*
X88940Y603336D02*
X89640D01*
X95340Y609036D01*
X120340D01*
X114740Y553436D02*
X116027D01*
X163340Y585536D02*
X164640Y586836D01*
X163340Y575217D02*
Y585536D01*
X158440Y570317D02*
X163340Y575217D01*
X158440Y560256D02*
Y570317D01*
Y560256D02*
X162195Y556501D01*
Y547675D02*
Y556501D01*
X112040Y529536D02*
X116040Y533536D01*
X185040Y607136D02*
X186740Y605436D01*
X172440Y607136D02*
X185040D01*
X157740Y592436D02*
X172440Y607136D01*
X157740Y577536D02*
Y592436D01*
X168927Y593836D02*
X169640D01*
X161940Y586849D02*
X168927Y593836D01*
X184290Y613886D02*
X185440Y615036D01*
X150140Y599936D02*
X151840Y601636D01*
X150140Y594936D02*
Y599936D01*
X114940Y593936D02*
X122040Y601036D01*
X140140Y589536D02*
X147840Y597236D01*
X149453Y614136D02*
X153440D01*
X147840Y612523D02*
X149453Y614136D01*
X147840Y597236D02*
Y612523D01*
X139040Y589536D02*
X140140D01*
X142840Y587636D02*
X150140Y594936D01*
X137540Y587636D02*
X142840D01*
X157040Y559676D02*
X160794Y555922D01*
X157040Y559676D02*
Y570897D01*
X161940Y575797D01*
Y586849D01*
X161140Y589136D02*
X161540D01*
X160540Y588536D02*
X161140Y589136D01*
X160540Y576376D02*
Y588536D01*
X155640Y571477D02*
X160540Y576376D01*
X155640Y559096D02*
Y571477D01*
Y559096D02*
X159395Y555342D01*
X159740Y590736D02*
X159840D01*
X159140Y590136D02*
X159740Y590736D01*
X159140Y576956D02*
Y590136D01*
X154240Y572056D02*
X159140Y576956D01*
X154240Y558516D02*
Y572056D01*
Y558516D02*
X157994Y554762D01*
X152840Y557936D02*
X156595Y554182D01*
X152840Y557936D02*
Y558423D01*
X152740Y558523D02*
X152840Y558423D01*
X152740Y558523D02*
Y572536D01*
X157740Y577536D01*
X148140Y542736D02*
X149240Y543836D01*
X147840Y548336D02*
X149340Y546836D01*
X121940Y547336D02*
X124440Y549836D01*
X121940Y544736D02*
Y547336D01*
X124440Y549836D02*
X148553D01*
X150153Y548236D01*
X148040Y557436D02*
X150240Y555236D01*
X148040Y557436D02*
Y568236D01*
X116027Y553436D02*
X119040Y556449D01*
X106340Y583836D02*
X110140Y587636D01*
X156595Y549995D02*
Y554182D01*
X157994Y549415D02*
Y554762D01*
X159395Y548835D02*
Y555342D01*
X160794Y548255D02*
Y555922D01*
X149240Y543836D02*
X156376D01*
X160794Y548255D01*
X148760Y545436D02*
X155996D01*
X159395Y548835D01*
X149340Y546836D02*
X155416D01*
X157994Y549415D01*
X150153Y548236D02*
X154836D01*
X156595Y549995D01*
X112740Y551036D02*
X112840Y551136D01*
X144840Y535836D02*
X147540Y538536D01*
X126240Y548336D02*
X147840D01*
X123840Y545936D02*
X126240Y548336D01*
X123840Y542736D02*
Y545936D01*
X136740Y588436D02*
Y590736D01*
Y588436D02*
X137540Y587636D01*
X125840Y544636D02*
X127840Y546636D01*
X147560D01*
X148760Y545436D01*
X138340Y577936D02*
X148040Y568236D01*
X121153Y577936D02*
X138340D01*
X119540Y579549D02*
X121153Y577936D01*
X119540Y579549D02*
Y579936D01*
X129240Y544736D02*
X133740D01*
X125340Y540836D02*
X129240Y544736D01*
X116740Y578536D02*
X116840Y578636D01*
X119730Y549926D02*
X120740Y550936D01*
X176690Y613886D02*
X184290D01*
X153140Y617236D02*
X173340D01*
X176690Y613886D01*
X120340Y609036D02*
X131840Y597536D01*
Y590536D02*
Y597536D01*
X148740Y533536D02*
X153040Y537836D01*
X116040Y533536D02*
X148740D01*
X153040Y537836D02*
Y541336D01*
X142240Y524136D02*
X149540Y531436D01*
X139053Y524136D02*
X142240D01*
X137253Y522336D02*
X139053Y524136D01*
X120740Y522336D02*
X137253D01*
X289225Y541436D02*
Y545021D01*
X279225Y531436D02*
X289225Y541436D01*
X289012Y597736D02*
X289625D01*
X277512Y586236D02*
X289012Y597736D01*
X271325Y586236D02*
X277512D01*
X265425Y580336D02*
X271325Y586236D01*
X243225Y536536D02*
Y543336D01*
X238825Y532136D02*
X243225Y536536D01*
X238825Y529036D02*
Y532136D01*
Y547736D02*
X243225Y543336D01*
X238825Y547736D02*
Y553349D01*
X242425Y546236D02*
X252825Y535836D01*
X242425Y546236D02*
Y551036D01*
X244325Y546316D02*
X251705Y538936D01*
X244325Y546316D02*
Y549436D01*
X244412Y521836D02*
X251529Y528953D01*
X267825D01*
X224025Y593236D02*
X229125Y588136D01*
Y527436D02*
Y588136D01*
Y527436D02*
X236125Y520436D01*
X230625Y562036D02*
X233725Y565136D01*
X230625Y529049D02*
Y562036D01*
Y529049D02*
X237838Y521836D01*
X241925Y524336D02*
Y525936D01*
X238825Y529036D02*
X241925Y525936D01*
X236025Y556149D02*
Y583836D01*
Y556149D02*
X238825Y553349D01*
X251705Y538936D02*
X274725D01*
X252825Y535836D02*
X274525D01*
X252105Y540836D02*
X255025D01*
X249415Y543526D02*
X252105Y540836D01*
X249415Y543526D02*
Y549926D01*
X248725Y556449D02*
Y573180D01*
X244625Y577280D02*
X248725Y573180D01*
X244625Y577280D02*
Y593936D01*
X250425Y550936D02*
Y574536D01*
X246425Y578536D02*
X250425Y574536D01*
X248525Y520436D02*
X250425Y522336D01*
X236125Y520436D02*
X248525D01*
X289225Y545021D02*
X291880Y547675D01*
X222125Y593136D02*
X222225Y593236D01*
X224025D01*
X237838Y521836D02*
X244412D01*
X241925Y524336D02*
X242425Y523836D01*
X218625Y603336D02*
X219325D01*
X225025Y609036D01*
X250025D01*
X244425Y553436D02*
X245712D01*
X293025Y585536D02*
X294325Y586836D01*
X293025Y575217D02*
Y585536D01*
X288125Y570317D02*
X293025Y575217D01*
X288125Y560256D02*
Y570317D01*
Y560256D02*
X291880Y556501D01*
Y547675D02*
Y556501D01*
X241725Y529536D02*
X245725Y533536D01*
X314725Y607136D02*
X316425Y605436D01*
X302125Y607136D02*
X314725D01*
X287425Y592436D02*
X302125Y607136D01*
X287425Y577536D02*
Y592436D01*
X298612Y593836D02*
X299325D01*
X291625Y586849D02*
X298612Y593836D01*
X313975Y613886D02*
X315125Y615036D01*
X279825Y599936D02*
X281525Y601636D01*
X279825Y594936D02*
Y599936D01*
X244625Y593936D02*
X251725Y601036D01*
X269825Y589536D02*
X277525Y597236D01*
X279138Y614136D02*
X283125D01*
X277525Y612523D02*
X279138Y614136D01*
X277525Y597236D02*
Y612523D01*
X268725Y589536D02*
X269825D01*
X272525Y587636D02*
X279825Y594936D01*
X267225Y587636D02*
X272525D01*
X286725Y559676D02*
X290479Y555922D01*
X286725Y559676D02*
Y570897D01*
X291625Y575797D01*
Y586849D01*
X290825Y589136D02*
X291225D01*
X290225Y588536D02*
X290825Y589136D01*
X290225Y576376D02*
Y588536D01*
X285325Y571477D02*
X290225Y576376D01*
X285325Y559096D02*
Y571477D01*
Y559096D02*
X289079Y555342D01*
X289425Y590736D02*
X289525D01*
X288825Y590136D02*
X289425Y590736D01*
X288825Y576956D02*
Y590136D01*
X283925Y572056D02*
X288825Y576956D01*
X283925Y558516D02*
Y572056D01*
Y558516D02*
X287680Y554762D01*
X282525Y557936D02*
X286280Y554182D01*
X282525Y557936D02*
Y558423D01*
X282425Y558523D02*
X282525Y558423D01*
X282425Y558523D02*
Y572536D01*
X287425Y577536D01*
X277825Y542736D02*
X278925Y543836D01*
X277525Y548336D02*
X279025Y546836D01*
X251625Y547336D02*
X254125Y549836D01*
X251625Y544736D02*
Y547336D01*
X254125Y549836D02*
X278238D01*
X279838Y548236D01*
X277725Y557436D02*
X279925Y555236D01*
X277725Y557436D02*
Y568236D01*
X245712Y553436D02*
X248725Y556449D01*
X236025Y583836D02*
X239825Y587636D01*
X286280Y549995D02*
Y554182D01*
X287680Y549415D02*
Y554762D01*
X289079Y548835D02*
Y555342D01*
X290479Y548255D02*
Y555922D01*
X278925Y543836D02*
X286061D01*
X290479Y548255D01*
X278445Y545436D02*
X285681D01*
X289079Y548835D01*
X279025Y546836D02*
X285101D01*
X287680Y549415D01*
X279838Y548236D02*
X284521D01*
X286280Y549995D01*
X242425Y551036D02*
X242525Y551136D01*
X274525Y535836D02*
X277225Y538536D01*
X255925Y548336D02*
X277525D01*
X253525Y545936D02*
X255925Y548336D01*
X253525Y542736D02*
Y545936D01*
X266425Y588436D02*
Y590736D01*
Y588436D02*
X267225Y587636D01*
X255525Y544636D02*
X257525Y546636D01*
X277245D01*
X278445Y545436D01*
X268025Y577936D02*
X277725Y568236D01*
X250838Y577936D02*
X268025D01*
X249225Y579549D02*
X250838Y577936D01*
X249225Y579549D02*
Y579936D01*
X258925Y544736D02*
X263425D01*
X255025Y540836D02*
X258925Y544736D01*
X246425Y578536D02*
X246525Y578636D01*
X249415Y549926D02*
X250425Y550936D01*
X306375Y613886D02*
X313975D01*
X282825Y617236D02*
X303025D01*
X306375Y613886D01*
X250025Y609036D02*
X261525Y597536D01*
Y590536D02*
Y597536D01*
X278425Y533536D02*
X282725Y537836D01*
X245725Y533536D02*
X278425D01*
X282725Y537836D02*
Y541336D01*
X271925Y524136D02*
X279225Y531436D01*
X268738Y524136D02*
X271925D01*
X266938Y522336D02*
X268738Y524136D01*
X250425Y522336D02*
X266938D01*
X418910Y541436D02*
Y545021D01*
X408910Y531436D02*
X418910Y541436D01*
X418697Y597736D02*
X419310D01*
X407197Y586236D02*
X418697Y597736D01*
X401010Y586236D02*
X407197D01*
X395110Y580336D02*
X401010Y586236D01*
X372910Y536536D02*
Y543336D01*
X368510Y532136D02*
X372910Y536536D01*
X368510Y529036D02*
Y532136D01*
Y547736D02*
X372910Y543336D01*
X368510Y547736D02*
Y553349D01*
X372110Y546236D02*
X382510Y535836D01*
X372110Y546236D02*
Y551036D01*
X374010Y546316D02*
X381390Y538936D01*
X374010Y546316D02*
Y549436D01*
X374097Y521836D02*
X381214Y528953D01*
X397510D01*
X353710Y593236D02*
X358810Y588136D01*
Y527436D02*
Y588136D01*
Y527436D02*
X365810Y520436D01*
X360310Y562036D02*
X363410Y565136D01*
X360310Y529049D02*
Y562036D01*
Y529049D02*
X367523Y521836D01*
X371610Y524336D02*
Y525936D01*
X368510Y529036D02*
X371610Y525936D01*
X365710Y556149D02*
Y583836D01*
Y556149D02*
X368510Y553349D01*
X381390Y538936D02*
X404410D01*
X382510Y535836D02*
X404210D01*
X381790Y540836D02*
X384710D01*
X379100Y543526D02*
X381790Y540836D01*
X379100Y543526D02*
Y549926D01*
X378410Y556449D02*
Y573180D01*
X374310Y577280D02*
X378410Y573180D01*
X374310Y577280D02*
Y593936D01*
X380110Y550936D02*
Y574536D01*
X376110Y578536D02*
X380110Y574536D01*
X378210Y520436D02*
X380110Y522336D01*
X365810Y520436D02*
X378210D01*
X418910Y545021D02*
X421565Y547675D01*
X351810Y593136D02*
X351910Y593236D01*
X353710D01*
X367523Y521836D02*
X374097D01*
X371610Y524336D02*
X372110Y523836D01*
X348310Y603336D02*
X349010D01*
X354710Y609036D01*
X379710D01*
X374110Y553436D02*
X375397D01*
X422710Y585536D02*
X424010Y586836D01*
X422710Y575217D02*
Y585536D01*
X417810Y570317D02*
X422710Y575217D01*
X417810Y560256D02*
Y570317D01*
Y560256D02*
X421565Y556501D01*
Y547675D02*
Y556501D01*
X371410Y529536D02*
X375410Y533536D01*
X444410Y607136D02*
X446110Y605436D01*
X431810Y607136D02*
X444410D01*
X417110Y592436D02*
X431810Y607136D01*
X417110Y577536D02*
Y592436D01*
X428297Y593836D02*
X429010D01*
X421310Y586849D02*
X428297Y593836D01*
X443660Y613886D02*
X444810Y615036D01*
X409510Y599936D02*
X411210Y601636D01*
X409510Y594936D02*
Y599936D01*
X374310Y593936D02*
X381410Y601036D01*
X399510Y589536D02*
X407210Y597236D01*
X408823Y614136D02*
X412810D01*
X407210Y612523D02*
X408823Y614136D01*
X407210Y597236D02*
Y612523D01*
X398410Y589536D02*
X399510D01*
X402210Y587636D02*
X409510Y594936D01*
X396910Y587636D02*
X402210D01*
X416410Y559676D02*
X420165Y555922D01*
X416410Y559676D02*
Y570897D01*
X421310Y575797D01*
Y586849D01*
X420510Y589136D02*
X420910D01*
X419910Y588536D02*
X420510Y589136D01*
X419910Y576376D02*
Y588536D01*
X415010Y571477D02*
X419910Y576376D01*
X415010Y559096D02*
Y571477D01*
Y559096D02*
X418765Y555342D01*
X419110Y590736D02*
X419210D01*
X418510Y590136D02*
X419110Y590736D01*
X418510Y576956D02*
Y590136D01*
X413610Y572056D02*
X418510Y576956D01*
X413610Y558516D02*
Y572056D01*
Y558516D02*
X417365Y554762D01*
X412210Y557936D02*
X415965Y554182D01*
X412210Y557936D02*
Y558423D01*
X412110Y558523D02*
X412210Y558423D01*
X412110Y558523D02*
Y572536D01*
X417110Y577536D01*
X407510Y542736D02*
X408610Y543836D01*
X407210Y548336D02*
X408710Y546836D01*
X381310Y547336D02*
X383810Y549836D01*
X381310Y544736D02*
Y547336D01*
X383810Y549836D02*
X407923D01*
X409523Y548236D01*
X407410Y557436D02*
X409610Y555236D01*
X407410Y557436D02*
Y568236D01*
X375397Y553436D02*
X378410Y556449D01*
X365710Y583836D02*
X369510Y587636D01*
X415965Y549995D02*
Y554182D01*
X417365Y549415D02*
Y554762D01*
X418765Y548835D02*
Y555342D01*
X420165Y548255D02*
Y555922D01*
X408610Y543836D02*
X415746D01*
X420165Y548255D01*
X408130Y545436D02*
X415366D01*
X418765Y548835D01*
X408710Y546836D02*
X414786D01*
X417365Y549415D01*
X409523Y548236D02*
X414206D01*
X415965Y549995D01*
X372110Y551036D02*
X372210Y551136D01*
X404210Y535836D02*
X406910Y538536D01*
X385610Y548336D02*
X407210D01*
X383210Y545936D02*
X385610Y548336D01*
X383210Y542736D02*
Y545936D01*
X396110Y588436D02*
Y590736D01*
Y588436D02*
X396910Y587636D01*
X385210Y544636D02*
X387210Y546636D01*
X406930D01*
X408130Y545436D01*
X397710Y577936D02*
X407410Y568236D01*
X380523Y577936D02*
X397710D01*
X378910Y579549D02*
X380523Y577936D01*
X378910Y579549D02*
Y579936D01*
X388610Y544736D02*
X393110D01*
X384710Y540836D02*
X388610Y544736D01*
X376110Y578536D02*
X376210Y578636D01*
X379100Y549926D02*
X380110Y550936D01*
X436060Y613886D02*
X443660D01*
X412510Y617236D02*
X432710D01*
X436060Y613886D01*
X379710Y609036D02*
X391210Y597536D01*
Y590536D02*
Y597536D01*
X408110Y533536D02*
X412410Y537836D01*
X375410Y533536D02*
X408110D01*
X412410Y537836D02*
Y541336D01*
X401610Y524136D02*
X408910Y531436D01*
X398423Y524136D02*
X401610D01*
X396623Y522336D02*
X398423Y524136D01*
X380110Y522336D02*
X396623D01*
X548595Y541436D02*
Y545021D01*
X538595Y531436D02*
X548595Y541436D01*
X548382Y597736D02*
X548995D01*
X536882Y586236D02*
X548382Y597736D01*
X530695Y586236D02*
X536882D01*
X524795Y580336D02*
X530695Y586236D01*
X502595Y536536D02*
Y543336D01*
X498195Y532136D02*
X502595Y536536D01*
X498195Y529036D02*
Y532136D01*
Y547736D02*
X502595Y543336D01*
X498195Y547736D02*
Y553349D01*
X501795Y546236D02*
X512195Y535836D01*
X501795Y546236D02*
Y551036D01*
X503695Y546316D02*
X511075Y538936D01*
X503695Y546316D02*
Y549436D01*
X503782Y521836D02*
X510899Y528953D01*
X527195D01*
X483395Y593236D02*
X488495Y588136D01*
Y527436D02*
Y588136D01*
Y527436D02*
X495495Y520436D01*
X489995Y562036D02*
X493095Y565136D01*
X489995Y529049D02*
Y562036D01*
Y529049D02*
X497208Y521836D01*
X501295Y524336D02*
Y525936D01*
X498195Y529036D02*
X501295Y525936D01*
X495395Y556149D02*
Y583836D01*
Y556149D02*
X498195Y553349D01*
X511075Y538936D02*
X534095D01*
X512195Y535836D02*
X533895D01*
X511475Y540836D02*
X514395D01*
X508785Y543526D02*
X511475Y540836D01*
X508785Y543526D02*
Y549926D01*
X508095Y556449D02*
Y573180D01*
X503995Y577280D02*
X508095Y573180D01*
X503995Y577280D02*
Y593936D01*
X509795Y550936D02*
Y574536D01*
X505795Y578536D02*
X509795Y574536D01*
X507895Y520436D02*
X509795Y522336D01*
X495495Y520436D02*
X507895D01*
X548595Y545021D02*
X551250Y547675D01*
X481495Y593136D02*
X481595Y593236D01*
X483395D01*
X497208Y521836D02*
X503782D01*
X501295Y524336D02*
X501795Y523836D01*
X477995Y603336D02*
X478695D01*
X484395Y609036D01*
X509395D01*
X503795Y553436D02*
X505082D01*
X552395Y585536D02*
X553695Y586836D01*
X552395Y575217D02*
Y585536D01*
X547495Y570317D02*
X552395Y575217D01*
X547495Y560256D02*
Y570317D01*
Y560256D02*
X551250Y556501D01*
Y547675D02*
Y556501D01*
X501095Y529536D02*
X505095Y533536D01*
X574095Y607136D02*
X575795Y605436D01*
X561495Y607136D02*
X574095D01*
X546795Y592436D02*
X561495Y607136D01*
X546795Y577536D02*
Y592436D01*
X557982Y593836D02*
X558695D01*
X550995Y586849D02*
X557982Y593836D01*
X573345Y613886D02*
X574495Y615036D01*
X539195Y599936D02*
X540895Y601636D01*
X539195Y594936D02*
Y599936D01*
X503995Y593936D02*
X511095Y601036D01*
X529195Y589536D02*
X536895Y597236D01*
X538508Y614136D02*
X542495D01*
X536895Y612523D02*
X538508Y614136D01*
X536895Y597236D02*
Y612523D01*
X528095Y589536D02*
X529195D01*
X531895Y587636D02*
X539195Y594936D01*
X526595Y587636D02*
X531895D01*
X546095Y559676D02*
X549850Y555922D01*
X546095Y559676D02*
Y570897D01*
X550995Y575797D01*
Y586849D01*
X550195Y589136D02*
X550595D01*
X549595Y588536D02*
X550195Y589136D01*
X549595Y576376D02*
Y588536D01*
X544695Y571477D02*
X549595Y576376D01*
X544695Y559096D02*
Y571477D01*
Y559096D02*
X548450Y555342D01*
X548795Y590736D02*
X548895D01*
X548195Y590136D02*
X548795Y590736D01*
X548195Y576956D02*
Y590136D01*
X543295Y572056D02*
X548195Y576956D01*
X543295Y558516D02*
Y572056D01*
Y558516D02*
X547050Y554762D01*
X541895Y557936D02*
X545650Y554182D01*
X541895Y557936D02*
Y558423D01*
X541795Y558523D02*
X541895Y558423D01*
X541795Y558523D02*
Y572536D01*
X546795Y577536D01*
X537195Y542736D02*
X538295Y543836D01*
X536895Y548336D02*
X538395Y546836D01*
X510995Y547336D02*
X513495Y549836D01*
X510995Y544736D02*
Y547336D01*
X513495Y549836D02*
X537608D01*
X539208Y548236D01*
X537095Y557436D02*
X539295Y555236D01*
X537095Y557436D02*
Y568236D01*
X505082Y553436D02*
X508095Y556449D01*
X495395Y583836D02*
X499195Y587636D01*
X545650Y549995D02*
Y554182D01*
X547050Y549415D02*
Y554762D01*
X548450Y548835D02*
Y555342D01*
X549850Y548255D02*
Y555922D01*
X538295Y543836D02*
X545431D01*
X549850Y548255D01*
X537815Y545436D02*
X545051D01*
X548450Y548835D01*
X538395Y546836D02*
X544471D01*
X547050Y549415D01*
X539208Y548236D02*
X543891D01*
X545650Y549995D01*
X501795Y551036D02*
X501895Y551136D01*
X533895Y535836D02*
X536595Y538536D01*
X515295Y548336D02*
X536895D01*
X512895Y545936D02*
X515295Y548336D01*
X512895Y542736D02*
Y545936D01*
X525795Y588436D02*
Y590736D01*
Y588436D02*
X526595Y587636D01*
X514895Y544636D02*
X516895Y546636D01*
X536615D01*
X537815Y545436D01*
X527395Y577936D02*
X537095Y568236D01*
X510208Y577936D02*
X527395D01*
X508595Y579549D02*
X510208Y577936D01*
X508595Y579549D02*
Y579936D01*
X518295Y544736D02*
X522795D01*
X514395Y540836D02*
X518295Y544736D01*
X505795Y578536D02*
X505895Y578636D01*
X508785Y549926D02*
X509795Y550936D01*
X565745Y613886D02*
X573345D01*
X542195Y617236D02*
X562395D01*
X565745Y613886D01*
X509395Y609036D02*
X520895Y597536D01*
Y590536D02*
Y597536D01*
X537795Y533536D02*
X542095Y537836D01*
X505095Y533536D02*
X537795D01*
X542095Y537836D02*
Y541336D01*
X531295Y524136D02*
X538595Y531436D01*
X528108Y524136D02*
X531295D01*
X526308Y522336D02*
X528108Y524136D01*
X509795Y522336D02*
X526308D01*
X159540Y651310D02*
Y654895D01*
X149540Y641310D02*
X159540Y651310D01*
X159327Y707610D02*
X159940D01*
X147827Y696110D02*
X159327Y707610D01*
X141640Y696110D02*
X147827D01*
X135740Y690210D02*
X141640Y696110D01*
X113540Y646410D02*
Y653210D01*
X109140Y642010D02*
X113540Y646410D01*
X109140Y638910D02*
Y642010D01*
Y657610D02*
X113540Y653210D01*
X109140Y657610D02*
Y663223D01*
X112740Y656110D02*
X123140Y645710D01*
X112740Y656110D02*
Y660910D01*
X114640Y656190D02*
X122020Y648810D01*
X114640Y656190D02*
Y659310D01*
X114727Y631710D02*
X121844Y638827D01*
X138140D01*
X94340Y703110D02*
X99440Y698010D01*
Y637310D02*
Y698010D01*
Y637310D02*
X106440Y630310D01*
X100940Y671910D02*
X104040Y675010D01*
X100940Y638923D02*
Y671910D01*
Y638923D02*
X108153Y631710D01*
X112240Y634210D02*
Y635810D01*
X109140Y638910D02*
X112240Y635810D01*
X106340Y666023D02*
Y693710D01*
Y666023D02*
X109140Y663223D01*
X122020Y648810D02*
X145040D01*
X123140Y645710D02*
X144840D01*
X122420Y650710D02*
X125340D01*
X119730Y653400D02*
X122420Y650710D01*
X119730Y653400D02*
Y659800D01*
X119040Y666323D02*
Y683054D01*
X114940Y687154D02*
X119040Y683054D01*
X114940Y687154D02*
Y703810D01*
X120740Y660810D02*
Y684410D01*
X116740Y688410D02*
X120740Y684410D01*
X118840Y630310D02*
X120740Y632210D01*
X106440Y630310D02*
X118840D01*
X159540Y654895D02*
X162195Y657549D01*
X92440Y703010D02*
X92540Y703110D01*
X94340D01*
X108153Y631710D02*
X114727D01*
X112240Y634210D02*
X112740Y633710D01*
X88940Y713210D02*
X89640D01*
X95340Y718910D01*
X120340D01*
X114740Y663310D02*
X116027D01*
X163340Y695410D02*
X164640Y696710D01*
X163340Y685091D02*
Y695410D01*
X158440Y680191D02*
X163340Y685091D01*
X158440Y670130D02*
Y680191D01*
Y670130D02*
X162195Y666375D01*
Y657549D02*
Y666375D01*
X112040Y639410D02*
X116040Y643410D01*
X185040Y717010D02*
X186740Y715310D01*
X172440Y717010D02*
X185040D01*
X157740Y702310D02*
X172440Y717010D01*
X157740Y687410D02*
Y702310D01*
X168927Y703710D02*
X169640D01*
X161940Y696723D02*
X168927Y703710D01*
X184290Y723760D02*
X185440Y724910D01*
X150140Y709810D02*
X151840Y711510D01*
X150140Y704810D02*
Y709810D01*
X114940Y703810D02*
X122040Y710910D01*
X140140Y699410D02*
X147840Y707110D01*
X149453Y724010D02*
X153440D01*
X147840Y722397D02*
X149453Y724010D01*
X147840Y707110D02*
Y722397D01*
X139040Y699410D02*
X140140D01*
X142840Y697510D02*
X150140Y704810D01*
X137540Y697510D02*
X142840D01*
X157040Y669550D02*
X160794Y665796D01*
X157040Y669550D02*
Y680771D01*
X161940Y685671D01*
Y696723D01*
X161140Y699010D02*
X161540D01*
X160540Y698410D02*
X161140Y699010D01*
X160540Y686250D02*
Y698410D01*
X155640Y681351D02*
X160540Y686250D01*
X155640Y668970D02*
Y681351D01*
Y668970D02*
X159395Y665216D01*
X159740Y700610D02*
X159840D01*
X159140Y700010D02*
X159740Y700610D01*
X159140Y686830D02*
Y700010D01*
X154240Y681930D02*
X159140Y686830D01*
X154240Y668390D02*
Y681930D01*
Y668390D02*
X157994Y664636D01*
X152840Y667810D02*
X156595Y664056D01*
X152840Y667810D02*
Y668297D01*
X152740Y668397D02*
X152840Y668297D01*
X152740Y668397D02*
Y682410D01*
X157740Y687410D01*
X148140Y652610D02*
X149240Y653710D01*
X147840Y658210D02*
X149340Y656710D01*
X121940Y657210D02*
X124440Y659710D01*
X121940Y654610D02*
Y657210D01*
X124440Y659710D02*
X148553D01*
X150153Y658110D01*
X148040Y667310D02*
X150240Y665110D01*
X148040Y667310D02*
Y678110D01*
X116027Y663310D02*
X119040Y666323D01*
X106340Y693710D02*
X110140Y697510D01*
X156595Y659869D02*
Y664056D01*
X157994Y659289D02*
Y664636D01*
X159395Y658709D02*
Y665216D01*
X160794Y658129D02*
Y665796D01*
X149240Y653710D02*
X156376D01*
X160794Y658129D01*
X148760Y655310D02*
X155996D01*
X159395Y658709D01*
X149340Y656710D02*
X155416D01*
X157994Y659289D01*
X150153Y658110D02*
X154836D01*
X156595Y659869D01*
X112740Y660910D02*
X112840Y661010D01*
X144840Y645710D02*
X147540Y648410D01*
X126240Y658210D02*
X147840D01*
X123840Y655810D02*
X126240Y658210D01*
X123840Y652610D02*
Y655810D01*
X136740Y698310D02*
Y700610D01*
Y698310D02*
X137540Y697510D01*
X125840Y654510D02*
X127840Y656510D01*
X147560D01*
X148760Y655310D01*
X138340Y687810D02*
X148040Y678110D01*
X121153Y687810D02*
X138340D01*
X119540Y689423D02*
X121153Y687810D01*
X119540Y689423D02*
Y689810D01*
X129240Y654610D02*
X133740D01*
X125340Y650710D02*
X129240Y654610D01*
X116740Y688410D02*
X116840Y688510D01*
X119730Y659800D02*
X120740Y660810D01*
X176690Y723760D02*
X184290D01*
X153140Y727110D02*
X173340D01*
X176690Y723760D01*
X120340Y718910D02*
X131840Y707410D01*
Y700410D02*
Y707410D01*
X148740Y643410D02*
X153040Y647710D01*
X116040Y643410D02*
X148740D01*
X153040Y647710D02*
Y651210D01*
X142240Y634010D02*
X149540Y641310D01*
X139053Y634010D02*
X142240D01*
X137253Y632210D02*
X139053Y634010D01*
X120740Y632210D02*
X137253D01*
X289225Y651310D02*
Y654895D01*
X279225Y641310D02*
X289225Y651310D01*
X289012Y707610D02*
X289625D01*
X277512Y696110D02*
X289012Y707610D01*
X271325Y696110D02*
X277512D01*
X265425Y690210D02*
X271325Y696110D01*
X243225Y646410D02*
Y653210D01*
X238825Y642010D02*
X243225Y646410D01*
X238825Y638910D02*
Y642010D01*
Y657610D02*
X243225Y653210D01*
X238825Y657610D02*
Y663223D01*
X242425Y656110D02*
X252825Y645710D01*
X242425Y656110D02*
Y660910D01*
X244325Y656190D02*
X251705Y648810D01*
X244325Y656190D02*
Y659310D01*
X244412Y631710D02*
X251529Y638827D01*
X267825D01*
X224025Y703110D02*
X229125Y698010D01*
Y637310D02*
Y698010D01*
Y637310D02*
X236125Y630310D01*
X230625Y671910D02*
X233725Y675010D01*
X230625Y638923D02*
Y671910D01*
Y638923D02*
X237838Y631710D01*
X241925Y634210D02*
Y635810D01*
X238825Y638910D02*
X241925Y635810D01*
X236025Y666023D02*
Y693710D01*
Y666023D02*
X238825Y663223D01*
X251705Y648810D02*
X274725D01*
X252825Y645710D02*
X274525D01*
X252105Y650710D02*
X255025D01*
X249415Y653400D02*
X252105Y650710D01*
X249415Y653400D02*
Y659800D01*
X248725Y666323D02*
Y683054D01*
X244625Y687154D02*
X248725Y683054D01*
X244625Y687154D02*
Y703810D01*
X250425Y660810D02*
Y684410D01*
X246425Y688410D02*
X250425Y684410D01*
X248525Y630310D02*
X250425Y632210D01*
X236125Y630310D02*
X248525D01*
X289225Y654895D02*
X291880Y657549D01*
X222125Y703010D02*
X222225Y703110D01*
X224025D01*
X237838Y631710D02*
X244412D01*
X241925Y634210D02*
X242425Y633710D01*
X218625Y713210D02*
X219325D01*
X225025Y718910D01*
X250025D01*
X244425Y663310D02*
X245712D01*
X293025Y695410D02*
X294325Y696710D01*
X293025Y685091D02*
Y695410D01*
X288125Y680191D02*
X293025Y685091D01*
X288125Y670130D02*
Y680191D01*
Y670130D02*
X291880Y666375D01*
Y657549D02*
Y666375D01*
X241725Y639410D02*
X245725Y643410D01*
X314725Y717010D02*
X316425Y715310D01*
X302125Y717010D02*
X314725D01*
X287425Y702310D02*
X302125Y717010D01*
X287425Y687410D02*
Y702310D01*
X298612Y703710D02*
X299325D01*
X291625Y696723D02*
X298612Y703710D01*
X313975Y723760D02*
X315125Y724910D01*
X279825Y709810D02*
X281525Y711510D01*
X279825Y704810D02*
Y709810D01*
X244625Y703810D02*
X251725Y710910D01*
X269825Y699410D02*
X277525Y707110D01*
X279138Y724010D02*
X283125D01*
X277525Y722397D02*
X279138Y724010D01*
X277525Y707110D02*
Y722397D01*
X268725Y699410D02*
X269825D01*
X272525Y697510D02*
X279825Y704810D01*
X267225Y697510D02*
X272525D01*
X286725Y669550D02*
X290479Y665796D01*
X286725Y669550D02*
Y680771D01*
X291625Y685671D01*
Y696723D01*
X290825Y699010D02*
X291225D01*
X290225Y698410D02*
X290825Y699010D01*
X290225Y686250D02*
Y698410D01*
X285325Y681351D02*
X290225Y686250D01*
X285325Y668970D02*
Y681351D01*
Y668970D02*
X289079Y665216D01*
X289425Y700610D02*
X289525D01*
X288825Y700010D02*
X289425Y700610D01*
X288825Y686830D02*
Y700010D01*
X283925Y681930D02*
X288825Y686830D01*
X283925Y668390D02*
Y681930D01*
Y668390D02*
X287680Y664636D01*
X282525Y667810D02*
X286280Y664056D01*
X282525Y667810D02*
Y668297D01*
X282425Y668397D02*
X282525Y668297D01*
X282425Y668397D02*
Y682410D01*
X287425Y687410D01*
X277825Y652610D02*
X278925Y653710D01*
X277525Y658210D02*
X279025Y656710D01*
X251625Y657210D02*
X254125Y659710D01*
X251625Y654610D02*
Y657210D01*
X254125Y659710D02*
X278238D01*
X279838Y658110D01*
X277725Y667310D02*
X279925Y665110D01*
X277725Y667310D02*
Y678110D01*
X245712Y663310D02*
X248725Y666323D01*
X236025Y693710D02*
X239825Y697510D01*
X286280Y659869D02*
Y664056D01*
X287680Y659289D02*
Y664636D01*
X289079Y658709D02*
Y665216D01*
X290479Y658129D02*
Y665796D01*
X278925Y653710D02*
X286061D01*
X290479Y658129D01*
X278445Y655310D02*
X285681D01*
X289079Y658709D01*
X279025Y656710D02*
X285101D01*
X287680Y659289D01*
X279838Y658110D02*
X284521D01*
X286280Y659869D01*
X242425Y660910D02*
X242525Y661010D01*
X274525Y645710D02*
X277225Y648410D01*
X255925Y658210D02*
X277525D01*
X253525Y655810D02*
X255925Y658210D01*
X253525Y652610D02*
Y655810D01*
X266425Y698310D02*
Y700610D01*
Y698310D02*
X267225Y697510D01*
X255525Y654510D02*
X257525Y656510D01*
X277245D01*
X278445Y655310D01*
X268025Y687810D02*
X277725Y678110D01*
X250838Y687810D02*
X268025D01*
X249225Y689423D02*
X250838Y687810D01*
X249225Y689423D02*
Y689810D01*
X258925Y654610D02*
X263425D01*
X255025Y650710D02*
X258925Y654610D01*
X246425Y688410D02*
X246525Y688510D01*
X249415Y659800D02*
X250425Y660810D01*
X306375Y723760D02*
X313975D01*
X282825Y727110D02*
X303025D01*
X306375Y723760D01*
X250025Y718910D02*
X261525Y707410D01*
Y700410D02*
Y707410D01*
X278425Y643410D02*
X282725Y647710D01*
X245725Y643410D02*
X278425D01*
X282725Y647710D02*
Y651210D01*
X271925Y634010D02*
X279225Y641310D01*
X268738Y634010D02*
X271925D01*
X266938Y632210D02*
X268738Y634010D01*
X250425Y632210D02*
X266938D01*
X418910Y651310D02*
Y654895D01*
X408910Y641310D02*
X418910Y651310D01*
X418697Y707610D02*
X419310D01*
X407197Y696110D02*
X418697Y707610D01*
X401010Y696110D02*
X407197D01*
X395110Y690210D02*
X401010Y696110D01*
X372910Y646410D02*
Y653210D01*
X368510Y642010D02*
X372910Y646410D01*
X368510Y638910D02*
Y642010D01*
Y657610D02*
X372910Y653210D01*
X368510Y657610D02*
Y663223D01*
X372110Y656110D02*
X382510Y645710D01*
X372110Y656110D02*
Y660910D01*
X374010Y656190D02*
X381390Y648810D01*
X374010Y656190D02*
Y659310D01*
X374097Y631710D02*
X381214Y638827D01*
X397510D01*
X353710Y703110D02*
X358810Y698010D01*
Y637310D02*
Y698010D01*
Y637310D02*
X365810Y630310D01*
X360310Y671910D02*
X363410Y675010D01*
X360310Y638923D02*
Y671910D01*
Y638923D02*
X367523Y631710D01*
X371610Y634210D02*
Y635810D01*
X368510Y638910D02*
X371610Y635810D01*
X365710Y666023D02*
Y693710D01*
Y666023D02*
X368510Y663223D01*
X381390Y648810D02*
X404410D01*
X382510Y645710D02*
X404210D01*
X381790Y650710D02*
X384710D01*
X379100Y653400D02*
X381790Y650710D01*
X379100Y653400D02*
Y659800D01*
X378410Y666323D02*
Y683054D01*
X374310Y687154D02*
X378410Y683054D01*
X374310Y687154D02*
Y703810D01*
X380110Y660810D02*
Y684410D01*
X376110Y688410D02*
X380110Y684410D01*
X378210Y630310D02*
X380110Y632210D01*
X365810Y630310D02*
X378210D01*
X418910Y654895D02*
X421565Y657549D01*
X351810Y703010D02*
X351910Y703110D01*
X353710D01*
X367523Y631710D02*
X374097D01*
X371610Y634210D02*
X372110Y633710D01*
X348310Y713210D02*
X349010D01*
X354710Y718910D01*
X379710D01*
X374110Y663310D02*
X375397D01*
X422710Y695410D02*
X424010Y696710D01*
X422710Y685091D02*
Y695410D01*
X417810Y680191D02*
X422710Y685091D01*
X417810Y670130D02*
Y680191D01*
Y670130D02*
X421565Y666375D01*
Y657549D02*
Y666375D01*
X371410Y639410D02*
X375410Y643410D01*
X444410Y717010D02*
X446110Y715310D01*
X431810Y717010D02*
X444410D01*
X417110Y702310D02*
X431810Y717010D01*
X417110Y687410D02*
Y702310D01*
X428297Y703710D02*
X429010D01*
X421310Y696723D02*
X428297Y703710D01*
X443660Y723760D02*
X444810Y724910D01*
X409510Y709810D02*
X411210Y711510D01*
X409510Y704810D02*
Y709810D01*
X374310Y703810D02*
X381410Y710910D01*
X399510Y699410D02*
X407210Y707110D01*
X408823Y724010D02*
X412810D01*
X407210Y722397D02*
X408823Y724010D01*
X407210Y707110D02*
Y722397D01*
X398410Y699410D02*
X399510D01*
X402210Y697510D02*
X409510Y704810D01*
X396910Y697510D02*
X402210D01*
X416410Y669550D02*
X420165Y665796D01*
X416410Y669550D02*
Y680771D01*
X421310Y685671D01*
Y696723D01*
X420510Y699010D02*
X420910D01*
X419910Y698410D02*
X420510Y699010D01*
X419910Y686250D02*
Y698410D01*
X415010Y681351D02*
X419910Y686250D01*
X415010Y668970D02*
Y681351D01*
Y668970D02*
X418765Y665216D01*
X419110Y700610D02*
X419210D01*
X418510Y700010D02*
X419110Y700610D01*
X418510Y686830D02*
Y700010D01*
X413610Y681930D02*
X418510Y686830D01*
X413610Y668390D02*
Y681930D01*
Y668390D02*
X417365Y664636D01*
X412210Y667810D02*
X415965Y664056D01*
X412210Y667810D02*
Y668297D01*
X412110Y668397D02*
X412210Y668297D01*
X412110Y668397D02*
Y682410D01*
X417110Y687410D01*
X407510Y652610D02*
X408610Y653710D01*
X407210Y658210D02*
X408710Y656710D01*
X381310Y657210D02*
X383810Y659710D01*
X381310Y654610D02*
Y657210D01*
X383810Y659710D02*
X407923D01*
X409523Y658110D01*
X407410Y667310D02*
X409610Y665110D01*
X407410Y667310D02*
Y678110D01*
X375397Y663310D02*
X378410Y666323D01*
X365710Y693710D02*
X369510Y697510D01*
X415965Y659869D02*
Y664056D01*
X417365Y659289D02*
Y664636D01*
X418765Y658709D02*
Y665216D01*
X420165Y658129D02*
Y665796D01*
X408610Y653710D02*
X415746D01*
X420165Y658129D01*
X408130Y655310D02*
X415366D01*
X418765Y658709D01*
X408710Y656710D02*
X414786D01*
X417365Y659289D01*
X409523Y658110D02*
X414206D01*
X415965Y659869D01*
X372110Y660910D02*
X372210Y661010D01*
X404210Y645710D02*
X406910Y648410D01*
X385610Y658210D02*
X407210D01*
X383210Y655810D02*
X385610Y658210D01*
X383210Y652610D02*
Y655810D01*
X396110Y698310D02*
Y700610D01*
Y698310D02*
X396910Y697510D01*
X385210Y654510D02*
X387210Y656510D01*
X406930D01*
X408130Y655310D01*
X397710Y687810D02*
X407410Y678110D01*
X380523Y687810D02*
X397710D01*
X378910Y689423D02*
X380523Y687810D01*
X378910Y689423D02*
Y689810D01*
X388610Y654610D02*
X393110D01*
X384710Y650710D02*
X388610Y654610D01*
X376110Y688410D02*
X376210Y688510D01*
X379100Y659800D02*
X380110Y660810D01*
X436060Y723760D02*
X443660D01*
X412510Y727110D02*
X432710D01*
X436060Y723760D01*
X379710Y718910D02*
X391210Y707410D01*
Y700410D02*
Y707410D01*
X408110Y643410D02*
X412410Y647710D01*
X375410Y643410D02*
X408110D01*
X412410Y647710D02*
Y651210D01*
X401610Y634010D02*
X408910Y641310D01*
X398423Y634010D02*
X401610D01*
X396623Y632210D02*
X398423Y634010D01*
X380110Y632210D02*
X396623D01*
X548595Y651310D02*
Y654895D01*
X538595Y641310D02*
X548595Y651310D01*
X548382Y707610D02*
X548995D01*
X536882Y696110D02*
X548382Y707610D01*
X530695Y696110D02*
X536882D01*
X524795Y690210D02*
X530695Y696110D01*
X502595Y646410D02*
Y653210D01*
X498195Y642010D02*
X502595Y646410D01*
X498195Y638910D02*
Y642010D01*
Y657610D02*
X502595Y653210D01*
X498195Y657610D02*
Y663223D01*
X501795Y656110D02*
X512195Y645710D01*
X501795Y656110D02*
Y660910D01*
X503695Y656190D02*
X511075Y648810D01*
X503695Y656190D02*
Y659310D01*
X503782Y631710D02*
X510899Y638827D01*
X527195D01*
X483395Y703110D02*
X488495Y698010D01*
Y637310D02*
Y698010D01*
Y637310D02*
X495495Y630310D01*
X489995Y671910D02*
X493095Y675010D01*
X489995Y638923D02*
Y671910D01*
Y638923D02*
X497208Y631710D01*
X501295Y634210D02*
Y635810D01*
X498195Y638910D02*
X501295Y635810D01*
X495395Y666023D02*
Y693710D01*
Y666023D02*
X498195Y663223D01*
X511075Y648810D02*
X534095D01*
X512195Y645710D02*
X533895D01*
X511475Y650710D02*
X514395D01*
X508785Y653400D02*
X511475Y650710D01*
X508785Y653400D02*
Y659800D01*
X508095Y666323D02*
Y683054D01*
X503995Y687154D02*
X508095Y683054D01*
X503995Y687154D02*
Y703810D01*
X509795Y660810D02*
Y684410D01*
X505795Y688410D02*
X509795Y684410D01*
X507895Y630310D02*
X509795Y632210D01*
X495495Y630310D02*
X507895D01*
X548595Y654895D02*
X551250Y657549D01*
X481495Y703010D02*
X481595Y703110D01*
X483395D01*
X497208Y631710D02*
X503782D01*
X501295Y634210D02*
X501795Y633710D01*
X477995Y713210D02*
X478695D01*
X484395Y718910D01*
X509395D01*
X503795Y663310D02*
X505082D01*
X552395Y695410D02*
X553695Y696710D01*
X552395Y685091D02*
Y695410D01*
X547495Y680191D02*
X552395Y685091D01*
X547495Y670130D02*
Y680191D01*
Y670130D02*
X551250Y666375D01*
Y657549D02*
Y666375D01*
X501095Y639410D02*
X505095Y643410D01*
X574095Y717010D02*
X575795Y715310D01*
X561495Y717010D02*
X574095D01*
X546795Y702310D02*
X561495Y717010D01*
X546795Y687410D02*
Y702310D01*
X557982Y703710D02*
X558695D01*
X550995Y696723D02*
X557982Y703710D01*
X573345Y723760D02*
X574495Y724910D01*
X539195Y709810D02*
X540895Y711510D01*
X539195Y704810D02*
Y709810D01*
X503995Y703810D02*
X511095Y710910D01*
X529195Y699410D02*
X536895Y707110D01*
X538508Y724010D02*
X542495D01*
X536895Y722397D02*
X538508Y724010D01*
X536895Y707110D02*
Y722397D01*
X528095Y699410D02*
X529195D01*
X531895Y697510D02*
X539195Y704810D01*
X526595Y697510D02*
X531895D01*
X546095Y669550D02*
X549850Y665796D01*
X546095Y669550D02*
Y680771D01*
X550995Y685671D01*
Y696723D01*
X550195Y699010D02*
X550595D01*
X549595Y698410D02*
X550195Y699010D01*
X549595Y686250D02*
Y698410D01*
X544695Y681351D02*
X549595Y686250D01*
X544695Y668970D02*
Y681351D01*
Y668970D02*
X548450Y665216D01*
X548795Y700610D02*
X548895D01*
X548195Y700010D02*
X548795Y700610D01*
X548195Y686830D02*
Y700010D01*
X543295Y681930D02*
X548195Y686830D01*
X543295Y668390D02*
Y681930D01*
Y668390D02*
X547050Y664636D01*
X541895Y667810D02*
X545650Y664056D01*
X541895Y667810D02*
Y668297D01*
X541795Y668397D02*
X541895Y668297D01*
X541795Y668397D02*
Y682410D01*
X546795Y687410D01*
X537195Y652610D02*
X538295Y653710D01*
X536895Y658210D02*
X538395Y656710D01*
X510995Y657210D02*
X513495Y659710D01*
X510995Y654610D02*
Y657210D01*
X513495Y659710D02*
X537608D01*
X539208Y658110D01*
X537095Y667310D02*
X539295Y665110D01*
X537095Y667310D02*
Y678110D01*
X505082Y663310D02*
X508095Y666323D01*
X495395Y693710D02*
X499195Y697510D01*
X545650Y659869D02*
Y664056D01*
X547050Y659289D02*
Y664636D01*
X548450Y658709D02*
Y665216D01*
X549850Y658129D02*
Y665796D01*
X538295Y653710D02*
X545431D01*
X549850Y658129D01*
X537815Y655310D02*
X545051D01*
X548450Y658709D01*
X538395Y656710D02*
X544471D01*
X547050Y659289D01*
X539208Y658110D02*
X543891D01*
X545650Y659869D01*
X501795Y660910D02*
X501895Y661010D01*
X533895Y645710D02*
X536595Y648410D01*
X515295Y658210D02*
X536895D01*
X512895Y655810D02*
X515295Y658210D01*
X512895Y652610D02*
Y655810D01*
X525795Y698310D02*
Y700610D01*
Y698310D02*
X526595Y697510D01*
X514895Y654510D02*
X516895Y656510D01*
X536615D01*
X537815Y655310D01*
X527395Y687810D02*
X537095Y678110D01*
X510208Y687810D02*
X527395D01*
X508595Y689423D02*
X510208Y687810D01*
X508595Y689423D02*
Y689810D01*
X518295Y654610D02*
X522795D01*
X514395Y650710D02*
X518295Y654610D01*
X505795Y688410D02*
X505895Y688510D01*
X508785Y659800D02*
X509795Y660810D01*
X565745Y723760D02*
X573345D01*
X542195Y727110D02*
X562395D01*
X565745Y723760D01*
X509395Y718910D02*
X520895Y707410D01*
Y700410D02*
Y707410D01*
X537795Y643410D02*
X542095Y647710D01*
X505095Y643410D02*
X537795D01*
X542095Y647710D02*
Y651210D01*
X531295Y634010D02*
X538595Y641310D01*
X528108Y634010D02*
X531295D01*
X526308Y632210D02*
X528108Y634010D01*
X509795Y632210D02*
X526308D01*
D34*
X144940Y175240D02*
X147440Y177740D01*
X131640Y175240D02*
X144940D01*
X128540Y172140D02*
X131640Y175240D01*
X147440Y177740D02*
X153140D01*
X128540Y168540D02*
Y172140D01*
X274625Y175240D02*
X277125Y177740D01*
X261325Y175240D02*
X274625D01*
X258225Y172140D02*
X261325Y175240D01*
X277125Y177740D02*
X282825D01*
X258225Y168540D02*
Y172140D01*
X404310Y175240D02*
X406810Y177740D01*
X391010Y175240D02*
X404310D01*
X387910Y172140D02*
X391010Y175240D01*
X406810Y177740D02*
X412510D01*
X387910Y168540D02*
Y172140D01*
X533995Y175240D02*
X536495Y177740D01*
X520695Y175240D02*
X533995D01*
X517595Y172140D02*
X520695Y175240D01*
X536495Y177740D02*
X542195D01*
X517595Y168540D02*
Y172140D01*
X144940Y285114D02*
X147440Y287614D01*
X131640Y285114D02*
X144940D01*
X128540Y282014D02*
X131640Y285114D01*
X147440Y287614D02*
X153140D01*
X128540Y278414D02*
Y282014D01*
X274625Y285114D02*
X277125Y287614D01*
X261325Y285114D02*
X274625D01*
X258225Y282014D02*
X261325Y285114D01*
X277125Y287614D02*
X282825D01*
X258225Y278414D02*
Y282014D01*
X404310Y285114D02*
X406810Y287614D01*
X391010Y285114D02*
X404310D01*
X387910Y282014D02*
X391010Y285114D01*
X406810Y287614D02*
X412510D01*
X387910Y278414D02*
Y282014D01*
X533995Y285114D02*
X536495Y287614D01*
X520695Y285114D02*
X533995D01*
X517595Y282014D02*
X520695Y285114D01*
X536495Y287614D02*
X542195D01*
X517595Y278414D02*
Y282014D01*
X144940Y394988D02*
X147440Y397488D01*
X131640Y394988D02*
X144940D01*
X128540Y391888D02*
X131640Y394988D01*
X147440Y397488D02*
X153140D01*
X128540Y388288D02*
Y391888D01*
X274625Y394988D02*
X277125Y397488D01*
X261325Y394988D02*
X274625D01*
X258225Y391888D02*
X261325Y394988D01*
X277125Y397488D02*
X282825D01*
X258225Y388288D02*
Y391888D01*
X404310Y394988D02*
X406810Y397488D01*
X391010Y394988D02*
X404310D01*
X387910Y391888D02*
X391010Y394988D01*
X406810Y397488D02*
X412510D01*
X387910Y388288D02*
Y391888D01*
X533995Y394988D02*
X536495Y397488D01*
X520695Y394988D02*
X533995D01*
X517595Y391888D02*
X520695Y394988D01*
X536495Y397488D02*
X542195D01*
X517595Y388288D02*
Y391888D01*
X144940Y504862D02*
X147440Y507362D01*
X131640Y504862D02*
X144940D01*
X128540Y501762D02*
X131640Y504862D01*
X147440Y507362D02*
X153140D01*
X128540Y498162D02*
Y501762D01*
X274625Y504862D02*
X277125Y507362D01*
X261325Y504862D02*
X274625D01*
X258225Y501762D02*
X261325Y504862D01*
X277125Y507362D02*
X282825D01*
X258225Y498162D02*
Y501762D01*
X404310Y504862D02*
X406810Y507362D01*
X391010Y504862D02*
X404310D01*
X387910Y501762D02*
X391010Y504862D01*
X406810Y507362D02*
X412510D01*
X387910Y498162D02*
Y501762D01*
X533995Y504862D02*
X536495Y507362D01*
X520695Y504862D02*
X533995D01*
X517595Y501762D02*
X520695Y504862D01*
X536495Y507362D02*
X542195D01*
X517595Y498162D02*
Y501762D01*
X144940Y614736D02*
X147440Y617236D01*
X131640Y614736D02*
X144940D01*
X128540Y611636D02*
X131640Y614736D01*
X147440Y617236D02*
X153140D01*
X128540Y608036D02*
Y611636D01*
X274625Y614736D02*
X277125Y617236D01*
X261325Y614736D02*
X274625D01*
X258225Y611636D02*
X261325Y614736D01*
X277125Y617236D02*
X282825D01*
X258225Y608036D02*
Y611636D01*
X404310Y614736D02*
X406810Y617236D01*
X391010Y614736D02*
X404310D01*
X387910Y611636D02*
X391010Y614736D01*
X406810Y617236D02*
X412510D01*
X387910Y608036D02*
Y611636D01*
X533995Y614736D02*
X536495Y617236D01*
X520695Y614736D02*
X533995D01*
X517595Y611636D02*
X520695Y614736D01*
X536495Y617236D02*
X542195D01*
X517595Y608036D02*
Y611636D01*
X144940Y724610D02*
X147440Y727110D01*
X131640Y724610D02*
X144940D01*
X128540Y721510D02*
X131640Y724610D01*
X147440Y727110D02*
X153140D01*
X128540Y717910D02*
Y721510D01*
X274625Y724610D02*
X277125Y727110D01*
X261325Y724610D02*
X274625D01*
X258225Y721510D02*
X261325Y724610D01*
X277125Y727110D02*
X282825D01*
X258225Y717910D02*
Y721510D01*
X404310Y724610D02*
X406810Y727110D01*
X391010Y724610D02*
X404310D01*
X387910Y721510D02*
X391010Y724610D01*
X406810Y727110D02*
X412510D01*
X387910Y717910D02*
Y721510D01*
X533995Y724610D02*
X536495Y727110D01*
X520695Y724610D02*
X533995D01*
X517595Y721510D02*
X520695Y724610D01*
X536495Y727110D02*
X542195D01*
X517595Y717910D02*
Y721510D01*
D39*
X159940Y158240D02*
D03*
X138140Y89457D02*
D03*
X92440Y153640D02*
D03*
X112740Y84340D02*
D03*
X88940Y163840D02*
D03*
X114740Y113940D02*
D03*
X164640Y147340D02*
D03*
X112040Y90040D02*
D03*
X104040Y125640D02*
D03*
X151840Y162140D02*
D03*
X120340Y169540D02*
D03*
X128540Y168540D02*
D03*
X169640Y154340D02*
D03*
X186740Y165940D02*
D03*
X185440Y175540D02*
D03*
X139040Y150040D02*
D03*
X153440Y174640D02*
D03*
X161540Y149640D02*
D03*
X159740Y151240D02*
D03*
X148140Y103240D02*
D03*
X121940Y105240D02*
D03*
X123840Y103240D02*
D03*
X125840Y105140D02*
D03*
X150240Y115740D02*
D03*
X110140Y148140D02*
D03*
X153140Y177740D02*
D03*
X122040Y161540D02*
D03*
X147540Y99040D02*
D03*
X145040Y99440D02*
D03*
X114640Y109940D02*
D03*
X112840Y111640D02*
D03*
X135740Y140840D02*
D03*
X136740Y151240D02*
D03*
X131840Y151040D02*
D03*
X133740Y105240D02*
D03*
X116840Y139140D02*
D03*
X119540Y140440D02*
D03*
X153040Y101840D02*
D03*
X149540Y91940D02*
D03*
X289625Y158240D02*
D03*
X267825Y89457D02*
D03*
X222125Y153640D02*
D03*
X242425Y84340D02*
D03*
X218625Y163840D02*
D03*
X244425Y113940D02*
D03*
X294325Y147340D02*
D03*
X241725Y90040D02*
D03*
X233725Y125640D02*
D03*
X281525Y162140D02*
D03*
X250025Y169540D02*
D03*
X258225Y168540D02*
D03*
X299325Y154340D02*
D03*
X316425Y165940D02*
D03*
X315125Y175540D02*
D03*
X268725Y150040D02*
D03*
X283125Y174640D02*
D03*
X291225Y149640D02*
D03*
X289425Y151240D02*
D03*
X277825Y103240D02*
D03*
X251625Y105240D02*
D03*
X253525Y103240D02*
D03*
X255525Y105140D02*
D03*
X279925Y115740D02*
D03*
X239825Y148140D02*
D03*
X282825Y177740D02*
D03*
X251725Y161540D02*
D03*
X277225Y99040D02*
D03*
X274725Y99440D02*
D03*
X244325Y109940D02*
D03*
X242525Y111640D02*
D03*
X265425Y140840D02*
D03*
X266425Y151240D02*
D03*
X261525Y151040D02*
D03*
X263425Y105240D02*
D03*
X246525Y139140D02*
D03*
X249225Y140440D02*
D03*
X282725Y101840D02*
D03*
X279225Y91940D02*
D03*
X419310Y158240D02*
D03*
X397510Y89457D02*
D03*
X351810Y153640D02*
D03*
X372110Y84340D02*
D03*
X348310Y163840D02*
D03*
X374110Y113940D02*
D03*
X424010Y147340D02*
D03*
X371410Y90040D02*
D03*
X363410Y125640D02*
D03*
X411210Y162140D02*
D03*
X379710Y169540D02*
D03*
X387910Y168540D02*
D03*
X429010Y154340D02*
D03*
X446110Y165940D02*
D03*
X444810Y175540D02*
D03*
X398410Y150040D02*
D03*
X412810Y174640D02*
D03*
X420910Y149640D02*
D03*
X419110Y151240D02*
D03*
X407510Y103240D02*
D03*
X381310Y105240D02*
D03*
X383210Y103240D02*
D03*
X385210Y105140D02*
D03*
X409610Y115740D02*
D03*
X369510Y148140D02*
D03*
X412510Y177740D02*
D03*
X381410Y161540D02*
D03*
X406910Y99040D02*
D03*
X404410Y99440D02*
D03*
X374010Y109940D02*
D03*
X372210Y111640D02*
D03*
X395110Y140840D02*
D03*
X396110Y151240D02*
D03*
X391210Y151040D02*
D03*
X393110Y105240D02*
D03*
X376210Y139140D02*
D03*
X378910Y140440D02*
D03*
X412410Y101840D02*
D03*
X408910Y91940D02*
D03*
X548995Y158240D02*
D03*
X527195Y89457D02*
D03*
X481495Y153640D02*
D03*
X501795Y84340D02*
D03*
X477995Y163840D02*
D03*
X503795Y113940D02*
D03*
X553695Y147340D02*
D03*
X501095Y90040D02*
D03*
X493095Y125640D02*
D03*
X540895Y162140D02*
D03*
X509395Y169540D02*
D03*
X517595Y168540D02*
D03*
X558695Y154340D02*
D03*
X575795Y165940D02*
D03*
X574495Y175540D02*
D03*
X528095Y150040D02*
D03*
X542495Y174640D02*
D03*
X550595Y149640D02*
D03*
X548795Y151240D02*
D03*
X537195Y103240D02*
D03*
X510995Y105240D02*
D03*
X512895Y103240D02*
D03*
X514895Y105140D02*
D03*
X539295Y115740D02*
D03*
X499195Y148140D02*
D03*
X542195Y177740D02*
D03*
X511095Y161540D02*
D03*
X536595Y99040D02*
D03*
X534095Y99440D02*
D03*
X503695Y109940D02*
D03*
X501895Y111640D02*
D03*
X524795Y140840D02*
D03*
X525795Y151240D02*
D03*
X520895Y151040D02*
D03*
X522795Y105240D02*
D03*
X505895Y139140D02*
D03*
X508595Y140440D02*
D03*
X542095Y101840D02*
D03*
X538595Y91940D02*
D03*
X159940Y268114D02*
D03*
X138140Y199331D02*
D03*
X92440Y263514D02*
D03*
X112740Y194214D02*
D03*
X88940Y273714D02*
D03*
X114740Y223814D02*
D03*
X164640Y257214D02*
D03*
X112040Y199914D02*
D03*
X104040Y235514D02*
D03*
X151840Y272014D02*
D03*
X120340Y279414D02*
D03*
X128540Y278414D02*
D03*
X169640Y264214D02*
D03*
X186740Y275814D02*
D03*
X185440Y285414D02*
D03*
X139040Y259914D02*
D03*
X153440Y284514D02*
D03*
X161540Y259514D02*
D03*
X159740Y261114D02*
D03*
X148140Y213114D02*
D03*
X121940Y215114D02*
D03*
X123840Y213114D02*
D03*
X125840Y215014D02*
D03*
X150240Y225614D02*
D03*
X110140Y258014D02*
D03*
X153140Y287614D02*
D03*
X122040Y271414D02*
D03*
X147540Y208914D02*
D03*
X145040Y209314D02*
D03*
X114640Y219814D02*
D03*
X112840Y221514D02*
D03*
X135740Y250714D02*
D03*
X136740Y261114D02*
D03*
X131840Y260914D02*
D03*
X133740Y215114D02*
D03*
X116840Y249014D02*
D03*
X119540Y250314D02*
D03*
X153040Y211714D02*
D03*
X149540Y201814D02*
D03*
X289625Y268114D02*
D03*
X267825Y199331D02*
D03*
X222125Y263514D02*
D03*
X242425Y194214D02*
D03*
X218625Y273714D02*
D03*
X244425Y223814D02*
D03*
X294325Y257214D02*
D03*
X241725Y199914D02*
D03*
X233725Y235514D02*
D03*
X281525Y272014D02*
D03*
X250025Y279414D02*
D03*
X258225Y278414D02*
D03*
X299325Y264214D02*
D03*
X316425Y275814D02*
D03*
X315125Y285414D02*
D03*
X268725Y259914D02*
D03*
X283125Y284514D02*
D03*
X291225Y259514D02*
D03*
X289425Y261114D02*
D03*
X277825Y213114D02*
D03*
X251625Y215114D02*
D03*
X253525Y213114D02*
D03*
X255525Y215014D02*
D03*
X279925Y225614D02*
D03*
X239825Y258014D02*
D03*
X282825Y287614D02*
D03*
X251725Y271414D02*
D03*
X277225Y208914D02*
D03*
X274725Y209314D02*
D03*
X244325Y219814D02*
D03*
X242525Y221514D02*
D03*
X265425Y250714D02*
D03*
X266425Y261114D02*
D03*
X261525Y260914D02*
D03*
X263425Y215114D02*
D03*
X246525Y249014D02*
D03*
X249225Y250314D02*
D03*
X282725Y211714D02*
D03*
X279225Y201814D02*
D03*
X419310Y268114D02*
D03*
X397510Y199331D02*
D03*
X351810Y263514D02*
D03*
X372110Y194214D02*
D03*
X348310Y273714D02*
D03*
X374110Y223814D02*
D03*
X424010Y257214D02*
D03*
X371410Y199914D02*
D03*
X363410Y235514D02*
D03*
X411210Y272014D02*
D03*
X379710Y279414D02*
D03*
X387910Y278414D02*
D03*
X429010Y264214D02*
D03*
X446110Y275814D02*
D03*
X444810Y285414D02*
D03*
X398410Y259914D02*
D03*
X412810Y284514D02*
D03*
X420910Y259514D02*
D03*
X419110Y261114D02*
D03*
X407510Y213114D02*
D03*
X381310Y215114D02*
D03*
X383210Y213114D02*
D03*
X385210Y215014D02*
D03*
X409610Y225614D02*
D03*
X369510Y258014D02*
D03*
X412510Y287614D02*
D03*
X381410Y271414D02*
D03*
X406910Y208914D02*
D03*
X404410Y209314D02*
D03*
X374010Y219814D02*
D03*
X372210Y221514D02*
D03*
X395110Y250714D02*
D03*
X396110Y261114D02*
D03*
X391210Y260914D02*
D03*
X393110Y215114D02*
D03*
X376210Y249014D02*
D03*
X378910Y250314D02*
D03*
X412410Y211714D02*
D03*
X408910Y201814D02*
D03*
X548995Y268114D02*
D03*
X527195Y199331D02*
D03*
X481495Y263514D02*
D03*
X501795Y194214D02*
D03*
X477995Y273714D02*
D03*
X503795Y223814D02*
D03*
X553695Y257214D02*
D03*
X501095Y199914D02*
D03*
X493095Y235514D02*
D03*
X540895Y272014D02*
D03*
X509395Y279414D02*
D03*
X517595Y278414D02*
D03*
X558695Y264214D02*
D03*
X575795Y275814D02*
D03*
X574495Y285414D02*
D03*
X528095Y259914D02*
D03*
X542495Y284514D02*
D03*
X550595Y259514D02*
D03*
X548795Y261114D02*
D03*
X537195Y213114D02*
D03*
X510995Y215114D02*
D03*
X512895Y213114D02*
D03*
X514895Y215014D02*
D03*
X539295Y225614D02*
D03*
X499195Y258014D02*
D03*
X542195Y287614D02*
D03*
X511095Y271414D02*
D03*
X536595Y208914D02*
D03*
X534095Y209314D02*
D03*
X503695Y219814D02*
D03*
X501895Y221514D02*
D03*
X524795Y250714D02*
D03*
X525795Y261114D02*
D03*
X520895Y260914D02*
D03*
X522795Y215114D02*
D03*
X505895Y249014D02*
D03*
X508595Y250314D02*
D03*
X542095Y211714D02*
D03*
X538595Y201814D02*
D03*
X159940Y377988D02*
D03*
X138140Y309205D02*
D03*
X92440Y373388D02*
D03*
X112740Y304088D02*
D03*
X88940Y383588D02*
D03*
X114740Y333688D02*
D03*
X164640Y367088D02*
D03*
X112040Y309788D02*
D03*
X104040Y345388D02*
D03*
X151840Y381888D02*
D03*
X120340Y389288D02*
D03*
X128540Y388288D02*
D03*
X169640Y374088D02*
D03*
X186740Y385688D02*
D03*
X185440Y395288D02*
D03*
X139040Y369788D02*
D03*
X153440Y394388D02*
D03*
X161540Y369388D02*
D03*
X159740Y370988D02*
D03*
X148140Y322988D02*
D03*
X121940Y324988D02*
D03*
X123840Y322988D02*
D03*
X125840Y324888D02*
D03*
X150240Y335488D02*
D03*
X110140Y367888D02*
D03*
X153140Y397488D02*
D03*
X122040Y381288D02*
D03*
X147540Y318788D02*
D03*
X145040Y319188D02*
D03*
X114640Y329688D02*
D03*
X112840Y331388D02*
D03*
X135740Y360588D02*
D03*
X136740Y370988D02*
D03*
X131840Y370788D02*
D03*
X133740Y324988D02*
D03*
X116840Y358888D02*
D03*
X119540Y360188D02*
D03*
X153040Y321588D02*
D03*
X149540Y311688D02*
D03*
X289625Y377988D02*
D03*
X267825Y309205D02*
D03*
X222125Y373388D02*
D03*
X242425Y304088D02*
D03*
X218625Y383588D02*
D03*
X244425Y333688D02*
D03*
X294325Y367088D02*
D03*
X241725Y309788D02*
D03*
X233725Y345388D02*
D03*
X281525Y381888D02*
D03*
X250025Y389288D02*
D03*
X258225Y388288D02*
D03*
X299325Y374088D02*
D03*
X316425Y385688D02*
D03*
X315125Y395288D02*
D03*
X268725Y369788D02*
D03*
X283125Y394388D02*
D03*
X291225Y369388D02*
D03*
X289425Y370988D02*
D03*
X277825Y322988D02*
D03*
X251625Y324988D02*
D03*
X253525Y322988D02*
D03*
X255525Y324888D02*
D03*
X279925Y335488D02*
D03*
X239825Y367888D02*
D03*
X282825Y397488D02*
D03*
X251725Y381288D02*
D03*
X277225Y318788D02*
D03*
X274725Y319188D02*
D03*
X244325Y329688D02*
D03*
X242525Y331388D02*
D03*
X265425Y360588D02*
D03*
X266425Y370988D02*
D03*
X261525Y370788D02*
D03*
X263425Y324988D02*
D03*
X246525Y358888D02*
D03*
X249225Y360188D02*
D03*
X282725Y321588D02*
D03*
X279225Y311688D02*
D03*
X419310Y377988D02*
D03*
X397510Y309205D02*
D03*
X351810Y373388D02*
D03*
X372110Y304088D02*
D03*
X348310Y383588D02*
D03*
X374110Y333688D02*
D03*
X424010Y367088D02*
D03*
X371410Y309788D02*
D03*
X363410Y345388D02*
D03*
X411210Y381888D02*
D03*
X379710Y389288D02*
D03*
X387910Y388288D02*
D03*
X429010Y374088D02*
D03*
X446110Y385688D02*
D03*
X444810Y395288D02*
D03*
X398410Y369788D02*
D03*
X412810Y394388D02*
D03*
X420910Y369388D02*
D03*
X419110Y370988D02*
D03*
X407510Y322988D02*
D03*
X381310Y324988D02*
D03*
X383210Y322988D02*
D03*
X385210Y324888D02*
D03*
X409610Y335488D02*
D03*
X369510Y367888D02*
D03*
X412510Y397488D02*
D03*
X381410Y381288D02*
D03*
X406910Y318788D02*
D03*
X404410Y319188D02*
D03*
X374010Y329688D02*
D03*
X372210Y331388D02*
D03*
X395110Y360588D02*
D03*
X396110Y370988D02*
D03*
X391210Y370788D02*
D03*
X393110Y324988D02*
D03*
X376210Y358888D02*
D03*
X378910Y360188D02*
D03*
X412410Y321588D02*
D03*
X408910Y311688D02*
D03*
X548995Y377988D02*
D03*
X527195Y309205D02*
D03*
X481495Y373388D02*
D03*
X501795Y304088D02*
D03*
X477995Y383588D02*
D03*
X503795Y333688D02*
D03*
X553695Y367088D02*
D03*
X501095Y309788D02*
D03*
X493095Y345388D02*
D03*
X540895Y381888D02*
D03*
X509395Y389288D02*
D03*
X517595Y388288D02*
D03*
X558695Y374088D02*
D03*
X575795Y385688D02*
D03*
X574495Y395288D02*
D03*
X528095Y369788D02*
D03*
X542495Y394388D02*
D03*
X550595Y369388D02*
D03*
X548795Y370988D02*
D03*
X537195Y322988D02*
D03*
X510995Y324988D02*
D03*
X512895Y322988D02*
D03*
X514895Y324888D02*
D03*
X539295Y335488D02*
D03*
X499195Y367888D02*
D03*
X542195Y397488D02*
D03*
X511095Y381288D02*
D03*
X536595Y318788D02*
D03*
X534095Y319188D02*
D03*
X503695Y329688D02*
D03*
X501895Y331388D02*
D03*
X524795Y360588D02*
D03*
X525795Y370988D02*
D03*
X520895Y370788D02*
D03*
X522795Y324988D02*
D03*
X505895Y358888D02*
D03*
X508595Y360188D02*
D03*
X542095Y321588D02*
D03*
X538595Y311688D02*
D03*
X159940Y487862D02*
D03*
X138140Y419079D02*
D03*
X92440Y483262D02*
D03*
X112740Y413962D02*
D03*
X88940Y493462D02*
D03*
X114740Y443562D02*
D03*
X164640Y476962D02*
D03*
X112040Y419662D02*
D03*
X104040Y455262D02*
D03*
X151840Y491762D02*
D03*
X120340Y499162D02*
D03*
X128540Y498162D02*
D03*
X169640Y483962D02*
D03*
X186740Y495562D02*
D03*
X185440Y505162D02*
D03*
X139040Y479662D02*
D03*
X153440Y504262D02*
D03*
X161540Y479262D02*
D03*
X159740Y480862D02*
D03*
X148140Y432862D02*
D03*
X121940Y434862D02*
D03*
X123840Y432862D02*
D03*
X125840Y434762D02*
D03*
X150240Y445362D02*
D03*
X110140Y477762D02*
D03*
X153140Y507362D02*
D03*
X122040Y491162D02*
D03*
X147540Y428662D02*
D03*
X145040Y429062D02*
D03*
X114640Y439562D02*
D03*
X112840Y441262D02*
D03*
X135740Y470462D02*
D03*
X136740Y480862D02*
D03*
X131840Y480662D02*
D03*
X133740Y434862D02*
D03*
X116840Y468762D02*
D03*
X119540Y470062D02*
D03*
X153040Y431462D02*
D03*
X149540Y421562D02*
D03*
X289625Y487862D02*
D03*
X267825Y419079D02*
D03*
X222125Y483262D02*
D03*
X242425Y413962D02*
D03*
X218625Y493462D02*
D03*
X244425Y443562D02*
D03*
X294325Y476962D02*
D03*
X241725Y419662D02*
D03*
X233725Y455262D02*
D03*
X281525Y491762D02*
D03*
X250025Y499162D02*
D03*
X258225Y498162D02*
D03*
X299325Y483962D02*
D03*
X316425Y495562D02*
D03*
X315125Y505162D02*
D03*
X268725Y479662D02*
D03*
X283125Y504262D02*
D03*
X291225Y479262D02*
D03*
X289425Y480862D02*
D03*
X277825Y432862D02*
D03*
X251625Y434862D02*
D03*
X253525Y432862D02*
D03*
X255525Y434762D02*
D03*
X279925Y445362D02*
D03*
X239825Y477762D02*
D03*
X282825Y507362D02*
D03*
X251725Y491162D02*
D03*
X277225Y428662D02*
D03*
X274725Y429062D02*
D03*
X244325Y439562D02*
D03*
X242525Y441262D02*
D03*
X265425Y470462D02*
D03*
X266425Y480862D02*
D03*
X261525Y480662D02*
D03*
X263425Y434862D02*
D03*
X246525Y468762D02*
D03*
X249225Y470062D02*
D03*
X282725Y431462D02*
D03*
X279225Y421562D02*
D03*
X419310Y487862D02*
D03*
X397510Y419079D02*
D03*
X351810Y483262D02*
D03*
X372110Y413962D02*
D03*
X348310Y493462D02*
D03*
X374110Y443562D02*
D03*
X424010Y476962D02*
D03*
X371410Y419662D02*
D03*
X363410Y455262D02*
D03*
X411210Y491762D02*
D03*
X379710Y499162D02*
D03*
X387910Y498162D02*
D03*
X429010Y483962D02*
D03*
X446110Y495562D02*
D03*
X444810Y505162D02*
D03*
X398410Y479662D02*
D03*
X412810Y504262D02*
D03*
X420910Y479262D02*
D03*
X419110Y480862D02*
D03*
X407510Y432862D02*
D03*
X381310Y434862D02*
D03*
X383210Y432862D02*
D03*
X385210Y434762D02*
D03*
X409610Y445362D02*
D03*
X369510Y477762D02*
D03*
X412510Y507362D02*
D03*
X381410Y491162D02*
D03*
X406910Y428662D02*
D03*
X404410Y429062D02*
D03*
X374010Y439562D02*
D03*
X372210Y441262D02*
D03*
X395110Y470462D02*
D03*
X396110Y480862D02*
D03*
X391210Y480662D02*
D03*
X393110Y434862D02*
D03*
X376210Y468762D02*
D03*
X378910Y470062D02*
D03*
X412410Y431462D02*
D03*
X408910Y421562D02*
D03*
X548995Y487862D02*
D03*
X527195Y419079D02*
D03*
X481495Y483262D02*
D03*
X501795Y413962D02*
D03*
X477995Y493462D02*
D03*
X503795Y443562D02*
D03*
X553695Y476962D02*
D03*
X501095Y419662D02*
D03*
X493095Y455262D02*
D03*
X540895Y491762D02*
D03*
X509395Y499162D02*
D03*
X517595Y498162D02*
D03*
X558695Y483962D02*
D03*
X575795Y495562D02*
D03*
X574495Y505162D02*
D03*
X528095Y479662D02*
D03*
X542495Y504262D02*
D03*
X550595Y479262D02*
D03*
X548795Y480862D02*
D03*
X537195Y432862D02*
D03*
X510995Y434862D02*
D03*
X512895Y432862D02*
D03*
X514895Y434762D02*
D03*
X539295Y445362D02*
D03*
X499195Y477762D02*
D03*
X542195Y507362D02*
D03*
X511095Y491162D02*
D03*
X536595Y428662D02*
D03*
X534095Y429062D02*
D03*
X503695Y439562D02*
D03*
X501895Y441262D02*
D03*
X524795Y470462D02*
D03*
X525795Y480862D02*
D03*
X520895Y480662D02*
D03*
X522795Y434862D02*
D03*
X505895Y468762D02*
D03*
X508595Y470062D02*
D03*
X542095Y431462D02*
D03*
X538595Y421562D02*
D03*
X159940Y597736D02*
D03*
X138140Y528953D02*
D03*
X92440Y593136D02*
D03*
X112740Y523836D02*
D03*
X88940Y603336D02*
D03*
X114740Y553436D02*
D03*
X164640Y586836D02*
D03*
X112040Y529536D02*
D03*
X104040Y565136D02*
D03*
X151840Y601636D02*
D03*
X120340Y609036D02*
D03*
X128540Y608036D02*
D03*
X169640Y593836D02*
D03*
X186740Y605436D02*
D03*
X185440Y615036D02*
D03*
X139040Y589536D02*
D03*
X153440Y614136D02*
D03*
X161540Y589136D02*
D03*
X159740Y590736D02*
D03*
X148140Y542736D02*
D03*
X121940Y544736D02*
D03*
X123840Y542736D02*
D03*
X125840Y544636D02*
D03*
X150240Y555236D02*
D03*
X110140Y587636D02*
D03*
X153140Y617236D02*
D03*
X122040Y601036D02*
D03*
X147540Y538536D02*
D03*
X145040Y538936D02*
D03*
X114640Y549436D02*
D03*
X112840Y551136D02*
D03*
X135740Y580336D02*
D03*
X136740Y590736D02*
D03*
X131840Y590536D02*
D03*
X133740Y544736D02*
D03*
X116840Y578636D02*
D03*
X119540Y579936D02*
D03*
X153040Y541336D02*
D03*
X149540Y531436D02*
D03*
X289625Y597736D02*
D03*
X267825Y528953D02*
D03*
X222125Y593136D02*
D03*
X242425Y523836D02*
D03*
X218625Y603336D02*
D03*
X244425Y553436D02*
D03*
X294325Y586836D02*
D03*
X241725Y529536D02*
D03*
X233725Y565136D02*
D03*
X281525Y601636D02*
D03*
X250025Y609036D02*
D03*
X258225Y608036D02*
D03*
X299325Y593836D02*
D03*
X316425Y605436D02*
D03*
X315125Y615036D02*
D03*
X268725Y589536D02*
D03*
X283125Y614136D02*
D03*
X291225Y589136D02*
D03*
X289425Y590736D02*
D03*
X277825Y542736D02*
D03*
X251625Y544736D02*
D03*
X253525Y542736D02*
D03*
X255525Y544636D02*
D03*
X279925Y555236D02*
D03*
X239825Y587636D02*
D03*
X282825Y617236D02*
D03*
X251725Y601036D02*
D03*
X277225Y538536D02*
D03*
X274725Y538936D02*
D03*
X244325Y549436D02*
D03*
X242525Y551136D02*
D03*
X265425Y580336D02*
D03*
X266425Y590736D02*
D03*
X261525Y590536D02*
D03*
X263425Y544736D02*
D03*
X246525Y578636D02*
D03*
X249225Y579936D02*
D03*
X282725Y541336D02*
D03*
X279225Y531436D02*
D03*
X419310Y597736D02*
D03*
X397510Y528953D02*
D03*
X351810Y593136D02*
D03*
X372110Y523836D02*
D03*
X348310Y603336D02*
D03*
X374110Y553436D02*
D03*
X424010Y586836D02*
D03*
X371410Y529536D02*
D03*
X363410Y565136D02*
D03*
X411210Y601636D02*
D03*
X379710Y609036D02*
D03*
X387910Y608036D02*
D03*
X429010Y593836D02*
D03*
X446110Y605436D02*
D03*
X444810Y615036D02*
D03*
X398410Y589536D02*
D03*
X412810Y614136D02*
D03*
X420910Y589136D02*
D03*
X419110Y590736D02*
D03*
X407510Y542736D02*
D03*
X381310Y544736D02*
D03*
X383210Y542736D02*
D03*
X385210Y544636D02*
D03*
X409610Y555236D02*
D03*
X369510Y587636D02*
D03*
X412510Y617236D02*
D03*
X381410Y601036D02*
D03*
X406910Y538536D02*
D03*
X404410Y538936D02*
D03*
X374010Y549436D02*
D03*
X372210Y551136D02*
D03*
X395110Y580336D02*
D03*
X396110Y590736D02*
D03*
X391210Y590536D02*
D03*
X393110Y544736D02*
D03*
X376210Y578636D02*
D03*
X378910Y579936D02*
D03*
X412410Y541336D02*
D03*
X408910Y531436D02*
D03*
X548995Y597736D02*
D03*
X527195Y528953D02*
D03*
X481495Y593136D02*
D03*
X501795Y523836D02*
D03*
X477995Y603336D02*
D03*
X503795Y553436D02*
D03*
X553695Y586836D02*
D03*
X501095Y529536D02*
D03*
X493095Y565136D02*
D03*
X540895Y601636D02*
D03*
X509395Y609036D02*
D03*
X517595Y608036D02*
D03*
X558695Y593836D02*
D03*
X575795Y605436D02*
D03*
X574495Y615036D02*
D03*
X528095Y589536D02*
D03*
X542495Y614136D02*
D03*
X550595Y589136D02*
D03*
X548795Y590736D02*
D03*
X537195Y542736D02*
D03*
X510995Y544736D02*
D03*
X512895Y542736D02*
D03*
X514895Y544636D02*
D03*
X539295Y555236D02*
D03*
X499195Y587636D02*
D03*
X542195Y617236D02*
D03*
X511095Y601036D02*
D03*
X536595Y538536D02*
D03*
X534095Y538936D02*
D03*
X503695Y549436D02*
D03*
X501895Y551136D02*
D03*
X524795Y580336D02*
D03*
X525795Y590736D02*
D03*
X520895Y590536D02*
D03*
X522795Y544736D02*
D03*
X505895Y578636D02*
D03*
X508595Y579936D02*
D03*
X542095Y541336D02*
D03*
X538595Y531436D02*
D03*
X159940Y707610D02*
D03*
X138140Y638827D02*
D03*
X92440Y703010D02*
D03*
X112740Y633710D02*
D03*
X88940Y713210D02*
D03*
X114740Y663310D02*
D03*
X164640Y696710D02*
D03*
X112040Y639410D02*
D03*
X104040Y675010D02*
D03*
X151840Y711510D02*
D03*
X120340Y718910D02*
D03*
X128540Y717910D02*
D03*
X169640Y703710D02*
D03*
X186740Y715310D02*
D03*
X185440Y724910D02*
D03*
X139040Y699410D02*
D03*
X153440Y724010D02*
D03*
X161540Y699010D02*
D03*
X159740Y700610D02*
D03*
X148140Y652610D02*
D03*
X121940Y654610D02*
D03*
X123840Y652610D02*
D03*
X125840Y654510D02*
D03*
X150240Y665110D02*
D03*
X110140Y697510D02*
D03*
X153140Y727110D02*
D03*
X122040Y710910D02*
D03*
X147540Y648410D02*
D03*
X145040Y648810D02*
D03*
X114640Y659310D02*
D03*
X112840Y661010D02*
D03*
X135740Y690210D02*
D03*
X136740Y700610D02*
D03*
X131840Y700410D02*
D03*
X133740Y654610D02*
D03*
X116840Y688510D02*
D03*
X119540Y689810D02*
D03*
X153040Y651210D02*
D03*
X149540Y641310D02*
D03*
X289625Y707610D02*
D03*
X267825Y638827D02*
D03*
X222125Y703010D02*
D03*
X242425Y633710D02*
D03*
X218625Y713210D02*
D03*
X244425Y663310D02*
D03*
X294325Y696710D02*
D03*
X241725Y639410D02*
D03*
X233725Y675010D02*
D03*
X281525Y711510D02*
D03*
X250025Y718910D02*
D03*
X258225Y717910D02*
D03*
X299325Y703710D02*
D03*
X316425Y715310D02*
D03*
X315125Y724910D02*
D03*
X268725Y699410D02*
D03*
X283125Y724010D02*
D03*
X291225Y699010D02*
D03*
X289425Y700610D02*
D03*
X277825Y652610D02*
D03*
X251625Y654610D02*
D03*
X253525Y652610D02*
D03*
X255525Y654510D02*
D03*
X279925Y665110D02*
D03*
X239825Y697510D02*
D03*
X282825Y727110D02*
D03*
X251725Y710910D02*
D03*
X277225Y648410D02*
D03*
X274725Y648810D02*
D03*
X244325Y659310D02*
D03*
X242525Y661010D02*
D03*
X265425Y690210D02*
D03*
X266425Y700610D02*
D03*
X261525Y700410D02*
D03*
X263425Y654610D02*
D03*
X246525Y688510D02*
D03*
X249225Y689810D02*
D03*
X282725Y651210D02*
D03*
X279225Y641310D02*
D03*
X419310Y707610D02*
D03*
X397510Y638827D02*
D03*
X351810Y703010D02*
D03*
X372110Y633710D02*
D03*
X348310Y713210D02*
D03*
X374110Y663310D02*
D03*
X424010Y696710D02*
D03*
X371410Y639410D02*
D03*
X363410Y675010D02*
D03*
X411210Y711510D02*
D03*
X379710Y718910D02*
D03*
X387910Y717910D02*
D03*
X429010Y703710D02*
D03*
X446110Y715310D02*
D03*
X444810Y724910D02*
D03*
X398410Y699410D02*
D03*
X412810Y724010D02*
D03*
X420910Y699010D02*
D03*
X419110Y700610D02*
D03*
X407510Y652610D02*
D03*
X381310Y654610D02*
D03*
X383210Y652610D02*
D03*
X385210Y654510D02*
D03*
X409610Y665110D02*
D03*
X369510Y697510D02*
D03*
X412510Y727110D02*
D03*
X381410Y710910D02*
D03*
X406910Y648410D02*
D03*
X404410Y648810D02*
D03*
X374010Y659310D02*
D03*
X372210Y661010D02*
D03*
X395110Y690210D02*
D03*
X396110Y700610D02*
D03*
X391210Y700410D02*
D03*
X393110Y654610D02*
D03*
X376210Y688510D02*
D03*
X378910Y689810D02*
D03*
X412410Y651210D02*
D03*
X408910Y641310D02*
D03*
X548995Y707610D02*
D03*
X527195Y638827D02*
D03*
X481495Y703010D02*
D03*
X501795Y633710D02*
D03*
X477995Y713210D02*
D03*
X503795Y663310D02*
D03*
X553695Y696710D02*
D03*
X501095Y639410D02*
D03*
X493095Y675010D02*
D03*
X540895Y711510D02*
D03*
X509395Y718910D02*
D03*
X517595Y717910D02*
D03*
X558695Y703710D02*
D03*
X575795Y715310D02*
D03*
X574495Y724910D02*
D03*
X528095Y699410D02*
D03*
X542495Y724010D02*
D03*
X550595Y699010D02*
D03*
X548795Y700610D02*
D03*
X537195Y652610D02*
D03*
X510995Y654610D02*
D03*
X512895Y652610D02*
D03*
X514895Y654510D02*
D03*
X539295Y665110D02*
D03*
X499195Y697510D02*
D03*
X542195Y727110D02*
D03*
X511095Y710910D02*
D03*
X536595Y648410D02*
D03*
X534095Y648810D02*
D03*
X503695Y659310D02*
D03*
X501895Y661010D02*
D03*
X524795Y690210D02*
D03*
X525795Y700610D02*
D03*
X520895Y700410D02*
D03*
X522795Y654610D02*
D03*
X505895Y688510D02*
D03*
X508595Y689810D02*
D03*
X542095Y651210D02*
D03*
X538595Y641310D02*
D03*
M02*
