G04 Layer_Color=13278208*
%FSLAX25Y25*%
%MOIN*%
G70*
G01*
G75*
%ADD34C,0.01000*%
D34*
X66002Y82500D02*
X70001D01*
X72000Y84499D01*
X70001Y86499D01*
X66002D01*
X69001Y88498D02*
Y92497D01*
X72000Y94496D02*
Y97495D01*
X71000Y98495D01*
X70001Y97495D01*
Y95496D01*
X69001Y94496D01*
X68001Y95496D01*
Y98495D01*
Y104493D02*
Y101494D01*
X69001Y100494D01*
X71000D01*
X72000Y101494D01*
Y104493D01*
Y107492D02*
Y109491D01*
X71000Y110491D01*
X69001D01*
X68001Y109491D01*
Y107492D01*
X69001Y106492D01*
X71000D01*
X72000Y107492D01*
X68001Y112490D02*
X72000D01*
X70001D01*
X69001Y113490D01*
X68001Y114490D01*
Y115489D01*
X72000Y121487D02*
Y119488D01*
X71000Y118488D01*
X69001D01*
X68001Y119488D01*
Y121487D01*
X69001Y122487D01*
X70001D01*
Y118488D01*
X77740Y68740D02*
Y190740D01*
X189740Y68740D02*
Y190740D01*
X207425Y68740D02*
Y190740D01*
X319425Y68740D02*
Y190740D01*
X337110Y68740D02*
Y190740D01*
X449110Y68740D02*
Y190740D01*
X466795Y68740D02*
Y190740D01*
X578795Y68740D02*
Y190740D01*
X77740Y178614D02*
Y300614D01*
X189740Y178614D02*
Y300614D01*
X207425Y178614D02*
Y300614D01*
X319425Y178614D02*
Y300614D01*
X337110Y178614D02*
Y300614D01*
X449110Y178614D02*
Y300614D01*
X466795Y178614D02*
Y300614D01*
X578795Y178614D02*
Y300614D01*
X77740Y288488D02*
Y410488D01*
X189740Y288488D02*
Y410488D01*
X207425Y288488D02*
Y410488D01*
X319425Y288488D02*
Y410488D01*
X337110Y288488D02*
Y410488D01*
X449110Y288488D02*
Y410488D01*
X466795Y288488D02*
Y410488D01*
X578795Y288488D02*
Y410488D01*
X77740Y398362D02*
Y520362D01*
X189740Y398362D02*
Y520362D01*
X207425Y398362D02*
Y520362D01*
X319425Y398362D02*
Y520362D01*
X337110Y398362D02*
Y520362D01*
X449110Y398362D02*
Y520362D01*
X466795Y398362D02*
Y520362D01*
X578795Y398362D02*
Y520362D01*
X77740Y508236D02*
Y630236D01*
X189740Y508236D02*
Y630236D01*
X207425Y508236D02*
Y630236D01*
X319425Y508236D02*
Y630236D01*
X337110Y508236D02*
Y630236D01*
X449110Y508236D02*
Y630236D01*
X466795Y508236D02*
Y630236D01*
X578795Y508236D02*
Y630236D01*
X77740Y618110D02*
Y740110D01*
X189740Y618110D02*
Y740110D01*
X207425Y618110D02*
Y740110D01*
X319425Y618110D02*
Y740110D01*
X337110Y618110D02*
Y740110D01*
X449110Y618110D02*
Y740110D01*
X466795Y618110D02*
Y740110D01*
X578795Y618110D02*
Y740110D01*
M02*
