M48
;Layer_Color=9474304
;FILE_FORMAT=2:4
INCH,LZ
;TYPE=PLATED
T1F00S00C0.0080
T2F00S00C0.0860
T3F00S00C0.2130
;TYPE=NON_PLATED
T4F00S00C0.0276
T5F00S00C0.0390
T6F00S00C0.1181
%
T01
X052517Y008474
X05289Y008274
X05272Y008946
X05286Y009194
X05386
X0539Y009914
X05366Y009904
X05341Y009944
X05326Y010334
X05346Y010474
X05372Y010324
X05421Y010184
X05445
X05469Y009414
X05504Y009594
X05521Y010484
X05545Y010264
X05583Y010234
Y010784
Y011724
Y012554
X05529Y012544
X05536Y013334
X05583Y013344
Y013894
Y014404
X05632Y014674
X05682
X05736
X05705Y015404
X05587Y015434
X05537Y014734
X05506Y014964
X05488Y015124
X0549Y015824
X05409Y016214
X05343Y015914
X05273Y015624
X05258Y015124
X05281Y015004
X05369Y014944
X053615Y013809
X054404Y013834
X053944Y01316
X053931Y012372
X054Y011814
X05393Y011574
X054Y011334
Y011064
X054375Y011129
X05298Y011474
X05258Y011874
Y012674
X05298Y013074
Y012274
X053064Y010498
X05287Y010324
X05268Y010524
X05489Y008464
X05458Y008144
X05599
X05758Y016094
Y016594
X05758Y017103
X05745Y017554
X05599Y019131
X05458
X05489Y019451
X05469Y020401
X05504Y020581
X05445Y021171
X05421
X0539Y020901
X05366Y020891
X05341Y020931
X05386Y020181
X05286
X05272Y019933
X052517Y019461
X05289Y019261
X05298Y017724
X053199Y017844
X05422Y017774
X05425Y017464
X05388Y017224
X05348Y017024
X05583Y021221
X0522Y020181
X05227Y019481
X05151Y019061
X05124Y019071
X05018Y019421
X04994Y019411
X04954Y019671
X05011Y019991
X05025Y020401
X05064Y020871
X04988Y017714
X04986Y016414
X04994Y015944
X04974Y015474
X05019
X05073Y015254
X05153Y015674
X05111Y016154
X05094Y016954
X05176Y016854
X05173Y016524
X052306Y016598
X05198Y017074
X05163Y017434
X05209Y015104
X05229Y014244
X05248Y014084
X05218Y013074
X05138
Y012274
X05178Y012674
Y011874
X05138Y011474
X05218
Y012274
X050432Y012366
X050261Y012176
X050262Y011782
X04997Y011784
X04973Y011744
X05016Y011545
X05038Y011394
X05037Y010994
X05019Y011164
X04952Y011014
X05062Y010744
X0511Y010524
X05129Y010324
X05149Y010514
X05228Y010524
X0522Y009194
X05227Y008494
X05151Y008074
X05124Y008084
X05018Y008434
X04994Y008424
X04954Y008684
X05011Y009004
X05025Y009414
X05064Y009884
X04856Y010554
X04768Y010524
X04781Y011504
X0472Y012724
X04854Y013384
X04912Y013654
Y014304
X04993Y014544
X04992Y014814
X05059Y013914
X05086Y014044
X0511Y014034
X05033Y013564
X050427Y012766
X04931Y012564
X04815Y015364
X04776Y015634
X0478Y016384
X047184Y014989
X044391Y014674
X043851
X043351
X042861Y014404
Y013894
Y013344
X042391Y013334
X042321Y012544
X042861Y012554
Y011724
Y010784
Y010234
X042481Y010264
X042241Y010484
X042071Y009594
X041721Y009414
X041481Y010184
X041241
X040931Y009914
X040691Y009904
X040441Y009944
X040291Y010334
X040491Y010474
X040751Y010324
X040095Y010498
X039901Y010324
X039711Y010524
X039311
X038521Y010514
X038321Y010324
X038131Y010524
X037651Y010744
X037401Y010994
X037221Y011164
X037191Y011545
X037293Y011782
X037001Y011784
X037293Y012176
X037463Y012366
X037459Y012766
X037361Y013564
X037621Y013914
X037891Y014044
X038131Y014034
X038411Y013074
X039211
X038811Y012674
X038411Y012274
Y011474
X038811Y011874
X039611
Y012674
X040011Y013074
Y012274
Y011474
X039211
Y012274
X040963Y012372
X041031Y011814
X040961Y011574
X041031Y011334
Y011064
X041406Y011129
X040891Y009194
X039891
X039751Y008946
X039548Y008474
X039301Y008494
X039231Y009194
X039921Y008274
X038541Y008074
X038271Y008084
X037211Y008434
X036971Y008424
X037141Y009004
X037281Y009414
X037671Y009884
X037411Y011394
X036961Y014544
X036951Y014814
X037221Y015474
X036971Y015944
X036891Y016414
X036911Y017714
X036971Y019411
X037211Y019421
X037141Y019991
X037281Y020401
X037671Y020871
X039231Y020181
X039891
X039751Y019933
X039548Y019461
X039301Y019481
X039921Y019261
X038541Y019061
X038271Y019071
X038661Y017434
X038791Y016854
X038761Y016524
X039337Y016598
X039011Y017074
X037971Y016954
X038141Y016154
X038561Y015674
X039121Y015104
X039611Y015124
X039841Y015004
X039761Y015624
X040461Y015914
X041121Y016214
X041931Y015824
X041911Y015124
X042091Y014964
X042401Y014734
X042901Y015434
X044081Y015404
X044611Y016094
Y016594
X044611Y017103
X044481Y017554
X043021Y019131
X041611
X041921Y019451
X041721Y020401
X042071Y020581
X041481Y021171
X041241
X040931Y020901
X040691Y020891
X040441Y020931
X040891Y020181
X041251Y017774
X041281Y017464
X040911Y017224
X040511Y017024
X040231Y017844
X040011Y017724
X040721Y014944
X040646Y013809
X041435Y013834
X040975Y01316
X039511Y014084
X039321Y014244
X037761Y015254
X041921Y008464
X041611Y008144
X043021
X042861Y021221
X036571Y019671
X036771Y015474
X035181Y015364
X034791Y015634
X034831Y016384
X034216Y014989
X034231Y012724
X034841Y011504
X034711Y010524
X035591Y010554
X036551Y011014
X036761Y011744
X036341Y012564
X036151Y013654
Y014304
X035571Y013384
X031423Y014674
X030883
X030383
X029893Y014404
Y013894
Y013344
X029423Y013334
X029353Y012544
X029893Y012554
Y011724
Y010784
Y010234
X029513Y010264
X029273Y010484
X029103Y009594
X028753Y009414
X028513Y010184
X028273
X027963Y009914
X027723Y009904
X027473Y009944
X027323Y010334
X027523Y010474
X027783Y010324
X027127Y010498
X026933Y010324
X026743Y010524
X026343
X025553Y010514
X025353Y010324
X025163Y010524
X024683Y010744
X024433Y010994
X024253Y011164
X024223Y011545
X024325Y011782
X024033Y011784
X023793Y011744
X023583Y011014
X024443Y011394
X024324Y012176
X024495Y012366
X02449Y012766
X024393Y013564
X024653Y013914
X024923Y014044
X025163Y014034
X025443Y013074
X026243
X025843Y012674
X025443Y012274
Y011474
X025843Y011874
X026643
Y012674
X027043Y013074
Y012274
Y011474
X026243
Y012274
X027994Y012372
X028063Y011814
X027993Y011574
X028063Y011334
Y011064
X028438Y011129
X027923Y009194
X026923
X026783Y008946
X02658Y008474
X026333Y008494
X026263Y009194
X026953Y008274
X025573Y008074
X025303Y008084
X024243Y008434
X024003Y008424
X023603Y008684
X024173Y009004
X024313Y009414
X024703Y009884
X022623Y010554
X021743Y010524
X021873Y011504
X021263Y012724
X022603Y013384
X023183Y013654
Y014304
X023993Y014544
X023983Y014814
X023803Y015474
X024253
X024003Y015944
X023923Y016414
X023943Y017714
X024003Y019411
X024243Y019421
X024173Y019991
X024313Y020401
X024703Y020871
X026263Y020181
X026923
X026783Y019933
X02658Y019461
X026333Y019481
X026953Y019261
X025573Y019061
X025303Y019071
X025693Y017434
X025823Y016854
X025793Y016524
X026369Y016598
X026043Y017074
X025003Y016954
X025173Y016154
X025593Y015674
X026153Y015104
X026643Y015124
X026873Y015004
X026793Y015624
X027493Y015914
X028153Y016214
X028963Y015824
X028943Y015124
X029123Y014964
X029433Y014734
X029933Y015434
X031113Y015404
X031643Y016094
Y016594
X031643Y017103
X031513Y017554
X030053Y019131
X028643
X028953Y019451
X028753Y020401
X029103Y020581
X028513Y021171
X028273
X027963Y020901
X027723Y020891
X027473Y020931
X027923Y020181
X028283Y017774
X028313Y017464
X027943Y017224
X027543Y017024
X027262Y017844
X027043Y017724
X027753Y014944
X027678Y013809
X028467Y013834
X028007Y01316
X026543Y014084
X026353Y014244
X024793Y015254
X022213Y015364
X021823Y015634
X021863Y016384
X023603Y019671
X023373Y012564
X028953Y008464
X028643Y008144
X030053
X036571Y008684
X029893Y021221
X016924
X016134Y020581
X015784Y020401
X015544Y021171
X015304
X014994Y020901
X014754Y020891
X014504Y020931
X014954Y020181
X013954
X013814Y019933
X013611Y019461
X013364Y019481
X013294Y020181
X013984Y019261
X012604Y019061
X012334Y019071
X011274Y019421
X011034Y019411
X010634Y019671
X011204Y019991
X011344Y020401
X011734Y020871
X010974Y017714
X010954Y016414
X011034Y015944
X010834Y015474
X011284
X011824Y015254
X012624Y015674
X012204Y016154
X012034Y016954
X012854Y016854
X012824Y016524
X0134Y016598
X013074Y017074
X012724Y017434
X014074Y017724
X014294Y017844
X015314Y017774
X015344Y017464
X014974Y017224
X014574Y017024
X014524Y015914
X015184Y016214
X015994Y015824
X015974Y015124
X016154Y014964
X016464Y014734
X016924Y014404
Y013894
Y013344
X016454Y013334
X016384Y012544
X016924Y012554
Y011724
Y010784
Y010234
X016544Y010264
X016304Y010484
X016134Y009594
X015784Y009414
X015544Y010184
X015304
X014994Y009914
X014754Y009904
X014504Y009944
X014354Y010334
X014554Y010474
X014814Y010324
X014158Y010498
X013964Y010324
X013774Y010524
X013374
X012584Y010514
X012384Y010324
X012194Y010524
X011714Y010744
X011464Y010994
X011284Y011164
X011254Y011545
X011356Y011782
X011064Y011784
X010824Y011744
X010614Y011014
X011474Y011394
X011356Y012176
X011526Y012366
X011522Y012766
X011424Y013564
X011684Y013914
X011954Y014044
X012194Y014034
X012474Y013074
X013274
X012874Y012674
X012474Y012274
Y011474
X012874Y011874
X013674
Y012674
X014074Y013074
Y012274
Y011474
X013274
Y012274
X015026Y012372
X015094Y011814
X015024Y011574
X015094Y011334
Y011064
X015469Y011129
X014954Y009194
X013954
X013814Y008946
X013611Y008474
X013364Y008494
X013294Y009194
X013984Y008274
X012604Y008074
X012334Y008084
X011274Y008434
X011034Y008424
X010634Y008684
X011204Y009004
X011344Y009414
X011734Y009884
X009654Y010554
X008774Y010524
X008904Y011504
X008294Y012724
X009634Y013384
X010214Y013654
Y014304
X011024Y014544
X011014Y014814
X009244Y015364
X008854Y015634
X008894Y016384
X008279Y014989
X010404Y012564
X013384Y014244
X013574Y014084
X013674Y015124
X013904Y015004
X013824Y015624
X013184Y015104
X014784Y014944
X014709Y013809
X015498Y013834
X015038Y01316
X017414Y014674
X017914
X018454
X018144Y015404
X016964Y015434
X018674Y016094
Y016594
X018674Y017103
X018544Y017554
X017084Y019131
X015674
X015984Y019451
X021247Y014989
X017084Y008144
X015674
X015984Y008464
X016304Y021471
X016544Y021251
X016924Y021771
Y022711
Y023541
X016384Y023531
X016454Y024321
X016924Y024331
Y024881
Y025391
X017414Y025661
X017914
X018454
X018144Y026391
X016964Y026421
X016464Y025721
X016154Y025951
X015974Y026111
X015994Y026811
X015184Y027201
X014524Y026901
X013824Y026611
X013674Y026111
X013904Y025991
X013184Y026091
X013384Y025231
X013574Y025071
X013274Y024061
X012474
Y023261
X012874Y023661
Y022861
X012474Y022461
X013274
X014074
X013674Y022861
Y023661
X014074Y024061
Y023261
X013274
X011526Y023353
X011356Y023163
X011356Y022769
X011064Y022771
X010824Y022731
X011254Y022532
X011474Y022381
X011464Y021981
X011284Y022151
X010614Y022001
X011714Y021731
X012194Y021511
X012384Y021311
X012584Y021501
X013374Y021511
X013774
X013964Y021311
X014158Y021486
X014354Y021321
X014554Y021461
X014814Y021311
X015094Y022051
Y022321
X015024Y022561
X015094Y022801
X015026Y02336
X015038Y024147
X014709Y024797
X015498Y024821
X014784Y025931
X014574Y028011
X014974Y028211
X015344Y028451
X015314Y028761
X014294Y028831
X014074Y028711
X013984Y030249
X013611Y030449
X013364Y030469
X013294Y031169
X013954
X013814Y030921
X014954Y031169
X014994Y031889
X014754Y031879
X014504Y031919
X014354Y032309
X014554Y032449
X014814Y032299
X015304Y032159
X015544
X015784Y031389
X016134Y031569
X016304Y032459
X016544Y032239
X016924Y032209
Y032759
Y033699
Y034529
X016384Y034519
X016454Y035309
X016924Y035319
Y035869
Y036379
X017414Y036649
X017914
X018454
X016464Y036709
X015498Y035809
X014709Y035784
X015038Y035135
X015026Y034347
X015094Y033789
X015024Y033549
X015094Y033309
Y033039
X015469Y033103
X014074Y033449
X013674Y033849
X012874
X012474Y034249
Y035049
X013274
X012874Y034649
X013674
X014074Y035049
Y034249
X013274
Y033449
X012474
X012584Y032489
X012384Y032299
X012194Y032499
X011714Y032719
X011464Y032969
X011284Y033139
X011254Y033519
X011356Y033757
X011064Y033759
X010824Y033719
X010614Y032989
X011474Y033369
X011356Y03415
X011526Y03434
X011522Y034741
X011424Y035539
X011684Y035889
X011954Y036019
X012194Y036009
X013384Y036219
X013574Y036059
X011024Y036519
X011014Y036789
X010214Y036279
Y035629
X009634Y035359
X010404Y034539
X008294Y034699
X008904Y033479
X008774Y032499
X009654Y032529
X011734Y031859
X011344Y031389
X011204Y030979
X011274Y030409
X011034Y030399
X010634Y030659
X010974Y028701
X010954Y027401
X011034Y026931
X010834Y026461
X011284
X011824Y026241
X012624Y026661
X012204Y027141
X012034Y027941
X012854Y027841
X012824Y027511
X0134Y027585
X013074Y028061
X012724Y028421
X012604Y030049
X012334Y030059
X015674Y030119
X015984Y030439
X017084Y030119
X018544Y028541
X018674Y02809
X018674Y027581
Y027081
X021247Y025976
X015469Y022116
X011522Y023754
X011424Y024551
X011684Y024901
X011954Y025031
X012194Y025021
X011024Y025531
X011014Y025801
X010214Y025291
Y024641
X009634Y024371
X010404Y023551
X008294Y023711
X008904Y022491
X008774Y021511
X009654Y021541
X009244Y026351
X008854Y026621
X008894Y027371
X008279Y025976
X013374Y032499
X013774
X013964Y032299
X014158Y032473
X021743Y032499
X022623Y032529
X023583Y032989
X024253Y033139
X024433Y032969
X024443Y033369
X024223Y033519
X024325Y033757
X024033Y033759
X023793Y033719
X024324Y03415
X024495Y03434
X02449Y034741
X024393Y035539
X024653Y035889
X024923Y036019
X025163Y036009
X025443Y035049
X026243
X025843Y034649
X025443Y034249
Y033449
X025843Y033849
X026643
Y034649
X027043Y035049
Y034249
Y033449
X026243
Y034249
X027994Y034347
X028063Y033789
X027993Y033549
X028063Y033309
Y033039
X028438Y033103
X028513Y032159
X028273
X027963Y031889
X027723Y031879
X027473Y031919
X027323Y032309
X027523Y032449
X027783Y032299
X027127Y032473
X026933Y032299
X026743Y032499
X026343
X025553Y032489
X025353Y032299
X025163Y032499
X024683Y032719
X024703Y031859
X024313Y031389
X024173Y030979
X024243Y030409
X024003Y030399
X023603Y030659
X023943Y028701
X023923Y027401
X024003Y026931
X023803Y026461
X024253
X024793Y026241
X025593Y026661
X025173Y027141
X025003Y027941
X025823Y027841
X025793Y027511
X026369Y027585
X026043Y028061
X025693Y028421
X027043Y028711
X027262Y028831
X028283Y028761
X028313Y028451
X027943Y028211
X027543Y028011
X027493Y026901
X028153Y027201
X028963Y026811
X028943Y026111
X029123Y025951
X029433Y025721
X029893Y025391
Y024881
Y024331
X029423Y024321
X029353Y023531
X029893Y023541
Y022711
Y021771
X029513Y021251
X029273Y021471
X028438Y022116
X028063Y022051
Y022321
X027993Y022561
X028063Y022801
X027994Y02336
X028007Y024147
X027678Y024797
X028467Y024821
X027753Y025931
X026873Y025991
X026643Y026111
X026153Y026091
X026353Y025231
X026543Y025071
X026243Y024061
X025443
Y023261
X025843Y023661
Y022861
X025443Y022461
X026243
X027043
X026643Y022861
Y023661
X027043Y024061
Y023261
X026243
X024495Y023353
X024324Y023163
X024325Y022769
X024033Y022771
X023793Y022731
X024223Y022532
X024443Y022381
X024433Y021981
X024253Y022151
X023583Y022001
X024683Y021731
X025163Y021511
X025353Y021311
X025553Y021501
X026343Y021511
X026743
X026933Y021311
X027127Y021486
X027323Y021321
X027523Y021461
X027783Y021311
X022623Y021541
X021743Y021511
X021873Y022491
X021263Y023711
X022603Y024371
X023183Y024641
Y025291
X023993Y025531
X023983Y025801
X024653Y024901
X024923Y025031
X025163Y025021
X024393Y024551
X02449Y023754
X023373Y023551
X022213Y026351
X021823Y026621
X021863Y027371
X026793Y026611
X029933Y026421
X030383Y025661
X030883
X031423
X031113Y026391
X031643Y027081
Y027581
X031643Y02809
X031513Y028541
X030053Y030119
X028643
X028953Y030439
X028753Y031389
X029103Y031569
X029273Y032459
X029513Y032239
X029893Y032209
Y032759
Y033699
Y034529
X029353Y034519
X029423Y035309
X029893Y035319
Y035869
Y036379
X030383Y036649
X030883
X031423
X029433Y036709
X028467Y035809
X027678Y035784
X028007Y035135
X026543Y036059
X026353Y036219
X023993Y036519
X023983Y036789
X023183Y036279
Y035629
X022603Y035359
X023373Y034539
X021263Y034699
X021873Y033479
X026263Y031169
X026923
X026783Y030921
X02658Y030449
X026333Y030469
X026953Y030249
X025573Y030049
X025303Y030059
X027923Y031169
X034711Y032499
X035591Y032529
X036551Y032989
X036761Y033719
X036341Y034539
X036151Y035629
Y036279
X035571Y035359
X034231Y034699
X034841Y033479
X036571Y030659
X036771Y026461
X035181Y026351
X034791Y026621
X034831Y027371
X034216Y025976
X034231Y023711
X034841Y022491
X034711Y021511
X035591Y021541
X036551Y022001
X036761Y022731
X036341Y023551
X036151Y024641
Y025291
X035571Y024371
X037361Y024551
X037621Y024901
X037891Y025031
X038131Y025021
X038411Y024061
X039211
X038811Y023661
X038411Y023261
Y022461
X038811Y022861
X039611
Y023661
X040011Y024061
Y023261
Y022461
X039211
Y023261
X037463Y023353
X037293Y023163
X037293Y022769
X037001Y022771
X037191Y022532
X037411Y022381
X037401Y021981
X037221Y022151
X037651Y021731
X038131Y021511
X038321Y021311
X038521Y021501
X039311Y021511
X039711
X039901Y021311
X040095Y021486
X040291Y021321
X040491Y021461
X040751Y021311
X041031Y022051
Y022321
X040961Y022561
X041031Y022801
X040963Y02336
X040975Y024147
X040646Y024797
X041435Y024821
X042391Y024321
X042861Y024331
Y024881
Y025391
X043351Y025661
X043851
X044391
X044081Y026391
X042901Y026421
X042401Y025721
X042091Y025951
X041911Y026111
X041931Y026811
X041121Y027201
X040461Y026901
X039761Y026611
X039611Y026111
X039841Y025991
X039121Y026091
X039321Y025231
X039511Y025071
X040721Y025931
X040511Y028011
X040911Y028211
X041281Y028451
X041251Y028761
X040231Y028831
X040011Y028711
X039921Y030249
X039548Y030449
X039301Y030469
X039231Y031169
X039891
X039751Y030921
X040891Y031169
X040931Y031889
X040691Y031879
X040441Y031919
X040291Y032309
X040491Y032449
X040751Y032299
X041241Y032159
X041481
X041721Y031389
X042071Y031569
X042241Y032459
X042481Y032239
X042861Y032209
Y032759
Y033699
Y034529
X042321Y034519
X042391Y035309
X042861Y035319
Y035869
Y036379
X043351Y036649
X043851
X044391
X042401Y036709
X041435Y035809
X040646Y035784
X040975Y035135
X040963Y034347
X041031Y033789
X040961Y033549
X041031Y033309
Y033039
X041406Y033103
X040011Y033449
X039611Y033849
X038811
X038411Y034249
Y035049
X039211
X038811Y034649
X039611
X040011Y035049
Y034249
X039211
Y033449
X038411
X038521Y032489
X038321Y032299
X038131Y032499
X037651Y032719
X037401Y032969
X037221Y033139
X037191Y033519
X037293Y033757
X037001Y033759
X037293Y03415
X037463Y03434
X037459Y034741
X037361Y035539
X037621Y035889
X037891Y036019
X038131Y036009
X039321Y036219
X039511Y036059
X036961Y036519
X036951Y036789
X037411Y033369
X037671Y031859
X037281Y031389
X037141Y030979
X037211Y030409
X036971Y030399
X038271Y030059
X038541Y030049
X038661Y028421
X038791Y027841
X038761Y027511
X039337Y027585
X039011Y028061
X037971Y027941
X038141Y027141
X038561Y026661
X037761Y026241
X037221Y026461
X036971Y026931
X036891Y027401
X036911Y028701
X036951Y025801
X036961Y025531
X037459Y023754
X042321Y023531
X042861Y023541
Y022711
Y021771
X042481Y021251
X042241Y021471
X041406Y022116
X04781Y022491
X04768Y021511
X04856Y021541
X04952Y022001
X05019Y022151
X05037Y021981
X05038Y022381
X05016Y022532
X050262Y022769
X04997Y022771
X04973Y022731
X050261Y023163
X050432Y023353
X050427Y023754
X05033Y024551
X05059Y024901
X05086Y025031
X0511Y025021
X05138Y024061
X05218
X05178Y023661
X05138Y023261
Y022461
X05178Y022861
X05218Y022461
Y023261
X05228Y021511
X05149Y021501
X05129Y021311
X0511Y021511
X05062Y021731
X04931Y023551
X04912Y024641
Y025291
X04993Y025531
X04992Y025801
X04974Y026461
X05019
X04994Y026931
X04986Y027401
X04988Y028701
X04994Y030399
X05018Y030409
X05011Y030979
X05025Y031389
X05064Y031859
X05062Y032719
X05037Y032969
X05019Y033139
X05016Y033519
X050262Y033757
X04997Y033759
X04973Y033719
X04952Y032989
X05038Y033369
X050261Y03415
X050432Y03434
X050427Y034741
X05033Y035539
X05059Y035889
X05086Y036019
X0511Y036009
X05138Y035049
X05218
X05178Y034649
X05138Y034249
Y033449
X05178Y033849
X05218Y033449
Y034249
X05228Y032499
X05149Y032489
X05129Y032299
X0511Y032499
X0522Y031169
X05227Y030469
X05151Y030049
X05124Y030059
X05163Y028421
X05176Y027841
X05173Y027511
X052306Y027585
X05198Y028061
X05094Y027941
X05111Y027141
X05153Y026661
X05209Y026091
X05229Y025231
X05248Y025071
X05073Y026241
X04815Y026351
X04776Y026621
X0478Y027371
X047184Y025976
X0472Y023711
X04854Y024371
X044611Y027081
Y027581
X044611Y02809
X044481Y028541
X043021Y030119
X041611
X041921Y030439
X040095Y032473
X039901Y032299
X039711Y032499
X039311
X04768
X04856Y032529
X04781Y033479
X0472Y034699
X04854Y035359
X04912Y035629
Y036279
X04993Y036519
X04992Y036789
X04931Y034539
X04954Y030659
X05229Y036219
X05248Y036059
X053615Y035784
X054404Y035809
X053944Y035135
X053931Y034347
X054Y033789
X05393Y033549
X054Y033309
Y033039
X054375Y033103
X05445Y032159
X05421
X0539Y031889
X05366Y031879
X05341Y031919
X05326Y032309
X05346Y032449
X05372Y032299
X053064Y032473
X05287Y032299
X05268Y032499
X05298Y033449
X05258Y033849
Y034649
X05298Y035049
Y034249
X05529Y034519
X05583Y034529
Y035319
X05536Y035309
X05583Y035869
Y036379
X05632Y036649
X05682
X05736
X05537Y036709
X05583Y033699
Y032759
Y032209
X05545Y032239
X05521Y032459
X05504Y031569
X05469Y031389
X05386Y031169
X05286
X05272Y030921
X052517Y030449
X05289Y030249
X05298Y028711
X053199Y028831
X05422Y028761
X05425Y028451
X05388Y028211
X05348Y028011
X05343Y026901
X05409Y027201
X0549Y026811
X05488Y026111
X05506Y025951
X05537Y025721
X05583Y025391
Y024881
Y024331
X05536Y024321
X05529Y023531
X05583Y023541
Y022711
Y021771
X05545Y021251
X05521Y021471
X054375Y022116
X054Y022051
Y022321
X05393Y022561
X054Y022801
X053931Y02336
X053944Y024147
X053615Y024797
X054404Y024821
X05369Y025931
X05281Y025991
X05258Y026111
X05273Y026611
X05298Y024061
X05258Y023661
Y022861
X05298Y022461
Y023261
X053064Y021486
X05326Y021321
X05346Y021461
X05372Y021311
X05287
X05268Y021511
X05632Y025661
X05682
X05736
X05705Y026391
X05587Y026421
X05758Y027081
Y027581
X05758Y02809
X05745Y028541
X05599Y030119
X05458
X05489Y030439
X05506Y036939
X05488Y037099
X0549Y037799
X05409Y038189
X05343Y037889
X05273Y037599
X05258Y037099
X05281Y036979
X05369Y036919
X05348Y038999
X05388Y039199
X05425Y039439
X05422Y039749
X053199Y039819
X05298Y039699
X05289Y041236
X052517Y041436
X05272Y041908
X05286Y042156
X05386
X0539Y042876
X05366Y042866
X05341Y042906
X05326Y043296
X05346Y043436
X05372Y043286
X05421Y043146
X05445
X05469Y042376
X05504Y042556
X05521Y043446
X05545Y043226
X05583Y043196
Y043746
Y044686
Y045516
X05529Y045506
X05536Y046296
X05583Y046306
Y046856
Y047366
X05632Y047636
X05682
X05736
X05705Y048366
X05587Y048396
X05537Y047696
X05506Y047926
X05488Y048086
X0549Y048786
X05409Y049176
X05343Y048876
X05273Y048586
X05258Y048086
X05281Y047966
X05369Y047906
X053615Y046772
X054404Y046796
X053944Y046122
X053931Y045335
X054Y044776
X05393Y044536
X054Y044296
Y044026
X054375Y044091
X05298Y044436
X05258Y044836
Y045636
X05298Y046036
Y045236
X053064Y04346
X05287Y043286
X05268Y043486
X05489Y041426
X05458Y041106
X05599
X05745Y039529
X05758Y039077
X05758Y038569
Y038069
X05705Y037379
X05587Y037409
X05758Y049056
Y049556
X05758Y050065
X05745Y050516
X05599Y052094
X05458
X05489Y052414
X05289Y052224
X052517Y052424
X05298Y050686
X053199Y050806
X05422Y050736
X05425Y050426
X05388Y050186
X05348Y049986
X05198Y050036
X05176Y049816
X05173Y049486
X052306Y04956
X05163Y050396
X05094Y049916
X05111Y049116
X05153Y048636
X05209Y048066
X05229Y047206
X05248Y047046
X05218Y046036
X05138
Y045236
X05178Y045636
Y044836
X05138Y044436
X05218
Y045236
X050432Y045328
X050261Y045138
X050262Y044744
X04997Y044746
X04973Y044706
X05016Y044507
X05038Y044356
X05037Y043956
X05019Y044126
X04952Y043976
X05062Y043706
X0511Y043486
X05129Y043286
X05149Y043476
X05228Y043486
X0522Y042156
X05227Y041456
X05151Y041036
X05124Y041046
X05018Y041396
X04994Y041386
X04954Y041646
X05011Y041966
X05025Y042376
X05064Y042846
X04856Y043516
X04768Y043486
X04781Y044466
X0472Y045686
X04854Y046346
X04912Y046616
Y047266
X04993Y047506
X04992Y047776
X04974Y048436
X05019
X04994Y048906
X04986Y049376
X04988Y050676
X04994Y052374
X05018Y052384
X05124Y052034
X05151Y052024
X05227Y052444
X05073Y048216
X05086Y047006
X0511Y046996
X05059Y046876
X05033Y046526
X050427Y045728
X04931Y045526
X04815Y048326
X04776Y048596
X0478Y049346
X047184Y047951
X044391Y047636
X043851
X043351
X042861Y047366
Y046856
Y046306
X042391Y046296
X042321Y045506
X042861Y045516
Y044686
Y043746
Y043196
X042481Y043226
X042241Y043446
X042071Y042556
X041721Y042376
X041481Y043146
X041241
X040931Y042876
X040691Y042866
X040441Y042906
X040291Y043296
X040491Y043436
X040751Y043286
X040095Y04346
X039901Y043286
X039711Y043486
X039311
X038521Y043476
X038321Y043286
X038131Y043486
X037651Y043706
X037401Y043956
X037221Y044126
X037191Y044507
X037293Y044744
X037001Y044746
X037293Y045138
X037463Y045328
X037459Y045728
X037361Y046526
X037621Y046876
X037891Y047006
X038131Y046996
X038411Y046036
X039211
X038811Y045636
X038411Y045236
Y044436
X038811Y044836
X039611
Y045636
X040011Y046036
Y045236
Y044436
X039211
Y045236
X040963Y045335
X041031Y044776
X040961Y044536
X041031Y044296
Y044026
X041406Y044091
X040891Y042156
X039891
X039751Y041908
X039548Y041436
X039301Y041456
X039231Y042156
X039921Y041236
X038541Y041036
X038271Y041046
X037211Y041396
X036971Y041386
X037141Y041966
X037281Y042376
X037671Y042846
X037411Y044356
X036961Y047506
X036951Y047776
X037221Y048436
X036971Y048906
X036891Y049376
X036911Y050676
X036971Y052374
X037211Y052384
X038271Y052034
X038541Y052024
X039301Y052444
X039548Y052424
X039921Y052224
X040011Y050686
X040231Y050806
X041251Y050736
X041281Y050426
X040911Y050186
X040511Y049986
X040461Y048876
X041121Y049176
X041931Y048786
X041911Y048086
X042091Y047926
X042401Y047696
X042901Y048396
X044081Y048366
X044611Y049056
Y049556
X044611Y050065
X044481Y050516
X043021Y052094
X041611
X041921Y052414
X038661Y050396
X038791Y049816
X038761Y049486
X039337Y04956
X039011Y050036
X037971Y049916
X038141Y049116
X038561Y048636
X039121Y048066
X039611Y048086
X039841Y047966
X039761Y048586
X040721Y047906
X040646Y046772
X041435Y046796
X040975Y046122
X039511Y047046
X039321Y047206
X037761Y048216
X036911Y039689
X036891Y038389
X036971Y037919
X037221Y037449
X037761Y037229
X038561Y037649
X038141Y038129
X037971Y038929
X038791Y038829
X038761Y038499
X039337Y038573
X039011Y039049
X038661Y039409
X040011Y039699
X040231Y039819
X041251Y039749
X041281Y039439
X040911Y039199
X040511Y038999
X040461Y037889
X041121Y038189
X041931Y037799
X041911Y037099
X042091Y036939
X042901Y037409
X044081Y037379
X044611Y038069
Y038569
X044611Y039077
X044481Y039529
X043021Y041106
X041611
X041921Y041426
X040721Y036919
X039841Y036979
X039611Y037099
X039121Y037079
X039761Y037599
X04776Y037609
X04815Y037339
X047184Y036963
X0478Y038359
X04986Y038389
X04994Y037919
X04974Y037449
X05019
X05073Y037229
X05153Y037649
X05111Y038129
X05094Y038929
X05176Y038829
X05173Y038499
X052306Y038573
X05198Y039049
X05163Y039409
X04988Y039689
X05209Y037079
X036771Y037449
X035181Y037339
X034791Y037609
X034831Y038359
X034216Y036963
X031113Y037379
X029933Y037409
X029123Y036939
X028943Y037099
X028963Y037799
X028153Y038189
X027493Y037889
X026793Y037599
X026643Y037099
X026873Y036979
X026153Y037079
X025593Y037649
X025173Y038129
X025003Y038929
X025823Y038829
X025793Y038499
X026369Y038573
X026043Y039049
X025693Y039409
X027043Y039699
X027262Y039819
X028283Y039749
X028313Y039439
X027943Y039199
X027543Y038999
X027753Y036919
X024793Y037229
X024253Y037449
X023803
X024003Y037919
X023923Y038389
X023943Y039689
X024003Y041386
X024243Y041396
X024173Y041966
X024313Y042376
X024703Y042846
X024683Y043706
X024433Y043956
X024253Y044126
X024223Y044507
X024325Y044744
X024033Y044746
X023793Y044706
X023583Y043976
X024443Y044356
X024324Y045138
X024495Y045328
X02449Y045728
X024393Y046526
X024653Y046876
X024923Y047006
X025163Y046996
X025443Y046036
X026243
X025843Y045636
X025443Y045236
Y044436
X025843Y044836
X026643
Y045636
X027043Y046036
Y045236
Y044436
X026243
Y045236
X027994Y045335
X028063Y044776
X027993Y044536
X028063Y044296
Y044026
X028438Y044091
X028513Y043146
X028273
X027963Y042876
X027723Y042866
X027473Y042906
X027323Y043296
X027523Y043436
X027783Y043286
X027127Y04346
X026933Y043286
X026743Y043486
X026343
X025553Y043476
X025353Y043286
X025163Y043486
X026263Y042156
X026923
X026783Y041908
X02658Y041436
X026333Y041456
X026953Y041236
X025573Y041036
X025303Y041046
X023603Y041646
X022623Y043516
X021743Y043486
X021873Y044466
X021263Y045686
X022603Y046346
X023183Y046616
Y047266
X023993Y047506
X023983Y047776
X023803Y048436
X024253
X024003Y048906
X023923Y049376
X023943Y050676
X024003Y052374
X024243Y052384
X025303Y052034
X025573Y052024
X026333Y052444
X02658Y052424
X026953Y052224
X027043Y050686
X027262Y050806
X028283Y050736
X028313Y050426
X027943Y050186
X027543Y049986
X027493Y048876
X028153Y049176
X028963Y048786
X028943Y048086
X029123Y047926
X029433Y047696
X029893Y047366
Y046856
Y046306
X029423Y046296
X029353Y045506
X029893Y045516
Y044686
Y043746
Y043196
X029513Y043226
X029273Y043446
X029103Y042556
X028753Y042376
X027923Y042156
X028953Y041426
X028643Y041106
X030053
X031513Y039529
X031643Y039077
X031643Y038569
Y038069
X034711Y043486
X035591Y043516
X036551Y043976
X036761Y044706
X036341Y045526
X036151Y046616
Y047266
X035571Y046346
X034231Y045686
X034841Y044466
X034216Y047951
X034791Y048596
X035181Y048326
X034831Y049346
X036771Y048436
X031113Y048366
X030883Y047636
X030383
X031423
X031643Y049056
Y049556
X031643Y050065
X031513Y050516
X030053Y052094
X028643
X028953Y052414
X029933Y048396
X027753Y047906
X026873Y047966
X026643Y048086
X026153Y048066
X026353Y047206
X026543Y047046
X027678Y046772
X028467Y046796
X028007Y046122
X026793Y048586
X025593Y048636
X025173Y049116
X025003Y049916
X025823Y049816
X025793Y049486
X026369Y04956
X026043Y050036
X025693Y050396
X024793Y048216
X022213Y048326
X021823Y048596
X021863Y049346
X023373Y045526
X021863Y038359
X021823Y037609
X022213Y037339
X036571Y041646
X021247Y036963
X018144Y037379
X016964Y037409
X016154Y036939
X015974Y037099
X015994Y037799
X015184Y038189
X014524Y037889
X013824Y037599
X013674Y037099
X013904Y036979
X013184Y037079
X012624Y037649
X012204Y038129
X012034Y038929
X012854Y038829
X012824Y038499
X0134Y038573
X013074Y039049
X012724Y039409
X014074Y039699
X014294Y039819
X015314Y039749
X015344Y039439
X014974Y039199
X014574Y038999
X014784Y036919
X011824Y037229
X011284Y037449
X010834
X011034Y037919
X010954Y038389
X010974Y039689
X011034Y041386
X011274Y041396
X011204Y041966
X011344Y042376
X011734Y042846
X011714Y043706
X011464Y043956
X011284Y044126
X011254Y044507
X011356Y044744
X011064Y044746
X010824Y044706
X010614Y043976
X011474Y044356
X011356Y045138
X011526Y045328
X011522Y045728
X011424Y046526
X011684Y046876
X011954Y047006
X012194Y046996
X012474Y046036
X013274
X012874Y045636
X012474Y045236
Y044436
X012874Y044836
X013674
Y045636
X014074Y046036
Y045236
Y044436
X013274
Y045236
X015026Y045335
X015094Y044776
X015024Y044536
X015094Y044296
Y044026
X015469Y044091
X015544Y043146
X015304
X014994Y042876
X014754Y042866
X014504Y042906
X014354Y043296
X014554Y043436
X014814Y043286
X014158Y04346
X013964Y043286
X013774Y043486
X013374
X012584Y043476
X012384Y043286
X012194Y043486
X013294Y042156
X013954
X013814Y041908
X013611Y041436
X013364Y041456
X013984Y041236
X012604Y041036
X012334Y041046
X010634Y041646
X009654Y043516
X008774Y043486
X008904Y044466
X008294Y045686
X009634Y046346
X010214Y046616
Y047266
X011024Y047506
X011014Y047776
X010834Y048436
X011284
X011034Y048906
X010954Y049376
X010974Y050676
X011034Y052374
X011274Y052384
X012334Y052034
X012604Y052024
X013364Y052444
X013611Y052424
X013984Y052224
X014074Y050686
X014294Y050806
X015314Y050736
X015344Y050426
X014974Y050186
X014574Y049986
X014524Y048876
X015184Y049176
X015994Y048786
X015974Y048086
X016154Y047926
X016464Y047696
X016924Y047366
Y046856
Y046306
X016454Y046296
X016384Y045506
X016924Y045516
Y044686
Y043746
Y043196
X016544Y043226
X016304Y043446
X016134Y042556
X015784Y042376
X014954Y042156
X015984Y041426
X015674Y041106
X017084
X018544Y039529
X018674Y039077
X018674Y038569
Y038069
X018454Y047636
X017914
X017414
X016964Y048396
X018144Y048366
X018674Y049056
Y049556
X018674Y050065
X018544Y050516
X017084Y052094
X015674
X015984Y052414
X012724Y050396
X012854Y049816
X012824Y049486
X0134Y04956
X013074Y050036
X012034Y049916
X012204Y049116
X012624Y048636
X013184Y048066
X013674Y048086
X013904Y047966
X013824Y048586
X014784Y047906
X014709Y046772
X015498Y046796
X015038Y046122
X013574Y047046
X013384Y047206
X011824Y048216
X009244Y048326
X008854Y048596
X008894Y049346
X008279Y047951
X010404Y045526
X008894Y038359
X008854Y037609
X009244Y037339
X008279Y036963
X021247Y047951
X016924Y054184
X016544Y054214
X016304Y054434
X016924Y054734
Y055674
Y056504
X016384Y056494
X016454Y057284
X016924Y057294
Y057844
Y058354
X017414Y058624
X017914
X018454
X018144Y059354
X016964Y059384
X016464Y058684
X016154Y058914
X015974Y059074
X015994Y059774
X015184Y060164
X014524Y059864
X013824Y059574
X013674Y059074
X013904Y058954
X013184Y059054
X013384Y058194
X013574Y058034
X013274Y057024
X012474
Y056224
X012874Y056624
Y055824
X012474Y055424
X013274
X014074
X013674Y055824
Y056624
X014074Y057024
Y056224
X013274
X011526Y056315
X011356Y056125
X011356Y055732
X011064Y055734
X010824Y055694
X011254Y055494
X011474Y055344
X011464Y054944
X011284Y055114
X010614Y054964
X011714Y054694
X012194Y054474
X012384Y054274
X012584Y054464
X013374Y054474
X013774
X013964Y054274
X014158Y054448
X014354Y054284
X014554Y054424
X014814Y054274
X014754Y053854
X014994Y053864
X014504Y053894
X015304Y054134
X015544
X015784Y053364
X016134Y053544
X014954Y053144
X013954
X013814Y052895
X013294Y053144
X011344Y053364
X011204Y052954
X010634Y052634
X011734Y053834
X009654Y054504
X008774Y054474
X008904Y055454
X008294Y056674
X009634Y057334
X010214Y057604
Y058254
X011024Y058494
X011014Y058764
X010834Y059424
X011284
X011034Y059894
X010954Y060364
X010974Y061664
X011034Y063361
X011274Y063371
X011204Y063941
X011344Y064351
X011734Y064821
X011714Y065681
X011464Y065931
X011284Y066101
X011254Y066482
X011356Y066719
X011064Y066721
X010824Y066681
X010614Y065951
X011474Y066331
X011356Y067113
X011526Y067303
X011522Y067703
X012474Y068011
X013274
X012874Y067611
X012474Y067211
Y066411
X012874Y066811
X013674
Y067611
X014074Y068011
Y067211
Y066411
X013274
Y067211
X015026Y067309
X015094Y066751
X015024Y066511
X015094Y066271
Y066001
X015469Y066066
X015544Y065121
X015304
X014994Y064851
X014754Y064841
X014504Y064881
X014354Y065271
X014554Y065411
X014814Y065261
X014158Y065435
X013964Y065261
X013774Y065461
X013374
X012584Y065451
X012384Y065261
X012194Y065461
X013294Y064131
X013954
X013814Y063883
X013611Y063411
X013364Y063431
X013984Y063211
X012604Y063011
X012334Y063021
X012724Y061384
X012854Y060804
X012824Y060474
X0134Y060548
X013074Y061024
X012034Y060904
X012204Y060104
X012624Y059624
X011824Y059204
X011954Y057994
X012194Y057984
X011684Y057864
X011424Y057514
X011522Y056716
X010404Y056514
X009244Y059314
X008854Y059584
X008894Y060334
X008279Y058938
X014784Y058894
X014709Y057759
X015498Y057784
X015038Y057109
X015026Y056322
X015094Y055764
X015024Y055524
X015094Y055284
Y055014
X015469Y055078
X015344Y061414
X015314Y061724
X014974Y061174
X014574Y060974
X014294Y061793
X014074Y061674
X015674Y063081
X015984Y063401
X015784Y064351
X016134Y064531
X016304Y065421
X016544Y065201
X016924Y065171
Y065721
Y066661
Y067491
X016384Y067481
X015038Y068097
X014954Y064131
X017084Y063081
X018544Y061504
X018674Y061052
X018674Y060544
Y060044
X021247Y058938
X010634Y063621
X009654Y065491
X008774Y065461
X008904Y066441
X008294Y067661
X010404Y067501
X021263Y067661
X021873Y066441
X021743Y065461
X022623Y065491
X023583Y065951
X024253Y066101
X024433Y065931
X024443Y066331
X024223Y066482
X024325Y066719
X024033Y066721
X023793Y066681
X024324Y067113
X024495Y067303
X02449Y067703
X025443Y068011
X026243
X025843Y067611
X025443Y067211
Y066411
X025843Y066811
X026643
Y067611
X027043Y068011
Y067211
Y066411
X026243
Y067211
X027994Y067309
X028063Y066751
X027993Y066511
X028063Y066271
Y066001
X028438Y066066
X028513Y065121
X028273
X027963Y064851
X027723Y064841
X027473Y064881
X027323Y065271
X027523Y065411
X027783Y065261
X027127Y065435
X026933Y065261
X026743Y065461
X026343
X025553Y065451
X025353Y065261
X025163Y065461
X024683Y065681
X024703Y064821
X024313Y064351
X024173Y063941
X024243Y063371
X024003Y063361
X023603Y063621
X023943Y061664
X023923Y060364
X024003Y059894
X023803Y059424
X024253
X024793Y059204
X025593Y059624
X025173Y060104
X025003Y060904
X025823Y060804
X025793Y060474
X026369Y060548
X026043Y061024
X025693Y061384
X027043Y061674
X027262Y061793
X028283Y061724
X028313Y061414
X027943Y061174
X027543Y060974
X027493Y059864
X028153Y060164
X028963Y059774
X028943Y059074
X029123Y058914
X029433Y058684
X029893Y058354
Y057844
Y057294
X029423Y057284
X029353Y056494
X029893Y056504
Y055674
Y054734
Y054184
X029513Y054214
X029273Y054434
X029103Y053544
X028753Y053364
X028513Y054134
X028273
X027963Y053864
X027723Y053854
X027473Y053894
X027323Y054284
X027523Y054424
X027783Y054274
X027127Y054448
X026933Y054274
X026743Y054474
X026343
X025553Y054464
X025353Y054274
X025163Y054474
X024683Y054694
X024433Y054944
X024253Y055114
X024223Y055494
X024325Y055732
X024033Y055734
X023793Y055694
X023583Y054964
X024443Y055344
X024324Y056125
X024495Y056315
X02449Y056716
X024393Y057514
X024653Y057864
X024923Y057994
X025163Y057984
X025443Y057024
X026243
X025843Y056624
X025443Y056224
Y055424
X025843Y055824
X026643
Y056624
X027043Y057024
Y056224
Y055424
X026243
Y056224
X027994Y056322
X028063Y055764
X027993Y055524
X028063Y055284
Y055014
X028438Y055078
X027923Y053144
X026923
X026783Y052895
X026263Y053144
X024313Y053364
X024173Y052954
X023603Y052634
X024703Y053834
X022623Y054504
X021743Y054474
X021873Y055454
X021263Y056674
X022603Y057334
X023183Y057604
Y058254
X023993Y058494
X023983Y058764
X022213Y059314
X021823Y059584
X021863Y060334
X023373Y056514
X026353Y058194
X026543Y058034
X026643Y059074
X026873Y058954
X026793Y059574
X026153Y059054
X027753Y058894
X027678Y057759
X028467Y057784
X028007Y057109
X030383Y058624
X030883
X031423
X031113Y059354
X029933Y059384
X031643Y060044
Y060544
X031643Y061052
X031513Y061504
X030053Y063081
X028643
X028953Y063401
X028753Y064351
X029103Y064531
X029273Y065421
X029513Y065201
X029893Y065171
Y065721
Y066661
Y067491
X029353Y067481
X028007Y068097
X027923Y064131
X026923
X026783Y063883
X02658Y063411
X026333Y063431
X026263Y064131
X026953Y063211
X025573Y063011
X025303Y063021
X023373Y067501
X034231Y067661
X034841Y066441
X034711Y065461
X035591Y065491
X036551Y065951
X036761Y066681
X036341Y067501
X036571Y063621
X036771Y059424
X035181Y059314
X034791Y059584
X034831Y060334
X034216Y058938
X034231Y056674
X034841Y055454
X034711Y054474
X035591Y054504
X036551Y054964
X036761Y055694
X036341Y056514
X036151Y057604
Y058254
X035571Y057334
X036571Y052634
X037141Y052954
X037281Y053364
X037671Y053834
X037651Y054694
X037401Y054944
X037221Y055114
X037191Y055494
X037293Y055732
X037001Y055734
X037293Y056125
X037463Y056315
X037459Y056716
X037361Y057514
X037621Y057864
X037891Y057994
X038131Y057984
X038411Y057024
X039211
X038811Y056624
X038411Y056224
Y055424
X038811Y055824
X039611
Y056624
X040011Y057024
Y056224
Y055424
X039211
Y056224
X040963Y056322
X041031Y055764
X040961Y055524
X041031Y055284
Y055014
X041406Y055078
X041481Y054134
X041241
X040931Y053864
X040691Y053854
X040441Y053894
X040291Y054284
X040491Y054424
X040751Y054274
X040095Y054448
X039901Y054274
X039711Y054474
X039311
X038521Y054464
X038321Y054274
X038131Y054474
X037411Y055344
X036961Y058494
X036951Y058764
X037221Y059424
X036971Y059894
X036891Y060364
X036911Y061664
X036971Y063361
X037211Y063371
X037141Y063941
X037281Y064351
X037671Y064821
X037651Y065681
X037401Y065931
X037221Y066101
X037191Y066482
X037293Y066719
X037001Y066721
X037293Y067113
X037463Y067303
X037459Y067703
X038411Y068011
X039211
X038811Y067611
X038411Y067211
Y066411
X038811Y066811
X039611
Y067611
X040011Y068011
Y067211
Y066411
X039211
Y067211
X040963Y067309
X041031Y066751
X040961Y066511
X041031Y066271
Y066001
X041406Y066066
X041481Y065121
X041241
X040931Y064851
X040691Y064841
X040441Y064881
X040291Y065271
X040491Y065411
X040751Y065261
X040095Y065435
X039901Y065261
X039711Y065461
X039311
X038521Y065451
X038321Y065261
X038131Y065461
X037411Y066331
X039231Y064131
X039891
X039751Y063883
X039548Y063411
X039301Y063431
X039921Y063211
X038541Y063011
X038271Y063021
X038661Y061384
X038791Y060804
X038761Y060474
X039337Y060548
X039011Y061024
X037971Y060904
X038141Y060104
X038561Y059624
X039121Y059054
X039611Y059074
X039841Y058954
X039761Y059574
X040461Y059864
X041121Y060164
X041931Y059774
X041911Y059074
X042091Y058914
X042401Y058684
X042861Y058354
Y057844
Y057294
X042391Y057284
X042321Y056494
X042861Y056504
Y055674
Y054734
Y054184
X042481Y054214
X042241Y054434
X042071Y053544
X041721Y053364
X040891Y053144
X039891
X039751Y052895
X039231Y053144
X039321Y058194
X039511Y058034
X040646Y057759
X041435Y057784
X040975Y057109
X040721Y058894
X040511Y060974
X040911Y061174
X041281Y061414
X041251Y061724
X040231Y061793
X040011Y061674
X041611Y063081
X041921Y063401
X041721Y064351
X042071Y064531
X042241Y065421
X042481Y065201
X042861Y065171
Y065721
Y066661
Y067491
X042321Y067481
X040975Y068097
X040891Y064131
X043021Y063081
X044481Y061504
X044611Y061052
X044611Y060544
Y060044
X044081Y059354
X043851Y058624
X043351
X044391
X042901Y059384
X047184Y058938
X04776Y059584
X04815Y059314
X0478Y060334
X04986Y060364
X04994Y059894
X04974Y059424
X05019
X05073Y059204
X05153Y059624
X05111Y060104
X05094Y060904
X05176Y060804
X05173Y060474
X052306Y060548
X05198Y061024
X05163Y061384
X05151Y063011
X05124Y063021
X05018Y063371
X04994Y063361
X04954Y063621
X05011Y063941
X05025Y064351
X05064Y064821
X05062Y065681
X05037Y065931
X05019Y066101
X05016Y066482
X050262Y066719
X04997Y066721
X04973Y066681
X04952Y065951
X05038Y066331
X050261Y067113
X050432Y067303
X050427Y067703
X05138Y068011
X05218
X05178Y067611
X05138Y067211
Y066411
X05178Y066811
X05218Y066411
Y067211
X05228Y065461
X05149Y065451
X05129Y065261
X0511Y065461
X0522Y064131
X05227Y063431
X04988Y061664
X04992Y058764
X04993Y058494
X04912Y058254
Y057604
X04854Y057334
X04931Y056514
X04973Y055694
X04997Y055734
X050262Y055732
X05016Y055494
X05038Y055344
X05037Y054944
X05019Y055114
X04952Y054964
X05062Y054694
X0511Y054474
X05129Y054274
X05149Y054464
X05228Y054474
X05218Y055424
X05138
Y056224
Y057024
X05218
X05178Y056624
Y055824
X05218Y056224
X050432Y056315
X050261Y056125
X050427Y056716
X05033Y057514
X05059Y057864
X05086Y057994
X0511Y057984
X05229Y058194
X05248Y058034
X05209Y059054
X0522Y053144
X05025Y053364
X05011Y052954
X04954Y052634
X05064Y053834
X04856Y054504
X04768Y054474
X04781Y055454
X0472Y056674
X04768Y065461
X04856Y065491
X04781Y066441
X0472Y067661
X04931Y067501
X037761Y059204
X05258Y059074
X05281Y058954
X05273Y059574
X05343Y059864
X05409Y060164
X0549Y059774
X05488Y059074
X05506Y058914
X05537Y058684
X05583Y058354
Y057844
Y057294
X05536Y057284
X05529Y056494
X05583Y056504
Y055674
Y054734
Y054184
X05545Y054214
X05521Y054434
X05504Y053544
X05469Y053364
X05445Y054134
X05421
X0539Y053864
X05366Y053854
X05341Y053894
X05326Y054284
X05346Y054424
X05372Y054274
X053064Y054448
X05287Y054274
X05268Y054474
X05298Y055424
X05258Y055824
Y056624
X05298Y057024
Y056224
X053931Y056322
X054Y055764
X05393Y055524
X054Y055284
Y055014
X054375Y055078
X05386Y053144
X05286
X05272Y052895
X053944Y057109
X053615Y057759
X054404Y057784
X05369Y058894
X05348Y060974
X05388Y061174
X05425Y061414
X05422Y061724
X053199Y061793
X05298Y061674
X05289Y063211
X052517Y063411
X05272Y063883
X05286Y064131
X05386
X0539Y064851
X05366Y064841
X05341Y064881
X05326Y065271
X05346Y065411
X05372Y065261
X05421Y065121
X05445
X05469Y064351
X05504Y064531
X05521Y065421
X05545Y065201
X05583Y065171
Y065721
Y066661
Y067491
X05529Y067481
X053931Y067309
X054Y066751
X05393Y066511
X054Y066271
Y066001
X054375Y066066
X05298Y066411
X05258Y066811
Y067611
X05298Y068011
Y067211
X053944Y068097
X053064Y065435
X05287Y065261
X05268Y065461
X05489Y063401
X05458Y063081
X05599
X05745Y061504
X05758Y061052
X05758Y060544
Y060044
X05705Y059354
X05682Y058624
X05632
X05736
X05587Y059384
X05583Y068281
X05536Y068271
X05583Y068831
Y069341
X05632Y069611
X05682
X05736
X05705Y070341
X05587Y070371
X05537Y069671
X05506Y069901
X05488Y070061
X0549Y070761
X05409Y071151
X05343Y070851
X05273Y070561
X05258Y070061
X05281Y069941
X05369Y069881
X053615Y068746
X054404Y068771
X05425Y072401
X05422Y072711
X05388Y072161
X05348Y071961
X053199Y072781
X05298Y072661
X05745Y072491
X05758Y07204
X05758Y071531
Y071031
X052306Y071535
X05173Y071461
X05176Y071791
X05198Y072011
X05163Y072371
X05094Y071891
X05111Y071091
X05153Y070611
X05209Y070041
X05229Y069181
X05248Y069021
X0511Y068971
X05086Y068981
X05059Y068851
X05033Y068501
X04912Y068591
Y069241
X04993Y069481
X04992Y069751
X04974Y070411
X05019
X04994Y070881
X04986Y071351
X04988Y072651
X05073Y070191
X04815Y070301
X04776Y070571
X0478Y071321
X047184Y069926
X04854Y068321
X044391Y069611
X043851
X043351
X042861Y069341
Y068831
Y068281
X042391Y068271
X042401Y069671
X042091Y069901
X041911Y070061
X041931Y070761
X041121Y071151
X040461Y070851
X039761Y070561
X039611Y070061
X039841Y069941
X039121Y070041
X039321Y069181
X039511Y069021
X040646Y068746
X041435Y068771
X040721Y069881
X040511Y071961
X040911Y072161
X041281Y072401
X041251Y072711
X040231Y072781
X040011Y072661
X038661Y072371
X038791Y071791
X038761Y071461
X039337Y071535
X039011Y072011
X037971Y071891
X038141Y071091
X038561Y070611
X037761Y070191
X037221Y070411
X036971Y070881
X036891Y071351
X036911Y072651
X036951Y069751
X036961Y069481
X037621Y068851
X037891Y068981
X038131Y068971
X037361Y068501
X042901Y070371
X044081Y070341
X044611Y071031
Y071531
X044611Y07204
X044481Y072491
X036771Y070411
X035181Y070301
X034791Y070571
X034831Y071321
X034216Y069926
X036151Y069241
Y068591
X035571Y068321
X031423Y069611
X030883
X030383
X029893Y069341
Y068831
Y068281
X029423Y068271
X029433Y069671
X029123Y069901
X028943Y070061
X028963Y070761
X028153Y071151
X027493Y070851
X026793Y070561
X026643Y070061
X026873Y069941
X026153Y070041
X026353Y069181
X026543Y069021
X027678Y068746
X028467Y068771
X027753Y069881
X027543Y071961
X027943Y072161
X028313Y072401
X028283Y072711
X027262Y072781
X027043Y072661
X025693Y072371
X025823Y071791
X025793Y071461
X026369Y071535
X026043Y072011
X025003Y071891
X025173Y071091
X025593Y070611
X024793Y070191
X024253Y070411
X023803
X024003Y070881
X023923Y071351
X023943Y072651
X023983Y069751
X023993Y069481
X023183Y069241
Y068591
X022603Y068321
X024393Y068501
X024653Y068851
X024923Y068981
X025163Y068971
X022213Y070301
X021823Y070571
X021863Y071321
X029933Y070371
X031113Y070341
X031643Y071031
Y071531
X031643Y07204
X031513Y072491
X021247Y069926
X018454Y069611
X017914
X017414
X016924Y069341
Y068831
Y068281
X016454Y068271
X016464Y069671
X016154Y069901
X015974Y070061
X015994Y070761
X015184Y071151
X014524Y070851
X013824Y070561
X013674Y070061
X013904Y069941
X013184Y070041
X013384Y069181
X013574Y069021
X014709Y068746
X015498Y068771
X014784Y069881
X014574Y071961
X014974Y072161
X015344Y072401
X015314Y072711
X014294Y072781
X014074Y072661
X012724Y072371
X012854Y071791
X012824Y071461
X0134Y071535
X013074Y072011
X012034Y071891
X012204Y071091
X012624Y070611
X011824Y070191
X011284Y070411
X010834
X011034Y070881
X010954Y071351
X010974Y072651
X011014Y069751
X011024Y069481
X010214Y069241
Y068591
X009634Y068321
X011424Y068501
X011684Y068851
X011954Y068981
X012194Y068971
X009244Y070301
X008854Y070571
X008894Y071321
X008279Y069926
X016964Y070371
X018144Y070341
X018674Y071031
Y071531
X018674Y07204
X018544Y072491
T02
X05518Y016874
X04958Y020961
Y009974
X042211Y016874
X036611Y020961
Y009974
X023643
Y020961
X029243Y016874
X016274
X010674Y020961
Y009974
Y031949
X016274Y027861
X023643Y031949
X029243Y027861
X036611Y031949
X042211Y027861
X04958Y031949
X05518Y027861
Y038849
Y049836
X04958Y042936
X042211Y038849
Y049836
X036611Y042936
X029243Y038849
X023643Y042936
X029243Y049836
X016274
Y038849
X010674Y042936
Y053924
Y064911
X016274Y060824
X023643Y064911
X029243Y060824
X036611Y064911
Y053924
X023643
X042211Y060824
X04958Y064911
Y053924
X05518Y060824
Y071811
X042211
X029243
X016274
T03
X004724Y004724
X060929
Y076161
X004724
T04
X047115Y013884
X047824
X034855
X034147
X021887
X021178
X008918
X00821
Y024871
X008918
Y035859
X00821
X021178
Y024871
X021887
Y035859
X034147
X034855
Y024871
X034147
X047115
X047824
Y035859
X047115
Y046846
X047824
X034855
X034147
X021887
X021178
X008918
X00821
Y057834
X008918
X021178
X021887
X034147
X034855
X047115
X047824
Y068821
X047115
X034855
X034147
X021887
X021178
X008918
X00821
T05
X05663Y015734
X05743
X05703Y017734
X044061
X044461Y015734
X043661
X031493
X030693
X031093Y017734
X018124
X018524Y015734
X017724
Y026721
X018524
X018124Y028721
X031093
X031493Y026721
X030693
X043661
X044461
X044061Y028721
X05703
X05743Y026721
X05663
Y037709
X05743
X05703Y039709
X05743Y048696
X05663
X05703Y050696
X044061
X044461Y048696
X043661
X044061Y039709
X044461Y037709
X043661
X031493
X030693
X031093Y039709
X031493Y048696
X030693
X031093Y050696
X018124
X018524Y048696
X017724
X018124Y039709
X018524Y037709
X017724
Y059684
X018524
X018124Y061684
X031093
X031493Y059684
X030693
X043661
X044461
X044061Y061684
X05703
X05743Y059684
X05663
Y070671
X05743
X05703Y072671
X044061
X044461Y070671
X043661
X031493
X030693
X031093Y072671
X018124
X018524Y070671
X017724
T06
X04798Y009074
Y020061
X035011
Y009074
X022043
Y020061
X009074
Y009074
Y031049
X022043
X035011
X04798
Y042036
X035011
X022043
X009074
Y053024
Y064011
X022043
Y053024
X035011
Y064011
X04798
Y053024
M30
