M48
;Layer_Color=9474304
;FILE_FORMAT=2:4
INCH,LZ
;TYPE=PLATED
T1F00S00C0.0079
T2F00S00C0.0100
T3F00S00C0.0160
T4F00S00C0.0350
T5F00S00C0.0354
T6F00S00C0.0472
T7F00S00C0.0551
T8F00S00C0.1496
%
T01
X02705Y018033
Y018467
T02
X028Y015
X0288
X02955
X02775Y01595
X02485Y01685
X02465Y01735
X02485Y01785
T03
X016545Y014755
Y015345
X024145Y015445
X027395
X0317Y0175
X0301Y0174
X029605Y0181
X0286Y01905
X027867Y018917
X026155Y019505
X025484Y020316
X023726Y020624
X02275Y021
X023726Y022124
X0279Y0221
X02925Y0228
X03115Y02245
X031105Y020155
X030063Y019913
X029Y02025
X022976Y018624
X022974Y017124
X023463Y016737
X02495Y015919
T04
X01375Y01735
T05
X0185Y015
X0195
X02175
X02275
X025
X026
X03275Y017
X03375
Y0185
X03275
Y02
X03375
Y0215
X03275
X0205Y0235
X0195
X01675Y02175
X01575
Y02025
X01675
Y01825
X01575
Y01675
X01675
T06
X03125Y0235
X02875
X02625
X02375
X01375Y01975
Y01875
T07
X01275Y01875
Y01975
T08
X0133Y0153
X03345
Y0232
X0133
M30
