G04 Layer_Color=16711935*
%FSLAX24Y24*%
%MOIN*%
G70*
G01*
G75*
%ADD51R,0.0651X0.0651*%
%ADD52C,0.0651*%
%ADD53C,0.0721*%
%ADD54C,0.0769*%
%ADD55C,0.0060*%
%ADD56C,0.0800*%
%ADD57C,0.1175*%
%ADD58R,0.0418X0.1493*%
D51*
X20500Y23500D02*
D03*
X15750Y20250D02*
D03*
X33750Y18500D02*
D03*
X15750Y16750D02*
D03*
Y18250D02*
D03*
X22750Y15000D02*
D03*
X19500D02*
D03*
X33750Y17000D02*
D03*
Y20000D02*
D03*
X15750Y21750D02*
D03*
X26000Y15000D02*
D03*
X33750Y21500D02*
D03*
D52*
X19500Y23500D02*
D03*
X16750Y20250D02*
D03*
X32750Y18500D02*
D03*
X16750Y16750D02*
D03*
Y18250D02*
D03*
X21750Y15000D02*
D03*
X18500D02*
D03*
X32750Y17000D02*
D03*
Y20000D02*
D03*
X16750Y21750D02*
D03*
X25000Y15000D02*
D03*
X32750Y21500D02*
D03*
D53*
X31250Y23500D02*
D03*
X23750D02*
D03*
X28750D02*
D03*
X26250D02*
D03*
D54*
X13750Y19750D02*
D03*
Y18750D02*
D03*
D55*
X12750Y19750D02*
D03*
Y18750D02*
D03*
D56*
X13750Y17350D02*
D03*
D57*
X33450Y15300D02*
D03*
Y23200D02*
D03*
X13300Y15300D02*
D03*
Y23200D02*
D03*
D58*
X18550Y20187D02*
D03*
Y22313D02*
D03*
X21400Y20187D02*
D03*
Y22313D02*
D03*
X18550Y18563D02*
D03*
Y16437D02*
D03*
X21400Y18563D02*
D03*
Y16437D02*
D03*
M02*
