G04 Layer_Physical_Order=2*
G04 Layer_Color=16711680*
%FSLAX24Y24*%
%MOIN*%
G70*
G01*
G75*
%ADD19C,0.0120*%
%ADD20C,0.0661*%
%ADD21C,0.0591*%
%ADD22R,0.0591X0.0591*%
%ADD23R,0.0591X0.0591*%
%ADD24C,0.0709*%
%ADD25C,0.0300*%
%ADD26C,0.0197*%
%ADD27R,0.0358X0.1433*%
%ADD28R,0.1433X0.0358*%
G36*
X14888Y112D02*
X11426D01*
X11379Y120D01*
X11379Y162D01*
Y897D01*
X10821D01*
Y162D01*
X10821Y120D01*
X10774Y112D01*
X8526D01*
X8479Y120D01*
X8479Y162D01*
Y897D01*
X7921D01*
Y162D01*
X7921Y120D01*
X7874Y112D01*
X5626D01*
X5579Y120D01*
X5579Y162D01*
Y897D01*
X5021D01*
Y162D01*
X5021Y120D01*
X4974Y112D01*
X112D01*
Y2092D01*
X162Y2095D01*
X173Y2012D01*
X207Y1931D01*
X261Y1861D01*
X331Y1807D01*
X412Y1773D01*
X500Y1762D01*
X588Y1773D01*
X669Y1807D01*
X739Y1861D01*
X793Y1931D01*
X827Y2012D01*
X838Y2100D01*
X827Y2188D01*
X793Y2269D01*
X739Y2339D01*
X669Y2393D01*
X588Y2427D01*
X500Y2438D01*
X412Y2427D01*
X331Y2393D01*
X261Y2339D01*
X207Y2269D01*
X173Y2188D01*
X162Y2105D01*
X112Y2108D01*
Y3092D01*
X162Y3095D01*
X173Y3012D01*
X207Y2931D01*
X261Y2861D01*
X331Y2807D01*
X412Y2773D01*
X500Y2762D01*
X588Y2773D01*
X669Y2807D01*
X739Y2861D01*
X793Y2931D01*
X827Y3012D01*
X838Y3100D01*
X827Y3188D01*
X793Y3269D01*
X739Y3339D01*
X669Y3393D01*
X588Y3427D01*
X500Y3438D01*
X412Y3427D01*
X331Y3393D01*
X261Y3339D01*
X207Y3269D01*
X173Y3188D01*
X162Y3105D01*
X112Y3108D01*
Y8638D01*
X14888D01*
Y112D01*
D02*
G37*
%LPC*%
G36*
X7035Y5365D02*
X6989Y5346D01*
X6954Y5311D01*
X6935Y5265D01*
X6935Y4150D01*
X6900Y4115D01*
X4850D01*
X4804Y4096D01*
X4785Y4050D01*
Y1150D01*
X4804Y1104D01*
X4850Y1085D01*
X4986D01*
X5021Y1050D01*
Y977D01*
X5579D01*
Y1085D01*
X7886D01*
X7921Y1050D01*
Y977D01*
X8479D01*
Y1085D01*
X9634D01*
X9649Y1091D01*
X9665Y1093D01*
X9671Y1100D01*
X9680Y1104D01*
X9686Y1119D01*
X9696Y1131D01*
X9704Y1158D01*
X9712Y1181D01*
X9760Y1194D01*
X9800Y1186D01*
X9840Y1194D01*
X9888Y1181D01*
X9896Y1158D01*
X9904Y1131D01*
X9914Y1119D01*
X9920Y1104D01*
X9929Y1100D01*
X9935Y1093D01*
X9951Y1091D01*
X9966Y1085D01*
X10786D01*
X10821Y1050D01*
Y977D01*
X11379D01*
Y1085D01*
X11600D01*
X11646Y1104D01*
X11665Y1150D01*
Y4000D01*
X11646Y4046D01*
X11596Y4096D01*
X11550Y4115D01*
X9244Y4115D01*
X9240Y4114D01*
X9237Y4115D01*
X9218Y4104D01*
X9198Y4096D01*
X9166Y4130D01*
X9151Y4151D01*
X9142Y4158D01*
X9138Y4215D01*
X9350Y4427D01*
X9407Y4404D01*
X9500Y4392D01*
X9593Y4404D01*
X9679Y4440D01*
X9753Y4497D01*
X9810Y4571D01*
X9834Y4628D01*
X10145D01*
Y4395D01*
X10855D01*
Y5105D01*
X10145D01*
Y4872D01*
X9834D01*
X9810Y4929D01*
X9753Y5003D01*
X9679Y5060D01*
X9593Y5096D01*
X9500Y5108D01*
X9407Y5096D01*
X9321Y5060D01*
X9247Y5003D01*
X9190Y4929D01*
X9154Y4843D01*
X9142Y4750D01*
X9154Y4657D01*
X9177Y4600D01*
X8961Y4384D01*
X8915Y4403D01*
X8915Y5300D01*
X8896Y5346D01*
X8850Y5365D01*
X7035Y5365D01*
D02*
G37*
G36*
X12400Y5194D02*
X12298Y5181D01*
X12203Y5141D01*
X12121Y5079D01*
X12059Y4997D01*
X12019Y4902D01*
X12006Y4800D01*
X12019Y4698D01*
X12059Y4603D01*
X12121Y4521D01*
X12203Y4459D01*
X12298Y4419D01*
X12400Y4406D01*
X12502Y4419D01*
X12597Y4459D01*
X12679Y4521D01*
X12741Y4603D01*
X12781Y4698D01*
X12794Y4800D01*
X12781Y4902D01*
X12741Y4997D01*
X12679Y5079D01*
X12597Y5141D01*
X12502Y5181D01*
X12400Y5194D01*
D02*
G37*
G36*
X2105Y4855D02*
X1395D01*
Y4145D01*
X2105D01*
Y4855D01*
D02*
G37*
G36*
X750Y4858D02*
X657Y4846D01*
X571Y4810D01*
X497Y4753D01*
X440Y4679D01*
X404Y4593D01*
X392Y4500D01*
X404Y4407D01*
X440Y4321D01*
X497Y4247D01*
X571Y4190D01*
X657Y4154D01*
X750Y4142D01*
X843Y4154D01*
X929Y4190D01*
X1003Y4247D01*
X1060Y4321D01*
X1096Y4407D01*
X1108Y4500D01*
X1096Y4593D01*
X1060Y4679D01*
X1003Y4753D01*
X929Y4810D01*
X843Y4846D01*
X750Y4858D01*
D02*
G37*
G36*
X5747Y5129D02*
X4970D01*
Y4890D01*
X5747D01*
Y5129D01*
D02*
G37*
G36*
X6604D02*
X5827D01*
Y4890D01*
X6604D01*
Y5129D01*
D02*
G37*
G36*
X14000Y5358D02*
X13907Y5346D01*
X13821Y5310D01*
X13747Y5253D01*
X13690Y5179D01*
X13654Y5093D01*
X13642Y5000D01*
X13654Y4907D01*
X13690Y4821D01*
X13747Y4747D01*
X13821Y4690D01*
X13907Y4654D01*
X14000Y4642D01*
X14093Y4654D01*
X14179Y4690D01*
X14253Y4747D01*
X14310Y4821D01*
X14346Y4907D01*
X14358Y5000D01*
X14346Y5093D01*
X14310Y5179D01*
X14253Y5253D01*
X14179Y5310D01*
X14093Y5346D01*
X14000Y5358D01*
D02*
G37*
G36*
X5747Y4810D02*
X4970D01*
Y4571D01*
X5747D01*
Y4810D01*
D02*
G37*
G36*
X6604D02*
X5827D01*
Y4571D01*
X6604D01*
Y4810D01*
D02*
G37*
G36*
X14355Y4355D02*
X13645D01*
Y3645D01*
X14355D01*
Y4355D01*
D02*
G37*
G36*
X1500Y2518D02*
X1392Y2504D01*
X1291Y2462D01*
X1204Y2395D01*
X1138Y2309D01*
X1096Y2208D01*
X1082Y2100D01*
X1096Y1992D01*
X1138Y1891D01*
X1204Y1805D01*
X1291Y1738D01*
X1392Y1696D01*
X1500Y1682D01*
X1608Y1696D01*
X1709Y1738D01*
X1796Y1805D01*
X1862Y1891D01*
X1904Y1992D01*
X1918Y2100D01*
X1904Y2208D01*
X1862Y2309D01*
X1796Y2395D01*
X1709Y2462D01*
X1608Y2504D01*
X1500Y2518D01*
D02*
G37*
G36*
X11960Y2643D02*
X11806D01*
X11813Y2606D01*
X11857Y2540D01*
X11923Y2497D01*
X11960Y2489D01*
Y2643D01*
D02*
G37*
G36*
X1750Y1108D02*
X1657Y1096D01*
X1571Y1060D01*
X1497Y1003D01*
X1440Y929D01*
X1404Y843D01*
X1392Y750D01*
X1404Y657D01*
X1440Y571D01*
X1497Y497D01*
X1571Y440D01*
X1657Y404D01*
X1750Y392D01*
X1843Y404D01*
X1929Y440D01*
X2003Y497D01*
X2060Y571D01*
X2096Y657D01*
X2108Y750D01*
X2096Y843D01*
X2060Y929D01*
X2003Y1003D01*
X1929Y1060D01*
X1843Y1096D01*
X1750Y1108D01*
D02*
G37*
G36*
X1105Y1105D02*
X395D01*
Y395D01*
X1105D01*
Y1105D01*
D02*
G37*
G36*
X12194Y2643D02*
X12040D01*
Y2489D01*
X12077Y2497D01*
X12143Y2540D01*
X12187Y2606D01*
X12194Y2643D01*
D02*
G37*
G36*
X11960Y3311D02*
X11923Y3303D01*
X11857Y3260D01*
X11813Y3194D01*
X11806Y3157D01*
X11960D01*
Y3311D01*
D02*
G37*
G36*
X12040D02*
Y3157D01*
X12194D01*
X12187Y3194D01*
X12143Y3260D01*
X12077Y3303D01*
X12040Y3311D01*
D02*
G37*
G36*
X1500Y3518D02*
X1392Y3504D01*
X1291Y3462D01*
X1204Y3395D01*
X1138Y3309D01*
X1096Y3208D01*
X1082Y3100D01*
X1096Y2992D01*
X1138Y2891D01*
X1204Y2804D01*
X1291Y2738D01*
X1392Y2696D01*
X1500Y2682D01*
X1608Y2696D01*
X1709Y2738D01*
X1796Y2804D01*
X1862Y2891D01*
X1904Y2992D01*
X1918Y3100D01*
X1904Y3208D01*
X1862Y3309D01*
X1796Y3395D01*
X1709Y3462D01*
X1608Y3504D01*
X1500Y3518D01*
D02*
G37*
G36*
X12194Y3077D02*
X11806D01*
X11813Y3039D01*
X11857Y2973D01*
X11923Y2930D01*
X11943Y2925D01*
Y2875D01*
X11923Y2870D01*
X11857Y2827D01*
X11813Y2761D01*
X11806Y2723D01*
X12194D01*
X12187Y2761D01*
X12143Y2827D01*
X12077Y2870D01*
X12057Y2875D01*
Y2925D01*
X12077Y2930D01*
X12143Y2973D01*
X12187Y3039D01*
X12194Y3077D01*
D02*
G37*
G36*
X11255Y6805D02*
X10545D01*
Y6095D01*
X11255D01*
Y6805D01*
D02*
G37*
G36*
X9455Y8305D02*
X8745D01*
Y7595D01*
X9455D01*
Y8305D01*
D02*
G37*
G36*
X13960Y7960D02*
X13605D01*
Y7605D01*
X13960D01*
Y7960D01*
D02*
G37*
G36*
X14395D02*
X14040D01*
Y7605D01*
X14395D01*
Y7960D01*
D02*
G37*
G36*
X10900Y7808D02*
X10807Y7796D01*
X10721Y7760D01*
X10647Y7703D01*
X10590Y7629D01*
X10554Y7543D01*
X10542Y7450D01*
X10554Y7357D01*
X10590Y7271D01*
X10647Y7197D01*
X10721Y7140D01*
X10807Y7104D01*
X10900Y7092D01*
X10993Y7104D01*
X11079Y7140D01*
X11153Y7197D01*
X11210Y7271D01*
X11246Y7357D01*
X11258Y7450D01*
X11246Y7543D01*
X11210Y7629D01*
X11153Y7703D01*
X11079Y7760D01*
X10993Y7796D01*
X10900Y7808D01*
D02*
G37*
G36*
X5850Y8344D02*
X5748Y8331D01*
X5653Y8291D01*
X5571Y8229D01*
X5509Y8147D01*
X5469Y8052D01*
X5456Y7950D01*
X5469Y7848D01*
X5509Y7753D01*
X5571Y7671D01*
X5653Y7609D01*
X5748Y7569D01*
X5850Y7556D01*
X5952Y7569D01*
X6047Y7609D01*
X6129Y7671D01*
X6191Y7753D01*
X6231Y7848D01*
X6244Y7950D01*
X6231Y8052D01*
X6191Y8147D01*
X6129Y8229D01*
X6047Y8291D01*
X5952Y8331D01*
X5850Y8344D01*
D02*
G37*
G36*
X8100Y8308D02*
X8007Y8296D01*
X7921Y8260D01*
X7847Y8203D01*
X7790Y8129D01*
X7754Y8043D01*
X7742Y7950D01*
X7754Y7857D01*
X7790Y7771D01*
X7847Y7697D01*
X7921Y7640D01*
X8007Y7604D01*
X8100Y7592D01*
X8193Y7604D01*
X8279Y7640D01*
X8353Y7697D01*
X8410Y7771D01*
X8446Y7857D01*
X8458Y7950D01*
X8446Y8043D01*
X8410Y8129D01*
X8353Y8203D01*
X8279Y8260D01*
X8193Y8296D01*
X8100Y8308D01*
D02*
G37*
G36*
X13040Y8393D02*
Y8040D01*
X13393D01*
X13385Y8103D01*
X13345Y8199D01*
X13282Y8282D01*
X13199Y8345D01*
X13103Y8385D01*
X13040Y8393D01*
D02*
G37*
G36*
X13960Y8395D02*
X13605D01*
Y8040D01*
X13960D01*
Y8395D01*
D02*
G37*
G36*
X14395D02*
X14040D01*
Y8040D01*
X14395D01*
Y8395D01*
D02*
G37*
G36*
X12960Y7960D02*
X12607D01*
X12615Y7897D01*
X12655Y7801D01*
X12718Y7718D01*
X12801Y7655D01*
X12897Y7615D01*
X12960Y7607D01*
Y7960D01*
D02*
G37*
G36*
X13393D02*
X13040D01*
Y7607D01*
X13103Y7615D01*
X13199Y7655D01*
X13282Y7718D01*
X13345Y7801D01*
X13385Y7897D01*
X13393Y7960D01*
D02*
G37*
G36*
X12960Y8393D02*
X12897Y8385D01*
X12801Y8345D01*
X12718Y8282D01*
X12655Y8199D01*
X12615Y8103D01*
X12607Y8040D01*
X12960D01*
Y8393D01*
D02*
G37*
G36*
X13393Y6960D02*
X13040D01*
Y6607D01*
X13103Y6615D01*
X13199Y6655D01*
X13282Y6718D01*
X13345Y6801D01*
X13385Y6897D01*
X13393Y6960D01*
D02*
G37*
G36*
X13960D02*
X13605D01*
Y6605D01*
X13960D01*
Y6960D01*
D02*
G37*
G36*
X14395D02*
X14040D01*
Y6605D01*
X14395D01*
Y6960D01*
D02*
G37*
G36*
X12960D02*
X12607D01*
X12615Y6897D01*
X12655Y6801D01*
X12718Y6718D01*
X12801Y6655D01*
X12897Y6615D01*
X12960Y6607D01*
Y6960D01*
D02*
G37*
G36*
X13040Y7393D02*
Y7040D01*
X13393D01*
X13385Y7103D01*
X13345Y7199D01*
X13282Y7282D01*
X13199Y7345D01*
X13103Y7385D01*
X13040Y7393D01*
D02*
G37*
G36*
X14395Y7395D02*
X14040D01*
Y7040D01*
X14395D01*
Y7395D01*
D02*
G37*
G36*
X12960Y7393D02*
X12897Y7385D01*
X12801Y7345D01*
X12718Y7282D01*
X12655Y7199D01*
X12615Y7103D01*
X12607Y7040D01*
X12960D01*
Y7393D01*
D02*
G37*
G36*
X13960Y7395D02*
X13605D01*
Y7040D01*
X13960D01*
Y7395D01*
D02*
G37*
%LPD*%
G36*
X8850Y5300D02*
X8850Y4152D01*
X8849Y4151D01*
X8802Y4082D01*
X8786Y4000D01*
X8802Y3918D01*
X8849Y3849D01*
X8878Y3829D01*
Y2671D01*
X8849Y2651D01*
X8802Y2582D01*
X8786Y2500D01*
X8802Y2418D01*
X8849Y2349D01*
X8918Y2302D01*
X9000Y2286D01*
X9082Y2302D01*
X9151Y2349D01*
X9198Y2418D01*
X9214Y2500D01*
X9198Y2582D01*
X9151Y2651D01*
X9122Y2671D01*
Y3829D01*
X9151Y3849D01*
X9198Y3918D01*
X9214Y4000D01*
X9212Y4011D01*
X9244Y4050D01*
X11550Y4050D01*
X11600Y4000D01*
Y1150D01*
X11339D01*
Y1714D01*
X10861D01*
Y1150D01*
X9966D01*
X9951Y1200D01*
X9980Y1220D01*
X10035Y1302D01*
X10047Y1360D01*
X9553D01*
X9565Y1302D01*
X9620Y1220D01*
X9649Y1200D01*
X9634Y1150D01*
X8439D01*
Y1714D01*
X7961D01*
Y1150D01*
X5539D01*
Y1714D01*
X5061D01*
Y1150D01*
X4850D01*
Y4050D01*
X7000D01*
X7000Y5265D01*
X7035Y5300D01*
X8850Y5300D01*
D02*
G37*
%LPC*%
G36*
X9840Y2247D02*
Y2040D01*
X10047D01*
X10035Y2098D01*
X9980Y2180D01*
X9898Y2235D01*
X9840Y2247D01*
D02*
G37*
G36*
X8160Y3023D02*
X7921D01*
Y2246D01*
X8160D01*
Y3023D01*
D02*
G37*
G36*
X8479D02*
X8240D01*
Y2246D01*
X8479D01*
Y3023D01*
D02*
G37*
G36*
X5260D02*
X5021D01*
Y2246D01*
X5260D01*
Y3023D01*
D02*
G37*
G36*
X5579D02*
X5340D01*
Y2246D01*
X5579D01*
Y3023D01*
D02*
G37*
G36*
X9760Y1647D02*
X9702Y1635D01*
X9620Y1580D01*
X9565Y1498D01*
X9553Y1440D01*
X9760D01*
Y1647D01*
D02*
G37*
G36*
X7873Y5129D02*
X7096D01*
Y4890D01*
X7873D01*
Y5129D01*
D02*
G37*
G36*
X8730D02*
X7953D01*
Y4890D01*
X8730D01*
Y5129D01*
D02*
G37*
G36*
X9840Y1647D02*
Y1440D01*
X10047D01*
X10035Y1498D01*
X9980Y1580D01*
X9898Y1635D01*
X9840Y1647D01*
D02*
G37*
G36*
X9760Y2247D02*
X9702Y2235D01*
X9620Y2180D01*
X9565Y2098D01*
X9553Y2040D01*
X9760D01*
Y2247D01*
D02*
G37*
G36*
X10047Y1960D02*
X9840D01*
Y1753D01*
X9898Y1765D01*
X9980Y1820D01*
X10035Y1902D01*
X10047Y1960D01*
D02*
G37*
G36*
X9760D02*
X9553D01*
X9565Y1902D01*
X9620Y1820D01*
X9702Y1765D01*
X9760Y1753D01*
Y1960D01*
D02*
G37*
G36*
X5579Y3880D02*
X5340D01*
Y3103D01*
X5579D01*
Y3880D01*
D02*
G37*
G36*
X5260D02*
X5021D01*
Y3103D01*
X5260D01*
Y3880D01*
D02*
G37*
G36*
X7873Y4810D02*
X7096D01*
Y4571D01*
X7873D01*
Y4810D01*
D02*
G37*
G36*
X8160Y3880D02*
X7921D01*
Y3103D01*
X8160D01*
Y3880D01*
D02*
G37*
G36*
X11379D02*
X11140D01*
Y3103D01*
X11379D01*
Y3880D01*
D02*
G37*
G36*
X11060D02*
X10821D01*
Y3103D01*
X11060D01*
Y3880D01*
D02*
G37*
G36*
X8479D02*
X8240D01*
Y3103D01*
X8479D01*
Y3880D01*
D02*
G37*
G36*
X9760Y2540D02*
X9553D01*
X9565Y2482D01*
X9620Y2400D01*
X9702Y2345D01*
X9760Y2333D01*
Y2540D01*
D02*
G37*
G36*
X11379Y3023D02*
X11140D01*
Y2246D01*
X11379D01*
Y3023D01*
D02*
G37*
G36*
X11060D02*
X10821D01*
Y2246D01*
X11060D01*
Y3023D01*
D02*
G37*
G36*
X10047Y2540D02*
X9840D01*
Y2333D01*
X9898Y2345D01*
X9980Y2400D01*
X10035Y2482D01*
X10047Y2540D01*
D02*
G37*
G36*
X8730Y4810D02*
X7953D01*
Y4571D01*
X8730D01*
Y4810D01*
D02*
G37*
G36*
X9840Y2827D02*
Y2620D01*
X10047D01*
X10035Y2678D01*
X9980Y2760D01*
X9898Y2815D01*
X9840Y2827D01*
D02*
G37*
G36*
X9760D02*
X9702Y2815D01*
X9620Y2760D01*
X9565Y2678D01*
X9553Y2620D01*
X9760D01*
Y2827D01*
D02*
G37*
%LPD*%
D19*
X9000Y2500D02*
Y4000D01*
Y4250D01*
X9500Y4750D01*
X10500D01*
D20*
X12400Y4800D02*
D03*
X5850Y7950D02*
D03*
D21*
X13000Y8000D02*
D03*
Y7000D02*
D03*
X8100Y7950D02*
D03*
X10900Y7450D02*
D03*
X9500Y4750D02*
D03*
X1750Y750D02*
D03*
X14000Y5000D02*
D03*
X750Y4500D02*
D03*
D22*
X14000Y8000D02*
D03*
Y7000D02*
D03*
X9100Y7950D02*
D03*
X10500Y4750D02*
D03*
X750Y750D02*
D03*
X1750Y4500D02*
D03*
D23*
X10900Y6450D02*
D03*
X14000Y4000D02*
D03*
D24*
X1500Y2100D02*
D03*
Y3100D02*
D03*
D25*
X9000Y2500D02*
D03*
Y4000D02*
D03*
X9800Y2580D02*
D03*
Y2000D02*
D03*
Y1400D02*
D03*
D26*
X12000Y3117D02*
D03*
Y2683D02*
D03*
D27*
X11100Y937D02*
D03*
Y3063D02*
D03*
X8200Y937D02*
D03*
Y3063D02*
D03*
X5300Y937D02*
D03*
Y3063D02*
D03*
D28*
X5787Y4850D02*
D03*
X7913D02*
D03*
M02*
