M48
;Layer_Color=9474304
;FILE_FORMAT=2:4
INCH,LZ
;TYPE=PLATED
T1F00S00C0.0079
T2F00S00C0.0120
T3F00S00C0.0200
T4F00S00C0.0350
T5F00S00C0.0354
T6F00S00C0.0472
T7F00S00C0.0551
T8F00S00C0.1496
;TYPE=NON_PLATED
T9F00S00C0.0390
%
T01
X028Y016933
Y017367
T02
X0244Y01555
X0255Y01525
X0264Y0143
X02825Y01325
X03125Y01295
X03245Y0155
X0363Y0153
X03725Y01355
Y01265
X041943Y013607
X03825Y0157
X038253Y016097
X0359Y01615
Y01655
X0351
Y01615
X03355Y01575
X0348Y0181
X03365Y01965
X03265Y0196
X032104Y0206
X03265Y0216
X0363Y02135
X0369Y02225
X03715Y01975
X03995Y02315
X04325Y02305
X04275Y02095
X03125Y019
X03035Y0187
X0302Y0175
X02955
X0308Y0176
X0309Y01615
X02825Y0185
X0274Y0193
X0257
X02525Y019963
X02565Y0208
X0298Y02105
X0255Y01645
Y01585
X024Y01625
X0244Y01705
X01935Y01925
X019Y0215
T03
X039Y02165
T04
X017Y015
T05
X02665Y0224
X02765
T06
X03825Y02275
X03075Y02225
X0177Y0186
Y0176
T07
X0167Y0176
Y0186
T08
X0173Y0133
X0452
Y02245
X0173
T09
X04055Y02215
Y02295
X04255Y02255
M30
