G04 Layer_Color=65535*
%FSLAX24Y24*%
%MOIN*%
G70*
G01*
G75*
%ADD33C,0.0098*%
%ADD34C,0.0236*%
%ADD35C,0.0100*%
%ADD36C,0.0039*%
%ADD37C,0.0050*%
%ADD38C,0.0079*%
%ADD39C,0.0060*%
G36*
X19028Y22744D02*
X18842D01*
Y22009D01*
X19028D01*
Y21521D01*
X18114D01*
Y22009D01*
X18300D01*
Y22450D01*
X17839Y21815D01*
X17808D01*
X17356Y22450D01*
Y22009D01*
X17541D01*
Y21521D01*
X16628D01*
Y22009D01*
X16806D01*
Y22744D01*
X16628D01*
Y23232D01*
X17352D01*
X17816Y22589D01*
X17839D01*
X18304Y23232D01*
X19028D01*
Y22744D01*
D02*
G37*
D33*
X33673Y21049D02*
G03*
X33673Y21049I-49J0D01*
G01*
X31786Y21309D02*
G03*
X31786Y21309I-49J0D01*
G01*
X27423Y20699D02*
G03*
X27423Y20699I-49J0D01*
G01*
X25713Y20041D02*
G03*
X25713Y20041I-49J0D01*
G01*
Y18541D02*
G03*
X25713Y18541I-49J0D01*
G01*
X22713D02*
G03*
X22713Y18541I-49J0D01*
G01*
Y20041D02*
G03*
X22713Y20041I-49J0D01*
G01*
X20963D02*
G03*
X20963Y20041I-49J0D01*
G01*
Y18541D02*
G03*
X20963Y18541I-49J0D01*
G01*
X36258Y15713D02*
G03*
X36258Y15713I-49J0D01*
G01*
X34841Y16987D02*
G03*
X34841Y16987I-49J0D01*
G01*
X33763Y17091D02*
G03*
X33763Y17091I-49J0D01*
G01*
Y14191D02*
G03*
X33763Y14191I-49J0D01*
G01*
X31447Y17009D02*
G03*
X31447Y17009I-49J0D01*
G01*
X27232Y17819D02*
G03*
X27232Y17819I-49J0D01*
G01*
X24463Y14791D02*
G03*
X24463Y14791I-49J0D01*
G01*
Y16291D02*
G03*
X24463Y16291I-49J0D01*
G01*
X21886Y17709D02*
G03*
X21886Y17709I-49J0D01*
G01*
Y16209D02*
G03*
X21886Y16209I-49J0D01*
G01*
X20963Y16291D02*
G03*
X20963Y16291I-49J0D01*
G01*
Y14791D02*
G03*
X20963Y14791I-49J0D01*
G01*
D34*
X34559Y20567D02*
G03*
X34559Y20567I-118J0D01*
G01*
X28309Y20217D02*
G03*
X28309Y20217I-118J0D01*
G01*
D35*
X23397Y20482D02*
G03*
X23397Y20482I-22J0D01*
G01*
D36*
X18723Y12662D02*
Y12938D01*
X19067Y12662D02*
Y12938D01*
X18073Y12662D02*
Y12938D01*
X18417Y12662D02*
Y12938D01*
X35512Y21723D02*
X35788D01*
X35512Y22067D02*
X35788D01*
X35512Y21173D02*
X35788D01*
X35512Y21517D02*
X35788D01*
X36973Y20212D02*
Y20488D01*
X37317Y20212D02*
Y20488D01*
X36777Y20212D02*
Y20488D01*
X36433Y20212D02*
Y20488D01*
X36227Y20212D02*
Y20488D01*
X35883Y20212D02*
Y20488D01*
X34362Y21173D02*
X34638D01*
X34362Y21517D02*
X34638D01*
X31862Y21423D02*
X32138D01*
X31862Y21767D02*
X32138D01*
X31912Y19423D02*
X32188D01*
X31912Y19767D02*
X32188D01*
X30527Y20262D02*
Y20538D01*
X30183Y20262D02*
Y20538D01*
X29977Y20262D02*
Y20538D01*
X29633Y20262D02*
Y20538D01*
X30723Y19162D02*
Y19438D01*
X31067Y19162D02*
Y19438D01*
X30173Y19162D02*
Y19438D01*
X30517Y19162D02*
Y19438D01*
X29623Y19162D02*
Y19438D01*
X29967Y19162D02*
Y19438D01*
X28112Y21177D02*
X28388D01*
X28112Y20833D02*
X28388D01*
X26283Y20862D02*
Y21138D01*
X26627Y20862D02*
Y21138D01*
Y19862D02*
Y20138D01*
X26283Y19862D02*
Y20138D01*
Y18862D02*
Y19138D01*
X26627Y18862D02*
Y19138D01*
X23612Y20623D02*
X23888D01*
X23612Y20967D02*
X23888D01*
X23464Y19606D02*
X23936D01*
X23464Y20394D02*
X23936D01*
X23612Y19073D02*
X23888D01*
X23612Y19417D02*
X23888D01*
X34577Y17662D02*
Y17938D01*
X34233Y17662D02*
Y17938D01*
X34577Y14762D02*
Y15038D01*
X34233Y14762D02*
Y15038D01*
X33373Y16262D02*
Y16538D01*
X33717Y16262D02*
Y16538D01*
X32823Y16262D02*
Y16538D01*
X33167Y16262D02*
Y16538D01*
X33823Y13112D02*
Y13388D01*
X34167Y13112D02*
Y13388D01*
X31762Y17123D02*
X32038D01*
X31762Y17467D02*
X32038D01*
X31462Y15377D02*
X31738D01*
X31462Y15033D02*
X31738D01*
X30977Y16862D02*
Y17138D01*
X30633Y16862D02*
Y17138D01*
X29762Y16873D02*
X30038D01*
X29762Y17217D02*
X30038D01*
X28073Y13112D02*
Y13388D01*
X28417Y13112D02*
Y13388D01*
X26427Y16612D02*
Y16888D01*
X26083Y16612D02*
Y16888D01*
X23012Y14823D02*
X23288D01*
X23012Y15167D02*
X23288D01*
X23012Y16323D02*
X23288D01*
X23012Y16667D02*
X23288D01*
X23177Y13112D02*
Y13388D01*
X22833Y13112D02*
Y13388D01*
X19223Y15112D02*
Y15388D01*
X19567Y15112D02*
Y15388D01*
X19577Y17112D02*
Y17388D01*
X19233Y17112D02*
Y17388D01*
D37*
X16750Y16500D02*
Y17500D01*
X18750Y16500D02*
Y17500D01*
X16750D02*
X18750D01*
X16750Y16500D02*
X18750D01*
X16750Y18750D02*
Y19750D01*
X18750Y18750D02*
Y19750D01*
X16750D02*
X18750D01*
X16750Y18750D02*
X18750D01*
X23500Y12750D02*
Y13750D01*
X25500Y12750D02*
Y13750D01*
X23500D02*
X25500D01*
X23500Y12750D02*
X25500D01*
X21750Y22250D02*
Y23250D01*
X19750Y22250D02*
Y23250D01*
Y22250D02*
X21750D01*
X19750Y23250D02*
X21750D01*
X39750Y16500D02*
Y17500D01*
X37750Y16500D02*
Y17500D01*
Y16500D02*
X39750D01*
X37750Y17500D02*
X39750D01*
X21750Y12750D02*
Y13750D01*
X19750Y12750D02*
Y13750D01*
Y12750D02*
X21750D01*
X19750Y13750D02*
X21750D01*
X39750Y14750D02*
Y15750D01*
X37750Y14750D02*
Y15750D01*
Y14750D02*
X39750D01*
X37750Y15750D02*
X39750D01*
X16750Y15000D02*
Y16000D01*
X18750Y15000D02*
Y16000D01*
X16750D02*
X18750D01*
X16750Y15000D02*
X18750D01*
X14080Y19191D02*
X16520D01*
X14080Y17009D02*
X16520D01*
Y19191D01*
X14080Y17009D02*
Y19191D01*
X39750Y18250D02*
Y19250D01*
X37750Y18250D02*
Y19250D01*
Y18250D02*
X39750D01*
X37750Y19250D02*
X39750D01*
Y20000D02*
Y21000D01*
X37750Y20000D02*
Y21000D01*
Y20000D02*
X39750D01*
X37750Y21000D02*
X39750D01*
X30750Y12750D02*
Y13750D01*
X28750Y12750D02*
Y13750D01*
Y12750D02*
X30750D01*
X28750Y13750D02*
X30750D01*
X36500Y12750D02*
Y13750D01*
X34500Y12750D02*
Y13750D01*
Y12750D02*
X36500D01*
X34500Y13750D02*
X36500D01*
X16750Y20250D02*
Y21250D01*
X18750Y20250D02*
Y21250D01*
X16750D02*
X18750D01*
X16750Y20250D02*
X18750D01*
X14300Y14500D02*
Y14700D01*
X14400Y14800D01*
X14500Y14700D01*
Y14500D01*
Y14650D01*
X14300D01*
X14600Y14400D02*
Y14700D01*
X14750D01*
X14800Y14650D01*
Y14550D01*
X14750Y14500D01*
X14600D01*
X14900Y14700D02*
Y14500D01*
Y14600D01*
X14950Y14650D01*
X15000Y14700D01*
X15050D01*
X15200Y14500D02*
Y14550D01*
X15250D01*
Y14500D01*
X15200D01*
X15800Y14850D02*
Y14750D01*
X15750Y14700D01*
X15949Y14500D02*
X16049D01*
X15999D01*
Y14800D01*
X15949Y14750D01*
X16399Y14800D02*
X16199D01*
Y14650D01*
X16299Y14700D01*
X16349D01*
X16399Y14650D01*
Y14550D01*
X16349Y14500D01*
X16249D01*
X16199Y14550D01*
X14300Y15300D02*
Y15100D01*
X14400Y15000D01*
X14500Y15100D01*
Y15300D01*
X14750Y15000D02*
Y15300D01*
X14600Y15150D01*
X14800D01*
X16700Y13900D02*
Y13700D01*
X16800Y13600D01*
X16900Y13700D01*
Y13900D01*
X17000Y13600D02*
X17100D01*
X17050D01*
Y13800D01*
X17000D01*
X17250Y13600D02*
Y13800D01*
X17400D01*
X17450Y13750D01*
Y13600D01*
X19050Y13700D02*
X18750D01*
Y13850D01*
X18800Y13900D01*
X18900D01*
X18950Y13850D01*
Y13700D01*
Y13800D02*
X19050Y13900D01*
Y14200D02*
Y14000D01*
X18850Y14200D01*
X18800D01*
X18750Y14150D01*
Y14050D01*
X18800Y14000D01*
X19050Y14300D02*
Y14400D01*
Y14350D01*
X18750D01*
X18800Y14300D01*
X18450Y13400D02*
X18150D01*
Y13550D01*
X18200Y13600D01*
X18300D01*
X18350Y13550D01*
Y13400D01*
Y13500D02*
X18450Y13600D01*
Y13900D02*
Y13700D01*
X18250Y13900D01*
X18200D01*
X18150Y13850D01*
Y13750D01*
X18200Y13700D01*
Y14000D02*
X18150Y14050D01*
Y14150D01*
X18200Y14200D01*
X18400D01*
X18450Y14150D01*
Y14050D01*
X18400Y14000D01*
X18200D01*
X22150Y22850D02*
X22100Y22900D01*
X22000D01*
X21950Y22850D01*
Y22650D01*
X22000Y22600D01*
X22100D01*
X22150Y22650D01*
Y22750D01*
X22050D01*
X22250Y22600D02*
Y22900D01*
X22450Y22600D01*
Y22900D01*
X22550D02*
Y22600D01*
X22700D01*
X22750Y22650D01*
Y22850D01*
X22700Y22900D01*
X22550D01*
X22150Y13450D02*
X22200Y13500D01*
Y13600D01*
X22150Y13650D01*
X21950D01*
X21900Y13600D01*
Y13500D01*
X21950Y13450D01*
X22050D01*
Y13550D01*
X21900Y13350D02*
X22200D01*
X21900Y13150D01*
X22200D01*
Y13050D02*
X21900D01*
Y12900D01*
X21950Y12850D01*
X22150D01*
X22200Y12900D01*
Y13050D01*
X37500Y17150D02*
X37550Y17200D01*
Y17300D01*
X37500Y17350D01*
X37300D01*
X37250Y17300D01*
Y17200D01*
X37300Y17150D01*
X37400D01*
Y17250D01*
X37250Y17050D02*
X37550D01*
X37250Y16850D01*
X37550D01*
Y16750D02*
X37250D01*
Y16600D01*
X37300Y16550D01*
X37500D01*
X37550Y16600D01*
Y16750D01*
Y15600D02*
X37350D01*
X37250Y15500D01*
X37350Y15400D01*
X37550D01*
X37500Y15100D02*
X37550Y15150D01*
Y15250D01*
X37500Y15300D01*
X37300D01*
X37250Y15250D01*
Y15150D01*
X37300Y15100D01*
X37500Y14800D02*
X37550Y14850D01*
Y14950D01*
X37500Y15000D01*
X37300D01*
X37250Y14950D01*
Y14850D01*
X37300Y14800D01*
X37050Y13750D02*
X36850D01*
X36750Y13650D01*
X36850Y13550D01*
X37050D01*
X36700Y13450D02*
Y13250D01*
X37050Y12950D02*
Y13150D01*
X36750D01*
Y12950D01*
X36900Y13150D02*
Y13050D01*
X36750Y12850D02*
X37050D01*
X36750Y12650D01*
X37050D01*
X31300Y13800D02*
Y13700D01*
Y13750D01*
X31000D01*
Y13800D01*
Y13700D01*
X30950Y13550D02*
Y13350D01*
X31300Y13050D02*
Y13250D01*
X31000D01*
Y13050D01*
X31150Y13250D02*
Y13150D01*
X31000Y12950D02*
X31300D01*
X31000Y12750D01*
X31300D01*
X26000Y13750D02*
X25700D01*
X25850D01*
Y13550D01*
X26000D01*
X25700D01*
X25900Y13400D02*
Y13300D01*
X25850Y13250D01*
X25700D01*
Y13400D01*
X25750Y13450D01*
X25800Y13400D01*
Y13250D01*
X25900Y13150D02*
X25700D01*
X25800D01*
X25850Y13100D01*
X25900Y13050D01*
Y13000D01*
Y12850D02*
X25700Y12750D01*
X25900Y12650D01*
X36400Y22000D02*
X36350Y22050D01*
X36250D01*
X36200Y22000D01*
Y21800D01*
X36250Y21750D01*
X36350D01*
X36400Y21800D01*
X36500Y21750D02*
X36600D01*
X36550D01*
Y22050D01*
X36500Y22000D01*
X36950Y22050D02*
X36750D01*
Y21900D01*
X36850Y21950D01*
X36900D01*
X36950Y21900D01*
Y21800D01*
X36900Y21750D01*
X36800D01*
X36750Y21800D01*
X36760Y21432D02*
X36710Y21482D01*
X36610D01*
X36560Y21432D01*
Y21232D01*
X36610Y21182D01*
X36710D01*
X36760Y21232D01*
X36860Y21182D02*
X36960D01*
X36910D01*
Y21482D01*
X36860Y21432D01*
X37260Y21182D02*
Y21482D01*
X37110Y21332D01*
X37310D01*
X37300Y19250D02*
X37350Y19300D01*
Y19400D01*
X37300Y19450D01*
X37100D01*
X37050Y19400D01*
Y19300D01*
X37100Y19250D01*
X37050Y19150D02*
Y19050D01*
Y19100D01*
X37350D01*
X37300Y19150D01*
Y18900D02*
X37350Y18850D01*
Y18750D01*
X37300Y18700D01*
X37250D01*
X37200Y18750D01*
X37150Y18700D01*
X37100D01*
X37050Y18750D01*
Y18850D01*
X37100Y18900D01*
X37150D01*
X37200Y18850D01*
X37250Y18900D01*
X37300D01*
X37200Y18850D02*
Y18750D01*
X36450Y19800D02*
X36750D01*
Y19650D01*
X36700Y19600D01*
X36600D01*
X36550Y19650D01*
Y19800D01*
Y19700D02*
X36450Y19600D01*
Y19300D02*
Y19500D01*
X36650Y19300D01*
X36700D01*
X36750Y19350D01*
Y19450D01*
X36700Y19500D01*
X36450Y19000D02*
Y19200D01*
X36650Y19000D01*
X36700D01*
X36750Y19050D01*
Y19150D01*
X36700Y19200D01*
X35900Y19800D02*
X36200D01*
Y19650D01*
X36150Y19600D01*
X36050D01*
X36000Y19650D01*
Y19800D01*
Y19700D02*
X35900Y19600D01*
Y19500D02*
Y19400D01*
Y19450D01*
X36200D01*
X36150Y19500D01*
Y19250D02*
X36200Y19200D01*
Y19100D01*
X36150Y19050D01*
X36100D01*
X36050Y19100D01*
X36000Y19050D01*
X35950D01*
X35900Y19100D01*
Y19200D01*
X35950Y19250D01*
X36000D01*
X36050Y19200D01*
X36100Y19250D01*
X36150D01*
X36050Y19200D02*
Y19100D01*
X34100Y21700D02*
Y22000D01*
X34250D01*
X34300Y21950D01*
Y21850D01*
X34250Y21800D01*
X34100D01*
X34200D02*
X34300Y21700D01*
X34400D02*
X34500D01*
X34450D01*
Y22000D01*
X34400Y21950D01*
X34650Y21750D02*
X34700Y21700D01*
X34800D01*
X34850Y21750D01*
Y21950D01*
X34800Y22000D01*
X34700D01*
X34650Y21950D01*
Y21900D01*
X34700Y21850D01*
X34850D01*
X34300Y19550D02*
Y19300D01*
X34350Y19250D01*
X34450D01*
X34500Y19300D01*
Y19550D01*
X34750Y19250D02*
Y19550D01*
X34600Y19400D01*
X34800D01*
X31850Y22200D02*
X31800Y22250D01*
X31700D01*
X31650Y22200D01*
Y22000D01*
X31700Y21950D01*
X31800D01*
X31850Y22000D01*
X31950Y21950D02*
X32050D01*
X32000D01*
Y22250D01*
X31950Y22200D01*
X32400Y22250D02*
X32300Y22200D01*
X32200Y22100D01*
Y22000D01*
X32250Y21950D01*
X32350D01*
X32400Y22000D01*
Y22050D01*
X32350Y22100D01*
X32200D01*
X31350Y20900D02*
X31100D01*
X31050Y20850D01*
Y20750D01*
X31100Y20700D01*
X31350D01*
Y20400D02*
Y20600D01*
X31200D01*
X31250Y20500D01*
Y20450D01*
X31200Y20400D01*
X31100D01*
X31050Y20450D01*
Y20550D01*
X31100Y20600D01*
X31900Y19200D02*
X31850Y19250D01*
X31750D01*
X31700Y19200D01*
Y19000D01*
X31750Y18950D01*
X31850D01*
X31900Y19000D01*
X32000Y18950D02*
X32100D01*
X32050D01*
Y19250D01*
X32000Y19200D01*
X32250Y19250D02*
X32450D01*
Y19200D01*
X32250Y19000D01*
Y18950D01*
X30450Y21500D02*
X30500Y21550D01*
Y21650D01*
X30450Y21700D01*
X30250D01*
X30200Y21650D01*
Y21550D01*
X30250Y21500D01*
X30200Y21400D02*
Y21300D01*
Y21350D01*
X30500D01*
X30450Y21400D01*
X30200Y20950D02*
Y21150D01*
X30400Y20950D01*
X30450D01*
X30500Y21000D01*
Y21100D01*
X30450Y21150D01*
X29900Y21800D02*
X29950Y21850D01*
Y21950D01*
X29900Y22000D01*
X29700D01*
X29650Y21950D01*
Y21850D01*
X29700Y21800D01*
X29650Y21700D02*
Y21600D01*
Y21650D01*
X29950D01*
X29900Y21700D01*
Y21450D02*
X29950Y21400D01*
Y21300D01*
X29900Y21250D01*
X29850D01*
X29800Y21300D01*
Y21350D01*
Y21300D01*
X29750Y21250D01*
X29700D01*
X29650Y21300D01*
Y21400D01*
X29700Y21450D01*
X30750Y18850D02*
X31050D01*
Y18700D01*
X31000Y18650D01*
X30900D01*
X30850Y18700D01*
Y18850D01*
Y18750D02*
X30750Y18650D01*
Y18550D02*
Y18450D01*
Y18500D01*
X31050D01*
X31000Y18550D01*
X31050Y18100D02*
X31000Y18200D01*
X30900Y18300D01*
X30800D01*
X30750Y18250D01*
Y18150D01*
X30800Y18100D01*
X30850D01*
X30900Y18150D01*
Y18300D01*
X30200Y18850D02*
X30500D01*
Y18700D01*
X30450Y18650D01*
X30350D01*
X30300Y18700D01*
Y18850D01*
Y18750D02*
X30200Y18650D01*
Y18550D02*
Y18450D01*
Y18500D01*
X30500D01*
X30450Y18550D01*
X30500Y18100D02*
Y18300D01*
X30350D01*
X30400Y18200D01*
Y18150D01*
X30350Y18100D01*
X30250D01*
X30200Y18150D01*
Y18250D01*
X30250Y18300D01*
X29657Y18846D02*
X29957D01*
Y18696D01*
X29907Y18646D01*
X29807D01*
X29757Y18696D01*
Y18846D01*
Y18746D02*
X29657Y18646D01*
Y18546D02*
Y18446D01*
Y18496D01*
X29957D01*
X29907Y18546D01*
X29657Y18147D02*
X29957D01*
X29807Y18296D01*
Y18097D01*
X27900Y21350D02*
Y21650D01*
X28050D01*
X28100Y21600D01*
Y21500D01*
X28050Y21450D01*
X27900D01*
X28000D02*
X28100Y21350D01*
X28200D02*
X28300D01*
X28250D01*
Y21650D01*
X28200Y21600D01*
X28450Y21350D02*
X28550D01*
X28500D01*
Y21650D01*
X28450Y21600D01*
X28050Y19200D02*
Y18950D01*
X28100Y18900D01*
X28200D01*
X28250Y18950D01*
Y19200D01*
X28350Y19150D02*
X28400Y19200D01*
X28500D01*
X28550Y19150D01*
Y19100D01*
X28500Y19050D01*
X28450D01*
X28500D01*
X28550Y19000D01*
Y18950D01*
X28500Y18900D01*
X28400D01*
X28350Y18950D01*
X26750Y21400D02*
X27050D01*
Y21250D01*
X27000Y21200D01*
X26900D01*
X26850Y21250D01*
Y21400D01*
Y21300D02*
X26750Y21200D01*
Y20900D02*
Y21100D01*
X26950Y20900D01*
X27000D01*
X27050Y20950D01*
Y21050D01*
X27000Y21100D01*
X27050Y20600D02*
Y20800D01*
X26900D01*
X26950Y20700D01*
Y20650D01*
X26900Y20600D01*
X26800D01*
X26750Y20650D01*
Y20750D01*
X26800Y20800D01*
X26750Y20300D02*
X27050D01*
Y20150D01*
X27000Y20100D01*
X26900D01*
X26850Y20150D01*
Y20300D01*
Y20200D02*
X26750Y20100D01*
Y20000D02*
Y19900D01*
Y19950D01*
X27050D01*
X27000Y20000D01*
X27050Y19750D02*
Y19550D01*
X27000D01*
X26800Y19750D01*
X26750D01*
Y19350D02*
X27050D01*
Y19200D01*
X27000Y19150D01*
X26900D01*
X26850Y19200D01*
Y19350D01*
Y19250D02*
X26750Y19150D01*
Y18850D02*
Y19050D01*
X26950Y18850D01*
X27000D01*
X27050Y18900D01*
Y19000D01*
X27000Y19050D01*
X26750Y18600D02*
X27050D01*
X26900Y18750D01*
Y18550D01*
X24750Y21600D02*
Y21800D01*
X24700Y21850D01*
X24600D01*
X24550Y21800D01*
Y21600D01*
X24600Y21550D01*
X24700D01*
X24650Y21650D02*
X24750Y21550D01*
X24700D02*
X24750Y21600D01*
X24850Y21550D02*
X24950D01*
X24900D01*
Y21850D01*
X24850Y21800D01*
X25100Y21550D02*
X25200D01*
X25150D01*
Y21850D01*
X25100Y21800D01*
X24850Y18200D02*
Y18400D01*
X24800Y18450D01*
X24700D01*
X24650Y18400D01*
Y18200D01*
X24700Y18150D01*
X24800D01*
X24750Y18250D02*
X24850Y18150D01*
X24800D02*
X24850Y18200D01*
X24950Y18150D02*
X25050D01*
X25000D01*
Y18450D01*
X24950Y18400D01*
X25200D02*
X25250Y18450D01*
X25350D01*
X25400Y18400D01*
Y18200D01*
X25350Y18150D01*
X25250D01*
X25200Y18200D01*
Y18400D01*
X23350Y21200D02*
Y21500D01*
X23500D01*
X23550Y21450D01*
Y21350D01*
X23500Y21300D01*
X23350D01*
X23450D02*
X23550Y21200D01*
X23650D02*
X23750D01*
X23700D01*
Y21500D01*
X23650Y21450D01*
X23900D02*
X23950Y21500D01*
X24050D01*
X24100Y21450D01*
Y21400D01*
X24050Y21350D01*
X24000D01*
X24050D01*
X24100Y21300D01*
Y21250D01*
X24050Y21200D01*
X23950D01*
X23900Y21250D01*
X24650Y20250D02*
X24350D01*
Y20100D01*
X24400Y20050D01*
X24600D01*
X24650Y20100D01*
Y20250D01*
Y19750D02*
Y19950D01*
X24500D01*
X24550Y19850D01*
Y19800D01*
X24500Y19750D01*
X24400D01*
X24350Y19800D01*
Y19900D01*
X24400Y19950D01*
X23400Y18650D02*
Y18950D01*
X23550D01*
X23600Y18900D01*
Y18800D01*
X23550Y18750D01*
X23400D01*
X23500D02*
X23600Y18650D01*
X23700D02*
X23800D01*
X23750D01*
Y18950D01*
X23700Y18900D01*
X24150Y18650D02*
X23950D01*
X24150Y18850D01*
Y18900D01*
X24100Y18950D01*
X24000D01*
X23950Y18900D01*
X21489Y18407D02*
Y18607D01*
X21439Y18657D01*
X21339D01*
X21289Y18607D01*
Y18407D01*
X21339Y18357D01*
X21439D01*
X21389Y18457D02*
X21489Y18357D01*
X21439D02*
X21489Y18407D01*
X21589D02*
X21639Y18357D01*
X21739D01*
X21789Y18407D01*
Y18607D01*
X21739Y18657D01*
X21639D01*
X21589Y18607D01*
Y18557D01*
X21639Y18507D01*
X21789D01*
X21500Y21250D02*
Y21450D01*
X21450Y21500D01*
X21350D01*
X21300Y21450D01*
Y21250D01*
X21350Y21200D01*
X21450D01*
X21400Y21300D02*
X21500Y21200D01*
X21450D02*
X21500Y21250D01*
X21600Y21450D02*
X21650Y21500D01*
X21750D01*
X21800Y21450D01*
Y21400D01*
X21750Y21350D01*
X21800Y21300D01*
Y21250D01*
X21750Y21200D01*
X21650D01*
X21600Y21250D01*
Y21300D01*
X21650Y21350D01*
X21600Y21400D01*
Y21450D01*
X21650Y21350D02*
X21750D01*
X19550Y21350D02*
Y21050D01*
X19700D01*
X19750Y21100D01*
Y21300D01*
X19700Y21350D01*
X19550D01*
X20000Y21050D02*
Y21350D01*
X19850Y21200D01*
X20050D01*
X19500Y19000D02*
Y18700D01*
X19650D01*
X19700Y18750D01*
Y18950D01*
X19650Y19000D01*
X19500D01*
X19800Y18950D02*
X19850Y19000D01*
X19950D01*
X20000Y18950D01*
Y18900D01*
X19950Y18850D01*
X19900D01*
X19950D01*
X20000Y18800D01*
Y18750D01*
X19950Y18700D01*
X19850D01*
X19800Y18750D01*
X36000Y14550D02*
Y14750D01*
X35950Y14800D01*
X35850D01*
X35800Y14750D01*
Y14550D01*
X35850Y14500D01*
X35950D01*
X35900Y14600D02*
X36000Y14500D01*
X35950D02*
X36000Y14550D01*
X36300Y14800D02*
X36200Y14750D01*
X36100Y14650D01*
Y14550D01*
X36150Y14500D01*
X36250D01*
X36300Y14550D01*
Y14600D01*
X36250Y14650D01*
X36100D01*
X36050Y17900D02*
Y18100D01*
X36000Y18150D01*
X35900D01*
X35850Y18100D01*
Y17900D01*
X35900Y17850D01*
X36000D01*
X35950Y17950D02*
X36050Y17850D01*
X36000D02*
X36050Y17900D01*
X36150Y17850D02*
X36250D01*
X36200D01*
Y18150D01*
X36150Y18100D01*
X36600Y17850D02*
X36400D01*
X36600Y18050D01*
Y18100D01*
X36550Y18150D01*
X36450D01*
X36400Y18100D01*
X34600Y18350D02*
X34300D01*
Y18500D01*
X34350Y18550D01*
X34450D01*
X34500Y18500D01*
Y18350D01*
Y18450D02*
X34600Y18550D01*
X34350Y18650D02*
X34300Y18700D01*
Y18800D01*
X34350Y18850D01*
X34400D01*
X34450Y18800D01*
X34500Y18850D01*
X34550D01*
X34600Y18800D01*
Y18700D01*
X34550Y18650D01*
X34500D01*
X34450Y18700D01*
X34400Y18650D01*
X34350D01*
X34450Y18700D02*
Y18800D01*
X33550Y18600D02*
Y18800D01*
X33500Y18850D01*
X33400D01*
X33350Y18800D01*
Y18600D01*
X33400Y18550D01*
X33500D01*
X33450Y18650D02*
X33550Y18550D01*
X33500D02*
X33550Y18600D01*
X33650Y18850D02*
X33850D01*
Y18800D01*
X33650Y18600D01*
Y18550D01*
X34150Y14050D02*
Y14350D01*
X34300D01*
X34350Y14300D01*
Y14200D01*
X34300Y14150D01*
X34150D01*
X34250D02*
X34350Y14050D01*
X34450Y14100D02*
X34500Y14050D01*
X34600D01*
X34650Y14100D01*
Y14300D01*
X34600Y14350D01*
X34500D01*
X34450Y14300D01*
Y14250D01*
X34500Y14200D01*
X34650D01*
X34450Y16300D02*
X34400Y16250D01*
Y16150D01*
X34450Y16100D01*
X34650D01*
X34700Y16150D01*
Y16250D01*
X34650Y16300D01*
X34700Y16600D02*
Y16400D01*
X34500Y16600D01*
X34450D01*
X34400Y16550D01*
Y16450D01*
X34450Y16400D01*
X34000Y16350D02*
X33950Y16300D01*
Y16200D01*
X34000Y16150D01*
X34200D01*
X34250Y16200D01*
Y16300D01*
X34200Y16350D01*
X34250Y16450D02*
Y16550D01*
Y16500D01*
X33950D01*
X34000Y16450D01*
X33350Y12800D02*
X33050D01*
Y12950D01*
X33100Y13000D01*
X33200D01*
X33250Y12950D01*
Y12800D01*
Y12900D02*
X33350Y13000D01*
Y13100D02*
Y13200D01*
Y13150D01*
X33050D01*
X33100Y13100D01*
Y13350D02*
X33050Y13400D01*
Y13500D01*
X33100Y13550D01*
X33300D01*
X33350Y13500D01*
Y13400D01*
X33300Y13350D01*
X33100D01*
X33200Y13850D02*
Y14050D01*
X33150Y14100D01*
X33050D01*
X33000Y14050D01*
Y13850D01*
X33050Y13800D01*
X33150D01*
X33100Y13900D02*
X33200Y13800D01*
X33150D02*
X33200Y13850D01*
X33500Y14100D02*
X33300D01*
Y13950D01*
X33400Y14000D01*
X33450D01*
X33500Y13950D01*
Y13850D01*
X33450Y13800D01*
X33350D01*
X33300Y13850D01*
X32450Y17300D02*
Y17050D01*
X32500Y17000D01*
X32600D01*
X32650Y17050D01*
Y17300D01*
X32750Y17000D02*
X32850D01*
X32800D01*
Y17300D01*
X32750Y17250D01*
X31650Y17650D02*
Y17950D01*
X31800D01*
X31850Y17900D01*
Y17800D01*
X31800Y17750D01*
X31650D01*
X31750D02*
X31850Y17650D01*
X32150Y17950D02*
X31950D01*
Y17800D01*
X32050Y17850D01*
X32100D01*
X32150Y17800D01*
Y17700D01*
X32100Y17650D01*
X32000D01*
X31950Y17700D01*
X31350Y14550D02*
Y14850D01*
X31500D01*
X31550Y14800D01*
Y14700D01*
X31500Y14650D01*
X31350D01*
X31450D02*
X31550Y14550D01*
X31850Y14850D02*
X31750Y14800D01*
X31650Y14700D01*
Y14600D01*
X31700Y14550D01*
X31800D01*
X31850Y14600D01*
Y14650D01*
X31800Y14700D01*
X31650D01*
X30650Y16200D02*
X30700Y16250D01*
Y16350D01*
X30650Y16400D01*
X30450D01*
X30400Y16350D01*
Y16250D01*
X30450Y16200D01*
X30650Y16100D02*
X30700Y16050D01*
Y15950D01*
X30650Y15900D01*
X30600D01*
X30550Y15950D01*
Y16000D01*
Y15950D01*
X30500Y15900D01*
X30450D01*
X30400Y15950D01*
Y16050D01*
X30450Y16100D01*
X29800Y17950D02*
X29750Y18000D01*
X29650D01*
X29600Y17950D01*
Y17750D01*
X29650Y17700D01*
X29750D01*
X29800Y17750D01*
X29900Y17700D02*
X30000D01*
X29950D01*
Y18000D01*
X29900Y17950D01*
X30150Y17700D02*
X30250D01*
X30200D01*
Y18000D01*
X30150Y17950D01*
X27850Y13850D02*
Y14150D01*
X28000D01*
X28050Y14100D01*
Y14000D01*
X28000Y13950D01*
X27850D01*
X27950D02*
X28050Y13850D01*
X28350D02*
X28150D01*
X28350Y14050D01*
Y14100D01*
X28300Y14150D01*
X28200D01*
X28150Y14100D01*
X28450D02*
X28500Y14150D01*
X28600D01*
X28650Y14100D01*
Y14050D01*
X28600Y14000D01*
X28550D01*
X28600D01*
X28650Y13950D01*
Y13900D01*
X28600Y13850D01*
X28500D01*
X28450Y13900D01*
X29500Y14450D02*
X29450Y14500D01*
X29350D01*
X29300Y14450D01*
Y14250D01*
X29350Y14200D01*
X29450D01*
X29500Y14250D01*
X29600Y14200D02*
X29700D01*
X29650D01*
Y14500D01*
X29600Y14450D01*
X29850D02*
X29900Y14500D01*
X30000D01*
X30050Y14450D01*
Y14250D01*
X30000Y14200D01*
X29900D01*
X29850Y14250D01*
Y14450D01*
X27750Y18300D02*
Y18050D01*
X27800Y18000D01*
X27900D01*
X27950Y18050D01*
Y18300D01*
X28250Y18000D02*
X28050D01*
X28250Y18200D01*
Y18250D01*
X28200Y18300D01*
X28100D01*
X28050Y18250D01*
X27800Y15200D02*
Y14900D01*
X28000D01*
X28100D02*
X28200D01*
X28150D01*
Y15200D01*
X28100Y15150D01*
X25600Y14850D02*
X25550Y14900D01*
X25450D01*
X25400Y14850D01*
Y14650D01*
X25450Y14600D01*
X25550D01*
X25600Y14650D01*
X25700Y14850D02*
X25750Y14900D01*
X25850D01*
X25900Y14850D01*
Y14800D01*
X25850Y14750D01*
X25900Y14700D01*
Y14650D01*
X25850Y14600D01*
X25750D01*
X25700Y14650D01*
Y14700D01*
X25750Y14750D01*
X25700Y14800D01*
Y14850D01*
X25750Y14750D02*
X25850D01*
X25660Y16937D02*
X25610Y16987D01*
X25510D01*
X25460Y16937D01*
Y16737D01*
X25510Y16687D01*
X25610D01*
X25660Y16737D01*
X25760D02*
X25810Y16687D01*
X25910D01*
X25960Y16737D01*
Y16937D01*
X25910Y16987D01*
X25810D01*
X25760Y16937D01*
Y16887D01*
X25810Y16837D01*
X25960D01*
X22900Y14350D02*
Y14650D01*
X23050D01*
X23100Y14600D01*
Y14500D01*
X23050Y14450D01*
X22900D01*
X23000D02*
X23100Y14350D01*
X23400D02*
X23200D01*
X23400Y14550D01*
Y14600D01*
X23350Y14650D01*
X23250D01*
X23200Y14600D01*
X23950Y14450D02*
Y14650D01*
X23900Y14700D01*
X23800D01*
X23750Y14650D01*
Y14450D01*
X23800Y14400D01*
X23900D01*
X23850Y14500D02*
X23950Y14400D01*
X23900D02*
X23950Y14450D01*
X24200Y14400D02*
Y14700D01*
X24050Y14550D01*
X24250D01*
X24350Y17750D02*
Y17950D01*
X24300Y18000D01*
X24200D01*
X24150Y17950D01*
Y17750D01*
X24200Y17700D01*
X24300D01*
X24250Y17800D02*
X24350Y17700D01*
X24300D02*
X24350Y17750D01*
X24450Y17950D02*
X24500Y18000D01*
X24600D01*
X24650Y17950D01*
Y17900D01*
X24600Y17850D01*
X24550D01*
X24600D01*
X24650Y17800D01*
Y17750D01*
X24600Y17700D01*
X24500D01*
X24450Y17750D01*
X23000Y15874D02*
Y16174D01*
X23150D01*
X23200Y16124D01*
Y16024D01*
X23150Y15974D01*
X23000D01*
X23100D02*
X23200Y15874D01*
X23300D02*
X23400D01*
X23350D01*
Y16174D01*
X23300Y16124D01*
X22300Y17850D02*
Y18050D01*
X22250Y18100D01*
X22150D01*
X22100Y18050D01*
Y17850D01*
X22150Y17800D01*
X22250D01*
X22200Y17900D02*
X22300Y17800D01*
X22250D02*
X22300Y17850D01*
X22400Y17800D02*
X22500D01*
X22450D01*
Y18100D01*
X22400Y18050D01*
X22800Y13800D02*
Y14100D01*
X22950D01*
X23000Y14050D01*
Y13950D01*
X22950Y13900D01*
X22800D01*
X22900D02*
X23000Y13800D01*
X23100Y14100D02*
X23300D01*
Y14050D01*
X23100Y13850D01*
Y13800D01*
X22150Y14400D02*
Y14600D01*
X22100Y14650D01*
X22000D01*
X21950Y14600D01*
Y14400D01*
X22000Y14350D01*
X22100D01*
X22050Y14450D02*
X22150Y14350D01*
X22100D02*
X22150Y14400D01*
X22450Y14350D02*
X22250D01*
X22450Y14550D01*
Y14600D01*
X22400Y14650D01*
X22300D01*
X22250Y14600D01*
X20550Y18050D02*
Y17750D01*
X20700D01*
X20750Y17800D01*
Y18000D01*
X20700Y18050D01*
X20550D01*
X20850Y17750D02*
X20950D01*
X20900D01*
Y18050D01*
X20850Y18000D01*
X20500Y14600D02*
Y14300D01*
X20650D01*
X20700Y14350D01*
Y14550D01*
X20650Y14600D01*
X20500D01*
X21000Y14300D02*
X20800D01*
X21000Y14500D01*
Y14550D01*
X20950Y14600D01*
X20850D01*
X20800Y14550D01*
X19550Y15850D02*
X19250D01*
Y16000D01*
X19300Y16050D01*
X19400D01*
X19450Y16000D01*
Y15850D01*
Y15950D02*
X19550Y16050D01*
Y16300D02*
X19250D01*
X19400Y16150D01*
Y16350D01*
X19550Y17850D02*
X19250D01*
Y18000D01*
X19300Y18050D01*
X19400D01*
X19450Y18000D01*
Y17850D01*
Y17950D02*
X19550Y18050D01*
X19300Y18150D02*
X19250Y18200D01*
Y18300D01*
X19300Y18350D01*
X19350D01*
X19400Y18300D01*
Y18250D01*
Y18300D01*
X19450Y18350D01*
X19500D01*
X19550Y18300D01*
Y18200D01*
X19500Y18150D01*
D38*
X34047Y19740D02*
Y20960D01*
X34953Y19740D02*
Y20960D01*
X34047D02*
X34953D01*
X34047Y19740D02*
X34953D01*
X32426Y20009D02*
Y20324D01*
X32150Y20009D02*
X32426D01*
Y20876D02*
Y21191D01*
X32150D02*
X32426D01*
X27797Y19390D02*
Y20610D01*
X28703Y19390D02*
Y20610D01*
X27797D02*
X28703D01*
X27797Y19390D02*
X28703D01*
X24974Y21026D02*
Y21341D01*
X25250D01*
X24974Y20159D02*
Y20474D01*
Y20159D02*
X25250D01*
X24974Y19526D02*
Y19841D01*
X25250D01*
X24974Y18659D02*
Y18974D01*
Y18659D02*
X25250D01*
X21974Y19526D02*
Y19841D01*
X22250D01*
X21974Y18659D02*
Y18974D01*
Y18659D02*
X22250D01*
X21974Y21026D02*
Y21341D01*
X22250D01*
X21974Y20159D02*
Y20474D01*
Y20159D02*
X22250D01*
X20224Y21026D02*
Y21341D01*
X20500D01*
X20224Y20159D02*
Y20474D01*
Y20159D02*
X20500D01*
X20224Y19526D02*
Y19841D01*
X20500D01*
X20224Y18659D02*
Y18974D01*
Y18659D02*
X20500D01*
X34909Y15024D02*
X35224D01*
X34909D02*
Y15300D01*
X35776Y15024D02*
X36091D01*
Y15300D01*
X35776Y17676D02*
X36091D01*
Y17400D02*
Y17676D01*
X34909D02*
X35224D01*
X34909Y17400D02*
Y17676D01*
X33024Y18076D02*
Y18391D01*
X33300D01*
X33024Y17209D02*
Y17524D01*
Y17209D02*
X33300D01*
X33024Y15176D02*
Y15491D01*
X33300D01*
X33024Y14309D02*
Y14624D01*
Y14309D02*
X33300D01*
X31703Y16910D02*
X32097D01*
X31703Y15690D02*
X32097D01*
X31703D02*
Y16910D01*
X32097Y15690D02*
Y16910D01*
X29128Y15353D02*
Y15747D01*
X30152Y15353D02*
Y15747D01*
X27656Y17760D02*
X28344D01*
X27656Y16540D02*
X28344D01*
X26205Y15193D02*
Y15507D01*
X26795Y15193D02*
Y15507D01*
X23724Y15776D02*
Y16091D01*
X24000D01*
X23724Y14909D02*
Y15224D01*
Y14909D02*
X24000D01*
X23724Y17276D02*
Y17591D01*
X24000D01*
X23724Y16409D02*
Y16724D01*
Y16409D02*
X24000D01*
X22526D02*
Y16724D01*
X22250Y16409D02*
X22526D01*
Y17276D02*
Y17591D01*
X22250D02*
X22526D01*
Y14909D02*
Y15224D01*
X22250Y14909D02*
X22526D01*
Y15776D02*
Y16091D01*
X22250D02*
X22526D01*
X20224Y17276D02*
Y17591D01*
X20500D01*
X20224Y16409D02*
Y16724D01*
Y16409D02*
X20500D01*
X20224Y15776D02*
Y16091D01*
X20500D01*
X20224Y14909D02*
Y15224D01*
Y14909D02*
X20500D01*
D39*
X31350Y23110D02*
X31470D01*
X31410D01*
Y22750D01*
X31350D01*
X31470D01*
X31830Y23110D02*
X31710D01*
X31650Y23050D01*
Y22810D01*
X31710Y22750D01*
X31830D01*
X31890Y22810D01*
Y23050D01*
X31830Y23110D01*
X32010Y22990D02*
Y22810D01*
X32070Y22750D01*
X32250D01*
Y22990D01*
X32430Y23050D02*
Y22990D01*
X32370D01*
X32490D01*
X32430D01*
Y22810D01*
X32490Y22750D01*
X34650Y23210D02*
Y22970D01*
X34770Y22850D01*
X34890Y22970D01*
Y23210D01*
X35190D02*
X35070D01*
X35010Y23150D01*
Y22910D01*
X35070Y22850D01*
X35190D01*
X35250Y22910D01*
Y23150D01*
X35190Y23210D01*
X35370Y23090D02*
Y22910D01*
X35430Y22850D01*
X35610D01*
Y23090D01*
X35790Y23150D02*
Y23090D01*
X35730D01*
X35850D01*
X35790D01*
Y22910D01*
X35850Y22850D01*
X25700Y22800D02*
Y23160D01*
X25880D01*
X25940Y23100D01*
Y22980D01*
X25880Y22920D01*
X25700D01*
X26300Y23100D02*
X26240Y23160D01*
X26120D01*
X26060Y23100D01*
Y22860D01*
X26120Y22800D01*
X26240D01*
X26300Y22860D01*
Y22980D01*
X26180D01*
X26480Y22800D02*
X26600D01*
X26660Y22860D01*
Y22980D01*
X26600Y23040D01*
X26480D01*
X26420Y22980D01*
Y22860D01*
X26480Y22800D01*
X26840D02*
X26960D01*
X27020Y22860D01*
Y22980D01*
X26960Y23040D01*
X26840D01*
X26780Y22980D01*
Y22860D01*
X26840Y22800D01*
X27379Y23160D02*
Y22800D01*
X27200D01*
X27140Y22860D01*
Y22980D01*
X27200Y23040D01*
X27379D01*
M02*
