G04 Layer_Physical_Order=2*
G04 Layer_Color=16711680*
%FSLAX24Y24*%
%MOIN*%
G70*
G01*
G75*
%ADD22C,0.0120*%
%ADD23C,0.0150*%
%ADD24C,0.0591*%
%ADD25R,0.0591X0.0591*%
%ADD26C,0.0661*%
%ADD27C,0.0709*%
%ADD28C,0.0197*%
%ADD29C,0.0280*%
%ADD30C,0.1575*%
%ADD31C,0.0600*%
%ADD32R,0.0358X0.1433*%
G36*
X39898Y12352D02*
X14102D01*
Y17271D01*
X14152Y17298D01*
X14212Y17273D01*
X14300Y17262D01*
X14388Y17273D01*
X14469Y17307D01*
X14539Y17361D01*
X14593Y17431D01*
X14627Y17512D01*
X14638Y17600D01*
X14627Y17688D01*
X14593Y17769D01*
X14539Y17839D01*
X14469Y17893D01*
X14388Y17927D01*
X14300Y17938D01*
X14212Y17927D01*
X14152Y17902D01*
X14102Y17929D01*
Y18271D01*
X14152Y18298D01*
X14212Y18273D01*
X14300Y18262D01*
X14388Y18273D01*
X14469Y18307D01*
X14539Y18361D01*
X14593Y18431D01*
X14627Y18512D01*
X14638Y18600D01*
X14627Y18688D01*
X14593Y18769D01*
X14539Y18839D01*
X14469Y18893D01*
X14388Y18927D01*
X14300Y18938D01*
X14212Y18927D01*
X14152Y18902D01*
X14102Y18929D01*
Y23398D01*
X27810D01*
X27820Y23348D01*
X27803Y23341D01*
X27721Y23279D01*
X27659Y23197D01*
X27619Y23102D01*
X27606Y23000D01*
X27619Y22898D01*
X27659Y22803D01*
X27721Y22721D01*
X27803Y22659D01*
X27898Y22619D01*
X28000Y22606D01*
X28102Y22619D01*
X28197Y22659D01*
X28279Y22721D01*
X28341Y22803D01*
X28381Y22898D01*
X28394Y23000D01*
X28381Y23102D01*
X28341Y23197D01*
X28279Y23279D01*
X28197Y23341D01*
X28180Y23348D01*
X28190Y23398D01*
X30560D01*
X30570Y23348D01*
X30553Y23341D01*
X30471Y23279D01*
X30409Y23197D01*
X30369Y23102D01*
X30356Y23000D01*
X30369Y22898D01*
X30409Y22803D01*
X30471Y22721D01*
X30553Y22659D01*
X30648Y22619D01*
X30750Y22606D01*
X30852Y22619D01*
X30947Y22659D01*
X31029Y22721D01*
X31091Y22803D01*
X31114Y22857D01*
X35541D01*
X36049Y22349D01*
X36049Y22349D01*
X36095Y22318D01*
X36150Y22307D01*
X37391D01*
X38607Y21091D01*
Y20716D01*
X38563Y20683D01*
X38557Y20683D01*
X38503Y20753D01*
X38429Y20810D01*
X38343Y20846D01*
X38250Y20858D01*
X38157Y20846D01*
X38071Y20810D01*
X37997Y20753D01*
X37940Y20679D01*
X37904Y20593D01*
X37892Y20500D01*
X37904Y20407D01*
X37940Y20321D01*
X37997Y20247D01*
X38071Y20190D01*
X38157Y20154D01*
X38250Y20142D01*
X38343Y20154D01*
X38429Y20190D01*
X38503Y20247D01*
X38557Y20317D01*
X38563Y20317D01*
X38607Y20284D01*
Y19309D01*
X38379Y19081D01*
X38343Y19096D01*
X38250Y19108D01*
X38157Y19096D01*
X38071Y19060D01*
X37997Y19003D01*
X37940Y18929D01*
X37904Y18843D01*
X37892Y18750D01*
X37904Y18657D01*
X37940Y18571D01*
X37997Y18497D01*
X38071Y18440D01*
X38157Y18404D01*
X38250Y18392D01*
X38343Y18404D01*
X38429Y18440D01*
X38503Y18497D01*
X38560Y18571D01*
X38596Y18657D01*
X38608Y18750D01*
X38596Y18843D01*
X38581Y18879D01*
X38851Y19149D01*
X38851Y19149D01*
X38882Y19195D01*
X38893Y19250D01*
X38893Y19250D01*
Y20096D01*
X38895Y20145D01*
X38943Y20145D01*
X39605D01*
Y20855D01*
X38895Y20855D01*
X38893Y20904D01*
Y21150D01*
X38893Y21150D01*
X38882Y21205D01*
X38851Y21251D01*
X38851Y21251D01*
X37551Y22551D01*
X37505Y22582D01*
X37450Y22593D01*
X37450Y22593D01*
X36668D01*
X36658Y22643D01*
X36697Y22659D01*
X36779Y22721D01*
X36841Y22803D01*
X36881Y22898D01*
X36894Y23000D01*
X36881Y23102D01*
X36841Y23197D01*
X36779Y23279D01*
X36697Y23341D01*
X36680Y23348D01*
X36690Y23398D01*
X39898D01*
Y12352D01*
D02*
G37*
G36*
X36320Y23348D02*
X36303Y23341D01*
X36221Y23279D01*
X36159Y23197D01*
X36119Y23102D01*
X36106Y23000D01*
X36119Y22898D01*
X36159Y22803D01*
X36221Y22721D01*
X36303Y22659D01*
X36342Y22643D01*
X36332Y22593D01*
X36209D01*
X35701Y23101D01*
X35655Y23132D01*
X35600Y23143D01*
X35600Y23143D01*
X31114D01*
X31091Y23197D01*
X31029Y23279D01*
X30947Y23341D01*
X30930Y23348D01*
X30940Y23398D01*
X36310D01*
X36320Y23348D01*
D02*
G37*
%LPC*%
G36*
X33510Y15987D02*
X33456Y15976D01*
X33377Y15923D01*
X33324Y15844D01*
X33313Y15790D01*
X33510D01*
Y15987D01*
D02*
G37*
G36*
X35337Y16110D02*
X35140D01*
Y15913D01*
X35194Y15924D01*
X35273Y15977D01*
X35326Y16056D01*
X35337Y16110D01*
D02*
G37*
G36*
X33590Y15987D02*
Y15790D01*
X33787D01*
X33776Y15844D01*
X33723Y15923D01*
X33644Y15976D01*
X33590Y15987D01*
D02*
G37*
G36*
X35100Y16754D02*
X35022Y16738D01*
X34956Y16694D01*
X34912Y16628D01*
X34896Y16550D01*
X34896Y16548D01*
X31741Y13393D01*
X30605D01*
Y13605D01*
X29895D01*
Y12895D01*
X30605D01*
Y13107D01*
X31800D01*
X31800Y13107D01*
X31855Y13118D01*
X31901Y13149D01*
X34826Y16074D01*
X34868Y16061D01*
X34876Y16053D01*
X34927Y15977D01*
X35006Y15924D01*
X35060Y15913D01*
Y16150D01*
X35100D01*
Y16190D01*
X35337D01*
X35326Y16244D01*
X35273Y16323D01*
X35234Y16349D01*
Y16399D01*
X35244Y16406D01*
X35288Y16472D01*
X35304Y16550D01*
X35288Y16628D01*
X35244Y16694D01*
X35178Y16738D01*
X35100Y16754D01*
D02*
G37*
G36*
X30860Y16387D02*
X30806Y16376D01*
X30727Y16323D01*
X30674Y16244D01*
X30663Y16190D01*
X30860D01*
Y16387D01*
D02*
G37*
G36*
X30940D02*
Y16190D01*
X31137D01*
X31126Y16244D01*
X31073Y16323D01*
X30994Y16376D01*
X30940Y16387D01*
D02*
G37*
G36*
X36137Y16510D02*
X35663D01*
X35674Y16456D01*
X35727Y16377D01*
X35766Y16351D01*
Y16301D01*
X35756Y16294D01*
X35712Y16228D01*
X35696Y16150D01*
X35696Y16148D01*
X34899Y15351D01*
X34868Y15305D01*
X34857Y15250D01*
X34857Y15250D01*
Y13575D01*
X34821Y13560D01*
X34747Y13503D01*
X34690Y13429D01*
X34654Y13343D01*
X34642Y13250D01*
X34654Y13157D01*
X34690Y13071D01*
X34747Y12997D01*
X34821Y12940D01*
X34907Y12904D01*
X35000Y12892D01*
X35093Y12904D01*
X35179Y12940D01*
X35253Y12997D01*
X35310Y13071D01*
X35346Y13157D01*
X35358Y13250D01*
X35346Y13343D01*
X35310Y13429D01*
X35253Y13503D01*
X35179Y13560D01*
X35143Y13575D01*
Y15191D01*
X35898Y15946D01*
X35900Y15946D01*
X35978Y15962D01*
X36044Y16006D01*
X36088Y16072D01*
X36104Y16150D01*
X36088Y16228D01*
X36044Y16294D01*
X36034Y16301D01*
Y16351D01*
X36073Y16377D01*
X36126Y16456D01*
X36137Y16510D01*
D02*
G37*
G36*
X30860Y16110D02*
X30663D01*
X30674Y16056D01*
X30727Y15977D01*
X30806Y15924D01*
X30860Y15913D01*
Y16110D01*
D02*
G37*
G36*
X31137D02*
X30940D01*
Y15913D01*
X30994Y15924D01*
X31073Y15977D01*
X31126Y16056D01*
X31137Y16110D01*
D02*
G37*
G36*
X32410Y15460D02*
X32213D01*
X32224Y15406D01*
X32277Y15327D01*
X32356Y15274D01*
X32410Y15263D01*
Y15460D01*
D02*
G37*
G36*
X32687D02*
X32490D01*
Y15263D01*
X32544Y15274D01*
X32623Y15327D01*
X32676Y15406D01*
X32687Y15460D01*
D02*
G37*
G36*
X17605Y15855D02*
X16895D01*
Y15145D01*
X17605D01*
Y15855D01*
D02*
G37*
G36*
X23629Y15404D02*
X23390D01*
Y14627D01*
X23629D01*
Y15404D01*
D02*
G37*
G36*
X18250Y15858D02*
X18157Y15846D01*
X18071Y15810D01*
X17997Y15753D01*
X17940Y15679D01*
X17904Y15593D01*
X17892Y15500D01*
X17904Y15407D01*
X17940Y15321D01*
X17997Y15247D01*
X18071Y15190D01*
X18157Y15154D01*
X18250Y15142D01*
X18343Y15154D01*
X18429Y15190D01*
X18503Y15247D01*
X18560Y15321D01*
X18596Y15407D01*
X18608Y15500D01*
X18596Y15593D01*
X18560Y15679D01*
X18503Y15753D01*
X18429Y15810D01*
X18343Y15846D01*
X18250Y15858D01*
D02*
G37*
G36*
X32410Y15737D02*
X32356Y15726D01*
X32277Y15673D01*
X32224Y15594D01*
X32213Y15540D01*
X32410D01*
Y15737D01*
D02*
G37*
G36*
X32490D02*
Y15540D01*
X32687D01*
X32676Y15594D01*
X32623Y15673D01*
X32544Y15726D01*
X32490Y15737D01*
D02*
G37*
G36*
X33787Y15710D02*
X33590D01*
Y15513D01*
X33644Y15524D01*
X33723Y15577D01*
X33776Y15656D01*
X33787Y15710D01*
D02*
G37*
G36*
X38250Y15608D02*
X38157Y15596D01*
X38071Y15560D01*
X37997Y15503D01*
X37962Y15458D01*
X36423D01*
X36378Y15488D01*
X36300Y15504D01*
X36222Y15488D01*
X36156Y15444D01*
X36112Y15378D01*
X36096Y15300D01*
X36112Y15222D01*
X36156Y15156D01*
X36222Y15112D01*
X36300Y15096D01*
X36378Y15112D01*
X36423Y15142D01*
X37910D01*
X37940Y15071D01*
X37997Y14997D01*
X38071Y14940D01*
X38157Y14904D01*
X38250Y14892D01*
X38343Y14904D01*
X38429Y14940D01*
X38503Y14997D01*
X38560Y15071D01*
X38569Y15092D01*
X38895D01*
Y14895D01*
X39605D01*
Y15605D01*
X38895D01*
Y15408D01*
X38569D01*
X38560Y15429D01*
X38503Y15503D01*
X38429Y15560D01*
X38343Y15596D01*
X38250Y15608D01*
D02*
G37*
G36*
X33510Y15710D02*
X33313D01*
X33324Y15656D01*
X33377Y15577D01*
X33456Y15524D01*
X33510Y15513D01*
Y15710D01*
D02*
G37*
G36*
X35860Y16787D02*
X35806Y16776D01*
X35727Y16723D01*
X35674Y16644D01*
X35663Y16590D01*
X35860D01*
Y16787D01*
D02*
G37*
G36*
X39645Y17395D02*
X39290D01*
Y17040D01*
X39645D01*
Y17395D01*
D02*
G37*
G36*
X29787Y17460D02*
X29590D01*
Y17263D01*
X29644Y17274D01*
X29723Y17327D01*
X29776Y17406D01*
X29787Y17460D01*
D02*
G37*
G36*
X39210Y17395D02*
X38855D01*
Y17040D01*
X39210D01*
Y17395D01*
D02*
G37*
G36*
X38210Y17393D02*
X38147Y17385D01*
X38051Y17345D01*
X37968Y17282D01*
X37905Y17199D01*
X37865Y17103D01*
X37857Y17040D01*
X38210D01*
Y17393D01*
D02*
G37*
G36*
X38290D02*
Y17040D01*
X38643D01*
X38635Y17103D01*
X38595Y17199D01*
X38532Y17282D01*
X38449Y17345D01*
X38353Y17385D01*
X38290Y17393D01*
D02*
G37*
G36*
X31037Y17560D02*
X30840D01*
Y17363D01*
X30894Y17374D01*
X30973Y17427D01*
X31026Y17506D01*
X31037Y17560D01*
D02*
G37*
G36*
X27960Y17561D02*
X27923Y17553D01*
X27857Y17510D01*
X27813Y17444D01*
X27806Y17407D01*
X27960D01*
Y17561D01*
D02*
G37*
G36*
X30760Y17560D02*
X30563D01*
X30574Y17506D01*
X30627Y17427D01*
X30706Y17374D01*
X30760Y17363D01*
Y17560D01*
D02*
G37*
G36*
X30160Y17460D02*
X29963D01*
X29974Y17406D01*
X30027Y17327D01*
X30106Y17274D01*
X30160Y17263D01*
Y17460D01*
D02*
G37*
G36*
X30437D02*
X30240D01*
Y17263D01*
X30294Y17274D01*
X30373Y17327D01*
X30426Y17406D01*
X30437Y17460D01*
D02*
G37*
G36*
X38210Y16960D02*
X37857D01*
X37865Y16897D01*
X37905Y16801D01*
X37968Y16718D01*
X38051Y16655D01*
X38147Y16615D01*
X38210Y16607D01*
Y16960D01*
D02*
G37*
G36*
X38643D02*
X38290D01*
Y16607D01*
X38353Y16615D01*
X38449Y16655D01*
X38532Y16718D01*
X38595Y16801D01*
X38635Y16897D01*
X38643Y16960D01*
D02*
G37*
G36*
X39645D02*
X39290D01*
Y16605D01*
X39645D01*
Y16960D01*
D02*
G37*
G36*
X35940Y16787D02*
Y16590D01*
X36137D01*
X36126Y16644D01*
X36073Y16723D01*
X35994Y16776D01*
X35940Y16787D01*
D02*
G37*
G36*
X39210Y16960D02*
X38855D01*
Y16605D01*
X39210D01*
Y16960D01*
D02*
G37*
G36*
X28194Y16893D02*
X28040D01*
Y16739D01*
X28077Y16747D01*
X28143Y16790D01*
X28187Y16856D01*
X28194Y16893D01*
D02*
G37*
G36*
Y17327D02*
X27806D01*
X27813Y17289D01*
X27857Y17223D01*
X27923Y17180D01*
X27943Y17175D01*
Y17125D01*
X27923Y17120D01*
X27857Y17077D01*
X27813Y17011D01*
X27806Y16973D01*
X28194D01*
X28187Y17011D01*
X28143Y17077D01*
X28077Y17120D01*
X28057Y17125D01*
Y17175D01*
X28077Y17180D01*
X28143Y17223D01*
X28187Y17289D01*
X28194Y17327D01*
D02*
G37*
G36*
X27960Y16893D02*
X27806D01*
X27813Y16856D01*
X27857Y16790D01*
X27923Y16747D01*
X27960Y16739D01*
Y16893D01*
D02*
G37*
G36*
X18250Y17358D02*
X18157Y17346D01*
X18071Y17310D01*
X17997Y17253D01*
X17940Y17179D01*
X17904Y17093D01*
X17892Y17000D01*
X17904Y16907D01*
X17940Y16821D01*
X17997Y16747D01*
X18071Y16690D01*
X18157Y16654D01*
X18250Y16642D01*
X18343Y16654D01*
X18429Y16690D01*
X18503Y16747D01*
X18560Y16821D01*
X18596Y16907D01*
X18608Y17000D01*
X18596Y17093D01*
X18560Y17179D01*
X18503Y17253D01*
X18429Y17310D01*
X18343Y17346D01*
X18250Y17358D01*
D02*
G37*
G36*
X17605Y17355D02*
X16895D01*
Y16645D01*
X17605D01*
Y17355D01*
D02*
G37*
G36*
X25000Y13608D02*
X24907Y13596D01*
X24821Y13560D01*
X24747Y13503D01*
X24690Y13429D01*
X24654Y13343D01*
X24642Y13250D01*
X24654Y13157D01*
X24690Y13071D01*
X24747Y12997D01*
X24821Y12940D01*
X24907Y12904D01*
X25000Y12892D01*
X25093Y12904D01*
X25179Y12940D01*
X25253Y12997D01*
X25310Y13071D01*
X25346Y13157D01*
X25358Y13250D01*
X25346Y13343D01*
X25310Y13429D01*
X25253Y13503D01*
X25179Y13560D01*
X25093Y13596D01*
X25000Y13608D01*
D02*
G37*
G36*
X36355Y13605D02*
X35645D01*
Y12895D01*
X36355D01*
Y13605D01*
D02*
G37*
G36*
X20643Y13210D02*
X20290D01*
Y12857D01*
X20353Y12865D01*
X20449Y12905D01*
X20532Y12968D01*
X20595Y13051D01*
X20635Y13147D01*
X20643Y13210D01*
D02*
G37*
G36*
X21645D02*
X21290D01*
Y12855D01*
X21645D01*
Y13210D01*
D02*
G37*
G36*
X20210D02*
X19857D01*
X19865Y13147D01*
X19905Y13051D01*
X19968Y12968D01*
X20051Y12905D01*
X20147Y12865D01*
X20210Y12857D01*
Y13210D01*
D02*
G37*
G36*
X27940Y13187D02*
Y12990D01*
X28137D01*
X28126Y13044D01*
X28073Y13123D01*
X27994Y13176D01*
X27940Y13187D01*
D02*
G37*
G36*
X33610D02*
X33556Y13176D01*
X33477Y13123D01*
X33424Y13044D01*
X33413Y12990D01*
X33610D01*
Y13187D01*
D02*
G37*
G36*
X27860D02*
X27806Y13176D01*
X27727Y13123D01*
X27674Y13044D01*
X27663Y12990D01*
X27860D01*
Y13187D01*
D02*
G37*
G36*
X22560D02*
X22506Y13176D01*
X22427Y13123D01*
X22374Y13044D01*
X22363Y12990D01*
X22560D01*
Y13187D01*
D02*
G37*
G36*
X22640D02*
Y12990D01*
X22837D01*
X22826Y13044D01*
X22773Y13123D01*
X22694Y13176D01*
X22640Y13187D01*
D02*
G37*
G36*
X22837Y12910D02*
X22640D01*
Y12713D01*
X22694Y12724D01*
X22773Y12777D01*
X22826Y12856D01*
X22837Y12910D01*
D02*
G37*
G36*
X27860D02*
X27663D01*
X27674Y12856D01*
X27727Y12777D01*
X27806Y12724D01*
X27860Y12713D01*
Y12910D01*
D02*
G37*
G36*
X22560D02*
X22363D01*
X22374Y12856D01*
X22427Y12777D01*
X22506Y12724D01*
X22560Y12713D01*
Y12910D01*
D02*
G37*
G36*
X15050Y14152D02*
X14884Y14135D01*
X14724Y14087D01*
X14577Y14008D01*
X14448Y13902D01*
X14342Y13773D01*
X14263Y13626D01*
X14215Y13466D01*
X14198Y13300D01*
X14215Y13134D01*
X14263Y12974D01*
X14342Y12827D01*
X14448Y12698D01*
X14577Y12592D01*
X14724Y12513D01*
X14884Y12465D01*
X15050Y12449D01*
X15216Y12465D01*
X15376Y12513D01*
X15523Y12592D01*
X15652Y12698D01*
X15758Y12827D01*
X15837Y12974D01*
X15885Y13134D01*
X15901Y13300D01*
X15885Y13466D01*
X15837Y13626D01*
X15758Y13773D01*
X15652Y13902D01*
X15523Y14008D01*
X15376Y14087D01*
X15216Y14135D01*
X15050Y14152D01*
D02*
G37*
G36*
X38950D02*
X38784Y14135D01*
X38624Y14087D01*
X38477Y14008D01*
X38348Y13902D01*
X38242Y13773D01*
X38163Y13626D01*
X38115Y13466D01*
X38098Y13300D01*
X38115Y13134D01*
X38163Y12974D01*
X38242Y12827D01*
X38348Y12698D01*
X38477Y12592D01*
X38624Y12513D01*
X38784Y12465D01*
X38950Y12449D01*
X39116Y12465D01*
X39276Y12513D01*
X39423Y12592D01*
X39552Y12698D01*
X39658Y12827D01*
X39737Y12974D01*
X39785Y13134D01*
X39801Y13300D01*
X39785Y13466D01*
X39737Y13626D01*
X39658Y13773D01*
X39552Y13902D01*
X39423Y14008D01*
X39276Y14087D01*
X39116Y14135D01*
X38950Y14152D01*
D02*
G37*
G36*
X17100Y13463D02*
X17006Y13451D01*
X16918Y13414D01*
X16843Y13357D01*
X16786Y13282D01*
X16749Y13194D01*
X16737Y13100D01*
X16749Y13006D01*
X16786Y12918D01*
X16843Y12843D01*
X16918Y12786D01*
X17006Y12749D01*
X17100Y12737D01*
X17194Y12749D01*
X17282Y12786D01*
X17357Y12843D01*
X17414Y12918D01*
X17451Y13006D01*
X17463Y13100D01*
X17451Y13194D01*
X17414Y13282D01*
X17357Y13357D01*
X17282Y13414D01*
X17194Y13451D01*
X17100Y13463D01*
D02*
G37*
G36*
X21210Y13210D02*
X20855D01*
Y12855D01*
X21210D01*
Y13210D01*
D02*
G37*
G36*
X33887Y12910D02*
X33690D01*
Y12713D01*
X33744Y12724D01*
X33823Y12777D01*
X33876Y12856D01*
X33887Y12910D01*
D02*
G37*
G36*
X28137D02*
X27940D01*
Y12713D01*
X27994Y12724D01*
X28073Y12777D01*
X28126Y12856D01*
X28137Y12910D01*
D02*
G37*
G36*
X33610D02*
X33413D01*
X33424Y12856D01*
X33477Y12777D01*
X33556Y12724D01*
X33610Y12713D01*
Y12910D01*
D02*
G37*
G36*
X26360Y14260D02*
X26163D01*
X26174Y14206D01*
X26227Y14127D01*
X26306Y14074D01*
X26360Y14063D01*
Y14260D01*
D02*
G37*
G36*
X26637D02*
X26440D01*
Y14063D01*
X26494Y14074D01*
X26573Y14127D01*
X26626Y14206D01*
X26637Y14260D01*
D02*
G37*
G36*
X23629Y14547D02*
X23390D01*
Y13770D01*
X23629D01*
Y14547D01*
D02*
G37*
G36*
X20729D02*
X20490D01*
Y13770D01*
X20729D01*
Y14547D01*
D02*
G37*
G36*
X23310D02*
X23071D01*
Y13770D01*
X23310D01*
Y14547D01*
D02*
G37*
G36*
X20729Y15404D02*
X20490D01*
Y14627D01*
X20729D01*
Y15404D01*
D02*
G37*
G36*
X23310D02*
X23071D01*
Y14627D01*
X23310D01*
Y15404D01*
D02*
G37*
G36*
X20410D02*
X20171D01*
Y14627D01*
X20410D01*
Y15404D01*
D02*
G37*
G36*
X26360Y14537D02*
X26306Y14526D01*
X26227Y14473D01*
X26174Y14394D01*
X26163Y14340D01*
X26360D01*
Y14537D01*
D02*
G37*
G36*
X26440D02*
Y14340D01*
X26637D01*
X26626Y14394D01*
X26573Y14473D01*
X26494Y14526D01*
X26440Y14537D01*
D02*
G37*
G36*
X20210Y13643D02*
X20147Y13635D01*
X20051Y13595D01*
X19968Y13532D01*
X19905Y13449D01*
X19865Y13353D01*
X19857Y13290D01*
X20210D01*
Y13643D01*
D02*
G37*
G36*
X20290D02*
Y13290D01*
X20643D01*
X20635Y13353D01*
X20595Y13449D01*
X20532Y13532D01*
X20449Y13595D01*
X20353Y13635D01*
X20290Y13643D01*
D02*
G37*
G36*
X19137Y13360D02*
X18940D01*
Y13163D01*
X18994Y13174D01*
X19073Y13227D01*
X19126Y13306D01*
X19137Y13360D01*
D02*
G37*
G36*
X33690Y13187D02*
Y12990D01*
X33887D01*
X33876Y13044D01*
X33823Y13123D01*
X33744Y13176D01*
X33690Y13187D01*
D02*
G37*
G36*
X18860Y13360D02*
X18663D01*
X18674Y13306D01*
X18727Y13227D01*
X18806Y13174D01*
X18860Y13163D01*
Y13360D01*
D02*
G37*
G36*
X18940Y13637D02*
Y13440D01*
X19137D01*
X19126Y13494D01*
X19073Y13573D01*
X18994Y13626D01*
X18940Y13637D01*
D02*
G37*
G36*
X20410Y14547D02*
X20171D01*
Y13770D01*
X20410D01*
Y14547D01*
D02*
G37*
G36*
X18860Y13637D02*
X18806Y13626D01*
X18727Y13573D01*
X18674Y13494D01*
X18663Y13440D01*
X18860D01*
Y13637D01*
D02*
G37*
G36*
X21210Y13645D02*
X20855D01*
Y13290D01*
X21210D01*
Y13645D01*
D02*
G37*
G36*
X21645D02*
X21290D01*
Y13290D01*
X21645D01*
Y13645D01*
D02*
G37*
G36*
X17605Y21105D02*
X16895D01*
Y20395D01*
X17605D01*
Y21105D01*
D02*
G37*
G36*
X25610Y20760D02*
X25413D01*
X25424Y20706D01*
X25477Y20627D01*
X25556Y20574D01*
X25610Y20563D01*
Y20760D01*
D02*
G37*
G36*
X25887D02*
X25690D01*
Y20563D01*
X25744Y20574D01*
X25823Y20627D01*
X25876Y20706D01*
X25887Y20760D01*
D02*
G37*
G36*
X32064Y20560D02*
X31868D01*
X31878Y20506D01*
X31931Y20427D01*
X32011Y20374D01*
X32064Y20363D01*
Y20560D01*
D02*
G37*
G36*
X32341D02*
X32144D01*
Y20363D01*
X32198Y20374D01*
X32277Y20427D01*
X32330Y20506D01*
X32341Y20560D01*
D02*
G37*
G36*
X18250Y21108D02*
X18157Y21096D01*
X18071Y21060D01*
X17997Y21003D01*
X17940Y20929D01*
X17904Y20843D01*
X17892Y20750D01*
X17904Y20657D01*
X17940Y20571D01*
X17997Y20497D01*
X18071Y20440D01*
X18157Y20404D01*
X18250Y20392D01*
X18343Y20404D01*
X18429Y20440D01*
X18503Y20497D01*
X18560Y20571D01*
X18596Y20657D01*
X18608Y20750D01*
X18596Y20843D01*
X18560Y20929D01*
X18503Y21003D01*
X18429Y21060D01*
X18343Y21096D01*
X18250Y21108D01*
D02*
G37*
G36*
X30037Y21010D02*
X29840D01*
Y20813D01*
X29894Y20824D01*
X29973Y20877D01*
X30026Y20956D01*
X30037Y21010D01*
D02*
G37*
G36*
X25610Y21037D02*
X25556Y21026D01*
X25477Y20973D01*
X25424Y20894D01*
X25413Y20840D01*
X25610D01*
Y21037D01*
D02*
G37*
G36*
X25690D02*
Y20840D01*
X25887D01*
X25876Y20894D01*
X25823Y20973D01*
X25744Y21026D01*
X25690Y21037D01*
D02*
G37*
G36*
X32064Y20837D02*
X32011Y20826D01*
X31931Y20773D01*
X31878Y20694D01*
X31868Y20640D01*
X32064D01*
Y20837D01*
D02*
G37*
G36*
X32144D02*
Y20640D01*
X32341D01*
X32330Y20694D01*
X32277Y20773D01*
X32198Y20826D01*
X32144Y20837D01*
D02*
G37*
G36*
X29760Y21010D02*
X29563D01*
X29574Y20956D01*
X29627Y20877D01*
X29706Y20824D01*
X29760Y20813D01*
Y21010D01*
D02*
G37*
G36*
X33610Y19887D02*
X33556Y19876D01*
X33477Y19823D01*
X33424Y19744D01*
X33413Y19690D01*
X33610D01*
Y19887D01*
D02*
G37*
G36*
X33690D02*
Y19690D01*
X33887D01*
X33876Y19744D01*
X33823Y19823D01*
X33744Y19876D01*
X33690Y19887D01*
D02*
G37*
G36*
X37110Y19987D02*
X37056Y19976D01*
X36977Y19923D01*
X36924Y19844D01*
X36913Y19790D01*
X37110D01*
Y19987D01*
D02*
G37*
G36*
X37387Y19710D02*
X37190D01*
Y19513D01*
X37244Y19524D01*
X37323Y19577D01*
X37376Y19656D01*
X37387Y19710D01*
D02*
G37*
G36*
X32610Y19837D02*
X32556Y19826D01*
X32477Y19773D01*
X32424Y19694D01*
X32413Y19640D01*
X32610D01*
Y19837D01*
D02*
G37*
G36*
X32690D02*
Y19640D01*
X32887D01*
X32876Y19694D01*
X32823Y19773D01*
X32744Y19826D01*
X32690Y19837D01*
D02*
G37*
G36*
X23310Y20873D02*
X23071D01*
Y20096D01*
X23310D01*
Y20873D01*
D02*
G37*
G36*
X23629D02*
X23390D01*
Y20096D01*
X23629D01*
Y20873D01*
D02*
G37*
G36*
X27600Y20193D02*
X27600Y20193D01*
X25337D01*
X25337Y20193D01*
X25283Y20182D01*
X25258Y20165D01*
X25250Y20167D01*
X25172Y20151D01*
X25106Y20107D01*
X25062Y20041D01*
X25046Y19963D01*
X25062Y19885D01*
X25075Y19865D01*
X25048Y19815D01*
X19700D01*
X19654Y19796D01*
X19635Y19750D01*
Y15650D01*
X19654Y15604D01*
X19700Y15585D01*
X23857D01*
Y13605D01*
X23645D01*
Y12895D01*
X24355D01*
Y13605D01*
X24143D01*
Y15413D01*
X24193Y15428D01*
X24227Y15377D01*
X24306Y15324D01*
X24360Y15313D01*
Y15550D01*
X24440D01*
Y15313D01*
X24494Y15324D01*
X24573Y15377D01*
X24626Y15456D01*
X24635Y15502D01*
X24685Y15497D01*
Y14950D01*
X24704Y14904D01*
X24750Y14885D01*
X25950D01*
X25996Y14904D01*
X26015Y14950D01*
Y19275D01*
X26007Y19296D01*
X26005Y19300D01*
X26007Y19304D01*
X26015Y19325D01*
Y19750D01*
X25996Y19796D01*
X25950Y19815D01*
X25452D01*
X25426Y19864D01*
X25427Y19868D01*
X25438Y19885D01*
X25440Y19895D01*
X25447Y19907D01*
X27541D01*
X29107Y18341D01*
Y13575D01*
X29071Y13560D01*
X28997Y13503D01*
X28940Y13429D01*
X28904Y13343D01*
X28892Y13250D01*
X28904Y13157D01*
X28940Y13071D01*
X28997Y12997D01*
X29071Y12940D01*
X29157Y12904D01*
X29250Y12892D01*
X29343Y12904D01*
X29429Y12940D01*
X29503Y12997D01*
X29560Y13071D01*
X29596Y13157D01*
X29608Y13250D01*
X29596Y13343D01*
X29560Y13429D01*
X29503Y13503D01*
X29429Y13560D01*
X29393Y13575D01*
Y17263D01*
X29437Y17287D01*
X29456Y17274D01*
X29510Y17263D01*
Y17500D01*
Y17737D01*
X29456Y17726D01*
X29437Y17713D01*
X29393Y17737D01*
Y18400D01*
X29382Y18455D01*
X29351Y18501D01*
X29351Y18501D01*
X27701Y20151D01*
X27655Y20182D01*
X27600Y20193D01*
D02*
G37*
G36*
X37190Y19987D02*
Y19790D01*
X37387D01*
X37376Y19844D01*
X37323Y19923D01*
X37244Y19976D01*
X37190Y19987D01*
D02*
G37*
G36*
X20410Y20873D02*
X20171D01*
Y20096D01*
X20410D01*
Y20873D01*
D02*
G37*
G36*
X20729D02*
X20490D01*
Y20096D01*
X20729D01*
Y20873D01*
D02*
G37*
G36*
X32690Y21837D02*
Y21640D01*
X32887D01*
X32876Y21694D01*
X32823Y21773D01*
X32744Y21826D01*
X32690Y21837D01*
D02*
G37*
G36*
X21210Y22710D02*
X20855D01*
Y22355D01*
X21210D01*
Y22710D01*
D02*
G37*
G36*
X21645D02*
X21290D01*
Y22355D01*
X21645D01*
Y22710D01*
D02*
G37*
G36*
X15050Y23301D02*
X14884Y23285D01*
X14724Y23237D01*
X14577Y23158D01*
X14448Y23052D01*
X14342Y22923D01*
X14263Y22776D01*
X14215Y22616D01*
X14198Y22450D01*
X14215Y22284D01*
X14263Y22124D01*
X14342Y21977D01*
X14448Y21848D01*
X14577Y21742D01*
X14724Y21663D01*
X14884Y21615D01*
X15050Y21598D01*
X15216Y21615D01*
X15376Y21663D01*
X15523Y21742D01*
X15652Y21848D01*
X15758Y21977D01*
X15837Y22124D01*
X15885Y22284D01*
X15901Y22450D01*
X15885Y22616D01*
X15837Y22776D01*
X15758Y22923D01*
X15652Y23052D01*
X15523Y23158D01*
X15376Y23237D01*
X15216Y23285D01*
X15050Y23301D01*
D02*
G37*
G36*
X38950D02*
X38784Y23285D01*
X38624Y23237D01*
X38477Y23158D01*
X38348Y23052D01*
X38242Y22923D01*
X38163Y22776D01*
X38115Y22616D01*
X38098Y22450D01*
X38115Y22284D01*
X38163Y22124D01*
X38242Y21977D01*
X38348Y21848D01*
X38477Y21742D01*
X38624Y21663D01*
X38784Y21615D01*
X38950Y21598D01*
X39116Y21615D01*
X39276Y21663D01*
X39423Y21742D01*
X39552Y21848D01*
X39658Y21977D01*
X39737Y22124D01*
X39785Y22284D01*
X39801Y22450D01*
X39785Y22616D01*
X39737Y22776D01*
X39658Y22923D01*
X39552Y23052D01*
X39423Y23158D01*
X39276Y23237D01*
X39116Y23285D01*
X38950Y23301D01*
D02*
G37*
G36*
X32610Y21837D02*
X32556Y21826D01*
X32477Y21773D01*
X32424Y21694D01*
X32413Y21640D01*
X32610D01*
Y21837D01*
D02*
G37*
G36*
X20290Y23143D02*
Y22790D01*
X20643D01*
X20635Y22853D01*
X20595Y22949D01*
X20532Y23032D01*
X20449Y23095D01*
X20353Y23135D01*
X20290Y23143D01*
D02*
G37*
G36*
X21210Y23145D02*
X20855D01*
Y22790D01*
X21210D01*
Y23145D01*
D02*
G37*
G36*
X21645D02*
X21290D01*
Y22790D01*
X21645D01*
Y23145D01*
D02*
G37*
G36*
X20210Y22710D02*
X19857D01*
X19865Y22647D01*
X19905Y22551D01*
X19968Y22468D01*
X20051Y22405D01*
X20147Y22365D01*
X20210Y22357D01*
Y22710D01*
D02*
G37*
G36*
X20643D02*
X20290D01*
Y22357D01*
X20353Y22365D01*
X20449Y22405D01*
X20532Y22468D01*
X20595Y22551D01*
X20635Y22647D01*
X20643Y22710D01*
D02*
G37*
G36*
X20210Y23143D02*
X20147Y23135D01*
X20051Y23095D01*
X19968Y23032D01*
X19905Y22949D01*
X19865Y22853D01*
X19857Y22790D01*
X20210D01*
Y23143D01*
D02*
G37*
G36*
X23629Y21730D02*
X23390D01*
Y20953D01*
X23629D01*
Y21730D01*
D02*
G37*
G36*
X29760Y21287D02*
X29706Y21276D01*
X29627Y21223D01*
X29574Y21144D01*
X29563Y21090D01*
X29760D01*
Y21287D01*
D02*
G37*
G36*
X29840D02*
Y21090D01*
X30037D01*
X30026Y21144D01*
X29973Y21223D01*
X29894Y21276D01*
X29840Y21287D01*
D02*
G37*
G36*
X20410Y21730D02*
X20171D01*
Y20953D01*
X20410D01*
Y21730D01*
D02*
G37*
G36*
X20729D02*
X20490D01*
Y20953D01*
X20729D01*
Y21730D01*
D02*
G37*
G36*
X23310D02*
X23071D01*
Y20953D01*
X23310D01*
Y21730D01*
D02*
G37*
G36*
X32887Y21560D02*
X32690D01*
Y21363D01*
X32744Y21374D01*
X32823Y21427D01*
X32876Y21506D01*
X32887Y21560D01*
D02*
G37*
G36*
X36260Y21587D02*
X36206Y21576D01*
X36127Y21523D01*
X36074Y21444D01*
X36063Y21390D01*
X36260D01*
Y21587D01*
D02*
G37*
G36*
X36340D02*
Y21390D01*
X36537D01*
X36526Y21444D01*
X36473Y21523D01*
X36394Y21576D01*
X36340Y21587D01*
D02*
G37*
G36*
X36260Y21310D02*
X36063D01*
X36074Y21256D01*
X36127Y21177D01*
X36206Y21124D01*
X36260Y21113D01*
Y21310D01*
D02*
G37*
G36*
X36537D02*
X36340D01*
Y21113D01*
X36394Y21124D01*
X36473Y21177D01*
X36526Y21256D01*
X36537Y21310D01*
D02*
G37*
G36*
X32610Y21560D02*
X32413D01*
X32424Y21506D01*
X32477Y21427D01*
X32556Y21374D01*
X32610Y21363D01*
Y21560D01*
D02*
G37*
G36*
X37110Y19710D02*
X36913D01*
X36924Y19656D01*
X36977Y19577D01*
X37056Y19524D01*
X37110Y19513D01*
Y19710D01*
D02*
G37*
G36*
X27637Y19260D02*
X27440D01*
Y19063D01*
X27494Y19074D01*
X27573Y19127D01*
X27626Y19206D01*
X27637Y19260D01*
D02*
G37*
G36*
X27360D02*
X27163D01*
X27174Y19206D01*
X27227Y19127D01*
X27306Y19074D01*
X27360Y19063D01*
Y19260D01*
D02*
G37*
G36*
X18250Y19608D02*
X18157Y19596D01*
X18071Y19560D01*
X17997Y19503D01*
X17940Y19429D01*
X17904Y19343D01*
X17892Y19250D01*
X17904Y19157D01*
X17940Y19071D01*
X17997Y18997D01*
X18071Y18940D01*
X18157Y18904D01*
X18250Y18892D01*
X18343Y18904D01*
X18429Y18940D01*
X18503Y18997D01*
X18560Y19071D01*
X18596Y19157D01*
X18608Y19250D01*
X18596Y19343D01*
X18560Y19429D01*
X18503Y19503D01*
X18429Y19560D01*
X18343Y19596D01*
X18250Y19608D01*
D02*
G37*
G36*
X32610Y19560D02*
X32413D01*
X32424Y19506D01*
X32477Y19427D01*
X32556Y19374D01*
X32610Y19363D01*
Y19560D01*
D02*
G37*
G36*
X27440Y19537D02*
Y19340D01*
X27637D01*
X27626Y19394D01*
X27573Y19473D01*
X27494Y19526D01*
X27440Y19537D01*
D02*
G37*
G36*
X27360D02*
X27306Y19526D01*
X27227Y19473D01*
X27174Y19394D01*
X27163Y19340D01*
X27360D01*
Y19537D01*
D02*
G37*
G36*
X30587Y18660D02*
X30390D01*
Y18463D01*
X30444Y18474D01*
X30523Y18527D01*
X30576Y18606D01*
X30587Y18660D01*
D02*
G37*
G36*
X30390Y18937D02*
Y18740D01*
X30587D01*
X30576Y18794D01*
X30523Y18873D01*
X30444Y18926D01*
X30390Y18937D01*
D02*
G37*
G36*
X30310D02*
X30256Y18926D01*
X30177Y18873D01*
X30124Y18794D01*
X30113Y18740D01*
X30310D01*
Y18937D01*
D02*
G37*
G36*
X15300Y19018D02*
X15192Y19004D01*
X15091Y18962D01*
X15005Y18895D01*
X14938Y18809D01*
X14896Y18708D01*
X14882Y18600D01*
X14896Y18492D01*
X14938Y18391D01*
X15005Y18305D01*
X15091Y18238D01*
X15192Y18196D01*
X15300Y18182D01*
X15408Y18196D01*
X15509Y18238D01*
X15596Y18305D01*
X15662Y18391D01*
X15704Y18492D01*
X15718Y18600D01*
X15704Y18708D01*
X15662Y18809D01*
X15596Y18895D01*
X15509Y18962D01*
X15408Y19004D01*
X15300Y19018D01*
D02*
G37*
G36*
X39605Y19105D02*
X38895D01*
Y18395D01*
X39605D01*
Y19105D01*
D02*
G37*
G36*
X30310Y18660D02*
X30113D01*
X30124Y18606D01*
X30177Y18527D01*
X30256Y18474D01*
X30310Y18463D01*
Y18660D01*
D02*
G37*
G36*
X33610Y19610D02*
X33413D01*
X33424Y19556D01*
X33477Y19477D01*
X33556Y19424D01*
X33610Y19413D01*
Y19610D01*
D02*
G37*
G36*
X30240Y17737D02*
Y17540D01*
X30437D01*
X30426Y17594D01*
X30373Y17673D01*
X30294Y17726D01*
X30240Y17737D01*
D02*
G37*
G36*
X30760Y17837D02*
X30706Y17826D01*
X30627Y17773D01*
X30574Y17694D01*
X30563Y17640D01*
X30760D01*
Y17837D01*
D02*
G37*
G36*
X32887Y19560D02*
X32690D01*
Y19363D01*
X32744Y19374D01*
X32823Y19427D01*
X32876Y19506D01*
X32887Y19560D01*
D02*
G37*
G36*
X28040Y17561D02*
Y17407D01*
X28194D01*
X28187Y17444D01*
X28143Y17510D01*
X28077Y17553D01*
X28040Y17561D01*
D02*
G37*
G36*
X33887Y19610D02*
X33690D01*
Y19413D01*
X33744Y19424D01*
X33823Y19477D01*
X33876Y19556D01*
X33887Y19610D01*
D02*
G37*
G36*
X30160Y17737D02*
X30106Y17726D01*
X30027Y17673D01*
X29974Y17594D01*
X29963Y17540D01*
X30160D01*
Y17737D01*
D02*
G37*
G36*
X29590D02*
Y17540D01*
X29787D01*
X29776Y17594D01*
X29723Y17673D01*
X29644Y17726D01*
X29590Y17737D01*
D02*
G37*
G36*
X17605Y19605D02*
X16895D01*
Y19118D01*
X15656Y17879D01*
X15606Y17882D01*
X15596Y17895D01*
X15509Y17962D01*
X15408Y18004D01*
X15300Y18018D01*
X15192Y18004D01*
X15091Y17962D01*
X15005Y17895D01*
X14938Y17809D01*
X14896Y17708D01*
X14882Y17600D01*
X14896Y17492D01*
X14938Y17391D01*
X15005Y17305D01*
X15091Y17238D01*
X15192Y17196D01*
X15300Y17182D01*
X15408Y17196D01*
X15509Y17238D01*
X15596Y17305D01*
X15662Y17391D01*
X15699Y17479D01*
X15712Y17488D01*
X17118Y18895D01*
X17605D01*
Y19605D01*
D02*
G37*
G36*
X30840Y17837D02*
Y17640D01*
X31037D01*
X31026Y17694D01*
X30973Y17773D01*
X30894Y17826D01*
X30840Y17837D01*
D02*
G37*
%LPD*%
G36*
X25950Y19325D02*
X25900Y19320D01*
X25898Y19328D01*
X25888Y19378D01*
X25844Y19444D01*
X25778Y19488D01*
X25700Y19504D01*
X25622Y19488D01*
X25556Y19444D01*
X25512Y19378D01*
X25496Y19300D01*
X25512Y19222D01*
X25556Y19156D01*
X25622Y19112D01*
X25700Y19096D01*
X25778Y19112D01*
X25844Y19156D01*
X25888Y19222D01*
X25898Y19272D01*
X25900Y19280D01*
X25950Y19275D01*
Y14950D01*
X24750D01*
Y15650D01*
X24574D01*
X24544Y15694D01*
X24478Y15738D01*
X24400Y15754D01*
X24322Y15738D01*
X24256Y15694D01*
X24226Y15650D01*
X24143D01*
Y16105D01*
X24144Y16106D01*
X24188Y16172D01*
X24204Y16250D01*
X24188Y16328D01*
X24144Y16394D01*
X24078Y16438D01*
X24000Y16454D01*
X23922Y16438D01*
X23856Y16394D01*
X23812Y16328D01*
X23796Y16250D01*
X23812Y16172D01*
X23856Y16106D01*
X23857Y16105D01*
Y15650D01*
X19700D01*
Y19750D01*
X25950D01*
Y19325D01*
D02*
G37*
%LPC*%
G36*
X20729Y18747D02*
X20490D01*
Y17970D01*
X20729D01*
Y18747D01*
D02*
G37*
G36*
X24400Y17254D02*
X24322Y17238D01*
X24256Y17194D01*
X24212Y17128D01*
X24196Y17050D01*
X24212Y16972D01*
X24256Y16906D01*
X24322Y16862D01*
X24400Y16846D01*
X24478Y16862D01*
X24544Y16906D01*
X24588Y16972D01*
X24604Y17050D01*
X24588Y17128D01*
X24544Y17194D01*
X24478Y17238D01*
X24400Y17254D01*
D02*
G37*
G36*
X23310Y18747D02*
X23071D01*
Y17970D01*
X23310D01*
Y18747D01*
D02*
G37*
G36*
X23629D02*
X23390D01*
Y17970D01*
X23629D01*
Y18747D01*
D02*
G37*
G36*
X20410D02*
X20171D01*
Y17970D01*
X20410D01*
Y18747D01*
D02*
G37*
G36*
X23310Y17530D02*
X23071D01*
Y16753D01*
X23310D01*
Y17530D01*
D02*
G37*
G36*
X23629D02*
X23390D01*
Y16753D01*
X23629D01*
Y17530D01*
D02*
G37*
G36*
X20410D02*
X20171D01*
Y16753D01*
X20410D01*
Y17530D01*
D02*
G37*
G36*
X20729D02*
X20490D01*
Y16753D01*
X20729D01*
Y17530D01*
D02*
G37*
G36*
X25737Y15210D02*
X25540D01*
Y15013D01*
X25594Y15024D01*
X25673Y15077D01*
X25726Y15156D01*
X25737Y15210D01*
D02*
G37*
G36*
X25540Y16087D02*
Y15890D01*
X25737D01*
X25726Y15944D01*
X25673Y16023D01*
X25594Y16076D01*
X25540Y16087D01*
D02*
G37*
G36*
X25460Y15210D02*
X25263D01*
X25274Y15156D01*
X25327Y15077D01*
X25406Y15024D01*
X25460Y15013D01*
Y15210D01*
D02*
G37*
G36*
X20729Y16673D02*
X20490D01*
Y15896D01*
X20729D01*
Y16673D01*
D02*
G37*
G36*
X20410D02*
X20171D01*
Y15896D01*
X20410D01*
Y16673D01*
D02*
G37*
G36*
X25737Y15810D02*
X25540D01*
Y15613D01*
X25594Y15624D01*
X25673Y15677D01*
X25726Y15756D01*
X25737Y15810D01*
D02*
G37*
G36*
X25460D02*
X25263D01*
X25274Y15756D01*
X25327Y15677D01*
X25406Y15624D01*
X25460Y15613D01*
Y15810D01*
D02*
G37*
G36*
X25540Y15487D02*
Y15290D01*
X25737D01*
X25726Y15344D01*
X25673Y15423D01*
X25594Y15476D01*
X25540Y15487D01*
D02*
G37*
G36*
X25460Y16087D02*
X25406Y16076D01*
X25327Y16023D01*
X25274Y15944D01*
X25263Y15890D01*
X25460D01*
Y16087D01*
D02*
G37*
G36*
Y15487D02*
X25406Y15476D01*
X25327Y15423D01*
X25274Y15344D01*
X25263Y15290D01*
X25460D01*
Y15487D01*
D02*
G37*
G36*
X23629Y19604D02*
X23390D01*
Y18827D01*
X23629D01*
Y19604D01*
D02*
G37*
G36*
X25540Y16687D02*
Y16490D01*
X25737D01*
X25726Y16544D01*
X25673Y16623D01*
X25594Y16676D01*
X25540Y16687D01*
D02*
G37*
G36*
X23310Y19604D02*
X23071D01*
Y18827D01*
X23310D01*
Y19604D01*
D02*
G37*
G36*
X20410D02*
X20171D01*
Y18827D01*
X20410D01*
Y19604D01*
D02*
G37*
G36*
X20729D02*
X20490D01*
Y18827D01*
X20729D01*
Y19604D01*
D02*
G37*
G36*
X23629Y16673D02*
X23390D01*
Y15896D01*
X23629D01*
Y16673D01*
D02*
G37*
G36*
X23310D02*
X23071D01*
Y15896D01*
X23310D01*
Y16673D01*
D02*
G37*
G36*
X25460Y16410D02*
X25263D01*
X25274Y16356D01*
X25327Y16277D01*
X25406Y16224D01*
X25460Y16213D01*
Y16410D01*
D02*
G37*
G36*
Y16687D02*
X25406Y16676D01*
X25327Y16623D01*
X25274Y16544D01*
X25263Y16490D01*
X25460D01*
Y16687D01*
D02*
G37*
G36*
X25737Y16410D02*
X25540D01*
Y16213D01*
X25594Y16224D01*
X25673Y16277D01*
X25726Y16356D01*
X25737Y16410D01*
D02*
G37*
%LPD*%
D22*
X24000Y13250D02*
Y16250D01*
X29250Y13250D02*
Y18400D01*
X27600Y20050D02*
X29250Y18400D01*
X25337Y20050D02*
X27600D01*
X25250Y19963D02*
X25337Y20050D01*
X35000Y13250D02*
Y15250D01*
X35900Y16150D01*
X31800Y13250D02*
X35100Y16550D01*
X30250Y13250D02*
X31800D01*
X30750Y23000D02*
X35600D01*
X36150Y22450D01*
X37450D01*
X38750Y21150D01*
Y19250D02*
Y21150D01*
X38250Y18750D02*
X38750Y19250D01*
D23*
X36300Y15300D02*
X38200D01*
X38250Y15250D01*
X39250D01*
X15300Y17600D02*
X15600D01*
X17250Y19250D01*
D24*
X18250Y17000D02*
D03*
Y19250D02*
D03*
X25000Y13250D02*
D03*
X20250Y22750D02*
D03*
X38250Y17000D02*
D03*
X20250Y13250D02*
D03*
X38250Y15250D02*
D03*
X18250Y15500D02*
D03*
X38250Y18750D02*
D03*
Y20500D02*
D03*
X29250Y13250D02*
D03*
X35000D02*
D03*
X18250Y20750D02*
D03*
D25*
X17250Y17000D02*
D03*
Y19250D02*
D03*
X24000Y13250D02*
D03*
X21250Y22750D02*
D03*
X39250Y17000D02*
D03*
X21250Y13250D02*
D03*
X39250Y15250D02*
D03*
X17250Y15500D02*
D03*
X39250Y18750D02*
D03*
Y20500D02*
D03*
X30250Y13250D02*
D03*
X36000D02*
D03*
X17250Y20750D02*
D03*
D26*
X28000Y23000D02*
D03*
X36500D02*
D03*
X30750D02*
D03*
D27*
X15300Y17600D02*
D03*
Y18600D02*
D03*
D28*
X28000Y17367D02*
D03*
Y16933D02*
D03*
D29*
X29550Y17500D02*
D03*
X30200D02*
D03*
X32450Y15500D02*
D03*
X33550Y15750D02*
D03*
X26400Y14300D02*
D03*
X25700Y19300D02*
D03*
X25650Y20800D02*
D03*
X25250Y19963D02*
D03*
X24400Y17050D02*
D03*
Y15550D02*
D03*
X24000Y16250D02*
D03*
X27400Y19300D02*
D03*
X29800Y21050D02*
D03*
X33650Y19650D02*
D03*
X36300Y21350D02*
D03*
X32650Y19600D02*
D03*
X32104Y20600D02*
D03*
X32650Y21600D02*
D03*
X30900Y16150D02*
D03*
X25500Y16450D02*
D03*
Y15250D02*
D03*
Y15850D02*
D03*
X30800Y17600D02*
D03*
X35900Y16550D02*
D03*
X35100D02*
D03*
X35900Y16150D02*
D03*
X35100D02*
D03*
X22600Y12950D02*
D03*
X37150Y19750D02*
D03*
X18900Y13400D02*
D03*
X36300Y15300D02*
D03*
X30350Y18700D02*
D03*
X27900Y12950D02*
D03*
X33650D02*
D03*
D30*
X15050Y13300D02*
D03*
X38950Y22450D02*
D03*
X15050D02*
D03*
X38950Y13300D02*
D03*
D31*
X17100Y13100D02*
D03*
D32*
X23350Y14587D02*
D03*
Y16713D02*
D03*
X20450Y14587D02*
D03*
Y16713D02*
D03*
X23350Y20913D02*
D03*
Y18787D02*
D03*
X20450Y20913D02*
D03*
Y18787D02*
D03*
M02*
