G04 Layer_Physical_Order=1*
G04 Layer_Color=255*
%FSLAX24Y24*%
%MOIN*%
G70*
G01*
G75*
%ADD10R,0.0354X0.0197*%
%ADD11R,0.0197X0.0354*%
%ADD12O,0.0571X0.0177*%
%ADD13R,0.0512X0.0236*%
%ADD14R,0.0236X0.0165*%
%ADD15R,0.0236X0.0512*%
%ADD16R,0.0413X0.0236*%
%ADD17R,0.1102X0.0492*%
%ADD18O,0.0630X0.0118*%
%ADD19R,0.0661X0.0740*%
%ADD20R,0.0512X0.0512*%
%ADD21R,0.0669X0.0433*%
%ADD22C,0.0120*%
%ADD23C,0.0150*%
%ADD24C,0.0591*%
%ADD25R,0.0591X0.0591*%
%ADD26C,0.0661*%
%ADD27C,0.0709*%
%ADD28C,0.0197*%
%ADD29C,0.0280*%
%ADD30C,0.1575*%
%ADD31C,0.0600*%
G36*
X28449Y19099D02*
X28644Y18904D01*
X28691Y18873D01*
X28745Y18862D01*
X28745Y18862D01*
X29563D01*
Y18846D01*
X29657D01*
Y18550D01*
X29657Y18550D01*
X29668Y18495D01*
X29699Y18449D01*
X29849Y18299D01*
X29895Y18268D01*
X29950Y18257D01*
X29950Y18257D01*
X32227D01*
X32571Y17914D01*
Y17622D01*
X33142D01*
Y16945D01*
X33150Y16904D01*
X33119Y16854D01*
X32763D01*
Y16817D01*
X32698D01*
Y16852D01*
X32455D01*
X32338Y16969D01*
Y17063D01*
X32354D01*
Y17537D01*
X32043D01*
Y17700D01*
X32043Y17700D01*
X32032Y17755D01*
X32001Y17801D01*
X32001Y17801D01*
X31801Y18001D01*
X31755Y18032D01*
X31700Y18043D01*
X31700Y18043D01*
X29173D01*
X29173Y18043D01*
X29119Y18032D01*
X29072Y18001D01*
X29072Y18001D01*
X28817Y17746D01*
X28393Y18170D01*
Y19093D01*
X28443Y19109D01*
X28449Y19099D01*
D02*
G37*
G36*
X27820Y23348D02*
X27803Y23341D01*
X27721Y23279D01*
X27659Y23197D01*
X27619Y23102D01*
X27606Y23000D01*
X27619Y22898D01*
X27659Y22803D01*
X27721Y22721D01*
X27803Y22659D01*
X27898Y22619D01*
X28000Y22606D01*
X28057Y22613D01*
X28107Y22570D01*
Y21237D01*
X27796D01*
Y21147D01*
X27750Y21143D01*
X27695Y21132D01*
X27649Y21101D01*
X27283Y20735D01*
X27252Y20688D01*
X27241Y20634D01*
X27241Y20634D01*
Y20535D01*
X27187D01*
X27129Y20524D01*
X27080Y20491D01*
X27047Y20442D01*
X27036Y20384D01*
X27047Y20326D01*
X27051Y20321D01*
X27024Y20271D01*
X26687D01*
Y20454D01*
X26593D01*
Y20546D01*
X26687D01*
Y20863D01*
X26213D01*
Y20546D01*
X26307D01*
Y20454D01*
X26213D01*
Y20137D01*
X26407D01*
X26513Y20031D01*
X26516Y20022D01*
Y19978D01*
X26513Y19969D01*
X26407Y19863D01*
X26213D01*
Y19546D01*
X26307D01*
Y19454D01*
X26213D01*
Y19137D01*
X26687D01*
Y19454D01*
X26593D01*
Y19546D01*
X26687D01*
Y19729D01*
X26980D01*
X27007Y19679D01*
X27003Y19656D01*
X27765D01*
X27758Y19690D01*
X27717Y19752D01*
X27691Y19769D01*
X27721Y19814D01*
X27732Y19872D01*
X27721Y19930D01*
X27696Y19966D01*
X27691Y20000D01*
X27696Y20034D01*
X27721Y20070D01*
X27732Y20128D01*
X27721Y20186D01*
X27688Y20235D01*
Y20277D01*
X27721Y20326D01*
X27732Y20384D01*
X27721Y20442D01*
X27688Y20491D01*
X27639Y20524D01*
X27581Y20535D01*
X27552D01*
X27537Y20585D01*
X27750Y20798D01*
X27796Y20779D01*
Y20763D01*
X28107D01*
Y18111D01*
X28107Y18111D01*
X28118Y18056D01*
X28149Y18010D01*
X28480Y17679D01*
X28475Y17630D01*
X28431Y17620D01*
X28431Y17620D01*
X28040D01*
Y17150D01*
Y16680D01*
X28304D01*
X28339Y16644D01*
X28340Y16632D01*
X28335Y16621D01*
Y16415D01*
X28100D01*
X28054Y16396D01*
X28035Y16350D01*
Y15250D01*
X28054Y15204D01*
X28100Y15185D01*
X28989D01*
Y14990D01*
X29600D01*
Y15296D01*
X29065D01*
Y15635D01*
X30400D01*
X30446Y15654D01*
X30465Y15700D01*
Y16335D01*
X30675D01*
X30702Y16285D01*
X30674Y16244D01*
X30663Y16190D01*
X30900D01*
Y16150D01*
X30940D01*
Y15913D01*
X30994Y15924D01*
X31052Y15963D01*
X31102Y15937D01*
Y15748D01*
X31212D01*
Y15437D01*
X31146D01*
Y14963D01*
X31463D01*
Y15110D01*
X31487Y15145D01*
X31497Y15200D01*
Y15748D01*
X31635D01*
Y16082D01*
X31675D01*
Y16322D01*
X31715Y16331D01*
X31757Y16299D01*
Y15437D01*
X31737D01*
Y14963D01*
X32054D01*
Y15437D01*
X32043D01*
Y16797D01*
X32093Y16812D01*
X32094Y16809D01*
X32165Y16739D01*
Y16496D01*
X32698D01*
Y16531D01*
X32979D01*
X32979Y16531D01*
X33007Y16537D01*
X33237D01*
Y16553D01*
X33313D01*
Y16537D01*
X33787D01*
Y16537D01*
X33839D01*
X33842Y16535D01*
Y16347D01*
X33827Y16303D01*
X33792Y16303D01*
X33590D01*
Y16105D01*
X33510D01*
Y16303D01*
X33040D01*
Y16105D01*
Y15906D01*
X33313D01*
X33336Y15862D01*
X33324Y15844D01*
X33313Y15790D01*
X33550D01*
Y15750D01*
X33590D01*
Y15513D01*
X33644Y15524D01*
X33723Y15577D01*
X33776Y15656D01*
X33792Y15736D01*
X33842Y15731D01*
Y15626D01*
X33668Y15452D01*
X33397D01*
Y15096D01*
X34029D01*
Y15116D01*
X34163D01*
Y15037D01*
X34637D01*
Y15119D01*
X35322D01*
Y14960D01*
X35109Y14747D01*
X34637D01*
Y14763D01*
X34163D01*
Y14669D01*
X34029D01*
Y14704D01*
X33397D01*
Y14348D01*
X34029D01*
Y14383D01*
X34321D01*
X34321Y14383D01*
X34376Y14394D01*
X34422Y14425D01*
X34443Y14446D01*
X34637D01*
Y14462D01*
X35168D01*
X35168Y14462D01*
X35223Y14473D01*
X35269Y14504D01*
X35336Y14571D01*
X35678D01*
Y15119D01*
X36210D01*
X36222Y15112D01*
X36300Y15096D01*
X36378Y15112D01*
X36444Y15156D01*
X36457Y15175D01*
X36507Y15160D01*
Y15009D01*
X35741Y14243D01*
X33159D01*
X33029Y14373D01*
Y14722D01*
X33203D01*
Y15078D01*
X32571D01*
Y14722D01*
X32744D01*
Y14313D01*
X32744Y14313D01*
X32755Y14259D01*
X32786Y14212D01*
X32999Y13999D01*
X32999Y13999D01*
X33045Y13968D01*
X33100Y13957D01*
X35800D01*
X35800Y13957D01*
X35855Y13968D01*
X35901Y13999D01*
X36751Y14849D01*
X36751Y14849D01*
X36782Y14895D01*
X36793Y14950D01*
X36793Y14950D01*
Y17750D01*
X36793Y17750D01*
X36782Y17805D01*
X36751Y17851D01*
X36751Y17851D01*
X34811Y19791D01*
X34811Y19792D01*
X34841Y19832D01*
X34884Y19823D01*
X35125D01*
X35169Y19815D01*
X35316D01*
X36857Y18273D01*
Y13059D01*
X36441Y12643D01*
X19137D01*
Y12663D01*
X18663D01*
Y12643D01*
X18487D01*
Y12663D01*
X18013D01*
Y12352D01*
X14102D01*
Y17271D01*
X14152Y17298D01*
X14212Y17273D01*
X14300Y17262D01*
X14388Y17273D01*
X14469Y17307D01*
X14539Y17361D01*
X14593Y17431D01*
X14627Y17512D01*
X14638Y17600D01*
X14627Y17688D01*
X14593Y17769D01*
X14539Y17839D01*
X14469Y17893D01*
X14388Y17927D01*
X14300Y17938D01*
X14212Y17927D01*
X14152Y17902D01*
X14102Y17929D01*
Y18271D01*
X14152Y18298D01*
X14212Y18273D01*
X14300Y18262D01*
X14388Y18273D01*
X14469Y18307D01*
X14539Y18361D01*
X14593Y18431D01*
X14627Y18512D01*
X14638Y18600D01*
X14627Y18688D01*
X14593Y18769D01*
X14539Y18839D01*
X14469Y18893D01*
X14388Y18927D01*
X14300Y18938D01*
X14212Y18927D01*
X14152Y18902D01*
X14102Y18929D01*
Y23398D01*
X27810D01*
X27820Y23348D01*
D02*
G37*
G36*
X35196Y21663D02*
X35212D01*
Y21587D01*
X35196D01*
Y21113D01*
X35212D01*
Y20885D01*
X35169D01*
X35111Y20874D01*
X35062Y20841D01*
X35029Y20792D01*
X35018Y20734D01*
X35029Y20676D01*
X35062Y20627D01*
Y20585D01*
X35029Y20536D01*
X35018Y20478D01*
X35029Y20420D01*
X35054Y20384D01*
X35059Y20350D01*
X35054Y20316D01*
X35029Y20280D01*
X35018Y20222D01*
X35029Y20164D01*
X35033Y20159D01*
X35006Y20109D01*
X34943D01*
X34938Y20114D01*
Y21113D01*
X34954D01*
Y21587D01*
X34643D01*
Y21757D01*
X35196D01*
Y21663D01*
D02*
G37*
G36*
X39898Y12352D02*
X36620D01*
X36604Y12391D01*
X36604Y12402D01*
X37101Y12899D01*
X37101Y12899D01*
X37132Y12945D01*
X37143Y13000D01*
X37143Y13000D01*
Y18332D01*
X37143Y18332D01*
X37132Y18387D01*
X37101Y18433D01*
X37101Y18433D01*
X35672Y19862D01*
X35703Y19908D01*
X35714Y19966D01*
X35703Y20024D01*
X35699Y20029D01*
X35726Y20079D01*
X35813D01*
Y19896D01*
X36287D01*
Y19912D01*
X36363D01*
Y19896D01*
X36823D01*
X36837Y19896D01*
X36873Y19862D01*
Y19856D01*
X36877D01*
X36916Y19806D01*
X36913Y19790D01*
X37387D01*
X37383Y19806D01*
X37423Y19856D01*
X37427D01*
Y20015D01*
X37150D01*
Y20055D01*
X37110D01*
Y20253D01*
X36873D01*
Y20248D01*
X36837Y20213D01*
X36823Y20213D01*
X36363D01*
Y20197D01*
X36287D01*
Y20213D01*
X36093D01*
X35987Y20319D01*
X35981Y20335D01*
Y20365D01*
X35987Y20381D01*
X36093Y20487D01*
X36287D01*
Y20701D01*
X36315Y20724D01*
X36363Y20703D01*
Y20487D01*
X36837D01*
Y20503D01*
X36913D01*
Y20487D01*
X37387D01*
Y20804D01*
X36913D01*
Y20788D01*
X36837D01*
Y20804D01*
X36449D01*
X36429Y20850D01*
X36573Y20993D01*
X37555D01*
X37919Y20629D01*
X37904Y20593D01*
X37892Y20500D01*
X37904Y20407D01*
X37940Y20321D01*
X37997Y20247D01*
X38071Y20190D01*
X38157Y20154D01*
X38250Y20142D01*
X38343Y20154D01*
X38429Y20190D01*
X38503Y20247D01*
X38560Y20321D01*
X38575Y20357D01*
X38895D01*
Y20145D01*
X39605D01*
Y20855D01*
X38895D01*
Y20643D01*
X38575D01*
X38560Y20679D01*
X38503Y20753D01*
X38429Y20810D01*
X38343Y20846D01*
X38250Y20858D01*
X38157Y20846D01*
X38121Y20831D01*
X37715Y21237D01*
X37668Y21268D01*
X37614Y21279D01*
X37614Y21279D01*
X36703D01*
Y22663D01*
X36779Y22721D01*
X36841Y22803D01*
X36881Y22898D01*
X36894Y23000D01*
X36881Y23102D01*
X36841Y23197D01*
X36779Y23279D01*
X36697Y23341D01*
X36680Y23348D01*
X36690Y23398D01*
X39898D01*
Y12352D01*
D02*
G37*
G36*
X34399Y19799D02*
X36507Y17691D01*
Y15440D01*
X36457Y15425D01*
X36444Y15444D01*
X36378Y15488D01*
X36300Y15504D01*
X36222Y15488D01*
X36156Y15444D01*
X36150Y15436D01*
X36052D01*
Y16018D01*
X36088Y16072D01*
X36104Y16150D01*
X36088Y16228D01*
X36044Y16294D01*
X36034Y16301D01*
Y16351D01*
X36073Y16377D01*
X36126Y16456D01*
X36137Y16510D01*
X35663D01*
X35674Y16456D01*
X35727Y16377D01*
X35766Y16351D01*
Y16301D01*
X35756Y16294D01*
X35712Y16228D01*
X35696Y16150D01*
X35710Y16079D01*
X35696Y16029D01*
X35696D01*
X35696Y16029D01*
Y15436D01*
X35344D01*
Y15673D01*
X34908D01*
Y15436D01*
X34400D01*
X34352Y15426D01*
X34321Y15432D01*
X34161D01*
X34134Y15482D01*
X34146Y15500D01*
X34158Y15561D01*
Y16600D01*
X34146Y16660D01*
X34112Y16712D01*
X34012Y16812D01*
X33960Y16846D01*
X33900Y16858D01*
X33876Y16853D01*
X33787D01*
Y16854D01*
X33615D01*
X33458Y17011D01*
Y17248D01*
X34029D01*
Y17283D01*
X34400D01*
X34455Y17294D01*
X34501Y17325D01*
X34515Y17346D01*
X34637D01*
Y17362D01*
X35191D01*
X35191Y17362D01*
X35246Y17373D01*
X35292Y17404D01*
X35386Y17497D01*
X35678D01*
Y18129D01*
X35322D01*
Y17837D01*
X35132Y17647D01*
X34637D01*
Y17663D01*
X34163D01*
Y17569D01*
X34029D01*
Y17604D01*
X33458D01*
Y17695D01*
X33759Y17996D01*
X34029D01*
Y18016D01*
X34163D01*
Y17937D01*
X34637D01*
Y18254D01*
X34465D01*
X34433Y18286D01*
X34382Y18320D01*
X34321Y18332D01*
X34029D01*
Y18352D01*
X33397D01*
Y18082D01*
X33249Y17933D01*
X33203Y17952D01*
Y17978D01*
X32910D01*
X32388Y18501D01*
X32341Y18532D01*
X32287Y18543D01*
X32287Y18543D01*
X30587D01*
X30563Y18587D01*
X30576Y18606D01*
X30587Y18660D01*
X30350D01*
Y18740D01*
X30587D01*
X30584Y18756D01*
X30623Y18806D01*
X30627D01*
Y18812D01*
X30663Y18846D01*
X31137D01*
Y18862D01*
X33705D01*
X33705Y18862D01*
X33759Y18873D01*
X33806Y18904D01*
X34306Y19404D01*
X34306Y19404D01*
X34337Y19450D01*
X34347Y19505D01*
X34347Y19505D01*
Y19786D01*
X34397Y19801D01*
X34399Y19799D01*
D02*
G37*
G36*
X31748Y17650D02*
X31757Y17641D01*
Y17577D01*
X31645D01*
Y17300D01*
Y17023D01*
X31757D01*
Y16435D01*
X31722Y16400D01*
X31635D01*
Y16456D01*
X31675D01*
Y16634D01*
X31369D01*
Y16674D01*
X31328D01*
Y16892D01*
X31077D01*
Y16903D01*
X30840D01*
Y16705D01*
Y16506D01*
X31016D01*
X31025Y16494D01*
X31022Y16458D01*
X31007Y16434D01*
X30995Y16432D01*
X30949Y16401D01*
X30948Y16400D01*
X30400D01*
Y15700D01*
X29000D01*
Y15250D01*
X28100D01*
Y16350D01*
X28400D01*
Y16621D01*
X28431Y16635D01*
X28450Y16639D01*
X28499Y16606D01*
X28561Y16594D01*
X28777D01*
Y16756D01*
X28817D01*
Y16796D01*
X29252D01*
X29264Y16810D01*
X29498D01*
X29498Y16810D01*
X29511Y16813D01*
X29763D01*
Y16815D01*
X29799Y16850D01*
X30037D01*
Y16813D01*
X30354D01*
Y16815D01*
X30389Y16850D01*
X30450D01*
X30450Y17015D01*
X30485Y17050D01*
X31100Y17050D01*
X31100Y17650D01*
X31748Y17650D01*
D02*
G37*
G36*
X36320Y23348D02*
X36303Y23341D01*
X36221Y23279D01*
X36159Y23197D01*
X36119Y23102D01*
X36106Y23000D01*
X36119Y22898D01*
X36159Y22803D01*
X36221Y22721D01*
X36303Y22659D01*
X36398Y22619D01*
X36417Y22617D01*
Y21616D01*
X36367Y21581D01*
X36340Y21587D01*
Y21350D01*
X36260D01*
Y21587D01*
X36206Y21576D01*
X36188Y21564D01*
X36144Y21587D01*
Y21860D01*
X35747D01*
Y21623D01*
Y21390D01*
X35945D01*
Y21350D01*
X35985D01*
Y21073D01*
X36144D01*
Y21113D01*
X36188Y21136D01*
X36189Y21136D01*
X36206Y21124D01*
X36229Y21119D01*
X36232Y21118D01*
X36247Y21071D01*
X35980Y20804D01*
X35813D01*
Y20621D01*
X35726D01*
X35699Y20671D01*
X35703Y20676D01*
X35714Y20734D01*
X35703Y20792D01*
X35670Y20841D01*
X35621Y20874D01*
X35563Y20885D01*
X35497D01*
Y21113D01*
X35513D01*
Y21587D01*
X35497D01*
Y21663D01*
X35513D01*
Y22137D01*
X35196D01*
Y22043D01*
X32005D01*
X32005Y22043D01*
X31950Y22032D01*
X31904Y22001D01*
X31904Y22001D01*
X31740Y21837D01*
X31546D01*
Y21363D01*
X31594D01*
Y21152D01*
X31421D01*
Y20796D01*
X31886D01*
X31913Y20746D01*
X31878Y20694D01*
X31868Y20640D01*
X32064D01*
Y20864D01*
X32053Y20874D01*
Y21152D01*
X31879D01*
Y21568D01*
X31879Y21572D01*
X32047Y21740D01*
X32097Y21720D01*
Y21640D01*
X32295D01*
Y21600D01*
X32335D01*
Y21323D01*
X32494D01*
Y21363D01*
X32538Y21386D01*
X32556Y21374D01*
X32610Y21363D01*
Y21600D01*
X32650D01*
Y21640D01*
X32887D01*
X32876Y21694D01*
X32863Y21713D01*
X32887Y21757D01*
X34357D01*
Y21587D01*
X34046D01*
Y21493D01*
X33850D01*
X33850Y21493D01*
X33795Y21482D01*
X33749Y21451D01*
X33533Y21235D01*
X33502Y21188D01*
X33491Y21134D01*
X33491Y21134D01*
Y20885D01*
X33437D01*
X33393Y20877D01*
X33084D01*
X33084Y20877D01*
X33029Y20866D01*
X32983Y20835D01*
X32983Y20835D01*
X32966Y20818D01*
X32919Y20818D01*
Y20818D01*
X32919Y20818D01*
X32603D01*
Y20600D01*
X32523D01*
Y20818D01*
X32210D01*
X32198Y20826D01*
X32144Y20837D01*
Y20600D01*
X32104D01*
Y20560D01*
X31868D01*
X31878Y20506D01*
X31913Y20454D01*
X31886Y20404D01*
X31421D01*
Y20048D01*
X31594D01*
Y19618D01*
X31594Y19618D01*
X31596Y19606D01*
Y19363D01*
X31913D01*
Y19837D01*
X31879D01*
Y20048D01*
X32053D01*
Y20083D01*
X33236D01*
X33250Y20057D01*
X33258Y20033D01*
X33253Y20006D01*
X33634D01*
Y19926D01*
X33253D01*
X33259Y19893D01*
X33301Y19830D01*
X33363Y19789D01*
X33390Y19783D01*
X33398Y19774D01*
X33420Y19726D01*
X33413Y19690D01*
X33887D01*
X33878Y19732D01*
X33896Y19787D01*
X33904Y19789D01*
X33967Y19830D01*
X34008Y19893D01*
X34012Y19911D01*
X34062Y19906D01*
Y19564D01*
X33646Y19147D01*
X31137D01*
Y19163D01*
X30663D01*
X30627Y19198D01*
Y19203D01*
X30390D01*
Y19005D01*
X30310D01*
Y19203D01*
X30073D01*
Y19198D01*
X30037Y19163D01*
X29563D01*
Y19147D01*
X28804D01*
X28693Y19259D01*
Y19891D01*
X28727Y19926D01*
X28774Y19901D01*
X28768Y19872D01*
X28779Y19814D01*
X28812Y19765D01*
Y19723D01*
X28779Y19674D01*
X28768Y19616D01*
X28779Y19558D01*
X28812Y19509D01*
X28861Y19476D01*
X28919Y19465D01*
X29313D01*
X29357Y19473D01*
X29563D01*
Y19437D01*
X30037D01*
Y19453D01*
X30113D01*
Y19437D01*
X30587D01*
Y19453D01*
X30663D01*
Y19437D01*
X31137D01*
Y19754D01*
X30876D01*
X30856Y19804D01*
X30951Y19899D01*
X30951Y19899D01*
X30982Y19945D01*
X30993Y20000D01*
X30993Y20000D01*
Y22694D01*
X31029Y22721D01*
X31091Y22803D01*
X31131Y22898D01*
X31144Y23000D01*
X31131Y23102D01*
X31091Y23197D01*
X31029Y23279D01*
X30947Y23341D01*
X30930Y23348D01*
X30940Y23398D01*
X36310D01*
X36320Y23348D01*
D02*
G37*
G36*
X28973Y20625D02*
Y20535D01*
X28919D01*
X28861Y20524D01*
X28812Y20491D01*
X28779Y20442D01*
X28768Y20384D01*
X28779Y20326D01*
X28783Y20321D01*
X28756Y20271D01*
X28728D01*
X28728Y20271D01*
X28673Y20260D01*
X28627Y20229D01*
X28627Y20229D01*
X28449Y20051D01*
X28443Y20041D01*
X28393Y20057D01*
Y20763D01*
X28704D01*
Y20826D01*
X28754Y20844D01*
X28973Y20625D01*
D02*
G37*
G36*
X30570Y23348D02*
X30553Y23341D01*
X30471Y23279D01*
X30409Y23197D01*
X30369Y23102D01*
X30356Y23000D01*
X30369Y22898D01*
X30409Y22803D01*
X30471Y22721D01*
X30553Y22659D01*
X30648Y22619D01*
X30707Y22612D01*
Y20059D01*
X30663Y20015D01*
X30587D01*
Y20263D01*
X30365D01*
X30327Y20271D01*
X30327Y20271D01*
X29476D01*
X29449Y20321D01*
X29453Y20326D01*
X29464Y20384D01*
X29453Y20442D01*
X29420Y20491D01*
X29371Y20524D01*
X29313Y20535D01*
X29259D01*
Y20684D01*
X29248Y20738D01*
X29217Y20785D01*
X29217Y20785D01*
X28901Y21101D01*
X28855Y21132D01*
X28800Y21143D01*
X28800Y21143D01*
X28704D01*
Y21237D01*
X28393D01*
Y22750D01*
X28382Y22805D01*
X28357Y22841D01*
X28381Y22898D01*
X28394Y23000D01*
X28381Y23102D01*
X28341Y23197D01*
X28279Y23279D01*
X28197Y23341D01*
X28180Y23348D01*
X28190Y23398D01*
X30560D01*
X30570Y23348D01*
D02*
G37*
%LPC*%
G36*
X28896Y16056D02*
X28581D01*
Y15740D01*
X28896D01*
Y16056D01*
D02*
G37*
G36*
X32960Y16303D02*
X32723D01*
Y16144D01*
X32471D01*
Y15926D01*
X32431D01*
Y15886D01*
X32125D01*
Y15708D01*
X32245D01*
X32247Y15705D01*
X32267Y15658D01*
X32224Y15594D01*
X32213Y15540D01*
X32687D01*
X32676Y15594D01*
X32633Y15658D01*
X32653Y15705D01*
X32655Y15708D01*
X32738D01*
Y15906D01*
X32960D01*
Y16105D01*
Y16303D01*
D02*
G37*
G36*
X35337Y16110D02*
X34863D01*
X34874Y16056D01*
X34908Y16006D01*
Y15753D01*
X35344D01*
Y16069D01*
X35344D01*
X35332Y16084D01*
X35337Y16110D01*
D02*
G37*
G36*
X33510Y15710D02*
X33313D01*
X33324Y15656D01*
X33377Y15577D01*
X33456Y15524D01*
X33510Y15513D01*
Y15710D01*
D02*
G37*
G36*
X29600Y16110D02*
X28989D01*
Y15804D01*
X29600D01*
Y16110D01*
D02*
G37*
G36*
X23237Y13704D02*
X22763D01*
Y13387D01*
X23237D01*
Y13403D01*
X23645D01*
Y12895D01*
X24355D01*
Y13107D01*
X24675D01*
X24690Y13071D01*
X24747Y12997D01*
X24821Y12940D01*
X24907Y12904D01*
X25000Y12892D01*
X25093Y12904D01*
X25179Y12940D01*
X25253Y12997D01*
X25310Y13071D01*
X25346Y13157D01*
X25358Y13250D01*
X25346Y13343D01*
X25310Y13429D01*
X25253Y13503D01*
X25179Y13560D01*
X25093Y13596D01*
X25000Y13608D01*
X24907Y13596D01*
X24821Y13560D01*
X24747Y13503D01*
X24690Y13429D01*
X24675Y13393D01*
X24355D01*
Y13605D01*
X23847D01*
X23806Y13646D01*
X23759Y13677D01*
X23705Y13688D01*
X23705Y13688D01*
X23237D01*
Y13704D01*
D02*
G37*
G36*
X24700Y18043D02*
X24700Y18043D01*
X20609D01*
X20555Y18032D01*
X20509Y18001D01*
X20509Y18001D01*
X20196Y17688D01*
X19637D01*
Y17704D01*
X19163D01*
Y17387D01*
X19637D01*
Y17403D01*
X20196D01*
X20357Y17241D01*
Y17178D01*
X19771D01*
Y17097D01*
X19637D01*
Y17113D01*
X19437D01*
X19409Y17132D01*
X19355Y17143D01*
X19355Y17143D01*
X18575D01*
X18560Y17179D01*
X18503Y17253D01*
X18429Y17310D01*
X18343Y17346D01*
X18250Y17358D01*
X18157Y17346D01*
X18071Y17310D01*
X17997Y17253D01*
X17940Y17179D01*
X17904Y17093D01*
X17892Y17000D01*
X17904Y16907D01*
X17940Y16821D01*
X17997Y16747D01*
X18071Y16690D01*
X18157Y16654D01*
X18250Y16642D01*
X18343Y16654D01*
X18429Y16690D01*
X18503Y16747D01*
X18560Y16821D01*
X18575Y16857D01*
X19163D01*
Y16796D01*
X19637D01*
Y16812D01*
X20041D01*
X20041Y16812D01*
X20091Y16822D01*
X20357D01*
Y16700D01*
X20357Y16700D01*
X20368Y16645D01*
X20399Y16599D01*
X20473Y16525D01*
X20473Y16525D01*
X20519Y16494D01*
X20574Y16483D01*
X20597D01*
Y16448D01*
X21229D01*
Y16483D01*
X21521D01*
Y16448D01*
X22153D01*
Y16804D01*
X21521D01*
Y16769D01*
X21229D01*
Y16804D01*
X20643D01*
Y17196D01*
X20890D01*
X21186Y16899D01*
X21186Y16899D01*
X21233Y16868D01*
X21287Y16857D01*
X21287Y16857D01*
X22347D01*
Y16822D01*
X22640D01*
X22681Y16781D01*
X22696Y16737D01*
X22696Y16737D01*
X22696D01*
X22696Y16737D01*
Y16263D01*
X23013D01*
Y16737D01*
X22997D01*
Y16809D01*
X22997Y16809D01*
X22987Y16863D01*
X22979Y16874D01*
Y17178D01*
X22347D01*
Y17143D01*
X21347D01*
X21229Y17260D01*
Y17552D01*
X20597D01*
Y17470D01*
X20551Y17451D01*
X20457Y17545D01*
X20669Y17757D01*
X24641D01*
X24756Y17642D01*
X24735Y17592D01*
X24453D01*
Y17374D01*
X24413D01*
Y17334D01*
X24057D01*
Y17156D01*
X24127D01*
X24166Y17106D01*
X24163Y17090D01*
X24400D01*
Y17010D01*
X24163D01*
X24174Y16956D01*
X24227Y16877D01*
X24261Y16854D01*
X24246Y16804D01*
X24097D01*
Y16742D01*
X24075Y16727D01*
X23899Y16551D01*
X23868Y16505D01*
X23857Y16450D01*
X23857Y16450D01*
Y16395D01*
X23856Y16394D01*
X23812Y16328D01*
X23796Y16250D01*
X23812Y16172D01*
X23856Y16106D01*
X23857Y16105D01*
Y15678D01*
X23610D01*
X23314Y15975D01*
X23267Y16006D01*
X23213Y16017D01*
X23213Y16017D01*
X22153D01*
Y16052D01*
X21521D01*
Y15696D01*
X22153D01*
Y15731D01*
X23153D01*
X23271Y15614D01*
Y15322D01*
X23303D01*
Y15237D01*
X23287D01*
Y14763D01*
X23245Y14743D01*
X23055D01*
X23013Y14763D01*
X23013Y14793D01*
Y15237D01*
X22997D01*
Y15309D01*
X22997Y15309D01*
X22987Y15363D01*
X22979Y15374D01*
Y15678D01*
X22347D01*
Y15643D01*
X21347D01*
X21229Y15760D01*
Y16052D01*
X20597D01*
Y15696D01*
X20890D01*
X21186Y15399D01*
X21186Y15399D01*
X21233Y15368D01*
X21287Y15357D01*
X21287Y15357D01*
X22347D01*
Y15322D01*
X22640D01*
X22681Y15281D01*
X22696Y15237D01*
X22696Y15237D01*
X22696D01*
X22696Y15237D01*
Y14793D01*
X22696Y14763D01*
X22655Y14743D01*
X22109D01*
X21979Y14873D01*
Y14948D01*
X22153D01*
Y15304D01*
X21521D01*
Y15269D01*
X21229D01*
Y15304D01*
X20597D01*
Y15097D01*
X19637D01*
Y15113D01*
X19163D01*
Y14796D01*
X19637D01*
Y14812D01*
X20742D01*
X20742Y14812D01*
X20797Y14823D01*
X20843Y14854D01*
X20937Y14948D01*
X21229D01*
Y14983D01*
X21521D01*
Y14948D01*
X21694D01*
Y14813D01*
X21694Y14813D01*
X21705Y14759D01*
X21736Y14712D01*
X21949Y14499D01*
X21949Y14499D01*
X21995Y14468D01*
X22050Y14457D01*
X24600D01*
X24600Y14457D01*
X24655Y14468D01*
X24701Y14499D01*
X25001Y14799D01*
X25001Y14799D01*
X25032Y14845D01*
X25034Y14858D01*
X25091Y14889D01*
X25100Y14885D01*
X25900D01*
X25946Y14904D01*
X25965Y14950D01*
Y15435D01*
X27000D01*
X27002Y15436D01*
X27044Y15408D01*
Y15384D01*
X27675D01*
Y16016D01*
X27326D01*
Y16635D01*
X27439D01*
X27485Y16644D01*
X27524Y16670D01*
X27560Y16678D01*
X27570Y16680D01*
X27591Y16680D01*
X27960D01*
Y17150D01*
Y17620D01*
X27591D01*
X27570Y17620D01*
X27560Y17622D01*
X27524Y17630D01*
X27485Y17656D01*
X27439Y17665D01*
X27253D01*
X27238Y17676D01*
X27183Y17686D01*
X25115D01*
X24801Y18001D01*
X24755Y18032D01*
X24700Y18043D01*
D02*
G37*
G36*
X28501Y16056D02*
X28185D01*
Y15740D01*
X28501D01*
Y16056D01*
D02*
G37*
G36*
X21645Y13210D02*
X21290D01*
Y12855D01*
X21645D01*
Y13210D01*
D02*
G37*
G36*
X20643D02*
X20290D01*
Y12857D01*
X20353Y12865D01*
X20449Y12905D01*
X20532Y12968D01*
X20595Y13051D01*
X20635Y13147D01*
X20643Y13210D01*
D02*
G37*
G36*
X20210D02*
X19857D01*
X19865Y13147D01*
X19905Y13051D01*
X19968Y12968D01*
X20051Y12905D01*
X20147Y12865D01*
X20210Y12857D01*
Y13210D01*
D02*
G37*
G36*
X33610Y12910D02*
X33413D01*
X33424Y12856D01*
X33477Y12777D01*
X33556Y12724D01*
X33610Y12713D01*
Y12910D01*
D02*
G37*
G36*
X27940Y13187D02*
Y12950D01*
Y12713D01*
X27994Y12724D01*
X28042Y12756D01*
X28210D01*
Y12955D01*
Y13153D01*
X28028D01*
X27994Y13176D01*
X27940Y13187D01*
D02*
G37*
G36*
X30291Y16496D02*
X29680D01*
Y16190D01*
X30291D01*
Y16496D01*
D02*
G37*
G36*
X33690Y13187D02*
Y12950D01*
Y12713D01*
X33744Y12724D01*
X33792Y12756D01*
X33960D01*
Y12955D01*
Y13153D01*
X33778D01*
X33744Y13176D01*
X33690Y13187D01*
D02*
G37*
G36*
X27860Y12910D02*
X27663D01*
X27674Y12856D01*
X27727Y12777D01*
X27806Y12724D01*
X27860Y12713D01*
Y12910D01*
D02*
G37*
G36*
X22560D02*
X22363D01*
X22374Y12856D01*
X22427Y12777D01*
X22506Y12724D01*
X22560Y12713D01*
Y12910D01*
D02*
G37*
G36*
X38950Y14152D02*
X38784Y14135D01*
X38624Y14087D01*
X38477Y14008D01*
X38348Y13902D01*
X38242Y13773D01*
X38163Y13626D01*
X38115Y13466D01*
X38098Y13300D01*
X38115Y13134D01*
X38163Y12974D01*
X38242Y12827D01*
X38348Y12698D01*
X38477Y12592D01*
X38624Y12513D01*
X38784Y12465D01*
X38950Y12449D01*
X39116Y12465D01*
X39276Y12513D01*
X39423Y12592D01*
X39552Y12698D01*
X39658Y12827D01*
X39737Y12974D01*
X39785Y13134D01*
X39801Y13300D01*
X39785Y13466D01*
X39737Y13626D01*
X39658Y13773D01*
X39552Y13902D01*
X39423Y14008D01*
X39276Y14087D01*
X39116Y14135D01*
X38950Y14152D01*
D02*
G37*
G36*
X22153Y17552D02*
X21521D01*
Y17196D01*
X22153D01*
Y17231D01*
X23323D01*
X23325Y17228D01*
X23298Y17178D01*
X23271D01*
Y16822D01*
X23303D01*
Y16737D01*
X23287D01*
Y16263D01*
X23604D01*
Y16737D01*
X23588D01*
Y16800D01*
X23610Y16822D01*
X23903D01*
Y17178D01*
X23761D01*
X23729Y17213D01*
X23718Y17268D01*
X23688Y17314D01*
X23688Y17314D01*
X23527Y17475D01*
X23481Y17506D01*
X23426Y17517D01*
X23426Y17517D01*
X22153D01*
Y17552D01*
D02*
G37*
G36*
X22640Y13187D02*
Y12950D01*
Y12713D01*
X22694Y12724D01*
X22742Y12756D01*
X22960D01*
Y12955D01*
Y13153D01*
X22728D01*
X22694Y13176D01*
X22640Y13187D01*
D02*
G37*
G36*
X34277Y12915D02*
X34040D01*
Y12756D01*
X34277D01*
Y12915D01*
D02*
G37*
G36*
X30860Y16110D02*
X30663D01*
X30674Y16056D01*
X30727Y15977D01*
X30806Y15924D01*
X30860Y15913D01*
Y16110D01*
D02*
G37*
G36*
X30291Y16110D02*
X29680D01*
Y15804D01*
X30291D01*
Y16110D01*
D02*
G37*
G36*
X21210Y13210D02*
X20855D01*
Y12855D01*
X21210D01*
Y13210D01*
D02*
G37*
G36*
X28527Y12915D02*
X28290D01*
Y12756D01*
X28527D01*
Y12915D01*
D02*
G37*
G36*
X35304Y17303D02*
X34948D01*
Y16682D01*
X34912Y16628D01*
X34896Y16550D01*
X34912Y16472D01*
X34956Y16406D01*
X34966Y16399D01*
Y16349D01*
X34927Y16323D01*
X34874Y16244D01*
X34863Y16190D01*
X35337D01*
X35326Y16244D01*
X35273Y16323D01*
X35234Y16349D01*
Y16399D01*
X35244Y16406D01*
X35288Y16472D01*
X35304Y16550D01*
X35290Y16621D01*
X35304Y16671D01*
X35304D01*
X35304Y16671D01*
Y17303D01*
D02*
G37*
G36*
X29600Y16496D02*
X28989D01*
Y16190D01*
X29600D01*
Y16496D01*
D02*
G37*
G36*
X23277Y12915D02*
X23040D01*
Y12756D01*
X23277D01*
Y12915D01*
D02*
G37*
G36*
X32392Y16144D02*
X32125D01*
Y15966D01*
X32392D01*
Y16144D01*
D02*
G37*
G36*
X28896Y15660D02*
X28581D01*
Y15344D01*
X28896D01*
Y15660D01*
D02*
G37*
G36*
X21210Y13645D02*
X20855D01*
Y13290D01*
X21210D01*
Y13645D01*
D02*
G37*
G36*
X21645D02*
X21290D01*
Y13290D01*
X21645D01*
Y13645D01*
D02*
G37*
G36*
X20210Y13643D02*
X20147Y13635D01*
X20051Y13595D01*
X19968Y13532D01*
X19905Y13449D01*
X19865Y13353D01*
X19857Y13290D01*
X20210D01*
Y13643D01*
D02*
G37*
G36*
X20290D02*
Y13290D01*
X20643D01*
X20635Y13353D01*
X20595Y13449D01*
X20532Y13532D01*
X20449Y13595D01*
X20353Y13635D01*
X20290Y13643D01*
D02*
G37*
G36*
X26360Y14260D02*
X26163D01*
X26174Y14206D01*
X26227Y14127D01*
X26306Y14074D01*
X26360Y14063D01*
Y14260D01*
D02*
G37*
G36*
X26637D02*
X26440D01*
Y14063D01*
X26494Y14074D01*
X26573Y14127D01*
X26626Y14206D01*
X26637Y14260D01*
D02*
G37*
G36*
X18860Y13637D02*
X18806Y13626D01*
X18727Y13573D01*
X18674Y13494D01*
X18663Y13440D01*
X18860D01*
Y13637D01*
D02*
G37*
G36*
X18940D02*
Y13440D01*
X19137D01*
X19126Y13494D01*
X19073Y13573D01*
X18994Y13626D01*
X18940Y13637D01*
D02*
G37*
G36*
X27860Y13187D02*
X27806Y13176D01*
X27727Y13123D01*
X27674Y13044D01*
X27663Y12990D01*
X27860D01*
Y13187D01*
D02*
G37*
G36*
X33610D02*
X33556Y13176D01*
X33477Y13123D01*
X33424Y13044D01*
X33413Y12990D01*
X33610D01*
Y13187D01*
D02*
G37*
G36*
X17100Y13463D02*
X17006Y13451D01*
X16918Y13414D01*
X16843Y13357D01*
X16786Y13282D01*
X16749Y13194D01*
X16737Y13100D01*
X16749Y13006D01*
X16786Y12918D01*
X16843Y12843D01*
X16918Y12786D01*
X17006Y12749D01*
X17100Y12737D01*
X17194Y12749D01*
X17282Y12786D01*
X17357Y12843D01*
X17414Y12918D01*
X17424Y12942D01*
X18013D01*
Y12937D01*
X18487D01*
Y13254D01*
X18272D01*
X18250Y13258D01*
X17424D01*
X17414Y13282D01*
X17357Y13357D01*
X17282Y13414D01*
X17194Y13451D01*
X17100Y13463D01*
D02*
G37*
G36*
X22560Y13187D02*
X22506Y13176D01*
X22427Y13123D01*
X22374Y13044D01*
X22363Y12990D01*
X22560D01*
Y13187D01*
D02*
G37*
G36*
X34277Y13153D02*
X34040D01*
Y12995D01*
X34277D01*
Y13153D01*
D02*
G37*
G36*
X19137Y13360D02*
X18663D01*
X18666Y13344D01*
X18627Y13294D01*
X18623D01*
Y13135D01*
X19177D01*
Y13294D01*
X19173D01*
X19133Y13344D01*
X19137Y13360D01*
D02*
G37*
G36*
X23277Y13153D02*
X23040D01*
Y12995D01*
X23277D01*
Y13153D01*
D02*
G37*
G36*
X28527D02*
X28290D01*
Y12995D01*
X28527D01*
Y13153D01*
D02*
G37*
G36*
X32410Y15460D02*
X32213D01*
X32224Y15406D01*
X32277Y15327D01*
X32356Y15274D01*
X32410Y15263D01*
Y15460D01*
D02*
G37*
G36*
X32687D02*
X32490D01*
Y15263D01*
X32544Y15274D01*
X32623Y15327D01*
X32676Y15406D01*
X32687Y15460D01*
D02*
G37*
G36*
X18860Y13055D02*
X18623D01*
Y12897D01*
X18860D01*
Y13055D01*
D02*
G37*
G36*
X15300Y18018D02*
X15192Y18004D01*
X15091Y17962D01*
X15005Y17895D01*
X14938Y17809D01*
X14896Y17708D01*
X14882Y17600D01*
X14896Y17492D01*
X14938Y17391D01*
X15005Y17305D01*
X15091Y17238D01*
X15192Y17196D01*
X15300Y17182D01*
X15339Y17187D01*
X16895Y15632D01*
Y15145D01*
X17605D01*
Y15855D01*
X17118D01*
X15627Y17346D01*
X15662Y17391D01*
X15704Y17492D01*
X15718Y17600D01*
X15704Y17708D01*
X15662Y17809D01*
X15596Y17895D01*
X15509Y17962D01*
X15408Y18004D01*
X15300Y18018D01*
D02*
G37*
G36*
X18250Y15858D02*
X18157Y15846D01*
X18071Y15810D01*
X17997Y15753D01*
X17940Y15679D01*
X17904Y15593D01*
X17892Y15500D01*
X17904Y15407D01*
X17940Y15321D01*
X17997Y15247D01*
X18071Y15190D01*
X18157Y15154D01*
X18250Y15142D01*
X18343Y15154D01*
X18429Y15190D01*
X18503Y15247D01*
X18560Y15321D01*
X18575Y15357D01*
X19355D01*
X19355Y15357D01*
X19409Y15368D01*
X19437Y15387D01*
X19637D01*
Y15403D01*
X19771D01*
Y15322D01*
X20403D01*
Y15678D01*
X20091D01*
X20041Y15688D01*
X20041Y15688D01*
X19637D01*
Y15704D01*
X19163D01*
Y15643D01*
X18575D01*
X18560Y15679D01*
X18503Y15753D01*
X18429Y15810D01*
X18343Y15846D01*
X18250Y15858D01*
D02*
G37*
G36*
X28501Y15660D02*
X28185D01*
Y15344D01*
X28501D01*
Y15660D01*
D02*
G37*
G36*
X34237Y13704D02*
X33763D01*
Y13387D01*
X34237D01*
Y13403D01*
X34627D01*
X34660Y13359D01*
X34654Y13343D01*
X34642Y13250D01*
X34654Y13157D01*
X34690Y13071D01*
X34747Y12997D01*
X34821Y12940D01*
X34907Y12904D01*
X35000Y12892D01*
X35093Y12904D01*
X35179Y12940D01*
X35253Y12997D01*
X35310Y13071D01*
X35325Y13107D01*
X35645D01*
Y12895D01*
X36355D01*
Y13605D01*
X35645D01*
Y13393D01*
X35325D01*
X35310Y13429D01*
X35253Y13503D01*
X35179Y13560D01*
X35093Y13596D01*
X35000Y13608D01*
X34907Y13596D01*
X34871Y13581D01*
X34806Y13646D01*
X34759Y13677D01*
X34705Y13688D01*
X34705Y13688D01*
X34237D01*
Y13704D01*
D02*
G37*
G36*
X28487D02*
X28013D01*
Y13387D01*
X28487D01*
Y13403D01*
X28877D01*
X28910Y13359D01*
X28904Y13343D01*
X28892Y13250D01*
X28904Y13157D01*
X28940Y13071D01*
X28997Y12997D01*
X29071Y12940D01*
X29157Y12904D01*
X29250Y12892D01*
X29343Y12904D01*
X29429Y12940D01*
X29503Y12997D01*
X29560Y13071D01*
X29575Y13107D01*
X29895D01*
Y12895D01*
X30605D01*
Y13605D01*
X29895D01*
Y13393D01*
X29575D01*
X29560Y13429D01*
X29503Y13503D01*
X29429Y13560D01*
X29343Y13596D01*
X29250Y13608D01*
X29157Y13596D01*
X29121Y13581D01*
X29056Y13646D01*
X29009Y13677D01*
X28955Y13688D01*
X28955Y13688D01*
X28487D01*
Y13704D01*
D02*
G37*
G36*
X30291Y14910D02*
X29680D01*
Y14604D01*
X30291D01*
Y14910D01*
D02*
G37*
G36*
X26460Y15135D02*
X26065D01*
Y14858D01*
X26460D01*
Y15135D01*
D02*
G37*
G36*
X26935Y14778D02*
X26065D01*
Y14502D01*
X26187D01*
X26213Y14452D01*
X26174Y14394D01*
X26163Y14340D01*
X26637D01*
X26626Y14394D01*
X26587Y14452D01*
X26613Y14502D01*
X26935D01*
Y14778D01*
D02*
G37*
G36*
X29600Y14910D02*
X28989D01*
Y14604D01*
X29600D01*
Y14910D01*
D02*
G37*
G36*
X30291Y15296D02*
X29680D01*
Y14990D01*
X30291D01*
Y15296D01*
D02*
G37*
G36*
X19177Y13055D02*
X18940D01*
Y12897D01*
X19177D01*
Y13055D01*
D02*
G37*
G36*
X26935Y15135D02*
X26540D01*
Y14858D01*
X26935D01*
Y15135D01*
D02*
G37*
G36*
X38250Y15608D02*
X38157Y15596D01*
X38071Y15560D01*
X37997Y15503D01*
X37940Y15429D01*
X37904Y15343D01*
X37892Y15250D01*
X37904Y15157D01*
X37940Y15071D01*
X37997Y14997D01*
X38071Y14940D01*
X38157Y14904D01*
X38250Y14892D01*
X38343Y14904D01*
X38429Y14940D01*
X38503Y14997D01*
X38560Y15071D01*
X38575Y15107D01*
X38895D01*
Y14895D01*
X39605D01*
Y15605D01*
X38895D01*
Y15393D01*
X38575D01*
X38560Y15429D01*
X38503Y15503D01*
X38429Y15560D01*
X38343Y15596D01*
X38250Y15608D01*
D02*
G37*
G36*
X15050Y14152D02*
X14884Y14135D01*
X14724Y14087D01*
X14577Y14008D01*
X14448Y13902D01*
X14342Y13773D01*
X14263Y13626D01*
X14215Y13466D01*
X14198Y13300D01*
X14215Y13134D01*
X14263Y12974D01*
X14342Y12827D01*
X14448Y12698D01*
X14577Y12592D01*
X14724Y12513D01*
X14884Y12465D01*
X15050Y12449D01*
X15216Y12465D01*
X15376Y12513D01*
X15523Y12592D01*
X15652Y12698D01*
X15758Y12827D01*
X15837Y12974D01*
X15885Y13134D01*
X15901Y13300D01*
X15885Y13466D01*
X15837Y13626D01*
X15758Y13773D01*
X15652Y13902D01*
X15523Y14008D01*
X15376Y14087D01*
X15216Y14135D01*
X15050Y14152D01*
D02*
G37*
G36*
X30627Y20894D02*
X30390D01*
Y20735D01*
X30627D01*
Y20894D01*
D02*
G37*
G36*
Y20655D02*
X30390D01*
Y20497D01*
X30627D01*
Y20655D01*
D02*
G37*
G36*
X30037Y21010D02*
X29563D01*
X29574Y20956D01*
X29586Y20938D01*
X29563Y20894D01*
X29523D01*
Y20735D01*
X29800D01*
Y20695D01*
X29840D01*
Y20497D01*
X30310D01*
Y20695D01*
Y20894D01*
X30037D01*
X30014Y20938D01*
X30026Y20956D01*
X30037Y21010D01*
D02*
G37*
G36*
X26019Y21084D02*
X25307D01*
Y20906D01*
X25377D01*
X25416Y20856D01*
X25413Y20840D01*
X25887D01*
X25884Y20856D01*
X25923Y20906D01*
X26019D01*
Y21084D01*
D02*
G37*
G36*
X29840Y21287D02*
Y21090D01*
X30037D01*
X30026Y21144D01*
X29973Y21223D01*
X29894Y21276D01*
X29840Y21287D01*
D02*
G37*
G36*
X29760D02*
X29706Y21276D01*
X29627Y21223D01*
X29574Y21144D01*
X29563Y21090D01*
X29760D01*
Y21287D01*
D02*
G37*
G36*
X35905Y21310D02*
X35747D01*
Y21073D01*
X35905D01*
Y21310D01*
D02*
G37*
G36*
X29760Y20655D02*
X29523D01*
Y20497D01*
X29760D01*
Y20655D01*
D02*
G37*
G36*
X37387Y19710D02*
X37190D01*
Y19513D01*
X37244Y19524D01*
X37323Y19577D01*
X37376Y19656D01*
X37387Y19710D01*
D02*
G37*
G36*
X37110D02*
X36913D01*
X36924Y19656D01*
X36977Y19577D01*
X37056Y19524D01*
X37110Y19513D01*
Y19710D01*
D02*
G37*
G36*
X33887Y19610D02*
X33690D01*
Y19413D01*
X33744Y19424D01*
X33823Y19477D01*
X33876Y19556D01*
X33887Y19610D01*
D02*
G37*
G36*
X32305Y19877D02*
X32147D01*
Y19640D01*
X32305D01*
Y19877D01*
D02*
G37*
G36*
X37427Y20253D02*
X37190D01*
Y20095D01*
X37427D01*
Y20253D01*
D02*
G37*
G36*
X26019Y19842D02*
X25703D01*
Y19664D01*
X26019D01*
Y19842D01*
D02*
G37*
G36*
X32690Y19837D02*
Y19640D01*
X32887D01*
X32876Y19694D01*
X32823Y19773D01*
X32744Y19826D01*
X32690Y19837D01*
D02*
G37*
G36*
X20643Y22710D02*
X20290D01*
Y22357D01*
X20353Y22365D01*
X20449Y22405D01*
X20532Y22468D01*
X20595Y22551D01*
X20635Y22647D01*
X20643Y22710D01*
D02*
G37*
G36*
X20210D02*
X19857D01*
X19865Y22647D01*
X19905Y22551D01*
X19968Y22468D01*
X20051Y22405D01*
X20147Y22365D01*
X20210Y22357D01*
Y22710D01*
D02*
G37*
G36*
X21645D02*
X21290D01*
Y22355D01*
X21645D01*
Y22710D01*
D02*
G37*
G36*
X20210Y23143D02*
X20147Y23135D01*
X20051Y23095D01*
X19968Y23032D01*
X19905Y22949D01*
X19865Y22853D01*
X19857Y22790D01*
X20210D01*
Y23143D01*
D02*
G37*
G36*
X21645Y23145D02*
X21290D01*
Y22790D01*
X21645D01*
Y23145D01*
D02*
G37*
G36*
X21210D02*
X20855D01*
Y22790D01*
X21210D01*
Y23145D01*
D02*
G37*
G36*
X20290Y23143D02*
Y22790D01*
X20643D01*
X20635Y22853D01*
X20595Y22949D01*
X20532Y23032D01*
X20449Y23095D01*
X20353Y23135D01*
X20290Y23143D01*
D02*
G37*
G36*
X21210Y22710D02*
X20855D01*
Y22355D01*
X21210D01*
Y22710D01*
D02*
G37*
G36*
X15050Y23301D02*
X14884Y23285D01*
X14724Y23237D01*
X14577Y23158D01*
X14448Y23052D01*
X14342Y22923D01*
X14263Y22776D01*
X14215Y22616D01*
X14198Y22450D01*
X14215Y22284D01*
X14263Y22124D01*
X14342Y21977D01*
X14448Y21848D01*
X14577Y21742D01*
X14724Y21663D01*
X14884Y21615D01*
X15050Y21598D01*
X15216Y21615D01*
X15376Y21663D01*
X15523Y21742D01*
X15652Y21848D01*
X15758Y21977D01*
X15837Y22124D01*
X15885Y22284D01*
X15901Y22450D01*
X15885Y22616D01*
X15837Y22776D01*
X15758Y22923D01*
X15652Y23052D01*
X15523Y23158D01*
X15376Y23237D01*
X15216Y23285D01*
X15050Y23301D01*
D02*
G37*
G36*
X32887Y21560D02*
X32690D01*
Y21363D01*
X32744Y21374D01*
X32823Y21427D01*
X32876Y21506D01*
X32887Y21560D01*
D02*
G37*
G36*
X32255D02*
X32097D01*
Y21323D01*
X32255D01*
Y21560D01*
D02*
G37*
G36*
X38950Y23301D02*
X38784Y23285D01*
X38624Y23237D01*
X38477Y23158D01*
X38348Y23052D01*
X38242Y22923D01*
X38163Y22776D01*
X38115Y22616D01*
X38098Y22450D01*
X38115Y22284D01*
X38163Y22124D01*
X38242Y21977D01*
X38348Y21848D01*
X38477Y21742D01*
X38624Y21663D01*
X38784Y21615D01*
X38950Y21598D01*
X39116Y21615D01*
X39276Y21663D01*
X39423Y21742D01*
X39552Y21848D01*
X39658Y21977D01*
X39737Y22124D01*
X39785Y22284D01*
X39801Y22450D01*
X39785Y22616D01*
X39737Y22776D01*
X39658Y22923D01*
X39552Y23052D01*
X39423Y23158D01*
X39276Y23237D01*
X39116Y23285D01*
X38950Y23301D01*
D02*
G37*
G36*
X36144Y22177D02*
X35985D01*
Y21940D01*
X36144D01*
Y22177D01*
D02*
G37*
G36*
X35905D02*
X35747D01*
Y21940D01*
X35905D01*
Y22177D01*
D02*
G37*
G36*
X26250Y21643D02*
X26250Y21643D01*
X20650D01*
X20650Y21643D01*
X20595Y21632D01*
X20549Y21601D01*
X20399Y21451D01*
X20368Y21405D01*
X20357Y21350D01*
X20357Y21350D01*
Y20928D01*
X19771D01*
Y20893D01*
X18575D01*
X18560Y20929D01*
X18503Y21003D01*
X18429Y21060D01*
X18343Y21096D01*
X18250Y21108D01*
X18157Y21096D01*
X18071Y21060D01*
X17997Y21003D01*
X17940Y20929D01*
X17904Y20843D01*
X17892Y20750D01*
X17904Y20657D01*
X17940Y20571D01*
X17997Y20497D01*
X18071Y20440D01*
X18157Y20404D01*
X18250Y20392D01*
X18343Y20404D01*
X18429Y20440D01*
X18503Y20497D01*
X18560Y20571D01*
X18575Y20607D01*
X19771D01*
Y20572D01*
X20357D01*
Y20500D01*
X20357Y20500D01*
X20368Y20445D01*
X20399Y20399D01*
X20523Y20275D01*
X20523Y20275D01*
X20569Y20244D01*
X20597Y20239D01*
Y20198D01*
X21229D01*
Y20233D01*
X21463D01*
X21463Y20233D01*
X21517Y20244D01*
X21564Y20275D01*
X21860Y20572D01*
X22153D01*
Y20928D01*
X21521D01*
Y20636D01*
X21403Y20519D01*
X21229D01*
Y20554D01*
X20648D01*
X20643Y20559D01*
Y20946D01*
X21229D01*
Y20981D01*
X22347D01*
Y20946D01*
X22979D01*
Y20981D01*
X23072D01*
X23296Y20757D01*
Y20563D01*
X23540D01*
X23561Y20513D01*
X23447Y20399D01*
X23385D01*
X23307Y20477D01*
X23261Y20508D01*
X23206Y20519D01*
X23206Y20519D01*
X22979D01*
Y20554D01*
X22347D01*
Y20198D01*
X22979D01*
Y20233D01*
X23147D01*
X23148Y20232D01*
Y19857D01*
Y19601D01*
X23326D01*
X23326Y19601D01*
X23547D01*
X23607Y19541D01*
Y19487D01*
X23296D01*
Y19393D01*
X23097D01*
X22979Y19510D01*
Y19802D01*
X22347D01*
Y19767D01*
X21229D01*
Y19802D01*
X20597D01*
Y19446D01*
X21229D01*
Y19481D01*
X22347D01*
Y19446D01*
X22640D01*
X22936Y19149D01*
X22936Y19149D01*
X22983Y19118D01*
X23037Y19107D01*
X23037Y19107D01*
X23296D01*
Y19019D01*
X22979D01*
Y19054D01*
X22347D01*
Y18698D01*
X22979D01*
Y18733D01*
X23626D01*
X23626Y18733D01*
X23626Y18733D01*
X24463D01*
X24463Y18733D01*
X24517Y18744D01*
X24564Y18775D01*
X24860Y19072D01*
X25153D01*
Y19120D01*
X25199Y19139D01*
X25347Y18990D01*
Y18698D01*
X25979D01*
Y19054D01*
X25854D01*
X25839Y19104D01*
X25873Y19127D01*
X25926Y19206D01*
X25937Y19260D01*
X25700D01*
Y19340D01*
X25937D01*
X25934Y19356D01*
X25973Y19406D01*
X26019D01*
Y19584D01*
X25663D01*
Y19624D01*
X25623D01*
Y19842D01*
X25462D01*
X25440Y19892D01*
X25454Y19963D01*
X25454Y19964D01*
X25687Y20198D01*
X25979D01*
Y20554D01*
X25804D01*
X25789Y20604D01*
X25823Y20627D01*
X25876Y20706D01*
X25887Y20760D01*
X25413D01*
X25424Y20706D01*
X25477Y20627D01*
X25511Y20604D01*
X25496Y20554D01*
X25347D01*
Y20262D01*
X25252Y20166D01*
X25250Y20167D01*
X25172Y20151D01*
X25106Y20107D01*
X25062Y20041D01*
X25046Y19963D01*
X25062Y19885D01*
X25106Y19818D01*
X25107Y19817D01*
Y19428D01*
X24521D01*
Y19136D01*
X24403Y19019D01*
X24204D01*
Y19221D01*
X24206Y19224D01*
X24217Y19279D01*
Y19601D01*
X24252D01*
Y19857D01*
Y20113D01*
Y20399D01*
X24217D01*
Y20771D01*
X24206Y20826D01*
X24204Y20829D01*
Y21037D01*
X24245Y21057D01*
X24691D01*
X24694Y21054D01*
Y20928D01*
X24521D01*
Y20572D01*
X25153D01*
Y20928D01*
X24979D01*
Y21113D01*
X24979Y21113D01*
X24968Y21168D01*
X24938Y21214D01*
X24938Y21214D01*
X24851Y21301D01*
X24841Y21307D01*
X24857Y21357D01*
X25264D01*
X25307Y21342D01*
X25307Y21307D01*
Y21164D01*
X26019D01*
X26019Y21342D01*
X26063Y21357D01*
X26172D01*
X26213Y21316D01*
Y21137D01*
X26687D01*
Y21454D01*
X26498D01*
X26351Y21601D01*
X26305Y21632D01*
X26250Y21643D01*
D02*
G37*
G36*
X33610Y19610D02*
X33413D01*
X33424Y19556D01*
X33477Y19477D01*
X33556Y19424D01*
X33610Y19413D01*
Y19610D01*
D02*
G37*
G36*
X31565Y17260D02*
X31406D01*
Y17023D01*
X31565D01*
Y17260D01*
D02*
G37*
G36*
X35834Y17343D02*
X35656D01*
Y17027D01*
X35834D01*
Y17343D01*
D02*
G37*
G36*
X31675Y16892D02*
X31409D01*
Y16714D01*
X31675D01*
Y16892D01*
D02*
G37*
G36*
X30760Y16903D02*
X30523D01*
Y16745D01*
X30760D01*
Y16903D01*
D02*
G37*
G36*
X38290Y17393D02*
Y17040D01*
X38643D01*
X38635Y17103D01*
X38595Y17199D01*
X38532Y17282D01*
X38449Y17345D01*
X38353Y17385D01*
X38290Y17393D01*
D02*
G37*
G36*
X39210Y17395D02*
X38855D01*
Y17040D01*
X39210D01*
Y17395D01*
D02*
G37*
G36*
X36092Y17343D02*
X35914D01*
Y17027D01*
X36092D01*
Y17343D01*
D02*
G37*
G36*
X38210Y17393D02*
X38147Y17385D01*
X38051Y17345D01*
X37968Y17282D01*
X37905Y17199D01*
X37865Y17103D01*
X37857Y17040D01*
X38210D01*
Y17393D01*
D02*
G37*
G36*
X29227Y16716D02*
X28857D01*
Y16594D01*
X29073D01*
X29135Y16606D01*
X29188Y16642D01*
X29223Y16694D01*
X29227Y16716D01*
D02*
G37*
G36*
X39210Y16960D02*
X38855D01*
Y16605D01*
X39210D01*
Y16960D01*
D02*
G37*
G36*
X30760Y16665D02*
X30523D01*
Y16506D01*
X30760D01*
Y16665D01*
D02*
G37*
G36*
X36092Y16947D02*
X35656D01*
Y16631D01*
X35656D01*
X35668Y16616D01*
X35663Y16590D01*
X36137D01*
X36126Y16644D01*
X36092Y16694D01*
Y16947D01*
D02*
G37*
G36*
X38643Y16960D02*
X38290D01*
Y16607D01*
X38353Y16615D01*
X38449Y16655D01*
X38532Y16718D01*
X38595Y16801D01*
X38635Y16897D01*
X38643Y16960D01*
D02*
G37*
G36*
X17605Y21105D02*
X16895D01*
Y20618D01*
X15294Y19017D01*
X15192Y19004D01*
X15091Y18962D01*
X15005Y18895D01*
X14938Y18809D01*
X14896Y18708D01*
X14882Y18600D01*
X14896Y18492D01*
X14938Y18391D01*
X15005Y18305D01*
X15091Y18238D01*
X15192Y18196D01*
X15300Y18182D01*
X15408Y18196D01*
X15509Y18238D01*
X15596Y18305D01*
X15627Y18346D01*
X15677Y18349D01*
X16895Y17132D01*
Y16645D01*
X17605D01*
Y17355D01*
X17118D01*
X15762Y18712D01*
X15710Y18746D01*
X15686Y18751D01*
X15662Y18809D01*
X15606Y18882D01*
X17118Y20395D01*
X17605D01*
Y21105D01*
D02*
G37*
G36*
X39645Y16960D02*
X39290D01*
Y16605D01*
X39645D01*
Y16960D01*
D02*
G37*
G36*
X38210D02*
X37857D01*
X37865Y16897D01*
X37905Y16801D01*
X37968Y16718D01*
X38051Y16655D01*
X38147Y16615D01*
X38210Y16607D01*
Y16960D01*
D02*
G37*
G36*
X27637Y19260D02*
X27440D01*
Y19063D01*
X27494Y19074D01*
X27573Y19127D01*
X27626Y19206D01*
X27637Y19260D01*
D02*
G37*
G36*
X18250Y19608D02*
X18157Y19596D01*
X18071Y19560D01*
X17997Y19503D01*
X17940Y19429D01*
X17904Y19343D01*
X17892Y19250D01*
X17904Y19157D01*
X17940Y19071D01*
X17997Y18997D01*
X18071Y18940D01*
X18157Y18904D01*
X18250Y18892D01*
X18343Y18904D01*
X18429Y18940D01*
X18503Y18997D01*
X18560Y19071D01*
X18575Y19107D01*
X19771D01*
Y19072D01*
X20403D01*
Y19428D01*
X19771D01*
Y19393D01*
X18575D01*
X18560Y19429D01*
X18503Y19503D01*
X18429Y19560D01*
X18343Y19596D01*
X18250Y19608D01*
D02*
G37*
G36*
X22153Y19428D02*
X21521D01*
Y19136D01*
X21403Y19019D01*
X21229D01*
Y19054D01*
X20597D01*
Y18698D01*
X20890D01*
X21188Y18399D01*
X21188Y18399D01*
X21235Y18368D01*
X21289Y18357D01*
X21289Y18357D01*
X26250D01*
X26250Y18357D01*
X26305Y18368D01*
X26351Y18399D01*
X26498Y18546D01*
X26687D01*
Y18863D01*
X26213D01*
Y18665D01*
X26191Y18643D01*
X21349D01*
X21304Y18687D01*
X21323Y18733D01*
X21463D01*
X21463Y18733D01*
X21517Y18744D01*
X21564Y18775D01*
X21860Y19072D01*
X22153D01*
Y19428D01*
D02*
G37*
G36*
X27360Y19260D02*
X27163D01*
X27174Y19206D01*
X27227Y19127D01*
X27306Y19074D01*
X27360Y19063D01*
Y19260D01*
D02*
G37*
G36*
X32544Y19877D02*
X32385D01*
Y19600D01*
Y19323D01*
X32544D01*
Y19327D01*
X32594Y19367D01*
X32610Y19363D01*
Y19600D01*
Y19837D01*
X32594Y19834D01*
X32544Y19873D01*
Y19877D01*
D02*
G37*
G36*
X32887Y19560D02*
X32690D01*
Y19363D01*
X32744Y19374D01*
X32823Y19427D01*
X32876Y19506D01*
X32887Y19560D01*
D02*
G37*
G36*
X32305D02*
X32147D01*
Y19323D01*
X32305D01*
Y19560D01*
D02*
G37*
G36*
X27765Y19576D02*
X27003D01*
X27009Y19543D01*
X27051Y19480D01*
X27113Y19439D01*
X27140Y19433D01*
X27148Y19424D01*
X27170Y19376D01*
X27163Y19340D01*
X27637D01*
X27628Y19382D01*
X27646Y19437D01*
X27654Y19439D01*
X27717Y19480D01*
X27758Y19543D01*
X27765Y19576D01*
D02*
G37*
G36*
X17605Y19605D02*
X16895D01*
Y18895D01*
X17605D01*
Y19605D01*
D02*
G37*
G36*
X24373Y17592D02*
X24057D01*
Y17414D01*
X24373D01*
Y17592D01*
D02*
G37*
G36*
X31565Y17577D02*
X31406D01*
Y17340D01*
X31565D01*
Y17577D01*
D02*
G37*
G36*
X39645Y17395D02*
X39290D01*
Y17040D01*
X39645D01*
Y17395D01*
D02*
G37*
G36*
X38250Y19108D02*
X38157Y19096D01*
X38071Y19060D01*
X37997Y19003D01*
X37940Y18929D01*
X37904Y18843D01*
X37892Y18750D01*
X37904Y18657D01*
X37940Y18571D01*
X37997Y18497D01*
X38071Y18440D01*
X38157Y18404D01*
X38250Y18392D01*
X38343Y18404D01*
X38429Y18440D01*
X38503Y18497D01*
X38560Y18571D01*
X38575Y18607D01*
X38895D01*
Y18395D01*
X39605D01*
Y19105D01*
X38895D01*
Y18893D01*
X38575D01*
X38560Y18929D01*
X38503Y19003D01*
X38429Y19060D01*
X38343Y19096D01*
X38250Y19108D01*
D02*
G37*
%LPD*%
G36*
X23759Y21307D02*
X23749Y21301D01*
X23749Y21301D01*
X23649Y21201D01*
X23618Y21155D01*
X23607Y21100D01*
X23607Y21100D01*
Y21037D01*
X23419D01*
X23232Y21225D01*
X23185Y21256D01*
X23131Y21267D01*
X23131Y21267D01*
X22979D01*
Y21302D01*
X22347D01*
Y21267D01*
X21229D01*
Y21302D01*
X20774D01*
X20747Y21352D01*
X20751Y21357D01*
X23743D01*
X23759Y21307D01*
D02*
G37*
G36*
X26815Y16710D02*
X26841Y16670D01*
X26881Y16644D01*
X26927Y16635D01*
X26965D01*
X27000Y16600D01*
X27000Y15500D01*
X25900D01*
Y14950D01*
X25100D01*
X25100Y15350D01*
X25100Y16750D01*
X26807D01*
X26815Y16710D01*
D02*
G37*
G36*
X26013Y17204D02*
Y16887D01*
X26433D01*
X26458Y16837D01*
X26442Y16815D01*
X25100D01*
X25093Y16812D01*
X25043Y16845D01*
Y17091D01*
X25156Y17204D01*
X25963D01*
X26013Y17204D01*
D02*
G37*
G36*
X23857Y15250D02*
X23857Y15250D01*
X23868Y15195D01*
X23899Y15149D01*
X24049Y14999D01*
X24095Y14968D01*
X24097Y14968D01*
Y14948D01*
X24675D01*
X24696Y14898D01*
X24541Y14743D01*
X23645D01*
X23604Y14763D01*
Y15237D01*
X23588D01*
Y15300D01*
X23610Y15322D01*
X23857D01*
Y15250D01*
D02*
G37*
%LPC*%
G36*
X25737Y16410D02*
X25540D01*
Y16213D01*
X25594Y16224D01*
X25673Y16277D01*
X25726Y16356D01*
X25737Y16410D01*
D02*
G37*
G36*
X26210Y16415D02*
X25973D01*
Y16256D01*
X26210D01*
Y16415D01*
D02*
G37*
G36*
X25460Y16410D02*
X25263D01*
X25274Y16356D01*
X25327Y16277D01*
X25406Y16224D01*
X25460Y16213D01*
Y16410D01*
D02*
G37*
G36*
X26460Y16198D02*
X26065D01*
Y15921D01*
X26460D01*
Y16198D01*
D02*
G37*
G36*
X26935D02*
X26540D01*
Y15921D01*
X26935D01*
Y16198D01*
D02*
G37*
G36*
X26210Y16653D02*
X25973D01*
Y16495D01*
X26210D01*
Y16653D01*
D02*
G37*
G36*
X26527D02*
X26290D01*
Y16495D01*
X26527D01*
Y16653D01*
D02*
G37*
G36*
X25540Y16687D02*
Y16490D01*
X25737D01*
X25726Y16544D01*
X25673Y16623D01*
X25594Y16676D01*
X25540Y16687D01*
D02*
G37*
G36*
X26527Y16415D02*
X26290D01*
Y16256D01*
X26527D01*
Y16415D01*
D02*
G37*
G36*
X25460Y16687D02*
X25406Y16676D01*
X25327Y16623D01*
X25274Y16544D01*
X25263Y16490D01*
X25460D01*
Y16687D01*
D02*
G37*
G36*
X25540Y15487D02*
Y15290D01*
X25737D01*
X25726Y15344D01*
X25673Y15423D01*
X25594Y15476D01*
X25540Y15487D01*
D02*
G37*
G36*
X26460Y15841D02*
X26065D01*
Y15565D01*
X26460D01*
Y15841D01*
D02*
G37*
G36*
X25460Y15487D02*
X25406Y15476D01*
X25327Y15423D01*
X25274Y15344D01*
X25263Y15290D01*
X25460D01*
Y15487D01*
D02*
G37*
G36*
Y15210D02*
X25263D01*
X25274Y15156D01*
X25327Y15077D01*
X25406Y15024D01*
X25460Y15013D01*
Y15210D01*
D02*
G37*
G36*
X25737D02*
X25540D01*
Y15013D01*
X25594Y15024D01*
X25673Y15077D01*
X25726Y15156D01*
X25737Y15210D01*
D02*
G37*
G36*
X25460Y16087D02*
X25406Y16076D01*
X25327Y16023D01*
X25274Y15944D01*
X25263Y15890D01*
X25460D01*
Y16087D01*
D02*
G37*
G36*
X25540D02*
Y15890D01*
X25737D01*
X25726Y15944D01*
X25673Y16023D01*
X25594Y16076D01*
X25540Y16087D01*
D02*
G37*
G36*
X25737Y15810D02*
X25540D01*
Y15613D01*
X25594Y15624D01*
X25673Y15677D01*
X25726Y15756D01*
X25737Y15810D01*
D02*
G37*
G36*
X26935Y15841D02*
X26540D01*
Y15565D01*
X26935D01*
Y15841D01*
D02*
G37*
G36*
X25460Y15810D02*
X25263D01*
X25274Y15756D01*
X25327Y15677D01*
X25406Y15624D01*
X25460Y15613D01*
Y15810D01*
D02*
G37*
%LPD*%
D10*
X18900Y13095D02*
D03*
Y12505D02*
D03*
X18250Y13095D02*
D03*
Y12505D02*
D03*
X37150Y20645D02*
D03*
Y20055D02*
D03*
X36600D02*
D03*
Y20645D02*
D03*
X36050Y20055D02*
D03*
Y20645D02*
D03*
X30350Y20105D02*
D03*
Y20695D02*
D03*
X29800Y20105D02*
D03*
Y20695D02*
D03*
X30900Y19595D02*
D03*
Y19005D02*
D03*
X30350Y19595D02*
D03*
Y19005D02*
D03*
X29800Y19595D02*
D03*
Y19005D02*
D03*
X26450Y21295D02*
D03*
Y20705D02*
D03*
Y19705D02*
D03*
Y20295D02*
D03*
Y19295D02*
D03*
Y18705D02*
D03*
X34400Y17505D02*
D03*
Y18095D02*
D03*
Y14605D02*
D03*
Y15195D02*
D03*
X33550Y16695D02*
D03*
Y16105D02*
D03*
X33000Y16695D02*
D03*
Y16105D02*
D03*
X34000Y13545D02*
D03*
Y12955D02*
D03*
X30800Y16705D02*
D03*
Y17295D02*
D03*
X28250Y13545D02*
D03*
Y12955D02*
D03*
X26250Y16455D02*
D03*
Y17045D02*
D03*
X23000Y12955D02*
D03*
Y13545D02*
D03*
X19400Y15545D02*
D03*
Y14955D02*
D03*
Y16955D02*
D03*
Y17545D02*
D03*
D11*
X35355Y21900D02*
D03*
X35945D02*
D03*
X35355Y21350D02*
D03*
X35945D02*
D03*
X34205D02*
D03*
X34795D02*
D03*
X31705Y21600D02*
D03*
X32295D02*
D03*
X31755Y19600D02*
D03*
X32345D02*
D03*
X28545Y21000D02*
D03*
X27955D02*
D03*
X23455Y20800D02*
D03*
X24045D02*
D03*
X23455Y19250D02*
D03*
X24045D02*
D03*
X31605Y17300D02*
D03*
X32195D02*
D03*
X31895Y15200D02*
D03*
X31305D02*
D03*
X29605Y17050D02*
D03*
X30195D02*
D03*
X22855Y15000D02*
D03*
X23445D02*
D03*
X22855Y16500D02*
D03*
X23445D02*
D03*
D12*
X33634Y20734D02*
D03*
Y20478D02*
D03*
Y20222D02*
D03*
Y19966D02*
D03*
X35366Y20734D02*
D03*
Y20478D02*
D03*
Y20222D02*
D03*
Y19966D02*
D03*
X27384Y20384D02*
D03*
Y20128D02*
D03*
Y19872D02*
D03*
Y19616D02*
D03*
X29116Y20384D02*
D03*
Y20128D02*
D03*
Y19872D02*
D03*
Y19616D02*
D03*
D13*
X32563Y20600D02*
D03*
X31737Y20226D02*
D03*
Y20974D02*
D03*
X24837Y20750D02*
D03*
X25663Y21124D02*
D03*
Y20376D02*
D03*
X24837Y19250D02*
D03*
X25663Y19624D02*
D03*
Y18876D02*
D03*
X21837Y19250D02*
D03*
X22663Y19624D02*
D03*
Y18876D02*
D03*
X21837Y20750D02*
D03*
X22663Y21124D02*
D03*
Y20376D02*
D03*
X20087Y20750D02*
D03*
X20913Y21124D02*
D03*
Y20376D02*
D03*
X20087Y19250D02*
D03*
X20913Y19624D02*
D03*
Y18876D02*
D03*
X32887Y17800D02*
D03*
X33713Y18174D02*
D03*
Y17426D02*
D03*
X32887Y14900D02*
D03*
X33713Y15274D02*
D03*
Y14526D02*
D03*
X23587Y15500D02*
D03*
X24413Y15874D02*
D03*
Y15126D02*
D03*
X23587Y17000D02*
D03*
X24413Y17374D02*
D03*
Y16626D02*
D03*
X22663Y17000D02*
D03*
X21837Y16626D02*
D03*
Y17374D02*
D03*
X22663Y15500D02*
D03*
X21837Y15126D02*
D03*
Y15874D02*
D03*
X20087Y17000D02*
D03*
X20913Y17374D02*
D03*
Y16626D02*
D03*
X20087Y15500D02*
D03*
X20913Y15874D02*
D03*
Y15126D02*
D03*
D14*
X24074Y20256D02*
D03*
Y20000D02*
D03*
Y19744D02*
D03*
X23326D02*
D03*
Y20000D02*
D03*
Y20256D02*
D03*
D15*
X35500Y14887D02*
D03*
X35126Y15713D02*
D03*
X35874D02*
D03*
X35500Y17813D02*
D03*
X35874Y16987D02*
D03*
X35126D02*
D03*
D16*
X31369Y16674D02*
D03*
Y16300D02*
D03*
Y15926D02*
D03*
X32431D02*
D03*
Y16674D02*
D03*
D17*
X29640Y14950D02*
D03*
Y16150D02*
D03*
D18*
X27183Y17544D02*
D03*
Y17347D02*
D03*
Y17150D02*
D03*
Y16953D02*
D03*
Y16756D02*
D03*
X28817Y17544D02*
D03*
Y17347D02*
D03*
Y17150D02*
D03*
Y16953D02*
D03*
Y16756D02*
D03*
D19*
X28000Y17150D02*
D03*
D20*
X28541Y15700D02*
D03*
X27359D02*
D03*
D21*
X26500Y14819D02*
D03*
Y15882D02*
D03*
D22*
X26450Y20295D02*
Y20705D01*
Y19295D02*
Y19705D01*
X18250Y17000D02*
X19355D01*
X19400Y16955D01*
X20041D01*
X20087Y17000D01*
X19400Y17545D02*
X20255D01*
X20500Y17300D01*
Y16700D02*
Y17300D01*
Y16700D02*
X20574Y16626D01*
X20913D01*
X18250Y15500D02*
X19355D01*
X19400Y15545D01*
X20041D01*
X20087Y15500D01*
X19400Y14955D02*
X20742D01*
X20913Y15126D01*
X20913Y15126D01*
X21837D01*
Y14813D02*
Y15126D01*
Y14813D02*
X22050Y14600D01*
X20913Y16626D02*
X21837D01*
X20913Y16626D02*
X20913Y16626D01*
X20255Y17545D02*
X20609Y17900D01*
X21837Y17374D02*
X23426D01*
X23587Y17213D01*
Y17000D02*
Y17213D01*
X22855Y16500D02*
Y16809D01*
X22663Y17000D02*
X22855Y16809D01*
X21287Y17000D02*
X22663D01*
X20913Y17374D02*
X21287Y17000D01*
X20913Y15874D02*
X21287Y15500D01*
X22663D01*
X22855Y15309D01*
Y15000D02*
Y15309D01*
X21837Y15874D02*
X23213D01*
X23587Y15500D01*
X23445Y15000D02*
Y15359D01*
X23587Y15500D01*
X23445Y16500D02*
Y16859D01*
X23587Y17000D01*
X26355Y17150D02*
X27183D01*
X26250Y17045D02*
X26355Y17150D01*
X26803Y16953D02*
X27183D01*
X26305Y16455D02*
X26803Y16953D01*
X26250Y16455D02*
X26305D01*
X27183Y15876D02*
Y16756D01*
Y15876D02*
X27359Y15700D01*
X28817Y17150D02*
X29605D01*
X29650Y17105D01*
X28817Y16953D02*
X29498D01*
X29650Y17105D01*
X28817Y17347D02*
X29347D01*
X29500Y17500D01*
X29550D01*
X28817Y17544D02*
X29173Y17900D01*
X30195Y17050D02*
Y17495D01*
X30200Y17500D01*
X31349Y16655D02*
X31369Y16674D01*
X32431D02*
X32979D01*
X33000Y16695D01*
X33550D01*
X32195Y16910D02*
Y17300D01*
Y16910D02*
X32431Y16674D01*
Y15518D02*
Y15926D01*
Y15518D02*
X32450Y15500D01*
X33000Y16105D02*
X33550D01*
Y15750D02*
Y16105D01*
X26400Y14300D02*
Y14769D01*
X18250Y19250D02*
X20087D01*
X18250Y20750D02*
X20087D01*
X20913Y18876D02*
X21463D01*
X21837Y19250D01*
X20913Y19624D02*
X22663D01*
X23037Y19250D01*
X23455D01*
X20913Y20376D02*
X21463D01*
X21837Y20750D01*
X20913Y21124D02*
X22663D01*
X23131D01*
X23455Y20800D01*
X22663Y20376D02*
X23206D01*
X23326Y20256D01*
Y19744D02*
X23606D01*
X23750Y19600D01*
X22663Y18876D02*
X23626D01*
X23750Y19000D01*
Y19600D01*
X23626Y18876D02*
X24463D01*
X24837Y19250D01*
X24074Y19279D02*
Y19744D01*
X24045Y19250D02*
X24074Y19279D01*
Y20256D02*
Y20771D01*
X24045Y20800D02*
X24074Y20771D01*
X23326Y20256D02*
X23506D01*
X23750Y20500D01*
Y21100D01*
X23850Y21200D01*
X24750D01*
X24837Y21113D01*
Y20750D02*
Y21113D01*
X25250Y19289D02*
Y19963D01*
Y19289D02*
X25663Y18876D01*
X26450Y19705D02*
X26617Y19872D01*
X27384D01*
X26617Y20128D02*
X27384D01*
X26450Y20295D02*
X26617Y20128D01*
X26250Y18500D02*
X26450Y18700D01*
X21289Y18500D02*
X26250D01*
X20913Y18876D02*
X21289Y18500D01*
X26250Y21500D02*
X26450Y21300D01*
X20650Y21500D02*
X26250D01*
X20500Y21350D02*
X20650Y21500D01*
X20500Y20500D02*
Y21350D01*
Y20500D02*
X20624Y20376D01*
X20913D01*
X25663Y19337D02*
Y19624D01*
Y19337D02*
X25700Y19300D01*
X25663Y20813D02*
Y21124D01*
X25650Y20800D02*
X25663Y20813D01*
X25250Y19963D02*
X25663Y20376D01*
X24413Y17063D02*
Y17374D01*
X24400Y17050D02*
X24413Y17063D01*
X24400Y15861D02*
X24413Y15874D01*
X24400Y15550D02*
Y15861D01*
X24000Y15250D02*
X24150Y15100D01*
X24176Y15126D01*
X24413D01*
X24176Y16626D02*
X24413D01*
X24000Y16450D02*
X24176Y16626D01*
X24000Y15250D02*
Y16250D01*
Y16450D01*
X22050Y14600D02*
X24600D01*
X24900Y14900D01*
X20609Y17900D02*
X24700D01*
X25056Y17544D01*
X27183D01*
X24900Y14900D02*
Y17150D01*
X25097Y17347D01*
X27183D01*
X27384Y19316D02*
Y19616D01*
Y19316D02*
X27400Y19300D01*
X27384Y20384D02*
Y20634D01*
X27750Y21000D01*
X27955D01*
X28545D02*
X28800D01*
X29116Y20684D01*
Y20384D02*
Y20684D01*
Y19872D02*
X30722D01*
X30850Y20000D01*
X29116Y19616D02*
X29779D01*
X29800Y19595D01*
X30350D01*
X30900D01*
X29800Y20695D02*
Y21050D01*
Y20695D02*
X30350D01*
X33634Y19966D02*
X33650Y19950D01*
Y19650D02*
Y19950D01*
X33072Y20478D02*
X33634D01*
X33000Y20550D02*
X33072Y20478D01*
X33000Y20550D02*
Y20650D01*
X33084Y20734D01*
X33634D01*
Y21134D01*
X33850Y21350D01*
X34205D01*
X34795Y20055D02*
Y21350D01*
X35945D02*
X36300D01*
X35945D02*
Y21900D01*
X34795Y20055D02*
X34884Y19966D01*
X35366D01*
X31737Y20226D02*
X33630D01*
X33634Y20222D01*
X31737Y19618D02*
Y20226D01*
Y19618D02*
X31755Y19600D01*
X32345D02*
X32650D01*
X32104Y20600D02*
X32563D01*
X32295Y21600D02*
X32650D01*
X31900Y15245D02*
Y17700D01*
X31700Y17900D02*
X31900Y17700D01*
X29173Y17900D02*
X31700D01*
X31355Y15912D02*
X31369Y15926D01*
X31355Y15200D02*
Y15912D01*
X30831Y16674D02*
X31369D01*
X30800Y16705D02*
X30831Y16674D01*
X31050Y16300D02*
X31369D01*
X30900Y16150D02*
X31050Y16300D01*
X30800Y17295D02*
Y17600D01*
X32287Y18400D02*
X32887Y17800D01*
X29950Y18400D02*
X32287D01*
X29800Y18550D02*
X29950Y18400D01*
X29800Y18550D02*
Y19005D01*
X30327Y20128D02*
X30350Y20105D01*
X28728Y20128D02*
X29116D01*
X28550Y19950D02*
X28728Y20128D01*
X28550Y19200D02*
Y19950D01*
Y19200D02*
X28745Y19005D01*
X29800D01*
X29116Y20128D02*
X30327D01*
X33713Y14526D02*
X34321D01*
X34400Y14605D01*
X32887Y14313D02*
Y14900D01*
X35355Y21350D02*
Y21900D01*
Y20745D02*
Y21350D01*
Y20745D02*
X35366Y20734D01*
X31737Y20974D02*
Y21568D01*
X31705Y21600D02*
X31737Y21568D01*
X35874Y16576D02*
Y16987D01*
Y16576D02*
X35900Y16550D01*
X35168Y14605D02*
X35450Y14887D01*
X34400Y14605D02*
X35168D01*
X35191Y17505D02*
X35500Y17813D01*
X34400Y17505D02*
X35191D01*
X33713Y17426D02*
X34400D01*
X35126Y16576D02*
Y16987D01*
X35100Y16550D02*
X35126Y16576D01*
X35874Y15713D02*
Y16124D01*
X35900Y16150D01*
X35126Y15713D02*
Y16124D01*
X35100Y16150D02*
X35126Y16124D01*
X32887Y14313D02*
X33100Y14100D01*
X35800D01*
X36650Y14950D01*
X24000Y13250D02*
X25000D01*
X23705Y13545D02*
X24000Y13250D01*
X23000Y13545D02*
X23705D01*
X22605Y12955D02*
X23000D01*
X22600Y12950D02*
X22605Y12955D01*
X29250Y13250D02*
X30250D01*
X28955Y13545D02*
X29250Y13250D01*
X28250Y13545D02*
X28955D01*
X35000Y13250D02*
X36000D01*
X34705Y13545D02*
X35000Y13250D01*
X34000Y13545D02*
X34705D01*
X31624Y20974D02*
X31737D01*
X34500Y19900D02*
X36650Y17750D01*
Y14950D02*
Y17750D01*
X35366Y20222D02*
X35883D01*
X36050Y20055D01*
X36600D01*
X35366Y20478D02*
X35883D01*
X36050Y20645D01*
X36600D02*
X37150D01*
Y19750D02*
Y20055D01*
X35366Y19966D02*
X37000Y18332D01*
Y13000D02*
Y18332D01*
X36500Y12500D02*
X37000Y13000D01*
X18250Y12500D02*
X36500D01*
X18900Y13095D02*
Y13400D01*
X36500Y23000D02*
X36560Y22940D01*
Y21182D02*
Y22940D01*
X36050Y20645D02*
Y20672D01*
X30850Y20000D02*
Y22900D01*
X30750Y23000D02*
X30850Y22900D01*
X28250Y18111D02*
X28817Y17544D01*
X28250Y18111D02*
Y22750D01*
X28000Y23000D02*
X28250Y22750D01*
X38250Y20500D02*
X39250D01*
X37614Y21136D02*
X38250Y20500D01*
X36514Y21136D02*
X37614D01*
X36050Y20672D02*
X36514Y21136D01*
X36560Y21182D01*
X38250Y18750D02*
X39250D01*
X38250Y15250D02*
X39250D01*
X30900Y19005D02*
X33705D01*
X34205Y19505D01*
Y21350D01*
X30350Y18700D02*
Y19005D01*
X31705Y21600D02*
X32005Y21900D01*
X34500D01*
X35355D01*
X34500Y19900D02*
Y21900D01*
X28245Y12950D02*
X28250Y12955D01*
X27900Y12950D02*
X28245D01*
X33655Y12955D02*
X34000D01*
X33650Y12950D02*
X33655Y12955D01*
D23*
X33300Y17761D02*
X33713Y18174D01*
X33300Y16945D02*
Y17761D01*
Y16945D02*
X33550Y16695D01*
X33713Y15274D02*
X34000Y15561D01*
Y16600D01*
X33900Y16700D02*
X34000Y16600D01*
X33895Y16695D02*
X33900Y16700D01*
X33550Y16695D02*
X33895D01*
X33713Y15274D02*
X34321D01*
X34400Y15195D01*
X33713Y18174D02*
X34321D01*
X34400Y18095D01*
Y15195D02*
Y15278D01*
X36328D02*
X36350Y15300D01*
X36300D02*
X36350D01*
X34400Y15278D02*
X36328D01*
X15300Y17450D02*
Y17600D01*
Y17450D02*
X17250Y15500D01*
X15300Y18600D02*
X15650D01*
X17250Y17000D01*
X15300Y18600D02*
Y18800D01*
X17250Y20750D01*
X18250Y13095D02*
Y13100D01*
X17100D02*
X18250D01*
D24*
Y17000D02*
D03*
Y19250D02*
D03*
X25000Y13250D02*
D03*
X20250Y22750D02*
D03*
X38250Y17000D02*
D03*
X20250Y13250D02*
D03*
X38250Y15250D02*
D03*
X18250Y15500D02*
D03*
X38250Y18750D02*
D03*
Y20500D02*
D03*
X29250Y13250D02*
D03*
X35000D02*
D03*
X18250Y20750D02*
D03*
D25*
X17250Y17000D02*
D03*
Y19250D02*
D03*
X24000Y13250D02*
D03*
X21250Y22750D02*
D03*
X39250Y17000D02*
D03*
X21250Y13250D02*
D03*
X39250Y15250D02*
D03*
X17250Y15500D02*
D03*
X39250Y18750D02*
D03*
Y20500D02*
D03*
X30250Y13250D02*
D03*
X36000D02*
D03*
X17250Y20750D02*
D03*
D26*
X28000Y23000D02*
D03*
X36500D02*
D03*
X30750D02*
D03*
D27*
X15300Y17600D02*
D03*
Y18600D02*
D03*
D28*
X28000Y17367D02*
D03*
Y16933D02*
D03*
D29*
X29550Y17500D02*
D03*
X30200D02*
D03*
X32450Y15500D02*
D03*
X33550Y15750D02*
D03*
X26400Y14300D02*
D03*
X25700Y19300D02*
D03*
X25650Y20800D02*
D03*
X25250Y19963D02*
D03*
X24400Y17050D02*
D03*
Y15550D02*
D03*
X24000Y16250D02*
D03*
X27400Y19300D02*
D03*
X29800Y21050D02*
D03*
X33650Y19650D02*
D03*
X36300Y21350D02*
D03*
X32650Y19600D02*
D03*
X32104Y20600D02*
D03*
X32650Y21600D02*
D03*
X30900Y16150D02*
D03*
X25500Y16450D02*
D03*
Y15250D02*
D03*
Y15850D02*
D03*
X30800Y17600D02*
D03*
X35900Y16550D02*
D03*
X35100D02*
D03*
X35900Y16150D02*
D03*
X35100D02*
D03*
X22600Y12950D02*
D03*
X37150Y19750D02*
D03*
X18900Y13400D02*
D03*
X36300Y15300D02*
D03*
X30350Y18700D02*
D03*
X27900Y12950D02*
D03*
X33650D02*
D03*
D30*
X15050Y13300D02*
D03*
X38950Y22450D02*
D03*
X15050D02*
D03*
X38950Y13300D02*
D03*
D31*
X17100Y13100D02*
D03*
M02*
