G04 Layer_Color=8388736*
%FSLAX24Y24*%
%MOIN*%
G70*
G01*
G75*
%ADD34C,0.2400*%
%ADD35R,0.2400X0.2400*%
%ADD36R,0.0257X0.0414*%
%ADD37R,0.0454X0.0651*%
%ADD38R,0.0414X0.0257*%
%ADD39R,0.0296X0.0540*%
%ADD40R,0.0828X0.1438*%
%ADD41R,0.0651X0.0847*%
%ADD42R,0.0651X0.0690*%
%ADD43R,0.0926X0.0926*%
%ADD44R,0.0060X0.0060*%
D34*
X1450Y34400D02*
D03*
X44150D02*
D03*
Y1450D02*
D03*
D35*
X1450D02*
D03*
D36*
X4245Y6000D02*
D03*
X3655D02*
D03*
X7405Y8050D02*
D03*
X7995D02*
D03*
X4245Y16000D02*
D03*
X3655D02*
D03*
X7405Y18050D02*
D03*
X7995D02*
D03*
X4245Y11000D02*
D03*
X3655D02*
D03*
X7405Y13050D02*
D03*
X7995D02*
D03*
X4245Y21000D02*
D03*
X3655D02*
D03*
X7405Y23050D02*
D03*
X7995D02*
D03*
X4245Y26000D02*
D03*
X3655D02*
D03*
X7405Y28050D02*
D03*
X7995D02*
D03*
X18105Y29100D02*
D03*
X18695D02*
D03*
X14945Y27050D02*
D03*
X14355D02*
D03*
X18105Y9100D02*
D03*
X18695D02*
D03*
X14945Y7050D02*
D03*
X14355D02*
D03*
X18105Y14100D02*
D03*
X18695D02*
D03*
X14945Y12050D02*
D03*
X14355D02*
D03*
Y17050D02*
D03*
X14945D02*
D03*
X18695Y19100D02*
D03*
X18105D02*
D03*
X14355Y22050D02*
D03*
X14945D02*
D03*
X18695Y24100D02*
D03*
X18105D02*
D03*
X10745Y9550D02*
D03*
X10155D02*
D03*
X11155Y9531D02*
D03*
X11745D02*
D03*
X10745Y10131D02*
D03*
X10155D02*
D03*
X10745Y10681D02*
D03*
X10155D02*
D03*
X10745Y11231D02*
D03*
X10155D02*
D03*
X11745D02*
D03*
X11155D02*
D03*
X27495Y6000D02*
D03*
X26905D02*
D03*
X30655Y8050D02*
D03*
X31245D02*
D03*
X27495Y16000D02*
D03*
X26905D02*
D03*
X30655Y18050D02*
D03*
X31245D02*
D03*
X27495Y11000D02*
D03*
X26905D02*
D03*
X30655Y13050D02*
D03*
X31245D02*
D03*
X27495Y21000D02*
D03*
X26905D02*
D03*
X30655Y23050D02*
D03*
X31245D02*
D03*
X27495Y26000D02*
D03*
X26905D02*
D03*
X30655Y28050D02*
D03*
X31245D02*
D03*
X41355Y29100D02*
D03*
X41945D02*
D03*
X38195Y27050D02*
D03*
X37605D02*
D03*
X41355Y9100D02*
D03*
X41945D02*
D03*
X38195Y7050D02*
D03*
X37605D02*
D03*
X41355Y14100D02*
D03*
X41945D02*
D03*
X38195Y12050D02*
D03*
X37605D02*
D03*
Y17050D02*
D03*
X38195D02*
D03*
X41945Y19100D02*
D03*
X41355D02*
D03*
X37605Y22050D02*
D03*
X38195D02*
D03*
X41945Y24100D02*
D03*
X41355D02*
D03*
X33995Y9550D02*
D03*
X33405D02*
D03*
X34405Y9531D02*
D03*
X34995D02*
D03*
X33995Y10131D02*
D03*
X33405D02*
D03*
X33995Y10681D02*
D03*
X33405D02*
D03*
X33995Y11231D02*
D03*
X33405D02*
D03*
X34995D02*
D03*
X34405D02*
D03*
D37*
X7073Y6050D02*
D03*
X6128D02*
D03*
X7023Y8950D02*
D03*
X6078D02*
D03*
X7073Y16050D02*
D03*
X6128D02*
D03*
X7023Y18950D02*
D03*
X6078D02*
D03*
X7073Y11050D02*
D03*
X6128D02*
D03*
X7023Y13950D02*
D03*
X6078D02*
D03*
X7073Y21050D02*
D03*
X6128D02*
D03*
X7023Y23950D02*
D03*
X6078D02*
D03*
X7073Y26050D02*
D03*
X6128D02*
D03*
X7023Y28950D02*
D03*
X6078D02*
D03*
X15278Y29050D02*
D03*
X16223D02*
D03*
X15328Y26150D02*
D03*
X16273D02*
D03*
X15278Y9050D02*
D03*
X16223D02*
D03*
X15328Y6150D02*
D03*
X16273D02*
D03*
X15278Y14050D02*
D03*
X16223D02*
D03*
X15328Y11150D02*
D03*
X16273D02*
D03*
Y16150D02*
D03*
X15328D02*
D03*
X16223Y19050D02*
D03*
X15278D02*
D03*
X16273Y21150D02*
D03*
X15328D02*
D03*
X16223Y24050D02*
D03*
X15278D02*
D03*
X30323Y6050D02*
D03*
X29378D02*
D03*
X30273Y8950D02*
D03*
X29328D02*
D03*
X30323Y16050D02*
D03*
X29378D02*
D03*
X30273Y18950D02*
D03*
X29328D02*
D03*
X30323Y11050D02*
D03*
X29378D02*
D03*
X30273Y13950D02*
D03*
X29328D02*
D03*
X30323Y21050D02*
D03*
X29378D02*
D03*
X30273Y23950D02*
D03*
X29328D02*
D03*
X30323Y26050D02*
D03*
X29378D02*
D03*
X30273Y28950D02*
D03*
X29328D02*
D03*
X38528Y29050D02*
D03*
X39473D02*
D03*
X38578Y26150D02*
D03*
X39523D02*
D03*
X38528Y9050D02*
D03*
X39473D02*
D03*
X38578Y6150D02*
D03*
X39523D02*
D03*
X38528Y14050D02*
D03*
X39473D02*
D03*
X38578Y11150D02*
D03*
X39523D02*
D03*
Y16150D02*
D03*
X38578D02*
D03*
X39473Y19050D02*
D03*
X38528D02*
D03*
X39523Y21150D02*
D03*
X38578D02*
D03*
X39473Y24050D02*
D03*
X38528D02*
D03*
D38*
X7450Y6855D02*
D03*
Y7445D02*
D03*
X8000D02*
D03*
Y6855D02*
D03*
Y17445D02*
D03*
Y16855D02*
D03*
X7450D02*
D03*
Y17445D02*
D03*
X8000Y12445D02*
D03*
Y11855D02*
D03*
X7450D02*
D03*
Y12445D02*
D03*
X8000Y22445D02*
D03*
Y21855D02*
D03*
X7450D02*
D03*
Y22445D02*
D03*
X8000Y27445D02*
D03*
Y26855D02*
D03*
X7450D02*
D03*
Y27445D02*
D03*
X14350Y27655D02*
D03*
Y28245D02*
D03*
X14900D02*
D03*
Y27655D02*
D03*
X14350Y7655D02*
D03*
Y8245D02*
D03*
X14900D02*
D03*
Y7655D02*
D03*
X14350Y12655D02*
D03*
Y13245D02*
D03*
X14900D02*
D03*
Y12655D02*
D03*
Y17655D02*
D03*
Y18245D02*
D03*
X14350D02*
D03*
Y17655D02*
D03*
X14900Y22655D02*
D03*
Y23245D02*
D03*
X14350D02*
D03*
Y22655D02*
D03*
X30700Y6855D02*
D03*
Y7445D02*
D03*
X31250D02*
D03*
Y6855D02*
D03*
Y17445D02*
D03*
Y16855D02*
D03*
X30700D02*
D03*
Y17445D02*
D03*
X31250Y12445D02*
D03*
Y11855D02*
D03*
X30700D02*
D03*
Y12445D02*
D03*
X31250Y22445D02*
D03*
Y21855D02*
D03*
X30700D02*
D03*
Y22445D02*
D03*
X31250Y27445D02*
D03*
Y26855D02*
D03*
X30700D02*
D03*
Y27445D02*
D03*
X37600Y27655D02*
D03*
Y28245D02*
D03*
X38150D02*
D03*
Y27655D02*
D03*
X37600Y7655D02*
D03*
Y8245D02*
D03*
X38150D02*
D03*
Y7655D02*
D03*
X37600Y12655D02*
D03*
Y13245D02*
D03*
X38150D02*
D03*
Y12655D02*
D03*
Y17655D02*
D03*
Y18245D02*
D03*
X37600D02*
D03*
Y17655D02*
D03*
X38150Y22655D02*
D03*
Y23245D02*
D03*
X37600D02*
D03*
Y22655D02*
D03*
D39*
X6874Y8016D02*
D03*
X6500D02*
D03*
X6126D02*
D03*
Y6984D02*
D03*
X6874D02*
D03*
Y18016D02*
D03*
X6500D02*
D03*
X6126D02*
D03*
Y16984D02*
D03*
X6874D02*
D03*
Y13016D02*
D03*
X6500D02*
D03*
X6126D02*
D03*
Y11984D02*
D03*
X6874D02*
D03*
Y23016D02*
D03*
X6500D02*
D03*
X6126D02*
D03*
Y21984D02*
D03*
X6874D02*
D03*
Y28016D02*
D03*
X6500D02*
D03*
X6126D02*
D03*
Y26984D02*
D03*
X6874D02*
D03*
X15476Y27084D02*
D03*
X15850D02*
D03*
X16224D02*
D03*
Y28116D02*
D03*
X15476D02*
D03*
Y7084D02*
D03*
X15850D02*
D03*
X16224D02*
D03*
Y8116D02*
D03*
X15476D02*
D03*
Y12084D02*
D03*
X15850D02*
D03*
X16224D02*
D03*
Y13116D02*
D03*
X15476D02*
D03*
Y18116D02*
D03*
X16224D02*
D03*
Y17084D02*
D03*
X15850D02*
D03*
X15476D02*
D03*
Y23116D02*
D03*
X16224D02*
D03*
Y22084D02*
D03*
X15850D02*
D03*
X15476D02*
D03*
X30124Y8016D02*
D03*
X29750D02*
D03*
X29376D02*
D03*
Y6984D02*
D03*
X30124D02*
D03*
Y18016D02*
D03*
X29750D02*
D03*
X29376D02*
D03*
Y16984D02*
D03*
X30124D02*
D03*
Y13016D02*
D03*
X29750D02*
D03*
X29376D02*
D03*
Y11984D02*
D03*
X30124D02*
D03*
Y23016D02*
D03*
X29750D02*
D03*
X29376D02*
D03*
Y21984D02*
D03*
X30124D02*
D03*
Y28016D02*
D03*
X29750D02*
D03*
X29376D02*
D03*
Y26984D02*
D03*
X30124D02*
D03*
X38726Y27084D02*
D03*
X39100D02*
D03*
X39474D02*
D03*
Y28116D02*
D03*
X38726D02*
D03*
Y7084D02*
D03*
X39100D02*
D03*
X39474D02*
D03*
Y8116D02*
D03*
X38726D02*
D03*
Y12084D02*
D03*
X39100D02*
D03*
X39474D02*
D03*
Y13116D02*
D03*
X38726D02*
D03*
Y18116D02*
D03*
X39474D02*
D03*
Y17084D02*
D03*
X39100D02*
D03*
X38726D02*
D03*
Y23116D02*
D03*
X39474D02*
D03*
Y22084D02*
D03*
X39100D02*
D03*
X38726D02*
D03*
D40*
X12350Y12431D02*
D03*
X9850D02*
D03*
X35600D02*
D03*
X33100D02*
D03*
D41*
X20398Y16186D02*
D03*
Y18914D02*
D03*
Y23914D02*
D03*
Y21186D02*
D03*
X1953Y8914D02*
D03*
Y6186D02*
D03*
Y11186D02*
D03*
Y13914D02*
D03*
Y18914D02*
D03*
Y16186D02*
D03*
Y21186D02*
D03*
Y23914D02*
D03*
Y28914D02*
D03*
Y26186D02*
D03*
X20398Y28914D02*
D03*
Y26186D02*
D03*
Y11186D02*
D03*
Y13914D02*
D03*
Y8914D02*
D03*
Y6186D02*
D03*
X43648Y16186D02*
D03*
Y18914D02*
D03*
Y23914D02*
D03*
Y21186D02*
D03*
X25203Y8914D02*
D03*
Y6186D02*
D03*
Y11186D02*
D03*
Y13914D02*
D03*
Y18914D02*
D03*
Y16186D02*
D03*
Y21186D02*
D03*
Y23914D02*
D03*
Y28914D02*
D03*
Y26186D02*
D03*
X43648Y28914D02*
D03*
Y26186D02*
D03*
Y11186D02*
D03*
Y13914D02*
D03*
Y8914D02*
D03*
Y6186D02*
D03*
D42*
X19335Y18967D02*
D03*
X17839Y16133D02*
D03*
Y21133D02*
D03*
X19335Y23967D02*
D03*
X3016Y6133D02*
D03*
X4512Y8967D02*
D03*
Y13967D02*
D03*
X3016Y11133D02*
D03*
Y16133D02*
D03*
X4512Y18967D02*
D03*
Y23967D02*
D03*
X3016Y21133D02*
D03*
Y26133D02*
D03*
X4512Y28967D02*
D03*
X17839Y26133D02*
D03*
X19335Y28967D02*
D03*
Y13967D02*
D03*
X17839Y11133D02*
D03*
Y6133D02*
D03*
X19335Y8967D02*
D03*
X42585Y18967D02*
D03*
X41089Y16133D02*
D03*
Y21133D02*
D03*
X42585Y23967D02*
D03*
X26265Y6133D02*
D03*
X27762Y8967D02*
D03*
Y13967D02*
D03*
X26265Y11133D02*
D03*
Y16133D02*
D03*
X27762Y18967D02*
D03*
Y23967D02*
D03*
X26265Y21133D02*
D03*
Y26133D02*
D03*
X27762Y28967D02*
D03*
X41089Y26133D02*
D03*
X42585Y28967D02*
D03*
Y13967D02*
D03*
X41089Y11133D02*
D03*
Y6133D02*
D03*
X42585Y8967D02*
D03*
D43*
X11000Y8612D02*
D03*
Y6250D02*
D03*
X12851Y7431D02*
D03*
X34250Y8612D02*
D03*
Y6250D02*
D03*
X36101Y7431D02*
D03*
D44*
X17347Y17550D02*
D03*
Y22550D02*
D03*
X5004Y7550D02*
D03*
Y12550D02*
D03*
Y17550D02*
D03*
Y22550D02*
D03*
Y27550D02*
D03*
X17347D02*
D03*
Y12550D02*
D03*
Y7550D02*
D03*
X40597Y17550D02*
D03*
Y22550D02*
D03*
X28254Y7550D02*
D03*
Y12550D02*
D03*
Y17550D02*
D03*
Y22550D02*
D03*
Y27550D02*
D03*
X40597D02*
D03*
Y12550D02*
D03*
Y7550D02*
D03*
M02*
