G04 Layer_Color=8388736*
%FSLAX24Y24*%
%MOIN*%
G70*
G01*
G75*
%ADD27C,0.0100*%
D27*
X23250Y2550D02*
Y33200D01*
X22350Y2550D02*
Y33200D01*
X20650Y2350D02*
X21050D01*
X20850D01*
Y1750D01*
X21350Y2150D02*
X21550D01*
X21650Y2050D01*
Y1750D01*
X21350D01*
X21250Y1850D01*
X21350Y1950D01*
X21650D01*
X21850Y2350D02*
Y1750D01*
X22150D01*
X22249Y1850D01*
Y1950D01*
Y2050D01*
X22150Y2150D01*
X21850D01*
X23049Y1750D02*
Y2350D01*
X23349D01*
X23449Y2250D01*
Y2050D01*
X23349Y1950D01*
X23049D01*
X23249D02*
X23449Y1750D01*
X23749D02*
X23949D01*
X24049Y1850D01*
Y2050D01*
X23949Y2150D01*
X23749D01*
X23649Y2050D01*
Y1850D01*
X23749Y1750D01*
X24249Y2150D02*
Y1850D01*
X24349Y1750D01*
X24649D01*
Y2150D01*
X24949Y2250D02*
Y2150D01*
X24849D01*
X25049D01*
X24949D01*
Y1850D01*
X25049Y1750D01*
X25648D02*
X25448D01*
X25348Y1850D01*
Y2050D01*
X25448Y2150D01*
X25648D01*
X25748Y2050D01*
Y1950D01*
X25348D01*
X21028Y16881D02*
X22800D01*
X21028D02*
Y18219D01*
X22800D01*
X21028Y26881D02*
X22800D01*
X21028D02*
Y28219D01*
X22800D01*
X21028Y21881D02*
X22800D01*
X21028D02*
Y23219D01*
X22800D01*
X21028Y11881D02*
X22800D01*
X21028D02*
Y13219D01*
X22800D01*
X21028Y6881D02*
X22800D01*
X21028D02*
Y8219D01*
X22800D01*
X-450D02*
X1323D01*
Y6881D02*
Y8219D01*
X-450Y6881D02*
X1323D01*
X-450Y13219D02*
X1323D01*
Y11881D02*
Y13219D01*
X-450Y11881D02*
X1323D01*
X-450Y18219D02*
X1323D01*
Y16881D02*
Y18219D01*
X-450Y16881D02*
X1323D01*
X-450Y23219D02*
X1323D01*
Y21881D02*
Y23219D01*
X-450Y21881D02*
X1323D01*
X-450Y26881D02*
X1323D01*
Y28219D01*
X-450D02*
X1323D01*
X44278Y16881D02*
X46050D01*
X44278D02*
Y18219D01*
X46050D01*
X44278Y26881D02*
X46050D01*
X44278D02*
Y28219D01*
X46050D01*
X44278Y21881D02*
X46050D01*
X44278D02*
Y23219D01*
X46050D01*
X44278Y11881D02*
X46050D01*
X44278D02*
Y13219D01*
X46050D01*
X44278Y6881D02*
X46050D01*
X44278D02*
Y8219D01*
X46050D01*
X22800D02*
X24573D01*
Y6881D02*
Y8219D01*
X22800Y6881D02*
X24573D01*
X22800Y13219D02*
X24573D01*
Y11881D02*
Y13219D01*
X22800Y11881D02*
X24573D01*
X22800Y18219D02*
X24573D01*
Y16881D02*
Y18219D01*
X22800Y16881D02*
X24573D01*
X22800Y23219D02*
X24573D01*
Y21881D02*
Y23219D01*
X22800Y21881D02*
X24573D01*
X22800Y26881D02*
X24573D01*
Y28219D01*
X22800D02*
X24573D01*
M02*
