M48
;Layer_Color=9474304
;FILE_FORMAT=2:4
INCH,LZ
;TYPE=PLATED
T1F00S00C0.0120
T2F00S00C0.0630
T3F00S00C0.1370
;TYPE=NON_PLATED
T4F00S00C0.0512
%
T01
X00455Y006
X00745Y00605
X0278Y006
X0307Y00605
X03815Y00905
X04105Y0091
Y0141
X03815Y01405
Y01905
X04105Y0191
X0307Y02105
X0278Y021
Y016
X0307Y01605
Y01105
X0278Y011
X0178Y0091
X0149Y00905
Y01405
X0178Y0141
Y0191
X0149Y01905
X00745Y02105
Y01605
Y01105
X00455Y011
Y016
Y021
Y026
X00745Y02605
X0149Y02405
X0178Y0241
Y0291
X0149Y02905
X0278Y026
X0307Y02605
X03815Y02405
X04105Y0241
Y0291
X03815Y02905
T02
X011Y00625
X03425
Y008612
X036101Y007431
X012851
X011Y008612
T03
X00125Y00425
X02125
X0245
X0445
X00125Y03175
X01125
X02125
X0245
X0345
X0445
T04
X040597Y00755
Y01255
Y01755
X028254
Y01255
Y00755
X017347
Y01255
Y01755
X005004
Y01255
Y00755
Y02255
Y02755
X017347
Y02255
X028254
Y02755
X040597
Y02255
M30
