G04 Layer_Color=16711935*
%FSLAX24Y24*%
%MOIN*%
G70*
G01*
G75*
%ADD27C,0.0100*%
D27*
X0Y0D02*
Y35850D01*
Y0D02*
X45600D01*
Y35850D01*
X0D02*
X45600D01*
X50Y3050D02*
X22300D01*
X50Y32800D02*
X22300D01*
X50Y26881D02*
X1323D01*
Y28219D01*
X50D02*
X1323D01*
X50D02*
Y32800D01*
Y23219D02*
Y26881D01*
Y18219D02*
Y21881D01*
Y3050D02*
Y6881D01*
X21028Y16881D02*
X22288D01*
X21028D02*
Y18219D01*
X22288D01*
X21028Y23219D02*
X22288D01*
X21028Y21881D02*
Y23219D01*
Y21881D02*
X22288D01*
X63Y8219D02*
X1323D01*
Y6881D02*
Y8219D01*
X63Y6881D02*
X1323D01*
X63Y11881D02*
X1323D01*
Y13219D01*
X63D02*
X1323D01*
X63Y18219D02*
X1323D01*
Y16881D02*
Y18219D01*
X63Y16881D02*
X1323D01*
X63Y21881D02*
X1323D01*
Y23219D01*
X63D02*
X1323D01*
X63Y28219D02*
X1323D01*
Y26881D02*
Y28219D01*
X63Y26881D02*
X1323D01*
X21028Y28219D02*
X22288D01*
X21028Y26881D02*
Y28219D01*
Y26881D02*
X22288D01*
X21028Y11881D02*
X22288D01*
X21028D02*
Y13219D01*
X22288D01*
X21028Y8219D02*
X22288D01*
X21028Y6881D02*
Y8219D01*
Y6881D02*
X22288D01*
X50Y8219D02*
X63D01*
X50D02*
Y11881D01*
X63D01*
X22288Y18219D02*
Y21881D01*
X50Y23219D02*
X1323D01*
Y21881D02*
Y23219D01*
X63Y21881D02*
X1323D01*
X63Y18219D02*
X1323D01*
Y16881D02*
Y18219D01*
Y11881D02*
Y13219D01*
X50Y13232D02*
Y16881D01*
Y13232D02*
X63Y13219D01*
X1323D01*
X63Y8219D02*
X1323D01*
Y6881D02*
Y8219D01*
X21028Y16881D02*
X22288D01*
X21028D02*
Y18219D01*
Y21881D02*
X22288D01*
X21028D02*
Y23219D01*
X50Y16881D02*
X1323D01*
X50Y11881D02*
X1323D01*
X50Y6881D02*
X1323D01*
X21028Y18219D02*
X22288D01*
X21028Y23219D02*
X22288D01*
X21028Y11881D02*
X22288D01*
X21028D02*
Y13219D01*
X22288D02*
Y16881D01*
X21028Y13219D02*
X22288D01*
X22300Y3050D02*
Y6881D01*
X21028D02*
X22288D01*
X21028D02*
Y8219D01*
X22288D01*
Y11881D01*
X22300Y28219D02*
Y32800D01*
X21028Y28219D02*
X22300D01*
X21028Y26881D02*
Y28219D01*
Y26881D02*
X22288D01*
Y23219D02*
Y26881D01*
X23300Y3050D02*
X45550D01*
X23300Y32800D02*
X45550D01*
X23300Y26881D02*
X24573D01*
Y28219D01*
X23300D02*
X24573D01*
X23300D02*
Y32800D01*
Y23219D02*
Y26881D01*
Y18219D02*
Y21881D01*
Y3050D02*
Y6881D01*
X44278Y16881D02*
X45538D01*
X44278D02*
Y18219D01*
X45538D01*
X44278Y23219D02*
X45538D01*
X44278Y21881D02*
Y23219D01*
Y21881D02*
X45538D01*
X23313Y8219D02*
X24573D01*
Y6881D02*
Y8219D01*
X23313Y6881D02*
X24573D01*
X23313Y11881D02*
X24573D01*
Y13219D01*
X23313D02*
X24573D01*
X23313Y18219D02*
X24573D01*
Y16881D02*
Y18219D01*
X23313Y16881D02*
X24573D01*
X23313Y21881D02*
X24573D01*
Y23219D01*
X23313D02*
X24573D01*
X23313Y28219D02*
X24573D01*
Y26881D02*
Y28219D01*
X23313Y26881D02*
X24573D01*
X44278Y28219D02*
X45538D01*
X44278Y26881D02*
Y28219D01*
Y26881D02*
X45538D01*
X44278Y11881D02*
X45538D01*
X44278D02*
Y13219D01*
X45538D01*
X44278Y8219D02*
X45538D01*
X44278Y6881D02*
Y8219D01*
Y6881D02*
X45538D01*
X23300Y8219D02*
X23313D01*
X23300D02*
Y11881D01*
X23313D01*
X45538Y18219D02*
Y21881D01*
X23300Y23219D02*
X24573D01*
Y21881D02*
Y23219D01*
X23313Y21881D02*
X24573D01*
X23313Y18219D02*
X24573D01*
Y16881D02*
Y18219D01*
Y11881D02*
Y13219D01*
X23300Y13232D02*
Y16881D01*
Y13232D02*
X23313Y13219D01*
X24573D01*
X23313Y8219D02*
X24573D01*
Y6881D02*
Y8219D01*
X44278Y16881D02*
X45538D01*
X44278D02*
Y18219D01*
Y21881D02*
X45538D01*
X44278D02*
Y23219D01*
X23300Y16881D02*
X24573D01*
X23300Y11881D02*
X24573D01*
X23300Y6881D02*
X24573D01*
X44278Y18219D02*
X45538D01*
X44278Y23219D02*
X45538D01*
X44278Y11881D02*
X45538D01*
X44278D02*
Y13219D01*
X45538D02*
Y16881D01*
X44278Y13219D02*
X45538D01*
X45550Y3050D02*
Y6881D01*
X44278D02*
X45538D01*
X44278D02*
Y8219D01*
X45538D01*
Y11881D01*
X45550Y28219D02*
Y32800D01*
X44278Y28219D02*
X45550D01*
X44278Y26881D02*
Y28219D01*
Y26881D02*
X45538D01*
Y23219D02*
Y26881D01*
M02*
