G04 Layer_Physical_Order=1*
G04 Layer_Color=255*
%FSLAX24Y24*%
%MOIN*%
G70*
G01*
G75*
%ADD10C,0.0800*%
%ADD11R,0.0800X0.0800*%
%ADD12R,0.0197X0.0354*%
%ADD13R,0.0394X0.0591*%
%ADD14R,0.0354X0.0197*%
%ADD15R,0.0236X0.0480*%
%ADD16R,0.0768X0.1378*%
%ADD17R,0.0591X0.0787*%
%ADD18R,0.0591X0.0630*%
%ADD19C,0.0200*%
%ADD20C,0.0150*%
%ADD21R,0.0866X0.0866*%
%ADD22C,0.0240*%
%ADD23C,0.1370*%
G36*
X45438Y28332D02*
X44278D01*
X44235Y28323D01*
X44198Y28299D01*
X44174Y28262D01*
X44166Y28219D01*
Y26881D01*
X44174Y26838D01*
X44198Y26802D01*
X44235Y26777D01*
X44278Y26769D01*
X45425D01*
Y23332D01*
X44278D01*
X44235Y23323D01*
X44198Y23299D01*
X44174Y23262D01*
X44166Y23219D01*
Y21881D01*
X44174Y21838D01*
X44198Y21802D01*
X44235Y21777D01*
X44278Y21769D01*
X45425D01*
Y18332D01*
X44278D01*
X44235Y18323D01*
X44198Y18299D01*
X44174Y18262D01*
X44166Y18219D01*
Y16881D01*
X44174Y16838D01*
X44198Y16802D01*
X44235Y16777D01*
X44278Y16769D01*
X45425D01*
Y13332D01*
X44278D01*
X44235Y13323D01*
X44198Y13299D01*
X44174Y13262D01*
X44166Y13219D01*
Y11881D01*
X44174Y11838D01*
X44198Y11802D01*
X44235Y11777D01*
X44278Y11769D01*
X45425D01*
Y8332D01*
X44278D01*
X44235Y8323D01*
X44198Y8299D01*
X44174Y8262D01*
X44166Y8219D01*
Y6881D01*
X44174Y6838D01*
X44198Y6802D01*
X44235Y6777D01*
X44278Y6769D01*
X45438D01*
Y3162D01*
X23412D01*
Y6769D01*
X24573D01*
X24616Y6777D01*
X24652Y6802D01*
X24676Y6838D01*
X24685Y6881D01*
Y8219D01*
X24676Y8262D01*
X24652Y8299D01*
X24616Y8323D01*
X24573Y8332D01*
X23412D01*
Y11769D01*
X24573D01*
X24616Y11777D01*
X24652Y11802D01*
X24676Y11838D01*
X24685Y11881D01*
Y13219D01*
X24676Y13262D01*
X24652Y13299D01*
X24616Y13323D01*
X24573Y13332D01*
X23412D01*
Y16769D01*
X24573D01*
X24616Y16777D01*
X24652Y16802D01*
X24676Y16838D01*
X24685Y16881D01*
Y18219D01*
X24676Y18262D01*
X24652Y18299D01*
X24616Y18323D01*
X24573Y18332D01*
X23412D01*
Y21769D01*
X24573D01*
X24616Y21777D01*
X24652Y21802D01*
X24676Y21838D01*
X24685Y21881D01*
Y23219D01*
X24676Y23262D01*
X24652Y23299D01*
X24616Y23323D01*
X24573Y23332D01*
X23412D01*
Y26769D01*
X24573D01*
X24616Y26777D01*
X24652Y26802D01*
X24676Y26838D01*
X24685Y26881D01*
Y28219D01*
X24676Y28262D01*
X24652Y28299D01*
X24616Y28323D01*
X24573Y28332D01*
X23412D01*
Y32688D01*
X45438D01*
Y28332D01*
D02*
G37*
G36*
X22188D02*
X21028D01*
X20985Y28323D01*
X20948Y28299D01*
X20924Y28262D01*
X20916Y28219D01*
Y26881D01*
X20924Y26838D01*
X20948Y26802D01*
X20985Y26777D01*
X21028Y26769D01*
X22175D01*
Y23332D01*
X21028D01*
X20985Y23323D01*
X20948Y23299D01*
X20924Y23262D01*
X20916Y23219D01*
Y21881D01*
X20924Y21838D01*
X20948Y21802D01*
X20985Y21777D01*
X21028Y21769D01*
X22175D01*
Y18332D01*
X21028D01*
X20985Y18323D01*
X20948Y18299D01*
X20924Y18262D01*
X20916Y18219D01*
Y16881D01*
X20924Y16838D01*
X20948Y16802D01*
X20985Y16777D01*
X21028Y16769D01*
X22175D01*
Y13332D01*
X21028D01*
X20985Y13323D01*
X20948Y13299D01*
X20924Y13262D01*
X20916Y13219D01*
Y11881D01*
X20924Y11838D01*
X20948Y11802D01*
X20985Y11777D01*
X21028Y11769D01*
X22175D01*
Y8332D01*
X21028D01*
X20985Y8323D01*
X20948Y8299D01*
X20924Y8262D01*
X20916Y8219D01*
Y6881D01*
X20924Y6838D01*
X20948Y6802D01*
X20985Y6777D01*
X21028Y6769D01*
X22188D01*
Y3162D01*
X162D01*
Y6769D01*
X1323D01*
X1366Y6777D01*
X1402Y6802D01*
X1426Y6838D01*
X1435Y6881D01*
Y8219D01*
X1426Y8262D01*
X1402Y8299D01*
X1366Y8323D01*
X1323Y8332D01*
X162D01*
Y11769D01*
X1323D01*
X1366Y11777D01*
X1402Y11802D01*
X1426Y11838D01*
X1435Y11881D01*
Y13219D01*
X1426Y13262D01*
X1402Y13299D01*
X1366Y13323D01*
X1323Y13332D01*
X162D01*
Y16769D01*
X1323D01*
X1366Y16777D01*
X1402Y16802D01*
X1426Y16838D01*
X1435Y16881D01*
Y18219D01*
X1426Y18262D01*
X1402Y18299D01*
X1366Y18323D01*
X1323Y18332D01*
X162D01*
Y21769D01*
X1323D01*
X1366Y21777D01*
X1402Y21802D01*
X1426Y21838D01*
X1435Y21881D01*
Y23219D01*
X1426Y23262D01*
X1402Y23299D01*
X1366Y23323D01*
X1323Y23332D01*
X162D01*
Y26769D01*
X1323D01*
X1366Y26777D01*
X1402Y26802D01*
X1426Y26838D01*
X1435Y26881D01*
Y28219D01*
X1426Y28262D01*
X1402Y28299D01*
X1366Y28323D01*
X1323Y28332D01*
X162D01*
Y32688D01*
X22188D01*
Y28332D01*
D02*
G37*
%LPC*%
G36*
X44500Y32499D02*
X44354Y32484D01*
X44214Y32442D01*
X44084Y32373D01*
X43971Y32279D01*
X43878Y32166D01*
X43809Y32037D01*
X43766Y31896D01*
X43752Y31750D01*
X43766Y31604D01*
X43809Y31464D01*
X43878Y31334D01*
X43971Y31221D01*
X44084Y31128D01*
X44214Y31059D01*
X44354Y31016D01*
X44500Y31002D01*
X44646Y31016D01*
X44787Y31059D01*
X44916Y31128D01*
X45029Y31221D01*
X45123Y31334D01*
X45192Y31464D01*
X45234Y31604D01*
X45249Y31750D01*
X45234Y31896D01*
X45192Y32037D01*
X45123Y32166D01*
X45029Y32279D01*
X44916Y32373D01*
X44787Y32442D01*
X44646Y32484D01*
X44500Y32499D01*
D02*
G37*
G36*
X34500D02*
X34354Y32484D01*
X34214Y32442D01*
X34084Y32373D01*
X33971Y32279D01*
X33878Y32166D01*
X33809Y32037D01*
X33766Y31896D01*
X33752Y31750D01*
X33766Y31604D01*
X33809Y31464D01*
X33878Y31334D01*
X33971Y31221D01*
X34084Y31128D01*
X34214Y31059D01*
X34354Y31016D01*
X34500Y31002D01*
X34646Y31016D01*
X34787Y31059D01*
X34916Y31128D01*
X35029Y31221D01*
X35123Y31334D01*
X35192Y31464D01*
X35234Y31604D01*
X35249Y31750D01*
X35234Y31896D01*
X35192Y32037D01*
X35123Y32166D01*
X35029Y32279D01*
X34916Y32373D01*
X34787Y32442D01*
X34646Y32484D01*
X34500Y32499D01*
D02*
G37*
G36*
X24500D02*
X24354Y32484D01*
X24214Y32442D01*
X24084Y32373D01*
X23971Y32279D01*
X23878Y32166D01*
X23809Y32037D01*
X23766Y31896D01*
X23752Y31750D01*
X23766Y31604D01*
X23809Y31464D01*
X23878Y31334D01*
X23971Y31221D01*
X24084Y31128D01*
X24214Y31059D01*
X24354Y31016D01*
X24500Y31002D01*
X24646Y31016D01*
X24787Y31059D01*
X24916Y31128D01*
X25029Y31221D01*
X25123Y31334D01*
X25192Y31464D01*
X25234Y31604D01*
X25249Y31750D01*
X25234Y31896D01*
X25192Y32037D01*
X25123Y32166D01*
X25029Y32279D01*
X24916Y32373D01*
X24787Y32442D01*
X24646Y32484D01*
X24500Y32499D01*
D02*
G37*
G36*
X40000Y30002D02*
X39000D01*
X38961Y29994D01*
X38928Y29972D01*
X38906Y29939D01*
X38898Y29900D01*
Y29863D01*
X37952D01*
Y29900D01*
X37944Y29939D01*
X37922Y29972D01*
X37889Y29994D01*
X37850Y30002D01*
X36300D01*
X36261Y29994D01*
X36228Y29972D01*
X36206Y29939D01*
X36198Y29900D01*
Y14652D01*
X32402D01*
Y27150D01*
X32394Y27189D01*
X32372Y27222D01*
X32339Y27244D01*
X32300Y27252D01*
X31523D01*
X31487Y27287D01*
X31487Y27302D01*
Y27604D01*
X31409D01*
Y28050D01*
X31404Y28074D01*
Y28287D01*
X31087D01*
Y28074D01*
X31082Y28050D01*
Y27604D01*
X31013D01*
X31013Y27308D01*
X30970Y27277D01*
X30943Y27284D01*
X30937Y27294D01*
X30937Y27332D01*
Y27604D01*
X30724D01*
X30700Y27609D01*
X30395D01*
X30333Y27596D01*
X30280Y27561D01*
X30009Y27290D01*
X30006Y27285D01*
X29952D01*
Y27500D01*
X29944Y27539D01*
X29922Y27572D01*
X29889Y27594D01*
X29850Y27602D01*
X28850D01*
X28811Y27594D01*
X28778Y27572D01*
X28756Y27539D01*
X28748Y27500D01*
Y25200D01*
X28756Y25161D01*
X28778Y25128D01*
X28811Y25106D01*
X28850Y25098D01*
X29850D01*
X29889Y25106D01*
X29922Y25128D01*
X29944Y25161D01*
X29952Y25200D01*
Y25237D01*
X30848D01*
Y25050D01*
X30856Y25011D01*
X30878Y24978D01*
X30911Y24956D01*
X30950Y24948D01*
X31698D01*
Y22252D01*
X31523D01*
X31487Y22287D01*
X31487Y22302D01*
Y22604D01*
X31409D01*
Y23050D01*
X31404Y23074D01*
Y23287D01*
X31087D01*
Y23074D01*
X31082Y23050D01*
Y22604D01*
X31013D01*
X31013Y22308D01*
X30970Y22277D01*
X30943Y22284D01*
X30937Y22294D01*
X30937Y22332D01*
Y22604D01*
X30724D01*
X30700Y22609D01*
X30395D01*
X30333Y22596D01*
X30280Y22561D01*
X30009Y22290D01*
X30006Y22285D01*
X29952D01*
Y22500D01*
X29944Y22539D01*
X29922Y22572D01*
X29889Y22594D01*
X29850Y22602D01*
X28850D01*
X28811Y22594D01*
X28778Y22572D01*
X28756Y22539D01*
X28748Y22500D01*
Y20200D01*
X28756Y20161D01*
X28778Y20128D01*
X28811Y20106D01*
X28850Y20098D01*
X29850D01*
X29889Y20106D01*
X29922Y20128D01*
X29944Y20161D01*
X29952Y20200D01*
Y20237D01*
X30848D01*
Y20200D01*
X30856Y20161D01*
X30878Y20128D01*
X30911Y20106D01*
X30950Y20098D01*
X31698D01*
Y17252D01*
X31523D01*
X31487Y17287D01*
X31487Y17302D01*
Y17604D01*
X31409D01*
Y18050D01*
X31404Y18074D01*
Y18287D01*
X31087D01*
Y18074D01*
X31082Y18050D01*
Y17604D01*
X31013D01*
X31013Y17308D01*
X30970Y17277D01*
X30943Y17284D01*
X30937Y17293D01*
X30937Y17332D01*
Y17604D01*
X30724D01*
X30700Y17609D01*
X30395D01*
X30333Y17596D01*
X30280Y17561D01*
X30009Y17290D01*
X30006Y17285D01*
X29952D01*
Y17500D01*
X29944Y17539D01*
X29922Y17572D01*
X29889Y17594D01*
X29850Y17602D01*
X28850D01*
X28811Y17594D01*
X28778Y17572D01*
X28756Y17539D01*
X28748Y17500D01*
Y15200D01*
X28756Y15161D01*
X28778Y15128D01*
X28811Y15106D01*
X28850Y15098D01*
X29850D01*
X29889Y15106D01*
X29922Y15128D01*
X29944Y15161D01*
X29952Y15200D01*
Y15237D01*
X30848D01*
Y15200D01*
X30856Y15161D01*
X30878Y15128D01*
X30911Y15106D01*
X30950Y15098D01*
X31698D01*
Y12252D01*
X31523D01*
X31487Y12287D01*
X31487Y12302D01*
Y12604D01*
X31409D01*
Y13050D01*
X31404Y13074D01*
Y13287D01*
X31087D01*
Y13074D01*
X31082Y13050D01*
Y12604D01*
X31013D01*
X31013Y12308D01*
X30970Y12277D01*
X30943Y12284D01*
X30937Y12293D01*
X30937Y12332D01*
Y12604D01*
X30724D01*
X30700Y12609D01*
X30395D01*
X30333Y12596D01*
X30280Y12561D01*
X30009Y12290D01*
X30006Y12285D01*
X29952D01*
Y12500D01*
X29944Y12539D01*
X29922Y12572D01*
X29889Y12594D01*
X29850Y12602D01*
X28850D01*
X28811Y12594D01*
X28778Y12572D01*
X28756Y12539D01*
X28748Y12500D01*
Y10200D01*
X28756Y10161D01*
X28778Y10128D01*
X28811Y10106D01*
X28850Y10098D01*
X29850D01*
X29889Y10106D01*
X29922Y10128D01*
X29944Y10161D01*
X29952Y10200D01*
Y10237D01*
X30848D01*
Y10200D01*
X30856Y10161D01*
X30878Y10128D01*
X30911Y10106D01*
X30950Y10098D01*
X31698D01*
Y7252D01*
X31523D01*
X31487Y7287D01*
X31487Y7302D01*
Y7604D01*
X31409D01*
Y8050D01*
X31404Y8074D01*
Y8287D01*
X31087D01*
Y8074D01*
X31082Y8050D01*
Y7604D01*
X31013D01*
X31013Y7308D01*
X30970Y7277D01*
X30943Y7284D01*
X30937Y7293D01*
X30937Y7332D01*
Y7604D01*
X30724D01*
X30700Y7609D01*
X30395D01*
X30333Y7596D01*
X30280Y7561D01*
X30009Y7290D01*
X30006Y7285D01*
X29952D01*
Y7500D01*
X29944Y7539D01*
X29922Y7572D01*
X29889Y7594D01*
X29850Y7602D01*
X28850D01*
X28811Y7594D01*
X28778Y7572D01*
X28756Y7539D01*
X28748Y7500D01*
Y5200D01*
X28756Y5161D01*
X28778Y5128D01*
X28811Y5106D01*
X28850Y5098D01*
X29850D01*
X29889Y5106D01*
X29922Y5128D01*
X29944Y5161D01*
X29952Y5200D01*
Y5237D01*
X30848D01*
Y5200D01*
X30856Y5161D01*
X30878Y5128D01*
X30911Y5106D01*
X30950Y5098D01*
X32550D01*
X32589Y5106D01*
X32622Y5128D01*
X32644Y5161D01*
X32652Y5200D01*
Y9048D01*
X33548D01*
X33548Y7950D01*
X33556Y7911D01*
X33578Y7878D01*
X33611Y7856D01*
X33650Y7848D01*
X34850Y7848D01*
X34889Y7856D01*
X34922Y7878D01*
X34944Y7911D01*
X34952Y7950D01*
X34952Y9254D01*
X34955D01*
Y9531D01*
Y9808D01*
X34952D01*
Y9850D01*
X34944Y9889D01*
X34922Y9922D01*
X34889Y9944D01*
X34850Y9952D01*
X34623D01*
X34623Y9952D01*
X34622Y9952D01*
X34603Y9948D01*
X34584Y9944D01*
X34584Y9944D01*
X34583Y9944D01*
X34567Y9933D01*
X34551Y9922D01*
X34551Y9922D01*
X34550Y9921D01*
X34540Y9905D01*
X34529Y9889D01*
X34529Y9889D01*
X34529Y9888D01*
X34509Y9838D01*
X34505Y9819D01*
X34501Y9800D01*
Y9768D01*
X34246D01*
Y9713D01*
X34154D01*
Y9787D01*
X33949D01*
X33944Y9793D01*
X33941Y9805D01*
X33955Y9824D01*
Y10091D01*
X33797D01*
Y9995D01*
X33797Y9994D01*
X33782Y9972D01*
X33756Y9952D01*
X33650D01*
X33613Y9945D01*
X33611Y9945D01*
X33563Y9973D01*
Y10368D01*
X33308D01*
Y10444D01*
X33563D01*
Y10918D01*
X33308D01*
Y10994D01*
X33563D01*
Y11405D01*
X33589Y11406D01*
X33603D01*
X33610Y11408D01*
X33613Y11408D01*
X33620Y11408D01*
X33666Y11415D01*
X33678Y11420D01*
X33689Y11422D01*
X33696Y11426D01*
X33704Y11429D01*
X33712Y11437D01*
X33722Y11444D01*
X33727Y11451D01*
X33733Y11456D01*
X33738Y11467D01*
X33744Y11477D01*
X33746Y11485D01*
X33749Y11493D01*
X33750Y11504D01*
X33752Y11516D01*
Y13698D01*
X36448D01*
Y8050D01*
X36455Y8014D01*
X36455Y8010D01*
X36427Y7964D01*
X36141D01*
Y7471D01*
X36634D01*
Y7948D01*
X37323D01*
X37362Y7956D01*
X37395Y7978D01*
X37417Y8011D01*
X37425Y8050D01*
Y8087D01*
X37576D01*
X37600Y8082D01*
X37624Y8087D01*
X37837D01*
X37873Y8052D01*
Y8047D01*
X38110D01*
Y8245D01*
Y8444D01*
X37952D01*
Y8867D01*
X38002Y8884D01*
X38064Y8843D01*
X38110Y8834D01*
Y9050D01*
Y9266D01*
X38064Y9257D01*
X38002Y9216D01*
X37952Y9233D01*
Y9537D01*
X38898D01*
Y8416D01*
X38548D01*
Y7979D01*
X38387Y7818D01*
X38150D01*
X38126Y7813D01*
X37913D01*
Y7496D01*
X38126D01*
X38150Y7492D01*
X38455D01*
X38517Y7504D01*
X38570Y7540D01*
X38841Y7811D01*
X38845Y7816D01*
X38898D01*
Y7600D01*
X38906Y7561D01*
X38928Y7528D01*
X38961Y7506D01*
X39000Y7498D01*
X40000D01*
X40039Y7506D01*
X40072Y7528D01*
X40094Y7561D01*
X40102Y7600D01*
Y9900D01*
X40094Y9939D01*
X40072Y9972D01*
X40039Y9994D01*
X40000Y10002D01*
X39000D01*
X38961Y9994D01*
X38928Y9972D01*
X38906Y9939D01*
X38898Y9900D01*
Y9863D01*
X37952D01*
Y10050D01*
X37944Y10089D01*
X37922Y10122D01*
X37889Y10144D01*
X37850Y10152D01*
X37152D01*
Y12848D01*
X37327D01*
X37363Y12813D01*
X37363Y12798D01*
Y12496D01*
X37442D01*
Y12050D01*
X37446Y12026D01*
Y11813D01*
X37763D01*
Y12026D01*
X37768Y12050D01*
Y12496D01*
X37837D01*
X37837Y12804D01*
X37842Y12819D01*
X37866Y12851D01*
X37889Y12856D01*
X37922Y12878D01*
X37944Y12911D01*
X37952Y12950D01*
Y13047D01*
X38110D01*
Y13245D01*
Y13444D01*
X37952D01*
Y13867D01*
X38002Y13884D01*
X38064Y13843D01*
X38110Y13834D01*
Y14050D01*
Y14267D01*
X38064Y14257D01*
X38002Y14216D01*
X37952Y14233D01*
Y14537D01*
X38898D01*
Y13416D01*
X38548D01*
Y12979D01*
X38387Y12818D01*
X38150D01*
X38126Y12813D01*
X37913D01*
Y12496D01*
X38126D01*
X38150Y12492D01*
X38455D01*
X38517Y12504D01*
X38570Y12540D01*
X38841Y12811D01*
X38845Y12816D01*
X38898D01*
Y12600D01*
X38906Y12561D01*
X38928Y12528D01*
X38961Y12506D01*
X39000Y12498D01*
X40000D01*
X40039Y12506D01*
X40072Y12528D01*
X40094Y12561D01*
X40102Y12600D01*
Y14900D01*
X40094Y14939D01*
X40072Y14972D01*
X40039Y14994D01*
X40000Y15002D01*
X39000D01*
X38961Y14994D01*
X38928Y14972D01*
X38906Y14939D01*
X38898Y14900D01*
Y14863D01*
X37952D01*
Y14900D01*
X37944Y14939D01*
X37922Y14972D01*
X37889Y14994D01*
X37850Y15002D01*
X37152D01*
Y17848D01*
X37327D01*
X37363Y17813D01*
X37363Y17798D01*
Y17496D01*
X37442D01*
Y17050D01*
X37446Y17026D01*
Y16813D01*
X37763D01*
Y17026D01*
X37768Y17050D01*
Y17496D01*
X37837D01*
X37837Y17804D01*
X37842Y17819D01*
X37866Y17851D01*
X37889Y17856D01*
X37922Y17878D01*
X37944Y17911D01*
X37952Y17950D01*
Y18047D01*
X38110D01*
Y18245D01*
Y18444D01*
X37952D01*
Y18867D01*
X38002Y18884D01*
X38064Y18843D01*
X38110Y18834D01*
Y19050D01*
Y19267D01*
X38064Y19257D01*
X38002Y19216D01*
X37952Y19233D01*
Y19537D01*
X38898D01*
Y18416D01*
X38548D01*
Y17979D01*
X38387Y17818D01*
X38150D01*
X38126Y17813D01*
X37913D01*
Y17496D01*
X38126D01*
X38150Y17492D01*
X38455D01*
X38517Y17504D01*
X38570Y17540D01*
X38841Y17811D01*
X38845Y17816D01*
X38898D01*
Y17600D01*
X38906Y17561D01*
X38928Y17528D01*
X38961Y17506D01*
X39000Y17498D01*
X40000D01*
X40039Y17506D01*
X40072Y17528D01*
X40094Y17561D01*
X40102Y17600D01*
Y19900D01*
X40094Y19939D01*
X40072Y19972D01*
X40039Y19994D01*
X40000Y20002D01*
X39000D01*
X38961Y19994D01*
X38928Y19972D01*
X38906Y19939D01*
X38898Y19900D01*
Y19863D01*
X37952D01*
Y19900D01*
X37944Y19939D01*
X37922Y19972D01*
X37889Y19994D01*
X37850Y20002D01*
X37152D01*
Y22848D01*
X37327D01*
X37363Y22813D01*
X37363Y22798D01*
Y22496D01*
X37442D01*
Y22050D01*
X37446Y22026D01*
Y21813D01*
X37763D01*
Y22026D01*
X37768Y22050D01*
Y22496D01*
X37837D01*
X37837Y22804D01*
X37842Y22819D01*
X37866Y22851D01*
X37889Y22856D01*
X37922Y22878D01*
X37944Y22911D01*
X37952Y22950D01*
Y23047D01*
X38110D01*
Y23245D01*
Y23444D01*
X37952D01*
Y23867D01*
X38002Y23884D01*
X38064Y23843D01*
X38110Y23834D01*
Y24050D01*
Y24267D01*
X38064Y24257D01*
X38002Y24216D01*
X37952Y24233D01*
Y24537D01*
X38898D01*
Y23416D01*
X38548D01*
Y22979D01*
X38387Y22818D01*
X38150D01*
X38126Y22813D01*
X37913D01*
Y22496D01*
X38126D01*
X38150Y22492D01*
X38455D01*
X38517Y22504D01*
X38570Y22540D01*
X38841Y22811D01*
X38845Y22816D01*
X38898D01*
Y22600D01*
X38906Y22561D01*
X38928Y22528D01*
X38961Y22506D01*
X39000Y22498D01*
X40000D01*
X40039Y22506D01*
X40072Y22528D01*
X40094Y22561D01*
X40102Y22600D01*
Y24900D01*
X40094Y24939D01*
X40072Y24972D01*
X40039Y24994D01*
X40000Y25002D01*
X39000D01*
X38961Y24994D01*
X38928Y24972D01*
X38906Y24939D01*
X38898Y24900D01*
Y24863D01*
X37952D01*
Y24900D01*
X37944Y24939D01*
X37922Y24972D01*
X37889Y24994D01*
X37850Y25002D01*
X37152D01*
Y27848D01*
X37327D01*
X37363Y27813D01*
X37363Y27798D01*
Y27496D01*
X37442D01*
Y27050D01*
X37446Y27026D01*
Y26813D01*
X37763D01*
Y27026D01*
X37768Y27050D01*
Y27496D01*
X37837D01*
X37837Y27804D01*
X37842Y27819D01*
X37866Y27851D01*
X37889Y27856D01*
X37922Y27878D01*
X37944Y27911D01*
X37952Y27950D01*
Y28047D01*
X38110D01*
Y28245D01*
Y28444D01*
X37952D01*
Y28867D01*
X38002Y28884D01*
X38064Y28843D01*
X38110Y28834D01*
Y29050D01*
Y29267D01*
X38064Y29257D01*
X38002Y29216D01*
X37952Y29233D01*
Y29537D01*
X38898D01*
Y28416D01*
X38548D01*
Y27979D01*
X38387Y27818D01*
X38150D01*
X38126Y27813D01*
X37913D01*
Y27496D01*
X38126D01*
X38150Y27492D01*
X38455D01*
X38517Y27504D01*
X38570Y27540D01*
X38841Y27811D01*
X38845Y27816D01*
X38898D01*
Y27600D01*
X38906Y27561D01*
X38928Y27528D01*
X38961Y27506D01*
X39000Y27498D01*
X40000D01*
X40039Y27506D01*
X40072Y27528D01*
X40094Y27561D01*
X40102Y27600D01*
Y29900D01*
X40094Y29939D01*
X40072Y29972D01*
X40039Y29994D01*
X40000Y30002D01*
D02*
G37*
G36*
X41315Y29377D02*
X41156D01*
Y29349D01*
X41106Y29313D01*
X41090Y29316D01*
Y29100D01*
Y28884D01*
X41106Y28887D01*
X41156Y28851D01*
Y28823D01*
X41315D01*
Y29100D01*
Y29377D01*
D02*
G37*
G36*
X38488Y29445D02*
X38231D01*
Y29298D01*
X38192Y29266D01*
X38190Y29267D01*
Y29050D01*
Y28834D01*
X38192Y28834D01*
X38231Y28802D01*
Y28655D01*
X38488D01*
Y29050D01*
Y29445D01*
D02*
G37*
G36*
X42940Y29342D02*
X42230D01*
Y29263D01*
X42104D01*
Y29337D01*
X41787D01*
Y29124D01*
X41782Y29100D01*
X41787Y29076D01*
Y28863D01*
X42104D01*
Y28937D01*
X42230D01*
Y28593D01*
X42940D01*
Y29342D01*
D02*
G37*
G36*
X41553Y29377D02*
X41395D01*
Y29140D01*
X41553D01*
Y29377D01*
D02*
G37*
G36*
X41010Y29316D02*
X40964Y29307D01*
X40892Y29259D01*
X40843Y29186D01*
X40834Y29140D01*
X41010D01*
Y29316D01*
D02*
G37*
G36*
X38825Y29445D02*
X38568D01*
Y29090D01*
X38825D01*
Y29445D01*
D02*
G37*
G36*
X30569Y29345D02*
X30313D01*
Y28990D01*
X30569D01*
Y29345D01*
D02*
G37*
G36*
X30233D02*
X29976D01*
Y28990D01*
X30233D01*
Y29345D01*
D02*
G37*
G36*
X25598Y29408D02*
X25243D01*
Y28954D01*
X25598D01*
Y29408D01*
D02*
G37*
G36*
X25163D02*
X24807D01*
Y28954D01*
X25163D01*
Y29408D01*
D02*
G37*
G36*
X44043D02*
X43688D01*
Y28954D01*
X44043D01*
Y29408D01*
D02*
G37*
G36*
X43608D02*
X43253D01*
Y28954D01*
X43608D01*
Y29408D01*
D02*
G37*
G36*
X41010Y29060D02*
X40834D01*
X40843Y29014D01*
X40892Y28942D01*
X40964Y28893D01*
X41010Y28884D01*
Y29060D01*
D02*
G37*
G36*
X41553D02*
X41395D01*
Y28823D01*
X41553D01*
Y29060D01*
D02*
G37*
G36*
X38825Y29010D02*
X38568D01*
Y28655D01*
X38825D01*
Y29010D01*
D02*
G37*
G36*
X30569Y28910D02*
X30313D01*
Y28555D01*
X30569D01*
Y28910D01*
D02*
G37*
G36*
X30233D02*
X29976D01*
Y28555D01*
X30233D01*
Y28910D01*
D02*
G37*
G36*
X44043Y28874D02*
X43688D01*
Y28421D01*
X44043D01*
Y28874D01*
D02*
G37*
G36*
X43608D02*
X43253D01*
Y28421D01*
X43608D01*
Y28874D01*
D02*
G37*
G36*
X25598Y28874D02*
X25243D01*
Y28421D01*
X25598D01*
Y28874D01*
D02*
G37*
G36*
X25163D02*
X24807D01*
Y28421D01*
X25163D01*
Y28874D01*
D02*
G37*
G36*
X38427Y28444D02*
X38190D01*
Y28285D01*
X38427D01*
Y28444D01*
D02*
G37*
G36*
Y28205D02*
X38190D01*
Y28047D01*
X38427D01*
Y28205D01*
D02*
G37*
G36*
X29968Y28356D02*
X29790D01*
Y28016D01*
Y27676D01*
X29968D01*
Y27716D01*
X30302D01*
Y27887D01*
X30496D01*
Y27813D01*
X30813D01*
Y28026D01*
X30818Y28050D01*
X30813Y28074D01*
Y28287D01*
X30496D01*
Y28213D01*
X30302D01*
Y28316D01*
X29968D01*
Y28356D01*
D02*
G37*
G36*
X28117Y29342D02*
X27406D01*
Y28593D01*
X28117D01*
Y28787D01*
X29071D01*
Y28595D01*
X29165D01*
Y28064D01*
X29177Y28002D01*
X29198Y27970D01*
Y27716D01*
X29532D01*
Y27676D01*
X29710D01*
Y28016D01*
Y28356D01*
X29532D01*
X29491Y28377D01*
Y28595D01*
X29585D01*
Y29305D01*
X29071D01*
Y29113D01*
X28117D01*
Y29342D01*
D02*
G37*
G36*
X40597Y27869D02*
X40514Y27858D01*
X40437Y27826D01*
X40371Y27775D01*
X40321Y27709D01*
X40289Y27633D01*
X40278Y27550D01*
X40289Y27468D01*
X40321Y27391D01*
X40371Y27325D01*
X40437Y27274D01*
X40514Y27242D01*
X40597Y27232D01*
X40679Y27242D01*
X40756Y27274D01*
X40822Y27325D01*
X40873Y27391D01*
X40904Y27468D01*
X40915Y27550D01*
X40904Y27633D01*
X40873Y27709D01*
X40822Y27775D01*
X40756Y27826D01*
X40679Y27858D01*
X40597Y27869D01*
D02*
G37*
G36*
X28254D02*
X28171Y27858D01*
X28094Y27826D01*
X28028Y27775D01*
X27978Y27709D01*
X27946Y27633D01*
X27935Y27550D01*
X27946Y27468D01*
X27978Y27391D01*
X28028Y27325D01*
X28094Y27274D01*
X28171Y27242D01*
X28254Y27232D01*
X28336Y27242D01*
X28413Y27274D01*
X28479Y27325D01*
X28530Y27391D01*
X28561Y27468D01*
X28572Y27550D01*
X28561Y27633D01*
X28530Y27709D01*
X28479Y27775D01*
X28413Y27826D01*
X28336Y27858D01*
X28254Y27869D01*
D02*
G37*
G36*
X39060Y27425D02*
X38882D01*
Y27385D01*
X38548D01*
Y27213D01*
X38354D01*
Y27287D01*
X38037D01*
Y27074D01*
X38032Y27050D01*
X38037Y27026D01*
Y26813D01*
X38354D01*
Y26887D01*
X38548D01*
Y26784D01*
X38882D01*
Y26744D01*
X39060D01*
Y27084D01*
Y27425D01*
D02*
G37*
G36*
X44043Y26680D02*
X43688D01*
Y26226D01*
X44043D01*
Y26680D01*
D02*
G37*
G36*
X43608D02*
X43253D01*
Y26226D01*
X43608D01*
Y26680D01*
D02*
G37*
G36*
X25598D02*
X25243D01*
Y26226D01*
X25598D01*
Y26680D01*
D02*
G37*
G36*
X25163D02*
X24807D01*
Y26226D01*
X25163D01*
Y26680D01*
D02*
G37*
G36*
X38875Y26545D02*
X38618D01*
Y26190D01*
X38875D01*
Y26545D01*
D02*
G37*
G36*
X38538D02*
X38281D01*
Y26190D01*
X38538D01*
Y26545D01*
D02*
G37*
G36*
X27840Y26216D02*
Y26040D01*
X28017D01*
X28007Y26086D01*
X27959Y26159D01*
X27886Y26207D01*
X27840Y26216D01*
D02*
G37*
G36*
X27455Y26277D02*
X27297D01*
Y26040D01*
X27455D01*
Y26277D01*
D02*
G37*
G36*
X28017Y25960D02*
X27840D01*
Y25784D01*
X27886Y25793D01*
X27959Y25842D01*
X28007Y25914D01*
X28017Y25960D01*
D02*
G37*
G36*
X27694Y26277D02*
X27535D01*
Y26000D01*
Y25723D01*
X27694D01*
Y25751D01*
X27744Y25787D01*
X27760Y25784D01*
Y26000D01*
Y26216D01*
X27744Y26213D01*
X27694Y26249D01*
Y26277D01*
D02*
G37*
G36*
X26621Y26508D02*
X25910D01*
Y25758D01*
X26621D01*
Y25837D01*
X26746D01*
Y25763D01*
X27063D01*
Y25976D01*
X27068Y26000D01*
X27063Y26024D01*
Y26237D01*
X26746D01*
Y26163D01*
X26621D01*
Y26508D01*
D02*
G37*
G36*
X39318Y27425D02*
X39140D01*
Y27084D01*
Y26744D01*
X39318D01*
X39359Y26723D01*
Y26505D01*
X39266D01*
Y25795D01*
X39779D01*
Y25987D01*
X40733D01*
Y25758D01*
X41444D01*
Y26508D01*
X40733D01*
Y26313D01*
X39779D01*
Y26505D01*
X39686D01*
Y27036D01*
X39673Y27098D01*
X39652Y27130D01*
Y27385D01*
X39318D01*
Y27425D01*
D02*
G37*
G36*
X38875Y26110D02*
X38618D01*
Y25755D01*
X38875D01*
Y26110D01*
D02*
G37*
G36*
X38538D02*
X38281D01*
Y25755D01*
X38538D01*
Y26110D01*
D02*
G37*
G36*
X27455Y25960D02*
X27297D01*
Y25723D01*
X27455D01*
Y25960D01*
D02*
G37*
G36*
X44043Y26146D02*
X43688D01*
Y25692D01*
X44043D01*
Y26146D01*
D02*
G37*
G36*
X43608D02*
X43253D01*
Y25692D01*
X43608D01*
Y26146D01*
D02*
G37*
G36*
X25598Y26146D02*
X25243D01*
Y25692D01*
X25598D01*
Y26146D01*
D02*
G37*
G36*
X25163D02*
X24807D01*
Y25692D01*
X25163D01*
Y26146D01*
D02*
G37*
G36*
X41315Y24377D02*
X41156D01*
Y24349D01*
X41106Y24313D01*
X41090Y24316D01*
Y24100D01*
Y23884D01*
X41106Y23887D01*
X41156Y23851D01*
Y23823D01*
X41315D01*
Y24100D01*
Y24377D01*
D02*
G37*
G36*
X38488Y24445D02*
X38231D01*
Y24298D01*
X38192Y24266D01*
X38190Y24267D01*
Y24050D01*
Y23834D01*
X38192Y23834D01*
X38231Y23802D01*
Y23655D01*
X38488D01*
Y24050D01*
Y24445D01*
D02*
G37*
G36*
X42940Y24342D02*
X42230D01*
Y24263D01*
X42104D01*
Y24337D01*
X41787D01*
Y24124D01*
X41782Y24100D01*
X41787Y24076D01*
Y23863D01*
X42104D01*
Y23937D01*
X42230D01*
Y23593D01*
X42940D01*
Y24342D01*
D02*
G37*
G36*
X41553Y24377D02*
X41395D01*
Y24140D01*
X41553D01*
Y24377D01*
D02*
G37*
G36*
X41010Y24316D02*
X40964Y24307D01*
X40892Y24259D01*
X40843Y24186D01*
X40834Y24140D01*
X41010D01*
Y24316D01*
D02*
G37*
G36*
X38825Y24445D02*
X38568D01*
Y24090D01*
X38825D01*
Y24445D01*
D02*
G37*
G36*
X30569Y24345D02*
X30313D01*
Y23990D01*
X30569D01*
Y24345D01*
D02*
G37*
G36*
X30233D02*
X29976D01*
Y23990D01*
X30233D01*
Y24345D01*
D02*
G37*
G36*
X25598Y24408D02*
X25243D01*
Y23954D01*
X25598D01*
Y24408D01*
D02*
G37*
G36*
X25163D02*
X24807D01*
Y23954D01*
X25163D01*
Y24408D01*
D02*
G37*
G36*
X44043D02*
X43688D01*
Y23954D01*
X44043D01*
Y24408D01*
D02*
G37*
G36*
X43608D02*
X43253D01*
Y23954D01*
X43608D01*
Y24408D01*
D02*
G37*
G36*
X41010Y24060D02*
X40834D01*
X40843Y24014D01*
X40892Y23942D01*
X40964Y23893D01*
X41010Y23884D01*
Y24060D01*
D02*
G37*
G36*
X41553D02*
X41395D01*
Y23823D01*
X41553D01*
Y24060D01*
D02*
G37*
G36*
X38825Y24010D02*
X38568D01*
Y23655D01*
X38825D01*
Y24010D01*
D02*
G37*
G36*
X30569Y23910D02*
X30313D01*
Y23555D01*
X30569D01*
Y23910D01*
D02*
G37*
G36*
X30233D02*
X29976D01*
Y23555D01*
X30233D01*
Y23910D01*
D02*
G37*
G36*
X44043Y23874D02*
X43688D01*
Y23421D01*
X44043D01*
Y23874D01*
D02*
G37*
G36*
X43608D02*
X43253D01*
Y23421D01*
X43608D01*
Y23874D01*
D02*
G37*
G36*
X25598Y23874D02*
X25243D01*
Y23421D01*
X25598D01*
Y23874D01*
D02*
G37*
G36*
X25163D02*
X24807D01*
Y23421D01*
X25163D01*
Y23874D01*
D02*
G37*
G36*
X38427Y23444D02*
X38190D01*
Y23285D01*
X38427D01*
Y23444D01*
D02*
G37*
G36*
Y23205D02*
X38190D01*
Y23047D01*
X38427D01*
Y23205D01*
D02*
G37*
G36*
X29968Y23356D02*
X29790D01*
Y23016D01*
Y22676D01*
X29968D01*
Y22716D01*
X30302D01*
Y22887D01*
X30496D01*
Y22813D01*
X30813D01*
Y23026D01*
X30818Y23050D01*
X30813Y23074D01*
Y23287D01*
X30496D01*
Y23213D01*
X30302D01*
Y23316D01*
X29968D01*
Y23356D01*
D02*
G37*
G36*
X28117Y24342D02*
X27406D01*
Y23593D01*
X28117D01*
Y23787D01*
X29071D01*
Y23595D01*
X29165D01*
Y23064D01*
X29177Y23002D01*
X29198Y22970D01*
Y22716D01*
X29532D01*
Y22676D01*
X29710D01*
Y23016D01*
Y23356D01*
X29532D01*
X29491Y23377D01*
Y23595D01*
X29585D01*
Y24305D01*
X29071D01*
Y24113D01*
X28117D01*
Y24342D01*
D02*
G37*
G36*
X40597Y22869D02*
X40514Y22858D01*
X40437Y22826D01*
X40371Y22775D01*
X40321Y22709D01*
X40289Y22633D01*
X40278Y22550D01*
X40289Y22468D01*
X40321Y22391D01*
X40371Y22325D01*
X40437Y22274D01*
X40514Y22242D01*
X40597Y22232D01*
X40679Y22242D01*
X40756Y22274D01*
X40822Y22325D01*
X40873Y22391D01*
X40904Y22468D01*
X40915Y22550D01*
X40904Y22633D01*
X40873Y22709D01*
X40822Y22775D01*
X40756Y22826D01*
X40679Y22858D01*
X40597Y22869D01*
D02*
G37*
G36*
X28254D02*
X28171Y22858D01*
X28094Y22826D01*
X28028Y22775D01*
X27978Y22709D01*
X27946Y22633D01*
X27935Y22550D01*
X27946Y22468D01*
X27978Y22391D01*
X28028Y22325D01*
X28094Y22274D01*
X28171Y22242D01*
X28254Y22232D01*
X28336Y22242D01*
X28413Y22274D01*
X28479Y22325D01*
X28530Y22391D01*
X28561Y22468D01*
X28572Y22550D01*
X28561Y22633D01*
X28530Y22709D01*
X28479Y22775D01*
X28413Y22826D01*
X28336Y22858D01*
X28254Y22869D01*
D02*
G37*
G36*
X39060Y22425D02*
X38882D01*
Y22385D01*
X38548D01*
Y22213D01*
X38354D01*
Y22287D01*
X38037D01*
Y22074D01*
X38032Y22050D01*
X38037Y22026D01*
Y21813D01*
X38354D01*
Y21887D01*
X38548D01*
Y21784D01*
X38882D01*
Y21744D01*
X39060D01*
Y22084D01*
Y22425D01*
D02*
G37*
G36*
X44043Y21680D02*
X43688D01*
Y21226D01*
X44043D01*
Y21680D01*
D02*
G37*
G36*
X43608D02*
X43253D01*
Y21226D01*
X43608D01*
Y21680D01*
D02*
G37*
G36*
X25598D02*
X25243D01*
Y21226D01*
X25598D01*
Y21680D01*
D02*
G37*
G36*
X25163D02*
X24807D01*
Y21226D01*
X25163D01*
Y21680D01*
D02*
G37*
G36*
X38875Y21545D02*
X38618D01*
Y21190D01*
X38875D01*
Y21545D01*
D02*
G37*
G36*
X38538D02*
X38281D01*
Y21190D01*
X38538D01*
Y21545D01*
D02*
G37*
G36*
X27840Y21216D02*
Y21040D01*
X28017D01*
X28007Y21086D01*
X27959Y21159D01*
X27886Y21207D01*
X27840Y21216D01*
D02*
G37*
G36*
X27455Y21277D02*
X27297D01*
Y21040D01*
X27455D01*
Y21277D01*
D02*
G37*
G36*
X28017Y20960D02*
X27840D01*
Y20784D01*
X27886Y20793D01*
X27959Y20842D01*
X28007Y20914D01*
X28017Y20960D01*
D02*
G37*
G36*
X27694Y21277D02*
X27535D01*
Y21000D01*
Y20723D01*
X27694D01*
Y20751D01*
X27744Y20787D01*
X27760Y20784D01*
Y21000D01*
Y21216D01*
X27744Y21213D01*
X27694Y21249D01*
Y21277D01*
D02*
G37*
G36*
X26621Y21508D02*
X25910D01*
Y20758D01*
X26621D01*
Y20837D01*
X26746D01*
Y20763D01*
X27063D01*
Y20976D01*
X27068Y21000D01*
X27063Y21024D01*
Y21237D01*
X26746D01*
Y21163D01*
X26621D01*
Y21508D01*
D02*
G37*
G36*
X39318Y22425D02*
X39140D01*
Y22084D01*
Y21744D01*
X39318D01*
X39359Y21723D01*
Y21505D01*
X39266D01*
Y20795D01*
X39779D01*
Y20987D01*
X40733D01*
Y20758D01*
X41444D01*
Y21508D01*
X40733D01*
Y21313D01*
X39779D01*
Y21505D01*
X39686D01*
Y22036D01*
X39673Y22098D01*
X39652Y22130D01*
Y22385D01*
X39318D01*
Y22425D01*
D02*
G37*
G36*
X38875Y21110D02*
X38618D01*
Y20755D01*
X38875D01*
Y21110D01*
D02*
G37*
G36*
X38538D02*
X38281D01*
Y20755D01*
X38538D01*
Y21110D01*
D02*
G37*
G36*
X27455Y20960D02*
X27297D01*
Y20723D01*
X27455D01*
Y20960D01*
D02*
G37*
G36*
X44043Y21146D02*
X43688D01*
Y20692D01*
X44043D01*
Y21146D01*
D02*
G37*
G36*
X43608D02*
X43253D01*
Y20692D01*
X43608D01*
Y21146D01*
D02*
G37*
G36*
X25598Y21146D02*
X25243D01*
Y20692D01*
X25598D01*
Y21146D01*
D02*
G37*
G36*
X25163D02*
X24807D01*
Y20692D01*
X25163D01*
Y21146D01*
D02*
G37*
G36*
X41315Y19377D02*
X41156D01*
Y19349D01*
X41106Y19313D01*
X41090Y19317D01*
Y19100D01*
Y18884D01*
X41106Y18887D01*
X41156Y18851D01*
Y18823D01*
X41315D01*
Y19100D01*
Y19377D01*
D02*
G37*
G36*
X38488Y19445D02*
X38231D01*
Y19298D01*
X38192Y19266D01*
X38190Y19267D01*
Y19050D01*
Y18834D01*
X38192Y18834D01*
X38231Y18802D01*
Y18655D01*
X38488D01*
Y19050D01*
Y19445D01*
D02*
G37*
G36*
X42940Y19342D02*
X42230D01*
Y19263D01*
X42104D01*
Y19337D01*
X41787D01*
Y19124D01*
X41782Y19100D01*
X41787Y19076D01*
Y18863D01*
X42104D01*
Y18937D01*
X42230D01*
Y18593D01*
X42940D01*
Y19342D01*
D02*
G37*
G36*
X41553Y19377D02*
X41395D01*
Y19140D01*
X41553D01*
Y19377D01*
D02*
G37*
G36*
X41010Y19317D02*
X40964Y19307D01*
X40892Y19259D01*
X40843Y19186D01*
X40834Y19140D01*
X41010D01*
Y19317D01*
D02*
G37*
G36*
X38825Y19445D02*
X38568D01*
Y19090D01*
X38825D01*
Y19445D01*
D02*
G37*
G36*
X30569Y19345D02*
X30313D01*
Y18990D01*
X30569D01*
Y19345D01*
D02*
G37*
G36*
X30233D02*
X29976D01*
Y18990D01*
X30233D01*
Y19345D01*
D02*
G37*
G36*
X25598Y19408D02*
X25243D01*
Y18954D01*
X25598D01*
Y19408D01*
D02*
G37*
G36*
X25163D02*
X24807D01*
Y18954D01*
X25163D01*
Y19408D01*
D02*
G37*
G36*
X44043D02*
X43688D01*
Y18954D01*
X44043D01*
Y19408D01*
D02*
G37*
G36*
X43608D02*
X43253D01*
Y18954D01*
X43608D01*
Y19408D01*
D02*
G37*
G36*
X41010Y19060D02*
X40834D01*
X40843Y19014D01*
X40892Y18942D01*
X40964Y18893D01*
X41010Y18884D01*
Y19060D01*
D02*
G37*
G36*
X41553D02*
X41395D01*
Y18823D01*
X41553D01*
Y19060D01*
D02*
G37*
G36*
X38825Y19010D02*
X38568D01*
Y18655D01*
X38825D01*
Y19010D01*
D02*
G37*
G36*
X30569Y18910D02*
X30313D01*
Y18555D01*
X30569D01*
Y18910D01*
D02*
G37*
G36*
X30233D02*
X29976D01*
Y18555D01*
X30233D01*
Y18910D01*
D02*
G37*
G36*
X44043Y18874D02*
X43688D01*
Y18421D01*
X44043D01*
Y18874D01*
D02*
G37*
G36*
X43608D02*
X43253D01*
Y18421D01*
X43608D01*
Y18874D01*
D02*
G37*
G36*
X25598Y18874D02*
X25243D01*
Y18421D01*
X25598D01*
Y18874D01*
D02*
G37*
G36*
X25163D02*
X24807D01*
Y18421D01*
X25163D01*
Y18874D01*
D02*
G37*
G36*
X38427Y18444D02*
X38190D01*
Y18285D01*
X38427D01*
Y18444D01*
D02*
G37*
G36*
Y18205D02*
X38190D01*
Y18047D01*
X38427D01*
Y18205D01*
D02*
G37*
G36*
X29968Y18356D02*
X29790D01*
Y18016D01*
Y17676D01*
X29968D01*
Y17716D01*
X30302D01*
Y17887D01*
X30496D01*
Y17813D01*
X30813D01*
Y18026D01*
X30818Y18050D01*
X30813Y18074D01*
Y18287D01*
X30496D01*
Y18213D01*
X30302D01*
Y18316D01*
X29968D01*
Y18356D01*
D02*
G37*
G36*
X28117Y19342D02*
X27406D01*
Y18593D01*
X28117D01*
Y18787D01*
X29071D01*
Y18595D01*
X29165D01*
Y18064D01*
X29177Y18002D01*
X29198Y17970D01*
Y17716D01*
X29532D01*
Y17676D01*
X29710D01*
Y18016D01*
Y18356D01*
X29532D01*
X29491Y18377D01*
Y18595D01*
X29585D01*
Y19305D01*
X29071D01*
Y19113D01*
X28117D01*
Y19342D01*
D02*
G37*
G36*
X40597Y17869D02*
X40514Y17858D01*
X40437Y17826D01*
X40371Y17775D01*
X40321Y17709D01*
X40289Y17633D01*
X40278Y17550D01*
X40289Y17468D01*
X40321Y17391D01*
X40371Y17325D01*
X40437Y17274D01*
X40514Y17242D01*
X40597Y17232D01*
X40679Y17242D01*
X40756Y17274D01*
X40822Y17325D01*
X40873Y17391D01*
X40904Y17468D01*
X40915Y17550D01*
X40904Y17633D01*
X40873Y17709D01*
X40822Y17775D01*
X40756Y17826D01*
X40679Y17858D01*
X40597Y17869D01*
D02*
G37*
G36*
X28254D02*
X28171Y17858D01*
X28094Y17826D01*
X28028Y17775D01*
X27978Y17709D01*
X27946Y17633D01*
X27935Y17550D01*
X27946Y17468D01*
X27978Y17391D01*
X28028Y17325D01*
X28094Y17274D01*
X28171Y17242D01*
X28254Y17232D01*
X28336Y17242D01*
X28413Y17274D01*
X28479Y17325D01*
X28530Y17391D01*
X28561Y17468D01*
X28572Y17550D01*
X28561Y17633D01*
X28530Y17709D01*
X28479Y17775D01*
X28413Y17826D01*
X28336Y17858D01*
X28254Y17869D01*
D02*
G37*
G36*
X39060Y17425D02*
X38882D01*
Y17385D01*
X38548D01*
Y17213D01*
X38354D01*
Y17287D01*
X38037D01*
Y17074D01*
X38032Y17050D01*
X38037Y17026D01*
Y16813D01*
X38354D01*
Y16887D01*
X38548D01*
Y16784D01*
X38882D01*
Y16744D01*
X39060D01*
Y17084D01*
Y17425D01*
D02*
G37*
G36*
X44043Y16680D02*
X43688D01*
Y16226D01*
X44043D01*
Y16680D01*
D02*
G37*
G36*
X43608D02*
X43253D01*
Y16226D01*
X43608D01*
Y16680D01*
D02*
G37*
G36*
X25598D02*
X25243D01*
Y16226D01*
X25598D01*
Y16680D01*
D02*
G37*
G36*
X25163D02*
X24807D01*
Y16226D01*
X25163D01*
Y16680D01*
D02*
G37*
G36*
X38875Y16545D02*
X38618D01*
Y16190D01*
X38875D01*
Y16545D01*
D02*
G37*
G36*
X38538D02*
X38281D01*
Y16190D01*
X38538D01*
Y16545D01*
D02*
G37*
G36*
X27840Y16216D02*
Y16040D01*
X28017D01*
X28007Y16086D01*
X27959Y16159D01*
X27886Y16207D01*
X27840Y16216D01*
D02*
G37*
G36*
X27455Y16277D02*
X27297D01*
Y16040D01*
X27455D01*
Y16277D01*
D02*
G37*
G36*
X28017Y15960D02*
X27840D01*
Y15784D01*
X27886Y15793D01*
X27959Y15842D01*
X28007Y15914D01*
X28017Y15960D01*
D02*
G37*
G36*
X27694Y16277D02*
X27535D01*
Y16000D01*
Y15723D01*
X27694D01*
Y15751D01*
X27744Y15787D01*
X27760Y15784D01*
Y16000D01*
Y16216D01*
X27744Y16213D01*
X27694Y16249D01*
Y16277D01*
D02*
G37*
G36*
X26621Y16508D02*
X25910D01*
Y15758D01*
X26621D01*
Y15837D01*
X26746D01*
Y15763D01*
X27063D01*
Y15976D01*
X27068Y16000D01*
X27063Y16024D01*
Y16237D01*
X26746D01*
Y16163D01*
X26621D01*
Y16508D01*
D02*
G37*
G36*
X39318Y17425D02*
X39140D01*
Y17084D01*
Y16744D01*
X39318D01*
X39359Y16723D01*
Y16505D01*
X39266D01*
Y15795D01*
X39779D01*
Y15987D01*
X40733D01*
Y15758D01*
X41444D01*
Y16508D01*
X40733D01*
Y16313D01*
X39779D01*
Y16505D01*
X39686D01*
Y17036D01*
X39673Y17098D01*
X39652Y17130D01*
Y17385D01*
X39318D01*
Y17425D01*
D02*
G37*
G36*
X38875Y16110D02*
X38618D01*
Y15755D01*
X38875D01*
Y16110D01*
D02*
G37*
G36*
X38538D02*
X38281D01*
Y15755D01*
X38538D01*
Y16110D01*
D02*
G37*
G36*
X27455Y15960D02*
X27297D01*
Y15723D01*
X27455D01*
Y15960D01*
D02*
G37*
G36*
X44043Y16146D02*
X43688D01*
Y15692D01*
X44043D01*
Y16146D01*
D02*
G37*
G36*
X43608D02*
X43253D01*
Y15692D01*
X43608D01*
Y16146D01*
D02*
G37*
G36*
X25598Y16146D02*
X25243D01*
Y15692D01*
X25598D01*
Y16146D01*
D02*
G37*
G36*
X25163D02*
X24807D01*
Y15692D01*
X25163D01*
Y16146D01*
D02*
G37*
G36*
X41315Y14377D02*
X41156D01*
Y14349D01*
X41106Y14313D01*
X41090Y14317D01*
Y14100D01*
Y13884D01*
X41106Y13887D01*
X41156Y13851D01*
Y13823D01*
X41315D01*
Y14100D01*
Y14377D01*
D02*
G37*
G36*
X38488Y14445D02*
X38231D01*
Y14298D01*
X38192Y14266D01*
X38190Y14267D01*
Y14050D01*
Y13834D01*
X38192Y13834D01*
X38231Y13802D01*
Y13655D01*
X38488D01*
Y14050D01*
Y14445D01*
D02*
G37*
G36*
X42940Y14342D02*
X42230D01*
Y14263D01*
X42104D01*
Y14337D01*
X41787D01*
Y14124D01*
X41782Y14100D01*
X41787Y14076D01*
Y13863D01*
X42104D01*
Y13937D01*
X42230D01*
Y13593D01*
X42940D01*
Y14342D01*
D02*
G37*
G36*
X41553Y14377D02*
X41395D01*
Y14140D01*
X41553D01*
Y14377D01*
D02*
G37*
G36*
X41010Y14317D02*
X40964Y14307D01*
X40892Y14259D01*
X40843Y14186D01*
X40834Y14140D01*
X41010D01*
Y14317D01*
D02*
G37*
G36*
X38825Y14445D02*
X38568D01*
Y14090D01*
X38825D01*
Y14445D01*
D02*
G37*
G36*
X30569Y14345D02*
X30313D01*
Y13990D01*
X30569D01*
Y14345D01*
D02*
G37*
G36*
X30233D02*
X29976D01*
Y13990D01*
X30233D01*
Y14345D01*
D02*
G37*
G36*
X25598Y14408D02*
X25243D01*
Y13954D01*
X25598D01*
Y14408D01*
D02*
G37*
G36*
X25163D02*
X24807D01*
Y13954D01*
X25163D01*
Y14408D01*
D02*
G37*
G36*
X44043D02*
X43688D01*
Y13954D01*
X44043D01*
Y14408D01*
D02*
G37*
G36*
X43608D02*
X43253D01*
Y13954D01*
X43608D01*
Y14408D01*
D02*
G37*
G36*
X41010Y14060D02*
X40834D01*
X40843Y14014D01*
X40892Y13942D01*
X40964Y13893D01*
X41010Y13884D01*
Y14060D01*
D02*
G37*
G36*
X41553D02*
X41395D01*
Y13823D01*
X41553D01*
Y14060D01*
D02*
G37*
G36*
X38825Y14010D02*
X38568D01*
Y13655D01*
X38825D01*
Y14010D01*
D02*
G37*
G36*
X30569Y13910D02*
X30313D01*
Y13555D01*
X30569D01*
Y13910D01*
D02*
G37*
G36*
X30233D02*
X29976D01*
Y13555D01*
X30233D01*
Y13910D01*
D02*
G37*
G36*
X44043Y13874D02*
X43688D01*
Y13421D01*
X44043D01*
Y13874D01*
D02*
G37*
G36*
X43608D02*
X43253D01*
Y13421D01*
X43608D01*
Y13874D01*
D02*
G37*
G36*
X25598Y13874D02*
X25243D01*
Y13421D01*
X25598D01*
Y13874D01*
D02*
G37*
G36*
X25163D02*
X24807D01*
Y13421D01*
X25163D01*
Y13874D01*
D02*
G37*
G36*
X38427Y13444D02*
X38190D01*
Y13285D01*
X38427D01*
Y13444D01*
D02*
G37*
G36*
Y13205D02*
X38190D01*
Y13047D01*
X38427D01*
Y13205D01*
D02*
G37*
G36*
X29968Y13356D02*
X29790D01*
Y13016D01*
Y12676D01*
X29968D01*
Y12716D01*
X30302D01*
Y12887D01*
X30496D01*
Y12813D01*
X30813D01*
Y13026D01*
X30818Y13050D01*
X30813Y13074D01*
Y13287D01*
X30496D01*
Y13213D01*
X30302D01*
Y13316D01*
X29968D01*
Y13356D01*
D02*
G37*
G36*
X28117Y14342D02*
X27406D01*
Y13593D01*
X28117D01*
Y13787D01*
X29071D01*
Y13595D01*
X29165D01*
Y13064D01*
X29177Y13002D01*
X29198Y12970D01*
Y12716D01*
X29532D01*
Y12676D01*
X29710D01*
Y13016D01*
Y13356D01*
X29532D01*
X29491Y13377D01*
Y13595D01*
X29585D01*
Y14305D01*
X29071D01*
Y14113D01*
X28117D01*
Y14342D01*
D02*
G37*
G36*
X36084Y13220D02*
X35640D01*
Y12471D01*
X36084D01*
Y13220D01*
D02*
G37*
G36*
X35560D02*
X35116D01*
Y12471D01*
X35560D01*
Y13220D01*
D02*
G37*
G36*
X40597Y12869D02*
X40514Y12858D01*
X40437Y12826D01*
X40371Y12775D01*
X40321Y12709D01*
X40289Y12633D01*
X40278Y12550D01*
X40289Y12468D01*
X40321Y12391D01*
X40371Y12325D01*
X40437Y12274D01*
X40514Y12242D01*
X40597Y12232D01*
X40679Y12242D01*
X40756Y12274D01*
X40822Y12325D01*
X40873Y12391D01*
X40904Y12468D01*
X40915Y12550D01*
X40904Y12633D01*
X40873Y12709D01*
X40822Y12775D01*
X40756Y12826D01*
X40679Y12858D01*
X40597Y12869D01*
D02*
G37*
G36*
X28254D02*
X28171Y12858D01*
X28094Y12826D01*
X28028Y12775D01*
X27978Y12709D01*
X27946Y12633D01*
X27935Y12550D01*
X27946Y12468D01*
X27978Y12391D01*
X28028Y12325D01*
X28094Y12274D01*
X28171Y12242D01*
X28254Y12232D01*
X28336Y12242D01*
X28413Y12274D01*
X28479Y12325D01*
X28530Y12391D01*
X28561Y12468D01*
X28572Y12550D01*
X28561Y12633D01*
X28530Y12709D01*
X28479Y12775D01*
X28413Y12826D01*
X28336Y12858D01*
X28254Y12869D01*
D02*
G37*
G36*
X39060Y12425D02*
X38882D01*
Y12385D01*
X38548D01*
Y12213D01*
X38354D01*
Y12287D01*
X38037D01*
Y12074D01*
X38032Y12050D01*
X38037Y12026D01*
Y11813D01*
X38354D01*
Y11887D01*
X38548D01*
Y11784D01*
X38882D01*
Y11744D01*
X39060D01*
Y12084D01*
Y12425D01*
D02*
G37*
G36*
X36084Y12391D02*
X35640D01*
Y11642D01*
X36084D01*
Y12391D01*
D02*
G37*
G36*
X35560D02*
X35116D01*
Y11642D01*
X35560D01*
Y12391D01*
D02*
G37*
G36*
X34563Y11468D02*
X34246D01*
Y11394D01*
X34154D01*
Y11468D01*
X33837D01*
Y11255D01*
X33832Y11231D01*
X33837Y11208D01*
Y11008D01*
X33837Y10994D01*
X33802Y10958D01*
X33797D01*
Y10721D01*
X33995D01*
X34194D01*
Y10958D01*
X34188D01*
X34154Y10994D01*
X34154Y11008D01*
Y11068D01*
X34246D01*
Y10994D01*
X34563D01*
Y11208D01*
X34568Y11231D01*
X34563Y11255D01*
Y11468D01*
D02*
G37*
G36*
X35194Y11508D02*
X35035D01*
Y11271D01*
X35194D01*
Y11508D01*
D02*
G37*
G36*
X34955D02*
X34797D01*
Y11271D01*
X34955D01*
Y11508D01*
D02*
G37*
G36*
X44043Y11680D02*
X43688D01*
Y11226D01*
X44043D01*
Y11680D01*
D02*
G37*
G36*
X43608D02*
X43253D01*
Y11226D01*
X43608D01*
Y11680D01*
D02*
G37*
G36*
X25598D02*
X25243D01*
Y11226D01*
X25598D01*
Y11680D01*
D02*
G37*
G36*
X25163D02*
X24807D01*
Y11226D01*
X25163D01*
Y11680D01*
D02*
G37*
G36*
X38875Y11545D02*
X38618D01*
Y11190D01*
X38875D01*
Y11545D01*
D02*
G37*
G36*
X38538D02*
X38281D01*
Y11190D01*
X38538D01*
Y11545D01*
D02*
G37*
G36*
X27840Y11216D02*
Y11040D01*
X28017D01*
X28007Y11086D01*
X27959Y11159D01*
X27886Y11207D01*
X27840Y11216D01*
D02*
G37*
G36*
X27455Y11277D02*
X27297D01*
Y11040D01*
X27455D01*
Y11277D01*
D02*
G37*
G36*
X35194Y11191D02*
X35035D01*
Y10954D01*
X35194D01*
Y11191D01*
D02*
G37*
G36*
X34955D02*
X34797D01*
Y10954D01*
X34955D01*
Y11191D01*
D02*
G37*
G36*
X28017Y10960D02*
X27840D01*
Y10784D01*
X27886Y10793D01*
X27959Y10842D01*
X28007Y10914D01*
X28017Y10960D01*
D02*
G37*
G36*
X27694Y11277D02*
X27535D01*
Y11000D01*
Y10723D01*
X27694D01*
Y10751D01*
X27744Y10787D01*
X27760Y10784D01*
Y11000D01*
Y11216D01*
X27744Y11213D01*
X27694Y11249D01*
Y11277D01*
D02*
G37*
G36*
X26621Y11508D02*
X25910D01*
Y10758D01*
X26621D01*
Y10837D01*
X26746D01*
Y10763D01*
X27063D01*
Y10976D01*
X27068Y11000D01*
X27063Y11024D01*
Y11237D01*
X26746D01*
Y11163D01*
X26621D01*
Y11508D01*
D02*
G37*
G36*
X39318Y12425D02*
X39140D01*
Y12084D01*
Y11744D01*
X39318D01*
X39359Y11723D01*
Y11505D01*
X39266D01*
Y10795D01*
X39779D01*
Y10987D01*
X40733D01*
Y10758D01*
X41444D01*
Y11508D01*
X40733D01*
Y11313D01*
X39779D01*
Y11505D01*
X39686D01*
Y12036D01*
X39673Y12098D01*
X39652Y12130D01*
Y12385D01*
X39318D01*
Y12425D01*
D02*
G37*
G36*
X38875Y11110D02*
X38618D01*
Y10755D01*
X38875D01*
Y11110D01*
D02*
G37*
G36*
X38538D02*
X38281D01*
Y10755D01*
X38538D01*
Y11110D01*
D02*
G37*
G36*
X27455Y10960D02*
X27297D01*
Y10723D01*
X27455D01*
Y10960D01*
D02*
G37*
G36*
X44043Y11146D02*
X43688D01*
Y10692D01*
X44043D01*
Y11146D01*
D02*
G37*
G36*
X43608D02*
X43253D01*
Y10692D01*
X43608D01*
Y11146D01*
D02*
G37*
G36*
X25598Y11146D02*
X25243D01*
Y10692D01*
X25598D01*
Y11146D01*
D02*
G37*
G36*
X25163D02*
X24807D01*
Y10692D01*
X25163D01*
Y11146D01*
D02*
G37*
G36*
X34194Y10641D02*
X33995D01*
X33797D01*
Y10404D01*
Y10171D01*
X33995D01*
X34194D01*
Y10404D01*
Y10641D01*
D02*
G37*
G36*
Y10091D02*
X34035D01*
Y9854D01*
X34194D01*
Y10091D01*
D02*
G37*
G36*
X35194Y9808D02*
X35035D01*
Y9571D01*
X35194D01*
Y9808D01*
D02*
G37*
G36*
X41315Y9377D02*
X41156D01*
Y9349D01*
X41106Y9313D01*
X41090Y9316D01*
Y9100D01*
Y8884D01*
X41106Y8887D01*
X41156Y8851D01*
Y8823D01*
X41315D01*
Y9100D01*
Y9377D01*
D02*
G37*
G36*
X38488Y9445D02*
X38231D01*
Y9298D01*
X38192Y9266D01*
X38190Y9266D01*
Y9050D01*
Y8834D01*
X38192Y8834D01*
X38231Y8802D01*
Y8655D01*
X38488D01*
Y9050D01*
Y9445D01*
D02*
G37*
G36*
X42940Y9342D02*
X42230D01*
Y9263D01*
X42104D01*
Y9337D01*
X41787D01*
Y9124D01*
X41782Y9100D01*
X41787Y9076D01*
Y8863D01*
X42104D01*
Y8937D01*
X42230D01*
Y8593D01*
X42940D01*
Y9342D01*
D02*
G37*
G36*
X35194Y9491D02*
X35035D01*
Y9254D01*
X35194D01*
Y9491D01*
D02*
G37*
G36*
X41553Y9377D02*
X41395D01*
Y9140D01*
X41553D01*
Y9377D01*
D02*
G37*
G36*
X41010Y9316D02*
X40964Y9307D01*
X40892Y9259D01*
X40843Y9186D01*
X40834Y9140D01*
X41010D01*
Y9316D01*
D02*
G37*
G36*
X38825Y9445D02*
X38568D01*
Y9090D01*
X38825D01*
Y9445D01*
D02*
G37*
G36*
X30569Y9345D02*
X30313D01*
Y8990D01*
X30569D01*
Y9345D01*
D02*
G37*
G36*
X30233D02*
X29976D01*
Y8990D01*
X30233D01*
Y9345D01*
D02*
G37*
G36*
X44043Y9408D02*
X43688D01*
Y8954D01*
X44043D01*
Y9408D01*
D02*
G37*
G36*
X25598D02*
X25243D01*
Y8954D01*
X25598D01*
Y9408D01*
D02*
G37*
G36*
X25163D02*
X24807D01*
Y8954D01*
X25163D01*
Y9408D01*
D02*
G37*
G36*
X43608D02*
X43253D01*
Y8954D01*
X43608D01*
Y9408D01*
D02*
G37*
G36*
X41010Y9060D02*
X40834D01*
X40843Y9014D01*
X40892Y8942D01*
X40964Y8893D01*
X41010Y8884D01*
Y9060D01*
D02*
G37*
G36*
X41553D02*
X41395D01*
Y8823D01*
X41553D01*
Y9060D01*
D02*
G37*
G36*
X38825Y9010D02*
X38568D01*
Y8655D01*
X38825D01*
Y9010D01*
D02*
G37*
G36*
X30569Y8910D02*
X30313D01*
Y8555D01*
X30569D01*
Y8910D01*
D02*
G37*
G36*
X30233D02*
X29976D01*
Y8555D01*
X30233D01*
Y8910D01*
D02*
G37*
G36*
X44043Y8874D02*
X43688D01*
Y8421D01*
X44043D01*
Y8874D01*
D02*
G37*
G36*
X43608D02*
X43253D01*
Y8421D01*
X43608D01*
Y8874D01*
D02*
G37*
G36*
X25598D02*
X25243D01*
Y8421D01*
X25598D01*
Y8874D01*
D02*
G37*
G36*
X25163D02*
X24807D01*
Y8421D01*
X25163D01*
Y8874D01*
D02*
G37*
G36*
X38427Y8444D02*
X38190D01*
Y8285D01*
X38427D01*
Y8444D01*
D02*
G37*
G36*
Y8205D02*
X38190D01*
Y8047D01*
X38427D01*
Y8205D01*
D02*
G37*
G36*
X29968Y8356D02*
X29790D01*
Y8016D01*
Y7676D01*
X29968D01*
Y7716D01*
X30302D01*
Y7887D01*
X30496D01*
Y7813D01*
X30813D01*
Y8026D01*
X30818Y8050D01*
X30813Y8074D01*
Y8287D01*
X30496D01*
Y8213D01*
X30302D01*
Y8316D01*
X29968D01*
Y8356D01*
D02*
G37*
G36*
X28117Y9342D02*
X27406D01*
Y8593D01*
X28117D01*
Y8787D01*
X29071D01*
Y8595D01*
X29165D01*
Y8064D01*
X29177Y8002D01*
X29198Y7970D01*
Y7716D01*
X29532D01*
Y7676D01*
X29710D01*
Y8016D01*
Y8356D01*
X29532D01*
X29491Y8377D01*
Y8595D01*
X29585D01*
Y9305D01*
X29071D01*
Y9113D01*
X28117D01*
Y9342D01*
D02*
G37*
G36*
X36061Y7964D02*
X35567D01*
Y7471D01*
X36061D01*
Y7964D01*
D02*
G37*
G36*
X40597Y7869D02*
X40514Y7858D01*
X40437Y7826D01*
X40371Y7775D01*
X40321Y7709D01*
X40289Y7633D01*
X40278Y7550D01*
X40289Y7468D01*
X40321Y7391D01*
X40371Y7325D01*
X40437Y7274D01*
X40514Y7242D01*
X40597Y7232D01*
X40679Y7242D01*
X40756Y7274D01*
X40822Y7325D01*
X40873Y7391D01*
X40904Y7468D01*
X40915Y7550D01*
X40904Y7633D01*
X40873Y7709D01*
X40822Y7775D01*
X40756Y7826D01*
X40679Y7858D01*
X40597Y7869D01*
D02*
G37*
G36*
X28254D02*
X28171Y7858D01*
X28094Y7826D01*
X28028Y7775D01*
X27978Y7709D01*
X27946Y7633D01*
X27935Y7550D01*
X27946Y7468D01*
X27978Y7391D01*
X28028Y7325D01*
X28094Y7274D01*
X28171Y7242D01*
X28254Y7232D01*
X28336Y7242D01*
X28413Y7274D01*
X28479Y7325D01*
X28530Y7391D01*
X28561Y7468D01*
X28572Y7550D01*
X28561Y7633D01*
X28530Y7709D01*
X28479Y7775D01*
X28413Y7826D01*
X28336Y7858D01*
X28254Y7869D01*
D02*
G37*
G36*
X39060Y7425D02*
X38882D01*
Y7385D01*
X38548D01*
Y7213D01*
X38354D01*
Y7287D01*
X38037D01*
Y7074D01*
X38032Y7050D01*
X38037Y7026D01*
Y6813D01*
X38354D01*
Y6887D01*
X38548D01*
Y6784D01*
X38882D01*
Y6744D01*
X39060D01*
Y7084D01*
Y7425D01*
D02*
G37*
G36*
X36634Y7391D02*
X36141D01*
Y6898D01*
X36634D01*
Y7391D01*
D02*
G37*
G36*
X36061D02*
X35567D01*
Y6898D01*
X36061D01*
Y7391D01*
D02*
G37*
G36*
X37837Y7813D02*
X37363D01*
Y7496D01*
X37442D01*
Y7050D01*
X37446Y7026D01*
Y6813D01*
X37763D01*
Y7026D01*
X37768Y7050D01*
Y7496D01*
X37837D01*
Y7813D01*
D02*
G37*
G36*
X34783Y6783D02*
X34290D01*
Y6290D01*
X34783D01*
Y6783D01*
D02*
G37*
G36*
X34210D02*
X33717D01*
Y6290D01*
X34210D01*
Y6783D01*
D02*
G37*
G36*
X44043Y6680D02*
X43688D01*
Y6226D01*
X44043D01*
Y6680D01*
D02*
G37*
G36*
X25598D02*
X25243D01*
Y6226D01*
X25598D01*
Y6680D01*
D02*
G37*
G36*
X25163D02*
X24807D01*
Y6226D01*
X25163D01*
Y6680D01*
D02*
G37*
G36*
X43608D02*
X43253D01*
Y6226D01*
X43608D01*
Y6680D01*
D02*
G37*
G36*
X38875Y6545D02*
X38618D01*
Y6190D01*
X38875D01*
Y6545D01*
D02*
G37*
G36*
X38538D02*
X38281D01*
Y6190D01*
X38538D01*
Y6545D01*
D02*
G37*
G36*
X27840Y6216D02*
Y6040D01*
X28017D01*
X28007Y6086D01*
X27959Y6159D01*
X27886Y6207D01*
X27840Y6216D01*
D02*
G37*
G36*
X27455Y6277D02*
X27297D01*
Y6040D01*
X27455D01*
Y6277D01*
D02*
G37*
G36*
X28017Y5960D02*
X27840D01*
Y5784D01*
X27886Y5793D01*
X27959Y5842D01*
X28007Y5914D01*
X28017Y5960D01*
D02*
G37*
G36*
X27694Y6277D02*
X27535D01*
Y6000D01*
Y5723D01*
X27694D01*
Y5751D01*
X27744Y5787D01*
X27760Y5784D01*
Y6000D01*
Y6216D01*
X27744Y6213D01*
X27694Y6249D01*
Y6277D01*
D02*
G37*
G36*
X26621Y6508D02*
X25910D01*
Y5758D01*
X26621D01*
Y5837D01*
X26746D01*
Y5763D01*
X27063D01*
Y5976D01*
X27068Y6000D01*
X27063Y6024D01*
Y6237D01*
X26746D01*
Y6163D01*
X26621D01*
Y6508D01*
D02*
G37*
G36*
X39318Y7425D02*
X39140D01*
Y7084D01*
Y6744D01*
X39318D01*
X39359Y6723D01*
Y6505D01*
X39266D01*
Y5795D01*
X39779D01*
Y5987D01*
X40733D01*
Y5758D01*
X41444D01*
Y6508D01*
X40733D01*
Y6313D01*
X39779D01*
Y6505D01*
X39686D01*
Y7036D01*
X39673Y7098D01*
X39652Y7130D01*
Y7385D01*
X39318D01*
Y7425D01*
D02*
G37*
G36*
X38875Y6110D02*
X38618D01*
Y5755D01*
X38875D01*
Y6110D01*
D02*
G37*
G36*
X38538D02*
X38281D01*
Y5755D01*
X38538D01*
Y6110D01*
D02*
G37*
G36*
X27455Y5960D02*
X27297D01*
Y5723D01*
X27455D01*
Y5960D01*
D02*
G37*
G36*
X34783Y6210D02*
X34290D01*
Y5717D01*
X34783D01*
Y6210D01*
D02*
G37*
G36*
X34210D02*
X33717D01*
Y5717D01*
X34210D01*
Y6210D01*
D02*
G37*
G36*
X44043Y6146D02*
X43688D01*
Y5692D01*
X44043D01*
Y6146D01*
D02*
G37*
G36*
X43608D02*
X43253D01*
Y5692D01*
X43608D01*
Y6146D01*
D02*
G37*
G36*
X25598D02*
X25243D01*
Y5692D01*
X25598D01*
Y6146D01*
D02*
G37*
G36*
X25163D02*
X24807D01*
Y5692D01*
X25163D01*
Y6146D01*
D02*
G37*
G36*
X44500Y4999D02*
X44354Y4984D01*
X44214Y4942D01*
X44084Y4873D01*
X43971Y4779D01*
X43878Y4666D01*
X43809Y4537D01*
X43766Y4396D01*
X43752Y4250D01*
X43766Y4104D01*
X43809Y3964D01*
X43878Y3834D01*
X43971Y3721D01*
X44084Y3628D01*
X44214Y3559D01*
X44354Y3516D01*
X44500Y3502D01*
X44646Y3516D01*
X44787Y3559D01*
X44916Y3628D01*
X45029Y3721D01*
X45123Y3834D01*
X45192Y3964D01*
X45234Y4104D01*
X45249Y4250D01*
X45234Y4396D01*
X45192Y4537D01*
X45123Y4666D01*
X45029Y4779D01*
X44916Y4873D01*
X44787Y4942D01*
X44646Y4984D01*
X44500Y4999D01*
D02*
G37*
G36*
X24500D02*
X24354Y4984D01*
X24214Y4942D01*
X24084Y4873D01*
X23971Y4779D01*
X23878Y4666D01*
X23809Y4537D01*
X23766Y4396D01*
X23752Y4250D01*
X23766Y4104D01*
X23809Y3964D01*
X23878Y3834D01*
X23971Y3721D01*
X24084Y3628D01*
X24214Y3559D01*
X24354Y3516D01*
X24500Y3502D01*
X24646Y3516D01*
X24787Y3559D01*
X24916Y3628D01*
X25029Y3721D01*
X25123Y3834D01*
X25192Y3964D01*
X25234Y4104D01*
X25249Y4250D01*
X25234Y4396D01*
X25192Y4537D01*
X25123Y4666D01*
X25029Y4779D01*
X24916Y4873D01*
X24787Y4942D01*
X24646Y4984D01*
X24500Y4999D01*
D02*
G37*
%LPD*%
G36*
X40000Y27600D02*
X39000D01*
Y29900D01*
X40000D01*
Y27600D01*
D02*
G37*
G36*
X30890Y27287D02*
X30892Y27287D01*
X30892Y27287D01*
X30895Y27287D01*
X30925Y27285D01*
X30934Y27243D01*
X30933Y27235D01*
X30913Y27222D01*
X30878Y27187D01*
X30856Y27154D01*
X30848Y27115D01*
Y27094D01*
X30828Y27068D01*
X30806Y27053D01*
X30805Y27053D01*
X30740D01*
Y26855D01*
Y26656D01*
X30805D01*
X30806Y26656D01*
X30828Y26642D01*
X30848Y26616D01*
Y26269D01*
X30804Y26245D01*
X30786Y26257D01*
X30740Y26267D01*
Y26050D01*
Y25834D01*
X30786Y25843D01*
X30804Y25855D01*
X30848Y25831D01*
Y25563D01*
X29952D01*
Y26684D01*
X30302D01*
Y27122D01*
X30463Y27282D01*
X30700D01*
X30724Y27287D01*
X30890D01*
D02*
G37*
G36*
X29850Y25200D02*
X28850D01*
Y27500D01*
X29850D01*
Y25200D01*
D02*
G37*
G36*
X40000Y22600D02*
X39000D01*
Y24900D01*
X40000D01*
Y22600D01*
D02*
G37*
G36*
X30890Y22287D02*
X30892Y22287D01*
X30892Y22287D01*
X30895Y22287D01*
X30925Y22285D01*
X30934Y22243D01*
X30933Y22235D01*
X30913Y22222D01*
X30878Y22187D01*
X30856Y22154D01*
X30848Y22115D01*
Y22094D01*
X30828Y22068D01*
X30806Y22053D01*
X30805Y22053D01*
X30740D01*
Y21855D01*
Y21656D01*
X30805D01*
X30806Y21656D01*
X30828Y21642D01*
X30848Y21616D01*
Y21269D01*
X30804Y21245D01*
X30786Y21257D01*
X30740Y21267D01*
Y21050D01*
Y20834D01*
X30786Y20843D01*
X30804Y20855D01*
X30848Y20831D01*
Y20563D01*
X29952D01*
Y21684D01*
X30302D01*
Y22122D01*
X30463Y22282D01*
X30700D01*
X30724Y22287D01*
X30890D01*
D02*
G37*
G36*
X29850Y20200D02*
X28850D01*
Y22500D01*
X29850D01*
Y20200D01*
D02*
G37*
G36*
X40000Y17600D02*
X39000D01*
Y19900D01*
X40000D01*
Y17600D01*
D02*
G37*
G36*
X30890Y17287D02*
X30892Y17287D01*
X30892Y17287D01*
X30895Y17287D01*
X30925Y17285D01*
X30934Y17243D01*
X30933Y17235D01*
X30913Y17222D01*
X30878Y17187D01*
X30856Y17154D01*
X30848Y17115D01*
Y17094D01*
X30828Y17068D01*
X30806Y17053D01*
X30805Y17053D01*
X30740D01*
Y16855D01*
Y16656D01*
X30805D01*
X30806Y16656D01*
X30828Y16642D01*
X30848Y16616D01*
Y16269D01*
X30804Y16245D01*
X30786Y16257D01*
X30740Y16266D01*
Y16050D01*
Y15834D01*
X30786Y15843D01*
X30804Y15855D01*
X30848Y15831D01*
Y15563D01*
X29952D01*
Y16684D01*
X30302D01*
Y17122D01*
X30463Y17282D01*
X30700D01*
X30724Y17287D01*
X30890D01*
D02*
G37*
G36*
X29850Y15200D02*
X28850D01*
Y17500D01*
X29850D01*
Y15200D01*
D02*
G37*
G36*
X37850Y28444D02*
X37640D01*
Y28245D01*
Y28047D01*
X37850D01*
Y27950D01*
X37050D01*
Y24900D01*
X37850D01*
Y23444D01*
X37640D01*
Y23245D01*
Y23047D01*
X37850D01*
Y22950D01*
X37050D01*
Y19900D01*
X37850D01*
Y18444D01*
X37640D01*
Y18245D01*
Y18047D01*
X37850D01*
Y17950D01*
X37050D01*
Y14900D01*
X37850D01*
Y13550D01*
Y13444D01*
X37640D01*
Y13245D01*
Y13047D01*
X37850D01*
Y12950D01*
X37050D01*
Y10050D01*
X37850D01*
Y8444D01*
X37640D01*
Y8245D01*
X37600D01*
Y8205D01*
X37323D01*
Y8050D01*
X36550D01*
Y13800D01*
X33650D01*
Y11516D01*
X33603Y11508D01*
Y11508D01*
X33445D01*
Y11231D01*
X33405D01*
Y11191D01*
X33206D01*
Y10954D01*
Y10721D01*
X33405D01*
Y10641D01*
X33206D01*
Y10404D01*
Y10171D01*
X33405D01*
Y10091D01*
X33206D01*
Y9854D01*
X33206Y9854D01*
Y9827D01*
X33206D01*
X33206Y9804D01*
Y9590D01*
X33405D01*
Y9550D01*
X33445D01*
Y9273D01*
X33548D01*
Y9150D01*
X32550D01*
Y5200D01*
X30950D01*
Y6616D01*
X30973Y6656D01*
X31000Y6656D01*
X31210D01*
Y6855D01*
Y7053D01*
X31000D01*
X30973Y7053D01*
X30950Y7094D01*
Y7115D01*
X30986Y7150D01*
X31800D01*
Y10200D01*
X30950D01*
Y11616D01*
X30973Y11656D01*
X31000Y11656D01*
X31210D01*
Y11855D01*
Y12053D01*
X31000D01*
X30973Y12053D01*
X30950Y12094D01*
Y12115D01*
X30986Y12150D01*
X31800D01*
Y15200D01*
X30950D01*
Y16616D01*
X30973Y16656D01*
X31000Y16656D01*
X31210D01*
Y16855D01*
Y17053D01*
X31000D01*
X30973Y17053D01*
X30950Y17094D01*
Y17115D01*
X30986Y17150D01*
X31800D01*
Y20200D01*
X30950D01*
Y21616D01*
X30973Y21656D01*
X31000Y21656D01*
X31210D01*
Y21855D01*
Y22053D01*
X31000D01*
X30973Y22053D01*
X30950Y22094D01*
Y22115D01*
X30986Y22150D01*
X31800D01*
Y25050D01*
X30950D01*
Y25150D01*
Y26616D01*
X30973Y26656D01*
X31000Y26656D01*
X31210D01*
Y26855D01*
Y27053D01*
X31000D01*
X30973Y27053D01*
X30950Y27094D01*
Y27115D01*
X30986Y27150D01*
X32300D01*
Y14550D01*
X36300D01*
Y29900D01*
X37850D01*
Y28444D01*
D02*
G37*
G36*
X40000Y12600D02*
X39000D01*
Y14900D01*
X40000D01*
Y12600D01*
D02*
G37*
G36*
X30890Y12287D02*
X30892Y12287D01*
X30892Y12287D01*
X30895Y12287D01*
X30925Y12285D01*
X30934Y12243D01*
X30933Y12235D01*
X30913Y12222D01*
X30878Y12187D01*
X30856Y12154D01*
X30848Y12115D01*
Y12094D01*
X30828Y12068D01*
X30806Y12053D01*
X30805Y12053D01*
X30740D01*
Y11855D01*
Y11656D01*
X30805D01*
X30806Y11656D01*
X30828Y11642D01*
X30848Y11616D01*
Y11269D01*
X30804Y11245D01*
X30786Y11257D01*
X30740Y11266D01*
Y11050D01*
Y10834D01*
X30786Y10843D01*
X30804Y10855D01*
X30848Y10831D01*
Y10563D01*
X29952D01*
Y11684D01*
X30302D01*
Y12122D01*
X30463Y12282D01*
X30700D01*
X30724Y12287D01*
X30890D01*
D02*
G37*
G36*
X29850Y10200D02*
X28850D01*
Y12500D01*
X29850D01*
Y10200D01*
D02*
G37*
G36*
X33756Y9850D02*
X33797Y9827D01*
X33797Y9800D01*
Y9590D01*
X33995D01*
Y9550D01*
X34035D01*
Y9273D01*
X34164D01*
X34206Y9254D01*
X34236Y9254D01*
X34365D01*
Y9531D01*
X34405D01*
Y9571D01*
X34603D01*
Y9800D01*
X34623Y9850D01*
X34850D01*
Y9768D01*
X34837D01*
Y9294D01*
X34850D01*
X34850Y7950D01*
X33650Y7950D01*
X33650Y9850D01*
X33700D01*
X33756D01*
D02*
G37*
G36*
X40000Y7600D02*
X39000D01*
Y9900D01*
X40000D01*
Y7600D01*
D02*
G37*
G36*
X30890Y7287D02*
X30892Y7287D01*
X30892Y7287D01*
X30895Y7287D01*
X30925Y7285D01*
X30934Y7243D01*
X30933Y7235D01*
X30913Y7222D01*
X30878Y7187D01*
X30856Y7154D01*
X30848Y7115D01*
Y7094D01*
X30828Y7068D01*
X30806Y7053D01*
X30805Y7053D01*
X30740D01*
Y6855D01*
Y6656D01*
X30805D01*
X30806Y6656D01*
X30828Y6642D01*
X30848Y6616D01*
Y6269D01*
X30804Y6245D01*
X30786Y6257D01*
X30740Y6266D01*
Y6050D01*
Y5834D01*
X30786Y5843D01*
X30804Y5855D01*
X30848Y5831D01*
Y5563D01*
X29952D01*
Y6684D01*
X30302D01*
Y7122D01*
X30463Y7282D01*
X30700D01*
X30724Y7287D01*
X30890D01*
D02*
G37*
G36*
X29850Y5200D02*
X28850D01*
Y7500D01*
X29850D01*
Y5200D01*
D02*
G37*
%LPC*%
G36*
X39769Y29445D02*
X39513D01*
Y29090D01*
X39769D01*
Y29445D01*
D02*
G37*
G36*
X39433D02*
X39176D01*
Y29090D01*
X39433D01*
Y29445D01*
D02*
G37*
G36*
X39769Y29010D02*
X39513D01*
Y28655D01*
X39769D01*
Y29010D01*
D02*
G37*
G36*
X39433D02*
X39176D01*
Y28655D01*
X39433D01*
Y29010D01*
D02*
G37*
G36*
X39692Y28456D02*
X39514D01*
Y28156D01*
X39692D01*
Y28456D01*
D02*
G37*
G36*
X39434D02*
X39256D01*
Y28156D01*
X39434D01*
Y28456D01*
D02*
G37*
G36*
X39692Y28076D02*
X39514D01*
Y27776D01*
X39692D01*
Y28076D01*
D02*
G37*
G36*
X39434D02*
X39256D01*
Y27776D01*
X39434D01*
Y28076D01*
D02*
G37*
G36*
X30660Y27053D02*
X30423D01*
Y26895D01*
X30660D01*
Y27053D01*
D02*
G37*
G36*
Y26815D02*
X30423D01*
Y26656D01*
X30660D01*
Y26815D01*
D02*
G37*
G36*
X30283Y26445D02*
X30026D01*
Y26090D01*
X30283D01*
Y26445D01*
D02*
G37*
G36*
X30619D02*
X30363D01*
Y26050D01*
Y25655D01*
X30619D01*
Y25802D01*
X30658Y25834D01*
X30660Y25834D01*
Y26050D01*
Y26267D01*
X30658Y26266D01*
X30619Y26298D01*
Y26445D01*
D02*
G37*
G36*
X30283Y26010D02*
X30026D01*
Y25655D01*
X30283D01*
Y26010D01*
D02*
G37*
G36*
X29594Y27325D02*
X29416D01*
Y27024D01*
X29594D01*
Y27325D01*
D02*
G37*
G36*
X29336D02*
X29158D01*
Y27024D01*
X29336D01*
Y27325D01*
D02*
G37*
G36*
X29594Y26944D02*
X29416D01*
Y26644D01*
X29594D01*
Y26944D01*
D02*
G37*
G36*
X29336D02*
X29158D01*
Y26644D01*
X29336D01*
Y26944D01*
D02*
G37*
G36*
X29675Y26445D02*
X29418D01*
Y26090D01*
X29675D01*
Y26445D01*
D02*
G37*
G36*
X29338D02*
X29081D01*
Y26090D01*
X29338D01*
Y26445D01*
D02*
G37*
G36*
X29675Y26010D02*
X29418D01*
Y25655D01*
X29675D01*
Y26010D01*
D02*
G37*
G36*
X29338D02*
X29081D01*
Y25655D01*
X29338D01*
Y26010D01*
D02*
G37*
G36*
X39769Y24445D02*
X39513D01*
Y24090D01*
X39769D01*
Y24445D01*
D02*
G37*
G36*
X39433D02*
X39176D01*
Y24090D01*
X39433D01*
Y24445D01*
D02*
G37*
G36*
X39769Y24010D02*
X39513D01*
Y23655D01*
X39769D01*
Y24010D01*
D02*
G37*
G36*
X39433D02*
X39176D01*
Y23655D01*
X39433D01*
Y24010D01*
D02*
G37*
G36*
X39692Y23456D02*
X39514D01*
Y23156D01*
X39692D01*
Y23456D01*
D02*
G37*
G36*
X39434D02*
X39256D01*
Y23156D01*
X39434D01*
Y23456D01*
D02*
G37*
G36*
X39692Y23076D02*
X39514D01*
Y22776D01*
X39692D01*
Y23076D01*
D02*
G37*
G36*
X39434D02*
X39256D01*
Y22776D01*
X39434D01*
Y23076D01*
D02*
G37*
G36*
X30660Y22053D02*
X30423D01*
Y21895D01*
X30660D01*
Y22053D01*
D02*
G37*
G36*
Y21815D02*
X30423D01*
Y21656D01*
X30660D01*
Y21815D01*
D02*
G37*
G36*
X30283Y21445D02*
X30026D01*
Y21090D01*
X30283D01*
Y21445D01*
D02*
G37*
G36*
X30619D02*
X30363D01*
Y21050D01*
Y20655D01*
X30619D01*
Y20802D01*
X30658Y20834D01*
X30660Y20834D01*
Y21050D01*
Y21267D01*
X30658Y21266D01*
X30619Y21298D01*
Y21445D01*
D02*
G37*
G36*
X30283Y21010D02*
X30026D01*
Y20655D01*
X30283D01*
Y21010D01*
D02*
G37*
G36*
X29594Y22325D02*
X29416D01*
Y22024D01*
X29594D01*
Y22325D01*
D02*
G37*
G36*
X29336D02*
X29158D01*
Y22024D01*
X29336D01*
Y22325D01*
D02*
G37*
G36*
X29594Y21944D02*
X29416D01*
Y21644D01*
X29594D01*
Y21944D01*
D02*
G37*
G36*
X29336D02*
X29158D01*
Y21644D01*
X29336D01*
Y21944D01*
D02*
G37*
G36*
X29675Y21445D02*
X29418D01*
Y21090D01*
X29675D01*
Y21445D01*
D02*
G37*
G36*
X29338D02*
X29081D01*
Y21090D01*
X29338D01*
Y21445D01*
D02*
G37*
G36*
X29675Y21010D02*
X29418D01*
Y20655D01*
X29675D01*
Y21010D01*
D02*
G37*
G36*
X29338D02*
X29081D01*
Y20655D01*
X29338D01*
Y21010D01*
D02*
G37*
G36*
X39769Y19445D02*
X39513D01*
Y19090D01*
X39769D01*
Y19445D01*
D02*
G37*
G36*
X39433D02*
X39176D01*
Y19090D01*
X39433D01*
Y19445D01*
D02*
G37*
G36*
X39769Y19010D02*
X39513D01*
Y18655D01*
X39769D01*
Y19010D01*
D02*
G37*
G36*
X39433D02*
X39176D01*
Y18655D01*
X39433D01*
Y19010D01*
D02*
G37*
G36*
X39692Y18456D02*
X39514D01*
Y18156D01*
X39692D01*
Y18456D01*
D02*
G37*
G36*
X39434D02*
X39256D01*
Y18156D01*
X39434D01*
Y18456D01*
D02*
G37*
G36*
X39692Y18076D02*
X39514D01*
Y17776D01*
X39692D01*
Y18076D01*
D02*
G37*
G36*
X39434D02*
X39256D01*
Y17776D01*
X39434D01*
Y18076D01*
D02*
G37*
G36*
X30660Y17053D02*
X30423D01*
Y16895D01*
X30660D01*
Y17053D01*
D02*
G37*
G36*
Y16815D02*
X30423D01*
Y16656D01*
X30660D01*
Y16815D01*
D02*
G37*
G36*
X30283Y16445D02*
X30026D01*
Y16090D01*
X30283D01*
Y16445D01*
D02*
G37*
G36*
X30619D02*
X30363D01*
Y16050D01*
Y15655D01*
X30619D01*
Y15802D01*
X30658Y15834D01*
X30660Y15834D01*
Y16050D01*
Y16266D01*
X30658Y16266D01*
X30619Y16298D01*
Y16445D01*
D02*
G37*
G36*
X30283Y16010D02*
X30026D01*
Y15655D01*
X30283D01*
Y16010D01*
D02*
G37*
G36*
X29594Y17325D02*
X29416D01*
Y17024D01*
X29594D01*
Y17325D01*
D02*
G37*
G36*
X29336D02*
X29158D01*
Y17024D01*
X29336D01*
Y17325D01*
D02*
G37*
G36*
X29594Y16944D02*
X29416D01*
Y16644D01*
X29594D01*
Y16944D01*
D02*
G37*
G36*
X29336D02*
X29158D01*
Y16644D01*
X29336D01*
Y16944D01*
D02*
G37*
G36*
X29675Y16445D02*
X29418D01*
Y16090D01*
X29675D01*
Y16445D01*
D02*
G37*
G36*
X29338D02*
X29081D01*
Y16090D01*
X29338D01*
Y16445D01*
D02*
G37*
G36*
X29675Y16010D02*
X29418D01*
Y15655D01*
X29675D01*
Y16010D01*
D02*
G37*
G36*
X29338D02*
X29081D01*
Y15655D01*
X29338D01*
Y16010D01*
D02*
G37*
G36*
X37560Y28444D02*
X37323D01*
Y28285D01*
X37560D01*
Y28444D01*
D02*
G37*
G36*
Y28205D02*
X37323D01*
Y28047D01*
X37560D01*
Y28205D01*
D02*
G37*
G36*
X31290Y27053D02*
Y26895D01*
X31527D01*
Y27053D01*
X31290D01*
D02*
G37*
G36*
X31527Y26815D02*
X31290D01*
Y26656D01*
X31527D01*
Y26815D01*
D02*
G37*
G36*
X37560Y23444D02*
X37323D01*
Y23285D01*
X37560D01*
Y23444D01*
D02*
G37*
G36*
Y23205D02*
X37323D01*
Y23047D01*
X37560D01*
Y23205D01*
D02*
G37*
G36*
X31290Y22053D02*
Y21895D01*
X31527D01*
Y22053D01*
X31290D01*
D02*
G37*
G36*
X31527Y21815D02*
X31290D01*
Y21656D01*
X31527D01*
Y21815D01*
D02*
G37*
G36*
X37560Y18444D02*
X37323D01*
Y18285D01*
X37560D01*
Y18444D01*
D02*
G37*
G36*
Y18205D02*
X37323D01*
Y18047D01*
X37560D01*
Y18205D01*
D02*
G37*
G36*
X31290Y17053D02*
Y16895D01*
X31527D01*
Y17053D01*
X31290D01*
D02*
G37*
G36*
X31527Y16815D02*
X31290D01*
Y16656D01*
X31527D01*
Y16815D01*
D02*
G37*
G36*
X37560Y13444D02*
X37323D01*
Y13285D01*
X37560D01*
Y13444D01*
D02*
G37*
G36*
Y13205D02*
X37323D01*
Y13047D01*
X37560D01*
Y13205D01*
D02*
G37*
G36*
X33584Y13220D02*
X33140D01*
Y12471D01*
X33584D01*
Y13220D01*
D02*
G37*
G36*
X33060D02*
X32616D01*
Y12471D01*
X33060D01*
Y13220D01*
D02*
G37*
G36*
X31290Y12053D02*
Y11895D01*
X31527D01*
Y12053D01*
X31290D01*
D02*
G37*
G36*
X31527Y11815D02*
X31290D01*
Y11656D01*
X31527D01*
Y11815D01*
D02*
G37*
G36*
X33584Y12391D02*
X33140D01*
Y11642D01*
X33584D01*
Y12391D01*
D02*
G37*
G36*
X33060D02*
X32616D01*
Y11642D01*
X33060D01*
Y12391D01*
D02*
G37*
G36*
X33365Y11508D02*
X33206D01*
Y11271D01*
X33365D01*
Y11508D01*
D02*
G37*
G36*
Y9510D02*
X33206D01*
Y9273D01*
X33365D01*
Y9510D01*
D02*
G37*
G36*
X37560Y8444D02*
X37323D01*
Y8285D01*
X37560D01*
Y8444D01*
D02*
G37*
G36*
X31290Y7053D02*
Y6895D01*
X31527D01*
Y7053D01*
X31290D01*
D02*
G37*
G36*
X31527Y6815D02*
X31290D01*
Y6656D01*
X31527D01*
Y6815D01*
D02*
G37*
G36*
X39769Y14445D02*
X39513D01*
Y14090D01*
X39769D01*
Y14445D01*
D02*
G37*
G36*
X39433D02*
X39176D01*
Y14090D01*
X39433D01*
Y14445D01*
D02*
G37*
G36*
X39769Y14010D02*
X39513D01*
Y13655D01*
X39769D01*
Y14010D01*
D02*
G37*
G36*
X39433D02*
X39176D01*
Y13655D01*
X39433D01*
Y14010D01*
D02*
G37*
G36*
X39692Y13456D02*
X39514D01*
Y13156D01*
X39692D01*
Y13456D01*
D02*
G37*
G36*
X39434D02*
X39256D01*
Y13156D01*
X39434D01*
Y13456D01*
D02*
G37*
G36*
X39692Y13076D02*
X39514D01*
Y12776D01*
X39692D01*
Y13076D01*
D02*
G37*
G36*
X39434D02*
X39256D01*
Y12776D01*
X39434D01*
Y13076D01*
D02*
G37*
G36*
X30660Y12053D02*
X30423D01*
Y11895D01*
X30660D01*
Y12053D01*
D02*
G37*
G36*
Y11815D02*
X30423D01*
Y11656D01*
X30660D01*
Y11815D01*
D02*
G37*
G36*
X30283Y11445D02*
X30026D01*
Y11090D01*
X30283D01*
Y11445D01*
D02*
G37*
G36*
X30619D02*
X30363D01*
Y11050D01*
Y10655D01*
X30619D01*
Y10802D01*
X30658Y10834D01*
X30660Y10834D01*
Y11050D01*
Y11266D01*
X30658Y11266D01*
X30619Y11298D01*
Y11445D01*
D02*
G37*
G36*
X30283Y11010D02*
X30026D01*
Y10655D01*
X30283D01*
Y11010D01*
D02*
G37*
G36*
X29594Y12325D02*
X29416D01*
Y12024D01*
X29594D01*
Y12325D01*
D02*
G37*
G36*
X29336D02*
X29158D01*
Y12024D01*
X29336D01*
Y12325D01*
D02*
G37*
G36*
X29594Y11944D02*
X29416D01*
Y11644D01*
X29594D01*
Y11944D01*
D02*
G37*
G36*
X29336D02*
X29158D01*
Y11644D01*
X29336D01*
Y11944D01*
D02*
G37*
G36*
X29675Y11445D02*
X29418D01*
Y11090D01*
X29675D01*
Y11445D01*
D02*
G37*
G36*
X29338D02*
X29081D01*
Y11090D01*
X29338D01*
Y11445D01*
D02*
G37*
G36*
X29675Y11010D02*
X29418D01*
Y10655D01*
X29675D01*
Y11010D01*
D02*
G37*
G36*
X29338D02*
X29081D01*
Y10655D01*
X29338D01*
Y11010D01*
D02*
G37*
G36*
X33955Y9510D02*
X33797D01*
Y9273D01*
X33955D01*
Y9510D01*
D02*
G37*
G36*
X34603Y9491D02*
X34445D01*
Y9254D01*
X34603D01*
Y9491D01*
D02*
G37*
G36*
X34783Y9145D02*
X34290D01*
Y8652D01*
X34783D01*
Y9145D01*
D02*
G37*
G36*
X34210D02*
X33717D01*
Y8652D01*
X34210D01*
Y9145D01*
D02*
G37*
G36*
X34783Y8572D02*
X34290D01*
Y8079D01*
X34783D01*
Y8572D01*
D02*
G37*
G36*
X34210D02*
X33717D01*
Y8079D01*
X34210D01*
Y8572D01*
D02*
G37*
G36*
X39769Y9445D02*
X39513D01*
Y9090D01*
X39769D01*
Y9445D01*
D02*
G37*
G36*
X39433D02*
X39176D01*
Y9090D01*
X39433D01*
Y9445D01*
D02*
G37*
G36*
X39769Y9010D02*
X39513D01*
Y8655D01*
X39769D01*
Y9010D01*
D02*
G37*
G36*
X39433D02*
X39176D01*
Y8655D01*
X39433D01*
Y9010D01*
D02*
G37*
G36*
X39692Y8456D02*
X39514D01*
Y8156D01*
X39692D01*
Y8456D01*
D02*
G37*
G36*
X39434D02*
X39256D01*
Y8156D01*
X39434D01*
Y8456D01*
D02*
G37*
G36*
X39692Y8076D02*
X39514D01*
Y7776D01*
X39692D01*
Y8076D01*
D02*
G37*
G36*
X39434D02*
X39256D01*
Y7776D01*
X39434D01*
Y8076D01*
D02*
G37*
G36*
X30660Y7053D02*
X30423D01*
Y6895D01*
X30660D01*
Y7053D01*
D02*
G37*
G36*
Y6815D02*
X30423D01*
Y6656D01*
X30660D01*
Y6815D01*
D02*
G37*
G36*
X30283Y6445D02*
X30026D01*
Y6090D01*
X30283D01*
Y6445D01*
D02*
G37*
G36*
X30619D02*
X30363D01*
Y6050D01*
Y5655D01*
X30619D01*
Y5802D01*
X30658Y5834D01*
X30660Y5834D01*
Y6050D01*
Y6266D01*
X30658Y6266D01*
X30619Y6298D01*
Y6445D01*
D02*
G37*
G36*
X30283Y6010D02*
X30026D01*
Y5655D01*
X30283D01*
Y6010D01*
D02*
G37*
G36*
X29594Y7325D02*
X29416D01*
Y7024D01*
X29594D01*
Y7325D01*
D02*
G37*
G36*
X29336D02*
X29158D01*
Y7024D01*
X29336D01*
Y7325D01*
D02*
G37*
G36*
X29594Y6944D02*
X29416D01*
Y6644D01*
X29594D01*
Y6944D01*
D02*
G37*
G36*
X29336D02*
X29158D01*
Y6644D01*
X29336D01*
Y6944D01*
D02*
G37*
G36*
X29675Y6445D02*
X29418D01*
Y6090D01*
X29675D01*
Y6445D01*
D02*
G37*
G36*
X29338D02*
X29081D01*
Y6090D01*
X29338D01*
Y6445D01*
D02*
G37*
G36*
X29675Y6010D02*
X29418D01*
Y5655D01*
X29675D01*
Y6010D01*
D02*
G37*
G36*
X29338D02*
X29081D01*
Y5655D01*
X29338D01*
Y6010D01*
D02*
G37*
G36*
X21250Y32499D02*
X21104Y32484D01*
X20964Y32442D01*
X20834Y32373D01*
X20721Y32279D01*
X20628Y32166D01*
X20559Y32037D01*
X20516Y31896D01*
X20502Y31750D01*
X20516Y31604D01*
X20559Y31464D01*
X20628Y31334D01*
X20721Y31221D01*
X20834Y31128D01*
X20964Y31059D01*
X21104Y31016D01*
X21250Y31002D01*
X21396Y31016D01*
X21537Y31059D01*
X21666Y31128D01*
X21779Y31221D01*
X21873Y31334D01*
X21942Y31464D01*
X21984Y31604D01*
X21999Y31750D01*
X21984Y31896D01*
X21942Y32037D01*
X21873Y32166D01*
X21779Y32279D01*
X21666Y32373D01*
X21537Y32442D01*
X21396Y32484D01*
X21250Y32499D01*
D02*
G37*
G36*
X11250D02*
X11104Y32484D01*
X10964Y32442D01*
X10834Y32373D01*
X10721Y32279D01*
X10628Y32166D01*
X10559Y32037D01*
X10516Y31896D01*
X10502Y31750D01*
X10516Y31604D01*
X10559Y31464D01*
X10628Y31334D01*
X10721Y31221D01*
X10834Y31128D01*
X10964Y31059D01*
X11104Y31016D01*
X11250Y31002D01*
X11396Y31016D01*
X11537Y31059D01*
X11666Y31128D01*
X11779Y31221D01*
X11873Y31334D01*
X11942Y31464D01*
X11984Y31604D01*
X11999Y31750D01*
X11984Y31896D01*
X11942Y32037D01*
X11873Y32166D01*
X11779Y32279D01*
X11666Y32373D01*
X11537Y32442D01*
X11396Y32484D01*
X11250Y32499D01*
D02*
G37*
G36*
X1250D02*
X1104Y32484D01*
X964Y32442D01*
X834Y32373D01*
X721Y32279D01*
X628Y32166D01*
X559Y32037D01*
X516Y31896D01*
X502Y31750D01*
X516Y31604D01*
X559Y31464D01*
X628Y31334D01*
X721Y31221D01*
X834Y31128D01*
X964Y31059D01*
X1104Y31016D01*
X1250Y31002D01*
X1396Y31016D01*
X1537Y31059D01*
X1666Y31128D01*
X1779Y31221D01*
X1873Y31334D01*
X1942Y31464D01*
X1984Y31604D01*
X1999Y31750D01*
X1984Y31896D01*
X1942Y32037D01*
X1873Y32166D01*
X1779Y32279D01*
X1666Y32373D01*
X1537Y32442D01*
X1396Y32484D01*
X1250Y32499D01*
D02*
G37*
G36*
X16750Y30002D02*
X15750D01*
X15711Y29994D01*
X15678Y29972D01*
X15656Y29939D01*
X15648Y29900D01*
Y29863D01*
X14702D01*
Y29900D01*
X14694Y29939D01*
X14672Y29972D01*
X14639Y29994D01*
X14600Y30002D01*
X13050D01*
X13011Y29994D01*
X12978Y29972D01*
X12956Y29939D01*
X12948Y29900D01*
Y14652D01*
X9152D01*
Y27150D01*
X9144Y27189D01*
X9122Y27222D01*
X9089Y27244D01*
X9050Y27252D01*
X8273D01*
X8237Y27287D01*
X8237Y27302D01*
Y27604D01*
X8159D01*
Y28050D01*
X8154Y28074D01*
Y28287D01*
X7837D01*
Y28074D01*
X7832Y28050D01*
Y27604D01*
X7763D01*
X7763Y27308D01*
X7720Y27277D01*
X7693Y27284D01*
X7687Y27294D01*
X7687Y27332D01*
Y27604D01*
X7474D01*
X7450Y27609D01*
X7145D01*
X7083Y27596D01*
X7030Y27561D01*
X6759Y27290D01*
X6755Y27285D01*
X6702D01*
Y27500D01*
X6694Y27539D01*
X6672Y27572D01*
X6639Y27594D01*
X6600Y27602D01*
X5600D01*
X5561Y27594D01*
X5528Y27572D01*
X5506Y27539D01*
X5498Y27500D01*
Y25200D01*
X5506Y25161D01*
X5528Y25128D01*
X5561Y25106D01*
X5600Y25098D01*
X6600D01*
X6639Y25106D01*
X6672Y25128D01*
X6694Y25161D01*
X6702Y25200D01*
Y25237D01*
X7598D01*
Y25050D01*
X7606Y25011D01*
X7628Y24978D01*
X7661Y24956D01*
X7700Y24948D01*
X8448D01*
Y22252D01*
X8273D01*
X8237Y22287D01*
X8237Y22302D01*
Y22604D01*
X8159D01*
Y23050D01*
X8154Y23074D01*
Y23287D01*
X7837D01*
Y23074D01*
X7832Y23050D01*
Y22604D01*
X7763D01*
X7763Y22308D01*
X7720Y22277D01*
X7693Y22284D01*
X7687Y22294D01*
X7687Y22332D01*
Y22604D01*
X7474D01*
X7450Y22609D01*
X7145D01*
X7083Y22596D01*
X7030Y22561D01*
X6759Y22290D01*
X6755Y22285D01*
X6702D01*
Y22500D01*
X6694Y22539D01*
X6672Y22572D01*
X6639Y22594D01*
X6600Y22602D01*
X5600D01*
X5561Y22594D01*
X5528Y22572D01*
X5506Y22539D01*
X5498Y22500D01*
Y20200D01*
X5506Y20161D01*
X5528Y20128D01*
X5561Y20106D01*
X5600Y20098D01*
X6600D01*
X6639Y20106D01*
X6672Y20128D01*
X6694Y20161D01*
X6702Y20200D01*
Y20237D01*
X7598D01*
Y20200D01*
X7606Y20161D01*
X7628Y20128D01*
X7661Y20106D01*
X7700Y20098D01*
X8448D01*
Y17252D01*
X8273D01*
X8237Y17287D01*
X8237Y17302D01*
Y17604D01*
X8159D01*
Y18050D01*
X8154Y18074D01*
Y18287D01*
X7837D01*
Y18074D01*
X7832Y18050D01*
Y17604D01*
X7763D01*
X7763Y17308D01*
X7720Y17277D01*
X7693Y17284D01*
X7687Y17293D01*
X7687Y17332D01*
Y17604D01*
X7474D01*
X7450Y17609D01*
X7145D01*
X7083Y17596D01*
X7030Y17561D01*
X6759Y17290D01*
X6755Y17285D01*
X6702D01*
Y17500D01*
X6694Y17539D01*
X6672Y17572D01*
X6639Y17594D01*
X6600Y17602D01*
X5600D01*
X5561Y17594D01*
X5528Y17572D01*
X5506Y17539D01*
X5498Y17500D01*
Y15200D01*
X5506Y15161D01*
X5528Y15128D01*
X5561Y15106D01*
X5600Y15098D01*
X6600D01*
X6639Y15106D01*
X6672Y15128D01*
X6694Y15161D01*
X6702Y15200D01*
Y15237D01*
X7598D01*
Y15200D01*
X7606Y15161D01*
X7628Y15128D01*
X7661Y15106D01*
X7700Y15098D01*
X8448D01*
Y12252D01*
X8273D01*
X8237Y12287D01*
X8237Y12302D01*
Y12604D01*
X8159D01*
Y13050D01*
X8154Y13074D01*
Y13287D01*
X7837D01*
Y13074D01*
X7832Y13050D01*
Y12604D01*
X7763D01*
X7763Y12308D01*
X7720Y12277D01*
X7693Y12284D01*
X7687Y12293D01*
X7687Y12332D01*
Y12604D01*
X7474D01*
X7450Y12609D01*
X7145D01*
X7083Y12596D01*
X7030Y12561D01*
X6759Y12290D01*
X6755Y12285D01*
X6702D01*
Y12500D01*
X6694Y12539D01*
X6672Y12572D01*
X6639Y12594D01*
X6600Y12602D01*
X5600D01*
X5561Y12594D01*
X5528Y12572D01*
X5506Y12539D01*
X5498Y12500D01*
Y10200D01*
X5506Y10161D01*
X5528Y10128D01*
X5561Y10106D01*
X5600Y10098D01*
X6600D01*
X6639Y10106D01*
X6672Y10128D01*
X6694Y10161D01*
X6702Y10200D01*
Y10237D01*
X7598D01*
Y10200D01*
X7606Y10161D01*
X7628Y10128D01*
X7661Y10106D01*
X7700Y10098D01*
X8448D01*
Y7252D01*
X8273D01*
X8237Y7287D01*
X8237Y7302D01*
Y7604D01*
X8159D01*
Y8050D01*
X8154Y8074D01*
Y8287D01*
X7837D01*
Y8074D01*
X7832Y8050D01*
Y7604D01*
X7763D01*
X7763Y7308D01*
X7720Y7277D01*
X7693Y7284D01*
X7687Y7293D01*
X7687Y7332D01*
Y7604D01*
X7474D01*
X7450Y7609D01*
X7145D01*
X7083Y7596D01*
X7030Y7561D01*
X6759Y7290D01*
X6755Y7285D01*
X6702D01*
Y7500D01*
X6694Y7539D01*
X6672Y7572D01*
X6639Y7594D01*
X6600Y7602D01*
X5600D01*
X5561Y7594D01*
X5528Y7572D01*
X5506Y7539D01*
X5498Y7500D01*
Y5200D01*
X5506Y5161D01*
X5528Y5128D01*
X5561Y5106D01*
X5600Y5098D01*
X6600D01*
X6639Y5106D01*
X6672Y5128D01*
X6694Y5161D01*
X6702Y5200D01*
Y5237D01*
X7598D01*
Y5200D01*
X7606Y5161D01*
X7628Y5128D01*
X7661Y5106D01*
X7700Y5098D01*
X9300D01*
X9339Y5106D01*
X9372Y5128D01*
X9394Y5161D01*
X9402Y5200D01*
Y9048D01*
X10298D01*
X10298Y7950D01*
X10306Y7911D01*
X10328Y7878D01*
X10361Y7856D01*
X10400Y7848D01*
X11600Y7848D01*
X11639Y7856D01*
X11672Y7878D01*
X11694Y7911D01*
X11702Y7950D01*
X11702Y9254D01*
X11705D01*
Y9531D01*
Y9808D01*
X11702D01*
Y9850D01*
X11694Y9889D01*
X11672Y9922D01*
X11639Y9944D01*
X11600Y9952D01*
X11373D01*
X11373Y9952D01*
X11372Y9952D01*
X11353Y9948D01*
X11334Y9944D01*
X11334Y9944D01*
X11333Y9944D01*
X11317Y9933D01*
X11301Y9922D01*
X11301Y9922D01*
X11300Y9921D01*
X11290Y9905D01*
X11279Y9889D01*
X11279Y9889D01*
X11279Y9888D01*
X11259Y9838D01*
X11255Y9819D01*
X11251Y9800D01*
Y9768D01*
X10996D01*
Y9713D01*
X10904D01*
Y9787D01*
X10699D01*
X10694Y9793D01*
X10691Y9805D01*
X10705Y9824D01*
Y10091D01*
X10547D01*
Y9995D01*
X10547Y9994D01*
X10532Y9972D01*
X10506Y9952D01*
X10400D01*
X10363Y9945D01*
X10361Y9945D01*
X10313Y9973D01*
Y10368D01*
X10058D01*
Y10444D01*
X10313D01*
Y10918D01*
X10058D01*
Y10994D01*
X10313D01*
Y11405D01*
X10339Y11406D01*
X10353D01*
X10360Y11408D01*
X10363Y11408D01*
X10370Y11408D01*
X10416Y11415D01*
X10428Y11420D01*
X10439Y11422D01*
X10446Y11426D01*
X10454Y11429D01*
X10462Y11437D01*
X10472Y11444D01*
X10477Y11451D01*
X10483Y11456D01*
X10488Y11467D01*
X10494Y11477D01*
X10496Y11485D01*
X10499Y11493D01*
X10500Y11504D01*
X10502Y11516D01*
Y13698D01*
X13198D01*
Y8050D01*
X13205Y8014D01*
X13205Y8010D01*
X13177Y7964D01*
X12891D01*
Y7471D01*
X13384D01*
Y7948D01*
X14073D01*
X14112Y7956D01*
X14145Y7978D01*
X14167Y8011D01*
X14175Y8050D01*
Y8087D01*
X14326D01*
X14350Y8082D01*
X14374Y8087D01*
X14587D01*
X14623Y8052D01*
Y8047D01*
X14860D01*
Y8245D01*
Y8444D01*
X14702D01*
Y8867D01*
X14752Y8884D01*
X14814Y8843D01*
X14860Y8834D01*
Y9050D01*
Y9266D01*
X14814Y9257D01*
X14752Y9216D01*
X14702Y9233D01*
Y9537D01*
X15648D01*
Y8416D01*
X15298D01*
Y7979D01*
X15137Y7818D01*
X14900D01*
X14876Y7813D01*
X14663D01*
Y7496D01*
X14876D01*
X14900Y7492D01*
X15205D01*
X15267Y7504D01*
X15320Y7540D01*
X15591Y7811D01*
X15595Y7816D01*
X15648D01*
Y7600D01*
X15656Y7561D01*
X15678Y7528D01*
X15711Y7506D01*
X15750Y7498D01*
X16750D01*
X16789Y7506D01*
X16822Y7528D01*
X16844Y7561D01*
X16852Y7600D01*
Y9900D01*
X16844Y9939D01*
X16822Y9972D01*
X16789Y9994D01*
X16750Y10002D01*
X15750D01*
X15711Y9994D01*
X15678Y9972D01*
X15656Y9939D01*
X15648Y9900D01*
Y9863D01*
X14702D01*
Y10050D01*
X14694Y10089D01*
X14672Y10122D01*
X14639Y10144D01*
X14600Y10152D01*
X13902D01*
Y12848D01*
X14077D01*
X14113Y12813D01*
X14113Y12798D01*
Y12496D01*
X14192D01*
Y12050D01*
X14196Y12026D01*
Y11813D01*
X14513D01*
Y12026D01*
X14518Y12050D01*
Y12496D01*
X14587D01*
X14587Y12804D01*
X14592Y12819D01*
X14616Y12851D01*
X14639Y12856D01*
X14672Y12878D01*
X14694Y12911D01*
X14702Y12950D01*
Y13047D01*
X14860D01*
Y13245D01*
Y13444D01*
X14702D01*
Y13867D01*
X14752Y13884D01*
X14814Y13843D01*
X14860Y13834D01*
Y14050D01*
Y14267D01*
X14814Y14257D01*
X14752Y14216D01*
X14702Y14233D01*
Y14537D01*
X15648D01*
Y13416D01*
X15298D01*
Y12979D01*
X15137Y12818D01*
X14900D01*
X14876Y12813D01*
X14663D01*
Y12496D01*
X14876D01*
X14900Y12492D01*
X15205D01*
X15267Y12504D01*
X15320Y12540D01*
X15591Y12811D01*
X15595Y12816D01*
X15648D01*
Y12600D01*
X15656Y12561D01*
X15678Y12528D01*
X15711Y12506D01*
X15750Y12498D01*
X16750D01*
X16789Y12506D01*
X16822Y12528D01*
X16844Y12561D01*
X16852Y12600D01*
Y14900D01*
X16844Y14939D01*
X16822Y14972D01*
X16789Y14994D01*
X16750Y15002D01*
X15750D01*
X15711Y14994D01*
X15678Y14972D01*
X15656Y14939D01*
X15648Y14900D01*
Y14863D01*
X14702D01*
Y14900D01*
X14694Y14939D01*
X14672Y14972D01*
X14639Y14994D01*
X14600Y15002D01*
X13902D01*
Y17848D01*
X14077D01*
X14113Y17813D01*
X14113Y17798D01*
Y17496D01*
X14192D01*
Y17050D01*
X14196Y17026D01*
Y16813D01*
X14513D01*
Y17026D01*
X14518Y17050D01*
Y17496D01*
X14587D01*
X14587Y17804D01*
X14592Y17819D01*
X14616Y17851D01*
X14639Y17856D01*
X14672Y17878D01*
X14694Y17911D01*
X14702Y17950D01*
Y18047D01*
X14860D01*
Y18245D01*
Y18444D01*
X14702D01*
Y18867D01*
X14752Y18884D01*
X14814Y18843D01*
X14860Y18834D01*
Y19050D01*
Y19267D01*
X14814Y19257D01*
X14752Y19216D01*
X14702Y19233D01*
Y19537D01*
X15648D01*
Y18416D01*
X15298D01*
Y17979D01*
X15137Y17818D01*
X14900D01*
X14876Y17813D01*
X14663D01*
Y17496D01*
X14876D01*
X14900Y17492D01*
X15205D01*
X15267Y17504D01*
X15320Y17540D01*
X15591Y17811D01*
X15595Y17816D01*
X15648D01*
Y17600D01*
X15656Y17561D01*
X15678Y17528D01*
X15711Y17506D01*
X15750Y17498D01*
X16750D01*
X16789Y17506D01*
X16822Y17528D01*
X16844Y17561D01*
X16852Y17600D01*
Y19900D01*
X16844Y19939D01*
X16822Y19972D01*
X16789Y19994D01*
X16750Y20002D01*
X15750D01*
X15711Y19994D01*
X15678Y19972D01*
X15656Y19939D01*
X15648Y19900D01*
Y19863D01*
X14702D01*
Y19900D01*
X14694Y19939D01*
X14672Y19972D01*
X14639Y19994D01*
X14600Y20002D01*
X13902D01*
Y22848D01*
X14077D01*
X14113Y22813D01*
X14113Y22798D01*
Y22496D01*
X14192D01*
Y22050D01*
X14196Y22026D01*
Y21813D01*
X14513D01*
Y22026D01*
X14518Y22050D01*
Y22496D01*
X14587D01*
X14587Y22804D01*
X14592Y22819D01*
X14616Y22851D01*
X14639Y22856D01*
X14672Y22878D01*
X14694Y22911D01*
X14702Y22950D01*
Y23047D01*
X14860D01*
Y23245D01*
Y23444D01*
X14702D01*
Y23867D01*
X14752Y23884D01*
X14814Y23843D01*
X14860Y23834D01*
Y24050D01*
Y24267D01*
X14814Y24257D01*
X14752Y24216D01*
X14702Y24233D01*
Y24537D01*
X15648D01*
Y23416D01*
X15298D01*
Y22979D01*
X15137Y22818D01*
X14900D01*
X14876Y22813D01*
X14663D01*
Y22496D01*
X14876D01*
X14900Y22492D01*
X15205D01*
X15267Y22504D01*
X15320Y22540D01*
X15591Y22811D01*
X15595Y22816D01*
X15648D01*
Y22600D01*
X15656Y22561D01*
X15678Y22528D01*
X15711Y22506D01*
X15750Y22498D01*
X16750D01*
X16789Y22506D01*
X16822Y22528D01*
X16844Y22561D01*
X16852Y22600D01*
Y24900D01*
X16844Y24939D01*
X16822Y24972D01*
X16789Y24994D01*
X16750Y25002D01*
X15750D01*
X15711Y24994D01*
X15678Y24972D01*
X15656Y24939D01*
X15648Y24900D01*
Y24863D01*
X14702D01*
Y24900D01*
X14694Y24939D01*
X14672Y24972D01*
X14639Y24994D01*
X14600Y25002D01*
X13902D01*
Y27848D01*
X14077D01*
X14113Y27813D01*
X14113Y27798D01*
Y27496D01*
X14192D01*
Y27050D01*
X14196Y27026D01*
Y26813D01*
X14513D01*
Y27026D01*
X14518Y27050D01*
Y27496D01*
X14587D01*
X14587Y27804D01*
X14592Y27819D01*
X14616Y27851D01*
X14639Y27856D01*
X14672Y27878D01*
X14694Y27911D01*
X14702Y27950D01*
Y28047D01*
X14860D01*
Y28245D01*
Y28444D01*
X14702D01*
Y28867D01*
X14752Y28884D01*
X14814Y28843D01*
X14860Y28834D01*
Y29050D01*
Y29267D01*
X14814Y29257D01*
X14752Y29216D01*
X14702Y29233D01*
Y29537D01*
X15648D01*
Y28416D01*
X15298D01*
Y27979D01*
X15137Y27818D01*
X14900D01*
X14876Y27813D01*
X14663D01*
Y27496D01*
X14876D01*
X14900Y27492D01*
X15205D01*
X15267Y27504D01*
X15320Y27540D01*
X15591Y27811D01*
X15595Y27816D01*
X15648D01*
Y27600D01*
X15656Y27561D01*
X15678Y27528D01*
X15711Y27506D01*
X15750Y27498D01*
X16750D01*
X16789Y27506D01*
X16822Y27528D01*
X16844Y27561D01*
X16852Y27600D01*
Y29900D01*
X16844Y29939D01*
X16822Y29972D01*
X16789Y29994D01*
X16750Y30002D01*
D02*
G37*
G36*
X18065Y29377D02*
X17906D01*
Y29349D01*
X17856Y29313D01*
X17840Y29316D01*
Y29100D01*
Y28884D01*
X17856Y28887D01*
X17906Y28851D01*
Y28823D01*
X18065D01*
Y29100D01*
Y29377D01*
D02*
G37*
G36*
X15238Y29445D02*
X14981D01*
Y29298D01*
X14942Y29266D01*
X14940Y29267D01*
Y29050D01*
Y28834D01*
X14942Y28834D01*
X14981Y28802D01*
Y28655D01*
X15238D01*
Y29050D01*
Y29445D01*
D02*
G37*
G36*
X19690Y29342D02*
X18980D01*
Y29263D01*
X18854D01*
Y29337D01*
X18537D01*
Y29124D01*
X18532Y29100D01*
X18537Y29076D01*
Y28863D01*
X18854D01*
Y28937D01*
X18980D01*
Y28593D01*
X19690D01*
Y29342D01*
D02*
G37*
G36*
X18303Y29377D02*
X18145D01*
Y29140D01*
X18303D01*
Y29377D01*
D02*
G37*
G36*
X17760Y29316D02*
X17714Y29307D01*
X17642Y29259D01*
X17593Y29186D01*
X17584Y29140D01*
X17760D01*
Y29316D01*
D02*
G37*
G36*
X15575Y29445D02*
X15318D01*
Y29090D01*
X15575D01*
Y29445D01*
D02*
G37*
G36*
X7319Y29345D02*
X7063D01*
Y28990D01*
X7319D01*
Y29345D01*
D02*
G37*
G36*
X6983D02*
X6726D01*
Y28990D01*
X6983D01*
Y29345D01*
D02*
G37*
G36*
X2348Y29408D02*
X1993D01*
Y28954D01*
X2348D01*
Y29408D01*
D02*
G37*
G36*
X1913D02*
X1557D01*
Y28954D01*
X1913D01*
Y29408D01*
D02*
G37*
G36*
X20793D02*
X20438D01*
Y28954D01*
X20793D01*
Y29408D01*
D02*
G37*
G36*
X20358D02*
X20003D01*
Y28954D01*
X20358D01*
Y29408D01*
D02*
G37*
G36*
X17760Y29060D02*
X17584D01*
X17593Y29014D01*
X17642Y28942D01*
X17714Y28893D01*
X17760Y28884D01*
Y29060D01*
D02*
G37*
G36*
X18303D02*
X18145D01*
Y28823D01*
X18303D01*
Y29060D01*
D02*
G37*
G36*
X15575Y29010D02*
X15318D01*
Y28655D01*
X15575D01*
Y29010D01*
D02*
G37*
G36*
X7319Y28910D02*
X7063D01*
Y28555D01*
X7319D01*
Y28910D01*
D02*
G37*
G36*
X6983D02*
X6726D01*
Y28555D01*
X6983D01*
Y28910D01*
D02*
G37*
G36*
X20793Y28874D02*
X20438D01*
Y28421D01*
X20793D01*
Y28874D01*
D02*
G37*
G36*
X20358D02*
X20003D01*
Y28421D01*
X20358D01*
Y28874D01*
D02*
G37*
G36*
X2348Y28874D02*
X1993D01*
Y28421D01*
X2348D01*
Y28874D01*
D02*
G37*
G36*
X1913D02*
X1557D01*
Y28421D01*
X1913D01*
Y28874D01*
D02*
G37*
G36*
X15177Y28444D02*
X14940D01*
Y28285D01*
X15177D01*
Y28444D01*
D02*
G37*
G36*
Y28205D02*
X14940D01*
Y28047D01*
X15177D01*
Y28205D01*
D02*
G37*
G36*
X6718Y28356D02*
X6540D01*
Y28016D01*
Y27676D01*
X6718D01*
Y27716D01*
X7052D01*
Y27887D01*
X7246D01*
Y27813D01*
X7563D01*
Y28026D01*
X7568Y28050D01*
X7563Y28074D01*
Y28287D01*
X7246D01*
Y28213D01*
X7052D01*
Y28316D01*
X6718D01*
Y28356D01*
D02*
G37*
G36*
X4867Y29342D02*
X4156D01*
Y28593D01*
X4867D01*
Y28787D01*
X5821D01*
Y28595D01*
X5915D01*
Y28064D01*
X5927Y28002D01*
X5948Y27970D01*
Y27716D01*
X6282D01*
Y27676D01*
X6460D01*
Y28016D01*
Y28356D01*
X6282D01*
X6241Y28377D01*
Y28595D01*
X6335D01*
Y29305D01*
X5821D01*
Y29113D01*
X4867D01*
Y29342D01*
D02*
G37*
G36*
X17347Y27869D02*
X17264Y27858D01*
X17187Y27826D01*
X17121Y27775D01*
X17071Y27709D01*
X17039Y27633D01*
X17028Y27550D01*
X17039Y27468D01*
X17071Y27391D01*
X17121Y27325D01*
X17187Y27274D01*
X17264Y27242D01*
X17347Y27232D01*
X17429Y27242D01*
X17506Y27274D01*
X17572Y27325D01*
X17623Y27391D01*
X17654Y27468D01*
X17665Y27550D01*
X17654Y27633D01*
X17623Y27709D01*
X17572Y27775D01*
X17506Y27826D01*
X17429Y27858D01*
X17347Y27869D01*
D02*
G37*
G36*
X5004D02*
X4921Y27858D01*
X4844Y27826D01*
X4778Y27775D01*
X4728Y27709D01*
X4696Y27633D01*
X4685Y27550D01*
X4696Y27468D01*
X4728Y27391D01*
X4778Y27325D01*
X4844Y27274D01*
X4921Y27242D01*
X5004Y27232D01*
X5086Y27242D01*
X5163Y27274D01*
X5229Y27325D01*
X5280Y27391D01*
X5311Y27468D01*
X5322Y27550D01*
X5311Y27633D01*
X5280Y27709D01*
X5229Y27775D01*
X5163Y27826D01*
X5086Y27858D01*
X5004Y27869D01*
D02*
G37*
G36*
X15810Y27425D02*
X15632D01*
Y27385D01*
X15298D01*
Y27213D01*
X15104D01*
Y27287D01*
X14787D01*
Y27074D01*
X14782Y27050D01*
X14787Y27026D01*
Y26813D01*
X15104D01*
Y26887D01*
X15298D01*
Y26784D01*
X15632D01*
Y26744D01*
X15810D01*
Y27084D01*
Y27425D01*
D02*
G37*
G36*
X20793Y26680D02*
X20438D01*
Y26226D01*
X20793D01*
Y26680D01*
D02*
G37*
G36*
X20358D02*
X20003D01*
Y26226D01*
X20358D01*
Y26680D01*
D02*
G37*
G36*
X2348D02*
X1993D01*
Y26226D01*
X2348D01*
Y26680D01*
D02*
G37*
G36*
X1913D02*
X1557D01*
Y26226D01*
X1913D01*
Y26680D01*
D02*
G37*
G36*
X15625Y26545D02*
X15368D01*
Y26190D01*
X15625D01*
Y26545D01*
D02*
G37*
G36*
X15288D02*
X15031D01*
Y26190D01*
X15288D01*
Y26545D01*
D02*
G37*
G36*
X4590Y26216D02*
Y26040D01*
X4766D01*
X4757Y26086D01*
X4709Y26159D01*
X4636Y26207D01*
X4590Y26216D01*
D02*
G37*
G36*
X4205Y26277D02*
X4047D01*
Y26040D01*
X4205D01*
Y26277D01*
D02*
G37*
G36*
X4766Y25960D02*
X4590D01*
Y25784D01*
X4636Y25793D01*
X4709Y25842D01*
X4757Y25914D01*
X4766Y25960D01*
D02*
G37*
G36*
X4444Y26277D02*
X4285D01*
Y26000D01*
Y25723D01*
X4444D01*
Y25751D01*
X4494Y25787D01*
X4510Y25784D01*
Y26000D01*
Y26216D01*
X4494Y26213D01*
X4444Y26249D01*
Y26277D01*
D02*
G37*
G36*
X3371Y26508D02*
X2660D01*
Y25758D01*
X3371D01*
Y25837D01*
X3496D01*
Y25763D01*
X3813D01*
Y25976D01*
X3818Y26000D01*
X3813Y26024D01*
Y26237D01*
X3496D01*
Y26163D01*
X3371D01*
Y26508D01*
D02*
G37*
G36*
X16068Y27425D02*
X15890D01*
Y27084D01*
Y26744D01*
X16068D01*
X16109Y26723D01*
Y26505D01*
X16016D01*
Y25795D01*
X16529D01*
Y25987D01*
X17483D01*
Y25758D01*
X18194D01*
Y26508D01*
X17483D01*
Y26313D01*
X16529D01*
Y26505D01*
X16436D01*
Y27036D01*
X16423Y27098D01*
X16402Y27130D01*
Y27385D01*
X16068D01*
Y27425D01*
D02*
G37*
G36*
X15625Y26110D02*
X15368D01*
Y25755D01*
X15625D01*
Y26110D01*
D02*
G37*
G36*
X15288D02*
X15031D01*
Y25755D01*
X15288D01*
Y26110D01*
D02*
G37*
G36*
X4205Y25960D02*
X4047D01*
Y25723D01*
X4205D01*
Y25960D01*
D02*
G37*
G36*
X20793Y26146D02*
X20438D01*
Y25692D01*
X20793D01*
Y26146D01*
D02*
G37*
G36*
X20358D02*
X20003D01*
Y25692D01*
X20358D01*
Y26146D01*
D02*
G37*
G36*
X2348Y26146D02*
X1993D01*
Y25692D01*
X2348D01*
Y26146D01*
D02*
G37*
G36*
X1913D02*
X1557D01*
Y25692D01*
X1913D01*
Y26146D01*
D02*
G37*
G36*
X18065Y24377D02*
X17906D01*
Y24349D01*
X17856Y24313D01*
X17840Y24316D01*
Y24100D01*
Y23884D01*
X17856Y23887D01*
X17906Y23851D01*
Y23823D01*
X18065D01*
Y24100D01*
Y24377D01*
D02*
G37*
G36*
X15238Y24445D02*
X14981D01*
Y24298D01*
X14942Y24266D01*
X14940Y24267D01*
Y24050D01*
Y23834D01*
X14942Y23834D01*
X14981Y23802D01*
Y23655D01*
X15238D01*
Y24050D01*
Y24445D01*
D02*
G37*
G36*
X19690Y24342D02*
X18980D01*
Y24263D01*
X18854D01*
Y24337D01*
X18537D01*
Y24124D01*
X18532Y24100D01*
X18537Y24076D01*
Y23863D01*
X18854D01*
Y23937D01*
X18980D01*
Y23593D01*
X19690D01*
Y24342D01*
D02*
G37*
G36*
X18303Y24377D02*
X18145D01*
Y24140D01*
X18303D01*
Y24377D01*
D02*
G37*
G36*
X17760Y24316D02*
X17714Y24307D01*
X17642Y24259D01*
X17593Y24186D01*
X17584Y24140D01*
X17760D01*
Y24316D01*
D02*
G37*
G36*
X15575Y24445D02*
X15318D01*
Y24090D01*
X15575D01*
Y24445D01*
D02*
G37*
G36*
X7319Y24345D02*
X7063D01*
Y23990D01*
X7319D01*
Y24345D01*
D02*
G37*
G36*
X6983D02*
X6726D01*
Y23990D01*
X6983D01*
Y24345D01*
D02*
G37*
G36*
X2348Y24408D02*
X1993D01*
Y23954D01*
X2348D01*
Y24408D01*
D02*
G37*
G36*
X1913D02*
X1557D01*
Y23954D01*
X1913D01*
Y24408D01*
D02*
G37*
G36*
X20793D02*
X20438D01*
Y23954D01*
X20793D01*
Y24408D01*
D02*
G37*
G36*
X20358D02*
X20003D01*
Y23954D01*
X20358D01*
Y24408D01*
D02*
G37*
G36*
X17760Y24060D02*
X17584D01*
X17593Y24014D01*
X17642Y23942D01*
X17714Y23893D01*
X17760Y23884D01*
Y24060D01*
D02*
G37*
G36*
X18303D02*
X18145D01*
Y23823D01*
X18303D01*
Y24060D01*
D02*
G37*
G36*
X15575Y24010D02*
X15318D01*
Y23655D01*
X15575D01*
Y24010D01*
D02*
G37*
G36*
X7319Y23910D02*
X7063D01*
Y23555D01*
X7319D01*
Y23910D01*
D02*
G37*
G36*
X6983D02*
X6726D01*
Y23555D01*
X6983D01*
Y23910D01*
D02*
G37*
G36*
X20793Y23874D02*
X20438D01*
Y23421D01*
X20793D01*
Y23874D01*
D02*
G37*
G36*
X20358D02*
X20003D01*
Y23421D01*
X20358D01*
Y23874D01*
D02*
G37*
G36*
X2348Y23874D02*
X1993D01*
Y23421D01*
X2348D01*
Y23874D01*
D02*
G37*
G36*
X1913D02*
X1557D01*
Y23421D01*
X1913D01*
Y23874D01*
D02*
G37*
G36*
X15177Y23444D02*
X14940D01*
Y23285D01*
X15177D01*
Y23444D01*
D02*
G37*
G36*
Y23205D02*
X14940D01*
Y23047D01*
X15177D01*
Y23205D01*
D02*
G37*
G36*
X6718Y23356D02*
X6540D01*
Y23016D01*
Y22676D01*
X6718D01*
Y22716D01*
X7052D01*
Y22887D01*
X7246D01*
Y22813D01*
X7563D01*
Y23026D01*
X7568Y23050D01*
X7563Y23074D01*
Y23287D01*
X7246D01*
Y23213D01*
X7052D01*
Y23316D01*
X6718D01*
Y23356D01*
D02*
G37*
G36*
X4867Y24342D02*
X4156D01*
Y23593D01*
X4867D01*
Y23787D01*
X5821D01*
Y23595D01*
X5915D01*
Y23064D01*
X5927Y23002D01*
X5948Y22970D01*
Y22716D01*
X6282D01*
Y22676D01*
X6460D01*
Y23016D01*
Y23356D01*
X6282D01*
X6241Y23377D01*
Y23595D01*
X6335D01*
Y24305D01*
X5821D01*
Y24113D01*
X4867D01*
Y24342D01*
D02*
G37*
G36*
X17347Y22869D02*
X17264Y22858D01*
X17187Y22826D01*
X17121Y22775D01*
X17071Y22709D01*
X17039Y22633D01*
X17028Y22550D01*
X17039Y22468D01*
X17071Y22391D01*
X17121Y22325D01*
X17187Y22274D01*
X17264Y22242D01*
X17347Y22232D01*
X17429Y22242D01*
X17506Y22274D01*
X17572Y22325D01*
X17623Y22391D01*
X17654Y22468D01*
X17665Y22550D01*
X17654Y22633D01*
X17623Y22709D01*
X17572Y22775D01*
X17506Y22826D01*
X17429Y22858D01*
X17347Y22869D01*
D02*
G37*
G36*
X5004D02*
X4921Y22858D01*
X4844Y22826D01*
X4778Y22775D01*
X4728Y22709D01*
X4696Y22633D01*
X4685Y22550D01*
X4696Y22468D01*
X4728Y22391D01*
X4778Y22325D01*
X4844Y22274D01*
X4921Y22242D01*
X5004Y22232D01*
X5086Y22242D01*
X5163Y22274D01*
X5229Y22325D01*
X5280Y22391D01*
X5311Y22468D01*
X5322Y22550D01*
X5311Y22633D01*
X5280Y22709D01*
X5229Y22775D01*
X5163Y22826D01*
X5086Y22858D01*
X5004Y22869D01*
D02*
G37*
G36*
X15810Y22425D02*
X15632D01*
Y22385D01*
X15298D01*
Y22213D01*
X15104D01*
Y22287D01*
X14787D01*
Y22074D01*
X14782Y22050D01*
X14787Y22026D01*
Y21813D01*
X15104D01*
Y21887D01*
X15298D01*
Y21784D01*
X15632D01*
Y21744D01*
X15810D01*
Y22084D01*
Y22425D01*
D02*
G37*
G36*
X20793Y21680D02*
X20438D01*
Y21226D01*
X20793D01*
Y21680D01*
D02*
G37*
G36*
X20358D02*
X20003D01*
Y21226D01*
X20358D01*
Y21680D01*
D02*
G37*
G36*
X2348D02*
X1993D01*
Y21226D01*
X2348D01*
Y21680D01*
D02*
G37*
G36*
X1913D02*
X1557D01*
Y21226D01*
X1913D01*
Y21680D01*
D02*
G37*
G36*
X15625Y21545D02*
X15368D01*
Y21190D01*
X15625D01*
Y21545D01*
D02*
G37*
G36*
X15288D02*
X15031D01*
Y21190D01*
X15288D01*
Y21545D01*
D02*
G37*
G36*
X4590Y21216D02*
Y21040D01*
X4766D01*
X4757Y21086D01*
X4709Y21159D01*
X4636Y21207D01*
X4590Y21216D01*
D02*
G37*
G36*
X4205Y21277D02*
X4047D01*
Y21040D01*
X4205D01*
Y21277D01*
D02*
G37*
G36*
X4766Y20960D02*
X4590D01*
Y20784D01*
X4636Y20793D01*
X4709Y20842D01*
X4757Y20914D01*
X4766Y20960D01*
D02*
G37*
G36*
X4444Y21277D02*
X4285D01*
Y21000D01*
Y20723D01*
X4444D01*
Y20751D01*
X4494Y20787D01*
X4510Y20784D01*
Y21000D01*
Y21216D01*
X4494Y21213D01*
X4444Y21249D01*
Y21277D01*
D02*
G37*
G36*
X3371Y21508D02*
X2660D01*
Y20758D01*
X3371D01*
Y20837D01*
X3496D01*
Y20763D01*
X3813D01*
Y20976D01*
X3818Y21000D01*
X3813Y21024D01*
Y21237D01*
X3496D01*
Y21163D01*
X3371D01*
Y21508D01*
D02*
G37*
G36*
X16068Y22425D02*
X15890D01*
Y22084D01*
Y21744D01*
X16068D01*
X16109Y21723D01*
Y21505D01*
X16016D01*
Y20795D01*
X16529D01*
Y20987D01*
X17483D01*
Y20758D01*
X18194D01*
Y21508D01*
X17483D01*
Y21313D01*
X16529D01*
Y21505D01*
X16436D01*
Y22036D01*
X16423Y22098D01*
X16402Y22130D01*
Y22385D01*
X16068D01*
Y22425D01*
D02*
G37*
G36*
X15625Y21110D02*
X15368D01*
Y20755D01*
X15625D01*
Y21110D01*
D02*
G37*
G36*
X15288D02*
X15031D01*
Y20755D01*
X15288D01*
Y21110D01*
D02*
G37*
G36*
X4205Y20960D02*
X4047D01*
Y20723D01*
X4205D01*
Y20960D01*
D02*
G37*
G36*
X20793Y21146D02*
X20438D01*
Y20692D01*
X20793D01*
Y21146D01*
D02*
G37*
G36*
X20358D02*
X20003D01*
Y20692D01*
X20358D01*
Y21146D01*
D02*
G37*
G36*
X2348Y21146D02*
X1993D01*
Y20692D01*
X2348D01*
Y21146D01*
D02*
G37*
G36*
X1913D02*
X1557D01*
Y20692D01*
X1913D01*
Y21146D01*
D02*
G37*
G36*
X18065Y19377D02*
X17906D01*
Y19349D01*
X17856Y19313D01*
X17840Y19317D01*
Y19100D01*
Y18884D01*
X17856Y18887D01*
X17906Y18851D01*
Y18823D01*
X18065D01*
Y19100D01*
Y19377D01*
D02*
G37*
G36*
X15238Y19445D02*
X14981D01*
Y19298D01*
X14942Y19266D01*
X14940Y19267D01*
Y19050D01*
Y18834D01*
X14942Y18834D01*
X14981Y18802D01*
Y18655D01*
X15238D01*
Y19050D01*
Y19445D01*
D02*
G37*
G36*
X19690Y19342D02*
X18980D01*
Y19263D01*
X18854D01*
Y19337D01*
X18537D01*
Y19124D01*
X18532Y19100D01*
X18537Y19076D01*
Y18863D01*
X18854D01*
Y18937D01*
X18980D01*
Y18593D01*
X19690D01*
Y19342D01*
D02*
G37*
G36*
X18303Y19377D02*
X18145D01*
Y19140D01*
X18303D01*
Y19377D01*
D02*
G37*
G36*
X17760Y19317D02*
X17714Y19307D01*
X17642Y19259D01*
X17593Y19186D01*
X17584Y19140D01*
X17760D01*
Y19317D01*
D02*
G37*
G36*
X15575Y19445D02*
X15318D01*
Y19090D01*
X15575D01*
Y19445D01*
D02*
G37*
G36*
X7319Y19345D02*
X7063D01*
Y18990D01*
X7319D01*
Y19345D01*
D02*
G37*
G36*
X6983D02*
X6726D01*
Y18990D01*
X6983D01*
Y19345D01*
D02*
G37*
G36*
X2348Y19408D02*
X1993D01*
Y18954D01*
X2348D01*
Y19408D01*
D02*
G37*
G36*
X1913D02*
X1557D01*
Y18954D01*
X1913D01*
Y19408D01*
D02*
G37*
G36*
X20793D02*
X20438D01*
Y18954D01*
X20793D01*
Y19408D01*
D02*
G37*
G36*
X20358D02*
X20003D01*
Y18954D01*
X20358D01*
Y19408D01*
D02*
G37*
G36*
X17760Y19060D02*
X17584D01*
X17593Y19014D01*
X17642Y18942D01*
X17714Y18893D01*
X17760Y18884D01*
Y19060D01*
D02*
G37*
G36*
X18303D02*
X18145D01*
Y18823D01*
X18303D01*
Y19060D01*
D02*
G37*
G36*
X15575Y19010D02*
X15318D01*
Y18655D01*
X15575D01*
Y19010D01*
D02*
G37*
G36*
X7319Y18910D02*
X7063D01*
Y18555D01*
X7319D01*
Y18910D01*
D02*
G37*
G36*
X6983D02*
X6726D01*
Y18555D01*
X6983D01*
Y18910D01*
D02*
G37*
G36*
X20793Y18874D02*
X20438D01*
Y18421D01*
X20793D01*
Y18874D01*
D02*
G37*
G36*
X20358D02*
X20003D01*
Y18421D01*
X20358D01*
Y18874D01*
D02*
G37*
G36*
X2348Y18874D02*
X1993D01*
Y18421D01*
X2348D01*
Y18874D01*
D02*
G37*
G36*
X1913D02*
X1557D01*
Y18421D01*
X1913D01*
Y18874D01*
D02*
G37*
G36*
X15177Y18444D02*
X14940D01*
Y18285D01*
X15177D01*
Y18444D01*
D02*
G37*
G36*
Y18205D02*
X14940D01*
Y18047D01*
X15177D01*
Y18205D01*
D02*
G37*
G36*
X6718Y18356D02*
X6540D01*
Y18016D01*
Y17676D01*
X6718D01*
Y17716D01*
X7052D01*
Y17887D01*
X7246D01*
Y17813D01*
X7563D01*
Y18026D01*
X7568Y18050D01*
X7563Y18074D01*
Y18287D01*
X7246D01*
Y18213D01*
X7052D01*
Y18316D01*
X6718D01*
Y18356D01*
D02*
G37*
G36*
X4867Y19342D02*
X4156D01*
Y18593D01*
X4867D01*
Y18787D01*
X5821D01*
Y18595D01*
X5915D01*
Y18064D01*
X5927Y18002D01*
X5948Y17970D01*
Y17716D01*
X6282D01*
Y17676D01*
X6460D01*
Y18016D01*
Y18356D01*
X6282D01*
X6241Y18377D01*
Y18595D01*
X6335D01*
Y19305D01*
X5821D01*
Y19113D01*
X4867D01*
Y19342D01*
D02*
G37*
G36*
X17347Y17869D02*
X17264Y17858D01*
X17187Y17826D01*
X17121Y17775D01*
X17071Y17709D01*
X17039Y17633D01*
X17028Y17550D01*
X17039Y17468D01*
X17071Y17391D01*
X17121Y17325D01*
X17187Y17274D01*
X17264Y17242D01*
X17347Y17232D01*
X17429Y17242D01*
X17506Y17274D01*
X17572Y17325D01*
X17623Y17391D01*
X17654Y17468D01*
X17665Y17550D01*
X17654Y17633D01*
X17623Y17709D01*
X17572Y17775D01*
X17506Y17826D01*
X17429Y17858D01*
X17347Y17869D01*
D02*
G37*
G36*
X5004D02*
X4921Y17858D01*
X4844Y17826D01*
X4778Y17775D01*
X4728Y17709D01*
X4696Y17633D01*
X4685Y17550D01*
X4696Y17468D01*
X4728Y17391D01*
X4778Y17325D01*
X4844Y17274D01*
X4921Y17242D01*
X5004Y17232D01*
X5086Y17242D01*
X5163Y17274D01*
X5229Y17325D01*
X5280Y17391D01*
X5311Y17468D01*
X5322Y17550D01*
X5311Y17633D01*
X5280Y17709D01*
X5229Y17775D01*
X5163Y17826D01*
X5086Y17858D01*
X5004Y17869D01*
D02*
G37*
G36*
X15810Y17425D02*
X15632D01*
Y17385D01*
X15298D01*
Y17213D01*
X15104D01*
Y17287D01*
X14787D01*
Y17074D01*
X14782Y17050D01*
X14787Y17026D01*
Y16813D01*
X15104D01*
Y16887D01*
X15298D01*
Y16784D01*
X15632D01*
Y16744D01*
X15810D01*
Y17084D01*
Y17425D01*
D02*
G37*
G36*
X20793Y16680D02*
X20438D01*
Y16226D01*
X20793D01*
Y16680D01*
D02*
G37*
G36*
X20358D02*
X20003D01*
Y16226D01*
X20358D01*
Y16680D01*
D02*
G37*
G36*
X2348D02*
X1993D01*
Y16226D01*
X2348D01*
Y16680D01*
D02*
G37*
G36*
X1913D02*
X1557D01*
Y16226D01*
X1913D01*
Y16680D01*
D02*
G37*
G36*
X15625Y16545D02*
X15368D01*
Y16190D01*
X15625D01*
Y16545D01*
D02*
G37*
G36*
X15288D02*
X15031D01*
Y16190D01*
X15288D01*
Y16545D01*
D02*
G37*
G36*
X4590Y16216D02*
Y16040D01*
X4766D01*
X4757Y16086D01*
X4709Y16159D01*
X4636Y16207D01*
X4590Y16216D01*
D02*
G37*
G36*
X4205Y16277D02*
X4047D01*
Y16040D01*
X4205D01*
Y16277D01*
D02*
G37*
G36*
X4766Y15960D02*
X4590D01*
Y15784D01*
X4636Y15793D01*
X4709Y15842D01*
X4757Y15914D01*
X4766Y15960D01*
D02*
G37*
G36*
X4444Y16277D02*
X4285D01*
Y16000D01*
Y15723D01*
X4444D01*
Y15751D01*
X4494Y15787D01*
X4510Y15784D01*
Y16000D01*
Y16216D01*
X4494Y16213D01*
X4444Y16249D01*
Y16277D01*
D02*
G37*
G36*
X3371Y16508D02*
X2660D01*
Y15758D01*
X3371D01*
Y15837D01*
X3496D01*
Y15763D01*
X3813D01*
Y15976D01*
X3818Y16000D01*
X3813Y16024D01*
Y16237D01*
X3496D01*
Y16163D01*
X3371D01*
Y16508D01*
D02*
G37*
G36*
X16068Y17425D02*
X15890D01*
Y17084D01*
Y16744D01*
X16068D01*
X16109Y16723D01*
Y16505D01*
X16016D01*
Y15795D01*
X16529D01*
Y15987D01*
X17483D01*
Y15758D01*
X18194D01*
Y16508D01*
X17483D01*
Y16313D01*
X16529D01*
Y16505D01*
X16436D01*
Y17036D01*
X16423Y17098D01*
X16402Y17130D01*
Y17385D01*
X16068D01*
Y17425D01*
D02*
G37*
G36*
X15625Y16110D02*
X15368D01*
Y15755D01*
X15625D01*
Y16110D01*
D02*
G37*
G36*
X15288D02*
X15031D01*
Y15755D01*
X15288D01*
Y16110D01*
D02*
G37*
G36*
X4205Y15960D02*
X4047D01*
Y15723D01*
X4205D01*
Y15960D01*
D02*
G37*
G36*
X20793Y16146D02*
X20438D01*
Y15692D01*
X20793D01*
Y16146D01*
D02*
G37*
G36*
X20358D02*
X20003D01*
Y15692D01*
X20358D01*
Y16146D01*
D02*
G37*
G36*
X2348Y16146D02*
X1993D01*
Y15692D01*
X2348D01*
Y16146D01*
D02*
G37*
G36*
X1913D02*
X1557D01*
Y15692D01*
X1913D01*
Y16146D01*
D02*
G37*
G36*
X18065Y14377D02*
X17906D01*
Y14349D01*
X17856Y14313D01*
X17840Y14317D01*
Y14100D01*
Y13884D01*
X17856Y13887D01*
X17906Y13851D01*
Y13823D01*
X18065D01*
Y14100D01*
Y14377D01*
D02*
G37*
G36*
X15238Y14445D02*
X14981D01*
Y14298D01*
X14942Y14266D01*
X14940Y14267D01*
Y14050D01*
Y13834D01*
X14942Y13834D01*
X14981Y13802D01*
Y13655D01*
X15238D01*
Y14050D01*
Y14445D01*
D02*
G37*
G36*
X19690Y14342D02*
X18980D01*
Y14263D01*
X18854D01*
Y14337D01*
X18537D01*
Y14124D01*
X18532Y14100D01*
X18537Y14076D01*
Y13863D01*
X18854D01*
Y13937D01*
X18980D01*
Y13593D01*
X19690D01*
Y14342D01*
D02*
G37*
G36*
X18303Y14377D02*
X18145D01*
Y14140D01*
X18303D01*
Y14377D01*
D02*
G37*
G36*
X17760Y14317D02*
X17714Y14307D01*
X17642Y14259D01*
X17593Y14186D01*
X17584Y14140D01*
X17760D01*
Y14317D01*
D02*
G37*
G36*
X15575Y14445D02*
X15318D01*
Y14090D01*
X15575D01*
Y14445D01*
D02*
G37*
G36*
X7319Y14345D02*
X7063D01*
Y13990D01*
X7319D01*
Y14345D01*
D02*
G37*
G36*
X6983D02*
X6726D01*
Y13990D01*
X6983D01*
Y14345D01*
D02*
G37*
G36*
X2348Y14408D02*
X1993D01*
Y13954D01*
X2348D01*
Y14408D01*
D02*
G37*
G36*
X1913D02*
X1557D01*
Y13954D01*
X1913D01*
Y14408D01*
D02*
G37*
G36*
X20793D02*
X20438D01*
Y13954D01*
X20793D01*
Y14408D01*
D02*
G37*
G36*
X20358D02*
X20003D01*
Y13954D01*
X20358D01*
Y14408D01*
D02*
G37*
G36*
X17760Y14060D02*
X17584D01*
X17593Y14014D01*
X17642Y13942D01*
X17714Y13893D01*
X17760Y13884D01*
Y14060D01*
D02*
G37*
G36*
X18303D02*
X18145D01*
Y13823D01*
X18303D01*
Y14060D01*
D02*
G37*
G36*
X15575Y14010D02*
X15318D01*
Y13655D01*
X15575D01*
Y14010D01*
D02*
G37*
G36*
X7319Y13910D02*
X7063D01*
Y13555D01*
X7319D01*
Y13910D01*
D02*
G37*
G36*
X6983D02*
X6726D01*
Y13555D01*
X6983D01*
Y13910D01*
D02*
G37*
G36*
X20793Y13874D02*
X20438D01*
Y13421D01*
X20793D01*
Y13874D01*
D02*
G37*
G36*
X20358D02*
X20003D01*
Y13421D01*
X20358D01*
Y13874D01*
D02*
G37*
G36*
X2348Y13874D02*
X1993D01*
Y13421D01*
X2348D01*
Y13874D01*
D02*
G37*
G36*
X1913D02*
X1557D01*
Y13421D01*
X1913D01*
Y13874D01*
D02*
G37*
G36*
X15177Y13444D02*
X14940D01*
Y13285D01*
X15177D01*
Y13444D01*
D02*
G37*
G36*
Y13205D02*
X14940D01*
Y13047D01*
X15177D01*
Y13205D01*
D02*
G37*
G36*
X6718Y13356D02*
X6540D01*
Y13016D01*
Y12676D01*
X6718D01*
Y12716D01*
X7052D01*
Y12887D01*
X7246D01*
Y12813D01*
X7563D01*
Y13026D01*
X7568Y13050D01*
X7563Y13074D01*
Y13287D01*
X7246D01*
Y13213D01*
X7052D01*
Y13316D01*
X6718D01*
Y13356D01*
D02*
G37*
G36*
X4867Y14342D02*
X4156D01*
Y13593D01*
X4867D01*
Y13787D01*
X5821D01*
Y13595D01*
X5915D01*
Y13064D01*
X5927Y13002D01*
X5948Y12970D01*
Y12716D01*
X6282D01*
Y12676D01*
X6460D01*
Y13016D01*
Y13356D01*
X6282D01*
X6241Y13377D01*
Y13595D01*
X6335D01*
Y14305D01*
X5821D01*
Y14113D01*
X4867D01*
Y14342D01*
D02*
G37*
G36*
X12834Y13220D02*
X12390D01*
Y12471D01*
X12834D01*
Y13220D01*
D02*
G37*
G36*
X12310D02*
X11866D01*
Y12471D01*
X12310D01*
Y13220D01*
D02*
G37*
G36*
X17347Y12869D02*
X17264Y12858D01*
X17187Y12826D01*
X17121Y12775D01*
X17071Y12709D01*
X17039Y12633D01*
X17028Y12550D01*
X17039Y12468D01*
X17071Y12391D01*
X17121Y12325D01*
X17187Y12274D01*
X17264Y12242D01*
X17347Y12232D01*
X17429Y12242D01*
X17506Y12274D01*
X17572Y12325D01*
X17623Y12391D01*
X17654Y12468D01*
X17665Y12550D01*
X17654Y12633D01*
X17623Y12709D01*
X17572Y12775D01*
X17506Y12826D01*
X17429Y12858D01*
X17347Y12869D01*
D02*
G37*
G36*
X5004D02*
X4921Y12858D01*
X4844Y12826D01*
X4778Y12775D01*
X4728Y12709D01*
X4696Y12633D01*
X4685Y12550D01*
X4696Y12468D01*
X4728Y12391D01*
X4778Y12325D01*
X4844Y12274D01*
X4921Y12242D01*
X5004Y12232D01*
X5086Y12242D01*
X5163Y12274D01*
X5229Y12325D01*
X5280Y12391D01*
X5311Y12468D01*
X5322Y12550D01*
X5311Y12633D01*
X5280Y12709D01*
X5229Y12775D01*
X5163Y12826D01*
X5086Y12858D01*
X5004Y12869D01*
D02*
G37*
G36*
X15810Y12425D02*
X15632D01*
Y12385D01*
X15298D01*
Y12213D01*
X15104D01*
Y12287D01*
X14787D01*
Y12074D01*
X14782Y12050D01*
X14787Y12026D01*
Y11813D01*
X15104D01*
Y11887D01*
X15298D01*
Y11784D01*
X15632D01*
Y11744D01*
X15810D01*
Y12084D01*
Y12425D01*
D02*
G37*
G36*
X12834Y12391D02*
X12390D01*
Y11642D01*
X12834D01*
Y12391D01*
D02*
G37*
G36*
X12310D02*
X11866D01*
Y11642D01*
X12310D01*
Y12391D01*
D02*
G37*
G36*
X11313Y11468D02*
X10996D01*
Y11394D01*
X10904D01*
Y11468D01*
X10587D01*
Y11255D01*
X10582Y11231D01*
X10587Y11208D01*
Y11008D01*
X10587Y10994D01*
X10552Y10958D01*
X10547D01*
Y10721D01*
X10745D01*
X10944D01*
Y10958D01*
X10938D01*
X10904Y10994D01*
X10904Y11008D01*
Y11068D01*
X10996D01*
Y10994D01*
X11313D01*
Y11208D01*
X11318Y11231D01*
X11313Y11255D01*
Y11468D01*
D02*
G37*
G36*
X11944Y11508D02*
X11785D01*
Y11271D01*
X11944D01*
Y11508D01*
D02*
G37*
G36*
X11705D02*
X11547D01*
Y11271D01*
X11705D01*
Y11508D01*
D02*
G37*
G36*
X20793Y11680D02*
X20438D01*
Y11226D01*
X20793D01*
Y11680D01*
D02*
G37*
G36*
X20358D02*
X20003D01*
Y11226D01*
X20358D01*
Y11680D01*
D02*
G37*
G36*
X2348D02*
X1993D01*
Y11226D01*
X2348D01*
Y11680D01*
D02*
G37*
G36*
X1913D02*
X1557D01*
Y11226D01*
X1913D01*
Y11680D01*
D02*
G37*
G36*
X15625Y11545D02*
X15368D01*
Y11190D01*
X15625D01*
Y11545D01*
D02*
G37*
G36*
X15288D02*
X15031D01*
Y11190D01*
X15288D01*
Y11545D01*
D02*
G37*
G36*
X4590Y11216D02*
Y11040D01*
X4766D01*
X4757Y11086D01*
X4709Y11159D01*
X4636Y11207D01*
X4590Y11216D01*
D02*
G37*
G36*
X4205Y11277D02*
X4047D01*
Y11040D01*
X4205D01*
Y11277D01*
D02*
G37*
G36*
X11944Y11191D02*
X11785D01*
Y10954D01*
X11944D01*
Y11191D01*
D02*
G37*
G36*
X11705D02*
X11547D01*
Y10954D01*
X11705D01*
Y11191D01*
D02*
G37*
G36*
X4766Y10960D02*
X4590D01*
Y10784D01*
X4636Y10793D01*
X4709Y10842D01*
X4757Y10914D01*
X4766Y10960D01*
D02*
G37*
G36*
X4444Y11277D02*
X4285D01*
Y11000D01*
Y10723D01*
X4444D01*
Y10751D01*
X4494Y10787D01*
X4510Y10784D01*
Y11000D01*
Y11216D01*
X4494Y11213D01*
X4444Y11249D01*
Y11277D01*
D02*
G37*
G36*
X3371Y11508D02*
X2660D01*
Y10758D01*
X3371D01*
Y10837D01*
X3496D01*
Y10763D01*
X3813D01*
Y10976D01*
X3818Y11000D01*
X3813Y11024D01*
Y11237D01*
X3496D01*
Y11163D01*
X3371D01*
Y11508D01*
D02*
G37*
G36*
X16068Y12425D02*
X15890D01*
Y12084D01*
Y11744D01*
X16068D01*
X16109Y11723D01*
Y11505D01*
X16016D01*
Y10795D01*
X16529D01*
Y10987D01*
X17483D01*
Y10758D01*
X18194D01*
Y11508D01*
X17483D01*
Y11313D01*
X16529D01*
Y11505D01*
X16436D01*
Y12036D01*
X16423Y12098D01*
X16402Y12130D01*
Y12385D01*
X16068D01*
Y12425D01*
D02*
G37*
G36*
X15625Y11110D02*
X15368D01*
Y10755D01*
X15625D01*
Y11110D01*
D02*
G37*
G36*
X15288D02*
X15031D01*
Y10755D01*
X15288D01*
Y11110D01*
D02*
G37*
G36*
X4205Y10960D02*
X4047D01*
Y10723D01*
X4205D01*
Y10960D01*
D02*
G37*
G36*
X20793Y11146D02*
X20438D01*
Y10692D01*
X20793D01*
Y11146D01*
D02*
G37*
G36*
X20358D02*
X20003D01*
Y10692D01*
X20358D01*
Y11146D01*
D02*
G37*
G36*
X2348Y11146D02*
X1993D01*
Y10692D01*
X2348D01*
Y11146D01*
D02*
G37*
G36*
X1913D02*
X1557D01*
Y10692D01*
X1913D01*
Y11146D01*
D02*
G37*
G36*
X10944Y10641D02*
X10745D01*
X10547D01*
Y10404D01*
Y10171D01*
X10745D01*
X10944D01*
Y10404D01*
Y10641D01*
D02*
G37*
G36*
Y10091D02*
X10785D01*
Y9854D01*
X10944D01*
Y10091D01*
D02*
G37*
G36*
X11944Y9808D02*
X11785D01*
Y9571D01*
X11944D01*
Y9808D01*
D02*
G37*
G36*
X18065Y9377D02*
X17906D01*
Y9349D01*
X17856Y9313D01*
X17840Y9316D01*
Y9100D01*
Y8884D01*
X17856Y8887D01*
X17906Y8851D01*
Y8823D01*
X18065D01*
Y9100D01*
Y9377D01*
D02*
G37*
G36*
X15238Y9445D02*
X14981D01*
Y9298D01*
X14942Y9266D01*
X14940Y9266D01*
Y9050D01*
Y8834D01*
X14942Y8834D01*
X14981Y8802D01*
Y8655D01*
X15238D01*
Y9050D01*
Y9445D01*
D02*
G37*
G36*
X19690Y9342D02*
X18980D01*
Y9263D01*
X18854D01*
Y9337D01*
X18537D01*
Y9124D01*
X18532Y9100D01*
X18537Y9076D01*
Y8863D01*
X18854D01*
Y8937D01*
X18980D01*
Y8593D01*
X19690D01*
Y9342D01*
D02*
G37*
G36*
X11944Y9491D02*
X11785D01*
Y9254D01*
X11944D01*
Y9491D01*
D02*
G37*
G36*
X18303Y9377D02*
X18145D01*
Y9140D01*
X18303D01*
Y9377D01*
D02*
G37*
G36*
X17760Y9316D02*
X17714Y9307D01*
X17642Y9259D01*
X17593Y9186D01*
X17584Y9140D01*
X17760D01*
Y9316D01*
D02*
G37*
G36*
X15575Y9445D02*
X15318D01*
Y9090D01*
X15575D01*
Y9445D01*
D02*
G37*
G36*
X7319Y9345D02*
X7063D01*
Y8990D01*
X7319D01*
Y9345D01*
D02*
G37*
G36*
X6983D02*
X6726D01*
Y8990D01*
X6983D01*
Y9345D01*
D02*
G37*
G36*
X20793Y9408D02*
X20438D01*
Y8954D01*
X20793D01*
Y9408D01*
D02*
G37*
G36*
X2348D02*
X1993D01*
Y8954D01*
X2348D01*
Y9408D01*
D02*
G37*
G36*
X1913D02*
X1557D01*
Y8954D01*
X1913D01*
Y9408D01*
D02*
G37*
G36*
X20358D02*
X20003D01*
Y8954D01*
X20358D01*
Y9408D01*
D02*
G37*
G36*
X17760Y9060D02*
X17584D01*
X17593Y9014D01*
X17642Y8942D01*
X17714Y8893D01*
X17760Y8884D01*
Y9060D01*
D02*
G37*
G36*
X18303D02*
X18145D01*
Y8823D01*
X18303D01*
Y9060D01*
D02*
G37*
G36*
X15575Y9010D02*
X15318D01*
Y8655D01*
X15575D01*
Y9010D01*
D02*
G37*
G36*
X7319Y8910D02*
X7063D01*
Y8555D01*
X7319D01*
Y8910D01*
D02*
G37*
G36*
X6983D02*
X6726D01*
Y8555D01*
X6983D01*
Y8910D01*
D02*
G37*
G36*
X20793Y8874D02*
X20438D01*
Y8421D01*
X20793D01*
Y8874D01*
D02*
G37*
G36*
X20358D02*
X20003D01*
Y8421D01*
X20358D01*
Y8874D01*
D02*
G37*
G36*
X2348D02*
X1993D01*
Y8421D01*
X2348D01*
Y8874D01*
D02*
G37*
G36*
X1913D02*
X1557D01*
Y8421D01*
X1913D01*
Y8874D01*
D02*
G37*
G36*
X15177Y8444D02*
X14940D01*
Y8285D01*
X15177D01*
Y8444D01*
D02*
G37*
G36*
Y8205D02*
X14940D01*
Y8047D01*
X15177D01*
Y8205D01*
D02*
G37*
G36*
X6718Y8356D02*
X6540D01*
Y8016D01*
Y7676D01*
X6718D01*
Y7716D01*
X7052D01*
Y7887D01*
X7246D01*
Y7813D01*
X7563D01*
Y8026D01*
X7568Y8050D01*
X7563Y8074D01*
Y8287D01*
X7246D01*
Y8213D01*
X7052D01*
Y8316D01*
X6718D01*
Y8356D01*
D02*
G37*
G36*
X4867Y9342D02*
X4156D01*
Y8593D01*
X4867D01*
Y8787D01*
X5821D01*
Y8595D01*
X5915D01*
Y8064D01*
X5927Y8002D01*
X5948Y7970D01*
Y7716D01*
X6282D01*
Y7676D01*
X6460D01*
Y8016D01*
Y8356D01*
X6282D01*
X6241Y8377D01*
Y8595D01*
X6335D01*
Y9305D01*
X5821D01*
Y9113D01*
X4867D01*
Y9342D01*
D02*
G37*
G36*
X12811Y7964D02*
X12317D01*
Y7471D01*
X12811D01*
Y7964D01*
D02*
G37*
G36*
X17347Y7869D02*
X17264Y7858D01*
X17187Y7826D01*
X17121Y7775D01*
X17071Y7709D01*
X17039Y7633D01*
X17028Y7550D01*
X17039Y7468D01*
X17071Y7391D01*
X17121Y7325D01*
X17187Y7274D01*
X17264Y7242D01*
X17347Y7232D01*
X17429Y7242D01*
X17506Y7274D01*
X17572Y7325D01*
X17623Y7391D01*
X17654Y7468D01*
X17665Y7550D01*
X17654Y7633D01*
X17623Y7709D01*
X17572Y7775D01*
X17506Y7826D01*
X17429Y7858D01*
X17347Y7869D01*
D02*
G37*
G36*
X5004D02*
X4921Y7858D01*
X4844Y7826D01*
X4778Y7775D01*
X4728Y7709D01*
X4696Y7633D01*
X4685Y7550D01*
X4696Y7468D01*
X4728Y7391D01*
X4778Y7325D01*
X4844Y7274D01*
X4921Y7242D01*
X5004Y7232D01*
X5086Y7242D01*
X5163Y7274D01*
X5229Y7325D01*
X5280Y7391D01*
X5311Y7468D01*
X5322Y7550D01*
X5311Y7633D01*
X5280Y7709D01*
X5229Y7775D01*
X5163Y7826D01*
X5086Y7858D01*
X5004Y7869D01*
D02*
G37*
G36*
X15810Y7425D02*
X15632D01*
Y7385D01*
X15298D01*
Y7213D01*
X15104D01*
Y7287D01*
X14787D01*
Y7074D01*
X14782Y7050D01*
X14787Y7026D01*
Y6813D01*
X15104D01*
Y6887D01*
X15298D01*
Y6784D01*
X15632D01*
Y6744D01*
X15810D01*
Y7084D01*
Y7425D01*
D02*
G37*
G36*
X13384Y7391D02*
X12891D01*
Y6898D01*
X13384D01*
Y7391D01*
D02*
G37*
G36*
X12811D02*
X12317D01*
Y6898D01*
X12811D01*
Y7391D01*
D02*
G37*
G36*
X14587Y7813D02*
X14113D01*
Y7496D01*
X14192D01*
Y7050D01*
X14196Y7026D01*
Y6813D01*
X14513D01*
Y7026D01*
X14518Y7050D01*
Y7496D01*
X14587D01*
Y7813D01*
D02*
G37*
G36*
X11533Y6783D02*
X11040D01*
Y6290D01*
X11533D01*
Y6783D01*
D02*
G37*
G36*
X10960D02*
X10467D01*
Y6290D01*
X10960D01*
Y6783D01*
D02*
G37*
G36*
X20793Y6680D02*
X20438D01*
Y6226D01*
X20793D01*
Y6680D01*
D02*
G37*
G36*
X2348D02*
X1993D01*
Y6226D01*
X2348D01*
Y6680D01*
D02*
G37*
G36*
X1913D02*
X1557D01*
Y6226D01*
X1913D01*
Y6680D01*
D02*
G37*
G36*
X20358D02*
X20003D01*
Y6226D01*
X20358D01*
Y6680D01*
D02*
G37*
G36*
X15625Y6545D02*
X15368D01*
Y6190D01*
X15625D01*
Y6545D01*
D02*
G37*
G36*
X15288D02*
X15031D01*
Y6190D01*
X15288D01*
Y6545D01*
D02*
G37*
G36*
X4590Y6216D02*
Y6040D01*
X4766D01*
X4757Y6086D01*
X4709Y6159D01*
X4636Y6207D01*
X4590Y6216D01*
D02*
G37*
G36*
X4205Y6277D02*
X4047D01*
Y6040D01*
X4205D01*
Y6277D01*
D02*
G37*
G36*
X4766Y5960D02*
X4590D01*
Y5784D01*
X4636Y5793D01*
X4709Y5842D01*
X4757Y5914D01*
X4766Y5960D01*
D02*
G37*
G36*
X4444Y6277D02*
X4285D01*
Y6000D01*
Y5723D01*
X4444D01*
Y5751D01*
X4494Y5787D01*
X4510Y5784D01*
Y6000D01*
Y6216D01*
X4494Y6213D01*
X4444Y6249D01*
Y6277D01*
D02*
G37*
G36*
X3371Y6508D02*
X2660D01*
Y5758D01*
X3371D01*
Y5837D01*
X3496D01*
Y5763D01*
X3813D01*
Y5976D01*
X3818Y6000D01*
X3813Y6024D01*
Y6237D01*
X3496D01*
Y6163D01*
X3371D01*
Y6508D01*
D02*
G37*
G36*
X16068Y7425D02*
X15890D01*
Y7084D01*
Y6744D01*
X16068D01*
X16109Y6723D01*
Y6505D01*
X16016D01*
Y5795D01*
X16529D01*
Y5987D01*
X17483D01*
Y5758D01*
X18194D01*
Y6508D01*
X17483D01*
Y6313D01*
X16529D01*
Y6505D01*
X16436D01*
Y7036D01*
X16423Y7098D01*
X16402Y7130D01*
Y7385D01*
X16068D01*
Y7425D01*
D02*
G37*
G36*
X15625Y6110D02*
X15368D01*
Y5755D01*
X15625D01*
Y6110D01*
D02*
G37*
G36*
X15288D02*
X15031D01*
Y5755D01*
X15288D01*
Y6110D01*
D02*
G37*
G36*
X4205Y5960D02*
X4047D01*
Y5723D01*
X4205D01*
Y5960D01*
D02*
G37*
G36*
X11533Y6210D02*
X11040D01*
Y5717D01*
X11533D01*
Y6210D01*
D02*
G37*
G36*
X10960D02*
X10467D01*
Y5717D01*
X10960D01*
Y6210D01*
D02*
G37*
G36*
X20793Y6146D02*
X20438D01*
Y5692D01*
X20793D01*
Y6146D01*
D02*
G37*
G36*
X20358D02*
X20003D01*
Y5692D01*
X20358D01*
Y6146D01*
D02*
G37*
G36*
X2348D02*
X1993D01*
Y5692D01*
X2348D01*
Y6146D01*
D02*
G37*
G36*
X1913D02*
X1557D01*
Y5692D01*
X1913D01*
Y6146D01*
D02*
G37*
G36*
X21250Y4999D02*
X21104Y4984D01*
X20964Y4942D01*
X20834Y4873D01*
X20721Y4779D01*
X20628Y4666D01*
X20559Y4537D01*
X20516Y4396D01*
X20502Y4250D01*
X20516Y4104D01*
X20559Y3964D01*
X20628Y3834D01*
X20721Y3721D01*
X20834Y3628D01*
X20964Y3559D01*
X21104Y3516D01*
X21250Y3502D01*
X21396Y3516D01*
X21537Y3559D01*
X21666Y3628D01*
X21779Y3721D01*
X21873Y3834D01*
X21942Y3964D01*
X21984Y4104D01*
X21999Y4250D01*
X21984Y4396D01*
X21942Y4537D01*
X21873Y4666D01*
X21779Y4779D01*
X21666Y4873D01*
X21537Y4942D01*
X21396Y4984D01*
X21250Y4999D01*
D02*
G37*
G36*
X1250D02*
X1104Y4984D01*
X964Y4942D01*
X834Y4873D01*
X721Y4779D01*
X628Y4666D01*
X559Y4537D01*
X516Y4396D01*
X502Y4250D01*
X516Y4104D01*
X559Y3964D01*
X628Y3834D01*
X721Y3721D01*
X834Y3628D01*
X964Y3559D01*
X1104Y3516D01*
X1250Y3502D01*
X1396Y3516D01*
X1537Y3559D01*
X1666Y3628D01*
X1779Y3721D01*
X1873Y3834D01*
X1942Y3964D01*
X1984Y4104D01*
X1999Y4250D01*
X1984Y4396D01*
X1942Y4537D01*
X1873Y4666D01*
X1779Y4779D01*
X1666Y4873D01*
X1537Y4942D01*
X1396Y4984D01*
X1250Y4999D01*
D02*
G37*
%LPD*%
G36*
X16750Y27600D02*
X15750D01*
Y29900D01*
X16750D01*
Y27600D01*
D02*
G37*
G36*
X7640Y27287D02*
X7642Y27287D01*
X7642Y27287D01*
X7645Y27287D01*
X7675Y27285D01*
X7684Y27243D01*
X7683Y27235D01*
X7663Y27222D01*
X7628Y27187D01*
X7606Y27154D01*
X7598Y27115D01*
Y27094D01*
X7578Y27068D01*
X7556Y27053D01*
X7555Y27053D01*
X7490D01*
Y26855D01*
Y26656D01*
X7555D01*
X7556Y26656D01*
X7578Y26642D01*
X7598Y26616D01*
Y26269D01*
X7554Y26245D01*
X7536Y26257D01*
X7490Y26267D01*
Y26050D01*
Y25834D01*
X7536Y25843D01*
X7554Y25855D01*
X7598Y25831D01*
Y25563D01*
X6702D01*
Y26684D01*
X7052D01*
Y27122D01*
X7213Y27282D01*
X7450D01*
X7474Y27287D01*
X7640D01*
D02*
G37*
G36*
X6600Y25200D02*
X5600D01*
Y27500D01*
X6600D01*
Y25200D01*
D02*
G37*
G36*
X16750Y22600D02*
X15750D01*
Y24900D01*
X16750D01*
Y22600D01*
D02*
G37*
G36*
X7640Y22287D02*
X7642Y22287D01*
X7642Y22287D01*
X7645Y22287D01*
X7675Y22285D01*
X7684Y22243D01*
X7683Y22235D01*
X7663Y22222D01*
X7628Y22187D01*
X7606Y22154D01*
X7598Y22115D01*
Y22094D01*
X7578Y22068D01*
X7556Y22053D01*
X7555Y22053D01*
X7490D01*
Y21855D01*
Y21656D01*
X7555D01*
X7556Y21656D01*
X7578Y21642D01*
X7598Y21616D01*
Y21269D01*
X7554Y21245D01*
X7536Y21257D01*
X7490Y21267D01*
Y21050D01*
Y20834D01*
X7536Y20843D01*
X7554Y20855D01*
X7598Y20831D01*
Y20563D01*
X6702D01*
Y21684D01*
X7052D01*
Y22122D01*
X7213Y22282D01*
X7450D01*
X7474Y22287D01*
X7640D01*
D02*
G37*
G36*
X6600Y20200D02*
X5600D01*
Y22500D01*
X6600D01*
Y20200D01*
D02*
G37*
G36*
X16750Y17600D02*
X15750D01*
Y19900D01*
X16750D01*
Y17600D01*
D02*
G37*
G36*
X7640Y17287D02*
X7642Y17287D01*
X7642Y17287D01*
X7645Y17287D01*
X7675Y17285D01*
X7684Y17243D01*
X7683Y17235D01*
X7663Y17222D01*
X7628Y17187D01*
X7606Y17154D01*
X7598Y17115D01*
Y17094D01*
X7578Y17068D01*
X7556Y17053D01*
X7555Y17053D01*
X7490D01*
Y16855D01*
Y16656D01*
X7555D01*
X7556Y16656D01*
X7578Y16642D01*
X7598Y16616D01*
Y16269D01*
X7554Y16245D01*
X7536Y16257D01*
X7490Y16266D01*
Y16050D01*
Y15834D01*
X7536Y15843D01*
X7554Y15855D01*
X7598Y15831D01*
Y15563D01*
X6702D01*
Y16684D01*
X7052D01*
Y17122D01*
X7213Y17282D01*
X7450D01*
X7474Y17287D01*
X7640D01*
D02*
G37*
G36*
X6600Y15200D02*
X5600D01*
Y17500D01*
X6600D01*
Y15200D01*
D02*
G37*
G36*
X14600Y28444D02*
X14390D01*
Y28245D01*
Y28047D01*
X14600D01*
Y27950D01*
X13800D01*
Y24900D01*
X14600D01*
Y23444D01*
X14390D01*
Y23245D01*
Y23047D01*
X14600D01*
Y22950D01*
X13800D01*
Y19900D01*
X14600D01*
Y18444D01*
X14390D01*
Y18245D01*
Y18047D01*
X14600D01*
Y17950D01*
X13800D01*
Y14900D01*
X14600D01*
Y13550D01*
Y13444D01*
X14390D01*
Y13245D01*
Y13047D01*
X14600D01*
Y12950D01*
X13800D01*
Y10050D01*
X14600D01*
Y8444D01*
X14390D01*
Y8245D01*
X14350D01*
Y8205D01*
X14073D01*
Y8050D01*
X13300D01*
Y13800D01*
X10400D01*
Y11516D01*
X10353Y11508D01*
Y11508D01*
X10195D01*
Y11231D01*
X10155D01*
Y11191D01*
X9956D01*
Y10954D01*
Y10721D01*
X10155D01*
Y10641D01*
X9956D01*
Y10404D01*
Y10171D01*
X10155D01*
Y10091D01*
X9956D01*
Y9854D01*
X9956Y9854D01*
Y9827D01*
X9956D01*
X9956Y9804D01*
Y9590D01*
X10155D01*
Y9550D01*
X10195D01*
Y9273D01*
X10298D01*
Y9150D01*
X9300D01*
Y5200D01*
X7700D01*
Y6616D01*
X7723Y6656D01*
X7750Y6656D01*
X7960D01*
Y6855D01*
Y7053D01*
X7750D01*
X7723Y7053D01*
X7700Y7094D01*
Y7115D01*
X7736Y7150D01*
X8550D01*
Y10200D01*
X7700D01*
Y11616D01*
X7723Y11656D01*
X7750Y11656D01*
X7960D01*
Y11855D01*
Y12053D01*
X7750D01*
X7723Y12053D01*
X7700Y12094D01*
Y12115D01*
X7736Y12150D01*
X8550D01*
Y15200D01*
X7700D01*
Y16616D01*
X7723Y16656D01*
X7750Y16656D01*
X7960D01*
Y16855D01*
Y17053D01*
X7750D01*
X7723Y17053D01*
X7700Y17094D01*
Y17115D01*
X7736Y17150D01*
X8550D01*
Y20200D01*
X7700D01*
Y21616D01*
X7723Y21656D01*
X7750Y21656D01*
X7960D01*
Y21855D01*
Y22053D01*
X7750D01*
X7723Y22053D01*
X7700Y22094D01*
Y22115D01*
X7736Y22150D01*
X8550D01*
Y25050D01*
X7700D01*
Y25150D01*
Y26616D01*
X7723Y26656D01*
X7750Y26656D01*
X7960D01*
Y26855D01*
Y27053D01*
X7750D01*
X7723Y27053D01*
X7700Y27094D01*
Y27115D01*
X7736Y27150D01*
X9050D01*
Y14550D01*
X13050D01*
Y29900D01*
X14600D01*
Y28444D01*
D02*
G37*
G36*
X16750Y12600D02*
X15750D01*
Y14900D01*
X16750D01*
Y12600D01*
D02*
G37*
G36*
X7640Y12287D02*
X7642Y12287D01*
X7642Y12287D01*
X7645Y12287D01*
X7675Y12285D01*
X7684Y12243D01*
X7683Y12235D01*
X7663Y12222D01*
X7628Y12187D01*
X7606Y12154D01*
X7598Y12115D01*
Y12094D01*
X7578Y12068D01*
X7556Y12053D01*
X7555Y12053D01*
X7490D01*
Y11855D01*
Y11656D01*
X7555D01*
X7556Y11656D01*
X7578Y11642D01*
X7598Y11616D01*
Y11269D01*
X7554Y11245D01*
X7536Y11257D01*
X7490Y11266D01*
Y11050D01*
Y10834D01*
X7536Y10843D01*
X7554Y10855D01*
X7598Y10831D01*
Y10563D01*
X6702D01*
Y11684D01*
X7052D01*
Y12122D01*
X7213Y12282D01*
X7450D01*
X7474Y12287D01*
X7640D01*
D02*
G37*
G36*
X6600Y10200D02*
X5600D01*
Y12500D01*
X6600D01*
Y10200D01*
D02*
G37*
G36*
X10506Y9850D02*
X10547Y9827D01*
X10547Y9800D01*
Y9590D01*
X10745D01*
Y9550D01*
X10785D01*
Y9273D01*
X10914D01*
X10956Y9254D01*
X10986Y9254D01*
X11115D01*
Y9531D01*
X11155D01*
Y9571D01*
X11353D01*
Y9800D01*
X11373Y9850D01*
X11600D01*
Y9768D01*
X11587D01*
Y9294D01*
X11600D01*
X11600Y7950D01*
X10400Y7950D01*
X10400Y9850D01*
X10450D01*
X10506D01*
D02*
G37*
G36*
X16750Y7600D02*
X15750D01*
Y9900D01*
X16750D01*
Y7600D01*
D02*
G37*
G36*
X7640Y7287D02*
X7642Y7287D01*
X7642Y7287D01*
X7645Y7287D01*
X7675Y7285D01*
X7684Y7243D01*
X7683Y7235D01*
X7663Y7222D01*
X7628Y7187D01*
X7606Y7154D01*
X7598Y7115D01*
Y7094D01*
X7578Y7068D01*
X7556Y7053D01*
X7555Y7053D01*
X7490D01*
Y6855D01*
Y6656D01*
X7555D01*
X7556Y6656D01*
X7578Y6642D01*
X7598Y6616D01*
Y6269D01*
X7554Y6245D01*
X7536Y6257D01*
X7490Y6266D01*
Y6050D01*
Y5834D01*
X7536Y5843D01*
X7554Y5855D01*
X7598Y5831D01*
Y5563D01*
X6702D01*
Y6684D01*
X7052D01*
Y7122D01*
X7213Y7282D01*
X7450D01*
X7474Y7287D01*
X7640D01*
D02*
G37*
G36*
X6600Y5200D02*
X5600D01*
Y7500D01*
X6600D01*
Y5200D01*
D02*
G37*
%LPC*%
G36*
X16519Y29445D02*
X16263D01*
Y29090D01*
X16519D01*
Y29445D01*
D02*
G37*
G36*
X16183D02*
X15926D01*
Y29090D01*
X16183D01*
Y29445D01*
D02*
G37*
G36*
X16519Y29010D02*
X16263D01*
Y28655D01*
X16519D01*
Y29010D01*
D02*
G37*
G36*
X16183D02*
X15926D01*
Y28655D01*
X16183D01*
Y29010D01*
D02*
G37*
G36*
X16442Y28456D02*
X16264D01*
Y28156D01*
X16442D01*
Y28456D01*
D02*
G37*
G36*
X16184D02*
X16006D01*
Y28156D01*
X16184D01*
Y28456D01*
D02*
G37*
G36*
X16442Y28076D02*
X16264D01*
Y27776D01*
X16442D01*
Y28076D01*
D02*
G37*
G36*
X16184D02*
X16006D01*
Y27776D01*
X16184D01*
Y28076D01*
D02*
G37*
G36*
X7410Y27053D02*
X7173D01*
Y26895D01*
X7410D01*
Y27053D01*
D02*
G37*
G36*
Y26815D02*
X7173D01*
Y26656D01*
X7410D01*
Y26815D01*
D02*
G37*
G36*
X7033Y26445D02*
X6776D01*
Y26090D01*
X7033D01*
Y26445D01*
D02*
G37*
G36*
X7369D02*
X7113D01*
Y26050D01*
Y25655D01*
X7369D01*
Y25802D01*
X7408Y25834D01*
X7410Y25834D01*
Y26050D01*
Y26267D01*
X7408Y26266D01*
X7369Y26298D01*
Y26445D01*
D02*
G37*
G36*
X7033Y26010D02*
X6776D01*
Y25655D01*
X7033D01*
Y26010D01*
D02*
G37*
G36*
X6344Y27325D02*
X6166D01*
Y27024D01*
X6344D01*
Y27325D01*
D02*
G37*
G36*
X6086D02*
X5908D01*
Y27024D01*
X6086D01*
Y27325D01*
D02*
G37*
G36*
X6344Y26944D02*
X6166D01*
Y26644D01*
X6344D01*
Y26944D01*
D02*
G37*
G36*
X6086D02*
X5908D01*
Y26644D01*
X6086D01*
Y26944D01*
D02*
G37*
G36*
X6425Y26445D02*
X6168D01*
Y26090D01*
X6425D01*
Y26445D01*
D02*
G37*
G36*
X6088D02*
X5831D01*
Y26090D01*
X6088D01*
Y26445D01*
D02*
G37*
G36*
X6425Y26010D02*
X6168D01*
Y25655D01*
X6425D01*
Y26010D01*
D02*
G37*
G36*
X6088D02*
X5831D01*
Y25655D01*
X6088D01*
Y26010D01*
D02*
G37*
G36*
X16519Y24445D02*
X16263D01*
Y24090D01*
X16519D01*
Y24445D01*
D02*
G37*
G36*
X16183D02*
X15926D01*
Y24090D01*
X16183D01*
Y24445D01*
D02*
G37*
G36*
X16519Y24010D02*
X16263D01*
Y23655D01*
X16519D01*
Y24010D01*
D02*
G37*
G36*
X16183D02*
X15926D01*
Y23655D01*
X16183D01*
Y24010D01*
D02*
G37*
G36*
X16442Y23456D02*
X16264D01*
Y23156D01*
X16442D01*
Y23456D01*
D02*
G37*
G36*
X16184D02*
X16006D01*
Y23156D01*
X16184D01*
Y23456D01*
D02*
G37*
G36*
X16442Y23076D02*
X16264D01*
Y22776D01*
X16442D01*
Y23076D01*
D02*
G37*
G36*
X16184D02*
X16006D01*
Y22776D01*
X16184D01*
Y23076D01*
D02*
G37*
G36*
X7410Y22053D02*
X7173D01*
Y21895D01*
X7410D01*
Y22053D01*
D02*
G37*
G36*
Y21815D02*
X7173D01*
Y21656D01*
X7410D01*
Y21815D01*
D02*
G37*
G36*
X7033Y21445D02*
X6776D01*
Y21090D01*
X7033D01*
Y21445D01*
D02*
G37*
G36*
X7369D02*
X7113D01*
Y21050D01*
Y20655D01*
X7369D01*
Y20802D01*
X7408Y20834D01*
X7410Y20834D01*
Y21050D01*
Y21267D01*
X7408Y21266D01*
X7369Y21298D01*
Y21445D01*
D02*
G37*
G36*
X7033Y21010D02*
X6776D01*
Y20655D01*
X7033D01*
Y21010D01*
D02*
G37*
G36*
X6344Y22325D02*
X6166D01*
Y22024D01*
X6344D01*
Y22325D01*
D02*
G37*
G36*
X6086D02*
X5908D01*
Y22024D01*
X6086D01*
Y22325D01*
D02*
G37*
G36*
X6344Y21944D02*
X6166D01*
Y21644D01*
X6344D01*
Y21944D01*
D02*
G37*
G36*
X6086D02*
X5908D01*
Y21644D01*
X6086D01*
Y21944D01*
D02*
G37*
G36*
X6425Y21445D02*
X6168D01*
Y21090D01*
X6425D01*
Y21445D01*
D02*
G37*
G36*
X6088D02*
X5831D01*
Y21090D01*
X6088D01*
Y21445D01*
D02*
G37*
G36*
X6425Y21010D02*
X6168D01*
Y20655D01*
X6425D01*
Y21010D01*
D02*
G37*
G36*
X6088D02*
X5831D01*
Y20655D01*
X6088D01*
Y21010D01*
D02*
G37*
G36*
X16519Y19445D02*
X16263D01*
Y19090D01*
X16519D01*
Y19445D01*
D02*
G37*
G36*
X16183D02*
X15926D01*
Y19090D01*
X16183D01*
Y19445D01*
D02*
G37*
G36*
X16519Y19010D02*
X16263D01*
Y18655D01*
X16519D01*
Y19010D01*
D02*
G37*
G36*
X16183D02*
X15926D01*
Y18655D01*
X16183D01*
Y19010D01*
D02*
G37*
G36*
X16442Y18456D02*
X16264D01*
Y18156D01*
X16442D01*
Y18456D01*
D02*
G37*
G36*
X16184D02*
X16006D01*
Y18156D01*
X16184D01*
Y18456D01*
D02*
G37*
G36*
X16442Y18076D02*
X16264D01*
Y17776D01*
X16442D01*
Y18076D01*
D02*
G37*
G36*
X16184D02*
X16006D01*
Y17776D01*
X16184D01*
Y18076D01*
D02*
G37*
G36*
X7410Y17053D02*
X7173D01*
Y16895D01*
X7410D01*
Y17053D01*
D02*
G37*
G36*
Y16815D02*
X7173D01*
Y16656D01*
X7410D01*
Y16815D01*
D02*
G37*
G36*
X7033Y16445D02*
X6776D01*
Y16090D01*
X7033D01*
Y16445D01*
D02*
G37*
G36*
X7369D02*
X7113D01*
Y16050D01*
Y15655D01*
X7369D01*
Y15802D01*
X7408Y15834D01*
X7410Y15834D01*
Y16050D01*
Y16266D01*
X7408Y16266D01*
X7369Y16298D01*
Y16445D01*
D02*
G37*
G36*
X7033Y16010D02*
X6776D01*
Y15655D01*
X7033D01*
Y16010D01*
D02*
G37*
G36*
X6344Y17325D02*
X6166D01*
Y17024D01*
X6344D01*
Y17325D01*
D02*
G37*
G36*
X6086D02*
X5908D01*
Y17024D01*
X6086D01*
Y17325D01*
D02*
G37*
G36*
X6344Y16944D02*
X6166D01*
Y16644D01*
X6344D01*
Y16944D01*
D02*
G37*
G36*
X6086D02*
X5908D01*
Y16644D01*
X6086D01*
Y16944D01*
D02*
G37*
G36*
X6425Y16445D02*
X6168D01*
Y16090D01*
X6425D01*
Y16445D01*
D02*
G37*
G36*
X6088D02*
X5831D01*
Y16090D01*
X6088D01*
Y16445D01*
D02*
G37*
G36*
X6425Y16010D02*
X6168D01*
Y15655D01*
X6425D01*
Y16010D01*
D02*
G37*
G36*
X6088D02*
X5831D01*
Y15655D01*
X6088D01*
Y16010D01*
D02*
G37*
G36*
X14310Y28444D02*
X14073D01*
Y28285D01*
X14310D01*
Y28444D01*
D02*
G37*
G36*
Y28205D02*
X14073D01*
Y28047D01*
X14310D01*
Y28205D01*
D02*
G37*
G36*
X8040Y27053D02*
Y26895D01*
X8277D01*
Y27053D01*
X8040D01*
D02*
G37*
G36*
X8277Y26815D02*
X8040D01*
Y26656D01*
X8277D01*
Y26815D01*
D02*
G37*
G36*
X14310Y23444D02*
X14073D01*
Y23285D01*
X14310D01*
Y23444D01*
D02*
G37*
G36*
Y23205D02*
X14073D01*
Y23047D01*
X14310D01*
Y23205D01*
D02*
G37*
G36*
X8040Y22053D02*
Y21895D01*
X8277D01*
Y22053D01*
X8040D01*
D02*
G37*
G36*
X8277Y21815D02*
X8040D01*
Y21656D01*
X8277D01*
Y21815D01*
D02*
G37*
G36*
X14310Y18444D02*
X14073D01*
Y18285D01*
X14310D01*
Y18444D01*
D02*
G37*
G36*
Y18205D02*
X14073D01*
Y18047D01*
X14310D01*
Y18205D01*
D02*
G37*
G36*
X8040Y17053D02*
Y16895D01*
X8277D01*
Y17053D01*
X8040D01*
D02*
G37*
G36*
X8277Y16815D02*
X8040D01*
Y16656D01*
X8277D01*
Y16815D01*
D02*
G37*
G36*
X14310Y13444D02*
X14073D01*
Y13285D01*
X14310D01*
Y13444D01*
D02*
G37*
G36*
Y13205D02*
X14073D01*
Y13047D01*
X14310D01*
Y13205D01*
D02*
G37*
G36*
X10334Y13220D02*
X9890D01*
Y12471D01*
X10334D01*
Y13220D01*
D02*
G37*
G36*
X9810D02*
X9366D01*
Y12471D01*
X9810D01*
Y13220D01*
D02*
G37*
G36*
X8040Y12053D02*
Y11895D01*
X8277D01*
Y12053D01*
X8040D01*
D02*
G37*
G36*
X8277Y11815D02*
X8040D01*
Y11656D01*
X8277D01*
Y11815D01*
D02*
G37*
G36*
X10334Y12391D02*
X9890D01*
Y11642D01*
X10334D01*
Y12391D01*
D02*
G37*
G36*
X9810D02*
X9366D01*
Y11642D01*
X9810D01*
Y12391D01*
D02*
G37*
G36*
X10115Y11508D02*
X9956D01*
Y11271D01*
X10115D01*
Y11508D01*
D02*
G37*
G36*
Y9510D02*
X9956D01*
Y9273D01*
X10115D01*
Y9510D01*
D02*
G37*
G36*
X14310Y8444D02*
X14073D01*
Y8285D01*
X14310D01*
Y8444D01*
D02*
G37*
G36*
X8040Y7053D02*
Y6895D01*
X8277D01*
Y7053D01*
X8040D01*
D02*
G37*
G36*
X8277Y6815D02*
X8040D01*
Y6656D01*
X8277D01*
Y6815D01*
D02*
G37*
G36*
X16519Y14445D02*
X16263D01*
Y14090D01*
X16519D01*
Y14445D01*
D02*
G37*
G36*
X16183D02*
X15926D01*
Y14090D01*
X16183D01*
Y14445D01*
D02*
G37*
G36*
X16519Y14010D02*
X16263D01*
Y13655D01*
X16519D01*
Y14010D01*
D02*
G37*
G36*
X16183D02*
X15926D01*
Y13655D01*
X16183D01*
Y14010D01*
D02*
G37*
G36*
X16442Y13456D02*
X16264D01*
Y13156D01*
X16442D01*
Y13456D01*
D02*
G37*
G36*
X16184D02*
X16006D01*
Y13156D01*
X16184D01*
Y13456D01*
D02*
G37*
G36*
X16442Y13076D02*
X16264D01*
Y12776D01*
X16442D01*
Y13076D01*
D02*
G37*
G36*
X16184D02*
X16006D01*
Y12776D01*
X16184D01*
Y13076D01*
D02*
G37*
G36*
X7410Y12053D02*
X7173D01*
Y11895D01*
X7410D01*
Y12053D01*
D02*
G37*
G36*
Y11815D02*
X7173D01*
Y11656D01*
X7410D01*
Y11815D01*
D02*
G37*
G36*
X7033Y11445D02*
X6776D01*
Y11090D01*
X7033D01*
Y11445D01*
D02*
G37*
G36*
X7369D02*
X7113D01*
Y11050D01*
Y10655D01*
X7369D01*
Y10802D01*
X7408Y10834D01*
X7410Y10834D01*
Y11050D01*
Y11266D01*
X7408Y11266D01*
X7369Y11298D01*
Y11445D01*
D02*
G37*
G36*
X7033Y11010D02*
X6776D01*
Y10655D01*
X7033D01*
Y11010D01*
D02*
G37*
G36*
X6344Y12325D02*
X6166D01*
Y12024D01*
X6344D01*
Y12325D01*
D02*
G37*
G36*
X6086D02*
X5908D01*
Y12024D01*
X6086D01*
Y12325D01*
D02*
G37*
G36*
X6344Y11944D02*
X6166D01*
Y11644D01*
X6344D01*
Y11944D01*
D02*
G37*
G36*
X6086D02*
X5908D01*
Y11644D01*
X6086D01*
Y11944D01*
D02*
G37*
G36*
X6425Y11445D02*
X6168D01*
Y11090D01*
X6425D01*
Y11445D01*
D02*
G37*
G36*
X6088D02*
X5831D01*
Y11090D01*
X6088D01*
Y11445D01*
D02*
G37*
G36*
X6425Y11010D02*
X6168D01*
Y10655D01*
X6425D01*
Y11010D01*
D02*
G37*
G36*
X6088D02*
X5831D01*
Y10655D01*
X6088D01*
Y11010D01*
D02*
G37*
G36*
X10705Y9510D02*
X10547D01*
Y9273D01*
X10705D01*
Y9510D01*
D02*
G37*
G36*
X11353Y9491D02*
X11195D01*
Y9254D01*
X11353D01*
Y9491D01*
D02*
G37*
G36*
X11533Y9145D02*
X11040D01*
Y8652D01*
X11533D01*
Y9145D01*
D02*
G37*
G36*
X10960D02*
X10467D01*
Y8652D01*
X10960D01*
Y9145D01*
D02*
G37*
G36*
X11533Y8572D02*
X11040D01*
Y8079D01*
X11533D01*
Y8572D01*
D02*
G37*
G36*
X10960D02*
X10467D01*
Y8079D01*
X10960D01*
Y8572D01*
D02*
G37*
G36*
X16519Y9445D02*
X16263D01*
Y9090D01*
X16519D01*
Y9445D01*
D02*
G37*
G36*
X16183D02*
X15926D01*
Y9090D01*
X16183D01*
Y9445D01*
D02*
G37*
G36*
X16519Y9010D02*
X16263D01*
Y8655D01*
X16519D01*
Y9010D01*
D02*
G37*
G36*
X16183D02*
X15926D01*
Y8655D01*
X16183D01*
Y9010D01*
D02*
G37*
G36*
X16442Y8456D02*
X16264D01*
Y8156D01*
X16442D01*
Y8456D01*
D02*
G37*
G36*
X16184D02*
X16006D01*
Y8156D01*
X16184D01*
Y8456D01*
D02*
G37*
G36*
X16442Y8076D02*
X16264D01*
Y7776D01*
X16442D01*
Y8076D01*
D02*
G37*
G36*
X16184D02*
X16006D01*
Y7776D01*
X16184D01*
Y8076D01*
D02*
G37*
G36*
X7410Y7053D02*
X7173D01*
Y6895D01*
X7410D01*
Y7053D01*
D02*
G37*
G36*
Y6815D02*
X7173D01*
Y6656D01*
X7410D01*
Y6815D01*
D02*
G37*
G36*
X7033Y6445D02*
X6776D01*
Y6090D01*
X7033D01*
Y6445D01*
D02*
G37*
G36*
X7369D02*
X7113D01*
Y6050D01*
Y5655D01*
X7369D01*
Y5802D01*
X7408Y5834D01*
X7410Y5834D01*
Y6050D01*
Y6266D01*
X7408Y6266D01*
X7369Y6298D01*
Y6445D01*
D02*
G37*
G36*
X7033Y6010D02*
X6776D01*
Y5655D01*
X7033D01*
Y6010D01*
D02*
G37*
G36*
X6344Y7325D02*
X6166D01*
Y7024D01*
X6344D01*
Y7325D01*
D02*
G37*
G36*
X6086D02*
X5908D01*
Y7024D01*
X6086D01*
Y7325D01*
D02*
G37*
G36*
X6344Y6944D02*
X6166D01*
Y6644D01*
X6344D01*
Y6944D01*
D02*
G37*
G36*
X6086D02*
X5908D01*
Y6644D01*
X6086D01*
Y6944D01*
D02*
G37*
G36*
X6425Y6445D02*
X6168D01*
Y6090D01*
X6425D01*
Y6445D01*
D02*
G37*
G36*
X6088D02*
X5831D01*
Y6090D01*
X6088D01*
Y6445D01*
D02*
G37*
G36*
X6425Y6010D02*
X6168D01*
Y5655D01*
X6425D01*
Y6010D01*
D02*
G37*
G36*
X6088D02*
X5831D01*
Y5655D01*
X6088D01*
Y6010D01*
D02*
G37*
%LPD*%
D10*
X1450Y34400D02*
D03*
X44150D02*
D03*
Y1450D02*
D03*
D11*
X1450D02*
D03*
D12*
X4245Y6000D02*
D03*
X3655D02*
D03*
X7405Y8050D02*
D03*
X7995D02*
D03*
X4245Y16000D02*
D03*
X3655D02*
D03*
X7405Y18050D02*
D03*
X7995D02*
D03*
X4245Y11000D02*
D03*
X3655D02*
D03*
X7405Y13050D02*
D03*
X7995D02*
D03*
X4245Y21000D02*
D03*
X3655D02*
D03*
X7405Y23050D02*
D03*
X7995D02*
D03*
X4245Y26000D02*
D03*
X3655D02*
D03*
X7405Y28050D02*
D03*
X7995D02*
D03*
X18105Y29100D02*
D03*
X18695D02*
D03*
X14945Y27050D02*
D03*
X14355D02*
D03*
X18105Y9100D02*
D03*
X18695D02*
D03*
X14945Y7050D02*
D03*
X14355D02*
D03*
X18105Y14100D02*
D03*
X18695D02*
D03*
X14945Y12050D02*
D03*
X14355D02*
D03*
Y17050D02*
D03*
X14945D02*
D03*
X18695Y19100D02*
D03*
X18105D02*
D03*
X14355Y22050D02*
D03*
X14945D02*
D03*
X18695Y24100D02*
D03*
X18105D02*
D03*
X10745Y9550D02*
D03*
X10155D02*
D03*
X11155Y9531D02*
D03*
X11745D02*
D03*
X10745Y10131D02*
D03*
X10155D02*
D03*
X10745Y10681D02*
D03*
X10155D02*
D03*
X10745Y11231D02*
D03*
X10155D02*
D03*
X11745D02*
D03*
X11155D02*
D03*
X27495Y6000D02*
D03*
X26905D02*
D03*
X30655Y8050D02*
D03*
X31245D02*
D03*
X27495Y16000D02*
D03*
X26905D02*
D03*
X30655Y18050D02*
D03*
X31245D02*
D03*
X27495Y11000D02*
D03*
X26905D02*
D03*
X30655Y13050D02*
D03*
X31245D02*
D03*
X27495Y21000D02*
D03*
X26905D02*
D03*
X30655Y23050D02*
D03*
X31245D02*
D03*
X27495Y26000D02*
D03*
X26905D02*
D03*
X30655Y28050D02*
D03*
X31245D02*
D03*
X41355Y29100D02*
D03*
X41945D02*
D03*
X38195Y27050D02*
D03*
X37605D02*
D03*
X41355Y9100D02*
D03*
X41945D02*
D03*
X38195Y7050D02*
D03*
X37605D02*
D03*
X41355Y14100D02*
D03*
X41945D02*
D03*
X38195Y12050D02*
D03*
X37605D02*
D03*
Y17050D02*
D03*
X38195D02*
D03*
X41945Y19100D02*
D03*
X41355D02*
D03*
X37605Y22050D02*
D03*
X38195D02*
D03*
X41945Y24100D02*
D03*
X41355D02*
D03*
X33995Y9550D02*
D03*
X33405D02*
D03*
X34405Y9531D02*
D03*
X34995D02*
D03*
X33995Y10131D02*
D03*
X33405D02*
D03*
X33995Y10681D02*
D03*
X33405D02*
D03*
X33995Y11231D02*
D03*
X33405D02*
D03*
X34995D02*
D03*
X34405D02*
D03*
D13*
X7073Y6050D02*
D03*
X6128D02*
D03*
X7023Y8950D02*
D03*
X6078D02*
D03*
X7073Y16050D02*
D03*
X6128D02*
D03*
X7023Y18950D02*
D03*
X6078D02*
D03*
X7073Y11050D02*
D03*
X6128D02*
D03*
X7023Y13950D02*
D03*
X6078D02*
D03*
X7073Y21050D02*
D03*
X6128D02*
D03*
X7023Y23950D02*
D03*
X6078D02*
D03*
X7073Y26050D02*
D03*
X6128D02*
D03*
X7023Y28950D02*
D03*
X6078D02*
D03*
X15278Y29050D02*
D03*
X16223D02*
D03*
X15328Y26150D02*
D03*
X16273D02*
D03*
X15278Y9050D02*
D03*
X16223D02*
D03*
X15328Y6150D02*
D03*
X16273D02*
D03*
X15278Y14050D02*
D03*
X16223D02*
D03*
X15328Y11150D02*
D03*
X16273D02*
D03*
Y16150D02*
D03*
X15328D02*
D03*
X16223Y19050D02*
D03*
X15278D02*
D03*
X16273Y21150D02*
D03*
X15328D02*
D03*
X16223Y24050D02*
D03*
X15278D02*
D03*
X30323Y6050D02*
D03*
X29378D02*
D03*
X30273Y8950D02*
D03*
X29328D02*
D03*
X30323Y16050D02*
D03*
X29378D02*
D03*
X30273Y18950D02*
D03*
X29328D02*
D03*
X30323Y11050D02*
D03*
X29378D02*
D03*
X30273Y13950D02*
D03*
X29328D02*
D03*
X30323Y21050D02*
D03*
X29378D02*
D03*
X30273Y23950D02*
D03*
X29328D02*
D03*
X30323Y26050D02*
D03*
X29378D02*
D03*
X30273Y28950D02*
D03*
X29328D02*
D03*
X38528Y29050D02*
D03*
X39473D02*
D03*
X38578Y26150D02*
D03*
X39523D02*
D03*
X38528Y9050D02*
D03*
X39473D02*
D03*
X38578Y6150D02*
D03*
X39523D02*
D03*
X38528Y14050D02*
D03*
X39473D02*
D03*
X38578Y11150D02*
D03*
X39523D02*
D03*
Y16150D02*
D03*
X38578D02*
D03*
X39473Y19050D02*
D03*
X38528D02*
D03*
X39523Y21150D02*
D03*
X38578D02*
D03*
X39473Y24050D02*
D03*
X38528D02*
D03*
D14*
X7450Y6855D02*
D03*
Y7445D02*
D03*
X8000D02*
D03*
Y6855D02*
D03*
Y17445D02*
D03*
Y16855D02*
D03*
X7450D02*
D03*
Y17445D02*
D03*
X8000Y12445D02*
D03*
Y11855D02*
D03*
X7450D02*
D03*
Y12445D02*
D03*
X8000Y22445D02*
D03*
Y21855D02*
D03*
X7450D02*
D03*
Y22445D02*
D03*
X8000Y27445D02*
D03*
Y26855D02*
D03*
X7450D02*
D03*
Y27445D02*
D03*
X14350Y27655D02*
D03*
Y28245D02*
D03*
X14900D02*
D03*
Y27655D02*
D03*
X14350Y7655D02*
D03*
Y8245D02*
D03*
X14900D02*
D03*
Y7655D02*
D03*
X14350Y12655D02*
D03*
Y13245D02*
D03*
X14900D02*
D03*
Y12655D02*
D03*
Y17655D02*
D03*
Y18245D02*
D03*
X14350D02*
D03*
Y17655D02*
D03*
X14900Y22655D02*
D03*
Y23245D02*
D03*
X14350D02*
D03*
Y22655D02*
D03*
X30700Y6855D02*
D03*
Y7445D02*
D03*
X31250D02*
D03*
Y6855D02*
D03*
Y17445D02*
D03*
Y16855D02*
D03*
X30700D02*
D03*
Y17445D02*
D03*
X31250Y12445D02*
D03*
Y11855D02*
D03*
X30700D02*
D03*
Y12445D02*
D03*
X31250Y22445D02*
D03*
Y21855D02*
D03*
X30700D02*
D03*
Y22445D02*
D03*
X31250Y27445D02*
D03*
Y26855D02*
D03*
X30700D02*
D03*
Y27445D02*
D03*
X37600Y27655D02*
D03*
Y28245D02*
D03*
X38150D02*
D03*
Y27655D02*
D03*
X37600Y7655D02*
D03*
Y8245D02*
D03*
X38150D02*
D03*
Y7655D02*
D03*
X37600Y12655D02*
D03*
Y13245D02*
D03*
X38150D02*
D03*
Y12655D02*
D03*
Y17655D02*
D03*
Y18245D02*
D03*
X37600D02*
D03*
Y17655D02*
D03*
X38150Y22655D02*
D03*
Y23245D02*
D03*
X37600D02*
D03*
Y22655D02*
D03*
D15*
X6874Y8016D02*
D03*
X6500D02*
D03*
X6126D02*
D03*
Y6984D02*
D03*
X6874D02*
D03*
Y18016D02*
D03*
X6500D02*
D03*
X6126D02*
D03*
Y16984D02*
D03*
X6874D02*
D03*
Y13016D02*
D03*
X6500D02*
D03*
X6126D02*
D03*
Y11984D02*
D03*
X6874D02*
D03*
Y23016D02*
D03*
X6500D02*
D03*
X6126D02*
D03*
Y21984D02*
D03*
X6874D02*
D03*
Y28016D02*
D03*
X6500D02*
D03*
X6126D02*
D03*
Y26984D02*
D03*
X6874D02*
D03*
X15476Y27084D02*
D03*
X15850D02*
D03*
X16224D02*
D03*
Y28116D02*
D03*
X15476D02*
D03*
Y7084D02*
D03*
X15850D02*
D03*
X16224D02*
D03*
Y8116D02*
D03*
X15476D02*
D03*
Y12084D02*
D03*
X15850D02*
D03*
X16224D02*
D03*
Y13116D02*
D03*
X15476D02*
D03*
Y18116D02*
D03*
X16224D02*
D03*
Y17084D02*
D03*
X15850D02*
D03*
X15476D02*
D03*
Y23116D02*
D03*
X16224D02*
D03*
Y22084D02*
D03*
X15850D02*
D03*
X15476D02*
D03*
X30124Y8016D02*
D03*
X29750D02*
D03*
X29376D02*
D03*
Y6984D02*
D03*
X30124D02*
D03*
Y18016D02*
D03*
X29750D02*
D03*
X29376D02*
D03*
Y16984D02*
D03*
X30124D02*
D03*
Y13016D02*
D03*
X29750D02*
D03*
X29376D02*
D03*
Y11984D02*
D03*
X30124D02*
D03*
Y23016D02*
D03*
X29750D02*
D03*
X29376D02*
D03*
Y21984D02*
D03*
X30124D02*
D03*
Y28016D02*
D03*
X29750D02*
D03*
X29376D02*
D03*
Y26984D02*
D03*
X30124D02*
D03*
X38726Y27084D02*
D03*
X39100D02*
D03*
X39474D02*
D03*
Y28116D02*
D03*
X38726D02*
D03*
Y7084D02*
D03*
X39100D02*
D03*
X39474D02*
D03*
Y8116D02*
D03*
X38726D02*
D03*
Y12084D02*
D03*
X39100D02*
D03*
X39474D02*
D03*
Y13116D02*
D03*
X38726D02*
D03*
Y18116D02*
D03*
X39474D02*
D03*
Y17084D02*
D03*
X39100D02*
D03*
X38726D02*
D03*
Y23116D02*
D03*
X39474D02*
D03*
Y22084D02*
D03*
X39100D02*
D03*
X38726D02*
D03*
D16*
X12350Y12431D02*
D03*
X9850D02*
D03*
X35600D02*
D03*
X33100D02*
D03*
D17*
X20398Y16186D02*
D03*
Y18914D02*
D03*
Y23914D02*
D03*
Y21186D02*
D03*
X1953Y8914D02*
D03*
Y6186D02*
D03*
Y11186D02*
D03*
Y13914D02*
D03*
Y18914D02*
D03*
Y16186D02*
D03*
Y21186D02*
D03*
Y23914D02*
D03*
Y28914D02*
D03*
Y26186D02*
D03*
X20398Y28914D02*
D03*
Y26186D02*
D03*
Y11186D02*
D03*
Y13914D02*
D03*
Y8914D02*
D03*
Y6186D02*
D03*
X43648Y16186D02*
D03*
Y18914D02*
D03*
Y23914D02*
D03*
Y21186D02*
D03*
X25203Y8914D02*
D03*
Y6186D02*
D03*
Y11186D02*
D03*
Y13914D02*
D03*
Y18914D02*
D03*
Y16186D02*
D03*
Y21186D02*
D03*
Y23914D02*
D03*
Y28914D02*
D03*
Y26186D02*
D03*
X43648Y28914D02*
D03*
Y26186D02*
D03*
Y11186D02*
D03*
Y13914D02*
D03*
Y8914D02*
D03*
Y6186D02*
D03*
D18*
X19335Y18967D02*
D03*
X17839Y16133D02*
D03*
Y21133D02*
D03*
X19335Y23967D02*
D03*
X3016Y6133D02*
D03*
X4512Y8967D02*
D03*
Y13967D02*
D03*
X3016Y11133D02*
D03*
Y16133D02*
D03*
X4512Y18967D02*
D03*
Y23967D02*
D03*
X3016Y21133D02*
D03*
Y26133D02*
D03*
X4512Y28967D02*
D03*
X17839Y26133D02*
D03*
X19335Y28967D02*
D03*
Y13967D02*
D03*
X17839Y11133D02*
D03*
Y6133D02*
D03*
X19335Y8967D02*
D03*
X42585Y18967D02*
D03*
X41089Y16133D02*
D03*
Y21133D02*
D03*
X42585Y23967D02*
D03*
X26265Y6133D02*
D03*
X27762Y8967D02*
D03*
Y13967D02*
D03*
X26265Y11133D02*
D03*
Y16133D02*
D03*
X27762Y18967D02*
D03*
Y23967D02*
D03*
X26265Y21133D02*
D03*
Y26133D02*
D03*
X27762Y28967D02*
D03*
X41089Y26133D02*
D03*
X42585Y28967D02*
D03*
Y13967D02*
D03*
X41089Y11133D02*
D03*
Y6133D02*
D03*
X42585Y8967D02*
D03*
D19*
X10745Y11231D02*
X11155D01*
X4529Y8950D02*
X6078D01*
X4512Y8967D02*
X4529Y8950D01*
X6078Y8064D02*
Y8950D01*
Y8064D02*
X6126Y8016D01*
X6908Y8050D02*
X7405D01*
X6874Y8016D02*
X6908Y8050D01*
X7995Y7500D02*
Y8050D01*
X7145Y7445D02*
X7450D01*
X6874Y7174D02*
X7145Y7445D01*
X6874Y6984D02*
Y7174D01*
X8000Y5500D02*
Y6855D01*
X7900Y5400D02*
X8000Y5500D01*
X6250Y5400D02*
X7900D01*
X6128Y5523D02*
X6250Y5400D01*
X6128Y5523D02*
Y6050D01*
Y6983D01*
X6126Y6984D02*
X6128Y6983D01*
X3016Y6000D02*
Y6133D01*
Y6000D02*
X3655D01*
X6128Y11050D02*
Y11983D01*
X6126Y11984D02*
X6128Y11983D01*
X8000Y10500D02*
Y11855D01*
X7900Y10400D02*
X8000Y10500D01*
X6128Y10523D02*
Y11050D01*
Y10523D02*
X6250Y10400D01*
X7900D01*
X6078Y13064D02*
X6126Y13016D01*
X4512Y13967D02*
X4529Y13950D01*
X6078Y13064D02*
Y13950D01*
X4529D02*
X6078D01*
X7995Y12500D02*
Y13050D01*
X3016Y11000D02*
X3655D01*
X3016D02*
Y11133D01*
X7145Y12445D02*
X7450D01*
X6874Y12174D02*
X7145Y12445D01*
X6874Y11984D02*
Y12174D01*
X6908Y13050D02*
X7405D01*
X6874Y13016D02*
X6908Y13050D01*
X6128Y16050D02*
Y16983D01*
X6126Y16984D02*
X6128Y16983D01*
X8000Y15500D02*
Y16855D01*
X7900Y15400D02*
X8000Y15500D01*
X6128Y15523D02*
Y16050D01*
Y15523D02*
X6250Y15400D01*
X7900D01*
X6078Y18064D02*
X6126Y18016D01*
X4512Y18967D02*
X4529Y18950D01*
X6078Y18064D02*
Y18950D01*
X4529D02*
X6078D01*
X7995Y17500D02*
Y18050D01*
X3016Y16000D02*
X3655D01*
X3016D02*
Y16133D01*
X7145Y17445D02*
X7450D01*
X6874Y17174D02*
X7145Y17445D01*
X6874Y16984D02*
Y17174D01*
X6908Y18050D02*
X7405D01*
X6874Y18016D02*
X6908Y18050D01*
X6128Y21050D02*
Y21983D01*
X6126Y21984D02*
X6128Y21983D01*
X8000Y20500D02*
Y21855D01*
X7900Y20400D02*
X8000Y20500D01*
X6128Y20523D02*
Y21050D01*
Y20523D02*
X6250Y20400D01*
X7900D01*
X6078Y23064D02*
X6126Y23016D01*
X4512Y23967D02*
X4529Y23950D01*
X6078Y23064D02*
Y23950D01*
X4529D02*
X6078D01*
X7995Y22500D02*
Y23050D01*
X3016Y21000D02*
X3655D01*
X3016D02*
Y21133D01*
X7145Y22445D02*
X7450D01*
X6874Y22174D02*
X7145Y22445D01*
X6874Y21984D02*
Y22174D01*
X6908Y23050D02*
X7405D01*
X6874Y23016D02*
X6908Y23050D01*
X6128Y26050D02*
Y26983D01*
X6126Y26984D02*
X6128Y26983D01*
X8000Y25500D02*
Y26855D01*
X7900Y25400D02*
X8000Y25500D01*
X6128Y25523D02*
Y26050D01*
Y25523D02*
X6250Y25400D01*
X7900D01*
X6078Y28064D02*
X6126Y28016D01*
X4512Y28967D02*
X4529Y28950D01*
X6078Y28064D02*
Y28950D01*
X4529D02*
X6078D01*
X7995Y27500D02*
Y28050D01*
X3016Y26000D02*
X3655D01*
X3016D02*
Y26133D01*
X7145Y27445D02*
X7450D01*
X6874Y27174D02*
X7145Y27445D01*
X6874Y26984D02*
Y27174D01*
X6908Y28050D02*
X7405D01*
X6874Y28016D02*
X6908Y28050D01*
X16223Y28117D02*
Y29050D01*
Y28117D02*
X16224Y28116D01*
X14350Y28245D02*
Y29600D01*
X14450Y29700D01*
X16100D01*
X16223Y29578D01*
Y29050D02*
Y29578D01*
X16224Y27084D02*
X16273Y27036D01*
X17821Y26150D02*
X17839Y26133D01*
X16273Y26150D02*
Y27036D01*
Y26150D02*
X17821D01*
X14355Y27050D02*
Y27600D01*
X18695Y29100D02*
X19335D01*
Y28967D02*
Y29100D01*
X14900Y27655D02*
X15205D01*
X15476Y27926D01*
Y28116D01*
X14945Y27050D02*
X15442D01*
X15476Y27084D01*
X16223Y8117D02*
X16224Y8116D01*
X16223Y9050D02*
Y9578D01*
Y8117D02*
Y9050D01*
X14350Y8245D02*
Y9600D01*
X14450Y9700D01*
X16100D01*
X16223Y9578D01*
X16224Y7084D02*
X16273Y7036D01*
X17821Y6150D02*
X17839Y6133D01*
X16273Y6150D02*
Y7036D01*
Y6150D02*
X17821D01*
X14355Y7050D02*
Y7600D01*
X18695Y9100D02*
X19335D01*
Y8967D02*
Y9100D01*
X14900Y7655D02*
X15205D01*
X15476Y7926D01*
Y8116D01*
X14945Y7050D02*
X15442D01*
X15476Y7084D01*
X16223Y13117D02*
Y14050D01*
Y13117D02*
X16224Y13116D01*
X14350Y13245D02*
Y14600D01*
X14450Y14700D01*
X16100D01*
X16223Y14050D02*
Y14578D01*
X16100Y14700D02*
X16223Y14578D01*
X16224Y12084D02*
X16273Y12036D01*
X17821Y11150D02*
X17839Y11133D01*
X16273Y11150D02*
Y12036D01*
Y11150D02*
X17821D01*
X14355Y12050D02*
Y12600D01*
X18695Y14100D02*
X19335D01*
Y13967D02*
Y14100D01*
X14900Y12655D02*
X15205D01*
X15476Y12926D01*
Y13116D01*
X14945Y12050D02*
X15442D01*
X15476Y12084D01*
X16223Y23117D02*
Y24050D01*
Y23117D02*
X16224Y23116D01*
X14350Y23245D02*
Y24600D01*
X14450Y24700D01*
X16100D01*
X16223Y24050D02*
Y24578D01*
X16100Y24700D02*
X16223Y24578D01*
X16224Y22084D02*
X16273Y22036D01*
X17821Y21150D02*
X17839Y21133D01*
X16273Y21150D02*
Y22036D01*
Y21150D02*
X17821D01*
X14355Y22050D02*
Y22600D01*
X18695Y24100D02*
X19335D01*
Y23967D02*
Y24100D01*
X14900Y22655D02*
X15205D01*
X15476Y22926D01*
Y23116D01*
X14945Y22050D02*
X15442D01*
X15476Y22084D01*
X16223Y18117D02*
X16224Y18116D01*
X16223Y19050D02*
Y19578D01*
Y18117D02*
Y19050D01*
X14350Y18245D02*
Y19600D01*
X14450Y19700D01*
X16100D01*
X16223Y19578D01*
X16224Y17084D02*
X16273Y17036D01*
X17821Y16150D02*
X17839Y16133D01*
X16273Y16150D02*
Y17036D01*
Y16150D02*
X17821D01*
X14355Y17050D02*
Y17600D01*
X18695Y19100D02*
X19335D01*
Y18967D02*
Y19100D01*
X14900Y17655D02*
X15205D01*
X15476Y17926D01*
Y18116D01*
X14945Y17050D02*
X15442D01*
X15476Y17084D01*
X11155Y9531D02*
Y9550D01*
X10745D02*
X11155D01*
X33995Y11231D02*
X34405D01*
X27779Y8950D02*
X29328D01*
X27762Y8967D02*
X27779Y8950D01*
X29328Y8064D02*
Y8950D01*
Y8064D02*
X29376Y8016D01*
X30158Y8050D02*
X30655D01*
X30124Y8016D02*
X30158Y8050D01*
X31245Y7500D02*
Y8050D01*
X30395Y7445D02*
X30700D01*
X30124Y7174D02*
X30395Y7445D01*
X30124Y6984D02*
Y7174D01*
X31250Y5500D02*
Y6855D01*
X31150Y5400D02*
X31250Y5500D01*
X29500Y5400D02*
X31150D01*
X29378Y5523D02*
X29500Y5400D01*
X29378Y5523D02*
Y6050D01*
Y6983D01*
X29376Y6984D02*
X29378Y6983D01*
X26265Y6000D02*
Y6133D01*
Y6000D02*
X26905D01*
X29378Y11050D02*
Y11983D01*
X29376Y11984D02*
X29378Y11983D01*
X31250Y10500D02*
Y11855D01*
X31150Y10400D02*
X31250Y10500D01*
X29378Y10523D02*
Y11050D01*
Y10523D02*
X29500Y10400D01*
X31150D01*
X29328Y13064D02*
X29376Y13016D01*
X27762Y13967D02*
X27779Y13950D01*
X29328Y13064D02*
Y13950D01*
X27779D02*
X29328D01*
X31245Y12500D02*
Y13050D01*
X26265Y11000D02*
X26905D01*
X26265D02*
Y11133D01*
X30395Y12445D02*
X30700D01*
X30124Y12174D02*
X30395Y12445D01*
X30124Y11984D02*
Y12174D01*
X30158Y13050D02*
X30655D01*
X30124Y13016D02*
X30158Y13050D01*
X29378Y16050D02*
Y16983D01*
X29376Y16984D02*
X29378Y16983D01*
X31250Y15500D02*
Y16855D01*
X31150Y15400D02*
X31250Y15500D01*
X29378Y15523D02*
Y16050D01*
Y15523D02*
X29500Y15400D01*
X31150D01*
X29328Y18064D02*
X29376Y18016D01*
X27762Y18967D02*
X27779Y18950D01*
X29328Y18064D02*
Y18950D01*
X27779D02*
X29328D01*
X31245Y17500D02*
Y18050D01*
X26265Y16000D02*
X26905D01*
X26265D02*
Y16133D01*
X30395Y17445D02*
X30700D01*
X30124Y17174D02*
X30395Y17445D01*
X30124Y16984D02*
Y17174D01*
X30158Y18050D02*
X30655D01*
X30124Y18016D02*
X30158Y18050D01*
X29378Y21050D02*
Y21983D01*
X29376Y21984D02*
X29378Y21983D01*
X31250Y20500D02*
Y21855D01*
X31150Y20400D02*
X31250Y20500D01*
X29378Y20523D02*
Y21050D01*
Y20523D02*
X29500Y20400D01*
X31150D01*
X29328Y23064D02*
X29376Y23016D01*
X27762Y23967D02*
X27779Y23950D01*
X29328Y23064D02*
Y23950D01*
X27779D02*
X29328D01*
X31245Y22500D02*
Y23050D01*
X26265Y21000D02*
X26905D01*
X26265D02*
Y21133D01*
X30395Y22445D02*
X30700D01*
X30124Y22174D02*
X30395Y22445D01*
X30124Y21984D02*
Y22174D01*
X30158Y23050D02*
X30655D01*
X30124Y23016D02*
X30158Y23050D01*
X29378Y26050D02*
Y26983D01*
X29376Y26984D02*
X29378Y26983D01*
X31250Y25500D02*
Y26855D01*
X31150Y25400D02*
X31250Y25500D01*
X29378Y25523D02*
Y26050D01*
Y25523D02*
X29500Y25400D01*
X31150D01*
X29328Y28064D02*
X29376Y28016D01*
X27762Y28967D02*
X27779Y28950D01*
X29328Y28064D02*
Y28950D01*
X27779D02*
X29328D01*
X31245Y27500D02*
Y28050D01*
X26265Y26000D02*
X26905D01*
X26265D02*
Y26133D01*
X30395Y27445D02*
X30700D01*
X30124Y27174D02*
X30395Y27445D01*
X30124Y26984D02*
Y27174D01*
X30158Y28050D02*
X30655D01*
X30124Y28016D02*
X30158Y28050D01*
X39473Y28117D02*
Y29050D01*
Y28117D02*
X39474Y28116D01*
X37600Y28245D02*
Y29600D01*
X37700Y29700D01*
X39350D01*
X39473Y29578D01*
Y29050D02*
Y29578D01*
X39474Y27084D02*
X39523Y27036D01*
X41071Y26150D02*
X41089Y26133D01*
X39523Y26150D02*
Y27036D01*
Y26150D02*
X41071D01*
X37605Y27050D02*
Y27600D01*
X41945Y29100D02*
X42585D01*
Y28967D02*
Y29100D01*
X38150Y27655D02*
X38455D01*
X38726Y27926D01*
Y28116D01*
X38195Y27050D02*
X38692D01*
X38726Y27084D01*
X39473Y8117D02*
X39474Y8116D01*
X39473Y9050D02*
Y9578D01*
Y8117D02*
Y9050D01*
X37600Y8245D02*
Y9600D01*
X37700Y9700D01*
X39350D01*
X39473Y9578D01*
X39474Y7084D02*
X39523Y7036D01*
X41071Y6150D02*
X41089Y6133D01*
X39523Y6150D02*
Y7036D01*
Y6150D02*
X41071D01*
X37605Y7050D02*
Y7600D01*
X41945Y9100D02*
X42585D01*
Y8967D02*
Y9100D01*
X38150Y7655D02*
X38455D01*
X38726Y7926D01*
Y8116D01*
X38195Y7050D02*
X38692D01*
X38726Y7084D01*
X39473Y13117D02*
Y14050D01*
Y13117D02*
X39474Y13116D01*
X37600Y13245D02*
Y14600D01*
X37700Y14700D01*
X39350D01*
X39473Y14050D02*
Y14578D01*
X39350Y14700D02*
X39473Y14578D01*
X39474Y12084D02*
X39523Y12036D01*
X41071Y11150D02*
X41089Y11133D01*
X39523Y11150D02*
Y12036D01*
Y11150D02*
X41071D01*
X37605Y12050D02*
Y12600D01*
X41945Y14100D02*
X42585D01*
Y13967D02*
Y14100D01*
X38150Y12655D02*
X38455D01*
X38726Y12926D01*
Y13116D01*
X38195Y12050D02*
X38692D01*
X38726Y12084D01*
X39473Y23117D02*
Y24050D01*
Y23117D02*
X39474Y23116D01*
X37600Y23245D02*
Y24600D01*
X37700Y24700D01*
X39350D01*
X39473Y24050D02*
Y24578D01*
X39350Y24700D02*
X39473Y24578D01*
X39474Y22084D02*
X39523Y22036D01*
X41071Y21150D02*
X41089Y21133D01*
X39523Y21150D02*
Y22036D01*
Y21150D02*
X41071D01*
X37605Y22050D02*
Y22600D01*
X41945Y24100D02*
X42585D01*
Y23967D02*
Y24100D01*
X38150Y22655D02*
X38455D01*
X38726Y22926D01*
Y23116D01*
X38195Y22050D02*
X38692D01*
X38726Y22084D01*
X39473Y18117D02*
X39474Y18116D01*
X39473Y19050D02*
Y19578D01*
Y18117D02*
Y19050D01*
X37600Y18245D02*
Y19600D01*
X37700Y19700D01*
X39350D01*
X39473Y19578D01*
X39474Y17084D02*
X39523Y17036D01*
X41071Y16150D02*
X41089Y16133D01*
X39523Y16150D02*
Y17036D01*
Y16150D02*
X41071D01*
X37605Y17050D02*
Y17600D01*
X41945Y19100D02*
X42585D01*
Y18967D02*
Y19100D01*
X38150Y17655D02*
X38455D01*
X38726Y17926D01*
Y18116D01*
X38195Y17050D02*
X38692D01*
X38726Y17084D01*
X34405Y9531D02*
Y9550D01*
X33995D02*
X34405D01*
D20*
X7073Y6050D02*
X7450D01*
X4245Y6000D02*
X4550D01*
X7073Y11050D02*
X7450D01*
X4245Y11000D02*
X4550D01*
X7073Y16050D02*
X7450D01*
X4245Y16000D02*
X4550D01*
X7073Y21050D02*
X7450D01*
X4245Y21000D02*
X4550D01*
X7073Y26050D02*
X7450D01*
X4245Y26000D02*
X4550D01*
X14900Y29050D02*
X15278D01*
X17800Y29100D02*
X18105D01*
X14900Y9050D02*
X15278D01*
X17800Y9100D02*
X18105D01*
X14900Y14050D02*
X15278D01*
X17800Y14100D02*
X18105D01*
X14900Y24050D02*
X15278D01*
X17800Y24100D02*
X18105D01*
X14900Y19050D02*
X15278D01*
X17800Y19100D02*
X18105D01*
X30323Y6050D02*
X30700D01*
X27495Y6000D02*
X27800D01*
X30323Y11050D02*
X30700D01*
X27495Y11000D02*
X27800D01*
X30323Y16050D02*
X30700D01*
X27495Y16000D02*
X27800D01*
X30323Y21050D02*
X30700D01*
X27495Y21000D02*
X27800D01*
X30323Y26050D02*
X30700D01*
X27495Y26000D02*
X27800D01*
X38150Y29050D02*
X38528D01*
X41050Y29100D02*
X41355D01*
X38150Y9050D02*
X38528D01*
X41050Y9100D02*
X41355D01*
X38150Y14050D02*
X38528D01*
X41050Y14100D02*
X41355D01*
X38150Y24050D02*
X38528D01*
X41050Y24100D02*
X41355D01*
X38150Y19050D02*
X38528D01*
X41050Y19100D02*
X41355D01*
D21*
X11000Y8612D02*
D03*
Y6250D02*
D03*
X12851Y7431D02*
D03*
X34250Y8612D02*
D03*
Y6250D02*
D03*
X36101Y7431D02*
D03*
D22*
X7450Y6050D02*
D03*
X4550Y6000D02*
D03*
X7450Y11050D02*
D03*
X4550Y11000D02*
D03*
X7450Y16050D02*
D03*
X4550Y16000D02*
D03*
X7450Y21050D02*
D03*
X4550Y21000D02*
D03*
X7450Y26050D02*
D03*
X4550Y26000D02*
D03*
X14900Y29050D02*
D03*
X17800Y29100D02*
D03*
X14900Y9050D02*
D03*
X17800Y9100D02*
D03*
X14900Y14050D02*
D03*
X17800Y14100D02*
D03*
X14900Y24050D02*
D03*
X17800Y24100D02*
D03*
X14900Y19050D02*
D03*
X17800Y19100D02*
D03*
X30700Y6050D02*
D03*
X27800Y6000D02*
D03*
X30700Y11050D02*
D03*
X27800Y11000D02*
D03*
X30700Y16050D02*
D03*
X27800Y16000D02*
D03*
X30700Y21050D02*
D03*
X27800Y21000D02*
D03*
X30700Y26050D02*
D03*
X27800Y26000D02*
D03*
X38150Y29050D02*
D03*
X41050Y29100D02*
D03*
X38150Y9050D02*
D03*
X41050Y9100D02*
D03*
X38150Y14050D02*
D03*
X41050Y14100D02*
D03*
X38150Y24050D02*
D03*
X41050Y24100D02*
D03*
X38150Y19050D02*
D03*
X41050Y19100D02*
D03*
D23*
X21250Y31750D02*
D03*
X1250D02*
D03*
X21250Y4250D02*
D03*
X1250D02*
D03*
X11250Y31750D02*
D03*
X44500D02*
D03*
X24500D02*
D03*
X44500Y4250D02*
D03*
X24500D02*
D03*
X34500Y31750D02*
D03*
M02*
