G04 Layer_Color=65535*
%FSLAX24Y24*%
%MOIN*%
G70*
G01*
G75*
%ADD24C,0.0098*%
%ADD25C,0.0039*%
%ADD26C,0.0079*%
%ADD27C,0.0100*%
%ADD28C,0.0050*%
%ADD29C,0.0070*%
%ADD30R,0.0364X0.0079*%
%ADD31R,0.0118X0.0069*%
%ADD32R,0.0079X0.0364*%
%ADD33R,0.0069X0.0118*%
G36*
X28844Y31702D02*
X28590D01*
Y30698D01*
X28844D01*
Y30032D01*
X27596D01*
Y30698D01*
X27850D01*
Y31300D01*
X27221Y30433D01*
X27179D01*
X26560Y31300D01*
Y30698D01*
X26814D01*
Y30032D01*
X25567D01*
Y30698D01*
X25810D01*
Y31702D01*
X25567D01*
Y32368D01*
X26555D01*
X27189Y31490D01*
X27221D01*
X27855Y32368D01*
X28844D01*
Y31702D01*
D02*
G37*
G36*
X5594D02*
X5340D01*
Y30698D01*
X5594D01*
Y30032D01*
X4346D01*
Y30698D01*
X4600D01*
Y31300D01*
X3971Y30433D01*
X3929D01*
X3310Y31300D01*
Y30698D01*
X3564D01*
Y30032D01*
X2317D01*
Y30698D01*
X2560D01*
Y31702D01*
X2317D01*
Y32368D01*
X3305D01*
X3939Y31490D01*
X3971D01*
X4605Y32368D01*
X5594D01*
Y31702D01*
D02*
G37*
D24*
X7248Y8032D02*
G03*
X7248Y8032I-49J0D01*
G01*
Y18032D02*
G03*
X7248Y18032I-49J0D01*
G01*
Y13032D02*
G03*
X7248Y13032I-49J0D01*
G01*
Y23032D02*
G03*
X7248Y23032I-49J0D01*
G01*
Y28032D02*
G03*
X7248Y28032I-49J0D01*
G01*
X15201Y27069D02*
G03*
X15201Y27069I-49J0D01*
G01*
Y7069D02*
G03*
X15201Y7069I-49J0D01*
G01*
Y12069D02*
G03*
X15201Y12069I-49J0D01*
G01*
Y17069D02*
G03*
X15201Y17069I-49J0D01*
G01*
Y22069D02*
G03*
X15201Y22069I-49J0D01*
G01*
X30498Y8032D02*
G03*
X30498Y8032I-49J0D01*
G01*
Y18032D02*
G03*
X30498Y18032I-49J0D01*
G01*
Y13032D02*
G03*
X30498Y13032I-49J0D01*
G01*
Y23032D02*
G03*
X30498Y23032I-49J0D01*
G01*
Y28032D02*
G03*
X30498Y28032I-49J0D01*
G01*
X38451Y27069D02*
G03*
X38451Y27069I-49J0D01*
G01*
Y7069D02*
G03*
X38451Y7069I-49J0D01*
G01*
Y12069D02*
G03*
X38451Y12069I-49J0D01*
G01*
Y17069D02*
G03*
X38451Y17069I-49J0D01*
G01*
Y22069D02*
G03*
X38451Y22069I-49J0D01*
G01*
D25*
X3812Y6167D02*
X4088D01*
X3812Y5823D02*
X4088D01*
X7617Y7012D02*
Y7288D01*
X7273Y7012D02*
Y7288D01*
X7562Y7883D02*
X7838D01*
X7562Y8227D02*
X7838D01*
X3812Y16167D02*
X4088D01*
X3812Y15823D02*
X4088D01*
X7617Y17012D02*
Y17288D01*
X7273Y17012D02*
Y17288D01*
X7562Y17883D02*
X7838D01*
X7562Y18227D02*
X7838D01*
X3812Y11167D02*
X4088D01*
X3812Y10823D02*
X4088D01*
X7617Y12012D02*
Y12288D01*
X7273Y12012D02*
Y12288D01*
X7562Y12883D02*
X7838D01*
X7562Y13227D02*
X7838D01*
X3812Y21167D02*
X4088D01*
X3812Y20823D02*
X4088D01*
X7617Y22012D02*
Y22288D01*
X7273Y22012D02*
Y22288D01*
X7562Y22883D02*
X7838D01*
X7562Y23227D02*
X7838D01*
X3812Y26167D02*
X4088D01*
X3812Y25823D02*
X4088D01*
X7617Y27012D02*
Y27288D01*
X7273Y27012D02*
Y27288D01*
X7562Y27883D02*
X7838D01*
X7562Y28227D02*
X7838D01*
X18262Y28933D02*
X18538D01*
X18262Y29277D02*
X18538D01*
X14733Y27812D02*
Y28088D01*
X15077Y27812D02*
Y28088D01*
X14512Y27217D02*
X14788D01*
X14512Y26873D02*
X14788D01*
X18262Y8933D02*
X18538D01*
X18262Y9277D02*
X18538D01*
X14733Y7812D02*
Y8088D01*
X15077Y7812D02*
Y8088D01*
X14512Y7217D02*
X14788D01*
X14512Y6873D02*
X14788D01*
X18262Y13933D02*
X18538D01*
X18262Y14277D02*
X18538D01*
X14733Y12812D02*
Y13088D01*
X15077Y12812D02*
Y13088D01*
X14512Y12217D02*
X14788D01*
X14512Y11873D02*
X14788D01*
X14512Y16873D02*
X14788D01*
X14512Y17217D02*
X14788D01*
X15077Y17812D02*
Y18088D01*
X14733Y17812D02*
Y18088D01*
X18262Y19277D02*
X18538D01*
X18262Y18933D02*
X18538D01*
X14512Y21873D02*
X14788D01*
X14512Y22217D02*
X14788D01*
X15077Y22812D02*
Y23088D01*
X14733Y22812D02*
Y23088D01*
X18262Y24277D02*
X18538D01*
X18262Y23933D02*
X18538D01*
X10312Y9717D02*
X10588D01*
X10312Y9373D02*
X10588D01*
X11312Y9354D02*
X11588D01*
X11312Y9699D02*
X11588D01*
X11000Y9331D02*
Y9731D01*
X10312Y10299D02*
X10588D01*
X10312Y9954D02*
X10588D01*
X10312Y10849D02*
X10588D01*
X10312Y10504D02*
X10588D01*
X11312Y11399D02*
X11588D01*
X11312Y11054D02*
X11588D01*
X27062Y6167D02*
X27338D01*
X27062Y5823D02*
X27338D01*
X30867Y7012D02*
Y7288D01*
X30523Y7012D02*
Y7288D01*
X30812Y7883D02*
X31088D01*
X30812Y8227D02*
X31088D01*
X27062Y16167D02*
X27338D01*
X27062Y15823D02*
X27338D01*
X30867Y17012D02*
Y17288D01*
X30523Y17012D02*
Y17288D01*
X30812Y17883D02*
X31088D01*
X30812Y18227D02*
X31088D01*
X27062Y11167D02*
X27338D01*
X27062Y10823D02*
X27338D01*
X30867Y12012D02*
Y12288D01*
X30523Y12012D02*
Y12288D01*
X30812Y12883D02*
X31088D01*
X30812Y13227D02*
X31088D01*
X27062Y21167D02*
X27338D01*
X27062Y20823D02*
X27338D01*
X30867Y22012D02*
Y22288D01*
X30523Y22012D02*
Y22288D01*
X30812Y22883D02*
X31088D01*
X30812Y23227D02*
X31088D01*
X27062Y26167D02*
X27338D01*
X27062Y25823D02*
X27338D01*
X30867Y27012D02*
Y27288D01*
X30523Y27012D02*
Y27288D01*
X30812Y27883D02*
X31088D01*
X30812Y28227D02*
X31088D01*
X41512Y28933D02*
X41788D01*
X41512Y29277D02*
X41788D01*
X37983Y27812D02*
Y28088D01*
X38327Y27812D02*
Y28088D01*
X37762Y27217D02*
X38038D01*
X37762Y26873D02*
X38038D01*
X41512Y8933D02*
X41788D01*
X41512Y9277D02*
X41788D01*
X37983Y7812D02*
Y8088D01*
X38327Y7812D02*
Y8088D01*
X37762Y7217D02*
X38038D01*
X37762Y6873D02*
X38038D01*
X41512Y13933D02*
X41788D01*
X41512Y14277D02*
X41788D01*
X37983Y12812D02*
Y13088D01*
X38327Y12812D02*
Y13088D01*
X37762Y12217D02*
X38038D01*
X37762Y11873D02*
X38038D01*
X37762Y16873D02*
X38038D01*
X37762Y17217D02*
X38038D01*
X38327Y17812D02*
Y18088D01*
X37983Y17812D02*
Y18088D01*
X41512Y19277D02*
X41788D01*
X41512Y18933D02*
X41788D01*
X37762Y21873D02*
X38038D01*
X37762Y22217D02*
X38038D01*
X38327Y22812D02*
Y23088D01*
X37983Y22812D02*
Y23088D01*
X41512Y24277D02*
X41788D01*
X41512Y23933D02*
X41788D01*
X33562Y9717D02*
X33838D01*
X33562Y9373D02*
X33838D01*
X34562Y9354D02*
X34838D01*
X34562Y9699D02*
X34838D01*
X34250Y9331D02*
Y9731D01*
X33562Y10299D02*
X33838D01*
X33562Y9954D02*
X33838D01*
X33562Y10849D02*
X33838D01*
X33562Y10504D02*
X33838D01*
X34562Y11399D02*
X34838D01*
X34562Y11054D02*
X34838D01*
D26*
X6403Y5775D02*
X6797D01*
X6403Y6326D02*
X6797D01*
X7071Y7303D02*
Y7697D01*
X5929Y7303D02*
Y7697D01*
X7071D01*
X5929Y7303D02*
X7071D01*
X6353Y8675D02*
X6747D01*
X6353Y9226D02*
X6747D01*
X10391Y11782D02*
X11809D01*
X10391Y13081D02*
X11809D01*
X6403Y15775D02*
X6797D01*
X6403Y16326D02*
X6797D01*
X6353Y18675D02*
X6747D01*
X6353Y19226D02*
X6747D01*
X7071Y17303D02*
Y17697D01*
X5929Y17303D02*
Y17697D01*
X7071D01*
X5929Y17303D02*
X7071D01*
X6403Y10775D02*
X6797D01*
X6403Y11326D02*
X6797D01*
X6353Y13675D02*
X6747D01*
X6353Y14226D02*
X6747D01*
X7071Y12303D02*
Y12697D01*
X5929Y12303D02*
Y12697D01*
X7071D01*
X5929Y12303D02*
X7071D01*
X6403Y20775D02*
X6797D01*
X6403Y21326D02*
X6797D01*
X6353Y23675D02*
X6747D01*
X6353Y24226D02*
X6747D01*
X7071Y22303D02*
Y22697D01*
X5929Y22303D02*
Y22697D01*
X7071D01*
X5929Y22303D02*
X7071D01*
X6403Y25775D02*
X6797D01*
X6403Y26326D02*
X6797D01*
X6353Y28675D02*
X6747D01*
X6353Y29226D02*
X6747D01*
X7071Y27303D02*
Y27697D01*
X5929Y27303D02*
Y27697D01*
X7071D01*
X5929Y27303D02*
X7071D01*
X15553Y29326D02*
X15947D01*
X15553Y28775D02*
X15947D01*
X15603Y26426D02*
X15997D01*
X15603Y25875D02*
X15997D01*
X15279Y27403D02*
Y27797D01*
X16421Y27403D02*
Y27797D01*
X15279Y27403D02*
X16421D01*
X15279Y27797D02*
X16421D01*
X15553Y9326D02*
X15947D01*
X15553Y8775D02*
X15947D01*
X15603Y6426D02*
X15997D01*
X15603Y5875D02*
X15997D01*
X15279Y7403D02*
Y7797D01*
X16421Y7403D02*
Y7797D01*
X15279Y7403D02*
X16421D01*
X15279Y7797D02*
X16421D01*
X15553Y14326D02*
X15947D01*
X15553Y13775D02*
X15947D01*
X15603Y11426D02*
X15997D01*
X15603Y10875D02*
X15997D01*
X15279Y12403D02*
Y12797D01*
X16421Y12403D02*
Y12797D01*
X15279Y12403D02*
X16421D01*
X15279Y12797D02*
X16421D01*
X15279Y17797D02*
X16421D01*
X15279Y17403D02*
X16421D01*
Y17797D01*
X15279Y17403D02*
Y17797D01*
X15603Y15875D02*
X15997D01*
X15603Y16426D02*
X15997D01*
X15553Y18775D02*
X15947D01*
X15553Y19326D02*
X15947D01*
X15279Y22797D02*
X16421D01*
X15279Y22403D02*
X16421D01*
Y22797D01*
X15279Y22403D02*
Y22797D01*
X15603Y20875D02*
X15997D01*
X15603Y21426D02*
X15997D01*
X15553Y23775D02*
X15947D01*
X15553Y24326D02*
X15947D01*
X29653Y5775D02*
X30047D01*
X29653Y6326D02*
X30047D01*
X30321Y7303D02*
Y7697D01*
X29179Y7303D02*
Y7697D01*
X30321D01*
X29179Y7303D02*
X30321D01*
X29603Y8675D02*
X29997D01*
X29603Y9226D02*
X29997D01*
X33641Y11782D02*
X35059D01*
X33641Y13081D02*
X35059D01*
X29653Y15775D02*
X30047D01*
X29653Y16326D02*
X30047D01*
X29603Y18675D02*
X29997D01*
X29603Y19226D02*
X29997D01*
X30321Y17303D02*
Y17697D01*
X29179Y17303D02*
Y17697D01*
X30321D01*
X29179Y17303D02*
X30321D01*
X29653Y10775D02*
X30047D01*
X29653Y11326D02*
X30047D01*
X29603Y13675D02*
X29997D01*
X29603Y14226D02*
X29997D01*
X30321Y12303D02*
Y12697D01*
X29179Y12303D02*
Y12697D01*
X30321D01*
X29179Y12303D02*
X30321D01*
X29653Y20775D02*
X30047D01*
X29653Y21326D02*
X30047D01*
X29603Y23675D02*
X29997D01*
X29603Y24226D02*
X29997D01*
X30321Y22303D02*
Y22697D01*
X29179Y22303D02*
Y22697D01*
X30321D01*
X29179Y22303D02*
X30321D01*
X29653Y25775D02*
X30047D01*
X29653Y26326D02*
X30047D01*
X29603Y28675D02*
X29997D01*
X29603Y29226D02*
X29997D01*
X30321Y27303D02*
Y27697D01*
X29179Y27303D02*
Y27697D01*
X30321D01*
X29179Y27303D02*
X30321D01*
X38803Y29326D02*
X39197D01*
X38803Y28775D02*
X39197D01*
X38853Y26426D02*
X39247D01*
X38853Y25875D02*
X39247D01*
X38529Y27403D02*
Y27797D01*
X39671Y27403D02*
Y27797D01*
X38529Y27403D02*
X39671D01*
X38529Y27797D02*
X39671D01*
X38803Y9326D02*
X39197D01*
X38803Y8775D02*
X39197D01*
X38853Y6426D02*
X39247D01*
X38853Y5875D02*
X39247D01*
X38529Y7403D02*
Y7797D01*
X39671Y7403D02*
Y7797D01*
X38529Y7403D02*
X39671D01*
X38529Y7797D02*
X39671D01*
X38803Y14326D02*
X39197D01*
X38803Y13775D02*
X39197D01*
X38853Y11426D02*
X39247D01*
X38853Y10875D02*
X39247D01*
X38529Y12403D02*
Y12797D01*
X39671Y12403D02*
Y12797D01*
X38529Y12403D02*
X39671D01*
X38529Y12797D02*
X39671D01*
X38529Y17797D02*
X39671D01*
X38529Y17403D02*
X39671D01*
Y17797D01*
X38529Y17403D02*
Y17797D01*
X38853Y15875D02*
X39247D01*
X38853Y16426D02*
X39247D01*
X38803Y18775D02*
X39197D01*
X38803Y19326D02*
X39197D01*
X38529Y22797D02*
X39671D01*
X38529Y22403D02*
X39671D01*
Y22797D01*
X38529Y22403D02*
Y22797D01*
X38853Y20875D02*
X39247D01*
X38853Y21426D02*
X39247D01*
X38803Y23775D02*
X39197D01*
X38803Y24326D02*
X39197D01*
D27*
X13008Y3219D02*
Y9124D01*
X9307Y3219D02*
X13008D01*
X9307D02*
Y9124D01*
X13008D01*
X9368Y11723D02*
Y13140D01*
X36258Y3219D02*
Y9124D01*
X32557Y3219D02*
X36258D01*
X32557D02*
Y9124D01*
X36258D01*
X32618Y11723D02*
Y13140D01*
D28*
X21500Y16310D02*
Y16881D01*
X21028D02*
X21500D01*
X21028D02*
Y18219D01*
X21500D01*
Y18790D01*
X16776D02*
X21500D01*
X16776Y16310D02*
Y18790D01*
Y16310D02*
X21500D01*
X16776Y21310D02*
X21500D01*
X16776D02*
Y23790D01*
X21500D01*
Y23219D02*
Y23790D01*
X21028Y23219D02*
X21500D01*
X21028Y21881D02*
Y23219D01*
Y21881D02*
X21500D01*
Y21310D02*
Y21881D01*
X850Y8219D02*
Y8790D01*
Y8219D02*
X1323D01*
Y6881D02*
Y8219D01*
X850Y6881D02*
X1323D01*
X850Y6310D02*
Y6881D01*
Y6310D02*
X5575D01*
Y8790D01*
X850D02*
X5575D01*
X850Y13790D02*
X5575D01*
Y11310D02*
Y13790D01*
X850Y11310D02*
X5575D01*
X850D02*
Y11881D01*
X1323D01*
Y13219D01*
X850D02*
X1323D01*
X850D02*
Y13790D01*
Y18219D02*
Y18790D01*
Y18219D02*
X1323D01*
Y16881D02*
Y18219D01*
X850Y16881D02*
X1323D01*
X850Y16310D02*
Y16881D01*
Y16310D02*
X5575D01*
Y18790D01*
X850D02*
X5575D01*
X850Y23790D02*
X5575D01*
Y21310D02*
Y23790D01*
X850Y21310D02*
X5575D01*
X850D02*
Y21881D01*
X1323D01*
Y23219D01*
X850D02*
X1323D01*
X850D02*
Y23790D01*
Y28219D02*
Y28790D01*
Y28219D02*
X1323D01*
Y26881D02*
Y28219D01*
X850Y26881D02*
X1323D01*
X850Y26310D02*
Y26881D01*
Y26310D02*
X5575D01*
Y28790D01*
X850D02*
X5575D01*
X16776Y26310D02*
X21500D01*
X16776D02*
Y28790D01*
X21500D01*
Y28219D02*
Y28790D01*
X21028Y28219D02*
X21500D01*
X21028Y26881D02*
Y28219D01*
Y26881D02*
X21500D01*
Y26310D02*
Y26881D01*
Y11310D02*
Y11881D01*
X21028D02*
X21500D01*
X21028D02*
Y13219D01*
X21500D01*
Y13790D01*
X16776D02*
X21500D01*
X16776Y11310D02*
Y13790D01*
Y11310D02*
X21500D01*
X16776Y6310D02*
X21500D01*
X16776D02*
Y8790D01*
X21500D01*
Y8219D02*
Y8790D01*
X21028Y8219D02*
X21500D01*
X21028Y6881D02*
Y8219D01*
Y6881D02*
X21500D01*
Y6310D02*
Y6881D01*
X13150Y6750D02*
Y6500D01*
X13200Y6450D01*
X13300D01*
X13350Y6500D01*
Y6750D01*
X13450Y6450D02*
X13550D01*
X13500D01*
Y6750D01*
X13450Y6700D01*
X13700Y6400D02*
X13900D01*
X14200Y6700D02*
X14150Y6750D01*
X14050D01*
X14000Y6700D01*
Y6500D01*
X14050Y6450D01*
X14150D01*
X14200Y6500D01*
X14300Y6750D02*
Y6450D01*
Y6600D01*
X14500D01*
Y6750D01*
Y6450D01*
X14800Y6700D02*
X14750Y6750D01*
X14650D01*
X14600Y6700D01*
Y6500D01*
X14650Y6450D01*
X14750D01*
X14800Y6500D01*
Y6600D01*
X14700D01*
X14900Y6450D02*
X15000D01*
X14950D01*
Y6750D01*
X14900Y6700D01*
X15150D02*
X15199Y6750D01*
X15299D01*
X15349Y6700D01*
Y6500D01*
X15299Y6450D01*
X15199D01*
X15150Y6500D01*
Y6700D01*
X13150Y11750D02*
Y11500D01*
X13200Y11450D01*
X13300D01*
X13350Y11500D01*
Y11750D01*
X13450Y11450D02*
X13550D01*
X13500D01*
Y11750D01*
X13450Y11700D01*
X13700Y11400D02*
X13900D01*
X14200Y11700D02*
X14150Y11750D01*
X14050D01*
X14000Y11700D01*
Y11500D01*
X14050Y11450D01*
X14150D01*
X14200Y11500D01*
X14300Y11750D02*
Y11450D01*
Y11600D01*
X14500D01*
Y11750D01*
Y11450D01*
X14800Y11700D02*
X14750Y11750D01*
X14650D01*
X14600Y11700D01*
Y11500D01*
X14650Y11450D01*
X14750D01*
X14800Y11500D01*
Y11600D01*
X14700D01*
X14900Y11500D02*
X14950Y11450D01*
X15050D01*
X15100Y11500D01*
Y11700D01*
X15050Y11750D01*
X14950D01*
X14900Y11700D01*
Y11650D01*
X14950Y11600D01*
X15100D01*
X13150Y26750D02*
Y26500D01*
X13200Y26450D01*
X13300D01*
X13350Y26500D01*
Y26750D01*
X13450Y26450D02*
X13550D01*
X13500D01*
Y26750D01*
X13450Y26700D01*
X13700Y26400D02*
X13900D01*
X14200Y26700D02*
X14150Y26750D01*
X14050D01*
X14000Y26700D01*
Y26500D01*
X14050Y26450D01*
X14150D01*
X14200Y26500D01*
X14300Y26750D02*
Y26450D01*
Y26600D01*
X14500D01*
Y26750D01*
Y26450D01*
X14800Y26700D02*
X14750Y26750D01*
X14650D01*
X14600Y26700D01*
Y26500D01*
X14650Y26450D01*
X14750D01*
X14800Y26500D01*
Y26600D01*
X14700D01*
X15100Y26750D02*
X15000Y26700D01*
X14900Y26600D01*
Y26500D01*
X14950Y26450D01*
X15050D01*
X15100Y26500D01*
Y26550D01*
X15050Y26600D01*
X14900D01*
X9200Y28350D02*
Y28600D01*
X9150Y28650D01*
X9050D01*
X9000Y28600D01*
Y28350D01*
X8900Y28650D02*
X8800D01*
X8850D01*
Y28350D01*
X8900Y28400D01*
X8650Y28700D02*
X8450D01*
X8150Y28400D02*
X8200Y28350D01*
X8300D01*
X8350Y28400D01*
Y28600D01*
X8300Y28650D01*
X8200D01*
X8150Y28600D01*
X8051Y28350D02*
Y28650D01*
Y28500D01*
X7851D01*
Y28350D01*
Y28650D01*
X7551Y28400D02*
X7601Y28350D01*
X7701D01*
X7751Y28400D01*
Y28600D01*
X7701Y28650D01*
X7601D01*
X7551Y28600D01*
Y28500D01*
X7651D01*
X7251Y28350D02*
X7451D01*
Y28500D01*
X7351Y28450D01*
X7301D01*
X7251Y28500D01*
Y28600D01*
X7301Y28650D01*
X7401D01*
X7451Y28600D01*
X9200Y23350D02*
Y23600D01*
X9150Y23650D01*
X9050D01*
X9000Y23600D01*
Y23350D01*
X8900Y23650D02*
X8800D01*
X8850D01*
Y23350D01*
X8900Y23400D01*
X8650Y23700D02*
X8450D01*
X8150Y23400D02*
X8200Y23350D01*
X8300D01*
X8350Y23400D01*
Y23600D01*
X8300Y23650D01*
X8200D01*
X8150Y23600D01*
X8051Y23350D02*
Y23650D01*
Y23500D01*
X7851D01*
Y23350D01*
Y23650D01*
X7551Y23400D02*
X7601Y23350D01*
X7701D01*
X7751Y23400D01*
Y23600D01*
X7701Y23650D01*
X7601D01*
X7551Y23600D01*
Y23500D01*
X7651D01*
X7301Y23650D02*
Y23350D01*
X7451Y23500D01*
X7251D01*
X9200Y18350D02*
Y18600D01*
X9150Y18650D01*
X9050D01*
X9000Y18600D01*
Y18350D01*
X8900Y18650D02*
X8800D01*
X8850D01*
Y18350D01*
X8900Y18400D01*
X8650Y18700D02*
X8450D01*
X8150Y18400D02*
X8200Y18350D01*
X8300D01*
X8350Y18400D01*
Y18600D01*
X8300Y18650D01*
X8200D01*
X8150Y18600D01*
X8051Y18350D02*
Y18650D01*
Y18500D01*
X7851D01*
Y18350D01*
Y18650D01*
X7551Y18400D02*
X7601Y18350D01*
X7701D01*
X7751Y18400D01*
Y18600D01*
X7701Y18650D01*
X7601D01*
X7551Y18600D01*
Y18500D01*
X7651D01*
X7451Y18400D02*
X7401Y18350D01*
X7301D01*
X7251Y18400D01*
Y18450D01*
X7301Y18500D01*
X7351D01*
X7301D01*
X7251Y18550D01*
Y18600D01*
X7301Y18650D01*
X7401D01*
X7451Y18600D01*
X9200Y13350D02*
Y13600D01*
X9150Y13650D01*
X9050D01*
X9000Y13600D01*
Y13350D01*
X8900Y13650D02*
X8800D01*
X8850D01*
Y13350D01*
X8900Y13400D01*
X8650Y13700D02*
X8450D01*
X8150Y13400D02*
X8200Y13350D01*
X8300D01*
X8350Y13400D01*
Y13600D01*
X8300Y13650D01*
X8200D01*
X8150Y13600D01*
X8051Y13350D02*
Y13650D01*
Y13500D01*
X7851D01*
Y13350D01*
Y13650D01*
X7551Y13400D02*
X7601Y13350D01*
X7701D01*
X7751Y13400D01*
Y13600D01*
X7701Y13650D01*
X7601D01*
X7551Y13600D01*
Y13500D01*
X7651D01*
X7251Y13650D02*
X7451D01*
X7251Y13450D01*
Y13400D01*
X7301Y13350D01*
X7401D01*
X7451Y13400D01*
X9200Y8350D02*
Y8600D01*
X9150Y8650D01*
X9050D01*
X9000Y8600D01*
Y8350D01*
X8900Y8650D02*
X8800D01*
X8850D01*
Y8350D01*
X8900Y8400D01*
X8650Y8700D02*
X8450D01*
X8150Y8400D02*
X8200Y8350D01*
X8300D01*
X8350Y8400D01*
Y8600D01*
X8300Y8650D01*
X8200D01*
X8150Y8600D01*
X8051Y8350D02*
Y8650D01*
Y8500D01*
X7851D01*
Y8350D01*
Y8650D01*
X7551Y8400D02*
X7601Y8350D01*
X7701D01*
X7751Y8400D01*
Y8600D01*
X7701Y8650D01*
X7601D01*
X7551Y8600D01*
Y8500D01*
X7651D01*
X7451Y8650D02*
X7351D01*
X7401D01*
Y8350D01*
X7451Y8400D01*
X11200Y10600D02*
Y10900D01*
X11350D01*
X11400Y10850D01*
Y10750D01*
X11350Y10700D01*
X11200D01*
X11300D02*
X11400Y10600D01*
X11650D02*
Y10900D01*
X11500Y10750D01*
X11700D01*
X12100Y6900D02*
Y7200D01*
X12250D01*
X12300Y7150D01*
Y7050D01*
X12250Y7000D01*
X12100D01*
X12200D02*
X12300Y6900D01*
X12400Y7150D02*
X12450Y7200D01*
X12550D01*
X12600Y7150D01*
Y7100D01*
X12550Y7050D01*
X12500D01*
X12550D01*
X12600Y7000D01*
Y6950D01*
X12550Y6900D01*
X12450D01*
X12400Y6950D01*
X12700Y6850D02*
X12900D01*
X13200Y7150D02*
X13150Y7200D01*
X13050D01*
X13000Y7150D01*
Y6950D01*
X13050Y6900D01*
X13150D01*
X13200Y6950D01*
X13300Y7200D02*
Y6900D01*
Y7050D01*
X13500D01*
Y7200D01*
Y6900D01*
X13800Y7150D02*
X13750Y7200D01*
X13650D01*
X13600Y7150D01*
Y6950D01*
X13650Y6900D01*
X13750D01*
X13800Y6950D01*
Y7050D01*
X13700D01*
X13900Y6900D02*
X14000D01*
X13950D01*
Y7200D01*
X13900Y7150D01*
X14149D02*
X14199Y7200D01*
X14299D01*
X14349Y7150D01*
Y6950D01*
X14299Y6900D01*
X14199D01*
X14149Y6950D01*
Y7150D01*
X12100Y11900D02*
Y12200D01*
X12250D01*
X12300Y12150D01*
Y12050D01*
X12250Y12000D01*
X12100D01*
X12200D02*
X12300Y11900D01*
X12400Y12150D02*
X12450Y12200D01*
X12550D01*
X12600Y12150D01*
Y12100D01*
X12550Y12050D01*
X12500D01*
X12550D01*
X12600Y12000D01*
Y11950D01*
X12550Y11900D01*
X12450D01*
X12400Y11950D01*
X12700Y11850D02*
X12900D01*
X13200Y12150D02*
X13150Y12200D01*
X13050D01*
X13000Y12150D01*
Y11950D01*
X13050Y11900D01*
X13150D01*
X13200Y11950D01*
X13300Y12200D02*
Y11900D01*
Y12050D01*
X13500D01*
Y12200D01*
Y11900D01*
X13800Y12150D02*
X13750Y12200D01*
X13650D01*
X13600Y12150D01*
Y11950D01*
X13650Y11900D01*
X13750D01*
X13800Y11950D01*
Y12050D01*
X13700D01*
X13900Y11950D02*
X13950Y11900D01*
X14050D01*
X14100Y11950D01*
Y12150D01*
X14050Y12200D01*
X13950D01*
X13900Y12150D01*
Y12100D01*
X13950Y12050D01*
X14100D01*
X12100Y26900D02*
Y27200D01*
X12250D01*
X12300Y27150D01*
Y27050D01*
X12250Y27000D01*
X12100D01*
X12200D02*
X12300Y26900D01*
X12400Y27150D02*
X12450Y27200D01*
X12550D01*
X12600Y27150D01*
Y27100D01*
X12550Y27050D01*
X12500D01*
X12550D01*
X12600Y27000D01*
Y26950D01*
X12550Y26900D01*
X12450D01*
X12400Y26950D01*
X12700Y26850D02*
X12900D01*
X13200Y27150D02*
X13150Y27200D01*
X13050D01*
X13000Y27150D01*
Y26950D01*
X13050Y26900D01*
X13150D01*
X13200Y26950D01*
X13300Y27200D02*
Y26900D01*
Y27050D01*
X13500D01*
Y27200D01*
Y26900D01*
X13800Y27150D02*
X13750Y27200D01*
X13650D01*
X13600Y27150D01*
Y26950D01*
X13650Y26900D01*
X13750D01*
X13800Y26950D01*
Y27050D01*
X13700D01*
X14100Y27200D02*
X14000Y27150D01*
X13900Y27050D01*
Y26950D01*
X13950Y26900D01*
X14050D01*
X14100Y26950D01*
Y27000D01*
X14050Y27050D01*
X13900D01*
X10250Y28200D02*
Y27900D01*
X10100D01*
X10050Y27950D01*
Y28050D01*
X10100Y28100D01*
X10250D01*
X10150D02*
X10050Y28200D01*
X9950Y27950D02*
X9900Y27900D01*
X9800D01*
X9750Y27950D01*
Y28000D01*
X9800Y28050D01*
X9850D01*
X9800D01*
X9750Y28100D01*
Y28150D01*
X9800Y28200D01*
X9900D01*
X9950Y28150D01*
X9650Y28250D02*
X9450D01*
X9151Y27950D02*
X9200Y27900D01*
X9300D01*
X9350Y27950D01*
Y28150D01*
X9300Y28200D01*
X9200D01*
X9151Y28150D01*
X9051Y27900D02*
Y28200D01*
Y28050D01*
X8851D01*
Y27900D01*
Y28200D01*
X8551Y27950D02*
X8601Y27900D01*
X8701D01*
X8751Y27950D01*
Y28150D01*
X8701Y28200D01*
X8601D01*
X8551Y28150D01*
Y28050D01*
X8651D01*
X8251Y27900D02*
X8451D01*
Y28050D01*
X8351Y28000D01*
X8301D01*
X8251Y28050D01*
Y28150D01*
X8301Y28200D01*
X8401D01*
X8451Y28150D01*
X10250Y23200D02*
Y22900D01*
X10100D01*
X10050Y22950D01*
Y23050D01*
X10100Y23100D01*
X10250D01*
X10150D02*
X10050Y23200D01*
X9950Y22950D02*
X9900Y22900D01*
X9800D01*
X9750Y22950D01*
Y23000D01*
X9800Y23050D01*
X9850D01*
X9800D01*
X9750Y23100D01*
Y23150D01*
X9800Y23200D01*
X9900D01*
X9950Y23150D01*
X9650Y23250D02*
X9450D01*
X9151Y22950D02*
X9200Y22900D01*
X9300D01*
X9350Y22950D01*
Y23150D01*
X9300Y23200D01*
X9200D01*
X9151Y23150D01*
X9051Y22900D02*
Y23200D01*
Y23050D01*
X8851D01*
Y22900D01*
Y23200D01*
X8551Y22950D02*
X8601Y22900D01*
X8701D01*
X8751Y22950D01*
Y23150D01*
X8701Y23200D01*
X8601D01*
X8551Y23150D01*
Y23050D01*
X8651D01*
X8301Y23200D02*
Y22900D01*
X8451Y23050D01*
X8251D01*
X10250Y18200D02*
Y17900D01*
X10100D01*
X10050Y17950D01*
Y18050D01*
X10100Y18100D01*
X10250D01*
X10150D02*
X10050Y18200D01*
X9950Y17950D02*
X9900Y17900D01*
X9800D01*
X9750Y17950D01*
Y18000D01*
X9800Y18050D01*
X9850D01*
X9800D01*
X9750Y18100D01*
Y18150D01*
X9800Y18200D01*
X9900D01*
X9950Y18150D01*
X9650Y18250D02*
X9450D01*
X9151Y17950D02*
X9200Y17900D01*
X9300D01*
X9350Y17950D01*
Y18150D01*
X9300Y18200D01*
X9200D01*
X9151Y18150D01*
X9051Y17900D02*
Y18200D01*
Y18050D01*
X8851D01*
Y17900D01*
Y18200D01*
X8551Y17950D02*
X8601Y17900D01*
X8701D01*
X8751Y17950D01*
Y18150D01*
X8701Y18200D01*
X8601D01*
X8551Y18150D01*
Y18050D01*
X8651D01*
X8451Y17950D02*
X8401Y17900D01*
X8301D01*
X8251Y17950D01*
Y18000D01*
X8301Y18050D01*
X8351D01*
X8301D01*
X8251Y18100D01*
Y18150D01*
X8301Y18200D01*
X8401D01*
X8451Y18150D01*
X10250Y13200D02*
Y12900D01*
X10100D01*
X10050Y12950D01*
Y13050D01*
X10100Y13100D01*
X10250D01*
X10150D02*
X10050Y13200D01*
X9950Y12950D02*
X9900Y12900D01*
X9800D01*
X9750Y12950D01*
Y13000D01*
X9800Y13050D01*
X9850D01*
X9800D01*
X9750Y13100D01*
Y13150D01*
X9800Y13200D01*
X9900D01*
X9950Y13150D01*
X9650Y13250D02*
X9450D01*
X9151Y12950D02*
X9200Y12900D01*
X9300D01*
X9350Y12950D01*
Y13150D01*
X9300Y13200D01*
X9200D01*
X9151Y13150D01*
X9051Y12900D02*
Y13200D01*
Y13050D01*
X8851D01*
Y12900D01*
Y13200D01*
X8551Y12950D02*
X8601Y12900D01*
X8701D01*
X8751Y12950D01*
Y13150D01*
X8701Y13200D01*
X8601D01*
X8551Y13150D01*
Y13050D01*
X8651D01*
X8251Y13200D02*
X8451D01*
X8251Y13000D01*
Y12950D01*
X8301Y12900D01*
X8401D01*
X8451Y12950D01*
X10250Y8200D02*
Y7900D01*
X10100D01*
X10050Y7950D01*
Y8050D01*
X10100Y8100D01*
X10250D01*
X10150D02*
X10050Y8200D01*
X9950Y7950D02*
X9900Y7900D01*
X9800D01*
X9750Y7950D01*
Y8000D01*
X9800Y8050D01*
X9850D01*
X9800D01*
X9750Y8100D01*
Y8150D01*
X9800Y8200D01*
X9900D01*
X9950Y8150D01*
X9650Y8250D02*
X9450D01*
X9151Y7950D02*
X9200Y7900D01*
X9300D01*
X9350Y7950D01*
Y8150D01*
X9300Y8200D01*
X9200D01*
X9151Y8150D01*
X9051Y7900D02*
Y8200D01*
Y8050D01*
X8851D01*
Y7900D01*
Y8200D01*
X8551Y7950D02*
X8601Y7900D01*
X8701D01*
X8751Y7950D01*
Y8150D01*
X8701Y8200D01*
X8601D01*
X8551Y8150D01*
Y8050D01*
X8651D01*
X8451Y8200D02*
X8351D01*
X8401D01*
Y7900D01*
X8451Y7950D01*
X14950Y8600D02*
X14650D01*
Y8750D01*
X14700Y8800D01*
X14800D01*
X14850Y8750D01*
Y8600D01*
Y8700D02*
X14950Y8800D01*
Y9100D02*
Y8900D01*
X14750Y9100D01*
X14700D01*
X14650Y9050D01*
Y8950D01*
X14700Y8900D01*
X15000Y9200D02*
Y9400D01*
X14700Y9700D02*
X14650Y9650D01*
Y9550D01*
X14700Y9500D01*
X14900D01*
X14950Y9550D01*
Y9650D01*
X14900Y9700D01*
X14650Y9800D02*
X14950D01*
X14800D01*
Y10000D01*
X14650D01*
X14950D01*
X14700Y10300D02*
X14650Y10250D01*
Y10150D01*
X14700Y10100D01*
X14900D01*
X14950Y10150D01*
Y10250D01*
X14900Y10300D01*
X14800D01*
Y10200D01*
X14950Y10400D02*
Y10500D01*
Y10450D01*
X14650D01*
X14700Y10400D01*
Y10649D02*
X14650Y10699D01*
Y10799D01*
X14700Y10849D01*
X14900D01*
X14950Y10799D01*
Y10699D01*
X14900Y10649D01*
X14700D01*
X14950Y13600D02*
X14650D01*
Y13750D01*
X14700Y13800D01*
X14800D01*
X14850Y13750D01*
Y13600D01*
Y13700D02*
X14950Y13800D01*
Y14100D02*
Y13900D01*
X14750Y14100D01*
X14700D01*
X14650Y14050D01*
Y13950D01*
X14700Y13900D01*
X15000Y14200D02*
Y14400D01*
X14700Y14700D02*
X14650Y14650D01*
Y14550D01*
X14700Y14500D01*
X14900D01*
X14950Y14550D01*
Y14650D01*
X14900Y14700D01*
X14650Y14800D02*
X14950D01*
X14800D01*
Y15000D01*
X14650D01*
X14950D01*
X14700Y15300D02*
X14650Y15250D01*
Y15150D01*
X14700Y15100D01*
X14900D01*
X14950Y15150D01*
Y15250D01*
X14900Y15300D01*
X14800D01*
Y15200D01*
X14900Y15400D02*
X14950Y15450D01*
Y15550D01*
X14900Y15599D01*
X14700D01*
X14650Y15550D01*
Y15450D01*
X14700Y15400D01*
X14750D01*
X14800Y15450D01*
Y15599D01*
X14950Y28600D02*
X14650D01*
Y28750D01*
X14700Y28800D01*
X14800D01*
X14850Y28750D01*
Y28600D01*
Y28700D02*
X14950Y28800D01*
Y29100D02*
Y28900D01*
X14750Y29100D01*
X14700D01*
X14650Y29050D01*
Y28950D01*
X14700Y28900D01*
X15000Y29200D02*
Y29400D01*
X14700Y29700D02*
X14650Y29650D01*
Y29550D01*
X14700Y29500D01*
X14900D01*
X14950Y29550D01*
Y29650D01*
X14900Y29700D01*
X14650Y29800D02*
X14950D01*
X14800D01*
Y30000D01*
X14650D01*
X14950D01*
X14700Y30300D02*
X14650Y30250D01*
Y30150D01*
X14700Y30100D01*
X14900D01*
X14950Y30150D01*
Y30250D01*
X14900Y30300D01*
X14800D01*
Y30200D01*
X14650Y30600D02*
X14700Y30500D01*
X14800Y30400D01*
X14900D01*
X14950Y30450D01*
Y30550D01*
X14900Y30600D01*
X14850D01*
X14800Y30550D01*
Y30400D01*
X7400Y26500D02*
X7700D01*
Y26350D01*
X7650Y26300D01*
X7550D01*
X7500Y26350D01*
Y26500D01*
Y26400D02*
X7400Y26300D01*
Y26000D02*
Y26200D01*
X7600Y26000D01*
X7650D01*
X7700Y26050D01*
Y26150D01*
X7650Y26200D01*
X7350Y25900D02*
Y25700D01*
X7650Y25401D02*
X7700Y25450D01*
Y25550D01*
X7650Y25600D01*
X7450D01*
X7400Y25550D01*
Y25450D01*
X7450Y25401D01*
X7700Y25301D02*
X7400D01*
X7550D01*
Y25101D01*
X7700D01*
X7400D01*
X7650Y24801D02*
X7700Y24851D01*
Y24951D01*
X7650Y25001D01*
X7450D01*
X7400Y24951D01*
Y24851D01*
X7450Y24801D01*
X7550D01*
Y24901D01*
X7700Y24501D02*
Y24701D01*
X7550D01*
X7600Y24601D01*
Y24551D01*
X7550Y24501D01*
X7450D01*
X7400Y24551D01*
Y24651D01*
X7450Y24701D01*
X7400Y21500D02*
X7700D01*
Y21350D01*
X7650Y21300D01*
X7550D01*
X7500Y21350D01*
Y21500D01*
Y21400D02*
X7400Y21300D01*
Y21000D02*
Y21200D01*
X7600Y21000D01*
X7650D01*
X7700Y21050D01*
Y21150D01*
X7650Y21200D01*
X7350Y20900D02*
Y20700D01*
X7650Y20401D02*
X7700Y20450D01*
Y20550D01*
X7650Y20600D01*
X7450D01*
X7400Y20550D01*
Y20450D01*
X7450Y20401D01*
X7700Y20301D02*
X7400D01*
X7550D01*
Y20101D01*
X7700D01*
X7400D01*
X7650Y19801D02*
X7700Y19851D01*
Y19951D01*
X7650Y20001D01*
X7450D01*
X7400Y19951D01*
Y19851D01*
X7450Y19801D01*
X7550D01*
Y19901D01*
X7400Y19551D02*
X7700D01*
X7550Y19701D01*
Y19501D01*
X7400Y16500D02*
X7700D01*
Y16350D01*
X7650Y16300D01*
X7550D01*
X7500Y16350D01*
Y16500D01*
Y16400D02*
X7400Y16300D01*
Y16000D02*
Y16200D01*
X7600Y16000D01*
X7650D01*
X7700Y16050D01*
Y16150D01*
X7650Y16200D01*
X7350Y15900D02*
Y15700D01*
X7650Y15401D02*
X7700Y15450D01*
Y15550D01*
X7650Y15600D01*
X7450D01*
X7400Y15550D01*
Y15450D01*
X7450Y15401D01*
X7700Y15301D02*
X7400D01*
X7550D01*
Y15101D01*
X7700D01*
X7400D01*
X7650Y14801D02*
X7700Y14851D01*
Y14951D01*
X7650Y15001D01*
X7450D01*
X7400Y14951D01*
Y14851D01*
X7450Y14801D01*
X7550D01*
Y14901D01*
X7650Y14701D02*
X7700Y14651D01*
Y14551D01*
X7650Y14501D01*
X7600D01*
X7550Y14551D01*
Y14601D01*
Y14551D01*
X7500Y14501D01*
X7450D01*
X7400Y14551D01*
Y14651D01*
X7450Y14701D01*
X7400Y11500D02*
X7700D01*
Y11350D01*
X7650Y11300D01*
X7550D01*
X7500Y11350D01*
Y11500D01*
Y11400D02*
X7400Y11300D01*
Y11000D02*
Y11200D01*
X7600Y11000D01*
X7650D01*
X7700Y11050D01*
Y11150D01*
X7650Y11200D01*
X7350Y10900D02*
Y10700D01*
X7650Y10401D02*
X7700Y10450D01*
Y10550D01*
X7650Y10600D01*
X7450D01*
X7400Y10550D01*
Y10450D01*
X7450Y10401D01*
X7700Y10301D02*
X7400D01*
X7550D01*
Y10101D01*
X7700D01*
X7400D01*
X7650Y9801D02*
X7700Y9851D01*
Y9951D01*
X7650Y10001D01*
X7450D01*
X7400Y9951D01*
Y9851D01*
X7450Y9801D01*
X7550D01*
Y9901D01*
X7400Y9501D02*
Y9701D01*
X7600Y9501D01*
X7650D01*
X7700Y9551D01*
Y9651D01*
X7650Y9701D01*
X7400Y6500D02*
X7700D01*
Y6350D01*
X7650Y6300D01*
X7550D01*
X7500Y6350D01*
Y6500D01*
Y6400D02*
X7400Y6300D01*
Y6000D02*
Y6200D01*
X7600Y6000D01*
X7650D01*
X7700Y6050D01*
Y6150D01*
X7650Y6200D01*
X7350Y5900D02*
Y5700D01*
X7650Y5401D02*
X7700Y5450D01*
Y5550D01*
X7650Y5600D01*
X7450D01*
X7400Y5550D01*
Y5450D01*
X7450Y5401D01*
X7700Y5301D02*
X7400D01*
X7550D01*
Y5101D01*
X7700D01*
X7400D01*
X7650Y4801D02*
X7700Y4851D01*
Y4951D01*
X7650Y5001D01*
X7450D01*
X7400Y4951D01*
Y4851D01*
X7450Y4801D01*
X7550D01*
Y4901D01*
X7400Y4701D02*
Y4601D01*
Y4651D01*
X7700D01*
X7650Y4701D01*
X17650Y9500D02*
Y9800D01*
X17800D01*
X17850Y9750D01*
Y9650D01*
X17800Y9600D01*
X17650D01*
X17750D02*
X17850Y9500D01*
X17950D02*
X18050D01*
X18000D01*
Y9800D01*
X17950Y9750D01*
X18200Y9450D02*
X18400D01*
X18700Y9750D02*
X18650Y9800D01*
X18550D01*
X18500Y9750D01*
Y9550D01*
X18550Y9500D01*
X18650D01*
X18700Y9550D01*
X18800Y9800D02*
Y9500D01*
Y9650D01*
X19000D01*
Y9800D01*
Y9500D01*
X19300Y9750D02*
X19250Y9800D01*
X19150D01*
X19100Y9750D01*
Y9550D01*
X19150Y9500D01*
X19250D01*
X19300Y9550D01*
Y9650D01*
X19200D01*
X19400Y9500D02*
X19500D01*
X19450D01*
Y9800D01*
X19400Y9750D01*
X19649D02*
X19699Y9800D01*
X19799D01*
X19849Y9750D01*
Y9550D01*
X19799Y9500D01*
X19699D01*
X19649Y9550D01*
Y9750D01*
X17650Y14500D02*
Y14800D01*
X17800D01*
X17850Y14750D01*
Y14650D01*
X17800Y14600D01*
X17650D01*
X17750D02*
X17850Y14500D01*
X17950D02*
X18050D01*
X18000D01*
Y14800D01*
X17950Y14750D01*
X18200Y14450D02*
X18400D01*
X18700Y14750D02*
X18650Y14800D01*
X18550D01*
X18500Y14750D01*
Y14550D01*
X18550Y14500D01*
X18650D01*
X18700Y14550D01*
X18800Y14800D02*
Y14500D01*
Y14650D01*
X19000D01*
Y14800D01*
Y14500D01*
X19300Y14750D02*
X19250Y14800D01*
X19150D01*
X19100Y14750D01*
Y14550D01*
X19150Y14500D01*
X19250D01*
X19300Y14550D01*
Y14650D01*
X19200D01*
X19400Y14550D02*
X19450Y14500D01*
X19550D01*
X19600Y14550D01*
Y14750D01*
X19550Y14800D01*
X19450D01*
X19400Y14750D01*
Y14700D01*
X19450Y14650D01*
X19600D01*
X17650Y29500D02*
Y29800D01*
X17800D01*
X17850Y29750D01*
Y29650D01*
X17800Y29600D01*
X17650D01*
X17750D02*
X17850Y29500D01*
X17950D02*
X18050D01*
X18000D01*
Y29800D01*
X17950Y29750D01*
X18200Y29450D02*
X18400D01*
X18700Y29750D02*
X18650Y29800D01*
X18550D01*
X18500Y29750D01*
Y29550D01*
X18550Y29500D01*
X18650D01*
X18700Y29550D01*
X18800Y29800D02*
Y29500D01*
Y29650D01*
X19000D01*
Y29800D01*
Y29500D01*
X19300Y29750D02*
X19250Y29800D01*
X19150D01*
X19100Y29750D01*
Y29550D01*
X19150Y29500D01*
X19250D01*
X19300Y29550D01*
Y29650D01*
X19200D01*
X19600Y29800D02*
X19500Y29750D01*
X19400Y29650D01*
Y29550D01*
X19450Y29500D01*
X19550D01*
X19600Y29550D01*
Y29600D01*
X19550Y29650D01*
X19400D01*
X4700Y25600D02*
Y25300D01*
X4550D01*
X4500Y25350D01*
Y25450D01*
X4550Y25500D01*
X4700D01*
X4600D02*
X4500Y25600D01*
X4400D02*
X4300D01*
X4350D01*
Y25300D01*
X4400Y25350D01*
X4150Y25650D02*
X3950D01*
X3650Y25350D02*
X3700Y25300D01*
X3800D01*
X3850Y25350D01*
Y25550D01*
X3800Y25600D01*
X3700D01*
X3650Y25550D01*
X3551Y25300D02*
Y25600D01*
Y25450D01*
X3351D01*
Y25300D01*
Y25600D01*
X3051Y25350D02*
X3101Y25300D01*
X3201D01*
X3251Y25350D01*
Y25550D01*
X3201Y25600D01*
X3101D01*
X3051Y25550D01*
Y25450D01*
X3151D01*
X2751Y25300D02*
X2951D01*
Y25450D01*
X2851Y25400D01*
X2801D01*
X2751Y25450D01*
Y25550D01*
X2801Y25600D01*
X2901D01*
X2951Y25550D01*
X4700Y20600D02*
Y20300D01*
X4550D01*
X4500Y20350D01*
Y20450D01*
X4550Y20500D01*
X4700D01*
X4600D02*
X4500Y20600D01*
X4400D02*
X4300D01*
X4350D01*
Y20300D01*
X4400Y20350D01*
X4150Y20650D02*
X3950D01*
X3650Y20350D02*
X3700Y20300D01*
X3800D01*
X3850Y20350D01*
Y20550D01*
X3800Y20600D01*
X3700D01*
X3650Y20550D01*
X3551Y20300D02*
Y20600D01*
Y20450D01*
X3351D01*
Y20300D01*
Y20600D01*
X3051Y20350D02*
X3101Y20300D01*
X3201D01*
X3251Y20350D01*
Y20550D01*
X3201Y20600D01*
X3101D01*
X3051Y20550D01*
Y20450D01*
X3151D01*
X2801Y20600D02*
Y20300D01*
X2951Y20450D01*
X2751D01*
X4700Y15600D02*
Y15300D01*
X4550D01*
X4500Y15350D01*
Y15450D01*
X4550Y15500D01*
X4700D01*
X4600D02*
X4500Y15600D01*
X4400D02*
X4300D01*
X4350D01*
Y15300D01*
X4400Y15350D01*
X4150Y15650D02*
X3950D01*
X3650Y15350D02*
X3700Y15300D01*
X3800D01*
X3850Y15350D01*
Y15550D01*
X3800Y15600D01*
X3700D01*
X3650Y15550D01*
X3551Y15300D02*
Y15600D01*
Y15450D01*
X3351D01*
Y15300D01*
Y15600D01*
X3051Y15350D02*
X3101Y15300D01*
X3201D01*
X3251Y15350D01*
Y15550D01*
X3201Y15600D01*
X3101D01*
X3051Y15550D01*
Y15450D01*
X3151D01*
X2951Y15350D02*
X2901Y15300D01*
X2801D01*
X2751Y15350D01*
Y15400D01*
X2801Y15450D01*
X2851D01*
X2801D01*
X2751Y15500D01*
Y15550D01*
X2801Y15600D01*
X2901D01*
X2951Y15550D01*
X4700Y10600D02*
Y10300D01*
X4550D01*
X4500Y10350D01*
Y10450D01*
X4550Y10500D01*
X4700D01*
X4600D02*
X4500Y10600D01*
X4400D02*
X4300D01*
X4350D01*
Y10300D01*
X4400Y10350D01*
X4150Y10650D02*
X3950D01*
X3650Y10350D02*
X3700Y10300D01*
X3800D01*
X3850Y10350D01*
Y10550D01*
X3800Y10600D01*
X3700D01*
X3650Y10550D01*
X3551Y10300D02*
Y10600D01*
Y10450D01*
X3351D01*
Y10300D01*
Y10600D01*
X3051Y10350D02*
X3101Y10300D01*
X3201D01*
X3251Y10350D01*
Y10550D01*
X3201Y10600D01*
X3101D01*
X3051Y10550D01*
Y10450D01*
X3151D01*
X2751Y10600D02*
X2951D01*
X2751Y10400D01*
Y10350D01*
X2801Y10300D01*
X2901D01*
X2951Y10350D01*
X4700Y5600D02*
Y5300D01*
X4550D01*
X4500Y5350D01*
Y5450D01*
X4550Y5500D01*
X4700D01*
X4600D02*
X4500Y5600D01*
X4400D02*
X4300D01*
X4350D01*
Y5300D01*
X4400Y5350D01*
X4150Y5650D02*
X3950D01*
X3650Y5350D02*
X3700Y5300D01*
X3800D01*
X3850Y5350D01*
Y5550D01*
X3800Y5600D01*
X3700D01*
X3650Y5550D01*
X3551Y5300D02*
Y5600D01*
Y5450D01*
X3351D01*
Y5300D01*
Y5600D01*
X3051Y5350D02*
X3101Y5300D01*
X3201D01*
X3251Y5350D01*
Y5550D01*
X3201Y5600D01*
X3101D01*
X3051Y5550D01*
Y5450D01*
X3151D01*
X2951Y5600D02*
X2851D01*
X2901D01*
Y5300D01*
X2951Y5350D01*
X18200Y5850D02*
Y6150D01*
X18350D01*
X18400Y6100D01*
Y6000D01*
X18350Y5950D01*
X18200D01*
X18500Y5850D02*
X18600D01*
X18550D01*
Y6150D01*
X18500Y6100D01*
X18750Y5800D02*
X18950D01*
X19250Y6100D02*
X19200Y6150D01*
X19100D01*
X19050Y6100D01*
Y5900D01*
X19100Y5850D01*
X19200D01*
X19250Y5900D01*
X19350Y6150D02*
Y5850D01*
Y6000D01*
X19550D01*
Y6150D01*
Y5850D01*
X19850Y6100D02*
X19800Y6150D01*
X19700D01*
X19650Y6100D01*
Y5900D01*
X19700Y5850D01*
X19800D01*
X19850Y5900D01*
Y6000D01*
X19750D01*
X19950Y5850D02*
X20050D01*
X20000D01*
Y6150D01*
X19950Y6100D01*
X20199D02*
X20249Y6150D01*
X20349D01*
X20399Y6100D01*
Y5900D01*
X20349Y5850D01*
X20249D01*
X20199Y5900D01*
Y6100D01*
X18200Y10850D02*
Y11150D01*
X18350D01*
X18400Y11100D01*
Y11000D01*
X18350Y10950D01*
X18200D01*
X18500Y10850D02*
X18600D01*
X18550D01*
Y11150D01*
X18500Y11100D01*
X18750Y10800D02*
X18950D01*
X19250Y11100D02*
X19200Y11150D01*
X19100D01*
X19050Y11100D01*
Y10900D01*
X19100Y10850D01*
X19200D01*
X19250Y10900D01*
X19350Y11150D02*
Y10850D01*
Y11000D01*
X19550D01*
Y11150D01*
Y10850D01*
X19850Y11100D02*
X19800Y11150D01*
X19700D01*
X19650Y11100D01*
Y10900D01*
X19700Y10850D01*
X19800D01*
X19850Y10900D01*
Y11000D01*
X19750D01*
X19950Y10900D02*
X20000Y10850D01*
X20100D01*
X20150Y10900D01*
Y11100D01*
X20100Y11150D01*
X20000D01*
X19950Y11100D01*
Y11050D01*
X20000Y11000D01*
X20150D01*
X18200Y25850D02*
Y26150D01*
X18350D01*
X18400Y26100D01*
Y26000D01*
X18350Y25950D01*
X18200D01*
X18500Y25850D02*
X18600D01*
X18550D01*
Y26150D01*
X18500Y26100D01*
X18750Y25800D02*
X18950D01*
X19250Y26100D02*
X19200Y26150D01*
X19100D01*
X19050Y26100D01*
Y25900D01*
X19100Y25850D01*
X19200D01*
X19250Y25900D01*
X19350Y26150D02*
Y25850D01*
Y26000D01*
X19550D01*
Y26150D01*
Y25850D01*
X19850Y26100D02*
X19800Y26150D01*
X19700D01*
X19650Y26100D01*
Y25900D01*
X19700Y25850D01*
X19800D01*
X19850Y25900D01*
Y26000D01*
X19750D01*
X20150Y26150D02*
X20050Y26100D01*
X19950Y26000D01*
Y25900D01*
X20000Y25850D01*
X20100D01*
X20150Y25900D01*
Y25950D01*
X20100Y26000D01*
X19950D01*
X4150Y29250D02*
Y28950D01*
X4000D01*
X3950Y29000D01*
Y29100D01*
X4000Y29150D01*
X4150D01*
X3850Y29250D02*
X3750D01*
X3800D01*
Y28950D01*
X3850Y29000D01*
X3600Y29300D02*
X3400D01*
X3100Y29000D02*
X3150Y28950D01*
X3250D01*
X3300Y29000D01*
Y29200D01*
X3250Y29250D01*
X3150D01*
X3100Y29200D01*
X3001Y28950D02*
Y29250D01*
Y29100D01*
X2801D01*
Y28950D01*
Y29250D01*
X2501Y29000D02*
X2551Y28950D01*
X2651D01*
X2701Y29000D01*
Y29200D01*
X2651Y29250D01*
X2551D01*
X2501Y29200D01*
Y29100D01*
X2601D01*
X2201Y28950D02*
X2401D01*
Y29100D01*
X2301Y29050D01*
X2251D01*
X2201Y29100D01*
Y29200D01*
X2251Y29250D01*
X2351D01*
X2401Y29200D01*
X4150Y24250D02*
Y23950D01*
X4000D01*
X3950Y24000D01*
Y24100D01*
X4000Y24150D01*
X4150D01*
X3850Y24250D02*
X3750D01*
X3800D01*
Y23950D01*
X3850Y24000D01*
X3600Y24300D02*
X3400D01*
X3100Y24000D02*
X3150Y23950D01*
X3250D01*
X3300Y24000D01*
Y24200D01*
X3250Y24250D01*
X3150D01*
X3100Y24200D01*
X3001Y23950D02*
Y24250D01*
Y24100D01*
X2801D01*
Y23950D01*
Y24250D01*
X2501Y24000D02*
X2551Y23950D01*
X2651D01*
X2701Y24000D01*
Y24200D01*
X2651Y24250D01*
X2551D01*
X2501Y24200D01*
Y24100D01*
X2601D01*
X2251Y24250D02*
Y23950D01*
X2401Y24100D01*
X2201D01*
X4150Y19250D02*
Y18950D01*
X4000D01*
X3950Y19000D01*
Y19100D01*
X4000Y19150D01*
X4150D01*
X3850Y19250D02*
X3750D01*
X3800D01*
Y18950D01*
X3850Y19000D01*
X3600Y19300D02*
X3400D01*
X3100Y19000D02*
X3150Y18950D01*
X3250D01*
X3300Y19000D01*
Y19200D01*
X3250Y19250D01*
X3150D01*
X3100Y19200D01*
X3001Y18950D02*
Y19250D01*
Y19100D01*
X2801D01*
Y18950D01*
Y19250D01*
X2501Y19000D02*
X2551Y18950D01*
X2651D01*
X2701Y19000D01*
Y19200D01*
X2651Y19250D01*
X2551D01*
X2501Y19200D01*
Y19100D01*
X2601D01*
X2401Y19000D02*
X2351Y18950D01*
X2251D01*
X2201Y19000D01*
Y19050D01*
X2251Y19100D01*
X2301D01*
X2251D01*
X2201Y19150D01*
Y19200D01*
X2251Y19250D01*
X2351D01*
X2401Y19200D01*
X4150Y14250D02*
Y13950D01*
X4000D01*
X3950Y14000D01*
Y14100D01*
X4000Y14150D01*
X4150D01*
X3850Y14250D02*
X3750D01*
X3800D01*
Y13950D01*
X3850Y14000D01*
X3600Y14300D02*
X3400D01*
X3100Y14000D02*
X3150Y13950D01*
X3250D01*
X3300Y14000D01*
Y14200D01*
X3250Y14250D01*
X3150D01*
X3100Y14200D01*
X3001Y13950D02*
Y14250D01*
Y14100D01*
X2801D01*
Y13950D01*
Y14250D01*
X2501Y14000D02*
X2551Y13950D01*
X2651D01*
X2701Y14000D01*
Y14200D01*
X2651Y14250D01*
X2551D01*
X2501Y14200D01*
Y14100D01*
X2601D01*
X2201Y14250D02*
X2401D01*
X2201Y14050D01*
Y14000D01*
X2251Y13950D01*
X2351D01*
X2401Y14000D01*
X4150Y9250D02*
Y8950D01*
X4000D01*
X3950Y9000D01*
Y9100D01*
X4000Y9150D01*
X4150D01*
X3850Y9250D02*
X3750D01*
X3800D01*
Y8950D01*
X3850Y9000D01*
X3600Y9300D02*
X3400D01*
X3100Y9000D02*
X3150Y8950D01*
X3250D01*
X3300Y9000D01*
Y9200D01*
X3250Y9250D01*
X3150D01*
X3100Y9200D01*
X3001Y8950D02*
Y9250D01*
Y9100D01*
X2801D01*
Y8950D01*
Y9250D01*
X2501Y9000D02*
X2551Y8950D01*
X2651D01*
X2701Y9000D01*
Y9200D01*
X2651Y9250D01*
X2551D01*
X2501Y9200D01*
Y9100D01*
X2601D01*
X2401Y9250D02*
X2301D01*
X2351D01*
Y8950D01*
X2401Y9000D01*
X9400Y9700D02*
X9200D01*
Y9550D01*
X9300D01*
X9200D01*
Y9400D01*
X9500Y9700D02*
Y9400D01*
X9650D01*
X9700Y9450D01*
Y9500D01*
X9650Y9550D01*
X9500D01*
X9650D01*
X9700Y9600D01*
Y9650D01*
X9650Y9700D01*
X9500D01*
X9800Y9400D02*
X9900D01*
X9850D01*
Y9700D01*
X9800Y9650D01*
X9400Y11400D02*
Y11100D01*
X9550D01*
X9600Y11150D01*
Y11350D01*
X9550Y11400D01*
X9400D01*
X9900Y11100D02*
X9700D01*
X9900Y11300D01*
Y11350D01*
X9850Y11400D01*
X9750D01*
X9700Y11350D01*
X14200Y8600D02*
X14500D01*
Y8750D01*
X14450Y8800D01*
X14250D01*
X14200Y8750D01*
Y8600D01*
X14500Y8900D02*
Y9000D01*
Y8950D01*
X14200D01*
X14250Y8900D01*
X14550Y9150D02*
Y9350D01*
X14250Y9650D02*
X14200Y9600D01*
Y9500D01*
X14250Y9450D01*
X14450D01*
X14500Y9500D01*
Y9600D01*
X14450Y9650D01*
X14200Y9750D02*
X14500D01*
X14350D01*
Y9950D01*
X14200D01*
X14500D01*
X14250Y10250D02*
X14200Y10200D01*
Y10100D01*
X14250Y10050D01*
X14450D01*
X14500Y10100D01*
Y10200D01*
X14450Y10250D01*
X14350D01*
Y10150D01*
X14500Y10350D02*
Y10450D01*
Y10400D01*
X14200D01*
X14250Y10350D01*
Y10599D02*
X14200Y10649D01*
Y10749D01*
X14250Y10799D01*
X14450D01*
X14500Y10749D01*
Y10649D01*
X14450Y10599D01*
X14250D01*
X14200Y13600D02*
X14500D01*
Y13750D01*
X14450Y13800D01*
X14250D01*
X14200Y13750D01*
Y13600D01*
X14500Y13900D02*
Y14000D01*
Y13950D01*
X14200D01*
X14250Y13900D01*
X14550Y14150D02*
Y14350D01*
X14250Y14650D02*
X14200Y14600D01*
Y14500D01*
X14250Y14450D01*
X14450D01*
X14500Y14500D01*
Y14600D01*
X14450Y14650D01*
X14200Y14750D02*
X14500D01*
X14350D01*
Y14950D01*
X14200D01*
X14500D01*
X14250Y15250D02*
X14200Y15200D01*
Y15100D01*
X14250Y15050D01*
X14450D01*
X14500Y15100D01*
Y15200D01*
X14450Y15250D01*
X14350D01*
Y15150D01*
X14450Y15350D02*
X14500Y15400D01*
Y15500D01*
X14450Y15550D01*
X14250D01*
X14200Y15500D01*
Y15400D01*
X14250Y15350D01*
X14300D01*
X14350Y15400D01*
Y15550D01*
X14200Y28600D02*
X14500D01*
Y28750D01*
X14450Y28800D01*
X14250D01*
X14200Y28750D01*
Y28600D01*
X14500Y28900D02*
Y29000D01*
Y28950D01*
X14200D01*
X14250Y28900D01*
X14550Y29150D02*
Y29350D01*
X14250Y29650D02*
X14200Y29600D01*
Y29500D01*
X14250Y29450D01*
X14450D01*
X14500Y29500D01*
Y29600D01*
X14450Y29650D01*
X14200Y29750D02*
X14500D01*
X14350D01*
Y29950D01*
X14200D01*
X14500D01*
X14250Y30250D02*
X14200Y30200D01*
Y30100D01*
X14250Y30050D01*
X14450D01*
X14500Y30100D01*
Y30200D01*
X14450Y30250D01*
X14350D01*
Y30150D01*
X14200Y30550D02*
X14250Y30450D01*
X14350Y30350D01*
X14450D01*
X14500Y30400D01*
Y30500D01*
X14450Y30550D01*
X14400D01*
X14350Y30500D01*
Y30350D01*
X8150Y26500D02*
X7850D01*
Y26350D01*
X7900Y26300D01*
X8100D01*
X8150Y26350D01*
Y26500D01*
X7850Y26200D02*
Y26100D01*
Y26150D01*
X8150D01*
X8100Y26200D01*
X7800Y25950D02*
Y25750D01*
X8100Y25450D02*
X8150Y25500D01*
Y25600D01*
X8100Y25650D01*
X7900D01*
X7850Y25600D01*
Y25500D01*
X7900Y25450D01*
X8150Y25351D02*
X7850D01*
X8000D01*
Y25151D01*
X8150D01*
X7850D01*
X8100Y24851D02*
X8150Y24901D01*
Y25001D01*
X8100Y25051D01*
X7900D01*
X7850Y25001D01*
Y24901D01*
X7900Y24851D01*
X8000D01*
Y24951D01*
X8150Y24551D02*
Y24751D01*
X8000D01*
X8050Y24651D01*
Y24601D01*
X8000Y24551D01*
X7900D01*
X7850Y24601D01*
Y24701D01*
X7900Y24751D01*
X8150Y21500D02*
X7850D01*
Y21350D01*
X7900Y21300D01*
X8100D01*
X8150Y21350D01*
Y21500D01*
X7850Y21200D02*
Y21100D01*
Y21150D01*
X8150D01*
X8100Y21200D01*
X7800Y20950D02*
Y20750D01*
X8100Y20450D02*
X8150Y20500D01*
Y20600D01*
X8100Y20650D01*
X7900D01*
X7850Y20600D01*
Y20500D01*
X7900Y20450D01*
X8150Y20351D02*
X7850D01*
X8000D01*
Y20151D01*
X8150D01*
X7850D01*
X8100Y19851D02*
X8150Y19901D01*
Y20001D01*
X8100Y20051D01*
X7900D01*
X7850Y20001D01*
Y19901D01*
X7900Y19851D01*
X8000D01*
Y19951D01*
X7850Y19601D02*
X8150D01*
X8000Y19751D01*
Y19551D01*
X8150Y16500D02*
X7850D01*
Y16350D01*
X7900Y16300D01*
X8100D01*
X8150Y16350D01*
Y16500D01*
X7850Y16200D02*
Y16100D01*
Y16150D01*
X8150D01*
X8100Y16200D01*
X7800Y15950D02*
Y15750D01*
X8100Y15450D02*
X8150Y15500D01*
Y15600D01*
X8100Y15650D01*
X7900D01*
X7850Y15600D01*
Y15500D01*
X7900Y15450D01*
X8150Y15351D02*
X7850D01*
X8000D01*
Y15151D01*
X8150D01*
X7850D01*
X8100Y14851D02*
X8150Y14901D01*
Y15001D01*
X8100Y15051D01*
X7900D01*
X7850Y15001D01*
Y14901D01*
X7900Y14851D01*
X8000D01*
Y14951D01*
X8100Y14751D02*
X8150Y14701D01*
Y14601D01*
X8100Y14551D01*
X8050D01*
X8000Y14601D01*
Y14651D01*
Y14601D01*
X7950Y14551D01*
X7900D01*
X7850Y14601D01*
Y14701D01*
X7900Y14751D01*
X8150Y11500D02*
X7850D01*
Y11350D01*
X7900Y11300D01*
X8100D01*
X8150Y11350D01*
Y11500D01*
X7850Y11200D02*
Y11100D01*
Y11150D01*
X8150D01*
X8100Y11200D01*
X7800Y10950D02*
Y10750D01*
X8100Y10450D02*
X8150Y10500D01*
Y10600D01*
X8100Y10650D01*
X7900D01*
X7850Y10600D01*
Y10500D01*
X7900Y10450D01*
X8150Y10351D02*
X7850D01*
X8000D01*
Y10151D01*
X8150D01*
X7850D01*
X8100Y9851D02*
X8150Y9901D01*
Y10001D01*
X8100Y10051D01*
X7900D01*
X7850Y10001D01*
Y9901D01*
X7900Y9851D01*
X8000D01*
Y9951D01*
X7850Y9551D02*
Y9751D01*
X8050Y9551D01*
X8100D01*
X8150Y9601D01*
Y9701D01*
X8100Y9751D01*
X8150Y6500D02*
X7850D01*
Y6350D01*
X7900Y6300D01*
X8100D01*
X8150Y6350D01*
Y6500D01*
X7850Y6200D02*
Y6100D01*
Y6150D01*
X8150D01*
X8100Y6200D01*
X7800Y5950D02*
Y5750D01*
X8100Y5450D02*
X8150Y5500D01*
Y5600D01*
X8100Y5650D01*
X7900D01*
X7850Y5600D01*
Y5500D01*
X7900Y5450D01*
X8150Y5351D02*
X7850D01*
X8000D01*
Y5151D01*
X8150D01*
X7850D01*
X8100Y4851D02*
X8150Y4901D01*
Y5001D01*
X8100Y5051D01*
X7900D01*
X7850Y5001D01*
Y4901D01*
X7900Y4851D01*
X8000D01*
Y4951D01*
X7850Y4751D02*
Y4651D01*
Y4701D01*
X8150D01*
X8100Y4751D01*
X9600Y10800D02*
X9550Y10850D01*
X9450D01*
X9400Y10800D01*
Y10600D01*
X9450Y10550D01*
X9550D01*
X9600Y10600D01*
X9900Y10850D02*
X9800Y10800D01*
X9700Y10700D01*
Y10600D01*
X9750Y10550D01*
X9850D01*
X9900Y10600D01*
Y10650D01*
X9850Y10700D01*
X9700D01*
X9600Y10250D02*
X9550Y10300D01*
X9450D01*
X9400Y10250D01*
Y10050D01*
X9450Y10000D01*
X9550D01*
X9600Y10050D01*
X9900Y10300D02*
X9700D01*
Y10150D01*
X9800Y10200D01*
X9850D01*
X9900Y10150D01*
Y10050D01*
X9850Y10000D01*
X9750D01*
X9700Y10050D01*
X9570Y13781D02*
X9520Y13831D01*
X9420D01*
X9370Y13781D01*
Y13581D01*
X9420Y13531D01*
X9520D01*
X9570Y13581D01*
X9820Y13531D02*
Y13831D01*
X9670Y13681D01*
X9870D01*
X11350Y10150D02*
X11300Y10200D01*
X11200D01*
X11150Y10150D01*
Y9950D01*
X11200Y9900D01*
X11300D01*
X11350Y9950D01*
X11450Y10150D02*
X11500Y10200D01*
X11600D01*
X11650Y10150D01*
Y10100D01*
X11600Y10050D01*
X11550D01*
X11600D01*
X11650Y10000D01*
Y9950D01*
X11600Y9900D01*
X11500D01*
X11450Y9950D01*
X15150Y5600D02*
X15100Y5650D01*
X15000D01*
X14950Y5600D01*
Y5400D01*
X15000Y5350D01*
X15100D01*
X15150Y5400D01*
X15450Y5350D02*
X15250D01*
X15450Y5550D01*
Y5600D01*
X15400Y5650D01*
X15300D01*
X15250Y5600D01*
X15550Y5300D02*
X15750D01*
X16050Y5600D02*
X16000Y5650D01*
X15900D01*
X15850Y5600D01*
Y5400D01*
X15900Y5350D01*
X16000D01*
X16050Y5400D01*
X16150Y5650D02*
Y5350D01*
Y5500D01*
X16350D01*
Y5650D01*
Y5350D01*
X16650Y5600D02*
X16600Y5650D01*
X16500D01*
X16450Y5600D01*
Y5400D01*
X16500Y5350D01*
X16600D01*
X16650Y5400D01*
Y5500D01*
X16550D01*
X16750Y5350D02*
X16850D01*
X16800D01*
Y5650D01*
X16750Y5600D01*
X16999D02*
X17049Y5650D01*
X17149D01*
X17199Y5600D01*
Y5400D01*
X17149Y5350D01*
X17049D01*
X16999Y5400D01*
Y5600D01*
X15150Y10600D02*
X15100Y10650D01*
X15000D01*
X14950Y10600D01*
Y10400D01*
X15000Y10350D01*
X15100D01*
X15150Y10400D01*
X15450Y10350D02*
X15250D01*
X15450Y10550D01*
Y10600D01*
X15400Y10650D01*
X15300D01*
X15250Y10600D01*
X15550Y10300D02*
X15750D01*
X16050Y10600D02*
X16000Y10650D01*
X15900D01*
X15850Y10600D01*
Y10400D01*
X15900Y10350D01*
X16000D01*
X16050Y10400D01*
X16150Y10650D02*
Y10350D01*
Y10500D01*
X16350D01*
Y10650D01*
Y10350D01*
X16650Y10600D02*
X16600Y10650D01*
X16500D01*
X16450Y10600D01*
Y10400D01*
X16500Y10350D01*
X16600D01*
X16650Y10400D01*
Y10500D01*
X16550D01*
X16750Y10400D02*
X16800Y10350D01*
X16900D01*
X16949Y10400D01*
Y10600D01*
X16900Y10650D01*
X16800D01*
X16750Y10600D01*
Y10550D01*
X16800Y10500D01*
X16949D01*
X15150Y25600D02*
X15100Y25650D01*
X15000D01*
X14950Y25600D01*
Y25400D01*
X15000Y25350D01*
X15100D01*
X15150Y25400D01*
X15450Y25350D02*
X15250D01*
X15450Y25550D01*
Y25600D01*
X15400Y25650D01*
X15300D01*
X15250Y25600D01*
X15550Y25300D02*
X15750D01*
X16050Y25600D02*
X16000Y25650D01*
X15900D01*
X15850Y25600D01*
Y25400D01*
X15900Y25350D01*
X16000D01*
X16050Y25400D01*
X16150Y25650D02*
Y25350D01*
Y25500D01*
X16350D01*
Y25650D01*
Y25350D01*
X16650Y25600D02*
X16600Y25650D01*
X16500D01*
X16450Y25600D01*
Y25400D01*
X16500Y25350D01*
X16600D01*
X16650Y25400D01*
Y25500D01*
X16550D01*
X16949Y25650D02*
X16850Y25600D01*
X16750Y25500D01*
Y25400D01*
X16800Y25350D01*
X16900D01*
X16949Y25400D01*
Y25450D01*
X16900Y25500D01*
X16750D01*
X7200Y29500D02*
X7250Y29450D01*
X7350D01*
X7400Y29500D01*
Y29700D01*
X7350Y29750D01*
X7250D01*
X7200Y29700D01*
X6900Y29750D02*
X7100D01*
X6900Y29550D01*
Y29500D01*
X6950Y29450D01*
X7050D01*
X7100Y29500D01*
X6800Y29800D02*
X6600D01*
X6301Y29500D02*
X6350Y29450D01*
X6450D01*
X6500Y29500D01*
Y29700D01*
X6450Y29750D01*
X6350D01*
X6301Y29700D01*
X6201Y29450D02*
Y29750D01*
Y29600D01*
X6001D01*
Y29450D01*
Y29750D01*
X5701Y29500D02*
X5751Y29450D01*
X5851D01*
X5901Y29500D01*
Y29700D01*
X5851Y29750D01*
X5751D01*
X5701Y29700D01*
Y29600D01*
X5801D01*
X5401Y29450D02*
X5601D01*
Y29600D01*
X5501Y29550D01*
X5451D01*
X5401Y29600D01*
Y29700D01*
X5451Y29750D01*
X5551D01*
X5601Y29700D01*
X7200Y24500D02*
X7250Y24450D01*
X7350D01*
X7400Y24500D01*
Y24700D01*
X7350Y24750D01*
X7250D01*
X7200Y24700D01*
X6900Y24750D02*
X7100D01*
X6900Y24550D01*
Y24500D01*
X6950Y24450D01*
X7050D01*
X7100Y24500D01*
X6800Y24800D02*
X6600D01*
X6301Y24500D02*
X6350Y24450D01*
X6450D01*
X6500Y24500D01*
Y24700D01*
X6450Y24750D01*
X6350D01*
X6301Y24700D01*
X6201Y24450D02*
Y24750D01*
Y24600D01*
X6001D01*
Y24450D01*
Y24750D01*
X5701Y24500D02*
X5751Y24450D01*
X5851D01*
X5901Y24500D01*
Y24700D01*
X5851Y24750D01*
X5751D01*
X5701Y24700D01*
Y24600D01*
X5801D01*
X5451Y24750D02*
Y24450D01*
X5601Y24600D01*
X5401D01*
X7200Y19500D02*
X7250Y19450D01*
X7350D01*
X7400Y19500D01*
Y19700D01*
X7350Y19750D01*
X7250D01*
X7200Y19700D01*
X6900Y19750D02*
X7100D01*
X6900Y19550D01*
Y19500D01*
X6950Y19450D01*
X7050D01*
X7100Y19500D01*
X6800Y19800D02*
X6600D01*
X6301Y19500D02*
X6350Y19450D01*
X6450D01*
X6500Y19500D01*
Y19700D01*
X6450Y19750D01*
X6350D01*
X6301Y19700D01*
X6201Y19450D02*
Y19750D01*
Y19600D01*
X6001D01*
Y19450D01*
Y19750D01*
X5701Y19500D02*
X5751Y19450D01*
X5851D01*
X5901Y19500D01*
Y19700D01*
X5851Y19750D01*
X5751D01*
X5701Y19700D01*
Y19600D01*
X5801D01*
X5601Y19500D02*
X5551Y19450D01*
X5451D01*
X5401Y19500D01*
Y19550D01*
X5451Y19600D01*
X5501D01*
X5451D01*
X5401Y19650D01*
Y19700D01*
X5451Y19750D01*
X5551D01*
X5601Y19700D01*
X7200Y14500D02*
X7250Y14450D01*
X7350D01*
X7400Y14500D01*
Y14700D01*
X7350Y14750D01*
X7250D01*
X7200Y14700D01*
X6900Y14750D02*
X7100D01*
X6900Y14550D01*
Y14500D01*
X6950Y14450D01*
X7050D01*
X7100Y14500D01*
X6800Y14800D02*
X6600D01*
X6301Y14500D02*
X6350Y14450D01*
X6450D01*
X6500Y14500D01*
Y14700D01*
X6450Y14750D01*
X6350D01*
X6301Y14700D01*
X6201Y14450D02*
Y14750D01*
Y14600D01*
X6001D01*
Y14450D01*
Y14750D01*
X5701Y14500D02*
X5751Y14450D01*
X5851D01*
X5901Y14500D01*
Y14700D01*
X5851Y14750D01*
X5751D01*
X5701Y14700D01*
Y14600D01*
X5801D01*
X5401Y14750D02*
X5601D01*
X5401Y14550D01*
Y14500D01*
X5451Y14450D01*
X5551D01*
X5601Y14500D01*
X7200Y9500D02*
X7250Y9450D01*
X7350D01*
X7400Y9500D01*
Y9700D01*
X7350Y9750D01*
X7250D01*
X7200Y9700D01*
X6900Y9750D02*
X7100D01*
X6900Y9550D01*
Y9500D01*
X6950Y9450D01*
X7050D01*
X7100Y9500D01*
X6800Y9800D02*
X6600D01*
X6301Y9500D02*
X6350Y9450D01*
X6450D01*
X6500Y9500D01*
Y9700D01*
X6450Y9750D01*
X6350D01*
X6301Y9700D01*
X6201Y9450D02*
Y9750D01*
Y9600D01*
X6001D01*
Y9450D01*
Y9750D01*
X5701Y9500D02*
X5751Y9450D01*
X5851D01*
X5901Y9500D01*
Y9700D01*
X5851Y9750D01*
X5751D01*
X5701Y9700D01*
Y9600D01*
X5801D01*
X5601Y9750D02*
X5501D01*
X5551D01*
Y9450D01*
X5601Y9500D01*
X15150Y9800D02*
X15100Y9850D01*
X15000D01*
X14950Y9800D01*
Y9600D01*
X15000Y9550D01*
X15100D01*
X15150Y9600D01*
X15250Y9550D02*
X15350D01*
X15300D01*
Y9850D01*
X15250Y9800D01*
X15500Y9500D02*
X15700D01*
X16000Y9800D02*
X15950Y9850D01*
X15850D01*
X15800Y9800D01*
Y9600D01*
X15850Y9550D01*
X15950D01*
X16000Y9600D01*
X16100Y9850D02*
Y9550D01*
Y9700D01*
X16300D01*
Y9850D01*
Y9550D01*
X16600Y9800D02*
X16550Y9850D01*
X16450D01*
X16400Y9800D01*
Y9600D01*
X16450Y9550D01*
X16550D01*
X16600Y9600D01*
Y9700D01*
X16500D01*
X16700Y9550D02*
X16800D01*
X16750D01*
Y9850D01*
X16700Y9800D01*
X16949D02*
X16999Y9850D01*
X17099D01*
X17149Y9800D01*
Y9600D01*
X17099Y9550D01*
X16999D01*
X16949Y9600D01*
Y9800D01*
X15150Y14800D02*
X15100Y14850D01*
X15000D01*
X14950Y14800D01*
Y14600D01*
X15000Y14550D01*
X15100D01*
X15150Y14600D01*
X15250Y14550D02*
X15350D01*
X15300D01*
Y14850D01*
X15250Y14800D01*
X15500Y14500D02*
X15700D01*
X16000Y14800D02*
X15950Y14850D01*
X15850D01*
X15800Y14800D01*
Y14600D01*
X15850Y14550D01*
X15950D01*
X16000Y14600D01*
X16100Y14850D02*
Y14550D01*
Y14700D01*
X16300D01*
Y14850D01*
Y14550D01*
X16600Y14800D02*
X16550Y14850D01*
X16450D01*
X16400Y14800D01*
Y14600D01*
X16450Y14550D01*
X16550D01*
X16600Y14600D01*
Y14700D01*
X16500D01*
X16700Y14600D02*
X16750Y14550D01*
X16850D01*
X16900Y14600D01*
Y14800D01*
X16850Y14850D01*
X16750D01*
X16700Y14800D01*
Y14750D01*
X16750Y14700D01*
X16900D01*
X15150Y29800D02*
X15100Y29850D01*
X15000D01*
X14950Y29800D01*
Y29600D01*
X15000Y29550D01*
X15100D01*
X15150Y29600D01*
X15250Y29550D02*
X15350D01*
X15300D01*
Y29850D01*
X15250Y29800D01*
X15500Y29500D02*
X15700D01*
X16000Y29800D02*
X15950Y29850D01*
X15850D01*
X15800Y29800D01*
Y29600D01*
X15850Y29550D01*
X15950D01*
X16000Y29600D01*
X16100Y29850D02*
Y29550D01*
Y29700D01*
X16300D01*
Y29850D01*
Y29550D01*
X16600Y29800D02*
X16550Y29850D01*
X16450D01*
X16400Y29800D01*
Y29600D01*
X16450Y29550D01*
X16550D01*
X16600Y29600D01*
Y29700D01*
X16500D01*
X16900Y29850D02*
X16800Y29800D01*
X16700Y29700D01*
Y29600D01*
X16750Y29550D01*
X16850D01*
X16900Y29600D01*
Y29650D01*
X16850Y29700D01*
X16700D01*
X7200Y25300D02*
X7250Y25250D01*
X7350D01*
X7400Y25300D01*
Y25500D01*
X7350Y25550D01*
X7250D01*
X7200Y25500D01*
X7100Y25550D02*
X7000D01*
X7050D01*
Y25250D01*
X7100Y25300D01*
X6850Y25600D02*
X6650D01*
X6350Y25300D02*
X6400Y25250D01*
X6500D01*
X6550Y25300D01*
Y25500D01*
X6500Y25550D01*
X6400D01*
X6350Y25500D01*
X6251Y25250D02*
Y25550D01*
Y25400D01*
X6051D01*
Y25250D01*
Y25550D01*
X5751Y25300D02*
X5801Y25250D01*
X5901D01*
X5951Y25300D01*
Y25500D01*
X5901Y25550D01*
X5801D01*
X5751Y25500D01*
Y25400D01*
X5851D01*
X5451Y25250D02*
X5651D01*
Y25400D01*
X5551Y25350D01*
X5501D01*
X5451Y25400D01*
Y25500D01*
X5501Y25550D01*
X5601D01*
X5651Y25500D01*
X7200Y20300D02*
X7250Y20250D01*
X7350D01*
X7400Y20300D01*
Y20500D01*
X7350Y20550D01*
X7250D01*
X7200Y20500D01*
X7100Y20550D02*
X7000D01*
X7050D01*
Y20250D01*
X7100Y20300D01*
X6850Y20600D02*
X6650D01*
X6350Y20300D02*
X6400Y20250D01*
X6500D01*
X6550Y20300D01*
Y20500D01*
X6500Y20550D01*
X6400D01*
X6350Y20500D01*
X6251Y20250D02*
Y20550D01*
Y20400D01*
X6051D01*
Y20250D01*
Y20550D01*
X5751Y20300D02*
X5801Y20250D01*
X5901D01*
X5951Y20300D01*
Y20500D01*
X5901Y20550D01*
X5801D01*
X5751Y20500D01*
Y20400D01*
X5851D01*
X5501Y20550D02*
Y20250D01*
X5651Y20400D01*
X5451D01*
X7200Y15300D02*
X7250Y15250D01*
X7350D01*
X7400Y15300D01*
Y15500D01*
X7350Y15550D01*
X7250D01*
X7200Y15500D01*
X7100Y15550D02*
X7000D01*
X7050D01*
Y15250D01*
X7100Y15300D01*
X6850Y15600D02*
X6650D01*
X6350Y15300D02*
X6400Y15250D01*
X6500D01*
X6550Y15300D01*
Y15500D01*
X6500Y15550D01*
X6400D01*
X6350Y15500D01*
X6251Y15250D02*
Y15550D01*
Y15400D01*
X6051D01*
Y15250D01*
Y15550D01*
X5751Y15300D02*
X5801Y15250D01*
X5901D01*
X5951Y15300D01*
Y15500D01*
X5901Y15550D01*
X5801D01*
X5751Y15500D01*
Y15400D01*
X5851D01*
X5651Y15300D02*
X5601Y15250D01*
X5501D01*
X5451Y15300D01*
Y15350D01*
X5501Y15400D01*
X5551D01*
X5501D01*
X5451Y15450D01*
Y15500D01*
X5501Y15550D01*
X5601D01*
X5651Y15500D01*
X7200Y10300D02*
X7250Y10250D01*
X7350D01*
X7400Y10300D01*
Y10500D01*
X7350Y10550D01*
X7250D01*
X7200Y10500D01*
X7100Y10550D02*
X7000D01*
X7050D01*
Y10250D01*
X7100Y10300D01*
X6850Y10600D02*
X6650D01*
X6350Y10300D02*
X6400Y10250D01*
X6500D01*
X6550Y10300D01*
Y10500D01*
X6500Y10550D01*
X6400D01*
X6350Y10500D01*
X6251Y10250D02*
Y10550D01*
Y10400D01*
X6051D01*
Y10250D01*
Y10550D01*
X5751Y10300D02*
X5801Y10250D01*
X5901D01*
X5951Y10300D01*
Y10500D01*
X5901Y10550D01*
X5801D01*
X5751Y10500D01*
Y10400D01*
X5851D01*
X5451Y10550D02*
X5651D01*
X5451Y10350D01*
Y10300D01*
X5501Y10250D01*
X5601D01*
X5651Y10300D01*
X7200Y5300D02*
X7250Y5250D01*
X7350D01*
X7400Y5300D01*
Y5500D01*
X7350Y5550D01*
X7250D01*
X7200Y5500D01*
X7100Y5550D02*
X7000D01*
X7050D01*
Y5250D01*
X7100Y5300D01*
X6850Y5600D02*
X6650D01*
X6350Y5300D02*
X6400Y5250D01*
X6500D01*
X6550Y5300D01*
Y5500D01*
X6500Y5550D01*
X6400D01*
X6350Y5500D01*
X6251Y5250D02*
Y5550D01*
Y5400D01*
X6051D01*
Y5250D01*
Y5550D01*
X5751Y5300D02*
X5801Y5250D01*
X5901D01*
X5951Y5300D01*
Y5500D01*
X5901Y5550D01*
X5801D01*
X5751Y5500D01*
Y5400D01*
X5851D01*
X5651Y5550D02*
X5551D01*
X5601D01*
Y5250D01*
X5651Y5300D01*
X15150Y24800D02*
X15100Y24850D01*
X15000D01*
X14950Y24800D01*
Y24600D01*
X15000Y24550D01*
X15100D01*
X15150Y24600D01*
X15250Y24550D02*
X15350D01*
X15300D01*
Y24850D01*
X15250Y24800D01*
X15500Y24500D02*
X15700D01*
X16000Y24800D02*
X15950Y24850D01*
X15850D01*
X15800Y24800D01*
Y24600D01*
X15850Y24550D01*
X15950D01*
X16000Y24600D01*
X16100Y24850D02*
Y24550D01*
Y24700D01*
X16300D01*
Y24850D01*
Y24550D01*
X16600Y24800D02*
X16550Y24850D01*
X16450D01*
X16400Y24800D01*
Y24600D01*
X16450Y24550D01*
X16550D01*
X16600Y24600D01*
Y24700D01*
X16500D01*
X16700Y24850D02*
X16900D01*
Y24800D01*
X16700Y24600D01*
Y24550D01*
X15150Y19800D02*
X15100Y19850D01*
X15000D01*
X14950Y19800D01*
Y19600D01*
X15000Y19550D01*
X15100D01*
X15150Y19600D01*
X15250Y19550D02*
X15350D01*
X15300D01*
Y19850D01*
X15250Y19800D01*
X15500Y19500D02*
X15700D01*
X16000Y19800D02*
X15950Y19850D01*
X15850D01*
X15800Y19800D01*
Y19600D01*
X15850Y19550D01*
X15950D01*
X16000Y19600D01*
X16100Y19850D02*
Y19550D01*
Y19700D01*
X16300D01*
Y19850D01*
Y19550D01*
X16600Y19800D02*
X16550Y19850D01*
X16450D01*
X16400Y19800D01*
Y19600D01*
X16450Y19550D01*
X16550D01*
X16600Y19600D01*
Y19700D01*
X16500D01*
X16700Y19800D02*
X16750Y19850D01*
X16850D01*
X16900Y19800D01*
Y19750D01*
X16850Y19700D01*
X16900Y19650D01*
Y19600D01*
X16850Y19550D01*
X16750D01*
X16700Y19600D01*
Y19650D01*
X16750Y19700D01*
X16700Y19750D01*
Y19800D01*
X16750Y19700D02*
X16850D01*
X15150Y20600D02*
X15100Y20650D01*
X15000D01*
X14950Y20600D01*
Y20400D01*
X15000Y20350D01*
X15100D01*
X15150Y20400D01*
X15450Y20350D02*
X15250D01*
X15450Y20550D01*
Y20600D01*
X15400Y20650D01*
X15300D01*
X15250Y20600D01*
X15550Y20300D02*
X15750D01*
X16050Y20600D02*
X16000Y20650D01*
X15900D01*
X15850Y20600D01*
Y20400D01*
X15900Y20350D01*
X16000D01*
X16050Y20400D01*
X16150Y20650D02*
Y20350D01*
Y20500D01*
X16350D01*
Y20650D01*
Y20350D01*
X16650Y20600D02*
X16600Y20650D01*
X16500D01*
X16450Y20600D01*
Y20400D01*
X16500Y20350D01*
X16600D01*
X16650Y20400D01*
Y20500D01*
X16550D01*
X16750Y20650D02*
X16949D01*
Y20600D01*
X16750Y20400D01*
Y20350D01*
X15150Y15600D02*
X15100Y15650D01*
X15000D01*
X14950Y15600D01*
Y15400D01*
X15000Y15350D01*
X15100D01*
X15150Y15400D01*
X15450Y15350D02*
X15250D01*
X15450Y15550D01*
Y15600D01*
X15400Y15650D01*
X15300D01*
X15250Y15600D01*
X15550Y15300D02*
X15750D01*
X16050Y15600D02*
X16000Y15650D01*
X15900D01*
X15850Y15600D01*
Y15400D01*
X15900Y15350D01*
X16000D01*
X16050Y15400D01*
X16150Y15650D02*
Y15350D01*
Y15500D01*
X16350D01*
Y15650D01*
Y15350D01*
X16650Y15600D02*
X16600Y15650D01*
X16500D01*
X16450Y15600D01*
Y15400D01*
X16500Y15350D01*
X16600D01*
X16650Y15400D01*
Y15500D01*
X16550D01*
X16750Y15600D02*
X16800Y15650D01*
X16900D01*
X16949Y15600D01*
Y15550D01*
X16900Y15500D01*
X16949Y15450D01*
Y15400D01*
X16900Y15350D01*
X16800D01*
X16750Y15400D01*
Y15450D01*
X16800Y15500D01*
X16750Y15550D01*
Y15600D01*
X16800Y15500D02*
X16900D01*
X14200Y23600D02*
X14500D01*
Y23750D01*
X14450Y23800D01*
X14250D01*
X14200Y23750D01*
Y23600D01*
X14500Y23900D02*
Y24000D01*
Y23950D01*
X14200D01*
X14250Y23900D01*
X14550Y24150D02*
Y24350D01*
X14250Y24650D02*
X14200Y24600D01*
Y24500D01*
X14250Y24450D01*
X14450D01*
X14500Y24500D01*
Y24600D01*
X14450Y24650D01*
X14200Y24750D02*
X14500D01*
X14350D01*
Y24950D01*
X14200D01*
X14500D01*
X14250Y25250D02*
X14200Y25200D01*
Y25100D01*
X14250Y25050D01*
X14450D01*
X14500Y25100D01*
Y25200D01*
X14450Y25250D01*
X14350D01*
Y25150D01*
X14200Y25350D02*
Y25550D01*
X14250D01*
X14450Y25350D01*
X14500D01*
X14200Y18600D02*
X14500D01*
Y18750D01*
X14450Y18800D01*
X14250D01*
X14200Y18750D01*
Y18600D01*
X14500Y18900D02*
Y19000D01*
Y18950D01*
X14200D01*
X14250Y18900D01*
X14550Y19150D02*
Y19350D01*
X14250Y19650D02*
X14200Y19600D01*
Y19500D01*
X14250Y19450D01*
X14450D01*
X14500Y19500D01*
Y19600D01*
X14450Y19650D01*
X14200Y19750D02*
X14500D01*
X14350D01*
Y19950D01*
X14200D01*
X14500D01*
X14250Y20250D02*
X14200Y20200D01*
Y20100D01*
X14250Y20050D01*
X14450D01*
X14500Y20100D01*
Y20200D01*
X14450Y20250D01*
X14350D01*
Y20150D01*
X14250Y20350D02*
X14200Y20400D01*
Y20500D01*
X14250Y20550D01*
X14300D01*
X14350Y20500D01*
X14400Y20550D01*
X14450D01*
X14500Y20500D01*
Y20400D01*
X14450Y20350D01*
X14400D01*
X14350Y20400D01*
X14300Y20350D01*
X14250D01*
X14350Y20400D02*
Y20500D01*
X18200Y20850D02*
Y21150D01*
X18350D01*
X18400Y21100D01*
Y21000D01*
X18350Y20950D01*
X18200D01*
X18500Y20850D02*
X18600D01*
X18550D01*
Y21150D01*
X18500Y21100D01*
X18750Y20800D02*
X18950D01*
X19250Y21100D02*
X19200Y21150D01*
X19100D01*
X19050Y21100D01*
Y20900D01*
X19100Y20850D01*
X19200D01*
X19250Y20900D01*
X19350Y21150D02*
Y20850D01*
Y21000D01*
X19550D01*
Y21150D01*
Y20850D01*
X19850Y21100D02*
X19800Y21150D01*
X19700D01*
X19650Y21100D01*
Y20900D01*
X19700Y20850D01*
X19800D01*
X19850Y20900D01*
Y21000D01*
X19750D01*
X19950Y21150D02*
X20150D01*
Y21100D01*
X19950Y20900D01*
Y20850D01*
X18200Y15850D02*
Y16150D01*
X18350D01*
X18400Y16100D01*
Y16000D01*
X18350Y15950D01*
X18200D01*
X18500Y15850D02*
X18600D01*
X18550D01*
Y16150D01*
X18500Y16100D01*
X18750Y15800D02*
X18950D01*
X19250Y16100D02*
X19200Y16150D01*
X19100D01*
X19050Y16100D01*
Y15900D01*
X19100Y15850D01*
X19200D01*
X19250Y15900D01*
X19350Y16150D02*
Y15850D01*
Y16000D01*
X19550D01*
Y16150D01*
Y15850D01*
X19850Y16100D02*
X19800Y16150D01*
X19700D01*
X19650Y16100D01*
Y15900D01*
X19700Y15850D01*
X19800D01*
X19850Y15900D01*
Y16000D01*
X19750D01*
X19950Y16100D02*
X20000Y16150D01*
X20100D01*
X20150Y16100D01*
Y16050D01*
X20100Y16000D01*
X20150Y15950D01*
Y15900D01*
X20100Y15850D01*
X20000D01*
X19950Y15900D01*
Y15950D01*
X20000Y16000D01*
X19950Y16050D01*
Y16100D01*
X20000Y16000D02*
X20100D01*
X17650Y24500D02*
Y24800D01*
X17800D01*
X17850Y24750D01*
Y24650D01*
X17800Y24600D01*
X17650D01*
X17750D02*
X17850Y24500D01*
X17950D02*
X18050D01*
X18000D01*
Y24800D01*
X17950Y24750D01*
X18200Y24450D02*
X18400D01*
X18700Y24750D02*
X18650Y24800D01*
X18550D01*
X18500Y24750D01*
Y24550D01*
X18550Y24500D01*
X18650D01*
X18700Y24550D01*
X18800Y24800D02*
Y24500D01*
Y24650D01*
X19000D01*
Y24800D01*
Y24500D01*
X19300Y24750D02*
X19250Y24800D01*
X19150D01*
X19100Y24750D01*
Y24550D01*
X19150Y24500D01*
X19250D01*
X19300Y24550D01*
Y24650D01*
X19200D01*
X19400Y24800D02*
X19600D01*
Y24750D01*
X19400Y24550D01*
Y24500D01*
X17650Y19500D02*
Y19800D01*
X17800D01*
X17850Y19750D01*
Y19650D01*
X17800Y19600D01*
X17650D01*
X17750D02*
X17850Y19500D01*
X17950D02*
X18050D01*
X18000D01*
Y19800D01*
X17950Y19750D01*
X18200Y19450D02*
X18400D01*
X18700Y19750D02*
X18650Y19800D01*
X18550D01*
X18500Y19750D01*
Y19550D01*
X18550Y19500D01*
X18650D01*
X18700Y19550D01*
X18800Y19800D02*
Y19500D01*
Y19650D01*
X19000D01*
Y19800D01*
Y19500D01*
X19300Y19750D02*
X19250Y19800D01*
X19150D01*
X19100Y19750D01*
Y19550D01*
X19150Y19500D01*
X19250D01*
X19300Y19550D01*
Y19650D01*
X19200D01*
X19400Y19750D02*
X19450Y19800D01*
X19550D01*
X19600Y19750D01*
Y19700D01*
X19550Y19650D01*
X19600Y19600D01*
Y19550D01*
X19550Y19500D01*
X19450D01*
X19400Y19550D01*
Y19600D01*
X19450Y19650D01*
X19400Y19700D01*
Y19750D01*
X19450Y19650D02*
X19550D01*
X14950Y23600D02*
X14650D01*
Y23750D01*
X14700Y23800D01*
X14800D01*
X14850Y23750D01*
Y23600D01*
Y23700D02*
X14950Y23800D01*
Y24100D02*
Y23900D01*
X14750Y24100D01*
X14700D01*
X14650Y24050D01*
Y23950D01*
X14700Y23900D01*
X15000Y24200D02*
Y24400D01*
X14700Y24700D02*
X14650Y24650D01*
Y24550D01*
X14700Y24500D01*
X14900D01*
X14950Y24550D01*
Y24650D01*
X14900Y24700D01*
X14650Y24800D02*
X14950D01*
X14800D01*
Y25000D01*
X14650D01*
X14950D01*
X14700Y25300D02*
X14650Y25250D01*
Y25150D01*
X14700Y25100D01*
X14900D01*
X14950Y25150D01*
Y25250D01*
X14900Y25300D01*
X14800D01*
Y25200D01*
X14650Y25400D02*
Y25600D01*
X14700D01*
X14900Y25400D01*
X14950D01*
Y18600D02*
X14650D01*
Y18750D01*
X14700Y18800D01*
X14800D01*
X14850Y18750D01*
Y18600D01*
Y18700D02*
X14950Y18800D01*
Y19100D02*
Y18900D01*
X14750Y19100D01*
X14700D01*
X14650Y19050D01*
Y18950D01*
X14700Y18900D01*
X15000Y19200D02*
Y19400D01*
X14700Y19700D02*
X14650Y19650D01*
Y19550D01*
X14700Y19500D01*
X14900D01*
X14950Y19550D01*
Y19650D01*
X14900Y19700D01*
X14650Y19800D02*
X14950D01*
X14800D01*
Y20000D01*
X14650D01*
X14950D01*
X14700Y20300D02*
X14650Y20250D01*
Y20150D01*
X14700Y20100D01*
X14900D01*
X14950Y20150D01*
Y20250D01*
X14900Y20300D01*
X14800D01*
Y20200D01*
X14700Y20400D02*
X14650Y20450D01*
Y20550D01*
X14700Y20600D01*
X14750D01*
X14800Y20550D01*
X14850Y20600D01*
X14900D01*
X14950Y20550D01*
Y20450D01*
X14900Y20400D01*
X14850D01*
X14800Y20450D01*
X14750Y20400D01*
X14700D01*
X14800Y20450D02*
Y20550D01*
X12100Y21900D02*
Y22200D01*
X12250D01*
X12300Y22150D01*
Y22050D01*
X12250Y22000D01*
X12100D01*
X12200D02*
X12300Y21900D01*
X12400Y22150D02*
X12450Y22200D01*
X12550D01*
X12600Y22150D01*
Y22100D01*
X12550Y22050D01*
X12500D01*
X12550D01*
X12600Y22000D01*
Y21950D01*
X12550Y21900D01*
X12450D01*
X12400Y21950D01*
X12700Y21850D02*
X12900D01*
X13200Y22150D02*
X13150Y22200D01*
X13050D01*
X13000Y22150D01*
Y21950D01*
X13050Y21900D01*
X13150D01*
X13200Y21950D01*
X13300Y22200D02*
Y21900D01*
Y22050D01*
X13500D01*
Y22200D01*
Y21900D01*
X13800Y22150D02*
X13750Y22200D01*
X13650D01*
X13600Y22150D01*
Y21950D01*
X13650Y21900D01*
X13750D01*
X13800Y21950D01*
Y22050D01*
X13700D01*
X13900Y22200D02*
X14100D01*
Y22150D01*
X13900Y21950D01*
Y21900D01*
X12100Y16900D02*
Y17200D01*
X12250D01*
X12300Y17150D01*
Y17050D01*
X12250Y17000D01*
X12100D01*
X12200D02*
X12300Y16900D01*
X12400Y17150D02*
X12450Y17200D01*
X12550D01*
X12600Y17150D01*
Y17100D01*
X12550Y17050D01*
X12500D01*
X12550D01*
X12600Y17000D01*
Y16950D01*
X12550Y16900D01*
X12450D01*
X12400Y16950D01*
X12700Y16850D02*
X12900D01*
X13200Y17150D02*
X13150Y17200D01*
X13050D01*
X13000Y17150D01*
Y16950D01*
X13050Y16900D01*
X13150D01*
X13200Y16950D01*
X13300Y17200D02*
Y16900D01*
Y17050D01*
X13500D01*
Y17200D01*
Y16900D01*
X13800Y17150D02*
X13750Y17200D01*
X13650D01*
X13600Y17150D01*
Y16950D01*
X13650Y16900D01*
X13750D01*
X13800Y16950D01*
Y17050D01*
X13700D01*
X13900Y17150D02*
X13950Y17200D01*
X14050D01*
X14100Y17150D01*
Y17100D01*
X14050Y17050D01*
X14100Y17000D01*
Y16950D01*
X14050Y16900D01*
X13950D01*
X13900Y16950D01*
Y17000D01*
X13950Y17050D01*
X13900Y17100D01*
Y17150D01*
X13950Y17050D02*
X14050D01*
X13150Y21750D02*
Y21500D01*
X13200Y21450D01*
X13300D01*
X13350Y21500D01*
Y21750D01*
X13450Y21450D02*
X13550D01*
X13500D01*
Y21750D01*
X13450Y21700D01*
X13700Y21400D02*
X13900D01*
X14200Y21700D02*
X14150Y21750D01*
X14050D01*
X14000Y21700D01*
Y21500D01*
X14050Y21450D01*
X14150D01*
X14200Y21500D01*
X14300Y21750D02*
Y21450D01*
Y21600D01*
X14500D01*
Y21750D01*
Y21450D01*
X14800Y21700D02*
X14750Y21750D01*
X14650D01*
X14600Y21700D01*
Y21500D01*
X14650Y21450D01*
X14750D01*
X14800Y21500D01*
Y21600D01*
X14700D01*
X14900Y21750D02*
X15100D01*
Y21700D01*
X14900Y21500D01*
Y21450D01*
X13150Y16750D02*
Y16500D01*
X13200Y16450D01*
X13300D01*
X13350Y16500D01*
Y16750D01*
X13450Y16450D02*
X13550D01*
X13500D01*
Y16750D01*
X13450Y16700D01*
X13700Y16400D02*
X13900D01*
X14200Y16700D02*
X14150Y16750D01*
X14050D01*
X14000Y16700D01*
Y16500D01*
X14050Y16450D01*
X14150D01*
X14200Y16500D01*
X14300Y16750D02*
Y16450D01*
Y16600D01*
X14500D01*
Y16750D01*
Y16450D01*
X14800Y16700D02*
X14750Y16750D01*
X14650D01*
X14600Y16700D01*
Y16500D01*
X14650Y16450D01*
X14750D01*
X14800Y16500D01*
Y16600D01*
X14700D01*
X14900Y16700D02*
X14950Y16750D01*
X15050D01*
X15100Y16700D01*
Y16650D01*
X15050Y16600D01*
X15100Y16550D01*
Y16500D01*
X15050Y16450D01*
X14950D01*
X14900Y16500D01*
Y16550D01*
X14950Y16600D01*
X14900Y16650D01*
Y16700D01*
X14950Y16600D02*
X15050D01*
X44750Y16310D02*
Y16881D01*
X44278D02*
X44750D01*
X44278D02*
Y18219D01*
X44750D01*
Y18790D01*
X40026D02*
X44750D01*
X40026Y16310D02*
Y18790D01*
Y16310D02*
X44750D01*
X40026Y21310D02*
X44750D01*
X40026D02*
Y23790D01*
X44750D01*
Y23219D02*
Y23790D01*
X44278Y23219D02*
X44750D01*
X44278Y21881D02*
Y23219D01*
Y21881D02*
X44750D01*
Y21310D02*
Y21881D01*
X24100Y8219D02*
Y8790D01*
Y8219D02*
X24573D01*
Y6881D02*
Y8219D01*
X24100Y6881D02*
X24573D01*
X24100Y6310D02*
Y6881D01*
Y6310D02*
X28825D01*
Y8790D01*
X24100D02*
X28825D01*
X24100Y13790D02*
X28825D01*
Y11310D02*
Y13790D01*
X24100Y11310D02*
X28825D01*
X24100D02*
Y11881D01*
X24573D01*
Y13219D01*
X24100D02*
X24573D01*
X24100D02*
Y13790D01*
Y18219D02*
Y18790D01*
Y18219D02*
X24573D01*
Y16881D02*
Y18219D01*
X24100Y16881D02*
X24573D01*
X24100Y16310D02*
Y16881D01*
Y16310D02*
X28825D01*
Y18790D01*
X24100D02*
X28825D01*
X24100Y23790D02*
X28825D01*
Y21310D02*
Y23790D01*
X24100Y21310D02*
X28825D01*
X24100D02*
Y21881D01*
X24573D01*
Y23219D01*
X24100D02*
X24573D01*
X24100D02*
Y23790D01*
Y28219D02*
Y28790D01*
Y28219D02*
X24573D01*
Y26881D02*
Y28219D01*
X24100Y26881D02*
X24573D01*
X24100Y26310D02*
Y26881D01*
Y26310D02*
X28825D01*
Y28790D01*
X24100D02*
X28825D01*
X40026Y26310D02*
X44750D01*
X40026D02*
Y28790D01*
X44750D01*
Y28219D02*
Y28790D01*
X44278Y28219D02*
X44750D01*
X44278Y26881D02*
Y28219D01*
Y26881D02*
X44750D01*
Y26310D02*
Y26881D01*
Y11310D02*
Y11881D01*
X44278D02*
X44750D01*
X44278D02*
Y13219D01*
X44750D01*
Y13790D01*
X40026D02*
X44750D01*
X40026Y11310D02*
Y13790D01*
Y11310D02*
X44750D01*
X40026Y6310D02*
X44750D01*
X40026D02*
Y8790D01*
X44750D01*
Y8219D02*
Y8790D01*
X44278Y8219D02*
X44750D01*
X44278Y6881D02*
Y8219D01*
Y6881D02*
X44750D01*
Y6310D02*
Y6881D01*
X36400Y6750D02*
Y6500D01*
X36450Y6450D01*
X36550D01*
X36600Y6500D01*
Y6750D01*
X36700Y6450D02*
X36800D01*
X36750D01*
Y6750D01*
X36700Y6700D01*
X36950Y6400D02*
X37150D01*
X37450Y6700D02*
X37400Y6750D01*
X37300D01*
X37250Y6700D01*
Y6500D01*
X37300Y6450D01*
X37400D01*
X37450Y6500D01*
X37550Y6750D02*
Y6450D01*
Y6600D01*
X37750D01*
Y6750D01*
Y6450D01*
X38050Y6700D02*
X38000Y6750D01*
X37900D01*
X37850Y6700D01*
Y6500D01*
X37900Y6450D01*
X38000D01*
X38050Y6500D01*
Y6600D01*
X37950D01*
X38150Y6450D02*
X38250D01*
X38200D01*
Y6750D01*
X38150Y6700D01*
X38400D02*
X38449Y6750D01*
X38549D01*
X38599Y6700D01*
Y6500D01*
X38549Y6450D01*
X38449D01*
X38400Y6500D01*
Y6700D01*
X36400Y11750D02*
Y11500D01*
X36450Y11450D01*
X36550D01*
X36600Y11500D01*
Y11750D01*
X36700Y11450D02*
X36800D01*
X36750D01*
Y11750D01*
X36700Y11700D01*
X36950Y11400D02*
X37150D01*
X37450Y11700D02*
X37400Y11750D01*
X37300D01*
X37250Y11700D01*
Y11500D01*
X37300Y11450D01*
X37400D01*
X37450Y11500D01*
X37550Y11750D02*
Y11450D01*
Y11600D01*
X37750D01*
Y11750D01*
Y11450D01*
X38050Y11700D02*
X38000Y11750D01*
X37900D01*
X37850Y11700D01*
Y11500D01*
X37900Y11450D01*
X38000D01*
X38050Y11500D01*
Y11600D01*
X37950D01*
X38150Y11500D02*
X38200Y11450D01*
X38300D01*
X38350Y11500D01*
Y11700D01*
X38300Y11750D01*
X38200D01*
X38150Y11700D01*
Y11650D01*
X38200Y11600D01*
X38350D01*
X36400Y26750D02*
Y26500D01*
X36450Y26450D01*
X36550D01*
X36600Y26500D01*
Y26750D01*
X36700Y26450D02*
X36800D01*
X36750D01*
Y26750D01*
X36700Y26700D01*
X36950Y26400D02*
X37150D01*
X37450Y26700D02*
X37400Y26750D01*
X37300D01*
X37250Y26700D01*
Y26500D01*
X37300Y26450D01*
X37400D01*
X37450Y26500D01*
X37550Y26750D02*
Y26450D01*
Y26600D01*
X37750D01*
Y26750D01*
Y26450D01*
X38050Y26700D02*
X38000Y26750D01*
X37900D01*
X37850Y26700D01*
Y26500D01*
X37900Y26450D01*
X38000D01*
X38050Y26500D01*
Y26600D01*
X37950D01*
X38350Y26750D02*
X38250Y26700D01*
X38150Y26600D01*
Y26500D01*
X38200Y26450D01*
X38300D01*
X38350Y26500D01*
Y26550D01*
X38300Y26600D01*
X38150D01*
X32450Y28350D02*
Y28600D01*
X32400Y28650D01*
X32300D01*
X32250Y28600D01*
Y28350D01*
X32150Y28650D02*
X32050D01*
X32100D01*
Y28350D01*
X32150Y28400D01*
X31900Y28700D02*
X31700D01*
X31400Y28400D02*
X31450Y28350D01*
X31550D01*
X31600Y28400D01*
Y28600D01*
X31550Y28650D01*
X31450D01*
X31400Y28600D01*
X31301Y28350D02*
Y28650D01*
Y28500D01*
X31101D01*
Y28350D01*
Y28650D01*
X30801Y28400D02*
X30851Y28350D01*
X30951D01*
X31001Y28400D01*
Y28600D01*
X30951Y28650D01*
X30851D01*
X30801Y28600D01*
Y28500D01*
X30901D01*
X30501Y28350D02*
X30701D01*
Y28500D01*
X30601Y28450D01*
X30551D01*
X30501Y28500D01*
Y28600D01*
X30551Y28650D01*
X30651D01*
X30701Y28600D01*
X32450Y23350D02*
Y23600D01*
X32400Y23650D01*
X32300D01*
X32250Y23600D01*
Y23350D01*
X32150Y23650D02*
X32050D01*
X32100D01*
Y23350D01*
X32150Y23400D01*
X31900Y23700D02*
X31700D01*
X31400Y23400D02*
X31450Y23350D01*
X31550D01*
X31600Y23400D01*
Y23600D01*
X31550Y23650D01*
X31450D01*
X31400Y23600D01*
X31301Y23350D02*
Y23650D01*
Y23500D01*
X31101D01*
Y23350D01*
Y23650D01*
X30801Y23400D02*
X30851Y23350D01*
X30951D01*
X31001Y23400D01*
Y23600D01*
X30951Y23650D01*
X30851D01*
X30801Y23600D01*
Y23500D01*
X30901D01*
X30551Y23650D02*
Y23350D01*
X30701Y23500D01*
X30501D01*
X32450Y18350D02*
Y18600D01*
X32400Y18650D01*
X32300D01*
X32250Y18600D01*
Y18350D01*
X32150Y18650D02*
X32050D01*
X32100D01*
Y18350D01*
X32150Y18400D01*
X31900Y18700D02*
X31700D01*
X31400Y18400D02*
X31450Y18350D01*
X31550D01*
X31600Y18400D01*
Y18600D01*
X31550Y18650D01*
X31450D01*
X31400Y18600D01*
X31301Y18350D02*
Y18650D01*
Y18500D01*
X31101D01*
Y18350D01*
Y18650D01*
X30801Y18400D02*
X30851Y18350D01*
X30951D01*
X31001Y18400D01*
Y18600D01*
X30951Y18650D01*
X30851D01*
X30801Y18600D01*
Y18500D01*
X30901D01*
X30701Y18400D02*
X30651Y18350D01*
X30551D01*
X30501Y18400D01*
Y18450D01*
X30551Y18500D01*
X30601D01*
X30551D01*
X30501Y18550D01*
Y18600D01*
X30551Y18650D01*
X30651D01*
X30701Y18600D01*
X32450Y13350D02*
Y13600D01*
X32400Y13650D01*
X32300D01*
X32250Y13600D01*
Y13350D01*
X32150Y13650D02*
X32050D01*
X32100D01*
Y13350D01*
X32150Y13400D01*
X31900Y13700D02*
X31700D01*
X31400Y13400D02*
X31450Y13350D01*
X31550D01*
X31600Y13400D01*
Y13600D01*
X31550Y13650D01*
X31450D01*
X31400Y13600D01*
X31301Y13350D02*
Y13650D01*
Y13500D01*
X31101D01*
Y13350D01*
Y13650D01*
X30801Y13400D02*
X30851Y13350D01*
X30951D01*
X31001Y13400D01*
Y13600D01*
X30951Y13650D01*
X30851D01*
X30801Y13600D01*
Y13500D01*
X30901D01*
X30501Y13650D02*
X30701D01*
X30501Y13450D01*
Y13400D01*
X30551Y13350D01*
X30651D01*
X30701Y13400D01*
X32450Y8350D02*
Y8600D01*
X32400Y8650D01*
X32300D01*
X32250Y8600D01*
Y8350D01*
X32150Y8650D02*
X32050D01*
X32100D01*
Y8350D01*
X32150Y8400D01*
X31900Y8700D02*
X31700D01*
X31400Y8400D02*
X31450Y8350D01*
X31550D01*
X31600Y8400D01*
Y8600D01*
X31550Y8650D01*
X31450D01*
X31400Y8600D01*
X31301Y8350D02*
Y8650D01*
Y8500D01*
X31101D01*
Y8350D01*
Y8650D01*
X30801Y8400D02*
X30851Y8350D01*
X30951D01*
X31001Y8400D01*
Y8600D01*
X30951Y8650D01*
X30851D01*
X30801Y8600D01*
Y8500D01*
X30901D01*
X30701Y8650D02*
X30601D01*
X30651D01*
Y8350D01*
X30701Y8400D01*
X34450Y10600D02*
Y10900D01*
X34600D01*
X34650Y10850D01*
Y10750D01*
X34600Y10700D01*
X34450D01*
X34550D02*
X34650Y10600D01*
X34900D02*
Y10900D01*
X34750Y10750D01*
X34950D01*
X35350Y6900D02*
Y7200D01*
X35500D01*
X35550Y7150D01*
Y7050D01*
X35500Y7000D01*
X35350D01*
X35450D02*
X35550Y6900D01*
X35650Y7150D02*
X35700Y7200D01*
X35800D01*
X35850Y7150D01*
Y7100D01*
X35800Y7050D01*
X35750D01*
X35800D01*
X35850Y7000D01*
Y6950D01*
X35800Y6900D01*
X35700D01*
X35650Y6950D01*
X35950Y6850D02*
X36150D01*
X36450Y7150D02*
X36400Y7200D01*
X36300D01*
X36250Y7150D01*
Y6950D01*
X36300Y6900D01*
X36400D01*
X36450Y6950D01*
X36550Y7200D02*
Y6900D01*
Y7050D01*
X36750D01*
Y7200D01*
Y6900D01*
X37050Y7150D02*
X37000Y7200D01*
X36900D01*
X36850Y7150D01*
Y6950D01*
X36900Y6900D01*
X37000D01*
X37050Y6950D01*
Y7050D01*
X36950D01*
X37150Y6900D02*
X37250D01*
X37200D01*
Y7200D01*
X37150Y7150D01*
X37399D02*
X37449Y7200D01*
X37549D01*
X37599Y7150D01*
Y6950D01*
X37549Y6900D01*
X37449D01*
X37399Y6950D01*
Y7150D01*
X35350Y11900D02*
Y12200D01*
X35500D01*
X35550Y12150D01*
Y12050D01*
X35500Y12000D01*
X35350D01*
X35450D02*
X35550Y11900D01*
X35650Y12150D02*
X35700Y12200D01*
X35800D01*
X35850Y12150D01*
Y12100D01*
X35800Y12050D01*
X35750D01*
X35800D01*
X35850Y12000D01*
Y11950D01*
X35800Y11900D01*
X35700D01*
X35650Y11950D01*
X35950Y11850D02*
X36150D01*
X36450Y12150D02*
X36400Y12200D01*
X36300D01*
X36250Y12150D01*
Y11950D01*
X36300Y11900D01*
X36400D01*
X36450Y11950D01*
X36550Y12200D02*
Y11900D01*
Y12050D01*
X36750D01*
Y12200D01*
Y11900D01*
X37050Y12150D02*
X37000Y12200D01*
X36900D01*
X36850Y12150D01*
Y11950D01*
X36900Y11900D01*
X37000D01*
X37050Y11950D01*
Y12050D01*
X36950D01*
X37150Y11950D02*
X37200Y11900D01*
X37300D01*
X37350Y11950D01*
Y12150D01*
X37300Y12200D01*
X37200D01*
X37150Y12150D01*
Y12100D01*
X37200Y12050D01*
X37350D01*
X35350Y26900D02*
Y27200D01*
X35500D01*
X35550Y27150D01*
Y27050D01*
X35500Y27000D01*
X35350D01*
X35450D02*
X35550Y26900D01*
X35650Y27150D02*
X35700Y27200D01*
X35800D01*
X35850Y27150D01*
Y27100D01*
X35800Y27050D01*
X35750D01*
X35800D01*
X35850Y27000D01*
Y26950D01*
X35800Y26900D01*
X35700D01*
X35650Y26950D01*
X35950Y26850D02*
X36150D01*
X36450Y27150D02*
X36400Y27200D01*
X36300D01*
X36250Y27150D01*
Y26950D01*
X36300Y26900D01*
X36400D01*
X36450Y26950D01*
X36550Y27200D02*
Y26900D01*
Y27050D01*
X36750D01*
Y27200D01*
Y26900D01*
X37050Y27150D02*
X37000Y27200D01*
X36900D01*
X36850Y27150D01*
Y26950D01*
X36900Y26900D01*
X37000D01*
X37050Y26950D01*
Y27050D01*
X36950D01*
X37350Y27200D02*
X37250Y27150D01*
X37150Y27050D01*
Y26950D01*
X37200Y26900D01*
X37300D01*
X37350Y26950D01*
Y27000D01*
X37300Y27050D01*
X37150D01*
X33500Y28200D02*
Y27900D01*
X33350D01*
X33300Y27950D01*
Y28050D01*
X33350Y28100D01*
X33500D01*
X33400D02*
X33300Y28200D01*
X33200Y27950D02*
X33150Y27900D01*
X33050D01*
X33000Y27950D01*
Y28000D01*
X33050Y28050D01*
X33100D01*
X33050D01*
X33000Y28100D01*
Y28150D01*
X33050Y28200D01*
X33150D01*
X33200Y28150D01*
X32900Y28250D02*
X32700D01*
X32401Y27950D02*
X32450Y27900D01*
X32550D01*
X32600Y27950D01*
Y28150D01*
X32550Y28200D01*
X32450D01*
X32401Y28150D01*
X32301Y27900D02*
Y28200D01*
Y28050D01*
X32101D01*
Y27900D01*
Y28200D01*
X31801Y27950D02*
X31851Y27900D01*
X31951D01*
X32001Y27950D01*
Y28150D01*
X31951Y28200D01*
X31851D01*
X31801Y28150D01*
Y28050D01*
X31901D01*
X31501Y27900D02*
X31701D01*
Y28050D01*
X31601Y28000D01*
X31551D01*
X31501Y28050D01*
Y28150D01*
X31551Y28200D01*
X31651D01*
X31701Y28150D01*
X33500Y23200D02*
Y22900D01*
X33350D01*
X33300Y22950D01*
Y23050D01*
X33350Y23100D01*
X33500D01*
X33400D02*
X33300Y23200D01*
X33200Y22950D02*
X33150Y22900D01*
X33050D01*
X33000Y22950D01*
Y23000D01*
X33050Y23050D01*
X33100D01*
X33050D01*
X33000Y23100D01*
Y23150D01*
X33050Y23200D01*
X33150D01*
X33200Y23150D01*
X32900Y23250D02*
X32700D01*
X32401Y22950D02*
X32450Y22900D01*
X32550D01*
X32600Y22950D01*
Y23150D01*
X32550Y23200D01*
X32450D01*
X32401Y23150D01*
X32301Y22900D02*
Y23200D01*
Y23050D01*
X32101D01*
Y22900D01*
Y23200D01*
X31801Y22950D02*
X31851Y22900D01*
X31951D01*
X32001Y22950D01*
Y23150D01*
X31951Y23200D01*
X31851D01*
X31801Y23150D01*
Y23050D01*
X31901D01*
X31551Y23200D02*
Y22900D01*
X31701Y23050D01*
X31501D01*
X33500Y18200D02*
Y17900D01*
X33350D01*
X33300Y17950D01*
Y18050D01*
X33350Y18100D01*
X33500D01*
X33400D02*
X33300Y18200D01*
X33200Y17950D02*
X33150Y17900D01*
X33050D01*
X33000Y17950D01*
Y18000D01*
X33050Y18050D01*
X33100D01*
X33050D01*
X33000Y18100D01*
Y18150D01*
X33050Y18200D01*
X33150D01*
X33200Y18150D01*
X32900Y18250D02*
X32700D01*
X32401Y17950D02*
X32450Y17900D01*
X32550D01*
X32600Y17950D01*
Y18150D01*
X32550Y18200D01*
X32450D01*
X32401Y18150D01*
X32301Y17900D02*
Y18200D01*
Y18050D01*
X32101D01*
Y17900D01*
Y18200D01*
X31801Y17950D02*
X31851Y17900D01*
X31951D01*
X32001Y17950D01*
Y18150D01*
X31951Y18200D01*
X31851D01*
X31801Y18150D01*
Y18050D01*
X31901D01*
X31701Y17950D02*
X31651Y17900D01*
X31551D01*
X31501Y17950D01*
Y18000D01*
X31551Y18050D01*
X31601D01*
X31551D01*
X31501Y18100D01*
Y18150D01*
X31551Y18200D01*
X31651D01*
X31701Y18150D01*
X33500Y13200D02*
Y12900D01*
X33350D01*
X33300Y12950D01*
Y13050D01*
X33350Y13100D01*
X33500D01*
X33400D02*
X33300Y13200D01*
X33200Y12950D02*
X33150Y12900D01*
X33050D01*
X33000Y12950D01*
Y13000D01*
X33050Y13050D01*
X33100D01*
X33050D01*
X33000Y13100D01*
Y13150D01*
X33050Y13200D01*
X33150D01*
X33200Y13150D01*
X32900Y13250D02*
X32700D01*
X32401Y12950D02*
X32450Y12900D01*
X32550D01*
X32600Y12950D01*
Y13150D01*
X32550Y13200D01*
X32450D01*
X32401Y13150D01*
X32301Y12900D02*
Y13200D01*
Y13050D01*
X32101D01*
Y12900D01*
Y13200D01*
X31801Y12950D02*
X31851Y12900D01*
X31951D01*
X32001Y12950D01*
Y13150D01*
X31951Y13200D01*
X31851D01*
X31801Y13150D01*
Y13050D01*
X31901D01*
X31501Y13200D02*
X31701D01*
X31501Y13000D01*
Y12950D01*
X31551Y12900D01*
X31651D01*
X31701Y12950D01*
X33500Y8200D02*
Y7900D01*
X33350D01*
X33300Y7950D01*
Y8050D01*
X33350Y8100D01*
X33500D01*
X33400D02*
X33300Y8200D01*
X33200Y7950D02*
X33150Y7900D01*
X33050D01*
X33000Y7950D01*
Y8000D01*
X33050Y8050D01*
X33100D01*
X33050D01*
X33000Y8100D01*
Y8150D01*
X33050Y8200D01*
X33150D01*
X33200Y8150D01*
X32900Y8250D02*
X32700D01*
X32401Y7950D02*
X32450Y7900D01*
X32550D01*
X32600Y7950D01*
Y8150D01*
X32550Y8200D01*
X32450D01*
X32401Y8150D01*
X32301Y7900D02*
Y8200D01*
Y8050D01*
X32101D01*
Y7900D01*
Y8200D01*
X31801Y7950D02*
X31851Y7900D01*
X31951D01*
X32001Y7950D01*
Y8150D01*
X31951Y8200D01*
X31851D01*
X31801Y8150D01*
Y8050D01*
X31901D01*
X31701Y8200D02*
X31601D01*
X31651D01*
Y7900D01*
X31701Y7950D01*
X38200Y8600D02*
X37900D01*
Y8750D01*
X37950Y8800D01*
X38050D01*
X38100Y8750D01*
Y8600D01*
Y8700D02*
X38200Y8800D01*
Y9100D02*
Y8900D01*
X38000Y9100D01*
X37950D01*
X37900Y9050D01*
Y8950D01*
X37950Y8900D01*
X38250Y9200D02*
Y9400D01*
X37950Y9700D02*
X37900Y9650D01*
Y9550D01*
X37950Y9500D01*
X38150D01*
X38200Y9550D01*
Y9650D01*
X38150Y9700D01*
X37900Y9800D02*
X38200D01*
X38050D01*
Y10000D01*
X37900D01*
X38200D01*
X37950Y10300D02*
X37900Y10250D01*
Y10150D01*
X37950Y10100D01*
X38150D01*
X38200Y10150D01*
Y10250D01*
X38150Y10300D01*
X38050D01*
Y10200D01*
X38200Y10400D02*
Y10500D01*
Y10450D01*
X37900D01*
X37950Y10400D01*
Y10649D02*
X37900Y10699D01*
Y10799D01*
X37950Y10849D01*
X38150D01*
X38200Y10799D01*
Y10699D01*
X38150Y10649D01*
X37950D01*
X38200Y13600D02*
X37900D01*
Y13750D01*
X37950Y13800D01*
X38050D01*
X38100Y13750D01*
Y13600D01*
Y13700D02*
X38200Y13800D01*
Y14100D02*
Y13900D01*
X38000Y14100D01*
X37950D01*
X37900Y14050D01*
Y13950D01*
X37950Y13900D01*
X38250Y14200D02*
Y14400D01*
X37950Y14700D02*
X37900Y14650D01*
Y14550D01*
X37950Y14500D01*
X38150D01*
X38200Y14550D01*
Y14650D01*
X38150Y14700D01*
X37900Y14800D02*
X38200D01*
X38050D01*
Y15000D01*
X37900D01*
X38200D01*
X37950Y15300D02*
X37900Y15250D01*
Y15150D01*
X37950Y15100D01*
X38150D01*
X38200Y15150D01*
Y15250D01*
X38150Y15300D01*
X38050D01*
Y15200D01*
X38150Y15400D02*
X38200Y15450D01*
Y15550D01*
X38150Y15599D01*
X37950D01*
X37900Y15550D01*
Y15450D01*
X37950Y15400D01*
X38000D01*
X38050Y15450D01*
Y15599D01*
X38200Y28600D02*
X37900D01*
Y28750D01*
X37950Y28800D01*
X38050D01*
X38100Y28750D01*
Y28600D01*
Y28700D02*
X38200Y28800D01*
Y29100D02*
Y28900D01*
X38000Y29100D01*
X37950D01*
X37900Y29050D01*
Y28950D01*
X37950Y28900D01*
X38250Y29200D02*
Y29400D01*
X37950Y29700D02*
X37900Y29650D01*
Y29550D01*
X37950Y29500D01*
X38150D01*
X38200Y29550D01*
Y29650D01*
X38150Y29700D01*
X37900Y29800D02*
X38200D01*
X38050D01*
Y30000D01*
X37900D01*
X38200D01*
X37950Y30300D02*
X37900Y30250D01*
Y30150D01*
X37950Y30100D01*
X38150D01*
X38200Y30150D01*
Y30250D01*
X38150Y30300D01*
X38050D01*
Y30200D01*
X37900Y30600D02*
X37950Y30500D01*
X38050Y30400D01*
X38150D01*
X38200Y30450D01*
Y30550D01*
X38150Y30600D01*
X38100D01*
X38050Y30550D01*
Y30400D01*
X30650Y26500D02*
X30950D01*
Y26350D01*
X30900Y26300D01*
X30800D01*
X30750Y26350D01*
Y26500D01*
Y26400D02*
X30650Y26300D01*
Y26000D02*
Y26200D01*
X30850Y26000D01*
X30900D01*
X30950Y26050D01*
Y26150D01*
X30900Y26200D01*
X30600Y25900D02*
Y25700D01*
X30900Y25401D02*
X30950Y25450D01*
Y25550D01*
X30900Y25600D01*
X30700D01*
X30650Y25550D01*
Y25450D01*
X30700Y25401D01*
X30950Y25301D02*
X30650D01*
X30800D01*
Y25101D01*
X30950D01*
X30650D01*
X30900Y24801D02*
X30950Y24851D01*
Y24951D01*
X30900Y25001D01*
X30700D01*
X30650Y24951D01*
Y24851D01*
X30700Y24801D01*
X30800D01*
Y24901D01*
X30950Y24501D02*
Y24701D01*
X30800D01*
X30850Y24601D01*
Y24551D01*
X30800Y24501D01*
X30700D01*
X30650Y24551D01*
Y24651D01*
X30700Y24701D01*
X30650Y21500D02*
X30950D01*
Y21350D01*
X30900Y21300D01*
X30800D01*
X30750Y21350D01*
Y21500D01*
Y21400D02*
X30650Y21300D01*
Y21000D02*
Y21200D01*
X30850Y21000D01*
X30900D01*
X30950Y21050D01*
Y21150D01*
X30900Y21200D01*
X30600Y20900D02*
Y20700D01*
X30900Y20401D02*
X30950Y20450D01*
Y20550D01*
X30900Y20600D01*
X30700D01*
X30650Y20550D01*
Y20450D01*
X30700Y20401D01*
X30950Y20301D02*
X30650D01*
X30800D01*
Y20101D01*
X30950D01*
X30650D01*
X30900Y19801D02*
X30950Y19851D01*
Y19951D01*
X30900Y20001D01*
X30700D01*
X30650Y19951D01*
Y19851D01*
X30700Y19801D01*
X30800D01*
Y19901D01*
X30650Y19551D02*
X30950D01*
X30800Y19701D01*
Y19501D01*
X30650Y16500D02*
X30950D01*
Y16350D01*
X30900Y16300D01*
X30800D01*
X30750Y16350D01*
Y16500D01*
Y16400D02*
X30650Y16300D01*
Y16000D02*
Y16200D01*
X30850Y16000D01*
X30900D01*
X30950Y16050D01*
Y16150D01*
X30900Y16200D01*
X30600Y15900D02*
Y15700D01*
X30900Y15401D02*
X30950Y15450D01*
Y15550D01*
X30900Y15600D01*
X30700D01*
X30650Y15550D01*
Y15450D01*
X30700Y15401D01*
X30950Y15301D02*
X30650D01*
X30800D01*
Y15101D01*
X30950D01*
X30650D01*
X30900Y14801D02*
X30950Y14851D01*
Y14951D01*
X30900Y15001D01*
X30700D01*
X30650Y14951D01*
Y14851D01*
X30700Y14801D01*
X30800D01*
Y14901D01*
X30900Y14701D02*
X30950Y14651D01*
Y14551D01*
X30900Y14501D01*
X30850D01*
X30800Y14551D01*
Y14601D01*
Y14551D01*
X30750Y14501D01*
X30700D01*
X30650Y14551D01*
Y14651D01*
X30700Y14701D01*
X30650Y11500D02*
X30950D01*
Y11350D01*
X30900Y11300D01*
X30800D01*
X30750Y11350D01*
Y11500D01*
Y11400D02*
X30650Y11300D01*
Y11000D02*
Y11200D01*
X30850Y11000D01*
X30900D01*
X30950Y11050D01*
Y11150D01*
X30900Y11200D01*
X30600Y10900D02*
Y10700D01*
X30900Y10401D02*
X30950Y10450D01*
Y10550D01*
X30900Y10600D01*
X30700D01*
X30650Y10550D01*
Y10450D01*
X30700Y10401D01*
X30950Y10301D02*
X30650D01*
X30800D01*
Y10101D01*
X30950D01*
X30650D01*
X30900Y9801D02*
X30950Y9851D01*
Y9951D01*
X30900Y10001D01*
X30700D01*
X30650Y9951D01*
Y9851D01*
X30700Y9801D01*
X30800D01*
Y9901D01*
X30650Y9501D02*
Y9701D01*
X30850Y9501D01*
X30900D01*
X30950Y9551D01*
Y9651D01*
X30900Y9701D01*
X30650Y6500D02*
X30950D01*
Y6350D01*
X30900Y6300D01*
X30800D01*
X30750Y6350D01*
Y6500D01*
Y6400D02*
X30650Y6300D01*
Y6000D02*
Y6200D01*
X30850Y6000D01*
X30900D01*
X30950Y6050D01*
Y6150D01*
X30900Y6200D01*
X30600Y5900D02*
Y5700D01*
X30900Y5401D02*
X30950Y5450D01*
Y5550D01*
X30900Y5600D01*
X30700D01*
X30650Y5550D01*
Y5450D01*
X30700Y5401D01*
X30950Y5301D02*
X30650D01*
X30800D01*
Y5101D01*
X30950D01*
X30650D01*
X30900Y4801D02*
X30950Y4851D01*
Y4951D01*
X30900Y5001D01*
X30700D01*
X30650Y4951D01*
Y4851D01*
X30700Y4801D01*
X30800D01*
Y4901D01*
X30650Y4701D02*
Y4601D01*
Y4651D01*
X30950D01*
X30900Y4701D01*
X40900Y9500D02*
Y9800D01*
X41050D01*
X41100Y9750D01*
Y9650D01*
X41050Y9600D01*
X40900D01*
X41000D02*
X41100Y9500D01*
X41200D02*
X41300D01*
X41250D01*
Y9800D01*
X41200Y9750D01*
X41450Y9450D02*
X41650D01*
X41950Y9750D02*
X41900Y9800D01*
X41800D01*
X41750Y9750D01*
Y9550D01*
X41800Y9500D01*
X41900D01*
X41950Y9550D01*
X42050Y9800D02*
Y9500D01*
Y9650D01*
X42250D01*
Y9800D01*
Y9500D01*
X42550Y9750D02*
X42500Y9800D01*
X42400D01*
X42350Y9750D01*
Y9550D01*
X42400Y9500D01*
X42500D01*
X42550Y9550D01*
Y9650D01*
X42450D01*
X42650Y9500D02*
X42750D01*
X42700D01*
Y9800D01*
X42650Y9750D01*
X42899D02*
X42949Y9800D01*
X43049D01*
X43099Y9750D01*
Y9550D01*
X43049Y9500D01*
X42949D01*
X42899Y9550D01*
Y9750D01*
X40900Y14500D02*
Y14800D01*
X41050D01*
X41100Y14750D01*
Y14650D01*
X41050Y14600D01*
X40900D01*
X41000D02*
X41100Y14500D01*
X41200D02*
X41300D01*
X41250D01*
Y14800D01*
X41200Y14750D01*
X41450Y14450D02*
X41650D01*
X41950Y14750D02*
X41900Y14800D01*
X41800D01*
X41750Y14750D01*
Y14550D01*
X41800Y14500D01*
X41900D01*
X41950Y14550D01*
X42050Y14800D02*
Y14500D01*
Y14650D01*
X42250D01*
Y14800D01*
Y14500D01*
X42550Y14750D02*
X42500Y14800D01*
X42400D01*
X42350Y14750D01*
Y14550D01*
X42400Y14500D01*
X42500D01*
X42550Y14550D01*
Y14650D01*
X42450D01*
X42650Y14550D02*
X42700Y14500D01*
X42800D01*
X42850Y14550D01*
Y14750D01*
X42800Y14800D01*
X42700D01*
X42650Y14750D01*
Y14700D01*
X42700Y14650D01*
X42850D01*
X40900Y29500D02*
Y29800D01*
X41050D01*
X41100Y29750D01*
Y29650D01*
X41050Y29600D01*
X40900D01*
X41000D02*
X41100Y29500D01*
X41200D02*
X41300D01*
X41250D01*
Y29800D01*
X41200Y29750D01*
X41450Y29450D02*
X41650D01*
X41950Y29750D02*
X41900Y29800D01*
X41800D01*
X41750Y29750D01*
Y29550D01*
X41800Y29500D01*
X41900D01*
X41950Y29550D01*
X42050Y29800D02*
Y29500D01*
Y29650D01*
X42250D01*
Y29800D01*
Y29500D01*
X42550Y29750D02*
X42500Y29800D01*
X42400D01*
X42350Y29750D01*
Y29550D01*
X42400Y29500D01*
X42500D01*
X42550Y29550D01*
Y29650D01*
X42450D01*
X42850Y29800D02*
X42750Y29750D01*
X42650Y29650D01*
Y29550D01*
X42700Y29500D01*
X42800D01*
X42850Y29550D01*
Y29600D01*
X42800Y29650D01*
X42650D01*
X27950Y25600D02*
Y25300D01*
X27800D01*
X27750Y25350D01*
Y25450D01*
X27800Y25500D01*
X27950D01*
X27850D02*
X27750Y25600D01*
X27650D02*
X27550D01*
X27600D01*
Y25300D01*
X27650Y25350D01*
X27400Y25650D02*
X27200D01*
X26900Y25350D02*
X26950Y25300D01*
X27050D01*
X27100Y25350D01*
Y25550D01*
X27050Y25600D01*
X26950D01*
X26900Y25550D01*
X26801Y25300D02*
Y25600D01*
Y25450D01*
X26601D01*
Y25300D01*
Y25600D01*
X26301Y25350D02*
X26351Y25300D01*
X26451D01*
X26501Y25350D01*
Y25550D01*
X26451Y25600D01*
X26351D01*
X26301Y25550D01*
Y25450D01*
X26401D01*
X26001Y25300D02*
X26201D01*
Y25450D01*
X26101Y25400D01*
X26051D01*
X26001Y25450D01*
Y25550D01*
X26051Y25600D01*
X26151D01*
X26201Y25550D01*
X27950Y20600D02*
Y20300D01*
X27800D01*
X27750Y20350D01*
Y20450D01*
X27800Y20500D01*
X27950D01*
X27850D02*
X27750Y20600D01*
X27650D02*
X27550D01*
X27600D01*
Y20300D01*
X27650Y20350D01*
X27400Y20650D02*
X27200D01*
X26900Y20350D02*
X26950Y20300D01*
X27050D01*
X27100Y20350D01*
Y20550D01*
X27050Y20600D01*
X26950D01*
X26900Y20550D01*
X26801Y20300D02*
Y20600D01*
Y20450D01*
X26601D01*
Y20300D01*
Y20600D01*
X26301Y20350D02*
X26351Y20300D01*
X26451D01*
X26501Y20350D01*
Y20550D01*
X26451Y20600D01*
X26351D01*
X26301Y20550D01*
Y20450D01*
X26401D01*
X26051Y20600D02*
Y20300D01*
X26201Y20450D01*
X26001D01*
X27950Y15600D02*
Y15300D01*
X27800D01*
X27750Y15350D01*
Y15450D01*
X27800Y15500D01*
X27950D01*
X27850D02*
X27750Y15600D01*
X27650D02*
X27550D01*
X27600D01*
Y15300D01*
X27650Y15350D01*
X27400Y15650D02*
X27200D01*
X26900Y15350D02*
X26950Y15300D01*
X27050D01*
X27100Y15350D01*
Y15550D01*
X27050Y15600D01*
X26950D01*
X26900Y15550D01*
X26801Y15300D02*
Y15600D01*
Y15450D01*
X26601D01*
Y15300D01*
Y15600D01*
X26301Y15350D02*
X26351Y15300D01*
X26451D01*
X26501Y15350D01*
Y15550D01*
X26451Y15600D01*
X26351D01*
X26301Y15550D01*
Y15450D01*
X26401D01*
X26201Y15350D02*
X26151Y15300D01*
X26051D01*
X26001Y15350D01*
Y15400D01*
X26051Y15450D01*
X26101D01*
X26051D01*
X26001Y15500D01*
Y15550D01*
X26051Y15600D01*
X26151D01*
X26201Y15550D01*
X27950Y10600D02*
Y10300D01*
X27800D01*
X27750Y10350D01*
Y10450D01*
X27800Y10500D01*
X27950D01*
X27850D02*
X27750Y10600D01*
X27650D02*
X27550D01*
X27600D01*
Y10300D01*
X27650Y10350D01*
X27400Y10650D02*
X27200D01*
X26900Y10350D02*
X26950Y10300D01*
X27050D01*
X27100Y10350D01*
Y10550D01*
X27050Y10600D01*
X26950D01*
X26900Y10550D01*
X26801Y10300D02*
Y10600D01*
Y10450D01*
X26601D01*
Y10300D01*
Y10600D01*
X26301Y10350D02*
X26351Y10300D01*
X26451D01*
X26501Y10350D01*
Y10550D01*
X26451Y10600D01*
X26351D01*
X26301Y10550D01*
Y10450D01*
X26401D01*
X26001Y10600D02*
X26201D01*
X26001Y10400D01*
Y10350D01*
X26051Y10300D01*
X26151D01*
X26201Y10350D01*
X27950Y5600D02*
Y5300D01*
X27800D01*
X27750Y5350D01*
Y5450D01*
X27800Y5500D01*
X27950D01*
X27850D02*
X27750Y5600D01*
X27650D02*
X27550D01*
X27600D01*
Y5300D01*
X27650Y5350D01*
X27400Y5650D02*
X27200D01*
X26900Y5350D02*
X26950Y5300D01*
X27050D01*
X27100Y5350D01*
Y5550D01*
X27050Y5600D01*
X26950D01*
X26900Y5550D01*
X26801Y5300D02*
Y5600D01*
Y5450D01*
X26601D01*
Y5300D01*
Y5600D01*
X26301Y5350D02*
X26351Y5300D01*
X26451D01*
X26501Y5350D01*
Y5550D01*
X26451Y5600D01*
X26351D01*
X26301Y5550D01*
Y5450D01*
X26401D01*
X26201Y5600D02*
X26101D01*
X26151D01*
Y5300D01*
X26201Y5350D01*
X41450Y5850D02*
Y6150D01*
X41600D01*
X41650Y6100D01*
Y6000D01*
X41600Y5950D01*
X41450D01*
X41750Y5850D02*
X41850D01*
X41800D01*
Y6150D01*
X41750Y6100D01*
X42000Y5800D02*
X42200D01*
X42500Y6100D02*
X42450Y6150D01*
X42350D01*
X42300Y6100D01*
Y5900D01*
X42350Y5850D01*
X42450D01*
X42500Y5900D01*
X42600Y6150D02*
Y5850D01*
Y6000D01*
X42800D01*
Y6150D01*
Y5850D01*
X43100Y6100D02*
X43050Y6150D01*
X42950D01*
X42900Y6100D01*
Y5900D01*
X42950Y5850D01*
X43050D01*
X43100Y5900D01*
Y6000D01*
X43000D01*
X43200Y5850D02*
X43300D01*
X43250D01*
Y6150D01*
X43200Y6100D01*
X43450D02*
X43499Y6150D01*
X43599D01*
X43649Y6100D01*
Y5900D01*
X43599Y5850D01*
X43499D01*
X43450Y5900D01*
Y6100D01*
X41450Y10850D02*
Y11150D01*
X41600D01*
X41650Y11100D01*
Y11000D01*
X41600Y10950D01*
X41450D01*
X41750Y10850D02*
X41850D01*
X41800D01*
Y11150D01*
X41750Y11100D01*
X42000Y10800D02*
X42200D01*
X42500Y11100D02*
X42450Y11150D01*
X42350D01*
X42300Y11100D01*
Y10900D01*
X42350Y10850D01*
X42450D01*
X42500Y10900D01*
X42600Y11150D02*
Y10850D01*
Y11000D01*
X42800D01*
Y11150D01*
Y10850D01*
X43100Y11100D02*
X43050Y11150D01*
X42950D01*
X42900Y11100D01*
Y10900D01*
X42950Y10850D01*
X43050D01*
X43100Y10900D01*
Y11000D01*
X43000D01*
X43200Y10900D02*
X43250Y10850D01*
X43350D01*
X43400Y10900D01*
Y11100D01*
X43350Y11150D01*
X43250D01*
X43200Y11100D01*
Y11050D01*
X43250Y11000D01*
X43400D01*
X41450Y25850D02*
Y26150D01*
X41600D01*
X41650Y26100D01*
Y26000D01*
X41600Y25950D01*
X41450D01*
X41750Y25850D02*
X41850D01*
X41800D01*
Y26150D01*
X41750Y26100D01*
X42000Y25800D02*
X42200D01*
X42500Y26100D02*
X42450Y26150D01*
X42350D01*
X42300Y26100D01*
Y25900D01*
X42350Y25850D01*
X42450D01*
X42500Y25900D01*
X42600Y26150D02*
Y25850D01*
Y26000D01*
X42800D01*
Y26150D01*
Y25850D01*
X43100Y26100D02*
X43050Y26150D01*
X42950D01*
X42900Y26100D01*
Y25900D01*
X42950Y25850D01*
X43050D01*
X43100Y25900D01*
Y26000D01*
X43000D01*
X43400Y26150D02*
X43300Y26100D01*
X43200Y26000D01*
Y25900D01*
X43250Y25850D01*
X43350D01*
X43400Y25900D01*
Y25950D01*
X43350Y26000D01*
X43200D01*
X27400Y29250D02*
Y28950D01*
X27250D01*
X27200Y29000D01*
Y29100D01*
X27250Y29150D01*
X27400D01*
X27100Y29250D02*
X27000D01*
X27050D01*
Y28950D01*
X27100Y29000D01*
X26850Y29300D02*
X26650D01*
X26350Y29000D02*
X26400Y28950D01*
X26500D01*
X26550Y29000D01*
Y29200D01*
X26500Y29250D01*
X26400D01*
X26350Y29200D01*
X26251Y28950D02*
Y29250D01*
Y29100D01*
X26051D01*
Y28950D01*
Y29250D01*
X25751Y29000D02*
X25801Y28950D01*
X25901D01*
X25951Y29000D01*
Y29200D01*
X25901Y29250D01*
X25801D01*
X25751Y29200D01*
Y29100D01*
X25851D01*
X25451Y28950D02*
X25651D01*
Y29100D01*
X25551Y29050D01*
X25501D01*
X25451Y29100D01*
Y29200D01*
X25501Y29250D01*
X25601D01*
X25651Y29200D01*
X27400Y24250D02*
Y23950D01*
X27250D01*
X27200Y24000D01*
Y24100D01*
X27250Y24150D01*
X27400D01*
X27100Y24250D02*
X27000D01*
X27050D01*
Y23950D01*
X27100Y24000D01*
X26850Y24300D02*
X26650D01*
X26350Y24000D02*
X26400Y23950D01*
X26500D01*
X26550Y24000D01*
Y24200D01*
X26500Y24250D01*
X26400D01*
X26350Y24200D01*
X26251Y23950D02*
Y24250D01*
Y24100D01*
X26051D01*
Y23950D01*
Y24250D01*
X25751Y24000D02*
X25801Y23950D01*
X25901D01*
X25951Y24000D01*
Y24200D01*
X25901Y24250D01*
X25801D01*
X25751Y24200D01*
Y24100D01*
X25851D01*
X25501Y24250D02*
Y23950D01*
X25651Y24100D01*
X25451D01*
X27400Y19250D02*
Y18950D01*
X27250D01*
X27200Y19000D01*
Y19100D01*
X27250Y19150D01*
X27400D01*
X27100Y19250D02*
X27000D01*
X27050D01*
Y18950D01*
X27100Y19000D01*
X26850Y19300D02*
X26650D01*
X26350Y19000D02*
X26400Y18950D01*
X26500D01*
X26550Y19000D01*
Y19200D01*
X26500Y19250D01*
X26400D01*
X26350Y19200D01*
X26251Y18950D02*
Y19250D01*
Y19100D01*
X26051D01*
Y18950D01*
Y19250D01*
X25751Y19000D02*
X25801Y18950D01*
X25901D01*
X25951Y19000D01*
Y19200D01*
X25901Y19250D01*
X25801D01*
X25751Y19200D01*
Y19100D01*
X25851D01*
X25651Y19000D02*
X25601Y18950D01*
X25501D01*
X25451Y19000D01*
Y19050D01*
X25501Y19100D01*
X25551D01*
X25501D01*
X25451Y19150D01*
Y19200D01*
X25501Y19250D01*
X25601D01*
X25651Y19200D01*
X27400Y14250D02*
Y13950D01*
X27250D01*
X27200Y14000D01*
Y14100D01*
X27250Y14150D01*
X27400D01*
X27100Y14250D02*
X27000D01*
X27050D01*
Y13950D01*
X27100Y14000D01*
X26850Y14300D02*
X26650D01*
X26350Y14000D02*
X26400Y13950D01*
X26500D01*
X26550Y14000D01*
Y14200D01*
X26500Y14250D01*
X26400D01*
X26350Y14200D01*
X26251Y13950D02*
Y14250D01*
Y14100D01*
X26051D01*
Y13950D01*
Y14250D01*
X25751Y14000D02*
X25801Y13950D01*
X25901D01*
X25951Y14000D01*
Y14200D01*
X25901Y14250D01*
X25801D01*
X25751Y14200D01*
Y14100D01*
X25851D01*
X25451Y14250D02*
X25651D01*
X25451Y14050D01*
Y14000D01*
X25501Y13950D01*
X25601D01*
X25651Y14000D01*
X27400Y9250D02*
Y8950D01*
X27250D01*
X27200Y9000D01*
Y9100D01*
X27250Y9150D01*
X27400D01*
X27100Y9250D02*
X27000D01*
X27050D01*
Y8950D01*
X27100Y9000D01*
X26850Y9300D02*
X26650D01*
X26350Y9000D02*
X26400Y8950D01*
X26500D01*
X26550Y9000D01*
Y9200D01*
X26500Y9250D01*
X26400D01*
X26350Y9200D01*
X26251Y8950D02*
Y9250D01*
Y9100D01*
X26051D01*
Y8950D01*
Y9250D01*
X25751Y9000D02*
X25801Y8950D01*
X25901D01*
X25951Y9000D01*
Y9200D01*
X25901Y9250D01*
X25801D01*
X25751Y9200D01*
Y9100D01*
X25851D01*
X25651Y9250D02*
X25551D01*
X25601D01*
Y8950D01*
X25651Y9000D01*
X32650Y9700D02*
X32450D01*
Y9550D01*
X32550D01*
X32450D01*
Y9400D01*
X32750Y9700D02*
Y9400D01*
X32900D01*
X32950Y9450D01*
Y9500D01*
X32900Y9550D01*
X32750D01*
X32900D01*
X32950Y9600D01*
Y9650D01*
X32900Y9700D01*
X32750D01*
X33050Y9400D02*
X33150D01*
X33100D01*
Y9700D01*
X33050Y9650D01*
X32650Y11400D02*
Y11100D01*
X32800D01*
X32850Y11150D01*
Y11350D01*
X32800Y11400D01*
X32650D01*
X33150Y11100D02*
X32950D01*
X33150Y11300D01*
Y11350D01*
X33100Y11400D01*
X33000D01*
X32950Y11350D01*
X37450Y8600D02*
X37750D01*
Y8750D01*
X37700Y8800D01*
X37500D01*
X37450Y8750D01*
Y8600D01*
X37750Y8900D02*
Y9000D01*
Y8950D01*
X37450D01*
X37500Y8900D01*
X37800Y9150D02*
Y9350D01*
X37500Y9650D02*
X37450Y9600D01*
Y9500D01*
X37500Y9450D01*
X37700D01*
X37750Y9500D01*
Y9600D01*
X37700Y9650D01*
X37450Y9750D02*
X37750D01*
X37600D01*
Y9950D01*
X37450D01*
X37750D01*
X37500Y10250D02*
X37450Y10200D01*
Y10100D01*
X37500Y10050D01*
X37700D01*
X37750Y10100D01*
Y10200D01*
X37700Y10250D01*
X37600D01*
Y10150D01*
X37750Y10350D02*
Y10450D01*
Y10400D01*
X37450D01*
X37500Y10350D01*
Y10599D02*
X37450Y10649D01*
Y10749D01*
X37500Y10799D01*
X37700D01*
X37750Y10749D01*
Y10649D01*
X37700Y10599D01*
X37500D01*
X37450Y13600D02*
X37750D01*
Y13750D01*
X37700Y13800D01*
X37500D01*
X37450Y13750D01*
Y13600D01*
X37750Y13900D02*
Y14000D01*
Y13950D01*
X37450D01*
X37500Y13900D01*
X37800Y14150D02*
Y14350D01*
X37500Y14650D02*
X37450Y14600D01*
Y14500D01*
X37500Y14450D01*
X37700D01*
X37750Y14500D01*
Y14600D01*
X37700Y14650D01*
X37450Y14750D02*
X37750D01*
X37600D01*
Y14950D01*
X37450D01*
X37750D01*
X37500Y15250D02*
X37450Y15200D01*
Y15100D01*
X37500Y15050D01*
X37700D01*
X37750Y15100D01*
Y15200D01*
X37700Y15250D01*
X37600D01*
Y15150D01*
X37700Y15350D02*
X37750Y15400D01*
Y15500D01*
X37700Y15550D01*
X37500D01*
X37450Y15500D01*
Y15400D01*
X37500Y15350D01*
X37550D01*
X37600Y15400D01*
Y15550D01*
X37450Y28600D02*
X37750D01*
Y28750D01*
X37700Y28800D01*
X37500D01*
X37450Y28750D01*
Y28600D01*
X37750Y28900D02*
Y29000D01*
Y28950D01*
X37450D01*
X37500Y28900D01*
X37800Y29150D02*
Y29350D01*
X37500Y29650D02*
X37450Y29600D01*
Y29500D01*
X37500Y29450D01*
X37700D01*
X37750Y29500D01*
Y29600D01*
X37700Y29650D01*
X37450Y29750D02*
X37750D01*
X37600D01*
Y29950D01*
X37450D01*
X37750D01*
X37500Y30250D02*
X37450Y30200D01*
Y30100D01*
X37500Y30050D01*
X37700D01*
X37750Y30100D01*
Y30200D01*
X37700Y30250D01*
X37600D01*
Y30150D01*
X37450Y30550D02*
X37500Y30450D01*
X37600Y30350D01*
X37700D01*
X37750Y30400D01*
Y30500D01*
X37700Y30550D01*
X37650D01*
X37600Y30500D01*
Y30350D01*
X31400Y26500D02*
X31100D01*
Y26350D01*
X31150Y26300D01*
X31350D01*
X31400Y26350D01*
Y26500D01*
X31100Y26200D02*
Y26100D01*
Y26150D01*
X31400D01*
X31350Y26200D01*
X31050Y25950D02*
Y25750D01*
X31350Y25450D02*
X31400Y25500D01*
Y25600D01*
X31350Y25650D01*
X31150D01*
X31100Y25600D01*
Y25500D01*
X31150Y25450D01*
X31400Y25351D02*
X31100D01*
X31250D01*
Y25151D01*
X31400D01*
X31100D01*
X31350Y24851D02*
X31400Y24901D01*
Y25001D01*
X31350Y25051D01*
X31150D01*
X31100Y25001D01*
Y24901D01*
X31150Y24851D01*
X31250D01*
Y24951D01*
X31400Y24551D02*
Y24751D01*
X31250D01*
X31300Y24651D01*
Y24601D01*
X31250Y24551D01*
X31150D01*
X31100Y24601D01*
Y24701D01*
X31150Y24751D01*
X31400Y21500D02*
X31100D01*
Y21350D01*
X31150Y21300D01*
X31350D01*
X31400Y21350D01*
Y21500D01*
X31100Y21200D02*
Y21100D01*
Y21150D01*
X31400D01*
X31350Y21200D01*
X31050Y20950D02*
Y20750D01*
X31350Y20450D02*
X31400Y20500D01*
Y20600D01*
X31350Y20650D01*
X31150D01*
X31100Y20600D01*
Y20500D01*
X31150Y20450D01*
X31400Y20351D02*
X31100D01*
X31250D01*
Y20151D01*
X31400D01*
X31100D01*
X31350Y19851D02*
X31400Y19901D01*
Y20001D01*
X31350Y20051D01*
X31150D01*
X31100Y20001D01*
Y19901D01*
X31150Y19851D01*
X31250D01*
Y19951D01*
X31100Y19601D02*
X31400D01*
X31250Y19751D01*
Y19551D01*
X31400Y16500D02*
X31100D01*
Y16350D01*
X31150Y16300D01*
X31350D01*
X31400Y16350D01*
Y16500D01*
X31100Y16200D02*
Y16100D01*
Y16150D01*
X31400D01*
X31350Y16200D01*
X31050Y15950D02*
Y15750D01*
X31350Y15450D02*
X31400Y15500D01*
Y15600D01*
X31350Y15650D01*
X31150D01*
X31100Y15600D01*
Y15500D01*
X31150Y15450D01*
X31400Y15351D02*
X31100D01*
X31250D01*
Y15151D01*
X31400D01*
X31100D01*
X31350Y14851D02*
X31400Y14901D01*
Y15001D01*
X31350Y15051D01*
X31150D01*
X31100Y15001D01*
Y14901D01*
X31150Y14851D01*
X31250D01*
Y14951D01*
X31350Y14751D02*
X31400Y14701D01*
Y14601D01*
X31350Y14551D01*
X31300D01*
X31250Y14601D01*
Y14651D01*
Y14601D01*
X31200Y14551D01*
X31150D01*
X31100Y14601D01*
Y14701D01*
X31150Y14751D01*
X31400Y11500D02*
X31100D01*
Y11350D01*
X31150Y11300D01*
X31350D01*
X31400Y11350D01*
Y11500D01*
X31100Y11200D02*
Y11100D01*
Y11150D01*
X31400D01*
X31350Y11200D01*
X31050Y10950D02*
Y10750D01*
X31350Y10450D02*
X31400Y10500D01*
Y10600D01*
X31350Y10650D01*
X31150D01*
X31100Y10600D01*
Y10500D01*
X31150Y10450D01*
X31400Y10351D02*
X31100D01*
X31250D01*
Y10151D01*
X31400D01*
X31100D01*
X31350Y9851D02*
X31400Y9901D01*
Y10001D01*
X31350Y10051D01*
X31150D01*
X31100Y10001D01*
Y9901D01*
X31150Y9851D01*
X31250D01*
Y9951D01*
X31100Y9551D02*
Y9751D01*
X31300Y9551D01*
X31350D01*
X31400Y9601D01*
Y9701D01*
X31350Y9751D01*
X31400Y6500D02*
X31100D01*
Y6350D01*
X31150Y6300D01*
X31350D01*
X31400Y6350D01*
Y6500D01*
X31100Y6200D02*
Y6100D01*
Y6150D01*
X31400D01*
X31350Y6200D01*
X31050Y5950D02*
Y5750D01*
X31350Y5450D02*
X31400Y5500D01*
Y5600D01*
X31350Y5650D01*
X31150D01*
X31100Y5600D01*
Y5500D01*
X31150Y5450D01*
X31400Y5351D02*
X31100D01*
X31250D01*
Y5151D01*
X31400D01*
X31100D01*
X31350Y4851D02*
X31400Y4901D01*
Y5001D01*
X31350Y5051D01*
X31150D01*
X31100Y5001D01*
Y4901D01*
X31150Y4851D01*
X31250D01*
Y4951D01*
X31100Y4751D02*
Y4651D01*
Y4701D01*
X31400D01*
X31350Y4751D01*
X32850Y10800D02*
X32800Y10850D01*
X32700D01*
X32650Y10800D01*
Y10600D01*
X32700Y10550D01*
X32800D01*
X32850Y10600D01*
X33150Y10850D02*
X33050Y10800D01*
X32950Y10700D01*
Y10600D01*
X33000Y10550D01*
X33100D01*
X33150Y10600D01*
Y10650D01*
X33100Y10700D01*
X32950D01*
X32850Y10250D02*
X32800Y10300D01*
X32700D01*
X32650Y10250D01*
Y10050D01*
X32700Y10000D01*
X32800D01*
X32850Y10050D01*
X33150Y10300D02*
X32950D01*
Y10150D01*
X33050Y10200D01*
X33100D01*
X33150Y10150D01*
Y10050D01*
X33100Y10000D01*
X33000D01*
X32950Y10050D01*
X32820Y13781D02*
X32770Y13831D01*
X32670D01*
X32620Y13781D01*
Y13581D01*
X32670Y13531D01*
X32770D01*
X32820Y13581D01*
X33070Y13531D02*
Y13831D01*
X32920Y13681D01*
X33120D01*
X34600Y10150D02*
X34550Y10200D01*
X34450D01*
X34400Y10150D01*
Y9950D01*
X34450Y9900D01*
X34550D01*
X34600Y9950D01*
X34700Y10150D02*
X34750Y10200D01*
X34850D01*
X34900Y10150D01*
Y10100D01*
X34850Y10050D01*
X34800D01*
X34850D01*
X34900Y10000D01*
Y9950D01*
X34850Y9900D01*
X34750D01*
X34700Y9950D01*
X38400Y5600D02*
X38350Y5650D01*
X38250D01*
X38200Y5600D01*
Y5400D01*
X38250Y5350D01*
X38350D01*
X38400Y5400D01*
X38700Y5350D02*
X38500D01*
X38700Y5550D01*
Y5600D01*
X38650Y5650D01*
X38550D01*
X38500Y5600D01*
X38800Y5300D02*
X39000D01*
X39300Y5600D02*
X39250Y5650D01*
X39150D01*
X39100Y5600D01*
Y5400D01*
X39150Y5350D01*
X39250D01*
X39300Y5400D01*
X39400Y5650D02*
Y5350D01*
Y5500D01*
X39600D01*
Y5650D01*
Y5350D01*
X39900Y5600D02*
X39850Y5650D01*
X39750D01*
X39700Y5600D01*
Y5400D01*
X39750Y5350D01*
X39850D01*
X39900Y5400D01*
Y5500D01*
X39800D01*
X40000Y5350D02*
X40100D01*
X40050D01*
Y5650D01*
X40000Y5600D01*
X40249D02*
X40299Y5650D01*
X40399D01*
X40449Y5600D01*
Y5400D01*
X40399Y5350D01*
X40299D01*
X40249Y5400D01*
Y5600D01*
X38400Y10600D02*
X38350Y10650D01*
X38250D01*
X38200Y10600D01*
Y10400D01*
X38250Y10350D01*
X38350D01*
X38400Y10400D01*
X38700Y10350D02*
X38500D01*
X38700Y10550D01*
Y10600D01*
X38650Y10650D01*
X38550D01*
X38500Y10600D01*
X38800Y10300D02*
X39000D01*
X39300Y10600D02*
X39250Y10650D01*
X39150D01*
X39100Y10600D01*
Y10400D01*
X39150Y10350D01*
X39250D01*
X39300Y10400D01*
X39400Y10650D02*
Y10350D01*
Y10500D01*
X39600D01*
Y10650D01*
Y10350D01*
X39900Y10600D02*
X39850Y10650D01*
X39750D01*
X39700Y10600D01*
Y10400D01*
X39750Y10350D01*
X39850D01*
X39900Y10400D01*
Y10500D01*
X39800D01*
X40000Y10400D02*
X40050Y10350D01*
X40150D01*
X40199Y10400D01*
Y10600D01*
X40150Y10650D01*
X40050D01*
X40000Y10600D01*
Y10550D01*
X40050Y10500D01*
X40199D01*
X38400Y25600D02*
X38350Y25650D01*
X38250D01*
X38200Y25600D01*
Y25400D01*
X38250Y25350D01*
X38350D01*
X38400Y25400D01*
X38700Y25350D02*
X38500D01*
X38700Y25550D01*
Y25600D01*
X38650Y25650D01*
X38550D01*
X38500Y25600D01*
X38800Y25300D02*
X39000D01*
X39300Y25600D02*
X39250Y25650D01*
X39150D01*
X39100Y25600D01*
Y25400D01*
X39150Y25350D01*
X39250D01*
X39300Y25400D01*
X39400Y25650D02*
Y25350D01*
Y25500D01*
X39600D01*
Y25650D01*
Y25350D01*
X39900Y25600D02*
X39850Y25650D01*
X39750D01*
X39700Y25600D01*
Y25400D01*
X39750Y25350D01*
X39850D01*
X39900Y25400D01*
Y25500D01*
X39800D01*
X40199Y25650D02*
X40100Y25600D01*
X40000Y25500D01*
Y25400D01*
X40050Y25350D01*
X40150D01*
X40199Y25400D01*
Y25450D01*
X40150Y25500D01*
X40000D01*
X30450Y29500D02*
X30500Y29450D01*
X30600D01*
X30650Y29500D01*
Y29700D01*
X30600Y29750D01*
X30500D01*
X30450Y29700D01*
X30150Y29750D02*
X30350D01*
X30150Y29550D01*
Y29500D01*
X30200Y29450D01*
X30300D01*
X30350Y29500D01*
X30050Y29800D02*
X29850D01*
X29551Y29500D02*
X29600Y29450D01*
X29700D01*
X29750Y29500D01*
Y29700D01*
X29700Y29750D01*
X29600D01*
X29551Y29700D01*
X29451Y29450D02*
Y29750D01*
Y29600D01*
X29251D01*
Y29450D01*
Y29750D01*
X28951Y29500D02*
X29001Y29450D01*
X29101D01*
X29151Y29500D01*
Y29700D01*
X29101Y29750D01*
X29001D01*
X28951Y29700D01*
Y29600D01*
X29051D01*
X28651Y29450D02*
X28851D01*
Y29600D01*
X28751Y29550D01*
X28701D01*
X28651Y29600D01*
Y29700D01*
X28701Y29750D01*
X28801D01*
X28851Y29700D01*
X30450Y24500D02*
X30500Y24450D01*
X30600D01*
X30650Y24500D01*
Y24700D01*
X30600Y24750D01*
X30500D01*
X30450Y24700D01*
X30150Y24750D02*
X30350D01*
X30150Y24550D01*
Y24500D01*
X30200Y24450D01*
X30300D01*
X30350Y24500D01*
X30050Y24800D02*
X29850D01*
X29551Y24500D02*
X29600Y24450D01*
X29700D01*
X29750Y24500D01*
Y24700D01*
X29700Y24750D01*
X29600D01*
X29551Y24700D01*
X29451Y24450D02*
Y24750D01*
Y24600D01*
X29251D01*
Y24450D01*
Y24750D01*
X28951Y24500D02*
X29001Y24450D01*
X29101D01*
X29151Y24500D01*
Y24700D01*
X29101Y24750D01*
X29001D01*
X28951Y24700D01*
Y24600D01*
X29051D01*
X28701Y24750D02*
Y24450D01*
X28851Y24600D01*
X28651D01*
X30450Y19500D02*
X30500Y19450D01*
X30600D01*
X30650Y19500D01*
Y19700D01*
X30600Y19750D01*
X30500D01*
X30450Y19700D01*
X30150Y19750D02*
X30350D01*
X30150Y19550D01*
Y19500D01*
X30200Y19450D01*
X30300D01*
X30350Y19500D01*
X30050Y19800D02*
X29850D01*
X29551Y19500D02*
X29600Y19450D01*
X29700D01*
X29750Y19500D01*
Y19700D01*
X29700Y19750D01*
X29600D01*
X29551Y19700D01*
X29451Y19450D02*
Y19750D01*
Y19600D01*
X29251D01*
Y19450D01*
Y19750D01*
X28951Y19500D02*
X29001Y19450D01*
X29101D01*
X29151Y19500D01*
Y19700D01*
X29101Y19750D01*
X29001D01*
X28951Y19700D01*
Y19600D01*
X29051D01*
X28851Y19500D02*
X28801Y19450D01*
X28701D01*
X28651Y19500D01*
Y19550D01*
X28701Y19600D01*
X28751D01*
X28701D01*
X28651Y19650D01*
Y19700D01*
X28701Y19750D01*
X28801D01*
X28851Y19700D01*
X30450Y14500D02*
X30500Y14450D01*
X30600D01*
X30650Y14500D01*
Y14700D01*
X30600Y14750D01*
X30500D01*
X30450Y14700D01*
X30150Y14750D02*
X30350D01*
X30150Y14550D01*
Y14500D01*
X30200Y14450D01*
X30300D01*
X30350Y14500D01*
X30050Y14800D02*
X29850D01*
X29551Y14500D02*
X29600Y14450D01*
X29700D01*
X29750Y14500D01*
Y14700D01*
X29700Y14750D01*
X29600D01*
X29551Y14700D01*
X29451Y14450D02*
Y14750D01*
Y14600D01*
X29251D01*
Y14450D01*
Y14750D01*
X28951Y14500D02*
X29001Y14450D01*
X29101D01*
X29151Y14500D01*
Y14700D01*
X29101Y14750D01*
X29001D01*
X28951Y14700D01*
Y14600D01*
X29051D01*
X28651Y14750D02*
X28851D01*
X28651Y14550D01*
Y14500D01*
X28701Y14450D01*
X28801D01*
X28851Y14500D01*
X30450Y9500D02*
X30500Y9450D01*
X30600D01*
X30650Y9500D01*
Y9700D01*
X30600Y9750D01*
X30500D01*
X30450Y9700D01*
X30150Y9750D02*
X30350D01*
X30150Y9550D01*
Y9500D01*
X30200Y9450D01*
X30300D01*
X30350Y9500D01*
X30050Y9800D02*
X29850D01*
X29551Y9500D02*
X29600Y9450D01*
X29700D01*
X29750Y9500D01*
Y9700D01*
X29700Y9750D01*
X29600D01*
X29551Y9700D01*
X29451Y9450D02*
Y9750D01*
Y9600D01*
X29251D01*
Y9450D01*
Y9750D01*
X28951Y9500D02*
X29001Y9450D01*
X29101D01*
X29151Y9500D01*
Y9700D01*
X29101Y9750D01*
X29001D01*
X28951Y9700D01*
Y9600D01*
X29051D01*
X28851Y9750D02*
X28751D01*
X28801D01*
Y9450D01*
X28851Y9500D01*
X38400Y9800D02*
X38350Y9850D01*
X38250D01*
X38200Y9800D01*
Y9600D01*
X38250Y9550D01*
X38350D01*
X38400Y9600D01*
X38500Y9550D02*
X38600D01*
X38550D01*
Y9850D01*
X38500Y9800D01*
X38750Y9500D02*
X38950D01*
X39250Y9800D02*
X39200Y9850D01*
X39100D01*
X39050Y9800D01*
Y9600D01*
X39100Y9550D01*
X39200D01*
X39250Y9600D01*
X39350Y9850D02*
Y9550D01*
Y9700D01*
X39550D01*
Y9850D01*
Y9550D01*
X39850Y9800D02*
X39800Y9850D01*
X39700D01*
X39650Y9800D01*
Y9600D01*
X39700Y9550D01*
X39800D01*
X39850Y9600D01*
Y9700D01*
X39750D01*
X39950Y9550D02*
X40050D01*
X40000D01*
Y9850D01*
X39950Y9800D01*
X40199D02*
X40249Y9850D01*
X40349D01*
X40399Y9800D01*
Y9600D01*
X40349Y9550D01*
X40249D01*
X40199Y9600D01*
Y9800D01*
X38400Y14800D02*
X38350Y14850D01*
X38250D01*
X38200Y14800D01*
Y14600D01*
X38250Y14550D01*
X38350D01*
X38400Y14600D01*
X38500Y14550D02*
X38600D01*
X38550D01*
Y14850D01*
X38500Y14800D01*
X38750Y14500D02*
X38950D01*
X39250Y14800D02*
X39200Y14850D01*
X39100D01*
X39050Y14800D01*
Y14600D01*
X39100Y14550D01*
X39200D01*
X39250Y14600D01*
X39350Y14850D02*
Y14550D01*
Y14700D01*
X39550D01*
Y14850D01*
Y14550D01*
X39850Y14800D02*
X39800Y14850D01*
X39700D01*
X39650Y14800D01*
Y14600D01*
X39700Y14550D01*
X39800D01*
X39850Y14600D01*
Y14700D01*
X39750D01*
X39950Y14600D02*
X40000Y14550D01*
X40100D01*
X40150Y14600D01*
Y14800D01*
X40100Y14850D01*
X40000D01*
X39950Y14800D01*
Y14750D01*
X40000Y14700D01*
X40150D01*
X38400Y29800D02*
X38350Y29850D01*
X38250D01*
X38200Y29800D01*
Y29600D01*
X38250Y29550D01*
X38350D01*
X38400Y29600D01*
X38500Y29550D02*
X38600D01*
X38550D01*
Y29850D01*
X38500Y29800D01*
X38750Y29500D02*
X38950D01*
X39250Y29800D02*
X39200Y29850D01*
X39100D01*
X39050Y29800D01*
Y29600D01*
X39100Y29550D01*
X39200D01*
X39250Y29600D01*
X39350Y29850D02*
Y29550D01*
Y29700D01*
X39550D01*
Y29850D01*
Y29550D01*
X39850Y29800D02*
X39800Y29850D01*
X39700D01*
X39650Y29800D01*
Y29600D01*
X39700Y29550D01*
X39800D01*
X39850Y29600D01*
Y29700D01*
X39750D01*
X40150Y29850D02*
X40050Y29800D01*
X39950Y29700D01*
Y29600D01*
X40000Y29550D01*
X40100D01*
X40150Y29600D01*
Y29650D01*
X40100Y29700D01*
X39950D01*
X30450Y25300D02*
X30500Y25250D01*
X30600D01*
X30650Y25300D01*
Y25500D01*
X30600Y25550D01*
X30500D01*
X30450Y25500D01*
X30350Y25550D02*
X30250D01*
X30300D01*
Y25250D01*
X30350Y25300D01*
X30100Y25600D02*
X29900D01*
X29600Y25300D02*
X29650Y25250D01*
X29750D01*
X29800Y25300D01*
Y25500D01*
X29750Y25550D01*
X29650D01*
X29600Y25500D01*
X29501Y25250D02*
Y25550D01*
Y25400D01*
X29301D01*
Y25250D01*
Y25550D01*
X29001Y25300D02*
X29051Y25250D01*
X29151D01*
X29201Y25300D01*
Y25500D01*
X29151Y25550D01*
X29051D01*
X29001Y25500D01*
Y25400D01*
X29101D01*
X28701Y25250D02*
X28901D01*
Y25400D01*
X28801Y25350D01*
X28751D01*
X28701Y25400D01*
Y25500D01*
X28751Y25550D01*
X28851D01*
X28901Y25500D01*
X30450Y20300D02*
X30500Y20250D01*
X30600D01*
X30650Y20300D01*
Y20500D01*
X30600Y20550D01*
X30500D01*
X30450Y20500D01*
X30350Y20550D02*
X30250D01*
X30300D01*
Y20250D01*
X30350Y20300D01*
X30100Y20600D02*
X29900D01*
X29600Y20300D02*
X29650Y20250D01*
X29750D01*
X29800Y20300D01*
Y20500D01*
X29750Y20550D01*
X29650D01*
X29600Y20500D01*
X29501Y20250D02*
Y20550D01*
Y20400D01*
X29301D01*
Y20250D01*
Y20550D01*
X29001Y20300D02*
X29051Y20250D01*
X29151D01*
X29201Y20300D01*
Y20500D01*
X29151Y20550D01*
X29051D01*
X29001Y20500D01*
Y20400D01*
X29101D01*
X28751Y20550D02*
Y20250D01*
X28901Y20400D01*
X28701D01*
X30450Y15300D02*
X30500Y15250D01*
X30600D01*
X30650Y15300D01*
Y15500D01*
X30600Y15550D01*
X30500D01*
X30450Y15500D01*
X30350Y15550D02*
X30250D01*
X30300D01*
Y15250D01*
X30350Y15300D01*
X30100Y15600D02*
X29900D01*
X29600Y15300D02*
X29650Y15250D01*
X29750D01*
X29800Y15300D01*
Y15500D01*
X29750Y15550D01*
X29650D01*
X29600Y15500D01*
X29501Y15250D02*
Y15550D01*
Y15400D01*
X29301D01*
Y15250D01*
Y15550D01*
X29001Y15300D02*
X29051Y15250D01*
X29151D01*
X29201Y15300D01*
Y15500D01*
X29151Y15550D01*
X29051D01*
X29001Y15500D01*
Y15400D01*
X29101D01*
X28901Y15300D02*
X28851Y15250D01*
X28751D01*
X28701Y15300D01*
Y15350D01*
X28751Y15400D01*
X28801D01*
X28751D01*
X28701Y15450D01*
Y15500D01*
X28751Y15550D01*
X28851D01*
X28901Y15500D01*
X30450Y10300D02*
X30500Y10250D01*
X30600D01*
X30650Y10300D01*
Y10500D01*
X30600Y10550D01*
X30500D01*
X30450Y10500D01*
X30350Y10550D02*
X30250D01*
X30300D01*
Y10250D01*
X30350Y10300D01*
X30100Y10600D02*
X29900D01*
X29600Y10300D02*
X29650Y10250D01*
X29750D01*
X29800Y10300D01*
Y10500D01*
X29750Y10550D01*
X29650D01*
X29600Y10500D01*
X29501Y10250D02*
Y10550D01*
Y10400D01*
X29301D01*
Y10250D01*
Y10550D01*
X29001Y10300D02*
X29051Y10250D01*
X29151D01*
X29201Y10300D01*
Y10500D01*
X29151Y10550D01*
X29051D01*
X29001Y10500D01*
Y10400D01*
X29101D01*
X28701Y10550D02*
X28901D01*
X28701Y10350D01*
Y10300D01*
X28751Y10250D01*
X28851D01*
X28901Y10300D01*
X30450Y5300D02*
X30500Y5250D01*
X30600D01*
X30650Y5300D01*
Y5500D01*
X30600Y5550D01*
X30500D01*
X30450Y5500D01*
X30350Y5550D02*
X30250D01*
X30300D01*
Y5250D01*
X30350Y5300D01*
X30100Y5600D02*
X29900D01*
X29600Y5300D02*
X29650Y5250D01*
X29750D01*
X29800Y5300D01*
Y5500D01*
X29750Y5550D01*
X29650D01*
X29600Y5500D01*
X29501Y5250D02*
Y5550D01*
Y5400D01*
X29301D01*
Y5250D01*
Y5550D01*
X29001Y5300D02*
X29051Y5250D01*
X29151D01*
X29201Y5300D01*
Y5500D01*
X29151Y5550D01*
X29051D01*
X29001Y5500D01*
Y5400D01*
X29101D01*
X28901Y5550D02*
X28801D01*
X28851D01*
Y5250D01*
X28901Y5300D01*
X38400Y24800D02*
X38350Y24850D01*
X38250D01*
X38200Y24800D01*
Y24600D01*
X38250Y24550D01*
X38350D01*
X38400Y24600D01*
X38500Y24550D02*
X38600D01*
X38550D01*
Y24850D01*
X38500Y24800D01*
X38750Y24500D02*
X38950D01*
X39250Y24800D02*
X39200Y24850D01*
X39100D01*
X39050Y24800D01*
Y24600D01*
X39100Y24550D01*
X39200D01*
X39250Y24600D01*
X39350Y24850D02*
Y24550D01*
Y24700D01*
X39550D01*
Y24850D01*
Y24550D01*
X39850Y24800D02*
X39800Y24850D01*
X39700D01*
X39650Y24800D01*
Y24600D01*
X39700Y24550D01*
X39800D01*
X39850Y24600D01*
Y24700D01*
X39750D01*
X39950Y24850D02*
X40150D01*
Y24800D01*
X39950Y24600D01*
Y24550D01*
X38400Y19800D02*
X38350Y19850D01*
X38250D01*
X38200Y19800D01*
Y19600D01*
X38250Y19550D01*
X38350D01*
X38400Y19600D01*
X38500Y19550D02*
X38600D01*
X38550D01*
Y19850D01*
X38500Y19800D01*
X38750Y19500D02*
X38950D01*
X39250Y19800D02*
X39200Y19850D01*
X39100D01*
X39050Y19800D01*
Y19600D01*
X39100Y19550D01*
X39200D01*
X39250Y19600D01*
X39350Y19850D02*
Y19550D01*
Y19700D01*
X39550D01*
Y19850D01*
Y19550D01*
X39850Y19800D02*
X39800Y19850D01*
X39700D01*
X39650Y19800D01*
Y19600D01*
X39700Y19550D01*
X39800D01*
X39850Y19600D01*
Y19700D01*
X39750D01*
X39950Y19800D02*
X40000Y19850D01*
X40100D01*
X40150Y19800D01*
Y19750D01*
X40100Y19700D01*
X40150Y19650D01*
Y19600D01*
X40100Y19550D01*
X40000D01*
X39950Y19600D01*
Y19650D01*
X40000Y19700D01*
X39950Y19750D01*
Y19800D01*
X40000Y19700D02*
X40100D01*
X38400Y20600D02*
X38350Y20650D01*
X38250D01*
X38200Y20600D01*
Y20400D01*
X38250Y20350D01*
X38350D01*
X38400Y20400D01*
X38700Y20350D02*
X38500D01*
X38700Y20550D01*
Y20600D01*
X38650Y20650D01*
X38550D01*
X38500Y20600D01*
X38800Y20300D02*
X39000D01*
X39300Y20600D02*
X39250Y20650D01*
X39150D01*
X39100Y20600D01*
Y20400D01*
X39150Y20350D01*
X39250D01*
X39300Y20400D01*
X39400Y20650D02*
Y20350D01*
Y20500D01*
X39600D01*
Y20650D01*
Y20350D01*
X39900Y20600D02*
X39850Y20650D01*
X39750D01*
X39700Y20600D01*
Y20400D01*
X39750Y20350D01*
X39850D01*
X39900Y20400D01*
Y20500D01*
X39800D01*
X40000Y20650D02*
X40199D01*
Y20600D01*
X40000Y20400D01*
Y20350D01*
X38400Y15600D02*
X38350Y15650D01*
X38250D01*
X38200Y15600D01*
Y15400D01*
X38250Y15350D01*
X38350D01*
X38400Y15400D01*
X38700Y15350D02*
X38500D01*
X38700Y15550D01*
Y15600D01*
X38650Y15650D01*
X38550D01*
X38500Y15600D01*
X38800Y15300D02*
X39000D01*
X39300Y15600D02*
X39250Y15650D01*
X39150D01*
X39100Y15600D01*
Y15400D01*
X39150Y15350D01*
X39250D01*
X39300Y15400D01*
X39400Y15650D02*
Y15350D01*
Y15500D01*
X39600D01*
Y15650D01*
Y15350D01*
X39900Y15600D02*
X39850Y15650D01*
X39750D01*
X39700Y15600D01*
Y15400D01*
X39750Y15350D01*
X39850D01*
X39900Y15400D01*
Y15500D01*
X39800D01*
X40000Y15600D02*
X40050Y15650D01*
X40150D01*
X40199Y15600D01*
Y15550D01*
X40150Y15500D01*
X40199Y15450D01*
Y15400D01*
X40150Y15350D01*
X40050D01*
X40000Y15400D01*
Y15450D01*
X40050Y15500D01*
X40000Y15550D01*
Y15600D01*
X40050Y15500D02*
X40150D01*
X37450Y23600D02*
X37750D01*
Y23750D01*
X37700Y23800D01*
X37500D01*
X37450Y23750D01*
Y23600D01*
X37750Y23900D02*
Y24000D01*
Y23950D01*
X37450D01*
X37500Y23900D01*
X37800Y24150D02*
Y24350D01*
X37500Y24650D02*
X37450Y24600D01*
Y24500D01*
X37500Y24450D01*
X37700D01*
X37750Y24500D01*
Y24600D01*
X37700Y24650D01*
X37450Y24750D02*
X37750D01*
X37600D01*
Y24950D01*
X37450D01*
X37750D01*
X37500Y25250D02*
X37450Y25200D01*
Y25100D01*
X37500Y25050D01*
X37700D01*
X37750Y25100D01*
Y25200D01*
X37700Y25250D01*
X37600D01*
Y25150D01*
X37450Y25350D02*
Y25550D01*
X37500D01*
X37700Y25350D01*
X37750D01*
X37450Y18600D02*
X37750D01*
Y18750D01*
X37700Y18800D01*
X37500D01*
X37450Y18750D01*
Y18600D01*
X37750Y18900D02*
Y19000D01*
Y18950D01*
X37450D01*
X37500Y18900D01*
X37800Y19150D02*
Y19350D01*
X37500Y19650D02*
X37450Y19600D01*
Y19500D01*
X37500Y19450D01*
X37700D01*
X37750Y19500D01*
Y19600D01*
X37700Y19650D01*
X37450Y19750D02*
X37750D01*
X37600D01*
Y19950D01*
X37450D01*
X37750D01*
X37500Y20250D02*
X37450Y20200D01*
Y20100D01*
X37500Y20050D01*
X37700D01*
X37750Y20100D01*
Y20200D01*
X37700Y20250D01*
X37600D01*
Y20150D01*
X37500Y20350D02*
X37450Y20400D01*
Y20500D01*
X37500Y20550D01*
X37550D01*
X37600Y20500D01*
X37650Y20550D01*
X37700D01*
X37750Y20500D01*
Y20400D01*
X37700Y20350D01*
X37650D01*
X37600Y20400D01*
X37550Y20350D01*
X37500D01*
X37600Y20400D02*
Y20500D01*
X41450Y20850D02*
Y21150D01*
X41600D01*
X41650Y21100D01*
Y21000D01*
X41600Y20950D01*
X41450D01*
X41750Y20850D02*
X41850D01*
X41800D01*
Y21150D01*
X41750Y21100D01*
X42000Y20800D02*
X42200D01*
X42500Y21100D02*
X42450Y21150D01*
X42350D01*
X42300Y21100D01*
Y20900D01*
X42350Y20850D01*
X42450D01*
X42500Y20900D01*
X42600Y21150D02*
Y20850D01*
Y21000D01*
X42800D01*
Y21150D01*
Y20850D01*
X43100Y21100D02*
X43050Y21150D01*
X42950D01*
X42900Y21100D01*
Y20900D01*
X42950Y20850D01*
X43050D01*
X43100Y20900D01*
Y21000D01*
X43000D01*
X43200Y21150D02*
X43400D01*
Y21100D01*
X43200Y20900D01*
Y20850D01*
X41450Y15850D02*
Y16150D01*
X41600D01*
X41650Y16100D01*
Y16000D01*
X41600Y15950D01*
X41450D01*
X41750Y15850D02*
X41850D01*
X41800D01*
Y16150D01*
X41750Y16100D01*
X42000Y15800D02*
X42200D01*
X42500Y16100D02*
X42450Y16150D01*
X42350D01*
X42300Y16100D01*
Y15900D01*
X42350Y15850D01*
X42450D01*
X42500Y15900D01*
X42600Y16150D02*
Y15850D01*
Y16000D01*
X42800D01*
Y16150D01*
Y15850D01*
X43100Y16100D02*
X43050Y16150D01*
X42950D01*
X42900Y16100D01*
Y15900D01*
X42950Y15850D01*
X43050D01*
X43100Y15900D01*
Y16000D01*
X43000D01*
X43200Y16100D02*
X43250Y16150D01*
X43350D01*
X43400Y16100D01*
Y16050D01*
X43350Y16000D01*
X43400Y15950D01*
Y15900D01*
X43350Y15850D01*
X43250D01*
X43200Y15900D01*
Y15950D01*
X43250Y16000D01*
X43200Y16050D01*
Y16100D01*
X43250Y16000D02*
X43350D01*
X40900Y24500D02*
Y24800D01*
X41050D01*
X41100Y24750D01*
Y24650D01*
X41050Y24600D01*
X40900D01*
X41000D02*
X41100Y24500D01*
X41200D02*
X41300D01*
X41250D01*
Y24800D01*
X41200Y24750D01*
X41450Y24450D02*
X41650D01*
X41950Y24750D02*
X41900Y24800D01*
X41800D01*
X41750Y24750D01*
Y24550D01*
X41800Y24500D01*
X41900D01*
X41950Y24550D01*
X42050Y24800D02*
Y24500D01*
Y24650D01*
X42250D01*
Y24800D01*
Y24500D01*
X42550Y24750D02*
X42500Y24800D01*
X42400D01*
X42350Y24750D01*
Y24550D01*
X42400Y24500D01*
X42500D01*
X42550Y24550D01*
Y24650D01*
X42450D01*
X42650Y24800D02*
X42850D01*
Y24750D01*
X42650Y24550D01*
Y24500D01*
X40900Y19500D02*
Y19800D01*
X41050D01*
X41100Y19750D01*
Y19650D01*
X41050Y19600D01*
X40900D01*
X41000D02*
X41100Y19500D01*
X41200D02*
X41300D01*
X41250D01*
Y19800D01*
X41200Y19750D01*
X41450Y19450D02*
X41650D01*
X41950Y19750D02*
X41900Y19800D01*
X41800D01*
X41750Y19750D01*
Y19550D01*
X41800Y19500D01*
X41900D01*
X41950Y19550D01*
X42050Y19800D02*
Y19500D01*
Y19650D01*
X42250D01*
Y19800D01*
Y19500D01*
X42550Y19750D02*
X42500Y19800D01*
X42400D01*
X42350Y19750D01*
Y19550D01*
X42400Y19500D01*
X42500D01*
X42550Y19550D01*
Y19650D01*
X42450D01*
X42650Y19750D02*
X42700Y19800D01*
X42800D01*
X42850Y19750D01*
Y19700D01*
X42800Y19650D01*
X42850Y19600D01*
Y19550D01*
X42800Y19500D01*
X42700D01*
X42650Y19550D01*
Y19600D01*
X42700Y19650D01*
X42650Y19700D01*
Y19750D01*
X42700Y19650D02*
X42800D01*
X38200Y23600D02*
X37900D01*
Y23750D01*
X37950Y23800D01*
X38050D01*
X38100Y23750D01*
Y23600D01*
Y23700D02*
X38200Y23800D01*
Y24100D02*
Y23900D01*
X38000Y24100D01*
X37950D01*
X37900Y24050D01*
Y23950D01*
X37950Y23900D01*
X38250Y24200D02*
Y24400D01*
X37950Y24700D02*
X37900Y24650D01*
Y24550D01*
X37950Y24500D01*
X38150D01*
X38200Y24550D01*
Y24650D01*
X38150Y24700D01*
X37900Y24800D02*
X38200D01*
X38050D01*
Y25000D01*
X37900D01*
X38200D01*
X37950Y25300D02*
X37900Y25250D01*
Y25150D01*
X37950Y25100D01*
X38150D01*
X38200Y25150D01*
Y25250D01*
X38150Y25300D01*
X38050D01*
Y25200D01*
X37900Y25400D02*
Y25600D01*
X37950D01*
X38150Y25400D01*
X38200D01*
Y18600D02*
X37900D01*
Y18750D01*
X37950Y18800D01*
X38050D01*
X38100Y18750D01*
Y18600D01*
Y18700D02*
X38200Y18800D01*
Y19100D02*
Y18900D01*
X38000Y19100D01*
X37950D01*
X37900Y19050D01*
Y18950D01*
X37950Y18900D01*
X38250Y19200D02*
Y19400D01*
X37950Y19700D02*
X37900Y19650D01*
Y19550D01*
X37950Y19500D01*
X38150D01*
X38200Y19550D01*
Y19650D01*
X38150Y19700D01*
X37900Y19800D02*
X38200D01*
X38050D01*
Y20000D01*
X37900D01*
X38200D01*
X37950Y20300D02*
X37900Y20250D01*
Y20150D01*
X37950Y20100D01*
X38150D01*
X38200Y20150D01*
Y20250D01*
X38150Y20300D01*
X38050D01*
Y20200D01*
X37950Y20400D02*
X37900Y20450D01*
Y20550D01*
X37950Y20600D01*
X38000D01*
X38050Y20550D01*
X38100Y20600D01*
X38150D01*
X38200Y20550D01*
Y20450D01*
X38150Y20400D01*
X38100D01*
X38050Y20450D01*
X38000Y20400D01*
X37950D01*
X38050Y20450D02*
Y20550D01*
X35350Y21900D02*
Y22200D01*
X35500D01*
X35550Y22150D01*
Y22050D01*
X35500Y22000D01*
X35350D01*
X35450D02*
X35550Y21900D01*
X35650Y22150D02*
X35700Y22200D01*
X35800D01*
X35850Y22150D01*
Y22100D01*
X35800Y22050D01*
X35750D01*
X35800D01*
X35850Y22000D01*
Y21950D01*
X35800Y21900D01*
X35700D01*
X35650Y21950D01*
X35950Y21850D02*
X36150D01*
X36450Y22150D02*
X36400Y22200D01*
X36300D01*
X36250Y22150D01*
Y21950D01*
X36300Y21900D01*
X36400D01*
X36450Y21950D01*
X36550Y22200D02*
Y21900D01*
Y22050D01*
X36750D01*
Y22200D01*
Y21900D01*
X37050Y22150D02*
X37000Y22200D01*
X36900D01*
X36850Y22150D01*
Y21950D01*
X36900Y21900D01*
X37000D01*
X37050Y21950D01*
Y22050D01*
X36950D01*
X37150Y22200D02*
X37350D01*
Y22150D01*
X37150Y21950D01*
Y21900D01*
X35350Y16900D02*
Y17200D01*
X35500D01*
X35550Y17150D01*
Y17050D01*
X35500Y17000D01*
X35350D01*
X35450D02*
X35550Y16900D01*
X35650Y17150D02*
X35700Y17200D01*
X35800D01*
X35850Y17150D01*
Y17100D01*
X35800Y17050D01*
X35750D01*
X35800D01*
X35850Y17000D01*
Y16950D01*
X35800Y16900D01*
X35700D01*
X35650Y16950D01*
X35950Y16850D02*
X36150D01*
X36450Y17150D02*
X36400Y17200D01*
X36300D01*
X36250Y17150D01*
Y16950D01*
X36300Y16900D01*
X36400D01*
X36450Y16950D01*
X36550Y17200D02*
Y16900D01*
Y17050D01*
X36750D01*
Y17200D01*
Y16900D01*
X37050Y17150D02*
X37000Y17200D01*
X36900D01*
X36850Y17150D01*
Y16950D01*
X36900Y16900D01*
X37000D01*
X37050Y16950D01*
Y17050D01*
X36950D01*
X37150Y17150D02*
X37200Y17200D01*
X37300D01*
X37350Y17150D01*
Y17100D01*
X37300Y17050D01*
X37350Y17000D01*
Y16950D01*
X37300Y16900D01*
X37200D01*
X37150Y16950D01*
Y17000D01*
X37200Y17050D01*
X37150Y17100D01*
Y17150D01*
X37200Y17050D02*
X37300D01*
X36400Y21750D02*
Y21500D01*
X36450Y21450D01*
X36550D01*
X36600Y21500D01*
Y21750D01*
X36700Y21450D02*
X36800D01*
X36750D01*
Y21750D01*
X36700Y21700D01*
X36950Y21400D02*
X37150D01*
X37450Y21700D02*
X37400Y21750D01*
X37300D01*
X37250Y21700D01*
Y21500D01*
X37300Y21450D01*
X37400D01*
X37450Y21500D01*
X37550Y21750D02*
Y21450D01*
Y21600D01*
X37750D01*
Y21750D01*
Y21450D01*
X38050Y21700D02*
X38000Y21750D01*
X37900D01*
X37850Y21700D01*
Y21500D01*
X37900Y21450D01*
X38000D01*
X38050Y21500D01*
Y21600D01*
X37950D01*
X38150Y21750D02*
X38350D01*
Y21700D01*
X38150Y21500D01*
Y21450D01*
X36400Y16750D02*
Y16500D01*
X36450Y16450D01*
X36550D01*
X36600Y16500D01*
Y16750D01*
X36700Y16450D02*
X36800D01*
X36750D01*
Y16750D01*
X36700Y16700D01*
X36950Y16400D02*
X37150D01*
X37450Y16700D02*
X37400Y16750D01*
X37300D01*
X37250Y16700D01*
Y16500D01*
X37300Y16450D01*
X37400D01*
X37450Y16500D01*
X37550Y16750D02*
Y16450D01*
Y16600D01*
X37750D01*
Y16750D01*
Y16450D01*
X38050Y16700D02*
X38000Y16750D01*
X37900D01*
X37850Y16700D01*
Y16500D01*
X37900Y16450D01*
X38000D01*
X38050Y16500D01*
Y16600D01*
X37950D01*
X38150Y16700D02*
X38200Y16750D01*
X38300D01*
X38350Y16700D01*
Y16650D01*
X38300Y16600D01*
X38350Y16550D01*
Y16500D01*
X38300Y16450D01*
X38200D01*
X38150Y16500D01*
Y16550D01*
X38200Y16600D01*
X38150Y16650D01*
Y16700D01*
X38200Y16600D02*
X38300D01*
D29*
X5870Y31412D02*
Y31132D01*
X6010Y30992D01*
X6150Y31132D01*
Y31412D01*
X6290Y30992D02*
X6430D01*
X6360D01*
Y31412D01*
X6290Y31342D01*
X6640D02*
X6710Y31412D01*
X6850D01*
X6920Y31342D01*
Y31062D01*
X6850Y30992D01*
X6710D01*
X6640Y31062D01*
Y31342D01*
X7760D02*
X7690Y31412D01*
X7550D01*
X7480Y31342D01*
Y31062D01*
X7550Y30992D01*
X7690D01*
X7760Y31062D01*
X7899Y31412D02*
Y30992D01*
Y31202D01*
X7969Y31272D01*
X8109D01*
X8179Y31202D01*
Y30992D01*
X8389Y31272D02*
X8529D01*
X8599Y31202D01*
Y30992D01*
X8389D01*
X8319Y31062D01*
X8389Y31132D01*
X8599D01*
X8739Y31272D02*
Y30992D01*
Y31132D01*
X8809Y31202D01*
X8879Y31272D01*
X8949D01*
X9299Y30852D02*
X9369D01*
X9439Y30922D01*
Y31272D01*
X9229D01*
X9159Y31202D01*
Y31062D01*
X9229Y30992D01*
X9439D01*
X9789D02*
X9649D01*
X9579Y31062D01*
Y31202D01*
X9649Y31272D01*
X9789D01*
X9859Y31202D01*
Y31132D01*
X9579D01*
X9999Y31272D02*
Y30992D01*
Y31132D01*
X10069Y31202D01*
X10139Y31272D01*
X10209D01*
X6080Y30530D02*
X5940D01*
X5870Y30460D01*
Y30180D01*
X5940Y30110D01*
X6080D01*
X6150Y30180D01*
Y30460D01*
X6080Y30530D01*
X6570Y30390D02*
X6360D01*
X6290Y30320D01*
Y30180D01*
X6360Y30110D01*
X6570D01*
X6780Y30460D02*
Y30390D01*
X6710D01*
X6850D01*
X6780D01*
Y30180D01*
X6850Y30110D01*
X7060D02*
Y30180D01*
X7130D01*
Y30110D01*
X7060D01*
X7899Y30600D02*
Y30460D01*
X7830Y30390D01*
X8109Y30110D02*
X8249D01*
X8179D01*
Y30530D01*
X8109Y30460D01*
X8739Y30530D02*
X8599Y30460D01*
X8459Y30320D01*
Y30180D01*
X8529Y30110D01*
X8669D01*
X8739Y30180D01*
Y30250D01*
X8669Y30320D01*
X8459D01*
X8949Y30040D02*
X9019Y30110D01*
Y30180D01*
X8949D01*
Y30110D01*
X9019D01*
X8949Y30040D01*
X8879Y29970D01*
X9719Y30530D02*
Y30110D01*
Y30250D01*
X9999Y30530D01*
X9789Y30320D01*
X9999Y30110D01*
X10139Y30390D02*
Y30180D01*
X10209Y30110D01*
X10419D01*
Y30390D01*
X10629Y30110D02*
X10769D01*
X10839Y30180D01*
Y30320D01*
X10769Y30390D01*
X10629D01*
X10559Y30320D01*
Y30180D01*
X10629Y30110D01*
X29120Y31412D02*
Y31132D01*
X29260Y30992D01*
X29400Y31132D01*
Y31412D01*
X29540Y30992D02*
X29680D01*
X29610D01*
Y31412D01*
X29540Y31342D01*
X29890D02*
X29960Y31412D01*
X30100D01*
X30170Y31342D01*
Y31062D01*
X30100Y30992D01*
X29960D01*
X29890Y31062D01*
Y31342D01*
X31010D02*
X30940Y31412D01*
X30800D01*
X30730Y31342D01*
Y31062D01*
X30800Y30992D01*
X30940D01*
X31010Y31062D01*
X31149Y31412D02*
Y30992D01*
Y31202D01*
X31219Y31272D01*
X31359D01*
X31429Y31202D01*
Y30992D01*
X31639Y31272D02*
X31779D01*
X31849Y31202D01*
Y30992D01*
X31639D01*
X31569Y31062D01*
X31639Y31132D01*
X31849D01*
X31989Y31272D02*
Y30992D01*
Y31132D01*
X32059Y31202D01*
X32129Y31272D01*
X32199D01*
X32549Y30852D02*
X32619D01*
X32689Y30922D01*
Y31272D01*
X32479D01*
X32409Y31202D01*
Y31062D01*
X32479Y30992D01*
X32689D01*
X33039D02*
X32899D01*
X32829Y31062D01*
Y31202D01*
X32899Y31272D01*
X33039D01*
X33109Y31202D01*
Y31132D01*
X32829D01*
X33249Y31272D02*
Y30992D01*
Y31132D01*
X33319Y31202D01*
X33389Y31272D01*
X33459D01*
X29330Y30530D02*
X29190D01*
X29120Y30460D01*
Y30180D01*
X29190Y30110D01*
X29330D01*
X29400Y30180D01*
Y30460D01*
X29330Y30530D01*
X29820Y30390D02*
X29610D01*
X29540Y30320D01*
Y30180D01*
X29610Y30110D01*
X29820D01*
X30030Y30460D02*
Y30390D01*
X29960D01*
X30100D01*
X30030D01*
Y30180D01*
X30100Y30110D01*
X30310D02*
Y30180D01*
X30380D01*
Y30110D01*
X30310D01*
X31149Y30600D02*
Y30460D01*
X31080Y30390D01*
X31359Y30110D02*
X31499D01*
X31429D01*
Y30530D01*
X31359Y30460D01*
X31989Y30530D02*
X31849Y30460D01*
X31709Y30320D01*
Y30180D01*
X31779Y30110D01*
X31919D01*
X31989Y30180D01*
Y30250D01*
X31919Y30320D01*
X31709D01*
X32199Y30040D02*
X32269Y30110D01*
Y30180D01*
X32199D01*
Y30110D01*
X32269D01*
X32199Y30040D01*
X32129Y29970D01*
X32969Y30530D02*
Y30110D01*
Y30250D01*
X33249Y30530D01*
X33039Y30320D01*
X33249Y30110D01*
X33389Y30390D02*
Y30180D01*
X33459Y30110D01*
X33669D01*
Y30390D01*
X33879Y30110D02*
X34019D01*
X34089Y30180D01*
Y30320D01*
X34019Y30390D01*
X33879D01*
X33809Y30320D01*
Y30180D01*
X33879Y30110D01*
D30*
X8005Y7121D02*
D03*
Y17121D02*
D03*
Y12121D02*
D03*
Y22121D02*
D03*
Y27121D02*
D03*
X14345Y27980D02*
D03*
Y7980D02*
D03*
Y12980D02*
D03*
Y17980D02*
D03*
X14345Y22980D02*
D03*
X31255Y7121D02*
D03*
Y17121D02*
D03*
Y12121D02*
D03*
Y22121D02*
D03*
Y27121D02*
D03*
X37595Y27980D02*
D03*
Y7980D02*
D03*
Y12980D02*
D03*
Y17980D02*
D03*
X37595Y22980D02*
D03*
D31*
X8000Y7194D02*
D03*
Y17194D02*
D03*
Y12194D02*
D03*
Y22194D02*
D03*
Y27194D02*
D03*
X14350Y27906D02*
D03*
Y7906D02*
D03*
Y12906D02*
D03*
Y17906D02*
D03*
X14350Y22906D02*
D03*
X31250Y7194D02*
D03*
Y17194D02*
D03*
Y12194D02*
D03*
Y22194D02*
D03*
Y27194D02*
D03*
X37600Y27906D02*
D03*
Y7906D02*
D03*
Y12906D02*
D03*
Y17906D02*
D03*
X37600Y22906D02*
D03*
D32*
X10421Y11226D02*
D03*
X33671D02*
D03*
D33*
X10494Y11231D02*
D03*
X33744D02*
D03*
M02*
