%FSLAX24Y24*%
%MOIN*%
G70*
G01*
G75*
G04 Layer_Color=8388736*
%ADD10R,0.0354X0.0197*%
%ADD11R,0.0197X0.0354*%
%ADD12O,0.0571X0.0177*%
%ADD13R,0.0512X0.0236*%
%ADD14R,0.0236X0.0165*%
%ADD15R,0.0236X0.0512*%
%ADD16R,0.0413X0.0236*%
%ADD17R,0.1102X0.0492*%
%ADD18O,0.0630X0.0118*%
%ADD19R,0.0661X0.0740*%
%ADD20R,0.0512X0.0512*%
%ADD21R,0.0669X0.0433*%
%ADD22C,0.0310*%
%ADD23R,0.0374X0.0177*%
%ADD24R,0.0276X0.0591*%
%ADD25R,0.0591X0.0276*%
%ADD26C,0.0150*%
%ADD27C,0.0120*%
%ADD28R,0.0591X0.0591*%
%ADD29C,0.0591*%
%ADD30C,0.0709*%
%ADD31C,0.0661*%
%ADD32C,0.0390*%
%ADD33C,0.0280*%
%ADD34C,0.0400*%
%ADD35C,0.0197*%
%ADD36C,0.1575*%
%ADD37C,0.0600*%
%ADD38R,0.0358X0.1433*%
%ADD39C,0.0098*%
%ADD40C,0.0236*%
%ADD41C,0.0100*%
%ADD42C,0.0050*%
%ADD43C,0.0039*%
%ADD44C,0.0079*%
%ADD45C,0.0060*%
%ADD46R,0.0414X0.0257*%
%ADD47R,0.0257X0.0414*%
%ADD48O,0.0631X0.0237*%
%ADD49R,0.0572X0.0296*%
%ADD50R,0.0296X0.0225*%
%ADD51R,0.0296X0.0572*%
%ADD52R,0.0473X0.0296*%
%ADD53R,0.1162X0.0552*%
%ADD54O,0.0690X0.0178*%
%ADD55R,0.0721X0.0800*%
%ADD56R,0.0572X0.0572*%
%ADD57R,0.0729X0.0493*%
%ADD58C,0.0370*%
%ADD59R,0.0434X0.0237*%
%ADD60R,0.0336X0.0651*%
%ADD61R,0.0651X0.0336*%
%ADD62R,0.0651X0.0651*%
%ADD63C,0.0651*%
%ADD64C,0.0060*%
%ADD65C,0.0769*%
%ADD66C,0.0721*%
%ADD67C,0.1175*%
D37*
X17000Y15000D02*
D03*
D46*
X19350Y14095D02*
D03*
Y13505D02*
D03*
X18700Y14095D02*
D03*
Y13505D02*
D03*
X37150Y20645D02*
D03*
Y20055D02*
D03*
X36600D02*
D03*
Y20645D02*
D03*
X36050Y20055D02*
D03*
Y20645D02*
D03*
X30350Y20105D02*
D03*
Y20695D02*
D03*
X29800Y20105D02*
D03*
Y20695D02*
D03*
X30900Y19595D02*
D03*
Y19005D02*
D03*
X30350Y19595D02*
D03*
Y19005D02*
D03*
X29800Y19595D02*
D03*
Y19005D02*
D03*
X26450Y21295D02*
D03*
Y20705D02*
D03*
Y19705D02*
D03*
Y20295D02*
D03*
Y19295D02*
D03*
Y18705D02*
D03*
X34400Y17505D02*
D03*
Y18095D02*
D03*
Y14605D02*
D03*
Y15195D02*
D03*
X33550Y16695D02*
D03*
Y16105D02*
D03*
X33000Y16695D02*
D03*
Y16105D02*
D03*
X37800Y15695D02*
D03*
Y15105D02*
D03*
X30800Y16705D02*
D03*
Y17295D02*
D03*
X37800Y16105D02*
D03*
Y16695D02*
D03*
X26250Y16455D02*
D03*
Y17045D02*
D03*
X19400Y15545D02*
D03*
Y14955D02*
D03*
Y16955D02*
D03*
Y17545D02*
D03*
X36900Y21355D02*
D03*
Y21945D02*
D03*
D47*
X35355Y21900D02*
D03*
X35945D02*
D03*
X35355Y21350D02*
D03*
X35945D02*
D03*
X34205D02*
D03*
X34795D02*
D03*
X31705Y21600D02*
D03*
X32295D02*
D03*
X31755Y19600D02*
D03*
X32345D02*
D03*
X28545Y21000D02*
D03*
X27955D02*
D03*
X23455Y20800D02*
D03*
X24045D02*
D03*
X23455Y19250D02*
D03*
X24045D02*
D03*
X31605Y17300D02*
D03*
X32195D02*
D03*
X31895Y15200D02*
D03*
X31305D02*
D03*
X29605Y17050D02*
D03*
X30195D02*
D03*
X22855Y15000D02*
D03*
X23445D02*
D03*
X22855Y16500D02*
D03*
X23445D02*
D03*
X39005Y22400D02*
D03*
X39595D02*
D03*
D48*
X33634Y20734D02*
D03*
Y20478D02*
D03*
Y20222D02*
D03*
Y19966D02*
D03*
X35366Y20734D02*
D03*
Y20478D02*
D03*
Y20222D02*
D03*
Y19966D02*
D03*
X27384Y20384D02*
D03*
Y20128D02*
D03*
Y19872D02*
D03*
Y19616D02*
D03*
X29116Y20384D02*
D03*
Y20128D02*
D03*
Y19872D02*
D03*
Y19616D02*
D03*
D49*
X32563Y20600D02*
D03*
X31737Y20226D02*
D03*
Y20974D02*
D03*
X24837Y20750D02*
D03*
X25663Y21124D02*
D03*
Y20376D02*
D03*
X24837Y19250D02*
D03*
X25663Y19624D02*
D03*
Y18876D02*
D03*
X21837Y19250D02*
D03*
X22663Y19624D02*
D03*
Y18876D02*
D03*
X21837Y20750D02*
D03*
X22663Y21124D02*
D03*
Y20376D02*
D03*
X20087Y20750D02*
D03*
X20913Y21124D02*
D03*
Y20376D02*
D03*
X20087Y19250D02*
D03*
X20913Y19624D02*
D03*
Y18876D02*
D03*
X32887Y17800D02*
D03*
X33713Y18174D02*
D03*
Y17426D02*
D03*
X32887Y14900D02*
D03*
X33713Y15274D02*
D03*
Y14526D02*
D03*
X23587Y15500D02*
D03*
X24413Y15874D02*
D03*
Y15126D02*
D03*
X23587Y17000D02*
D03*
X24413Y17374D02*
D03*
Y16626D02*
D03*
X22663Y17000D02*
D03*
X21837Y16626D02*
D03*
Y17374D02*
D03*
X22663Y15500D02*
D03*
X21837Y15126D02*
D03*
Y15874D02*
D03*
X20087Y17000D02*
D03*
X20913Y17374D02*
D03*
Y16626D02*
D03*
X20087Y15500D02*
D03*
X20913Y15874D02*
D03*
Y15126D02*
D03*
D50*
X24074Y20256D02*
D03*
Y20000D02*
D03*
Y19744D02*
D03*
X23326D02*
D03*
Y20000D02*
D03*
Y20256D02*
D03*
D51*
X35500Y14887D02*
D03*
X35126Y15713D02*
D03*
X35874D02*
D03*
X35500Y17813D02*
D03*
X35874Y16987D02*
D03*
X35126D02*
D03*
D52*
X31369Y16674D02*
D03*
Y16300D02*
D03*
Y15926D02*
D03*
X32431D02*
D03*
Y16674D02*
D03*
D53*
X29640Y14950D02*
D03*
Y16150D02*
D03*
D54*
X27183Y17544D02*
D03*
Y17347D02*
D03*
Y17150D02*
D03*
Y16953D02*
D03*
Y16756D02*
D03*
X28817Y17544D02*
D03*
Y17347D02*
D03*
Y17150D02*
D03*
Y16953D02*
D03*
Y16756D02*
D03*
D55*
X28000Y17150D02*
D03*
D56*
X28541Y15700D02*
D03*
X27359D02*
D03*
D57*
X26500Y14819D02*
D03*
Y15882D02*
D03*
D58*
X42050Y22800D02*
D03*
X41550D02*
D03*
X41050D02*
D03*
Y22300D02*
D03*
X41550D02*
D03*
X42050D02*
D03*
D59*
X38333Y21906D02*
D03*
Y21650D02*
D03*
Y21394D02*
D03*
X37467Y21906D02*
D03*
Y21394D02*
D03*
D60*
X42730Y21483D02*
D03*
X42337D02*
D03*
X41943D02*
D03*
X41549D02*
D03*
X41156D02*
D03*
X40762D02*
D03*
X40368D02*
D03*
X39974D02*
D03*
X39581D02*
D03*
Y14317D02*
D03*
X39974D02*
D03*
X40368D02*
D03*
X40762D02*
D03*
X41156D02*
D03*
X41549D02*
D03*
X41943D02*
D03*
X42337D02*
D03*
X42730D02*
D03*
D61*
X38959Y17278D02*
D03*
Y16885D02*
D03*
Y16491D02*
D03*
Y16097D02*
D03*
Y15704D02*
D03*
Y15310D02*
D03*
Y14916D02*
D03*
Y18491D02*
D03*
Y18884D02*
D03*
Y19278D02*
D03*
Y19672D02*
D03*
Y20065D02*
D03*
Y20459D02*
D03*
Y20853D02*
D03*
D62*
X27650Y22400D02*
D03*
D63*
X26650D02*
D03*
D64*
X16700Y17600D02*
D03*
Y18600D02*
D03*
D65*
X17700Y17600D02*
D03*
Y18600D02*
D03*
D66*
X38250Y22750D02*
D03*
X30750Y22250D02*
D03*
D67*
X17300Y13300D02*
D03*
X45200Y22450D02*
D03*
X17300D02*
D03*
X45200Y13300D02*
D03*
M02*
