%FSLAX24Y24*%
%MOIN*%
G70*
G01*
G75*
G04 Layer_Physical_Order=1*
G04 Layer_Color=255*
%ADD10R,0.0354X0.0197*%
%ADD11R,0.0197X0.0354*%
%ADD12O,0.0571X0.0177*%
%ADD13R,0.0512X0.0236*%
%ADD14R,0.0236X0.0165*%
%ADD15R,0.0236X0.0512*%
%ADD16R,0.0413X0.0236*%
%ADD17R,0.1102X0.0492*%
%ADD18O,0.0630X0.0118*%
%ADD19R,0.0661X0.0740*%
%ADD20R,0.0512X0.0512*%
%ADD21R,0.0669X0.0433*%
%ADD22C,0.0310*%
%ADD23R,0.0374X0.0177*%
%ADD24R,0.0276X0.0591*%
%ADD25R,0.0591X0.0276*%
%ADD26C,0.0150*%
%ADD27C,0.0120*%
%ADD28R,0.0591X0.0591*%
%ADD29C,0.0591*%
%ADD30C,0.0709*%
%ADD31C,0.0661*%
%ADD32C,0.0390*%
%ADD33C,0.0280*%
%ADD34C,0.0400*%
%ADD35C,0.0197*%
%ADD36C,0.1575*%
%ADD37C,0.0600*%
G36*
X28973Y20625D02*
Y20535D01*
X28919D01*
X28861Y20524D01*
X28812Y20491D01*
X28779Y20442D01*
X28768Y20384D01*
X28779Y20326D01*
X28783Y20321D01*
X28756Y20271D01*
X28728D01*
X28728Y20271D01*
X28673Y20260D01*
X28655Y20247D01*
X28627Y20229D01*
X28627Y20229D01*
X28449Y20051D01*
X28443Y20041D01*
X28393Y20057D01*
Y20763D01*
X28704D01*
Y20826D01*
X28754Y20844D01*
X28973Y20625D01*
D02*
G37*
G36*
X35196Y21663D02*
X35212D01*
Y21587D01*
X35196D01*
Y21113D01*
X35212D01*
Y20885D01*
X35169D01*
X35111Y20874D01*
X35062Y20841D01*
X35029Y20792D01*
X35018Y20734D01*
X35029Y20676D01*
X35062Y20627D01*
Y20585D01*
X35029Y20536D01*
X35018Y20478D01*
X35029Y20420D01*
X35054Y20384D01*
X35059Y20350D01*
X35054Y20316D01*
X35029Y20280D01*
X35018Y20222D01*
X35029Y20164D01*
X35033Y20159D01*
X35006Y20109D01*
X34943D01*
X34938Y20114D01*
Y21113D01*
X34954D01*
Y21587D01*
X34643D01*
Y21757D01*
X35196D01*
Y21663D01*
D02*
G37*
G36*
X30707Y21291D02*
Y20059D01*
X30663Y20015D01*
X30587D01*
Y20263D01*
X30365D01*
X30327Y20271D01*
X30327Y20271D01*
X29476D01*
X29449Y20321D01*
X29453Y20326D01*
X29464Y20384D01*
X29453Y20442D01*
X29420Y20491D01*
X29371Y20524D01*
X29313Y20535D01*
X29259D01*
Y20684D01*
X29248Y20738D01*
X29236Y20757D01*
X29217Y20785D01*
X29217Y20785D01*
X28901Y21101D01*
X28855Y21132D01*
X28800Y21143D01*
X28800Y21143D01*
X28704D01*
Y21237D01*
X28393D01*
Y21291D01*
X28509Y21407D01*
X30591D01*
X30707Y21291D01*
D02*
G37*
G36*
X34357Y21587D02*
X34046D01*
Y21493D01*
X33850D01*
X33850Y21493D01*
X33795Y21482D01*
X33749Y21451D01*
X33533Y21235D01*
X33502Y21188D01*
X33491Y21134D01*
X33491Y21134D01*
Y20885D01*
X33437D01*
X33393Y20877D01*
X33084D01*
X33084Y20877D01*
X33029Y20866D01*
X32983Y20835D01*
X32983Y20835D01*
X32966Y20818D01*
X32919Y20818D01*
Y20818D01*
X32919Y20818D01*
X32603D01*
Y20600D01*
X32523D01*
Y20818D01*
X32210D01*
X32198Y20826D01*
X32144Y20837D01*
Y20600D01*
X32064D01*
Y20864D01*
X32053Y20874D01*
Y21152D01*
X31879D01*
Y21568D01*
X31879Y21572D01*
X32047Y21740D01*
X32097Y21720D01*
Y21640D01*
X32295D01*
Y21600D01*
X32335D01*
Y21323D01*
X32494D01*
Y21363D01*
X32538Y21386D01*
X32556Y21374D01*
X32610Y21363D01*
Y21600D01*
X32650D01*
Y21640D01*
X32887D01*
X32876Y21694D01*
X32863Y21713D01*
X32887Y21757D01*
X34357D01*
Y21587D01*
D02*
G37*
G36*
X34884Y19823D02*
X35125D01*
X35169Y19815D01*
X35316D01*
X36857Y18273D01*
Y14912D01*
X36828Y14890D01*
X36787Y14920D01*
X36793Y14950D01*
X36793Y14950D01*
Y17750D01*
X36793Y17750D01*
X36782Y17805D01*
X36769Y17823D01*
X36751Y17851D01*
X36751Y17851D01*
X34811Y19791D01*
X34811Y19792D01*
X34841Y19832D01*
X34884Y19823D01*
D02*
G37*
G36*
X37757Y20009D02*
X37433Y19685D01*
X37387Y19709D01*
X37387Y19710D01*
X37190D01*
Y19513D01*
X37191Y19513D01*
X37215Y19467D01*
X37149Y19401D01*
X37118Y19355D01*
X37107Y19300D01*
X37107Y19300D01*
Y18498D01*
X37057Y18477D01*
X35672Y19862D01*
X35703Y19908D01*
X35714Y19966D01*
X35703Y20024D01*
X35699Y20029D01*
X35726Y20079D01*
X35813D01*
Y19896D01*
X36287D01*
Y19912D01*
X36363D01*
Y19896D01*
X36823D01*
X36837Y19896D01*
X36873Y19862D01*
Y19856D01*
X36877D01*
X36916Y19806D01*
X36913Y19790D01*
X37387D01*
X37383Y19806D01*
X37423Y19856D01*
X37427D01*
Y20015D01*
X37150D01*
Y20055D01*
X37110D01*
Y20253D01*
X36873D01*
Y20248D01*
X36873Y20248D01*
X36837Y20213D01*
X36823Y20213D01*
X36363D01*
Y20197D01*
X36287D01*
Y20213D01*
X36093D01*
X35987Y20319D01*
X35981Y20335D01*
Y20365D01*
X35987Y20381D01*
X36093Y20487D01*
X36287D01*
Y20674D01*
X36315Y20697D01*
X36363Y20676D01*
Y20487D01*
X36837D01*
Y20503D01*
X36913D01*
Y20487D01*
X37387D01*
Y20804D01*
X36913D01*
Y20788D01*
X36837D01*
Y20804D01*
X36532D01*
X36505Y20854D01*
X36508Y20857D01*
X37757D01*
Y20009D01*
D02*
G37*
G36*
X39453Y22696D02*
Y22637D01*
X39437D01*
Y22163D01*
X39438D01*
Y21838D01*
X39383D01*
Y21177D01*
Y21177D01*
X39383Y21171D01*
Y21167D01*
X39382Y21155D01*
X39380Y21145D01*
X39375Y21126D01*
X39375Y21125D01*
X39369Y21113D01*
X39356Y21105D01*
X39345Y21100D01*
X39328Y21093D01*
X39315Y21091D01*
X39315D01*
X39309Y21091D01*
X39307D01*
X38999D01*
Y20893D01*
X39354D01*
Y21041D01*
X39354Y21047D01*
Y21051D01*
X39355Y21063D01*
X39357Y21073D01*
X39362Y21092D01*
X39362Y21093D01*
X39369Y21105D01*
X39382Y21113D01*
X39392Y21118D01*
X39394Y21119D01*
X39440Y21085D01*
X39441Y21082D01*
X39441Y14708D01*
X39406Y14673D01*
X39383D01*
Y13962D01*
X39832D01*
Y13684D01*
X39541Y13393D01*
X37446D01*
X37419Y13443D01*
X37438Y13472D01*
X37454Y13550D01*
X37438Y13628D01*
X37394Y13694D01*
X37393Y13695D01*
Y19241D01*
X38001Y19849D01*
X38001Y19849D01*
X38032Y19895D01*
X38043Y19950D01*
X38043Y19950D01*
Y21100D01*
Y21185D01*
X38093Y21212D01*
X38107Y21202D01*
Y16931D01*
X38077Y16894D01*
X38057Y16894D01*
X37840D01*
Y16695D01*
Y16497D01*
X38077D01*
Y16617D01*
X38127Y16632D01*
X38149Y16599D01*
X38358Y16390D01*
X38358Y16390D01*
X38404Y16359D01*
X38459Y16348D01*
X38459Y16348D01*
X38604D01*
Y16293D01*
Y16240D01*
X38398D01*
X38397Y16241D01*
X38331Y16286D01*
X38253Y16301D01*
X38175Y16286D01*
X38118Y16247D01*
X38037D01*
Y16263D01*
X37563D01*
Y15946D01*
X38037D01*
Y15962D01*
X38103D01*
X38109Y15953D01*
X38144Y15930D01*
Y15869D01*
X38106Y15844D01*
X38102Y15838D01*
X38037D01*
Y15854D01*
X37563D01*
Y15537D01*
X38037D01*
Y15553D01*
X38111D01*
X38172Y15512D01*
X38250Y15496D01*
X38328Y15512D01*
X38394Y15556D01*
X38398Y15561D01*
X38604D01*
Y15506D01*
Y15112D01*
Y14718D01*
X39314D01*
Y15112D01*
Y15506D01*
Y15899D01*
Y16293D01*
Y16687D01*
Y17081D01*
Y17476D01*
X38604D01*
Y17081D01*
Y16687D01*
Y16634D01*
X38518D01*
X38393Y16759D01*
Y21246D01*
X38580D01*
Y21461D01*
X38620D01*
Y21610D01*
X38333D01*
Y21690D01*
X38620D01*
Y21839D01*
X38580D01*
Y22054D01*
X38476D01*
Y22431D01*
X38529Y22471D01*
X38591Y22553D01*
X38631Y22648D01*
X38644Y22750D01*
X38631Y22852D01*
X38591Y22947D01*
X38529Y23029D01*
X38491Y23057D01*
X38508Y23107D01*
X39041D01*
X39453Y22696D01*
D02*
G37*
G36*
X34399Y19799D02*
X36507Y17691D01*
Y15440D01*
X36457Y15425D01*
X36444Y15444D01*
X36378Y15488D01*
X36300Y15504D01*
X36222Y15488D01*
X36156Y15444D01*
X36150Y15436D01*
X36052D01*
Y16018D01*
X36088Y16072D01*
X36104Y16150D01*
X36088Y16228D01*
X36044Y16294D01*
X36034Y16301D01*
Y16351D01*
X36073Y16377D01*
X36126Y16456D01*
X36137Y16510D01*
X35663D01*
X35674Y16456D01*
X35727Y16377D01*
X35766Y16351D01*
Y16301D01*
X35756Y16294D01*
X35712Y16228D01*
X35696Y16150D01*
X35710Y16079D01*
X35696Y16029D01*
X35696D01*
X35696Y16029D01*
Y15436D01*
X35344D01*
Y15673D01*
X34908D01*
Y15436D01*
X34400D01*
X34352Y15426D01*
X34321Y15432D01*
X34161D01*
X34134Y15482D01*
X34146Y15500D01*
X34158Y15561D01*
Y16600D01*
X34146Y16660D01*
X34112Y16712D01*
X34012Y16812D01*
X33960Y16846D01*
X33900Y16858D01*
X33876Y16853D01*
X33787D01*
Y16854D01*
X33615D01*
X33458Y17011D01*
Y17248D01*
X34029D01*
Y17283D01*
X34400D01*
X34455Y17294D01*
X34501Y17325D01*
X34515Y17346D01*
X34637D01*
Y17362D01*
X35191D01*
X35191Y17362D01*
X35246Y17373D01*
X35292Y17404D01*
X35386Y17497D01*
X35678D01*
Y18129D01*
X35322D01*
Y17837D01*
X35132Y17647D01*
X34637D01*
Y17663D01*
X34163D01*
Y17569D01*
X34029D01*
Y17604D01*
X33458D01*
Y17695D01*
X33759Y17996D01*
X34029D01*
Y18016D01*
X34163D01*
Y17937D01*
X34637D01*
X34637Y17937D01*
Y17937D01*
X34687Y17935D01*
X34722Y17912D01*
X34800Y17896D01*
X34878Y17912D01*
X34944Y17956D01*
X34988Y18022D01*
X35004Y18100D01*
X34988Y18178D01*
X34944Y18244D01*
X34878Y18288D01*
X34800Y18304D01*
X34722Y18288D01*
X34677Y18258D01*
X34461D01*
X34433Y18286D01*
X34382Y18320D01*
X34321Y18332D01*
X34029D01*
Y18352D01*
X33397D01*
Y18082D01*
X33249Y17933D01*
X33203Y17952D01*
Y17978D01*
X32910D01*
X32388Y18501D01*
X32341Y18532D01*
X32287Y18543D01*
X32287Y18543D01*
X30587D01*
X30563Y18587D01*
X30576Y18606D01*
X30587Y18660D01*
X30350D01*
Y18740D01*
X30587D01*
X30584Y18756D01*
X30623Y18806D01*
X30627D01*
Y18812D01*
X30663Y18846D01*
X31120D01*
X31172Y18812D01*
X31250Y18796D01*
X31328Y18812D01*
X31394Y18856D01*
X31398Y18862D01*
X33705D01*
X33705Y18862D01*
X33759Y18873D01*
X33806Y18904D01*
X34306Y19404D01*
X34306Y19404D01*
X34337Y19450D01*
X34347Y19505D01*
X34347Y19505D01*
Y19786D01*
X34397Y19801D01*
X34399Y19799D01*
D02*
G37*
G36*
X31748Y17650D02*
X31757Y17641D01*
Y17577D01*
X31645D01*
Y17300D01*
Y17023D01*
X31757D01*
Y16435D01*
X31722Y16400D01*
X31635D01*
Y16456D01*
X31675D01*
Y16634D01*
X31369D01*
Y16674D01*
X31328D01*
Y16892D01*
X31077D01*
Y16903D01*
X30840D01*
Y16705D01*
Y16506D01*
X31016D01*
X31025Y16494D01*
X31022Y16458D01*
X31007Y16434D01*
X30995Y16432D01*
X30949Y16401D01*
X30948Y16400D01*
X30400D01*
Y15700D01*
X29000D01*
Y15250D01*
X28100D01*
Y16350D01*
X28400D01*
Y16621D01*
X28431Y16635D01*
X28450Y16639D01*
X28499Y16606D01*
X28561Y16594D01*
X28777D01*
Y16756D01*
X28817D01*
Y16796D01*
X29252D01*
X29264Y16810D01*
X29498D01*
X29498Y16810D01*
X29511Y16813D01*
X29763D01*
Y16815D01*
X29799Y16850D01*
X30037D01*
Y16813D01*
X30354D01*
Y16815D01*
X30389Y16850D01*
X30450D01*
X30450Y17015D01*
X30485Y17050D01*
X31100Y17050D01*
X31100Y17650D01*
X31748Y17650D01*
D02*
G37*
G36*
X31107Y21992D02*
Y19754D01*
X30876D01*
X30856Y19804D01*
X30951Y19899D01*
X30951Y19899D01*
X30982Y19945D01*
X30993Y20000D01*
X30993Y20000D01*
Y21350D01*
X30993Y21350D01*
X30993Y21350D01*
Y21944D01*
X31029Y21971D01*
X31057Y22009D01*
X31107Y21992D01*
D02*
G37*
G36*
X33250Y20057D02*
X33258Y20033D01*
X33253Y20006D01*
X33634D01*
Y19926D01*
X33253D01*
X33259Y19893D01*
X33301Y19830D01*
X33363Y19789D01*
X33390Y19783D01*
X33398Y19774D01*
X33420Y19726D01*
X33413Y19690D01*
X33887D01*
X33878Y19732D01*
X33896Y19787D01*
X33904Y19789D01*
X33967Y19830D01*
X34008Y19893D01*
X34012Y19911D01*
X34062Y19906D01*
Y19564D01*
X33646Y19147D01*
X31393D01*
Y20009D01*
X31421Y20048D01*
X31594D01*
Y19618D01*
X31594Y19618D01*
X31596Y19606D01*
Y19363D01*
X31913D01*
Y19837D01*
X31879D01*
Y20048D01*
X32053D01*
Y20083D01*
X33236D01*
X33250Y20057D01*
D02*
G37*
G36*
X28774Y19901D02*
X28768Y19872D01*
X28779Y19814D01*
X28812Y19765D01*
Y19723D01*
X28779Y19674D01*
X28768Y19616D01*
X28779Y19558D01*
X28812Y19509D01*
X28861Y19476D01*
X28919Y19465D01*
X29313D01*
X29357Y19473D01*
X29563D01*
Y19437D01*
X30037D01*
Y19453D01*
X30113D01*
Y19437D01*
X30587D01*
Y19453D01*
X30663D01*
Y19437D01*
X31107D01*
Y19199D01*
X31072Y19163D01*
X30663D01*
X30627Y19198D01*
Y19203D01*
X30390D01*
Y19005D01*
X30310D01*
Y19203D01*
X30073D01*
Y19198D01*
X30037Y19163D01*
X29563D01*
Y19147D01*
X28804D01*
X28693Y19259D01*
Y19891D01*
X28727Y19926D01*
X28774Y19901D01*
D02*
G37*
G36*
X36307Y22141D02*
Y21883D01*
X36307Y21883D01*
X36318Y21829D01*
X36349Y21783D01*
X36663Y21469D01*
Y21196D01*
X37137D01*
Y21251D01*
X37220D01*
Y21246D01*
X37714D01*
Y21246D01*
X37757Y21229D01*
Y21159D01*
X37741Y21143D01*
X36505D01*
X36484Y21193D01*
X36526Y21256D01*
X36537Y21310D01*
X36300D01*
Y21350D01*
X36260D01*
Y21587D01*
X36206Y21576D01*
X36188Y21564D01*
X36144Y21587D01*
Y21623D01*
Y21860D01*
X35747D01*
Y21623D01*
Y21390D01*
X35945D01*
Y21350D01*
X35985D01*
Y21073D01*
X36144D01*
Y21113D01*
X36188Y21136D01*
X36206Y21124D01*
X36248Y21116D01*
X36264Y21061D01*
X36007Y20804D01*
X35813D01*
Y20621D01*
X35726D01*
X35699Y20671D01*
X35703Y20676D01*
X35714Y20734D01*
X35703Y20792D01*
X35670Y20841D01*
X35621Y20874D01*
X35563Y20885D01*
X35497D01*
Y21113D01*
X35513D01*
Y21587D01*
X35497D01*
Y21663D01*
X35513D01*
Y22137D01*
X35555Y22157D01*
X35747D01*
Y21940D01*
X36144D01*
Y22157D01*
X36291D01*
X36307Y22141D01*
D02*
G37*
G36*
X35305Y22357D02*
X35254Y22306D01*
X35223Y22259D01*
X35212Y22205D01*
X35212Y22205D01*
Y22137D01*
X35196D01*
Y22043D01*
X32005D01*
X32005Y22043D01*
X31950Y22032D01*
X31904Y22001D01*
X31904Y22001D01*
X31740Y21837D01*
X31546D01*
Y21363D01*
X31594D01*
Y21187D01*
X31559Y21152D01*
X31421D01*
X31393Y21191D01*
Y22041D01*
X31759Y22407D01*
X35285D01*
X35305Y22357D01*
D02*
G37*
G36*
X42459Y22792D02*
X42450Y22790D01*
X42366Y22734D01*
X42310Y22650D01*
X42290Y22550D01*
X42310Y22450D01*
X42366Y22366D01*
X42450Y22310D01*
X42550Y22290D01*
X42649Y22310D01*
X42734Y22366D01*
X42742Y22378D01*
X42792Y22363D01*
Y21838D01*
X42101D01*
Y22091D01*
X42134Y22097D01*
X42205Y22145D01*
X42253Y22216D01*
X42269Y22300D01*
X42253Y22384D01*
X42205Y22455D01*
X42134Y22503D01*
X42050Y22519D01*
Y22581D01*
X42134Y22597D01*
X42205Y22645D01*
X42253Y22716D01*
X42268Y22795D01*
X42315Y22842D01*
X42454D01*
X42459Y22792D01*
D02*
G37*
G36*
X39815Y23348D02*
X39777Y23323D01*
X39724Y23244D01*
X39713Y23190D01*
X39950D01*
Y23150D01*
X39990D01*
Y22913D01*
X40044Y22924D01*
X40123Y22977D01*
X40176Y23056D01*
X40195Y23150D01*
X40201Y23157D01*
X40322D01*
X40348Y23107D01*
X40310Y23049D01*
X40290Y22950D01*
X40310Y22850D01*
X40366Y22766D01*
X40451Y22710D01*
X40550Y22690D01*
X40649Y22710D01*
X40734Y22766D01*
X40743Y22780D01*
X40796Y22769D01*
X40810Y22701D01*
X40866Y22616D01*
X40950Y22560D01*
X40974Y22555D01*
Y22504D01*
X40966Y22503D01*
X40895Y22455D01*
X40847Y22384D01*
X40831Y22300D01*
X40838Y22265D01*
Y22265D01*
X40839Y22260D01*
X40839Y22260D01*
X40837Y22260D01*
X40836Y22259D01*
X40792Y22250D01*
X40790Y22250D01*
X40790Y22250D01*
X40787Y22254D01*
Y22254D01*
X40734Y22334D01*
X40649Y22390D01*
X40550Y22410D01*
X40451Y22390D01*
X40366Y22334D01*
X40310Y22250D01*
X40290Y22150D01*
X40310Y22050D01*
X40366Y21966D01*
X40451Y21910D01*
X40550Y21890D01*
X40649Y21910D01*
X40734Y21966D01*
X40790Y22050D01*
X40810Y22150D01*
X40800Y22201D01*
Y22201D01*
X40799Y22206D01*
X40799Y22206D01*
X40801Y22206D01*
X40802Y22206D01*
X40846Y22216D01*
X40847Y22216D01*
X40848Y22216D01*
X40850Y22212D01*
Y22212D01*
X40895Y22145D01*
X40966Y22097D01*
X40997Y22091D01*
Y21838D01*
X39723D01*
Y22163D01*
X39754D01*
Y22637D01*
X39738D01*
Y22755D01*
X39738Y22755D01*
X39727Y22809D01*
X39696Y22856D01*
X39204Y23348D01*
X39204Y23359D01*
X39220Y23398D01*
X39800D01*
X39815Y23348D01*
D02*
G37*
G36*
X37107Y14685D02*
Y13695D01*
X37106Y13694D01*
X37062Y13628D01*
X37046Y13550D01*
X37062Y13472D01*
X37081Y13443D01*
X37054Y13393D01*
X35807D01*
X35791Y13443D01*
X35801Y13449D01*
X37057Y14705D01*
X37107Y14685D01*
D02*
G37*
G36*
X20646Y23359D02*
X20646Y23348D01*
X19002Y21704D01*
X19000Y21704D01*
X18922Y21688D01*
X18856Y21644D01*
X18812Y21578D01*
X18796Y21500D01*
X18812Y21422D01*
X18856Y21356D01*
X18922Y21312D01*
X19000Y21296D01*
X19078Y21312D01*
X19144Y21356D01*
X19188Y21422D01*
X19204Y21500D01*
X19204Y21502D01*
X20809Y23107D01*
X37992D01*
X38009Y23057D01*
X37971Y23029D01*
X37909Y22947D01*
X37869Y22852D01*
X37856Y22750D01*
X37869Y22648D01*
X37909Y22553D01*
X37971Y22471D01*
X38053Y22409D01*
X38148Y22369D01*
X38190Y22364D01*
Y22054D01*
X38086D01*
Y22049D01*
X38006D01*
X38006Y22049D01*
X37951Y22038D01*
X37905Y22007D01*
X37905Y22007D01*
X37799Y21901D01*
X37768Y21855D01*
X37764Y21834D01*
X37714Y21839D01*
Y22054D01*
X37610D01*
Y22283D01*
X37610Y22283D01*
X37599Y22338D01*
X37568Y22384D01*
X37568Y22384D01*
X37301Y22651D01*
X37255Y22682D01*
X37200Y22693D01*
X37200Y22693D01*
X31700D01*
X31700Y22693D01*
X31645Y22682D01*
X31599Y22651D01*
X31599Y22651D01*
X31193Y22245D01*
X31179Y22246D01*
X31142Y22265D01*
X31131Y22352D01*
X31091Y22447D01*
X31029Y22529D01*
X30947Y22591D01*
X30852Y22631D01*
X30750Y22644D01*
X30648Y22631D01*
X30553Y22591D01*
X30471Y22529D01*
X30409Y22447D01*
X30369Y22352D01*
X30356Y22250D01*
X30369Y22148D01*
X30409Y22053D01*
X30471Y21971D01*
X30553Y21909D01*
X30648Y21869D01*
X30707Y21862D01*
Y21732D01*
X30657Y21691D01*
X30650Y21693D01*
X30650Y21693D01*
X28450D01*
X28450Y21693D01*
X28395Y21682D01*
X28349Y21651D01*
X28349Y21651D01*
X28149Y21451D01*
X28118Y21405D01*
X28107Y21350D01*
X28107Y21350D01*
Y21237D01*
X27796D01*
Y21147D01*
X27750Y21143D01*
X27695Y21132D01*
X27649Y21101D01*
X27283Y20735D01*
X27252Y20688D01*
X27241Y20634D01*
X27241Y20634D01*
Y20535D01*
X27187D01*
X27129Y20524D01*
X27080Y20491D01*
X27047Y20442D01*
X27036Y20384D01*
X27047Y20326D01*
X27051Y20321D01*
X27024Y20271D01*
X26687D01*
Y20454D01*
X26593D01*
Y20546D01*
X26687D01*
Y20863D01*
X26213D01*
Y20546D01*
X26307D01*
Y20454D01*
X26213D01*
Y20137D01*
X26407D01*
X26513Y20031D01*
X26516Y20022D01*
Y19978D01*
X26513Y19969D01*
X26407Y19863D01*
X26213D01*
Y19546D01*
X26307D01*
Y19454D01*
X26213D01*
Y19137D01*
X26687D01*
Y19454D01*
X26593D01*
Y19546D01*
X26687D01*
Y19729D01*
X26980D01*
X27007Y19679D01*
X27003Y19656D01*
X27765D01*
X27758Y19690D01*
X27717Y19752D01*
X27691Y19769D01*
X27721Y19814D01*
X27732Y19872D01*
X27721Y19930D01*
X27696Y19966D01*
X27691Y20000D01*
X27696Y20034D01*
X27721Y20070D01*
X27732Y20128D01*
X27721Y20186D01*
X27688Y20235D01*
Y20277D01*
X27721Y20326D01*
X27732Y20384D01*
X27721Y20442D01*
X27688Y20491D01*
X27639Y20524D01*
X27581Y20535D01*
X27552D01*
X27537Y20585D01*
X27750Y20798D01*
X27796Y20779D01*
Y20763D01*
X28107D01*
Y18645D01*
X28106Y18644D01*
X28062Y18578D01*
X28046Y18500D01*
X28062Y18422D01*
X28106Y18356D01*
X28172Y18312D01*
X28250Y18296D01*
X28328Y18312D01*
X28394Y18356D01*
X28438Y18422D01*
X28454Y18500D01*
X28438Y18578D01*
X28394Y18644D01*
X28393Y18645D01*
Y19093D01*
X28443Y19109D01*
X28449Y19099D01*
X28644Y18904D01*
X28691Y18873D01*
X28745Y18862D01*
X28745Y18862D01*
X29563D01*
Y18846D01*
X29657D01*
Y18550D01*
X29657Y18550D01*
X29668Y18495D01*
X29699Y18449D01*
X29849Y18299D01*
X29895Y18268D01*
X29950Y18257D01*
X29950Y18257D01*
X32227D01*
X32571Y17914D01*
Y17622D01*
X33142D01*
Y16945D01*
X33150Y16904D01*
X33119Y16854D01*
X32763D01*
Y16817D01*
X32698D01*
Y16852D01*
X32455D01*
X32338Y16969D01*
Y17063D01*
X32354D01*
Y17537D01*
X32043D01*
Y17700D01*
X32043Y17700D01*
X32032Y17755D01*
X32001Y17801D01*
X32001Y17801D01*
X31801Y18001D01*
X31755Y18032D01*
X31700Y18043D01*
X31700Y18043D01*
X29173D01*
X29173Y18043D01*
X29119Y18032D01*
X29072Y18001D01*
X29072Y18001D01*
X28736Y17665D01*
X28561D01*
X28515Y17656D01*
X28476Y17630D01*
X28431Y17620D01*
X28431Y17620D01*
X28431Y17620D01*
X28040D01*
Y17150D01*
Y16680D01*
X28304D01*
X28339Y16644D01*
X28340Y16632D01*
X28335Y16621D01*
Y16415D01*
X28100D01*
X28054Y16396D01*
X28035Y16350D01*
Y15250D01*
X28054Y15204D01*
X28100Y15185D01*
X28989D01*
Y14990D01*
X29600D01*
Y15296D01*
X29065D01*
Y15635D01*
X30400D01*
X30446Y15654D01*
X30465Y15700D01*
Y16335D01*
X30675D01*
X30702Y16285D01*
X30674Y16244D01*
X30663Y16190D01*
X30900D01*
Y16150D01*
X30940D01*
Y15913D01*
X30994Y15924D01*
X31052Y15963D01*
X31102Y15937D01*
Y15748D01*
X31212D01*
Y15437D01*
X31146D01*
Y14963D01*
X31463D01*
Y15110D01*
X31487Y15145D01*
X31497Y15200D01*
Y15748D01*
X31635D01*
Y16082D01*
X31675D01*
Y16322D01*
X31715Y16331D01*
X31757Y16299D01*
Y15437D01*
X31737D01*
Y14963D01*
X32054D01*
Y15437D01*
X32043D01*
Y16797D01*
X32093Y16812D01*
X32094Y16809D01*
X32165Y16739D01*
Y16496D01*
X32698D01*
Y16531D01*
X32979D01*
X32979Y16531D01*
X33007Y16537D01*
X33237D01*
Y16553D01*
X33313D01*
Y16537D01*
X33787D01*
Y16537D01*
X33839D01*
X33842Y16535D01*
Y16347D01*
X33827Y16303D01*
X33792Y16303D01*
X33590D01*
Y16105D01*
X33510D01*
Y16303D01*
X33040D01*
Y16105D01*
Y15906D01*
X33313D01*
X33336Y15862D01*
X33324Y15844D01*
X33313Y15790D01*
X33550D01*
Y15750D01*
X33590D01*
Y15513D01*
X33644Y15524D01*
X33723Y15577D01*
X33776Y15656D01*
X33792Y15736D01*
X33842Y15731D01*
Y15626D01*
X33668Y15452D01*
X33397D01*
Y15096D01*
X34029D01*
Y15116D01*
X34163D01*
Y15037D01*
X34637D01*
Y15119D01*
X35322D01*
Y14960D01*
X35109Y14747D01*
X34637D01*
Y14763D01*
X34163D01*
Y14669D01*
X34029D01*
Y14704D01*
X33397D01*
Y14348D01*
X34029D01*
Y14383D01*
X34321D01*
X34321Y14383D01*
X34376Y14394D01*
X34422Y14425D01*
X34443Y14446D01*
X34637D01*
Y14462D01*
X35168D01*
X35168Y14462D01*
X35223Y14473D01*
X35269Y14504D01*
X35336Y14571D01*
X35678D01*
Y15119D01*
X36210D01*
X36222Y15112D01*
X36300Y15096D01*
X36378Y15112D01*
X36444Y15156D01*
X36457Y15175D01*
X36507Y15160D01*
Y15009D01*
X35741Y14243D01*
X33159D01*
X33029Y14373D01*
Y14722D01*
X33203D01*
Y15078D01*
X32571D01*
Y14722D01*
X32744D01*
Y14313D01*
X32744Y14313D01*
X32755Y14259D01*
X32786Y14212D01*
X32999Y13999D01*
X32999Y13999D01*
X33027Y13981D01*
X33045Y13968D01*
X33100Y13957D01*
X35800D01*
X35800Y13957D01*
X35843Y13966D01*
X35872Y13926D01*
X35873Y13925D01*
X35641Y13693D01*
X19300D01*
X19245Y13682D01*
X19217Y13663D01*
X19113D01*
Y13647D01*
X18937D01*
Y13663D01*
X18463D01*
Y13346D01*
X18937D01*
Y13362D01*
X19113D01*
Y13346D01*
X19587D01*
Y13407D01*
X28054D01*
X28081Y13357D01*
X28062Y13328D01*
X28046Y13250D01*
X28062Y13172D01*
X28106Y13106D01*
X28172Y13062D01*
X28250Y13046D01*
X28328Y13062D01*
X28394Y13106D01*
X28395Y13107D01*
X31054D01*
X31081Y13057D01*
X31062Y13028D01*
X31046Y12950D01*
X31062Y12872D01*
X31106Y12806D01*
X31172Y12762D01*
X31250Y12746D01*
X31328Y12762D01*
X31394Y12806D01*
X31429Y12857D01*
X37110D01*
X37125Y12807D01*
X37106Y12794D01*
X37062Y12728D01*
X37046Y12650D01*
X37062Y12572D01*
X37106Y12506D01*
X37172Y12462D01*
X37250Y12446D01*
X37328Y12462D01*
X37394Y12506D01*
X37395Y12507D01*
X40050D01*
X40050Y12507D01*
X40105Y12518D01*
X40151Y12549D01*
X40863Y13261D01*
X40863Y13261D01*
X40894Y13307D01*
X40905Y13362D01*
X40905Y13362D01*
Y13962D01*
X41785D01*
Y13731D01*
X41755Y13685D01*
X41739Y13607D01*
X41755Y13529D01*
X41799Y13463D01*
X41865Y13419D01*
X41943Y13403D01*
X42021Y13419D01*
X42087Y13463D01*
X42131Y13529D01*
X42147Y13607D01*
X42131Y13685D01*
X42101Y13731D01*
Y13962D01*
X42493D01*
Y13922D01*
X42690D01*
Y14317D01*
X42770D01*
Y13922D01*
X42968D01*
X43000Y13885D01*
Y12352D01*
X16352D01*
Y17433D01*
X16402Y17443D01*
X16407Y17431D01*
X16461Y17361D01*
X16531Y17307D01*
X16612Y17273D01*
X16700Y17262D01*
X16788Y17273D01*
X16869Y17307D01*
X16939Y17361D01*
X16993Y17431D01*
X17027Y17512D01*
X17038Y17600D01*
X17027Y17688D01*
X16993Y17769D01*
X16939Y17839D01*
X16869Y17893D01*
X16788Y17927D01*
X16700Y17938D01*
X16612Y17927D01*
X16531Y17893D01*
X16461Y17839D01*
X16407Y17769D01*
X16402Y17757D01*
X16352Y17767D01*
Y18433D01*
X16402Y18443D01*
X16407Y18431D01*
X16461Y18361D01*
X16531Y18307D01*
X16612Y18273D01*
X16700Y18262D01*
X16788Y18273D01*
X16869Y18307D01*
X16939Y18361D01*
X16993Y18431D01*
X17027Y18512D01*
X17038Y18600D01*
X17027Y18688D01*
X16993Y18769D01*
X16939Y18839D01*
X16869Y18893D01*
X16788Y18927D01*
X16700Y18938D01*
X16612Y18927D01*
X16531Y18893D01*
X16461Y18839D01*
X16407Y18769D01*
X16402Y18757D01*
X16352Y18767D01*
Y23398D01*
X20630D01*
X20646Y23359D01*
D02*
G37*
%LPC*%
G36*
X32392Y16144D02*
X32125D01*
Y15966D01*
X32392D01*
Y16144D01*
D02*
G37*
G36*
X19627Y14055D02*
X19390D01*
Y13897D01*
X19627D01*
Y14055D01*
D02*
G37*
G36*
X28896Y16056D02*
X28581D01*
Y15740D01*
X28896D01*
Y16056D01*
D02*
G37*
G36*
X35304Y17303D02*
X34948D01*
Y16682D01*
X34912Y16628D01*
X34896Y16550D01*
X34912Y16472D01*
X34956Y16406D01*
X34966Y16399D01*
Y16349D01*
X34927Y16323D01*
X34874Y16244D01*
X34863Y16190D01*
X35337D01*
X35326Y16244D01*
X35273Y16323D01*
X35234Y16349D01*
Y16399D01*
X35244Y16406D01*
X35288Y16472D01*
X35304Y16550D01*
X35290Y16621D01*
X35304Y16671D01*
X35304D01*
X35304Y16671D01*
Y17303D01*
D02*
G37*
G36*
X29600Y16110D02*
X28989D01*
Y15804D01*
X29600D01*
Y16110D01*
D02*
G37*
G36*
X30291D02*
X29680D01*
Y15804D01*
X30291D01*
Y16110D01*
D02*
G37*
G36*
X30860Y16110D02*
X30663D01*
X30674Y16056D01*
X30727Y15977D01*
X30806Y15924D01*
X30860Y15913D01*
Y16110D01*
D02*
G37*
G36*
X35337D02*
X34863D01*
X34874Y16056D01*
X34908Y16006D01*
Y15753D01*
X35344D01*
Y16069D01*
X35344D01*
X35332Y16084D01*
X35337Y16110D01*
D02*
G37*
G36*
X29227Y16716D02*
X28857D01*
Y16594D01*
X29073D01*
X29135Y16606D01*
X29188Y16642D01*
X29223Y16694D01*
X29227Y16716D01*
D02*
G37*
G36*
X17300Y14152D02*
X17134Y14135D01*
X16974Y14087D01*
X16827Y14008D01*
X16698Y13902D01*
X16592Y13773D01*
X16513Y13626D01*
X16465Y13466D01*
X16449Y13300D01*
X16465Y13134D01*
X16513Y12974D01*
X16592Y12827D01*
X16698Y12698D01*
X16827Y12592D01*
X16974Y12513D01*
X17134Y12465D01*
X17300Y12449D01*
X17466Y12465D01*
X17626Y12513D01*
X17773Y12592D01*
X17902Y12698D01*
X18008Y12827D01*
X18087Y12974D01*
X18135Y13134D01*
X18152Y13300D01*
X18135Y13466D01*
X18087Y13626D01*
X18008Y13773D01*
X17902Y13902D01*
X17773Y14008D01*
X17626Y14087D01*
X17466Y14135D01*
X17300Y14152D01*
D02*
G37*
G36*
X36092Y16947D02*
X35656D01*
Y16631D01*
X35656D01*
X35668Y16616D01*
X35663Y16590D01*
X36137D01*
X36126Y16644D01*
X36092Y16694D01*
Y16947D01*
D02*
G37*
G36*
X30760Y16903D02*
X30523D01*
Y16745D01*
X30760D01*
Y16903D01*
D02*
G37*
G36*
X37760Y16894D02*
X37523D01*
Y16735D01*
X37760D01*
Y16894D01*
D02*
G37*
G36*
X31675Y16892D02*
X31409D01*
Y16714D01*
X31675D01*
Y16892D01*
D02*
G37*
G36*
X19310Y14055D02*
X19073D01*
Y13897D01*
X19310D01*
Y14055D01*
D02*
G37*
G36*
X30291Y16496D02*
X29680D01*
Y16190D01*
X30291D01*
Y16496D01*
D02*
G37*
G36*
X29600D02*
X28989D01*
Y16190D01*
X29600D01*
Y16496D01*
D02*
G37*
G36*
X30760Y16665D02*
X30523D01*
Y16506D01*
X30760D01*
Y16665D01*
D02*
G37*
G36*
X37760Y16655D02*
X37523D01*
Y16497D01*
X37760D01*
Y16655D01*
D02*
G37*
G36*
X22153Y17552D02*
X21521D01*
Y17196D01*
X22153D01*
Y17231D01*
X23323D01*
X23325Y17228D01*
X23298Y17178D01*
X23271D01*
Y16822D01*
X23303D01*
Y16737D01*
X23287D01*
Y16263D01*
X23604D01*
Y16737D01*
X23588D01*
Y16800D01*
X23610Y16822D01*
X23903D01*
Y17178D01*
X23761D01*
X23729Y17213D01*
X23718Y17268D01*
X23706Y17287D01*
X23688Y17314D01*
X23688Y17314D01*
X23527Y17475D01*
X23481Y17506D01*
X23426Y17517D01*
X23426Y17517D01*
X22153D01*
Y17552D01*
D02*
G37*
G36*
X28501Y16056D02*
X28185D01*
Y15740D01*
X28501D01*
Y16056D01*
D02*
G37*
G36*
X26935Y15135D02*
X26540D01*
Y14858D01*
X26935D01*
Y15135D01*
D02*
G37*
G36*
X26460D02*
X26065D01*
Y14858D01*
X26460D01*
Y15135D01*
D02*
G37*
G36*
X26360Y14260D02*
X26163D01*
X26174Y14206D01*
X26227Y14127D01*
X26306Y14074D01*
X26360Y14063D01*
Y14260D01*
D02*
G37*
G36*
X38077Y15065D02*
X37840D01*
Y14906D01*
X38077D01*
Y15065D01*
D02*
G37*
G36*
X37760D02*
X37523D01*
Y14906D01*
X37760D01*
Y15065D01*
D02*
G37*
G36*
X30291Y14910D02*
X29680D01*
Y14604D01*
X30291D01*
Y14910D01*
D02*
G37*
G36*
X19627Y14294D02*
X19390D01*
Y14135D01*
X19627D01*
Y14294D01*
D02*
G37*
G36*
X19310D02*
X19073D01*
Y14135D01*
X19310D01*
Y14294D01*
D02*
G37*
G36*
X26935Y14778D02*
X26065D01*
Y14502D01*
X26187D01*
X26213Y14452D01*
X26174Y14394D01*
X26163Y14340D01*
X26637D01*
X26626Y14394D01*
X26587Y14452D01*
X26613Y14502D01*
X26935D01*
Y14778D01*
D02*
G37*
G36*
X26637Y14260D02*
X26440D01*
Y14063D01*
X26494Y14074D01*
X26573Y14127D01*
X26626Y14206D01*
X26637Y14260D01*
D02*
G37*
G36*
X29600Y14910D02*
X28989D01*
Y14604D01*
X29600D01*
Y14910D01*
D02*
G37*
G36*
X28896Y15660D02*
X28581D01*
Y15344D01*
X28896D01*
Y15660D01*
D02*
G37*
G36*
X28501D02*
X28185D01*
Y15344D01*
X28501D01*
Y15660D01*
D02*
G37*
G36*
X17000Y15363D02*
X16906Y15351D01*
X16818Y15314D01*
X16743Y15257D01*
X16686Y15182D01*
X16649Y15094D01*
X16637Y15000D01*
X16649Y14906D01*
X16686Y14818D01*
X16743Y14743D01*
X16818Y14686D01*
X16906Y14649D01*
X17000Y14637D01*
X17094Y14649D01*
X17182Y14686D01*
X17257Y14743D01*
X17314Y14818D01*
X17331Y14857D01*
X17736D01*
X18463Y14131D01*
Y13937D01*
X18937D01*
Y14254D01*
X18743D01*
X17896Y15101D01*
X17850Y15132D01*
X17795Y15143D01*
X17795Y15143D01*
X17331D01*
X17314Y15182D01*
X17257Y15257D01*
X17182Y15314D01*
X17094Y15351D01*
X17000Y15363D01*
D02*
G37*
G36*
X32960Y16303D02*
X32723D01*
Y16144D01*
X32471D01*
Y15926D01*
X32431D01*
Y15886D01*
X32125D01*
Y15708D01*
X32245D01*
X32247Y15705D01*
X32267Y15658D01*
X32224Y15594D01*
X32213Y15540D01*
X32687D01*
X32676Y15594D01*
X32633Y15658D01*
X32653Y15705D01*
X32655Y15708D01*
X32738D01*
Y15906D01*
X32960D01*
Y16105D01*
Y16303D01*
D02*
G37*
G36*
X33510Y15710D02*
X33313D01*
X33324Y15656D01*
X33377Y15577D01*
X33456Y15524D01*
X33510Y15513D01*
Y15710D01*
D02*
G37*
G36*
X17700Y18018D02*
X17592Y18004D01*
X17491Y17962D01*
X17405Y17895D01*
X17338Y17809D01*
X17296Y17708D01*
X17282Y17600D01*
X17296Y17492D01*
X17338Y17391D01*
X17405Y17305D01*
X17491Y17238D01*
X17557Y17211D01*
Y16050D01*
X17557Y16050D01*
X17568Y15995D01*
X17599Y15949D01*
X18149Y15399D01*
X18149Y15399D01*
X18177Y15381D01*
X18195Y15368D01*
X18250Y15357D01*
X19355D01*
X19355Y15357D01*
X19409Y15368D01*
X19437Y15387D01*
X19637D01*
Y15403D01*
X19771D01*
Y15322D01*
X20403D01*
Y15678D01*
X20091D01*
X20041Y15688D01*
X20041Y15688D01*
X19637D01*
Y15704D01*
X19163D01*
Y15643D01*
X18309D01*
X17843Y16109D01*
Y17211D01*
X17909Y17238D01*
X17996Y17305D01*
X18062Y17391D01*
X18104Y17492D01*
X18118Y17600D01*
X18104Y17708D01*
X18062Y17809D01*
X17996Y17895D01*
X17909Y17962D01*
X17808Y18004D01*
X17700Y18018D01*
D02*
G37*
G36*
X37760Y15303D02*
X37523D01*
Y15145D01*
X37760D01*
Y15303D01*
D02*
G37*
G36*
X30291Y15296D02*
X29680D01*
Y14990D01*
X30291D01*
Y15296D01*
D02*
G37*
G36*
X38077Y15303D02*
X37840D01*
Y15145D01*
X38077D01*
Y15303D01*
D02*
G37*
G36*
X32687Y15460D02*
X32490D01*
Y15263D01*
X32544Y15274D01*
X32623Y15327D01*
X32676Y15406D01*
X32687Y15460D01*
D02*
G37*
G36*
X32410D02*
X32213D01*
X32224Y15406D01*
X32277Y15327D01*
X32356Y15274D01*
X32410Y15263D01*
Y15460D01*
D02*
G37*
G36*
X32305Y19877D02*
X32147D01*
Y19640D01*
X32305D01*
Y19877D01*
D02*
G37*
G36*
X37110Y19710D02*
X36913D01*
X36924Y19656D01*
X36977Y19577D01*
X37056Y19524D01*
X37110Y19513D01*
Y19710D01*
D02*
G37*
G36*
X38960Y21610D02*
X38703D01*
X38708Y21572D01*
X38738Y21499D01*
X38786Y21436D01*
X38849Y21388D01*
X38922Y21358D01*
X38960Y21353D01*
Y21610D01*
D02*
G37*
G36*
X29840Y21287D02*
Y21090D01*
X30037D01*
X30026Y21144D01*
X29973Y21223D01*
X29894Y21276D01*
X29840Y21287D01*
D02*
G37*
G36*
X32255Y21560D02*
X32097D01*
Y21323D01*
X32255D01*
Y21560D01*
D02*
G37*
G36*
X33887Y19610D02*
X33690D01*
Y19413D01*
X33744Y19424D01*
X33823Y19477D01*
X33876Y19556D01*
X33887Y19610D01*
D02*
G37*
G36*
X32887Y21560D02*
X32690D01*
Y21363D01*
X32744Y21374D01*
X32823Y21427D01*
X32876Y21506D01*
X32887Y21560D01*
D02*
G37*
G36*
X32544Y19877D02*
X32385D01*
Y19600D01*
Y19323D01*
X32544D01*
Y19327D01*
X32594Y19367D01*
X32610Y19363D01*
Y19600D01*
Y19837D01*
X32594Y19834D01*
X32544Y19873D01*
Y19877D01*
D02*
G37*
G36*
X39297Y21610D02*
X39040D01*
Y21353D01*
X39078Y21358D01*
X39151Y21388D01*
X39214Y21436D01*
X39262Y21499D01*
X39292Y21572D01*
X39297Y21610D01*
D02*
G37*
G36*
X33610Y19610D02*
X33413D01*
X33424Y19556D01*
X33477Y19477D01*
X33556Y19424D01*
X33610Y19413D01*
Y19610D01*
D02*
G37*
G36*
X32887Y19560D02*
X32690D01*
Y19363D01*
X32744Y19374D01*
X32823Y19427D01*
X32876Y19506D01*
X32887Y19560D01*
D02*
G37*
G36*
X30627Y20655D02*
X30390D01*
Y20497D01*
X30627D01*
Y20655D01*
D02*
G37*
G36*
X35905Y21310D02*
X35747D01*
Y21073D01*
X35905D01*
Y21310D01*
D02*
G37*
G36*
X30627Y20894D02*
X30390D01*
Y20735D01*
X30627D01*
Y20894D01*
D02*
G37*
G36*
X38919Y21091D02*
X38564D01*
Y20893D01*
X38919D01*
Y21091D01*
D02*
G37*
G36*
X26019Y21084D02*
X25307D01*
Y20906D01*
X25377D01*
X25416Y20856D01*
X25413Y20840D01*
X25887D01*
X25884Y20856D01*
X25923Y20906D01*
X26019D01*
Y21084D01*
D02*
G37*
G36*
X29760Y21287D02*
X29706Y21276D01*
X29627Y21223D01*
X29574Y21144D01*
X29563Y21090D01*
X29760D01*
Y21287D01*
D02*
G37*
G36*
X26019Y19842D02*
X25703D01*
Y19664D01*
X26019D01*
Y19842D01*
D02*
G37*
G36*
X32690Y19837D02*
Y19640D01*
X32887D01*
X32876Y19694D01*
X32823Y19773D01*
X32744Y19826D01*
X32690Y19837D01*
D02*
G37*
G36*
X37427Y20253D02*
X37190D01*
Y20095D01*
X37427D01*
Y20253D01*
D02*
G37*
G36*
X30037Y21010D02*
X29563D01*
X29574Y20956D01*
X29586Y20938D01*
X29563Y20894D01*
X29523D01*
Y20735D01*
X29800D01*
Y20695D01*
X29840D01*
Y20497D01*
X30310D01*
Y20695D01*
Y20894D01*
X30037D01*
X30014Y20938D01*
X30026Y20956D01*
X30037Y21010D01*
D02*
G37*
G36*
X29760Y20655D02*
X29523D01*
Y20497D01*
X29760D01*
Y20655D01*
D02*
G37*
G36*
X36340Y21587D02*
Y21390D01*
X36537D01*
X36526Y21444D01*
X36473Y21523D01*
X36394Y21576D01*
X36340Y21587D01*
D02*
G37*
G36*
X39203Y22677D02*
X39045D01*
Y22440D01*
X39203D01*
Y22677D01*
D02*
G37*
G36*
X39910Y23110D02*
X39713D01*
X39724Y23056D01*
X39777Y22977D01*
X39856Y22924D01*
X39910Y22913D01*
Y23110D01*
D02*
G37*
G36*
X38965Y22677D02*
X38806D01*
Y22440D01*
X38965D01*
Y22677D01*
D02*
G37*
G36*
X22153Y19428D02*
X21521D01*
Y19136D01*
X21403Y19019D01*
X21229D01*
Y19054D01*
X20597D01*
Y18698D01*
X20890D01*
X21188Y18399D01*
X21188Y18399D01*
X21235Y18368D01*
X21289Y18357D01*
X21289Y18357D01*
X26250D01*
X26250Y18357D01*
X26305Y18368D01*
X26351Y18399D01*
X26498Y18546D01*
X26687D01*
Y18863D01*
X26213D01*
Y18665D01*
X26191Y18643D01*
X21349D01*
X21304Y18687D01*
X21323Y18733D01*
X21463D01*
X21463Y18733D01*
X21517Y18744D01*
X21564Y18775D01*
X21860Y19072D01*
X22153D01*
Y19428D01*
D02*
G37*
G36*
X39203Y22360D02*
X39045D01*
Y22123D01*
X39203D01*
Y22360D01*
D02*
G37*
G36*
X39354Y20813D02*
X38564D01*
Y20615D01*
X38604D01*
Y20261D01*
Y19868D01*
Y19474D01*
Y19080D01*
Y18686D01*
Y18293D01*
X39314D01*
Y18686D01*
Y19080D01*
Y19474D01*
Y19868D01*
Y20261D01*
Y20615D01*
X39354D01*
Y20813D01*
D02*
G37*
G36*
X35834Y17343D02*
X35656D01*
Y17027D01*
X35834D01*
Y17343D01*
D02*
G37*
G36*
X31565Y17260D02*
X31406D01*
Y17023D01*
X31565D01*
Y17260D01*
D02*
G37*
G36*
X36092Y17343D02*
X35914D01*
Y17027D01*
X36092D01*
Y17343D01*
D02*
G37*
G36*
X24373Y17592D02*
X24057D01*
Y17414D01*
X24373D01*
Y17592D01*
D02*
G37*
G36*
X31565Y17577D02*
X31406D01*
Y17340D01*
X31565D01*
Y17577D01*
D02*
G37*
G36*
X19350Y19454D02*
X19272Y19438D01*
X19206Y19394D01*
X19162Y19328D01*
X19146Y19250D01*
X19162Y19172D01*
X19206Y19106D01*
X19272Y19062D01*
X19350Y19046D01*
X19428Y19062D01*
X19494Y19106D01*
X19495Y19107D01*
X19771D01*
Y19072D01*
X20403D01*
Y19428D01*
X19771D01*
Y19393D01*
X19495D01*
X19494Y19394D01*
X19428Y19438D01*
X19350Y19454D01*
D02*
G37*
G36*
X27637Y19260D02*
X27440D01*
Y19063D01*
X27494Y19074D01*
X27573Y19127D01*
X27626Y19206D01*
X27637Y19260D01*
D02*
G37*
G36*
X32305Y19560D02*
X32147D01*
Y19323D01*
X32305D01*
Y19560D01*
D02*
G37*
G36*
X17300Y23301D02*
X17134Y23285D01*
X16974Y23237D01*
X16827Y23158D01*
X16698Y23052D01*
X16592Y22923D01*
X16513Y22776D01*
X16465Y22616D01*
X16449Y22450D01*
X16465Y22284D01*
X16513Y22124D01*
X16592Y21977D01*
X16698Y21848D01*
X16827Y21742D01*
X16974Y21663D01*
X17134Y21615D01*
X17300Y21598D01*
X17466Y21615D01*
X17626Y21663D01*
X17773Y21742D01*
X17902Y21848D01*
X18008Y21977D01*
X18087Y22124D01*
X18135Y22284D01*
X18152Y22450D01*
X18135Y22616D01*
X18087Y22776D01*
X18008Y22923D01*
X17902Y23052D01*
X17773Y23158D01*
X17626Y23237D01*
X17466Y23285D01*
X17300Y23301D01*
D02*
G37*
G36*
X27765Y19576D02*
X27003D01*
X27009Y19543D01*
X27051Y19480D01*
X27113Y19439D01*
X27140Y19433D01*
X27148Y19424D01*
X27170Y19376D01*
X27163Y19340D01*
X27637D01*
X27628Y19382D01*
X27646Y19437D01*
X27654Y19439D01*
X27717Y19480D01*
X27758Y19543D01*
X27765Y19576D01*
D02*
G37*
G36*
X26250Y21643D02*
X26250Y21643D01*
X20650D01*
X20650Y21643D01*
X20595Y21632D01*
X20549Y21601D01*
X20399Y21451D01*
X20368Y21405D01*
X20357Y21350D01*
X20357Y21350D01*
Y20928D01*
X19771D01*
Y20893D01*
X18250D01*
X18195Y20882D01*
X18177Y20869D01*
X18149Y20851D01*
X18149Y20851D01*
X17599Y20301D01*
X17568Y20255D01*
X17557Y20200D01*
X17557Y20200D01*
Y18989D01*
X17491Y18962D01*
X17405Y18895D01*
X17338Y18809D01*
X17296Y18708D01*
X17282Y18600D01*
X17296Y18492D01*
X17338Y18391D01*
X17405Y18305D01*
X17491Y18238D01*
X17592Y18196D01*
X17700Y18182D01*
X17808Y18196D01*
X17909Y18238D01*
X17996Y18305D01*
X18062Y18391D01*
X18089Y18457D01*
X18241D01*
X18657Y18041D01*
Y17250D01*
X18657Y17250D01*
X18668Y17195D01*
X18699Y17149D01*
X18949Y16899D01*
X18949Y16899D01*
X18977Y16881D01*
X18995Y16868D01*
X19050Y16857D01*
X19163D01*
Y16796D01*
X19637D01*
Y16812D01*
X20041D01*
X20041Y16812D01*
X20091Y16822D01*
X20357D01*
Y16700D01*
X20357Y16700D01*
X20368Y16645D01*
X20399Y16599D01*
X20473Y16525D01*
X20473Y16525D01*
X20501Y16507D01*
X20519Y16494D01*
X20574Y16483D01*
X20597D01*
Y16448D01*
X21229D01*
Y16483D01*
X21521D01*
Y16448D01*
X22153D01*
Y16804D01*
X21521D01*
Y16769D01*
X21229D01*
Y16804D01*
X20643D01*
Y17196D01*
X20890D01*
X21186Y16899D01*
X21186Y16899D01*
X21233Y16868D01*
X21287Y16857D01*
X21287Y16857D01*
X22347D01*
Y16822D01*
X22640D01*
X22681Y16781D01*
X22696Y16737D01*
X22696Y16737D01*
X22696D01*
X22696Y16737D01*
Y16263D01*
X23013D01*
Y16737D01*
X22997D01*
Y16809D01*
X22997Y16809D01*
X22987Y16863D01*
X22979Y16874D01*
Y17178D01*
X22347D01*
Y17143D01*
X21347D01*
X21229Y17260D01*
Y17552D01*
X20597D01*
Y17470D01*
X20551Y17451D01*
X20457Y17545D01*
X20669Y17757D01*
X24641D01*
X24756Y17642D01*
X24735Y17592D01*
X24453D01*
Y17374D01*
X24413D01*
Y17334D01*
X24057D01*
Y17156D01*
X24127D01*
X24166Y17106D01*
X24163Y17090D01*
X24400D01*
Y17010D01*
X24163D01*
X24174Y16956D01*
X24227Y16877D01*
X24261Y16854D01*
X24246Y16804D01*
X24097D01*
Y16742D01*
X24075Y16727D01*
X23899Y16551D01*
X23868Y16505D01*
X23857Y16450D01*
X23857Y16450D01*
Y16395D01*
X23856Y16394D01*
X23812Y16328D01*
X23796Y16250D01*
X23812Y16172D01*
X23856Y16106D01*
X23857Y16105D01*
Y15678D01*
X23610D01*
X23314Y15975D01*
X23267Y16006D01*
X23213Y16017D01*
X23213Y16017D01*
X22153D01*
Y16052D01*
X21521D01*
Y15696D01*
X22153D01*
Y15731D01*
X23153D01*
X23271Y15614D01*
Y15322D01*
X23303D01*
Y15237D01*
X23287D01*
Y14763D01*
X23245Y14743D01*
X23055D01*
X23013Y14763D01*
X23013Y14793D01*
Y15237D01*
X22997D01*
Y15309D01*
X22997Y15309D01*
X22987Y15363D01*
X22979Y15374D01*
Y15678D01*
X22347D01*
Y15643D01*
X21347D01*
X21229Y15760D01*
Y16052D01*
X20597D01*
Y15696D01*
X20890D01*
X21186Y15399D01*
X21186Y15399D01*
X21233Y15368D01*
X21287Y15357D01*
X21287Y15357D01*
X22347D01*
Y15322D01*
X22640D01*
X22681Y15281D01*
X22696Y15237D01*
X22696Y15237D01*
X22696D01*
X22696Y15237D01*
Y14793D01*
X22696Y14763D01*
X22655Y14743D01*
X22655D01*
X22109D01*
X21979Y14873D01*
Y14948D01*
X22153D01*
Y15304D01*
X21521D01*
Y15269D01*
X21229D01*
Y15304D01*
X20597D01*
Y15097D01*
X19637D01*
Y15113D01*
X19163D01*
Y14796D01*
X19637D01*
Y14812D01*
X20742D01*
X20742Y14812D01*
X20797Y14823D01*
X20843Y14854D01*
X20937Y14948D01*
X21229D01*
Y14983D01*
X21521D01*
Y14948D01*
X21694D01*
Y14813D01*
X21694Y14813D01*
X21705Y14759D01*
X21736Y14712D01*
X21949Y14499D01*
X21949Y14499D01*
X21977Y14481D01*
X21995Y14468D01*
X22050Y14457D01*
X24600D01*
X24600Y14457D01*
X24655Y14468D01*
X24701Y14499D01*
X25001Y14799D01*
X25001Y14799D01*
X25032Y14845D01*
X25034Y14858D01*
X25091Y14889D01*
X25100Y14885D01*
X25900D01*
X25946Y14904D01*
X25965Y14950D01*
Y15435D01*
X27000D01*
X27002Y15436D01*
X27044Y15408D01*
Y15384D01*
X27675D01*
Y16016D01*
X27326D01*
Y16635D01*
X27439D01*
X27485Y16644D01*
X27514Y16663D01*
X27560Y16678D01*
X27560Y16678D01*
X27570Y16678D01*
X27560Y16678D01*
X27560D01*
X27609Y16680D01*
X27612D01*
X27616D01*
Y16680D01*
X27960D01*
Y17150D01*
Y17620D01*
X27591D01*
X27570Y17620D01*
X27560Y17622D01*
X27524Y17630D01*
X27485Y17656D01*
X27439Y17665D01*
X27253D01*
X27238Y17676D01*
X27183Y17686D01*
X25115D01*
X24801Y18001D01*
X24755Y18032D01*
X24700Y18043D01*
X24700Y18043D01*
X20609D01*
X20555Y18032D01*
X20509Y18001D01*
X20509Y18001D01*
X20196Y17688D01*
X19637D01*
Y17704D01*
X19163D01*
Y17387D01*
X19637D01*
Y17403D01*
X20196D01*
X20357Y17241D01*
Y17178D01*
X19771D01*
Y17097D01*
X19637D01*
Y17113D01*
X19437D01*
X19409Y17132D01*
X19355Y17143D01*
X19355Y17143D01*
X19109D01*
X18943Y17309D01*
Y18100D01*
X18943Y18100D01*
X18932Y18155D01*
X18901Y18201D01*
X18901Y18201D01*
X18401Y18701D01*
X18355Y18732D01*
X18300Y18743D01*
X18300Y18743D01*
X18089D01*
X18062Y18809D01*
X17996Y18895D01*
X17909Y18962D01*
X17843Y18989D01*
Y20141D01*
X18309Y20607D01*
X19771D01*
Y20572D01*
X20357D01*
Y20500D01*
X20357Y20500D01*
X20368Y20445D01*
X20399Y20399D01*
X20523Y20275D01*
X20523Y20275D01*
X20569Y20244D01*
X20597Y20239D01*
Y20198D01*
X21229D01*
Y20233D01*
X21463D01*
X21463Y20233D01*
X21517Y20244D01*
X21564Y20275D01*
X21860Y20572D01*
X22153D01*
Y20928D01*
X21521D01*
Y20636D01*
X21403Y20519D01*
X21229D01*
Y20554D01*
X20648D01*
X20643Y20559D01*
Y20946D01*
X21229D01*
Y20981D01*
X22347D01*
Y20946D01*
X22979D01*
Y20981D01*
X23072D01*
X23296Y20757D01*
Y20563D01*
X23540D01*
X23561Y20513D01*
X23447Y20399D01*
X23385D01*
X23307Y20477D01*
X23261Y20508D01*
X23206Y20519D01*
X23206Y20519D01*
X22979D01*
Y20554D01*
X22347D01*
Y20198D01*
X22979D01*
Y20233D01*
X23147D01*
X23148Y20232D01*
Y20113D01*
Y19857D01*
Y19601D01*
X23326D01*
X23326Y19601D01*
X23547D01*
X23607Y19541D01*
Y19487D01*
X23296D01*
Y19393D01*
X23097D01*
X22979Y19510D01*
Y19802D01*
X22347D01*
Y19767D01*
X21229D01*
Y19802D01*
X20597D01*
Y19446D01*
X21229D01*
Y19481D01*
X22347D01*
Y19446D01*
X22640D01*
X22936Y19149D01*
X22936Y19149D01*
X22983Y19118D01*
X23037Y19107D01*
X23037Y19107D01*
X23296D01*
Y19019D01*
X22979D01*
Y19054D01*
X22347D01*
Y18698D01*
X22979D01*
Y18733D01*
X23626D01*
X23626Y18733D01*
X23626Y18733D01*
X24463D01*
X24463Y18733D01*
X24517Y18744D01*
X24564Y18775D01*
X24860Y19072D01*
X25153D01*
Y19120D01*
X25199Y19139D01*
X25347Y18990D01*
Y18698D01*
X25979D01*
Y19054D01*
X25854D01*
X25839Y19104D01*
X25873Y19127D01*
X25926Y19206D01*
X25937Y19260D01*
X25700D01*
Y19340D01*
X25937D01*
X25934Y19356D01*
X25973Y19406D01*
X26019D01*
Y19584D01*
X25663D01*
Y19624D01*
X25623D01*
Y19842D01*
X25462D01*
X25440Y19892D01*
X25454Y19963D01*
X25454Y19964D01*
X25687Y20198D01*
X25979D01*
Y20554D01*
X25804D01*
X25789Y20604D01*
X25823Y20627D01*
X25876Y20706D01*
X25887Y20760D01*
X25413D01*
X25424Y20706D01*
X25477Y20627D01*
X25511Y20604D01*
X25496Y20554D01*
X25347D01*
Y20262D01*
X25252Y20166D01*
X25250Y20167D01*
X25172Y20151D01*
X25106Y20107D01*
X25062Y20041D01*
X25046Y19963D01*
X25062Y19885D01*
X25106Y19818D01*
X25107Y19817D01*
Y19428D01*
X24521D01*
Y19136D01*
X24403Y19019D01*
X24204D01*
Y19221D01*
X24206Y19224D01*
X24217Y19279D01*
Y19601D01*
X24252D01*
Y19857D01*
Y20113D01*
Y20399D01*
X24217D01*
Y20771D01*
X24206Y20826D01*
X24204Y20829D01*
Y21037D01*
X24245Y21057D01*
X24691D01*
X24694Y21054D01*
Y20928D01*
X24521D01*
Y20572D01*
X25153D01*
Y20928D01*
X24979D01*
Y21113D01*
X24979Y21113D01*
X24968Y21168D01*
X24938Y21214D01*
X24938Y21214D01*
X24851Y21301D01*
X24841Y21307D01*
X24857Y21357D01*
X25264D01*
X25307Y21342D01*
X25307Y21307D01*
Y21164D01*
X26019D01*
Y21307D01*
X26019Y21342D01*
X26063Y21357D01*
X26063D01*
X26191D01*
X26213Y21335D01*
Y21137D01*
X26687D01*
Y21454D01*
X26498D01*
X26351Y21601D01*
X26305Y21632D01*
X26250Y21643D01*
D02*
G37*
G36*
X39040Y21947D02*
Y21690D01*
X39297D01*
X39292Y21728D01*
X39262Y21801D01*
X39214Y21864D01*
X39151Y21912D01*
X39078Y21942D01*
X39040Y21947D01*
D02*
G37*
G36*
X38965Y22360D02*
X38806D01*
Y22123D01*
X38965D01*
Y22360D01*
D02*
G37*
G36*
X38960Y21947D02*
X38922Y21942D01*
X38849Y21912D01*
X38786Y21864D01*
X38738Y21801D01*
X38708Y21728D01*
X38703Y21690D01*
X38960D01*
Y21947D01*
D02*
G37*
G36*
X27360Y19260D02*
X27163D01*
X27174Y19206D01*
X27227Y19127D01*
X27306Y19074D01*
X27360Y19063D01*
Y19260D01*
D02*
G37*
%LPD*%
G36*
X26815Y16710D02*
X26841Y16670D01*
X26881Y16644D01*
X26927Y16635D01*
X26965D01*
X27000Y16600D01*
X27000Y15500D01*
X25900D01*
Y14950D01*
X25100D01*
X25100Y15350D01*
X25100Y16750D01*
X26807D01*
X26815Y16710D01*
D02*
G37*
G36*
X23759Y21307D02*
X23749Y21301D01*
X23749Y21301D01*
X23649Y21201D01*
X23618Y21155D01*
X23607Y21100D01*
X23607Y21100D01*
Y21037D01*
X23419D01*
X23232Y21225D01*
X23185Y21256D01*
X23131Y21267D01*
X23131Y21267D01*
X22979D01*
Y21302D01*
X22347D01*
Y21267D01*
X21229D01*
Y21302D01*
X20774D01*
X20747Y21352D01*
X20751Y21357D01*
X23743D01*
X23759Y21307D01*
D02*
G37*
G36*
X23857Y15250D02*
X23857Y15250D01*
X23868Y15195D01*
X23899Y15149D01*
X24049Y14999D01*
X24095Y14968D01*
X24097Y14968D01*
Y14948D01*
X24675D01*
X24696Y14898D01*
X24541Y14743D01*
X23645D01*
X23604Y14763D01*
Y15237D01*
X23588D01*
Y15300D01*
X23610Y15322D01*
X23857D01*
Y15250D01*
D02*
G37*
G36*
X26013Y17204D02*
Y16887D01*
X26433D01*
X26458Y16837D01*
X26442Y16815D01*
X25100D01*
X25093Y16812D01*
X25043Y16845D01*
Y17091D01*
X25156Y17204D01*
X25963D01*
X26013Y17204D01*
D02*
G37*
%LPC*%
G36*
X25737Y16410D02*
X25540D01*
Y16213D01*
X25594Y16224D01*
X25673Y16277D01*
X25726Y16356D01*
X25737Y16410D01*
D02*
G37*
G36*
X26210Y16415D02*
X25973D01*
Y16256D01*
X26210D01*
Y16415D01*
D02*
G37*
G36*
X25460Y16410D02*
X25263D01*
X25274Y16356D01*
X25327Y16277D01*
X25406Y16224D01*
X25460Y16213D01*
Y16410D01*
D02*
G37*
G36*
X26460Y16198D02*
X26065D01*
Y15921D01*
X26460D01*
Y16198D01*
D02*
G37*
G36*
X26935D02*
X26540D01*
Y15921D01*
X26935D01*
Y16198D01*
D02*
G37*
G36*
X26210Y16653D02*
X25973D01*
Y16495D01*
X26210D01*
Y16653D01*
D02*
G37*
G36*
X26527D02*
X26290D01*
Y16495D01*
X26527D01*
Y16653D01*
D02*
G37*
G36*
X25540Y16687D02*
Y16490D01*
X25737D01*
X25726Y16544D01*
X25673Y16623D01*
X25594Y16676D01*
X25540Y16687D01*
D02*
G37*
G36*
X26527Y16415D02*
X26290D01*
Y16256D01*
X26527D01*
Y16415D01*
D02*
G37*
G36*
X25460Y16687D02*
X25406Y16676D01*
X25327Y16623D01*
X25274Y16544D01*
X25263Y16490D01*
X25460D01*
Y16687D01*
D02*
G37*
G36*
X25540Y15487D02*
Y15290D01*
X25737D01*
X25726Y15344D01*
X25673Y15423D01*
X25594Y15476D01*
X25540Y15487D01*
D02*
G37*
G36*
X26460Y15841D02*
X26065D01*
Y15565D01*
X26460D01*
Y15841D01*
D02*
G37*
G36*
X25460Y15487D02*
X25406Y15476D01*
X25327Y15423D01*
X25274Y15344D01*
X25263Y15290D01*
X25460D01*
Y15487D01*
D02*
G37*
G36*
Y15210D02*
X25263D01*
X25274Y15156D01*
X25327Y15077D01*
X25406Y15024D01*
X25460Y15013D01*
Y15210D01*
D02*
G37*
G36*
X25737D02*
X25540D01*
Y15013D01*
X25594Y15024D01*
X25673Y15077D01*
X25726Y15156D01*
X25737Y15210D01*
D02*
G37*
G36*
X25460Y16087D02*
X25406Y16076D01*
X25327Y16023D01*
X25274Y15944D01*
X25263Y15890D01*
X25460D01*
Y16087D01*
D02*
G37*
G36*
X25540D02*
Y15890D01*
X25737D01*
X25726Y15944D01*
X25673Y16023D01*
X25594Y16076D01*
X25540Y16087D01*
D02*
G37*
G36*
X25737Y15810D02*
X25540D01*
Y15613D01*
X25594Y15624D01*
X25673Y15677D01*
X25726Y15756D01*
X25737Y15810D01*
D02*
G37*
G36*
X26935Y15841D02*
X26540D01*
Y15565D01*
X26935D01*
Y15841D01*
D02*
G37*
G36*
X25460Y15810D02*
X25263D01*
X25274Y15756D01*
X25327Y15677D01*
X25406Y15624D01*
X25460Y15613D01*
Y15810D01*
D02*
G37*
%LPD*%
D10*
X19350Y14095D02*
D03*
Y13505D02*
D03*
X18700Y14095D02*
D03*
Y13505D02*
D03*
X37150Y20645D02*
D03*
Y20055D02*
D03*
X36600D02*
D03*
Y20645D02*
D03*
X36050Y20055D02*
D03*
Y20645D02*
D03*
X30350Y20105D02*
D03*
Y20695D02*
D03*
X29800Y20105D02*
D03*
Y20695D02*
D03*
X30900Y19595D02*
D03*
Y19005D02*
D03*
X30350Y19595D02*
D03*
Y19005D02*
D03*
X29800Y19595D02*
D03*
Y19005D02*
D03*
X26450Y21295D02*
D03*
Y20705D02*
D03*
Y19705D02*
D03*
Y20295D02*
D03*
Y19295D02*
D03*
Y18705D02*
D03*
X34400Y17505D02*
D03*
Y18095D02*
D03*
Y14605D02*
D03*
Y15195D02*
D03*
X33550Y16695D02*
D03*
Y16105D02*
D03*
X33000Y16695D02*
D03*
Y16105D02*
D03*
X37800Y15695D02*
D03*
Y15105D02*
D03*
X30800Y16705D02*
D03*
Y17295D02*
D03*
X37800Y16105D02*
D03*
Y16695D02*
D03*
X26250Y16455D02*
D03*
Y17045D02*
D03*
X19400Y15545D02*
D03*
Y14955D02*
D03*
Y16955D02*
D03*
Y17545D02*
D03*
X36900Y21355D02*
D03*
Y21945D02*
D03*
D11*
X35355Y21900D02*
D03*
X35945D02*
D03*
X35355Y21350D02*
D03*
X35945D02*
D03*
X34205D02*
D03*
X34795D02*
D03*
X31705Y21600D02*
D03*
X32295D02*
D03*
X31755Y19600D02*
D03*
X32345D02*
D03*
X28545Y21000D02*
D03*
X27955D02*
D03*
X23455Y20800D02*
D03*
X24045D02*
D03*
X23455Y19250D02*
D03*
X24045D02*
D03*
X31605Y17300D02*
D03*
X32195D02*
D03*
X31895Y15200D02*
D03*
X31305D02*
D03*
X29605Y17050D02*
D03*
X30195D02*
D03*
X22855Y15000D02*
D03*
X23445D02*
D03*
X22855Y16500D02*
D03*
X23445D02*
D03*
X39005Y22400D02*
D03*
X39595D02*
D03*
D12*
X33634Y20734D02*
D03*
Y20478D02*
D03*
Y20222D02*
D03*
Y19966D02*
D03*
X35366Y20734D02*
D03*
Y20478D02*
D03*
Y20222D02*
D03*
Y19966D02*
D03*
X27384Y20384D02*
D03*
Y20128D02*
D03*
Y19872D02*
D03*
Y19616D02*
D03*
X29116Y20384D02*
D03*
Y20128D02*
D03*
Y19872D02*
D03*
Y19616D02*
D03*
D13*
X32563Y20600D02*
D03*
X31737Y20226D02*
D03*
Y20974D02*
D03*
X24837Y20750D02*
D03*
X25663Y21124D02*
D03*
Y20376D02*
D03*
X24837Y19250D02*
D03*
X25663Y19624D02*
D03*
Y18876D02*
D03*
X21837Y19250D02*
D03*
X22663Y19624D02*
D03*
Y18876D02*
D03*
X21837Y20750D02*
D03*
X22663Y21124D02*
D03*
Y20376D02*
D03*
X20087Y20750D02*
D03*
X20913Y21124D02*
D03*
Y20376D02*
D03*
X20087Y19250D02*
D03*
X20913Y19624D02*
D03*
Y18876D02*
D03*
X32887Y17800D02*
D03*
X33713Y18174D02*
D03*
Y17426D02*
D03*
X32887Y14900D02*
D03*
X33713Y15274D02*
D03*
Y14526D02*
D03*
X23587Y15500D02*
D03*
X24413Y15874D02*
D03*
Y15126D02*
D03*
X23587Y17000D02*
D03*
X24413Y17374D02*
D03*
Y16626D02*
D03*
X22663Y17000D02*
D03*
X21837Y16626D02*
D03*
Y17374D02*
D03*
X22663Y15500D02*
D03*
X21837Y15126D02*
D03*
Y15874D02*
D03*
X20087Y17000D02*
D03*
X20913Y17374D02*
D03*
Y16626D02*
D03*
X20087Y15500D02*
D03*
X20913Y15874D02*
D03*
Y15126D02*
D03*
D14*
X24074Y20256D02*
D03*
Y20000D02*
D03*
Y19744D02*
D03*
X23326D02*
D03*
Y20000D02*
D03*
Y20256D02*
D03*
D15*
X35500Y14887D02*
D03*
X35126Y15713D02*
D03*
X35874D02*
D03*
X35500Y17813D02*
D03*
X35874Y16987D02*
D03*
X35126D02*
D03*
D16*
X31369Y16674D02*
D03*
Y16300D02*
D03*
Y15926D02*
D03*
X32431D02*
D03*
Y16674D02*
D03*
D17*
X29640Y14950D02*
D03*
Y16150D02*
D03*
D18*
X27183Y17544D02*
D03*
Y17347D02*
D03*
Y17150D02*
D03*
Y16953D02*
D03*
Y16756D02*
D03*
X28817Y17544D02*
D03*
Y17347D02*
D03*
Y17150D02*
D03*
Y16953D02*
D03*
Y16756D02*
D03*
D19*
X28000Y17150D02*
D03*
D20*
X28541Y15700D02*
D03*
X27359D02*
D03*
D21*
X26500Y14819D02*
D03*
Y15882D02*
D03*
D22*
X42050Y22800D02*
D03*
X41550D02*
D03*
X41050D02*
D03*
Y22300D02*
D03*
X41550D02*
D03*
X42050D02*
D03*
D23*
X38333Y21906D02*
D03*
Y21650D02*
D03*
Y21394D02*
D03*
X37467Y21906D02*
D03*
Y21394D02*
D03*
D24*
X42730Y21483D02*
D03*
X42337D02*
D03*
X41943D02*
D03*
X41549D02*
D03*
X41156D02*
D03*
X40762D02*
D03*
X40368D02*
D03*
X39974D02*
D03*
X39581D02*
D03*
Y14317D02*
D03*
X39974D02*
D03*
X40368D02*
D03*
X40762D02*
D03*
X41156D02*
D03*
X41549D02*
D03*
X41943D02*
D03*
X42337D02*
D03*
X42730D02*
D03*
D25*
X38959Y17278D02*
D03*
Y16885D02*
D03*
Y16491D02*
D03*
Y16097D02*
D03*
Y15704D02*
D03*
Y15310D02*
D03*
Y14916D02*
D03*
Y18491D02*
D03*
Y18884D02*
D03*
Y19278D02*
D03*
Y19672D02*
D03*
Y20065D02*
D03*
Y20459D02*
D03*
Y20853D02*
D03*
D26*
X42730Y21483D02*
X42750Y21463D01*
Y20950D02*
Y21463D01*
X34405Y18100D02*
X34800D01*
X34400Y18095D02*
X34405Y18100D01*
X33300Y17761D02*
X33713Y18174D01*
X33300Y16945D02*
Y17761D01*
Y16945D02*
X33550Y16695D01*
X33713Y15274D02*
X34000Y15561D01*
Y16600D01*
X33900Y16700D02*
X34000Y16600D01*
X33895Y16695D02*
X33900Y16700D01*
X33550Y16695D02*
X33895D01*
X33713Y15274D02*
X34321D01*
X34400Y15195D01*
X33713Y18174D02*
X34321D01*
X34400Y18095D01*
Y15195D02*
Y15278D01*
X36328D02*
X36350Y15300D01*
X36300D02*
X36350D01*
X34400Y15278D02*
X36328D01*
X41549Y21483D02*
Y22299D01*
X41550Y22300D01*
X41156Y21483D02*
Y22194D01*
X41050Y22300D02*
X41156Y22194D01*
X41943Y21483D02*
Y22193D01*
X42050Y22300D01*
X42730Y21483D02*
X42950Y21702D01*
Y22750D01*
X42700Y23000D02*
X42950Y22750D01*
X42250Y23000D02*
X42700D01*
X42050Y22800D02*
X42250Y23000D01*
X41943Y13607D02*
Y14317D01*
X43000Y23300D02*
X43250Y23050D01*
X41800Y23300D02*
X43000D01*
X41550Y23050D02*
X41800Y23300D01*
X41550Y22800D02*
Y23050D01*
D27*
X39950Y23150D02*
Y23200D01*
X40050Y23300D01*
X40850D01*
X41050Y23100D01*
Y22800D02*
Y23100D01*
X26450Y20295D02*
Y20705D01*
Y19295D02*
Y19705D01*
X19355Y17000D02*
X19400Y16955D01*
X20041D01*
X20087Y17000D01*
X19400Y17545D02*
X20255D01*
X20500Y17300D01*
Y16700D02*
Y17300D01*
Y16700D02*
X20574Y16626D01*
X20913D01*
X18250Y15500D02*
X19355D01*
X19400Y15545D01*
X20041D01*
X20087Y15500D01*
X19400Y14955D02*
X20742D01*
X20913Y15126D01*
X20913Y15126D01*
X21837D01*
Y14813D02*
Y15126D01*
Y14813D02*
X22050Y14600D01*
X20913Y16626D02*
X21837D01*
X20913Y16626D02*
X20913Y16626D01*
X20255Y17545D02*
X20609Y17900D01*
X21837Y17374D02*
X23426D01*
X23587Y17213D01*
Y17000D02*
Y17213D01*
X22855Y16500D02*
Y16809D01*
X22663Y17000D02*
X22855Y16809D01*
X21287Y17000D02*
X22663D01*
X20913Y17374D02*
X21287Y17000D01*
X20913Y15874D02*
X21287Y15500D01*
X22663D01*
X22855Y15309D01*
Y15000D02*
Y15309D01*
X21837Y15874D02*
X23213D01*
X23587Y15500D01*
X23445Y15000D02*
Y15359D01*
X23587Y15500D01*
X23445Y16500D02*
Y16859D01*
X23587Y17000D01*
X26355Y17150D02*
X27183D01*
X26250Y17045D02*
X26355Y17150D01*
X26803Y16953D02*
X27183D01*
X26305Y16455D02*
X26803Y16953D01*
X26250Y16455D02*
X26305D01*
X27183Y15876D02*
Y16756D01*
Y15876D02*
X27359Y15700D01*
X28817Y17150D02*
X29605D01*
X29650Y17105D01*
X28817Y16953D02*
X29498D01*
X29650Y17105D01*
X28817Y17347D02*
X29347D01*
X29500Y17500D01*
X29550D01*
X28817Y17544D02*
X29173Y17900D01*
X30195Y17050D02*
Y17495D01*
X30200Y17500D01*
X31349Y16655D02*
X31369Y16674D01*
X32431D02*
X32979D01*
X33000Y16695D01*
X33550D01*
X32195Y16910D02*
Y17300D01*
Y16910D02*
X32431Y16674D01*
Y15518D02*
Y15926D01*
Y15518D02*
X32450Y15500D01*
X33000Y16105D02*
X33550D01*
Y15750D02*
Y16105D01*
X26400Y14300D02*
Y14769D01*
X18250Y20750D02*
X20087D01*
X20913Y18876D02*
X21463D01*
X21837Y19250D01*
X20913Y19624D02*
X22663D01*
X23037Y19250D01*
X23455D01*
X20913Y20376D02*
X21463D01*
X21837Y20750D01*
X20913Y21124D02*
X22663D01*
X23131D01*
X23455Y20800D01*
X22663Y20376D02*
X23206D01*
X23326Y20256D01*
Y19744D02*
X23606D01*
X23750Y19600D01*
X22663Y18876D02*
X23626D01*
X23750Y19000D01*
Y19600D01*
X23626Y18876D02*
X24463D01*
X24837Y19250D01*
X24074Y19279D02*
Y19744D01*
X24045Y19250D02*
X24074Y19279D01*
Y20256D02*
Y20771D01*
X24045Y20800D02*
X24074Y20771D01*
X23326Y20256D02*
X23506D01*
X23750Y20500D01*
Y21100D01*
X23850Y21200D01*
X24750D01*
X24837Y21113D01*
Y20750D02*
Y21113D01*
X25250Y19289D02*
Y19963D01*
Y19289D02*
X25663Y18876D01*
X26450Y19705D02*
X26617Y19872D01*
X27384D01*
X26617Y20128D02*
X27384D01*
X26450Y20295D02*
X26617Y20128D01*
X26250Y18500D02*
X26450Y18700D01*
X21289Y18500D02*
X26250D01*
X20913Y18876D02*
X21289Y18500D01*
X26250Y21500D02*
X26450Y21300D01*
X20650Y21500D02*
X26250D01*
X20500Y21350D02*
X20650Y21500D01*
X20500Y20500D02*
Y21350D01*
Y20500D02*
X20624Y20376D01*
X20913D01*
X25663Y19337D02*
Y19624D01*
Y19337D02*
X25700Y19300D01*
X25663Y20813D02*
Y21124D01*
X25650Y20800D02*
X25663Y20813D01*
X25250Y19963D02*
X25663Y20376D01*
X24413Y17063D02*
Y17374D01*
X24400Y17050D02*
X24413Y17063D01*
X24400Y15861D02*
X24413Y15874D01*
X24400Y15550D02*
Y15861D01*
X24000Y15250D02*
X24150Y15100D01*
X24176Y15126D01*
X24413D01*
X24176Y16626D02*
X24413D01*
X24000Y16450D02*
X24176Y16626D01*
X24000Y15250D02*
Y16250D01*
Y16450D01*
X22050Y14600D02*
X24600D01*
X24900Y14900D01*
X20609Y17900D02*
X24700D01*
X25056Y17544D01*
X27183D01*
X24900Y14900D02*
Y17150D01*
X25097Y17347D01*
X27183D01*
X27384Y19316D02*
Y19616D01*
Y19316D02*
X27400Y19300D01*
X27384Y20384D02*
Y20634D01*
X27750Y21000D01*
X27955D01*
X28545D02*
X28800D01*
X29116Y20684D01*
Y20384D02*
Y20684D01*
Y19872D02*
X30722D01*
X30850Y20000D01*
X29116Y19616D02*
X29779D01*
X29800Y19595D01*
X30350D01*
X30900D01*
X29800Y20695D02*
Y21050D01*
Y20695D02*
X30350D01*
X33634Y19966D02*
X33650Y19950D01*
Y19650D02*
Y19950D01*
X33072Y20478D02*
X33634D01*
X33000Y20550D02*
X33072Y20478D01*
X33000Y20550D02*
Y20650D01*
X33084Y20734D01*
X33634D01*
Y21134D01*
X33850Y21350D01*
X34205D01*
X34795Y20055D02*
Y21350D01*
X35945D02*
X36300D01*
X35945D02*
Y21900D01*
X34795Y20055D02*
X34884Y19966D01*
X35366D01*
X31737Y20226D02*
X33630D01*
X33634Y20222D01*
X31737Y19618D02*
Y20226D01*
Y19618D02*
X31755Y19600D01*
X32345D02*
X32650D01*
X32104Y20600D02*
X32563D01*
X32295Y21600D02*
X32650D01*
X31900Y15245D02*
Y17700D01*
X31700Y17900D02*
X31900Y17700D01*
X29173Y17900D02*
X31700D01*
X31355Y15912D02*
X31369Y15926D01*
X31355Y15200D02*
Y15912D01*
X30831Y16674D02*
X31369D01*
X30800Y16705D02*
X30831Y16674D01*
X31050Y16300D02*
X31369D01*
X30900Y16150D02*
X31050Y16300D01*
X30800Y17295D02*
Y17600D01*
X32287Y18400D02*
X32887Y17800D01*
X29950Y18400D02*
X32287D01*
X29800Y18550D02*
X29950Y18400D01*
X29800Y18550D02*
Y19005D01*
X30327Y20128D02*
X30350Y20105D01*
X28728Y20128D02*
X29116D01*
X28550Y19950D02*
X28728Y20128D01*
X28550Y19200D02*
Y19950D01*
Y19200D02*
X28745Y19005D01*
X29800D01*
X29116Y20128D02*
X30327D01*
X33713Y14526D02*
X34321D01*
X34400Y14605D01*
X32887Y14313D02*
Y14900D01*
X35355Y21350D02*
Y21900D01*
Y20745D02*
Y21350D01*
Y20745D02*
X35366Y20734D01*
X31737Y20974D02*
Y21568D01*
X31705Y21600D02*
X31737Y21568D01*
X35874Y16576D02*
Y16987D01*
Y16576D02*
X35900Y16550D01*
X35168Y14605D02*
X35450Y14887D01*
X34400Y14605D02*
X35168D01*
X35191Y17505D02*
X35500Y17813D01*
X34400Y17505D02*
X35191D01*
X33713Y17426D02*
X34400D01*
X35126Y16576D02*
Y16987D01*
X35100Y16550D02*
X35126Y16576D01*
X35874Y15713D02*
Y16124D01*
X35900Y16150D01*
X35126Y15713D02*
Y16124D01*
X35100Y16150D02*
X35126Y16124D01*
X32887Y14313D02*
X33100Y14100D01*
X35800D01*
X36650Y14950D01*
X31624Y20974D02*
X31737D01*
X34500Y19900D02*
X36650Y17750D01*
Y14950D02*
Y17750D01*
X35366Y20222D02*
X35883D01*
X36050Y20055D01*
X36600D01*
X35366Y20478D02*
X35883D01*
X36050Y20645D01*
X36600D02*
X37150D01*
Y19750D02*
Y20055D01*
X35366Y19966D02*
X37000Y18332D01*
X33705Y19005D02*
X34205Y19505D01*
Y21350D01*
X30350Y18700D02*
Y19005D01*
X31705Y21600D02*
X32005Y21900D01*
X34500D01*
X35355D01*
X34500Y19900D02*
Y21900D01*
X36050Y20645D02*
X36405Y21000D01*
X37800D01*
X37900Y21100D01*
Y21800D02*
X38006Y21906D01*
X38333D01*
X36939Y21394D02*
X37467D01*
X36450Y21883D02*
Y22200D01*
X36350Y22300D02*
X36450Y22200D01*
X35450Y22300D02*
X36350D01*
X35355Y22205D02*
X35450Y22300D01*
X35355Y21900D02*
Y22205D01*
X36450Y21883D02*
X36939Y21394D01*
X37467Y21906D02*
Y22283D01*
X37200Y22550D02*
X37467Y22283D01*
X31700Y22550D02*
X37200D01*
X31250Y22100D02*
X31700Y22550D01*
X31250Y19005D02*
Y22100D01*
X36900Y21945D02*
Y22250D01*
X38254Y15704D02*
X38959D01*
X38250Y15700D02*
X38254Y15704D01*
X38253Y16097D02*
X38959D01*
X38459Y16491D02*
X38959D01*
X38250Y16700D02*
X38459Y16491D01*
X38250Y16700D02*
Y21311D01*
X38333Y21394D01*
X37800Y16105D02*
X38245D01*
X38253Y16097D01*
X37800Y15695D02*
X38245D01*
X38250Y15700D01*
X30850Y20000D02*
Y21350D01*
X30650Y21550D02*
X30850Y21350D01*
X28450Y21550D02*
X30650D01*
X28250Y21350D02*
X28450Y21550D01*
X28250Y18500D02*
Y21350D01*
X37000Y14850D02*
Y18332D01*
X35700Y13550D02*
X37000Y14850D01*
X39974Y13624D02*
Y14317D01*
X39600Y13250D02*
X39974Y13624D01*
X28250Y13250D02*
X39600D01*
X40368Y13418D02*
Y14317D01*
X39950Y13000D02*
X40368Y13418D01*
X31250Y12950D02*
Y13000D01*
X39950D01*
X30900Y19005D02*
X31250D01*
X33705D01*
X40762Y13362D02*
Y14317D01*
X40050Y12650D02*
X40762Y13362D01*
X37250Y12650D02*
X40050D01*
X37250Y13550D02*
Y19300D01*
X37900Y19950D01*
Y21100D01*
Y21800D01*
X18700Y13505D02*
X19350D01*
X19300Y13550D02*
X35700D01*
X17700Y18600D02*
X18300D01*
X18800Y18100D01*
Y17250D02*
Y18100D01*
Y17250D02*
X19050Y17000D01*
X19355D01*
X17700Y16050D02*
Y17600D01*
Y16050D02*
X18250Y15500D01*
X17700Y18600D02*
Y20200D01*
X18250Y20750D01*
X19350Y19250D02*
X20087D01*
X17795Y15000D02*
X18700Y14095D01*
X17000Y15000D02*
X17795D01*
X39581Y21483D02*
Y22385D01*
X39595Y22400D01*
Y22755D01*
X30850Y21350D02*
Y22150D01*
X30750Y22250D02*
X30850Y22150D01*
X19000Y21500D02*
X20750Y23250D01*
X39100D01*
X39595Y22755D01*
X38333Y21906D02*
Y22667D01*
X38250Y22750D02*
X38333Y22667D01*
D28*
X27650Y22400D02*
D03*
D29*
X26650D02*
D03*
D30*
X17700Y17600D02*
D03*
Y18600D02*
D03*
D31*
X38250Y22750D02*
D03*
X30750Y22250D02*
D03*
D32*
X42550Y22550D02*
D03*
X40550Y22150D02*
D03*
Y22950D02*
D03*
D33*
X42750Y20950D02*
D03*
X34800Y18100D02*
D03*
X39950Y23150D02*
D03*
X29550Y17500D02*
D03*
X30200D02*
D03*
X32450Y15500D02*
D03*
X33550Y15750D02*
D03*
X26400Y14300D02*
D03*
X25700Y19300D02*
D03*
X25650Y20800D02*
D03*
X25250Y19963D02*
D03*
X24400Y17050D02*
D03*
Y15550D02*
D03*
X24000Y16250D02*
D03*
X27400Y19300D02*
D03*
X29800Y21050D02*
D03*
X33650Y19650D02*
D03*
X36300Y21350D02*
D03*
X32650Y19600D02*
D03*
X32104Y20600D02*
D03*
X32650Y21600D02*
D03*
X30900Y16150D02*
D03*
X25500Y16450D02*
D03*
Y15250D02*
D03*
Y15850D02*
D03*
X30800Y17600D02*
D03*
X35900Y16550D02*
D03*
X35100D02*
D03*
X35900Y16150D02*
D03*
X35100D02*
D03*
X37150Y19750D02*
D03*
X36300Y15300D02*
D03*
X30350Y18700D02*
D03*
X36900Y22250D02*
D03*
X38250Y15700D02*
D03*
X38253Y16097D02*
D03*
X28250Y18500D02*
D03*
Y13250D02*
D03*
X31250Y12950D02*
D03*
Y19000D02*
D03*
X37250Y12650D02*
D03*
Y13550D02*
D03*
X41943Y13607D02*
D03*
X43250Y23050D02*
D03*
X19350Y19250D02*
D03*
X19000Y21500D02*
D03*
D34*
X39000Y21650D02*
D03*
D35*
X28000Y17367D02*
D03*
Y16933D02*
D03*
D36*
X17300Y13300D02*
D03*
X45200Y22450D02*
D03*
X17300D02*
D03*
X45200Y13300D02*
D03*
D37*
X17000Y15000D02*
D03*
M02*
