%FSLAX24Y24*%
%MOIN*%
G70*
G01*
G75*
G04 Layer_Physical_Order=2*
G04 Layer_Color=16711680*
%ADD10R,0.0354X0.0197*%
%ADD11R,0.0197X0.0354*%
%ADD12O,0.0571X0.0177*%
%ADD13R,0.0512X0.0236*%
%ADD14R,0.0236X0.0165*%
%ADD15R,0.0236X0.0512*%
%ADD16R,0.0413X0.0236*%
%ADD17R,0.1102X0.0492*%
%ADD18O,0.0630X0.0118*%
%ADD19R,0.0661X0.0740*%
%ADD20R,0.0512X0.0512*%
%ADD21R,0.0669X0.0433*%
%ADD22C,0.0310*%
%ADD23R,0.0374X0.0177*%
%ADD24R,0.0276X0.0591*%
%ADD25R,0.0591X0.0276*%
%ADD26C,0.0150*%
%ADD27C,0.0120*%
%ADD28R,0.0591X0.0591*%
%ADD29C,0.0591*%
%ADD30C,0.0709*%
%ADD31C,0.0661*%
%ADD32C,0.0390*%
%ADD33C,0.0280*%
%ADD34C,0.0400*%
%ADD35C,0.0197*%
%ADD36C,0.1575*%
%ADD37C,0.0600*%
%ADD38R,0.0358X0.1433*%
G36*
X17057Y18455D02*
Y17745D01*
X17007Y17735D01*
X16993Y17769D01*
X16939Y17839D01*
X16869Y17893D01*
X16788Y17927D01*
X16700Y17938D01*
X16612Y17927D01*
X16531Y17893D01*
X16461Y17839D01*
X16407Y17769D01*
X16402Y17757D01*
X16352Y17767D01*
Y18433D01*
X16402Y18443D01*
X16407Y18431D01*
X16461Y18361D01*
X16531Y18307D01*
X16612Y18273D01*
X16700Y18262D01*
X16788Y18273D01*
X16869Y18307D01*
X16939Y18361D01*
X16993Y18431D01*
X17007Y18465D01*
X17057Y18455D01*
D02*
G37*
G36*
X25950Y19325D02*
X25902Y19320D01*
X25901Y19320D01*
X25900Y19320D01*
X25900Y19320D01*
X25899Y19324D01*
X25898Y19328D01*
X25889Y19375D01*
X25888Y19378D01*
X25844Y19444D01*
X25778Y19488D01*
X25700Y19504D01*
X25622Y19488D01*
X25556Y19444D01*
X25512Y19378D01*
X25496Y19300D01*
X25512Y19222D01*
X25556Y19156D01*
X25622Y19112D01*
X25700Y19096D01*
X25778Y19112D01*
X25844Y19156D01*
X25888Y19222D01*
X25889Y19225D01*
X25898Y19272D01*
X25899Y19276D01*
X25900Y19280D01*
X25900Y19280D01*
X25901Y19280D01*
X25902Y19280D01*
X25950Y19275D01*
Y14950D01*
X24750D01*
Y15650D01*
X24574D01*
X24544Y15694D01*
X24478Y15738D01*
X24400Y15754D01*
X24322Y15738D01*
X24256Y15694D01*
X24226Y15650D01*
X24143D01*
Y16105D01*
X24144Y16106D01*
X24188Y16172D01*
X24204Y16250D01*
X24188Y16328D01*
X24144Y16394D01*
X24078Y16438D01*
X24000Y16454D01*
X23922Y16438D01*
X23856Y16394D01*
X23812Y16328D01*
X23796Y16250D01*
X23812Y16172D01*
X23856Y16106D01*
X23857Y16105D01*
Y15650D01*
X19700D01*
Y19750D01*
X25950D01*
Y19325D01*
D02*
G37*
G36*
X43000Y21300D02*
X39441D01*
Y18293D01*
X39406Y18258D01*
X34923D01*
X34878Y18288D01*
X34800Y18304D01*
X34722Y18288D01*
X34656Y18244D01*
X34612Y18178D01*
X34596Y18100D01*
X34612Y18022D01*
X34656Y17956D01*
X34722Y17912D01*
X34800Y17896D01*
X34878Y17912D01*
X34923Y17942D01*
X39441D01*
X39441Y14500D01*
X43000Y14500D01*
Y13773D01*
X42835Y13608D01*
X42165D01*
X42142Y13632D01*
X42131Y13685D01*
X42087Y13751D01*
X42021Y13795D01*
X41943Y13811D01*
X41865Y13795D01*
X41799Y13751D01*
X41755Y13685D01*
X41739Y13607D01*
X41755Y13529D01*
X41799Y13463D01*
X41865Y13419D01*
X41918Y13408D01*
X41988Y13338D01*
X42040Y13304D01*
X42100Y13292D01*
X42900D01*
X42950Y13302D01*
X43000Y13275D01*
Y12352D01*
X16352D01*
Y17433D01*
X16402Y17443D01*
X16407Y17431D01*
X16461Y17361D01*
X16531Y17307D01*
X16612Y17273D01*
X16700Y17262D01*
X16788Y17273D01*
X16869Y17307D01*
X16939Y17361D01*
X16993Y17431D01*
X17007Y17465D01*
X17057Y17455D01*
Y16050D01*
X17057Y16050D01*
X17068Y15995D01*
X17099Y15949D01*
X19899Y13149D01*
X19945Y13118D01*
X20000Y13107D01*
X20000Y13107D01*
X23700D01*
X23700Y13107D01*
X23755Y13118D01*
X23801Y13149D01*
X24101Y13449D01*
X24101Y13449D01*
X24132Y13495D01*
X24143Y13550D01*
X24143Y13550D01*
Y15413D01*
X24193Y15428D01*
X24227Y15377D01*
X24306Y15324D01*
X24360Y15313D01*
Y15550D01*
X24440D01*
Y15313D01*
X24494Y15324D01*
X24573Y15377D01*
X24626Y15456D01*
X24635Y15502D01*
X24685Y15497D01*
Y14950D01*
X24704Y14904D01*
X24750Y14885D01*
X25950D01*
X25996Y14904D01*
X26015Y14950D01*
Y19275D01*
X26007Y19296D01*
X26005Y19300D01*
X26007Y19304D01*
X26015Y19325D01*
Y19750D01*
X25996Y19796D01*
X25950Y19815D01*
X25452D01*
X25426Y19864D01*
X25427Y19868D01*
X25438Y19885D01*
X25440Y19895D01*
X25447Y19907D01*
X31541D01*
X34896Y16552D01*
X34896Y16550D01*
X34912Y16472D01*
X34956Y16406D01*
X34966Y16399D01*
Y16349D01*
X34927Y16323D01*
X34874Y16244D01*
X34863Y16190D01*
X35337D01*
X35326Y16244D01*
X35273Y16323D01*
X35234Y16349D01*
Y16399D01*
X35244Y16406D01*
X35288Y16472D01*
X35304Y16550D01*
X35304Y16552D01*
X35609Y16857D01*
X37291D01*
X38049Y16099D01*
X38049Y16097D01*
X38064Y16019D01*
X38109Y15953D01*
X38144Y15930D01*
Y15870D01*
X38132Y15862D01*
X38106Y15844D01*
X38105Y15843D01*
X38105Y15843D01*
X36409D01*
X36104Y16148D01*
X36104Y16150D01*
X36088Y16228D01*
X36044Y16294D01*
X36034Y16301D01*
Y16351D01*
X36073Y16377D01*
X36126Y16456D01*
X36137Y16510D01*
X35663D01*
X35674Y16456D01*
X35727Y16377D01*
X35766Y16351D01*
Y16301D01*
X35756Y16294D01*
X35712Y16228D01*
X35696Y16150D01*
X35712Y16072D01*
X35756Y16006D01*
X35822Y15962D01*
X35900Y15946D01*
X35902Y15946D01*
X36249Y15599D01*
X36249Y15599D01*
X36295Y15568D01*
X36350Y15557D01*
X36350Y15557D01*
X38105D01*
X38106Y15556D01*
X38172Y15512D01*
X38250Y15496D01*
X38328Y15512D01*
X38394Y15556D01*
X38438Y15622D01*
X38454Y15700D01*
X38438Y15778D01*
X38394Y15844D01*
X38359Y15868D01*
Y15928D01*
X38397Y15953D01*
X38441Y16019D01*
X38457Y16097D01*
X38441Y16175D01*
X38397Y16241D01*
X38331Y16286D01*
X38253Y16301D01*
X38251Y16301D01*
X37451Y17101D01*
X37405Y17132D01*
X37350Y17143D01*
X37350Y17143D01*
X35550D01*
X35550Y17143D01*
X35495Y17132D01*
X35449Y17101D01*
X35449Y17101D01*
X35102Y16754D01*
X35100Y16754D01*
X35098Y16754D01*
X32501Y19351D01*
X32533Y19389D01*
X32556Y19374D01*
X32610Y19363D01*
Y19560D01*
X32413D01*
X32424Y19506D01*
X32439Y19483D01*
X32401Y19451D01*
X31701Y20151D01*
X31655Y20182D01*
X31600Y20193D01*
X31600Y20193D01*
X25337D01*
X25337Y20193D01*
X25283Y20182D01*
X25258Y20165D01*
X25250Y20167D01*
X25172Y20151D01*
X25106Y20107D01*
X25062Y20041D01*
X25046Y19963D01*
X25062Y19885D01*
X25075Y19865D01*
X25048Y19815D01*
X19700D01*
X19654Y19796D01*
X19635Y19750D01*
Y15650D01*
X19654Y15604D01*
X19700Y15585D01*
X23857D01*
Y13609D01*
X23641Y13393D01*
X20059D01*
X17343Y16109D01*
Y17307D01*
X17390Y17323D01*
X17405Y17305D01*
X17491Y17238D01*
X17592Y17196D01*
X17700Y17182D01*
X17808Y17196D01*
X17909Y17238D01*
X17996Y17305D01*
X18062Y17391D01*
X18104Y17492D01*
X18118Y17600D01*
X18104Y17708D01*
X18076Y17774D01*
X19348Y19046D01*
X19350Y19046D01*
X19428Y19062D01*
X19494Y19106D01*
X19538Y19172D01*
X19554Y19250D01*
X19538Y19328D01*
X19494Y19394D01*
X19428Y19438D01*
X19350Y19454D01*
X19272Y19438D01*
X19206Y19394D01*
X19162Y19328D01*
X19146Y19250D01*
X19146Y19248D01*
X17874Y17976D01*
X17808Y18004D01*
X17700Y18018D01*
X17592Y18004D01*
X17491Y17962D01*
X17405Y17895D01*
X17390Y17877D01*
X17343Y17893D01*
Y18307D01*
X17390Y18323D01*
X17405Y18305D01*
X17491Y18238D01*
X17592Y18196D01*
X17700Y18182D01*
X17808Y18196D01*
X17909Y18238D01*
X17996Y18305D01*
X18062Y18391D01*
X18104Y18492D01*
X18118Y18600D01*
X18104Y18708D01*
X18062Y18809D01*
X17996Y18895D01*
X17909Y18962D01*
X17808Y19004D01*
X17700Y19018D01*
X17592Y19004D01*
X17491Y18962D01*
X17405Y18895D01*
X17390Y18877D01*
X17343Y18893D01*
Y19641D01*
X18998Y21296D01*
X19000Y21296D01*
X19078Y21312D01*
X19144Y21356D01*
X19188Y21422D01*
X19204Y21500D01*
X19188Y21578D01*
X19144Y21644D01*
X19078Y21688D01*
X19000Y21704D01*
X18922Y21688D01*
X18856Y21644D01*
X18812Y21578D01*
X18796Y21500D01*
X18796Y21498D01*
X17099Y19801D01*
X17068Y19755D01*
X17057Y19700D01*
X17057Y19700D01*
Y18745D01*
X17007Y18735D01*
X16993Y18769D01*
X16939Y18839D01*
X16869Y18893D01*
X16788Y18927D01*
X16700Y18938D01*
X16612Y18927D01*
X16531Y18893D01*
X16461Y18839D01*
X16407Y18769D01*
X16402Y18757D01*
X16352Y18767D01*
Y23398D01*
X39800D01*
X39815Y23348D01*
X39777Y23323D01*
X39724Y23244D01*
X39713Y23190D01*
X40187D01*
X40176Y23244D01*
X40123Y23323D01*
X40085Y23348D01*
X40100Y23398D01*
X43000D01*
Y21300D01*
D02*
G37*
%LPC*%
G36*
X27960Y16893D02*
X27806D01*
X27813Y16856D01*
X27857Y16790D01*
X27923Y16747D01*
X27960Y16739D01*
Y16893D01*
D02*
G37*
G36*
X35860Y16787D02*
X35806Y16776D01*
X35727Y16723D01*
X35674Y16644D01*
X35663Y16590D01*
X35860D01*
Y16787D01*
D02*
G37*
G36*
X35940D02*
Y16590D01*
X36137D01*
X36126Y16644D01*
X36073Y16723D01*
X35994Y16776D01*
X35940Y16787D01*
D02*
G37*
G36*
X23310Y17530D02*
X23071D01*
Y16753D01*
X23310D01*
Y17530D01*
D02*
G37*
G36*
X23629D02*
X23390D01*
Y16753D01*
X23629D01*
Y17530D01*
D02*
G37*
G36*
X20410D02*
X20171D01*
Y16753D01*
X20410D01*
Y17530D01*
D02*
G37*
G36*
X20729D02*
X20490D01*
Y16753D01*
X20729D01*
Y17530D01*
D02*
G37*
G36*
X25540Y16687D02*
Y16490D01*
X25737D01*
X25726Y16544D01*
X25673Y16623D01*
X25594Y16676D01*
X25540Y16687D01*
D02*
G37*
G36*
X30860Y16110D02*
X30663D01*
X30674Y16056D01*
X30727Y15977D01*
X30806Y15924D01*
X30860Y15913D01*
Y16110D01*
D02*
G37*
G36*
Y16387D02*
X30806Y16376D01*
X30727Y16323D01*
X30674Y16244D01*
X30663Y16190D01*
X30860D01*
Y16387D01*
D02*
G37*
G36*
X35060Y16110D02*
X34863D01*
X34874Y16056D01*
X34927Y15977D01*
X35006Y15924D01*
X35060Y15913D01*
Y16110D01*
D02*
G37*
G36*
X35337D02*
X35140D01*
Y15913D01*
X35194Y15924D01*
X35273Y15977D01*
X35326Y16056D01*
X35337Y16110D01*
D02*
G37*
G36*
X31250Y19204D02*
X31172Y19188D01*
X31106Y19144D01*
X31062Y19078D01*
X31046Y19000D01*
X31062Y18922D01*
X31106Y18856D01*
X31107Y18855D01*
Y16355D01*
X31057Y16334D01*
X30994Y16376D01*
X30940Y16387D01*
Y16150D01*
Y15913D01*
X30994Y15924D01*
X31057Y15966D01*
X31107Y15945D01*
Y13095D01*
X31106Y13094D01*
X31062Y13028D01*
X31046Y12950D01*
X31062Y12872D01*
X31106Y12806D01*
X31172Y12762D01*
X31250Y12746D01*
X31328Y12762D01*
X31394Y12806D01*
X31438Y12872D01*
X31454Y12950D01*
X31438Y13028D01*
X31394Y13094D01*
X31393Y13095D01*
Y18855D01*
X31394Y18856D01*
X31438Y18922D01*
X31454Y19000D01*
X31438Y19078D01*
X31394Y19144D01*
X31328Y19188D01*
X31250Y19204D01*
D02*
G37*
G36*
X25460Y16687D02*
X25406Y16676D01*
X25327Y16623D01*
X25274Y16544D01*
X25263Y16490D01*
X25460D01*
Y16687D01*
D02*
G37*
G36*
Y16410D02*
X25263D01*
X25274Y16356D01*
X25327Y16277D01*
X25406Y16224D01*
X25460Y16213D01*
Y16410D01*
D02*
G37*
G36*
X25737D02*
X25540D01*
Y16213D01*
X25594Y16224D01*
X25673Y16277D01*
X25726Y16356D01*
X25737Y16410D01*
D02*
G37*
G36*
X24400Y17254D02*
X24322Y17238D01*
X24256Y17194D01*
X24212Y17128D01*
X24196Y17050D01*
X24212Y16972D01*
X24256Y16906D01*
X24322Y16862D01*
X24400Y16846D01*
X24478Y16862D01*
X24544Y16906D01*
X24588Y16972D01*
X24604Y17050D01*
X24588Y17128D01*
X24544Y17194D01*
X24478Y17238D01*
X24400Y17254D01*
D02*
G37*
G36*
X30240Y17737D02*
Y17540D01*
X30437D01*
X30426Y17594D01*
X30373Y17673D01*
X30294Y17726D01*
X30240Y17737D01*
D02*
G37*
G36*
X28250Y18704D02*
X28172Y18688D01*
X28106Y18644D01*
X28062Y18578D01*
X28046Y18500D01*
X28062Y18422D01*
X28106Y18356D01*
X28107Y18355D01*
Y17589D01*
X28057Y17557D01*
X28040Y17561D01*
Y17367D01*
X28000D01*
Y17327D01*
X27806D01*
X27813Y17289D01*
X27857Y17223D01*
X27923Y17180D01*
X27943Y17175D01*
Y17125D01*
X27923Y17120D01*
X27857Y17077D01*
X27813Y17011D01*
X27806Y16973D01*
X28000D01*
Y16933D01*
X28040D01*
Y16739D01*
X28057Y16743D01*
X28107Y16711D01*
Y13395D01*
X28106Y13394D01*
X28062Y13328D01*
X28046Y13250D01*
X28062Y13172D01*
X28106Y13106D01*
X28172Y13062D01*
X28250Y13046D01*
X28328Y13062D01*
X28394Y13106D01*
X28438Y13172D01*
X28454Y13250D01*
X28438Y13328D01*
X28394Y13394D01*
X28393Y13395D01*
Y18355D01*
X28394Y18356D01*
X28438Y18422D01*
X28454Y18500D01*
X28438Y18578D01*
X28394Y18644D01*
X28328Y18688D01*
X28250Y18704D01*
D02*
G37*
G36*
X29590Y17737D02*
Y17540D01*
X29787D01*
X29776Y17594D01*
X29723Y17673D01*
X29644Y17726D01*
X29590Y17737D01*
D02*
G37*
G36*
X30160D02*
X30106Y17726D01*
X30027Y17673D01*
X29974Y17594D01*
X29963Y17540D01*
X30160D01*
Y17737D01*
D02*
G37*
G36*
X20410Y18747D02*
X20171D01*
Y17970D01*
X20410D01*
Y18747D01*
D02*
G37*
G36*
X20729D02*
X20490D01*
Y17970D01*
X20729D01*
Y18747D01*
D02*
G37*
G36*
X30760Y17837D02*
X30706Y17826D01*
X30627Y17773D01*
X30574Y17694D01*
X30563Y17640D01*
X30760D01*
Y17837D01*
D02*
G37*
G36*
X30840D02*
Y17640D01*
X31037D01*
X31026Y17694D01*
X30973Y17773D01*
X30894Y17826D01*
X30840Y17837D01*
D02*
G37*
G36*
X30160Y17460D02*
X29963D01*
X29974Y17406D01*
X30027Y17327D01*
X30106Y17274D01*
X30160Y17263D01*
Y17460D01*
D02*
G37*
G36*
X30437D02*
X30240D01*
Y17263D01*
X30294Y17274D01*
X30373Y17327D01*
X30426Y17406D01*
X30437Y17460D01*
D02*
G37*
G36*
X29510D02*
X29313D01*
X29324Y17406D01*
X29377Y17327D01*
X29456Y17274D01*
X29510Y17263D01*
Y17460D01*
D02*
G37*
G36*
X29787D02*
X29590D01*
Y17263D01*
X29644Y17274D01*
X29723Y17327D01*
X29776Y17406D01*
X29787Y17460D01*
D02*
G37*
G36*
X27960Y17561D02*
X27923Y17553D01*
X27857Y17510D01*
X27813Y17444D01*
X27806Y17407D01*
X27960D01*
Y17561D01*
D02*
G37*
G36*
X29510Y17737D02*
X29456Y17726D01*
X29377Y17673D01*
X29324Y17594D01*
X29313Y17540D01*
X29510D01*
Y17737D01*
D02*
G37*
G36*
X30760Y17560D02*
X30563D01*
X30574Y17506D01*
X30627Y17427D01*
X30706Y17374D01*
X30760Y17363D01*
Y17560D01*
D02*
G37*
G36*
X31037D02*
X30840D01*
Y17363D01*
X30894Y17374D01*
X30973Y17427D01*
X31026Y17506D01*
X31037Y17560D01*
D02*
G37*
G36*
X23629Y16673D02*
X23390D01*
Y15896D01*
X23629D01*
Y16673D01*
D02*
G37*
G36*
X20729Y15404D02*
X20490D01*
Y14627D01*
X20729D01*
Y15404D01*
D02*
G37*
G36*
X23310D02*
X23071D01*
Y14627D01*
X23310D01*
Y15404D01*
D02*
G37*
G36*
X26440Y14537D02*
Y14340D01*
X26637D01*
X26626Y14394D01*
X26573Y14473D01*
X26494Y14526D01*
X26440Y14537D01*
D02*
G37*
G36*
X20410Y15404D02*
X20171D01*
Y14627D01*
X20410D01*
Y15404D01*
D02*
G37*
G36*
X25460Y15210D02*
X25263D01*
X25274Y15156D01*
X25327Y15077D01*
X25406Y15024D01*
X25460Y15013D01*
Y15210D01*
D02*
G37*
G36*
X25737D02*
X25540D01*
Y15013D01*
X25594Y15024D01*
X25673Y15077D01*
X25726Y15156D01*
X25737Y15210D01*
D02*
G37*
G36*
X23629Y15404D02*
X23390D01*
Y14627D01*
X23629D01*
Y15404D01*
D02*
G37*
G36*
X17000Y15363D02*
X16906Y15351D01*
X16818Y15314D01*
X16743Y15257D01*
X16686Y15182D01*
X16649Y15094D01*
X16637Y15000D01*
X16649Y14906D01*
X16686Y14818D01*
X16743Y14743D01*
X16818Y14686D01*
X16906Y14649D01*
X17000Y14637D01*
X17094Y14649D01*
X17182Y14686D01*
X17257Y14743D01*
X17314Y14818D01*
X17351Y14906D01*
X17363Y15000D01*
X17351Y15094D01*
X17314Y15182D01*
X17257Y15257D01*
X17182Y15314D01*
X17094Y15351D01*
X17000Y15363D01*
D02*
G37*
G36*
X26360Y14537D02*
X26306Y14526D01*
X26227Y14473D01*
X26174Y14394D01*
X26163Y14340D01*
X26360D01*
Y14537D01*
D02*
G37*
G36*
X20410Y14547D02*
X20171D01*
Y13770D01*
X20410D01*
Y14547D01*
D02*
G37*
G36*
X20729D02*
X20490D01*
Y13770D01*
X20729D01*
Y14547D01*
D02*
G37*
G36*
X37250Y13754D02*
X37172Y13738D01*
X37106Y13694D01*
X37062Y13628D01*
X37046Y13550D01*
X37062Y13472D01*
X37106Y13406D01*
X37107Y13405D01*
Y12795D01*
X37106Y12794D01*
X37062Y12728D01*
X37046Y12650D01*
X37062Y12572D01*
X37106Y12506D01*
X37172Y12462D01*
X37250Y12446D01*
X37328Y12462D01*
X37394Y12506D01*
X37438Y12572D01*
X37454Y12650D01*
X37438Y12728D01*
X37394Y12794D01*
X37393Y12795D01*
Y13405D01*
X37394Y13406D01*
X37438Y13472D01*
X37454Y13550D01*
X37438Y13628D01*
X37394Y13694D01*
X37328Y13738D01*
X37250Y13754D01*
D02*
G37*
G36*
X17300Y14152D02*
X17134Y14135D01*
X16974Y14087D01*
X16827Y14008D01*
X16698Y13902D01*
X16592Y13773D01*
X16513Y13626D01*
X16465Y13466D01*
X16449Y13300D01*
X16465Y13134D01*
X16513Y12974D01*
X16592Y12827D01*
X16698Y12698D01*
X16827Y12592D01*
X16974Y12513D01*
X17134Y12465D01*
X17300Y12449D01*
X17466Y12465D01*
X17626Y12513D01*
X17773Y12592D01*
X17902Y12698D01*
X18008Y12827D01*
X18087Y12974D01*
X18135Y13134D01*
X18152Y13300D01*
X18135Y13466D01*
X18087Y13626D01*
X18008Y13773D01*
X17902Y13902D01*
X17773Y14008D01*
X17626Y14087D01*
X17466Y14135D01*
X17300Y14152D01*
D02*
G37*
G36*
X26360Y14260D02*
X26163D01*
X26174Y14206D01*
X26227Y14127D01*
X26306Y14074D01*
X26360Y14063D01*
Y14260D01*
D02*
G37*
G36*
X26637D02*
X26440D01*
Y14063D01*
X26494Y14074D01*
X26573Y14127D01*
X26626Y14206D01*
X26637Y14260D01*
D02*
G37*
G36*
X23310Y14547D02*
X23071D01*
Y13770D01*
X23310D01*
Y14547D01*
D02*
G37*
G36*
X23629D02*
X23390D01*
Y13770D01*
X23629D01*
Y14547D01*
D02*
G37*
G36*
X36300Y15504D02*
X36222Y15488D01*
X36156Y15444D01*
X36112Y15378D01*
X36096Y15300D01*
X36112Y15222D01*
X36156Y15156D01*
X36222Y15112D01*
X36300Y15096D01*
X36378Y15112D01*
X36444Y15156D01*
X36488Y15222D01*
X36504Y15300D01*
X36488Y15378D01*
X36444Y15444D01*
X36378Y15488D01*
X36300Y15504D01*
D02*
G37*
G36*
X33590Y15987D02*
Y15790D01*
X33787D01*
X33776Y15844D01*
X33723Y15923D01*
X33644Y15976D01*
X33590Y15987D01*
D02*
G37*
G36*
X25460Y16087D02*
X25406Y16076D01*
X25327Y16023D01*
X25274Y15944D01*
X25263Y15890D01*
X25460D01*
Y16087D01*
D02*
G37*
G36*
X25737Y15810D02*
X25540D01*
Y15613D01*
X25594Y15624D01*
X25673Y15677D01*
X25726Y15756D01*
X25737Y15810D01*
D02*
G37*
G36*
X33510Y15987D02*
X33456Y15976D01*
X33377Y15923D01*
X33324Y15844D01*
X33313Y15790D01*
X33510D01*
Y15987D01*
D02*
G37*
G36*
X20729Y16673D02*
X20490D01*
Y15896D01*
X20729D01*
Y16673D01*
D02*
G37*
G36*
X23310D02*
X23071D01*
Y15896D01*
X23310D01*
Y16673D01*
D02*
G37*
G36*
X25540Y16087D02*
Y15890D01*
X25737D01*
X25726Y15944D01*
X25673Y16023D01*
X25594Y16076D01*
X25540Y16087D01*
D02*
G37*
G36*
X20410Y16673D02*
X20171D01*
Y15896D01*
X20410D01*
Y16673D01*
D02*
G37*
G36*
X25460Y15810D02*
X25263D01*
X25274Y15756D01*
X25327Y15677D01*
X25406Y15624D01*
X25460Y15613D01*
Y15810D01*
D02*
G37*
G36*
Y15487D02*
X25406Y15476D01*
X25327Y15423D01*
X25274Y15344D01*
X25263Y15290D01*
X25460D01*
Y15487D01*
D02*
G37*
G36*
X25540D02*
Y15290D01*
X25737D01*
X25726Y15344D01*
X25673Y15423D01*
X25594Y15476D01*
X25540Y15487D01*
D02*
G37*
G36*
X32410Y15460D02*
X32213D01*
X32224Y15406D01*
X32277Y15327D01*
X32356Y15274D01*
X32410Y15263D01*
Y15460D01*
D02*
G37*
G36*
X32687D02*
X32490D01*
Y15263D01*
X32544Y15274D01*
X32623Y15327D01*
X32676Y15406D01*
X32687Y15460D01*
D02*
G37*
G36*
X32410Y15737D02*
X32356Y15726D01*
X32277Y15673D01*
X32224Y15594D01*
X32213Y15540D01*
X32410D01*
Y15737D01*
D02*
G37*
G36*
X32490D02*
Y15540D01*
X32687D01*
X32676Y15594D01*
X32623Y15673D01*
X32544Y15726D01*
X32490Y15737D01*
D02*
G37*
G36*
X33510Y15710D02*
X33313D01*
X33324Y15656D01*
X33377Y15577D01*
X33456Y15524D01*
X33510Y15513D01*
Y15710D01*
D02*
G37*
G36*
X33787D02*
X33590D01*
Y15513D01*
X33644Y15524D01*
X33723Y15577D01*
X33776Y15656D01*
X33787Y15710D01*
D02*
G37*
G36*
X36537Y21310D02*
X36340D01*
Y21113D01*
X36394Y21124D01*
X36473Y21177D01*
X36526Y21256D01*
X36537Y21310D01*
D02*
G37*
G36*
X38960Y21610D02*
X38703D01*
X38708Y21572D01*
X38738Y21499D01*
X38786Y21436D01*
X38849Y21388D01*
X38922Y21358D01*
X38960Y21353D01*
Y21610D01*
D02*
G37*
G36*
X29840Y21287D02*
Y21090D01*
X30037D01*
X30026Y21144D01*
X29973Y21223D01*
X29894Y21276D01*
X29840Y21287D01*
D02*
G37*
G36*
X36260Y21310D02*
X36063D01*
X36074Y21256D01*
X36127Y21177D01*
X36206Y21124D01*
X36260Y21113D01*
Y21310D01*
D02*
G37*
G36*
X32887Y21560D02*
X32690D01*
Y21363D01*
X32744Y21374D01*
X32823Y21427D01*
X32876Y21506D01*
X32887Y21560D01*
D02*
G37*
G36*
X36260Y21587D02*
X36206Y21576D01*
X36127Y21523D01*
X36074Y21444D01*
X36063Y21390D01*
X36260D01*
Y21587D01*
D02*
G37*
G36*
X39297Y21610D02*
X39040D01*
Y21353D01*
X39078Y21358D01*
X39151Y21388D01*
X39214Y21436D01*
X39262Y21499D01*
X39292Y21572D01*
X39297Y21610D01*
D02*
G37*
G36*
X32610Y21560D02*
X32413D01*
X32424Y21506D01*
X32477Y21427D01*
X32556Y21374D01*
X32610Y21363D01*
Y21560D01*
D02*
G37*
G36*
X29760Y21287D02*
X29706Y21276D01*
X29627Y21223D01*
X29574Y21144D01*
X29563Y21090D01*
X29760D01*
Y21287D01*
D02*
G37*
G36*
X25610Y21037D02*
X25556Y21026D01*
X25477Y20973D01*
X25424Y20894D01*
X25413Y20840D01*
X25610D01*
Y21037D01*
D02*
G37*
G36*
X25690D02*
Y20840D01*
X25887D01*
X25876Y20894D01*
X25823Y20973D01*
X25744Y21026D01*
X25690Y21037D01*
D02*
G37*
G36*
X29760Y21010D02*
X29563D01*
X29574Y20956D01*
X29627Y20877D01*
X29706Y20824D01*
X29760Y20813D01*
Y21010D01*
D02*
G37*
G36*
X30037D02*
X29840D01*
Y20813D01*
X29894Y20824D01*
X29973Y20877D01*
X30026Y20956D01*
X30037Y21010D01*
D02*
G37*
G36*
X23310Y21730D02*
X23071D01*
Y20953D01*
X23310D01*
Y21730D01*
D02*
G37*
G36*
X23629D02*
X23390D01*
Y20953D01*
X23629D01*
Y21730D01*
D02*
G37*
G36*
X20410D02*
X20171D01*
Y20953D01*
X20410D01*
Y21730D01*
D02*
G37*
G36*
X20729D02*
X20490D01*
Y20953D01*
X20729D01*
Y21730D01*
D02*
G37*
G36*
X36940Y22487D02*
Y22290D01*
X37137D01*
X37126Y22344D01*
X37073Y22423D01*
X36994Y22476D01*
X36940Y22487D01*
D02*
G37*
G36*
X42550Y22810D02*
X42450Y22790D01*
X42366Y22734D01*
X42310Y22650D01*
X42290Y22550D01*
X42310Y22450D01*
X42366Y22366D01*
X42450Y22310D01*
X42550Y22290D01*
X42649Y22310D01*
X42734Y22366D01*
X42790Y22450D01*
X42810Y22550D01*
X42790Y22650D01*
X42734Y22734D01*
X42649Y22790D01*
X42550Y22810D01*
D02*
G37*
G36*
X37137Y22210D02*
X36940D01*
Y22013D01*
X36994Y22024D01*
X37073Y22077D01*
X37126Y22156D01*
X37137Y22210D01*
D02*
G37*
G36*
X36860Y22487D02*
X36806Y22476D01*
X36727Y22423D01*
X36674Y22344D01*
X36663Y22290D01*
X36860D01*
Y22487D01*
D02*
G37*
G36*
X39910Y23110D02*
X39713D01*
X39724Y23056D01*
X39777Y22977D01*
X39856Y22924D01*
X39910Y22913D01*
Y23110D01*
D02*
G37*
G36*
X40187D02*
X39990D01*
Y22913D01*
X40044Y22924D01*
X40123Y22977D01*
X40176Y23056D01*
X40187Y23110D01*
D02*
G37*
G36*
X38250Y23144D02*
X38148Y23131D01*
X38053Y23091D01*
X37971Y23029D01*
X37909Y22947D01*
X37869Y22852D01*
X37856Y22750D01*
X37869Y22648D01*
X37909Y22553D01*
X37971Y22471D01*
X38053Y22409D01*
X38148Y22369D01*
X38250Y22356D01*
X38352Y22369D01*
X38447Y22409D01*
X38529Y22471D01*
X38591Y22553D01*
X38631Y22648D01*
X38644Y22750D01*
X38631Y22852D01*
X38591Y22947D01*
X38529Y23029D01*
X38447Y23091D01*
X38352Y23131D01*
X38250Y23144D01*
D02*
G37*
G36*
X40550Y23210D02*
X40451Y23190D01*
X40366Y23134D01*
X40310Y23049D01*
X40290Y22950D01*
X40310Y22850D01*
X40366Y22766D01*
X40451Y22710D01*
X40550Y22690D01*
X40649Y22710D01*
X40734Y22766D01*
X40790Y22850D01*
X40810Y22950D01*
X40790Y23049D01*
X40734Y23134D01*
X40649Y23190D01*
X40550Y23210D01*
D02*
G37*
G36*
X36860Y22210D02*
X36663D01*
X36674Y22156D01*
X36727Y22077D01*
X36806Y22024D01*
X36860Y22013D01*
Y22210D01*
D02*
G37*
G36*
X32610Y21837D02*
X32556Y21826D01*
X32477Y21773D01*
X32424Y21694D01*
X32413Y21640D01*
X32610D01*
Y21837D01*
D02*
G37*
G36*
X32690D02*
Y21640D01*
X32887D01*
X32876Y21694D01*
X32823Y21773D01*
X32744Y21826D01*
X32690Y21837D01*
D02*
G37*
G36*
X36340Y21587D02*
Y21390D01*
X36537D01*
X36526Y21444D01*
X36473Y21523D01*
X36394Y21576D01*
X36340Y21587D01*
D02*
G37*
G36*
X17300Y23301D02*
X17134Y23285D01*
X16974Y23237D01*
X16827Y23158D01*
X16698Y23052D01*
X16592Y22923D01*
X16513Y22776D01*
X16465Y22616D01*
X16449Y22450D01*
X16465Y22284D01*
X16513Y22124D01*
X16592Y21977D01*
X16698Y21848D01*
X16827Y21742D01*
X16974Y21663D01*
X17134Y21615D01*
X17300Y21598D01*
X17466Y21615D01*
X17626Y21663D01*
X17773Y21742D01*
X17902Y21848D01*
X18008Y21977D01*
X18087Y22124D01*
X18135Y22284D01*
X18152Y22450D01*
X18135Y22616D01*
X18087Y22776D01*
X18008Y22923D01*
X17902Y23052D01*
X17773Y23158D01*
X17626Y23237D01*
X17466Y23285D01*
X17300Y23301D01*
D02*
G37*
G36*
X30750Y22644D02*
X30648Y22631D01*
X30553Y22591D01*
X30471Y22529D01*
X30409Y22447D01*
X30369Y22352D01*
X30356Y22250D01*
X30369Y22148D01*
X30409Y22053D01*
X30471Y21971D01*
X30553Y21909D01*
X30648Y21869D01*
X30750Y21856D01*
X30852Y21869D01*
X30947Y21909D01*
X31029Y21971D01*
X31091Y22053D01*
X31131Y22148D01*
X31144Y22250D01*
X31131Y22352D01*
X31091Y22447D01*
X31029Y22529D01*
X30947Y22591D01*
X30852Y22631D01*
X30750Y22644D01*
D02*
G37*
G36*
X40550Y22410D02*
X40451Y22390D01*
X40366Y22334D01*
X40310Y22250D01*
X40290Y22150D01*
X40310Y22050D01*
X40366Y21966D01*
X40451Y21910D01*
X40550Y21890D01*
X40649Y21910D01*
X40734Y21966D01*
X40790Y22050D01*
X40810Y22150D01*
X40790Y22250D01*
X40734Y22334D01*
X40649Y22390D01*
X40550Y22410D01*
D02*
G37*
G36*
X38960Y21947D02*
X38922Y21942D01*
X38849Y21912D01*
X38786Y21864D01*
X38738Y21801D01*
X38708Y21728D01*
X38703Y21690D01*
X38960D01*
Y21947D01*
D02*
G37*
G36*
X39040D02*
Y21690D01*
X39297D01*
X39292Y21728D01*
X39262Y21801D01*
X39214Y21864D01*
X39151Y21912D01*
X39078Y21942D01*
X39040Y21947D01*
D02*
G37*
G36*
X32144Y20837D02*
Y20640D01*
X32341D01*
X32330Y20694D01*
X32277Y20773D01*
X32198Y20826D01*
X32144Y20837D01*
D02*
G37*
G36*
X27637Y19260D02*
X27440D01*
Y19063D01*
X27494Y19074D01*
X27573Y19127D01*
X27626Y19206D01*
X27637Y19260D01*
D02*
G37*
G36*
X27360Y19537D02*
X27306Y19526D01*
X27227Y19473D01*
X27174Y19394D01*
X27163Y19340D01*
X27360D01*
Y19537D01*
D02*
G37*
G36*
X23629Y19604D02*
X23390D01*
Y18827D01*
X23629D01*
Y19604D01*
D02*
G37*
G36*
X27360Y19260D02*
X27163D01*
X27174Y19206D01*
X27227Y19127D01*
X27306Y19074D01*
X27360Y19063D01*
Y19260D01*
D02*
G37*
G36*
X33610Y19610D02*
X33413D01*
X33424Y19556D01*
X33477Y19477D01*
X33556Y19424D01*
X33610Y19413D01*
Y19610D01*
D02*
G37*
G36*
X33887D02*
X33690D01*
Y19413D01*
X33744Y19424D01*
X33823Y19477D01*
X33876Y19556D01*
X33887Y19610D01*
D02*
G37*
G36*
X27440Y19537D02*
Y19340D01*
X27637D01*
X27626Y19394D01*
X27573Y19473D01*
X27494Y19526D01*
X27440Y19537D01*
D02*
G37*
G36*
X32887Y19560D02*
X32690D01*
Y19363D01*
X32744Y19374D01*
X32823Y19427D01*
X32876Y19506D01*
X32887Y19560D01*
D02*
G37*
G36*
X23310Y19604D02*
X23071D01*
Y18827D01*
X23310D01*
Y19604D01*
D02*
G37*
G36*
X30310Y18660D02*
X30113D01*
X30124Y18606D01*
X30177Y18527D01*
X30256Y18474D01*
X30310Y18463D01*
Y18660D01*
D02*
G37*
G36*
X30587D02*
X30390D01*
Y18463D01*
X30444Y18474D01*
X30523Y18527D01*
X30576Y18606D01*
X30587Y18660D01*
D02*
G37*
G36*
X23310Y18747D02*
X23071D01*
Y17970D01*
X23310D01*
Y18747D01*
D02*
G37*
G36*
X23629D02*
X23390D01*
Y17970D01*
X23629D01*
Y18747D01*
D02*
G37*
G36*
X20410Y19604D02*
X20171D01*
Y18827D01*
X20410D01*
Y19604D01*
D02*
G37*
G36*
X20729D02*
X20490D01*
Y18827D01*
X20729D01*
Y19604D01*
D02*
G37*
G36*
X30310Y18937D02*
X30256Y18926D01*
X30177Y18873D01*
X30124Y18794D01*
X30113Y18740D01*
X30310D01*
Y18937D01*
D02*
G37*
G36*
X30390D02*
Y18740D01*
X30587D01*
X30576Y18794D01*
X30523Y18873D01*
X30444Y18926D01*
X30390Y18937D01*
D02*
G37*
G36*
X23629Y20873D02*
X23390D01*
Y20096D01*
X23629D01*
Y20873D01*
D02*
G37*
G36*
X32064Y20560D02*
X31868D01*
X31878Y20506D01*
X31931Y20427D01*
X32011Y20374D01*
X32064Y20363D01*
Y20560D01*
D02*
G37*
G36*
X20729Y20873D02*
X20490D01*
Y20096D01*
X20729D01*
Y20873D01*
D02*
G37*
G36*
X23310D02*
X23071D01*
Y20096D01*
X23310D01*
Y20873D01*
D02*
G37*
G36*
X25887Y20760D02*
X25690D01*
Y20563D01*
X25744Y20574D01*
X25823Y20627D01*
X25876Y20706D01*
X25887Y20760D01*
D02*
G37*
G36*
X32064Y20837D02*
X32011Y20826D01*
X31931Y20773D01*
X31878Y20694D01*
X31868Y20640D01*
X32064D01*
Y20837D01*
D02*
G37*
G36*
X32341Y20560D02*
X32144D01*
Y20363D01*
X32198Y20374D01*
X32277Y20427D01*
X32330Y20506D01*
X32341Y20560D01*
D02*
G37*
G36*
X25610Y20760D02*
X25413D01*
X25424Y20706D01*
X25477Y20627D01*
X25556Y20574D01*
X25610Y20563D01*
Y20760D01*
D02*
G37*
G36*
X20410Y20873D02*
X20171D01*
Y20096D01*
X20410D01*
Y20873D01*
D02*
G37*
G36*
X32610Y19837D02*
X32556Y19826D01*
X32477Y19773D01*
X32424Y19694D01*
X32413Y19640D01*
X32610D01*
Y19837D01*
D02*
G37*
G36*
X32690D02*
Y19640D01*
X32887D01*
X32876Y19694D01*
X32823Y19773D01*
X32744Y19826D01*
X32690Y19837D01*
D02*
G37*
G36*
X37110Y19710D02*
X36913D01*
X36924Y19656D01*
X36977Y19577D01*
X37056Y19524D01*
X37110Y19513D01*
Y19710D01*
D02*
G37*
G36*
X37387D02*
X37190D01*
Y19513D01*
X37244Y19524D01*
X37323Y19577D01*
X37376Y19656D01*
X37387Y19710D01*
D02*
G37*
G36*
X37110Y19987D02*
X37056Y19976D01*
X36977Y19923D01*
X36924Y19844D01*
X36913Y19790D01*
X37110D01*
Y19987D01*
D02*
G37*
G36*
X37190D02*
Y19790D01*
X37387D01*
X37376Y19844D01*
X37323Y19923D01*
X37244Y19976D01*
X37190Y19987D01*
D02*
G37*
G36*
X33610Y19887D02*
X33556Y19876D01*
X33477Y19823D01*
X33424Y19744D01*
X33413Y19690D01*
X33610D01*
Y19887D01*
D02*
G37*
G36*
X33690D02*
Y19690D01*
X33887D01*
X33876Y19744D01*
X33823Y19823D01*
X33744Y19876D01*
X33690Y19887D01*
D02*
G37*
%LPD*%
D26*
X42750Y18300D02*
Y20950D01*
X42550Y18100D02*
X42750Y18300D01*
X34800Y18100D02*
X42550D01*
X41943Y13607D02*
X42100Y13450D01*
X42900D01*
X43250Y13800D01*
Y23050D01*
D27*
X25337Y20050D02*
X31600D01*
X25250Y19963D02*
X25337Y20050D01*
X31600D02*
X35100Y16550D01*
X35900Y16150D02*
X36350Y15700D01*
X38250D01*
X37350Y17000D02*
X38253Y16097D01*
X35550Y17000D02*
X37350D01*
X35100Y16550D02*
X35550Y17000D01*
X28250Y13250D02*
Y18500D01*
X31250Y12950D02*
Y19000D01*
X37250Y12650D02*
Y13550D01*
X17700Y17600D02*
X19350Y19250D01*
X17200Y19700D02*
X19000Y21500D01*
X17200Y16050D02*
Y19700D01*
Y16050D02*
X20000Y13250D01*
X23700D01*
X24000Y13550D01*
Y16250D01*
D28*
X27650Y22400D02*
D03*
D29*
X26650D02*
D03*
D30*
X17700Y17600D02*
D03*
Y18600D02*
D03*
D31*
X38250Y22750D02*
D03*
X30750Y22250D02*
D03*
D32*
X42550Y22550D02*
D03*
X40550Y22150D02*
D03*
Y22950D02*
D03*
D33*
X42750Y20950D02*
D03*
X34800Y18100D02*
D03*
X39950Y23150D02*
D03*
X29550Y17500D02*
D03*
X30200D02*
D03*
X32450Y15500D02*
D03*
X33550Y15750D02*
D03*
X26400Y14300D02*
D03*
X25700Y19300D02*
D03*
X25650Y20800D02*
D03*
X25250Y19963D02*
D03*
X24400Y17050D02*
D03*
Y15550D02*
D03*
X24000Y16250D02*
D03*
X27400Y19300D02*
D03*
X29800Y21050D02*
D03*
X33650Y19650D02*
D03*
X36300Y21350D02*
D03*
X32650Y19600D02*
D03*
X32104Y20600D02*
D03*
X32650Y21600D02*
D03*
X30900Y16150D02*
D03*
X25500Y16450D02*
D03*
Y15250D02*
D03*
Y15850D02*
D03*
X30800Y17600D02*
D03*
X35900Y16550D02*
D03*
X35100D02*
D03*
X35900Y16150D02*
D03*
X35100D02*
D03*
X37150Y19750D02*
D03*
X36300Y15300D02*
D03*
X30350Y18700D02*
D03*
X36900Y22250D02*
D03*
X38250Y15700D02*
D03*
X38253Y16097D02*
D03*
X28250Y18500D02*
D03*
Y13250D02*
D03*
X31250Y12950D02*
D03*
Y19000D02*
D03*
X37250Y12650D02*
D03*
Y13550D02*
D03*
X41943Y13607D02*
D03*
X43250Y23050D02*
D03*
X19350Y19250D02*
D03*
X19000Y21500D02*
D03*
D34*
X39000Y21650D02*
D03*
D35*
X28000Y17367D02*
D03*
Y16933D02*
D03*
D36*
X17300Y13300D02*
D03*
X45200Y22450D02*
D03*
X17300D02*
D03*
X45200Y13300D02*
D03*
D37*
X17000Y15000D02*
D03*
D38*
X23350Y14587D02*
D03*
Y16713D02*
D03*
X20450Y14587D02*
D03*
Y16713D02*
D03*
X23350Y20913D02*
D03*
Y18787D02*
D03*
X20450Y20913D02*
D03*
Y18787D02*
D03*
M02*
