M48
;Layer_Color=9474304
;FILE_FORMAT=2:4
INCH,LZ
;TYPE=PLATED
T1F00S00C0.0080
T2F00S00C0.0120
T3F00S00C0.0200
T4F00S00C0.0860
;TYPE=NON_PLATED
T5F00S00C0.0512
T6F00S00C0.0591
T7F00S00C0.1370
%
T01
X03618Y00732
X036613
Y007754
X03618
Y015708
X036613
Y016141
X03618
X010154
Y015708
X00972
Y016141
Y007754
X010154
Y00732
X00972
Y024095
X010154
Y024528
X00972
Y032483
X010154
Y032916
X00972
X03618
X036613
Y032483
X03618
Y024528
X036613
Y024095
X03618
Y04087
X036613
Y041303
X03618
Y049257
X036613
Y049691
X03618
X010154
Y049257
X00972
Y049691
Y041303
X010154
Y04087
X00972
T02
X012687Y005337
X039146
X052946Y010437
X053446Y010937
X052946Y018824
X053446Y019324
X052446
X049246
X048896Y019674
Y018974
X048546Y019324
X048896Y011287
Y010587
X048546Y010937
X049246
X052446
X044146Y014474
X042746
X040346
X039146Y013724
Y015474
X037646Y015674
X037796Y014474
X037746Y016974
X037196Y017274
X038946Y017724
X040346
X040196Y018724
X039496Y019074
Y010687
X040196Y010337
X040346Y009337
X038946
X037746Y008587
X037196Y008887
X037646Y007287
X037796Y006087
X039146Y007087
X040346Y006087
X042746
X044146
X036546Y006237
X036246
X035196Y007537
X035096Y007937
X036146Y008687
X036496
X036846Y008887
X036946Y010987
X036646Y011087
X036346Y010987
X035246Y010687
X034896
X034596Y009937
X031496Y010237
X031046Y010787
X031646Y007287
X031096Y006737
X026487Y010437
X025987Y010937
X026987
X022787
X022437Y011287
Y010587
X022087Y010937
X022437Y018974
Y019674
X022087Y019324
X022787
X025987
X026487Y018824
X026987Y019324
X031046Y019174
X031496Y018624
X031646Y015674
X031096Y015124
X035196Y015924
X035096Y016324
X036146Y017074
X036496
X036846Y017274
X036946Y019374
X036646Y019474
X036346Y019374
X035246Y019074
X034896
X034596Y018324
X036246Y014624
X036546
X017687Y014474
X016287
X013887
X012687Y013724
Y015474
X011187Y015674
X011337Y014474
X010087Y014624
X009787
X008737Y015924
X008637Y016324
X009687Y017074
X010037
X010387Y017274
X010737
X011287Y016974
X012487Y017724
X013887
X013737Y018724
X013037Y019074
X010487Y019374
X010187Y019474
X009887Y019374
X008787Y019074
X008437
X008137Y018324
X008437Y010687
X008787
X009887Y010987
X010187Y011087
X010487Y010987
X010387Y008887
X010737
X011287Y008587
X010037Y008687
X009687
X008637Y007937
X008737Y007537
X009787Y006237
X010087
X011337Y006087
X011187Y007287
X012687Y007087
X013887Y006087
X016287
X017687
X013887Y009337
X013737Y010337
X013037Y010687
X012487Y009337
X008137Y009937
X005037Y010237
X004587Y010787
X005187Y007287
X004637Y006737
Y015124
X005187Y015674
X005037Y018624
X004587Y019174
X004637Y023512
X005187Y024062
X005037Y027012
X004587Y027562
X004637Y031899
X005187Y032449
X005037Y035399
X004587Y035949
X008437Y035849
X008787
X009887Y036149
X010187Y036249
X010487Y036149
X010387Y034049
X010737
X011287Y033749
X010037Y033849
X009687
X008637Y033099
X008737Y032699
X009787Y031399
X010087
X011337Y031249
X011187Y032449
X012687Y032249
Y030499
X013887Y031249
X016287
X017687
X013887Y034499
X013737Y035499
X013037Y035849
X012487Y034499
X008137Y035099
X008437Y027462
X008787
X009887Y027762
X010187Y027862
X010487Y027762
X010387Y025662
X010737
X011287Y025362
X010037Y025462
X009687
X008637Y024712
X008737Y024312
X009787Y023012
X010087
X011337Y022862
X011187Y024062
X012687Y023862
Y022112
X013887Y022862
X016287
X017687
X013887Y026112
X013737Y027112
X013037Y027462
X012487Y026112
X008137Y026712
X022437Y027362
Y028062
X022087Y027712
X022787
X025987
X026487Y027212
X026987Y027712
X031046Y027562
X031496Y027012
X031646Y024062
X031096Y023512
X035196Y024312
X035096Y024712
X036146Y025462
X036496
X036846Y025662
X036946Y027762
X036646Y027862
X036346Y027762
X035246Y027462
X034896
X034596Y026712
X036246Y023012
X036546
Y031399
X036246
X035196Y032699
X035096Y033099
X036146Y033849
X036496
X036846Y034049
X036946Y036149
X036646Y036249
X036346Y036149
X035246Y035849
X034896
X034596Y035099
X031496Y035399
X031046Y035949
X031646Y032449
X031096Y031899
X026487Y035599
X025987Y036099
X026987
X022787
X022437Y036449
Y035749
X022087Y036099
X037196Y034049
X037746Y033749
X037646Y032449
X037796Y031249
X039146Y030499
Y032249
X040346Y031249
X042746
X044146
X040346Y034499
X040196Y035499
X039496Y035849
X038946Y034499
X039496Y027462
X040196Y027112
X040346Y026112
X038946
X037746Y025362
X037196Y025662
X037646Y024062
X037796Y022862
X039146Y022112
Y023862
X040346Y022862
X042746
X044146
X048896Y027362
Y028062
X048546Y027712
X049246
X052446
Y036099
X049246
X048896Y036449
Y035749
X048546Y036099
X052946Y035599
X053446Y036099
Y027712
X052946Y027212
Y043987
X053446Y044487
X052946Y052374
X048896Y052524
Y044837
Y044137
X048546Y044487
X049246
X052446
X044146Y048024
X042746
X040346
X039146Y047274
Y049024
X037646Y049224
X037796Y048024
X037746Y050524
X037196Y050824
X038946Y051274
X040346
X040196Y052274
X039496Y052624
Y044237
X040196Y043887
X040346Y042887
X038946
X037746Y042137
X037196Y042437
X037646Y040837
X037796Y039637
X039146Y038887
Y040637
X040346Y039637
X042746
X044146
X036546Y039787
X036246
X035196Y041087
X035096Y041487
X036146Y042237
X036496
X036846Y042437
X036946Y044537
X036646Y044637
X036346Y044537
X035246Y044237
X034896
X034596Y043487
X031496Y043787
X031046Y044337
X031646Y040837
X031096Y040287
X026487Y043987
X025987Y044487
X026987
X022787
X022437Y044837
Y044137
X022087Y044487
X022437Y052524
X026487Y052374
X031496Y052174
X031646Y049224
X031096Y048674
X035196Y049474
X035096Y049874
X036146Y050624
X036496
X036846Y050824
X036546Y048174
X036246
X034596Y051874
X034896Y052624
X035246
X013737Y052274
X013037Y052624
X012487Y051274
X013887
Y048024
X012687Y047274
Y049024
X011187Y049224
X011337Y048024
X010087Y048174
X009787
X008737Y049474
X008637Y049874
X009687Y050624
X010037
X010387Y050824
X010737
X011287Y050524
X008137Y051874
X008437Y052624
X008787
Y044237
X008437
X008137Y043487
X008637Y041487
X008737Y041087
X009687Y042237
X010037
X010387Y042437
X010737
X011287Y042137
X011187Y040837
X011337Y039637
X010087Y039787
X009787
X012687Y040637
Y038887
X013887Y039637
X016287
X017687
X013887Y042887
X013737Y043887
X013037Y044237
X012487Y042887
X010487Y044537
X010187Y044637
X009887Y044537
X016287Y048024
X017687
X005187Y049224
X004637Y048674
X005037Y052174
X004587Y044337
X005037Y043787
X005187Y040837
X004637Y040287
X004587Y052724
X009887Y052924
X010187Y053024
X010487Y052924
X022087Y052874
X022437Y053224
X022787Y052874
X025987
X026987
X031046Y052724
X036346Y052924
X036646Y053024
X036946Y052924
X048546Y052874
X048896Y053224
X049246Y052874
X052446
X053446
T03
X048996Y007637
X049246
X049496
X049746
X049996
X050246
Y016024
X049996
X049746
X049496
X049246
X048996
X030371Y015924
Y015674
Y015424
Y016174
Y016424
Y016674
X023787Y016024
X023537
X023287
X023037
X022787
X022537
Y007637
X022787
X023037
X023287
X023537
X023787
X030371Y007537
Y007287
Y007037
Y007787
Y008037
Y008287
X003912
Y008037
Y007787
Y007537
Y007287
Y007037
Y015424
Y015674
Y015924
Y016174
Y016424
Y016674
Y023812
Y024062
Y024312
Y024562
Y024812
Y025062
Y032199
Y032449
Y032699
Y032949
Y033199
Y033449
X022537Y032799
X022787
X023037
X023287
X023537
X023787
X030371Y032699
Y032449
Y032199
Y032949
Y033199
Y033449
Y025062
Y024812
Y024562
Y024312
Y024062
Y023812
X023787Y024412
X023537
X023287
X023037
X022787
X022537
X048996
X049246
X049496
X049746
X049996
X050246
Y032799
X049996
X049746
X049496
X049246
X048996
Y041187
X049246
X049496
X049746
X049996
X050246
Y049574
X049996
X049746
X049496
X049246
X048996
X030371Y049474
Y049224
Y048974
Y049724
Y049974
Y050224
X023787Y049574
X023537
X023287
X023037
X022787
X022537
Y041187
X022787
X023037
X023287
X023537
X023787
X030371Y041087
Y040837
Y040587
Y041337
Y041587
Y041837
X003912
Y041587
Y041337
Y041087
Y040837
Y040587
Y048974
Y049224
Y049474
Y049724
Y049974
Y050224
T04
X010487Y005237
X036946
X047896Y010137
Y018524
X036946Y013624
X021437Y010137
Y018524
X010487Y013624
Y022012
Y030399
X021437Y026912
Y035299
X036946Y030399
Y022012
X047896Y026912
Y035299
Y043687
Y052074
X036946Y047174
Y038787
X021437Y043687
Y052074
X010487Y047174
Y038787
T05
X049896Y009587
Y017974
X023437
Y009587
Y026362
Y034749
X049896
Y026362
Y043137
Y051524
X023437
Y043137
T06
X005639Y005687
X007608
X032098
X034067
Y009687
X032098
Y014074
X034067
Y018074
X032098
X007608
Y014074
Y009687
X005639
Y014074
Y018074
Y022462
Y026462
Y030849
Y034849
X007608
Y030849
Y026462
Y022462
X032098
X034067
Y026462
X032098
Y030849
X034067
Y034849
X032098
Y039237
X034067
Y043237
X032098
Y047624
X034067
Y051624
X032098
X007608
Y047624
Y043237
Y039237
X005639
Y043237
Y047624
Y051624
T07
X001969Y001969
X056988
X001969Y055413
X056988
M30
