G04 Layer_Physical_Order=1*
G04 Layer_Color=255*
%FSLAX24Y24*%
%MOIN*%
G70*
G01*
G75*
%ADD10C,0.0800*%
%ADD11R,0.0800X0.0800*%
G04:AMPARAMS|DCode=12|XSize=40mil|YSize=40mil|CornerRadius=10mil|HoleSize=0mil|Usage=FLASHONLY|Rotation=0.000|XOffset=0mil|YOffset=0mil|HoleType=Round|Shape=RoundedRectangle|*
%AMROUNDEDRECTD12*
21,1,0.0400,0.0200,0,0,0.0*
21,1,0.0200,0.0400,0,0,0.0*
1,1,0.0200,0.0100,-0.0100*
1,1,0.0200,-0.0100,-0.0100*
1,1,0.0200,-0.0100,0.0100*
1,1,0.0200,0.0100,0.0100*
%
%ADD12ROUNDEDRECTD12*%
%ADD13R,0.0866X0.0787*%
%ADD14R,0.0591X0.0787*%
%ADD15R,0.0591X0.0630*%
%ADD16R,0.0866X0.0394*%
%ADD17R,0.0217X0.0335*%
%ADD18R,0.0157X0.0236*%
%ADD19R,0.0236X0.0157*%
%ADD20O,0.0335X0.0079*%
%ADD21O,0.0079X0.0335*%
%ADD22R,0.1043X0.1043*%
%ADD23C,0.0080*%
%ADD24C,0.0100*%
%ADD25C,0.0150*%
%ADD26C,0.0220*%
%ADD27C,0.0197*%
%ADD28C,0.0860*%
D10*
X1969Y53445D02*
D03*
X56988D02*
D03*
Y3937D02*
D03*
D11*
X1969D02*
D03*
D12*
X22437Y10937D02*
D03*
Y8187D02*
D03*
X48896Y10937D02*
D03*
Y8187D02*
D03*
X22437Y19324D02*
D03*
Y16574D02*
D03*
X48896Y19324D02*
D03*
Y16574D02*
D03*
X22437Y27712D02*
D03*
Y24962D02*
D03*
X48896Y27712D02*
D03*
Y24962D02*
D03*
X22437Y36099D02*
D03*
Y33349D02*
D03*
X48896Y36099D02*
D03*
Y33349D02*
D03*
X22437Y44487D02*
D03*
Y41737D02*
D03*
X48896Y44487D02*
D03*
Y41737D02*
D03*
X22437Y52874D02*
D03*
Y50124D02*
D03*
X48896Y52874D02*
D03*
Y50124D02*
D03*
D13*
X5206Y6770D02*
D03*
X6663Y4604D02*
D03*
Y6770D02*
D03*
X5206Y4604D02*
D03*
Y10770D02*
D03*
X6663Y8604D02*
D03*
Y10770D02*
D03*
X5206Y8604D02*
D03*
X31665Y6770D02*
D03*
X33122Y4604D02*
D03*
Y6770D02*
D03*
X31665Y4604D02*
D03*
Y10770D02*
D03*
X33122Y8604D02*
D03*
Y10770D02*
D03*
X31665Y8604D02*
D03*
X5206Y15157D02*
D03*
X6663Y12992D02*
D03*
Y15157D02*
D03*
X5206Y12992D02*
D03*
Y19157D02*
D03*
X6663Y16992D02*
D03*
Y19157D02*
D03*
X5206Y16992D02*
D03*
X31665Y15157D02*
D03*
X33122Y12992D02*
D03*
Y15157D02*
D03*
X31665Y12992D02*
D03*
Y19157D02*
D03*
X33122Y16992D02*
D03*
Y19157D02*
D03*
X31665Y16992D02*
D03*
X5206Y23544D02*
D03*
X6663Y21379D02*
D03*
Y23544D02*
D03*
X5206Y21379D02*
D03*
Y27544D02*
D03*
X6663Y25379D02*
D03*
Y27544D02*
D03*
X5206Y25379D02*
D03*
X31665Y23544D02*
D03*
X33122Y21379D02*
D03*
Y23544D02*
D03*
X31665Y21379D02*
D03*
Y27544D02*
D03*
X33122Y25379D02*
D03*
Y27544D02*
D03*
X31665Y25379D02*
D03*
X5206Y31932D02*
D03*
X6663Y29767D02*
D03*
Y31932D02*
D03*
X5206Y29767D02*
D03*
Y35932D02*
D03*
X6663Y33767D02*
D03*
Y35932D02*
D03*
X5206Y33767D02*
D03*
X31665Y31932D02*
D03*
X33122Y29767D02*
D03*
Y31932D02*
D03*
X31665Y29767D02*
D03*
Y35932D02*
D03*
X33122Y33767D02*
D03*
Y35932D02*
D03*
X31665Y33767D02*
D03*
X5206Y40319D02*
D03*
X6663Y38154D02*
D03*
Y40319D02*
D03*
X5206Y38154D02*
D03*
Y44319D02*
D03*
X6663Y42154D02*
D03*
Y44319D02*
D03*
X5206Y42154D02*
D03*
X31665Y40319D02*
D03*
X33122Y38154D02*
D03*
Y40319D02*
D03*
X31665Y38154D02*
D03*
Y44319D02*
D03*
X33122Y42154D02*
D03*
Y44319D02*
D03*
X31665Y42154D02*
D03*
X5206Y48707D02*
D03*
X6663Y46541D02*
D03*
Y48707D02*
D03*
X5206Y46541D02*
D03*
Y52707D02*
D03*
X6663Y50541D02*
D03*
Y52707D02*
D03*
X5206Y50541D02*
D03*
X31665Y48707D02*
D03*
X33122Y46541D02*
D03*
Y48707D02*
D03*
X31665Y46541D02*
D03*
Y52707D02*
D03*
X33122Y50541D02*
D03*
Y52707D02*
D03*
X31665Y50541D02*
D03*
D14*
X26488Y10951D02*
D03*
Y8223D02*
D03*
X52947Y10951D02*
D03*
Y8223D02*
D03*
X26488Y19339D02*
D03*
Y16610D02*
D03*
X52947Y19339D02*
D03*
Y16610D02*
D03*
X26488Y27726D02*
D03*
Y24998D02*
D03*
X52947Y27726D02*
D03*
Y24998D02*
D03*
X26488Y36113D02*
D03*
Y33385D02*
D03*
X52947Y36113D02*
D03*
Y33385D02*
D03*
X26488Y44501D02*
D03*
Y41772D02*
D03*
X52947Y44501D02*
D03*
Y41772D02*
D03*
X26488Y52888D02*
D03*
Y50160D02*
D03*
X52947Y52888D02*
D03*
Y50160D02*
D03*
D15*
X23929Y8170D02*
D03*
X25425Y11004D02*
D03*
X50388Y8170D02*
D03*
X51884Y11004D02*
D03*
X23929Y16557D02*
D03*
X25425Y19392D02*
D03*
X50388Y16557D02*
D03*
X51884Y19392D02*
D03*
X23929Y24944D02*
D03*
X25425Y27779D02*
D03*
X50388Y24944D02*
D03*
X51884Y27779D02*
D03*
X23929Y33332D02*
D03*
X25425Y36167D02*
D03*
X50388Y33332D02*
D03*
X51884Y36167D02*
D03*
X23929Y41719D02*
D03*
X25425Y44554D02*
D03*
X50388Y41719D02*
D03*
X51884Y44554D02*
D03*
X23929Y50107D02*
D03*
X25425Y52941D02*
D03*
X50388Y50107D02*
D03*
X51884Y52941D02*
D03*
D16*
X11907Y7087D02*
D03*
X14467D02*
D03*
X11907Y6087D02*
D03*
X14467D02*
D03*
X11907Y5087D02*
D03*
X14467D02*
D03*
X15707Y7087D02*
D03*
X18267D02*
D03*
X15707Y6087D02*
D03*
X18267D02*
D03*
X15707Y5087D02*
D03*
X18267D02*
D03*
X11907Y10337D02*
D03*
X14467D02*
D03*
X11907Y9337D02*
D03*
X14467D02*
D03*
X11907Y8337D02*
D03*
X14467D02*
D03*
X38367Y7087D02*
D03*
X40926D02*
D03*
X38367Y6087D02*
D03*
X40926D02*
D03*
X38367Y5087D02*
D03*
X40926D02*
D03*
X42167Y7087D02*
D03*
X44726D02*
D03*
X42167Y6087D02*
D03*
X44726D02*
D03*
X42167Y5087D02*
D03*
X44726D02*
D03*
X38367Y10337D02*
D03*
X40926D02*
D03*
X38367Y9337D02*
D03*
X40926D02*
D03*
X38367Y8337D02*
D03*
X40926D02*
D03*
X11907Y15474D02*
D03*
X14467D02*
D03*
X11907Y14474D02*
D03*
X14467D02*
D03*
X11907Y13474D02*
D03*
X14467D02*
D03*
X15707Y15474D02*
D03*
X18267D02*
D03*
X15707Y14474D02*
D03*
X18267D02*
D03*
X15707Y13474D02*
D03*
X18267D02*
D03*
X11907Y18724D02*
D03*
X14467D02*
D03*
X11907Y17724D02*
D03*
X14467D02*
D03*
X11907Y16724D02*
D03*
X14467D02*
D03*
X38367Y15474D02*
D03*
X40926D02*
D03*
X38367Y14474D02*
D03*
X40926D02*
D03*
X38367Y13474D02*
D03*
X40926D02*
D03*
X42167Y15474D02*
D03*
X44726D02*
D03*
X42167Y14474D02*
D03*
X44726D02*
D03*
X42167Y13474D02*
D03*
X44726D02*
D03*
X38367Y18724D02*
D03*
X40926D02*
D03*
X38367Y17724D02*
D03*
X40926D02*
D03*
X38367Y16724D02*
D03*
X40926D02*
D03*
X11907Y23862D02*
D03*
X14467D02*
D03*
X11907Y22862D02*
D03*
X14467D02*
D03*
X11907Y21862D02*
D03*
X14467D02*
D03*
X15707Y23862D02*
D03*
X18267D02*
D03*
X15707Y22862D02*
D03*
X18267D02*
D03*
X15707Y21862D02*
D03*
X18267D02*
D03*
X11907Y27112D02*
D03*
X14467D02*
D03*
X11907Y26112D02*
D03*
X14467D02*
D03*
X11907Y25112D02*
D03*
X14467D02*
D03*
X38367Y23862D02*
D03*
X40926D02*
D03*
X38367Y22862D02*
D03*
X40926D02*
D03*
X38367Y21862D02*
D03*
X40926D02*
D03*
X42167Y23862D02*
D03*
X44726D02*
D03*
X42167Y22862D02*
D03*
X44726D02*
D03*
X42167Y21862D02*
D03*
X44726D02*
D03*
X38367Y27112D02*
D03*
X40926D02*
D03*
X38367Y26112D02*
D03*
X40926D02*
D03*
X38367Y25112D02*
D03*
X40926D02*
D03*
X11907Y32249D02*
D03*
X14467D02*
D03*
X11907Y31249D02*
D03*
X14467D02*
D03*
X11907Y30249D02*
D03*
X14467D02*
D03*
X15707Y32249D02*
D03*
X18267D02*
D03*
X15707Y31249D02*
D03*
X18267D02*
D03*
X15707Y30249D02*
D03*
X18267D02*
D03*
X11907Y35499D02*
D03*
X14467D02*
D03*
X11907Y34499D02*
D03*
X14467D02*
D03*
X11907Y33499D02*
D03*
X14467D02*
D03*
X38367Y32249D02*
D03*
X40926D02*
D03*
X38367Y31249D02*
D03*
X40926D02*
D03*
X38367Y30249D02*
D03*
X40926D02*
D03*
X42167Y32249D02*
D03*
X44726D02*
D03*
X42167Y31249D02*
D03*
X44726D02*
D03*
X42167Y30249D02*
D03*
X44726D02*
D03*
X38367Y35499D02*
D03*
X40926D02*
D03*
X38367Y34499D02*
D03*
X40926D02*
D03*
X38367Y33499D02*
D03*
X40926D02*
D03*
X11907Y40637D02*
D03*
X14467D02*
D03*
X11907Y39637D02*
D03*
X14467D02*
D03*
X11907Y38637D02*
D03*
X14467D02*
D03*
X15707Y40637D02*
D03*
X18267D02*
D03*
X15707Y39637D02*
D03*
X18267D02*
D03*
X15707Y38637D02*
D03*
X18267D02*
D03*
X11907Y43887D02*
D03*
X14467D02*
D03*
X11907Y42887D02*
D03*
X14467D02*
D03*
X11907Y41887D02*
D03*
X14467D02*
D03*
X38367Y40637D02*
D03*
X40926D02*
D03*
X38367Y39637D02*
D03*
X40926D02*
D03*
X38367Y38637D02*
D03*
X40926D02*
D03*
X42167Y40637D02*
D03*
X44726D02*
D03*
X42167Y39637D02*
D03*
X44726D02*
D03*
X42167Y38637D02*
D03*
X44726D02*
D03*
X38367Y43887D02*
D03*
X40926D02*
D03*
X38367Y42887D02*
D03*
X40926D02*
D03*
X38367Y41887D02*
D03*
X40926D02*
D03*
X11907Y49024D02*
D03*
X14467D02*
D03*
X11907Y48024D02*
D03*
X14467D02*
D03*
X11907Y47024D02*
D03*
X14467D02*
D03*
X15707Y49024D02*
D03*
X18267D02*
D03*
X15707Y48024D02*
D03*
X18267D02*
D03*
X15707Y47024D02*
D03*
X18267D02*
D03*
X11907Y52274D02*
D03*
X14467D02*
D03*
X11907Y51274D02*
D03*
X14467D02*
D03*
X11907Y50274D02*
D03*
X14467D02*
D03*
X38367Y49024D02*
D03*
X40926D02*
D03*
X38367Y48024D02*
D03*
X40926D02*
D03*
X38367Y47024D02*
D03*
X40926D02*
D03*
X42167Y49024D02*
D03*
X44726D02*
D03*
X42167Y48024D02*
D03*
X44726D02*
D03*
X42167Y47024D02*
D03*
X44726D02*
D03*
X38367Y52274D02*
D03*
X40926D02*
D03*
X38367Y51274D02*
D03*
X40926D02*
D03*
X38367Y50274D02*
D03*
X40926D02*
D03*
D17*
X15622Y9420D02*
D03*
X15937D02*
D03*
X16252D02*
D03*
Y8554D02*
D03*
X15937D02*
D03*
X15622D02*
D03*
X42081Y9420D02*
D03*
X42396D02*
D03*
X42711D02*
D03*
Y8554D02*
D03*
X42396D02*
D03*
X42081D02*
D03*
X15622Y17807D02*
D03*
X15937D02*
D03*
X16252D02*
D03*
Y16941D02*
D03*
X15937D02*
D03*
X15622D02*
D03*
X42081Y17807D02*
D03*
X42396D02*
D03*
X42711D02*
D03*
Y16941D02*
D03*
X42396D02*
D03*
X42081D02*
D03*
X15622Y26195D02*
D03*
X15937D02*
D03*
X16252D02*
D03*
Y25329D02*
D03*
X15937D02*
D03*
X15622D02*
D03*
X42081Y26195D02*
D03*
X42396D02*
D03*
X42711D02*
D03*
Y25329D02*
D03*
X42396D02*
D03*
X42081D02*
D03*
X15622Y34582D02*
D03*
X15937D02*
D03*
X16252D02*
D03*
Y33716D02*
D03*
X15937D02*
D03*
X15622D02*
D03*
X42081Y34582D02*
D03*
X42396D02*
D03*
X42711D02*
D03*
Y33716D02*
D03*
X42396D02*
D03*
X42081D02*
D03*
X15622Y42970D02*
D03*
X15937D02*
D03*
X16252D02*
D03*
Y42104D02*
D03*
X15937D02*
D03*
X15622D02*
D03*
X42081Y42970D02*
D03*
X42396D02*
D03*
X42711D02*
D03*
Y42104D02*
D03*
X42396D02*
D03*
X42081D02*
D03*
X15622Y51357D02*
D03*
X15937D02*
D03*
X16252D02*
D03*
Y50491D02*
D03*
X15937D02*
D03*
X15622D02*
D03*
X42081Y51357D02*
D03*
X42396D02*
D03*
X42711D02*
D03*
Y50491D02*
D03*
X42396D02*
D03*
X42081D02*
D03*
D18*
X10710Y8587D02*
D03*
X11064D02*
D03*
X10410Y9187D02*
D03*
X10764D02*
D03*
X37169Y8587D02*
D03*
X37523D02*
D03*
X36869Y9187D02*
D03*
X37223D02*
D03*
X10710Y16974D02*
D03*
X11064D02*
D03*
X10410Y17574D02*
D03*
X10764D02*
D03*
X37169Y16974D02*
D03*
X37523D02*
D03*
X36869Y17574D02*
D03*
X37223D02*
D03*
X10710Y25362D02*
D03*
X11064D02*
D03*
X10410Y25962D02*
D03*
X10764D02*
D03*
X37169Y25362D02*
D03*
X37523D02*
D03*
X36869Y25962D02*
D03*
X37223D02*
D03*
X10710Y33749D02*
D03*
X11064D02*
D03*
X10410Y34349D02*
D03*
X10764D02*
D03*
X37169Y33749D02*
D03*
X37523D02*
D03*
X36869Y34349D02*
D03*
X37223D02*
D03*
X10710Y42137D02*
D03*
X11064D02*
D03*
X10410Y42737D02*
D03*
X10764D02*
D03*
X37169Y42137D02*
D03*
X37523D02*
D03*
X36869Y42737D02*
D03*
X37223D02*
D03*
X10710Y50524D02*
D03*
X11064D02*
D03*
X10410Y51124D02*
D03*
X10764D02*
D03*
X37169Y50524D02*
D03*
X37523D02*
D03*
X36869Y51124D02*
D03*
X37223D02*
D03*
D19*
X15437Y10060D02*
D03*
Y10414D02*
D03*
X15837Y10060D02*
D03*
Y10414D02*
D03*
X16237Y10060D02*
D03*
Y10414D02*
D03*
X9687Y8960D02*
D03*
Y9314D02*
D03*
X10087Y8960D02*
D03*
Y9314D02*
D03*
X8337Y7914D02*
D03*
Y7560D02*
D03*
X41896Y10060D02*
D03*
Y10414D02*
D03*
X42296Y10060D02*
D03*
Y10414D02*
D03*
X42696Y10060D02*
D03*
Y10414D02*
D03*
X36146Y8960D02*
D03*
Y9314D02*
D03*
X36546Y8960D02*
D03*
Y9314D02*
D03*
X34796Y7914D02*
D03*
Y7560D02*
D03*
X15437Y18447D02*
D03*
Y18802D02*
D03*
X15837Y18447D02*
D03*
Y18802D02*
D03*
X16237Y18447D02*
D03*
Y18802D02*
D03*
X9687Y17347D02*
D03*
Y17702D02*
D03*
X10087Y17347D02*
D03*
Y17702D02*
D03*
X8337Y16302D02*
D03*
Y15947D02*
D03*
X41896Y18447D02*
D03*
Y18802D02*
D03*
X42296Y18447D02*
D03*
Y18802D02*
D03*
X42696Y18447D02*
D03*
Y18802D02*
D03*
X36146Y17347D02*
D03*
Y17702D02*
D03*
X36546Y17347D02*
D03*
Y17702D02*
D03*
X34796Y16302D02*
D03*
Y15947D02*
D03*
X15437Y26835D02*
D03*
Y27189D02*
D03*
X15837Y26835D02*
D03*
Y27189D02*
D03*
X16237Y26835D02*
D03*
Y27189D02*
D03*
X9687Y25735D02*
D03*
Y26089D02*
D03*
X10087Y25735D02*
D03*
Y26089D02*
D03*
X8337Y24689D02*
D03*
Y24335D02*
D03*
X41896Y26835D02*
D03*
Y27189D02*
D03*
X42296Y26835D02*
D03*
Y27189D02*
D03*
X42696Y26835D02*
D03*
Y27189D02*
D03*
X36146Y25735D02*
D03*
Y26089D02*
D03*
X36546Y25735D02*
D03*
Y26089D02*
D03*
X34796Y24689D02*
D03*
Y24335D02*
D03*
X15437Y35222D02*
D03*
Y35576D02*
D03*
X15837Y35222D02*
D03*
Y35576D02*
D03*
X16237Y35222D02*
D03*
Y35576D02*
D03*
X9687Y34122D02*
D03*
Y34476D02*
D03*
X10087Y34122D02*
D03*
Y34476D02*
D03*
X8337Y33076D02*
D03*
Y32722D02*
D03*
X41896Y35222D02*
D03*
Y35576D02*
D03*
X42296Y35222D02*
D03*
Y35576D02*
D03*
X42696Y35222D02*
D03*
Y35576D02*
D03*
X36146Y34122D02*
D03*
Y34476D02*
D03*
X36546Y34122D02*
D03*
Y34476D02*
D03*
X34796Y33076D02*
D03*
Y32722D02*
D03*
X15437Y43609D02*
D03*
Y43964D02*
D03*
X15837Y43609D02*
D03*
Y43964D02*
D03*
X16237Y43609D02*
D03*
Y43964D02*
D03*
X9687Y42509D02*
D03*
Y42864D02*
D03*
X10087Y42509D02*
D03*
Y42864D02*
D03*
X8337Y41464D02*
D03*
Y41109D02*
D03*
X41896Y43609D02*
D03*
Y43964D02*
D03*
X42296Y43609D02*
D03*
Y43964D02*
D03*
X42696Y43609D02*
D03*
Y43964D02*
D03*
X36146Y42509D02*
D03*
Y42864D02*
D03*
X36546Y42509D02*
D03*
Y42864D02*
D03*
X34796Y41464D02*
D03*
Y41109D02*
D03*
X15437Y51997D02*
D03*
Y52351D02*
D03*
X15837Y51997D02*
D03*
Y52351D02*
D03*
X16237Y51997D02*
D03*
Y52351D02*
D03*
X9687Y50897D02*
D03*
Y51251D02*
D03*
X10087Y50897D02*
D03*
Y51251D02*
D03*
X8337Y49851D02*
D03*
Y49497D02*
D03*
X41896Y51997D02*
D03*
Y52351D02*
D03*
X42296Y51997D02*
D03*
Y52351D02*
D03*
X42696Y51997D02*
D03*
Y52351D02*
D03*
X36146Y50897D02*
D03*
Y51251D02*
D03*
X36546Y50897D02*
D03*
Y51251D02*
D03*
X34796Y49851D02*
D03*
Y49497D02*
D03*
D20*
X9159Y8009D02*
D03*
Y7852D02*
D03*
Y7694D02*
D03*
Y7537D02*
D03*
Y7380D02*
D03*
Y7222D02*
D03*
Y7065D02*
D03*
X10715D02*
D03*
Y7222D02*
D03*
Y7380D02*
D03*
Y7537D02*
D03*
Y7694D02*
D03*
Y7852D02*
D03*
Y8009D02*
D03*
X35619D02*
D03*
Y7852D02*
D03*
Y7694D02*
D03*
Y7537D02*
D03*
Y7380D02*
D03*
Y7222D02*
D03*
Y7065D02*
D03*
X37174D02*
D03*
Y7222D02*
D03*
Y7380D02*
D03*
Y7537D02*
D03*
Y7694D02*
D03*
Y7852D02*
D03*
Y8009D02*
D03*
X9159Y16397D02*
D03*
Y16239D02*
D03*
Y16082D02*
D03*
Y15924D02*
D03*
Y15767D02*
D03*
Y15609D02*
D03*
Y15452D02*
D03*
X10715D02*
D03*
Y15609D02*
D03*
Y15767D02*
D03*
Y15924D02*
D03*
Y16082D02*
D03*
Y16239D02*
D03*
Y16397D02*
D03*
X35619D02*
D03*
Y16239D02*
D03*
Y16082D02*
D03*
Y15924D02*
D03*
Y15767D02*
D03*
Y15609D02*
D03*
Y15452D02*
D03*
X37174D02*
D03*
Y15609D02*
D03*
Y15767D02*
D03*
Y15924D02*
D03*
Y16082D02*
D03*
Y16239D02*
D03*
Y16397D02*
D03*
X9159Y24784D02*
D03*
Y24627D02*
D03*
Y24469D02*
D03*
Y24312D02*
D03*
Y24154D02*
D03*
Y23997D02*
D03*
Y23839D02*
D03*
X10715D02*
D03*
Y23997D02*
D03*
Y24154D02*
D03*
Y24312D02*
D03*
Y24469D02*
D03*
Y24627D02*
D03*
Y24784D02*
D03*
X35619D02*
D03*
Y24627D02*
D03*
Y24469D02*
D03*
Y24312D02*
D03*
Y24154D02*
D03*
Y23997D02*
D03*
Y23839D02*
D03*
X37174D02*
D03*
Y23997D02*
D03*
Y24154D02*
D03*
Y24312D02*
D03*
Y24469D02*
D03*
Y24627D02*
D03*
Y24784D02*
D03*
X9159Y33172D02*
D03*
Y33014D02*
D03*
Y32857D02*
D03*
Y32699D02*
D03*
Y32542D02*
D03*
Y32384D02*
D03*
Y32227D02*
D03*
X10715D02*
D03*
Y32384D02*
D03*
Y32542D02*
D03*
Y32699D02*
D03*
Y32857D02*
D03*
Y33014D02*
D03*
Y33172D02*
D03*
X35619D02*
D03*
Y33014D02*
D03*
Y32857D02*
D03*
Y32699D02*
D03*
Y32542D02*
D03*
Y32384D02*
D03*
Y32227D02*
D03*
X37174D02*
D03*
Y32384D02*
D03*
Y32542D02*
D03*
Y32699D02*
D03*
Y32857D02*
D03*
Y33014D02*
D03*
Y33172D02*
D03*
X9159Y41559D02*
D03*
Y41402D02*
D03*
Y41244D02*
D03*
Y41087D02*
D03*
Y40929D02*
D03*
Y40772D02*
D03*
Y40614D02*
D03*
X10715D02*
D03*
Y40772D02*
D03*
Y40929D02*
D03*
Y41087D02*
D03*
Y41244D02*
D03*
Y41402D02*
D03*
Y41559D02*
D03*
X35619D02*
D03*
Y41402D02*
D03*
Y41244D02*
D03*
Y41087D02*
D03*
Y40929D02*
D03*
Y40772D02*
D03*
Y40614D02*
D03*
X37174D02*
D03*
Y40772D02*
D03*
Y40929D02*
D03*
Y41087D02*
D03*
Y41244D02*
D03*
Y41402D02*
D03*
Y41559D02*
D03*
X9159Y49946D02*
D03*
Y49789D02*
D03*
Y49632D02*
D03*
Y49474D02*
D03*
Y49317D02*
D03*
Y49159D02*
D03*
Y49002D02*
D03*
X10715D02*
D03*
Y49159D02*
D03*
Y49317D02*
D03*
Y49474D02*
D03*
Y49632D02*
D03*
Y49789D02*
D03*
Y49946D02*
D03*
X35619D02*
D03*
Y49789D02*
D03*
Y49632D02*
D03*
Y49474D02*
D03*
Y49317D02*
D03*
Y49159D02*
D03*
Y49002D02*
D03*
X37174D02*
D03*
Y49159D02*
D03*
Y49317D02*
D03*
Y49474D02*
D03*
Y49632D02*
D03*
Y49789D02*
D03*
Y49946D02*
D03*
D21*
X9465Y6759D02*
D03*
X9622D02*
D03*
X9780D02*
D03*
X9937D02*
D03*
X10094D02*
D03*
X10252D02*
D03*
X10409D02*
D03*
Y8315D02*
D03*
X10252D02*
D03*
X10094D02*
D03*
X9937D02*
D03*
X9780D02*
D03*
X9622D02*
D03*
X9465D02*
D03*
X35924Y6759D02*
D03*
X36081D02*
D03*
X36239D02*
D03*
X36396D02*
D03*
X36554D02*
D03*
X36711D02*
D03*
X36869D02*
D03*
Y8315D02*
D03*
X36711D02*
D03*
X36554D02*
D03*
X36396D02*
D03*
X36239D02*
D03*
X36081D02*
D03*
X35924D02*
D03*
X9465Y15147D02*
D03*
X9622D02*
D03*
X9780D02*
D03*
X9937D02*
D03*
X10094D02*
D03*
X10252D02*
D03*
X10409D02*
D03*
Y16702D02*
D03*
X10252D02*
D03*
X10094D02*
D03*
X9937D02*
D03*
X9780D02*
D03*
X9622D02*
D03*
X9465D02*
D03*
X35924Y15147D02*
D03*
X36081D02*
D03*
X36239D02*
D03*
X36396D02*
D03*
X36554D02*
D03*
X36711D02*
D03*
X36869D02*
D03*
Y16702D02*
D03*
X36711D02*
D03*
X36554D02*
D03*
X36396D02*
D03*
X36239D02*
D03*
X36081D02*
D03*
X35924D02*
D03*
X9465Y23534D02*
D03*
X9622D02*
D03*
X9780D02*
D03*
X9937D02*
D03*
X10094D02*
D03*
X10252D02*
D03*
X10409D02*
D03*
Y25089D02*
D03*
X10252D02*
D03*
X10094D02*
D03*
X9937D02*
D03*
X9780D02*
D03*
X9622D02*
D03*
X9465D02*
D03*
X35924Y23534D02*
D03*
X36081D02*
D03*
X36239D02*
D03*
X36396D02*
D03*
X36554D02*
D03*
X36711D02*
D03*
X36869D02*
D03*
Y25089D02*
D03*
X36711D02*
D03*
X36554D02*
D03*
X36396D02*
D03*
X36239D02*
D03*
X36081D02*
D03*
X35924D02*
D03*
X9465Y31922D02*
D03*
X9622D02*
D03*
X9780D02*
D03*
X9937D02*
D03*
X10094D02*
D03*
X10252D02*
D03*
X10409D02*
D03*
Y33477D02*
D03*
X10252D02*
D03*
X10094D02*
D03*
X9937D02*
D03*
X9780D02*
D03*
X9622D02*
D03*
X9465D02*
D03*
X35924Y31922D02*
D03*
X36081D02*
D03*
X36239D02*
D03*
X36396D02*
D03*
X36554D02*
D03*
X36711D02*
D03*
X36869D02*
D03*
Y33477D02*
D03*
X36711D02*
D03*
X36554D02*
D03*
X36396D02*
D03*
X36239D02*
D03*
X36081D02*
D03*
X35924D02*
D03*
X9465Y40309D02*
D03*
X9622D02*
D03*
X9780D02*
D03*
X9937D02*
D03*
X10094D02*
D03*
X10252D02*
D03*
X10409D02*
D03*
Y41864D02*
D03*
X10252D02*
D03*
X10094D02*
D03*
X9937D02*
D03*
X9780D02*
D03*
X9622D02*
D03*
X9465D02*
D03*
X35924Y40309D02*
D03*
X36081D02*
D03*
X36239D02*
D03*
X36396D02*
D03*
X36554D02*
D03*
X36711D02*
D03*
X36869D02*
D03*
Y41864D02*
D03*
X36711D02*
D03*
X36554D02*
D03*
X36396D02*
D03*
X36239D02*
D03*
X36081D02*
D03*
X35924D02*
D03*
X9465Y48696D02*
D03*
X9622D02*
D03*
X9780D02*
D03*
X9937D02*
D03*
X10094D02*
D03*
X10252D02*
D03*
X10409D02*
D03*
Y50252D02*
D03*
X10252D02*
D03*
X10094D02*
D03*
X9937D02*
D03*
X9780D02*
D03*
X9622D02*
D03*
X9465D02*
D03*
X35924Y48696D02*
D03*
X36081D02*
D03*
X36239D02*
D03*
X36396D02*
D03*
X36554D02*
D03*
X36711D02*
D03*
X36869D02*
D03*
Y50252D02*
D03*
X36711D02*
D03*
X36554D02*
D03*
X36396D02*
D03*
X36239D02*
D03*
X36081D02*
D03*
X35924D02*
D03*
D22*
X9937Y7537D02*
D03*
X36396D02*
D03*
X9937Y15924D02*
D03*
X36396D02*
D03*
X9937Y24312D02*
D03*
X36396D02*
D03*
X9937Y32699D02*
D03*
X36396D02*
D03*
X9937Y41087D02*
D03*
X36396D02*
D03*
X9937Y49474D02*
D03*
X36396D02*
D03*
D23*
X9780Y7694D02*
Y8315D01*
X10094Y7380D02*
X10715D01*
X10327Y11227D02*
X16721D01*
X10187Y11087D02*
X10327Y11227D01*
X10987Y7537D02*
X11237Y7287D01*
X11187Y7237D02*
X11237Y7287D01*
X8337Y7537D02*
X8737D01*
X15437Y10060D02*
X15622Y9875D01*
Y9420D02*
Y9875D01*
X15837Y10060D02*
X15937Y9960D01*
Y9420D02*
Y9960D01*
X15837Y10414D02*
X16237D01*
X15487D02*
X15837D01*
X16587Y10687D02*
X16765Y10509D01*
X16617Y8117D02*
X16765Y8265D01*
Y10509D01*
X14686Y8117D02*
X16617D01*
X12267Y7977D02*
X16777D01*
X11538Y7827D02*
X17527D01*
X11480Y7687D02*
X16235D01*
X14467Y8337D02*
X14686Y8117D01*
X11907Y8337D02*
X12267Y7977D01*
X11428Y7937D02*
X11538Y7827D01*
X11370Y7797D02*
X11480Y7687D01*
X15937Y9370D02*
Y9420D01*
X15622Y9370D02*
Y9420D01*
X15470Y8504D02*
X15622D01*
X15937Y8554D02*
Y8787D01*
X16252Y8554D02*
Y8922D01*
Y9370D02*
Y9420D01*
X16777Y7977D02*
X16937Y8137D01*
X11432Y7537D02*
X16187D01*
X11312Y7657D02*
X11432Y7537D01*
X15407Y7387D02*
X15707Y7087D01*
X11384Y7387D02*
X15407D01*
X16187Y7537D02*
X16537Y7187D01*
X16235Y7687D02*
X16677Y7245D01*
X15087Y8887D02*
X15470Y8504D01*
X9637Y9687D02*
X14987D01*
X9527Y9827D02*
X15045D01*
X9417Y9967D02*
X15157D01*
X9347Y10197D02*
X11817D01*
X5387Y10137D02*
X5837D01*
X5244Y9994D02*
X5387Y10137D01*
X5244Y8642D02*
Y9994D01*
X5937Y10237D02*
Y11012D01*
X5837Y10137D02*
X5937Y10237D01*
X10387Y8887D02*
Y9164D01*
X5206Y8604D02*
X5244Y8642D01*
X5937Y11012D02*
X6262Y11337D01*
X8137D01*
X8787Y10687D01*
X6663Y10770D02*
X6746Y10687D01*
X8437D01*
X6663Y8604D02*
Y9413D01*
X7387Y10137D01*
X7937D01*
X8137Y9937D01*
X7537Y8987D02*
X9167Y10617D01*
X7757Y9003D02*
X9231Y10477D01*
X7897Y8945D02*
X9289Y10337D01*
X7897Y7379D02*
Y8945D01*
X8037Y8887D02*
X9347Y10197D01*
X8037Y7437D02*
Y8887D01*
X12860Y10914D02*
X13037Y10737D01*
X11214Y10914D02*
X12860D01*
X10917Y10617D02*
X11214Y10914D01*
X12598Y10774D02*
X12935Y10437D01*
X11274Y10774D02*
X12598D01*
X10977Y10477D02*
X11274Y10774D01*
X12540Y10634D02*
X12887Y10287D01*
X11384Y10634D02*
X12540D01*
X11087Y10337D02*
X11384Y10634D01*
X9289Y10337D02*
X11087D01*
X9231Y10477D02*
X10977D01*
X9167Y10617D02*
X10917D01*
X16721Y11227D02*
X17237Y10711D01*
X12935Y10437D02*
X13187D01*
X12887Y10287D02*
X13287D01*
X11817Y10197D02*
X11907Y10287D01*
X17237Y9187D02*
X17737Y8687D01*
X17237Y9187D02*
Y10711D01*
X13037Y10687D02*
Y10737D01*
X13587Y10837D02*
X16687D01*
X13187Y10437D02*
X13587Y10837D01*
X13687Y10687D02*
X16587D01*
X13287Y10287D02*
X13687Y10687D01*
X17737Y8687D02*
X26024D01*
X16937Y8137D02*
Y10587D01*
X26024Y8687D02*
X26488Y8223D01*
X16687Y10837D02*
X16937Y10587D01*
X10387Y9164D02*
X10410Y9187D01*
X10337Y8637D02*
X10660D01*
X10252Y8552D02*
X10337Y8637D01*
X9465Y9515D02*
X9637Y9687D01*
X14987D02*
X15087Y9587D01*
X9159Y9459D02*
X9527Y9827D01*
X15045D02*
X15227Y9645D01*
X8892Y9442D02*
X9417Y9967D01*
X15157D02*
X15387Y9737D01*
X9687Y9314D02*
X10087D01*
X10037Y8910D02*
X10087Y8960D01*
X10037Y8687D02*
Y8910D01*
X9687Y8687D02*
Y8960D01*
X9465Y8315D02*
Y9515D01*
X9159Y8009D02*
Y9459D01*
X10037Y8687D02*
X10094Y8630D01*
Y8315D02*
Y8630D01*
X9687Y8687D02*
X9737D01*
X9937Y8487D01*
Y8315D02*
Y8487D01*
X9780Y7694D02*
X9937Y7537D01*
X8614Y7914D02*
X8637Y7937D01*
X8337Y7914D02*
X8614D01*
X11064Y8587D02*
X11287D01*
X10409Y8315D02*
X11050D01*
X11428Y7937D02*
X11428D01*
X11050Y8315D02*
X11428Y7937D01*
X11370Y7797D02*
X11370D01*
X11157Y8009D02*
X11370Y7797D01*
X10715Y8009D02*
X11157D01*
X11312Y7657D02*
X11312D01*
X11117Y7852D02*
X11312Y7657D01*
X10715Y7852D02*
X11117D01*
X11254Y7517D02*
X11384Y7387D01*
X11254Y7517D02*
X11254D01*
X11076Y7694D02*
X11254Y7517D01*
X10715Y7694D02*
X11076D01*
X11187Y7237D02*
Y7287D01*
X10927Y7222D02*
X11412Y6737D01*
X10715Y7222D02*
X10927D01*
X10715Y7537D02*
X10987D01*
X11412Y6737D02*
X12837D01*
X13737Y10337D02*
X14467D01*
X7537Y7137D02*
Y8987D01*
Y7137D02*
X7915Y6759D01*
X9465D01*
X9082Y6987D02*
X9159Y7065D01*
X8087Y6987D02*
X9082D01*
X7757Y7317D02*
X8087Y6987D01*
X7757Y7317D02*
Y9003D01*
X17527Y7827D02*
X18267Y7087D01*
X16687Y5687D02*
Y7187D01*
X16677Y7197D02*
X16687Y7187D01*
X16677Y7197D02*
Y7245D01*
X16537Y5387D02*
Y7187D01*
X15087Y8887D02*
Y9587D01*
X15227Y9037D02*
Y9645D01*
Y9037D02*
X15377Y8887D01*
X15837D01*
X15937Y8787D01*
X15387Y9137D02*
Y9737D01*
X16137Y9037D02*
X16252Y8922D01*
X15487Y9037D02*
X16137D01*
X15387Y9137D02*
X15487Y9037D01*
X7897Y7379D02*
X8139Y7137D01*
X8837D01*
X8922Y7222D01*
X9159D01*
X8037Y7437D02*
X8155Y7319D01*
X8816D01*
X8877Y7380D01*
X9159D01*
X8737Y7537D02*
X9159D01*
X8892Y7952D02*
X8992Y7852D01*
X8892Y7952D02*
Y9442D01*
X8992Y7852D02*
X9159D01*
X8930Y7694D02*
X9159D01*
X8687Y7937D02*
X8930Y7694D01*
X8637Y7937D02*
X8687D01*
X9780Y6244D02*
X9787Y6237D01*
X9780Y6244D02*
Y6759D01*
X10087Y6237D02*
X10094Y6244D01*
Y6759D01*
X10252Y6374D02*
X11189Y5437D01*
X10252Y6374D02*
Y6759D01*
X10409Y6415D02*
X11187Y5637D01*
X10409Y6415D02*
Y6759D01*
X11907Y7087D02*
X12687D01*
X12587Y5437D02*
X12687Y5337D01*
X11189Y5437D02*
X12587D01*
X14467Y5087D02*
Y5407D01*
X14237Y5637D02*
X14467Y5407D01*
X11187Y5637D02*
X14237D01*
X11907Y4767D02*
Y5087D01*
Y4767D02*
X12037Y4637D01*
X14937D01*
X15087Y4787D01*
Y6337D01*
X14937Y6487D02*
X15087Y6337D01*
X11292Y6487D02*
X14937D01*
X10715Y7065D02*
X11292Y6487D01*
X13187Y7087D02*
X14467D01*
X12837Y6737D02*
X13187Y7087D01*
X9937Y7537D02*
X10094Y7380D01*
X16537Y5387D02*
X16837Y5087D01*
X18267D01*
X15687Y5067D02*
X15707Y5087D01*
X15687Y4787D02*
Y5067D01*
Y4787D02*
X15787Y4687D01*
X18787D01*
X18828Y4728D01*
Y5337D01*
X18728Y5437D02*
X18828Y5337D01*
X16937Y5437D02*
X18728D01*
X16687Y5687D02*
X16937Y5437D01*
X10660Y8637D02*
X10710Y8587D01*
X10252Y8315D02*
Y8552D01*
X36239Y7694D02*
Y8315D01*
X36554Y7380D02*
X37174D01*
X36786Y11227D02*
X43180D01*
X36646Y11087D02*
X36786Y11227D01*
X37446Y7537D02*
X37696Y7287D01*
X37646Y7237D02*
X37696Y7287D01*
X34796Y7537D02*
X35196D01*
X41896Y10060D02*
X42081Y9875D01*
Y9420D02*
Y9875D01*
X42296Y10060D02*
X42396Y9960D01*
Y9420D02*
Y9960D01*
X42296Y10414D02*
X42696D01*
X41946D02*
X42296D01*
X43046Y10687D02*
X43224Y10509D01*
X43076Y8117D02*
X43224Y8265D01*
Y10509D01*
X41145Y8117D02*
X43076D01*
X38726Y7977D02*
X43236D01*
X37997Y7827D02*
X43986D01*
X37939Y7687D02*
X42694D01*
X40926Y8337D02*
X41145Y8117D01*
X38367Y8337D02*
X38726Y7977D01*
X37887Y7937D02*
X37997Y7827D01*
X37829Y7797D02*
X37939Y7687D01*
X42396Y9370D02*
Y9420D01*
X42081Y9370D02*
Y9420D01*
X41929Y8504D02*
X42081D01*
X42396Y8554D02*
Y8787D01*
X42711Y8554D02*
Y8922D01*
Y9370D02*
Y9420D01*
X43236Y7977D02*
X43396Y8137D01*
X37891Y7537D02*
X42646D01*
X37771Y7657D02*
X37891Y7537D01*
X41867Y7387D02*
X42167Y7087D01*
X37843Y7387D02*
X41867D01*
X42646Y7537D02*
X42996Y7187D01*
X42694Y7687D02*
X43136Y7245D01*
X41546Y8887D02*
X41929Y8504D01*
X36096Y9687D02*
X41446D01*
X35986Y9827D02*
X41504D01*
X35876Y9967D02*
X41616D01*
X35806Y10197D02*
X38277D01*
X31846Y10137D02*
X32296D01*
X31703Y9994D02*
X31846Y10137D01*
X31703Y8642D02*
Y9994D01*
X32396Y10237D02*
Y11012D01*
X32296Y10137D02*
X32396Y10237D01*
X36846Y8887D02*
Y9164D01*
X31665Y8604D02*
X31703Y8642D01*
X32396Y11012D02*
X32721Y11337D01*
X34596D01*
X35246Y10687D01*
X33122Y10770D02*
X33205Y10687D01*
X34896D01*
X33122Y8604D02*
Y9413D01*
X33846Y10137D01*
X34396D01*
X34596Y9937D01*
X33996Y8987D02*
X35626Y10617D01*
X34216Y9003D02*
X35690Y10477D01*
X34356Y8945D02*
X35748Y10337D01*
X34356Y7379D02*
Y8945D01*
X34496Y8887D02*
X35806Y10197D01*
X34496Y7437D02*
Y8887D01*
X39319Y10914D02*
X39496Y10737D01*
X37673Y10914D02*
X39319D01*
X37376Y10617D02*
X37673Y10914D01*
X39057Y10774D02*
X39394Y10437D01*
X37733Y10774D02*
X39057D01*
X37436Y10477D02*
X37733Y10774D01*
X38999Y10634D02*
X39346Y10287D01*
X37843Y10634D02*
X38999D01*
X37546Y10337D02*
X37843Y10634D01*
X35748Y10337D02*
X37546D01*
X35690Y10477D02*
X37436D01*
X35626Y10617D02*
X37376D01*
X43180Y11227D02*
X43696Y10711D01*
X39394Y10437D02*
X39646D01*
X39346Y10287D02*
X39746D01*
X38277Y10197D02*
X38367Y10287D01*
X43696Y9187D02*
X44196Y8687D01*
X43696Y9187D02*
Y10711D01*
X39496Y10687D02*
Y10737D01*
X40046Y10837D02*
X43146D01*
X39646Y10437D02*
X40046Y10837D01*
X40146Y10687D02*
X43046D01*
X39746Y10287D02*
X40146Y10687D01*
X44196Y8687D02*
X52483D01*
X43396Y8137D02*
Y10587D01*
X52483Y8687D02*
X52947Y8223D01*
X43146Y10837D02*
X43396Y10587D01*
X36846Y9164D02*
X36869Y9187D01*
X36796Y8637D02*
X37119D01*
X36711Y8552D02*
X36796Y8637D01*
X35924Y9515D02*
X36096Y9687D01*
X41446D02*
X41546Y9587D01*
X35619Y9459D02*
X35986Y9827D01*
X41504D02*
X41686Y9645D01*
X35351Y9442D02*
X35876Y9967D01*
X41616D02*
X41846Y9737D01*
X36146Y9314D02*
X36546D01*
X36496Y8910D02*
X36546Y8960D01*
X36496Y8687D02*
Y8910D01*
X36146Y8687D02*
Y8960D01*
X35924Y8315D02*
Y9515D01*
X35619Y8009D02*
Y9459D01*
X36496Y8687D02*
X36554Y8630D01*
Y8315D02*
Y8630D01*
X36146Y8687D02*
X36196D01*
X36396Y8487D01*
Y8315D02*
Y8487D01*
X36239Y7694D02*
X36396Y7537D01*
X35073Y7914D02*
X35096Y7937D01*
X34796Y7914D02*
X35073D01*
X37523Y8587D02*
X37746D01*
X36869Y8315D02*
X37509D01*
X37887Y7937D02*
X37887D01*
X37509Y8315D02*
X37887Y7937D01*
X37829Y7797D02*
X37829D01*
X37616Y8009D02*
X37829Y7797D01*
X37174Y8009D02*
X37616D01*
X37771Y7657D02*
X37771D01*
X37576Y7852D02*
X37771Y7657D01*
X37174Y7852D02*
X37576D01*
X37713Y7517D02*
X37843Y7387D01*
X37713Y7517D02*
X37713D01*
X37535Y7694D02*
X37713Y7517D01*
X37174Y7694D02*
X37535D01*
X37646Y7237D02*
Y7287D01*
X37386Y7222D02*
X37871Y6737D01*
X37174Y7222D02*
X37386D01*
X37174Y7537D02*
X37446D01*
X37871Y6737D02*
X39296D01*
X40196Y10337D02*
X40926D01*
X33996Y7137D02*
Y8987D01*
Y7137D02*
X34374Y6759D01*
X35924D01*
X35541Y6987D02*
X35619Y7065D01*
X34546Y6987D02*
X35541D01*
X34216Y7317D02*
X34546Y6987D01*
X34216Y7317D02*
Y9003D01*
X43986Y7827D02*
X44726Y7087D01*
X43146Y5687D02*
Y7187D01*
X43136Y7197D02*
X43146Y7187D01*
X43136Y7197D02*
Y7245D01*
X42996Y5387D02*
Y7187D01*
X41546Y8887D02*
Y9587D01*
X41686Y9037D02*
Y9645D01*
Y9037D02*
X41836Y8887D01*
X42296D01*
X42396Y8787D01*
X41846Y9137D02*
Y9737D01*
X42596Y9037D02*
X42711Y8922D01*
X41946Y9037D02*
X42596D01*
X41846Y9137D02*
X41946Y9037D01*
X34356Y7379D02*
X34598Y7137D01*
X35296D01*
X35381Y7222D01*
X35619D01*
X34496Y7437D02*
X34614Y7319D01*
X35275D01*
X35336Y7380D01*
X35619D01*
X35196Y7537D02*
X35619D01*
X35351Y7952D02*
X35451Y7852D01*
X35351Y7952D02*
Y9442D01*
X35451Y7852D02*
X35619D01*
X35389Y7694D02*
X35619D01*
X35146Y7937D02*
X35389Y7694D01*
X35096Y7937D02*
X35146D01*
X36239Y6244D02*
X36246Y6237D01*
X36239Y6244D02*
Y6759D01*
X36546Y6237D02*
X36554Y6244D01*
Y6759D01*
X36711Y6374D02*
X37648Y5437D01*
X36711Y6374D02*
Y6759D01*
X36869Y6415D02*
X37646Y5637D01*
X36869Y6415D02*
Y6759D01*
X38367Y7087D02*
X39146D01*
X39046Y5437D02*
X39146Y5337D01*
X37648Y5437D02*
X39046D01*
X40926Y5087D02*
Y5407D01*
X40696Y5637D02*
X40926Y5407D01*
X37646Y5637D02*
X40696D01*
X38367Y4767D02*
Y5087D01*
Y4767D02*
X38496Y4637D01*
X41396D01*
X41546Y4787D01*
Y6337D01*
X41396Y6487D02*
X41546Y6337D01*
X37751Y6487D02*
X41396D01*
X37174Y7065D02*
X37751Y6487D01*
X39646Y7087D02*
X40926D01*
X39296Y6737D02*
X39646Y7087D01*
X36396Y7537D02*
X36554Y7380D01*
X42996Y5387D02*
X43296Y5087D01*
X44726D01*
X42146Y5067D02*
X42167Y5087D01*
X42146Y4787D02*
Y5067D01*
Y4787D02*
X42246Y4687D01*
X45246D01*
X45287Y4728D01*
Y5337D01*
X45187Y5437D02*
X45287Y5337D01*
X43396Y5437D02*
X45187D01*
X43146Y5687D02*
X43396Y5437D01*
X37119Y8637D02*
X37169Y8587D01*
X36711Y8315D02*
Y8552D01*
X9780Y16082D02*
Y16702D01*
X10094Y15767D02*
X10715D01*
X10327Y19614D02*
X16721D01*
X10187Y19474D02*
X10327Y19614D01*
X10987Y15924D02*
X11237Y15674D01*
X11187Y15624D02*
X11237Y15674D01*
X8337Y15924D02*
X8737D01*
X15437Y18447D02*
X15622Y18262D01*
Y17807D02*
Y18262D01*
X15837Y18447D02*
X15937Y18347D01*
Y17807D02*
Y18347D01*
X15837Y18802D02*
X16237D01*
X15487D02*
X15837D01*
X16587Y19074D02*
X16765Y18896D01*
X16617Y16505D02*
X16765Y16653D01*
Y18896D01*
X14686Y16505D02*
X16617D01*
X12267Y16365D02*
X16777D01*
X11538Y16214D02*
X17527D01*
X11480Y16074D02*
X16235D01*
X14467Y16724D02*
X14686Y16505D01*
X11907Y16724D02*
X12267Y16365D01*
X11428Y16324D02*
X11538Y16214D01*
X11370Y16184D02*
X11480Y16074D01*
X15937Y17757D02*
Y17807D01*
X15622Y17757D02*
Y17807D01*
X15470Y16891D02*
X15622D01*
X15937Y16941D02*
Y17174D01*
X16252Y16941D02*
Y17309D01*
Y17757D02*
Y17807D01*
X16777Y16365D02*
X16937Y16524D01*
X11432Y15924D02*
X16187D01*
X11312Y16044D02*
X11432Y15924D01*
X15407Y15774D02*
X15707Y15474D01*
X11384Y15774D02*
X15407D01*
X16187Y15924D02*
X16537Y15574D01*
X16235Y16074D02*
X16677Y15632D01*
X15087Y17274D02*
X15470Y16891D01*
X9637Y18074D02*
X14987D01*
X9527Y18214D02*
X15045D01*
X9417Y18354D02*
X15157D01*
X9347Y18584D02*
X11817D01*
X5387Y18524D02*
X5837D01*
X5244Y18382D02*
X5387Y18524D01*
X5244Y17030D02*
Y18382D01*
X5937Y18624D02*
Y19399D01*
X5837Y18524D02*
X5937Y18624D01*
X10387Y17274D02*
Y17552D01*
X5206Y16992D02*
X5244Y17030D01*
X5937Y19399D02*
X6262Y19724D01*
X8137D01*
X8787Y19074D01*
X6663Y19157D02*
X6746Y19074D01*
X8437D01*
X6663Y16992D02*
Y17800D01*
X7387Y18524D01*
X7937D01*
X8137Y18324D01*
X7537Y17374D02*
X9167Y19004D01*
X7757Y17390D02*
X9231Y18864D01*
X7897Y17332D02*
X9289Y18724D01*
X7897Y15766D02*
Y17332D01*
X8037Y17274D02*
X9347Y18584D01*
X8037Y15824D02*
Y17274D01*
X12860Y19301D02*
X13037Y19124D01*
X11214Y19301D02*
X12860D01*
X10917Y19004D02*
X11214Y19301D01*
X12598Y19161D02*
X12935Y18824D01*
X11274Y19161D02*
X12598D01*
X10977Y18864D02*
X11274Y19161D01*
X12540Y19021D02*
X12887Y18674D01*
X11384Y19021D02*
X12540D01*
X11087Y18724D02*
X11384Y19021D01*
X9289Y18724D02*
X11087D01*
X9231Y18864D02*
X10977D01*
X9167Y19004D02*
X10917D01*
X16721Y19614D02*
X17237Y19099D01*
X12935Y18824D02*
X13187D01*
X12887Y18674D02*
X13287D01*
X11817Y18584D02*
X11907Y18674D01*
X17237Y17574D02*
X17737Y17074D01*
X17237Y17574D02*
Y19099D01*
X13037Y19074D02*
Y19124D01*
X13587Y19224D02*
X16687D01*
X13187Y18824D02*
X13587Y19224D01*
X13687Y19074D02*
X16587D01*
X13287Y18674D02*
X13687Y19074D01*
X17737Y17074D02*
X26024D01*
X16937Y16524D02*
Y18974D01*
X26024Y17074D02*
X26488Y16610D01*
X16687Y19224D02*
X16937Y18974D01*
X10387Y17552D02*
X10410Y17574D01*
X10337Y17024D02*
X10660D01*
X10252Y16939D02*
X10337Y17024D01*
X9465Y17902D02*
X9637Y18074D01*
X14987D02*
X15087Y17974D01*
X9159Y17847D02*
X9527Y18214D01*
X15045D02*
X15227Y18032D01*
X8892Y17830D02*
X9417Y18354D01*
X15157D02*
X15387Y18124D01*
X9687Y17702D02*
X10087D01*
X10037Y17297D02*
X10087Y17347D01*
X10037Y17074D02*
Y17297D01*
X9687Y17074D02*
Y17347D01*
X9465Y16702D02*
Y17902D01*
X9159Y16397D02*
Y17847D01*
X10037Y17074D02*
X10094Y17017D01*
Y16702D02*
Y17017D01*
X9687Y17074D02*
X9737D01*
X9937Y16874D01*
Y16702D02*
Y16874D01*
X9780Y16082D02*
X9937Y15924D01*
X8614Y16302D02*
X8637Y16324D01*
X8337Y16302D02*
X8614D01*
X11064Y16974D02*
X11287D01*
X10409Y16702D02*
X11050D01*
X11428Y16324D02*
X11428D01*
X11050Y16702D02*
X11428Y16324D01*
X11370Y16184D02*
X11370D01*
X11157Y16397D02*
X11370Y16184D01*
X10715Y16397D02*
X11157D01*
X11312Y16044D02*
X11312D01*
X11117Y16239D02*
X11312Y16044D01*
X10715Y16239D02*
X11117D01*
X11254Y15904D02*
X11384Y15774D01*
X11254Y15904D02*
X11254D01*
X11076Y16082D02*
X11254Y15904D01*
X10715Y16082D02*
X11076D01*
X11187Y15624D02*
Y15674D01*
X10927Y15609D02*
X11412Y15124D01*
X10715Y15609D02*
X10927D01*
X10715Y15924D02*
X10987D01*
X11412Y15124D02*
X12837D01*
X13737Y18724D02*
X14467D01*
X7537Y15524D02*
Y17374D01*
Y15524D02*
X7915Y15147D01*
X9465D01*
X9082Y15374D02*
X9159Y15452D01*
X8087Y15374D02*
X9082D01*
X7757Y15704D02*
X8087Y15374D01*
X7757Y15704D02*
Y17390D01*
X17527Y16214D02*
X18267Y15474D01*
X16687Y14074D02*
Y15574D01*
X16677Y15584D02*
X16687Y15574D01*
X16677Y15584D02*
Y15632D01*
X16537Y13774D02*
Y15574D01*
X15087Y17274D02*
Y17974D01*
X15227Y17424D02*
Y18032D01*
Y17424D02*
X15377Y17274D01*
X15837D01*
X15937Y17174D01*
X15387Y17524D02*
Y18124D01*
X16137Y17424D02*
X16252Y17309D01*
X15487Y17424D02*
X16137D01*
X15387Y17524D02*
X15487Y17424D01*
X7897Y15766D02*
X8139Y15524D01*
X8837D01*
X8922Y15609D01*
X9159D01*
X8037Y15824D02*
X8155Y15706D01*
X8816D01*
X8877Y15767D01*
X9159D01*
X8737Y15924D02*
X9159D01*
X8892Y16339D02*
X8992Y16239D01*
X8892Y16339D02*
Y17830D01*
X8992Y16239D02*
X9159D01*
X8930Y16082D02*
X9159D01*
X8687Y16324D02*
X8930Y16082D01*
X8637Y16324D02*
X8687D01*
X9780Y14632D02*
X9787Y14624D01*
X9780Y14632D02*
Y15147D01*
X10087Y14624D02*
X10094Y14632D01*
Y15147D01*
X10252Y14761D02*
X11189Y13824D01*
X10252Y14761D02*
Y15147D01*
X10409Y14802D02*
X11187Y14024D01*
X10409Y14802D02*
Y15147D01*
X11907Y15474D02*
X12687D01*
X12587Y13824D02*
X12687Y13724D01*
X11189Y13824D02*
X12587D01*
X14467Y13474D02*
Y13795D01*
X14237Y14024D02*
X14467Y13795D01*
X11187Y14024D02*
X14237D01*
X11907Y13154D02*
Y13474D01*
Y13154D02*
X12037Y13024D01*
X14937D01*
X15087Y13174D01*
Y14724D01*
X14937Y14874D02*
X15087Y14724D01*
X11292Y14874D02*
X14937D01*
X10715Y15452D02*
X11292Y14874D01*
X13187Y15474D02*
X14467D01*
X12837Y15124D02*
X13187Y15474D01*
X9937Y15924D02*
X10094Y15767D01*
X16537Y13774D02*
X16837Y13474D01*
X18267D01*
X15687Y13454D02*
X15707Y13474D01*
X15687Y13174D02*
Y13454D01*
Y13174D02*
X15787Y13074D01*
X18787D01*
X18828Y13115D01*
Y13724D01*
X18728Y13824D02*
X18828Y13724D01*
X16937Y13824D02*
X18728D01*
X16687Y14074D02*
X16937Y13824D01*
X10660Y17024D02*
X10710Y16974D01*
X10252Y16702D02*
Y16939D01*
X36239Y16082D02*
Y16702D01*
X36554Y15767D02*
X37174D01*
X36786Y19614D02*
X43180D01*
X36646Y19474D02*
X36786Y19614D01*
X37446Y15924D02*
X37696Y15674D01*
X37646Y15624D02*
X37696Y15674D01*
X34796Y15924D02*
X35196D01*
X41896Y18447D02*
X42081Y18262D01*
Y17807D02*
Y18262D01*
X42296Y18447D02*
X42396Y18347D01*
Y17807D02*
Y18347D01*
X42296Y18802D02*
X42696D01*
X41946D02*
X42296D01*
X43046Y19074D02*
X43224Y18896D01*
X43076Y16505D02*
X43224Y16653D01*
Y18896D01*
X41145Y16505D02*
X43076D01*
X38726Y16365D02*
X43236D01*
X37997Y16214D02*
X43986D01*
X37939Y16074D02*
X42694D01*
X40926Y16724D02*
X41145Y16505D01*
X38367Y16724D02*
X38726Y16365D01*
X37887Y16324D02*
X37997Y16214D01*
X37829Y16184D02*
X37939Y16074D01*
X42396Y17757D02*
Y17807D01*
X42081Y17757D02*
Y17807D01*
X41929Y16891D02*
X42081D01*
X42396Y16941D02*
Y17174D01*
X42711Y16941D02*
Y17309D01*
Y17757D02*
Y17807D01*
X43236Y16365D02*
X43396Y16524D01*
X37891Y15924D02*
X42646D01*
X37771Y16044D02*
X37891Y15924D01*
X41867Y15774D02*
X42167Y15474D01*
X37843Y15774D02*
X41867D01*
X42646Y15924D02*
X42996Y15574D01*
X42694Y16074D02*
X43136Y15632D01*
X41546Y17274D02*
X41929Y16891D01*
X36096Y18074D02*
X41446D01*
X35986Y18214D02*
X41504D01*
X35876Y18354D02*
X41616D01*
X35806Y18584D02*
X38277D01*
X31846Y18524D02*
X32296D01*
X31703Y18382D02*
X31846Y18524D01*
X31703Y17030D02*
Y18382D01*
X32396Y18624D02*
Y19399D01*
X32296Y18524D02*
X32396Y18624D01*
X36846Y17274D02*
Y17552D01*
X31665Y16992D02*
X31703Y17030D01*
X32396Y19399D02*
X32721Y19724D01*
X34596D01*
X35246Y19074D01*
X33122Y19157D02*
X33205Y19074D01*
X34896D01*
X33122Y16992D02*
Y17800D01*
X33846Y18524D01*
X34396D01*
X34596Y18324D01*
X33996Y17374D02*
X35626Y19004D01*
X34216Y17390D02*
X35690Y18864D01*
X34356Y17332D02*
X35748Y18724D01*
X34356Y15766D02*
Y17332D01*
X34496Y17274D02*
X35806Y18584D01*
X34496Y15824D02*
Y17274D01*
X39319Y19301D02*
X39496Y19124D01*
X37673Y19301D02*
X39319D01*
X37376Y19004D02*
X37673Y19301D01*
X39057Y19161D02*
X39394Y18824D01*
X37733Y19161D02*
X39057D01*
X37436Y18864D02*
X37733Y19161D01*
X38999Y19021D02*
X39346Y18674D01*
X37843Y19021D02*
X38999D01*
X37546Y18724D02*
X37843Y19021D01*
X35748Y18724D02*
X37546D01*
X35690Y18864D02*
X37436D01*
X35626Y19004D02*
X37376D01*
X43180Y19614D02*
X43696Y19099D01*
X39394Y18824D02*
X39646D01*
X39346Y18674D02*
X39746D01*
X38277Y18584D02*
X38367Y18674D01*
X43696Y17574D02*
X44196Y17074D01*
X43696Y17574D02*
Y19099D01*
X39496Y19074D02*
Y19124D01*
X40046Y19224D02*
X43146D01*
X39646Y18824D02*
X40046Y19224D01*
X40146Y19074D02*
X43046D01*
X39746Y18674D02*
X40146Y19074D01*
X44196Y17074D02*
X52483D01*
X43396Y16524D02*
Y18974D01*
X52483Y17074D02*
X52947Y16610D01*
X43146Y19224D02*
X43396Y18974D01*
X36846Y17552D02*
X36869Y17574D01*
X36796Y17024D02*
X37119D01*
X36711Y16939D02*
X36796Y17024D01*
X35924Y17902D02*
X36096Y18074D01*
X41446D02*
X41546Y17974D01*
X35619Y17847D02*
X35986Y18214D01*
X41504D02*
X41686Y18032D01*
X35351Y17830D02*
X35876Y18354D01*
X41616D02*
X41846Y18124D01*
X36146Y17702D02*
X36546D01*
X36496Y17297D02*
X36546Y17347D01*
X36496Y17074D02*
Y17297D01*
X36146Y17074D02*
Y17347D01*
X35924Y16702D02*
Y17902D01*
X35619Y16397D02*
Y17847D01*
X36496Y17074D02*
X36554Y17017D01*
Y16702D02*
Y17017D01*
X36146Y17074D02*
X36196D01*
X36396Y16874D01*
Y16702D02*
Y16874D01*
X36239Y16082D02*
X36396Y15924D01*
X35073Y16302D02*
X35096Y16324D01*
X34796Y16302D02*
X35073D01*
X37523Y16974D02*
X37746D01*
X36869Y16702D02*
X37509D01*
X37887Y16324D02*
X37887D01*
X37509Y16702D02*
X37887Y16324D01*
X37829Y16184D02*
X37829D01*
X37616Y16397D02*
X37829Y16184D01*
X37174Y16397D02*
X37616D01*
X37771Y16044D02*
X37771D01*
X37576Y16239D02*
X37771Y16044D01*
X37174Y16239D02*
X37576D01*
X37713Y15904D02*
X37843Y15774D01*
X37713Y15904D02*
X37713D01*
X37535Y16082D02*
X37713Y15904D01*
X37174Y16082D02*
X37535D01*
X37646Y15624D02*
Y15674D01*
X37386Y15609D02*
X37871Y15124D01*
X37174Y15609D02*
X37386D01*
X37174Y15924D02*
X37446D01*
X37871Y15124D02*
X39296D01*
X40196Y18724D02*
X40926D01*
X33996Y15524D02*
Y17374D01*
Y15524D02*
X34374Y15147D01*
X35924D01*
X35541Y15374D02*
X35619Y15452D01*
X34546Y15374D02*
X35541D01*
X34216Y15704D02*
X34546Y15374D01*
X34216Y15704D02*
Y17390D01*
X43986Y16214D02*
X44726Y15474D01*
X43146Y14074D02*
Y15574D01*
X43136Y15584D02*
X43146Y15574D01*
X43136Y15584D02*
Y15632D01*
X42996Y13774D02*
Y15574D01*
X41546Y17274D02*
Y17974D01*
X41686Y17424D02*
Y18032D01*
Y17424D02*
X41836Y17274D01*
X42296D01*
X42396Y17174D01*
X41846Y17524D02*
Y18124D01*
X42596Y17424D02*
X42711Y17309D01*
X41946Y17424D02*
X42596D01*
X41846Y17524D02*
X41946Y17424D01*
X34356Y15766D02*
X34598Y15524D01*
X35296D01*
X35381Y15609D01*
X35619D01*
X34496Y15824D02*
X34614Y15706D01*
X35275D01*
X35336Y15767D01*
X35619D01*
X35196Y15924D02*
X35619D01*
X35351Y16339D02*
X35451Y16239D01*
X35351Y16339D02*
Y17830D01*
X35451Y16239D02*
X35619D01*
X35389Y16082D02*
X35619D01*
X35146Y16324D02*
X35389Y16082D01*
X35096Y16324D02*
X35146D01*
X36239Y14632D02*
X36246Y14624D01*
X36239Y14632D02*
Y15147D01*
X36546Y14624D02*
X36554Y14632D01*
Y15147D01*
X36711Y14761D02*
X37648Y13824D01*
X36711Y14761D02*
Y15147D01*
X36869Y14802D02*
X37646Y14024D01*
X36869Y14802D02*
Y15147D01*
X38367Y15474D02*
X39146D01*
X39046Y13824D02*
X39146Y13724D01*
X37648Y13824D02*
X39046D01*
X40926Y13474D02*
Y13795D01*
X40696Y14024D02*
X40926Y13795D01*
X37646Y14024D02*
X40696D01*
X38367Y13154D02*
Y13474D01*
Y13154D02*
X38496Y13024D01*
X41396D01*
X41546Y13174D01*
Y14724D01*
X41396Y14874D02*
X41546Y14724D01*
X37751Y14874D02*
X41396D01*
X37174Y15452D02*
X37751Y14874D01*
X39646Y15474D02*
X40926D01*
X39296Y15124D02*
X39646Y15474D01*
X36396Y15924D02*
X36554Y15767D01*
X42996Y13774D02*
X43296Y13474D01*
X44726D01*
X42146Y13454D02*
X42167Y13474D01*
X42146Y13174D02*
Y13454D01*
Y13174D02*
X42246Y13074D01*
X45246D01*
X45287Y13115D01*
Y13724D01*
X45187Y13824D02*
X45287Y13724D01*
X43396Y13824D02*
X45187D01*
X43146Y14074D02*
X43396Y13824D01*
X37119Y17024D02*
X37169Y16974D01*
X36711Y16702D02*
Y16939D01*
X9780Y24469D02*
Y25089D01*
X10094Y24154D02*
X10715D01*
X10327Y28002D02*
X16721D01*
X10187Y27862D02*
X10327Y28002D01*
X10987Y24312D02*
X11237Y24062D01*
X11187Y24012D02*
X11237Y24062D01*
X8337Y24312D02*
X8737D01*
X15437Y26835D02*
X15622Y26650D01*
Y26195D02*
Y26650D01*
X15837Y26835D02*
X15937Y26735D01*
Y26195D02*
Y26735D01*
X15837Y27189D02*
X16237D01*
X15487D02*
X15837D01*
X16587Y27462D02*
X16765Y27284D01*
X16617Y24892D02*
X16765Y25040D01*
Y27284D01*
X14686Y24892D02*
X16617D01*
X12267Y24752D02*
X16777D01*
X11538Y24602D02*
X17527D01*
X11480Y24462D02*
X16235D01*
X14467Y25112D02*
X14686Y24892D01*
X11907Y25112D02*
X12267Y24752D01*
X11428Y24712D02*
X11538Y24602D01*
X11370Y24572D02*
X11480Y24462D01*
X15937Y26145D02*
Y26195D01*
X15622Y26145D02*
Y26195D01*
X15470Y25279D02*
X15622D01*
X15937Y25329D02*
Y25562D01*
X16252Y25329D02*
Y25697D01*
Y26145D02*
Y26195D01*
X16777Y24752D02*
X16937Y24912D01*
X11432Y24312D02*
X16187D01*
X11312Y24432D02*
X11432Y24312D01*
X15407Y24162D02*
X15707Y23862D01*
X11384Y24162D02*
X15407D01*
X16187Y24312D02*
X16537Y23962D01*
X16235Y24462D02*
X16677Y24020D01*
X15087Y25662D02*
X15470Y25279D01*
X9637Y26462D02*
X14987D01*
X9527Y26602D02*
X15045D01*
X9417Y26742D02*
X15157D01*
X9347Y26972D02*
X11817D01*
X5387Y26912D02*
X5837D01*
X5244Y26769D02*
X5387Y26912D01*
X5244Y25417D02*
Y26769D01*
X5937Y27012D02*
Y27787D01*
X5837Y26912D02*
X5937Y27012D01*
X10387Y25662D02*
Y25939D01*
X5206Y25379D02*
X5244Y25417D01*
X5937Y27787D02*
X6262Y28112D01*
X8137D01*
X8787Y27462D01*
X6663Y27544D02*
X6746Y27462D01*
X8437D01*
X6663Y25379D02*
Y26188D01*
X7387Y26912D01*
X7937D01*
X8137Y26712D01*
X7537Y25762D02*
X9167Y27392D01*
X7757Y25778D02*
X9231Y27252D01*
X7897Y25720D02*
X9289Y27112D01*
X7897Y24154D02*
Y25720D01*
X8037Y25662D02*
X9347Y26972D01*
X8037Y24212D02*
Y25662D01*
X12860Y27689D02*
X13037Y27512D01*
X11214Y27689D02*
X12860D01*
X10917Y27392D02*
X11214Y27689D01*
X12598Y27549D02*
X12935Y27212D01*
X11274Y27549D02*
X12598D01*
X10977Y27252D02*
X11274Y27549D01*
X12540Y27409D02*
X12887Y27062D01*
X11384Y27409D02*
X12540D01*
X11087Y27112D02*
X11384Y27409D01*
X9289Y27112D02*
X11087D01*
X9231Y27252D02*
X10977D01*
X9167Y27392D02*
X10917D01*
X16721Y28002D02*
X17237Y27486D01*
X12935Y27212D02*
X13187D01*
X12887Y27062D02*
X13287D01*
X11817Y26972D02*
X11907Y27062D01*
X17237Y25962D02*
X17737Y25462D01*
X17237Y25962D02*
Y27486D01*
X13037Y27462D02*
Y27512D01*
X13587Y27612D02*
X16687D01*
X13187Y27212D02*
X13587Y27612D01*
X13687Y27462D02*
X16587D01*
X13287Y27062D02*
X13687Y27462D01*
X17737Y25462D02*
X26024D01*
X16937Y24912D02*
Y27362D01*
X26024Y25462D02*
X26488Y24998D01*
X16687Y27612D02*
X16937Y27362D01*
X10387Y25939D02*
X10410Y25962D01*
X10337Y25412D02*
X10660D01*
X10252Y25327D02*
X10337Y25412D01*
X9465Y26289D02*
X9637Y26462D01*
X14987D02*
X15087Y26362D01*
X9159Y26234D02*
X9527Y26602D01*
X15045D02*
X15227Y26420D01*
X8892Y26217D02*
X9417Y26742D01*
X15157D02*
X15387Y26512D01*
X9687Y26089D02*
X10087D01*
X10037Y25685D02*
X10087Y25735D01*
X10037Y25462D02*
Y25685D01*
X9687Y25462D02*
Y25735D01*
X9465Y25089D02*
Y26289D01*
X9159Y24784D02*
Y26234D01*
X10037Y25462D02*
X10094Y25404D01*
Y25089D02*
Y25404D01*
X9687Y25462D02*
X9737D01*
X9937Y25262D01*
Y25089D02*
Y25262D01*
X9780Y24469D02*
X9937Y24312D01*
X8614Y24689D02*
X8637Y24712D01*
X8337Y24689D02*
X8614D01*
X11064Y25362D02*
X11287D01*
X10409Y25089D02*
X11050D01*
X11428Y24712D02*
X11428D01*
X11050Y25089D02*
X11428Y24712D01*
X11370Y24572D02*
X11370D01*
X11157Y24784D02*
X11370Y24572D01*
X10715Y24784D02*
X11157D01*
X11312Y24432D02*
X11312D01*
X11117Y24627D02*
X11312Y24432D01*
X10715Y24627D02*
X11117D01*
X11254Y24292D02*
X11384Y24162D01*
X11254Y24292D02*
X11254D01*
X11076Y24469D02*
X11254Y24292D01*
X10715Y24469D02*
X11076D01*
X11187Y24012D02*
Y24062D01*
X10927Y23997D02*
X11412Y23512D01*
X10715Y23997D02*
X10927D01*
X10715Y24312D02*
X10987D01*
X11412Y23512D02*
X12837D01*
X13737Y27112D02*
X14467D01*
X7537Y23912D02*
Y25762D01*
Y23912D02*
X7915Y23534D01*
X9465D01*
X9082Y23762D02*
X9159Y23839D01*
X8087Y23762D02*
X9082D01*
X7757Y24092D02*
X8087Y23762D01*
X7757Y24092D02*
Y25778D01*
X17527Y24602D02*
X18267Y23862D01*
X16687Y22462D02*
Y23962D01*
X16677Y23972D02*
X16687Y23962D01*
X16677Y23972D02*
Y24020D01*
X16537Y22162D02*
Y23962D01*
X15087Y25662D02*
Y26362D01*
X15227Y25812D02*
Y26420D01*
Y25812D02*
X15377Y25662D01*
X15837D01*
X15937Y25562D01*
X15387Y25912D02*
Y26512D01*
X16137Y25812D02*
X16252Y25697D01*
X15487Y25812D02*
X16137D01*
X15387Y25912D02*
X15487Y25812D01*
X7897Y24154D02*
X8139Y23912D01*
X8837D01*
X8922Y23997D01*
X9159D01*
X8037Y24212D02*
X8155Y24094D01*
X8816D01*
X8877Y24154D01*
X9159D01*
X8737Y24312D02*
X9159D01*
X8892Y24727D02*
X8992Y24627D01*
X8892Y24727D02*
Y26217D01*
X8992Y24627D02*
X9159D01*
X8930Y24469D02*
X9159D01*
X8687Y24712D02*
X8930Y24469D01*
X8637Y24712D02*
X8687D01*
X9780Y23019D02*
X9787Y23012D01*
X9780Y23019D02*
Y23534D01*
X10087Y23012D02*
X10094Y23019D01*
Y23534D01*
X10252Y23149D02*
X11189Y22212D01*
X10252Y23149D02*
Y23534D01*
X10409Y23189D02*
X11187Y22412D01*
X10409Y23189D02*
Y23534D01*
X11907Y23862D02*
X12687D01*
X12587Y22212D02*
X12687Y22112D01*
X11189Y22212D02*
X12587D01*
X14467Y21862D02*
Y22182D01*
X14237Y22412D02*
X14467Y22182D01*
X11187Y22412D02*
X14237D01*
X11907Y21541D02*
Y21862D01*
Y21541D02*
X12037Y21412D01*
X14937D01*
X15087Y21562D01*
Y23112D01*
X14937Y23262D02*
X15087Y23112D01*
X11292Y23262D02*
X14937D01*
X10715Y23839D02*
X11292Y23262D01*
X13187Y23862D02*
X14467D01*
X12837Y23512D02*
X13187Y23862D01*
X9937Y24312D02*
X10094Y24154D01*
X16537Y22162D02*
X16837Y21862D01*
X18267D01*
X15687Y21841D02*
X15707Y21862D01*
X15687Y21562D02*
Y21841D01*
Y21562D02*
X15787Y21462D01*
X18787D01*
X18828Y21502D01*
Y22112D01*
X18728Y22212D02*
X18828Y22112D01*
X16937Y22212D02*
X18728D01*
X16687Y22462D02*
X16937Y22212D01*
X10660Y25412D02*
X10710Y25362D01*
X10252Y25089D02*
Y25327D01*
X36239Y24469D02*
Y25089D01*
X36554Y24154D02*
X37174D01*
X36786Y28002D02*
X43180D01*
X36646Y27862D02*
X36786Y28002D01*
X37446Y24312D02*
X37696Y24062D01*
X37646Y24012D02*
X37696Y24062D01*
X34796Y24312D02*
X35196D01*
X41896Y26835D02*
X42081Y26650D01*
Y26195D02*
Y26650D01*
X42296Y26835D02*
X42396Y26735D01*
Y26195D02*
Y26735D01*
X42296Y27189D02*
X42696D01*
X41946D02*
X42296D01*
X43046Y27462D02*
X43224Y27284D01*
X43076Y24892D02*
X43224Y25040D01*
Y27284D01*
X41145Y24892D02*
X43076D01*
X38726Y24752D02*
X43236D01*
X37997Y24602D02*
X43986D01*
X37939Y24462D02*
X42694D01*
X40926Y25112D02*
X41145Y24892D01*
X38367Y25112D02*
X38726Y24752D01*
X37887Y24712D02*
X37997Y24602D01*
X37829Y24572D02*
X37939Y24462D01*
X42396Y26145D02*
Y26195D01*
X42081Y26145D02*
Y26195D01*
X41929Y25279D02*
X42081D01*
X42396Y25329D02*
Y25562D01*
X42711Y25329D02*
Y25697D01*
Y26145D02*
Y26195D01*
X43236Y24752D02*
X43396Y24912D01*
X37891Y24312D02*
X42646D01*
X37771Y24432D02*
X37891Y24312D01*
X41867Y24162D02*
X42167Y23862D01*
X37843Y24162D02*
X41867D01*
X42646Y24312D02*
X42996Y23962D01*
X42694Y24462D02*
X43136Y24020D01*
X41546Y25662D02*
X41929Y25279D01*
X36096Y26462D02*
X41446D01*
X35986Y26602D02*
X41504D01*
X35876Y26742D02*
X41616D01*
X35806Y26972D02*
X38277D01*
X31846Y26912D02*
X32296D01*
X31703Y26769D02*
X31846Y26912D01*
X31703Y25417D02*
Y26769D01*
X32396Y27012D02*
Y27787D01*
X32296Y26912D02*
X32396Y27012D01*
X36846Y25662D02*
Y25939D01*
X31665Y25379D02*
X31703Y25417D01*
X32396Y27787D02*
X32721Y28112D01*
X34596D01*
X35246Y27462D01*
X33122Y27544D02*
X33205Y27462D01*
X34896D01*
X33122Y25379D02*
Y26188D01*
X33846Y26912D01*
X34396D01*
X34596Y26712D01*
X33996Y25762D02*
X35626Y27392D01*
X34216Y25778D02*
X35690Y27252D01*
X34356Y25720D02*
X35748Y27112D01*
X34356Y24154D02*
Y25720D01*
X34496Y25662D02*
X35806Y26972D01*
X34496Y24212D02*
Y25662D01*
X39319Y27689D02*
X39496Y27512D01*
X37673Y27689D02*
X39319D01*
X37376Y27392D02*
X37673Y27689D01*
X39057Y27549D02*
X39394Y27212D01*
X37733Y27549D02*
X39057D01*
X37436Y27252D02*
X37733Y27549D01*
X38999Y27409D02*
X39346Y27062D01*
X37843Y27409D02*
X38999D01*
X37546Y27112D02*
X37843Y27409D01*
X35748Y27112D02*
X37546D01*
X35690Y27252D02*
X37436D01*
X35626Y27392D02*
X37376D01*
X43180Y28002D02*
X43696Y27486D01*
X39394Y27212D02*
X39646D01*
X39346Y27062D02*
X39746D01*
X38277Y26972D02*
X38367Y27062D01*
X43696Y25962D02*
X44196Y25462D01*
X43696Y25962D02*
Y27486D01*
X39496Y27462D02*
Y27512D01*
X40046Y27612D02*
X43146D01*
X39646Y27212D02*
X40046Y27612D01*
X40146Y27462D02*
X43046D01*
X39746Y27062D02*
X40146Y27462D01*
X44196Y25462D02*
X52483D01*
X43396Y24912D02*
Y27362D01*
X52483Y25462D02*
X52947Y24998D01*
X43146Y27612D02*
X43396Y27362D01*
X36846Y25939D02*
X36869Y25962D01*
X36796Y25412D02*
X37119D01*
X36711Y25327D02*
X36796Y25412D01*
X35924Y26289D02*
X36096Y26462D01*
X41446D02*
X41546Y26362D01*
X35619Y26234D02*
X35986Y26602D01*
X41504D02*
X41686Y26420D01*
X35351Y26217D02*
X35876Y26742D01*
X41616D02*
X41846Y26512D01*
X36146Y26089D02*
X36546D01*
X36496Y25685D02*
X36546Y25735D01*
X36496Y25462D02*
Y25685D01*
X36146Y25462D02*
Y25735D01*
X35924Y25089D02*
Y26289D01*
X35619Y24784D02*
Y26234D01*
X36496Y25462D02*
X36554Y25404D01*
Y25089D02*
Y25404D01*
X36146Y25462D02*
X36196D01*
X36396Y25262D01*
Y25089D02*
Y25262D01*
X36239Y24469D02*
X36396Y24312D01*
X35073Y24689D02*
X35096Y24712D01*
X34796Y24689D02*
X35073D01*
X37523Y25362D02*
X37746D01*
X36869Y25089D02*
X37509D01*
X37887Y24712D02*
X37887D01*
X37509Y25089D02*
X37887Y24712D01*
X37829Y24572D02*
X37829D01*
X37616Y24784D02*
X37829Y24572D01*
X37174Y24784D02*
X37616D01*
X37771Y24432D02*
X37771D01*
X37576Y24627D02*
X37771Y24432D01*
X37174Y24627D02*
X37576D01*
X37713Y24292D02*
X37843Y24162D01*
X37713Y24292D02*
X37713D01*
X37535Y24469D02*
X37713Y24292D01*
X37174Y24469D02*
X37535D01*
X37646Y24012D02*
Y24062D01*
X37386Y23997D02*
X37871Y23512D01*
X37174Y23997D02*
X37386D01*
X37174Y24312D02*
X37446D01*
X37871Y23512D02*
X39296D01*
X40196Y27112D02*
X40926D01*
X33996Y23912D02*
Y25762D01*
Y23912D02*
X34374Y23534D01*
X35924D01*
X35541Y23762D02*
X35619Y23839D01*
X34546Y23762D02*
X35541D01*
X34216Y24092D02*
X34546Y23762D01*
X34216Y24092D02*
Y25778D01*
X43986Y24602D02*
X44726Y23862D01*
X43146Y22462D02*
Y23962D01*
X43136Y23972D02*
X43146Y23962D01*
X43136Y23972D02*
Y24020D01*
X42996Y22162D02*
Y23962D01*
X41546Y25662D02*
Y26362D01*
X41686Y25812D02*
Y26420D01*
Y25812D02*
X41836Y25662D01*
X42296D01*
X42396Y25562D01*
X41846Y25912D02*
Y26512D01*
X42596Y25812D02*
X42711Y25697D01*
X41946Y25812D02*
X42596D01*
X41846Y25912D02*
X41946Y25812D01*
X34356Y24154D02*
X34598Y23912D01*
X35296D01*
X35381Y23997D01*
X35619D01*
X34496Y24212D02*
X34614Y24094D01*
X35275D01*
X35336Y24154D01*
X35619D01*
X35196Y24312D02*
X35619D01*
X35351Y24727D02*
X35451Y24627D01*
X35351Y24727D02*
Y26217D01*
X35451Y24627D02*
X35619D01*
X35389Y24469D02*
X35619D01*
X35146Y24712D02*
X35389Y24469D01*
X35096Y24712D02*
X35146D01*
X36239Y23019D02*
X36246Y23012D01*
X36239Y23019D02*
Y23534D01*
X36546Y23012D02*
X36554Y23019D01*
Y23534D01*
X36711Y23149D02*
X37648Y22212D01*
X36711Y23149D02*
Y23534D01*
X36869Y23189D02*
X37646Y22412D01*
X36869Y23189D02*
Y23534D01*
X38367Y23862D02*
X39146D01*
X39046Y22212D02*
X39146Y22112D01*
X37648Y22212D02*
X39046D01*
X40926Y21862D02*
Y22182D01*
X40696Y22412D02*
X40926Y22182D01*
X37646Y22412D02*
X40696D01*
X38367Y21541D02*
Y21862D01*
Y21541D02*
X38496Y21412D01*
X41396D01*
X41546Y21562D01*
Y23112D01*
X41396Y23262D02*
X41546Y23112D01*
X37751Y23262D02*
X41396D01*
X37174Y23839D02*
X37751Y23262D01*
X39646Y23862D02*
X40926D01*
X39296Y23512D02*
X39646Y23862D01*
X36396Y24312D02*
X36554Y24154D01*
X42996Y22162D02*
X43296Y21862D01*
X44726D01*
X42146Y21841D02*
X42167Y21862D01*
X42146Y21562D02*
Y21841D01*
Y21562D02*
X42246Y21462D01*
X45246D01*
X45287Y21502D01*
Y22112D01*
X45187Y22212D02*
X45287Y22112D01*
X43396Y22212D02*
X45187D01*
X43146Y22462D02*
X43396Y22212D01*
X37119Y25412D02*
X37169Y25362D01*
X36711Y25089D02*
Y25327D01*
X9780Y32857D02*
Y33477D01*
X10094Y32542D02*
X10715D01*
X10327Y36389D02*
X16721D01*
X10187Y36249D02*
X10327Y36389D01*
X10987Y32699D02*
X11237Y32449D01*
X11187Y32399D02*
X11237Y32449D01*
X8337Y32699D02*
X8737D01*
X15437Y35222D02*
X15622Y35037D01*
Y34582D02*
Y35037D01*
X15837Y35222D02*
X15937Y35122D01*
Y34582D02*
Y35122D01*
X15837Y35576D02*
X16237D01*
X15487D02*
X15837D01*
X16587Y35849D02*
X16765Y35671D01*
X16617Y33280D02*
X16765Y33427D01*
Y35671D01*
X14686Y33280D02*
X16617D01*
X12267Y33140D02*
X16777D01*
X11538Y32989D02*
X17527D01*
X11480Y32849D02*
X16235D01*
X14467Y33499D02*
X14686Y33280D01*
X11907Y33499D02*
X12267Y33140D01*
X11428Y33099D02*
X11538Y32989D01*
X11370Y32959D02*
X11480Y32849D01*
X15937Y34532D02*
Y34582D01*
X15622Y34532D02*
Y34582D01*
X15470Y33666D02*
X15622D01*
X15937Y33716D02*
Y33949D01*
X16252Y33716D02*
Y34084D01*
Y34532D02*
Y34582D01*
X16777Y33140D02*
X16937Y33299D01*
X11432Y32699D02*
X16187D01*
X11312Y32819D02*
X11432Y32699D01*
X15407Y32549D02*
X15707Y32249D01*
X11384Y32549D02*
X15407D01*
X16187Y32699D02*
X16537Y32349D01*
X16235Y32849D02*
X16677Y32407D01*
X15087Y34049D02*
X15470Y33666D01*
X9637Y34849D02*
X14987D01*
X9527Y34989D02*
X15045D01*
X9417Y35129D02*
X15157D01*
X9347Y35359D02*
X11817D01*
X5387Y35299D02*
X5837D01*
X5244Y35156D02*
X5387Y35299D01*
X5244Y33804D02*
Y35156D01*
X5937Y35399D02*
Y36174D01*
X5837Y35299D02*
X5937Y35399D01*
X10387Y34049D02*
Y34326D01*
X5206Y33767D02*
X5244Y33804D01*
X5937Y36174D02*
X6262Y36499D01*
X8137D01*
X8787Y35849D01*
X6663Y35932D02*
X6746Y35849D01*
X8437D01*
X6663Y33767D02*
Y34575D01*
X7387Y35299D01*
X7937D01*
X8137Y35099D01*
X7537Y34149D02*
X9167Y35779D01*
X7757Y34165D02*
X9231Y35639D01*
X7897Y34107D02*
X9289Y35499D01*
X7897Y32541D02*
Y34107D01*
X8037Y34049D02*
X9347Y35359D01*
X8037Y32599D02*
Y34049D01*
X12860Y36076D02*
X13037Y35899D01*
X11214Y36076D02*
X12860D01*
X10917Y35779D02*
X11214Y36076D01*
X12598Y35936D02*
X12935Y35599D01*
X11274Y35936D02*
X12598D01*
X10977Y35639D02*
X11274Y35936D01*
X12540Y35796D02*
X12887Y35449D01*
X11384Y35796D02*
X12540D01*
X11087Y35499D02*
X11384Y35796D01*
X9289Y35499D02*
X11087D01*
X9231Y35639D02*
X10977D01*
X9167Y35779D02*
X10917D01*
X16721Y36389D02*
X17237Y35873D01*
X12935Y35599D02*
X13187D01*
X12887Y35449D02*
X13287D01*
X11817Y35359D02*
X11907Y35449D01*
X17237Y34349D02*
X17737Y33849D01*
X17237Y34349D02*
Y35873D01*
X13037Y35849D02*
Y35899D01*
X13587Y35999D02*
X16687D01*
X13187Y35599D02*
X13587Y35999D01*
X13687Y35849D02*
X16587D01*
X13287Y35449D02*
X13687Y35849D01*
X17737Y33849D02*
X26024D01*
X16937Y33299D02*
Y35749D01*
X26024Y33849D02*
X26488Y33385D01*
X16687Y35999D02*
X16937Y35749D01*
X10387Y34326D02*
X10410Y34349D01*
X10337Y33799D02*
X10660D01*
X10252Y33714D02*
X10337Y33799D01*
X9465Y34677D02*
X9637Y34849D01*
X14987D02*
X15087Y34749D01*
X9159Y34622D02*
X9527Y34989D01*
X15045D02*
X15227Y34807D01*
X8892Y34604D02*
X9417Y35129D01*
X15157D02*
X15387Y34899D01*
X9687Y34476D02*
X10087D01*
X10037Y34072D02*
X10087Y34122D01*
X10037Y33849D02*
Y34072D01*
X9687Y33849D02*
Y34122D01*
X9465Y33477D02*
Y34677D01*
X9159Y33172D02*
Y34622D01*
X10037Y33849D02*
X10094Y33792D01*
Y33477D02*
Y33792D01*
X9687Y33849D02*
X9737D01*
X9937Y33649D01*
Y33477D02*
Y33649D01*
X9780Y32857D02*
X9937Y32699D01*
X8614Y33076D02*
X8637Y33099D01*
X8337Y33076D02*
X8614D01*
X11064Y33749D02*
X11287D01*
X10409Y33477D02*
X11050D01*
X11428Y33099D02*
X11428D01*
X11050Y33477D02*
X11428Y33099D01*
X11370Y32959D02*
X11370D01*
X11157Y33172D02*
X11370Y32959D01*
X10715Y33172D02*
X11157D01*
X11312Y32819D02*
X11312D01*
X11117Y33014D02*
X11312Y32819D01*
X10715Y33014D02*
X11117D01*
X11254Y32679D02*
X11384Y32549D01*
X11254Y32679D02*
X11254D01*
X11076Y32857D02*
X11254Y32679D01*
X10715Y32857D02*
X11076D01*
X11187Y32399D02*
Y32449D01*
X10927Y32384D02*
X11412Y31899D01*
X10715Y32384D02*
X10927D01*
X10715Y32699D02*
X10987D01*
X11412Y31899D02*
X12837D01*
X13737Y35499D02*
X14467D01*
X7537Y32299D02*
Y34149D01*
Y32299D02*
X7915Y31922D01*
X9465D01*
X9082Y32149D02*
X9159Y32227D01*
X8087Y32149D02*
X9082D01*
X7757Y32479D02*
X8087Y32149D01*
X7757Y32479D02*
Y34165D01*
X17527Y32989D02*
X18267Y32249D01*
X16687Y30849D02*
Y32349D01*
X16677Y32359D02*
X16687Y32349D01*
X16677Y32359D02*
Y32407D01*
X16537Y30549D02*
Y32349D01*
X15087Y34049D02*
Y34749D01*
X15227Y34199D02*
Y34807D01*
Y34199D02*
X15377Y34049D01*
X15837D01*
X15937Y33949D01*
X15387Y34299D02*
Y34899D01*
X16137Y34199D02*
X16252Y34084D01*
X15487Y34199D02*
X16137D01*
X15387Y34299D02*
X15487Y34199D01*
X7897Y32541D02*
X8139Y32299D01*
X8837D01*
X8922Y32384D01*
X9159D01*
X8037Y32599D02*
X8155Y32481D01*
X8816D01*
X8877Y32542D01*
X9159D01*
X8737Y32699D02*
X9159D01*
X8892Y33114D02*
X8992Y33014D01*
X8892Y33114D02*
Y34604D01*
X8992Y33014D02*
X9159D01*
X8930Y32857D02*
X9159D01*
X8687Y33099D02*
X8930Y32857D01*
X8637Y33099D02*
X8687D01*
X9780Y31407D02*
X9787Y31399D01*
X9780Y31407D02*
Y31922D01*
X10087Y31399D02*
X10094Y31407D01*
Y31922D01*
X10252Y31536D02*
X11189Y30599D01*
X10252Y31536D02*
Y31922D01*
X10409Y31577D02*
X11187Y30799D01*
X10409Y31577D02*
Y31922D01*
X11907Y32249D02*
X12687D01*
X12587Y30599D02*
X12687Y30499D01*
X11189Y30599D02*
X12587D01*
X14467Y30249D02*
Y30570D01*
X14237Y30799D02*
X14467Y30570D01*
X11187Y30799D02*
X14237D01*
X11907Y29929D02*
Y30249D01*
Y29929D02*
X12037Y29799D01*
X14937D01*
X15087Y29949D01*
Y31499D01*
X14937Y31649D02*
X15087Y31499D01*
X11292Y31649D02*
X14937D01*
X10715Y32227D02*
X11292Y31649D01*
X13187Y32249D02*
X14467D01*
X12837Y31899D02*
X13187Y32249D01*
X9937Y32699D02*
X10094Y32542D01*
X16537Y30549D02*
X16837Y30249D01*
X18267D01*
X15687Y30229D02*
X15707Y30249D01*
X15687Y29949D02*
Y30229D01*
Y29949D02*
X15787Y29849D01*
X18787D01*
X18828Y29890D01*
Y30499D01*
X18728Y30599D02*
X18828Y30499D01*
X16937Y30599D02*
X18728D01*
X16687Y30849D02*
X16937Y30599D01*
X10660Y33799D02*
X10710Y33749D01*
X10252Y33477D02*
Y33714D01*
X36239Y32857D02*
Y33477D01*
X36554Y32542D02*
X37174D01*
X36786Y36389D02*
X43180D01*
X36646Y36249D02*
X36786Y36389D01*
X37446Y32699D02*
X37696Y32449D01*
X37646Y32399D02*
X37696Y32449D01*
X34796Y32699D02*
X35196D01*
X41896Y35222D02*
X42081Y35037D01*
Y34582D02*
Y35037D01*
X42296Y35222D02*
X42396Y35122D01*
Y34582D02*
Y35122D01*
X42296Y35576D02*
X42696D01*
X41946D02*
X42296D01*
X43046Y35849D02*
X43224Y35671D01*
X43076Y33280D02*
X43224Y33427D01*
Y35671D01*
X41145Y33280D02*
X43076D01*
X38726Y33140D02*
X43236D01*
X37997Y32989D02*
X43986D01*
X37939Y32849D02*
X42694D01*
X40926Y33499D02*
X41145Y33280D01*
X38367Y33499D02*
X38726Y33140D01*
X37887Y33099D02*
X37997Y32989D01*
X37829Y32959D02*
X37939Y32849D01*
X42396Y34532D02*
Y34582D01*
X42081Y34532D02*
Y34582D01*
X41929Y33666D02*
X42081D01*
X42396Y33716D02*
Y33949D01*
X42711Y33716D02*
Y34084D01*
Y34532D02*
Y34582D01*
X43236Y33140D02*
X43396Y33299D01*
X37891Y32699D02*
X42646D01*
X37771Y32819D02*
X37891Y32699D01*
X41867Y32549D02*
X42167Y32249D01*
X37843Y32549D02*
X41867D01*
X42646Y32699D02*
X42996Y32349D01*
X42694Y32849D02*
X43136Y32407D01*
X41546Y34049D02*
X41929Y33666D01*
X36096Y34849D02*
X41446D01*
X35986Y34989D02*
X41504D01*
X35876Y35129D02*
X41616D01*
X35806Y35359D02*
X38277D01*
X31846Y35299D02*
X32296D01*
X31703Y35156D02*
X31846Y35299D01*
X31703Y33804D02*
Y35156D01*
X32396Y35399D02*
Y36174D01*
X32296Y35299D02*
X32396Y35399D01*
X36846Y34049D02*
Y34326D01*
X31665Y33767D02*
X31703Y33804D01*
X32396Y36174D02*
X32721Y36499D01*
X34596D01*
X35246Y35849D01*
X33122Y35932D02*
X33205Y35849D01*
X34896D01*
X33122Y33767D02*
Y34575D01*
X33846Y35299D01*
X34396D01*
X34596Y35099D01*
X33996Y34149D02*
X35626Y35779D01*
X34216Y34165D02*
X35690Y35639D01*
X34356Y34107D02*
X35748Y35499D01*
X34356Y32541D02*
Y34107D01*
X34496Y34049D02*
X35806Y35359D01*
X34496Y32599D02*
Y34049D01*
X39319Y36076D02*
X39496Y35899D01*
X37673Y36076D02*
X39319D01*
X37376Y35779D02*
X37673Y36076D01*
X39057Y35936D02*
X39394Y35599D01*
X37733Y35936D02*
X39057D01*
X37436Y35639D02*
X37733Y35936D01*
X38999Y35796D02*
X39346Y35449D01*
X37843Y35796D02*
X38999D01*
X37546Y35499D02*
X37843Y35796D01*
X35748Y35499D02*
X37546D01*
X35690Y35639D02*
X37436D01*
X35626Y35779D02*
X37376D01*
X43180Y36389D02*
X43696Y35873D01*
X39394Y35599D02*
X39646D01*
X39346Y35449D02*
X39746D01*
X38277Y35359D02*
X38367Y35449D01*
X43696Y34349D02*
X44196Y33849D01*
X43696Y34349D02*
Y35873D01*
X39496Y35849D02*
Y35899D01*
X40046Y35999D02*
X43146D01*
X39646Y35599D02*
X40046Y35999D01*
X40146Y35849D02*
X43046D01*
X39746Y35449D02*
X40146Y35849D01*
X44196Y33849D02*
X52483D01*
X43396Y33299D02*
Y35749D01*
X52483Y33849D02*
X52947Y33385D01*
X43146Y35999D02*
X43396Y35749D01*
X36846Y34326D02*
X36869Y34349D01*
X36796Y33799D02*
X37119D01*
X36711Y33714D02*
X36796Y33799D01*
X35924Y34677D02*
X36096Y34849D01*
X41446D02*
X41546Y34749D01*
X35619Y34622D02*
X35986Y34989D01*
X41504D02*
X41686Y34807D01*
X35351Y34604D02*
X35876Y35129D01*
X41616D02*
X41846Y34899D01*
X36146Y34476D02*
X36546D01*
X36496Y34072D02*
X36546Y34122D01*
X36496Y33849D02*
Y34072D01*
X36146Y33849D02*
Y34122D01*
X35924Y33477D02*
Y34677D01*
X35619Y33172D02*
Y34622D01*
X36496Y33849D02*
X36554Y33792D01*
Y33477D02*
Y33792D01*
X36146Y33849D02*
X36196D01*
X36396Y33649D01*
Y33477D02*
Y33649D01*
X36239Y32857D02*
X36396Y32699D01*
X35073Y33076D02*
X35096Y33099D01*
X34796Y33076D02*
X35073D01*
X37523Y33749D02*
X37746D01*
X36869Y33477D02*
X37509D01*
X37887Y33099D02*
X37887D01*
X37509Y33477D02*
X37887Y33099D01*
X37829Y32959D02*
X37829D01*
X37616Y33172D02*
X37829Y32959D01*
X37174Y33172D02*
X37616D01*
X37771Y32819D02*
X37771D01*
X37576Y33014D02*
X37771Y32819D01*
X37174Y33014D02*
X37576D01*
X37713Y32679D02*
X37843Y32549D01*
X37713Y32679D02*
X37713D01*
X37535Y32857D02*
X37713Y32679D01*
X37174Y32857D02*
X37535D01*
X37646Y32399D02*
Y32449D01*
X37386Y32384D02*
X37871Y31899D01*
X37174Y32384D02*
X37386D01*
X37174Y32699D02*
X37446D01*
X37871Y31899D02*
X39296D01*
X40196Y35499D02*
X40926D01*
X33996Y32299D02*
Y34149D01*
Y32299D02*
X34374Y31922D01*
X35924D01*
X35541Y32149D02*
X35619Y32227D01*
X34546Y32149D02*
X35541D01*
X34216Y32479D02*
X34546Y32149D01*
X34216Y32479D02*
Y34165D01*
X43986Y32989D02*
X44726Y32249D01*
X43146Y30849D02*
Y32349D01*
X43136Y32359D02*
X43146Y32349D01*
X43136Y32359D02*
Y32407D01*
X42996Y30549D02*
Y32349D01*
X41546Y34049D02*
Y34749D01*
X41686Y34199D02*
Y34807D01*
Y34199D02*
X41836Y34049D01*
X42296D01*
X42396Y33949D01*
X41846Y34299D02*
Y34899D01*
X42596Y34199D02*
X42711Y34084D01*
X41946Y34199D02*
X42596D01*
X41846Y34299D02*
X41946Y34199D01*
X34356Y32541D02*
X34598Y32299D01*
X35296D01*
X35381Y32384D01*
X35619D01*
X34496Y32599D02*
X34614Y32481D01*
X35275D01*
X35336Y32542D01*
X35619D01*
X35196Y32699D02*
X35619D01*
X35351Y33114D02*
X35451Y33014D01*
X35351Y33114D02*
Y34604D01*
X35451Y33014D02*
X35619D01*
X35389Y32857D02*
X35619D01*
X35146Y33099D02*
X35389Y32857D01*
X35096Y33099D02*
X35146D01*
X36239Y31407D02*
X36246Y31399D01*
X36239Y31407D02*
Y31922D01*
X36546Y31399D02*
X36554Y31407D01*
Y31922D01*
X36711Y31536D02*
X37648Y30599D01*
X36711Y31536D02*
Y31922D01*
X36869Y31577D02*
X37646Y30799D01*
X36869Y31577D02*
Y31922D01*
X38367Y32249D02*
X39146D01*
X39046Y30599D02*
X39146Y30499D01*
X37648Y30599D02*
X39046D01*
X40926Y30249D02*
Y30570D01*
X40696Y30799D02*
X40926Y30570D01*
X37646Y30799D02*
X40696D01*
X38367Y29929D02*
Y30249D01*
Y29929D02*
X38496Y29799D01*
X41396D01*
X41546Y29949D01*
Y31499D01*
X41396Y31649D02*
X41546Y31499D01*
X37751Y31649D02*
X41396D01*
X37174Y32227D02*
X37751Y31649D01*
X39646Y32249D02*
X40926D01*
X39296Y31899D02*
X39646Y32249D01*
X36396Y32699D02*
X36554Y32542D01*
X42996Y30549D02*
X43296Y30249D01*
X44726D01*
X42146Y30229D02*
X42167Y30249D01*
X42146Y29949D02*
Y30229D01*
Y29949D02*
X42246Y29849D01*
X45246D01*
X45287Y29890D01*
Y30499D01*
X45187Y30599D02*
X45287Y30499D01*
X43396Y30599D02*
X45187D01*
X43146Y30849D02*
X43396Y30599D01*
X37119Y33799D02*
X37169Y33749D01*
X36711Y33477D02*
Y33714D01*
X9780Y41244D02*
Y41864D01*
X10094Y40929D02*
X10715D01*
X10327Y44777D02*
X16721D01*
X10187Y44637D02*
X10327Y44777D01*
X10987Y41087D02*
X11237Y40837D01*
X11187Y40787D02*
X11237Y40837D01*
X8337Y41087D02*
X8737D01*
X15437Y43609D02*
X15622Y43424D01*
Y42970D02*
Y43424D01*
X15837Y43609D02*
X15937Y43509D01*
Y42970D02*
Y43509D01*
X15837Y43964D02*
X16237D01*
X15487D02*
X15837D01*
X16587Y44237D02*
X16765Y44059D01*
X16617Y41667D02*
X16765Y41815D01*
Y44059D01*
X14686Y41667D02*
X16617D01*
X12267Y41527D02*
X16777D01*
X11538Y41377D02*
X17527D01*
X11480Y41237D02*
X16235D01*
X14467Y41887D02*
X14686Y41667D01*
X11907Y41887D02*
X12267Y41527D01*
X11428Y41487D02*
X11538Y41377D01*
X11370Y41347D02*
X11480Y41237D01*
X15937Y42920D02*
Y42970D01*
X15622Y42920D02*
Y42970D01*
X15470Y42054D02*
X15622D01*
X15937Y42104D02*
Y42337D01*
X16252Y42104D02*
Y42472D01*
Y42920D02*
Y42970D01*
X16777Y41527D02*
X16937Y41687D01*
X11432Y41087D02*
X16187D01*
X11312Y41207D02*
X11432Y41087D01*
X15407Y40937D02*
X15707Y40637D01*
X11384Y40937D02*
X15407D01*
X16187Y41087D02*
X16537Y40737D01*
X16235Y41237D02*
X16677Y40795D01*
X15087Y42437D02*
X15470Y42054D01*
X9637Y43237D02*
X14987D01*
X9527Y43377D02*
X15045D01*
X9417Y43517D02*
X15157D01*
X9347Y43747D02*
X11817D01*
X5387Y43687D02*
X5837D01*
X5244Y43544D02*
X5387Y43687D01*
X5244Y42192D02*
Y43544D01*
X5937Y43787D02*
Y44562D01*
X5837Y43687D02*
X5937Y43787D01*
X10387Y42437D02*
Y42714D01*
X5206Y42154D02*
X5244Y42192D01*
X5937Y44562D02*
X6262Y44887D01*
X8137D01*
X8787Y44237D01*
X6663Y44319D02*
X6746Y44237D01*
X8437D01*
X6663Y42154D02*
Y42963D01*
X7387Y43687D01*
X7937D01*
X8137Y43487D01*
X7537Y42537D02*
X9167Y44167D01*
X7757Y42553D02*
X9231Y44027D01*
X7897Y42495D02*
X9289Y43887D01*
X7897Y40929D02*
Y42495D01*
X8037Y42437D02*
X9347Y43747D01*
X8037Y40987D02*
Y42437D01*
X12860Y44463D02*
X13037Y44287D01*
X11214Y44463D02*
X12860D01*
X10917Y44167D02*
X11214Y44463D01*
X12598Y44323D02*
X12935Y43987D01*
X11274Y44323D02*
X12598D01*
X10977Y44027D02*
X11274Y44323D01*
X12540Y44183D02*
X12887Y43837D01*
X11384Y44183D02*
X12540D01*
X11087Y43887D02*
X11384Y44183D01*
X9289Y43887D02*
X11087D01*
X9231Y44027D02*
X10977D01*
X9167Y44167D02*
X10917D01*
X16721Y44777D02*
X17237Y44261D01*
X12935Y43987D02*
X13187D01*
X12887Y43837D02*
X13287D01*
X11817Y43747D02*
X11907Y43837D01*
X17237Y42737D02*
X17737Y42237D01*
X17237Y42737D02*
Y44261D01*
X13037Y44237D02*
Y44287D01*
X13587Y44387D02*
X16687D01*
X13187Y43987D02*
X13587Y44387D01*
X13687Y44237D02*
X16587D01*
X13287Y43837D02*
X13687Y44237D01*
X17737Y42237D02*
X26024D01*
X16937Y41687D02*
Y44137D01*
X26024Y42237D02*
X26488Y41772D01*
X16687Y44387D02*
X16937Y44137D01*
X10387Y42714D02*
X10410Y42737D01*
X10337Y42187D02*
X10660D01*
X10252Y42102D02*
X10337Y42187D01*
X9465Y43064D02*
X9637Y43237D01*
X14987D02*
X15087Y43137D01*
X9159Y43009D02*
X9527Y43377D01*
X15045D02*
X15227Y43195D01*
X8892Y42992D02*
X9417Y43517D01*
X15157D02*
X15387Y43287D01*
X9687Y42864D02*
X10087D01*
X10037Y42459D02*
X10087Y42509D01*
X10037Y42237D02*
Y42459D01*
X9687Y42237D02*
Y42509D01*
X9465Y41864D02*
Y43064D01*
X9159Y41559D02*
Y43009D01*
X10037Y42237D02*
X10094Y42179D01*
Y41864D02*
Y42179D01*
X9687Y42237D02*
X9737D01*
X9937Y42037D01*
Y41864D02*
Y42037D01*
X9780Y41244D02*
X9937Y41087D01*
X8614Y41464D02*
X8637Y41487D01*
X8337Y41464D02*
X8614D01*
X11064Y42137D02*
X11287D01*
X10409Y41864D02*
X11050D01*
X11428Y41487D02*
X11428D01*
X11050Y41864D02*
X11428Y41487D01*
X11370Y41347D02*
X11370D01*
X11157Y41559D02*
X11370Y41347D01*
X10715Y41559D02*
X11157D01*
X11312Y41207D02*
X11312D01*
X11117Y41402D02*
X11312Y41207D01*
X10715Y41402D02*
X11117D01*
X11254Y41067D02*
X11384Y40937D01*
X11254Y41067D02*
X11254D01*
X11076Y41244D02*
X11254Y41067D01*
X10715Y41244D02*
X11076D01*
X11187Y40787D02*
Y40837D01*
X10927Y40772D02*
X11412Y40287D01*
X10715Y40772D02*
X10927D01*
X10715Y41087D02*
X10987D01*
X11412Y40287D02*
X12837D01*
X13737Y43887D02*
X14467D01*
X7537Y40687D02*
Y42537D01*
Y40687D02*
X7915Y40309D01*
X9465D01*
X9082Y40537D02*
X9159Y40614D01*
X8087Y40537D02*
X9082D01*
X7757Y40867D02*
X8087Y40537D01*
X7757Y40867D02*
Y42553D01*
X17527Y41377D02*
X18267Y40637D01*
X16687Y39237D02*
Y40737D01*
X16677Y40747D02*
X16687Y40737D01*
X16677Y40747D02*
Y40795D01*
X16537Y38937D02*
Y40737D01*
X15087Y42437D02*
Y43137D01*
X15227Y42587D02*
Y43195D01*
Y42587D02*
X15377Y42437D01*
X15837D01*
X15937Y42337D01*
X15387Y42687D02*
Y43287D01*
X16137Y42587D02*
X16252Y42472D01*
X15487Y42587D02*
X16137D01*
X15387Y42687D02*
X15487Y42587D01*
X7897Y40929D02*
X8139Y40687D01*
X8837D01*
X8922Y40772D01*
X9159D01*
X8037Y40987D02*
X8155Y40869D01*
X8816D01*
X8877Y40929D01*
X9159D01*
X8737Y41087D02*
X9159D01*
X8892Y41501D02*
X8992Y41402D01*
X8892Y41501D02*
Y42992D01*
X8992Y41402D02*
X9159D01*
X8930Y41244D02*
X9159D01*
X8687Y41487D02*
X8930Y41244D01*
X8637Y41487D02*
X8687D01*
X9780Y39794D02*
X9787Y39787D01*
X9780Y39794D02*
Y40309D01*
X10087Y39787D02*
X10094Y39794D01*
Y40309D01*
X10252Y39924D02*
X11189Y38987D01*
X10252Y39924D02*
Y40309D01*
X10409Y39964D02*
X11187Y39187D01*
X10409Y39964D02*
Y40309D01*
X11907Y40637D02*
X12687D01*
X12587Y38987D02*
X12687Y38887D01*
X11189Y38987D02*
X12587D01*
X14467Y38637D02*
Y38957D01*
X14237Y39187D02*
X14467Y38957D01*
X11187Y39187D02*
X14237D01*
X11907Y38316D02*
Y38637D01*
Y38316D02*
X12037Y38187D01*
X14937D01*
X15087Y38337D01*
Y39887D01*
X14937Y40037D02*
X15087Y39887D01*
X11292Y40037D02*
X14937D01*
X10715Y40614D02*
X11292Y40037D01*
X13187Y40637D02*
X14467D01*
X12837Y40287D02*
X13187Y40637D01*
X9937Y41087D02*
X10094Y40929D01*
X16537Y38937D02*
X16837Y38637D01*
X18267D01*
X15687Y38616D02*
X15707Y38637D01*
X15687Y38337D02*
Y38616D01*
Y38337D02*
X15787Y38237D01*
X18787D01*
X18828Y38277D01*
Y38887D01*
X18728Y38987D02*
X18828Y38887D01*
X16937Y38987D02*
X18728D01*
X16687Y39237D02*
X16937Y38987D01*
X10660Y42187D02*
X10710Y42137D01*
X10252Y41864D02*
Y42102D01*
X36239Y41244D02*
Y41864D01*
X36554Y40929D02*
X37174D01*
X36786Y44777D02*
X43180D01*
X36646Y44637D02*
X36786Y44777D01*
X37446Y41087D02*
X37696Y40837D01*
X37646Y40787D02*
X37696Y40837D01*
X34796Y41087D02*
X35196D01*
X41896Y43609D02*
X42081Y43424D01*
Y42970D02*
Y43424D01*
X42296Y43609D02*
X42396Y43509D01*
Y42970D02*
Y43509D01*
X42296Y43964D02*
X42696D01*
X41946D02*
X42296D01*
X43046Y44237D02*
X43224Y44059D01*
X43076Y41667D02*
X43224Y41815D01*
Y44059D01*
X41145Y41667D02*
X43076D01*
X38726Y41527D02*
X43236D01*
X37997Y41377D02*
X43986D01*
X37939Y41237D02*
X42694D01*
X40926Y41887D02*
X41145Y41667D01*
X38367Y41887D02*
X38726Y41527D01*
X37887Y41487D02*
X37997Y41377D01*
X37829Y41347D02*
X37939Y41237D01*
X42396Y42920D02*
Y42970D01*
X42081Y42920D02*
Y42970D01*
X41929Y42054D02*
X42081D01*
X42396Y42104D02*
Y42337D01*
X42711Y42104D02*
Y42472D01*
Y42920D02*
Y42970D01*
X43236Y41527D02*
X43396Y41687D01*
X37891Y41087D02*
X42646D01*
X37771Y41207D02*
X37891Y41087D01*
X41867Y40937D02*
X42167Y40637D01*
X37843Y40937D02*
X41867D01*
X42646Y41087D02*
X42996Y40737D01*
X42694Y41237D02*
X43136Y40795D01*
X41546Y42437D02*
X41929Y42054D01*
X36096Y43237D02*
X41446D01*
X35986Y43377D02*
X41504D01*
X35876Y43517D02*
X41616D01*
X35806Y43747D02*
X38277D01*
X31846Y43687D02*
X32296D01*
X31703Y43544D02*
X31846Y43687D01*
X31703Y42192D02*
Y43544D01*
X32396Y43787D02*
Y44562D01*
X32296Y43687D02*
X32396Y43787D01*
X36846Y42437D02*
Y42714D01*
X31665Y42154D02*
X31703Y42192D01*
X32396Y44562D02*
X32721Y44887D01*
X34596D01*
X35246Y44237D01*
X33122Y44319D02*
X33205Y44237D01*
X34896D01*
X33122Y42154D02*
Y42963D01*
X33846Y43687D01*
X34396D01*
X34596Y43487D01*
X33996Y42537D02*
X35626Y44167D01*
X34216Y42553D02*
X35690Y44027D01*
X34356Y42495D02*
X35748Y43887D01*
X34356Y40929D02*
Y42495D01*
X34496Y42437D02*
X35806Y43747D01*
X34496Y40987D02*
Y42437D01*
X39319Y44463D02*
X39496Y44287D01*
X37673Y44463D02*
X39319D01*
X37376Y44167D02*
X37673Y44463D01*
X39057Y44323D02*
X39394Y43987D01*
X37733Y44323D02*
X39057D01*
X37436Y44027D02*
X37733Y44323D01*
X38999Y44183D02*
X39346Y43837D01*
X37843Y44183D02*
X38999D01*
X37546Y43887D02*
X37843Y44183D01*
X35748Y43887D02*
X37546D01*
X35690Y44027D02*
X37436D01*
X35626Y44167D02*
X37376D01*
X43180Y44777D02*
X43696Y44261D01*
X39394Y43987D02*
X39646D01*
X39346Y43837D02*
X39746D01*
X38277Y43747D02*
X38367Y43837D01*
X43696Y42737D02*
X44196Y42237D01*
X43696Y42737D02*
Y44261D01*
X39496Y44237D02*
Y44287D01*
X40046Y44387D02*
X43146D01*
X39646Y43987D02*
X40046Y44387D01*
X40146Y44237D02*
X43046D01*
X39746Y43837D02*
X40146Y44237D01*
X44196Y42237D02*
X52483D01*
X43396Y41687D02*
Y44137D01*
X52483Y42237D02*
X52947Y41772D01*
X43146Y44387D02*
X43396Y44137D01*
X36846Y42714D02*
X36869Y42737D01*
X36796Y42187D02*
X37119D01*
X36711Y42102D02*
X36796Y42187D01*
X35924Y43064D02*
X36096Y43237D01*
X41446D02*
X41546Y43137D01*
X35619Y43009D02*
X35986Y43377D01*
X41504D02*
X41686Y43195D01*
X35351Y42992D02*
X35876Y43517D01*
X41616D02*
X41846Y43287D01*
X36146Y42864D02*
X36546D01*
X36496Y42459D02*
X36546Y42509D01*
X36496Y42237D02*
Y42459D01*
X36146Y42237D02*
Y42509D01*
X35924Y41864D02*
Y43064D01*
X35619Y41559D02*
Y43009D01*
X36496Y42237D02*
X36554Y42179D01*
Y41864D02*
Y42179D01*
X36146Y42237D02*
X36196D01*
X36396Y42037D01*
Y41864D02*
Y42037D01*
X36239Y41244D02*
X36396Y41087D01*
X35073Y41464D02*
X35096Y41487D01*
X34796Y41464D02*
X35073D01*
X37523Y42137D02*
X37746D01*
X36869Y41864D02*
X37509D01*
X37887Y41487D02*
X37887D01*
X37509Y41864D02*
X37887Y41487D01*
X37829Y41347D02*
X37829D01*
X37616Y41559D02*
X37829Y41347D01*
X37174Y41559D02*
X37616D01*
X37771Y41207D02*
X37771D01*
X37576Y41402D02*
X37771Y41207D01*
X37174Y41402D02*
X37576D01*
X37713Y41067D02*
X37843Y40937D01*
X37713Y41067D02*
X37713D01*
X37535Y41244D02*
X37713Y41067D01*
X37174Y41244D02*
X37535D01*
X37646Y40787D02*
Y40837D01*
X37386Y40772D02*
X37871Y40287D01*
X37174Y40772D02*
X37386D01*
X37174Y41087D02*
X37446D01*
X37871Y40287D02*
X39296D01*
X40196Y43887D02*
X40926D01*
X33996Y40687D02*
Y42537D01*
Y40687D02*
X34374Y40309D01*
X35924D01*
X35541Y40537D02*
X35619Y40614D01*
X34546Y40537D02*
X35541D01*
X34216Y40867D02*
X34546Y40537D01*
X34216Y40867D02*
Y42553D01*
X43986Y41377D02*
X44726Y40637D01*
X43146Y39237D02*
Y40737D01*
X43136Y40747D02*
X43146Y40737D01*
X43136Y40747D02*
Y40795D01*
X42996Y38937D02*
Y40737D01*
X41546Y42437D02*
Y43137D01*
X41686Y42587D02*
Y43195D01*
Y42587D02*
X41836Y42437D01*
X42296D01*
X42396Y42337D01*
X41846Y42687D02*
Y43287D01*
X42596Y42587D02*
X42711Y42472D01*
X41946Y42587D02*
X42596D01*
X41846Y42687D02*
X41946Y42587D01*
X34356Y40929D02*
X34598Y40687D01*
X35296D01*
X35381Y40772D01*
X35619D01*
X34496Y40987D02*
X34614Y40869D01*
X35275D01*
X35336Y40929D01*
X35619D01*
X35196Y41087D02*
X35619D01*
X35351Y41501D02*
X35451Y41402D01*
X35351Y41501D02*
Y42992D01*
X35451Y41402D02*
X35619D01*
X35389Y41244D02*
X35619D01*
X35146Y41487D02*
X35389Y41244D01*
X35096Y41487D02*
X35146D01*
X36239Y39794D02*
X36246Y39787D01*
X36239Y39794D02*
Y40309D01*
X36546Y39787D02*
X36554Y39794D01*
Y40309D01*
X36711Y39924D02*
X37648Y38987D01*
X36711Y39924D02*
Y40309D01*
X36869Y39964D02*
X37646Y39187D01*
X36869Y39964D02*
Y40309D01*
X38367Y40637D02*
X39146D01*
X39046Y38987D02*
X39146Y38887D01*
X37648Y38987D02*
X39046D01*
X40926Y38637D02*
Y38957D01*
X40696Y39187D02*
X40926Y38957D01*
X37646Y39187D02*
X40696D01*
X38367Y38316D02*
Y38637D01*
Y38316D02*
X38496Y38187D01*
X41396D01*
X41546Y38337D01*
Y39887D01*
X41396Y40037D02*
X41546Y39887D01*
X37751Y40037D02*
X41396D01*
X37174Y40614D02*
X37751Y40037D01*
X39646Y40637D02*
X40926D01*
X39296Y40287D02*
X39646Y40637D01*
X36396Y41087D02*
X36554Y40929D01*
X42996Y38937D02*
X43296Y38637D01*
X44726D01*
X42146Y38616D02*
X42167Y38637D01*
X42146Y38337D02*
Y38616D01*
Y38337D02*
X42246Y38237D01*
X45246D01*
X45287Y38277D01*
Y38887D01*
X45187Y38987D02*
X45287Y38887D01*
X43396Y38987D02*
X45187D01*
X43146Y39237D02*
X43396Y38987D01*
X37119Y42187D02*
X37169Y42137D01*
X36711Y41864D02*
Y42102D01*
X9780Y49632D02*
Y50252D01*
X10094Y49317D02*
X10715D01*
X10327Y53164D02*
X16721D01*
X10187Y53024D02*
X10327Y53164D01*
X10987Y49474D02*
X11237Y49224D01*
X11187Y49174D02*
X11237Y49224D01*
X8337Y49474D02*
X8737D01*
X15437Y51997D02*
X15622Y51812D01*
Y51357D02*
Y51812D01*
X15837Y51997D02*
X15937Y51897D01*
Y51357D02*
Y51897D01*
X15837Y52351D02*
X16237D01*
X15487D02*
X15837D01*
X16587Y52624D02*
X16765Y52446D01*
X16617Y50054D02*
X16765Y50202D01*
Y52446D01*
X14686Y50054D02*
X16617D01*
X12267Y49914D02*
X16777D01*
X11538Y49764D02*
X17527D01*
X11480Y49624D02*
X16235D01*
X14467Y50274D02*
X14686Y50054D01*
X11907Y50274D02*
X12267Y49914D01*
X11428Y49874D02*
X11538Y49764D01*
X11370Y49734D02*
X11480Y49624D01*
X15937Y51307D02*
Y51357D01*
X15622Y51307D02*
Y51357D01*
X15470Y50441D02*
X15622D01*
X15937Y50491D02*
Y50724D01*
X16252Y50491D02*
Y50859D01*
Y51307D02*
Y51357D01*
X16777Y49914D02*
X16937Y50074D01*
X11432Y49474D02*
X16187D01*
X11312Y49594D02*
X11432Y49474D01*
X15407Y49324D02*
X15707Y49024D01*
X11384Y49324D02*
X15407D01*
X16187Y49474D02*
X16537Y49124D01*
X16235Y49624D02*
X16677Y49182D01*
X15087Y50824D02*
X15470Y50441D01*
X9637Y51624D02*
X14987D01*
X9527Y51764D02*
X15045D01*
X9417Y51904D02*
X15157D01*
X9347Y52134D02*
X11817D01*
X5387Y52074D02*
X5837D01*
X5244Y51931D02*
X5387Y52074D01*
X5244Y50579D02*
Y51931D01*
X5937Y52174D02*
Y52949D01*
X5837Y52074D02*
X5937Y52174D01*
X10387Y50824D02*
Y51101D01*
X5206Y50541D02*
X5244Y50579D01*
X5937Y52949D02*
X6262Y53274D01*
X8137D01*
X8787Y52624D01*
X6663Y52707D02*
X6746Y52624D01*
X8437D01*
X6663Y50541D02*
Y51350D01*
X7387Y52074D01*
X7937D01*
X8137Y51874D01*
X7537Y50924D02*
X9167Y52554D01*
X7757Y50940D02*
X9231Y52414D01*
X7897Y50882D02*
X9289Y52274D01*
X7897Y49316D02*
Y50882D01*
X8037Y50824D02*
X9347Y52134D01*
X8037Y49374D02*
Y50824D01*
X12860Y52851D02*
X13037Y52674D01*
X11214Y52851D02*
X12860D01*
X10917Y52554D02*
X11214Y52851D01*
X12598Y52711D02*
X12935Y52374D01*
X11274Y52711D02*
X12598D01*
X10977Y52414D02*
X11274Y52711D01*
X12540Y52571D02*
X12887Y52224D01*
X11384Y52571D02*
X12540D01*
X11087Y52274D02*
X11384Y52571D01*
X9289Y52274D02*
X11087D01*
X9231Y52414D02*
X10977D01*
X9167Y52554D02*
X10917D01*
X16721Y53164D02*
X17237Y52648D01*
X12935Y52374D02*
X13187D01*
X12887Y52224D02*
X13287D01*
X11817Y52134D02*
X11907Y52224D01*
X17237Y51124D02*
X17737Y50624D01*
X17237Y51124D02*
Y52648D01*
X13037Y52624D02*
Y52674D01*
X13587Y52774D02*
X16687D01*
X13187Y52374D02*
X13587Y52774D01*
X13687Y52624D02*
X16587D01*
X13287Y52224D02*
X13687Y52624D01*
X17737Y50624D02*
X26024D01*
X16937Y50074D02*
Y52524D01*
X26024Y50624D02*
X26488Y50160D01*
X16687Y52774D02*
X16937Y52524D01*
X10387Y51101D02*
X10410Y51124D01*
X10337Y50574D02*
X10660D01*
X10252Y50489D02*
X10337Y50574D01*
X9465Y51452D02*
X9637Y51624D01*
X14987D02*
X15087Y51524D01*
X9159Y51396D02*
X9527Y51764D01*
X15045D02*
X15227Y51582D01*
X8892Y51379D02*
X9417Y51904D01*
X15157D02*
X15387Y51674D01*
X9687Y51251D02*
X10087D01*
X10037Y50847D02*
X10087Y50897D01*
X10037Y50624D02*
Y50847D01*
X9687Y50624D02*
Y50897D01*
X9465Y50252D02*
Y51452D01*
X9159Y49946D02*
Y51396D01*
X10037Y50624D02*
X10094Y50567D01*
Y50252D02*
Y50567D01*
X9687Y50624D02*
X9737D01*
X9937Y50424D01*
Y50252D02*
Y50424D01*
X9780Y49632D02*
X9937Y49474D01*
X8614Y49851D02*
X8637Y49874D01*
X8337Y49851D02*
X8614D01*
X11064Y50524D02*
X11287D01*
X10409Y50252D02*
X11050D01*
X11428Y49874D02*
X11428D01*
X11050Y50252D02*
X11428Y49874D01*
X11370Y49734D02*
X11370D01*
X11157Y49946D02*
X11370Y49734D01*
X10715Y49946D02*
X11157D01*
X11312Y49594D02*
X11312D01*
X11117Y49789D02*
X11312Y49594D01*
X10715Y49789D02*
X11117D01*
X11254Y49454D02*
X11384Y49324D01*
X11254Y49454D02*
X11254D01*
X11076Y49632D02*
X11254Y49454D01*
X10715Y49632D02*
X11076D01*
X11187Y49174D02*
Y49224D01*
X10927Y49159D02*
X11412Y48674D01*
X10715Y49159D02*
X10927D01*
X10715Y49474D02*
X10987D01*
X11412Y48674D02*
X12837D01*
X13737Y52274D02*
X14467D01*
X7537Y49074D02*
Y50924D01*
Y49074D02*
X7915Y48696D01*
X9465D01*
X9082Y48924D02*
X9159Y49002D01*
X8087Y48924D02*
X9082D01*
X7757Y49254D02*
X8087Y48924D01*
X7757Y49254D02*
Y50940D01*
X17527Y49764D02*
X18267Y49024D01*
X16687Y47624D02*
Y49124D01*
X16677Y49134D02*
X16687Y49124D01*
X16677Y49134D02*
Y49182D01*
X16537Y47324D02*
Y49124D01*
X15087Y50824D02*
Y51524D01*
X15227Y50974D02*
Y51582D01*
Y50974D02*
X15377Y50824D01*
X15837D01*
X15937Y50724D01*
X15387Y51074D02*
Y51674D01*
X16137Y50974D02*
X16252Y50859D01*
X15487Y50974D02*
X16137D01*
X15387Y51074D02*
X15487Y50974D01*
X7897Y49316D02*
X8139Y49074D01*
X8837D01*
X8922Y49159D01*
X9159D01*
X8037Y49374D02*
X8155Y49256D01*
X8816D01*
X8877Y49317D01*
X9159D01*
X8737Y49474D02*
X9159D01*
X8892Y49889D02*
X8992Y49789D01*
X8892Y49889D02*
Y51379D01*
X8992Y49789D02*
X9159D01*
X8930Y49632D02*
X9159D01*
X8687Y49874D02*
X8930Y49632D01*
X8637Y49874D02*
X8687D01*
X9780Y48182D02*
X9787Y48174D01*
X9780Y48182D02*
Y48696D01*
X10087Y48174D02*
X10094Y48182D01*
Y48696D01*
X10252Y48311D02*
X11189Y47374D01*
X10252Y48311D02*
Y48696D01*
X10409Y48352D02*
X11187Y47574D01*
X10409Y48352D02*
Y48696D01*
X11907Y49024D02*
X12687D01*
X12587Y47374D02*
X12687Y47274D01*
X11189Y47374D02*
X12587D01*
X14467Y47024D02*
Y47344D01*
X14237Y47574D02*
X14467Y47344D01*
X11187Y47574D02*
X14237D01*
X11907Y46704D02*
Y47024D01*
Y46704D02*
X12037Y46574D01*
X14937D01*
X15087Y46724D01*
Y48274D01*
X14937Y48424D02*
X15087Y48274D01*
X11292Y48424D02*
X14937D01*
X10715Y49002D02*
X11292Y48424D01*
X13187Y49024D02*
X14467D01*
X12837Y48674D02*
X13187Y49024D01*
X9937Y49474D02*
X10094Y49317D01*
X16537Y47324D02*
X16837Y47024D01*
X18267D01*
X15687Y47004D02*
X15707Y47024D01*
X15687Y46724D02*
Y47004D01*
Y46724D02*
X15787Y46624D01*
X18787D01*
X18828Y46665D01*
Y47274D01*
X18728Y47374D02*
X18828Y47274D01*
X16937Y47374D02*
X18728D01*
X16687Y47624D02*
X16937Y47374D01*
X10660Y50574D02*
X10710Y50524D01*
X10252Y50252D02*
Y50489D01*
X36239Y49632D02*
Y50252D01*
X36554Y49317D02*
X37174D01*
X36786Y53164D02*
X43180D01*
X36646Y53024D02*
X36786Y53164D01*
X37446Y49474D02*
X37696Y49224D01*
X37646Y49174D02*
X37696Y49224D01*
X34796Y49474D02*
X35196D01*
X41896Y51997D02*
X42081Y51812D01*
Y51357D02*
Y51812D01*
X42296Y51997D02*
X42396Y51897D01*
Y51357D02*
Y51897D01*
X42296Y52351D02*
X42696D01*
X41946D02*
X42296D01*
X43046Y52624D02*
X43224Y52446D01*
X43076Y50054D02*
X43224Y50202D01*
Y52446D01*
X41145Y50054D02*
X43076D01*
X38726Y49914D02*
X43236D01*
X37997Y49764D02*
X43986D01*
X37939Y49624D02*
X42694D01*
X40926Y50274D02*
X41145Y50054D01*
X38367Y50274D02*
X38726Y49914D01*
X37887Y49874D02*
X37997Y49764D01*
X37829Y49734D02*
X37939Y49624D01*
X42396Y51307D02*
Y51357D01*
X42081Y51307D02*
Y51357D01*
X41929Y50441D02*
X42081D01*
X42396Y50491D02*
Y50724D01*
X42711Y50491D02*
Y50859D01*
Y51307D02*
Y51357D01*
X43236Y49914D02*
X43396Y50074D01*
X37891Y49474D02*
X42646D01*
X37771Y49594D02*
X37891Y49474D01*
X41867Y49324D02*
X42167Y49024D01*
X37843Y49324D02*
X41867D01*
X42646Y49474D02*
X42996Y49124D01*
X42694Y49624D02*
X43136Y49182D01*
X41546Y50824D02*
X41929Y50441D01*
X36096Y51624D02*
X41446D01*
X35986Y51764D02*
X41504D01*
X35876Y51904D02*
X41616D01*
X35806Y52134D02*
X38277D01*
X31846Y52074D02*
X32296D01*
X31703Y51931D02*
X31846Y52074D01*
X31703Y50579D02*
Y51931D01*
X32396Y52174D02*
Y52949D01*
X32296Y52074D02*
X32396Y52174D01*
X36846Y50824D02*
Y51101D01*
X31665Y50541D02*
X31703Y50579D01*
X32396Y52949D02*
X32721Y53274D01*
X34596D01*
X35246Y52624D01*
X33122Y52707D02*
X33205Y52624D01*
X34896D01*
X33122Y50541D02*
Y51350D01*
X33846Y52074D01*
X34396D01*
X34596Y51874D01*
X33996Y50924D02*
X35626Y52554D01*
X34216Y50940D02*
X35690Y52414D01*
X34356Y50882D02*
X35748Y52274D01*
X34356Y49316D02*
Y50882D01*
X34496Y50824D02*
X35806Y52134D01*
X34496Y49374D02*
Y50824D01*
X39319Y52851D02*
X39496Y52674D01*
X37673Y52851D02*
X39319D01*
X37376Y52554D02*
X37673Y52851D01*
X39057Y52711D02*
X39394Y52374D01*
X37733Y52711D02*
X39057D01*
X37436Y52414D02*
X37733Y52711D01*
X38999Y52571D02*
X39346Y52224D01*
X37843Y52571D02*
X38999D01*
X37546Y52274D02*
X37843Y52571D01*
X35748Y52274D02*
X37546D01*
X35690Y52414D02*
X37436D01*
X35626Y52554D02*
X37376D01*
X43180Y53164D02*
X43696Y52648D01*
X39394Y52374D02*
X39646D01*
X39346Y52224D02*
X39746D01*
X38277Y52134D02*
X38367Y52224D01*
X43696Y51124D02*
X44196Y50624D01*
X43696Y51124D02*
Y52648D01*
X39496Y52624D02*
Y52674D01*
X40046Y52774D02*
X43146D01*
X39646Y52374D02*
X40046Y52774D01*
X40146Y52624D02*
X43046D01*
X39746Y52224D02*
X40146Y52624D01*
X44196Y50624D02*
X52483D01*
X43396Y50074D02*
Y52524D01*
X52483Y50624D02*
X52947Y50160D01*
X43146Y52774D02*
X43396Y52524D01*
X36846Y51101D02*
X36869Y51124D01*
X36796Y50574D02*
X37119D01*
X36711Y50489D02*
X36796Y50574D01*
X35924Y51452D02*
X36096Y51624D01*
X41446D02*
X41546Y51524D01*
X35619Y51396D02*
X35986Y51764D01*
X41504D02*
X41686Y51582D01*
X35351Y51379D02*
X35876Y51904D01*
X41616D02*
X41846Y51674D01*
X36146Y51251D02*
X36546D01*
X36496Y50847D02*
X36546Y50897D01*
X36496Y50624D02*
Y50847D01*
X36146Y50624D02*
Y50897D01*
X35924Y50252D02*
Y51452D01*
X35619Y49946D02*
Y51396D01*
X36496Y50624D02*
X36554Y50567D01*
Y50252D02*
Y50567D01*
X36146Y50624D02*
X36196D01*
X36396Y50424D01*
Y50252D02*
Y50424D01*
X36239Y49632D02*
X36396Y49474D01*
X35073Y49851D02*
X35096Y49874D01*
X34796Y49851D02*
X35073D01*
X37523Y50524D02*
X37746D01*
X36869Y50252D02*
X37509D01*
X37887Y49874D02*
X37887D01*
X37509Y50252D02*
X37887Y49874D01*
X37829Y49734D02*
X37829D01*
X37616Y49946D02*
X37829Y49734D01*
X37174Y49946D02*
X37616D01*
X37771Y49594D02*
X37771D01*
X37576Y49789D02*
X37771Y49594D01*
X37174Y49789D02*
X37576D01*
X37713Y49454D02*
X37843Y49324D01*
X37713Y49454D02*
X37713D01*
X37535Y49632D02*
X37713Y49454D01*
X37174Y49632D02*
X37535D01*
X37646Y49174D02*
Y49224D01*
X37386Y49159D02*
X37871Y48674D01*
X37174Y49159D02*
X37386D01*
X37174Y49474D02*
X37446D01*
X37871Y48674D02*
X39296D01*
X40196Y52274D02*
X40926D01*
X33996Y49074D02*
Y50924D01*
Y49074D02*
X34374Y48696D01*
X35924D01*
X35541Y48924D02*
X35619Y49002D01*
X34546Y48924D02*
X35541D01*
X34216Y49254D02*
X34546Y48924D01*
X34216Y49254D02*
Y50940D01*
X43986Y49764D02*
X44726Y49024D01*
X43146Y47624D02*
Y49124D01*
X43136Y49134D02*
X43146Y49124D01*
X43136Y49134D02*
Y49182D01*
X42996Y47324D02*
Y49124D01*
X41546Y50824D02*
Y51524D01*
X41686Y50974D02*
Y51582D01*
Y50974D02*
X41836Y50824D01*
X42296D01*
X42396Y50724D01*
X41846Y51074D02*
Y51674D01*
X42596Y50974D02*
X42711Y50859D01*
X41946Y50974D02*
X42596D01*
X41846Y51074D02*
X41946Y50974D01*
X34356Y49316D02*
X34598Y49074D01*
X35296D01*
X35381Y49159D01*
X35619D01*
X34496Y49374D02*
X34614Y49256D01*
X35275D01*
X35336Y49317D01*
X35619D01*
X35196Y49474D02*
X35619D01*
X35351Y49889D02*
X35451Y49789D01*
X35351Y49889D02*
Y51379D01*
X35451Y49789D02*
X35619D01*
X35389Y49632D02*
X35619D01*
X35146Y49874D02*
X35389Y49632D01*
X35096Y49874D02*
X35146D01*
X36239Y48182D02*
X36246Y48174D01*
X36239Y48182D02*
Y48696D01*
X36546Y48174D02*
X36554Y48182D01*
Y48696D01*
X36711Y48311D02*
X37648Y47374D01*
X36711Y48311D02*
Y48696D01*
X36869Y48352D02*
X37646Y47574D01*
X36869Y48352D02*
Y48696D01*
X38367Y49024D02*
X39146D01*
X39046Y47374D02*
X39146Y47274D01*
X37648Y47374D02*
X39046D01*
X40926Y47024D02*
Y47344D01*
X40696Y47574D02*
X40926Y47344D01*
X37646Y47574D02*
X40696D01*
X38367Y46704D02*
Y47024D01*
Y46704D02*
X38496Y46574D01*
X41396D01*
X41546Y46724D01*
Y48274D01*
X41396Y48424D02*
X41546Y48274D01*
X37751Y48424D02*
X41396D01*
X37174Y49002D02*
X37751Y48424D01*
X39646Y49024D02*
X40926D01*
X39296Y48674D02*
X39646Y49024D01*
X36396Y49474D02*
X36554Y49317D01*
X42996Y47324D02*
X43296Y47024D01*
X44726D01*
X42146Y47004D02*
X42167Y47024D01*
X42146Y46724D02*
Y47004D01*
Y46724D02*
X42246Y46624D01*
X45246D01*
X45287Y46665D01*
Y47274D01*
X45187Y47374D02*
X45287Y47274D01*
X43396Y47374D02*
X45187D01*
X43146Y47624D02*
X43396Y47374D01*
X37119Y50574D02*
X37169Y50524D01*
X36711Y50252D02*
Y50489D01*
D24*
X9987Y11377D02*
X16783D01*
X9887Y10987D02*
Y11277D01*
X10537Y11077D02*
X16659D01*
X10537Y10987D02*
Y11077D01*
X9887Y11277D02*
X9967Y11357D01*
X10737Y8898D02*
X10946Y9107D01*
X16237Y10060D02*
X16252Y10045D01*
Y9420D02*
Y10045D01*
X16237Y10414D02*
X16239Y10412D01*
X16387D01*
X16587Y8437D02*
Y10212D01*
X16387Y10412D02*
X16587Y10212D01*
X16417Y8267D02*
X16587Y8437D01*
X15427Y8267D02*
X16417D01*
X11348Y8887D02*
X14808D01*
X15427Y8267D01*
X10737Y8898D02*
Y9160D01*
X11128Y9107D02*
X11348Y8887D01*
X10946Y9107D02*
X11128D01*
X10737Y8887D02*
Y8898D01*
X16783Y11377D02*
X17387Y10773D01*
X16659Y11077D02*
X17087Y10649D01*
X17387Y9487D02*
X17887Y8987D01*
X17387Y9487D02*
Y10773D01*
X22454Y8170D02*
X23929D01*
X22437Y8187D02*
X22454Y8170D01*
X17337Y8187D02*
X22437D01*
X17087Y8437D02*
X17337Y8187D01*
X17087Y8437D02*
Y10649D01*
X17887Y8987D02*
X24787D01*
X25425Y9625D01*
Y11004D01*
X10087Y9314D02*
X10114D01*
X10287Y9487D01*
X10637D01*
X10764Y9360D01*
Y9187D02*
Y9360D01*
X10737Y9160D02*
X10764Y9187D01*
X36446Y11377D02*
X43242D01*
X36346Y10987D02*
Y11277D01*
X36996Y11077D02*
X43118D01*
X36996Y10987D02*
Y11077D01*
X36346Y11277D02*
X36426Y11357D01*
X37196Y8898D02*
X37405Y9107D01*
X42696Y10060D02*
X42711Y10045D01*
Y9420D02*
Y10045D01*
X42696Y10414D02*
X42698Y10412D01*
X42846D01*
X43046Y8437D02*
Y10212D01*
X42846Y10412D02*
X43046Y10212D01*
X42876Y8267D02*
X43046Y8437D01*
X41886Y8267D02*
X42876D01*
X37807Y8887D02*
X41267D01*
X41886Y8267D01*
X37196Y8898D02*
Y9160D01*
X37587Y9107D02*
X37807Y8887D01*
X37405Y9107D02*
X37587D01*
X37196Y8887D02*
Y8898D01*
X43242Y11377D02*
X43846Y10773D01*
X43118Y11077D02*
X43546Y10649D01*
X43846Y9487D02*
X44346Y8987D01*
X43846Y9487D02*
Y10773D01*
X48913Y8170D02*
X50388D01*
X48896Y8187D02*
X48913Y8170D01*
X43796Y8187D02*
X48896D01*
X43546Y8437D02*
X43796Y8187D01*
X43546Y8437D02*
Y10649D01*
X44346Y8987D02*
X51246D01*
X51884Y9625D01*
Y11004D01*
X36546Y9314D02*
X36573D01*
X36746Y9487D01*
X37096D01*
X37223Y9360D01*
Y9187D02*
Y9360D01*
X37196Y9160D02*
X37223Y9187D01*
X9987Y19764D02*
X16783D01*
X9887Y19374D02*
Y19664D01*
X10537Y19464D02*
X16659D01*
X10537Y19374D02*
Y19464D01*
X9887Y19664D02*
X9967Y19744D01*
X10737Y17286D02*
X10946Y17494D01*
X16237Y18447D02*
X16252Y18432D01*
Y17807D02*
Y18432D01*
X16237Y18802D02*
X16239Y18800D01*
X16387D01*
X16587Y16824D02*
Y18600D01*
X16387Y18800D02*
X16587Y18600D01*
X16417Y16655D02*
X16587Y16824D01*
X15427Y16655D02*
X16417D01*
X11348Y17274D02*
X14808D01*
X15427Y16655D01*
X10737Y17286D02*
Y17547D01*
X11128Y17494D02*
X11348Y17274D01*
X10946Y17494D02*
X11128D01*
X10737Y17274D02*
Y17286D01*
X16783Y19764D02*
X17387Y19161D01*
X16659Y19464D02*
X17087Y19037D01*
X17387Y17874D02*
X17887Y17374D01*
X17387Y17874D02*
Y19161D01*
X22454Y16557D02*
X23929D01*
X22437Y16574D02*
X22454Y16557D01*
X17337Y16574D02*
X22437D01*
X17087Y16824D02*
X17337Y16574D01*
X17087Y16824D02*
Y19037D01*
X17887Y17374D02*
X24787D01*
X25425Y18013D01*
Y19392D01*
X10087Y17702D02*
X10114D01*
X10287Y17874D01*
X10637D01*
X10764Y17747D01*
Y17574D02*
Y17747D01*
X10737Y17547D02*
X10764Y17574D01*
X36446Y19764D02*
X43242D01*
X36346Y19374D02*
Y19664D01*
X36996Y19464D02*
X43118D01*
X36996Y19374D02*
Y19464D01*
X36346Y19664D02*
X36426Y19744D01*
X37196Y17286D02*
X37405Y17494D01*
X42696Y18447D02*
X42711Y18432D01*
Y17807D02*
Y18432D01*
X42696Y18802D02*
X42698Y18800D01*
X42846D01*
X43046Y16824D02*
Y18600D01*
X42846Y18800D02*
X43046Y18600D01*
X42876Y16655D02*
X43046Y16824D01*
X41886Y16655D02*
X42876D01*
X37807Y17274D02*
X41267D01*
X41886Y16655D01*
X37196Y17286D02*
Y17547D01*
X37587Y17494D02*
X37807Y17274D01*
X37405Y17494D02*
X37587D01*
X37196Y17274D02*
Y17286D01*
X43242Y19764D02*
X43846Y19161D01*
X43118Y19464D02*
X43546Y19037D01*
X43846Y17874D02*
X44346Y17374D01*
X43846Y17874D02*
Y19161D01*
X48913Y16557D02*
X50388D01*
X48896Y16574D02*
X48913Y16557D01*
X43796Y16574D02*
X48896D01*
X43546Y16824D02*
X43796Y16574D01*
X43546Y16824D02*
Y19037D01*
X44346Y17374D02*
X51246D01*
X51884Y18013D01*
Y19392D01*
X36546Y17702D02*
X36573D01*
X36746Y17874D01*
X37096D01*
X37223Y17747D01*
Y17574D02*
Y17747D01*
X37196Y17547D02*
X37223Y17574D01*
X9987Y28152D02*
X16783D01*
X9887Y27762D02*
Y28052D01*
X10537Y27852D02*
X16659D01*
X10537Y27762D02*
Y27852D01*
X9887Y28052D02*
X9967Y28132D01*
X10737Y25673D02*
X10946Y25882D01*
X16237Y26835D02*
X16252Y26820D01*
Y26195D02*
Y26820D01*
X16237Y27189D02*
X16239Y27187D01*
X16387D01*
X16587Y25212D02*
Y26987D01*
X16387Y27187D02*
X16587Y26987D01*
X16417Y25042D02*
X16587Y25212D01*
X15427Y25042D02*
X16417D01*
X11348Y25662D02*
X14808D01*
X15427Y25042D01*
X10737Y25673D02*
Y25935D01*
X11128Y25882D02*
X11348Y25662D01*
X10946Y25882D02*
X11128D01*
X10737Y25662D02*
Y25673D01*
X16783Y28152D02*
X17387Y27548D01*
X16659Y27852D02*
X17087Y27424D01*
X17387Y26262D02*
X17887Y25762D01*
X17387Y26262D02*
Y27548D01*
X22454Y24944D02*
X23929D01*
X22437Y24962D02*
X22454Y24944D01*
X17337Y24962D02*
X22437D01*
X17087Y25212D02*
X17337Y24962D01*
X17087Y25212D02*
Y27424D01*
X17887Y25762D02*
X24787D01*
X25425Y26400D01*
Y27779D01*
X10087Y26089D02*
X10114D01*
X10287Y26262D01*
X10637D01*
X10764Y26135D01*
Y25962D02*
Y26135D01*
X10737Y25935D02*
X10764Y25962D01*
X36446Y28152D02*
X43242D01*
X36346Y27762D02*
Y28052D01*
X36996Y27852D02*
X43118D01*
X36996Y27762D02*
Y27852D01*
X36346Y28052D02*
X36426Y28132D01*
X37196Y25673D02*
X37405Y25882D01*
X42696Y26835D02*
X42711Y26820D01*
Y26195D02*
Y26820D01*
X42696Y27189D02*
X42698Y27187D01*
X42846D01*
X43046Y25212D02*
Y26987D01*
X42846Y27187D02*
X43046Y26987D01*
X42876Y25042D02*
X43046Y25212D01*
X41886Y25042D02*
X42876D01*
X37807Y25662D02*
X41267D01*
X41886Y25042D01*
X37196Y25673D02*
Y25935D01*
X37587Y25882D02*
X37807Y25662D01*
X37405Y25882D02*
X37587D01*
X37196Y25662D02*
Y25673D01*
X43242Y28152D02*
X43846Y27548D01*
X43118Y27852D02*
X43546Y27424D01*
X43846Y26262D02*
X44346Y25762D01*
X43846Y26262D02*
Y27548D01*
X48913Y24944D02*
X50388D01*
X48896Y24962D02*
X48913Y24944D01*
X43796Y24962D02*
X48896D01*
X43546Y25212D02*
X43796Y24962D01*
X43546Y25212D02*
Y27424D01*
X44346Y25762D02*
X51246D01*
X51884Y26400D01*
Y27779D01*
X36546Y26089D02*
X36573D01*
X36746Y26262D01*
X37096D01*
X37223Y26135D01*
Y25962D02*
Y26135D01*
X37196Y25935D02*
X37223Y25962D01*
X9987Y36539D02*
X16783D01*
X9887Y36149D02*
Y36439D01*
X10537Y36239D02*
X16659D01*
X10537Y36149D02*
Y36239D01*
X9887Y36439D02*
X9967Y36519D01*
X10737Y34060D02*
X10946Y34269D01*
X16237Y35222D02*
X16252Y35207D01*
Y34582D02*
Y35207D01*
X16237Y35576D02*
X16239Y35574D01*
X16387D01*
X16587Y33599D02*
Y35374D01*
X16387Y35574D02*
X16587Y35374D01*
X16417Y33430D02*
X16587Y33599D01*
X15427Y33430D02*
X16417D01*
X11348Y34049D02*
X14808D01*
X15427Y33430D01*
X10737Y34060D02*
Y34322D01*
X11128Y34269D02*
X11348Y34049D01*
X10946Y34269D02*
X11128D01*
X10737Y34049D02*
Y34060D01*
X16783Y36539D02*
X17387Y35936D01*
X16659Y36239D02*
X17087Y35811D01*
X17387Y34649D02*
X17887Y34149D01*
X17387Y34649D02*
Y35936D01*
X22454Y33332D02*
X23929D01*
X22437Y33349D02*
X22454Y33332D01*
X17337Y33349D02*
X22437D01*
X17087Y33599D02*
X17337Y33349D01*
X17087Y33599D02*
Y35811D01*
X17887Y34149D02*
X24787D01*
X25425Y34787D01*
Y36167D01*
X10087Y34476D02*
X10114D01*
X10287Y34649D01*
X10637D01*
X10764Y34522D01*
Y34349D02*
Y34522D01*
X10737Y34322D02*
X10764Y34349D01*
X36446Y36539D02*
X43242D01*
X36346Y36149D02*
Y36439D01*
X36996Y36239D02*
X43118D01*
X36996Y36149D02*
Y36239D01*
X36346Y36439D02*
X36426Y36519D01*
X37196Y34060D02*
X37405Y34269D01*
X42696Y35222D02*
X42711Y35207D01*
Y34582D02*
Y35207D01*
X42696Y35576D02*
X42698Y35574D01*
X42846D01*
X43046Y33599D02*
Y35374D01*
X42846Y35574D02*
X43046Y35374D01*
X42876Y33430D02*
X43046Y33599D01*
X41886Y33430D02*
X42876D01*
X37807Y34049D02*
X41267D01*
X41886Y33430D01*
X37196Y34060D02*
Y34322D01*
X37587Y34269D02*
X37807Y34049D01*
X37405Y34269D02*
X37587D01*
X37196Y34049D02*
Y34060D01*
X43242Y36539D02*
X43846Y35936D01*
X43118Y36239D02*
X43546Y35811D01*
X43846Y34649D02*
X44346Y34149D01*
X43846Y34649D02*
Y35936D01*
X48913Y33332D02*
X50388D01*
X48896Y33349D02*
X48913Y33332D01*
X43796Y33349D02*
X48896D01*
X43546Y33599D02*
X43796Y33349D01*
X43546Y33599D02*
Y35811D01*
X44346Y34149D02*
X51246D01*
X51884Y34787D01*
Y36167D01*
X36546Y34476D02*
X36573D01*
X36746Y34649D01*
X37096D01*
X37223Y34522D01*
Y34349D02*
Y34522D01*
X37196Y34322D02*
X37223Y34349D01*
X9987Y44927D02*
X16783D01*
X9887Y44537D02*
Y44827D01*
X10537Y44627D02*
X16659D01*
X10537Y44537D02*
Y44627D01*
X9887Y44827D02*
X9967Y44907D01*
X10737Y42448D02*
X10946Y42657D01*
X16237Y43609D02*
X16252Y43594D01*
Y42970D02*
Y43594D01*
X16237Y43964D02*
X16239Y43962D01*
X16387D01*
X16587Y41987D02*
Y43762D01*
X16387Y43962D02*
X16587Y43762D01*
X16417Y41817D02*
X16587Y41987D01*
X15427Y41817D02*
X16417D01*
X11348Y42437D02*
X14808D01*
X15427Y41817D01*
X10737Y42448D02*
Y42709D01*
X11128Y42657D02*
X11348Y42437D01*
X10946Y42657D02*
X11128D01*
X10737Y42437D02*
Y42448D01*
X16783Y44927D02*
X17387Y44323D01*
X16659Y44627D02*
X17087Y44199D01*
X17387Y43037D02*
X17887Y42537D01*
X17387Y43037D02*
Y44323D01*
X22454Y41719D02*
X23929D01*
X22437Y41737D02*
X22454Y41719D01*
X17337Y41737D02*
X22437D01*
X17087Y41987D02*
X17337Y41737D01*
X17087Y41987D02*
Y44199D01*
X17887Y42537D02*
X24787D01*
X25425Y43175D01*
Y44554D01*
X10087Y42864D02*
X10114D01*
X10287Y43037D01*
X10637D01*
X10764Y42909D01*
Y42737D02*
Y42909D01*
X10737Y42709D02*
X10764Y42737D01*
X36446Y44927D02*
X43242D01*
X36346Y44537D02*
Y44827D01*
X36996Y44627D02*
X43118D01*
X36996Y44537D02*
Y44627D01*
X36346Y44827D02*
X36426Y44907D01*
X37196Y42448D02*
X37405Y42657D01*
X42696Y43609D02*
X42711Y43594D01*
Y42970D02*
Y43594D01*
X42696Y43964D02*
X42698Y43962D01*
X42846D01*
X43046Y41987D02*
Y43762D01*
X42846Y43962D02*
X43046Y43762D01*
X42876Y41817D02*
X43046Y41987D01*
X41886Y41817D02*
X42876D01*
X37807Y42437D02*
X41267D01*
X41886Y41817D01*
X37196Y42448D02*
Y42709D01*
X37587Y42657D02*
X37807Y42437D01*
X37405Y42657D02*
X37587D01*
X37196Y42437D02*
Y42448D01*
X43242Y44927D02*
X43846Y44323D01*
X43118Y44627D02*
X43546Y44199D01*
X43846Y43037D02*
X44346Y42537D01*
X43846Y43037D02*
Y44323D01*
X48913Y41719D02*
X50388D01*
X48896Y41737D02*
X48913Y41719D01*
X43796Y41737D02*
X48896D01*
X43546Y41987D02*
X43796Y41737D01*
X43546Y41987D02*
Y44199D01*
X44346Y42537D02*
X51246D01*
X51884Y43175D01*
Y44554D01*
X36546Y42864D02*
X36573D01*
X36746Y43037D01*
X37096D01*
X37223Y42909D01*
Y42737D02*
Y42909D01*
X37196Y42709D02*
X37223Y42737D01*
X9987Y53314D02*
X16783D01*
X9887Y52924D02*
Y53214D01*
X10537Y53014D02*
X16659D01*
X10537Y52924D02*
Y53014D01*
X9887Y53214D02*
X9967Y53294D01*
X10737Y50835D02*
X10946Y51044D01*
X16237Y51997D02*
X16252Y51982D01*
Y51357D02*
Y51982D01*
X16237Y52351D02*
X16239Y52349D01*
X16387D01*
X16587Y50374D02*
Y52149D01*
X16387Y52349D02*
X16587Y52149D01*
X16417Y50204D02*
X16587Y50374D01*
X15427Y50204D02*
X16417D01*
X11348Y50824D02*
X14808D01*
X15427Y50204D01*
X10737Y50835D02*
Y51097D01*
X11128Y51044D02*
X11348Y50824D01*
X10946Y51044D02*
X11128D01*
X10737Y50824D02*
Y50835D01*
X16783Y53314D02*
X17387Y52710D01*
X16659Y53014D02*
X17087Y52586D01*
X17387Y51424D02*
X17887Y50924D01*
X17387Y51424D02*
Y52710D01*
X22454Y50107D02*
X23929D01*
X22437Y50124D02*
X22454Y50107D01*
X17337Y50124D02*
X22437D01*
X17087Y50374D02*
X17337Y50124D01*
X17087Y50374D02*
Y52586D01*
X17887Y50924D02*
X24787D01*
X25425Y51562D01*
Y52941D01*
X10087Y51251D02*
X10114D01*
X10287Y51424D01*
X10637D01*
X10764Y51297D01*
Y51124D02*
Y51297D01*
X10737Y51097D02*
X10764Y51124D01*
X36446Y53314D02*
X43242D01*
X36346Y52924D02*
Y53214D01*
X36996Y53014D02*
X43118D01*
X36996Y52924D02*
Y53014D01*
X36346Y53214D02*
X36426Y53294D01*
X37196Y50835D02*
X37405Y51044D01*
X42696Y51997D02*
X42711Y51982D01*
Y51357D02*
Y51982D01*
X42696Y52351D02*
X42698Y52349D01*
X42846D01*
X43046Y50374D02*
Y52149D01*
X42846Y52349D02*
X43046Y52149D01*
X42876Y50204D02*
X43046Y50374D01*
X41886Y50204D02*
X42876D01*
X37807Y50824D02*
X41267D01*
X41886Y50204D01*
X37196Y50835D02*
Y51097D01*
X37587Y51044D02*
X37807Y50824D01*
X37405Y51044D02*
X37587D01*
X37196Y50824D02*
Y50835D01*
X43242Y53314D02*
X43846Y52710D01*
X43118Y53014D02*
X43546Y52586D01*
X43846Y51424D02*
X44346Y50924D01*
X43846Y51424D02*
Y52710D01*
X48913Y50107D02*
X50388D01*
X48896Y50124D02*
X48913Y50107D01*
X43796Y50124D02*
X48896D01*
X43546Y50374D02*
X43796Y50124D01*
X43546Y50374D02*
Y52586D01*
X44346Y50924D02*
X51246D01*
X51884Y51562D01*
Y52941D01*
X36546Y51251D02*
X36573D01*
X36746Y51424D01*
X37096D01*
X37223Y51297D01*
Y51124D02*
Y51297D01*
X37196Y51097D02*
X37223Y51124D01*
D25*
X17687Y6087D02*
X18267D01*
X15707D02*
X16287D01*
X13887Y9337D02*
X14467D01*
X11907D02*
X12487D01*
X13887Y6087D02*
X14467D01*
X11337D02*
X11907D01*
X5187Y7287D02*
X5206Y7268D01*
Y6770D02*
Y7268D01*
X4637Y6737D02*
X4670Y6770D01*
X5206D01*
X5037Y10237D02*
Y10287D01*
X5206Y10456D01*
Y10770D01*
X5887Y9135D02*
X6663Y9911D01*
X5887Y8237D02*
Y9135D01*
X6663Y9911D02*
Y10770D01*
X4587Y10787D02*
X4604Y10770D01*
X5206D01*
X6663Y5510D02*
X7337Y6184D01*
X6663Y4604D02*
Y5510D01*
X5837Y6337D02*
X6137Y6037D01*
Y5337D02*
Y6037D01*
X5404Y4604D02*
X6137Y5337D01*
X5206Y4604D02*
X5404D01*
X5837Y6337D02*
Y7974D01*
X5206Y8604D02*
X5837Y7974D01*
X6663Y6770D02*
Y7461D01*
X5887Y8237D02*
X6663Y7461D01*
Y8604D02*
X7337Y7930D01*
Y6184D02*
Y7930D01*
X22437Y10937D02*
Y11287D01*
Y10587D02*
Y10937D01*
X22087D02*
X22437D01*
X22787D01*
X26487Y10437D02*
X26488Y10438D01*
Y10951D01*
X25987Y10937D02*
X26001Y10951D01*
X26488D01*
X26973D02*
X26987Y10937D01*
X26488Y10951D02*
X26973D01*
X44146Y6087D02*
X44726D01*
X42167D02*
X42746D01*
X40346Y9337D02*
X40926D01*
X38367D02*
X38946D01*
X40346Y6087D02*
X40926D01*
X37796D02*
X38367D01*
X31646Y7287D02*
X31665Y7268D01*
Y6770D02*
Y7268D01*
X31096Y6737D02*
X31129Y6770D01*
X31665D01*
X31496Y10237D02*
Y10287D01*
X31665Y10456D01*
Y10770D01*
X32346Y9135D02*
X33122Y9911D01*
X32346Y8237D02*
Y9135D01*
X33122Y9911D02*
Y10770D01*
X31046Y10787D02*
X31063Y10770D01*
X31665D01*
X33122Y5510D02*
X33796Y6184D01*
X33122Y4604D02*
Y5510D01*
X32296Y6337D02*
X32596Y6037D01*
Y5337D02*
Y6037D01*
X31863Y4604D02*
X32596Y5337D01*
X31665Y4604D02*
X31863D01*
X32296Y6337D02*
Y7974D01*
X31665Y8604D02*
X32296Y7974D01*
X33122Y6770D02*
Y7461D01*
X32346Y8237D02*
X33122Y7461D01*
Y8604D02*
X33796Y7930D01*
Y6184D02*
Y7930D01*
X48896Y10937D02*
Y11287D01*
Y10587D02*
Y10937D01*
X48546D02*
X48896D01*
X49246D01*
X52946Y10437D02*
X52947Y10438D01*
Y10951D01*
X52446Y10937D02*
X52460Y10951D01*
X52947D01*
X53432D02*
X53446Y10937D01*
X52947Y10951D02*
X53432D01*
X17687Y14474D02*
X18267D01*
X15707D02*
X16287D01*
X13887Y17724D02*
X14467D01*
X11907D02*
X12487D01*
X13887Y14474D02*
X14467D01*
X11337D02*
X11907D01*
X5187Y15674D02*
X5206Y15655D01*
Y15157D02*
Y15655D01*
X4637Y15124D02*
X4670Y15157D01*
X5206D01*
X5037Y18624D02*
Y18674D01*
X5206Y18844D01*
Y19157D01*
X5887Y17522D02*
X6663Y18298D01*
X5887Y16624D02*
Y17522D01*
X6663Y18298D02*
Y19157D01*
X4587Y19174D02*
X4604Y19157D01*
X5206D01*
X6663Y13897D02*
X7337Y14571D01*
X6663Y12992D02*
Y13897D01*
X5837Y14724D02*
X6137Y14424D01*
Y13724D02*
Y14424D01*
X5404Y12992D02*
X6137Y13724D01*
X5206Y12992D02*
X5404D01*
X5837Y14724D02*
Y16361D01*
X5206Y16992D02*
X5837Y16361D01*
X6663Y15157D02*
Y15848D01*
X5887Y16624D02*
X6663Y15848D01*
Y16992D02*
X7337Y16318D01*
Y14571D02*
Y16318D01*
X22437Y19324D02*
Y19674D01*
Y18974D02*
Y19324D01*
X22087D02*
X22437D01*
X22787D01*
X26487Y18824D02*
X26488Y18826D01*
Y19339D01*
X25987Y19324D02*
X26001Y19339D01*
X26488D01*
X26973D02*
X26987Y19324D01*
X26488Y19339D02*
X26973D01*
X44146Y14474D02*
X44726D01*
X42167D02*
X42746D01*
X40346Y17724D02*
X40926D01*
X38367D02*
X38946D01*
X40346Y14474D02*
X40926D01*
X37796D02*
X38367D01*
X31646Y15674D02*
X31665Y15655D01*
Y15157D02*
Y15655D01*
X31096Y15124D02*
X31129Y15157D01*
X31665D01*
X31496Y18624D02*
Y18674D01*
X31665Y18844D01*
Y19157D01*
X32346Y17522D02*
X33122Y18298D01*
X32346Y16624D02*
Y17522D01*
X33122Y18298D02*
Y19157D01*
X31046Y19174D02*
X31063Y19157D01*
X31665D01*
X33122Y13897D02*
X33796Y14571D01*
X33122Y12992D02*
Y13897D01*
X32296Y14724D02*
X32596Y14424D01*
Y13724D02*
Y14424D01*
X31863Y12992D02*
X32596Y13724D01*
X31665Y12992D02*
X31863D01*
X32296Y14724D02*
Y16361D01*
X31665Y16992D02*
X32296Y16361D01*
X33122Y15157D02*
Y15848D01*
X32346Y16624D02*
X33122Y15848D01*
Y16992D02*
X33796Y16318D01*
Y14571D02*
Y16318D01*
X48896Y19324D02*
Y19674D01*
Y18974D02*
Y19324D01*
X48546D02*
X48896D01*
X49246D01*
X52946Y18824D02*
X52947Y18826D01*
Y19339D01*
X52446Y19324D02*
X52460Y19339D01*
X52947D01*
X53432D02*
X53446Y19324D01*
X52947Y19339D02*
X53432D01*
X17687Y22862D02*
X18267D01*
X15707D02*
X16287D01*
X13887Y26112D02*
X14467D01*
X11907D02*
X12487D01*
X13887Y22862D02*
X14467D01*
X11337D02*
X11907D01*
X5187Y24062D02*
X5206Y24043D01*
Y23544D02*
Y24043D01*
X4637Y23512D02*
X4670Y23544D01*
X5206D01*
X5037Y27012D02*
Y27062D01*
X5206Y27231D01*
Y27544D01*
X5887Y25910D02*
X6663Y26686D01*
X5887Y25012D02*
Y25910D01*
X6663Y26686D02*
Y27544D01*
X4587Y27562D02*
X4604Y27544D01*
X5206D01*
X6663Y22285D02*
X7337Y22959D01*
X6663Y21379D02*
Y22285D01*
X5837Y23112D02*
X6137Y22812D01*
Y22112D02*
Y22812D01*
X5404Y21379D02*
X6137Y22112D01*
X5206Y21379D02*
X5404D01*
X5837Y23112D02*
Y24748D01*
X5206Y25379D02*
X5837Y24748D01*
X6663Y23544D02*
Y24236D01*
X5887Y25012D02*
X6663Y24236D01*
Y25379D02*
X7337Y24705D01*
Y22959D02*
Y24705D01*
X22437Y27712D02*
Y28062D01*
Y27362D02*
Y27712D01*
X22087D02*
X22437D01*
X22787D01*
X26487Y27212D02*
X26488Y27213D01*
Y27726D01*
X25987Y27712D02*
X26001Y27726D01*
X26488D01*
X26973D02*
X26987Y27712D01*
X26488Y27726D02*
X26973D01*
X44146Y22862D02*
X44726D01*
X42167D02*
X42746D01*
X40346Y26112D02*
X40926D01*
X38367D02*
X38946D01*
X40346Y22862D02*
X40926D01*
X37796D02*
X38367D01*
X31646Y24062D02*
X31665Y24043D01*
Y23544D02*
Y24043D01*
X31096Y23512D02*
X31129Y23544D01*
X31665D01*
X31496Y27012D02*
Y27062D01*
X31665Y27231D01*
Y27544D01*
X32346Y25910D02*
X33122Y26686D01*
X32346Y25012D02*
Y25910D01*
X33122Y26686D02*
Y27544D01*
X31046Y27562D02*
X31063Y27544D01*
X31665D01*
X33122Y22285D02*
X33796Y22959D01*
X33122Y21379D02*
Y22285D01*
X32296Y23112D02*
X32596Y22812D01*
Y22112D02*
Y22812D01*
X31863Y21379D02*
X32596Y22112D01*
X31665Y21379D02*
X31863D01*
X32296Y23112D02*
Y24748D01*
X31665Y25379D02*
X32296Y24748D01*
X33122Y23544D02*
Y24236D01*
X32346Y25012D02*
X33122Y24236D01*
Y25379D02*
X33796Y24705D01*
Y22959D02*
Y24705D01*
X48896Y27712D02*
Y28062D01*
Y27362D02*
Y27712D01*
X48546D02*
X48896D01*
X49246D01*
X52946Y27212D02*
X52947Y27213D01*
Y27726D01*
X52446Y27712D02*
X52460Y27726D01*
X52947D01*
X53432D02*
X53446Y27712D01*
X52947Y27726D02*
X53432D01*
X17687Y31249D02*
X18267D01*
X15707D02*
X16287D01*
X13887Y34499D02*
X14467D01*
X11907D02*
X12487D01*
X13887Y31249D02*
X14467D01*
X11337D02*
X11907D01*
X5187Y32449D02*
X5206Y32430D01*
Y31932D02*
Y32430D01*
X4637Y31899D02*
X4670Y31932D01*
X5206D01*
X5037Y35399D02*
Y35449D01*
X5206Y35619D01*
Y35932D01*
X5887Y34297D02*
X6663Y35073D01*
X5887Y33399D02*
Y34297D01*
X6663Y35073D02*
Y35932D01*
X4587Y35949D02*
X4604Y35932D01*
X5206D01*
X6663Y30672D02*
X7337Y31346D01*
X6663Y29767D02*
Y30672D01*
X5837Y31499D02*
X6137Y31199D01*
Y30499D02*
Y31199D01*
X5404Y29767D02*
X6137Y30499D01*
X5206Y29767D02*
X5404D01*
X5837Y31499D02*
Y33136D01*
X5206Y33767D02*
X5837Y33136D01*
X6663Y31932D02*
Y32623D01*
X5887Y33399D02*
X6663Y32623D01*
Y33767D02*
X7337Y33093D01*
Y31346D02*
Y33093D01*
X22437Y36099D02*
Y36449D01*
Y35749D02*
Y36099D01*
X22087D02*
X22437D01*
X22787D01*
X26487Y35599D02*
X26488Y35600D01*
Y36113D01*
X25987Y36099D02*
X26001Y36113D01*
X26488D01*
X26973D02*
X26987Y36099D01*
X26488Y36113D02*
X26973D01*
X44146Y31249D02*
X44726D01*
X42167D02*
X42746D01*
X40346Y34499D02*
X40926D01*
X38367D02*
X38946D01*
X40346Y31249D02*
X40926D01*
X37796D02*
X38367D01*
X31646Y32449D02*
X31665Y32430D01*
Y31932D02*
Y32430D01*
X31096Y31899D02*
X31129Y31932D01*
X31665D01*
X31496Y35399D02*
Y35449D01*
X31665Y35619D01*
Y35932D01*
X32346Y34297D02*
X33122Y35073D01*
X32346Y33399D02*
Y34297D01*
X33122Y35073D02*
Y35932D01*
X31046Y35949D02*
X31063Y35932D01*
X31665D01*
X33122Y30672D02*
X33796Y31346D01*
X33122Y29767D02*
Y30672D01*
X32296Y31499D02*
X32596Y31199D01*
Y30499D02*
Y31199D01*
X31863Y29767D02*
X32596Y30499D01*
X31665Y29767D02*
X31863D01*
X32296Y31499D02*
Y33136D01*
X31665Y33767D02*
X32296Y33136D01*
X33122Y31932D02*
Y32623D01*
X32346Y33399D02*
X33122Y32623D01*
Y33767D02*
X33796Y33093D01*
Y31346D02*
Y33093D01*
X48896Y36099D02*
Y36449D01*
Y35749D02*
Y36099D01*
X48546D02*
X48896D01*
X49246D01*
X52946Y35599D02*
X52947Y35600D01*
Y36113D01*
X52446Y36099D02*
X52460Y36113D01*
X52947D01*
X53432D02*
X53446Y36099D01*
X52947Y36113D02*
X53432D01*
X17687Y39637D02*
X18267D01*
X15707D02*
X16287D01*
X13887Y42887D02*
X14467D01*
X11907D02*
X12487D01*
X13887Y39637D02*
X14467D01*
X11337D02*
X11907D01*
X5187Y40837D02*
X5206Y40817D01*
Y40319D02*
Y40817D01*
X4637Y40287D02*
X4670Y40319D01*
X5206D01*
X5037Y43787D02*
Y43837D01*
X5206Y44006D01*
Y44319D01*
X5887Y42685D02*
X6663Y43461D01*
X5887Y41787D02*
Y42685D01*
X6663Y43461D02*
Y44319D01*
X4587Y44337D02*
X4604Y44319D01*
X5206D01*
X6663Y39060D02*
X7337Y39734D01*
X6663Y38154D02*
Y39060D01*
X5837Y39887D02*
X6137Y39587D01*
Y38887D02*
Y39587D01*
X5404Y38154D02*
X6137Y38887D01*
X5206Y38154D02*
X5404D01*
X5837Y39887D02*
Y41523D01*
X5206Y42154D02*
X5837Y41523D01*
X6663Y40319D02*
Y41011D01*
X5887Y41787D02*
X6663Y41011D01*
Y42154D02*
X7337Y41480D01*
Y39734D02*
Y41480D01*
X22437Y44487D02*
Y44837D01*
Y44137D02*
Y44487D01*
X22087D02*
X22437D01*
X22787D01*
X26487Y43987D02*
X26488Y43988D01*
Y44501D01*
X25987Y44487D02*
X26001Y44501D01*
X26488D01*
X26973D02*
X26987Y44487D01*
X26488Y44501D02*
X26973D01*
X44146Y39637D02*
X44726D01*
X42167D02*
X42746D01*
X40346Y42887D02*
X40926D01*
X38367D02*
X38946D01*
X40346Y39637D02*
X40926D01*
X37796D02*
X38367D01*
X31646Y40837D02*
X31665Y40817D01*
Y40319D02*
Y40817D01*
X31096Y40287D02*
X31129Y40319D01*
X31665D01*
X31496Y43787D02*
Y43837D01*
X31665Y44006D01*
Y44319D01*
X32346Y42685D02*
X33122Y43461D01*
X32346Y41787D02*
Y42685D01*
X33122Y43461D02*
Y44319D01*
X31046Y44337D02*
X31063Y44319D01*
X31665D01*
X33122Y39060D02*
X33796Y39734D01*
X33122Y38154D02*
Y39060D01*
X32296Y39887D02*
X32596Y39587D01*
Y38887D02*
Y39587D01*
X31863Y38154D02*
X32596Y38887D01*
X31665Y38154D02*
X31863D01*
X32296Y39887D02*
Y41523D01*
X31665Y42154D02*
X32296Y41523D01*
X33122Y40319D02*
Y41011D01*
X32346Y41787D02*
X33122Y41011D01*
Y42154D02*
X33796Y41480D01*
Y39734D02*
Y41480D01*
X48896Y44487D02*
Y44837D01*
Y44137D02*
Y44487D01*
X48546D02*
X48896D01*
X49246D01*
X52946Y43987D02*
X52947Y43988D01*
Y44501D01*
X52446Y44487D02*
X52460Y44501D01*
X52947D01*
X53432D02*
X53446Y44487D01*
X52947Y44501D02*
X53432D01*
X17687Y48024D02*
X18267D01*
X15707D02*
X16287D01*
X13887Y51274D02*
X14467D01*
X11907D02*
X12487D01*
X13887Y48024D02*
X14467D01*
X11337D02*
X11907D01*
X5187Y49224D02*
X5206Y49205D01*
Y48707D02*
Y49205D01*
X4637Y48674D02*
X4670Y48707D01*
X5206D01*
X5037Y52174D02*
Y52224D01*
X5206Y52393D01*
Y52707D01*
X5887Y51072D02*
X6663Y51848D01*
X5887Y50174D02*
Y51072D01*
X6663Y51848D02*
Y52707D01*
X4587Y52724D02*
X4604Y52707D01*
X5206D01*
X6663Y47447D02*
X7337Y48121D01*
X6663Y46541D02*
Y47447D01*
X5837Y48274D02*
X6137Y47974D01*
Y47274D02*
Y47974D01*
X5404Y46541D02*
X6137Y47274D01*
X5206Y46541D02*
X5404D01*
X5837Y48274D02*
Y49911D01*
X5206Y50541D02*
X5837Y49911D01*
X6663Y48707D02*
Y49398D01*
X5887Y50174D02*
X6663Y49398D01*
Y50541D02*
X7337Y49867D01*
Y48121D02*
Y49867D01*
X22437Y52874D02*
Y53224D01*
Y52524D02*
Y52874D01*
X22087D02*
X22437D01*
X22787D01*
X26487Y52374D02*
X26488Y52375D01*
Y52888D01*
X25987Y52874D02*
X26001Y52888D01*
X26488D01*
X26973D02*
X26987Y52874D01*
X26488Y52888D02*
X26973D01*
X44146Y48024D02*
X44726D01*
X42167D02*
X42746D01*
X40346Y51274D02*
X40926D01*
X38367D02*
X38946D01*
X40346Y48024D02*
X40926D01*
X37796D02*
X38367D01*
X31646Y49224D02*
X31665Y49205D01*
Y48707D02*
Y49205D01*
X31096Y48674D02*
X31129Y48707D01*
X31665D01*
X31496Y52174D02*
Y52224D01*
X31665Y52393D01*
Y52707D01*
X32346Y51072D02*
X33122Y51848D01*
X32346Y50174D02*
Y51072D01*
X33122Y51848D02*
Y52707D01*
X31046Y52724D02*
X31063Y52707D01*
X31665D01*
X33122Y47447D02*
X33796Y48121D01*
X33122Y46541D02*
Y47447D01*
X32296Y48274D02*
X32596Y47974D01*
Y47274D02*
Y47974D01*
X31863Y46541D02*
X32596Y47274D01*
X31665Y46541D02*
X31863D01*
X32296Y48274D02*
Y49911D01*
X31665Y50541D02*
X32296Y49911D01*
X33122Y48707D02*
Y49398D01*
X32346Y50174D02*
X33122Y49398D01*
Y50541D02*
X33796Y49867D01*
Y48121D02*
Y49867D01*
X48896Y52874D02*
Y53224D01*
Y52524D02*
Y52874D01*
X48546D02*
X48896D01*
X49246D01*
X52946Y52374D02*
X52947Y52375D01*
Y52888D01*
X52446Y52874D02*
X52460Y52888D01*
X52947D01*
X53432D02*
X53446Y52874D01*
X52947Y52888D02*
X53432D01*
D26*
X10487Y10987D02*
D03*
X10187Y11087D02*
D03*
X9887Y10987D02*
D03*
X17687Y6087D02*
D03*
X16287D02*
D03*
X13887Y9337D02*
D03*
X12487D02*
D03*
X13887Y6087D02*
D03*
X11337D02*
D03*
X5187Y7287D02*
D03*
X4637Y6737D02*
D03*
X5037Y10237D02*
D03*
X4587Y10787D02*
D03*
X10387Y8887D02*
D03*
X8137Y9937D02*
D03*
X8787Y10687D02*
D03*
X8437D02*
D03*
X22437Y11287D02*
D03*
Y10587D02*
D03*
X22087Y10937D02*
D03*
X22787D02*
D03*
X26487Y10437D02*
D03*
X25987Y10937D02*
D03*
X26987D02*
D03*
X13037Y10687D02*
D03*
X10737Y8887D02*
D03*
X10037Y8687D02*
D03*
X9687D02*
D03*
X11287Y8587D02*
D03*
X11187Y7287D02*
D03*
X13737Y10337D02*
D03*
X8737Y7537D02*
D03*
X8637Y7937D02*
D03*
X9787Y6237D02*
D03*
X10087D02*
D03*
X12687Y7087D02*
D03*
Y5337D02*
D03*
X36946Y10987D02*
D03*
X36646Y11087D02*
D03*
X36346Y10987D02*
D03*
X44146Y6087D02*
D03*
X42746D02*
D03*
X40346Y9337D02*
D03*
X38946D02*
D03*
X40346Y6087D02*
D03*
X37796D02*
D03*
X31646Y7287D02*
D03*
X31096Y6737D02*
D03*
X31496Y10237D02*
D03*
X31046Y10787D02*
D03*
X36846Y8887D02*
D03*
X34596Y9937D02*
D03*
X35246Y10687D02*
D03*
X34896D02*
D03*
X48896Y11287D02*
D03*
Y10587D02*
D03*
X48546Y10937D02*
D03*
X49246D02*
D03*
X52946Y10437D02*
D03*
X52446Y10937D02*
D03*
X53446D02*
D03*
X39496Y10687D02*
D03*
X37196Y8887D02*
D03*
X36496Y8687D02*
D03*
X36146D02*
D03*
X37746Y8587D02*
D03*
X37646Y7287D02*
D03*
X40196Y10337D02*
D03*
X35196Y7537D02*
D03*
X35096Y7937D02*
D03*
X36246Y6237D02*
D03*
X36546D02*
D03*
X39146Y7087D02*
D03*
Y5337D02*
D03*
X10487Y19374D02*
D03*
X10187Y19474D02*
D03*
X9887Y19374D02*
D03*
X17687Y14474D02*
D03*
X16287D02*
D03*
X13887Y17724D02*
D03*
X12487D02*
D03*
X13887Y14474D02*
D03*
X11337D02*
D03*
X5187Y15674D02*
D03*
X4637Y15124D02*
D03*
X5037Y18624D02*
D03*
X4587Y19174D02*
D03*
X10387Y17274D02*
D03*
X8137Y18324D02*
D03*
X8787Y19074D02*
D03*
X8437D02*
D03*
X22437Y19674D02*
D03*
Y18974D02*
D03*
X22087Y19324D02*
D03*
X22787D02*
D03*
X26487Y18824D02*
D03*
X25987Y19324D02*
D03*
X26987D02*
D03*
X13037Y19074D02*
D03*
X10737Y17274D02*
D03*
X10037Y17074D02*
D03*
X9687D02*
D03*
X11287Y16974D02*
D03*
X11187Y15674D02*
D03*
X13737Y18724D02*
D03*
X8737Y15924D02*
D03*
X8637Y16324D02*
D03*
X9787Y14624D02*
D03*
X10087D02*
D03*
X12687Y15474D02*
D03*
Y13724D02*
D03*
X36946Y19374D02*
D03*
X36646Y19474D02*
D03*
X36346Y19374D02*
D03*
X44146Y14474D02*
D03*
X42746D02*
D03*
X40346Y17724D02*
D03*
X38946D02*
D03*
X40346Y14474D02*
D03*
X37796D02*
D03*
X31646Y15674D02*
D03*
X31096Y15124D02*
D03*
X31496Y18624D02*
D03*
X31046Y19174D02*
D03*
X36846Y17274D02*
D03*
X34596Y18324D02*
D03*
X35246Y19074D02*
D03*
X34896D02*
D03*
X48896Y19674D02*
D03*
Y18974D02*
D03*
X48546Y19324D02*
D03*
X49246D02*
D03*
X52946Y18824D02*
D03*
X52446Y19324D02*
D03*
X53446D02*
D03*
X39496Y19074D02*
D03*
X37196Y17274D02*
D03*
X36496Y17074D02*
D03*
X36146D02*
D03*
X37746Y16974D02*
D03*
X37646Y15674D02*
D03*
X40196Y18724D02*
D03*
X35196Y15924D02*
D03*
X35096Y16324D02*
D03*
X36246Y14624D02*
D03*
X36546D02*
D03*
X39146Y15474D02*
D03*
Y13724D02*
D03*
X10487Y27762D02*
D03*
X10187Y27862D02*
D03*
X9887Y27762D02*
D03*
X17687Y22862D02*
D03*
X16287D02*
D03*
X13887Y26112D02*
D03*
X12487D02*
D03*
X13887Y22862D02*
D03*
X11337D02*
D03*
X5187Y24062D02*
D03*
X4637Y23512D02*
D03*
X5037Y27012D02*
D03*
X4587Y27562D02*
D03*
X10387Y25662D02*
D03*
X8137Y26712D02*
D03*
X8787Y27462D02*
D03*
X8437D02*
D03*
X22437Y28062D02*
D03*
Y27362D02*
D03*
X22087Y27712D02*
D03*
X22787D02*
D03*
X26487Y27212D02*
D03*
X25987Y27712D02*
D03*
X26987D02*
D03*
X13037Y27462D02*
D03*
X10737Y25662D02*
D03*
X10037Y25462D02*
D03*
X9687D02*
D03*
X11287Y25362D02*
D03*
X11187Y24062D02*
D03*
X13737Y27112D02*
D03*
X8737Y24312D02*
D03*
X8637Y24712D02*
D03*
X9787Y23012D02*
D03*
X10087D02*
D03*
X12687Y23862D02*
D03*
Y22112D02*
D03*
X36946Y27762D02*
D03*
X36646Y27862D02*
D03*
X36346Y27762D02*
D03*
X44146Y22862D02*
D03*
X42746D02*
D03*
X40346Y26112D02*
D03*
X38946D02*
D03*
X40346Y22862D02*
D03*
X37796D02*
D03*
X31646Y24062D02*
D03*
X31096Y23512D02*
D03*
X31496Y27012D02*
D03*
X31046Y27562D02*
D03*
X36846Y25662D02*
D03*
X34596Y26712D02*
D03*
X35246Y27462D02*
D03*
X34896D02*
D03*
X48896Y28062D02*
D03*
Y27362D02*
D03*
X48546Y27712D02*
D03*
X49246D02*
D03*
X52946Y27212D02*
D03*
X52446Y27712D02*
D03*
X53446D02*
D03*
X39496Y27462D02*
D03*
X37196Y25662D02*
D03*
X36496Y25462D02*
D03*
X36146D02*
D03*
X37746Y25362D02*
D03*
X37646Y24062D02*
D03*
X40196Y27112D02*
D03*
X35196Y24312D02*
D03*
X35096Y24712D02*
D03*
X36246Y23012D02*
D03*
X36546D02*
D03*
X39146Y23862D02*
D03*
Y22112D02*
D03*
X10487Y36149D02*
D03*
X10187Y36249D02*
D03*
X9887Y36149D02*
D03*
X17687Y31249D02*
D03*
X16287D02*
D03*
X13887Y34499D02*
D03*
X12487D02*
D03*
X13887Y31249D02*
D03*
X11337D02*
D03*
X5187Y32449D02*
D03*
X4637Y31899D02*
D03*
X5037Y35399D02*
D03*
X4587Y35949D02*
D03*
X10387Y34049D02*
D03*
X8137Y35099D02*
D03*
X8787Y35849D02*
D03*
X8437D02*
D03*
X22437Y36449D02*
D03*
Y35749D02*
D03*
X22087Y36099D02*
D03*
X22787D02*
D03*
X26487Y35599D02*
D03*
X25987Y36099D02*
D03*
X26987D02*
D03*
X13037Y35849D02*
D03*
X10737Y34049D02*
D03*
X10037Y33849D02*
D03*
X9687D02*
D03*
X11287Y33749D02*
D03*
X11187Y32449D02*
D03*
X13737Y35499D02*
D03*
X8737Y32699D02*
D03*
X8637Y33099D02*
D03*
X9787Y31399D02*
D03*
X10087D02*
D03*
X12687Y32249D02*
D03*
Y30499D02*
D03*
X36946Y36149D02*
D03*
X36646Y36249D02*
D03*
X36346Y36149D02*
D03*
X44146Y31249D02*
D03*
X42746D02*
D03*
X40346Y34499D02*
D03*
X38946D02*
D03*
X40346Y31249D02*
D03*
X37796D02*
D03*
X31646Y32449D02*
D03*
X31096Y31899D02*
D03*
X31496Y35399D02*
D03*
X31046Y35949D02*
D03*
X36846Y34049D02*
D03*
X34596Y35099D02*
D03*
X35246Y35849D02*
D03*
X34896D02*
D03*
X48896Y36449D02*
D03*
Y35749D02*
D03*
X48546Y36099D02*
D03*
X49246D02*
D03*
X52946Y35599D02*
D03*
X52446Y36099D02*
D03*
X53446D02*
D03*
X39496Y35849D02*
D03*
X37196Y34049D02*
D03*
X36496Y33849D02*
D03*
X36146D02*
D03*
X37746Y33749D02*
D03*
X37646Y32449D02*
D03*
X40196Y35499D02*
D03*
X35196Y32699D02*
D03*
X35096Y33099D02*
D03*
X36246Y31399D02*
D03*
X36546D02*
D03*
X39146Y32249D02*
D03*
Y30499D02*
D03*
X10487Y44537D02*
D03*
X10187Y44637D02*
D03*
X9887Y44537D02*
D03*
X17687Y39637D02*
D03*
X16287D02*
D03*
X13887Y42887D02*
D03*
X12487D02*
D03*
X13887Y39637D02*
D03*
X11337D02*
D03*
X5187Y40837D02*
D03*
X4637Y40287D02*
D03*
X5037Y43787D02*
D03*
X4587Y44337D02*
D03*
X10387Y42437D02*
D03*
X8137Y43487D02*
D03*
X8787Y44237D02*
D03*
X8437D02*
D03*
X22437Y44837D02*
D03*
Y44137D02*
D03*
X22087Y44487D02*
D03*
X22787D02*
D03*
X26487Y43987D02*
D03*
X25987Y44487D02*
D03*
X26987D02*
D03*
X13037Y44237D02*
D03*
X10737Y42437D02*
D03*
X10037Y42237D02*
D03*
X9687D02*
D03*
X11287Y42137D02*
D03*
X11187Y40837D02*
D03*
X13737Y43887D02*
D03*
X8737Y41087D02*
D03*
X8637Y41487D02*
D03*
X9787Y39787D02*
D03*
X10087D02*
D03*
X12687Y40637D02*
D03*
Y38887D02*
D03*
X36946Y44537D02*
D03*
X36646Y44637D02*
D03*
X36346Y44537D02*
D03*
X44146Y39637D02*
D03*
X42746D02*
D03*
X40346Y42887D02*
D03*
X38946D02*
D03*
X40346Y39637D02*
D03*
X37796D02*
D03*
X31646Y40837D02*
D03*
X31096Y40287D02*
D03*
X31496Y43787D02*
D03*
X31046Y44337D02*
D03*
X36846Y42437D02*
D03*
X34596Y43487D02*
D03*
X35246Y44237D02*
D03*
X34896D02*
D03*
X48896Y44837D02*
D03*
Y44137D02*
D03*
X48546Y44487D02*
D03*
X49246D02*
D03*
X52946Y43987D02*
D03*
X52446Y44487D02*
D03*
X53446D02*
D03*
X39496Y44237D02*
D03*
X37196Y42437D02*
D03*
X36496Y42237D02*
D03*
X36146D02*
D03*
X37746Y42137D02*
D03*
X37646Y40837D02*
D03*
X40196Y43887D02*
D03*
X35196Y41087D02*
D03*
X35096Y41487D02*
D03*
X36246Y39787D02*
D03*
X36546D02*
D03*
X39146Y40637D02*
D03*
Y38887D02*
D03*
X10487Y52924D02*
D03*
X10187Y53024D02*
D03*
X9887Y52924D02*
D03*
X17687Y48024D02*
D03*
X16287D02*
D03*
X13887Y51274D02*
D03*
X12487D02*
D03*
X13887Y48024D02*
D03*
X11337D02*
D03*
X5187Y49224D02*
D03*
X4637Y48674D02*
D03*
X5037Y52174D02*
D03*
X4587Y52724D02*
D03*
X10387Y50824D02*
D03*
X8137Y51874D02*
D03*
X8787Y52624D02*
D03*
X8437D02*
D03*
X22437Y53224D02*
D03*
Y52524D02*
D03*
X22087Y52874D02*
D03*
X22787D02*
D03*
X26487Y52374D02*
D03*
X25987Y52874D02*
D03*
X26987D02*
D03*
X13037Y52624D02*
D03*
X10737Y50824D02*
D03*
X10037Y50624D02*
D03*
X9687D02*
D03*
X11287Y50524D02*
D03*
X11187Y49224D02*
D03*
X13737Y52274D02*
D03*
X8737Y49474D02*
D03*
X8637Y49874D02*
D03*
X9787Y48174D02*
D03*
X10087D02*
D03*
X12687Y49024D02*
D03*
Y47274D02*
D03*
X36946Y52924D02*
D03*
X36646Y53024D02*
D03*
X36346Y52924D02*
D03*
X44146Y48024D02*
D03*
X42746D02*
D03*
X40346Y51274D02*
D03*
X38946D02*
D03*
X40346Y48024D02*
D03*
X37796D02*
D03*
X31646Y49224D02*
D03*
X31096Y48674D02*
D03*
X31496Y52174D02*
D03*
X31046Y52724D02*
D03*
X36846Y50824D02*
D03*
X34596Y51874D02*
D03*
X35246Y52624D02*
D03*
X34896D02*
D03*
X48896Y53224D02*
D03*
Y52524D02*
D03*
X48546Y52874D02*
D03*
X49246D02*
D03*
X52946Y52374D02*
D03*
X52446Y52874D02*
D03*
X53446D02*
D03*
X39496Y52624D02*
D03*
X37196Y50824D02*
D03*
X36496Y50624D02*
D03*
X36146D02*
D03*
X37746Y50524D02*
D03*
X37646Y49224D02*
D03*
X40196Y52274D02*
D03*
X35196Y49474D02*
D03*
X35096Y49874D02*
D03*
X36246Y48174D02*
D03*
X36546D02*
D03*
X39146Y49024D02*
D03*
Y47274D02*
D03*
D27*
X10154Y7754D02*
D03*
Y7320D02*
D03*
X9720Y7754D02*
D03*
Y7320D02*
D03*
X36613Y7754D02*
D03*
Y7320D02*
D03*
X36180Y7754D02*
D03*
Y7320D02*
D03*
X10154Y16141D02*
D03*
Y15708D02*
D03*
X9720Y16141D02*
D03*
Y15708D02*
D03*
X36613Y16141D02*
D03*
Y15708D02*
D03*
X36180Y16141D02*
D03*
Y15708D02*
D03*
X10154Y24528D02*
D03*
Y24095D02*
D03*
X9720Y24528D02*
D03*
Y24095D02*
D03*
X36613Y24528D02*
D03*
Y24095D02*
D03*
X36180Y24528D02*
D03*
Y24095D02*
D03*
X10154Y32916D02*
D03*
Y32483D02*
D03*
X9720Y32916D02*
D03*
Y32483D02*
D03*
X36613Y32916D02*
D03*
Y32483D02*
D03*
X36180Y32916D02*
D03*
Y32483D02*
D03*
X10154Y41303D02*
D03*
Y40870D02*
D03*
X9720Y41303D02*
D03*
Y40870D02*
D03*
X36613Y41303D02*
D03*
Y40870D02*
D03*
X36180Y41303D02*
D03*
Y40870D02*
D03*
X10154Y49691D02*
D03*
Y49257D02*
D03*
X9720Y49691D02*
D03*
Y49257D02*
D03*
X36613Y49691D02*
D03*
Y49257D02*
D03*
X36180Y49691D02*
D03*
Y49257D02*
D03*
D28*
X21437Y10137D02*
D03*
X10487Y5237D02*
D03*
X47896Y10137D02*
D03*
X36946Y5237D02*
D03*
X21437Y18524D02*
D03*
X10487Y13624D02*
D03*
X47896Y18524D02*
D03*
X36946Y13624D02*
D03*
X21437Y26912D02*
D03*
X10487Y22012D02*
D03*
X47896Y26912D02*
D03*
X36946Y22012D02*
D03*
X21437Y35299D02*
D03*
X10487Y30399D02*
D03*
X47896Y35299D02*
D03*
X36946Y30399D02*
D03*
X21437Y43687D02*
D03*
X10487Y38787D02*
D03*
X47896Y43687D02*
D03*
X36946Y38787D02*
D03*
X21437Y52074D02*
D03*
X10487Y47174D02*
D03*
X47896Y52074D02*
D03*
X36946Y47174D02*
D03*
M02*
