G04 Layer_Color=8388736*
%FSLAX24Y24*%
%MOIN*%
G70*
G01*
G75*
%ADD24C,0.0100*%
%ADD57C,0.0400*%
D24*
X2550Y6004D02*
Y6404D01*
Y6204D01*
X3150D01*
X2750Y6704D02*
Y6904D01*
X2850Y7004D01*
X3150D01*
Y6704D01*
X3050Y6604D01*
X2950Y6704D01*
Y7004D01*
X2550Y7204D02*
X3150D01*
Y7503D01*
X3050Y7603D01*
X2950D01*
X2850D01*
X2750Y7503D01*
Y7204D01*
X2850Y7803D02*
Y8203D01*
X2750Y8403D02*
X3150D01*
X2950D01*
X2850Y8503D01*
X2750Y8603D01*
Y8703D01*
X3150Y9103D02*
Y9303D01*
X3050Y9403D01*
X2850D01*
X2750Y9303D01*
Y9103D01*
X2850Y9003D01*
X3050D01*
X3150Y9103D01*
X2750Y9603D02*
X3050D01*
X3150Y9703D01*
Y10003D01*
X2750D01*
X2650Y10303D02*
X2750D01*
Y10203D01*
Y10403D01*
Y10303D01*
X3050D01*
X3150Y10403D01*
Y11002D02*
Y10802D01*
X3050Y10702D01*
X2850D01*
X2750Y10802D01*
Y11002D01*
X2850Y11102D01*
X2950D01*
Y10702D01*
D57*
X17787Y11537D02*
X20087D01*
X3737Y5987D02*
Y6987D01*
Y8337D02*
Y9387D01*
X23837Y7437D02*
X28646D01*
X19187D02*
X22487D01*
X28628Y10037D02*
Y12037D01*
X28646Y7437D02*
Y9137D01*
X3737Y5387D02*
X4337D01*
X3737Y3437D02*
Y5387D01*
Y5987D02*
X4337D01*
X3737Y9387D02*
X4337D01*
X3737Y9987D02*
Y12037D01*
X4337Y5387D02*
Y5987D01*
Y9387D02*
Y9987D01*
X3737D02*
X4337D01*
X20087Y9887D02*
Y11537D01*
X17787Y9887D02*
X20087D01*
X17787D02*
Y11537D01*
X27337Y9137D02*
X28646D01*
X27337D02*
Y10037D01*
X28628D01*
X19187Y3437D02*
Y7437D01*
X44246Y11537D02*
X46546D01*
X30196Y5987D02*
Y6987D01*
Y8337D02*
Y9387D01*
X50296Y7437D02*
X55106D01*
X45646D02*
X48946D01*
X55087Y10037D02*
Y12037D01*
X55106Y7437D02*
Y9137D01*
X30196Y5387D02*
X30796D01*
X30196Y3437D02*
Y5387D01*
Y5987D02*
X30796D01*
X30196Y9387D02*
X30796D01*
X30196Y9987D02*
Y12037D01*
X30796Y5387D02*
Y5987D01*
Y9387D02*
Y9987D01*
X30196D02*
X30796D01*
X46546Y9887D02*
Y11537D01*
X44246Y9887D02*
X46546D01*
X44246D02*
Y11537D01*
X53796Y9137D02*
X55106D01*
X53796D02*
Y10037D01*
X55087D01*
X45646Y3437D02*
Y7437D01*
X17787Y19924D02*
X20087D01*
X3737Y14374D02*
Y15374D01*
Y16724D02*
Y17774D01*
X23837Y15824D02*
X28646D01*
X19187D02*
X22487D01*
X28628Y18424D02*
Y20424D01*
X28646Y15824D02*
Y17524D01*
X3737Y13774D02*
X4337D01*
X3737Y11824D02*
Y13774D01*
Y14374D02*
X4337D01*
X3737Y17774D02*
X4337D01*
X3737Y18374D02*
Y20424D01*
X4337Y13774D02*
Y14374D01*
Y17774D02*
Y18374D01*
X3737D02*
X4337D01*
X20087Y18274D02*
Y19924D01*
X17787Y18274D02*
X20087D01*
X17787D02*
Y19924D01*
X27337Y17524D02*
X28646D01*
X27337D02*
Y18424D01*
X28628D01*
X19187Y11824D02*
Y15824D01*
X44246Y19924D02*
X46546D01*
X30196Y14374D02*
Y15374D01*
Y16724D02*
Y17774D01*
X50296Y15824D02*
X55106D01*
X45646D02*
X48946D01*
X55087Y18424D02*
Y20424D01*
X55106Y15824D02*
Y17524D01*
X30196Y13774D02*
X30796D01*
X30196Y11824D02*
Y13774D01*
Y14374D02*
X30796D01*
X30196Y17774D02*
X30796D01*
X30196Y18374D02*
Y20424D01*
X30796Y13774D02*
Y14374D01*
Y17774D02*
Y18374D01*
X30196D02*
X30796D01*
X46546Y18274D02*
Y19924D01*
X44246Y18274D02*
X46546D01*
X44246D02*
Y19924D01*
X53796Y17524D02*
X55106D01*
X53796D02*
Y18424D01*
X55087D01*
X45646Y11824D02*
Y15824D01*
X17787Y28312D02*
X20087D01*
X3737Y22762D02*
Y23762D01*
Y25112D02*
Y26162D01*
X23837Y24212D02*
X28646D01*
X19187D02*
X22487D01*
X28628Y26812D02*
Y28812D01*
X28646Y24212D02*
Y25912D01*
X3737Y22162D02*
X4337D01*
X3737Y20212D02*
Y22162D01*
Y22762D02*
X4337D01*
X3737Y26162D02*
X4337D01*
X3737Y26762D02*
Y28812D01*
X4337Y22162D02*
Y22762D01*
Y26162D02*
Y26762D01*
X3737D02*
X4337D01*
X20087Y26662D02*
Y28312D01*
X17787Y26662D02*
X20087D01*
X17787D02*
Y28312D01*
X27337Y25912D02*
X28646D01*
X27337D02*
Y26812D01*
X28628D01*
X19187Y20212D02*
Y24212D01*
X44246Y28312D02*
X46546D01*
X30196Y22762D02*
Y23762D01*
Y25112D02*
Y26162D01*
X50296Y24212D02*
X55106D01*
X45646D02*
X48946D01*
X55087Y26812D02*
Y28812D01*
X55106Y24212D02*
Y25912D01*
X30196Y22162D02*
X30796D01*
X30196Y20212D02*
Y22162D01*
Y22762D02*
X30796D01*
X30196Y26162D02*
X30796D01*
X30196Y26762D02*
Y28812D01*
X30796Y22162D02*
Y22762D01*
Y26162D02*
Y26762D01*
X30196D02*
X30796D01*
X46546Y26662D02*
Y28312D01*
X44246Y26662D02*
X46546D01*
X44246D02*
Y28312D01*
X53796Y25912D02*
X55106D01*
X53796D02*
Y26812D01*
X55087D01*
X45646Y20212D02*
Y24212D01*
X17787Y36699D02*
X20087D01*
X3737Y31149D02*
Y32149D01*
Y33499D02*
Y34549D01*
X23837Y32599D02*
X28646D01*
X19187D02*
X22487D01*
X28628Y35199D02*
Y37199D01*
X28646Y32599D02*
Y34299D01*
X3737Y30549D02*
X4337D01*
X3737Y28599D02*
Y30549D01*
Y31149D02*
X4337D01*
X3737Y34549D02*
X4337D01*
X3737Y35149D02*
Y37199D01*
X4337Y30549D02*
Y31149D01*
Y34549D02*
Y35149D01*
X3737D02*
X4337D01*
X20087Y35049D02*
Y36699D01*
X17787Y35049D02*
X20087D01*
X17787D02*
Y36699D01*
X27337Y34299D02*
X28646D01*
X27337D02*
Y35199D01*
X28628D01*
X19187Y28599D02*
Y32599D01*
X44246Y36699D02*
X46546D01*
X30196Y31149D02*
Y32149D01*
Y33499D02*
Y34549D01*
X50296Y32599D02*
X55106D01*
X45646D02*
X48946D01*
X55087Y35199D02*
Y37199D01*
X55106Y32599D02*
Y34299D01*
X30196Y30549D02*
X30796D01*
X30196Y28599D02*
Y30549D01*
Y31149D02*
X30796D01*
X30196Y34549D02*
X30796D01*
X30196Y35149D02*
Y37199D01*
X30796Y30549D02*
Y31149D01*
Y34549D02*
Y35149D01*
X30196D02*
X30796D01*
X46546Y35049D02*
Y36699D01*
X44246Y35049D02*
X46546D01*
X44246D02*
Y36699D01*
X53796Y34299D02*
X55106D01*
X53796D02*
Y35199D01*
X55087D01*
X45646Y28599D02*
Y32599D01*
X17787Y45087D02*
X20087D01*
X3737Y39537D02*
Y40537D01*
Y41887D02*
Y42937D01*
X23837Y40987D02*
X28646D01*
X19187D02*
X22487D01*
X28628Y43587D02*
Y45587D01*
X28646Y40987D02*
Y42687D01*
X3737Y38937D02*
X4337D01*
X3737Y36987D02*
Y38937D01*
Y39537D02*
X4337D01*
X3737Y42937D02*
X4337D01*
X3737Y43537D02*
Y45587D01*
X4337Y38937D02*
Y39537D01*
Y42937D02*
Y43537D01*
X3737D02*
X4337D01*
X20087Y43437D02*
Y45087D01*
X17787Y43437D02*
X20087D01*
X17787D02*
Y45087D01*
X27337Y42687D02*
X28646D01*
X27337D02*
Y43587D01*
X28628D01*
X19187Y36987D02*
Y40987D01*
X44246Y45087D02*
X46546D01*
X30196Y39537D02*
Y40537D01*
Y41887D02*
Y42937D01*
X50296Y40987D02*
X55106D01*
X45646D02*
X48946D01*
X55087Y43587D02*
Y45587D01*
X55106Y40987D02*
Y42687D01*
X30196Y38937D02*
X30796D01*
X30196Y36987D02*
Y38937D01*
Y39537D02*
X30796D01*
X30196Y42937D02*
X30796D01*
X30196Y43537D02*
Y45587D01*
X30796Y38937D02*
Y39537D01*
Y42937D02*
Y43537D01*
X30196D02*
X30796D01*
X46546Y43437D02*
Y45087D01*
X44246Y43437D02*
X46546D01*
X44246D02*
Y45087D01*
X53796Y42687D02*
X55106D01*
X53796D02*
Y43587D01*
X55087D01*
X45646Y36987D02*
Y40987D01*
X17787Y53474D02*
X20087D01*
X3737Y47924D02*
Y48924D01*
Y50274D02*
Y51324D01*
X23837Y49374D02*
X28646D01*
X19187D02*
X22487D01*
X28628Y51974D02*
Y53974D01*
X28646Y49374D02*
Y51074D01*
X3737Y47324D02*
X4337D01*
X3737Y45374D02*
Y47324D01*
Y47924D02*
X4337D01*
X3737Y51324D02*
X4337D01*
X3737Y51924D02*
Y53974D01*
X4337Y47324D02*
Y47924D01*
Y51324D02*
Y51924D01*
X3737D02*
X4337D01*
X20087Y51824D02*
Y53474D01*
X17787Y51824D02*
X20087D01*
X17787D02*
Y53474D01*
X27337Y51074D02*
X28646D01*
X27337D02*
Y51974D01*
X28628D01*
X19187Y45374D02*
Y49374D01*
X44246Y53474D02*
X46546D01*
X30196Y47924D02*
Y48924D01*
Y50274D02*
Y51324D01*
X50296Y49374D02*
X55106D01*
X45646D02*
X48946D01*
X55087Y51974D02*
Y53974D01*
X55106Y49374D02*
Y51074D01*
X30196Y47324D02*
X30796D01*
X30196Y45374D02*
Y47324D01*
Y47924D02*
X30796D01*
X30196Y51324D02*
X30796D01*
X30196Y51924D02*
Y53974D01*
X30796Y47324D02*
Y47924D01*
Y51324D02*
Y51924D01*
X30196D02*
X30796D01*
X46546Y51824D02*
Y53474D01*
X44246Y51824D02*
X46546D01*
X44246D02*
Y53474D01*
X53796Y51074D02*
X55106D01*
X53796D02*
Y51974D01*
X55087D01*
X45646Y45374D02*
Y49374D01*
M02*
