G04 Layer_Color=65535*
%FSLAX24Y24*%
%MOIN*%
G70*
G01*
G75*
%ADD31C,0.0280*%
%ADD32C,0.0118*%
%ADD33C,0.0098*%
%ADD34C,0.0050*%
%ADD35C,0.0039*%
%ADD36C,0.0079*%
G36*
X45868Y50816D02*
X45796D01*
Y50532D01*
X45868D01*
Y50344D01*
X45515D01*
Y50532D01*
X45587D01*
Y50702D01*
X45409Y50457D01*
X45397D01*
X45222Y50702D01*
Y50532D01*
X45294D01*
Y50344D01*
X44941D01*
Y50532D01*
X45010D01*
Y50816D01*
X44941D01*
Y51004D01*
X45220D01*
X45400Y50756D01*
X45409D01*
X45588Y51004D01*
X45868D01*
Y50816D01*
D02*
G37*
G36*
X19409D02*
X19337D01*
Y50532D01*
X19409D01*
Y50344D01*
X19056D01*
Y50532D01*
X19128D01*
Y50702D01*
X18950Y50457D01*
X18938D01*
X18763Y50702D01*
Y50532D01*
X18835D01*
Y50344D01*
X18482D01*
Y50532D01*
X18551D01*
Y50816D01*
X18482D01*
Y51004D01*
X18761D01*
X18941Y50756D01*
X18950D01*
X19129Y51004D01*
X19409D01*
Y50816D01*
D02*
G37*
G36*
X45868Y42429D02*
X45796D01*
Y42145D01*
X45868D01*
Y41956D01*
X45515D01*
Y42145D01*
X45587D01*
Y42315D01*
X45409Y42070D01*
X45397D01*
X45222Y42315D01*
Y42145D01*
X45294D01*
Y41956D01*
X44941D01*
Y42145D01*
X45010D01*
Y42429D01*
X44941D01*
Y42617D01*
X45220D01*
X45400Y42369D01*
X45409D01*
X45588Y42617D01*
X45868D01*
Y42429D01*
D02*
G37*
G36*
X19409D02*
X19337D01*
Y42145D01*
X19409D01*
Y41956D01*
X19056D01*
Y42145D01*
X19128D01*
Y42315D01*
X18950Y42070D01*
X18938D01*
X18763Y42315D01*
Y42145D01*
X18835D01*
Y41956D01*
X18482D01*
Y42145D01*
X18551D01*
Y42429D01*
X18482D01*
Y42617D01*
X18761D01*
X18941Y42369D01*
X18950D01*
X19129Y42617D01*
X19409D01*
Y42429D01*
D02*
G37*
G36*
X45868Y34041D02*
X45796D01*
Y33757D01*
X45868D01*
Y33569D01*
X45515D01*
Y33757D01*
X45587D01*
Y33928D01*
X45409Y33682D01*
X45397D01*
X45222Y33928D01*
Y33757D01*
X45294D01*
Y33569D01*
X44941D01*
Y33757D01*
X45010D01*
Y34041D01*
X44941D01*
Y34230D01*
X45220D01*
X45400Y33981D01*
X45409D01*
X45588Y34230D01*
X45868D01*
Y34041D01*
D02*
G37*
G36*
X19409D02*
X19337D01*
Y33757D01*
X19409D01*
Y33569D01*
X19056D01*
Y33757D01*
X19128D01*
Y33928D01*
X18950Y33682D01*
X18938D01*
X18763Y33928D01*
Y33757D01*
X18835D01*
Y33569D01*
X18482D01*
Y33757D01*
X18551D01*
Y34041D01*
X18482D01*
Y34230D01*
X18761D01*
X18941Y33981D01*
X18950D01*
X19129Y34230D01*
X19409D01*
Y34041D01*
D02*
G37*
G36*
X45868Y25654D02*
X45796D01*
Y25370D01*
X45868D01*
Y25181D01*
X45515D01*
Y25370D01*
X45587D01*
Y25540D01*
X45409Y25295D01*
X45397D01*
X45222Y25540D01*
Y25370D01*
X45294D01*
Y25181D01*
X44941D01*
Y25370D01*
X45010D01*
Y25654D01*
X44941D01*
Y25842D01*
X45220D01*
X45400Y25594D01*
X45409D01*
X45588Y25842D01*
X45868D01*
Y25654D01*
D02*
G37*
G36*
X19409D02*
X19337D01*
Y25370D01*
X19409D01*
Y25181D01*
X19056D01*
Y25370D01*
X19128D01*
Y25540D01*
X18950Y25295D01*
X18938D01*
X18763Y25540D01*
Y25370D01*
X18835D01*
Y25181D01*
X18482D01*
Y25370D01*
X18551D01*
Y25654D01*
X18482D01*
Y25842D01*
X18761D01*
X18941Y25594D01*
X18950D01*
X19129Y25842D01*
X19409D01*
Y25654D01*
D02*
G37*
G36*
X45868Y17266D02*
X45796D01*
Y16982D01*
X45868D01*
Y16794D01*
X45515D01*
Y16982D01*
X45587D01*
Y17153D01*
X45409Y16908D01*
X45397D01*
X45222Y17153D01*
Y16982D01*
X45294D01*
Y16794D01*
X44941D01*
Y16982D01*
X45010D01*
Y17266D01*
X44941D01*
Y17455D01*
X45220D01*
X45400Y17207D01*
X45409D01*
X45588Y17455D01*
X45868D01*
Y17266D01*
D02*
G37*
G36*
X19409D02*
X19337D01*
Y16982D01*
X19409D01*
Y16794D01*
X19056D01*
Y16982D01*
X19128D01*
Y17153D01*
X18950Y16908D01*
X18938D01*
X18763Y17153D01*
Y16982D01*
X18835D01*
Y16794D01*
X18482D01*
Y16982D01*
X18551D01*
Y17266D01*
X18482D01*
Y17455D01*
X18761D01*
X18941Y17207D01*
X18950D01*
X19129Y17455D01*
X19409D01*
Y17266D01*
D02*
G37*
G36*
X45868Y8879D02*
X45796D01*
Y8595D01*
X45868D01*
Y8407D01*
X45515D01*
Y8595D01*
X45587D01*
Y8765D01*
X45409Y8520D01*
X45397D01*
X45222Y8765D01*
Y8595D01*
X45294D01*
Y8407D01*
X44941D01*
Y8595D01*
X45010D01*
Y8879D01*
X44941D01*
Y9067D01*
X45220D01*
X45400Y8819D01*
X45409D01*
X45588Y9067D01*
X45868D01*
Y8879D01*
D02*
G37*
G36*
X19409D02*
X19337D01*
Y8595D01*
X19409D01*
Y8407D01*
X19056D01*
Y8595D01*
X19128D01*
Y8765D01*
X18950Y8520D01*
X18938D01*
X18763Y8765D01*
Y8595D01*
X18835D01*
Y8407D01*
X18482D01*
Y8595D01*
X18551D01*
Y8879D01*
X18482D01*
Y9067D01*
X18761D01*
X18941Y8819D01*
X18950D01*
X19129Y9067D01*
X19409D01*
Y8879D01*
D02*
G37*
D31*
X22077Y10137D02*
G03*
X22077Y10137I-640J0D01*
G01*
X11127Y5237D02*
G03*
X11127Y5237I-640J0D01*
G01*
X48536Y10137D02*
G03*
X48536Y10137I-640J0D01*
G01*
X37586Y5237D02*
G03*
X37586Y5237I-640J0D01*
G01*
X22077Y18524D02*
G03*
X22077Y18524I-640J0D01*
G01*
X11127Y13624D02*
G03*
X11127Y13624I-640J0D01*
G01*
X48536Y18524D02*
G03*
X48536Y18524I-640J0D01*
G01*
X37586Y13624D02*
G03*
X37586Y13624I-640J0D01*
G01*
X22077Y26912D02*
G03*
X22077Y26912I-640J0D01*
G01*
X11127Y22012D02*
G03*
X11127Y22012I-640J0D01*
G01*
X48536Y26912D02*
G03*
X48536Y26912I-640J0D01*
G01*
X37586Y22012D02*
G03*
X37586Y22012I-640J0D01*
G01*
X22077Y35299D02*
G03*
X22077Y35299I-640J0D01*
G01*
X11127Y30399D02*
G03*
X11127Y30399I-640J0D01*
G01*
X48536Y35299D02*
G03*
X48536Y35299I-640J0D01*
G01*
X37586Y30399D02*
G03*
X37586Y30399I-640J0D01*
G01*
X22077Y43687D02*
G03*
X22077Y43687I-640J0D01*
G01*
X11127Y38787D02*
G03*
X11127Y38787I-640J0D01*
G01*
X48536Y43687D02*
G03*
X48536Y43687I-640J0D01*
G01*
X37586Y38787D02*
G03*
X37586Y38787I-640J0D01*
G01*
X22077Y52074D02*
G03*
X22077Y52074I-640J0D01*
G01*
X11127Y47174D02*
G03*
X11127Y47174I-640J0D01*
G01*
X48536Y52074D02*
G03*
X48536Y52074I-640J0D01*
G01*
X37586Y47174D02*
G03*
X37586Y47174I-640J0D01*
G01*
D32*
X15681Y8170D02*
G03*
X15681Y8170I-59J0D01*
G01*
X42140D02*
G03*
X42140Y8170I-59J0D01*
G01*
X15681Y16557D02*
G03*
X15681Y16557I-59J0D01*
G01*
X42140D02*
G03*
X42140Y16557I-59J0D01*
G01*
X15681Y24945D02*
G03*
X15681Y24945I-59J0D01*
G01*
X42140D02*
G03*
X42140Y24945I-59J0D01*
G01*
X15681Y33332D02*
G03*
X15681Y33332I-59J0D01*
G01*
X42140D02*
G03*
X42140Y33332I-59J0D01*
G01*
X15681Y41720D02*
G03*
X15681Y41720I-59J0D01*
G01*
X42140D02*
G03*
X42140Y41720I-59J0D01*
G01*
X15681Y50107D02*
G03*
X15681Y50107I-59J0D01*
G01*
X42140D02*
G03*
X42140Y50107I-59J0D01*
G01*
D33*
X8864Y8344D02*
G03*
X8864Y8344I-49J0D01*
G01*
X35323D02*
G03*
X35323Y8344I-49J0D01*
G01*
X8864Y16731D02*
G03*
X8864Y16731I-49J0D01*
G01*
X35323D02*
G03*
X35323Y16731I-49J0D01*
G01*
X8864Y25119D02*
G03*
X8864Y25119I-49J0D01*
G01*
X35323D02*
G03*
X35323Y25119I-49J0D01*
G01*
X8864Y33506D02*
G03*
X8864Y33506I-49J0D01*
G01*
X35323D02*
G03*
X35323Y33506I-49J0D01*
G01*
X8864Y41894D02*
G03*
X8864Y41894I-49J0D01*
G01*
X35323D02*
G03*
X35323Y41894I-49J0D01*
G01*
X8864Y50281D02*
G03*
X8864Y50281I-49J0D01*
G01*
X35323D02*
G03*
X35323Y50281I-49J0D01*
G01*
D34*
X8671Y4703D02*
Y6671D01*
X8474Y4703D02*
X8671D01*
X8474Y6671D02*
X8671D01*
X7135D02*
X8494D01*
X5679D02*
X6191D01*
X4537D02*
X4734D01*
X4537Y6474D02*
Y6671D01*
X3946Y6474D02*
X4537D01*
X3946Y4900D02*
Y6474D01*
Y4900D02*
X4537D01*
Y4703D02*
Y4900D01*
Y4703D02*
X4734D01*
X5679D02*
X6191D01*
X7135D02*
X8474D01*
X8671Y8703D02*
Y10671D01*
X8474Y8703D02*
X8671D01*
X8474Y10671D02*
X8671D01*
X7135D02*
X8494D01*
X5679D02*
X6191D01*
X4537D02*
X4734D01*
X4537Y10474D02*
Y10671D01*
X3946Y10474D02*
X4537D01*
X3946Y8900D02*
Y10474D01*
Y8900D02*
X4537D01*
Y8703D02*
Y8900D01*
Y8703D02*
X4734D01*
X5679D02*
X6191D01*
X7135D02*
X8474D01*
X22866Y8347D02*
X27591D01*
X22866D02*
Y10827D01*
X27591D01*
Y10256D02*
Y10827D01*
X27118Y10256D02*
X27591D01*
X27118Y8918D02*
Y10256D01*
Y8918D02*
X27591D01*
Y8347D02*
Y8918D01*
X11730Y7347D02*
Y7504D01*
X14644D01*
Y7347D02*
Y7504D01*
X11730Y4670D02*
Y4827D01*
Y4670D02*
X14644D01*
Y4827D01*
X13187Y5693D02*
Y6284D01*
X13069Y6087D02*
X13187Y6284D01*
X13305Y6087D01*
X15530Y7347D02*
Y7504D01*
X18444D01*
Y7347D02*
Y7504D01*
X15530Y4670D02*
Y4827D01*
Y4670D02*
X18444D01*
Y4827D01*
X16987Y5693D02*
Y6284D01*
X16869Y6087D02*
X16987Y6284D01*
X17105Y6087D01*
X11730Y10597D02*
Y10754D01*
X14644D01*
Y10597D02*
Y10754D01*
X11730Y7920D02*
Y8077D01*
Y7920D02*
X14644D01*
Y8077D01*
X13187Y8943D02*
Y9534D01*
X13069Y9337D02*
X13187Y9534D01*
X13305Y9337D01*
X16429Y9538D02*
X16488D01*
X15386Y8436D02*
X15445D01*
X16429D02*
X16488D01*
Y9538D01*
X15386D02*
X15445D01*
X15386Y8436D02*
Y9538D01*
X17937Y8237D02*
Y7937D01*
X17837Y8237D02*
X18037D01*
X18073Y8137D02*
Y7937D01*
Y8051D02*
X18087Y8094D01*
X18116Y8123D01*
X18144Y8137D01*
X18187D01*
X18243Y8237D02*
X18257Y8223D01*
X18271Y8237D01*
X18257Y8251D01*
X18243Y8237D01*
X18257Y8137D02*
Y7937D01*
X18324Y8137D02*
Y7994D01*
X18338Y7951D01*
X18367Y7937D01*
X18410D01*
X18438Y7951D01*
X18481Y7994D01*
Y8137D02*
Y7937D01*
X18560Y8137D02*
Y7937D01*
Y8080D02*
X18603Y8123D01*
X18631Y8137D01*
X18674D01*
X18703Y8123D01*
X18717Y8080D01*
Y7937D01*
Y8080D02*
X18760Y8123D01*
X18788Y8137D01*
X18831D01*
X18860Y8123D01*
X18874Y8080D01*
Y7937D01*
X18968Y8137D02*
X19054Y7937D01*
X19140Y8137D02*
X19054Y7937D01*
X19217Y8237D02*
X19231Y8223D01*
X19245Y8237D01*
X19231Y8251D01*
X19217Y8237D01*
X19231Y8137D02*
Y7937D01*
X19534Y8237D02*
X19648Y7937D01*
X19762Y8237D02*
X19648Y7937D01*
X19801Y8180D02*
X19829Y8194D01*
X19872Y8237D01*
Y7937D01*
X20035Y8166D02*
Y8180D01*
X20049Y8208D01*
X20064Y8223D01*
X20092Y8237D01*
X20149D01*
X20178Y8223D01*
X20192Y8208D01*
X20206Y8180D01*
Y8151D01*
X20192Y8123D01*
X20164Y8080D01*
X20021Y7937D01*
X20221D01*
X8037Y7737D02*
X8087Y7787D01*
Y7887D01*
X8037Y7937D01*
X7837D01*
X7787Y7887D01*
Y7787D01*
X7837Y7737D01*
X7787Y7637D02*
Y7537D01*
Y7587D01*
X8087D01*
X8037Y7637D01*
X16787Y8837D02*
Y8537D01*
X16937D01*
X16987Y8587D01*
Y8787D01*
X16937Y8837D01*
X16787D01*
X17087Y8537D02*
X17187D01*
X17137D01*
Y8837D01*
X17087Y8787D01*
X10387Y9437D02*
Y9737D01*
X10537D01*
X10587Y9687D01*
Y9587D01*
X10537Y9537D01*
X10387D01*
X10487D02*
X10587Y9437D01*
X10687D02*
X10787D01*
X10737D01*
Y9737D01*
X10687Y9687D01*
X15587Y10637D02*
X15287D01*
Y10787D01*
X15337Y10837D01*
X15437D01*
X15487Y10787D01*
Y10637D01*
Y10737D02*
X15587Y10837D01*
Y11137D02*
Y10937D01*
X15387Y11137D01*
X15337D01*
X15287Y11087D01*
Y10987D01*
X15337Y10937D01*
X15987Y10637D02*
X15687D01*
Y10787D01*
X15737Y10837D01*
X15837D01*
X15887Y10787D01*
Y10637D01*
Y10737D02*
X15987Y10837D01*
X15737Y10937D02*
X15687Y10987D01*
Y11087D01*
X15737Y11137D01*
X15787D01*
X15837Y11087D01*
Y11037D01*
Y11087D01*
X15887Y11137D01*
X15937D01*
X15987Y11087D01*
Y10987D01*
X15937Y10937D01*
X16387Y10637D02*
X16087D01*
Y10787D01*
X16137Y10837D01*
X16237D01*
X16287Y10787D01*
Y10637D01*
Y10737D02*
X16387Y10837D01*
Y11087D02*
X16087D01*
X16237Y10937D01*
Y11137D01*
X10237Y9537D02*
X9937D01*
Y9687D01*
X9987Y9737D01*
X10087D01*
X10137Y9687D01*
Y9537D01*
Y9637D02*
X10237Y9737D01*
X9937Y10037D02*
Y9837D01*
X10087D01*
X10037Y9937D01*
Y9987D01*
X10087Y10037D01*
X10187D01*
X10237Y9987D01*
Y9887D01*
X10187Y9837D01*
X9837Y9537D02*
X9537D01*
Y9687D01*
X9587Y9737D01*
X9687D01*
X9737Y9687D01*
Y9537D01*
Y9637D02*
X9837Y9737D01*
X9537Y10037D02*
X9587Y9937D01*
X9687Y9837D01*
X9787D01*
X9837Y9887D01*
Y9987D01*
X9787Y10037D01*
X9737D01*
X9687Y9987D01*
Y9837D01*
X10937Y8837D02*
Y9137D01*
X11087D01*
X11137Y9087D01*
Y8987D01*
X11087Y8937D01*
X10937D01*
X11037D02*
X11137Y8837D01*
X11237Y9137D02*
X11437D01*
Y9087D01*
X11237Y8887D01*
Y8837D01*
X12987Y11137D02*
X12937Y11187D01*
X12837D01*
X12787Y11137D01*
Y11087D01*
X12837Y11037D01*
X12937D01*
X12987Y10987D01*
Y10937D01*
X12937Y10887D01*
X12837D01*
X12787Y10937D01*
X13087Y11187D02*
Y10887D01*
X13187Y10987D01*
X13287Y10887D01*
Y11187D01*
X13387Y10887D02*
X13487D01*
X13437D01*
Y11187D01*
X13387Y11137D01*
X12987Y4487D02*
X12937Y4537D01*
X12837D01*
X12787Y4487D01*
Y4437D01*
X12837Y4387D01*
X12937D01*
X12987Y4337D01*
Y4287D01*
X12937Y4237D01*
X12837D01*
X12787Y4287D01*
X13087Y4537D02*
Y4237D01*
X13187Y4337D01*
X13287Y4237D01*
Y4537D01*
X13587Y4237D02*
X13387D01*
X13587Y4437D01*
Y4487D01*
X13537Y4537D01*
X13437D01*
X13387Y4487D01*
X16737D02*
X16687Y4537D01*
X16587D01*
X16537Y4487D01*
Y4437D01*
X16587Y4387D01*
X16687D01*
X16737Y4337D01*
Y4287D01*
X16687Y4237D01*
X16587D01*
X16537Y4287D01*
X16837Y4537D02*
Y4237D01*
X16937Y4337D01*
X17037Y4237D01*
Y4537D01*
X17137Y4487D02*
X17187Y4537D01*
X17287D01*
X17337Y4487D01*
Y4437D01*
X17287Y4387D01*
X17237D01*
X17287D01*
X17337Y4337D01*
Y4287D01*
X17287Y4237D01*
X17187D01*
X17137Y4287D01*
X8737Y8987D02*
Y8737D01*
X8787Y8687D01*
X8887D01*
X8937Y8737D01*
Y8987D01*
X9037Y8687D02*
X9137D01*
X9087D01*
Y8987D01*
X9037Y8937D01*
X27387Y11237D02*
X27337Y11287D01*
X27237D01*
X27187Y11237D01*
Y11037D01*
X27237Y10987D01*
X27337D01*
X27387Y11037D01*
Y11137D01*
X27287D01*
X27487Y10987D02*
Y11287D01*
X27687Y10987D01*
Y11287D01*
X27787D02*
Y10987D01*
X27937D01*
X27987Y11037D01*
Y11237D01*
X27937Y11287D01*
X27787D01*
X23837D02*
Y10987D01*
X23937Y11087D01*
X24037Y10987D01*
Y11287D01*
X24137Y10987D02*
Y11187D01*
X24237Y11287D01*
X24337Y11187D01*
Y10987D01*
Y11137D01*
X24137D01*
X24437Y11287D02*
Y11087D01*
X24537Y10987D01*
X24637Y11087D01*
Y11287D01*
X24937D02*
X24737D01*
Y10987D01*
X24937D01*
X24737Y11137D02*
X24837D01*
X25487Y8187D02*
X25437Y8237D01*
X25337D01*
X25287Y8187D01*
Y8137D01*
X25337Y8087D01*
X25437D01*
X25487Y8037D01*
Y7987D01*
X25437Y7937D01*
X25337D01*
X25287Y7987D01*
X25787Y8237D02*
X25587D01*
Y7937D01*
X25787D01*
X25587Y8087D02*
X25687D01*
X25887Y8237D02*
Y7937D01*
X26087D01*
X6287Y8137D02*
Y7837D01*
X6487D01*
X6587D02*
Y8137D01*
X6737D01*
X6787Y8087D01*
Y7987D01*
X6737Y7937D01*
X6587D01*
X6887Y8137D02*
Y7837D01*
Y7937D01*
X7087Y8137D01*
X6937Y7987D01*
X7087Y7837D01*
X4687Y7787D02*
Y8087D01*
X4837D01*
X4887Y8037D01*
Y7937D01*
X4837Y7887D01*
X4687D01*
X4787D02*
X4887Y7787D01*
X4987Y8087D02*
Y7787D01*
X5137D01*
X5187Y7837D01*
Y8037D01*
X5137Y8087D01*
X4987D01*
X5287D02*
Y8037D01*
X5387Y7937D01*
X5487Y8037D01*
Y8087D01*
X5387Y7937D02*
Y7787D01*
X5587D02*
Y7987D01*
X5737D01*
X5787Y7937D01*
Y7787D01*
X4987Y7537D02*
X4937Y7587D01*
X4837D01*
X4787Y7537D01*
Y7337D01*
X4837Y7287D01*
X4937D01*
X4987Y7337D01*
Y7437D01*
X4887D01*
X5087Y7287D02*
Y7587D01*
X5287Y7287D01*
Y7587D01*
X5387D02*
Y7287D01*
X5537D01*
X5587Y7337D01*
Y7537D01*
X5537Y7587D01*
X5387D01*
X6187Y7537D02*
Y7337D01*
X6287Y7237D01*
X6387Y7337D01*
Y7537D01*
X6687Y7487D02*
X6637Y7537D01*
X6537D01*
X6487Y7487D01*
Y7287D01*
X6537Y7237D01*
X6637D01*
X6687Y7287D01*
X6787Y7237D02*
Y7437D01*
X6887Y7537D01*
X6987Y7437D01*
Y7237D01*
Y7387D01*
X6787D01*
X7087Y7237D02*
Y7537D01*
X7237D01*
X7287Y7487D01*
Y7387D01*
X7237Y7337D01*
X7087D01*
X21437Y11337D02*
X21387Y11387D01*
X21287D01*
X21237Y11337D01*
Y11137D01*
X21287Y11087D01*
X21387D01*
X21437Y11137D01*
Y11237D01*
X21337D01*
X21537Y11087D02*
Y11387D01*
X21737Y11087D01*
Y11387D01*
X21837D02*
Y11087D01*
X21987D01*
X22037Y11137D01*
Y11337D01*
X21987Y11387D01*
X21837D01*
X21337Y8337D02*
Y8037D01*
X21487D01*
X21537Y8087D01*
Y8137D01*
X21487Y8187D01*
X21337D01*
X21487D01*
X21537Y8237D01*
Y8287D01*
X21487Y8337D01*
X21337D01*
X21637Y8037D02*
Y8237D01*
X21737Y8337D01*
X21837Y8237D01*
Y8037D01*
Y8187D01*
X21637D01*
X21937Y8337D02*
X22137D01*
X22037D01*
Y8037D01*
X13069Y7164D02*
X13119Y7214D01*
X13219D01*
X13269Y7164D01*
Y6964D01*
X13219Y6914D01*
X13119D01*
X13069Y6964D01*
Y7164D01*
X13066Y4960D02*
X13266D01*
Y5110D01*
X13166Y5060D01*
X13116D01*
X13066Y5110D01*
Y5210D01*
X13116Y5260D01*
X13216D01*
X13266Y5210D01*
X16869Y7164D02*
X16919Y7214D01*
X17019D01*
X17069Y7164D01*
Y6964D01*
X17019Y6914D01*
X16919D01*
X16869Y6964D01*
Y7164D01*
X16866Y4960D02*
X17066D01*
Y5110D01*
X16966Y5060D01*
X16916D01*
X16866Y5110D01*
Y5210D01*
X16916Y5260D01*
X17016D01*
X17066Y5210D01*
X13069Y10414D02*
X13119Y10464D01*
X13219D01*
X13269Y10414D01*
Y10214D01*
X13219Y10164D01*
X13119D01*
X13069Y10214D01*
Y10414D01*
X13266Y8260D02*
X13216Y8210D01*
X13116D01*
X13066Y8260D01*
Y8310D01*
X13116Y8360D01*
X13066Y8410D01*
Y8460D01*
X13116Y8510D01*
X13216D01*
X13266Y8460D01*
Y8410D01*
X13216Y8360D01*
X13266Y8310D01*
Y8260D01*
X13216Y8360D02*
X13116D01*
X35130Y4703D02*
Y6671D01*
X34933Y4703D02*
X35130D01*
X34933Y6671D02*
X35130D01*
X33594D02*
X34953D01*
X32138D02*
X32650D01*
X30996D02*
X31193D01*
X30996Y6474D02*
Y6671D01*
X30406Y6474D02*
X30996D01*
X30406Y4900D02*
Y6474D01*
Y4900D02*
X30996D01*
Y4703D02*
Y4900D01*
Y4703D02*
X31193D01*
X32138D02*
X32650D01*
X33594D02*
X34933D01*
X35130Y8703D02*
Y10671D01*
X34933Y8703D02*
X35130D01*
X34933Y10671D02*
X35130D01*
X33594D02*
X34953D01*
X32138D02*
X32650D01*
X30996D02*
X31193D01*
X30996Y10474D02*
Y10671D01*
X30406Y10474D02*
X30996D01*
X30406Y8900D02*
Y10474D01*
Y8900D02*
X30996D01*
Y8703D02*
Y8900D01*
Y8703D02*
X31193D01*
X32138D02*
X32650D01*
X33594D02*
X34933D01*
X49325Y8347D02*
X54050D01*
X49325D02*
Y10827D01*
X54050D01*
Y10256D02*
Y10827D01*
X53577Y10256D02*
X54050D01*
X53577Y8918D02*
Y10256D01*
Y8918D02*
X54050D01*
Y8347D02*
Y8918D01*
X38189Y7347D02*
Y7504D01*
X41103D01*
Y7347D02*
Y7504D01*
X38189Y4670D02*
Y4827D01*
Y4670D02*
X41103D01*
Y4827D01*
X39646Y5693D02*
Y6284D01*
X39528Y6087D02*
X39646Y6284D01*
X39764Y6087D01*
X41989Y7347D02*
Y7504D01*
X44903D01*
Y7347D02*
Y7504D01*
X41989Y4670D02*
Y4827D01*
Y4670D02*
X44903D01*
Y4827D01*
X43446Y5693D02*
Y6284D01*
X43328Y6087D02*
X43446Y6284D01*
X43564Y6087D01*
X38189Y10597D02*
Y10754D01*
X41103D01*
Y10597D02*
Y10754D01*
X38189Y7920D02*
Y8077D01*
Y7920D02*
X41103D01*
Y8077D01*
X39646Y8943D02*
Y9534D01*
X39528Y9337D02*
X39646Y9534D01*
X39764Y9337D01*
X42888Y9538D02*
X42947D01*
X41845Y8436D02*
X41904D01*
X42888D02*
X42947D01*
Y9538D01*
X41845D02*
X41904D01*
X41845Y8436D02*
Y9538D01*
X44396Y8237D02*
Y7937D01*
X44296Y8237D02*
X44496D01*
X44532Y8137D02*
Y7937D01*
Y8051D02*
X44546Y8094D01*
X44575Y8123D01*
X44603Y8137D01*
X44646D01*
X44702Y8237D02*
X44716Y8223D01*
X44730Y8237D01*
X44716Y8251D01*
X44702Y8237D01*
X44716Y8137D02*
Y7937D01*
X44783Y8137D02*
Y7994D01*
X44797Y7951D01*
X44826Y7937D01*
X44869D01*
X44897Y7951D01*
X44940Y7994D01*
Y8137D02*
Y7937D01*
X45019Y8137D02*
Y7937D01*
Y8080D02*
X45062Y8123D01*
X45090Y8137D01*
X45133D01*
X45162Y8123D01*
X45176Y8080D01*
Y7937D01*
Y8080D02*
X45219Y8123D01*
X45247Y8137D01*
X45290D01*
X45319Y8123D01*
X45333Y8080D01*
Y7937D01*
X45427Y8137D02*
X45513Y7937D01*
X45599Y8137D02*
X45513Y7937D01*
X45676Y8237D02*
X45690Y8223D01*
X45704Y8237D01*
X45690Y8251D01*
X45676Y8237D01*
X45690Y8137D02*
Y7937D01*
X45993Y8237D02*
X46107Y7937D01*
X46221Y8237D02*
X46107Y7937D01*
X46260Y8180D02*
X46288Y8194D01*
X46331Y8237D01*
Y7937D01*
X46494Y8166D02*
Y8180D01*
X46508Y8208D01*
X46523Y8223D01*
X46551Y8237D01*
X46608D01*
X46637Y8223D01*
X46651Y8208D01*
X46666Y8180D01*
Y8151D01*
X46651Y8123D01*
X46623Y8080D01*
X46480Y7937D01*
X46680D01*
X34496Y7737D02*
X34546Y7787D01*
Y7887D01*
X34496Y7937D01*
X34296D01*
X34246Y7887D01*
Y7787D01*
X34296Y7737D01*
X34246Y7637D02*
Y7537D01*
Y7587D01*
X34546D01*
X34496Y7637D01*
X43246Y8837D02*
Y8537D01*
X43396D01*
X43446Y8587D01*
Y8787D01*
X43396Y8837D01*
X43246D01*
X43546Y8537D02*
X43646D01*
X43596D01*
Y8837D01*
X43546Y8787D01*
X36846Y9437D02*
Y9737D01*
X36996D01*
X37046Y9687D01*
Y9587D01*
X36996Y9537D01*
X36846D01*
X36946D02*
X37046Y9437D01*
X37146D02*
X37246D01*
X37196D01*
Y9737D01*
X37146Y9687D01*
X42046Y10637D02*
X41746D01*
Y10787D01*
X41796Y10837D01*
X41896D01*
X41946Y10787D01*
Y10637D01*
Y10737D02*
X42046Y10837D01*
Y11137D02*
Y10937D01*
X41846Y11137D01*
X41796D01*
X41746Y11087D01*
Y10987D01*
X41796Y10937D01*
X42446Y10637D02*
X42146D01*
Y10787D01*
X42196Y10837D01*
X42296D01*
X42346Y10787D01*
Y10637D01*
Y10737D02*
X42446Y10837D01*
X42196Y10937D02*
X42146Y10987D01*
Y11087D01*
X42196Y11137D01*
X42246D01*
X42296Y11087D01*
Y11037D01*
Y11087D01*
X42346Y11137D01*
X42396D01*
X42446Y11087D01*
Y10987D01*
X42396Y10937D01*
X42846Y10637D02*
X42546D01*
Y10787D01*
X42596Y10837D01*
X42696D01*
X42746Y10787D01*
Y10637D01*
Y10737D02*
X42846Y10837D01*
Y11087D02*
X42546D01*
X42696Y10937D01*
Y11137D01*
X36696Y9537D02*
X36396D01*
Y9687D01*
X36446Y9737D01*
X36546D01*
X36596Y9687D01*
Y9537D01*
Y9637D02*
X36696Y9737D01*
X36396Y10037D02*
Y9837D01*
X36546D01*
X36496Y9937D01*
Y9987D01*
X36546Y10037D01*
X36646D01*
X36696Y9987D01*
Y9887D01*
X36646Y9837D01*
X36296Y9537D02*
X35996D01*
Y9687D01*
X36046Y9737D01*
X36146D01*
X36196Y9687D01*
Y9537D01*
Y9637D02*
X36296Y9737D01*
X35996Y10037D02*
X36046Y9937D01*
X36146Y9837D01*
X36246D01*
X36296Y9887D01*
Y9987D01*
X36246Y10037D01*
X36196D01*
X36146Y9987D01*
Y9837D01*
X37396Y8837D02*
Y9137D01*
X37546D01*
X37596Y9087D01*
Y8987D01*
X37546Y8937D01*
X37396D01*
X37496D02*
X37596Y8837D01*
X37696Y9137D02*
X37896D01*
Y9087D01*
X37696Y8887D01*
Y8837D01*
X39446Y11137D02*
X39396Y11187D01*
X39296D01*
X39246Y11137D01*
Y11087D01*
X39296Y11037D01*
X39396D01*
X39446Y10987D01*
Y10937D01*
X39396Y10887D01*
X39296D01*
X39246Y10937D01*
X39546Y11187D02*
Y10887D01*
X39646Y10987D01*
X39746Y10887D01*
Y11187D01*
X39846Y10887D02*
X39946D01*
X39896D01*
Y11187D01*
X39846Y11137D01*
X39446Y4487D02*
X39396Y4537D01*
X39296D01*
X39246Y4487D01*
Y4437D01*
X39296Y4387D01*
X39396D01*
X39446Y4337D01*
Y4287D01*
X39396Y4237D01*
X39296D01*
X39246Y4287D01*
X39546Y4537D02*
Y4237D01*
X39646Y4337D01*
X39746Y4237D01*
Y4537D01*
X40046Y4237D02*
X39846D01*
X40046Y4437D01*
Y4487D01*
X39996Y4537D01*
X39896D01*
X39846Y4487D01*
X43196D02*
X43146Y4537D01*
X43046D01*
X42996Y4487D01*
Y4437D01*
X43046Y4387D01*
X43146D01*
X43196Y4337D01*
Y4287D01*
X43146Y4237D01*
X43046D01*
X42996Y4287D01*
X43296Y4537D02*
Y4237D01*
X43396Y4337D01*
X43496Y4237D01*
Y4537D01*
X43596Y4487D02*
X43646Y4537D01*
X43746D01*
X43796Y4487D01*
Y4437D01*
X43746Y4387D01*
X43696D01*
X43746D01*
X43796Y4337D01*
Y4287D01*
X43746Y4237D01*
X43646D01*
X43596Y4287D01*
X35196Y8987D02*
Y8737D01*
X35246Y8687D01*
X35346D01*
X35396Y8737D01*
Y8987D01*
X35496Y8687D02*
X35596D01*
X35546D01*
Y8987D01*
X35496Y8937D01*
X53846Y11237D02*
X53796Y11287D01*
X53696D01*
X53646Y11237D01*
Y11037D01*
X53696Y10987D01*
X53796D01*
X53846Y11037D01*
Y11137D01*
X53746D01*
X53946Y10987D02*
Y11287D01*
X54146Y10987D01*
Y11287D01*
X54246D02*
Y10987D01*
X54396D01*
X54446Y11037D01*
Y11237D01*
X54396Y11287D01*
X54246D01*
X50296D02*
Y10987D01*
X50396Y11087D01*
X50496Y10987D01*
Y11287D01*
X50596Y10987D02*
Y11187D01*
X50696Y11287D01*
X50796Y11187D01*
Y10987D01*
Y11137D01*
X50596D01*
X50896Y11287D02*
Y11087D01*
X50996Y10987D01*
X51096Y11087D01*
Y11287D01*
X51396D02*
X51196D01*
Y10987D01*
X51396D01*
X51196Y11137D02*
X51296D01*
X51946Y8187D02*
X51896Y8237D01*
X51796D01*
X51746Y8187D01*
Y8137D01*
X51796Y8087D01*
X51896D01*
X51946Y8037D01*
Y7987D01*
X51896Y7937D01*
X51796D01*
X51746Y7987D01*
X52246Y8237D02*
X52046D01*
Y7937D01*
X52246D01*
X52046Y8087D02*
X52146D01*
X52346Y8237D02*
Y7937D01*
X52546D01*
X32746Y8137D02*
Y7837D01*
X32946D01*
X33046D02*
Y8137D01*
X33196D01*
X33246Y8087D01*
Y7987D01*
X33196Y7937D01*
X33046D01*
X33346Y8137D02*
Y7837D01*
Y7937D01*
X33546Y8137D01*
X33396Y7987D01*
X33546Y7837D01*
X31146Y7787D02*
Y8087D01*
X31296D01*
X31346Y8037D01*
Y7937D01*
X31296Y7887D01*
X31146D01*
X31246D02*
X31346Y7787D01*
X31446Y8087D02*
Y7787D01*
X31596D01*
X31646Y7837D01*
Y8037D01*
X31596Y8087D01*
X31446D01*
X31746D02*
Y8037D01*
X31846Y7937D01*
X31946Y8037D01*
Y8087D01*
X31846Y7937D02*
Y7787D01*
X32046D02*
Y7987D01*
X32196D01*
X32246Y7937D01*
Y7787D01*
X31446Y7537D02*
X31396Y7587D01*
X31296D01*
X31246Y7537D01*
Y7337D01*
X31296Y7287D01*
X31396D01*
X31446Y7337D01*
Y7437D01*
X31346D01*
X31546Y7287D02*
Y7587D01*
X31746Y7287D01*
Y7587D01*
X31846D02*
Y7287D01*
X31996D01*
X32046Y7337D01*
Y7537D01*
X31996Y7587D01*
X31846D01*
X32646Y7537D02*
Y7337D01*
X32746Y7237D01*
X32846Y7337D01*
Y7537D01*
X33146Y7487D02*
X33096Y7537D01*
X32996D01*
X32946Y7487D01*
Y7287D01*
X32996Y7237D01*
X33096D01*
X33146Y7287D01*
X33246Y7237D02*
Y7437D01*
X33346Y7537D01*
X33446Y7437D01*
Y7237D01*
Y7387D01*
X33246D01*
X33546Y7237D02*
Y7537D01*
X33696D01*
X33746Y7487D01*
Y7387D01*
X33696Y7337D01*
X33546D01*
X47896Y11337D02*
X47846Y11387D01*
X47746D01*
X47696Y11337D01*
Y11137D01*
X47746Y11087D01*
X47846D01*
X47896Y11137D01*
Y11237D01*
X47796D01*
X47996Y11087D02*
Y11387D01*
X48196Y11087D01*
Y11387D01*
X48296D02*
Y11087D01*
X48446D01*
X48496Y11137D01*
Y11337D01*
X48446Y11387D01*
X48296D01*
X47796Y8337D02*
Y8037D01*
X47946D01*
X47996Y8087D01*
Y8137D01*
X47946Y8187D01*
X47796D01*
X47946D01*
X47996Y8237D01*
Y8287D01*
X47946Y8337D01*
X47796D01*
X48096Y8037D02*
Y8237D01*
X48196Y8337D01*
X48296Y8237D01*
Y8037D01*
Y8187D01*
X48096D01*
X48396Y8337D02*
X48596D01*
X48496D01*
Y8037D01*
X39528Y7164D02*
X39578Y7214D01*
X39678D01*
X39728Y7164D01*
Y6964D01*
X39678Y6914D01*
X39578D01*
X39528Y6964D01*
Y7164D01*
X39525Y4960D02*
X39725D01*
Y5110D01*
X39625Y5060D01*
X39575D01*
X39525Y5110D01*
Y5210D01*
X39575Y5260D01*
X39675D01*
X39725Y5210D01*
X43328Y7164D02*
X43378Y7214D01*
X43478D01*
X43528Y7164D01*
Y6964D01*
X43478Y6914D01*
X43378D01*
X43328Y6964D01*
Y7164D01*
X43325Y4960D02*
X43525D01*
Y5110D01*
X43425Y5060D01*
X43375D01*
X43325Y5110D01*
Y5210D01*
X43375Y5260D01*
X43475D01*
X43525Y5210D01*
X39528Y10414D02*
X39578Y10464D01*
X39678D01*
X39728Y10414D01*
Y10214D01*
X39678Y10164D01*
X39578D01*
X39528Y10214D01*
Y10414D01*
X39725Y8260D02*
X39675Y8210D01*
X39575D01*
X39525Y8260D01*
Y8310D01*
X39575Y8360D01*
X39525Y8410D01*
Y8460D01*
X39575Y8510D01*
X39675D01*
X39725Y8460D01*
Y8410D01*
X39675Y8360D01*
X39725Y8310D01*
Y8260D01*
X39675Y8360D02*
X39575D01*
X8671Y13090D02*
Y15059D01*
X8474Y13090D02*
X8671D01*
X8474Y15059D02*
X8671D01*
X7135D02*
X8494D01*
X5679D02*
X6191D01*
X4537D02*
X4734D01*
X4537Y14862D02*
Y15059D01*
X3946Y14862D02*
X4537D01*
X3946Y13287D02*
Y14862D01*
Y13287D02*
X4537D01*
Y13090D02*
Y13287D01*
Y13090D02*
X4734D01*
X5679D02*
X6191D01*
X7135D02*
X8474D01*
X8671Y17090D02*
Y19059D01*
X8474Y17090D02*
X8671D01*
X8474Y19059D02*
X8671D01*
X7135D02*
X8494D01*
X5679D02*
X6191D01*
X4537D02*
X4734D01*
X4537Y18862D02*
Y19059D01*
X3946Y18862D02*
X4537D01*
X3946Y17287D02*
Y18862D01*
Y17287D02*
X4537D01*
Y17090D02*
Y17287D01*
Y17090D02*
X4734D01*
X5679D02*
X6191D01*
X7135D02*
X8474D01*
X22866Y16734D02*
X27591D01*
X22866D02*
Y19215D01*
X27591D01*
Y18644D02*
Y19215D01*
X27118Y18644D02*
X27591D01*
X27118Y17305D02*
Y18644D01*
Y17305D02*
X27591D01*
Y16734D02*
Y17305D01*
X11730Y15734D02*
Y15892D01*
X14644D01*
Y15734D02*
Y15892D01*
X11730Y13057D02*
Y13215D01*
Y13057D02*
X14644D01*
Y13215D01*
X13187Y14081D02*
Y14671D01*
X13069Y14474D02*
X13187Y14671D01*
X13305Y14474D01*
X15530Y15734D02*
Y15892D01*
X18444D01*
Y15734D02*
Y15892D01*
X15530Y13057D02*
Y13215D01*
Y13057D02*
X18444D01*
Y13215D01*
X16987Y14081D02*
Y14671D01*
X16869Y14474D02*
X16987Y14671D01*
X17105Y14474D01*
X11730Y18984D02*
Y19142D01*
X14644D01*
Y18984D02*
Y19142D01*
X11730Y16307D02*
Y16465D01*
Y16307D02*
X14644D01*
Y16465D01*
X13187Y17331D02*
Y17921D01*
X13069Y17724D02*
X13187Y17921D01*
X13305Y17724D01*
X16429Y17926D02*
X16488D01*
X15386Y16823D02*
X15445D01*
X16429D02*
X16488D01*
Y17926D01*
X15386D02*
X15445D01*
X15386Y16823D02*
Y17926D01*
X17937Y16624D02*
Y16324D01*
X17837Y16624D02*
X18037D01*
X18073Y16524D02*
Y16324D01*
Y16439D02*
X18087Y16482D01*
X18116Y16510D01*
X18144Y16524D01*
X18187D01*
X18243Y16624D02*
X18257Y16610D01*
X18271Y16624D01*
X18257Y16639D01*
X18243Y16624D01*
X18257Y16524D02*
Y16324D01*
X18324Y16524D02*
Y16382D01*
X18338Y16339D01*
X18367Y16324D01*
X18410D01*
X18438Y16339D01*
X18481Y16382D01*
Y16524D02*
Y16324D01*
X18560Y16524D02*
Y16324D01*
Y16467D02*
X18603Y16510D01*
X18631Y16524D01*
X18674D01*
X18703Y16510D01*
X18717Y16467D01*
Y16324D01*
Y16467D02*
X18760Y16510D01*
X18788Y16524D01*
X18831D01*
X18860Y16510D01*
X18874Y16467D01*
Y16324D01*
X18968Y16524D02*
X19054Y16324D01*
X19140Y16524D02*
X19054Y16324D01*
X19217Y16624D02*
X19231Y16610D01*
X19245Y16624D01*
X19231Y16639D01*
X19217Y16624D01*
X19231Y16524D02*
Y16324D01*
X19534Y16624D02*
X19648Y16324D01*
X19762Y16624D02*
X19648Y16324D01*
X19801Y16567D02*
X19829Y16581D01*
X19872Y16624D01*
Y16324D01*
X20035Y16553D02*
Y16567D01*
X20049Y16596D01*
X20064Y16610D01*
X20092Y16624D01*
X20149D01*
X20178Y16610D01*
X20192Y16596D01*
X20206Y16567D01*
Y16539D01*
X20192Y16510D01*
X20164Y16467D01*
X20021Y16324D01*
X20221D01*
X8037Y16124D02*
X8087Y16174D01*
Y16274D01*
X8037Y16324D01*
X7837D01*
X7787Y16274D01*
Y16174D01*
X7837Y16124D01*
X7787Y16025D02*
Y15925D01*
Y15975D01*
X8087D01*
X8037Y16025D01*
X16787Y17224D02*
Y16924D01*
X16937D01*
X16987Y16974D01*
Y17174D01*
X16937Y17224D01*
X16787D01*
X17087Y16924D02*
X17187D01*
X17137D01*
Y17224D01*
X17087Y17174D01*
X10387Y17824D02*
Y18124D01*
X10537D01*
X10587Y18074D01*
Y17974D01*
X10537Y17924D01*
X10387D01*
X10487D02*
X10587Y17824D01*
X10687D02*
X10787D01*
X10737D01*
Y18124D01*
X10687Y18074D01*
X15587Y19024D02*
X15287D01*
Y19174D01*
X15337Y19224D01*
X15437D01*
X15487Y19174D01*
Y19024D01*
Y19124D02*
X15587Y19224D01*
Y19524D02*
Y19324D01*
X15387Y19524D01*
X15337D01*
X15287Y19474D01*
Y19374D01*
X15337Y19324D01*
X15987Y19024D02*
X15687D01*
Y19174D01*
X15737Y19224D01*
X15837D01*
X15887Y19174D01*
Y19024D01*
Y19124D02*
X15987Y19224D01*
X15737Y19324D02*
X15687Y19374D01*
Y19474D01*
X15737Y19524D01*
X15787D01*
X15837Y19474D01*
Y19424D01*
Y19474D01*
X15887Y19524D01*
X15937D01*
X15987Y19474D01*
Y19374D01*
X15937Y19324D01*
X16387Y19024D02*
X16087D01*
Y19174D01*
X16137Y19224D01*
X16237D01*
X16287Y19174D01*
Y19024D01*
Y19124D02*
X16387Y19224D01*
Y19474D02*
X16087D01*
X16237Y19324D01*
Y19524D01*
X10237Y17924D02*
X9937D01*
Y18074D01*
X9987Y18124D01*
X10087D01*
X10137Y18074D01*
Y17924D01*
Y18024D02*
X10237Y18124D01*
X9937Y18424D02*
Y18224D01*
X10087D01*
X10037Y18324D01*
Y18374D01*
X10087Y18424D01*
X10187D01*
X10237Y18374D01*
Y18274D01*
X10187Y18224D01*
X9837Y17924D02*
X9537D01*
Y18074D01*
X9587Y18124D01*
X9687D01*
X9737Y18074D01*
Y17924D01*
Y18024D02*
X9837Y18124D01*
X9537Y18424D02*
X9587Y18324D01*
X9687Y18224D01*
X9787D01*
X9837Y18274D01*
Y18374D01*
X9787Y18424D01*
X9737D01*
X9687Y18374D01*
Y18224D01*
X10937Y17224D02*
Y17524D01*
X11087D01*
X11137Y17474D01*
Y17374D01*
X11087Y17324D01*
X10937D01*
X11037D02*
X11137Y17224D01*
X11237Y17524D02*
X11437D01*
Y17474D01*
X11237Y17274D01*
Y17224D01*
X12987Y19524D02*
X12937Y19574D01*
X12837D01*
X12787Y19524D01*
Y19474D01*
X12837Y19424D01*
X12937D01*
X12987Y19374D01*
Y19324D01*
X12937Y19274D01*
X12837D01*
X12787Y19324D01*
X13087Y19574D02*
Y19274D01*
X13187Y19374D01*
X13287Y19274D01*
Y19574D01*
X13387Y19274D02*
X13487D01*
X13437D01*
Y19574D01*
X13387Y19524D01*
X12987Y12874D02*
X12937Y12924D01*
X12837D01*
X12787Y12874D01*
Y12824D01*
X12837Y12774D01*
X12937D01*
X12987Y12724D01*
Y12674D01*
X12937Y12624D01*
X12837D01*
X12787Y12674D01*
X13087Y12924D02*
Y12624D01*
X13187Y12724D01*
X13287Y12624D01*
Y12924D01*
X13587Y12624D02*
X13387D01*
X13587Y12824D01*
Y12874D01*
X13537Y12924D01*
X13437D01*
X13387Y12874D01*
X16737D02*
X16687Y12924D01*
X16587D01*
X16537Y12874D01*
Y12824D01*
X16587Y12774D01*
X16687D01*
X16737Y12724D01*
Y12674D01*
X16687Y12624D01*
X16587D01*
X16537Y12674D01*
X16837Y12924D02*
Y12624D01*
X16937Y12724D01*
X17037Y12624D01*
Y12924D01*
X17137Y12874D02*
X17187Y12924D01*
X17287D01*
X17337Y12874D01*
Y12824D01*
X17287Y12774D01*
X17237D01*
X17287D01*
X17337Y12724D01*
Y12674D01*
X17287Y12624D01*
X17187D01*
X17137Y12674D01*
X8737Y17374D02*
Y17124D01*
X8787Y17074D01*
X8887D01*
X8937Y17124D01*
Y17374D01*
X9037Y17074D02*
X9137D01*
X9087D01*
Y17374D01*
X9037Y17324D01*
X27387Y19624D02*
X27337Y19674D01*
X27237D01*
X27187Y19624D01*
Y19424D01*
X27237Y19374D01*
X27337D01*
X27387Y19424D01*
Y19524D01*
X27287D01*
X27487Y19374D02*
Y19674D01*
X27687Y19374D01*
Y19674D01*
X27787D02*
Y19374D01*
X27937D01*
X27987Y19424D01*
Y19624D01*
X27937Y19674D01*
X27787D01*
X23837D02*
Y19374D01*
X23937Y19474D01*
X24037Y19374D01*
Y19674D01*
X24137Y19374D02*
Y19574D01*
X24237Y19674D01*
X24337Y19574D01*
Y19374D01*
Y19524D01*
X24137D01*
X24437Y19674D02*
Y19474D01*
X24537Y19374D01*
X24637Y19474D01*
Y19674D01*
X24937D02*
X24737D01*
Y19374D01*
X24937D01*
X24737Y19524D02*
X24837D01*
X25487Y16574D02*
X25437Y16624D01*
X25337D01*
X25287Y16574D01*
Y16524D01*
X25337Y16474D01*
X25437D01*
X25487Y16424D01*
Y16374D01*
X25437Y16324D01*
X25337D01*
X25287Y16374D01*
X25787Y16624D02*
X25587D01*
Y16324D01*
X25787D01*
X25587Y16474D02*
X25687D01*
X25887Y16624D02*
Y16324D01*
X26087D01*
X6287Y16524D02*
Y16224D01*
X6487D01*
X6587D02*
Y16524D01*
X6737D01*
X6787Y16474D01*
Y16374D01*
X6737Y16324D01*
X6587D01*
X6887Y16524D02*
Y16224D01*
Y16324D01*
X7087Y16524D01*
X6937Y16374D01*
X7087Y16224D01*
X4687Y16174D02*
Y16474D01*
X4837D01*
X4887Y16424D01*
Y16324D01*
X4837Y16274D01*
X4687D01*
X4787D02*
X4887Y16174D01*
X4987Y16474D02*
Y16174D01*
X5137D01*
X5187Y16224D01*
Y16424D01*
X5137Y16474D01*
X4987D01*
X5287D02*
Y16424D01*
X5387Y16324D01*
X5487Y16424D01*
Y16474D01*
X5387Y16324D02*
Y16174D01*
X5587D02*
Y16374D01*
X5737D01*
X5787Y16324D01*
Y16174D01*
X4987Y15924D02*
X4937Y15974D01*
X4837D01*
X4787Y15924D01*
Y15724D01*
X4837Y15674D01*
X4937D01*
X4987Y15724D01*
Y15824D01*
X4887D01*
X5087Y15674D02*
Y15974D01*
X5287Y15674D01*
Y15974D01*
X5387D02*
Y15674D01*
X5537D01*
X5587Y15724D01*
Y15924D01*
X5537Y15974D01*
X5387D01*
X6187Y15924D02*
Y15724D01*
X6287Y15624D01*
X6387Y15724D01*
Y15924D01*
X6687Y15874D02*
X6637Y15924D01*
X6537D01*
X6487Y15874D01*
Y15674D01*
X6537Y15624D01*
X6637D01*
X6687Y15674D01*
X6787Y15624D02*
Y15824D01*
X6887Y15924D01*
X6987Y15824D01*
Y15624D01*
Y15774D01*
X6787D01*
X7087Y15624D02*
Y15924D01*
X7237D01*
X7287Y15874D01*
Y15774D01*
X7237Y15724D01*
X7087D01*
X21437Y19724D02*
X21387Y19774D01*
X21287D01*
X21237Y19724D01*
Y19524D01*
X21287Y19474D01*
X21387D01*
X21437Y19524D01*
Y19624D01*
X21337D01*
X21537Y19474D02*
Y19774D01*
X21737Y19474D01*
Y19774D01*
X21837D02*
Y19474D01*
X21987D01*
X22037Y19524D01*
Y19724D01*
X21987Y19774D01*
X21837D01*
X21337Y16724D02*
Y16424D01*
X21487D01*
X21537Y16474D01*
Y16524D01*
X21487Y16574D01*
X21337D01*
X21487D01*
X21537Y16624D01*
Y16674D01*
X21487Y16724D01*
X21337D01*
X21637Y16424D02*
Y16624D01*
X21737Y16724D01*
X21837Y16624D01*
Y16424D01*
Y16574D01*
X21637D01*
X21937Y16724D02*
X22137D01*
X22037D01*
Y16424D01*
X13069Y15551D02*
X13119Y15601D01*
X13219D01*
X13269Y15551D01*
Y15351D01*
X13219Y15301D01*
X13119D01*
X13069Y15351D01*
Y15551D01*
X13066Y13348D02*
X13266D01*
Y13498D01*
X13166Y13448D01*
X13116D01*
X13066Y13498D01*
Y13598D01*
X13116Y13648D01*
X13216D01*
X13266Y13598D01*
X16869Y15551D02*
X16919Y15601D01*
X17019D01*
X17069Y15551D01*
Y15351D01*
X17019Y15301D01*
X16919D01*
X16869Y15351D01*
Y15551D01*
X16866Y13348D02*
X17066D01*
Y13498D01*
X16966Y13448D01*
X16916D01*
X16866Y13498D01*
Y13598D01*
X16916Y13648D01*
X17016D01*
X17066Y13598D01*
X13069Y18801D02*
X13119Y18851D01*
X13219D01*
X13269Y18801D01*
Y18601D01*
X13219Y18551D01*
X13119D01*
X13069Y18601D01*
Y18801D01*
X13266Y16648D02*
X13216Y16598D01*
X13116D01*
X13066Y16648D01*
Y16698D01*
X13116Y16748D01*
X13066Y16798D01*
Y16848D01*
X13116Y16898D01*
X13216D01*
X13266Y16848D01*
Y16798D01*
X13216Y16748D01*
X13266Y16698D01*
Y16648D01*
X13216Y16748D02*
X13116D01*
X35130Y13090D02*
Y15059D01*
X34933Y13090D02*
X35130D01*
X34933Y15059D02*
X35130D01*
X33594D02*
X34953D01*
X32138D02*
X32650D01*
X30996D02*
X31193D01*
X30996Y14862D02*
Y15059D01*
X30406Y14862D02*
X30996D01*
X30406Y13287D02*
Y14862D01*
Y13287D02*
X30996D01*
Y13090D02*
Y13287D01*
Y13090D02*
X31193D01*
X32138D02*
X32650D01*
X33594D02*
X34933D01*
X35130Y17090D02*
Y19059D01*
X34933Y17090D02*
X35130D01*
X34933Y19059D02*
X35130D01*
X33594D02*
X34953D01*
X32138D02*
X32650D01*
X30996D02*
X31193D01*
X30996Y18862D02*
Y19059D01*
X30406Y18862D02*
X30996D01*
X30406Y17287D02*
Y18862D01*
Y17287D02*
X30996D01*
Y17090D02*
Y17287D01*
Y17090D02*
X31193D01*
X32138D02*
X32650D01*
X33594D02*
X34933D01*
X49325Y16734D02*
X54050D01*
X49325D02*
Y19215D01*
X54050D01*
Y18644D02*
Y19215D01*
X53577Y18644D02*
X54050D01*
X53577Y17305D02*
Y18644D01*
Y17305D02*
X54050D01*
Y16734D02*
Y17305D01*
X38189Y15734D02*
Y15892D01*
X41103D01*
Y15734D02*
Y15892D01*
X38189Y13057D02*
Y13215D01*
Y13057D02*
X41103D01*
Y13215D01*
X39646Y14081D02*
Y14671D01*
X39528Y14474D02*
X39646Y14671D01*
X39764Y14474D01*
X41989Y15734D02*
Y15892D01*
X44903D01*
Y15734D02*
Y15892D01*
X41989Y13057D02*
Y13215D01*
Y13057D02*
X44903D01*
Y13215D01*
X43446Y14081D02*
Y14671D01*
X43328Y14474D02*
X43446Y14671D01*
X43564Y14474D01*
X38189Y18984D02*
Y19142D01*
X41103D01*
Y18984D02*
Y19142D01*
X38189Y16307D02*
Y16465D01*
Y16307D02*
X41103D01*
Y16465D01*
X39646Y17331D02*
Y17921D01*
X39528Y17724D02*
X39646Y17921D01*
X39764Y17724D01*
X42888Y17926D02*
X42947D01*
X41845Y16823D02*
X41904D01*
X42888D02*
X42947D01*
Y17926D01*
X41845D02*
X41904D01*
X41845Y16823D02*
Y17926D01*
X44396Y16624D02*
Y16324D01*
X44296Y16624D02*
X44496D01*
X44532Y16524D02*
Y16324D01*
Y16439D02*
X44546Y16482D01*
X44575Y16510D01*
X44603Y16524D01*
X44646D01*
X44702Y16624D02*
X44716Y16610D01*
X44730Y16624D01*
X44716Y16639D01*
X44702Y16624D01*
X44716Y16524D02*
Y16324D01*
X44783Y16524D02*
Y16382D01*
X44797Y16339D01*
X44826Y16324D01*
X44869D01*
X44897Y16339D01*
X44940Y16382D01*
Y16524D02*
Y16324D01*
X45019Y16524D02*
Y16324D01*
Y16467D02*
X45062Y16510D01*
X45090Y16524D01*
X45133D01*
X45162Y16510D01*
X45176Y16467D01*
Y16324D01*
Y16467D02*
X45219Y16510D01*
X45247Y16524D01*
X45290D01*
X45319Y16510D01*
X45333Y16467D01*
Y16324D01*
X45427Y16524D02*
X45513Y16324D01*
X45599Y16524D02*
X45513Y16324D01*
X45676Y16624D02*
X45690Y16610D01*
X45704Y16624D01*
X45690Y16639D01*
X45676Y16624D01*
X45690Y16524D02*
Y16324D01*
X45993Y16624D02*
X46107Y16324D01*
X46221Y16624D02*
X46107Y16324D01*
X46260Y16567D02*
X46288Y16581D01*
X46331Y16624D01*
Y16324D01*
X46494Y16553D02*
Y16567D01*
X46508Y16596D01*
X46523Y16610D01*
X46551Y16624D01*
X46608D01*
X46637Y16610D01*
X46651Y16596D01*
X46666Y16567D01*
Y16539D01*
X46651Y16510D01*
X46623Y16467D01*
X46480Y16324D01*
X46680D01*
X34496Y16124D02*
X34546Y16174D01*
Y16274D01*
X34496Y16324D01*
X34296D01*
X34246Y16274D01*
Y16174D01*
X34296Y16124D01*
X34246Y16025D02*
Y15925D01*
Y15975D01*
X34546D01*
X34496Y16025D01*
X43246Y17224D02*
Y16924D01*
X43396D01*
X43446Y16974D01*
Y17174D01*
X43396Y17224D01*
X43246D01*
X43546Y16924D02*
X43646D01*
X43596D01*
Y17224D01*
X43546Y17174D01*
X36846Y17824D02*
Y18124D01*
X36996D01*
X37046Y18074D01*
Y17974D01*
X36996Y17924D01*
X36846D01*
X36946D02*
X37046Y17824D01*
X37146D02*
X37246D01*
X37196D01*
Y18124D01*
X37146Y18074D01*
X42046Y19024D02*
X41746D01*
Y19174D01*
X41796Y19224D01*
X41896D01*
X41946Y19174D01*
Y19024D01*
Y19124D02*
X42046Y19224D01*
Y19524D02*
Y19324D01*
X41846Y19524D01*
X41796D01*
X41746Y19474D01*
Y19374D01*
X41796Y19324D01*
X42446Y19024D02*
X42146D01*
Y19174D01*
X42196Y19224D01*
X42296D01*
X42346Y19174D01*
Y19024D01*
Y19124D02*
X42446Y19224D01*
X42196Y19324D02*
X42146Y19374D01*
Y19474D01*
X42196Y19524D01*
X42246D01*
X42296Y19474D01*
Y19424D01*
Y19474D01*
X42346Y19524D01*
X42396D01*
X42446Y19474D01*
Y19374D01*
X42396Y19324D01*
X42846Y19024D02*
X42546D01*
Y19174D01*
X42596Y19224D01*
X42696D01*
X42746Y19174D01*
Y19024D01*
Y19124D02*
X42846Y19224D01*
Y19474D02*
X42546D01*
X42696Y19324D01*
Y19524D01*
X36696Y17924D02*
X36396D01*
Y18074D01*
X36446Y18124D01*
X36546D01*
X36596Y18074D01*
Y17924D01*
Y18024D02*
X36696Y18124D01*
X36396Y18424D02*
Y18224D01*
X36546D01*
X36496Y18324D01*
Y18374D01*
X36546Y18424D01*
X36646D01*
X36696Y18374D01*
Y18274D01*
X36646Y18224D01*
X36296Y17924D02*
X35996D01*
Y18074D01*
X36046Y18124D01*
X36146D01*
X36196Y18074D01*
Y17924D01*
Y18024D02*
X36296Y18124D01*
X35996Y18424D02*
X36046Y18324D01*
X36146Y18224D01*
X36246D01*
X36296Y18274D01*
Y18374D01*
X36246Y18424D01*
X36196D01*
X36146Y18374D01*
Y18224D01*
X37396Y17224D02*
Y17524D01*
X37546D01*
X37596Y17474D01*
Y17374D01*
X37546Y17324D01*
X37396D01*
X37496D02*
X37596Y17224D01*
X37696Y17524D02*
X37896D01*
Y17474D01*
X37696Y17274D01*
Y17224D01*
X39446Y19524D02*
X39396Y19574D01*
X39296D01*
X39246Y19524D01*
Y19474D01*
X39296Y19424D01*
X39396D01*
X39446Y19374D01*
Y19324D01*
X39396Y19274D01*
X39296D01*
X39246Y19324D01*
X39546Y19574D02*
Y19274D01*
X39646Y19374D01*
X39746Y19274D01*
Y19574D01*
X39846Y19274D02*
X39946D01*
X39896D01*
Y19574D01*
X39846Y19524D01*
X39446Y12874D02*
X39396Y12924D01*
X39296D01*
X39246Y12874D01*
Y12824D01*
X39296Y12774D01*
X39396D01*
X39446Y12724D01*
Y12674D01*
X39396Y12624D01*
X39296D01*
X39246Y12674D01*
X39546Y12924D02*
Y12624D01*
X39646Y12724D01*
X39746Y12624D01*
Y12924D01*
X40046Y12624D02*
X39846D01*
X40046Y12824D01*
Y12874D01*
X39996Y12924D01*
X39896D01*
X39846Y12874D01*
X43196D02*
X43146Y12924D01*
X43046D01*
X42996Y12874D01*
Y12824D01*
X43046Y12774D01*
X43146D01*
X43196Y12724D01*
Y12674D01*
X43146Y12624D01*
X43046D01*
X42996Y12674D01*
X43296Y12924D02*
Y12624D01*
X43396Y12724D01*
X43496Y12624D01*
Y12924D01*
X43596Y12874D02*
X43646Y12924D01*
X43746D01*
X43796Y12874D01*
Y12824D01*
X43746Y12774D01*
X43696D01*
X43746D01*
X43796Y12724D01*
Y12674D01*
X43746Y12624D01*
X43646D01*
X43596Y12674D01*
X35196Y17374D02*
Y17124D01*
X35246Y17074D01*
X35346D01*
X35396Y17124D01*
Y17374D01*
X35496Y17074D02*
X35596D01*
X35546D01*
Y17374D01*
X35496Y17324D01*
X53846Y19624D02*
X53796Y19674D01*
X53696D01*
X53646Y19624D01*
Y19424D01*
X53696Y19374D01*
X53796D01*
X53846Y19424D01*
Y19524D01*
X53746D01*
X53946Y19374D02*
Y19674D01*
X54146Y19374D01*
Y19674D01*
X54246D02*
Y19374D01*
X54396D01*
X54446Y19424D01*
Y19624D01*
X54396Y19674D01*
X54246D01*
X50296D02*
Y19374D01*
X50396Y19474D01*
X50496Y19374D01*
Y19674D01*
X50596Y19374D02*
Y19574D01*
X50696Y19674D01*
X50796Y19574D01*
Y19374D01*
Y19524D01*
X50596D01*
X50896Y19674D02*
Y19474D01*
X50996Y19374D01*
X51096Y19474D01*
Y19674D01*
X51396D02*
X51196D01*
Y19374D01*
X51396D01*
X51196Y19524D02*
X51296D01*
X51946Y16574D02*
X51896Y16624D01*
X51796D01*
X51746Y16574D01*
Y16524D01*
X51796Y16474D01*
X51896D01*
X51946Y16424D01*
Y16374D01*
X51896Y16324D01*
X51796D01*
X51746Y16374D01*
X52246Y16624D02*
X52046D01*
Y16324D01*
X52246D01*
X52046Y16474D02*
X52146D01*
X52346Y16624D02*
Y16324D01*
X52546D01*
X32746Y16524D02*
Y16224D01*
X32946D01*
X33046D02*
Y16524D01*
X33196D01*
X33246Y16474D01*
Y16374D01*
X33196Y16324D01*
X33046D01*
X33346Y16524D02*
Y16224D01*
Y16324D01*
X33546Y16524D01*
X33396Y16374D01*
X33546Y16224D01*
X31146Y16174D02*
Y16474D01*
X31296D01*
X31346Y16424D01*
Y16324D01*
X31296Y16274D01*
X31146D01*
X31246D02*
X31346Y16174D01*
X31446Y16474D02*
Y16174D01*
X31596D01*
X31646Y16224D01*
Y16424D01*
X31596Y16474D01*
X31446D01*
X31746D02*
Y16424D01*
X31846Y16324D01*
X31946Y16424D01*
Y16474D01*
X31846Y16324D02*
Y16174D01*
X32046D02*
Y16374D01*
X32196D01*
X32246Y16324D01*
Y16174D01*
X31446Y15924D02*
X31396Y15974D01*
X31296D01*
X31246Y15924D01*
Y15724D01*
X31296Y15674D01*
X31396D01*
X31446Y15724D01*
Y15824D01*
X31346D01*
X31546Y15674D02*
Y15974D01*
X31746Y15674D01*
Y15974D01*
X31846D02*
Y15674D01*
X31996D01*
X32046Y15724D01*
Y15924D01*
X31996Y15974D01*
X31846D01*
X32646Y15924D02*
Y15724D01*
X32746Y15624D01*
X32846Y15724D01*
Y15924D01*
X33146Y15874D02*
X33096Y15924D01*
X32996D01*
X32946Y15874D01*
Y15674D01*
X32996Y15624D01*
X33096D01*
X33146Y15674D01*
X33246Y15624D02*
Y15824D01*
X33346Y15924D01*
X33446Y15824D01*
Y15624D01*
Y15774D01*
X33246D01*
X33546Y15624D02*
Y15924D01*
X33696D01*
X33746Y15874D01*
Y15774D01*
X33696Y15724D01*
X33546D01*
X47896Y19724D02*
X47846Y19774D01*
X47746D01*
X47696Y19724D01*
Y19524D01*
X47746Y19474D01*
X47846D01*
X47896Y19524D01*
Y19624D01*
X47796D01*
X47996Y19474D02*
Y19774D01*
X48196Y19474D01*
Y19774D01*
X48296D02*
Y19474D01*
X48446D01*
X48496Y19524D01*
Y19724D01*
X48446Y19774D01*
X48296D01*
X47796Y16724D02*
Y16424D01*
X47946D01*
X47996Y16474D01*
Y16524D01*
X47946Y16574D01*
X47796D01*
X47946D01*
X47996Y16624D01*
Y16674D01*
X47946Y16724D01*
X47796D01*
X48096Y16424D02*
Y16624D01*
X48196Y16724D01*
X48296Y16624D01*
Y16424D01*
Y16574D01*
X48096D01*
X48396Y16724D02*
X48596D01*
X48496D01*
Y16424D01*
X39528Y15551D02*
X39578Y15601D01*
X39678D01*
X39728Y15551D01*
Y15351D01*
X39678Y15301D01*
X39578D01*
X39528Y15351D01*
Y15551D01*
X39525Y13348D02*
X39725D01*
Y13498D01*
X39625Y13448D01*
X39575D01*
X39525Y13498D01*
Y13598D01*
X39575Y13648D01*
X39675D01*
X39725Y13598D01*
X43328Y15551D02*
X43378Y15601D01*
X43478D01*
X43528Y15551D01*
Y15351D01*
X43478Y15301D01*
X43378D01*
X43328Y15351D01*
Y15551D01*
X43325Y13348D02*
X43525D01*
Y13498D01*
X43425Y13448D01*
X43375D01*
X43325Y13498D01*
Y13598D01*
X43375Y13648D01*
X43475D01*
X43525Y13598D01*
X39528Y18801D02*
X39578Y18851D01*
X39678D01*
X39728Y18801D01*
Y18601D01*
X39678Y18551D01*
X39578D01*
X39528Y18601D01*
Y18801D01*
X39725Y16648D02*
X39675Y16598D01*
X39575D01*
X39525Y16648D01*
Y16698D01*
X39575Y16748D01*
X39525Y16798D01*
Y16848D01*
X39575Y16898D01*
X39675D01*
X39725Y16848D01*
Y16798D01*
X39675Y16748D01*
X39725Y16698D01*
Y16648D01*
X39675Y16748D02*
X39575D01*
X8671Y21478D02*
Y23446D01*
X8474Y21478D02*
X8671D01*
X8474Y23446D02*
X8671D01*
X7135D02*
X8494D01*
X5679D02*
X6191D01*
X4537D02*
X4734D01*
X4537Y23249D02*
Y23446D01*
X3946Y23249D02*
X4537D01*
X3946Y21674D02*
Y23249D01*
Y21674D02*
X4537D01*
Y21478D02*
Y21674D01*
Y21478D02*
X4734D01*
X5679D02*
X6191D01*
X7135D02*
X8474D01*
X8671Y25478D02*
Y27446D01*
X8474Y25478D02*
X8671D01*
X8474Y27446D02*
X8671D01*
X7135D02*
X8494D01*
X5679D02*
X6191D01*
X4537D02*
X4734D01*
X4537Y27249D02*
Y27446D01*
X3946Y27249D02*
X4537D01*
X3946Y25674D02*
Y27249D01*
Y25674D02*
X4537D01*
Y25478D02*
Y25674D01*
Y25478D02*
X4734D01*
X5679D02*
X6191D01*
X7135D02*
X8474D01*
X22866Y25122D02*
X27591D01*
X22866D02*
Y27602D01*
X27591D01*
Y27031D02*
Y27602D01*
X27118Y27031D02*
X27591D01*
X27118Y25693D02*
Y27031D01*
Y25693D02*
X27591D01*
Y25122D02*
Y25693D01*
X11730Y24122D02*
Y24279D01*
X14644D01*
Y24122D02*
Y24279D01*
X11730Y21444D02*
Y21602D01*
Y21444D02*
X14644D01*
Y21602D01*
X13187Y22468D02*
Y23059D01*
X13069Y22862D02*
X13187Y23059D01*
X13305Y22862D01*
X15530Y24122D02*
Y24279D01*
X18444D01*
Y24122D02*
Y24279D01*
X15530Y21444D02*
Y21602D01*
Y21444D02*
X18444D01*
Y21602D01*
X16987Y22468D02*
Y23059D01*
X16869Y22862D02*
X16987Y23059D01*
X17105Y22862D01*
X11730Y27372D02*
Y27529D01*
X14644D01*
Y27372D02*
Y27529D01*
X11730Y24694D02*
Y24852D01*
Y24694D02*
X14644D01*
Y24852D01*
X13187Y25718D02*
Y26309D01*
X13069Y26112D02*
X13187Y26309D01*
X13305Y26112D01*
X16429Y26313D02*
X16488D01*
X15386Y25211D02*
X15445D01*
X16429D02*
X16488D01*
Y26313D01*
X15386D02*
X15445D01*
X15386Y25211D02*
Y26313D01*
X17937Y25012D02*
Y24712D01*
X17837Y25012D02*
X18037D01*
X18073Y24912D02*
Y24712D01*
Y24826D02*
X18087Y24869D01*
X18116Y24897D01*
X18144Y24912D01*
X18187D01*
X18243Y25012D02*
X18257Y24997D01*
X18271Y25012D01*
X18257Y25026D01*
X18243Y25012D01*
X18257Y24912D02*
Y24712D01*
X18324Y24912D02*
Y24769D01*
X18338Y24726D01*
X18367Y24712D01*
X18410D01*
X18438Y24726D01*
X18481Y24769D01*
Y24912D02*
Y24712D01*
X18560Y24912D02*
Y24712D01*
Y24855D02*
X18603Y24897D01*
X18631Y24912D01*
X18674D01*
X18703Y24897D01*
X18717Y24855D01*
Y24712D01*
Y24855D02*
X18760Y24897D01*
X18788Y24912D01*
X18831D01*
X18860Y24897D01*
X18874Y24855D01*
Y24712D01*
X18968Y24912D02*
X19054Y24712D01*
X19140Y24912D02*
X19054Y24712D01*
X19217Y25012D02*
X19231Y24997D01*
X19245Y25012D01*
X19231Y25026D01*
X19217Y25012D01*
X19231Y24912D02*
Y24712D01*
X19534Y25012D02*
X19648Y24712D01*
X19762Y25012D02*
X19648Y24712D01*
X19801Y24955D02*
X19829Y24969D01*
X19872Y25012D01*
Y24712D01*
X20035Y24940D02*
Y24955D01*
X20049Y24983D01*
X20064Y24997D01*
X20092Y25012D01*
X20149D01*
X20178Y24997D01*
X20192Y24983D01*
X20206Y24955D01*
Y24926D01*
X20192Y24897D01*
X20164Y24855D01*
X20021Y24712D01*
X20221D01*
X8037Y24512D02*
X8087Y24562D01*
Y24662D01*
X8037Y24712D01*
X7837D01*
X7787Y24662D01*
Y24562D01*
X7837Y24512D01*
X7787Y24412D02*
Y24312D01*
Y24362D01*
X8087D01*
X8037Y24412D01*
X16787Y25612D02*
Y25312D01*
X16937D01*
X16987Y25362D01*
Y25562D01*
X16937Y25612D01*
X16787D01*
X17087Y25312D02*
X17187D01*
X17137D01*
Y25612D01*
X17087Y25562D01*
X10387Y26212D02*
Y26512D01*
X10537D01*
X10587Y26462D01*
Y26362D01*
X10537Y26312D01*
X10387D01*
X10487D02*
X10587Y26212D01*
X10687D02*
X10787D01*
X10737D01*
Y26512D01*
X10687Y26462D01*
X15587Y27412D02*
X15287D01*
Y27562D01*
X15337Y27612D01*
X15437D01*
X15487Y27562D01*
Y27412D01*
Y27512D02*
X15587Y27612D01*
Y27912D02*
Y27712D01*
X15387Y27912D01*
X15337D01*
X15287Y27862D01*
Y27762D01*
X15337Y27712D01*
X15987Y27412D02*
X15687D01*
Y27562D01*
X15737Y27612D01*
X15837D01*
X15887Y27562D01*
Y27412D01*
Y27512D02*
X15987Y27612D01*
X15737Y27712D02*
X15687Y27762D01*
Y27862D01*
X15737Y27912D01*
X15787D01*
X15837Y27862D01*
Y27812D01*
Y27862D01*
X15887Y27912D01*
X15937D01*
X15987Y27862D01*
Y27762D01*
X15937Y27712D01*
X16387Y27412D02*
X16087D01*
Y27562D01*
X16137Y27612D01*
X16237D01*
X16287Y27562D01*
Y27412D01*
Y27512D02*
X16387Y27612D01*
Y27862D02*
X16087D01*
X16237Y27712D01*
Y27912D01*
X10237Y26312D02*
X9937D01*
Y26462D01*
X9987Y26512D01*
X10087D01*
X10137Y26462D01*
Y26312D01*
Y26412D02*
X10237Y26512D01*
X9937Y26812D02*
Y26612D01*
X10087D01*
X10037Y26712D01*
Y26762D01*
X10087Y26812D01*
X10187D01*
X10237Y26762D01*
Y26662D01*
X10187Y26612D01*
X9837Y26312D02*
X9537D01*
Y26462D01*
X9587Y26512D01*
X9687D01*
X9737Y26462D01*
Y26312D01*
Y26412D02*
X9837Y26512D01*
X9537Y26812D02*
X9587Y26712D01*
X9687Y26612D01*
X9787D01*
X9837Y26662D01*
Y26762D01*
X9787Y26812D01*
X9737D01*
X9687Y26762D01*
Y26612D01*
X10937Y25612D02*
Y25912D01*
X11087D01*
X11137Y25862D01*
Y25762D01*
X11087Y25712D01*
X10937D01*
X11037D02*
X11137Y25612D01*
X11237Y25912D02*
X11437D01*
Y25862D01*
X11237Y25662D01*
Y25612D01*
X12987Y27912D02*
X12937Y27962D01*
X12837D01*
X12787Y27912D01*
Y27862D01*
X12837Y27812D01*
X12937D01*
X12987Y27762D01*
Y27712D01*
X12937Y27662D01*
X12837D01*
X12787Y27712D01*
X13087Y27962D02*
Y27662D01*
X13187Y27762D01*
X13287Y27662D01*
Y27962D01*
X13387Y27662D02*
X13487D01*
X13437D01*
Y27962D01*
X13387Y27912D01*
X12987Y21262D02*
X12937Y21312D01*
X12837D01*
X12787Y21262D01*
Y21212D01*
X12837Y21162D01*
X12937D01*
X12987Y21112D01*
Y21062D01*
X12937Y21012D01*
X12837D01*
X12787Y21062D01*
X13087Y21312D02*
Y21012D01*
X13187Y21112D01*
X13287Y21012D01*
Y21312D01*
X13587Y21012D02*
X13387D01*
X13587Y21212D01*
Y21262D01*
X13537Y21312D01*
X13437D01*
X13387Y21262D01*
X16737D02*
X16687Y21312D01*
X16587D01*
X16537Y21262D01*
Y21212D01*
X16587Y21162D01*
X16687D01*
X16737Y21112D01*
Y21062D01*
X16687Y21012D01*
X16587D01*
X16537Y21062D01*
X16837Y21312D02*
Y21012D01*
X16937Y21112D01*
X17037Y21012D01*
Y21312D01*
X17137Y21262D02*
X17187Y21312D01*
X17287D01*
X17337Y21262D01*
Y21212D01*
X17287Y21162D01*
X17237D01*
X17287D01*
X17337Y21112D01*
Y21062D01*
X17287Y21012D01*
X17187D01*
X17137Y21062D01*
X8737Y25762D02*
Y25512D01*
X8787Y25462D01*
X8887D01*
X8937Y25512D01*
Y25762D01*
X9037Y25462D02*
X9137D01*
X9087D01*
Y25762D01*
X9037Y25712D01*
X27387Y28012D02*
X27337Y28062D01*
X27237D01*
X27187Y28012D01*
Y27812D01*
X27237Y27762D01*
X27337D01*
X27387Y27812D01*
Y27912D01*
X27287D01*
X27487Y27762D02*
Y28062D01*
X27687Y27762D01*
Y28062D01*
X27787D02*
Y27762D01*
X27937D01*
X27987Y27812D01*
Y28012D01*
X27937Y28062D01*
X27787D01*
X23837D02*
Y27762D01*
X23937Y27862D01*
X24037Y27762D01*
Y28062D01*
X24137Y27762D02*
Y27962D01*
X24237Y28062D01*
X24337Y27962D01*
Y27762D01*
Y27912D01*
X24137D01*
X24437Y28062D02*
Y27862D01*
X24537Y27762D01*
X24637Y27862D01*
Y28062D01*
X24937D02*
X24737D01*
Y27762D01*
X24937D01*
X24737Y27912D02*
X24837D01*
X25487Y24962D02*
X25437Y25012D01*
X25337D01*
X25287Y24962D01*
Y24912D01*
X25337Y24862D01*
X25437D01*
X25487Y24812D01*
Y24762D01*
X25437Y24712D01*
X25337D01*
X25287Y24762D01*
X25787Y25012D02*
X25587D01*
Y24712D01*
X25787D01*
X25587Y24862D02*
X25687D01*
X25887Y25012D02*
Y24712D01*
X26087D01*
X6287Y24912D02*
Y24612D01*
X6487D01*
X6587D02*
Y24912D01*
X6737D01*
X6787Y24862D01*
Y24762D01*
X6737Y24712D01*
X6587D01*
X6887Y24912D02*
Y24612D01*
Y24712D01*
X7087Y24912D01*
X6937Y24762D01*
X7087Y24612D01*
X4687Y24562D02*
Y24862D01*
X4837D01*
X4887Y24812D01*
Y24712D01*
X4837Y24662D01*
X4687D01*
X4787D02*
X4887Y24562D01*
X4987Y24862D02*
Y24562D01*
X5137D01*
X5187Y24612D01*
Y24812D01*
X5137Y24862D01*
X4987D01*
X5287D02*
Y24812D01*
X5387Y24712D01*
X5487Y24812D01*
Y24862D01*
X5387Y24712D02*
Y24562D01*
X5587D02*
Y24762D01*
X5737D01*
X5787Y24712D01*
Y24562D01*
X4987Y24312D02*
X4937Y24362D01*
X4837D01*
X4787Y24312D01*
Y24112D01*
X4837Y24062D01*
X4937D01*
X4987Y24112D01*
Y24212D01*
X4887D01*
X5087Y24062D02*
Y24362D01*
X5287Y24062D01*
Y24362D01*
X5387D02*
Y24062D01*
X5537D01*
X5587Y24112D01*
Y24312D01*
X5537Y24362D01*
X5387D01*
X6187Y24312D02*
Y24112D01*
X6287Y24012D01*
X6387Y24112D01*
Y24312D01*
X6687Y24262D02*
X6637Y24312D01*
X6537D01*
X6487Y24262D01*
Y24062D01*
X6537Y24012D01*
X6637D01*
X6687Y24062D01*
X6787Y24012D02*
Y24212D01*
X6887Y24312D01*
X6987Y24212D01*
Y24012D01*
Y24162D01*
X6787D01*
X7087Y24012D02*
Y24312D01*
X7237D01*
X7287Y24262D01*
Y24162D01*
X7237Y24112D01*
X7087D01*
X21437Y28112D02*
X21387Y28162D01*
X21287D01*
X21237Y28112D01*
Y27912D01*
X21287Y27862D01*
X21387D01*
X21437Y27912D01*
Y28012D01*
X21337D01*
X21537Y27862D02*
Y28162D01*
X21737Y27862D01*
Y28162D01*
X21837D02*
Y27862D01*
X21987D01*
X22037Y27912D01*
Y28112D01*
X21987Y28162D01*
X21837D01*
X21337Y25112D02*
Y24812D01*
X21487D01*
X21537Y24862D01*
Y24912D01*
X21487Y24962D01*
X21337D01*
X21487D01*
X21537Y25012D01*
Y25062D01*
X21487Y25112D01*
X21337D01*
X21637Y24812D02*
Y25012D01*
X21737Y25112D01*
X21837Y25012D01*
Y24812D01*
Y24962D01*
X21637D01*
X21937Y25112D02*
X22137D01*
X22037D01*
Y24812D01*
X13069Y23939D02*
X13119Y23988D01*
X13219D01*
X13269Y23939D01*
Y23739D01*
X13219Y23689D01*
X13119D01*
X13069Y23739D01*
Y23939D01*
X13066Y21735D02*
X13266D01*
Y21885D01*
X13166Y21835D01*
X13116D01*
X13066Y21885D01*
Y21985D01*
X13116Y22035D01*
X13216D01*
X13266Y21985D01*
X16869Y23939D02*
X16919Y23988D01*
X17019D01*
X17069Y23939D01*
Y23739D01*
X17019Y23689D01*
X16919D01*
X16869Y23739D01*
Y23939D01*
X16866Y21735D02*
X17066D01*
Y21885D01*
X16966Y21835D01*
X16916D01*
X16866Y21885D01*
Y21985D01*
X16916Y22035D01*
X17016D01*
X17066Y21985D01*
X13069Y27188D02*
X13119Y27238D01*
X13219D01*
X13269Y27188D01*
Y26989D01*
X13219Y26939D01*
X13119D01*
X13069Y26989D01*
Y27188D01*
X13266Y25035D02*
X13216Y24985D01*
X13116D01*
X13066Y25035D01*
Y25085D01*
X13116Y25135D01*
X13066Y25185D01*
Y25235D01*
X13116Y25285D01*
X13216D01*
X13266Y25235D01*
Y25185D01*
X13216Y25135D01*
X13266Y25085D01*
Y25035D01*
X13216Y25135D02*
X13116D01*
X35130Y21478D02*
Y23446D01*
X34933Y21478D02*
X35130D01*
X34933Y23446D02*
X35130D01*
X33594D02*
X34953D01*
X32138D02*
X32650D01*
X30996D02*
X31193D01*
X30996Y23249D02*
Y23446D01*
X30406Y23249D02*
X30996D01*
X30406Y21674D02*
Y23249D01*
Y21674D02*
X30996D01*
Y21478D02*
Y21674D01*
Y21478D02*
X31193D01*
X32138D02*
X32650D01*
X33594D02*
X34933D01*
X35130Y25478D02*
Y27446D01*
X34933Y25478D02*
X35130D01*
X34933Y27446D02*
X35130D01*
X33594D02*
X34953D01*
X32138D02*
X32650D01*
X30996D02*
X31193D01*
X30996Y27249D02*
Y27446D01*
X30406Y27249D02*
X30996D01*
X30406Y25674D02*
Y27249D01*
Y25674D02*
X30996D01*
Y25478D02*
Y25674D01*
Y25478D02*
X31193D01*
X32138D02*
X32650D01*
X33594D02*
X34933D01*
X49325Y25122D02*
X54050D01*
X49325D02*
Y27602D01*
X54050D01*
Y27031D02*
Y27602D01*
X53577Y27031D02*
X54050D01*
X53577Y25693D02*
Y27031D01*
Y25693D02*
X54050D01*
Y25122D02*
Y25693D01*
X38189Y24122D02*
Y24279D01*
X41103D01*
Y24122D02*
Y24279D01*
X38189Y21444D02*
Y21602D01*
Y21444D02*
X41103D01*
Y21602D01*
X39646Y22468D02*
Y23059D01*
X39528Y22862D02*
X39646Y23059D01*
X39764Y22862D01*
X41989Y24122D02*
Y24279D01*
X44903D01*
Y24122D02*
Y24279D01*
X41989Y21444D02*
Y21602D01*
Y21444D02*
X44903D01*
Y21602D01*
X43446Y22468D02*
Y23059D01*
X43328Y22862D02*
X43446Y23059D01*
X43564Y22862D01*
X38189Y27372D02*
Y27529D01*
X41103D01*
Y27372D02*
Y27529D01*
X38189Y24694D02*
Y24852D01*
Y24694D02*
X41103D01*
Y24852D01*
X39646Y25718D02*
Y26309D01*
X39528Y26112D02*
X39646Y26309D01*
X39764Y26112D01*
X42888Y26313D02*
X42947D01*
X41845Y25211D02*
X41904D01*
X42888D02*
X42947D01*
Y26313D01*
X41845D02*
X41904D01*
X41845Y25211D02*
Y26313D01*
X44396Y25012D02*
Y24712D01*
X44296Y25012D02*
X44496D01*
X44532Y24912D02*
Y24712D01*
Y24826D02*
X44546Y24869D01*
X44575Y24897D01*
X44603Y24912D01*
X44646D01*
X44702Y25012D02*
X44716Y24997D01*
X44730Y25012D01*
X44716Y25026D01*
X44702Y25012D01*
X44716Y24912D02*
Y24712D01*
X44783Y24912D02*
Y24769D01*
X44797Y24726D01*
X44826Y24712D01*
X44869D01*
X44897Y24726D01*
X44940Y24769D01*
Y24912D02*
Y24712D01*
X45019Y24912D02*
Y24712D01*
Y24855D02*
X45062Y24897D01*
X45090Y24912D01*
X45133D01*
X45162Y24897D01*
X45176Y24855D01*
Y24712D01*
Y24855D02*
X45219Y24897D01*
X45247Y24912D01*
X45290D01*
X45319Y24897D01*
X45333Y24855D01*
Y24712D01*
X45427Y24912D02*
X45513Y24712D01*
X45599Y24912D02*
X45513Y24712D01*
X45676Y25012D02*
X45690Y24997D01*
X45704Y25012D01*
X45690Y25026D01*
X45676Y25012D01*
X45690Y24912D02*
Y24712D01*
X45993Y25012D02*
X46107Y24712D01*
X46221Y25012D02*
X46107Y24712D01*
X46260Y24955D02*
X46288Y24969D01*
X46331Y25012D01*
Y24712D01*
X46494Y24940D02*
Y24955D01*
X46508Y24983D01*
X46523Y24997D01*
X46551Y25012D01*
X46608D01*
X46637Y24997D01*
X46651Y24983D01*
X46666Y24955D01*
Y24926D01*
X46651Y24897D01*
X46623Y24855D01*
X46480Y24712D01*
X46680D01*
X34496Y24512D02*
X34546Y24562D01*
Y24662D01*
X34496Y24712D01*
X34296D01*
X34246Y24662D01*
Y24562D01*
X34296Y24512D01*
X34246Y24412D02*
Y24312D01*
Y24362D01*
X34546D01*
X34496Y24412D01*
X43246Y25612D02*
Y25312D01*
X43396D01*
X43446Y25362D01*
Y25562D01*
X43396Y25612D01*
X43246D01*
X43546Y25312D02*
X43646D01*
X43596D01*
Y25612D01*
X43546Y25562D01*
X36846Y26212D02*
Y26512D01*
X36996D01*
X37046Y26462D01*
Y26362D01*
X36996Y26312D01*
X36846D01*
X36946D02*
X37046Y26212D01*
X37146D02*
X37246D01*
X37196D01*
Y26512D01*
X37146Y26462D01*
X42046Y27412D02*
X41746D01*
Y27562D01*
X41796Y27612D01*
X41896D01*
X41946Y27562D01*
Y27412D01*
Y27512D02*
X42046Y27612D01*
Y27912D02*
Y27712D01*
X41846Y27912D01*
X41796D01*
X41746Y27862D01*
Y27762D01*
X41796Y27712D01*
X42446Y27412D02*
X42146D01*
Y27562D01*
X42196Y27612D01*
X42296D01*
X42346Y27562D01*
Y27412D01*
Y27512D02*
X42446Y27612D01*
X42196Y27712D02*
X42146Y27762D01*
Y27862D01*
X42196Y27912D01*
X42246D01*
X42296Y27862D01*
Y27812D01*
Y27862D01*
X42346Y27912D01*
X42396D01*
X42446Y27862D01*
Y27762D01*
X42396Y27712D01*
X42846Y27412D02*
X42546D01*
Y27562D01*
X42596Y27612D01*
X42696D01*
X42746Y27562D01*
Y27412D01*
Y27512D02*
X42846Y27612D01*
Y27862D02*
X42546D01*
X42696Y27712D01*
Y27912D01*
X36696Y26312D02*
X36396D01*
Y26462D01*
X36446Y26512D01*
X36546D01*
X36596Y26462D01*
Y26312D01*
Y26412D02*
X36696Y26512D01*
X36396Y26812D02*
Y26612D01*
X36546D01*
X36496Y26712D01*
Y26762D01*
X36546Y26812D01*
X36646D01*
X36696Y26762D01*
Y26662D01*
X36646Y26612D01*
X36296Y26312D02*
X35996D01*
Y26462D01*
X36046Y26512D01*
X36146D01*
X36196Y26462D01*
Y26312D01*
Y26412D02*
X36296Y26512D01*
X35996Y26812D02*
X36046Y26712D01*
X36146Y26612D01*
X36246D01*
X36296Y26662D01*
Y26762D01*
X36246Y26812D01*
X36196D01*
X36146Y26762D01*
Y26612D01*
X37396Y25612D02*
Y25912D01*
X37546D01*
X37596Y25862D01*
Y25762D01*
X37546Y25712D01*
X37396D01*
X37496D02*
X37596Y25612D01*
X37696Y25912D02*
X37896D01*
Y25862D01*
X37696Y25662D01*
Y25612D01*
X39446Y27912D02*
X39396Y27962D01*
X39296D01*
X39246Y27912D01*
Y27862D01*
X39296Y27812D01*
X39396D01*
X39446Y27762D01*
Y27712D01*
X39396Y27662D01*
X39296D01*
X39246Y27712D01*
X39546Y27962D02*
Y27662D01*
X39646Y27762D01*
X39746Y27662D01*
Y27962D01*
X39846Y27662D02*
X39946D01*
X39896D01*
Y27962D01*
X39846Y27912D01*
X39446Y21262D02*
X39396Y21312D01*
X39296D01*
X39246Y21262D01*
Y21212D01*
X39296Y21162D01*
X39396D01*
X39446Y21112D01*
Y21062D01*
X39396Y21012D01*
X39296D01*
X39246Y21062D01*
X39546Y21312D02*
Y21012D01*
X39646Y21112D01*
X39746Y21012D01*
Y21312D01*
X40046Y21012D02*
X39846D01*
X40046Y21212D01*
Y21262D01*
X39996Y21312D01*
X39896D01*
X39846Y21262D01*
X43196D02*
X43146Y21312D01*
X43046D01*
X42996Y21262D01*
Y21212D01*
X43046Y21162D01*
X43146D01*
X43196Y21112D01*
Y21062D01*
X43146Y21012D01*
X43046D01*
X42996Y21062D01*
X43296Y21312D02*
Y21012D01*
X43396Y21112D01*
X43496Y21012D01*
Y21312D01*
X43596Y21262D02*
X43646Y21312D01*
X43746D01*
X43796Y21262D01*
Y21212D01*
X43746Y21162D01*
X43696D01*
X43746D01*
X43796Y21112D01*
Y21062D01*
X43746Y21012D01*
X43646D01*
X43596Y21062D01*
X35196Y25762D02*
Y25512D01*
X35246Y25462D01*
X35346D01*
X35396Y25512D01*
Y25762D01*
X35496Y25462D02*
X35596D01*
X35546D01*
Y25762D01*
X35496Y25712D01*
X53846Y28012D02*
X53796Y28062D01*
X53696D01*
X53646Y28012D01*
Y27812D01*
X53696Y27762D01*
X53796D01*
X53846Y27812D01*
Y27912D01*
X53746D01*
X53946Y27762D02*
Y28062D01*
X54146Y27762D01*
Y28062D01*
X54246D02*
Y27762D01*
X54396D01*
X54446Y27812D01*
Y28012D01*
X54396Y28062D01*
X54246D01*
X50296D02*
Y27762D01*
X50396Y27862D01*
X50496Y27762D01*
Y28062D01*
X50596Y27762D02*
Y27962D01*
X50696Y28062D01*
X50796Y27962D01*
Y27762D01*
Y27912D01*
X50596D01*
X50896Y28062D02*
Y27862D01*
X50996Y27762D01*
X51096Y27862D01*
Y28062D01*
X51396D02*
X51196D01*
Y27762D01*
X51396D01*
X51196Y27912D02*
X51296D01*
X51946Y24962D02*
X51896Y25012D01*
X51796D01*
X51746Y24962D01*
Y24912D01*
X51796Y24862D01*
X51896D01*
X51946Y24812D01*
Y24762D01*
X51896Y24712D01*
X51796D01*
X51746Y24762D01*
X52246Y25012D02*
X52046D01*
Y24712D01*
X52246D01*
X52046Y24862D02*
X52146D01*
X52346Y25012D02*
Y24712D01*
X52546D01*
X32746Y24912D02*
Y24612D01*
X32946D01*
X33046D02*
Y24912D01*
X33196D01*
X33246Y24862D01*
Y24762D01*
X33196Y24712D01*
X33046D01*
X33346Y24912D02*
Y24612D01*
Y24712D01*
X33546Y24912D01*
X33396Y24762D01*
X33546Y24612D01*
X31146Y24562D02*
Y24862D01*
X31296D01*
X31346Y24812D01*
Y24712D01*
X31296Y24662D01*
X31146D01*
X31246D02*
X31346Y24562D01*
X31446Y24862D02*
Y24562D01*
X31596D01*
X31646Y24612D01*
Y24812D01*
X31596Y24862D01*
X31446D01*
X31746D02*
Y24812D01*
X31846Y24712D01*
X31946Y24812D01*
Y24862D01*
X31846Y24712D02*
Y24562D01*
X32046D02*
Y24762D01*
X32196D01*
X32246Y24712D01*
Y24562D01*
X31446Y24312D02*
X31396Y24362D01*
X31296D01*
X31246Y24312D01*
Y24112D01*
X31296Y24062D01*
X31396D01*
X31446Y24112D01*
Y24212D01*
X31346D01*
X31546Y24062D02*
Y24362D01*
X31746Y24062D01*
Y24362D01*
X31846D02*
Y24062D01*
X31996D01*
X32046Y24112D01*
Y24312D01*
X31996Y24362D01*
X31846D01*
X32646Y24312D02*
Y24112D01*
X32746Y24012D01*
X32846Y24112D01*
Y24312D01*
X33146Y24262D02*
X33096Y24312D01*
X32996D01*
X32946Y24262D01*
Y24062D01*
X32996Y24012D01*
X33096D01*
X33146Y24062D01*
X33246Y24012D02*
Y24212D01*
X33346Y24312D01*
X33446Y24212D01*
Y24012D01*
Y24162D01*
X33246D01*
X33546Y24012D02*
Y24312D01*
X33696D01*
X33746Y24262D01*
Y24162D01*
X33696Y24112D01*
X33546D01*
X47896Y28112D02*
X47846Y28162D01*
X47746D01*
X47696Y28112D01*
Y27912D01*
X47746Y27862D01*
X47846D01*
X47896Y27912D01*
Y28012D01*
X47796D01*
X47996Y27862D02*
Y28162D01*
X48196Y27862D01*
Y28162D01*
X48296D02*
Y27862D01*
X48446D01*
X48496Y27912D01*
Y28112D01*
X48446Y28162D01*
X48296D01*
X47796Y25112D02*
Y24812D01*
X47946D01*
X47996Y24862D01*
Y24912D01*
X47946Y24962D01*
X47796D01*
X47946D01*
X47996Y25012D01*
Y25062D01*
X47946Y25112D01*
X47796D01*
X48096Y24812D02*
Y25012D01*
X48196Y25112D01*
X48296Y25012D01*
Y24812D01*
Y24962D01*
X48096D01*
X48396Y25112D02*
X48596D01*
X48496D01*
Y24812D01*
X39528Y23939D02*
X39578Y23988D01*
X39678D01*
X39728Y23939D01*
Y23739D01*
X39678Y23689D01*
X39578D01*
X39528Y23739D01*
Y23939D01*
X39525Y21735D02*
X39725D01*
Y21885D01*
X39625Y21835D01*
X39575D01*
X39525Y21885D01*
Y21985D01*
X39575Y22035D01*
X39675D01*
X39725Y21985D01*
X43328Y23939D02*
X43378Y23988D01*
X43478D01*
X43528Y23939D01*
Y23739D01*
X43478Y23689D01*
X43378D01*
X43328Y23739D01*
Y23939D01*
X43325Y21735D02*
X43525D01*
Y21885D01*
X43425Y21835D01*
X43375D01*
X43325Y21885D01*
Y21985D01*
X43375Y22035D01*
X43475D01*
X43525Y21985D01*
X39528Y27188D02*
X39578Y27238D01*
X39678D01*
X39728Y27188D01*
Y26989D01*
X39678Y26939D01*
X39578D01*
X39528Y26989D01*
Y27188D01*
X39725Y25035D02*
X39675Y24985D01*
X39575D01*
X39525Y25035D01*
Y25085D01*
X39575Y25135D01*
X39525Y25185D01*
Y25235D01*
X39575Y25285D01*
X39675D01*
X39725Y25235D01*
Y25185D01*
X39675Y25135D01*
X39725Y25085D01*
Y25035D01*
X39675Y25135D02*
X39575D01*
X8671Y29865D02*
Y31833D01*
X8474Y29865D02*
X8671D01*
X8474Y31833D02*
X8671D01*
X7135D02*
X8494D01*
X5679D02*
X6191D01*
X4537D02*
X4734D01*
X4537Y31637D02*
Y31833D01*
X3946Y31637D02*
X4537D01*
X3946Y30062D02*
Y31637D01*
Y30062D02*
X4537D01*
Y29865D02*
Y30062D01*
Y29865D02*
X4734D01*
X5679D02*
X6191D01*
X7135D02*
X8474D01*
X8671Y33865D02*
Y35833D01*
X8474Y33865D02*
X8671D01*
X8474Y35833D02*
X8671D01*
X7135D02*
X8494D01*
X5679D02*
X6191D01*
X4537D02*
X4734D01*
X4537Y35637D02*
Y35833D01*
X3946Y35637D02*
X4537D01*
X3946Y34062D02*
Y35637D01*
Y34062D02*
X4537D01*
Y33865D02*
Y34062D01*
Y33865D02*
X4734D01*
X5679D02*
X6191D01*
X7135D02*
X8474D01*
X22866Y33509D02*
X27591D01*
X22866D02*
Y35989D01*
X27591D01*
Y35419D02*
Y35989D01*
X27118Y35419D02*
X27591D01*
X27118Y34080D02*
Y35419D01*
Y34080D02*
X27591D01*
Y33509D02*
Y34080D01*
X11730Y32509D02*
Y32667D01*
X14644D01*
Y32509D02*
Y32667D01*
X11730Y29832D02*
Y29989D01*
Y29832D02*
X14644D01*
Y29989D01*
X13187Y30856D02*
Y31446D01*
X13069Y31249D02*
X13187Y31446D01*
X13305Y31249D01*
X15530Y32509D02*
Y32667D01*
X18444D01*
Y32509D02*
Y32667D01*
X15530Y29832D02*
Y29989D01*
Y29832D02*
X18444D01*
Y29989D01*
X16987Y30856D02*
Y31446D01*
X16869Y31249D02*
X16987Y31446D01*
X17105Y31249D01*
X11730Y35759D02*
Y35917D01*
X14644D01*
Y35759D02*
Y35917D01*
X11730Y33082D02*
Y33239D01*
Y33082D02*
X14644D01*
Y33239D01*
X13187Y34106D02*
Y34696D01*
X13069Y34499D02*
X13187Y34696D01*
X13305Y34499D01*
X16429Y34700D02*
X16488D01*
X15386Y33598D02*
X15445D01*
X16429D02*
X16488D01*
Y34700D01*
X15386D02*
X15445D01*
X15386Y33598D02*
Y34700D01*
X17937Y33399D02*
Y33099D01*
X17837Y33399D02*
X18037D01*
X18073Y33299D02*
Y33099D01*
Y33213D02*
X18087Y33256D01*
X18116Y33285D01*
X18144Y33299D01*
X18187D01*
X18243Y33399D02*
X18257Y33385D01*
X18271Y33399D01*
X18257Y33413D01*
X18243Y33399D01*
X18257Y33299D02*
Y33099D01*
X18324Y33299D02*
Y33156D01*
X18338Y33114D01*
X18367Y33099D01*
X18410D01*
X18438Y33114D01*
X18481Y33156D01*
Y33299D02*
Y33099D01*
X18560Y33299D02*
Y33099D01*
Y33242D02*
X18603Y33285D01*
X18631Y33299D01*
X18674D01*
X18703Y33285D01*
X18717Y33242D01*
Y33099D01*
Y33242D02*
X18760Y33285D01*
X18788Y33299D01*
X18831D01*
X18860Y33285D01*
X18874Y33242D01*
Y33099D01*
X18968Y33299D02*
X19054Y33099D01*
X19140Y33299D02*
X19054Y33099D01*
X19217Y33399D02*
X19231Y33385D01*
X19245Y33399D01*
X19231Y33413D01*
X19217Y33399D01*
X19231Y33299D02*
Y33099D01*
X19534Y33399D02*
X19648Y33099D01*
X19762Y33399D02*
X19648Y33099D01*
X19801Y33342D02*
X19829Y33356D01*
X19872Y33399D01*
Y33099D01*
X20035Y33328D02*
Y33342D01*
X20049Y33371D01*
X20064Y33385D01*
X20092Y33399D01*
X20149D01*
X20178Y33385D01*
X20192Y33371D01*
X20206Y33342D01*
Y33313D01*
X20192Y33285D01*
X20164Y33242D01*
X20021Y33099D01*
X20221D01*
X8037Y32899D02*
X8087Y32949D01*
Y33049D01*
X8037Y33099D01*
X7837D01*
X7787Y33049D01*
Y32949D01*
X7837Y32899D01*
X7787Y32799D02*
Y32699D01*
Y32749D01*
X8087D01*
X8037Y32799D01*
X16787Y33999D02*
Y33699D01*
X16937D01*
X16987Y33749D01*
Y33949D01*
X16937Y33999D01*
X16787D01*
X17087Y33699D02*
X17187D01*
X17137D01*
Y33999D01*
X17087Y33949D01*
X10387Y34599D02*
Y34899D01*
X10537D01*
X10587Y34849D01*
Y34749D01*
X10537Y34699D01*
X10387D01*
X10487D02*
X10587Y34599D01*
X10687D02*
X10787D01*
X10737D01*
Y34899D01*
X10687Y34849D01*
X15587Y35799D02*
X15287D01*
Y35949D01*
X15337Y35999D01*
X15437D01*
X15487Y35949D01*
Y35799D01*
Y35899D02*
X15587Y35999D01*
Y36299D02*
Y36099D01*
X15387Y36299D01*
X15337D01*
X15287Y36249D01*
Y36149D01*
X15337Y36099D01*
X15987Y35799D02*
X15687D01*
Y35949D01*
X15737Y35999D01*
X15837D01*
X15887Y35949D01*
Y35799D01*
Y35899D02*
X15987Y35999D01*
X15737Y36099D02*
X15687Y36149D01*
Y36249D01*
X15737Y36299D01*
X15787D01*
X15837Y36249D01*
Y36199D01*
Y36249D01*
X15887Y36299D01*
X15937D01*
X15987Y36249D01*
Y36149D01*
X15937Y36099D01*
X16387Y35799D02*
X16087D01*
Y35949D01*
X16137Y35999D01*
X16237D01*
X16287Y35949D01*
Y35799D01*
Y35899D02*
X16387Y35999D01*
Y36249D02*
X16087D01*
X16237Y36099D01*
Y36299D01*
X10237Y34699D02*
X9937D01*
Y34849D01*
X9987Y34899D01*
X10087D01*
X10137Y34849D01*
Y34699D01*
Y34799D02*
X10237Y34899D01*
X9937Y35199D02*
Y34999D01*
X10087D01*
X10037Y35099D01*
Y35149D01*
X10087Y35199D01*
X10187D01*
X10237Y35149D01*
Y35049D01*
X10187Y34999D01*
X9837Y34699D02*
X9537D01*
Y34849D01*
X9587Y34899D01*
X9687D01*
X9737Y34849D01*
Y34699D01*
Y34799D02*
X9837Y34899D01*
X9537Y35199D02*
X9587Y35099D01*
X9687Y34999D01*
X9787D01*
X9837Y35049D01*
Y35149D01*
X9787Y35199D01*
X9737D01*
X9687Y35149D01*
Y34999D01*
X10937Y33999D02*
Y34299D01*
X11087D01*
X11137Y34249D01*
Y34149D01*
X11087Y34099D01*
X10937D01*
X11037D02*
X11137Y33999D01*
X11237Y34299D02*
X11437D01*
Y34249D01*
X11237Y34049D01*
Y33999D01*
X12987Y36299D02*
X12937Y36349D01*
X12837D01*
X12787Y36299D01*
Y36249D01*
X12837Y36199D01*
X12937D01*
X12987Y36149D01*
Y36099D01*
X12937Y36049D01*
X12837D01*
X12787Y36099D01*
X13087Y36349D02*
Y36049D01*
X13187Y36149D01*
X13287Y36049D01*
Y36349D01*
X13387Y36049D02*
X13487D01*
X13437D01*
Y36349D01*
X13387Y36299D01*
X12987Y29649D02*
X12937Y29699D01*
X12837D01*
X12787Y29649D01*
Y29599D01*
X12837Y29549D01*
X12937D01*
X12987Y29499D01*
Y29449D01*
X12937Y29399D01*
X12837D01*
X12787Y29449D01*
X13087Y29699D02*
Y29399D01*
X13187Y29499D01*
X13287Y29399D01*
Y29699D01*
X13587Y29399D02*
X13387D01*
X13587Y29599D01*
Y29649D01*
X13537Y29699D01*
X13437D01*
X13387Y29649D01*
X16737D02*
X16687Y29699D01*
X16587D01*
X16537Y29649D01*
Y29599D01*
X16587Y29549D01*
X16687D01*
X16737Y29499D01*
Y29449D01*
X16687Y29399D01*
X16587D01*
X16537Y29449D01*
X16837Y29699D02*
Y29399D01*
X16937Y29499D01*
X17037Y29399D01*
Y29699D01*
X17137Y29649D02*
X17187Y29699D01*
X17287D01*
X17337Y29649D01*
Y29599D01*
X17287Y29549D01*
X17237D01*
X17287D01*
X17337Y29499D01*
Y29449D01*
X17287Y29399D01*
X17187D01*
X17137Y29449D01*
X8737Y34149D02*
Y33899D01*
X8787Y33849D01*
X8887D01*
X8937Y33899D01*
Y34149D01*
X9037Y33849D02*
X9137D01*
X9087D01*
Y34149D01*
X9037Y34099D01*
X27387Y36399D02*
X27337Y36449D01*
X27237D01*
X27187Y36399D01*
Y36199D01*
X27237Y36149D01*
X27337D01*
X27387Y36199D01*
Y36299D01*
X27287D01*
X27487Y36149D02*
Y36449D01*
X27687Y36149D01*
Y36449D01*
X27787D02*
Y36149D01*
X27937D01*
X27987Y36199D01*
Y36399D01*
X27937Y36449D01*
X27787D01*
X23837D02*
Y36149D01*
X23937Y36249D01*
X24037Y36149D01*
Y36449D01*
X24137Y36149D02*
Y36349D01*
X24237Y36449D01*
X24337Y36349D01*
Y36149D01*
Y36299D01*
X24137D01*
X24437Y36449D02*
Y36249D01*
X24537Y36149D01*
X24637Y36249D01*
Y36449D01*
X24937D02*
X24737D01*
Y36149D01*
X24937D01*
X24737Y36299D02*
X24837D01*
X25487Y33349D02*
X25437Y33399D01*
X25337D01*
X25287Y33349D01*
Y33299D01*
X25337Y33249D01*
X25437D01*
X25487Y33199D01*
Y33149D01*
X25437Y33099D01*
X25337D01*
X25287Y33149D01*
X25787Y33399D02*
X25587D01*
Y33099D01*
X25787D01*
X25587Y33249D02*
X25687D01*
X25887Y33399D02*
Y33099D01*
X26087D01*
X6287Y33299D02*
Y32999D01*
X6487D01*
X6587D02*
Y33299D01*
X6737D01*
X6787Y33249D01*
Y33149D01*
X6737Y33099D01*
X6587D01*
X6887Y33299D02*
Y32999D01*
Y33099D01*
X7087Y33299D01*
X6937Y33149D01*
X7087Y32999D01*
X4687Y32949D02*
Y33249D01*
X4837D01*
X4887Y33199D01*
Y33099D01*
X4837Y33049D01*
X4687D01*
X4787D02*
X4887Y32949D01*
X4987Y33249D02*
Y32949D01*
X5137D01*
X5187Y32999D01*
Y33199D01*
X5137Y33249D01*
X4987D01*
X5287D02*
Y33199D01*
X5387Y33099D01*
X5487Y33199D01*
Y33249D01*
X5387Y33099D02*
Y32949D01*
X5587D02*
Y33149D01*
X5737D01*
X5787Y33099D01*
Y32949D01*
X4987Y32699D02*
X4937Y32749D01*
X4837D01*
X4787Y32699D01*
Y32499D01*
X4837Y32449D01*
X4937D01*
X4987Y32499D01*
Y32599D01*
X4887D01*
X5087Y32449D02*
Y32749D01*
X5287Y32449D01*
Y32749D01*
X5387D02*
Y32449D01*
X5537D01*
X5587Y32499D01*
Y32699D01*
X5537Y32749D01*
X5387D01*
X6187Y32699D02*
Y32499D01*
X6287Y32399D01*
X6387Y32499D01*
Y32699D01*
X6687Y32649D02*
X6637Y32699D01*
X6537D01*
X6487Y32649D01*
Y32449D01*
X6537Y32399D01*
X6637D01*
X6687Y32449D01*
X6787Y32399D02*
Y32599D01*
X6887Y32699D01*
X6987Y32599D01*
Y32399D01*
Y32549D01*
X6787D01*
X7087Y32399D02*
Y32699D01*
X7237D01*
X7287Y32649D01*
Y32549D01*
X7237Y32499D01*
X7087D01*
X21437Y36499D02*
X21387Y36549D01*
X21287D01*
X21237Y36499D01*
Y36299D01*
X21287Y36249D01*
X21387D01*
X21437Y36299D01*
Y36399D01*
X21337D01*
X21537Y36249D02*
Y36549D01*
X21737Y36249D01*
Y36549D01*
X21837D02*
Y36249D01*
X21987D01*
X22037Y36299D01*
Y36499D01*
X21987Y36549D01*
X21837D01*
X21337Y33499D02*
Y33199D01*
X21487D01*
X21537Y33249D01*
Y33299D01*
X21487Y33349D01*
X21337D01*
X21487D01*
X21537Y33399D01*
Y33449D01*
X21487Y33499D01*
X21337D01*
X21637Y33199D02*
Y33399D01*
X21737Y33499D01*
X21837Y33399D01*
Y33199D01*
Y33349D01*
X21637D01*
X21937Y33499D02*
X22137D01*
X22037D01*
Y33199D01*
X13069Y32326D02*
X13119Y32376D01*
X13219D01*
X13269Y32326D01*
Y32126D01*
X13219Y32076D01*
X13119D01*
X13069Y32126D01*
Y32326D01*
X13066Y30123D02*
X13266D01*
Y30272D01*
X13166Y30223D01*
X13116D01*
X13066Y30272D01*
Y30372D01*
X13116Y30422D01*
X13216D01*
X13266Y30372D01*
X16869Y32326D02*
X16919Y32376D01*
X17019D01*
X17069Y32326D01*
Y32126D01*
X17019Y32076D01*
X16919D01*
X16869Y32126D01*
Y32326D01*
X16866Y30123D02*
X17066D01*
Y30272D01*
X16966Y30223D01*
X16916D01*
X16866Y30272D01*
Y30372D01*
X16916Y30422D01*
X17016D01*
X17066Y30372D01*
X13069Y35576D02*
X13119Y35626D01*
X13219D01*
X13269Y35576D01*
Y35376D01*
X13219Y35326D01*
X13119D01*
X13069Y35376D01*
Y35576D01*
X13266Y33423D02*
X13216Y33373D01*
X13116D01*
X13066Y33423D01*
Y33473D01*
X13116Y33522D01*
X13066Y33572D01*
Y33622D01*
X13116Y33672D01*
X13216D01*
X13266Y33622D01*
Y33572D01*
X13216Y33522D01*
X13266Y33473D01*
Y33423D01*
X13216Y33522D02*
X13116D01*
X35130Y29865D02*
Y31833D01*
X34933Y29865D02*
X35130D01*
X34933Y31833D02*
X35130D01*
X33594D02*
X34953D01*
X32138D02*
X32650D01*
X30996D02*
X31193D01*
X30996Y31637D02*
Y31833D01*
X30406Y31637D02*
X30996D01*
X30406Y30062D02*
Y31637D01*
Y30062D02*
X30996D01*
Y29865D02*
Y30062D01*
Y29865D02*
X31193D01*
X32138D02*
X32650D01*
X33594D02*
X34933D01*
X35130Y33865D02*
Y35833D01*
X34933Y33865D02*
X35130D01*
X34933Y35833D02*
X35130D01*
X33594D02*
X34953D01*
X32138D02*
X32650D01*
X30996D02*
X31193D01*
X30996Y35637D02*
Y35833D01*
X30406Y35637D02*
X30996D01*
X30406Y34062D02*
Y35637D01*
Y34062D02*
X30996D01*
Y33865D02*
Y34062D01*
Y33865D02*
X31193D01*
X32138D02*
X32650D01*
X33594D02*
X34933D01*
X49325Y33509D02*
X54050D01*
X49325D02*
Y35989D01*
X54050D01*
Y35419D02*
Y35989D01*
X53577Y35419D02*
X54050D01*
X53577Y34080D02*
Y35419D01*
Y34080D02*
X54050D01*
Y33509D02*
Y34080D01*
X38189Y32509D02*
Y32667D01*
X41103D01*
Y32509D02*
Y32667D01*
X38189Y29832D02*
Y29989D01*
Y29832D02*
X41103D01*
Y29989D01*
X39646Y30856D02*
Y31446D01*
X39528Y31249D02*
X39646Y31446D01*
X39764Y31249D01*
X41989Y32509D02*
Y32667D01*
X44903D01*
Y32509D02*
Y32667D01*
X41989Y29832D02*
Y29989D01*
Y29832D02*
X44903D01*
Y29989D01*
X43446Y30856D02*
Y31446D01*
X43328Y31249D02*
X43446Y31446D01*
X43564Y31249D01*
X38189Y35759D02*
Y35917D01*
X41103D01*
Y35759D02*
Y35917D01*
X38189Y33082D02*
Y33239D01*
Y33082D02*
X41103D01*
Y33239D01*
X39646Y34106D02*
Y34696D01*
X39528Y34499D02*
X39646Y34696D01*
X39764Y34499D01*
X42888Y34700D02*
X42947D01*
X41845Y33598D02*
X41904D01*
X42888D02*
X42947D01*
Y34700D01*
X41845D02*
X41904D01*
X41845Y33598D02*
Y34700D01*
X44396Y33399D02*
Y33099D01*
X44296Y33399D02*
X44496D01*
X44532Y33299D02*
Y33099D01*
Y33213D02*
X44546Y33256D01*
X44575Y33285D01*
X44603Y33299D01*
X44646D01*
X44702Y33399D02*
X44716Y33385D01*
X44730Y33399D01*
X44716Y33413D01*
X44702Y33399D01*
X44716Y33299D02*
Y33099D01*
X44783Y33299D02*
Y33156D01*
X44797Y33114D01*
X44826Y33099D01*
X44869D01*
X44897Y33114D01*
X44940Y33156D01*
Y33299D02*
Y33099D01*
X45019Y33299D02*
Y33099D01*
Y33242D02*
X45062Y33285D01*
X45090Y33299D01*
X45133D01*
X45162Y33285D01*
X45176Y33242D01*
Y33099D01*
Y33242D02*
X45219Y33285D01*
X45247Y33299D01*
X45290D01*
X45319Y33285D01*
X45333Y33242D01*
Y33099D01*
X45427Y33299D02*
X45513Y33099D01*
X45599Y33299D02*
X45513Y33099D01*
X45676Y33399D02*
X45690Y33385D01*
X45704Y33399D01*
X45690Y33413D01*
X45676Y33399D01*
X45690Y33299D02*
Y33099D01*
X45993Y33399D02*
X46107Y33099D01*
X46221Y33399D02*
X46107Y33099D01*
X46260Y33342D02*
X46288Y33356D01*
X46331Y33399D01*
Y33099D01*
X46494Y33328D02*
Y33342D01*
X46508Y33371D01*
X46523Y33385D01*
X46551Y33399D01*
X46608D01*
X46637Y33385D01*
X46651Y33371D01*
X46666Y33342D01*
Y33313D01*
X46651Y33285D01*
X46623Y33242D01*
X46480Y33099D01*
X46680D01*
X34496Y32899D02*
X34546Y32949D01*
Y33049D01*
X34496Y33099D01*
X34296D01*
X34246Y33049D01*
Y32949D01*
X34296Y32899D01*
X34246Y32799D02*
Y32699D01*
Y32749D01*
X34546D01*
X34496Y32799D01*
X43246Y33999D02*
Y33699D01*
X43396D01*
X43446Y33749D01*
Y33949D01*
X43396Y33999D01*
X43246D01*
X43546Y33699D02*
X43646D01*
X43596D01*
Y33999D01*
X43546Y33949D01*
X36846Y34599D02*
Y34899D01*
X36996D01*
X37046Y34849D01*
Y34749D01*
X36996Y34699D01*
X36846D01*
X36946D02*
X37046Y34599D01*
X37146D02*
X37246D01*
X37196D01*
Y34899D01*
X37146Y34849D01*
X42046Y35799D02*
X41746D01*
Y35949D01*
X41796Y35999D01*
X41896D01*
X41946Y35949D01*
Y35799D01*
Y35899D02*
X42046Y35999D01*
Y36299D02*
Y36099D01*
X41846Y36299D01*
X41796D01*
X41746Y36249D01*
Y36149D01*
X41796Y36099D01*
X42446Y35799D02*
X42146D01*
Y35949D01*
X42196Y35999D01*
X42296D01*
X42346Y35949D01*
Y35799D01*
Y35899D02*
X42446Y35999D01*
X42196Y36099D02*
X42146Y36149D01*
Y36249D01*
X42196Y36299D01*
X42246D01*
X42296Y36249D01*
Y36199D01*
Y36249D01*
X42346Y36299D01*
X42396D01*
X42446Y36249D01*
Y36149D01*
X42396Y36099D01*
X42846Y35799D02*
X42546D01*
Y35949D01*
X42596Y35999D01*
X42696D01*
X42746Y35949D01*
Y35799D01*
Y35899D02*
X42846Y35999D01*
Y36249D02*
X42546D01*
X42696Y36099D01*
Y36299D01*
X36696Y34699D02*
X36396D01*
Y34849D01*
X36446Y34899D01*
X36546D01*
X36596Y34849D01*
Y34699D01*
Y34799D02*
X36696Y34899D01*
X36396Y35199D02*
Y34999D01*
X36546D01*
X36496Y35099D01*
Y35149D01*
X36546Y35199D01*
X36646D01*
X36696Y35149D01*
Y35049D01*
X36646Y34999D01*
X36296Y34699D02*
X35996D01*
Y34849D01*
X36046Y34899D01*
X36146D01*
X36196Y34849D01*
Y34699D01*
Y34799D02*
X36296Y34899D01*
X35996Y35199D02*
X36046Y35099D01*
X36146Y34999D01*
X36246D01*
X36296Y35049D01*
Y35149D01*
X36246Y35199D01*
X36196D01*
X36146Y35149D01*
Y34999D01*
X37396Y33999D02*
Y34299D01*
X37546D01*
X37596Y34249D01*
Y34149D01*
X37546Y34099D01*
X37396D01*
X37496D02*
X37596Y33999D01*
X37696Y34299D02*
X37896D01*
Y34249D01*
X37696Y34049D01*
Y33999D01*
X39446Y36299D02*
X39396Y36349D01*
X39296D01*
X39246Y36299D01*
Y36249D01*
X39296Y36199D01*
X39396D01*
X39446Y36149D01*
Y36099D01*
X39396Y36049D01*
X39296D01*
X39246Y36099D01*
X39546Y36349D02*
Y36049D01*
X39646Y36149D01*
X39746Y36049D01*
Y36349D01*
X39846Y36049D02*
X39946D01*
X39896D01*
Y36349D01*
X39846Y36299D01*
X39446Y29649D02*
X39396Y29699D01*
X39296D01*
X39246Y29649D01*
Y29599D01*
X39296Y29549D01*
X39396D01*
X39446Y29499D01*
Y29449D01*
X39396Y29399D01*
X39296D01*
X39246Y29449D01*
X39546Y29699D02*
Y29399D01*
X39646Y29499D01*
X39746Y29399D01*
Y29699D01*
X40046Y29399D02*
X39846D01*
X40046Y29599D01*
Y29649D01*
X39996Y29699D01*
X39896D01*
X39846Y29649D01*
X43196D02*
X43146Y29699D01*
X43046D01*
X42996Y29649D01*
Y29599D01*
X43046Y29549D01*
X43146D01*
X43196Y29499D01*
Y29449D01*
X43146Y29399D01*
X43046D01*
X42996Y29449D01*
X43296Y29699D02*
Y29399D01*
X43396Y29499D01*
X43496Y29399D01*
Y29699D01*
X43596Y29649D02*
X43646Y29699D01*
X43746D01*
X43796Y29649D01*
Y29599D01*
X43746Y29549D01*
X43696D01*
X43746D01*
X43796Y29499D01*
Y29449D01*
X43746Y29399D01*
X43646D01*
X43596Y29449D01*
X35196Y34149D02*
Y33899D01*
X35246Y33849D01*
X35346D01*
X35396Y33899D01*
Y34149D01*
X35496Y33849D02*
X35596D01*
X35546D01*
Y34149D01*
X35496Y34099D01*
X53846Y36399D02*
X53796Y36449D01*
X53696D01*
X53646Y36399D01*
Y36199D01*
X53696Y36149D01*
X53796D01*
X53846Y36199D01*
Y36299D01*
X53746D01*
X53946Y36149D02*
Y36449D01*
X54146Y36149D01*
Y36449D01*
X54246D02*
Y36149D01*
X54396D01*
X54446Y36199D01*
Y36399D01*
X54396Y36449D01*
X54246D01*
X50296D02*
Y36149D01*
X50396Y36249D01*
X50496Y36149D01*
Y36449D01*
X50596Y36149D02*
Y36349D01*
X50696Y36449D01*
X50796Y36349D01*
Y36149D01*
Y36299D01*
X50596D01*
X50896Y36449D02*
Y36249D01*
X50996Y36149D01*
X51096Y36249D01*
Y36449D01*
X51396D02*
X51196D01*
Y36149D01*
X51396D01*
X51196Y36299D02*
X51296D01*
X51946Y33349D02*
X51896Y33399D01*
X51796D01*
X51746Y33349D01*
Y33299D01*
X51796Y33249D01*
X51896D01*
X51946Y33199D01*
Y33149D01*
X51896Y33099D01*
X51796D01*
X51746Y33149D01*
X52246Y33399D02*
X52046D01*
Y33099D01*
X52246D01*
X52046Y33249D02*
X52146D01*
X52346Y33399D02*
Y33099D01*
X52546D01*
X32746Y33299D02*
Y32999D01*
X32946D01*
X33046D02*
Y33299D01*
X33196D01*
X33246Y33249D01*
Y33149D01*
X33196Y33099D01*
X33046D01*
X33346Y33299D02*
Y32999D01*
Y33099D01*
X33546Y33299D01*
X33396Y33149D01*
X33546Y32999D01*
X31146Y32949D02*
Y33249D01*
X31296D01*
X31346Y33199D01*
Y33099D01*
X31296Y33049D01*
X31146D01*
X31246D02*
X31346Y32949D01*
X31446Y33249D02*
Y32949D01*
X31596D01*
X31646Y32999D01*
Y33199D01*
X31596Y33249D01*
X31446D01*
X31746D02*
Y33199D01*
X31846Y33099D01*
X31946Y33199D01*
Y33249D01*
X31846Y33099D02*
Y32949D01*
X32046D02*
Y33149D01*
X32196D01*
X32246Y33099D01*
Y32949D01*
X31446Y32699D02*
X31396Y32749D01*
X31296D01*
X31246Y32699D01*
Y32499D01*
X31296Y32449D01*
X31396D01*
X31446Y32499D01*
Y32599D01*
X31346D01*
X31546Y32449D02*
Y32749D01*
X31746Y32449D01*
Y32749D01*
X31846D02*
Y32449D01*
X31996D01*
X32046Y32499D01*
Y32699D01*
X31996Y32749D01*
X31846D01*
X32646Y32699D02*
Y32499D01*
X32746Y32399D01*
X32846Y32499D01*
Y32699D01*
X33146Y32649D02*
X33096Y32699D01*
X32996D01*
X32946Y32649D01*
Y32449D01*
X32996Y32399D01*
X33096D01*
X33146Y32449D01*
X33246Y32399D02*
Y32599D01*
X33346Y32699D01*
X33446Y32599D01*
Y32399D01*
Y32549D01*
X33246D01*
X33546Y32399D02*
Y32699D01*
X33696D01*
X33746Y32649D01*
Y32549D01*
X33696Y32499D01*
X33546D01*
X47896Y36499D02*
X47846Y36549D01*
X47746D01*
X47696Y36499D01*
Y36299D01*
X47746Y36249D01*
X47846D01*
X47896Y36299D01*
Y36399D01*
X47796D01*
X47996Y36249D02*
Y36549D01*
X48196Y36249D01*
Y36549D01*
X48296D02*
Y36249D01*
X48446D01*
X48496Y36299D01*
Y36499D01*
X48446Y36549D01*
X48296D01*
X47796Y33499D02*
Y33199D01*
X47946D01*
X47996Y33249D01*
Y33299D01*
X47946Y33349D01*
X47796D01*
X47946D01*
X47996Y33399D01*
Y33449D01*
X47946Y33499D01*
X47796D01*
X48096Y33199D02*
Y33399D01*
X48196Y33499D01*
X48296Y33399D01*
Y33199D01*
Y33349D01*
X48096D01*
X48396Y33499D02*
X48596D01*
X48496D01*
Y33199D01*
X39528Y32326D02*
X39578Y32376D01*
X39678D01*
X39728Y32326D01*
Y32126D01*
X39678Y32076D01*
X39578D01*
X39528Y32126D01*
Y32326D01*
X39525Y30123D02*
X39725D01*
Y30272D01*
X39625Y30223D01*
X39575D01*
X39525Y30272D01*
Y30372D01*
X39575Y30422D01*
X39675D01*
X39725Y30372D01*
X43328Y32326D02*
X43378Y32376D01*
X43478D01*
X43528Y32326D01*
Y32126D01*
X43478Y32076D01*
X43378D01*
X43328Y32126D01*
Y32326D01*
X43325Y30123D02*
X43525D01*
Y30272D01*
X43425Y30223D01*
X43375D01*
X43325Y30272D01*
Y30372D01*
X43375Y30422D01*
X43475D01*
X43525Y30372D01*
X39528Y35576D02*
X39578Y35626D01*
X39678D01*
X39728Y35576D01*
Y35376D01*
X39678Y35326D01*
X39578D01*
X39528Y35376D01*
Y35576D01*
X39725Y33423D02*
X39675Y33373D01*
X39575D01*
X39525Y33423D01*
Y33473D01*
X39575Y33522D01*
X39525Y33572D01*
Y33622D01*
X39575Y33672D01*
X39675D01*
X39725Y33622D01*
Y33572D01*
X39675Y33522D01*
X39725Y33473D01*
Y33423D01*
X39675Y33522D02*
X39575D01*
X8671Y38252D02*
Y40221D01*
X8474Y38252D02*
X8671D01*
X8474Y40221D02*
X8671D01*
X7135D02*
X8494D01*
X5679D02*
X6191D01*
X4537D02*
X4734D01*
X4537Y40024D02*
Y40221D01*
X3946Y40024D02*
X4537D01*
X3946Y38449D02*
Y40024D01*
Y38449D02*
X4537D01*
Y38252D02*
Y38449D01*
Y38252D02*
X4734D01*
X5679D02*
X6191D01*
X7135D02*
X8474D01*
X8671Y42252D02*
Y44221D01*
X8474Y42252D02*
X8671D01*
X8474Y44221D02*
X8671D01*
X7135D02*
X8494D01*
X5679D02*
X6191D01*
X4537D02*
X4734D01*
X4537Y44024D02*
Y44221D01*
X3946Y44024D02*
X4537D01*
X3946Y42449D02*
Y44024D01*
Y42449D02*
X4537D01*
Y42252D02*
Y42449D01*
Y42252D02*
X4734D01*
X5679D02*
X6191D01*
X7135D02*
X8474D01*
X22866Y41896D02*
X27591D01*
X22866D02*
Y44377D01*
X27591D01*
Y43806D02*
Y44377D01*
X27118Y43806D02*
X27591D01*
X27118Y42467D02*
Y43806D01*
Y42467D02*
X27591D01*
Y41896D02*
Y42467D01*
X11730Y40896D02*
Y41054D01*
X14644D01*
Y40896D02*
Y41054D01*
X11730Y38219D02*
Y38377D01*
Y38219D02*
X14644D01*
Y38377D01*
X13187Y39243D02*
Y39833D01*
X13069Y39637D02*
X13187Y39833D01*
X13305Y39637D01*
X15530Y40896D02*
Y41054D01*
X18444D01*
Y40896D02*
Y41054D01*
X15530Y38219D02*
Y38377D01*
Y38219D02*
X18444D01*
Y38377D01*
X16987Y39243D02*
Y39833D01*
X16869Y39637D02*
X16987Y39833D01*
X17105Y39637D01*
X11730Y44146D02*
Y44304D01*
X14644D01*
Y44146D02*
Y44304D01*
X11730Y41469D02*
Y41627D01*
Y41469D02*
X14644D01*
Y41627D01*
X13187Y42493D02*
Y43083D01*
X13069Y42887D02*
X13187Y43083D01*
X13305Y42887D01*
X16429Y43088D02*
X16488D01*
X15386Y41985D02*
X15445D01*
X16429D02*
X16488D01*
Y43088D01*
X15386D02*
X15445D01*
X15386Y41985D02*
Y43088D01*
X17937Y41787D02*
Y41487D01*
X17837Y41787D02*
X18037D01*
X18073Y41687D02*
Y41487D01*
Y41601D02*
X18087Y41644D01*
X18116Y41672D01*
X18144Y41687D01*
X18187D01*
X18243Y41787D02*
X18257Y41772D01*
X18271Y41787D01*
X18257Y41801D01*
X18243Y41787D01*
X18257Y41687D02*
Y41487D01*
X18324Y41687D02*
Y41544D01*
X18338Y41501D01*
X18367Y41487D01*
X18410D01*
X18438Y41501D01*
X18481Y41544D01*
Y41687D02*
Y41487D01*
X18560Y41687D02*
Y41487D01*
Y41629D02*
X18603Y41672D01*
X18631Y41687D01*
X18674D01*
X18703Y41672D01*
X18717Y41629D01*
Y41487D01*
Y41629D02*
X18760Y41672D01*
X18788Y41687D01*
X18831D01*
X18860Y41672D01*
X18874Y41629D01*
Y41487D01*
X18968Y41687D02*
X19054Y41487D01*
X19140Y41687D02*
X19054Y41487D01*
X19217Y41787D02*
X19231Y41772D01*
X19245Y41787D01*
X19231Y41801D01*
X19217Y41787D01*
X19231Y41687D02*
Y41487D01*
X19534Y41787D02*
X19648Y41487D01*
X19762Y41787D02*
X19648Y41487D01*
X19801Y41729D02*
X19829Y41744D01*
X19872Y41787D01*
Y41487D01*
X20035Y41715D02*
Y41729D01*
X20049Y41758D01*
X20064Y41772D01*
X20092Y41787D01*
X20149D01*
X20178Y41772D01*
X20192Y41758D01*
X20206Y41729D01*
Y41701D01*
X20192Y41672D01*
X20164Y41629D01*
X20021Y41487D01*
X20221D01*
X8037Y41287D02*
X8087Y41337D01*
Y41437D01*
X8037Y41487D01*
X7837D01*
X7787Y41437D01*
Y41337D01*
X7837Y41287D01*
X7787Y41187D02*
Y41087D01*
Y41137D01*
X8087D01*
X8037Y41187D01*
X16787Y42387D02*
Y42087D01*
X16937D01*
X16987Y42137D01*
Y42337D01*
X16937Y42387D01*
X16787D01*
X17087Y42087D02*
X17187D01*
X17137D01*
Y42387D01*
X17087Y42337D01*
X10387Y42987D02*
Y43287D01*
X10537D01*
X10587Y43237D01*
Y43137D01*
X10537Y43087D01*
X10387D01*
X10487D02*
X10587Y42987D01*
X10687D02*
X10787D01*
X10737D01*
Y43287D01*
X10687Y43237D01*
X15587Y44187D02*
X15287D01*
Y44337D01*
X15337Y44387D01*
X15437D01*
X15487Y44337D01*
Y44187D01*
Y44287D02*
X15587Y44387D01*
Y44686D02*
Y44487D01*
X15387Y44686D01*
X15337D01*
X15287Y44636D01*
Y44536D01*
X15337Y44487D01*
X15987Y44187D02*
X15687D01*
Y44337D01*
X15737Y44387D01*
X15837D01*
X15887Y44337D01*
Y44187D01*
Y44287D02*
X15987Y44387D01*
X15737Y44487D02*
X15687Y44536D01*
Y44636D01*
X15737Y44686D01*
X15787D01*
X15837Y44636D01*
Y44586D01*
Y44636D01*
X15887Y44686D01*
X15937D01*
X15987Y44636D01*
Y44536D01*
X15937Y44487D01*
X16387Y44187D02*
X16087D01*
Y44337D01*
X16137Y44387D01*
X16237D01*
X16287Y44337D01*
Y44187D01*
Y44287D02*
X16387Y44387D01*
Y44636D02*
X16087D01*
X16237Y44487D01*
Y44686D01*
X10237Y43087D02*
X9937D01*
Y43237D01*
X9987Y43287D01*
X10087D01*
X10137Y43237D01*
Y43087D01*
Y43187D02*
X10237Y43287D01*
X9937Y43586D02*
Y43387D01*
X10087D01*
X10037Y43486D01*
Y43536D01*
X10087Y43586D01*
X10187D01*
X10237Y43536D01*
Y43436D01*
X10187Y43387D01*
X9837Y43087D02*
X9537D01*
Y43237D01*
X9587Y43287D01*
X9687D01*
X9737Y43237D01*
Y43087D01*
Y43187D02*
X9837Y43287D01*
X9537Y43586D02*
X9587Y43486D01*
X9687Y43387D01*
X9787D01*
X9837Y43436D01*
Y43536D01*
X9787Y43586D01*
X9737D01*
X9687Y43536D01*
Y43387D01*
X10937Y42387D02*
Y42687D01*
X11087D01*
X11137Y42637D01*
Y42537D01*
X11087Y42487D01*
X10937D01*
X11037D02*
X11137Y42387D01*
X11237Y42687D02*
X11437D01*
Y42637D01*
X11237Y42437D01*
Y42387D01*
X12987Y44687D02*
X12937Y44737D01*
X12837D01*
X12787Y44687D01*
Y44637D01*
X12837Y44587D01*
X12937D01*
X12987Y44537D01*
Y44487D01*
X12937Y44437D01*
X12837D01*
X12787Y44487D01*
X13087Y44737D02*
Y44437D01*
X13187Y44537D01*
X13287Y44437D01*
Y44737D01*
X13387Y44437D02*
X13487D01*
X13437D01*
Y44737D01*
X13387Y44687D01*
X12987Y38037D02*
X12937Y38087D01*
X12837D01*
X12787Y38037D01*
Y37987D01*
X12837Y37937D01*
X12937D01*
X12987Y37887D01*
Y37837D01*
X12937Y37787D01*
X12837D01*
X12787Y37837D01*
X13087Y38087D02*
Y37787D01*
X13187Y37887D01*
X13287Y37787D01*
Y38087D01*
X13587Y37787D02*
X13387D01*
X13587Y37987D01*
Y38037D01*
X13537Y38087D01*
X13437D01*
X13387Y38037D01*
X16737D02*
X16687Y38087D01*
X16587D01*
X16537Y38037D01*
Y37987D01*
X16587Y37937D01*
X16687D01*
X16737Y37887D01*
Y37837D01*
X16687Y37787D01*
X16587D01*
X16537Y37837D01*
X16837Y38087D02*
Y37787D01*
X16937Y37887D01*
X17037Y37787D01*
Y38087D01*
X17137Y38037D02*
X17187Y38087D01*
X17287D01*
X17337Y38037D01*
Y37987D01*
X17287Y37937D01*
X17237D01*
X17287D01*
X17337Y37887D01*
Y37837D01*
X17287Y37787D01*
X17187D01*
X17137Y37837D01*
X8737Y42537D02*
Y42287D01*
X8787Y42237D01*
X8887D01*
X8937Y42287D01*
Y42537D01*
X9037Y42237D02*
X9137D01*
X9087D01*
Y42537D01*
X9037Y42487D01*
X27387Y44787D02*
X27337Y44837D01*
X27237D01*
X27187Y44787D01*
Y44587D01*
X27237Y44537D01*
X27337D01*
X27387Y44587D01*
Y44687D01*
X27287D01*
X27487Y44537D02*
Y44837D01*
X27687Y44537D01*
Y44837D01*
X27787D02*
Y44537D01*
X27937D01*
X27987Y44587D01*
Y44787D01*
X27937Y44837D01*
X27787D01*
X23837D02*
Y44537D01*
X23937Y44637D01*
X24037Y44537D01*
Y44837D01*
X24137Y44537D02*
Y44737D01*
X24237Y44837D01*
X24337Y44737D01*
Y44537D01*
Y44687D01*
X24137D01*
X24437Y44837D02*
Y44637D01*
X24537Y44537D01*
X24637Y44637D01*
Y44837D01*
X24937D02*
X24737D01*
Y44537D01*
X24937D01*
X24737Y44687D02*
X24837D01*
X25487Y41737D02*
X25437Y41787D01*
X25337D01*
X25287Y41737D01*
Y41687D01*
X25337Y41637D01*
X25437D01*
X25487Y41587D01*
Y41537D01*
X25437Y41487D01*
X25337D01*
X25287Y41537D01*
X25787Y41787D02*
X25587D01*
Y41487D01*
X25787D01*
X25587Y41637D02*
X25687D01*
X25887Y41787D02*
Y41487D01*
X26087D01*
X6287Y41687D02*
Y41387D01*
X6487D01*
X6587D02*
Y41687D01*
X6737D01*
X6787Y41637D01*
Y41537D01*
X6737Y41487D01*
X6587D01*
X6887Y41687D02*
Y41387D01*
Y41487D01*
X7087Y41687D01*
X6937Y41537D01*
X7087Y41387D01*
X4687Y41337D02*
Y41637D01*
X4837D01*
X4887Y41587D01*
Y41487D01*
X4837Y41437D01*
X4687D01*
X4787D02*
X4887Y41337D01*
X4987Y41637D02*
Y41337D01*
X5137D01*
X5187Y41387D01*
Y41587D01*
X5137Y41637D01*
X4987D01*
X5287D02*
Y41587D01*
X5387Y41487D01*
X5487Y41587D01*
Y41637D01*
X5387Y41487D02*
Y41337D01*
X5587D02*
Y41537D01*
X5737D01*
X5787Y41487D01*
Y41337D01*
X4987Y41087D02*
X4937Y41137D01*
X4837D01*
X4787Y41087D01*
Y40887D01*
X4837Y40837D01*
X4937D01*
X4987Y40887D01*
Y40987D01*
X4887D01*
X5087Y40837D02*
Y41137D01*
X5287Y40837D01*
Y41137D01*
X5387D02*
Y40837D01*
X5537D01*
X5587Y40887D01*
Y41087D01*
X5537Y41137D01*
X5387D01*
X6187Y41087D02*
Y40887D01*
X6287Y40787D01*
X6387Y40887D01*
Y41087D01*
X6687Y41037D02*
X6637Y41087D01*
X6537D01*
X6487Y41037D01*
Y40837D01*
X6537Y40787D01*
X6637D01*
X6687Y40837D01*
X6787Y40787D02*
Y40987D01*
X6887Y41087D01*
X6987Y40987D01*
Y40787D01*
Y40937D01*
X6787D01*
X7087Y40787D02*
Y41087D01*
X7237D01*
X7287Y41037D01*
Y40937D01*
X7237Y40887D01*
X7087D01*
X21437Y44887D02*
X21387Y44937D01*
X21287D01*
X21237Y44887D01*
Y44687D01*
X21287Y44637D01*
X21387D01*
X21437Y44687D01*
Y44787D01*
X21337D01*
X21537Y44637D02*
Y44937D01*
X21737Y44637D01*
Y44937D01*
X21837D02*
Y44637D01*
X21987D01*
X22037Y44687D01*
Y44887D01*
X21987Y44937D01*
X21837D01*
X21337Y41887D02*
Y41587D01*
X21487D01*
X21537Y41637D01*
Y41687D01*
X21487Y41737D01*
X21337D01*
X21487D01*
X21537Y41787D01*
Y41837D01*
X21487Y41887D01*
X21337D01*
X21637Y41587D02*
Y41787D01*
X21737Y41887D01*
X21837Y41787D01*
Y41587D01*
Y41737D01*
X21637D01*
X21937Y41887D02*
X22137D01*
X22037D01*
Y41587D01*
X13069Y40713D02*
X13119Y40763D01*
X13219D01*
X13269Y40713D01*
Y40513D01*
X13219Y40463D01*
X13119D01*
X13069Y40513D01*
Y40713D01*
X13066Y38510D02*
X13266D01*
Y38660D01*
X13166Y38610D01*
X13116D01*
X13066Y38660D01*
Y38760D01*
X13116Y38810D01*
X13216D01*
X13266Y38760D01*
X16869Y40713D02*
X16919Y40763D01*
X17019D01*
X17069Y40713D01*
Y40513D01*
X17019Y40463D01*
X16919D01*
X16869Y40513D01*
Y40713D01*
X16866Y38510D02*
X17066D01*
Y38660D01*
X16966Y38610D01*
X16916D01*
X16866Y38660D01*
Y38760D01*
X16916Y38810D01*
X17016D01*
X17066Y38760D01*
X13069Y43963D02*
X13119Y44013D01*
X13219D01*
X13269Y43963D01*
Y43763D01*
X13219Y43713D01*
X13119D01*
X13069Y43763D01*
Y43963D01*
X13266Y41810D02*
X13216Y41760D01*
X13116D01*
X13066Y41810D01*
Y41860D01*
X13116Y41910D01*
X13066Y41960D01*
Y42010D01*
X13116Y42060D01*
X13216D01*
X13266Y42010D01*
Y41960D01*
X13216Y41910D01*
X13266Y41860D01*
Y41810D01*
X13216Y41910D02*
X13116D01*
X35130Y38252D02*
Y40221D01*
X34933Y38252D02*
X35130D01*
X34933Y40221D02*
X35130D01*
X33594D02*
X34953D01*
X32138D02*
X32650D01*
X30996D02*
X31193D01*
X30996Y40024D02*
Y40221D01*
X30406Y40024D02*
X30996D01*
X30406Y38449D02*
Y40024D01*
Y38449D02*
X30996D01*
Y38252D02*
Y38449D01*
Y38252D02*
X31193D01*
X32138D02*
X32650D01*
X33594D02*
X34933D01*
X35130Y42252D02*
Y44221D01*
X34933Y42252D02*
X35130D01*
X34933Y44221D02*
X35130D01*
X33594D02*
X34953D01*
X32138D02*
X32650D01*
X30996D02*
X31193D01*
X30996Y44024D02*
Y44221D01*
X30406Y44024D02*
X30996D01*
X30406Y42449D02*
Y44024D01*
Y42449D02*
X30996D01*
Y42252D02*
Y42449D01*
Y42252D02*
X31193D01*
X32138D02*
X32650D01*
X33594D02*
X34933D01*
X49325Y41896D02*
X54050D01*
X49325D02*
Y44377D01*
X54050D01*
Y43806D02*
Y44377D01*
X53577Y43806D02*
X54050D01*
X53577Y42467D02*
Y43806D01*
Y42467D02*
X54050D01*
Y41896D02*
Y42467D01*
X38189Y40896D02*
Y41054D01*
X41103D01*
Y40896D02*
Y41054D01*
X38189Y38219D02*
Y38377D01*
Y38219D02*
X41103D01*
Y38377D01*
X39646Y39243D02*
Y39833D01*
X39528Y39637D02*
X39646Y39833D01*
X39764Y39637D01*
X41989Y40896D02*
Y41054D01*
X44903D01*
Y40896D02*
Y41054D01*
X41989Y38219D02*
Y38377D01*
Y38219D02*
X44903D01*
Y38377D01*
X43446Y39243D02*
Y39833D01*
X43328Y39637D02*
X43446Y39833D01*
X43564Y39637D01*
X38189Y44146D02*
Y44304D01*
X41103D01*
Y44146D02*
Y44304D01*
X38189Y41469D02*
Y41627D01*
Y41469D02*
X41103D01*
Y41627D01*
X39646Y42493D02*
Y43083D01*
X39528Y42887D02*
X39646Y43083D01*
X39764Y42887D01*
X42888Y43088D02*
X42947D01*
X41845Y41985D02*
X41904D01*
X42888D02*
X42947D01*
Y43088D01*
X41845D02*
X41904D01*
X41845Y41985D02*
Y43088D01*
X44396Y41787D02*
Y41487D01*
X44296Y41787D02*
X44496D01*
X44532Y41687D02*
Y41487D01*
Y41601D02*
X44546Y41644D01*
X44575Y41672D01*
X44603Y41687D01*
X44646D01*
X44702Y41787D02*
X44716Y41772D01*
X44730Y41787D01*
X44716Y41801D01*
X44702Y41787D01*
X44716Y41687D02*
Y41487D01*
X44783Y41687D02*
Y41544D01*
X44797Y41501D01*
X44826Y41487D01*
X44869D01*
X44897Y41501D01*
X44940Y41544D01*
Y41687D02*
Y41487D01*
X45019Y41687D02*
Y41487D01*
Y41629D02*
X45062Y41672D01*
X45090Y41687D01*
X45133D01*
X45162Y41672D01*
X45176Y41629D01*
Y41487D01*
Y41629D02*
X45219Y41672D01*
X45247Y41687D01*
X45290D01*
X45319Y41672D01*
X45333Y41629D01*
Y41487D01*
X45427Y41687D02*
X45513Y41487D01*
X45599Y41687D02*
X45513Y41487D01*
X45676Y41787D02*
X45690Y41772D01*
X45704Y41787D01*
X45690Y41801D01*
X45676Y41787D01*
X45690Y41687D02*
Y41487D01*
X45993Y41787D02*
X46107Y41487D01*
X46221Y41787D02*
X46107Y41487D01*
X46260Y41729D02*
X46288Y41744D01*
X46331Y41787D01*
Y41487D01*
X46494Y41715D02*
Y41729D01*
X46508Y41758D01*
X46523Y41772D01*
X46551Y41787D01*
X46608D01*
X46637Y41772D01*
X46651Y41758D01*
X46666Y41729D01*
Y41701D01*
X46651Y41672D01*
X46623Y41629D01*
X46480Y41487D01*
X46680D01*
X34496Y41287D02*
X34546Y41337D01*
Y41437D01*
X34496Y41487D01*
X34296D01*
X34246Y41437D01*
Y41337D01*
X34296Y41287D01*
X34246Y41187D02*
Y41087D01*
Y41137D01*
X34546D01*
X34496Y41187D01*
X43246Y42387D02*
Y42087D01*
X43396D01*
X43446Y42137D01*
Y42337D01*
X43396Y42387D01*
X43246D01*
X43546Y42087D02*
X43646D01*
X43596D01*
Y42387D01*
X43546Y42337D01*
X36846Y42987D02*
Y43287D01*
X36996D01*
X37046Y43237D01*
Y43137D01*
X36996Y43087D01*
X36846D01*
X36946D02*
X37046Y42987D01*
X37146D02*
X37246D01*
X37196D01*
Y43287D01*
X37146Y43237D01*
X42046Y44187D02*
X41746D01*
Y44337D01*
X41796Y44387D01*
X41896D01*
X41946Y44337D01*
Y44187D01*
Y44287D02*
X42046Y44387D01*
Y44686D02*
Y44487D01*
X41846Y44686D01*
X41796D01*
X41746Y44636D01*
Y44536D01*
X41796Y44487D01*
X42446Y44187D02*
X42146D01*
Y44337D01*
X42196Y44387D01*
X42296D01*
X42346Y44337D01*
Y44187D01*
Y44287D02*
X42446Y44387D01*
X42196Y44487D02*
X42146Y44536D01*
Y44636D01*
X42196Y44686D01*
X42246D01*
X42296Y44636D01*
Y44586D01*
Y44636D01*
X42346Y44686D01*
X42396D01*
X42446Y44636D01*
Y44536D01*
X42396Y44487D01*
X42846Y44187D02*
X42546D01*
Y44337D01*
X42596Y44387D01*
X42696D01*
X42746Y44337D01*
Y44187D01*
Y44287D02*
X42846Y44387D01*
Y44636D02*
X42546D01*
X42696Y44487D01*
Y44686D01*
X36696Y43087D02*
X36396D01*
Y43237D01*
X36446Y43287D01*
X36546D01*
X36596Y43237D01*
Y43087D01*
Y43187D02*
X36696Y43287D01*
X36396Y43586D02*
Y43387D01*
X36546D01*
X36496Y43486D01*
Y43536D01*
X36546Y43586D01*
X36646D01*
X36696Y43536D01*
Y43436D01*
X36646Y43387D01*
X36296Y43087D02*
X35996D01*
Y43237D01*
X36046Y43287D01*
X36146D01*
X36196Y43237D01*
Y43087D01*
Y43187D02*
X36296Y43287D01*
X35996Y43586D02*
X36046Y43486D01*
X36146Y43387D01*
X36246D01*
X36296Y43436D01*
Y43536D01*
X36246Y43586D01*
X36196D01*
X36146Y43536D01*
Y43387D01*
X37396Y42387D02*
Y42687D01*
X37546D01*
X37596Y42637D01*
Y42537D01*
X37546Y42487D01*
X37396D01*
X37496D02*
X37596Y42387D01*
X37696Y42687D02*
X37896D01*
Y42637D01*
X37696Y42437D01*
Y42387D01*
X39446Y44687D02*
X39396Y44737D01*
X39296D01*
X39246Y44687D01*
Y44637D01*
X39296Y44587D01*
X39396D01*
X39446Y44537D01*
Y44487D01*
X39396Y44437D01*
X39296D01*
X39246Y44487D01*
X39546Y44737D02*
Y44437D01*
X39646Y44537D01*
X39746Y44437D01*
Y44737D01*
X39846Y44437D02*
X39946D01*
X39896D01*
Y44737D01*
X39846Y44687D01*
X39446Y38037D02*
X39396Y38087D01*
X39296D01*
X39246Y38037D01*
Y37987D01*
X39296Y37937D01*
X39396D01*
X39446Y37887D01*
Y37837D01*
X39396Y37787D01*
X39296D01*
X39246Y37837D01*
X39546Y38087D02*
Y37787D01*
X39646Y37887D01*
X39746Y37787D01*
Y38087D01*
X40046Y37787D02*
X39846D01*
X40046Y37987D01*
Y38037D01*
X39996Y38087D01*
X39896D01*
X39846Y38037D01*
X43196D02*
X43146Y38087D01*
X43046D01*
X42996Y38037D01*
Y37987D01*
X43046Y37937D01*
X43146D01*
X43196Y37887D01*
Y37837D01*
X43146Y37787D01*
X43046D01*
X42996Y37837D01*
X43296Y38087D02*
Y37787D01*
X43396Y37887D01*
X43496Y37787D01*
Y38087D01*
X43596Y38037D02*
X43646Y38087D01*
X43746D01*
X43796Y38037D01*
Y37987D01*
X43746Y37937D01*
X43696D01*
X43746D01*
X43796Y37887D01*
Y37837D01*
X43746Y37787D01*
X43646D01*
X43596Y37837D01*
X35196Y42537D02*
Y42287D01*
X35246Y42237D01*
X35346D01*
X35396Y42287D01*
Y42537D01*
X35496Y42237D02*
X35596D01*
X35546D01*
Y42537D01*
X35496Y42487D01*
X53846Y44787D02*
X53796Y44837D01*
X53696D01*
X53646Y44787D01*
Y44587D01*
X53696Y44537D01*
X53796D01*
X53846Y44587D01*
Y44687D01*
X53746D01*
X53946Y44537D02*
Y44837D01*
X54146Y44537D01*
Y44837D01*
X54246D02*
Y44537D01*
X54396D01*
X54446Y44587D01*
Y44787D01*
X54396Y44837D01*
X54246D01*
X50296D02*
Y44537D01*
X50396Y44637D01*
X50496Y44537D01*
Y44837D01*
X50596Y44537D02*
Y44737D01*
X50696Y44837D01*
X50796Y44737D01*
Y44537D01*
Y44687D01*
X50596D01*
X50896Y44837D02*
Y44637D01*
X50996Y44537D01*
X51096Y44637D01*
Y44837D01*
X51396D02*
X51196D01*
Y44537D01*
X51396D01*
X51196Y44687D02*
X51296D01*
X51946Y41737D02*
X51896Y41787D01*
X51796D01*
X51746Y41737D01*
Y41687D01*
X51796Y41637D01*
X51896D01*
X51946Y41587D01*
Y41537D01*
X51896Y41487D01*
X51796D01*
X51746Y41537D01*
X52246Y41787D02*
X52046D01*
Y41487D01*
X52246D01*
X52046Y41637D02*
X52146D01*
X52346Y41787D02*
Y41487D01*
X52546D01*
X32746Y41687D02*
Y41387D01*
X32946D01*
X33046D02*
Y41687D01*
X33196D01*
X33246Y41637D01*
Y41537D01*
X33196Y41487D01*
X33046D01*
X33346Y41687D02*
Y41387D01*
Y41487D01*
X33546Y41687D01*
X33396Y41537D01*
X33546Y41387D01*
X31146Y41337D02*
Y41637D01*
X31296D01*
X31346Y41587D01*
Y41487D01*
X31296Y41437D01*
X31146D01*
X31246D02*
X31346Y41337D01*
X31446Y41637D02*
Y41337D01*
X31596D01*
X31646Y41387D01*
Y41587D01*
X31596Y41637D01*
X31446D01*
X31746D02*
Y41587D01*
X31846Y41487D01*
X31946Y41587D01*
Y41637D01*
X31846Y41487D02*
Y41337D01*
X32046D02*
Y41537D01*
X32196D01*
X32246Y41487D01*
Y41337D01*
X31446Y41087D02*
X31396Y41137D01*
X31296D01*
X31246Y41087D01*
Y40887D01*
X31296Y40837D01*
X31396D01*
X31446Y40887D01*
Y40987D01*
X31346D01*
X31546Y40837D02*
Y41137D01*
X31746Y40837D01*
Y41137D01*
X31846D02*
Y40837D01*
X31996D01*
X32046Y40887D01*
Y41087D01*
X31996Y41137D01*
X31846D01*
X32646Y41087D02*
Y40887D01*
X32746Y40787D01*
X32846Y40887D01*
Y41087D01*
X33146Y41037D02*
X33096Y41087D01*
X32996D01*
X32946Y41037D01*
Y40837D01*
X32996Y40787D01*
X33096D01*
X33146Y40837D01*
X33246Y40787D02*
Y40987D01*
X33346Y41087D01*
X33446Y40987D01*
Y40787D01*
Y40937D01*
X33246D01*
X33546Y40787D02*
Y41087D01*
X33696D01*
X33746Y41037D01*
Y40937D01*
X33696Y40887D01*
X33546D01*
X47896Y44887D02*
X47846Y44937D01*
X47746D01*
X47696Y44887D01*
Y44687D01*
X47746Y44637D01*
X47846D01*
X47896Y44687D01*
Y44787D01*
X47796D01*
X47996Y44637D02*
Y44937D01*
X48196Y44637D01*
Y44937D01*
X48296D02*
Y44637D01*
X48446D01*
X48496Y44687D01*
Y44887D01*
X48446Y44937D01*
X48296D01*
X47796Y41887D02*
Y41587D01*
X47946D01*
X47996Y41637D01*
Y41687D01*
X47946Y41737D01*
X47796D01*
X47946D01*
X47996Y41787D01*
Y41837D01*
X47946Y41887D01*
X47796D01*
X48096Y41587D02*
Y41787D01*
X48196Y41887D01*
X48296Y41787D01*
Y41587D01*
Y41737D01*
X48096D01*
X48396Y41887D02*
X48596D01*
X48496D01*
Y41587D01*
X39528Y40713D02*
X39578Y40763D01*
X39678D01*
X39728Y40713D01*
Y40513D01*
X39678Y40463D01*
X39578D01*
X39528Y40513D01*
Y40713D01*
X39525Y38510D02*
X39725D01*
Y38660D01*
X39625Y38610D01*
X39575D01*
X39525Y38660D01*
Y38760D01*
X39575Y38810D01*
X39675D01*
X39725Y38760D01*
X43328Y40713D02*
X43378Y40763D01*
X43478D01*
X43528Y40713D01*
Y40513D01*
X43478Y40463D01*
X43378D01*
X43328Y40513D01*
Y40713D01*
X43325Y38510D02*
X43525D01*
Y38660D01*
X43425Y38610D01*
X43375D01*
X43325Y38660D01*
Y38760D01*
X43375Y38810D01*
X43475D01*
X43525Y38760D01*
X39528Y43963D02*
X39578Y44013D01*
X39678D01*
X39728Y43963D01*
Y43763D01*
X39678Y43713D01*
X39578D01*
X39528Y43763D01*
Y43963D01*
X39725Y41810D02*
X39675Y41760D01*
X39575D01*
X39525Y41810D01*
Y41860D01*
X39575Y41910D01*
X39525Y41960D01*
Y42010D01*
X39575Y42060D01*
X39675D01*
X39725Y42010D01*
Y41960D01*
X39675Y41910D01*
X39725Y41860D01*
Y41810D01*
X39675Y41910D02*
X39575D01*
X8671Y46640D02*
Y48608D01*
X8474Y46640D02*
X8671D01*
X8474Y48608D02*
X8671D01*
X7135D02*
X8494D01*
X5679D02*
X6191D01*
X4537D02*
X4734D01*
X4537Y48411D02*
Y48608D01*
X3946Y48411D02*
X4537D01*
X3946Y46837D02*
Y48411D01*
Y46837D02*
X4537D01*
Y46640D02*
Y46837D01*
Y46640D02*
X4734D01*
X5679D02*
X6191D01*
X7135D02*
X8474D01*
X8671Y50640D02*
Y52608D01*
X8474Y50640D02*
X8671D01*
X8474Y52608D02*
X8671D01*
X7135D02*
X8494D01*
X5679D02*
X6191D01*
X4537D02*
X4734D01*
X4537Y52411D02*
Y52608D01*
X3946Y52411D02*
X4537D01*
X3946Y50837D02*
Y52411D01*
Y50837D02*
X4537D01*
Y50640D02*
Y50837D01*
Y50640D02*
X4734D01*
X5679D02*
X6191D01*
X7135D02*
X8474D01*
X22866Y50284D02*
X27591D01*
X22866D02*
Y52764D01*
X27591D01*
Y52193D02*
Y52764D01*
X27118Y52193D02*
X27591D01*
X27118Y50855D02*
Y52193D01*
Y50855D02*
X27591D01*
Y50284D02*
Y50855D01*
X11730Y49284D02*
Y49441D01*
X14644D01*
Y49284D02*
Y49441D01*
X11730Y46607D02*
Y46764D01*
Y46607D02*
X14644D01*
Y46764D01*
X13187Y47630D02*
Y48221D01*
X13069Y48024D02*
X13187Y48221D01*
X13305Y48024D01*
X15530Y49284D02*
Y49441D01*
X18444D01*
Y49284D02*
Y49441D01*
X15530Y46607D02*
Y46764D01*
Y46607D02*
X18444D01*
Y46764D01*
X16987Y47630D02*
Y48221D01*
X16869Y48024D02*
X16987Y48221D01*
X17105Y48024D01*
X11730Y52534D02*
Y52691D01*
X14644D01*
Y52534D02*
Y52691D01*
X11730Y49857D02*
Y50014D01*
Y49857D02*
X14644D01*
Y50014D01*
X13187Y50880D02*
Y51471D01*
X13069Y51274D02*
X13187Y51471D01*
X13305Y51274D01*
X16429Y51475D02*
X16488D01*
X15386Y50373D02*
X15445D01*
X16429D02*
X16488D01*
Y51475D01*
X15386D02*
X15445D01*
X15386Y50373D02*
Y51475D01*
X17937Y50174D02*
Y49874D01*
X17837Y50174D02*
X18037D01*
X18073Y50074D02*
Y49874D01*
Y49988D02*
X18087Y50031D01*
X18116Y50060D01*
X18144Y50074D01*
X18187D01*
X18243Y50174D02*
X18257Y50160D01*
X18271Y50174D01*
X18257Y50188D01*
X18243Y50174D01*
X18257Y50074D02*
Y49874D01*
X18324Y50074D02*
Y49931D01*
X18338Y49888D01*
X18367Y49874D01*
X18410D01*
X18438Y49888D01*
X18481Y49931D01*
Y50074D02*
Y49874D01*
X18560Y50074D02*
Y49874D01*
Y50017D02*
X18603Y50060D01*
X18631Y50074D01*
X18674D01*
X18703Y50060D01*
X18717Y50017D01*
Y49874D01*
Y50017D02*
X18760Y50060D01*
X18788Y50074D01*
X18831D01*
X18860Y50060D01*
X18874Y50017D01*
Y49874D01*
X18968Y50074D02*
X19054Y49874D01*
X19140Y50074D02*
X19054Y49874D01*
X19217Y50174D02*
X19231Y50160D01*
X19245Y50174D01*
X19231Y50188D01*
X19217Y50174D01*
X19231Y50074D02*
Y49874D01*
X19534Y50174D02*
X19648Y49874D01*
X19762Y50174D02*
X19648Y49874D01*
X19801Y50117D02*
X19829Y50131D01*
X19872Y50174D01*
Y49874D01*
X20035Y50103D02*
Y50117D01*
X20049Y50145D01*
X20064Y50160D01*
X20092Y50174D01*
X20149D01*
X20178Y50160D01*
X20192Y50145D01*
X20206Y50117D01*
Y50088D01*
X20192Y50060D01*
X20164Y50017D01*
X20021Y49874D01*
X20221D01*
X8037Y49674D02*
X8087Y49724D01*
Y49824D01*
X8037Y49874D01*
X7837D01*
X7787Y49824D01*
Y49724D01*
X7837Y49674D01*
X7787Y49574D02*
Y49474D01*
Y49524D01*
X8087D01*
X8037Y49574D01*
X16787Y50774D02*
Y50474D01*
X16937D01*
X16987Y50524D01*
Y50724D01*
X16937Y50774D01*
X16787D01*
X17087Y50474D02*
X17187D01*
X17137D01*
Y50774D01*
X17087Y50724D01*
X10387Y51374D02*
Y51674D01*
X10537D01*
X10587Y51624D01*
Y51524D01*
X10537Y51474D01*
X10387D01*
X10487D02*
X10587Y51374D01*
X10687D02*
X10787D01*
X10737D01*
Y51674D01*
X10687Y51624D01*
X15587Y52574D02*
X15287D01*
Y52724D01*
X15337Y52774D01*
X15437D01*
X15487Y52724D01*
Y52574D01*
Y52674D02*
X15587Y52774D01*
Y53074D02*
Y52874D01*
X15387Y53074D01*
X15337D01*
X15287Y53024D01*
Y52924D01*
X15337Y52874D01*
X15987Y52574D02*
X15687D01*
Y52724D01*
X15737Y52774D01*
X15837D01*
X15887Y52724D01*
Y52574D01*
Y52674D02*
X15987Y52774D01*
X15737Y52874D02*
X15687Y52924D01*
Y53024D01*
X15737Y53074D01*
X15787D01*
X15837Y53024D01*
Y52974D01*
Y53024D01*
X15887Y53074D01*
X15937D01*
X15987Y53024D01*
Y52924D01*
X15937Y52874D01*
X16387Y52574D02*
X16087D01*
Y52724D01*
X16137Y52774D01*
X16237D01*
X16287Y52724D01*
Y52574D01*
Y52674D02*
X16387Y52774D01*
Y53024D02*
X16087D01*
X16237Y52874D01*
Y53074D01*
X10237Y51474D02*
X9937D01*
Y51624D01*
X9987Y51674D01*
X10087D01*
X10137Y51624D01*
Y51474D01*
Y51574D02*
X10237Y51674D01*
X9937Y51974D02*
Y51774D01*
X10087D01*
X10037Y51874D01*
Y51924D01*
X10087Y51974D01*
X10187D01*
X10237Y51924D01*
Y51824D01*
X10187Y51774D01*
X9837Y51474D02*
X9537D01*
Y51624D01*
X9587Y51674D01*
X9687D01*
X9737Y51624D01*
Y51474D01*
Y51574D02*
X9837Y51674D01*
X9537Y51974D02*
X9587Y51874D01*
X9687Y51774D01*
X9787D01*
X9837Y51824D01*
Y51924D01*
X9787Y51974D01*
X9737D01*
X9687Y51924D01*
Y51774D01*
X10937Y50774D02*
Y51074D01*
X11087D01*
X11137Y51024D01*
Y50924D01*
X11087Y50874D01*
X10937D01*
X11037D02*
X11137Y50774D01*
X11237Y51074D02*
X11437D01*
Y51024D01*
X11237Y50824D01*
Y50774D01*
X12987Y53074D02*
X12937Y53124D01*
X12837D01*
X12787Y53074D01*
Y53024D01*
X12837Y52974D01*
X12937D01*
X12987Y52924D01*
Y52874D01*
X12937Y52824D01*
X12837D01*
X12787Y52874D01*
X13087Y53124D02*
Y52824D01*
X13187Y52924D01*
X13287Y52824D01*
Y53124D01*
X13387Y52824D02*
X13487D01*
X13437D01*
Y53124D01*
X13387Y53074D01*
X12987Y46424D02*
X12937Y46474D01*
X12837D01*
X12787Y46424D01*
Y46374D01*
X12837Y46324D01*
X12937D01*
X12987Y46274D01*
Y46224D01*
X12937Y46174D01*
X12837D01*
X12787Y46224D01*
X13087Y46474D02*
Y46174D01*
X13187Y46274D01*
X13287Y46174D01*
Y46474D01*
X13587Y46174D02*
X13387D01*
X13587Y46374D01*
Y46424D01*
X13537Y46474D01*
X13437D01*
X13387Y46424D01*
X16737D02*
X16687Y46474D01*
X16587D01*
X16537Y46424D01*
Y46374D01*
X16587Y46324D01*
X16687D01*
X16737Y46274D01*
Y46224D01*
X16687Y46174D01*
X16587D01*
X16537Y46224D01*
X16837Y46474D02*
Y46174D01*
X16937Y46274D01*
X17037Y46174D01*
Y46474D01*
X17137Y46424D02*
X17187Y46474D01*
X17287D01*
X17337Y46424D01*
Y46374D01*
X17287Y46324D01*
X17237D01*
X17287D01*
X17337Y46274D01*
Y46224D01*
X17287Y46174D01*
X17187D01*
X17137Y46224D01*
X8737Y50924D02*
Y50674D01*
X8787Y50624D01*
X8887D01*
X8937Y50674D01*
Y50924D01*
X9037Y50624D02*
X9137D01*
X9087D01*
Y50924D01*
X9037Y50874D01*
X27387Y53174D02*
X27337Y53224D01*
X27237D01*
X27187Y53174D01*
Y52974D01*
X27237Y52924D01*
X27337D01*
X27387Y52974D01*
Y53074D01*
X27287D01*
X27487Y52924D02*
Y53224D01*
X27687Y52924D01*
Y53224D01*
X27787D02*
Y52924D01*
X27937D01*
X27987Y52974D01*
Y53174D01*
X27937Y53224D01*
X27787D01*
X23837D02*
Y52924D01*
X23937Y53024D01*
X24037Y52924D01*
Y53224D01*
X24137Y52924D02*
Y53124D01*
X24237Y53224D01*
X24337Y53124D01*
Y52924D01*
Y53074D01*
X24137D01*
X24437Y53224D02*
Y53024D01*
X24537Y52924D01*
X24637Y53024D01*
Y53224D01*
X24937D02*
X24737D01*
Y52924D01*
X24937D01*
X24737Y53074D02*
X24837D01*
X25487Y50124D02*
X25437Y50174D01*
X25337D01*
X25287Y50124D01*
Y50074D01*
X25337Y50024D01*
X25437D01*
X25487Y49974D01*
Y49924D01*
X25437Y49874D01*
X25337D01*
X25287Y49924D01*
X25787Y50174D02*
X25587D01*
Y49874D01*
X25787D01*
X25587Y50024D02*
X25687D01*
X25887Y50174D02*
Y49874D01*
X26087D01*
X6287Y50074D02*
Y49774D01*
X6487D01*
X6587D02*
Y50074D01*
X6737D01*
X6787Y50024D01*
Y49924D01*
X6737Y49874D01*
X6587D01*
X6887Y50074D02*
Y49774D01*
Y49874D01*
X7087Y50074D01*
X6937Y49924D01*
X7087Y49774D01*
X4687Y49724D02*
Y50024D01*
X4837D01*
X4887Y49974D01*
Y49874D01*
X4837Y49824D01*
X4687D01*
X4787D02*
X4887Y49724D01*
X4987Y50024D02*
Y49724D01*
X5137D01*
X5187Y49774D01*
Y49974D01*
X5137Y50024D01*
X4987D01*
X5287D02*
Y49974D01*
X5387Y49874D01*
X5487Y49974D01*
Y50024D01*
X5387Y49874D02*
Y49724D01*
X5587D02*
Y49924D01*
X5737D01*
X5787Y49874D01*
Y49724D01*
X4987Y49474D02*
X4937Y49524D01*
X4837D01*
X4787Y49474D01*
Y49274D01*
X4837Y49224D01*
X4937D01*
X4987Y49274D01*
Y49374D01*
X4887D01*
X5087Y49224D02*
Y49524D01*
X5287Y49224D01*
Y49524D01*
X5387D02*
Y49224D01*
X5537D01*
X5587Y49274D01*
Y49474D01*
X5537Y49524D01*
X5387D01*
X6187Y49474D02*
Y49274D01*
X6287Y49174D01*
X6387Y49274D01*
Y49474D01*
X6687Y49424D02*
X6637Y49474D01*
X6537D01*
X6487Y49424D01*
Y49224D01*
X6537Y49174D01*
X6637D01*
X6687Y49224D01*
X6787Y49174D02*
Y49374D01*
X6887Y49474D01*
X6987Y49374D01*
Y49174D01*
Y49324D01*
X6787D01*
X7087Y49174D02*
Y49474D01*
X7237D01*
X7287Y49424D01*
Y49324D01*
X7237Y49274D01*
X7087D01*
X21437Y53274D02*
X21387Y53324D01*
X21287D01*
X21237Y53274D01*
Y53074D01*
X21287Y53024D01*
X21387D01*
X21437Y53074D01*
Y53174D01*
X21337D01*
X21537Y53024D02*
Y53324D01*
X21737Y53024D01*
Y53324D01*
X21837D02*
Y53024D01*
X21987D01*
X22037Y53074D01*
Y53274D01*
X21987Y53324D01*
X21837D01*
X21337Y50274D02*
Y49974D01*
X21487D01*
X21537Y50024D01*
Y50074D01*
X21487Y50124D01*
X21337D01*
X21487D01*
X21537Y50174D01*
Y50224D01*
X21487Y50274D01*
X21337D01*
X21637Y49974D02*
Y50174D01*
X21737Y50274D01*
X21837Y50174D01*
Y49974D01*
Y50124D01*
X21637D01*
X21937Y50274D02*
X22137D01*
X22037D01*
Y49974D01*
X13069Y49101D02*
X13119Y49151D01*
X13219D01*
X13269Y49101D01*
Y48901D01*
X13219Y48851D01*
X13119D01*
X13069Y48901D01*
Y49101D01*
X13066Y46897D02*
X13266D01*
Y47047D01*
X13166Y46997D01*
X13116D01*
X13066Y47047D01*
Y47147D01*
X13116Y47197D01*
X13216D01*
X13266Y47147D01*
X16869Y49101D02*
X16919Y49151D01*
X17019D01*
X17069Y49101D01*
Y48901D01*
X17019Y48851D01*
X16919D01*
X16869Y48901D01*
Y49101D01*
X16866Y46897D02*
X17066D01*
Y47047D01*
X16966Y46997D01*
X16916D01*
X16866Y47047D01*
Y47147D01*
X16916Y47197D01*
X17016D01*
X17066Y47147D01*
X13069Y52351D02*
X13119Y52401D01*
X13219D01*
X13269Y52351D01*
Y52151D01*
X13219Y52101D01*
X13119D01*
X13069Y52151D01*
Y52351D01*
X13266Y50197D02*
X13216Y50147D01*
X13116D01*
X13066Y50197D01*
Y50247D01*
X13116Y50297D01*
X13066Y50347D01*
Y50397D01*
X13116Y50447D01*
X13216D01*
X13266Y50397D01*
Y50347D01*
X13216Y50297D01*
X13266Y50247D01*
Y50197D01*
X13216Y50297D02*
X13116D01*
X35130Y46640D02*
Y48608D01*
X34933Y46640D02*
X35130D01*
X34933Y48608D02*
X35130D01*
X33594D02*
X34953D01*
X32138D02*
X32650D01*
X30996D02*
X31193D01*
X30996Y48411D02*
Y48608D01*
X30406Y48411D02*
X30996D01*
X30406Y46837D02*
Y48411D01*
Y46837D02*
X30996D01*
Y46640D02*
Y46837D01*
Y46640D02*
X31193D01*
X32138D02*
X32650D01*
X33594D02*
X34933D01*
X35130Y50640D02*
Y52608D01*
X34933Y50640D02*
X35130D01*
X34933Y52608D02*
X35130D01*
X33594D02*
X34953D01*
X32138D02*
X32650D01*
X30996D02*
X31193D01*
X30996Y52411D02*
Y52608D01*
X30406Y52411D02*
X30996D01*
X30406Y50837D02*
Y52411D01*
Y50837D02*
X30996D01*
Y50640D02*
Y50837D01*
Y50640D02*
X31193D01*
X32138D02*
X32650D01*
X33594D02*
X34933D01*
X49325Y50284D02*
X54050D01*
X49325D02*
Y52764D01*
X54050D01*
Y52193D02*
Y52764D01*
X53577Y52193D02*
X54050D01*
X53577Y50855D02*
Y52193D01*
Y50855D02*
X54050D01*
Y50284D02*
Y50855D01*
X38189Y49284D02*
Y49441D01*
X41103D01*
Y49284D02*
Y49441D01*
X38189Y46607D02*
Y46764D01*
Y46607D02*
X41103D01*
Y46764D01*
X39646Y47630D02*
Y48221D01*
X39528Y48024D02*
X39646Y48221D01*
X39764Y48024D01*
X41989Y49284D02*
Y49441D01*
X44903D01*
Y49284D02*
Y49441D01*
X41989Y46607D02*
Y46764D01*
Y46607D02*
X44903D01*
Y46764D01*
X43446Y47630D02*
Y48221D01*
X43328Y48024D02*
X43446Y48221D01*
X43564Y48024D01*
X38189Y52534D02*
Y52691D01*
X41103D01*
Y52534D02*
Y52691D01*
X38189Y49857D02*
Y50014D01*
Y49857D02*
X41103D01*
Y50014D01*
X39646Y50880D02*
Y51471D01*
X39528Y51274D02*
X39646Y51471D01*
X39764Y51274D01*
X42888Y51475D02*
X42947D01*
X41845Y50373D02*
X41904D01*
X42888D02*
X42947D01*
Y51475D01*
X41845D02*
X41904D01*
X41845Y50373D02*
Y51475D01*
X44396Y50174D02*
Y49874D01*
X44296Y50174D02*
X44496D01*
X44532Y50074D02*
Y49874D01*
Y49988D02*
X44546Y50031D01*
X44575Y50060D01*
X44603Y50074D01*
X44646D01*
X44702Y50174D02*
X44716Y50160D01*
X44730Y50174D01*
X44716Y50188D01*
X44702Y50174D01*
X44716Y50074D02*
Y49874D01*
X44783Y50074D02*
Y49931D01*
X44797Y49888D01*
X44826Y49874D01*
X44869D01*
X44897Y49888D01*
X44940Y49931D01*
Y50074D02*
Y49874D01*
X45019Y50074D02*
Y49874D01*
Y50017D02*
X45062Y50060D01*
X45090Y50074D01*
X45133D01*
X45162Y50060D01*
X45176Y50017D01*
Y49874D01*
Y50017D02*
X45219Y50060D01*
X45247Y50074D01*
X45290D01*
X45319Y50060D01*
X45333Y50017D01*
Y49874D01*
X45427Y50074D02*
X45513Y49874D01*
X45599Y50074D02*
X45513Y49874D01*
X45676Y50174D02*
X45690Y50160D01*
X45704Y50174D01*
X45690Y50188D01*
X45676Y50174D01*
X45690Y50074D02*
Y49874D01*
X45993Y50174D02*
X46107Y49874D01*
X46221Y50174D02*
X46107Y49874D01*
X46260Y50117D02*
X46288Y50131D01*
X46331Y50174D01*
Y49874D01*
X46494Y50103D02*
Y50117D01*
X46508Y50145D01*
X46523Y50160D01*
X46551Y50174D01*
X46608D01*
X46637Y50160D01*
X46651Y50145D01*
X46666Y50117D01*
Y50088D01*
X46651Y50060D01*
X46623Y50017D01*
X46480Y49874D01*
X46680D01*
X34496Y49674D02*
X34546Y49724D01*
Y49824D01*
X34496Y49874D01*
X34296D01*
X34246Y49824D01*
Y49724D01*
X34296Y49674D01*
X34246Y49574D02*
Y49474D01*
Y49524D01*
X34546D01*
X34496Y49574D01*
X43246Y50774D02*
Y50474D01*
X43396D01*
X43446Y50524D01*
Y50724D01*
X43396Y50774D01*
X43246D01*
X43546Y50474D02*
X43646D01*
X43596D01*
Y50774D01*
X43546Y50724D01*
X36846Y51374D02*
Y51674D01*
X36996D01*
X37046Y51624D01*
Y51524D01*
X36996Y51474D01*
X36846D01*
X36946D02*
X37046Y51374D01*
X37146D02*
X37246D01*
X37196D01*
Y51674D01*
X37146Y51624D01*
X42046Y52574D02*
X41746D01*
Y52724D01*
X41796Y52774D01*
X41896D01*
X41946Y52724D01*
Y52574D01*
Y52674D02*
X42046Y52774D01*
Y53074D02*
Y52874D01*
X41846Y53074D01*
X41796D01*
X41746Y53024D01*
Y52924D01*
X41796Y52874D01*
X42446Y52574D02*
X42146D01*
Y52724D01*
X42196Y52774D01*
X42296D01*
X42346Y52724D01*
Y52574D01*
Y52674D02*
X42446Y52774D01*
X42196Y52874D02*
X42146Y52924D01*
Y53024D01*
X42196Y53074D01*
X42246D01*
X42296Y53024D01*
Y52974D01*
Y53024D01*
X42346Y53074D01*
X42396D01*
X42446Y53024D01*
Y52924D01*
X42396Y52874D01*
X42846Y52574D02*
X42546D01*
Y52724D01*
X42596Y52774D01*
X42696D01*
X42746Y52724D01*
Y52574D01*
Y52674D02*
X42846Y52774D01*
Y53024D02*
X42546D01*
X42696Y52874D01*
Y53074D01*
X36696Y51474D02*
X36396D01*
Y51624D01*
X36446Y51674D01*
X36546D01*
X36596Y51624D01*
Y51474D01*
Y51574D02*
X36696Y51674D01*
X36396Y51974D02*
Y51774D01*
X36546D01*
X36496Y51874D01*
Y51924D01*
X36546Y51974D01*
X36646D01*
X36696Y51924D01*
Y51824D01*
X36646Y51774D01*
X36296Y51474D02*
X35996D01*
Y51624D01*
X36046Y51674D01*
X36146D01*
X36196Y51624D01*
Y51474D01*
Y51574D02*
X36296Y51674D01*
X35996Y51974D02*
X36046Y51874D01*
X36146Y51774D01*
X36246D01*
X36296Y51824D01*
Y51924D01*
X36246Y51974D01*
X36196D01*
X36146Y51924D01*
Y51774D01*
X37396Y50774D02*
Y51074D01*
X37546D01*
X37596Y51024D01*
Y50924D01*
X37546Y50874D01*
X37396D01*
X37496D02*
X37596Y50774D01*
X37696Y51074D02*
X37896D01*
Y51024D01*
X37696Y50824D01*
Y50774D01*
X39446Y53074D02*
X39396Y53124D01*
X39296D01*
X39246Y53074D01*
Y53024D01*
X39296Y52974D01*
X39396D01*
X39446Y52924D01*
Y52874D01*
X39396Y52824D01*
X39296D01*
X39246Y52874D01*
X39546Y53124D02*
Y52824D01*
X39646Y52924D01*
X39746Y52824D01*
Y53124D01*
X39846Y52824D02*
X39946D01*
X39896D01*
Y53124D01*
X39846Y53074D01*
X39446Y46424D02*
X39396Y46474D01*
X39296D01*
X39246Y46424D01*
Y46374D01*
X39296Y46324D01*
X39396D01*
X39446Y46274D01*
Y46224D01*
X39396Y46174D01*
X39296D01*
X39246Y46224D01*
X39546Y46474D02*
Y46174D01*
X39646Y46274D01*
X39746Y46174D01*
Y46474D01*
X40046Y46174D02*
X39846D01*
X40046Y46374D01*
Y46424D01*
X39996Y46474D01*
X39896D01*
X39846Y46424D01*
X43196D02*
X43146Y46474D01*
X43046D01*
X42996Y46424D01*
Y46374D01*
X43046Y46324D01*
X43146D01*
X43196Y46274D01*
Y46224D01*
X43146Y46174D01*
X43046D01*
X42996Y46224D01*
X43296Y46474D02*
Y46174D01*
X43396Y46274D01*
X43496Y46174D01*
Y46474D01*
X43596Y46424D02*
X43646Y46474D01*
X43746D01*
X43796Y46424D01*
Y46374D01*
X43746Y46324D01*
X43696D01*
X43746D01*
X43796Y46274D01*
Y46224D01*
X43746Y46174D01*
X43646D01*
X43596Y46224D01*
X35196Y50924D02*
Y50674D01*
X35246Y50624D01*
X35346D01*
X35396Y50674D01*
Y50924D01*
X35496Y50624D02*
X35596D01*
X35546D01*
Y50924D01*
X35496Y50874D01*
X53846Y53174D02*
X53796Y53224D01*
X53696D01*
X53646Y53174D01*
Y52974D01*
X53696Y52924D01*
X53796D01*
X53846Y52974D01*
Y53074D01*
X53746D01*
X53946Y52924D02*
Y53224D01*
X54146Y52924D01*
Y53224D01*
X54246D02*
Y52924D01*
X54396D01*
X54446Y52974D01*
Y53174D01*
X54396Y53224D01*
X54246D01*
X50296D02*
Y52924D01*
X50396Y53024D01*
X50496Y52924D01*
Y53224D01*
X50596Y52924D02*
Y53124D01*
X50696Y53224D01*
X50796Y53124D01*
Y52924D01*
Y53074D01*
X50596D01*
X50896Y53224D02*
Y53024D01*
X50996Y52924D01*
X51096Y53024D01*
Y53224D01*
X51396D02*
X51196D01*
Y52924D01*
X51396D01*
X51196Y53074D02*
X51296D01*
X51946Y50124D02*
X51896Y50174D01*
X51796D01*
X51746Y50124D01*
Y50074D01*
X51796Y50024D01*
X51896D01*
X51946Y49974D01*
Y49924D01*
X51896Y49874D01*
X51796D01*
X51746Y49924D01*
X52246Y50174D02*
X52046D01*
Y49874D01*
X52246D01*
X52046Y50024D02*
X52146D01*
X52346Y50174D02*
Y49874D01*
X52546D01*
X32746Y50074D02*
Y49774D01*
X32946D01*
X33046D02*
Y50074D01*
X33196D01*
X33246Y50024D01*
Y49924D01*
X33196Y49874D01*
X33046D01*
X33346Y50074D02*
Y49774D01*
Y49874D01*
X33546Y50074D01*
X33396Y49924D01*
X33546Y49774D01*
X31146Y49724D02*
Y50024D01*
X31296D01*
X31346Y49974D01*
Y49874D01*
X31296Y49824D01*
X31146D01*
X31246D02*
X31346Y49724D01*
X31446Y50024D02*
Y49724D01*
X31596D01*
X31646Y49774D01*
Y49974D01*
X31596Y50024D01*
X31446D01*
X31746D02*
Y49974D01*
X31846Y49874D01*
X31946Y49974D01*
Y50024D01*
X31846Y49874D02*
Y49724D01*
X32046D02*
Y49924D01*
X32196D01*
X32246Y49874D01*
Y49724D01*
X31446Y49474D02*
X31396Y49524D01*
X31296D01*
X31246Y49474D01*
Y49274D01*
X31296Y49224D01*
X31396D01*
X31446Y49274D01*
Y49374D01*
X31346D01*
X31546Y49224D02*
Y49524D01*
X31746Y49224D01*
Y49524D01*
X31846D02*
Y49224D01*
X31996D01*
X32046Y49274D01*
Y49474D01*
X31996Y49524D01*
X31846D01*
X32646Y49474D02*
Y49274D01*
X32746Y49174D01*
X32846Y49274D01*
Y49474D01*
X33146Y49424D02*
X33096Y49474D01*
X32996D01*
X32946Y49424D01*
Y49224D01*
X32996Y49174D01*
X33096D01*
X33146Y49224D01*
X33246Y49174D02*
Y49374D01*
X33346Y49474D01*
X33446Y49374D01*
Y49174D01*
Y49324D01*
X33246D01*
X33546Y49174D02*
Y49474D01*
X33696D01*
X33746Y49424D01*
Y49324D01*
X33696Y49274D01*
X33546D01*
X47896Y53274D02*
X47846Y53324D01*
X47746D01*
X47696Y53274D01*
Y53074D01*
X47746Y53024D01*
X47846D01*
X47896Y53074D01*
Y53174D01*
X47796D01*
X47996Y53024D02*
Y53324D01*
X48196Y53024D01*
Y53324D01*
X48296D02*
Y53024D01*
X48446D01*
X48496Y53074D01*
Y53274D01*
X48446Y53324D01*
X48296D01*
X47796Y50274D02*
Y49974D01*
X47946D01*
X47996Y50024D01*
Y50074D01*
X47946Y50124D01*
X47796D01*
X47946D01*
X47996Y50174D01*
Y50224D01*
X47946Y50274D01*
X47796D01*
X48096Y49974D02*
Y50174D01*
X48196Y50274D01*
X48296Y50174D01*
Y49974D01*
Y50124D01*
X48096D01*
X48396Y50274D02*
X48596D01*
X48496D01*
Y49974D01*
X39528Y49101D02*
X39578Y49151D01*
X39678D01*
X39728Y49101D01*
Y48901D01*
X39678Y48851D01*
X39578D01*
X39528Y48901D01*
Y49101D01*
X39525Y46897D02*
X39725D01*
Y47047D01*
X39625Y46997D01*
X39575D01*
X39525Y47047D01*
Y47147D01*
X39575Y47197D01*
X39675D01*
X39725Y47147D01*
X43328Y49101D02*
X43378Y49151D01*
X43478D01*
X43528Y49101D01*
Y48901D01*
X43478Y48851D01*
X43378D01*
X43328Y48901D01*
Y49101D01*
X43325Y46897D02*
X43525D01*
Y47047D01*
X43425Y46997D01*
X43375D01*
X43325Y47047D01*
Y47147D01*
X43375Y47197D01*
X43475D01*
X43525Y47147D01*
X39528Y52351D02*
X39578Y52401D01*
X39678D01*
X39728Y52351D01*
Y52151D01*
X39678Y52101D01*
X39578D01*
X39528Y52151D01*
Y52351D01*
X39725Y50197D02*
X39675Y50147D01*
X39575D01*
X39525Y50197D01*
Y50247D01*
X39575Y50297D01*
X39525Y50347D01*
Y50397D01*
X39575Y50447D01*
X39675D01*
X39725Y50397D01*
Y50347D01*
X39675Y50297D01*
X39725Y50247D01*
Y50197D01*
X39675Y50297D02*
X39575D01*
D35*
X10848Y8479D02*
X10926D01*
X10848Y8695D02*
X10926D01*
X15545Y10198D02*
Y10276D01*
X15329Y10198D02*
Y10276D01*
X15945Y10198D02*
Y10276D01*
X15729Y10198D02*
Y10276D01*
X16345Y10198D02*
Y10276D01*
X16129Y10198D02*
Y10276D01*
X9795Y9098D02*
Y9176D01*
X9579Y9098D02*
Y9176D01*
X10195Y9098D02*
Y9176D01*
X9979Y9098D02*
Y9176D01*
X10548Y9079D02*
X10626D01*
X10548Y9295D02*
X10626D01*
X8229Y7698D02*
Y7776D01*
X8445Y7698D02*
Y7776D01*
X37307Y8479D02*
X37385D01*
X37307Y8695D02*
X37385D01*
X42004Y10198D02*
Y10276D01*
X41788Y10198D02*
Y10276D01*
X42404Y10198D02*
Y10276D01*
X42188Y10198D02*
Y10276D01*
X42804Y10198D02*
Y10276D01*
X42588Y10198D02*
Y10276D01*
X36254Y9098D02*
Y9176D01*
X36038Y9098D02*
Y9176D01*
X36654Y9098D02*
Y9176D01*
X36438Y9098D02*
Y9176D01*
X37007Y9079D02*
X37085D01*
X37007Y9295D02*
X37085D01*
X34688Y7698D02*
Y7776D01*
X34904Y7698D02*
Y7776D01*
X10848Y16866D02*
X10926D01*
X10848Y17083D02*
X10926D01*
X15545Y18585D02*
Y18664D01*
X15329Y18585D02*
Y18664D01*
X15945Y18585D02*
Y18664D01*
X15729Y18585D02*
Y18664D01*
X16345Y18585D02*
Y18664D01*
X16129Y18585D02*
Y18664D01*
X9795Y17485D02*
Y17564D01*
X9579Y17485D02*
Y17564D01*
X10195Y17485D02*
Y17564D01*
X9979Y17485D02*
Y17564D01*
X10548Y17466D02*
X10626D01*
X10548Y17683D02*
X10626D01*
X8229Y16085D02*
Y16164D01*
X8445Y16085D02*
Y16164D01*
X37307Y16866D02*
X37385D01*
X37307Y17083D02*
X37385D01*
X42004Y18585D02*
Y18664D01*
X41788Y18585D02*
Y18664D01*
X42404Y18585D02*
Y18664D01*
X42188Y18585D02*
Y18664D01*
X42804Y18585D02*
Y18664D01*
X42588Y18585D02*
Y18664D01*
X36254Y17485D02*
Y17564D01*
X36038Y17485D02*
Y17564D01*
X36654Y17485D02*
Y17564D01*
X36438Y17485D02*
Y17564D01*
X37007Y17466D02*
X37085D01*
X37007Y17683D02*
X37085D01*
X34688Y16085D02*
Y16164D01*
X34904Y16085D02*
Y16164D01*
X10848Y25254D02*
X10926D01*
X10848Y25470D02*
X10926D01*
X15545Y26972D02*
Y27051D01*
X15329Y26972D02*
Y27051D01*
X15945Y26972D02*
Y27051D01*
X15729Y26972D02*
Y27051D01*
X16345Y26972D02*
Y27051D01*
X16129Y26972D02*
Y27051D01*
X9795Y25872D02*
Y25951D01*
X9579Y25872D02*
Y25951D01*
X10195Y25872D02*
Y25951D01*
X9979Y25872D02*
Y25951D01*
X10548Y25854D02*
X10626D01*
X10548Y26070D02*
X10626D01*
X8229Y24472D02*
Y24551D01*
X8445Y24472D02*
Y24551D01*
X37307Y25254D02*
X37385D01*
X37307Y25470D02*
X37385D01*
X42004Y26972D02*
Y27051D01*
X41788Y26972D02*
Y27051D01*
X42404Y26972D02*
Y27051D01*
X42188Y26972D02*
Y27051D01*
X42804Y26972D02*
Y27051D01*
X42588Y26972D02*
Y27051D01*
X36254Y25872D02*
Y25951D01*
X36038Y25872D02*
Y25951D01*
X36654Y25872D02*
Y25951D01*
X36438Y25872D02*
Y25951D01*
X37007Y25854D02*
X37085D01*
X37007Y26070D02*
X37085D01*
X34688Y24472D02*
Y24551D01*
X34904Y24472D02*
Y24551D01*
X10848Y33641D02*
X10926D01*
X10848Y33857D02*
X10926D01*
X15545Y35360D02*
Y35439D01*
X15329Y35360D02*
Y35439D01*
X15945Y35360D02*
Y35439D01*
X15729Y35360D02*
Y35439D01*
X16345Y35360D02*
Y35439D01*
X16129Y35360D02*
Y35439D01*
X9795Y34260D02*
Y34339D01*
X9579Y34260D02*
Y34339D01*
X10195Y34260D02*
Y34339D01*
X9979Y34260D02*
Y34339D01*
X10548Y34241D02*
X10626D01*
X10548Y34457D02*
X10626D01*
X8229Y32860D02*
Y32939D01*
X8445Y32860D02*
Y32939D01*
X37307Y33641D02*
X37385D01*
X37307Y33857D02*
X37385D01*
X42004Y35360D02*
Y35439D01*
X41788Y35360D02*
Y35439D01*
X42404Y35360D02*
Y35439D01*
X42188Y35360D02*
Y35439D01*
X42804Y35360D02*
Y35439D01*
X42588Y35360D02*
Y35439D01*
X36254Y34260D02*
Y34339D01*
X36038Y34260D02*
Y34339D01*
X36654Y34260D02*
Y34339D01*
X36438Y34260D02*
Y34339D01*
X37007Y34241D02*
X37085D01*
X37007Y34457D02*
X37085D01*
X34688Y32860D02*
Y32939D01*
X34904Y32860D02*
Y32939D01*
X10848Y42028D02*
X10926D01*
X10848Y42245D02*
X10926D01*
X15545Y43747D02*
Y43826D01*
X15329Y43747D02*
Y43826D01*
X15945Y43747D02*
Y43826D01*
X15729Y43747D02*
Y43826D01*
X16345Y43747D02*
Y43826D01*
X16129Y43747D02*
Y43826D01*
X9795Y42647D02*
Y42726D01*
X9579Y42647D02*
Y42726D01*
X10195Y42647D02*
Y42726D01*
X9979Y42647D02*
Y42726D01*
X10548Y42628D02*
X10626D01*
X10548Y42845D02*
X10626D01*
X8229Y41247D02*
Y41326D01*
X8445Y41247D02*
Y41326D01*
X37307Y42028D02*
X37385D01*
X37307Y42245D02*
X37385D01*
X42004Y43747D02*
Y43826D01*
X41788Y43747D02*
Y43826D01*
X42404Y43747D02*
Y43826D01*
X42188Y43747D02*
Y43826D01*
X42804Y43747D02*
Y43826D01*
X42588Y43747D02*
Y43826D01*
X36254Y42647D02*
Y42726D01*
X36038Y42647D02*
Y42726D01*
X36654Y42647D02*
Y42726D01*
X36438Y42647D02*
Y42726D01*
X37007Y42628D02*
X37085D01*
X37007Y42845D02*
X37085D01*
X34688Y41247D02*
Y41326D01*
X34904Y41247D02*
Y41326D01*
X10848Y50416D02*
X10926D01*
X10848Y50632D02*
X10926D01*
X15545Y52135D02*
Y52213D01*
X15329Y52135D02*
Y52213D01*
X15945Y52135D02*
Y52213D01*
X15729Y52135D02*
Y52213D01*
X16345Y52135D02*
Y52213D01*
X16129Y52135D02*
Y52213D01*
X9795Y51035D02*
Y51113D01*
X9579Y51035D02*
Y51113D01*
X10195Y51035D02*
Y51113D01*
X9979Y51035D02*
Y51113D01*
X10548Y51016D02*
X10626D01*
X10548Y51232D02*
X10626D01*
X8229Y49635D02*
Y49713D01*
X8445Y49635D02*
Y49713D01*
X37307Y50416D02*
X37385D01*
X37307Y50632D02*
X37385D01*
X42004Y52135D02*
Y52213D01*
X41788Y52135D02*
Y52213D01*
X42404Y52135D02*
Y52213D01*
X42188Y52135D02*
Y52213D01*
X42804Y52135D02*
Y52213D01*
X42588Y52135D02*
Y52213D01*
X36254Y51035D02*
Y51113D01*
X36038Y51035D02*
Y51113D01*
X36654Y51035D02*
Y51113D01*
X36438Y51035D02*
Y51113D01*
X37007Y51016D02*
X37085D01*
X37007Y51232D02*
X37085D01*
X34688Y49635D02*
Y49713D01*
X34904Y49635D02*
Y49713D01*
D36*
X9071Y8206D02*
Y8403D01*
X9268D01*
X10606D02*
X10803D01*
Y8206D02*
Y8403D01*
Y6671D02*
Y6868D01*
X10606Y6671D02*
X10803D01*
X9071D02*
Y6868D01*
Y6671D02*
X9268D01*
X35530Y8206D02*
Y8403D01*
X35727D01*
X37065D02*
X37262D01*
Y8206D02*
Y8403D01*
Y6671D02*
Y6868D01*
X37065Y6671D02*
X37262D01*
X35530D02*
Y6868D01*
Y6671D02*
X35727D01*
X9071Y16594D02*
Y16791D01*
X9268D01*
X10606D02*
X10803D01*
Y16594D02*
Y16791D01*
Y15058D02*
Y15255D01*
X10606Y15058D02*
X10803D01*
X9071D02*
Y15255D01*
Y15058D02*
X9268D01*
X35530Y16594D02*
Y16791D01*
X35727D01*
X37065D02*
X37262D01*
Y16594D02*
Y16791D01*
Y15058D02*
Y15255D01*
X37065Y15058D02*
X37262D01*
X35530D02*
Y15255D01*
Y15058D02*
X35727D01*
X9071Y24981D02*
Y25178D01*
X9268D01*
X10606D02*
X10803D01*
Y24981D02*
Y25178D01*
Y23446D02*
Y23643D01*
X10606Y23446D02*
X10803D01*
X9071D02*
Y23643D01*
Y23446D02*
X9268D01*
X35530Y24981D02*
Y25178D01*
X35727D01*
X37065D02*
X37262D01*
Y24981D02*
Y25178D01*
Y23446D02*
Y23643D01*
X37065Y23446D02*
X37262D01*
X35530D02*
Y23643D01*
Y23446D02*
X35727D01*
X9071Y33369D02*
Y33565D01*
X9268D01*
X10606D02*
X10803D01*
Y33369D02*
Y33565D01*
Y31833D02*
Y32030D01*
X10606Y31833D02*
X10803D01*
X9071D02*
Y32030D01*
Y31833D02*
X9268D01*
X35530Y33369D02*
Y33565D01*
X35727D01*
X37065D02*
X37262D01*
Y33369D02*
Y33565D01*
Y31833D02*
Y32030D01*
X37065Y31833D02*
X37262D01*
X35530D02*
Y32030D01*
Y31833D02*
X35727D01*
X9071Y41756D02*
Y41953D01*
X9268D01*
X10606D02*
X10803D01*
Y41756D02*
Y41953D01*
Y40220D02*
Y40417D01*
X10606Y40220D02*
X10803D01*
X9071D02*
Y40417D01*
Y40220D02*
X9268D01*
X35530Y41756D02*
Y41953D01*
X35727D01*
X37065D02*
X37262D01*
Y41756D02*
Y41953D01*
Y40220D02*
Y40417D01*
X37065Y40220D02*
X37262D01*
X35530D02*
Y40417D01*
Y40220D02*
X35727D01*
X9071Y50143D02*
Y50340D01*
X9268D01*
X10606D02*
X10803D01*
Y50143D02*
Y50340D01*
Y48608D02*
Y48805D01*
X10606Y48608D02*
X10803D01*
X9071D02*
Y48805D01*
Y48608D02*
X9268D01*
X35530Y50143D02*
Y50340D01*
X35727D01*
X37065D02*
X37262D01*
Y50143D02*
Y50340D01*
Y48608D02*
Y48805D01*
X37065Y48608D02*
X37262D01*
X35530D02*
Y48805D01*
Y48608D02*
X35727D01*
M02*
