G04 Layer_Color=16711935*
%FSLAX24Y24*%
%MOIN*%
G70*
G01*
G75*
%ADD37C,0.2400*%
%ADD38R,0.2400X0.2400*%
%ADD50C,0.0080*%
%ADD51C,0.0060*%
%ADD52R,0.0060X0.0060*%
%ADD53C,0.0460*%
%ADD54R,0.0198X0.0320*%
%ADD55R,0.0151X0.0320*%
D37*
X1969Y53445D02*
D03*
X56988D02*
D03*
Y3937D02*
D03*
D38*
X1969D02*
D03*
D50*
Y1969D02*
D03*
Y55413D02*
D03*
X56988D02*
D03*
Y1969D02*
D03*
D51*
X3912Y7287D02*
D03*
Y7537D02*
D03*
Y7787D02*
D03*
Y8037D02*
D03*
Y8287D02*
D03*
Y7037D02*
D03*
X22537Y7637D02*
D03*
X23787D02*
D03*
X23537D02*
D03*
X23287D02*
D03*
X23037D02*
D03*
X22787D02*
D03*
X5639Y5687D02*
D03*
X7608D02*
D03*
X5639Y9687D02*
D03*
X7608D02*
D03*
X30371Y7287D02*
D03*
Y7537D02*
D03*
Y7787D02*
D03*
Y8037D02*
D03*
Y8287D02*
D03*
Y7037D02*
D03*
X48996Y7637D02*
D03*
X50246D02*
D03*
X49996D02*
D03*
X49746D02*
D03*
X49496D02*
D03*
X49246D02*
D03*
X32098Y5687D02*
D03*
X34067D02*
D03*
X32098Y9687D02*
D03*
X34067D02*
D03*
X3912Y15674D02*
D03*
Y15924D02*
D03*
Y16174D02*
D03*
Y16424D02*
D03*
Y16674D02*
D03*
Y15424D02*
D03*
X22537Y16024D02*
D03*
X23787D02*
D03*
X23537D02*
D03*
X23287D02*
D03*
X23037D02*
D03*
X22787D02*
D03*
X5639Y14074D02*
D03*
X7608D02*
D03*
X5639Y18074D02*
D03*
X7608D02*
D03*
X30371Y15674D02*
D03*
Y15924D02*
D03*
Y16174D02*
D03*
Y16424D02*
D03*
Y16674D02*
D03*
Y15424D02*
D03*
X48996Y16024D02*
D03*
X50246D02*
D03*
X49996D02*
D03*
X49746D02*
D03*
X49496D02*
D03*
X49246D02*
D03*
X32098Y14074D02*
D03*
X34067D02*
D03*
X32098Y18074D02*
D03*
X34067D02*
D03*
X3912Y24062D02*
D03*
Y24312D02*
D03*
Y24562D02*
D03*
Y24812D02*
D03*
Y25062D02*
D03*
Y23812D02*
D03*
X22537Y24412D02*
D03*
X23787D02*
D03*
X23537D02*
D03*
X23287D02*
D03*
X23037D02*
D03*
X22787D02*
D03*
X5639Y22462D02*
D03*
X7608D02*
D03*
X5639Y26462D02*
D03*
X7608D02*
D03*
X30371Y24062D02*
D03*
Y24312D02*
D03*
Y24562D02*
D03*
Y24812D02*
D03*
Y25062D02*
D03*
Y23812D02*
D03*
X48996Y24412D02*
D03*
X50246D02*
D03*
X49996D02*
D03*
X49746D02*
D03*
X49496D02*
D03*
X49246D02*
D03*
X32098Y22462D02*
D03*
X34067D02*
D03*
X32098Y26462D02*
D03*
X34067D02*
D03*
X3912Y32449D02*
D03*
Y32699D02*
D03*
Y32949D02*
D03*
Y33199D02*
D03*
Y33449D02*
D03*
Y32199D02*
D03*
X22537Y32799D02*
D03*
X23787D02*
D03*
X23537D02*
D03*
X23287D02*
D03*
X23037D02*
D03*
X22787D02*
D03*
X5639Y30849D02*
D03*
X7608D02*
D03*
X5639Y34849D02*
D03*
X7608D02*
D03*
X30371Y32449D02*
D03*
Y32699D02*
D03*
Y32949D02*
D03*
Y33199D02*
D03*
Y33449D02*
D03*
Y32199D02*
D03*
X48996Y32799D02*
D03*
X50246D02*
D03*
X49996D02*
D03*
X49746D02*
D03*
X49496D02*
D03*
X49246D02*
D03*
X32098Y30849D02*
D03*
X34067D02*
D03*
X32098Y34849D02*
D03*
X34067D02*
D03*
X3912Y40837D02*
D03*
Y41087D02*
D03*
Y41337D02*
D03*
Y41587D02*
D03*
Y41837D02*
D03*
Y40587D02*
D03*
X22537Y41187D02*
D03*
X23787D02*
D03*
X23537D02*
D03*
X23287D02*
D03*
X23037D02*
D03*
X22787D02*
D03*
X5639Y39237D02*
D03*
X7608D02*
D03*
X5639Y43237D02*
D03*
X7608D02*
D03*
X30371Y40837D02*
D03*
Y41087D02*
D03*
Y41337D02*
D03*
Y41587D02*
D03*
Y41837D02*
D03*
Y40587D02*
D03*
X48996Y41187D02*
D03*
X50246D02*
D03*
X49996D02*
D03*
X49746D02*
D03*
X49496D02*
D03*
X49246D02*
D03*
X32098Y39237D02*
D03*
X34067D02*
D03*
X32098Y43237D02*
D03*
X34067D02*
D03*
X3912Y49224D02*
D03*
Y49474D02*
D03*
Y49724D02*
D03*
Y49974D02*
D03*
Y50224D02*
D03*
Y48974D02*
D03*
X22537Y49574D02*
D03*
X23787D02*
D03*
X23537D02*
D03*
X23287D02*
D03*
X23037D02*
D03*
X22787D02*
D03*
X5639Y47624D02*
D03*
X7608D02*
D03*
X5639Y51624D02*
D03*
X7608D02*
D03*
X30371Y49224D02*
D03*
Y49474D02*
D03*
Y49724D02*
D03*
Y49974D02*
D03*
Y50224D02*
D03*
Y48974D02*
D03*
X48996Y49574D02*
D03*
X50246D02*
D03*
X49996D02*
D03*
X49746D02*
D03*
X49496D02*
D03*
X49246D02*
D03*
X32098Y47624D02*
D03*
X34067D02*
D03*
X32098Y51624D02*
D03*
X34067D02*
D03*
D52*
X23437Y9587D02*
D03*
X49896D02*
D03*
X23437Y17974D02*
D03*
X49896D02*
D03*
X23437Y26362D02*
D03*
X49896D02*
D03*
X23437Y34749D02*
D03*
X49896D02*
D03*
X23437Y43137D02*
D03*
X49896D02*
D03*
X23437Y51524D02*
D03*
X49896D02*
D03*
D53*
X21437Y10137D02*
D03*
X10487Y5237D02*
D03*
X47896Y10137D02*
D03*
X36946Y5237D02*
D03*
X21437Y18524D02*
D03*
X10487Y13624D02*
D03*
X47896Y18524D02*
D03*
X36946Y13624D02*
D03*
X21437Y26912D02*
D03*
X10487Y22012D02*
D03*
X47896Y26912D02*
D03*
X36946Y22012D02*
D03*
X21437Y35299D02*
D03*
X10487Y30399D02*
D03*
X47896Y35299D02*
D03*
X36946Y30399D02*
D03*
X21437Y43687D02*
D03*
X10487Y38787D02*
D03*
X47896Y43687D02*
D03*
X36946Y38787D02*
D03*
X21437Y52074D02*
D03*
X10487Y47174D02*
D03*
X47896Y52074D02*
D03*
X36946Y47174D02*
D03*
D54*
X11068Y9604D02*
D03*
Y10670D02*
D03*
X9906D02*
D03*
Y9604D02*
D03*
X37527D02*
D03*
Y10670D02*
D03*
X36365D02*
D03*
Y9604D02*
D03*
X11068Y17991D02*
D03*
Y19058D02*
D03*
X9906D02*
D03*
Y17991D02*
D03*
X37527D02*
D03*
Y19058D02*
D03*
X36365D02*
D03*
Y17991D02*
D03*
X11068Y26378D02*
D03*
Y27445D02*
D03*
X9906D02*
D03*
Y26378D02*
D03*
X37527D02*
D03*
Y27445D02*
D03*
X36365D02*
D03*
Y26378D02*
D03*
X11068Y34766D02*
D03*
Y35833D02*
D03*
X9906D02*
D03*
Y34766D02*
D03*
X37527D02*
D03*
Y35833D02*
D03*
X36365D02*
D03*
Y34766D02*
D03*
X11068Y43153D02*
D03*
Y44220D02*
D03*
X9906D02*
D03*
Y43153D02*
D03*
X37527D02*
D03*
Y44220D02*
D03*
X36365D02*
D03*
Y43153D02*
D03*
X11068Y51541D02*
D03*
Y52607D02*
D03*
X9906D02*
D03*
Y51541D02*
D03*
X37527D02*
D03*
Y52607D02*
D03*
X36365D02*
D03*
Y51541D02*
D03*
D55*
X10093Y9604D02*
D03*
X10251D02*
D03*
X10408D02*
D03*
X10566D02*
D03*
X10723D02*
D03*
X10881D02*
D03*
Y10670D02*
D03*
X10723D02*
D03*
X10566D02*
D03*
X10408D02*
D03*
X10251D02*
D03*
X10093D02*
D03*
X36552Y9604D02*
D03*
X36710D02*
D03*
X36867D02*
D03*
X37025D02*
D03*
X37182D02*
D03*
X37340D02*
D03*
Y10670D02*
D03*
X37182D02*
D03*
X37025D02*
D03*
X36867D02*
D03*
X36710D02*
D03*
X36552D02*
D03*
X10093Y17991D02*
D03*
X10251D02*
D03*
X10408D02*
D03*
X10566D02*
D03*
X10723D02*
D03*
X10881D02*
D03*
Y19058D02*
D03*
X10723D02*
D03*
X10566D02*
D03*
X10408D02*
D03*
X10251D02*
D03*
X10093D02*
D03*
X36552Y17991D02*
D03*
X36710D02*
D03*
X36867D02*
D03*
X37025D02*
D03*
X37182D02*
D03*
X37340D02*
D03*
Y19058D02*
D03*
X37182D02*
D03*
X37025D02*
D03*
X36867D02*
D03*
X36710D02*
D03*
X36552D02*
D03*
X10093Y26378D02*
D03*
X10251D02*
D03*
X10408D02*
D03*
X10566D02*
D03*
X10723D02*
D03*
X10881D02*
D03*
Y27445D02*
D03*
X10723D02*
D03*
X10566D02*
D03*
X10408D02*
D03*
X10251D02*
D03*
X10093D02*
D03*
X36552Y26378D02*
D03*
X36710D02*
D03*
X36867D02*
D03*
X37025D02*
D03*
X37182D02*
D03*
X37340D02*
D03*
Y27445D02*
D03*
X37182D02*
D03*
X37025D02*
D03*
X36867D02*
D03*
X36710D02*
D03*
X36552D02*
D03*
X10093Y34766D02*
D03*
X10251D02*
D03*
X10408D02*
D03*
X10566D02*
D03*
X10723D02*
D03*
X10881D02*
D03*
Y35833D02*
D03*
X10723D02*
D03*
X10566D02*
D03*
X10408D02*
D03*
X10251D02*
D03*
X10093D02*
D03*
X36552Y34766D02*
D03*
X36710D02*
D03*
X36867D02*
D03*
X37025D02*
D03*
X37182D02*
D03*
X37340D02*
D03*
Y35833D02*
D03*
X37182D02*
D03*
X37025D02*
D03*
X36867D02*
D03*
X36710D02*
D03*
X36552D02*
D03*
X10093Y43153D02*
D03*
X10251D02*
D03*
X10408D02*
D03*
X10566D02*
D03*
X10723D02*
D03*
X10881D02*
D03*
Y44220D02*
D03*
X10723D02*
D03*
X10566D02*
D03*
X10408D02*
D03*
X10251D02*
D03*
X10093D02*
D03*
X36552Y43153D02*
D03*
X36710D02*
D03*
X36867D02*
D03*
X37025D02*
D03*
X37182D02*
D03*
X37340D02*
D03*
Y44220D02*
D03*
X37182D02*
D03*
X37025D02*
D03*
X36867D02*
D03*
X36710D02*
D03*
X36552D02*
D03*
X10093Y51541D02*
D03*
X10251D02*
D03*
X10408D02*
D03*
X10566D02*
D03*
X10723D02*
D03*
X10881D02*
D03*
Y52607D02*
D03*
X10723D02*
D03*
X10566D02*
D03*
X10408D02*
D03*
X10251D02*
D03*
X10093D02*
D03*
X36552Y51541D02*
D03*
X36710D02*
D03*
X36867D02*
D03*
X37025D02*
D03*
X37182D02*
D03*
X37340D02*
D03*
Y52607D02*
D03*
X37182D02*
D03*
X37025D02*
D03*
X36867D02*
D03*
X36710D02*
D03*
X36552D02*
D03*
M02*
