G04 Layer_Color=8388736*
%FSLAX24Y24*%
%MOIN*%
G70*
G01*
G75*
%ADD37C,0.2400*%
%ADD38R,0.2400X0.2400*%
G04:AMPARAMS|DCode=39|XSize=46mil|YSize=46mil|CornerRadius=13mil|HoleSize=0mil|Usage=FLASHONLY|Rotation=0.000|XOffset=0mil|YOffset=0mil|HoleType=Round|Shape=RoundedRectangle|*
%AMROUNDEDRECTD39*
21,1,0.0460,0.0200,0,0,0.0*
21,1,0.0200,0.0460,0,0,0.0*
1,1,0.0260,0.0100,-0.0100*
1,1,0.0260,-0.0100,-0.0100*
1,1,0.0260,-0.0100,0.0100*
1,1,0.0260,0.0100,0.0100*
%
%ADD39ROUNDEDRECTD39*%
%ADD40R,0.0926X0.0847*%
%ADD41R,0.0651X0.0847*%
%ADD42R,0.0651X0.0690*%
%ADD43R,0.0926X0.0454*%
%ADD44R,0.0277X0.0395*%
%ADD45R,0.0217X0.0296*%
%ADD46R,0.0296X0.0217*%
%ADD47O,0.0395X0.0139*%
%ADD48O,0.0139X0.0395*%
%ADD49R,0.1103X0.1103*%
%ADD50C,0.0080*%
%ADD51C,0.0060*%
%ADD52R,0.0060X0.0060*%
%ADD53C,0.0460*%
D37*
X1969Y53445D02*
D03*
X56988D02*
D03*
Y3937D02*
D03*
D38*
X1969D02*
D03*
D39*
X22437Y10937D02*
D03*
Y8187D02*
D03*
X48896Y10937D02*
D03*
Y8187D02*
D03*
X22437Y19324D02*
D03*
Y16574D02*
D03*
X48896Y19324D02*
D03*
Y16574D02*
D03*
X22437Y27712D02*
D03*
Y24962D02*
D03*
X48896Y27712D02*
D03*
Y24962D02*
D03*
X22437Y36099D02*
D03*
Y33349D02*
D03*
X48896Y36099D02*
D03*
Y33349D02*
D03*
X22437Y44487D02*
D03*
Y41737D02*
D03*
X48896Y44487D02*
D03*
Y41737D02*
D03*
X22437Y52874D02*
D03*
Y50124D02*
D03*
X48896Y52874D02*
D03*
Y50124D02*
D03*
D40*
X5206Y6770D02*
D03*
X6663Y4604D02*
D03*
Y6770D02*
D03*
X5206Y4604D02*
D03*
Y10770D02*
D03*
X6663Y8604D02*
D03*
Y10770D02*
D03*
X5206Y8604D02*
D03*
X31665Y6770D02*
D03*
X33122Y4604D02*
D03*
Y6770D02*
D03*
X31665Y4604D02*
D03*
Y10770D02*
D03*
X33122Y8604D02*
D03*
Y10770D02*
D03*
X31665Y8604D02*
D03*
X5206Y15157D02*
D03*
X6663Y12992D02*
D03*
Y15157D02*
D03*
X5206Y12992D02*
D03*
Y19157D02*
D03*
X6663Y16992D02*
D03*
Y19157D02*
D03*
X5206Y16992D02*
D03*
X31665Y15157D02*
D03*
X33122Y12992D02*
D03*
Y15157D02*
D03*
X31665Y12992D02*
D03*
Y19157D02*
D03*
X33122Y16992D02*
D03*
Y19157D02*
D03*
X31665Y16992D02*
D03*
X5206Y23544D02*
D03*
X6663Y21379D02*
D03*
Y23544D02*
D03*
X5206Y21379D02*
D03*
Y27544D02*
D03*
X6663Y25379D02*
D03*
Y27544D02*
D03*
X5206Y25379D02*
D03*
X31665Y23544D02*
D03*
X33122Y21379D02*
D03*
Y23544D02*
D03*
X31665Y21379D02*
D03*
Y27544D02*
D03*
X33122Y25379D02*
D03*
Y27544D02*
D03*
X31665Y25379D02*
D03*
X5206Y31932D02*
D03*
X6663Y29767D02*
D03*
Y31932D02*
D03*
X5206Y29767D02*
D03*
Y35932D02*
D03*
X6663Y33767D02*
D03*
Y35932D02*
D03*
X5206Y33767D02*
D03*
X31665Y31932D02*
D03*
X33122Y29767D02*
D03*
Y31932D02*
D03*
X31665Y29767D02*
D03*
Y35932D02*
D03*
X33122Y33767D02*
D03*
Y35932D02*
D03*
X31665Y33767D02*
D03*
X5206Y40319D02*
D03*
X6663Y38154D02*
D03*
Y40319D02*
D03*
X5206Y38154D02*
D03*
Y44319D02*
D03*
X6663Y42154D02*
D03*
Y44319D02*
D03*
X5206Y42154D02*
D03*
X31665Y40319D02*
D03*
X33122Y38154D02*
D03*
Y40319D02*
D03*
X31665Y38154D02*
D03*
Y44319D02*
D03*
X33122Y42154D02*
D03*
Y44319D02*
D03*
X31665Y42154D02*
D03*
X5206Y48707D02*
D03*
X6663Y46541D02*
D03*
Y48707D02*
D03*
X5206Y46541D02*
D03*
Y52707D02*
D03*
X6663Y50541D02*
D03*
Y52707D02*
D03*
X5206Y50541D02*
D03*
X31665Y48707D02*
D03*
X33122Y46541D02*
D03*
Y48707D02*
D03*
X31665Y46541D02*
D03*
Y52707D02*
D03*
X33122Y50541D02*
D03*
Y52707D02*
D03*
X31665Y50541D02*
D03*
D41*
X26488Y10951D02*
D03*
Y8223D02*
D03*
X52947Y10951D02*
D03*
Y8223D02*
D03*
X26488Y19339D02*
D03*
Y16610D02*
D03*
X52947Y19339D02*
D03*
Y16610D02*
D03*
X26488Y27726D02*
D03*
Y24998D02*
D03*
X52947Y27726D02*
D03*
Y24998D02*
D03*
X26488Y36113D02*
D03*
Y33385D02*
D03*
X52947Y36113D02*
D03*
Y33385D02*
D03*
X26488Y44501D02*
D03*
Y41772D02*
D03*
X52947Y44501D02*
D03*
Y41772D02*
D03*
X26488Y52888D02*
D03*
Y50160D02*
D03*
X52947Y52888D02*
D03*
Y50160D02*
D03*
D42*
X23929Y8170D02*
D03*
X25425Y11004D02*
D03*
X50388Y8170D02*
D03*
X51884Y11004D02*
D03*
X23929Y16557D02*
D03*
X25425Y19392D02*
D03*
X50388Y16557D02*
D03*
X51884Y19392D02*
D03*
X23929Y24944D02*
D03*
X25425Y27779D02*
D03*
X50388Y24944D02*
D03*
X51884Y27779D02*
D03*
X23929Y33332D02*
D03*
X25425Y36167D02*
D03*
X50388Y33332D02*
D03*
X51884Y36167D02*
D03*
X23929Y41719D02*
D03*
X25425Y44554D02*
D03*
X50388Y41719D02*
D03*
X51884Y44554D02*
D03*
X23929Y50107D02*
D03*
X25425Y52941D02*
D03*
X50388Y50107D02*
D03*
X51884Y52941D02*
D03*
D43*
X11907Y7087D02*
D03*
X14467D02*
D03*
X11907Y6087D02*
D03*
X14467D02*
D03*
X11907Y5087D02*
D03*
X14467D02*
D03*
X15707Y7087D02*
D03*
X18267D02*
D03*
X15707Y6087D02*
D03*
X18267D02*
D03*
X15707Y5087D02*
D03*
X18267D02*
D03*
X11907Y10337D02*
D03*
X14467D02*
D03*
X11907Y9337D02*
D03*
X14467D02*
D03*
X11907Y8337D02*
D03*
X14467D02*
D03*
X38367Y7087D02*
D03*
X40926D02*
D03*
X38367Y6087D02*
D03*
X40926D02*
D03*
X38367Y5087D02*
D03*
X40926D02*
D03*
X42167Y7087D02*
D03*
X44726D02*
D03*
X42167Y6087D02*
D03*
X44726D02*
D03*
X42167Y5087D02*
D03*
X44726D02*
D03*
X38367Y10337D02*
D03*
X40926D02*
D03*
X38367Y9337D02*
D03*
X40926D02*
D03*
X38367Y8337D02*
D03*
X40926D02*
D03*
X11907Y15474D02*
D03*
X14467D02*
D03*
X11907Y14474D02*
D03*
X14467D02*
D03*
X11907Y13474D02*
D03*
X14467D02*
D03*
X15707Y15474D02*
D03*
X18267D02*
D03*
X15707Y14474D02*
D03*
X18267D02*
D03*
X15707Y13474D02*
D03*
X18267D02*
D03*
X11907Y18724D02*
D03*
X14467D02*
D03*
X11907Y17724D02*
D03*
X14467D02*
D03*
X11907Y16724D02*
D03*
X14467D02*
D03*
X38367Y15474D02*
D03*
X40926D02*
D03*
X38367Y14474D02*
D03*
X40926D02*
D03*
X38367Y13474D02*
D03*
X40926D02*
D03*
X42167Y15474D02*
D03*
X44726D02*
D03*
X42167Y14474D02*
D03*
X44726D02*
D03*
X42167Y13474D02*
D03*
X44726D02*
D03*
X38367Y18724D02*
D03*
X40926D02*
D03*
X38367Y17724D02*
D03*
X40926D02*
D03*
X38367Y16724D02*
D03*
X40926D02*
D03*
X11907Y23862D02*
D03*
X14467D02*
D03*
X11907Y22862D02*
D03*
X14467D02*
D03*
X11907Y21862D02*
D03*
X14467D02*
D03*
X15707Y23862D02*
D03*
X18267D02*
D03*
X15707Y22862D02*
D03*
X18267D02*
D03*
X15707Y21862D02*
D03*
X18267D02*
D03*
X11907Y27112D02*
D03*
X14467D02*
D03*
X11907Y26112D02*
D03*
X14467D02*
D03*
X11907Y25112D02*
D03*
X14467D02*
D03*
X38367Y23862D02*
D03*
X40926D02*
D03*
X38367Y22862D02*
D03*
X40926D02*
D03*
X38367Y21862D02*
D03*
X40926D02*
D03*
X42167Y23862D02*
D03*
X44726D02*
D03*
X42167Y22862D02*
D03*
X44726D02*
D03*
X42167Y21862D02*
D03*
X44726D02*
D03*
X38367Y27112D02*
D03*
X40926D02*
D03*
X38367Y26112D02*
D03*
X40926D02*
D03*
X38367Y25112D02*
D03*
X40926D02*
D03*
X11907Y32249D02*
D03*
X14467D02*
D03*
X11907Y31249D02*
D03*
X14467D02*
D03*
X11907Y30249D02*
D03*
X14467D02*
D03*
X15707Y32249D02*
D03*
X18267D02*
D03*
X15707Y31249D02*
D03*
X18267D02*
D03*
X15707Y30249D02*
D03*
X18267D02*
D03*
X11907Y35499D02*
D03*
X14467D02*
D03*
X11907Y34499D02*
D03*
X14467D02*
D03*
X11907Y33499D02*
D03*
X14467D02*
D03*
X38367Y32249D02*
D03*
X40926D02*
D03*
X38367Y31249D02*
D03*
X40926D02*
D03*
X38367Y30249D02*
D03*
X40926D02*
D03*
X42167Y32249D02*
D03*
X44726D02*
D03*
X42167Y31249D02*
D03*
X44726D02*
D03*
X42167Y30249D02*
D03*
X44726D02*
D03*
X38367Y35499D02*
D03*
X40926D02*
D03*
X38367Y34499D02*
D03*
X40926D02*
D03*
X38367Y33499D02*
D03*
X40926D02*
D03*
X11907Y40637D02*
D03*
X14467D02*
D03*
X11907Y39637D02*
D03*
X14467D02*
D03*
X11907Y38637D02*
D03*
X14467D02*
D03*
X15707Y40637D02*
D03*
X18267D02*
D03*
X15707Y39637D02*
D03*
X18267D02*
D03*
X15707Y38637D02*
D03*
X18267D02*
D03*
X11907Y43887D02*
D03*
X14467D02*
D03*
X11907Y42887D02*
D03*
X14467D02*
D03*
X11907Y41887D02*
D03*
X14467D02*
D03*
X38367Y40637D02*
D03*
X40926D02*
D03*
X38367Y39637D02*
D03*
X40926D02*
D03*
X38367Y38637D02*
D03*
X40926D02*
D03*
X42167Y40637D02*
D03*
X44726D02*
D03*
X42167Y39637D02*
D03*
X44726D02*
D03*
X42167Y38637D02*
D03*
X44726D02*
D03*
X38367Y43887D02*
D03*
X40926D02*
D03*
X38367Y42887D02*
D03*
X40926D02*
D03*
X38367Y41887D02*
D03*
X40926D02*
D03*
X11907Y49024D02*
D03*
X14467D02*
D03*
X11907Y48024D02*
D03*
X14467D02*
D03*
X11907Y47024D02*
D03*
X14467D02*
D03*
X15707Y49024D02*
D03*
X18267D02*
D03*
X15707Y48024D02*
D03*
X18267D02*
D03*
X15707Y47024D02*
D03*
X18267D02*
D03*
X11907Y52274D02*
D03*
X14467D02*
D03*
X11907Y51274D02*
D03*
X14467D02*
D03*
X11907Y50274D02*
D03*
X14467D02*
D03*
X38367Y49024D02*
D03*
X40926D02*
D03*
X38367Y48024D02*
D03*
X40926D02*
D03*
X38367Y47024D02*
D03*
X40926D02*
D03*
X42167Y49024D02*
D03*
X44726D02*
D03*
X42167Y48024D02*
D03*
X44726D02*
D03*
X42167Y47024D02*
D03*
X44726D02*
D03*
X38367Y52274D02*
D03*
X40926D02*
D03*
X38367Y51274D02*
D03*
X40926D02*
D03*
X38367Y50274D02*
D03*
X40926D02*
D03*
D44*
X15622Y9420D02*
D03*
X15937D02*
D03*
X16252D02*
D03*
Y8554D02*
D03*
X15937D02*
D03*
X15622D02*
D03*
X42081Y9420D02*
D03*
X42396D02*
D03*
X42711D02*
D03*
Y8554D02*
D03*
X42396D02*
D03*
X42081D02*
D03*
X15622Y17807D02*
D03*
X15937D02*
D03*
X16252D02*
D03*
Y16941D02*
D03*
X15937D02*
D03*
X15622D02*
D03*
X42081Y17807D02*
D03*
X42396D02*
D03*
X42711D02*
D03*
Y16941D02*
D03*
X42396D02*
D03*
X42081D02*
D03*
X15622Y26195D02*
D03*
X15937D02*
D03*
X16252D02*
D03*
Y25329D02*
D03*
X15937D02*
D03*
X15622D02*
D03*
X42081Y26195D02*
D03*
X42396D02*
D03*
X42711D02*
D03*
Y25329D02*
D03*
X42396D02*
D03*
X42081D02*
D03*
X15622Y34582D02*
D03*
X15937D02*
D03*
X16252D02*
D03*
Y33716D02*
D03*
X15937D02*
D03*
X15622D02*
D03*
X42081Y34582D02*
D03*
X42396D02*
D03*
X42711D02*
D03*
Y33716D02*
D03*
X42396D02*
D03*
X42081D02*
D03*
X15622Y42970D02*
D03*
X15937D02*
D03*
X16252D02*
D03*
Y42104D02*
D03*
X15937D02*
D03*
X15622D02*
D03*
X42081Y42970D02*
D03*
X42396D02*
D03*
X42711D02*
D03*
Y42104D02*
D03*
X42396D02*
D03*
X42081D02*
D03*
X15622Y51357D02*
D03*
X15937D02*
D03*
X16252D02*
D03*
Y50491D02*
D03*
X15937D02*
D03*
X15622D02*
D03*
X42081Y51357D02*
D03*
X42396D02*
D03*
X42711D02*
D03*
Y50491D02*
D03*
X42396D02*
D03*
X42081D02*
D03*
D45*
X10710Y8587D02*
D03*
X11064D02*
D03*
X10410Y9187D02*
D03*
X10764D02*
D03*
X37169Y8587D02*
D03*
X37523D02*
D03*
X36869Y9187D02*
D03*
X37223D02*
D03*
X10710Y16974D02*
D03*
X11064D02*
D03*
X10410Y17574D02*
D03*
X10764D02*
D03*
X37169Y16974D02*
D03*
X37523D02*
D03*
X36869Y17574D02*
D03*
X37223D02*
D03*
X10710Y25362D02*
D03*
X11064D02*
D03*
X10410Y25962D02*
D03*
X10764D02*
D03*
X37169Y25362D02*
D03*
X37523D02*
D03*
X36869Y25962D02*
D03*
X37223D02*
D03*
X10710Y33749D02*
D03*
X11064D02*
D03*
X10410Y34349D02*
D03*
X10764D02*
D03*
X37169Y33749D02*
D03*
X37523D02*
D03*
X36869Y34349D02*
D03*
X37223D02*
D03*
X10710Y42137D02*
D03*
X11064D02*
D03*
X10410Y42737D02*
D03*
X10764D02*
D03*
X37169Y42137D02*
D03*
X37523D02*
D03*
X36869Y42737D02*
D03*
X37223D02*
D03*
X10710Y50524D02*
D03*
X11064D02*
D03*
X10410Y51124D02*
D03*
X10764D02*
D03*
X37169Y50524D02*
D03*
X37523D02*
D03*
X36869Y51124D02*
D03*
X37223D02*
D03*
D46*
X15437Y10060D02*
D03*
Y10414D02*
D03*
X15837Y10060D02*
D03*
Y10414D02*
D03*
X16237Y10060D02*
D03*
Y10414D02*
D03*
X9687Y8960D02*
D03*
Y9314D02*
D03*
X10087Y8960D02*
D03*
Y9314D02*
D03*
X8337Y7914D02*
D03*
Y7560D02*
D03*
X41896Y10060D02*
D03*
Y10414D02*
D03*
X42296Y10060D02*
D03*
Y10414D02*
D03*
X42696Y10060D02*
D03*
Y10414D02*
D03*
X36146Y8960D02*
D03*
Y9314D02*
D03*
X36546Y8960D02*
D03*
Y9314D02*
D03*
X34796Y7914D02*
D03*
Y7560D02*
D03*
X15437Y18447D02*
D03*
Y18802D02*
D03*
X15837Y18447D02*
D03*
Y18802D02*
D03*
X16237Y18447D02*
D03*
Y18802D02*
D03*
X9687Y17347D02*
D03*
Y17702D02*
D03*
X10087Y17347D02*
D03*
Y17702D02*
D03*
X8337Y16302D02*
D03*
Y15947D02*
D03*
X41896Y18447D02*
D03*
Y18802D02*
D03*
X42296Y18447D02*
D03*
Y18802D02*
D03*
X42696Y18447D02*
D03*
Y18802D02*
D03*
X36146Y17347D02*
D03*
Y17702D02*
D03*
X36546Y17347D02*
D03*
Y17702D02*
D03*
X34796Y16302D02*
D03*
Y15947D02*
D03*
X15437Y26835D02*
D03*
Y27189D02*
D03*
X15837Y26835D02*
D03*
Y27189D02*
D03*
X16237Y26835D02*
D03*
Y27189D02*
D03*
X9687Y25735D02*
D03*
Y26089D02*
D03*
X10087Y25735D02*
D03*
Y26089D02*
D03*
X8337Y24689D02*
D03*
Y24335D02*
D03*
X41896Y26835D02*
D03*
Y27189D02*
D03*
X42296Y26835D02*
D03*
Y27189D02*
D03*
X42696Y26835D02*
D03*
Y27189D02*
D03*
X36146Y25735D02*
D03*
Y26089D02*
D03*
X36546Y25735D02*
D03*
Y26089D02*
D03*
X34796Y24689D02*
D03*
Y24335D02*
D03*
X15437Y35222D02*
D03*
Y35576D02*
D03*
X15837Y35222D02*
D03*
Y35576D02*
D03*
X16237Y35222D02*
D03*
Y35576D02*
D03*
X9687Y34122D02*
D03*
Y34476D02*
D03*
X10087Y34122D02*
D03*
Y34476D02*
D03*
X8337Y33076D02*
D03*
Y32722D02*
D03*
X41896Y35222D02*
D03*
Y35576D02*
D03*
X42296Y35222D02*
D03*
Y35576D02*
D03*
X42696Y35222D02*
D03*
Y35576D02*
D03*
X36146Y34122D02*
D03*
Y34476D02*
D03*
X36546Y34122D02*
D03*
Y34476D02*
D03*
X34796Y33076D02*
D03*
Y32722D02*
D03*
X15437Y43609D02*
D03*
Y43964D02*
D03*
X15837Y43609D02*
D03*
Y43964D02*
D03*
X16237Y43609D02*
D03*
Y43964D02*
D03*
X9687Y42509D02*
D03*
Y42864D02*
D03*
X10087Y42509D02*
D03*
Y42864D02*
D03*
X8337Y41464D02*
D03*
Y41109D02*
D03*
X41896Y43609D02*
D03*
Y43964D02*
D03*
X42296Y43609D02*
D03*
Y43964D02*
D03*
X42696Y43609D02*
D03*
Y43964D02*
D03*
X36146Y42509D02*
D03*
Y42864D02*
D03*
X36546Y42509D02*
D03*
Y42864D02*
D03*
X34796Y41464D02*
D03*
Y41109D02*
D03*
X15437Y51997D02*
D03*
Y52351D02*
D03*
X15837Y51997D02*
D03*
Y52351D02*
D03*
X16237Y51997D02*
D03*
Y52351D02*
D03*
X9687Y50897D02*
D03*
Y51251D02*
D03*
X10087Y50897D02*
D03*
Y51251D02*
D03*
X8337Y49851D02*
D03*
Y49497D02*
D03*
X41896Y51997D02*
D03*
Y52351D02*
D03*
X42296Y51997D02*
D03*
Y52351D02*
D03*
X42696Y51997D02*
D03*
Y52351D02*
D03*
X36146Y50897D02*
D03*
Y51251D02*
D03*
X36546Y50897D02*
D03*
Y51251D02*
D03*
X34796Y49851D02*
D03*
Y49497D02*
D03*
D47*
X9159Y8009D02*
D03*
Y7852D02*
D03*
Y7694D02*
D03*
Y7537D02*
D03*
Y7380D02*
D03*
Y7222D02*
D03*
Y7065D02*
D03*
X10715D02*
D03*
Y7222D02*
D03*
Y7380D02*
D03*
Y7537D02*
D03*
Y7694D02*
D03*
Y7852D02*
D03*
Y8009D02*
D03*
X35619D02*
D03*
Y7852D02*
D03*
Y7694D02*
D03*
Y7537D02*
D03*
Y7380D02*
D03*
Y7222D02*
D03*
Y7065D02*
D03*
X37174D02*
D03*
Y7222D02*
D03*
Y7380D02*
D03*
Y7537D02*
D03*
Y7694D02*
D03*
Y7852D02*
D03*
Y8009D02*
D03*
X9159Y16397D02*
D03*
Y16239D02*
D03*
Y16082D02*
D03*
Y15924D02*
D03*
Y15767D02*
D03*
Y15609D02*
D03*
Y15452D02*
D03*
X10715D02*
D03*
Y15609D02*
D03*
Y15767D02*
D03*
Y15924D02*
D03*
Y16082D02*
D03*
Y16239D02*
D03*
Y16397D02*
D03*
X35619D02*
D03*
Y16239D02*
D03*
Y16082D02*
D03*
Y15924D02*
D03*
Y15767D02*
D03*
Y15609D02*
D03*
Y15452D02*
D03*
X37174D02*
D03*
Y15609D02*
D03*
Y15767D02*
D03*
Y15924D02*
D03*
Y16082D02*
D03*
Y16239D02*
D03*
Y16397D02*
D03*
X9159Y24784D02*
D03*
Y24627D02*
D03*
Y24469D02*
D03*
Y24312D02*
D03*
Y24154D02*
D03*
Y23997D02*
D03*
Y23839D02*
D03*
X10715D02*
D03*
Y23997D02*
D03*
Y24154D02*
D03*
Y24312D02*
D03*
Y24469D02*
D03*
Y24627D02*
D03*
Y24784D02*
D03*
X35619D02*
D03*
Y24627D02*
D03*
Y24469D02*
D03*
Y24312D02*
D03*
Y24154D02*
D03*
Y23997D02*
D03*
Y23839D02*
D03*
X37174D02*
D03*
Y23997D02*
D03*
Y24154D02*
D03*
Y24312D02*
D03*
Y24469D02*
D03*
Y24627D02*
D03*
Y24784D02*
D03*
X9159Y33172D02*
D03*
Y33014D02*
D03*
Y32857D02*
D03*
Y32699D02*
D03*
Y32542D02*
D03*
Y32384D02*
D03*
Y32227D02*
D03*
X10715D02*
D03*
Y32384D02*
D03*
Y32542D02*
D03*
Y32699D02*
D03*
Y32857D02*
D03*
Y33014D02*
D03*
Y33172D02*
D03*
X35619D02*
D03*
Y33014D02*
D03*
Y32857D02*
D03*
Y32699D02*
D03*
Y32542D02*
D03*
Y32384D02*
D03*
Y32227D02*
D03*
X37174D02*
D03*
Y32384D02*
D03*
Y32542D02*
D03*
Y32699D02*
D03*
Y32857D02*
D03*
Y33014D02*
D03*
Y33172D02*
D03*
X9159Y41559D02*
D03*
Y41402D02*
D03*
Y41244D02*
D03*
Y41087D02*
D03*
Y40929D02*
D03*
Y40772D02*
D03*
Y40614D02*
D03*
X10715D02*
D03*
Y40772D02*
D03*
Y40929D02*
D03*
Y41087D02*
D03*
Y41244D02*
D03*
Y41402D02*
D03*
Y41559D02*
D03*
X35619D02*
D03*
Y41402D02*
D03*
Y41244D02*
D03*
Y41087D02*
D03*
Y40929D02*
D03*
Y40772D02*
D03*
Y40614D02*
D03*
X37174D02*
D03*
Y40772D02*
D03*
Y40929D02*
D03*
Y41087D02*
D03*
Y41244D02*
D03*
Y41402D02*
D03*
Y41559D02*
D03*
X9159Y49946D02*
D03*
Y49789D02*
D03*
Y49632D02*
D03*
Y49474D02*
D03*
Y49317D02*
D03*
Y49159D02*
D03*
Y49002D02*
D03*
X10715D02*
D03*
Y49159D02*
D03*
Y49317D02*
D03*
Y49474D02*
D03*
Y49632D02*
D03*
Y49789D02*
D03*
Y49946D02*
D03*
X35619D02*
D03*
Y49789D02*
D03*
Y49632D02*
D03*
Y49474D02*
D03*
Y49317D02*
D03*
Y49159D02*
D03*
Y49002D02*
D03*
X37174D02*
D03*
Y49159D02*
D03*
Y49317D02*
D03*
Y49474D02*
D03*
Y49632D02*
D03*
Y49789D02*
D03*
Y49946D02*
D03*
D48*
X9465Y6759D02*
D03*
X9622D02*
D03*
X9780D02*
D03*
X9937D02*
D03*
X10094D02*
D03*
X10252D02*
D03*
X10409D02*
D03*
Y8315D02*
D03*
X10252D02*
D03*
X10094D02*
D03*
X9937D02*
D03*
X9780D02*
D03*
X9622D02*
D03*
X9465D02*
D03*
X35924Y6759D02*
D03*
X36081D02*
D03*
X36239D02*
D03*
X36396D02*
D03*
X36554D02*
D03*
X36711D02*
D03*
X36869D02*
D03*
Y8315D02*
D03*
X36711D02*
D03*
X36554D02*
D03*
X36396D02*
D03*
X36239D02*
D03*
X36081D02*
D03*
X35924D02*
D03*
X9465Y15147D02*
D03*
X9622D02*
D03*
X9780D02*
D03*
X9937D02*
D03*
X10094D02*
D03*
X10252D02*
D03*
X10409D02*
D03*
Y16702D02*
D03*
X10252D02*
D03*
X10094D02*
D03*
X9937D02*
D03*
X9780D02*
D03*
X9622D02*
D03*
X9465D02*
D03*
X35924Y15147D02*
D03*
X36081D02*
D03*
X36239D02*
D03*
X36396D02*
D03*
X36554D02*
D03*
X36711D02*
D03*
X36869D02*
D03*
Y16702D02*
D03*
X36711D02*
D03*
X36554D02*
D03*
X36396D02*
D03*
X36239D02*
D03*
X36081D02*
D03*
X35924D02*
D03*
X9465Y23534D02*
D03*
X9622D02*
D03*
X9780D02*
D03*
X9937D02*
D03*
X10094D02*
D03*
X10252D02*
D03*
X10409D02*
D03*
Y25089D02*
D03*
X10252D02*
D03*
X10094D02*
D03*
X9937D02*
D03*
X9780D02*
D03*
X9622D02*
D03*
X9465D02*
D03*
X35924Y23534D02*
D03*
X36081D02*
D03*
X36239D02*
D03*
X36396D02*
D03*
X36554D02*
D03*
X36711D02*
D03*
X36869D02*
D03*
Y25089D02*
D03*
X36711D02*
D03*
X36554D02*
D03*
X36396D02*
D03*
X36239D02*
D03*
X36081D02*
D03*
X35924D02*
D03*
X9465Y31922D02*
D03*
X9622D02*
D03*
X9780D02*
D03*
X9937D02*
D03*
X10094D02*
D03*
X10252D02*
D03*
X10409D02*
D03*
Y33477D02*
D03*
X10252D02*
D03*
X10094D02*
D03*
X9937D02*
D03*
X9780D02*
D03*
X9622D02*
D03*
X9465D02*
D03*
X35924Y31922D02*
D03*
X36081D02*
D03*
X36239D02*
D03*
X36396D02*
D03*
X36554D02*
D03*
X36711D02*
D03*
X36869D02*
D03*
Y33477D02*
D03*
X36711D02*
D03*
X36554D02*
D03*
X36396D02*
D03*
X36239D02*
D03*
X36081D02*
D03*
X35924D02*
D03*
X9465Y40309D02*
D03*
X9622D02*
D03*
X9780D02*
D03*
X9937D02*
D03*
X10094D02*
D03*
X10252D02*
D03*
X10409D02*
D03*
Y41864D02*
D03*
X10252D02*
D03*
X10094D02*
D03*
X9937D02*
D03*
X9780D02*
D03*
X9622D02*
D03*
X9465D02*
D03*
X35924Y40309D02*
D03*
X36081D02*
D03*
X36239D02*
D03*
X36396D02*
D03*
X36554D02*
D03*
X36711D02*
D03*
X36869D02*
D03*
Y41864D02*
D03*
X36711D02*
D03*
X36554D02*
D03*
X36396D02*
D03*
X36239D02*
D03*
X36081D02*
D03*
X35924D02*
D03*
X9465Y48696D02*
D03*
X9622D02*
D03*
X9780D02*
D03*
X9937D02*
D03*
X10094D02*
D03*
X10252D02*
D03*
X10409D02*
D03*
Y50252D02*
D03*
X10252D02*
D03*
X10094D02*
D03*
X9937D02*
D03*
X9780D02*
D03*
X9622D02*
D03*
X9465D02*
D03*
X35924Y48696D02*
D03*
X36081D02*
D03*
X36239D02*
D03*
X36396D02*
D03*
X36554D02*
D03*
X36711D02*
D03*
X36869D02*
D03*
Y50252D02*
D03*
X36711D02*
D03*
X36554D02*
D03*
X36396D02*
D03*
X36239D02*
D03*
X36081D02*
D03*
X35924D02*
D03*
D49*
X9937Y7537D02*
D03*
X36396D02*
D03*
X9937Y15924D02*
D03*
X36396D02*
D03*
X9937Y24312D02*
D03*
X36396D02*
D03*
X9937Y32699D02*
D03*
X36396D02*
D03*
X9937Y41087D02*
D03*
X36396D02*
D03*
X9937Y49474D02*
D03*
X36396D02*
D03*
D50*
X1969Y1969D02*
D03*
Y55413D02*
D03*
X56988D02*
D03*
Y1969D02*
D03*
D51*
X3912Y7287D02*
D03*
Y7537D02*
D03*
Y7787D02*
D03*
Y8037D02*
D03*
Y8287D02*
D03*
Y7037D02*
D03*
X22537Y7637D02*
D03*
X23787D02*
D03*
X23537D02*
D03*
X23287D02*
D03*
X23037D02*
D03*
X22787D02*
D03*
X5639Y5687D02*
D03*
X7608D02*
D03*
X5639Y9687D02*
D03*
X7608D02*
D03*
X30371Y7287D02*
D03*
Y7537D02*
D03*
Y7787D02*
D03*
Y8037D02*
D03*
Y8287D02*
D03*
Y7037D02*
D03*
X48996Y7637D02*
D03*
X50246D02*
D03*
X49996D02*
D03*
X49746D02*
D03*
X49496D02*
D03*
X49246D02*
D03*
X32098Y5687D02*
D03*
X34067D02*
D03*
X32098Y9687D02*
D03*
X34067D02*
D03*
X3912Y15674D02*
D03*
Y15924D02*
D03*
Y16174D02*
D03*
Y16424D02*
D03*
Y16674D02*
D03*
Y15424D02*
D03*
X22537Y16024D02*
D03*
X23787D02*
D03*
X23537D02*
D03*
X23287D02*
D03*
X23037D02*
D03*
X22787D02*
D03*
X5639Y14074D02*
D03*
X7608D02*
D03*
X5639Y18074D02*
D03*
X7608D02*
D03*
X30371Y15674D02*
D03*
Y15924D02*
D03*
Y16174D02*
D03*
Y16424D02*
D03*
Y16674D02*
D03*
Y15424D02*
D03*
X48996Y16024D02*
D03*
X50246D02*
D03*
X49996D02*
D03*
X49746D02*
D03*
X49496D02*
D03*
X49246D02*
D03*
X32098Y14074D02*
D03*
X34067D02*
D03*
X32098Y18074D02*
D03*
X34067D02*
D03*
X3912Y24062D02*
D03*
Y24312D02*
D03*
Y24562D02*
D03*
Y24812D02*
D03*
Y25062D02*
D03*
Y23812D02*
D03*
X22537Y24412D02*
D03*
X23787D02*
D03*
X23537D02*
D03*
X23287D02*
D03*
X23037D02*
D03*
X22787D02*
D03*
X5639Y22462D02*
D03*
X7608D02*
D03*
X5639Y26462D02*
D03*
X7608D02*
D03*
X30371Y24062D02*
D03*
Y24312D02*
D03*
Y24562D02*
D03*
Y24812D02*
D03*
Y25062D02*
D03*
Y23812D02*
D03*
X48996Y24412D02*
D03*
X50246D02*
D03*
X49996D02*
D03*
X49746D02*
D03*
X49496D02*
D03*
X49246D02*
D03*
X32098Y22462D02*
D03*
X34067D02*
D03*
X32098Y26462D02*
D03*
X34067D02*
D03*
X3912Y32449D02*
D03*
Y32699D02*
D03*
Y32949D02*
D03*
Y33199D02*
D03*
Y33449D02*
D03*
Y32199D02*
D03*
X22537Y32799D02*
D03*
X23787D02*
D03*
X23537D02*
D03*
X23287D02*
D03*
X23037D02*
D03*
X22787D02*
D03*
X5639Y30849D02*
D03*
X7608D02*
D03*
X5639Y34849D02*
D03*
X7608D02*
D03*
X30371Y32449D02*
D03*
Y32699D02*
D03*
Y32949D02*
D03*
Y33199D02*
D03*
Y33449D02*
D03*
Y32199D02*
D03*
X48996Y32799D02*
D03*
X50246D02*
D03*
X49996D02*
D03*
X49746D02*
D03*
X49496D02*
D03*
X49246D02*
D03*
X32098Y30849D02*
D03*
X34067D02*
D03*
X32098Y34849D02*
D03*
X34067D02*
D03*
X3912Y40837D02*
D03*
Y41087D02*
D03*
Y41337D02*
D03*
Y41587D02*
D03*
Y41837D02*
D03*
Y40587D02*
D03*
X22537Y41187D02*
D03*
X23787D02*
D03*
X23537D02*
D03*
X23287D02*
D03*
X23037D02*
D03*
X22787D02*
D03*
X5639Y39237D02*
D03*
X7608D02*
D03*
X5639Y43237D02*
D03*
X7608D02*
D03*
X30371Y40837D02*
D03*
Y41087D02*
D03*
Y41337D02*
D03*
Y41587D02*
D03*
Y41837D02*
D03*
Y40587D02*
D03*
X48996Y41187D02*
D03*
X50246D02*
D03*
X49996D02*
D03*
X49746D02*
D03*
X49496D02*
D03*
X49246D02*
D03*
X32098Y39237D02*
D03*
X34067D02*
D03*
X32098Y43237D02*
D03*
X34067D02*
D03*
X3912Y49224D02*
D03*
Y49474D02*
D03*
Y49724D02*
D03*
Y49974D02*
D03*
Y50224D02*
D03*
Y48974D02*
D03*
X22537Y49574D02*
D03*
X23787D02*
D03*
X23537D02*
D03*
X23287D02*
D03*
X23037D02*
D03*
X22787D02*
D03*
X5639Y47624D02*
D03*
X7608D02*
D03*
X5639Y51624D02*
D03*
X7608D02*
D03*
X30371Y49224D02*
D03*
Y49474D02*
D03*
Y49724D02*
D03*
Y49974D02*
D03*
Y50224D02*
D03*
Y48974D02*
D03*
X48996Y49574D02*
D03*
X50246D02*
D03*
X49996D02*
D03*
X49746D02*
D03*
X49496D02*
D03*
X49246D02*
D03*
X32098Y47624D02*
D03*
X34067D02*
D03*
X32098Y51624D02*
D03*
X34067D02*
D03*
D52*
X23437Y9587D02*
D03*
X49896D02*
D03*
X23437Y17974D02*
D03*
X49896D02*
D03*
X23437Y26362D02*
D03*
X49896D02*
D03*
X23437Y34749D02*
D03*
X49896D02*
D03*
X23437Y43137D02*
D03*
X49896D02*
D03*
X23437Y51524D02*
D03*
X49896D02*
D03*
D53*
X21437Y10137D02*
D03*
X10487Y5237D02*
D03*
X47896Y10137D02*
D03*
X36946Y5237D02*
D03*
X21437Y18524D02*
D03*
X10487Y13624D02*
D03*
X47896Y18524D02*
D03*
X36946Y13624D02*
D03*
X21437Y26912D02*
D03*
X10487Y22012D02*
D03*
X47896Y26912D02*
D03*
X36946Y22012D02*
D03*
X21437Y35299D02*
D03*
X10487Y30399D02*
D03*
X47896Y35299D02*
D03*
X36946Y30399D02*
D03*
X21437Y43687D02*
D03*
X10487Y38787D02*
D03*
X47896Y43687D02*
D03*
X36946Y38787D02*
D03*
X21437Y52074D02*
D03*
X10487Y47174D02*
D03*
X47896Y52074D02*
D03*
X36946Y47174D02*
D03*
M02*
