%FSLAX24Y24*%
%MOIN*%
G70*
G01*
G75*
G04 Layer_Color=16711935*
%ADD10R,0.0354X0.0197*%
%ADD11R,0.0197X0.0354*%
%ADD12O,0.0571X0.0177*%
%ADD13R,0.0512X0.0236*%
%ADD14R,0.0236X0.0165*%
%ADD15R,0.0236X0.0512*%
%ADD16R,0.0413X0.0236*%
%ADD17R,0.1102X0.0492*%
%ADD18O,0.0630X0.0118*%
%ADD19R,0.0661X0.0740*%
%ADD20R,0.0512X0.0512*%
%ADD21R,0.0669X0.0433*%
%ADD22C,0.0310*%
%ADD23R,0.0374X0.0177*%
%ADD24R,0.0276X0.0591*%
%ADD25R,0.0591X0.0276*%
%ADD26C,0.0150*%
%ADD27C,0.0120*%
%ADD28R,0.0591X0.0591*%
%ADD29C,0.0591*%
%ADD30C,0.0709*%
%ADD31C,0.0661*%
%ADD32C,0.0390*%
%ADD33C,0.0280*%
%ADD34C,0.0400*%
%ADD35C,0.0197*%
%ADD36C,0.1575*%
%ADD37C,0.0600*%
%ADD38R,0.0358X0.1433*%
%ADD39C,0.0098*%
%ADD40C,0.0236*%
%ADD41C,0.0100*%
%ADD42C,0.0050*%
%ADD43C,0.0039*%
%ADD44C,0.0079*%
%ADD45C,0.0060*%
%ADD46R,0.0414X0.0257*%
%ADD47R,0.0257X0.0414*%
%ADD48O,0.0631X0.0237*%
%ADD49R,0.0572X0.0296*%
%ADD50R,0.0296X0.0225*%
%ADD51R,0.0296X0.0572*%
%ADD52R,0.0473X0.0296*%
%ADD53R,0.1162X0.0552*%
%ADD54O,0.0690X0.0178*%
%ADD55R,0.0721X0.0800*%
%ADD56R,0.0572X0.0572*%
%ADD57R,0.0729X0.0493*%
%ADD58C,0.0370*%
%ADD59R,0.0434X0.0237*%
%ADD60R,0.0336X0.0651*%
%ADD61R,0.0651X0.0336*%
%ADD62R,0.0651X0.0651*%
%ADD63C,0.0651*%
%ADD64C,0.0060*%
%ADD65C,0.0769*%
%ADD66C,0.0721*%
%ADD67C,0.1175*%
%ADD68R,0.0418X0.1493*%
D37*
X17000Y15000D02*
D03*
D62*
X27650Y22400D02*
D03*
D63*
X26650D02*
D03*
D64*
X16700Y17600D02*
D03*
Y18600D02*
D03*
D65*
X17700Y17600D02*
D03*
Y18600D02*
D03*
D66*
X38250Y22750D02*
D03*
X30750Y22250D02*
D03*
D67*
X17300Y13300D02*
D03*
X45200Y22450D02*
D03*
X17300D02*
D03*
X45200Y13300D02*
D03*
D68*
X23350Y14587D02*
D03*
Y16713D02*
D03*
X20450Y14587D02*
D03*
Y16713D02*
D03*
X23350Y20913D02*
D03*
Y18787D02*
D03*
X20450Y20913D02*
D03*
Y18787D02*
D03*
M02*
