M48
;Layer_Color=9474304
;FILE_FORMAT=2:4
INCH,LZ
;TYPE=PLATED
T1F00S00C0.0079
T2F00S00C0.0120
T3F00S00C0.0350
T4F00S00C0.0354
T5F00S00C0.0472
T6F00S00C0.0551
T7F00S00C0.1496
%
T01
X028Y016933
Y017367
T02
X0189Y0134
X0226Y01295
X0244Y01555
X0255Y01525
X0264Y0143
X0279Y01295
X03365
X03245Y0155
X0363Y0153
X0359Y01615
Y01655
X0351
Y01615
X03355Y01575
X03365Y01965
X03265Y0196
X032104Y0206
X03265Y0216
X0363Y02135
X03715Y01975
X03035Y0187
X0302Y0175
X02955
X0308Y0176
X0309Y01615
X0255Y01645
Y01585
X024Y01625
X0244Y01705
X0257Y0193
X02525Y019963
X02565Y0208
X0274Y0193
X0298Y02105
T03
X0171Y0131
T04
X01725Y0155
X01825
X02025Y01325
X02125
X024
X025
X02925
X03025
X035
X036
X03825Y01525
X03925
Y017
X03825
Y01875
X03925
Y0205
X03825
X02125Y02275
X02025
X01825Y02075
X01725
Y01925
X01825
Y017
X01725
T05
X0365Y023
X03075
X028
X0153Y0186
Y0176
T06
X0143Y0176
Y0186
T07
X01505Y0133
X03895
Y02245
X01505
M30
