G04 Layer_Color=16711935*
%FSLAX24Y24*%
%MOIN*%
G70*
G01*
G75*
%ADD29C,0.0100*%
D29*
X0Y0D02*
X65654D01*
Y80885D01*
X0D02*
X65654D01*
X0Y0D02*
Y80885D01*
X7874Y8774D02*
G03*
X8774Y7874I900J0D01*
G01*
Y18074D02*
G03*
X7874Y17174I0J-900D01*
G01*
X17974Y7874D02*
G03*
X18874Y8774I0J900D01*
G01*
Y15424D01*
X7874Y8774D02*
Y17174D01*
X8774Y7874D02*
X17974D01*
X17424Y15424D02*
X18874D01*
X17424D02*
Y18074D01*
X8774D02*
X17424D01*
X20843Y8774D02*
G03*
X21743Y7874I900J0D01*
G01*
Y18074D02*
G03*
X20843Y17174I0J-900D01*
G01*
X30943Y7874D02*
G03*
X31843Y8774I0J900D01*
G01*
Y15424D01*
X20843Y8774D02*
Y17174D01*
X21743Y7874D02*
X30943D01*
X30393Y15424D02*
X31843D01*
X30393D02*
Y18074D01*
X21743D02*
X30393D01*
X33811Y8774D02*
G03*
X34711Y7874I900J0D01*
G01*
Y18074D02*
G03*
X33811Y17174I0J-900D01*
G01*
X43911Y7874D02*
G03*
X44811Y8774I0J900D01*
G01*
Y15424D01*
X33811Y8774D02*
Y17174D01*
X34711Y7874D02*
X43911D01*
X43361Y15424D02*
X44811D01*
X43361D02*
Y18074D01*
X34711D02*
X43361D01*
X46780Y8774D02*
G03*
X47680Y7874I900J0D01*
G01*
Y18074D02*
G03*
X46780Y17174I0J-900D01*
G01*
X56880Y7874D02*
G03*
X57780Y8774I0J900D01*
G01*
Y15424D01*
X46780Y8774D02*
Y17174D01*
X47680Y7874D02*
X56880D01*
X56330Y15424D02*
X57780D01*
X56330D02*
Y18074D01*
X47680D02*
X56330D01*
X7874Y19761D02*
G03*
X8774Y18861I900J0D01*
G01*
Y29061D02*
G03*
X7874Y28161I0J-900D01*
G01*
X17974Y18861D02*
G03*
X18874Y19761I0J900D01*
G01*
Y26411D01*
X7874Y19761D02*
Y28161D01*
X8774Y18861D02*
X17974D01*
X17424Y26411D02*
X18874D01*
X17424D02*
Y29061D01*
X8774D02*
X17424D01*
X20843Y19761D02*
G03*
X21743Y18861I900J0D01*
G01*
Y29061D02*
G03*
X20843Y28161I0J-900D01*
G01*
X30943Y18861D02*
G03*
X31843Y19761I0J900D01*
G01*
Y26411D01*
X20843Y19761D02*
Y28161D01*
X21743Y18861D02*
X30943D01*
X30393Y26411D02*
X31843D01*
X30393D02*
Y29061D01*
X21743D02*
X30393D01*
X33811Y19761D02*
G03*
X34711Y18861I900J0D01*
G01*
Y29061D02*
G03*
X33811Y28161I0J-900D01*
G01*
X43911Y18861D02*
G03*
X44811Y19761I0J900D01*
G01*
Y26411D01*
X33811Y19761D02*
Y28161D01*
X34711Y18861D02*
X43911D01*
X43361Y26411D02*
X44811D01*
X43361D02*
Y29061D01*
X34711D02*
X43361D01*
X46780Y19761D02*
G03*
X47680Y18861I900J0D01*
G01*
Y29061D02*
G03*
X46780Y28161I0J-900D01*
G01*
X56880Y18861D02*
G03*
X57780Y19761I0J900D01*
G01*
Y26411D01*
X46780Y19761D02*
Y28161D01*
X47680Y18861D02*
X56880D01*
X56330Y26411D02*
X57780D01*
X56330D02*
Y29061D01*
X47680D02*
X56330D01*
X7874Y30749D02*
G03*
X8774Y29849I900J0D01*
G01*
Y40049D02*
G03*
X7874Y39149I0J-900D01*
G01*
X17974Y29849D02*
G03*
X18874Y30749I0J900D01*
G01*
Y37399D01*
X7874Y30749D02*
Y39149D01*
X8774Y29849D02*
X17974D01*
X17424Y37399D02*
X18874D01*
X17424D02*
Y40049D01*
X8774D02*
X17424D01*
X20843Y30749D02*
G03*
X21743Y29849I900J0D01*
G01*
Y40049D02*
G03*
X20843Y39149I0J-900D01*
G01*
X30943Y29849D02*
G03*
X31843Y30749I0J900D01*
G01*
Y37399D01*
X20843Y30749D02*
Y39149D01*
X21743Y29849D02*
X30943D01*
X30393Y37399D02*
X31843D01*
X30393D02*
Y40049D01*
X21743D02*
X30393D01*
X33811Y30749D02*
G03*
X34711Y29849I900J0D01*
G01*
Y40049D02*
G03*
X33811Y39149I0J-900D01*
G01*
X43911Y29849D02*
G03*
X44811Y30749I0J900D01*
G01*
Y37399D01*
X33811Y30749D02*
Y39149D01*
X34711Y29849D02*
X43911D01*
X43361Y37399D02*
X44811D01*
X43361D02*
Y40049D01*
X34711D02*
X43361D01*
X46780Y30749D02*
G03*
X47680Y29849I900J0D01*
G01*
Y40049D02*
G03*
X46780Y39149I0J-900D01*
G01*
X56880Y29849D02*
G03*
X57780Y30749I0J900D01*
G01*
Y37399D01*
X46780Y30749D02*
Y39149D01*
X47680Y29849D02*
X56880D01*
X56330Y37399D02*
X57780D01*
X56330D02*
Y40049D01*
X47680D02*
X56330D01*
X7874Y41736D02*
G03*
X8774Y40836I900J0D01*
G01*
Y51036D02*
G03*
X7874Y50136I0J-900D01*
G01*
X17974Y40836D02*
G03*
X18874Y41736I0J900D01*
G01*
Y48386D01*
X7874Y41736D02*
Y50136D01*
X8774Y40836D02*
X17974D01*
X17424Y48386D02*
X18874D01*
X17424D02*
Y51036D01*
X8774D02*
X17424D01*
X20843Y41736D02*
G03*
X21743Y40836I900J0D01*
G01*
Y51036D02*
G03*
X20843Y50136I0J-900D01*
G01*
X30943Y40836D02*
G03*
X31843Y41736I0J900D01*
G01*
Y48386D01*
X20843Y41736D02*
Y50136D01*
X21743Y40836D02*
X30943D01*
X30393Y48386D02*
X31843D01*
X30393D02*
Y51036D01*
X21743D02*
X30393D01*
X33811Y41736D02*
G03*
X34711Y40836I900J0D01*
G01*
Y51036D02*
G03*
X33811Y50136I0J-900D01*
G01*
X43911Y40836D02*
G03*
X44811Y41736I0J900D01*
G01*
Y48386D01*
X33811Y41736D02*
Y50136D01*
X34711Y40836D02*
X43911D01*
X43361Y48386D02*
X44811D01*
X43361D02*
Y51036D01*
X34711D02*
X43361D01*
X46780Y41736D02*
G03*
X47680Y40836I900J0D01*
G01*
Y51036D02*
G03*
X46780Y50136I0J-900D01*
G01*
X56880Y40836D02*
G03*
X57780Y41736I0J900D01*
G01*
Y48386D01*
X46780Y41736D02*
Y50136D01*
X47680Y40836D02*
X56880D01*
X56330Y48386D02*
X57780D01*
X56330D02*
Y51036D01*
X47680D02*
X56330D01*
X7874Y52724D02*
G03*
X8774Y51824I900J0D01*
G01*
Y62024D02*
G03*
X7874Y61124I0J-900D01*
G01*
X17974Y51824D02*
G03*
X18874Y52724I0J900D01*
G01*
Y59374D01*
X7874Y52724D02*
Y61124D01*
X8774Y51824D02*
X17974D01*
X17424Y59374D02*
X18874D01*
X17424D02*
Y62024D01*
X8774D02*
X17424D01*
X20843Y52724D02*
G03*
X21743Y51824I900J0D01*
G01*
Y62024D02*
G03*
X20843Y61124I0J-900D01*
G01*
X30943Y51824D02*
G03*
X31843Y52724I0J900D01*
G01*
Y59374D01*
X20843Y52724D02*
Y61124D01*
X21743Y51824D02*
X30943D01*
X30393Y59374D02*
X31843D01*
X30393D02*
Y62024D01*
X21743D02*
X30393D01*
X33811Y52724D02*
G03*
X34711Y51824I900J0D01*
G01*
Y62024D02*
G03*
X33811Y61124I0J-900D01*
G01*
X43911Y51824D02*
G03*
X44811Y52724I0J900D01*
G01*
Y59374D01*
X33811Y52724D02*
Y61124D01*
X34711Y51824D02*
X43911D01*
X43361Y59374D02*
X44811D01*
X43361D02*
Y62024D01*
X34711D02*
X43361D01*
X46780Y52724D02*
G03*
X47680Y51824I900J0D01*
G01*
Y62024D02*
G03*
X46780Y61124I0J-900D01*
G01*
X56880Y51824D02*
G03*
X57780Y52724I0J900D01*
G01*
Y59374D01*
X46780Y52724D02*
Y61124D01*
X47680Y51824D02*
X56880D01*
X56330Y59374D02*
X57780D01*
X56330D02*
Y62024D01*
X47680D02*
X56330D01*
X7874Y63711D02*
G03*
X8774Y62811I900J0D01*
G01*
Y73011D02*
G03*
X7874Y72111I0J-900D01*
G01*
X17974Y62811D02*
G03*
X18874Y63711I0J900D01*
G01*
Y70361D01*
X7874Y63711D02*
Y72111D01*
X8774Y62811D02*
X17974D01*
X17424Y70361D02*
X18874D01*
X17424D02*
Y73011D01*
X8774D02*
X17424D01*
X20843Y63711D02*
G03*
X21743Y62811I900J0D01*
G01*
Y73011D02*
G03*
X20843Y72111I0J-900D01*
G01*
X30943Y62811D02*
G03*
X31843Y63711I0J900D01*
G01*
Y70361D01*
X20843Y63711D02*
Y72111D01*
X21743Y62811D02*
X30943D01*
X30393Y70361D02*
X31843D01*
X30393D02*
Y73011D01*
X21743D02*
X30393D01*
X33811Y63711D02*
G03*
X34711Y62811I900J0D01*
G01*
Y73011D02*
G03*
X33811Y72111I0J-900D01*
G01*
X43911Y62811D02*
G03*
X44811Y63711I0J900D01*
G01*
Y70361D01*
X33811Y63711D02*
Y72111D01*
X34711Y62811D02*
X43911D01*
X43361Y70361D02*
X44811D01*
X43361D02*
Y73011D01*
X34711D02*
X43361D01*
X46780Y63711D02*
G03*
X47680Y62811I900J0D01*
G01*
Y73011D02*
G03*
X46780Y72111I0J-900D01*
G01*
X56880Y62811D02*
G03*
X57780Y63711I0J900D01*
G01*
Y70361D01*
X46780Y63711D02*
Y72111D01*
X47680Y62811D02*
X56880D01*
X56330Y70361D02*
X57780D01*
X56330D02*
Y73011D01*
X47680D02*
X56330D01*
M02*
