G04 Layer_Physical_Order=3*
G04 Layer_Color=16440176*
%FSLAX24Y24*%
%MOIN*%
G70*
G01*
G75*
%ADD27C,0.0120*%
%ADD28C,0.0080*%
%ADD29C,0.0100*%
%ADD32C,0.0180*%
%ADD33C,0.0240*%
%ADD36C,0.0200*%
D27*
X14324Y13574D02*
X18374D01*
X13674Y14224D02*
X14324Y13574D01*
X14224Y17674D02*
X14824D01*
X14034Y17484D02*
X14224Y17674D01*
X14034Y15534D02*
Y17484D01*
X13974Y15474D02*
X14034Y15534D01*
X10724Y17474D02*
X10729D01*
X10724Y17874D02*
X11274D01*
X10724Y14774D02*
X10924Y14574D01*
X13474D01*
X10474Y17624D02*
X10724Y17874D01*
X9624Y9574D02*
X10224Y8974D01*
X13074D01*
X13374Y8674D01*
X10474Y16024D02*
Y17624D01*
X9624Y9574D02*
Y15174D01*
X10474Y16024D01*
X27293Y13574D02*
X31343D01*
X26643Y14224D02*
X27293Y13574D01*
X27193Y17674D02*
X27793D01*
X27003Y17484D02*
X27193Y17674D01*
X27003Y15534D02*
Y17484D01*
X26943Y15474D02*
X27003Y15534D01*
X23693Y17474D02*
X23697D01*
X23693Y17874D02*
X24243D01*
X23693Y14774D02*
X23893Y14574D01*
X26443D01*
X23443Y17624D02*
X23693Y17874D01*
X22593Y9574D02*
X23193Y8974D01*
X26043D01*
X26343Y8674D01*
X23443Y16024D02*
Y17624D01*
X22593Y9574D02*
Y15174D01*
X23443Y16024D01*
X40261Y13574D02*
X44311D01*
X39611Y14224D02*
X40261Y13574D01*
X40161Y17674D02*
X40761D01*
X39971Y17484D02*
X40161Y17674D01*
X39971Y15534D02*
Y17484D01*
X39911Y15474D02*
X39971Y15534D01*
X36661Y17474D02*
X36666D01*
X36661Y17874D02*
X37211D01*
X36661Y14774D02*
X36861Y14574D01*
X39411D01*
X36411Y17624D02*
X36661Y17874D01*
X35561Y9574D02*
X36161Y8974D01*
X39011D01*
X39311Y8674D01*
X36411Y16024D02*
Y17624D01*
X35561Y9574D02*
Y15174D01*
X36411Y16024D01*
X53230Y13574D02*
X57280D01*
X52580Y14224D02*
X53230Y13574D01*
X53130Y17674D02*
X53730D01*
X52940Y17484D02*
X53130Y17674D01*
X52940Y15534D02*
Y17484D01*
X52880Y15474D02*
X52940Y15534D01*
X49630Y17474D02*
X49634D01*
X49630Y17874D02*
X50180D01*
X49630Y14774D02*
X49830Y14574D01*
X52380D01*
X49380Y17624D02*
X49630Y17874D01*
X48530Y9574D02*
X49130Y8974D01*
X51980D01*
X52280Y8674D01*
X49380Y16024D02*
Y17624D01*
X48530Y9574D02*
Y15174D01*
X49380Y16024D01*
X14324Y24561D02*
X18374D01*
X13674Y25211D02*
X14324Y24561D01*
X14224Y28661D02*
X14824D01*
X14034Y28471D02*
X14224Y28661D01*
X14034Y26521D02*
Y28471D01*
X13974Y26461D02*
X14034Y26521D01*
X10724Y28461D02*
X10729D01*
X10724Y28861D02*
X11274D01*
X10724Y25761D02*
X10924Y25561D01*
X13474D01*
X10474Y28611D02*
X10724Y28861D01*
X9624Y20561D02*
X10224Y19961D01*
X13074D01*
X13374Y19661D01*
X10474Y27011D02*
Y28611D01*
X9624Y20561D02*
Y26161D01*
X10474Y27011D01*
X27293Y24561D02*
X31343D01*
X26643Y25211D02*
X27293Y24561D01*
X27193Y28661D02*
X27793D01*
X27003Y28471D02*
X27193Y28661D01*
X27003Y26521D02*
Y28471D01*
X26943Y26461D02*
X27003Y26521D01*
X23693Y28461D02*
X23697D01*
X23693Y28861D02*
X24243D01*
X23693Y25761D02*
X23893Y25561D01*
X26443D01*
X23443Y28611D02*
X23693Y28861D01*
X22593Y20561D02*
X23193Y19961D01*
X26043D01*
X26343Y19661D01*
X23443Y27011D02*
Y28611D01*
X22593Y20561D02*
Y26161D01*
X23443Y27011D01*
X40261Y24561D02*
X44311D01*
X39611Y25211D02*
X40261Y24561D01*
X40161Y28661D02*
X40761D01*
X39971Y28471D02*
X40161Y28661D01*
X39971Y26521D02*
Y28471D01*
X39911Y26461D02*
X39971Y26521D01*
X36661Y28461D02*
X36666D01*
X36661Y28861D02*
X37211D01*
X36661Y25761D02*
X36861Y25561D01*
X39411D01*
X36411Y28611D02*
X36661Y28861D01*
X35561Y20561D02*
X36161Y19961D01*
X39011D01*
X39311Y19661D01*
X36411Y27011D02*
Y28611D01*
X35561Y20561D02*
Y26161D01*
X36411Y27011D01*
X53230Y24561D02*
X57280D01*
X52580Y25211D02*
X53230Y24561D01*
X53130Y28661D02*
X53730D01*
X52940Y28471D02*
X53130Y28661D01*
X52940Y26521D02*
Y28471D01*
X52880Y26461D02*
X52940Y26521D01*
X49630Y28461D02*
X49634D01*
X49630Y28861D02*
X50180D01*
X49630Y25761D02*
X49830Y25561D01*
X52380D01*
X49380Y28611D02*
X49630Y28861D01*
X48530Y20561D02*
X49130Y19961D01*
X51980D01*
X52280Y19661D01*
X49380Y27011D02*
Y28611D01*
X48530Y20561D02*
Y26161D01*
X49380Y27011D01*
X14324Y35549D02*
X18374D01*
X13674Y36199D02*
X14324Y35549D01*
X14224Y39649D02*
X14824D01*
X14034Y39459D02*
X14224Y39649D01*
X14034Y37509D02*
Y39459D01*
X13974Y37449D02*
X14034Y37509D01*
X10724Y39449D02*
X10729D01*
X10724Y39849D02*
X11274D01*
X10724Y36749D02*
X10924Y36549D01*
X13474D01*
X10474Y39599D02*
X10724Y39849D01*
X9624Y31549D02*
X10224Y30949D01*
X13074D01*
X13374Y30649D01*
X10474Y37999D02*
Y39599D01*
X9624Y31549D02*
Y37149D01*
X10474Y37999D01*
X27293Y35549D02*
X31343D01*
X26643Y36199D02*
X27293Y35549D01*
X27193Y39649D02*
X27793D01*
X27003Y39459D02*
X27193Y39649D01*
X27003Y37509D02*
Y39459D01*
X26943Y37449D02*
X27003Y37509D01*
X23693Y39449D02*
X23697D01*
X23693Y39849D02*
X24243D01*
X23693Y36749D02*
X23893Y36549D01*
X26443D01*
X23443Y39599D02*
X23693Y39849D01*
X22593Y31549D02*
X23193Y30949D01*
X26043D01*
X26343Y30649D01*
X23443Y37999D02*
Y39599D01*
X22593Y31549D02*
Y37149D01*
X23443Y37999D01*
X40261Y35549D02*
X44311D01*
X39611Y36199D02*
X40261Y35549D01*
X40161Y39649D02*
X40761D01*
X39971Y39459D02*
X40161Y39649D01*
X39971Y37509D02*
Y39459D01*
X39911Y37449D02*
X39971Y37509D01*
X36661Y39449D02*
X36666D01*
X36661Y39849D02*
X37211D01*
X36661Y36749D02*
X36861Y36549D01*
X39411D01*
X36411Y39599D02*
X36661Y39849D01*
X35561Y31549D02*
X36161Y30949D01*
X39011D01*
X39311Y30649D01*
X36411Y37999D02*
Y39599D01*
X35561Y31549D02*
Y37149D01*
X36411Y37999D01*
X53230Y35549D02*
X57280D01*
X52580Y36199D02*
X53230Y35549D01*
X53130Y39649D02*
X53730D01*
X52940Y39459D02*
X53130Y39649D01*
X52940Y37509D02*
Y39459D01*
X52880Y37449D02*
X52940Y37509D01*
X49630Y39449D02*
X49634D01*
X49630Y39849D02*
X50180D01*
X49630Y36749D02*
X49830Y36549D01*
X52380D01*
X49380Y39599D02*
X49630Y39849D01*
X48530Y31549D02*
X49130Y30949D01*
X51980D01*
X52280Y30649D01*
X49380Y37999D02*
Y39599D01*
X48530Y31549D02*
Y37149D01*
X49380Y37999D01*
X14324Y46536D02*
X18374D01*
X13674Y47186D02*
X14324Y46536D01*
X14224Y50636D02*
X14824D01*
X14034Y50446D02*
X14224Y50636D01*
X14034Y48496D02*
Y50446D01*
X13974Y48436D02*
X14034Y48496D01*
X10724Y50436D02*
X10729D01*
X10724Y50836D02*
X11274D01*
X10724Y47736D02*
X10924Y47536D01*
X13474D01*
X10474Y50586D02*
X10724Y50836D01*
X9624Y42536D02*
X10224Y41936D01*
X13074D01*
X13374Y41636D01*
X10474Y48986D02*
Y50586D01*
X9624Y42536D02*
Y48136D01*
X10474Y48986D01*
X27293Y46536D02*
X31343D01*
X26643Y47186D02*
X27293Y46536D01*
X27193Y50636D02*
X27793D01*
X27003Y50446D02*
X27193Y50636D01*
X27003Y48496D02*
Y50446D01*
X26943Y48436D02*
X27003Y48496D01*
X23693Y50436D02*
X23697D01*
X23693Y50836D02*
X24243D01*
X23693Y47736D02*
X23893Y47536D01*
X26443D01*
X23443Y50586D02*
X23693Y50836D01*
X22593Y42536D02*
X23193Y41936D01*
X26043D01*
X26343Y41636D01*
X23443Y48986D02*
Y50586D01*
X22593Y42536D02*
Y48136D01*
X23443Y48986D01*
X40261Y46536D02*
X44311D01*
X39611Y47186D02*
X40261Y46536D01*
X40161Y50636D02*
X40761D01*
X39971Y50446D02*
X40161Y50636D01*
X39971Y48496D02*
Y50446D01*
X39911Y48436D02*
X39971Y48496D01*
X36661Y50436D02*
X36666D01*
X36661Y50836D02*
X37211D01*
X36661Y47736D02*
X36861Y47536D01*
X39411D01*
X36411Y50586D02*
X36661Y50836D01*
X35561Y42536D02*
X36161Y41936D01*
X39011D01*
X39311Y41636D01*
X36411Y48986D02*
Y50586D01*
X35561Y42536D02*
Y48136D01*
X36411Y48986D01*
X53230Y46536D02*
X57280D01*
X52580Y47186D02*
X53230Y46536D01*
X53130Y50636D02*
X53730D01*
X52940Y50446D02*
X53130Y50636D01*
X52940Y48496D02*
Y50446D01*
X52880Y48436D02*
X52940Y48496D01*
X49630Y50436D02*
X49634D01*
X49630Y50836D02*
X50180D01*
X49630Y47736D02*
X49830Y47536D01*
X52380D01*
X49380Y50586D02*
X49630Y50836D01*
X48530Y42536D02*
X49130Y41936D01*
X51980D01*
X52280Y41636D01*
X49380Y48986D02*
Y50586D01*
X48530Y42536D02*
Y48136D01*
X49380Y48986D01*
X14324Y57524D02*
X18374D01*
X13674Y58174D02*
X14324Y57524D01*
X14224Y61624D02*
X14824D01*
X14034Y61434D02*
X14224Y61624D01*
X14034Y59484D02*
Y61434D01*
X13974Y59424D02*
X14034Y59484D01*
X10724Y61424D02*
X10729D01*
X10724Y61824D02*
X11274D01*
X10724Y58724D02*
X10924Y58524D01*
X13474D01*
X10474Y61574D02*
X10724Y61824D01*
X9624Y53524D02*
X10224Y52924D01*
X13074D01*
X13374Y52624D01*
X10474Y59974D02*
Y61574D01*
X9624Y53524D02*
Y59124D01*
X10474Y59974D01*
X27293Y57524D02*
X31343D01*
X26643Y58174D02*
X27293Y57524D01*
X27193Y61624D02*
X27793D01*
X27003Y61434D02*
X27193Y61624D01*
X27003Y59484D02*
Y61434D01*
X26943Y59424D02*
X27003Y59484D01*
X23693Y61424D02*
X23697D01*
X23693Y61824D02*
X24243D01*
X23693Y58724D02*
X23893Y58524D01*
X26443D01*
X23443Y61574D02*
X23693Y61824D01*
X22593Y53524D02*
X23193Y52924D01*
X26043D01*
X26343Y52624D01*
X23443Y59974D02*
Y61574D01*
X22593Y53524D02*
Y59124D01*
X23443Y59974D01*
X40261Y57524D02*
X44311D01*
X39611Y58174D02*
X40261Y57524D01*
X40161Y61624D02*
X40761D01*
X39971Y61434D02*
X40161Y61624D01*
X39971Y59484D02*
Y61434D01*
X39911Y59424D02*
X39971Y59484D01*
X36661Y61424D02*
X36666D01*
X36661Y61824D02*
X37211D01*
X36661Y58724D02*
X36861Y58524D01*
X39411D01*
X36411Y61574D02*
X36661Y61824D01*
X35561Y53524D02*
X36161Y52924D01*
X39011D01*
X39311Y52624D01*
X36411Y59974D02*
Y61574D01*
X35561Y53524D02*
Y59124D01*
X36411Y59974D01*
X53230Y57524D02*
X57280D01*
X52580Y58174D02*
X53230Y57524D01*
X53130Y61624D02*
X53730D01*
X52940Y61434D02*
X53130Y61624D01*
X52940Y59484D02*
Y61434D01*
X52880Y59424D02*
X52940Y59484D01*
X49630Y61424D02*
X49634D01*
X49630Y61824D02*
X50180D01*
X49630Y58724D02*
X49830Y58524D01*
X52380D01*
X49380Y61574D02*
X49630Y61824D01*
X48530Y53524D02*
X49130Y52924D01*
X51980D01*
X52280Y52624D01*
X49380Y59974D02*
Y61574D01*
X48530Y53524D02*
Y59124D01*
X49380Y59974D01*
X14324Y68511D02*
X18374D01*
X13674Y69161D02*
X14324Y68511D01*
X14224Y72611D02*
X14824D01*
X14034Y72421D02*
X14224Y72611D01*
X14034Y70471D02*
Y72421D01*
X13974Y70411D02*
X14034Y70471D01*
X10724Y72411D02*
X10729D01*
X10724Y72811D02*
X11274D01*
X10724Y69711D02*
X10924Y69511D01*
X13474D01*
X10474Y72561D02*
X10724Y72811D01*
X9624Y64511D02*
X10224Y63911D01*
X13074D01*
X13374Y63611D01*
X10474Y70961D02*
Y72561D01*
X9624Y64511D02*
Y70111D01*
X10474Y70961D01*
X27293Y68511D02*
X31343D01*
X26643Y69161D02*
X27293Y68511D01*
X27193Y72611D02*
X27793D01*
X27003Y72421D02*
X27193Y72611D01*
X27003Y70471D02*
Y72421D01*
X26943Y70411D02*
X27003Y70471D01*
X23693Y72411D02*
X23697D01*
X23693Y72811D02*
X24243D01*
X23693Y69711D02*
X23893Y69511D01*
X26443D01*
X23443Y72561D02*
X23693Y72811D01*
X22593Y64511D02*
X23193Y63911D01*
X26043D01*
X26343Y63611D01*
X23443Y70961D02*
Y72561D01*
X22593Y64511D02*
Y70111D01*
X23443Y70961D01*
X40261Y68511D02*
X44311D01*
X39611Y69161D02*
X40261Y68511D01*
X40161Y72611D02*
X40761D01*
X39971Y72421D02*
X40161Y72611D01*
X39971Y70471D02*
Y72421D01*
X39911Y70411D02*
X39971Y70471D01*
X36661Y72411D02*
X36666D01*
X36661Y72811D02*
X37211D01*
X36661Y69711D02*
X36861Y69511D01*
X39411D01*
X36411Y72561D02*
X36661Y72811D01*
X35561Y64511D02*
X36161Y63911D01*
X39011D01*
X39311Y63611D01*
X36411Y70961D02*
Y72561D01*
X35561Y64511D02*
Y70111D01*
X36411Y70961D01*
X53230Y68511D02*
X57280D01*
X52580Y69161D02*
X53230Y68511D01*
X53130Y72611D02*
X53730D01*
X52940Y72421D02*
X53130Y72611D01*
X52940Y70471D02*
Y72421D01*
X52880Y70411D02*
X52940Y70471D01*
X49630Y72411D02*
X49634D01*
X49630Y72811D02*
X50180D01*
X49630Y69711D02*
X49830Y69511D01*
X52380D01*
X49380Y72561D02*
X49630Y72811D01*
X48530Y64511D02*
X49130Y63911D01*
X51980D01*
X52280Y63611D01*
X49380Y70961D02*
Y72561D01*
X48530Y64511D02*
Y70111D01*
X49380Y70961D01*
D28*
X13724Y15724D02*
X13824Y15824D01*
X13724Y15324D02*
Y15724D01*
Y15324D02*
X13874Y15174D01*
X14724D01*
X15374Y15824D01*
X12974Y12424D02*
Y12724D01*
X12624Y13074D02*
X12974Y12724D01*
X13824Y10524D02*
Y10824D01*
X12974Y11974D02*
Y12424D01*
X13443D01*
X12624Y11624D02*
X13024D01*
X12624D02*
X12974Y11974D01*
X13024Y11624D02*
X13824Y10824D01*
X18374Y9124D02*
Y11574D01*
X17424Y8174D02*
X18374Y9124D01*
X10124Y8174D02*
X17424D01*
X13324Y15824D02*
X13824D01*
X13024Y16124D02*
X13324Y15824D01*
X12122Y16124D02*
X13024D01*
X12110Y16136D02*
X12122Y16124D01*
X9274Y9024D02*
Y17124D01*
Y9024D02*
X9824Y8474D01*
X10124D02*
Y8574D01*
X9414Y9284D02*
X10124Y8574D01*
X9824Y8474D02*
X10124Y8174D01*
X9414Y9284D02*
Y15564D01*
X9874Y16024D01*
Y16874D01*
X26693Y15724D02*
X26793Y15824D01*
X26693Y15324D02*
Y15724D01*
Y15324D02*
X26843Y15174D01*
X27693D01*
X28343Y15824D01*
X25943Y12424D02*
Y12724D01*
X25593Y13074D02*
X25943Y12724D01*
X26793Y10524D02*
Y10824D01*
X25943Y11974D02*
Y12424D01*
X26412D01*
X25593Y11624D02*
X25993D01*
X25593D02*
X25943Y11974D01*
X25993Y11624D02*
X26793Y10824D01*
X31343Y9124D02*
Y11574D01*
X30393Y8174D02*
X31343Y9124D01*
X23093Y8174D02*
X30393D01*
X26293Y15824D02*
X26793D01*
X25993Y16124D02*
X26293Y15824D01*
X25091Y16124D02*
X25993D01*
X25079Y16136D02*
X25091Y16124D01*
X22243Y9024D02*
Y17124D01*
Y9024D02*
X22793Y8474D01*
X23093D02*
Y8574D01*
X22383Y9284D02*
X23093Y8574D01*
X22793Y8474D02*
X23093Y8174D01*
X22383Y9284D02*
Y15564D01*
X22843Y16024D01*
Y16874D01*
X39661Y15724D02*
X39761Y15824D01*
X39661Y15324D02*
Y15724D01*
Y15324D02*
X39811Y15174D01*
X40661D01*
X41311Y15824D01*
X38911Y12424D02*
Y12724D01*
X38561Y13074D02*
X38911Y12724D01*
X39761Y10524D02*
Y10824D01*
X38911Y11974D02*
Y12424D01*
X39380D01*
X38561Y11624D02*
X38961D01*
X38561D02*
X38911Y11974D01*
X38961Y11624D02*
X39761Y10824D01*
X44311Y9124D02*
Y11574D01*
X43361Y8174D02*
X44311Y9124D01*
X36061Y8174D02*
X43361D01*
X39261Y15824D02*
X39761D01*
X38961Y16124D02*
X39261Y15824D01*
X38059Y16124D02*
X38961D01*
X38047Y16136D02*
X38059Y16124D01*
X35211Y9024D02*
Y17124D01*
Y9024D02*
X35761Y8474D01*
X36061D02*
Y8574D01*
X35351Y9284D02*
X36061Y8574D01*
X35761Y8474D02*
X36061Y8174D01*
X35351Y9284D02*
Y15564D01*
X35811Y16024D01*
Y16874D01*
X52630Y15724D02*
X52730Y15824D01*
X52630Y15324D02*
Y15724D01*
Y15324D02*
X52780Y15174D01*
X53630D01*
X54280Y15824D01*
X51880Y12424D02*
Y12724D01*
X51530Y13074D02*
X51880Y12724D01*
X52730Y10524D02*
Y10824D01*
X51880Y11974D02*
Y12424D01*
X52349D01*
X51530Y11624D02*
X51930D01*
X51530D02*
X51880Y11974D01*
X51930Y11624D02*
X52730Y10824D01*
X57280Y9124D02*
Y11574D01*
X56330Y8174D02*
X57280Y9124D01*
X49030Y8174D02*
X56330D01*
X52230Y15824D02*
X52730D01*
X51930Y16124D02*
X52230Y15824D01*
X51028Y16124D02*
X51930D01*
X51016Y16136D02*
X51028Y16124D01*
X48180Y9024D02*
Y17124D01*
Y9024D02*
X48730Y8474D01*
X49030D02*
Y8574D01*
X48320Y9284D02*
X49030Y8574D01*
X48730Y8474D02*
X49030Y8174D01*
X48320Y9284D02*
Y15564D01*
X48780Y16024D01*
Y16874D01*
X13724Y26711D02*
X13824Y26811D01*
X13724Y26311D02*
Y26711D01*
Y26311D02*
X13874Y26161D01*
X14724D01*
X15374Y26811D01*
X12974Y23411D02*
Y23711D01*
X12624Y24061D02*
X12974Y23711D01*
X13824Y21511D02*
Y21811D01*
X12974Y22961D02*
Y23411D01*
X13443D01*
X12624Y22611D02*
X13024D01*
X12624D02*
X12974Y22961D01*
X13024Y22611D02*
X13824Y21811D01*
X18374Y20111D02*
Y22561D01*
X17424Y19161D02*
X18374Y20111D01*
X10124Y19161D02*
X17424D01*
X13324Y26811D02*
X13824D01*
X13024Y27111D02*
X13324Y26811D01*
X12122Y27111D02*
X13024D01*
X12110Y27123D02*
X12122Y27111D01*
X9274Y20011D02*
Y28111D01*
Y20011D02*
X9824Y19461D01*
X10124D02*
Y19561D01*
X9414Y20271D02*
X10124Y19561D01*
X9824Y19461D02*
X10124Y19161D01*
X9414Y20271D02*
Y26551D01*
X9874Y27011D01*
Y27861D01*
X26693Y26711D02*
X26793Y26811D01*
X26693Y26311D02*
Y26711D01*
Y26311D02*
X26843Y26161D01*
X27693D01*
X28343Y26811D01*
X25943Y23411D02*
Y23711D01*
X25593Y24061D02*
X25943Y23711D01*
X26793Y21511D02*
Y21811D01*
X25943Y22961D02*
Y23411D01*
X26412D01*
X25593Y22611D02*
X25993D01*
X25593D02*
X25943Y22961D01*
X25993Y22611D02*
X26793Y21811D01*
X31343Y20111D02*
Y22561D01*
X30393Y19161D02*
X31343Y20111D01*
X23093Y19161D02*
X30393D01*
X26293Y26811D02*
X26793D01*
X25993Y27111D02*
X26293Y26811D01*
X25091Y27111D02*
X25993D01*
X25079Y27123D02*
X25091Y27111D01*
X22243Y20011D02*
Y28111D01*
Y20011D02*
X22793Y19461D01*
X23093D02*
Y19561D01*
X22383Y20271D02*
X23093Y19561D01*
X22793Y19461D02*
X23093Y19161D01*
X22383Y20271D02*
Y26551D01*
X22843Y27011D01*
Y27861D01*
X39661Y26711D02*
X39761Y26811D01*
X39661Y26311D02*
Y26711D01*
Y26311D02*
X39811Y26161D01*
X40661D01*
X41311Y26811D01*
X38911Y23411D02*
Y23711D01*
X38561Y24061D02*
X38911Y23711D01*
X39761Y21511D02*
Y21811D01*
X38911Y22961D02*
Y23411D01*
X39380D01*
X38561Y22611D02*
X38961D01*
X38561D02*
X38911Y22961D01*
X38961Y22611D02*
X39761Y21811D01*
X44311Y20111D02*
Y22561D01*
X43361Y19161D02*
X44311Y20111D01*
X36061Y19161D02*
X43361D01*
X39261Y26811D02*
X39761D01*
X38961Y27111D02*
X39261Y26811D01*
X38059Y27111D02*
X38961D01*
X38047Y27123D02*
X38059Y27111D01*
X35211Y20011D02*
Y28111D01*
Y20011D02*
X35761Y19461D01*
X36061D02*
Y19561D01*
X35351Y20271D02*
X36061Y19561D01*
X35761Y19461D02*
X36061Y19161D01*
X35351Y20271D02*
Y26551D01*
X35811Y27011D01*
Y27861D01*
X52630Y26711D02*
X52730Y26811D01*
X52630Y26311D02*
Y26711D01*
Y26311D02*
X52780Y26161D01*
X53630D01*
X54280Y26811D01*
X51880Y23411D02*
Y23711D01*
X51530Y24061D02*
X51880Y23711D01*
X52730Y21511D02*
Y21811D01*
X51880Y22961D02*
Y23411D01*
X52349D01*
X51530Y22611D02*
X51930D01*
X51530D02*
X51880Y22961D01*
X51930Y22611D02*
X52730Y21811D01*
X57280Y20111D02*
Y22561D01*
X56330Y19161D02*
X57280Y20111D01*
X49030Y19161D02*
X56330D01*
X52230Y26811D02*
X52730D01*
X51930Y27111D02*
X52230Y26811D01*
X51028Y27111D02*
X51930D01*
X51016Y27123D02*
X51028Y27111D01*
X48180Y20011D02*
Y28111D01*
Y20011D02*
X48730Y19461D01*
X49030D02*
Y19561D01*
X48320Y20271D02*
X49030Y19561D01*
X48730Y19461D02*
X49030Y19161D01*
X48320Y20271D02*
Y26551D01*
X48780Y27011D01*
Y27861D01*
X13724Y37699D02*
X13824Y37799D01*
X13724Y37299D02*
Y37699D01*
Y37299D02*
X13874Y37149D01*
X14724D01*
X15374Y37799D01*
X12974Y34399D02*
Y34699D01*
X12624Y35049D02*
X12974Y34699D01*
X13824Y32499D02*
Y32799D01*
X12974Y33949D02*
Y34399D01*
X13443D01*
X12624Y33599D02*
X13024D01*
X12624D02*
X12974Y33949D01*
X13024Y33599D02*
X13824Y32799D01*
X18374Y31099D02*
Y33549D01*
X17424Y30149D02*
X18374Y31099D01*
X10124Y30149D02*
X17424D01*
X13324Y37799D02*
X13824D01*
X13024Y38099D02*
X13324Y37799D01*
X12122Y38099D02*
X13024D01*
X12110Y38111D02*
X12122Y38099D01*
X9274Y30999D02*
Y39099D01*
Y30999D02*
X9824Y30449D01*
X10124D02*
Y30549D01*
X9414Y31259D02*
X10124Y30549D01*
X9824Y30449D02*
X10124Y30149D01*
X9414Y31259D02*
Y37539D01*
X9874Y37999D01*
Y38849D01*
X26693Y37699D02*
X26793Y37799D01*
X26693Y37299D02*
Y37699D01*
Y37299D02*
X26843Y37149D01*
X27693D01*
X28343Y37799D01*
X25943Y34399D02*
Y34699D01*
X25593Y35049D02*
X25943Y34699D01*
X26793Y32499D02*
Y32799D01*
X25943Y33949D02*
Y34399D01*
X26412D01*
X25593Y33599D02*
X25993D01*
X25593D02*
X25943Y33949D01*
X25993Y33599D02*
X26793Y32799D01*
X31343Y31099D02*
Y33549D01*
X30393Y30149D02*
X31343Y31099D01*
X23093Y30149D02*
X30393D01*
X26293Y37799D02*
X26793D01*
X25993Y38099D02*
X26293Y37799D01*
X25091Y38099D02*
X25993D01*
X25079Y38111D02*
X25091Y38099D01*
X22243Y30999D02*
Y39099D01*
Y30999D02*
X22793Y30449D01*
X23093D02*
Y30549D01*
X22383Y31259D02*
X23093Y30549D01*
X22793Y30449D02*
X23093Y30149D01*
X22383Y31259D02*
Y37539D01*
X22843Y37999D01*
Y38849D01*
X39661Y37699D02*
X39761Y37799D01*
X39661Y37299D02*
Y37699D01*
Y37299D02*
X39811Y37149D01*
X40661D01*
X41311Y37799D01*
X38911Y34399D02*
Y34699D01*
X38561Y35049D02*
X38911Y34699D01*
X39761Y32499D02*
Y32799D01*
X38911Y33949D02*
Y34399D01*
X39380D01*
X38561Y33599D02*
X38961D01*
X38561D02*
X38911Y33949D01*
X38961Y33599D02*
X39761Y32799D01*
X44311Y31099D02*
Y33549D01*
X43361Y30149D02*
X44311Y31099D01*
X36061Y30149D02*
X43361D01*
X39261Y37799D02*
X39761D01*
X38961Y38099D02*
X39261Y37799D01*
X38059Y38099D02*
X38961D01*
X38047Y38111D02*
X38059Y38099D01*
X35211Y30999D02*
Y39099D01*
Y30999D02*
X35761Y30449D01*
X36061D02*
Y30549D01*
X35351Y31259D02*
X36061Y30549D01*
X35761Y30449D02*
X36061Y30149D01*
X35351Y31259D02*
Y37539D01*
X35811Y37999D01*
Y38849D01*
X52630Y37699D02*
X52730Y37799D01*
X52630Y37299D02*
Y37699D01*
Y37299D02*
X52780Y37149D01*
X53630D01*
X54280Y37799D01*
X51880Y34399D02*
Y34699D01*
X51530Y35049D02*
X51880Y34699D01*
X52730Y32499D02*
Y32799D01*
X51880Y33949D02*
Y34399D01*
X52349D01*
X51530Y33599D02*
X51930D01*
X51530D02*
X51880Y33949D01*
X51930Y33599D02*
X52730Y32799D01*
X57280Y31099D02*
Y33549D01*
X56330Y30149D02*
X57280Y31099D01*
X49030Y30149D02*
X56330D01*
X52230Y37799D02*
X52730D01*
X51930Y38099D02*
X52230Y37799D01*
X51028Y38099D02*
X51930D01*
X51016Y38111D02*
X51028Y38099D01*
X48180Y30999D02*
Y39099D01*
Y30999D02*
X48730Y30449D01*
X49030D02*
Y30549D01*
X48320Y31259D02*
X49030Y30549D01*
X48730Y30449D02*
X49030Y30149D01*
X48320Y31259D02*
Y37539D01*
X48780Y37999D01*
Y38849D01*
X13724Y48686D02*
X13824Y48786D01*
X13724Y48286D02*
Y48686D01*
Y48286D02*
X13874Y48136D01*
X14724D01*
X15374Y48786D01*
X12974Y45386D02*
Y45686D01*
X12624Y46036D02*
X12974Y45686D01*
X13824Y43486D02*
Y43786D01*
X12974Y44936D02*
Y45386D01*
X13443D01*
X12624Y44586D02*
X13024D01*
X12624D02*
X12974Y44936D01*
X13024Y44586D02*
X13824Y43786D01*
X18374Y42086D02*
Y44536D01*
X17424Y41136D02*
X18374Y42086D01*
X10124Y41136D02*
X17424D01*
X13324Y48786D02*
X13824D01*
X13024Y49086D02*
X13324Y48786D01*
X12122Y49086D02*
X13024D01*
X12110Y49098D02*
X12122Y49086D01*
X9274Y41986D02*
Y50086D01*
Y41986D02*
X9824Y41436D01*
X10124D02*
Y41536D01*
X9414Y42246D02*
X10124Y41536D01*
X9824Y41436D02*
X10124Y41136D01*
X9414Y42246D02*
Y48526D01*
X9874Y48986D01*
Y49836D01*
X26693Y48686D02*
X26793Y48786D01*
X26693Y48286D02*
Y48686D01*
Y48286D02*
X26843Y48136D01*
X27693D01*
X28343Y48786D01*
X25943Y45386D02*
Y45686D01*
X25593Y46036D02*
X25943Y45686D01*
X26793Y43486D02*
Y43786D01*
X25943Y44936D02*
Y45386D01*
X26412D01*
X25593Y44586D02*
X25993D01*
X25593D02*
X25943Y44936D01*
X25993Y44586D02*
X26793Y43786D01*
X31343Y42086D02*
Y44536D01*
X30393Y41136D02*
X31343Y42086D01*
X23093Y41136D02*
X30393D01*
X26293Y48786D02*
X26793D01*
X25993Y49086D02*
X26293Y48786D01*
X25091Y49086D02*
X25993D01*
X25079Y49098D02*
X25091Y49086D01*
X22243Y41986D02*
Y50086D01*
Y41986D02*
X22793Y41436D01*
X23093D02*
Y41536D01*
X22383Y42246D02*
X23093Y41536D01*
X22793Y41436D02*
X23093Y41136D01*
X22383Y42246D02*
Y48526D01*
X22843Y48986D01*
Y49836D01*
X39661Y48686D02*
X39761Y48786D01*
X39661Y48286D02*
Y48686D01*
Y48286D02*
X39811Y48136D01*
X40661D01*
X41311Y48786D01*
X38911Y45386D02*
Y45686D01*
X38561Y46036D02*
X38911Y45686D01*
X39761Y43486D02*
Y43786D01*
X38911Y44936D02*
Y45386D01*
X39380D01*
X38561Y44586D02*
X38961D01*
X38561D02*
X38911Y44936D01*
X38961Y44586D02*
X39761Y43786D01*
X44311Y42086D02*
Y44536D01*
X43361Y41136D02*
X44311Y42086D01*
X36061Y41136D02*
X43361D01*
X39261Y48786D02*
X39761D01*
X38961Y49086D02*
X39261Y48786D01*
X38059Y49086D02*
X38961D01*
X38047Y49098D02*
X38059Y49086D01*
X35211Y41986D02*
Y50086D01*
Y41986D02*
X35761Y41436D01*
X36061D02*
Y41536D01*
X35351Y42246D02*
X36061Y41536D01*
X35761Y41436D02*
X36061Y41136D01*
X35351Y42246D02*
Y48526D01*
X35811Y48986D01*
Y49836D01*
X52630Y48686D02*
X52730Y48786D01*
X52630Y48286D02*
Y48686D01*
Y48286D02*
X52780Y48136D01*
X53630D01*
X54280Y48786D01*
X51880Y45386D02*
Y45686D01*
X51530Y46036D02*
X51880Y45686D01*
X52730Y43486D02*
Y43786D01*
X51880Y44936D02*
Y45386D01*
X52349D01*
X51530Y44586D02*
X51930D01*
X51530D02*
X51880Y44936D01*
X51930Y44586D02*
X52730Y43786D01*
X57280Y42086D02*
Y44536D01*
X56330Y41136D02*
X57280Y42086D01*
X49030Y41136D02*
X56330D01*
X52230Y48786D02*
X52730D01*
X51930Y49086D02*
X52230Y48786D01*
X51028Y49086D02*
X51930D01*
X51016Y49098D02*
X51028Y49086D01*
X48180Y41986D02*
Y50086D01*
Y41986D02*
X48730Y41436D01*
X49030D02*
Y41536D01*
X48320Y42246D02*
X49030Y41536D01*
X48730Y41436D02*
X49030Y41136D01*
X48320Y42246D02*
Y48526D01*
X48780Y48986D01*
Y49836D01*
X13724Y59674D02*
X13824Y59774D01*
X13724Y59274D02*
Y59674D01*
Y59274D02*
X13874Y59124D01*
X14724D01*
X15374Y59774D01*
X12974Y56374D02*
Y56674D01*
X12624Y57024D02*
X12974Y56674D01*
X13824Y54474D02*
Y54774D01*
X12974Y55924D02*
Y56374D01*
X13443D01*
X12624Y55574D02*
X13024D01*
X12624D02*
X12974Y55924D01*
X13024Y55574D02*
X13824Y54774D01*
X18374Y53074D02*
Y55524D01*
X17424Y52124D02*
X18374Y53074D01*
X10124Y52124D02*
X17424D01*
X13324Y59774D02*
X13824D01*
X13024Y60074D02*
X13324Y59774D01*
X12122Y60074D02*
X13024D01*
X12110Y60086D02*
X12122Y60074D01*
X9274Y52974D02*
Y61074D01*
Y52974D02*
X9824Y52424D01*
X10124D02*
Y52524D01*
X9414Y53234D02*
X10124Y52524D01*
X9824Y52424D02*
X10124Y52124D01*
X9414Y53234D02*
Y59514D01*
X9874Y59974D01*
Y60824D01*
X26693Y59674D02*
X26793Y59774D01*
X26693Y59274D02*
Y59674D01*
Y59274D02*
X26843Y59124D01*
X27693D01*
X28343Y59774D01*
X25943Y56374D02*
Y56674D01*
X25593Y57024D02*
X25943Y56674D01*
X26793Y54474D02*
Y54774D01*
X25943Y55924D02*
Y56374D01*
X26412D01*
X25593Y55574D02*
X25993D01*
X25593D02*
X25943Y55924D01*
X25993Y55574D02*
X26793Y54774D01*
X31343Y53074D02*
Y55524D01*
X30393Y52124D02*
X31343Y53074D01*
X23093Y52124D02*
X30393D01*
X26293Y59774D02*
X26793D01*
X25993Y60074D02*
X26293Y59774D01*
X25091Y60074D02*
X25993D01*
X25079Y60086D02*
X25091Y60074D01*
X22243Y52974D02*
Y61074D01*
Y52974D02*
X22793Y52424D01*
X23093D02*
Y52524D01*
X22383Y53234D02*
X23093Y52524D01*
X22793Y52424D02*
X23093Y52124D01*
X22383Y53234D02*
Y59514D01*
X22843Y59974D01*
Y60824D01*
X39661Y59674D02*
X39761Y59774D01*
X39661Y59274D02*
Y59674D01*
Y59274D02*
X39811Y59124D01*
X40661D01*
X41311Y59774D01*
X38911Y56374D02*
Y56674D01*
X38561Y57024D02*
X38911Y56674D01*
X39761Y54474D02*
Y54774D01*
X38911Y55924D02*
Y56374D01*
X39380D01*
X38561Y55574D02*
X38961D01*
X38561D02*
X38911Y55924D01*
X38961Y55574D02*
X39761Y54774D01*
X44311Y53074D02*
Y55524D01*
X43361Y52124D02*
X44311Y53074D01*
X36061Y52124D02*
X43361D01*
X39261Y59774D02*
X39761D01*
X38961Y60074D02*
X39261Y59774D01*
X38059Y60074D02*
X38961D01*
X38047Y60086D02*
X38059Y60074D01*
X35211Y52974D02*
Y61074D01*
Y52974D02*
X35761Y52424D01*
X36061D02*
Y52524D01*
X35351Y53234D02*
X36061Y52524D01*
X35761Y52424D02*
X36061Y52124D01*
X35351Y53234D02*
Y59514D01*
X35811Y59974D01*
Y60824D01*
X52630Y59674D02*
X52730Y59774D01*
X52630Y59274D02*
Y59674D01*
Y59274D02*
X52780Y59124D01*
X53630D01*
X54280Y59774D01*
X51880Y56374D02*
Y56674D01*
X51530Y57024D02*
X51880Y56674D01*
X52730Y54474D02*
Y54774D01*
X51880Y55924D02*
Y56374D01*
X52349D01*
X51530Y55574D02*
X51930D01*
X51530D02*
X51880Y55924D01*
X51930Y55574D02*
X52730Y54774D01*
X57280Y53074D02*
Y55524D01*
X56330Y52124D02*
X57280Y53074D01*
X49030Y52124D02*
X56330D01*
X52230Y59774D02*
X52730D01*
X51930Y60074D02*
X52230Y59774D01*
X51028Y60074D02*
X51930D01*
X51016Y60086D02*
X51028Y60074D01*
X48180Y52974D02*
Y61074D01*
Y52974D02*
X48730Y52424D01*
X49030D02*
Y52524D01*
X48320Y53234D02*
X49030Y52524D01*
X48730Y52424D02*
X49030Y52124D01*
X48320Y53234D02*
Y59514D01*
X48780Y59974D01*
Y60824D01*
X13724Y70661D02*
X13824Y70761D01*
X13724Y70261D02*
Y70661D01*
Y70261D02*
X13874Y70111D01*
X14724D01*
X15374Y70761D01*
X12974Y67361D02*
Y67661D01*
X12624Y68011D02*
X12974Y67661D01*
X13824Y65461D02*
Y65761D01*
X12974Y66911D02*
Y67361D01*
X13443D01*
X12624Y66561D02*
X13024D01*
X12624D02*
X12974Y66911D01*
X13024Y66561D02*
X13824Y65761D01*
X18374Y64061D02*
Y66511D01*
X17424Y63111D02*
X18374Y64061D01*
X10124Y63111D02*
X17424D01*
X13324Y70761D02*
X13824D01*
X13024Y71061D02*
X13324Y70761D01*
X12122Y71061D02*
X13024D01*
X12110Y71073D02*
X12122Y71061D01*
X9274Y63961D02*
Y72061D01*
Y63961D02*
X9824Y63411D01*
X10124D02*
Y63511D01*
X9414Y64221D02*
X10124Y63511D01*
X9824Y63411D02*
X10124Y63111D01*
X9414Y64221D02*
Y70501D01*
X9874Y70961D01*
Y71811D01*
X26693Y70661D02*
X26793Y70761D01*
X26693Y70261D02*
Y70661D01*
Y70261D02*
X26843Y70111D01*
X27693D01*
X28343Y70761D01*
X25943Y67361D02*
Y67661D01*
X25593Y68011D02*
X25943Y67661D01*
X26793Y65461D02*
Y65761D01*
X25943Y66911D02*
Y67361D01*
X26412D01*
X25593Y66561D02*
X25993D01*
X25593D02*
X25943Y66911D01*
X25993Y66561D02*
X26793Y65761D01*
X31343Y64061D02*
Y66511D01*
X30393Y63111D02*
X31343Y64061D01*
X23093Y63111D02*
X30393D01*
X26293Y70761D02*
X26793D01*
X25993Y71061D02*
X26293Y70761D01*
X25091Y71061D02*
X25993D01*
X25079Y71073D02*
X25091Y71061D01*
X22243Y63961D02*
Y72061D01*
Y63961D02*
X22793Y63411D01*
X23093D02*
Y63511D01*
X22383Y64221D02*
X23093Y63511D01*
X22793Y63411D02*
X23093Y63111D01*
X22383Y64221D02*
Y70501D01*
X22843Y70961D01*
Y71811D01*
X39661Y70661D02*
X39761Y70761D01*
X39661Y70261D02*
Y70661D01*
Y70261D02*
X39811Y70111D01*
X40661D01*
X41311Y70761D01*
X38911Y67361D02*
Y67661D01*
X38561Y68011D02*
X38911Y67661D01*
X39761Y65461D02*
Y65761D01*
X38911Y66911D02*
Y67361D01*
X39380D01*
X38561Y66561D02*
X38961D01*
X38561D02*
X38911Y66911D01*
X38961Y66561D02*
X39761Y65761D01*
X44311Y64061D02*
Y66511D01*
X43361Y63111D02*
X44311Y64061D01*
X36061Y63111D02*
X43361D01*
X39261Y70761D02*
X39761D01*
X38961Y71061D02*
X39261Y70761D01*
X38059Y71061D02*
X38961D01*
X38047Y71073D02*
X38059Y71061D01*
X35211Y63961D02*
Y72061D01*
Y63961D02*
X35761Y63411D01*
X36061D02*
Y63511D01*
X35351Y64221D02*
X36061Y63511D01*
X35761Y63411D02*
X36061Y63111D01*
X35351Y64221D02*
Y70501D01*
X35811Y70961D01*
Y71811D01*
X52630Y70661D02*
X52730Y70761D01*
X52630Y70261D02*
Y70661D01*
Y70261D02*
X52780Y70111D01*
X53630D01*
X54280Y70761D01*
X51880Y67361D02*
Y67661D01*
X51530Y68011D02*
X51880Y67661D01*
X52730Y65461D02*
Y65761D01*
X51880Y66911D02*
Y67361D01*
X52349D01*
X51530Y66561D02*
X51930D01*
X51530D02*
X51880Y66911D01*
X51930Y66561D02*
X52730Y65761D01*
X57280Y64061D02*
Y66511D01*
X56330Y63111D02*
X57280Y64061D01*
X49030Y63111D02*
X56330D01*
X52230Y70761D02*
X52730D01*
X51930Y71061D02*
X52230Y70761D01*
X51028Y71061D02*
X51930D01*
X51016Y71073D02*
X51028Y71061D01*
X48180Y63961D02*
Y72061D01*
Y63961D02*
X48730Y63411D01*
X49030D02*
Y63511D01*
X48320Y64221D02*
X49030Y63511D01*
X48730Y63411D02*
X49030Y63111D01*
X48320Y64221D02*
Y70501D01*
X48780Y70961D01*
Y71811D01*
D29*
X11624Y12174D02*
X11764Y12034D01*
Y11184D02*
Y12034D01*
Y11184D02*
X11774Y11174D01*
X11924Y11324D02*
X12074Y11174D01*
X11924Y11324D02*
Y14324D01*
X12224Y11524D02*
Y13174D01*
Y11524D02*
X12574Y11174D01*
X13124D01*
X24593Y12174D02*
X24733Y12034D01*
Y11184D02*
Y12034D01*
Y11184D02*
X24743Y11174D01*
X24893Y11324D02*
X25043Y11174D01*
X24893Y11324D02*
Y14324D01*
X25193Y11524D02*
Y13174D01*
Y11524D02*
X25543Y11174D01*
X26093D01*
X37561Y12174D02*
X37701Y12034D01*
Y11184D02*
Y12034D01*
Y11184D02*
X37711Y11174D01*
X37861Y11324D02*
X38011Y11174D01*
X37861Y11324D02*
Y14324D01*
X38161Y11524D02*
Y13174D01*
Y11524D02*
X38511Y11174D01*
X39061D01*
X50530Y12174D02*
X50670Y12034D01*
Y11184D02*
Y12034D01*
Y11184D02*
X50680Y11174D01*
X50830Y11324D02*
X50980Y11174D01*
X50830Y11324D02*
Y14324D01*
X51130Y11524D02*
Y13174D01*
Y11524D02*
X51480Y11174D01*
X52030D01*
X11624Y23161D02*
X11764Y23021D01*
Y22171D02*
Y23021D01*
Y22171D02*
X11774Y22161D01*
X11924Y22311D02*
X12074Y22161D01*
X11924Y22311D02*
Y25311D01*
X12224Y22511D02*
Y24161D01*
Y22511D02*
X12574Y22161D01*
X13124D01*
X24593Y23161D02*
X24733Y23021D01*
Y22171D02*
Y23021D01*
Y22171D02*
X24743Y22161D01*
X24893Y22311D02*
X25043Y22161D01*
X24893Y22311D02*
Y25311D01*
X25193Y22511D02*
Y24161D01*
Y22511D02*
X25543Y22161D01*
X26093D01*
X37561Y23161D02*
X37701Y23021D01*
Y22171D02*
Y23021D01*
Y22171D02*
X37711Y22161D01*
X37861Y22311D02*
X38011Y22161D01*
X37861Y22311D02*
Y25311D01*
X38161Y22511D02*
Y24161D01*
Y22511D02*
X38511Y22161D01*
X39061D01*
X50530Y23161D02*
X50670Y23021D01*
Y22171D02*
Y23021D01*
Y22171D02*
X50680Y22161D01*
X50830Y22311D02*
X50980Y22161D01*
X50830Y22311D02*
Y25311D01*
X51130Y22511D02*
Y24161D01*
Y22511D02*
X51480Y22161D01*
X52030D01*
X11624Y34149D02*
X11764Y34009D01*
Y33159D02*
Y34009D01*
Y33159D02*
X11774Y33149D01*
X11924Y33299D02*
X12074Y33149D01*
X11924Y33299D02*
Y36299D01*
X12224Y33499D02*
Y35149D01*
Y33499D02*
X12574Y33149D01*
X13124D01*
X24593Y34149D02*
X24733Y34009D01*
Y33159D02*
Y34009D01*
Y33159D02*
X24743Y33149D01*
X24893Y33299D02*
X25043Y33149D01*
X24893Y33299D02*
Y36299D01*
X25193Y33499D02*
Y35149D01*
Y33499D02*
X25543Y33149D01*
X26093D01*
X37561Y34149D02*
X37701Y34009D01*
Y33159D02*
Y34009D01*
Y33159D02*
X37711Y33149D01*
X37861Y33299D02*
X38011Y33149D01*
X37861Y33299D02*
Y36299D01*
X38161Y33499D02*
Y35149D01*
Y33499D02*
X38511Y33149D01*
X39061D01*
X50530Y34149D02*
X50670Y34009D01*
Y33159D02*
Y34009D01*
Y33159D02*
X50680Y33149D01*
X50830Y33299D02*
X50980Y33149D01*
X50830Y33299D02*
Y36299D01*
X51130Y33499D02*
Y35149D01*
Y33499D02*
X51480Y33149D01*
X52030D01*
X11624Y45136D02*
X11764Y44996D01*
Y44146D02*
Y44996D01*
Y44146D02*
X11774Y44136D01*
X11924Y44286D02*
X12074Y44136D01*
X11924Y44286D02*
Y47286D01*
X12224Y44486D02*
Y46136D01*
Y44486D02*
X12574Y44136D01*
X13124D01*
X24593Y45136D02*
X24733Y44996D01*
Y44146D02*
Y44996D01*
Y44146D02*
X24743Y44136D01*
X24893Y44286D02*
X25043Y44136D01*
X24893Y44286D02*
Y47286D01*
X25193Y44486D02*
Y46136D01*
Y44486D02*
X25543Y44136D01*
X26093D01*
X37561Y45136D02*
X37701Y44996D01*
Y44146D02*
Y44996D01*
Y44146D02*
X37711Y44136D01*
X37861Y44286D02*
X38011Y44136D01*
X37861Y44286D02*
Y47286D01*
X38161Y44486D02*
Y46136D01*
Y44486D02*
X38511Y44136D01*
X39061D01*
X50530Y45136D02*
X50670Y44996D01*
Y44146D02*
Y44996D01*
Y44146D02*
X50680Y44136D01*
X50830Y44286D02*
X50980Y44136D01*
X50830Y44286D02*
Y47286D01*
X51130Y44486D02*
Y46136D01*
Y44486D02*
X51480Y44136D01*
X52030D01*
X11624Y56124D02*
X11764Y55984D01*
Y55134D02*
Y55984D01*
Y55134D02*
X11774Y55124D01*
X11924Y55274D02*
X12074Y55124D01*
X11924Y55274D02*
Y58274D01*
X12224Y55474D02*
Y57124D01*
Y55474D02*
X12574Y55124D01*
X13124D01*
X24593Y56124D02*
X24733Y55984D01*
Y55134D02*
Y55984D01*
Y55134D02*
X24743Y55124D01*
X24893Y55274D02*
X25043Y55124D01*
X24893Y55274D02*
Y58274D01*
X25193Y55474D02*
Y57124D01*
Y55474D02*
X25543Y55124D01*
X26093D01*
X37561Y56124D02*
X37701Y55984D01*
Y55134D02*
Y55984D01*
Y55134D02*
X37711Y55124D01*
X37861Y55274D02*
X38011Y55124D01*
X37861Y55274D02*
Y58274D01*
X38161Y55474D02*
Y57124D01*
Y55474D02*
X38511Y55124D01*
X39061D01*
X50530Y56124D02*
X50670Y55984D01*
Y55134D02*
Y55984D01*
Y55134D02*
X50680Y55124D01*
X50830Y55274D02*
X50980Y55124D01*
X50830Y55274D02*
Y58274D01*
X51130Y55474D02*
Y57124D01*
Y55474D02*
X51480Y55124D01*
X52030D01*
X11624Y67111D02*
X11764Y66971D01*
Y66121D02*
Y66971D01*
Y66121D02*
X11774Y66111D01*
X11924Y66261D02*
X12074Y66111D01*
X11924Y66261D02*
Y69261D01*
X12224Y66461D02*
Y68111D01*
Y66461D02*
X12574Y66111D01*
X13124D01*
X24593Y67111D02*
X24733Y66971D01*
Y66121D02*
Y66971D01*
Y66121D02*
X24743Y66111D01*
X24893Y66261D02*
X25043Y66111D01*
X24893Y66261D02*
Y69261D01*
X25193Y66461D02*
Y68111D01*
Y66461D02*
X25543Y66111D01*
X26093D01*
X37561Y67111D02*
X37701Y66971D01*
Y66121D02*
Y66971D01*
Y66121D02*
X37711Y66111D01*
X37861Y66261D02*
X38011Y66111D01*
X37861Y66261D02*
Y69261D01*
X38161Y66461D02*
Y68111D01*
Y66461D02*
X38511Y66111D01*
X39061D01*
X50530Y67111D02*
X50670Y66971D01*
Y66121D02*
Y66971D01*
Y66121D02*
X50680Y66111D01*
X50830Y66261D02*
X50980Y66111D01*
X50830Y66261D02*
Y69261D01*
X51130Y66461D02*
Y68111D01*
Y66461D02*
X51480Y66111D01*
X52030D01*
D32*
X15374Y15824D02*
D03*
X13674Y14224D02*
D03*
X11774Y11174D02*
D03*
X14824Y17674D02*
D03*
X13974Y15474D02*
D03*
X13443Y12424D02*
D03*
X13824Y10524D02*
D03*
X10724Y17474D02*
D03*
X9874Y16874D02*
D03*
X13824Y15824D02*
D03*
X12110Y16136D02*
D03*
X11274Y17874D02*
D03*
X12074Y11174D02*
D03*
X13124D02*
D03*
X12624Y11624D02*
D03*
Y13074D02*
D03*
X11924Y14324D02*
D03*
X13474Y14574D02*
D03*
X10724Y14774D02*
D03*
X12224Y13174D02*
D03*
X28343Y15824D02*
D03*
X26643Y14224D02*
D03*
X24743Y11174D02*
D03*
X27793Y17674D02*
D03*
X26943Y15474D02*
D03*
X26412Y12424D02*
D03*
X26793Y10524D02*
D03*
X23693Y17474D02*
D03*
X22843Y16874D02*
D03*
X26793Y15824D02*
D03*
X25079Y16136D02*
D03*
X24243Y17874D02*
D03*
X25043Y11174D02*
D03*
X26093D02*
D03*
X25593Y11624D02*
D03*
Y13074D02*
D03*
X24893Y14324D02*
D03*
X26443Y14574D02*
D03*
X23693Y14774D02*
D03*
X25193Y13174D02*
D03*
X41311Y15824D02*
D03*
X39611Y14224D02*
D03*
X37711Y11174D02*
D03*
X40761Y17674D02*
D03*
X39911Y15474D02*
D03*
X39380Y12424D02*
D03*
X39761Y10524D02*
D03*
X36661Y17474D02*
D03*
X35811Y16874D02*
D03*
X39761Y15824D02*
D03*
X38047Y16136D02*
D03*
X37211Y17874D02*
D03*
X38011Y11174D02*
D03*
X39061D02*
D03*
X38561Y11624D02*
D03*
Y13074D02*
D03*
X37861Y14324D02*
D03*
X39411Y14574D02*
D03*
X36661Y14774D02*
D03*
X38161Y13174D02*
D03*
X54280Y15824D02*
D03*
X52580Y14224D02*
D03*
X50680Y11174D02*
D03*
X53730Y17674D02*
D03*
X52880Y15474D02*
D03*
X52349Y12424D02*
D03*
X52730Y10524D02*
D03*
X49630Y17474D02*
D03*
X48780Y16874D02*
D03*
X52730Y15824D02*
D03*
X51016Y16136D02*
D03*
X50180Y17874D02*
D03*
X50980Y11174D02*
D03*
X52030D02*
D03*
X51530Y11624D02*
D03*
Y13074D02*
D03*
X50830Y14324D02*
D03*
X52380Y14574D02*
D03*
X49630Y14774D02*
D03*
X51130Y13174D02*
D03*
X15374Y26811D02*
D03*
X13674Y25211D02*
D03*
X11774Y22161D02*
D03*
X14824Y28661D02*
D03*
X13974Y26461D02*
D03*
X13443Y23411D02*
D03*
X13824Y21511D02*
D03*
X10724Y28461D02*
D03*
X9874Y27861D02*
D03*
X13824Y26811D02*
D03*
X12110Y27123D02*
D03*
X11274Y28861D02*
D03*
X12074Y22161D02*
D03*
X13124D02*
D03*
X12624Y22611D02*
D03*
Y24061D02*
D03*
X11924Y25311D02*
D03*
X13474Y25561D02*
D03*
X10724Y25761D02*
D03*
X12224Y24161D02*
D03*
X28343Y26811D02*
D03*
X26643Y25211D02*
D03*
X24743Y22161D02*
D03*
X27793Y28661D02*
D03*
X26943Y26461D02*
D03*
X26412Y23411D02*
D03*
X26793Y21511D02*
D03*
X23693Y28461D02*
D03*
X22843Y27861D02*
D03*
X26793Y26811D02*
D03*
X25079Y27123D02*
D03*
X24243Y28861D02*
D03*
X25043Y22161D02*
D03*
X26093D02*
D03*
X25593Y22611D02*
D03*
Y24061D02*
D03*
X24893Y25311D02*
D03*
X26443Y25561D02*
D03*
X23693Y25761D02*
D03*
X25193Y24161D02*
D03*
X41311Y26811D02*
D03*
X39611Y25211D02*
D03*
X37711Y22161D02*
D03*
X40761Y28661D02*
D03*
X39911Y26461D02*
D03*
X39380Y23411D02*
D03*
X39761Y21511D02*
D03*
X36661Y28461D02*
D03*
X35811Y27861D02*
D03*
X39761Y26811D02*
D03*
X38047Y27123D02*
D03*
X37211Y28861D02*
D03*
X38011Y22161D02*
D03*
X39061D02*
D03*
X38561Y22611D02*
D03*
Y24061D02*
D03*
X37861Y25311D02*
D03*
X39411Y25561D02*
D03*
X36661Y25761D02*
D03*
X38161Y24161D02*
D03*
X54280Y26811D02*
D03*
X52580Y25211D02*
D03*
X50680Y22161D02*
D03*
X53730Y28661D02*
D03*
X52880Y26461D02*
D03*
X52349Y23411D02*
D03*
X52730Y21511D02*
D03*
X49630Y28461D02*
D03*
X48780Y27861D02*
D03*
X52730Y26811D02*
D03*
X51016Y27123D02*
D03*
X50180Y28861D02*
D03*
X50980Y22161D02*
D03*
X52030D02*
D03*
X51530Y22611D02*
D03*
Y24061D02*
D03*
X50830Y25311D02*
D03*
X52380Y25561D02*
D03*
X49630Y25761D02*
D03*
X51130Y24161D02*
D03*
X15374Y37799D02*
D03*
X13674Y36199D02*
D03*
X11774Y33149D02*
D03*
X14824Y39649D02*
D03*
X13974Y37449D02*
D03*
X13443Y34399D02*
D03*
X13824Y32499D02*
D03*
X10724Y39449D02*
D03*
X9874Y38849D02*
D03*
X13824Y37799D02*
D03*
X12110Y38111D02*
D03*
X11274Y39849D02*
D03*
X12074Y33149D02*
D03*
X13124D02*
D03*
X12624Y33599D02*
D03*
Y35049D02*
D03*
X11924Y36299D02*
D03*
X13474Y36549D02*
D03*
X10724Y36749D02*
D03*
X12224Y35149D02*
D03*
X28343Y37799D02*
D03*
X26643Y36199D02*
D03*
X24743Y33149D02*
D03*
X27793Y39649D02*
D03*
X26943Y37449D02*
D03*
X26412Y34399D02*
D03*
X26793Y32499D02*
D03*
X23693Y39449D02*
D03*
X22843Y38849D02*
D03*
X26793Y37799D02*
D03*
X25079Y38111D02*
D03*
X24243Y39849D02*
D03*
X25043Y33149D02*
D03*
X26093D02*
D03*
X25593Y33599D02*
D03*
Y35049D02*
D03*
X24893Y36299D02*
D03*
X26443Y36549D02*
D03*
X23693Y36749D02*
D03*
X25193Y35149D02*
D03*
X41311Y37799D02*
D03*
X39611Y36199D02*
D03*
X37711Y33149D02*
D03*
X40761Y39649D02*
D03*
X39911Y37449D02*
D03*
X39380Y34399D02*
D03*
X39761Y32499D02*
D03*
X36661Y39449D02*
D03*
X35811Y38849D02*
D03*
X39761Y37799D02*
D03*
X38047Y38111D02*
D03*
X37211Y39849D02*
D03*
X38011Y33149D02*
D03*
X39061D02*
D03*
X38561Y33599D02*
D03*
Y35049D02*
D03*
X37861Y36299D02*
D03*
X39411Y36549D02*
D03*
X36661Y36749D02*
D03*
X38161Y35149D02*
D03*
X54280Y37799D02*
D03*
X52580Y36199D02*
D03*
X50680Y33149D02*
D03*
X53730Y39649D02*
D03*
X52880Y37449D02*
D03*
X52349Y34399D02*
D03*
X52730Y32499D02*
D03*
X49630Y39449D02*
D03*
X48780Y38849D02*
D03*
X52730Y37799D02*
D03*
X51016Y38111D02*
D03*
X50180Y39849D02*
D03*
X50980Y33149D02*
D03*
X52030D02*
D03*
X51530Y33599D02*
D03*
Y35049D02*
D03*
X50830Y36299D02*
D03*
X52380Y36549D02*
D03*
X49630Y36749D02*
D03*
X51130Y35149D02*
D03*
X15374Y48786D02*
D03*
X13674Y47186D02*
D03*
X11774Y44136D02*
D03*
X14824Y50636D02*
D03*
X13974Y48436D02*
D03*
X13443Y45386D02*
D03*
X13824Y43486D02*
D03*
X10724Y50436D02*
D03*
X9874Y49836D02*
D03*
X13824Y48786D02*
D03*
X12110Y49098D02*
D03*
X11274Y50836D02*
D03*
X12074Y44136D02*
D03*
X13124D02*
D03*
X12624Y44586D02*
D03*
Y46036D02*
D03*
X11924Y47286D02*
D03*
X13474Y47536D02*
D03*
X10724Y47736D02*
D03*
X12224Y46136D02*
D03*
X28343Y48786D02*
D03*
X26643Y47186D02*
D03*
X24743Y44136D02*
D03*
X27793Y50636D02*
D03*
X26943Y48436D02*
D03*
X26412Y45386D02*
D03*
X26793Y43486D02*
D03*
X23693Y50436D02*
D03*
X22843Y49836D02*
D03*
X26793Y48786D02*
D03*
X25079Y49098D02*
D03*
X24243Y50836D02*
D03*
X25043Y44136D02*
D03*
X26093D02*
D03*
X25593Y44586D02*
D03*
Y46036D02*
D03*
X24893Y47286D02*
D03*
X26443Y47536D02*
D03*
X23693Y47736D02*
D03*
X25193Y46136D02*
D03*
X41311Y48786D02*
D03*
X39611Y47186D02*
D03*
X37711Y44136D02*
D03*
X40761Y50636D02*
D03*
X39911Y48436D02*
D03*
X39380Y45386D02*
D03*
X39761Y43486D02*
D03*
X36661Y50436D02*
D03*
X35811Y49836D02*
D03*
X39761Y48786D02*
D03*
X38047Y49098D02*
D03*
X37211Y50836D02*
D03*
X38011Y44136D02*
D03*
X39061D02*
D03*
X38561Y44586D02*
D03*
Y46036D02*
D03*
X37861Y47286D02*
D03*
X39411Y47536D02*
D03*
X36661Y47736D02*
D03*
X38161Y46136D02*
D03*
X54280Y48786D02*
D03*
X52580Y47186D02*
D03*
X50680Y44136D02*
D03*
X53730Y50636D02*
D03*
X52880Y48436D02*
D03*
X52349Y45386D02*
D03*
X52730Y43486D02*
D03*
X49630Y50436D02*
D03*
X48780Y49836D02*
D03*
X52730Y48786D02*
D03*
X51016Y49098D02*
D03*
X50180Y50836D02*
D03*
X50980Y44136D02*
D03*
X52030D02*
D03*
X51530Y44586D02*
D03*
Y46036D02*
D03*
X50830Y47286D02*
D03*
X52380Y47536D02*
D03*
X49630Y47736D02*
D03*
X51130Y46136D02*
D03*
X15374Y59774D02*
D03*
X13674Y58174D02*
D03*
X11774Y55124D02*
D03*
X14824Y61624D02*
D03*
X13974Y59424D02*
D03*
X13443Y56374D02*
D03*
X13824Y54474D02*
D03*
X10724Y61424D02*
D03*
X9874Y60824D02*
D03*
X13824Y59774D02*
D03*
X12110Y60086D02*
D03*
X11274Y61824D02*
D03*
X12074Y55124D02*
D03*
X13124D02*
D03*
X12624Y55574D02*
D03*
Y57024D02*
D03*
X11924Y58274D02*
D03*
X13474Y58524D02*
D03*
X10724Y58724D02*
D03*
X12224Y57124D02*
D03*
X28343Y59774D02*
D03*
X26643Y58174D02*
D03*
X24743Y55124D02*
D03*
X27793Y61624D02*
D03*
X26943Y59424D02*
D03*
X26412Y56374D02*
D03*
X26793Y54474D02*
D03*
X23693Y61424D02*
D03*
X22843Y60824D02*
D03*
X26793Y59774D02*
D03*
X25079Y60086D02*
D03*
X24243Y61824D02*
D03*
X25043Y55124D02*
D03*
X26093D02*
D03*
X25593Y55574D02*
D03*
Y57024D02*
D03*
X24893Y58274D02*
D03*
X26443Y58524D02*
D03*
X23693Y58724D02*
D03*
X25193Y57124D02*
D03*
X41311Y59774D02*
D03*
X39611Y58174D02*
D03*
X37711Y55124D02*
D03*
X40761Y61624D02*
D03*
X39911Y59424D02*
D03*
X39380Y56374D02*
D03*
X39761Y54474D02*
D03*
X36661Y61424D02*
D03*
X35811Y60824D02*
D03*
X39761Y59774D02*
D03*
X38047Y60086D02*
D03*
X37211Y61824D02*
D03*
X38011Y55124D02*
D03*
X39061D02*
D03*
X38561Y55574D02*
D03*
Y57024D02*
D03*
X37861Y58274D02*
D03*
X39411Y58524D02*
D03*
X36661Y58724D02*
D03*
X38161Y57124D02*
D03*
X54280Y59774D02*
D03*
X52580Y58174D02*
D03*
X50680Y55124D02*
D03*
X53730Y61624D02*
D03*
X52880Y59424D02*
D03*
X52349Y56374D02*
D03*
X52730Y54474D02*
D03*
X49630Y61424D02*
D03*
X48780Y60824D02*
D03*
X52730Y59774D02*
D03*
X51016Y60086D02*
D03*
X50180Y61824D02*
D03*
X50980Y55124D02*
D03*
X52030D02*
D03*
X51530Y55574D02*
D03*
Y57024D02*
D03*
X50830Y58274D02*
D03*
X52380Y58524D02*
D03*
X49630Y58724D02*
D03*
X51130Y57124D02*
D03*
X15374Y70761D02*
D03*
X13674Y69161D02*
D03*
X11774Y66111D02*
D03*
X14824Y72611D02*
D03*
X13974Y70411D02*
D03*
X13443Y67361D02*
D03*
X13824Y65461D02*
D03*
X10724Y72411D02*
D03*
X9874Y71811D02*
D03*
X13824Y70761D02*
D03*
X12110Y71073D02*
D03*
X11274Y72811D02*
D03*
X12074Y66111D02*
D03*
X13124D02*
D03*
X12624Y66561D02*
D03*
Y68011D02*
D03*
X11924Y69261D02*
D03*
X13474Y69511D02*
D03*
X10724Y69711D02*
D03*
X12224Y68111D02*
D03*
X28343Y70761D02*
D03*
X26643Y69161D02*
D03*
X24743Y66111D02*
D03*
X27793Y72611D02*
D03*
X26943Y70411D02*
D03*
X26412Y67361D02*
D03*
X26793Y65461D02*
D03*
X23693Y72411D02*
D03*
X22843Y71811D02*
D03*
X26793Y70761D02*
D03*
X25079Y71073D02*
D03*
X24243Y72811D02*
D03*
X25043Y66111D02*
D03*
X26093D02*
D03*
X25593Y66561D02*
D03*
Y68011D02*
D03*
X24893Y69261D02*
D03*
X26443Y69511D02*
D03*
X23693Y69711D02*
D03*
X25193Y68111D02*
D03*
X41311Y70761D02*
D03*
X39611Y69161D02*
D03*
X37711Y66111D02*
D03*
X40761Y72611D02*
D03*
X39911Y70411D02*
D03*
X39380Y67361D02*
D03*
X39761Y65461D02*
D03*
X36661Y72411D02*
D03*
X35811Y71811D02*
D03*
X39761Y70761D02*
D03*
X38047Y71073D02*
D03*
X37211Y72811D02*
D03*
X38011Y66111D02*
D03*
X39061D02*
D03*
X38561Y66561D02*
D03*
Y68011D02*
D03*
X37861Y69261D02*
D03*
X39411Y69511D02*
D03*
X36661Y69711D02*
D03*
X38161Y68111D02*
D03*
X54280Y70761D02*
D03*
X52580Y69161D02*
D03*
X50680Y66111D02*
D03*
X53730Y72611D02*
D03*
X52880Y70411D02*
D03*
X52349Y67361D02*
D03*
X52730Y65461D02*
D03*
X49630Y72411D02*
D03*
X48780Y71811D02*
D03*
X52730Y70761D02*
D03*
X51016Y71073D02*
D03*
X50180Y72811D02*
D03*
X50980Y66111D02*
D03*
X52030D02*
D03*
X51530Y66561D02*
D03*
Y68011D02*
D03*
X50830Y69261D02*
D03*
X52380Y69511D02*
D03*
X49630Y69711D02*
D03*
X51130Y68111D02*
D03*
D33*
X13374Y8674D02*
D03*
X26343D02*
D03*
X39311D02*
D03*
X52280D02*
D03*
X13374Y19661D02*
D03*
X26343D02*
D03*
X39311D02*
D03*
X52280D02*
D03*
X13374Y30649D02*
D03*
X26343D02*
D03*
X39311D02*
D03*
X52280D02*
D03*
X13374Y41636D02*
D03*
X26343D02*
D03*
X39311D02*
D03*
X52280D02*
D03*
X13374Y52624D02*
D03*
X26343D02*
D03*
X39311D02*
D03*
X52280D02*
D03*
X13374Y63611D02*
D03*
X26343D02*
D03*
X39311D02*
D03*
X52280D02*
D03*
D36*
X9274Y17124D02*
D03*
X18374Y13574D02*
D03*
X11624Y12174D02*
D03*
X10124Y8474D02*
D03*
X9824D02*
D03*
X18374Y11574D02*
D03*
X22243Y17124D02*
D03*
X31343Y13574D02*
D03*
X24593Y12174D02*
D03*
X23093Y8474D02*
D03*
X22793D02*
D03*
X31343Y11574D02*
D03*
X35211Y17124D02*
D03*
X44311Y13574D02*
D03*
X37561Y12174D02*
D03*
X36061Y8474D02*
D03*
X35761D02*
D03*
X44311Y11574D02*
D03*
X48180Y17124D02*
D03*
X57280Y13574D02*
D03*
X50530Y12174D02*
D03*
X49030Y8474D02*
D03*
X48730D02*
D03*
X57280Y11574D02*
D03*
X9274Y28111D02*
D03*
X18374Y24561D02*
D03*
X11624Y23161D02*
D03*
X10124Y19461D02*
D03*
X9824D02*
D03*
X18374Y22561D02*
D03*
X22243Y28111D02*
D03*
X31343Y24561D02*
D03*
X24593Y23161D02*
D03*
X23093Y19461D02*
D03*
X22793D02*
D03*
X31343Y22561D02*
D03*
X35211Y28111D02*
D03*
X44311Y24561D02*
D03*
X37561Y23161D02*
D03*
X36061Y19461D02*
D03*
X35761D02*
D03*
X44311Y22561D02*
D03*
X48180Y28111D02*
D03*
X57280Y24561D02*
D03*
X50530Y23161D02*
D03*
X49030Y19461D02*
D03*
X48730D02*
D03*
X57280Y22561D02*
D03*
X9274Y39099D02*
D03*
X18374Y35549D02*
D03*
X11624Y34149D02*
D03*
X10124Y30449D02*
D03*
X9824D02*
D03*
X18374Y33549D02*
D03*
X22243Y39099D02*
D03*
X31343Y35549D02*
D03*
X24593Y34149D02*
D03*
X23093Y30449D02*
D03*
X22793D02*
D03*
X31343Y33549D02*
D03*
X35211Y39099D02*
D03*
X44311Y35549D02*
D03*
X37561Y34149D02*
D03*
X36061Y30449D02*
D03*
X35761D02*
D03*
X44311Y33549D02*
D03*
X48180Y39099D02*
D03*
X57280Y35549D02*
D03*
X50530Y34149D02*
D03*
X49030Y30449D02*
D03*
X48730D02*
D03*
X57280Y33549D02*
D03*
X9274Y50086D02*
D03*
X18374Y46536D02*
D03*
X11624Y45136D02*
D03*
X10124Y41436D02*
D03*
X9824D02*
D03*
X18374Y44536D02*
D03*
X22243Y50086D02*
D03*
X31343Y46536D02*
D03*
X24593Y45136D02*
D03*
X23093Y41436D02*
D03*
X22793D02*
D03*
X31343Y44536D02*
D03*
X35211Y50086D02*
D03*
X44311Y46536D02*
D03*
X37561Y45136D02*
D03*
X36061Y41436D02*
D03*
X35761D02*
D03*
X44311Y44536D02*
D03*
X48180Y50086D02*
D03*
X57280Y46536D02*
D03*
X50530Y45136D02*
D03*
X49030Y41436D02*
D03*
X48730D02*
D03*
X57280Y44536D02*
D03*
X9274Y61074D02*
D03*
X18374Y57524D02*
D03*
X11624Y56124D02*
D03*
X10124Y52424D02*
D03*
X9824D02*
D03*
X18374Y55524D02*
D03*
X22243Y61074D02*
D03*
X31343Y57524D02*
D03*
X24593Y56124D02*
D03*
X23093Y52424D02*
D03*
X22793D02*
D03*
X31343Y55524D02*
D03*
X35211Y61074D02*
D03*
X44311Y57524D02*
D03*
X37561Y56124D02*
D03*
X36061Y52424D02*
D03*
X35761D02*
D03*
X44311Y55524D02*
D03*
X48180Y61074D02*
D03*
X57280Y57524D02*
D03*
X50530Y56124D02*
D03*
X49030Y52424D02*
D03*
X48730D02*
D03*
X57280Y55524D02*
D03*
X9274Y72061D02*
D03*
X18374Y68511D02*
D03*
X11624Y67111D02*
D03*
X10124Y63411D02*
D03*
X9824D02*
D03*
X18374Y66511D02*
D03*
X22243Y72061D02*
D03*
X31343Y68511D02*
D03*
X24593Y67111D02*
D03*
X23093Y63411D02*
D03*
X22793D02*
D03*
X31343Y66511D02*
D03*
X35211Y72061D02*
D03*
X44311Y68511D02*
D03*
X37561Y67111D02*
D03*
X36061Y63411D02*
D03*
X35761D02*
D03*
X44311Y66511D02*
D03*
X48180Y72061D02*
D03*
X57280Y68511D02*
D03*
X50530Y67111D02*
D03*
X49030Y63411D02*
D03*
X48730D02*
D03*
X57280Y66511D02*
D03*
M02*
