G04 Layer_Color=128*
%FSLAX24Y24*%
%MOIN*%
G70*
G01*
G75*
%ADD13R,0.0236X0.0157*%
%ADD14R,0.0512X0.0236*%
%ADD15R,0.0197X0.0354*%
%ADD21R,0.0157X0.0236*%
%ADD22R,0.0354X0.0197*%
%ADD39R,0.0650X0.0400*%
%ADD40R,0.1339X0.0846*%
%ADD41R,0.0433X0.0669*%
%ADD42R,0.0512X0.0512*%
%ADD43R,0.0937X0.0650*%
%ADD44O,0.0098X0.0276*%
D13*
X14624Y11551D02*
D03*
Y11197D02*
D03*
X17074Y11297D02*
D03*
Y11651D02*
D03*
X13674Y14597D02*
D03*
Y14951D02*
D03*
X12174Y15901D02*
D03*
Y15547D02*
D03*
X12574D02*
D03*
Y15901D02*
D03*
X9574Y16801D02*
D03*
Y16447D02*
D03*
X27593Y11551D02*
D03*
Y11197D02*
D03*
X30043Y11297D02*
D03*
Y11651D02*
D03*
X26643Y14597D02*
D03*
Y14951D02*
D03*
X25143Y15901D02*
D03*
Y15547D02*
D03*
X25543D02*
D03*
Y15901D02*
D03*
X22543Y16801D02*
D03*
Y16447D02*
D03*
X40561Y11551D02*
D03*
Y11197D02*
D03*
X43011Y11297D02*
D03*
Y11651D02*
D03*
X39611Y14597D02*
D03*
Y14951D02*
D03*
X38111Y15901D02*
D03*
Y15547D02*
D03*
X38511D02*
D03*
Y15901D02*
D03*
X35511Y16801D02*
D03*
Y16447D02*
D03*
X53530Y11551D02*
D03*
Y11197D02*
D03*
X55980Y11297D02*
D03*
Y11651D02*
D03*
X52580Y14597D02*
D03*
Y14951D02*
D03*
X51080Y15901D02*
D03*
Y15547D02*
D03*
X51480D02*
D03*
Y15901D02*
D03*
X48480Y16801D02*
D03*
Y16447D02*
D03*
X14624Y22539D02*
D03*
Y22184D02*
D03*
X17074Y22284D02*
D03*
Y22639D02*
D03*
X13674Y25584D02*
D03*
Y25939D02*
D03*
X12174Y26889D02*
D03*
Y26534D02*
D03*
X12574D02*
D03*
Y26889D02*
D03*
X9574Y27789D02*
D03*
Y27434D02*
D03*
X27593Y22539D02*
D03*
Y22184D02*
D03*
X30043Y22284D02*
D03*
Y22639D02*
D03*
X26643Y25584D02*
D03*
Y25939D02*
D03*
X25143Y26889D02*
D03*
Y26534D02*
D03*
X25543D02*
D03*
Y26889D02*
D03*
X22543Y27789D02*
D03*
Y27434D02*
D03*
X40561Y22539D02*
D03*
Y22184D02*
D03*
X43011Y22284D02*
D03*
Y22639D02*
D03*
X39611Y25584D02*
D03*
Y25939D02*
D03*
X38111Y26889D02*
D03*
Y26534D02*
D03*
X38511D02*
D03*
Y26889D02*
D03*
X35511Y27789D02*
D03*
Y27434D02*
D03*
X53530Y22539D02*
D03*
Y22184D02*
D03*
X55980Y22284D02*
D03*
Y22639D02*
D03*
X52580Y25584D02*
D03*
Y25939D02*
D03*
X51080Y26889D02*
D03*
Y26534D02*
D03*
X51480D02*
D03*
Y26889D02*
D03*
X48480Y27789D02*
D03*
Y27434D02*
D03*
X14624Y33526D02*
D03*
Y33172D02*
D03*
X17074Y33272D02*
D03*
Y33626D02*
D03*
X13674Y36572D02*
D03*
Y36926D02*
D03*
X12174Y37876D02*
D03*
Y37522D02*
D03*
X12574D02*
D03*
Y37876D02*
D03*
X9574Y38776D02*
D03*
Y38422D02*
D03*
X27593Y33526D02*
D03*
Y33172D02*
D03*
X30043Y33272D02*
D03*
Y33626D02*
D03*
X26643Y36572D02*
D03*
Y36926D02*
D03*
X25143Y37876D02*
D03*
Y37522D02*
D03*
X25543D02*
D03*
Y37876D02*
D03*
X22543Y38776D02*
D03*
Y38422D02*
D03*
X40561Y33526D02*
D03*
Y33172D02*
D03*
X43011Y33272D02*
D03*
Y33626D02*
D03*
X39611Y36572D02*
D03*
Y36926D02*
D03*
X38111Y37876D02*
D03*
Y37522D02*
D03*
X38511D02*
D03*
Y37876D02*
D03*
X35511Y38776D02*
D03*
Y38422D02*
D03*
X53530Y33526D02*
D03*
Y33172D02*
D03*
X55980Y33272D02*
D03*
Y33626D02*
D03*
X52580Y36572D02*
D03*
Y36926D02*
D03*
X51080Y37876D02*
D03*
Y37522D02*
D03*
X51480D02*
D03*
Y37876D02*
D03*
X48480Y38776D02*
D03*
Y38422D02*
D03*
X14624Y44513D02*
D03*
Y44159D02*
D03*
X17074Y44259D02*
D03*
Y44613D02*
D03*
X13674Y47559D02*
D03*
Y47913D02*
D03*
X12174Y48863D02*
D03*
Y48509D02*
D03*
X12574D02*
D03*
Y48863D02*
D03*
X9574Y49763D02*
D03*
Y49409D02*
D03*
X27593Y44513D02*
D03*
Y44159D02*
D03*
X30043Y44259D02*
D03*
Y44613D02*
D03*
X26643Y47559D02*
D03*
Y47913D02*
D03*
X25143Y48863D02*
D03*
Y48509D02*
D03*
X25543D02*
D03*
Y48863D02*
D03*
X22543Y49763D02*
D03*
Y49409D02*
D03*
X40561Y44513D02*
D03*
Y44159D02*
D03*
X43011Y44259D02*
D03*
Y44613D02*
D03*
X39611Y47559D02*
D03*
Y47913D02*
D03*
X38111Y48863D02*
D03*
Y48509D02*
D03*
X38511D02*
D03*
Y48863D02*
D03*
X35511Y49763D02*
D03*
Y49409D02*
D03*
X53530Y44513D02*
D03*
Y44159D02*
D03*
X55980Y44259D02*
D03*
Y44613D02*
D03*
X52580Y47559D02*
D03*
Y47913D02*
D03*
X51080Y48863D02*
D03*
Y48509D02*
D03*
X51480D02*
D03*
Y48863D02*
D03*
X48480Y49763D02*
D03*
Y49409D02*
D03*
X14624Y55501D02*
D03*
Y55146D02*
D03*
X17074Y55246D02*
D03*
Y55601D02*
D03*
X13674Y58546D02*
D03*
Y58901D02*
D03*
X12174Y59851D02*
D03*
Y59496D02*
D03*
X12574D02*
D03*
Y59851D02*
D03*
X9574Y60751D02*
D03*
Y60396D02*
D03*
X27593Y55501D02*
D03*
Y55146D02*
D03*
X30043Y55246D02*
D03*
Y55601D02*
D03*
X26643Y58546D02*
D03*
Y58901D02*
D03*
X25143Y59851D02*
D03*
Y59496D02*
D03*
X25543D02*
D03*
Y59851D02*
D03*
X22543Y60751D02*
D03*
Y60396D02*
D03*
X40561Y55501D02*
D03*
Y55146D02*
D03*
X43011Y55246D02*
D03*
Y55601D02*
D03*
X39611Y58546D02*
D03*
Y58901D02*
D03*
X38111Y59851D02*
D03*
Y59496D02*
D03*
X38511D02*
D03*
Y59851D02*
D03*
X35511Y60751D02*
D03*
Y60396D02*
D03*
X53530Y55501D02*
D03*
Y55146D02*
D03*
X55980Y55246D02*
D03*
Y55601D02*
D03*
X52580Y58546D02*
D03*
Y58901D02*
D03*
X51080Y59851D02*
D03*
Y59496D02*
D03*
X51480D02*
D03*
Y59851D02*
D03*
X48480Y60751D02*
D03*
Y60396D02*
D03*
X14624Y66488D02*
D03*
Y66134D02*
D03*
X17074Y66234D02*
D03*
Y66588D02*
D03*
X13674Y69534D02*
D03*
Y69888D02*
D03*
X12174Y70838D02*
D03*
Y70484D02*
D03*
X12574D02*
D03*
Y70838D02*
D03*
X9574Y71738D02*
D03*
Y71384D02*
D03*
X27593Y66488D02*
D03*
Y66134D02*
D03*
X30043Y66234D02*
D03*
Y66588D02*
D03*
X26643Y69534D02*
D03*
Y69888D02*
D03*
X25143Y70838D02*
D03*
Y70484D02*
D03*
X25543D02*
D03*
Y70838D02*
D03*
X22543Y71738D02*
D03*
Y71384D02*
D03*
X40561Y66488D02*
D03*
Y66134D02*
D03*
X43011Y66234D02*
D03*
Y66588D02*
D03*
X39611Y69534D02*
D03*
Y69888D02*
D03*
X38111Y70838D02*
D03*
Y70484D02*
D03*
X38511D02*
D03*
Y70838D02*
D03*
X35511Y71738D02*
D03*
Y71384D02*
D03*
X53530Y66488D02*
D03*
Y66134D02*
D03*
X55980Y66234D02*
D03*
Y66588D02*
D03*
X52580Y69534D02*
D03*
Y69888D02*
D03*
X51080Y70838D02*
D03*
Y70484D02*
D03*
X51480D02*
D03*
Y70838D02*
D03*
X48480Y71738D02*
D03*
Y71384D02*
D03*
D14*
X10237Y12498D02*
D03*
Y11750D02*
D03*
X9411Y12124D02*
D03*
X10237Y13848D02*
D03*
Y13100D02*
D03*
X9411Y13474D02*
D03*
X11637Y13848D02*
D03*
Y13100D02*
D03*
X10811Y13474D02*
D03*
X11637Y12498D02*
D03*
Y11750D02*
D03*
X10811Y12124D02*
D03*
X13037Y13848D02*
D03*
Y13100D02*
D03*
X12211Y13474D02*
D03*
X13037Y12498D02*
D03*
Y11750D02*
D03*
X12211Y12124D02*
D03*
X23206Y12498D02*
D03*
Y11750D02*
D03*
X22379Y12124D02*
D03*
X23206Y13848D02*
D03*
Y13100D02*
D03*
X22379Y13474D02*
D03*
X24606Y13848D02*
D03*
Y13100D02*
D03*
X23779Y13474D02*
D03*
X24606Y12498D02*
D03*
Y11750D02*
D03*
X23779Y12124D02*
D03*
X26006Y13848D02*
D03*
Y13100D02*
D03*
X25179Y13474D02*
D03*
X26006Y12498D02*
D03*
Y11750D02*
D03*
X25179Y12124D02*
D03*
X36174Y12498D02*
D03*
Y11750D02*
D03*
X35348Y12124D02*
D03*
X36174Y13848D02*
D03*
Y13100D02*
D03*
X35348Y13474D02*
D03*
X37574Y13848D02*
D03*
Y13100D02*
D03*
X36748Y13474D02*
D03*
X37574Y12498D02*
D03*
Y11750D02*
D03*
X36748Y12124D02*
D03*
X38974Y13848D02*
D03*
Y13100D02*
D03*
X38148Y13474D02*
D03*
X38974Y12498D02*
D03*
Y11750D02*
D03*
X38148Y12124D02*
D03*
X49143Y12498D02*
D03*
Y11750D02*
D03*
X48316Y12124D02*
D03*
X49143Y13848D02*
D03*
Y13100D02*
D03*
X48316Y13474D02*
D03*
X50543Y13848D02*
D03*
Y13100D02*
D03*
X49716Y13474D02*
D03*
X50543Y12498D02*
D03*
Y11750D02*
D03*
X49716Y12124D02*
D03*
X51943Y13848D02*
D03*
Y13100D02*
D03*
X51116Y13474D02*
D03*
X51943Y12498D02*
D03*
Y11750D02*
D03*
X51116Y12124D02*
D03*
X10237Y23485D02*
D03*
Y22737D02*
D03*
X9411Y23111D02*
D03*
X10237Y24835D02*
D03*
Y24087D02*
D03*
X9411Y24461D02*
D03*
X11637Y24835D02*
D03*
Y24087D02*
D03*
X10811Y24461D02*
D03*
X11637Y23485D02*
D03*
Y22737D02*
D03*
X10811Y23111D02*
D03*
X13037Y24835D02*
D03*
Y24087D02*
D03*
X12211Y24461D02*
D03*
X13037Y23485D02*
D03*
Y22737D02*
D03*
X12211Y23111D02*
D03*
X23206Y23485D02*
D03*
Y22737D02*
D03*
X22379Y23111D02*
D03*
X23206Y24835D02*
D03*
Y24087D02*
D03*
X22379Y24461D02*
D03*
X24606Y24835D02*
D03*
Y24087D02*
D03*
X23779Y24461D02*
D03*
X24606Y23485D02*
D03*
Y22737D02*
D03*
X23779Y23111D02*
D03*
X26006Y24835D02*
D03*
Y24087D02*
D03*
X25179Y24461D02*
D03*
X26006Y23485D02*
D03*
Y22737D02*
D03*
X25179Y23111D02*
D03*
X36174Y23485D02*
D03*
Y22737D02*
D03*
X35348Y23111D02*
D03*
X36174Y24835D02*
D03*
Y24087D02*
D03*
X35348Y24461D02*
D03*
X37574Y24835D02*
D03*
Y24087D02*
D03*
X36748Y24461D02*
D03*
X37574Y23485D02*
D03*
Y22737D02*
D03*
X36748Y23111D02*
D03*
X38974Y24835D02*
D03*
Y24087D02*
D03*
X38148Y24461D02*
D03*
X38974Y23485D02*
D03*
Y22737D02*
D03*
X38148Y23111D02*
D03*
X49143Y23485D02*
D03*
Y22737D02*
D03*
X48316Y23111D02*
D03*
X49143Y24835D02*
D03*
Y24087D02*
D03*
X48316Y24461D02*
D03*
X50543Y24835D02*
D03*
Y24087D02*
D03*
X49716Y24461D02*
D03*
X50543Y23485D02*
D03*
Y22737D02*
D03*
X49716Y23111D02*
D03*
X51943Y24835D02*
D03*
Y24087D02*
D03*
X51116Y24461D02*
D03*
X51943Y23485D02*
D03*
Y22737D02*
D03*
X51116Y23111D02*
D03*
X10237Y34473D02*
D03*
Y33725D02*
D03*
X9411Y34099D02*
D03*
X10237Y35823D02*
D03*
Y35075D02*
D03*
X9411Y35449D02*
D03*
X11637Y35823D02*
D03*
Y35075D02*
D03*
X10811Y35449D02*
D03*
X11637Y34473D02*
D03*
Y33725D02*
D03*
X10811Y34099D02*
D03*
X13037Y35823D02*
D03*
Y35075D02*
D03*
X12211Y35449D02*
D03*
X13037Y34473D02*
D03*
Y33725D02*
D03*
X12211Y34099D02*
D03*
X23206Y34473D02*
D03*
Y33725D02*
D03*
X22379Y34099D02*
D03*
X23206Y35823D02*
D03*
Y35075D02*
D03*
X22379Y35449D02*
D03*
X24606Y35823D02*
D03*
Y35075D02*
D03*
X23779Y35449D02*
D03*
X24606Y34473D02*
D03*
Y33725D02*
D03*
X23779Y34099D02*
D03*
X26006Y35823D02*
D03*
Y35075D02*
D03*
X25179Y35449D02*
D03*
X26006Y34473D02*
D03*
Y33725D02*
D03*
X25179Y34099D02*
D03*
X36174Y34473D02*
D03*
Y33725D02*
D03*
X35348Y34099D02*
D03*
X36174Y35823D02*
D03*
Y35075D02*
D03*
X35348Y35449D02*
D03*
X37574Y35823D02*
D03*
Y35075D02*
D03*
X36748Y35449D02*
D03*
X37574Y34473D02*
D03*
Y33725D02*
D03*
X36748Y34099D02*
D03*
X38974Y35823D02*
D03*
Y35075D02*
D03*
X38148Y35449D02*
D03*
X38974Y34473D02*
D03*
Y33725D02*
D03*
X38148Y34099D02*
D03*
X49143Y34473D02*
D03*
Y33725D02*
D03*
X48316Y34099D02*
D03*
X49143Y35823D02*
D03*
Y35075D02*
D03*
X48316Y35449D02*
D03*
X50543Y35823D02*
D03*
Y35075D02*
D03*
X49716Y35449D02*
D03*
X50543Y34473D02*
D03*
Y33725D02*
D03*
X49716Y34099D02*
D03*
X51943Y35823D02*
D03*
Y35075D02*
D03*
X51116Y35449D02*
D03*
X51943Y34473D02*
D03*
Y33725D02*
D03*
X51116Y34099D02*
D03*
X10237Y45460D02*
D03*
Y44712D02*
D03*
X9411Y45086D02*
D03*
X10237Y46810D02*
D03*
Y46062D02*
D03*
X9411Y46436D02*
D03*
X11637Y46810D02*
D03*
Y46062D02*
D03*
X10811Y46436D02*
D03*
X11637Y45460D02*
D03*
Y44712D02*
D03*
X10811Y45086D02*
D03*
X13037Y46810D02*
D03*
Y46062D02*
D03*
X12211Y46436D02*
D03*
X13037Y45460D02*
D03*
Y44712D02*
D03*
X12211Y45086D02*
D03*
X23206Y45460D02*
D03*
Y44712D02*
D03*
X22379Y45086D02*
D03*
X23206Y46810D02*
D03*
Y46062D02*
D03*
X22379Y46436D02*
D03*
X24606Y46810D02*
D03*
Y46062D02*
D03*
X23779Y46436D02*
D03*
X24606Y45460D02*
D03*
Y44712D02*
D03*
X23779Y45086D02*
D03*
X26006Y46810D02*
D03*
Y46062D02*
D03*
X25179Y46436D02*
D03*
X26006Y45460D02*
D03*
Y44712D02*
D03*
X25179Y45086D02*
D03*
X36174Y45460D02*
D03*
Y44712D02*
D03*
X35348Y45086D02*
D03*
X36174Y46810D02*
D03*
Y46062D02*
D03*
X35348Y46436D02*
D03*
X37574Y46810D02*
D03*
Y46062D02*
D03*
X36748Y46436D02*
D03*
X37574Y45460D02*
D03*
Y44712D02*
D03*
X36748Y45086D02*
D03*
X38974Y46810D02*
D03*
Y46062D02*
D03*
X38148Y46436D02*
D03*
X38974Y45460D02*
D03*
Y44712D02*
D03*
X38148Y45086D02*
D03*
X49143Y45460D02*
D03*
Y44712D02*
D03*
X48316Y45086D02*
D03*
X49143Y46810D02*
D03*
Y46062D02*
D03*
X48316Y46436D02*
D03*
X50543Y46810D02*
D03*
Y46062D02*
D03*
X49716Y46436D02*
D03*
X50543Y45460D02*
D03*
Y44712D02*
D03*
X49716Y45086D02*
D03*
X51943Y46810D02*
D03*
Y46062D02*
D03*
X51116Y46436D02*
D03*
X51943Y45460D02*
D03*
Y44712D02*
D03*
X51116Y45086D02*
D03*
X10237Y56448D02*
D03*
Y55700D02*
D03*
X9411Y56074D02*
D03*
X10237Y57798D02*
D03*
Y57050D02*
D03*
X9411Y57424D02*
D03*
X11637Y57798D02*
D03*
Y57050D02*
D03*
X10811Y57424D02*
D03*
X11637Y56448D02*
D03*
Y55700D02*
D03*
X10811Y56074D02*
D03*
X13037Y57798D02*
D03*
Y57050D02*
D03*
X12211Y57424D02*
D03*
X13037Y56448D02*
D03*
Y55700D02*
D03*
X12211Y56074D02*
D03*
X23206Y56448D02*
D03*
Y55700D02*
D03*
X22379Y56074D02*
D03*
X23206Y57798D02*
D03*
Y57050D02*
D03*
X22379Y57424D02*
D03*
X24606Y57798D02*
D03*
Y57050D02*
D03*
X23779Y57424D02*
D03*
X24606Y56448D02*
D03*
Y55700D02*
D03*
X23779Y56074D02*
D03*
X26006Y57798D02*
D03*
Y57050D02*
D03*
X25179Y57424D02*
D03*
X26006Y56448D02*
D03*
Y55700D02*
D03*
X25179Y56074D02*
D03*
X36174Y56448D02*
D03*
Y55700D02*
D03*
X35348Y56074D02*
D03*
X36174Y57798D02*
D03*
Y57050D02*
D03*
X35348Y57424D02*
D03*
X37574Y57798D02*
D03*
Y57050D02*
D03*
X36748Y57424D02*
D03*
X37574Y56448D02*
D03*
Y55700D02*
D03*
X36748Y56074D02*
D03*
X38974Y57798D02*
D03*
Y57050D02*
D03*
X38148Y57424D02*
D03*
X38974Y56448D02*
D03*
Y55700D02*
D03*
X38148Y56074D02*
D03*
X49143Y56448D02*
D03*
Y55700D02*
D03*
X48316Y56074D02*
D03*
X49143Y57798D02*
D03*
Y57050D02*
D03*
X48316Y57424D02*
D03*
X50543Y57798D02*
D03*
Y57050D02*
D03*
X49716Y57424D02*
D03*
X50543Y56448D02*
D03*
Y55700D02*
D03*
X49716Y56074D02*
D03*
X51943Y57798D02*
D03*
Y57050D02*
D03*
X51116Y57424D02*
D03*
X51943Y56448D02*
D03*
Y55700D02*
D03*
X51116Y56074D02*
D03*
X10237Y67435D02*
D03*
Y66687D02*
D03*
X9411Y67061D02*
D03*
X10237Y68785D02*
D03*
Y68037D02*
D03*
X9411Y68411D02*
D03*
X11637Y68785D02*
D03*
Y68037D02*
D03*
X10811Y68411D02*
D03*
X11637Y67435D02*
D03*
Y66687D02*
D03*
X10811Y67061D02*
D03*
X13037Y68785D02*
D03*
Y68037D02*
D03*
X12211Y68411D02*
D03*
X13037Y67435D02*
D03*
Y66687D02*
D03*
X12211Y67061D02*
D03*
X23206Y67435D02*
D03*
Y66687D02*
D03*
X22379Y67061D02*
D03*
X23206Y68785D02*
D03*
Y68037D02*
D03*
X22379Y68411D02*
D03*
X24606Y68785D02*
D03*
Y68037D02*
D03*
X23779Y68411D02*
D03*
X24606Y67435D02*
D03*
Y66687D02*
D03*
X23779Y67061D02*
D03*
X26006Y68785D02*
D03*
Y68037D02*
D03*
X25179Y68411D02*
D03*
X26006Y67435D02*
D03*
Y66687D02*
D03*
X25179Y67061D02*
D03*
X36174Y67435D02*
D03*
Y66687D02*
D03*
X35348Y67061D02*
D03*
X36174Y68785D02*
D03*
Y68037D02*
D03*
X35348Y68411D02*
D03*
X37574Y68785D02*
D03*
Y68037D02*
D03*
X36748Y68411D02*
D03*
X37574Y67435D02*
D03*
Y66687D02*
D03*
X36748Y67061D02*
D03*
X38974Y68785D02*
D03*
Y68037D02*
D03*
X38148Y68411D02*
D03*
X38974Y67435D02*
D03*
Y66687D02*
D03*
X38148Y67061D02*
D03*
X49143Y67435D02*
D03*
Y66687D02*
D03*
X48316Y67061D02*
D03*
X49143Y68785D02*
D03*
Y68037D02*
D03*
X48316Y68411D02*
D03*
X50543Y68785D02*
D03*
Y68037D02*
D03*
X49716Y68411D02*
D03*
X50543Y67435D02*
D03*
Y66687D02*
D03*
X49716Y67061D02*
D03*
X51943Y68785D02*
D03*
Y68037D02*
D03*
X51116Y68411D02*
D03*
X51943Y67435D02*
D03*
Y66687D02*
D03*
X51116Y67061D02*
D03*
D15*
X10179Y15474D02*
D03*
X10769D02*
D03*
X11629Y8274D02*
D03*
X12219D02*
D03*
X23147Y15474D02*
D03*
X23738D02*
D03*
X24597Y8274D02*
D03*
X25188D02*
D03*
X36116Y15474D02*
D03*
X36706D02*
D03*
X37566Y8274D02*
D03*
X38156D02*
D03*
X49084Y15474D02*
D03*
X49675D02*
D03*
X50534Y8274D02*
D03*
X51125D02*
D03*
X10179Y26461D02*
D03*
X10769D02*
D03*
X11629Y19261D02*
D03*
X12219D02*
D03*
X23147Y26461D02*
D03*
X23738D02*
D03*
X24597Y19261D02*
D03*
X25188D02*
D03*
X36116Y26461D02*
D03*
X36706D02*
D03*
X37566Y19261D02*
D03*
X38156D02*
D03*
X49084Y26461D02*
D03*
X49675D02*
D03*
X50534Y19261D02*
D03*
X51125D02*
D03*
X10179Y37449D02*
D03*
X10769D02*
D03*
X11629Y30249D02*
D03*
X12219D02*
D03*
X23147Y37449D02*
D03*
X23738D02*
D03*
X24597Y30249D02*
D03*
X25188D02*
D03*
X36116Y37449D02*
D03*
X36706D02*
D03*
X37566Y30249D02*
D03*
X38156D02*
D03*
X49084Y37449D02*
D03*
X49675D02*
D03*
X50534Y30249D02*
D03*
X51125D02*
D03*
X10179Y48436D02*
D03*
X10769D02*
D03*
X11629Y41236D02*
D03*
X12219D02*
D03*
X23147Y48436D02*
D03*
X23738D02*
D03*
X24597Y41236D02*
D03*
X25188D02*
D03*
X36116Y48436D02*
D03*
X36706D02*
D03*
X37566Y41236D02*
D03*
X38156D02*
D03*
X49084Y48436D02*
D03*
X49675D02*
D03*
X50534Y41236D02*
D03*
X51125D02*
D03*
X10179Y59424D02*
D03*
X10769D02*
D03*
X11629Y52224D02*
D03*
X12219D02*
D03*
X23147Y59424D02*
D03*
X23738D02*
D03*
X24597Y52224D02*
D03*
X25188D02*
D03*
X36116Y59424D02*
D03*
X36706D02*
D03*
X37566Y52224D02*
D03*
X38156D02*
D03*
X49084Y59424D02*
D03*
X49675D02*
D03*
X50534Y52224D02*
D03*
X51125D02*
D03*
X10179Y70411D02*
D03*
X10769D02*
D03*
X11629Y63211D02*
D03*
X12219D02*
D03*
X23147Y70411D02*
D03*
X23738D02*
D03*
X24597Y63211D02*
D03*
X25188D02*
D03*
X36116Y70411D02*
D03*
X36706D02*
D03*
X37566Y63211D02*
D03*
X38156D02*
D03*
X49084Y70411D02*
D03*
X49675D02*
D03*
X50534Y63211D02*
D03*
X51125D02*
D03*
D21*
X12251Y10724D02*
D03*
X11897D02*
D03*
X10701Y15024D02*
D03*
X10347D02*
D03*
X10951Y11324D02*
D03*
X10597D02*
D03*
Y14324D02*
D03*
X10951D02*
D03*
X25220Y10724D02*
D03*
X24865D02*
D03*
X23670Y15024D02*
D03*
X23315D02*
D03*
X23920Y11324D02*
D03*
X23565D02*
D03*
Y14324D02*
D03*
X23920D02*
D03*
X38188Y10724D02*
D03*
X37834D02*
D03*
X36638Y15024D02*
D03*
X36284D02*
D03*
X36888Y11324D02*
D03*
X36534D02*
D03*
Y14324D02*
D03*
X36888D02*
D03*
X51157Y10724D02*
D03*
X50802D02*
D03*
X49607Y15024D02*
D03*
X49252D02*
D03*
X49857Y11324D02*
D03*
X49502D02*
D03*
Y14324D02*
D03*
X49857D02*
D03*
X12251Y21711D02*
D03*
X11897D02*
D03*
X10701Y26011D02*
D03*
X10347D02*
D03*
X10951Y22311D02*
D03*
X10597D02*
D03*
Y25311D02*
D03*
X10951D02*
D03*
X25220Y21711D02*
D03*
X24865D02*
D03*
X23670Y26011D02*
D03*
X23315D02*
D03*
X23920Y22311D02*
D03*
X23565D02*
D03*
Y25311D02*
D03*
X23920D02*
D03*
X38188Y21711D02*
D03*
X37834D02*
D03*
X36638Y26011D02*
D03*
X36284D02*
D03*
X36888Y22311D02*
D03*
X36534D02*
D03*
Y25311D02*
D03*
X36888D02*
D03*
X51157Y21711D02*
D03*
X50802D02*
D03*
X49607Y26011D02*
D03*
X49252D02*
D03*
X49857Y22311D02*
D03*
X49502D02*
D03*
Y25311D02*
D03*
X49857D02*
D03*
X12251Y32699D02*
D03*
X11897D02*
D03*
X10701Y36999D02*
D03*
X10347D02*
D03*
X10951Y33299D02*
D03*
X10597D02*
D03*
Y36299D02*
D03*
X10951D02*
D03*
X25220Y32699D02*
D03*
X24865D02*
D03*
X23670Y36999D02*
D03*
X23315D02*
D03*
X23920Y33299D02*
D03*
X23565D02*
D03*
Y36299D02*
D03*
X23920D02*
D03*
X38188Y32699D02*
D03*
X37834D02*
D03*
X36638Y36999D02*
D03*
X36284D02*
D03*
X36888Y33299D02*
D03*
X36534D02*
D03*
Y36299D02*
D03*
X36888D02*
D03*
X51157Y32699D02*
D03*
X50802D02*
D03*
X49607Y36999D02*
D03*
X49252D02*
D03*
X49857Y33299D02*
D03*
X49502D02*
D03*
Y36299D02*
D03*
X49857D02*
D03*
X12251Y43686D02*
D03*
X11897D02*
D03*
X10701Y47986D02*
D03*
X10347D02*
D03*
X10951Y44286D02*
D03*
X10597D02*
D03*
Y47286D02*
D03*
X10951D02*
D03*
X25220Y43686D02*
D03*
X24865D02*
D03*
X23670Y47986D02*
D03*
X23315D02*
D03*
X23920Y44286D02*
D03*
X23565D02*
D03*
Y47286D02*
D03*
X23920D02*
D03*
X38188Y43686D02*
D03*
X37834D02*
D03*
X36638Y47986D02*
D03*
X36284D02*
D03*
X36888Y44286D02*
D03*
X36534D02*
D03*
Y47286D02*
D03*
X36888D02*
D03*
X51157Y43686D02*
D03*
X50802D02*
D03*
X49607Y47986D02*
D03*
X49252D02*
D03*
X49857Y44286D02*
D03*
X49502D02*
D03*
Y47286D02*
D03*
X49857D02*
D03*
X12251Y54674D02*
D03*
X11897D02*
D03*
X10701Y58974D02*
D03*
X10347D02*
D03*
X10951Y55274D02*
D03*
X10597D02*
D03*
Y58274D02*
D03*
X10951D02*
D03*
X25220Y54674D02*
D03*
X24865D02*
D03*
X23670Y58974D02*
D03*
X23315D02*
D03*
X23920Y55274D02*
D03*
X23565D02*
D03*
Y58274D02*
D03*
X23920D02*
D03*
X38188Y54674D02*
D03*
X37834D02*
D03*
X36638Y58974D02*
D03*
X36284D02*
D03*
X36888Y55274D02*
D03*
X36534D02*
D03*
Y58274D02*
D03*
X36888D02*
D03*
X51157Y54674D02*
D03*
X50802D02*
D03*
X49607Y58974D02*
D03*
X49252D02*
D03*
X49857Y55274D02*
D03*
X49502D02*
D03*
Y58274D02*
D03*
X49857D02*
D03*
X12251Y65661D02*
D03*
X11897D02*
D03*
X10701Y69961D02*
D03*
X10347D02*
D03*
X10951Y66261D02*
D03*
X10597D02*
D03*
Y69261D02*
D03*
X10951D02*
D03*
X25220Y65661D02*
D03*
X24865D02*
D03*
X23670Y69961D02*
D03*
X23315D02*
D03*
X23920Y66261D02*
D03*
X23565D02*
D03*
Y69261D02*
D03*
X23920D02*
D03*
X38188Y65661D02*
D03*
X37834D02*
D03*
X36638Y69961D02*
D03*
X36284D02*
D03*
X36888Y66261D02*
D03*
X36534D02*
D03*
Y69261D02*
D03*
X36888D02*
D03*
X51157Y65661D02*
D03*
X50802D02*
D03*
X49607Y69961D02*
D03*
X49252D02*
D03*
X49857Y66261D02*
D03*
X49502D02*
D03*
Y69261D02*
D03*
X49857D02*
D03*
D22*
X16340Y11853D02*
D03*
Y11263D02*
D03*
X14174Y12719D02*
D03*
Y12129D02*
D03*
X13674Y12719D02*
D03*
Y12129D02*
D03*
X29309Y11853D02*
D03*
Y11263D02*
D03*
X27143Y12719D02*
D03*
Y12129D02*
D03*
X26643Y12719D02*
D03*
Y12129D02*
D03*
X42277Y11853D02*
D03*
Y11263D02*
D03*
X40111Y12719D02*
D03*
Y12129D02*
D03*
X39611Y12719D02*
D03*
Y12129D02*
D03*
X55246Y11853D02*
D03*
Y11263D02*
D03*
X53080Y12719D02*
D03*
Y12129D02*
D03*
X52580Y12719D02*
D03*
Y12129D02*
D03*
X16340Y22841D02*
D03*
Y22250D02*
D03*
X14174Y23707D02*
D03*
Y23116D02*
D03*
X13674Y23707D02*
D03*
Y23116D02*
D03*
X29309Y22841D02*
D03*
Y22250D02*
D03*
X27143Y23707D02*
D03*
Y23116D02*
D03*
X26643Y23707D02*
D03*
Y23116D02*
D03*
X42277Y22841D02*
D03*
Y22250D02*
D03*
X40111Y23707D02*
D03*
Y23116D02*
D03*
X39611Y23707D02*
D03*
Y23116D02*
D03*
X55246Y22841D02*
D03*
Y22250D02*
D03*
X53080Y23707D02*
D03*
Y23116D02*
D03*
X52580Y23707D02*
D03*
Y23116D02*
D03*
X16340Y33828D02*
D03*
Y33237D02*
D03*
X14174Y34694D02*
D03*
Y34104D02*
D03*
X13674Y34694D02*
D03*
Y34104D02*
D03*
X29309Y33828D02*
D03*
Y33237D02*
D03*
X27143Y34694D02*
D03*
Y34104D02*
D03*
X26643Y34694D02*
D03*
Y34104D02*
D03*
X42277Y33828D02*
D03*
Y33237D02*
D03*
X40111Y34694D02*
D03*
Y34104D02*
D03*
X39611Y34694D02*
D03*
Y34104D02*
D03*
X55246Y33828D02*
D03*
Y33237D02*
D03*
X53080Y34694D02*
D03*
Y34104D02*
D03*
X52580Y34694D02*
D03*
Y34104D02*
D03*
X16340Y44815D02*
D03*
Y44225D02*
D03*
X14174Y45682D02*
D03*
Y45091D02*
D03*
X13674Y45682D02*
D03*
Y45091D02*
D03*
X29309Y44815D02*
D03*
Y44225D02*
D03*
X27143Y45682D02*
D03*
Y45091D02*
D03*
X26643Y45682D02*
D03*
Y45091D02*
D03*
X42277Y44815D02*
D03*
Y44225D02*
D03*
X40111Y45682D02*
D03*
Y45091D02*
D03*
X39611Y45682D02*
D03*
Y45091D02*
D03*
X55246Y44815D02*
D03*
Y44225D02*
D03*
X53080Y45682D02*
D03*
Y45091D02*
D03*
X52580Y45682D02*
D03*
Y45091D02*
D03*
X16340Y55803D02*
D03*
Y55212D02*
D03*
X14174Y56669D02*
D03*
Y56078D02*
D03*
X13674Y56669D02*
D03*
Y56078D02*
D03*
X29309Y55803D02*
D03*
Y55212D02*
D03*
X27143Y56669D02*
D03*
Y56078D02*
D03*
X26643Y56669D02*
D03*
Y56078D02*
D03*
X42277Y55803D02*
D03*
Y55212D02*
D03*
X40111Y56669D02*
D03*
Y56078D02*
D03*
X39611Y56669D02*
D03*
Y56078D02*
D03*
X55246Y55803D02*
D03*
Y55212D02*
D03*
X53080Y56669D02*
D03*
Y56078D02*
D03*
X52580Y56669D02*
D03*
Y56078D02*
D03*
X16340Y66790D02*
D03*
Y66200D02*
D03*
X14174Y67656D02*
D03*
Y67066D02*
D03*
X13674Y67656D02*
D03*
Y67066D02*
D03*
X29309Y66790D02*
D03*
Y66200D02*
D03*
X27143Y67656D02*
D03*
Y67066D02*
D03*
X26643Y67656D02*
D03*
Y67066D02*
D03*
X42277Y66790D02*
D03*
Y66200D02*
D03*
X40111Y67656D02*
D03*
Y67066D02*
D03*
X39611Y67656D02*
D03*
Y67066D02*
D03*
X55246Y66790D02*
D03*
Y66200D02*
D03*
X53080Y67656D02*
D03*
Y67066D02*
D03*
X52580Y67656D02*
D03*
Y67066D02*
D03*
D39*
X18374Y11974D02*
D03*
Y12974D02*
D03*
Y14974D02*
D03*
Y13974D02*
D03*
X15324Y17674D02*
D03*
X9824Y17724D02*
D03*
X31343Y11974D02*
D03*
Y12974D02*
D03*
Y14974D02*
D03*
Y13974D02*
D03*
X28293Y17674D02*
D03*
X22793Y17724D02*
D03*
X44311Y11974D02*
D03*
Y12974D02*
D03*
Y14974D02*
D03*
Y13974D02*
D03*
X41261Y17674D02*
D03*
X35761Y17724D02*
D03*
X57280Y11974D02*
D03*
Y12974D02*
D03*
Y14974D02*
D03*
Y13974D02*
D03*
X54230Y17674D02*
D03*
X48730Y17724D02*
D03*
X18374Y22961D02*
D03*
Y23961D02*
D03*
Y25961D02*
D03*
Y24961D02*
D03*
X15324Y28661D02*
D03*
X9824Y28711D02*
D03*
X31343Y22961D02*
D03*
Y23961D02*
D03*
Y25961D02*
D03*
Y24961D02*
D03*
X28293Y28661D02*
D03*
X22793Y28711D02*
D03*
X44311Y22961D02*
D03*
Y23961D02*
D03*
Y25961D02*
D03*
Y24961D02*
D03*
X41261Y28661D02*
D03*
X35761Y28711D02*
D03*
X57280Y22961D02*
D03*
Y23961D02*
D03*
Y25961D02*
D03*
Y24961D02*
D03*
X54230Y28661D02*
D03*
X48730Y28711D02*
D03*
X18374Y33949D02*
D03*
Y34949D02*
D03*
Y36949D02*
D03*
Y35949D02*
D03*
X15324Y39649D02*
D03*
X9824Y39699D02*
D03*
X31343Y33949D02*
D03*
Y34949D02*
D03*
Y36949D02*
D03*
Y35949D02*
D03*
X28293Y39649D02*
D03*
X22793Y39699D02*
D03*
X44311Y33949D02*
D03*
Y34949D02*
D03*
Y36949D02*
D03*
Y35949D02*
D03*
X41261Y39649D02*
D03*
X35761Y39699D02*
D03*
X57280Y33949D02*
D03*
Y34949D02*
D03*
Y36949D02*
D03*
Y35949D02*
D03*
X54230Y39649D02*
D03*
X48730Y39699D02*
D03*
X18374Y44936D02*
D03*
Y45936D02*
D03*
Y47936D02*
D03*
Y46936D02*
D03*
X15324Y50636D02*
D03*
X9824Y50686D02*
D03*
X31343Y44936D02*
D03*
Y45936D02*
D03*
Y47936D02*
D03*
Y46936D02*
D03*
X28293Y50636D02*
D03*
X22793Y50686D02*
D03*
X44311Y44936D02*
D03*
Y45936D02*
D03*
Y47936D02*
D03*
Y46936D02*
D03*
X41261Y50636D02*
D03*
X35761Y50686D02*
D03*
X57280Y44936D02*
D03*
Y45936D02*
D03*
Y47936D02*
D03*
Y46936D02*
D03*
X54230Y50636D02*
D03*
X48730Y50686D02*
D03*
X18374Y55924D02*
D03*
Y56924D02*
D03*
Y58924D02*
D03*
Y57924D02*
D03*
X15324Y61624D02*
D03*
X9824Y61674D02*
D03*
X31343Y55924D02*
D03*
Y56924D02*
D03*
Y58924D02*
D03*
Y57924D02*
D03*
X28293Y61624D02*
D03*
X22793Y61674D02*
D03*
X44311Y55924D02*
D03*
Y56924D02*
D03*
Y58924D02*
D03*
Y57924D02*
D03*
X41261Y61624D02*
D03*
X35761Y61674D02*
D03*
X57280Y55924D02*
D03*
Y56924D02*
D03*
Y58924D02*
D03*
Y57924D02*
D03*
X54230Y61624D02*
D03*
X48730Y61674D02*
D03*
X18374Y66911D02*
D03*
Y67911D02*
D03*
Y69911D02*
D03*
Y68911D02*
D03*
X15324Y72611D02*
D03*
X9824Y72661D02*
D03*
X31343Y66911D02*
D03*
Y67911D02*
D03*
Y69911D02*
D03*
Y68911D02*
D03*
X28293Y72611D02*
D03*
X22793Y72661D02*
D03*
X44311Y66911D02*
D03*
Y67911D02*
D03*
Y69911D02*
D03*
Y68911D02*
D03*
X41261Y72611D02*
D03*
X35761Y72661D02*
D03*
X57280Y66911D02*
D03*
Y67911D02*
D03*
Y69911D02*
D03*
Y68911D02*
D03*
X54230Y72611D02*
D03*
X48730Y72661D02*
D03*
D40*
X18024Y9039D02*
D03*
Y10909D02*
D03*
X16424Y10309D02*
D03*
Y8439D02*
D03*
X14824Y10309D02*
D03*
Y8439D02*
D03*
X30993Y9039D02*
D03*
Y10909D02*
D03*
X29393Y10309D02*
D03*
Y8439D02*
D03*
X27793Y10309D02*
D03*
Y8439D02*
D03*
X43961Y9039D02*
D03*
Y10909D02*
D03*
X42361Y10309D02*
D03*
Y8439D02*
D03*
X40761Y10309D02*
D03*
Y8439D02*
D03*
X56930Y9039D02*
D03*
Y10909D02*
D03*
X55330Y10309D02*
D03*
Y8439D02*
D03*
X53730Y10309D02*
D03*
Y8439D02*
D03*
X18024Y20026D02*
D03*
Y21896D02*
D03*
X16424Y21296D02*
D03*
Y19426D02*
D03*
X14824Y21296D02*
D03*
Y19426D02*
D03*
X30993Y20026D02*
D03*
Y21896D02*
D03*
X29393Y21296D02*
D03*
Y19426D02*
D03*
X27793Y21296D02*
D03*
Y19426D02*
D03*
X43961Y20026D02*
D03*
Y21896D02*
D03*
X42361Y21296D02*
D03*
Y19426D02*
D03*
X40761Y21296D02*
D03*
Y19426D02*
D03*
X56930Y20026D02*
D03*
Y21896D02*
D03*
X55330Y21296D02*
D03*
Y19426D02*
D03*
X53730Y21296D02*
D03*
Y19426D02*
D03*
X18024Y31014D02*
D03*
Y32884D02*
D03*
X16424Y32284D02*
D03*
Y30414D02*
D03*
X14824Y32284D02*
D03*
Y30414D02*
D03*
X30993Y31014D02*
D03*
Y32884D02*
D03*
X29393Y32284D02*
D03*
Y30414D02*
D03*
X27793Y32284D02*
D03*
Y30414D02*
D03*
X43961Y31014D02*
D03*
Y32884D02*
D03*
X42361Y32284D02*
D03*
Y30414D02*
D03*
X40761Y32284D02*
D03*
Y30414D02*
D03*
X56930Y31014D02*
D03*
Y32884D02*
D03*
X55330Y32284D02*
D03*
Y30414D02*
D03*
X53730Y32284D02*
D03*
Y30414D02*
D03*
X18024Y42001D02*
D03*
Y43871D02*
D03*
X16424Y43271D02*
D03*
Y41401D02*
D03*
X14824Y43271D02*
D03*
Y41401D02*
D03*
X30993Y42001D02*
D03*
Y43871D02*
D03*
X29393Y43271D02*
D03*
Y41401D02*
D03*
X27793Y43271D02*
D03*
Y41401D02*
D03*
X43961Y42001D02*
D03*
Y43871D02*
D03*
X42361Y43271D02*
D03*
Y41401D02*
D03*
X40761Y43271D02*
D03*
Y41401D02*
D03*
X56930Y42001D02*
D03*
Y43871D02*
D03*
X55330Y43271D02*
D03*
Y41401D02*
D03*
X53730Y43271D02*
D03*
Y41401D02*
D03*
X18024Y52989D02*
D03*
Y54859D02*
D03*
X16424Y54259D02*
D03*
Y52389D02*
D03*
X14824Y54259D02*
D03*
Y52389D02*
D03*
X30993Y52989D02*
D03*
Y54859D02*
D03*
X29393Y54259D02*
D03*
Y52389D02*
D03*
X27793Y54259D02*
D03*
Y52389D02*
D03*
X43961Y52989D02*
D03*
Y54859D02*
D03*
X42361Y54259D02*
D03*
Y52389D02*
D03*
X40761Y54259D02*
D03*
Y52389D02*
D03*
X56930Y52989D02*
D03*
Y54859D02*
D03*
X55330Y54259D02*
D03*
Y52389D02*
D03*
X53730Y54259D02*
D03*
Y52389D02*
D03*
X18024Y63976D02*
D03*
Y65846D02*
D03*
X16424Y65246D02*
D03*
Y63376D02*
D03*
X14824Y65246D02*
D03*
Y63376D02*
D03*
X30993Y63976D02*
D03*
Y65846D02*
D03*
X29393Y65246D02*
D03*
Y63376D02*
D03*
X27793Y65246D02*
D03*
Y63376D02*
D03*
X43961Y63976D02*
D03*
Y65846D02*
D03*
X42361Y65246D02*
D03*
Y63376D02*
D03*
X40761Y65246D02*
D03*
Y63376D02*
D03*
X56930Y63976D02*
D03*
Y65846D02*
D03*
X55330Y65246D02*
D03*
Y63376D02*
D03*
X53730Y65246D02*
D03*
Y63376D02*
D03*
D41*
X12743Y8424D02*
D03*
X13806D02*
D03*
X25711D02*
D03*
X26774D02*
D03*
X38680D02*
D03*
X39743D02*
D03*
X51648D02*
D03*
X52711D02*
D03*
X12743Y19411D02*
D03*
X13806D02*
D03*
X25711D02*
D03*
X26774D02*
D03*
X38680D02*
D03*
X39743D02*
D03*
X51648D02*
D03*
X52711D02*
D03*
X12743Y30399D02*
D03*
X13806D02*
D03*
X25711D02*
D03*
X26774D02*
D03*
X38680D02*
D03*
X39743D02*
D03*
X51648D02*
D03*
X52711D02*
D03*
X12743Y41386D02*
D03*
X13806D02*
D03*
X25711D02*
D03*
X26774D02*
D03*
X38680D02*
D03*
X39743D02*
D03*
X51648D02*
D03*
X52711D02*
D03*
X12743Y52374D02*
D03*
X13806D02*
D03*
X25711D02*
D03*
X26774D02*
D03*
X38680D02*
D03*
X39743D02*
D03*
X51648D02*
D03*
X52711D02*
D03*
X12743Y63361D02*
D03*
X13806D02*
D03*
X25711D02*
D03*
X26774D02*
D03*
X38680D02*
D03*
X39743D02*
D03*
X51648D02*
D03*
X52711D02*
D03*
D42*
X13324Y10365D02*
D03*
Y9183D02*
D03*
X26293Y10365D02*
D03*
Y9183D02*
D03*
X39261Y10365D02*
D03*
Y9183D02*
D03*
X52230Y10365D02*
D03*
Y9183D02*
D03*
X13324Y21352D02*
D03*
Y20171D02*
D03*
X26293Y21352D02*
D03*
Y20171D02*
D03*
X39261Y21352D02*
D03*
Y20171D02*
D03*
X52230Y21352D02*
D03*
Y20171D02*
D03*
X13324Y32339D02*
D03*
Y31158D02*
D03*
X26293Y32339D02*
D03*
Y31158D02*
D03*
X39261Y32339D02*
D03*
Y31158D02*
D03*
X52230Y32339D02*
D03*
Y31158D02*
D03*
X13324Y43327D02*
D03*
Y42146D02*
D03*
X26293Y43327D02*
D03*
Y42146D02*
D03*
X39261Y43327D02*
D03*
Y42146D02*
D03*
X52230Y43327D02*
D03*
Y42146D02*
D03*
X13324Y54314D02*
D03*
Y53133D02*
D03*
X26293Y54314D02*
D03*
Y53133D02*
D03*
X39261Y54314D02*
D03*
Y53133D02*
D03*
X52230Y54314D02*
D03*
Y53133D02*
D03*
X13324Y65302D02*
D03*
Y64120D02*
D03*
X26293Y65302D02*
D03*
Y64120D02*
D03*
X39261Y65302D02*
D03*
Y64120D02*
D03*
X52230Y65302D02*
D03*
Y64120D02*
D03*
D43*
X11924Y9724D02*
D03*
X24893D02*
D03*
X37861D02*
D03*
X50830D02*
D03*
X11924Y20711D02*
D03*
X24893D02*
D03*
X37861D02*
D03*
X50830D02*
D03*
X11924Y31699D02*
D03*
X24893D02*
D03*
X37861D02*
D03*
X50830D02*
D03*
X11924Y42686D02*
D03*
X24893D02*
D03*
X37861D02*
D03*
X50830D02*
D03*
X11924Y53674D02*
D03*
X24893D02*
D03*
X37861D02*
D03*
X50830D02*
D03*
X11924Y64661D02*
D03*
X24893D02*
D03*
X37861D02*
D03*
X50830D02*
D03*
D44*
X11530Y9163D02*
D03*
X11727D02*
D03*
X11924D02*
D03*
X12121D02*
D03*
X12318D02*
D03*
Y10285D02*
D03*
X12121D02*
D03*
X11924D02*
D03*
X11727D02*
D03*
X11530D02*
D03*
X24499Y9163D02*
D03*
X24696D02*
D03*
X24893D02*
D03*
X25089D02*
D03*
X25286D02*
D03*
Y10285D02*
D03*
X25089D02*
D03*
X24893D02*
D03*
X24696D02*
D03*
X24499D02*
D03*
X37467Y9163D02*
D03*
X37664D02*
D03*
X37861D02*
D03*
X38058D02*
D03*
X38255D02*
D03*
Y10285D02*
D03*
X38058D02*
D03*
X37861D02*
D03*
X37664D02*
D03*
X37467D02*
D03*
X50436Y9163D02*
D03*
X50633D02*
D03*
X50830D02*
D03*
X51026D02*
D03*
X51223D02*
D03*
Y10285D02*
D03*
X51026D02*
D03*
X50830D02*
D03*
X50633D02*
D03*
X50436D02*
D03*
X11530Y20150D02*
D03*
X11727D02*
D03*
X11924D02*
D03*
X12121D02*
D03*
X12318D02*
D03*
Y21272D02*
D03*
X12121D02*
D03*
X11924D02*
D03*
X11727D02*
D03*
X11530D02*
D03*
X24499Y20150D02*
D03*
X24696D02*
D03*
X24893D02*
D03*
X25089D02*
D03*
X25286D02*
D03*
Y21272D02*
D03*
X25089D02*
D03*
X24893D02*
D03*
X24696D02*
D03*
X24499D02*
D03*
X37467Y20150D02*
D03*
X37664D02*
D03*
X37861D02*
D03*
X38058D02*
D03*
X38255D02*
D03*
Y21272D02*
D03*
X38058D02*
D03*
X37861D02*
D03*
X37664D02*
D03*
X37467D02*
D03*
X50436Y20150D02*
D03*
X50633D02*
D03*
X50830D02*
D03*
X51026D02*
D03*
X51223D02*
D03*
Y21272D02*
D03*
X51026D02*
D03*
X50830D02*
D03*
X50633D02*
D03*
X50436D02*
D03*
X11530Y31138D02*
D03*
X11727D02*
D03*
X11924D02*
D03*
X12121D02*
D03*
X12318D02*
D03*
Y32260D02*
D03*
X12121D02*
D03*
X11924D02*
D03*
X11727D02*
D03*
X11530D02*
D03*
X24499Y31138D02*
D03*
X24696D02*
D03*
X24893D02*
D03*
X25089D02*
D03*
X25286D02*
D03*
Y32260D02*
D03*
X25089D02*
D03*
X24893D02*
D03*
X24696D02*
D03*
X24499D02*
D03*
X37467Y31138D02*
D03*
X37664D02*
D03*
X37861D02*
D03*
X38058D02*
D03*
X38255D02*
D03*
Y32260D02*
D03*
X38058D02*
D03*
X37861D02*
D03*
X37664D02*
D03*
X37467D02*
D03*
X50436Y31138D02*
D03*
X50633D02*
D03*
X50830D02*
D03*
X51026D02*
D03*
X51223D02*
D03*
Y32260D02*
D03*
X51026D02*
D03*
X50830D02*
D03*
X50633D02*
D03*
X50436D02*
D03*
X11530Y42125D02*
D03*
X11727D02*
D03*
X11924D02*
D03*
X12121D02*
D03*
X12318D02*
D03*
Y43247D02*
D03*
X12121D02*
D03*
X11924D02*
D03*
X11727D02*
D03*
X11530D02*
D03*
X24499Y42125D02*
D03*
X24696D02*
D03*
X24893D02*
D03*
X25089D02*
D03*
X25286D02*
D03*
Y43247D02*
D03*
X25089D02*
D03*
X24893D02*
D03*
X24696D02*
D03*
X24499D02*
D03*
X37467Y42125D02*
D03*
X37664D02*
D03*
X37861D02*
D03*
X38058D02*
D03*
X38255D02*
D03*
Y43247D02*
D03*
X38058D02*
D03*
X37861D02*
D03*
X37664D02*
D03*
X37467D02*
D03*
X50436Y42125D02*
D03*
X50633D02*
D03*
X50830D02*
D03*
X51026D02*
D03*
X51223D02*
D03*
Y43247D02*
D03*
X51026D02*
D03*
X50830D02*
D03*
X50633D02*
D03*
X50436D02*
D03*
X11530Y53113D02*
D03*
X11727D02*
D03*
X11924D02*
D03*
X12121D02*
D03*
X12318D02*
D03*
Y54235D02*
D03*
X12121D02*
D03*
X11924D02*
D03*
X11727D02*
D03*
X11530D02*
D03*
X24499Y53113D02*
D03*
X24696D02*
D03*
X24893D02*
D03*
X25089D02*
D03*
X25286D02*
D03*
Y54235D02*
D03*
X25089D02*
D03*
X24893D02*
D03*
X24696D02*
D03*
X24499D02*
D03*
X37467Y53113D02*
D03*
X37664D02*
D03*
X37861D02*
D03*
X38058D02*
D03*
X38255D02*
D03*
Y54235D02*
D03*
X38058D02*
D03*
X37861D02*
D03*
X37664D02*
D03*
X37467D02*
D03*
X50436Y53113D02*
D03*
X50633D02*
D03*
X50830D02*
D03*
X51026D02*
D03*
X51223D02*
D03*
Y54235D02*
D03*
X51026D02*
D03*
X50830D02*
D03*
X50633D02*
D03*
X50436D02*
D03*
X11530Y64100D02*
D03*
X11727D02*
D03*
X11924D02*
D03*
X12121D02*
D03*
X12318D02*
D03*
Y65222D02*
D03*
X12121D02*
D03*
X11924D02*
D03*
X11727D02*
D03*
X11530D02*
D03*
X24499Y64100D02*
D03*
X24696D02*
D03*
X24893D02*
D03*
X25089D02*
D03*
X25286D02*
D03*
Y65222D02*
D03*
X25089D02*
D03*
X24893D02*
D03*
X24696D02*
D03*
X24499D02*
D03*
X37467Y64100D02*
D03*
X37664D02*
D03*
X37861D02*
D03*
X38058D02*
D03*
X38255D02*
D03*
Y65222D02*
D03*
X38058D02*
D03*
X37861D02*
D03*
X37664D02*
D03*
X37467D02*
D03*
X50436Y64100D02*
D03*
X50633D02*
D03*
X50830D02*
D03*
X51026D02*
D03*
X51223D02*
D03*
Y65222D02*
D03*
X51026D02*
D03*
X50830D02*
D03*
X50633D02*
D03*
X50436D02*
D03*
M02*
