M48
;Layer_Color=9474304
;FILE_FORMAT=2:4
INCH,LZ
;TYPE=PLATED
T1F00S00C0.0080
T2F00S00C0.0100
T3F00S00C0.0120
T4F00S00C0.0400
T5F00S00C0.0450
T6F00S00C0.2130
;TYPE=NON_PLATED
T7F00S00C0.1181
%
T01
X008824Y008174
X009824Y008474
X010124
X011724Y008724
X011924Y009724
X014524Y009074
X014826Y009148
X015624Y009074
X015474Y009574
X016424Y009074
X021793Y008174
X022793Y008474
X023093
X024693Y008724
X024893Y009724
X027493Y009074
X027794Y009148
X028593Y009074
X028443Y009574
X029393Y009074
X034761Y008174
X035761Y008474
X036061
X037661Y008724
X037861Y009724
X040461Y009074
X040763Y009148
X041561Y009074
X041411Y009574
X042361Y009074
X04773Y008174
X04873Y008474
X04903
X05063Y008724
X05083Y009724
X05343Y009074
X053731Y009148
X05453Y009074
X05438Y009574
X05533Y009074
X05728Y011574
Y012574
Y013574
Y022561
Y023561
Y024561
X05463Y023761
X05433
X054107Y023879
X05393Y022561
X052668Y022856
X052349Y023411
X05153Y023611
Y024061
X05113Y024161
X05193Y024461
X05258Y025211
X05238Y025561
X05083Y025311
X04963Y025761
X04893Y025561
X04743Y023761
X044311Y023561
Y024561
Y022561
X042711Y022311
X041661Y023761
X042361Y020061
X04773Y019161
X04873Y019461
X04903
X05063Y019711
X05083Y020711
X05068Y022161
X05043
X05098
X05153Y022611
X05203Y022161
X05273Y021511
X05343Y020061
X053731Y020136
X05453Y020061
X05438Y020561
X05533Y020061
X05568Y022311
X05433Y025211
X05053Y023161
X05013Y022711
X05018Y017874
X05023Y017624
X05018Y017324
X04963Y017474
X04973Y016824
X05023Y016374
X050684Y016119
X051016Y016136
X05133Y016374
X05173Y015924
X05178Y015524
X05183Y015024
X05233Y015124
X05238Y014574
X05258Y014224
X05193Y013474
X05153Y013074
Y012624
X05113Y013174
X05083Y014324
X05038Y015424
X04963Y014774
X04893Y014574
X04798Y015374
X04748Y016074
X048524Y016168
X04878Y016874
X04753Y017624
X05133Y017574
X05178Y016824
X05263Y016224
X05273Y015824
X05288Y015474
X05428Y015824
X05433Y014224
Y012774
X05463
X054107Y012891
X05393Y011574
X052668Y011868
X052349Y012424
X05203Y011174
X05153Y011624
X05098Y011174
X05068
X05043
X05013Y011724
X05053Y012174
X04743Y012774
X044311Y012574
Y013574
Y011574
X042711Y011324
X041661Y012774
X05273Y010524
X05568Y011324
X05373Y017674
X05323Y017174
X040761Y017674
X040261Y017174
X039661Y016224
X039761Y015824
X039911Y015474
X039361Y015124
X038861Y015024
X038811Y015524
X038761Y015924
X038361Y016374
X038047Y016136
X037716Y016119
X037261Y016374
X036761Y016824
X036661Y017474
X037211Y017324
X037261Y017624
X037211Y017874
X038361Y017574
X038811Y016824
X037411Y015424
X036661Y014774
X035961Y014574
X035011Y015374
X034511Y016074
X035555Y016168
X035811Y016874
X034561Y017624
X034761Y019161
X035761Y019461
X036061
X037661Y019711
X037861Y020711
X037711Y022161
X037461
X038011
X038561Y022611
X039061Y022161
X0397Y022856
X03938Y023411
X038561Y023611
Y024061
X038161Y024161
X038961Y024461
X039611Y025211
X039411Y025561
X037861Y025311
X036661Y025761
X035961Y025561
X034461Y023761
X031343Y023561
Y024561
Y022561
X029743Y022311
X027993Y022561
X02817Y023879
X028393Y023761
X028693
X028393Y025211
X026643
X026443Y025561
X025993Y024461
X026412Y023411
X026731Y022856
X026093Y022161
X026793Y021511
X027493Y020061
X027794Y020136
X028593Y020061
X028443Y020561
X029393Y020061
X027793Y017674
X027293Y017174
X026693Y016224
X026793Y015824
X026943Y015474
X026393Y015124
X026443Y014574
X026643Y014224
X025993Y013474
X026412Y012424
X026731Y011868
X026093Y011174
X026793Y010524
X027993Y011574
X02817Y012891
X028393Y012774
X028693
X028393Y014224
X028343Y015824
X031343Y013574
Y012574
Y011574
X029743Y011324
X034461Y012774
X037561Y012174
X037161Y011724
X037461Y011174
X037711
X038011
X038561Y011624
X039061Y011174
X0397Y011868
X03938Y012424
X038561Y012624
Y013074
X038161Y013174
X038961Y013474
X039611Y014224
X039411Y014574
X037861Y014324
X041361Y014224
Y012774
X041139Y012891
X040961Y011574
X039761Y010524
X041311Y015824
X041561Y020061
X041411Y020561
X040763Y020136
X040461Y020061
X039761Y021511
X040961Y022561
X041139Y023879
X041361Y023761
Y025211
X037561Y023161
X037161Y022711
X025593Y022611
Y023611
Y024061
X025193Y024161
X024893Y025311
X023693Y025761
X022993Y025561
X021493Y023761
X018374Y023561
Y024561
Y022561
X016774Y022311
X015024Y022561
X015202Y023879
X015424Y023761
X015724
X015424Y025211
X013674
X013474Y025561
X013024Y024461
X012624Y024061
Y023611
X012224Y024161
X011924Y025311
X010724Y025761
X011624Y023161
X011224Y022711
X011524Y022161
X011774
X012074
X012624Y022611
X013124Y022161
X013763Y022856
X013443Y023411
X013824Y021511
X014524Y020061
X014826Y020136
X015624Y020061
X015474Y020561
X016424Y020061
X014824Y017674
X014324Y017174
X013724Y016224
X013824Y015824
X013974Y015474
X013424Y015124
X012924Y015024
X012874Y015524
X012824Y015924
X012424Y016374
X01211Y016136
X011779Y016119
X011324Y016374
X010824Y016824
X010724Y017474
X011274Y017324
X011324Y017624
X011274Y017874
X012424Y017574
X012874Y016824
X011474Y015424
X010724Y014774
X011924Y014324
X012224Y013174
X012624Y013074
Y012624
Y011624
X013124Y011174
X012074
X011774
X011524
X011224Y011724
X011624Y012174
X013443Y012424
X013763Y011868
X013824Y010524
X015024Y011574
X015202Y012891
X015424Y012774
X015724
X015424Y014224
X015374Y015824
X013474Y014574
X013674Y014224
X013024Y013474
X018374Y013574
Y012574
Y011574
X016774Y011324
X021493Y012774
X022043Y015374
X021543Y016074
X022587Y016168
X022843Y016874
X023793Y016824
X023693Y017474
X024243Y017324
X024293Y017624
X024243Y017874
X025393Y017574
X025843Y016824
X025393Y016374
X025079Y016136
X024747Y016119
X024293Y016374
X024443Y015424
X023693Y014774
X022993Y014574
X024893Y014324
X025193Y013174
X025593Y013074
Y012624
Y011624
X025043Y011174
X024743
X024493
X024193Y011724
X024593Y012174
X025893Y015024
X025843Y015524
X025793Y015924
X024693Y019711
X024893Y020711
X024743Y022161
X024493
X025043
X024193Y022711
X024593Y023161
X023093Y019461
X022793
X021793Y019161
X021593Y017624
X011724Y019711
X011924Y020711
X010124Y019461
X009824
X008824Y019161
X008624Y017624
X008574Y016074
X009618Y016168
X009874Y016874
X009074Y015374
X010024Y014574
X008524Y012774
Y023761
X010024Y025561
X009074Y026361
X008574Y027061
X009618Y027156
X009874Y027861
X008624Y028611
X008824Y030149
X009824Y030449
X010124
X008524Y034749
X009074Y037349
X008574Y038049
X009618Y038143
X009874Y038849
X008624Y039599
X008824Y041136
X009824Y041436
X010124
X010024Y036549
X010724Y036749
X011474Y037399
X011779Y038094
X01211Y038111
X012424Y038349
X012824Y037899
X012874Y037499
X012924Y036999
X013424Y037099
X013474Y036549
X013674Y036199
X013024Y035449
X012624Y035049
Y034599
X012224Y035149
X011924Y036299
X011624Y034149
X011224Y033699
X011524Y033149
X011774
X012074
X012624Y033599
X013124Y033149
X013763Y033843
X013443Y034399
X015202Y034866
X015424Y034749
X015724
X015424Y036199
X015374Y037799
X013824
X013974Y037449
X013724Y038199
X012874Y038799
X012424Y039549
X011324Y039599
X011274Y039849
Y039299
X010724Y039449
X010824Y038799
X011324Y038349
X014324Y039149
X014824Y039649
X015024Y033549
X016774Y033299
X018374Y033549
Y034549
Y035549
X021493Y034749
X022043Y037349
X021543Y038049
X022587Y038143
X022843Y038849
X023793Y038799
X023693Y039449
X024243Y039299
X024293Y039599
X024243Y039849
X025393Y039549
X025843Y038799
X025393Y038349
X025079Y038111
X024747Y038094
X024293Y038349
X024443Y037399
X023693Y036749
X022993Y036549
X024893Y036299
X025193Y035149
X025593Y035049
Y034599
Y033599
X025043Y033149
X024743
X024493
X024193Y033699
X024593Y034149
X024893Y031699
X024693Y030699
X023093Y030449
X022793
X021793Y030149
X021593Y028611
X021543Y027061
X022587Y027156
X022843Y027861
X023793Y027811
X023693Y028461
X024243Y028311
X024293Y028611
X024243Y028861
X025393Y028561
X025843Y027811
X025393Y027361
X025079Y027123
X024747Y027107
X024293Y027361
X024443Y026411
X025843Y026511
X025793Y026911
X025893Y026011
X022043Y026361
X015374Y026811
X013824
X013974Y026461
X013424Y026111
X012924Y026011
X012874Y026511
X012824Y026911
X012424Y027361
X01211Y027123
X011779Y027107
X011324Y027361
X010824Y027811
X010724Y028461
X011274Y028311
X011324Y028611
X011274Y028861
X012424Y028561
X012874Y027811
X013724Y027211
X014324Y028161
X014824Y028661
X014826Y031123
X014524Y031049
X015624
X015474Y031549
X016424Y031049
X013824Y032499
X011924Y031699
X011724Y030699
X011474Y026411
X021593Y039599
X021793Y041136
X022793Y041436
X023093
X025793Y037899
X025843Y037499
X025893Y036999
X026393Y037099
X026443Y036549
X026643Y036199
X025993Y035449
X026412Y034399
X026731Y033843
X026093Y033149
X026793Y032499
X027493Y031049
X027794Y031123
X028593Y031049
X028443Y031549
X029393Y031049
X029743Y033299
X031343Y033549
Y034549
Y035549
X028693Y034749
X028393
X02817Y034866
X027993Y033549
X028393Y036199
X028343Y037799
X026793
X026943Y037449
X026693Y038199
X027293Y039149
X027793Y039649
X034561Y039599
X034511Y038049
X035555Y038143
X035811Y038849
X036761Y038799
X036661Y039449
X037211Y039299
X037261Y039599
X037211Y039849
X038361Y039549
X038811Y038799
X038361Y038349
X038047Y038111
X037716Y038094
X037261Y038349
X037411Y037399
X036661Y036749
X035961Y036549
X035011Y037349
X034461Y034749
X037561Y034149
X037161Y033699
X037461Y033149
X037711
X038011
X038561Y033599
X039061Y033149
X0397Y033843
X03938Y034399
X038561Y034599
Y035049
X038161Y035149
X038961Y035449
X039611Y036199
X039411Y036549
X039361Y037099
X038861Y036999
X038811Y037499
X038761Y037899
X039761Y037799
X039911Y037449
X039661Y038199
X040261Y039149
X040761Y039649
X041311Y037799
X041361Y036199
Y034749
X041139Y034866
X040961Y033549
X039761Y032499
X040461Y031049
X040763Y031123
X041561Y031049
X041411Y031549
X040761Y028661
X040261Y028161
X039661Y027211
X039761Y026811
X039911Y026461
X039361Y026111
X038861Y026011
X038811Y026511
X038761Y026911
X038361Y027361
X038047Y027123
X037716Y027107
X037261Y027361
X036761Y027811
X036661Y028461
X037211Y028311
X037261Y028611
X037211Y028861
X038361Y028561
X038811Y027811
X037411Y026411
X035011Y026361
X034511Y027061
X035555Y027156
X035811Y027861
X034561Y028611
X034761Y030149
X035761Y030449
X036061
X037661Y030699
X037861Y031699
Y036299
X036061Y041436
X035761
X034761Y041136
X027793Y028661
X027293Y028161
X026693Y027211
X026793Y026811
X026943Y026461
X026393Y026111
X028343Y026811
X041311
X042361Y031049
X042711Y033299
X044311Y033549
Y034549
Y035549
X041661Y034749
X04743
X04798Y037349
X04748Y038049
X048524Y038143
X04878Y038849
X04973Y038799
X04963Y039449
X05018Y039299
X05023Y039599
X05018Y039849
X05133Y039549
X05178Y038799
X05133Y038349
X051016Y038111
X050684Y038094
X05023Y038349
X05038Y037399
X04963Y036749
X04893Y036549
X05083Y036299
X05113Y035149
X05153Y035049
Y034599
Y033599
X05203Y033149
X05098
X05068
X05043
X05013Y033699
X05053Y034149
X052349Y034399
X052668Y033843
X05273Y032499
X05343Y031049
X053731Y031123
X05453Y031049
X05438Y031549
X05533Y031049
X05568Y033299
X05393Y033549
X054107Y034866
X05433Y034749
X05463
X05433Y036199
X05428Y037799
X05273
X05288Y037449
X05233Y037099
X05183Y036999
X05178Y037499
X05173Y037899
X05263Y038199
X05323Y039149
X05373Y039649
X05238Y036549
X05258Y036199
X05193Y035449
X05083Y031699
X05063Y030699
X04903Y030449
X04873
X04773Y030149
X04753Y028611
X04748Y027061
X048524Y027156
X04878Y027861
X04973Y027811
X04963Y028461
X05018Y028311
X05023Y028611
X05018Y028861
X05133Y028561
X05178Y027811
X05133Y027361
X051016Y027123
X050684Y027107
X05023Y027361
X05038Y026411
X05178Y026511
X05173Y026911
X05183Y026011
X05233Y026111
X05288Y026461
X05273Y026811
X05263Y027211
X05323Y028161
X05373Y028661
X05428Y026811
X04798Y026361
X04753Y039599
X04773Y041136
X04873Y041436
X04903
X05728Y035549
Y034549
Y033549
Y044536
Y045536
Y046536
Y055524
Y056524
X05463Y056724
X05433
X054107Y056841
X05393Y055524
X052668Y055818
X052349Y056374
X05153Y056574
Y057024
X05113Y057124
X05053Y056124
X05013Y055674
X05043Y055124
X05068
X05098
X05153Y055574
X05203Y055124
X05273Y054474
X05343Y053024
X053731Y053098
X05453Y053024
X05438Y053524
X05533Y053024
X05568Y055274
X05083Y053674
X05063Y052674
X04903Y052424
X04873
X04773Y052124
X04753Y050586
X04748Y049036
X048524Y04913
X04878Y049836
X04973Y049786
X04963Y050436
X05018Y050286
X05023Y050586
X05018Y050836
X05133Y050536
X05178Y049786
X05133Y049336
X051016Y049098
X050684Y049082
X05023Y049336
X05038Y048386
X04963Y047736
X04893Y047536
X04798Y048336
X04743Y045736
X044311Y045536
Y046536
Y044536
X042711Y044286
X041661Y045736
X042361Y042036
X05063Y041686
X05083Y042686
X05068Y044136
X05043
X05098
X05153Y044586
X05203Y044136
X052668Y04483
X052349Y045386
X05153Y045586
Y046036
X05113Y046136
X05193Y046436
X05258Y047186
X05238Y047536
X05233Y048086
X05183Y047986
X05178Y048486
X05173Y048886
X05273Y048786
X05288Y048436
X05263Y049186
X05323Y050136
X05373Y050636
X05428Y048786
X05433Y047186
Y045736
X05463
X054107Y045853
X05393Y044536
X05568Y044286
X05533Y042036
X05453
X05438Y042536
X053731Y04211
X05343Y042036
X05273Y043486
X05013Y044686
X05053Y045136
X05083Y047286
X04743Y056724
X044311Y056524
Y055524
X042711Y055274
X041661Y056724
X042361Y053024
X041561
X041411Y053524
X040763Y053098
X040461Y053024
X039761Y054474
X039061Y055124
X038561Y055574
Y056574
Y057024
X038161Y057124
X037561Y056124
X037161Y055674
X037461Y055124
X037711
X038011
X037861Y053674
X037661Y052674
X036061Y052424
X035761
X034761Y052124
X034561Y050586
X034511Y049036
X035555Y04913
X035811Y049836
X036761Y049786
X036661Y050436
X037211Y050286
X037261Y050586
X037211Y050836
X038361Y050536
X038811Y049786
X038361Y049336
X038047Y049098
X037716Y049082
X037261Y049336
X037411Y048386
X036661Y047736
X035961Y047536
X035011Y048336
X034461Y045736
X031343Y045536
Y046536
Y044536
X029743Y044286
X027993Y044536
X02817Y045853
X028393Y045736
X028693
X028393Y047186
X028343Y048786
X026793
X026943Y048436
X026393Y048086
X026443Y047536
X026643Y047186
X025993Y046436
X026412Y045386
X026731Y04483
X026093Y044136
X026793Y043486
X027493Y042036
X027794Y04211
X028593Y042036
X028443Y042536
X029393Y042036
X037661Y041686
X037861Y042686
X037711Y044136
X037461
X038011
X038561Y044586
X039061Y044136
X0397Y04483
X03938Y045386
X038561Y045586
Y046036
X038161Y046136
X038961Y046436
X039611Y047186
X039411Y047536
X039361Y048086
X038861Y047986
X038811Y048486
X038761Y048886
X039761Y048786
X039911Y048436
X039661Y049186
X040261Y050136
X040761Y050636
X041311Y048786
X041361Y047186
Y045736
X041139Y045853
X040961Y044536
X039761Y043486
X040461Y042036
X040763Y04211
X041561Y042036
X041411Y042536
X037161Y044686
X037561Y045136
X037861Y047286
X0397Y055818
X03938Y056374
X041139Y056841
X041361Y056724
X040961Y055524
X034461Y056724
X031343Y056524
Y055524
X029743Y055274
X027993Y055524
X02817Y056841
X028393Y056724
X028693
X026412Y056374
X026731Y055818
X026093Y055124
X026793Y054474
X027493Y053024
X027794Y053098
X028593Y053024
X028443Y053524
X029393Y053024
X027793Y050636
X027293Y050136
X026693Y049186
X025793Y048886
X025843Y048486
X025893Y047986
X024893Y047286
X025193Y046136
X025593Y046036
Y045586
Y044586
X025043Y044136
X024743
X024493
X024193Y044686
X024593Y045136
X024893Y042686
X024693Y041686
X024443Y048386
X024747Y049082
X025079Y049098
X025393Y049336
X025843Y049786
X025393Y050536
X024293Y050586
X024243Y050836
Y050286
X023693Y050436
X023793Y049786
X024293Y049336
X022587Y04913
X022843Y049836
X021593Y050586
X021543Y049036
X022043Y048336
X022993Y047536
X023693Y047736
X021493Y045736
X018374Y045536
Y046536
Y044536
X016774Y044286
X015024Y044536
X015202Y045853
X015424Y045736
X015724
X015424Y047186
X015374Y048786
X013824
X013974Y048436
X013424Y048086
X012924Y047986
X012874Y048486
X012824Y048886
X012424Y049336
X01211Y049098
X011779Y049082
X011324Y049336
X010824Y049786
X010724Y050436
X011274Y050286
X011324Y050586
X011274Y050836
X012424Y050536
X012874Y049786
X013724Y049186
X014324Y050136
X014824Y050636
X014826Y053098
X014524Y053024
X015624
X015474Y053524
X016424Y053024
X016774Y055274
X018374Y055524
Y056524
X015724Y056724
X015424
X015202Y056841
X015024Y055524
X013763Y055818
X013443Y056374
X012624Y056574
Y057024
X012224Y057124
X011624Y056124
X011224Y055674
X011524Y055124
X011774
X012074
X012624Y055574
X013124Y055124
X013824Y054474
X011924Y053674
X011724Y052674
X011474Y048386
X010724Y047736
X011924Y047286
X012224Y046136
X012624Y046036
Y045586
Y044586
X013124Y044136
X012074
X011774
X011524
X011224Y044686
X011624Y045136
X013443Y045386
X013763Y04483
X013824Y043486
X014524Y042036
X014826Y04211
X015624Y042036
X015474Y042536
X016424Y042036
X011724Y041686
X011924Y042686
X013024Y046436
X013674Y047186
X013474Y047536
X021793Y052124
X022793Y052424
X023093
X024693Y052674
X024893Y053674
X024743Y055124
X024493
X025043
X025593Y055574
Y056574
Y057024
X025193Y057124
X024593Y056124
X024193Y055674
X021493Y056724
X008524
X008824Y052124
X009824Y052424
X010124
X009874Y049836
X009618Y04913
X008574Y049036
X009074Y048336
X010024Y047536
X008524Y045736
X008624Y050586
X009074Y059324
X008574Y060024
X009618Y060118
X009874Y060824
X008624Y061574
X008824Y063111
X009824Y063411
X010124
X010024Y058524
X008524Y067711
X009074Y070311
X008574Y071011
X009618Y071105
X009874Y071811
X008624Y072561
X010024Y069511
X010724Y069711
X011474Y070361
X011779Y071056
X01211Y071073
X012424Y071311
X012824Y070861
X012874Y070461
X012924Y069961
X013424Y070061
X013474Y069511
X013674Y069161
X013024Y068411
X012624Y068011
Y067561
X012224Y068111
X011924Y069261
X011624Y067111
X011224Y066661
X011524Y066111
X011774
X012074
X012624Y066561
X013124Y066111
X013763Y066805
X013443Y067361
X015202Y067828
X015424Y067711
X015724
X015424Y069161
X015374Y070761
X013824
X013974Y070411
X013724Y071161
X012874Y071761
X012424Y072511
X011324Y072561
X011274Y072811
Y072261
X010724Y072411
X010824Y071761
X011324Y071311
X014324Y072111
X014824Y072611
X015024Y066511
X016774Y066261
X018374Y066511
Y067511
Y068511
X021493Y067711
X022043Y070311
X021543Y071011
X022587Y071105
X022843Y071811
X023793Y071761
X023693Y072411
X024243Y072261
X024293Y072561
X024243Y072811
X025393Y072511
X025843Y071761
X025393Y071311
X025079Y071073
X024747Y071056
X024293Y071311
X024443Y070361
X023693Y069711
X022993Y069511
X024893Y069261
X025193Y068111
X025593Y068011
Y067561
Y066561
X025043Y066111
X024743
X024493
X024193Y066661
X024593Y067111
X024893Y064661
X024693Y063661
X023093Y063411
X022793
X021793Y063111
X021593Y061574
X021543Y060024
X022587Y060118
X022843Y060824
X023793Y060774
X023693Y061424
X024243Y061274
X024293Y061574
X024243Y061824
X025393Y061524
X025843Y060774
X025393Y060324
X025079Y060086
X024747Y060069
X024293Y060324
X024443Y059374
X023693Y058724
X022993Y058524
X022043Y059324
X024893Y058274
X025893Y058974
X025843Y059474
X025793Y059874
X018374Y057524
X015424Y058174
X015374Y059774
X013824
X013974Y059424
X013424Y059074
X012924Y058974
X012874Y059474
X012824Y059874
X012424Y060324
X01211Y060086
X011779Y060069
X011324Y060324
X010824Y060774
X010724Y061424
X011274Y061274
X011324Y061574
X011274Y061824
X012424Y061524
X012874Y060774
X013724Y060174
X014324Y061124
X014824Y061624
X014826Y064085
X014524Y064011
X015624
X015474Y064511
X016424Y064011
X013824Y065461
X011924Y064661
X011724Y063661
X011474Y059374
X010724Y058724
X011924Y058274
X013474Y058524
X013674Y058174
X013024Y057424
X021593Y072561
X025793Y070861
X025843Y070461
X025893Y069961
X026393Y070061
X026443Y069511
X026643Y069161
X025993Y068411
X026412Y067361
X026731Y066805
X026093Y066111
X026793Y065461
X027493Y064011
X027794Y064085
X028593Y064011
X028443Y064511
X029393Y064011
X029743Y066261
X031343Y066511
Y067511
Y068511
X028693Y067711
X028393
X02817Y067828
X027993Y066511
X028393Y069161
X028343Y070761
X026793
X026943Y070411
X026693Y071161
X027293Y072111
X027793Y072611
X034561Y072561
X034511Y071011
X035555Y071105
X035811Y071811
X036761Y071761
X036661Y072411
X037211Y072261
X037261Y072561
X037211Y072811
X038361Y072511
X038811Y071761
X038361Y071311
X038047Y071073
X037716Y071056
X037261Y071311
X037411Y070361
X036661Y069711
X035961Y069511
X035011Y070311
X034461Y067711
X037561Y067111
X037161Y066661
X037461Y066111
X037711
X038011
X038561Y066561
X039061Y066111
X0397Y066805
X03938Y067361
X038561Y067561
Y068011
X038161Y068111
X038961Y068411
X039611Y069161
X039411Y069511
X039361Y070061
X038861Y069961
X038811Y070461
X038761Y070861
X039761Y070761
X039911Y070411
X039661Y071161
X040261Y072111
X040761Y072611
X041311Y070761
X041361Y069161
Y067711
X041139Y067828
X040961Y066511
X039761Y065461
X040461Y064011
X040763Y064085
X041561Y064011
X041411Y064511
X040761Y061624
X040261Y061124
X039661Y060174
X039761Y059774
X039911Y059424
X039361Y059074
X038861Y058974
X038811Y059474
X038761Y059874
X038361Y060324
X038047Y060086
X037716Y060069
X037261Y060324
X036761Y060774
X036661Y061424
X037211Y061274
X037261Y061574
X037211Y061824
X038361Y061524
X038811Y060774
X037411Y059374
X036661Y058724
X035961Y058524
X035011Y059324
X034511Y060024
X035555Y060118
X035811Y060824
X034561Y061574
X034761Y063111
X035761Y063411
X036061
X037661Y063661
X037861Y064661
Y069261
Y058274
X039411Y058524
X039611Y058174
X038961Y057424
X041361Y058174
X041311Y059774
X031343Y057524
X028393Y058174
X028343Y059774
X026793
X026943Y059424
X026393Y059074
X026443Y058524
X026643Y058174
X025993Y057424
X026693Y060174
X027293Y061124
X027793Y061624
X042361Y064011
X042711Y066261
X044311Y066511
Y067511
Y068511
X041661Y067711
X04743
X04798Y070311
X04748Y071011
X048524Y071105
X04878Y071811
X04973Y071761
X04963Y072411
X05018Y072261
X05023Y072561
X05018Y072811
X05133Y072511
X05178Y071761
X05133Y071311
X051016Y071073
X050684Y071056
X05023Y071311
X05038Y070361
X04963Y069711
X04893Y069511
X05083Y069261
X05113Y068111
X05153Y068011
Y067561
Y066561
X05203Y066111
X05098
X05068
X05043
X05013Y066661
X05053Y067111
X052349Y067361
X052668Y066805
X05273Y065461
X05343Y064011
X053731Y064085
X05453Y064011
X05438Y064511
X05533Y064011
X05568Y066261
X05393Y066511
X054107Y067828
X05433Y067711
X05463
X05433Y069161
X05428Y070761
X05273
X05288Y070411
X05233Y070061
X05183Y069961
X05178Y070461
X05173Y070861
X05263Y071161
X05323Y072111
X05373Y072611
X05238Y069511
X05258Y069161
X05193Y068411
X05083Y064661
X05063Y063661
X04903Y063411
X04873
X04773Y063111
X04753Y061574
X04748Y060024
X048524Y060118
X04878Y060824
X04973Y060774
X04963Y061424
X05018Y061274
X05023Y061574
X05018Y061824
X05133Y061524
X05178Y060774
X05133Y060324
X051016Y060086
X050684Y060069
X05023Y060324
X05038Y059374
X04963Y058724
X04893Y058524
X04798Y059324
X05083Y058274
X05183Y058974
X05178Y059474
X05173Y059874
X05273Y059774
X05288Y059424
X05233Y059074
X05238Y058524
X05258Y058174
X05193Y057424
X05433Y058174
X05428Y059774
X05263Y060174
X05323Y061124
X05373Y061624
X044311Y057524
X04753Y072561
X05728Y068511
Y067511
Y066511
Y057524
T02
X04818Y017124
X04903Y016674
X036061
X035211Y017124
X023093Y016674
X022243Y017124
X010124Y016674
X009274Y017124
Y028111
X010124Y027661
Y038649
X009274Y039099
X022243
X023093Y038649
Y027661
X022243Y028111
X035211
X036061Y027661
Y038649
X035211Y039099
X04818
X04903Y038649
Y027661
X04818Y028111
Y050086
X04903Y049636
X036061
X035211Y050086
X023093Y049636
X022243Y050086
X010124Y049636
X009274Y050086
Y061074
X010124Y060624
Y071611
X009274Y072061
X022243
X023093Y071611
Y060624
X022243Y061074
X035211
X036061Y060624
Y071611
X035211Y072061
X04818
X04903Y071611
Y060624
X04818Y061074
T03
X013124Y008424
X013374Y008674
X026093Y008424
X026343Y008674
X039061Y008424
X039311Y008674
X05203Y008424
X05228Y008674
X05403Y010974
X05478Y011024
X05488Y011874
X05463Y014174
Y015524
X05388Y016324
X05338Y014324
X05223Y017324
X05203Y019411
X05228Y019661
X05403Y021961
X05478Y022011
X05488Y022861
X05463Y025161
X05338Y025311
X041661Y025161
X041911Y022861
X041811Y022011
X041661Y015524
Y014174
X041911Y011874
X041811Y011024
X041061Y010974
X040411Y014324
X040911Y016324
X039261Y017324
X039061Y019411
X039311Y019661
X041061Y021961
X040411Y025311
X028693Y025161
X027443Y025311
X028943Y022861
X028843Y022011
X028093Y021961
X026343Y019661
X026093Y019411
X026293Y017324
X027943Y016324
X028693Y015524
Y014174
X027443Y014324
X028943Y011874
X028843Y011024
X028093Y010974
X015874Y011024
X015124Y010974
X015974Y011874
X015724Y014174
Y015524
X014974Y016324
X014474Y014324
X013324Y017324
X013124Y019411
X013374Y019661
X015124Y021961
X015874Y022011
X015974Y022861
X015724Y025161
X014474Y025311
X015724Y026511
X014974Y027311
X013324Y028311
X013124Y030399
X013374Y030649
X015124Y032949
X015874Y032999
X015974Y033849
X015724Y036149
Y037499
X014974Y038299
X014474Y036299
X013324Y039299
X013124Y041386
X026093
X026293Y039299
X027943Y038299
X028693Y037499
Y036149
X027443Y036299
X028943Y033849
X028843Y032999
X028093Y032949
X026343Y030649
X026093Y030399
X026293Y028311
X027943Y027311
X028693Y026511
X039261Y028311
X039061Y030399
X039311Y030649
X041061Y032949
X040411Y036299
X040911Y038299
X039261Y039299
X039061Y041386
X040911Y027311
X041661Y026511
X041811Y032999
X041911Y033849
X041661Y036149
Y037499
X05223Y039299
X05203Y041386
X05388Y038299
X05463Y037499
Y036149
X05338Y036299
X05488Y033849
X05478Y032999
X05403Y032949
X05228Y030649
X05203Y030399
X05223Y028311
X05388Y027311
X05463Y026511
X05228Y041636
X05403Y043936
X05478Y043986
X05488Y044836
X05463Y047136
Y048486
X05388Y049286
X05338Y047286
X05223Y050286
X05203Y052374
X05228Y052624
X05403Y054924
X05478Y054974
X05488Y055824
X041911
X041811Y054974
X041661Y048486
Y047136
X041911Y044836
X041811Y043986
X041061Y043936
X040411Y047286
X040911Y049286
X039261Y050286
X039061Y052374
X039311Y052624
X041061Y054924
X028843Y054974
X028093Y054924
X028943Y055824
X026343Y052624
X026093Y052374
X026293Y050286
X027943Y049286
X028693Y048486
Y047136
X027443Y047286
X028943Y044836
X028843Y043986
X028093Y043936
X026343Y041636
X039311
X015874Y043986
X015124Y043936
X015974Y044836
X015724Y047136
Y048486
X014974Y049286
X014474Y047286
X013324Y050286
X013124Y052374
X013374Y052624
X015124Y054924
X015874Y054974
X015974Y055824
X013374Y041636
X014474Y058274
X015724Y058124
Y059474
X014974Y060274
X013324Y061274
X013124Y063361
X013374Y063611
X015124Y065911
X015874Y065961
X015974Y066811
X015724Y069111
Y070461
X014974Y071261
X014474Y069261
X013324Y072261
X026293
X027943Y071261
X028693Y070461
Y069111
X027443Y069261
X028943Y066811
X028843Y065961
X028093Y065911
X026343Y063611
X026093Y063361
X026293Y061274
X027943Y060274
X028693Y059474
Y058124
X027443Y058274
X040411
X040911Y060274
X039261Y061274
X039061Y063361
X039311Y063611
X041061Y065911
X040411Y069261
X040911Y071261
X039261Y072261
X041661Y070461
Y069111
X041911Y066811
X041811Y065961
X041661Y059474
Y058124
X05338Y058274
X05463Y058124
Y059474
X05388Y060274
X05223Y061274
X05203Y063361
X05228Y063611
X05403Y065911
X05478Y065961
X05488Y066811
X05463Y069111
Y070461
X05388Y071261
X05338Y069261
X05223Y072261
T04
X04753Y014974
Y025961
X034561
Y014974
X021593
Y025961
X008624
Y014974
Y036949
X021593
X034561
X04753
Y047936
X034561
X021593
X008624
Y058924
Y069911
X021593
Y058924
X034561
Y069911
X04753
Y058924
T05
X008624Y008974
X021593
X034561
X04753
Y016974
Y019961
X034561
Y016974
X021593
Y019961
X008624
Y016974
Y027961
Y030949
Y038949
X021593
Y030949
Y027961
X034561
Y030949
Y038949
X04753
Y030949
Y027961
Y041936
Y049936
Y052924
X034561
Y049936
Y041936
X021593
Y049936
Y052924
X008624
Y049936
Y041936
Y060924
Y063911
Y071911
X021593
Y063911
Y060924
X034561
Y063911
Y071911
X04753
Y063911
Y060924
T06
X004724Y004724
X060929
Y076161
X004724
T07
X010674Y009974
X023643
X036611
X04958
Y020961
X05518Y016874
X042211
X036611Y020961
X029243Y016874
X023643Y020961
X016274Y016874
X010674Y020961
Y031949
X016274Y027861
Y038849
X023643Y031949
X029243Y027861
Y038849
X036611Y031949
X042211Y027861
Y038849
X05518
Y027861
X04958Y031949
Y042936
Y053924
X05518Y049836
X042211
X036611Y053924
Y042936
X029243Y049836
X023643Y053924
Y042936
X010674
Y053924
X016274Y049836
Y060824
X010674Y064911
X016274Y071811
X023643Y064911
X029243Y060824
Y071811
X036611Y064911
X042211Y060824
Y071811
X05518
Y060824
X04958Y064911
M30
