G04 Layer_Color=8388736*
%FSLAX24Y24*%
%MOIN*%
G70*
G01*
G75*
%ADD29C,0.0100*%
D29*
X8024Y7324D02*
X8424D01*
X8224D01*
Y6724D01*
X8724Y7124D02*
X8924D01*
X9024Y7024D01*
Y6724D01*
X8724D01*
X8624Y6824D01*
X8724Y6924D01*
X9024D01*
X9224Y7324D02*
Y6724D01*
X9524D01*
X9624Y6824D01*
Y6924D01*
Y7024D01*
X9524Y7124D01*
X9224D01*
X10424Y6724D02*
Y7324D01*
X10724D01*
X10824Y7224D01*
Y7024D01*
X10724Y6924D01*
X10424D01*
X10624D02*
X10824Y6724D01*
X11123D02*
X11323D01*
X11423Y6824D01*
Y7024D01*
X11323Y7124D01*
X11123D01*
X11023Y7024D01*
Y6824D01*
X11123Y6724D01*
X11623Y7124D02*
Y6824D01*
X11723Y6724D01*
X12023D01*
Y7124D01*
X12323Y7224D02*
Y7124D01*
X12223D01*
X12423D01*
X12323D01*
Y6824D01*
X12423Y6724D01*
X13023D02*
X12823D01*
X12723Y6824D01*
Y7024D01*
X12823Y7124D01*
X13023D01*
X13123Y7024D01*
Y6924D01*
X12723D01*
X7774Y8774D02*
G03*
X8774Y7774I1000J0D01*
G01*
X17974D02*
G03*
X18974Y8774I0J1000D01*
G01*
X8774Y18174D02*
G03*
X7774Y17174I0J-1000D01*
G01*
X8774Y18174D02*
X17524D01*
X8774Y7774D02*
X17974D01*
X17524Y15524D02*
Y18174D01*
Y15524D02*
X19574D01*
X20743Y8774D02*
G03*
X21743Y7774I1000J0D01*
G01*
X30943D02*
G03*
X31943Y8774I0J1000D01*
G01*
X21743Y18174D02*
G03*
X20743Y17174I0J-1000D01*
G01*
X21743Y18174D02*
X30493D01*
X21743Y7774D02*
X30943D01*
X30493Y15524D02*
Y18174D01*
Y15524D02*
X32543D01*
X33711Y8774D02*
G03*
X34711Y7774I1000J0D01*
G01*
X43911D02*
G03*
X44911Y8774I0J1000D01*
G01*
X34711Y18174D02*
G03*
X33711Y17174I0J-1000D01*
G01*
X34711Y18174D02*
X43461D01*
X34711Y7774D02*
X43911D01*
X43461Y15524D02*
Y18174D01*
Y15524D02*
X45511D01*
X46680Y8774D02*
G03*
X47680Y7774I1000J0D01*
G01*
X56880D02*
G03*
X57880Y8774I0J1000D01*
G01*
X47680Y18174D02*
G03*
X46680Y17174I0J-1000D01*
G01*
X47680Y18174D02*
X56430D01*
X47680Y7774D02*
X56880D01*
X56430Y15524D02*
Y18174D01*
Y15524D02*
X58480D01*
X7774Y19761D02*
G03*
X8774Y18761I1000J0D01*
G01*
X17974D02*
G03*
X18974Y19761I0J1000D01*
G01*
X8774Y29161D02*
G03*
X7774Y28161I0J-1000D01*
G01*
X8774Y29161D02*
X17524D01*
X8774Y18761D02*
X17974D01*
X17524Y26511D02*
Y29161D01*
Y26511D02*
X19574D01*
X20743Y19761D02*
G03*
X21743Y18761I1000J0D01*
G01*
X30943D02*
G03*
X31943Y19761I0J1000D01*
G01*
X21743Y29161D02*
G03*
X20743Y28161I0J-1000D01*
G01*
X21743Y29161D02*
X30493D01*
X21743Y18761D02*
X30943D01*
X30493Y26511D02*
Y29161D01*
Y26511D02*
X32543D01*
X33711Y19761D02*
G03*
X34711Y18761I1000J0D01*
G01*
X43911D02*
G03*
X44911Y19761I0J1000D01*
G01*
X34711Y29161D02*
G03*
X33711Y28161I0J-1000D01*
G01*
X34711Y29161D02*
X43461D01*
X34711Y18761D02*
X43911D01*
X43461Y26511D02*
Y29161D01*
Y26511D02*
X45511D01*
X46680Y19761D02*
G03*
X47680Y18761I1000J0D01*
G01*
X56880D02*
G03*
X57880Y19761I0J1000D01*
G01*
X47680Y29161D02*
G03*
X46680Y28161I0J-1000D01*
G01*
X47680Y29161D02*
X56430D01*
X47680Y18761D02*
X56880D01*
X56430Y26511D02*
Y29161D01*
Y26511D02*
X58480D01*
X7774Y30749D02*
G03*
X8774Y29749I1000J0D01*
G01*
X17974D02*
G03*
X18974Y30749I0J1000D01*
G01*
X8774Y40149D02*
G03*
X7774Y39149I0J-1000D01*
G01*
X8774Y40149D02*
X17524D01*
X8774Y29749D02*
X17974D01*
X17524Y37499D02*
Y40149D01*
Y37499D02*
X19574D01*
X20743Y30749D02*
G03*
X21743Y29749I1000J0D01*
G01*
X30943D02*
G03*
X31943Y30749I0J1000D01*
G01*
X21743Y40149D02*
G03*
X20743Y39149I0J-1000D01*
G01*
X21743Y40149D02*
X30493D01*
X21743Y29749D02*
X30943D01*
X30493Y37499D02*
Y40149D01*
Y37499D02*
X32543D01*
X33711Y30749D02*
G03*
X34711Y29749I1000J0D01*
G01*
X43911D02*
G03*
X44911Y30749I0J1000D01*
G01*
X34711Y40149D02*
G03*
X33711Y39149I0J-1000D01*
G01*
X34711Y40149D02*
X43461D01*
X34711Y29749D02*
X43911D01*
X43461Y37499D02*
Y40149D01*
Y37499D02*
X45511D01*
X46680Y30749D02*
G03*
X47680Y29749I1000J0D01*
G01*
X56880D02*
G03*
X57880Y30749I0J1000D01*
G01*
X47680Y40149D02*
G03*
X46680Y39149I0J-1000D01*
G01*
X47680Y40149D02*
X56430D01*
X47680Y29749D02*
X56880D01*
X56430Y37499D02*
Y40149D01*
Y37499D02*
X58480D01*
X7774Y41736D02*
G03*
X8774Y40736I1000J0D01*
G01*
X17974D02*
G03*
X18974Y41736I0J1000D01*
G01*
X8774Y51136D02*
G03*
X7774Y50136I0J-1000D01*
G01*
X8774Y51136D02*
X17524D01*
X8774Y40736D02*
X17974D01*
X17524Y48486D02*
Y51136D01*
Y48486D02*
X19574D01*
X20743Y41736D02*
G03*
X21743Y40736I1000J0D01*
G01*
X30943D02*
G03*
X31943Y41736I0J1000D01*
G01*
X21743Y51136D02*
G03*
X20743Y50136I0J-1000D01*
G01*
X21743Y51136D02*
X30493D01*
X21743Y40736D02*
X30943D01*
X30493Y48486D02*
Y51136D01*
Y48486D02*
X32543D01*
X33711Y41736D02*
G03*
X34711Y40736I1000J0D01*
G01*
X43911D02*
G03*
X44911Y41736I0J1000D01*
G01*
X34711Y51136D02*
G03*
X33711Y50136I0J-1000D01*
G01*
X34711Y51136D02*
X43461D01*
X34711Y40736D02*
X43911D01*
X43461Y48486D02*
Y51136D01*
Y48486D02*
X45511D01*
X46680Y41736D02*
G03*
X47680Y40736I1000J0D01*
G01*
X56880D02*
G03*
X57880Y41736I0J1000D01*
G01*
X47680Y51136D02*
G03*
X46680Y50136I0J-1000D01*
G01*
X47680Y51136D02*
X56430D01*
X47680Y40736D02*
X56880D01*
X56430Y48486D02*
Y51136D01*
Y48486D02*
X58480D01*
X7774Y52724D02*
G03*
X8774Y51724I1000J0D01*
G01*
X17974D02*
G03*
X18974Y52724I0J1000D01*
G01*
X8774Y62124D02*
G03*
X7774Y61124I0J-1000D01*
G01*
X8774Y62124D02*
X17524D01*
X8774Y51724D02*
X17974D01*
X17524Y59474D02*
Y62124D01*
Y59474D02*
X19574D01*
X20743Y52724D02*
G03*
X21743Y51724I1000J0D01*
G01*
X30943D02*
G03*
X31943Y52724I0J1000D01*
G01*
X21743Y62124D02*
G03*
X20743Y61124I0J-1000D01*
G01*
X21743Y62124D02*
X30493D01*
X21743Y51724D02*
X30943D01*
X30493Y59474D02*
Y62124D01*
Y59474D02*
X32543D01*
X33711Y52724D02*
G03*
X34711Y51724I1000J0D01*
G01*
X43911D02*
G03*
X44911Y52724I0J1000D01*
G01*
X34711Y62124D02*
G03*
X33711Y61124I0J-1000D01*
G01*
X34711Y62124D02*
X43461D01*
X34711Y51724D02*
X43911D01*
X43461Y59474D02*
Y62124D01*
Y59474D02*
X45511D01*
X46680Y52724D02*
G03*
X47680Y51724I1000J0D01*
G01*
X56880D02*
G03*
X57880Y52724I0J1000D01*
G01*
X47680Y62124D02*
G03*
X46680Y61124I0J-1000D01*
G01*
X47680Y62124D02*
X56430D01*
X47680Y51724D02*
X56880D01*
X56430Y59474D02*
Y62124D01*
Y59474D02*
X58480D01*
X7774Y63711D02*
G03*
X8774Y62711I1000J0D01*
G01*
X17974D02*
G03*
X18974Y63711I0J1000D01*
G01*
X8774Y73111D02*
G03*
X7774Y72111I0J-1000D01*
G01*
X8774Y73111D02*
X17524D01*
X8774Y62711D02*
X17974D01*
X17524Y70461D02*
Y73111D01*
Y70461D02*
X19574D01*
X20743Y63711D02*
G03*
X21743Y62711I1000J0D01*
G01*
X30943D02*
G03*
X31943Y63711I0J1000D01*
G01*
X21743Y73111D02*
G03*
X20743Y72111I0J-1000D01*
G01*
X21743Y73111D02*
X30493D01*
X21743Y62711D02*
X30943D01*
X30493Y70461D02*
Y73111D01*
Y70461D02*
X32543D01*
X33711Y63711D02*
G03*
X34711Y62711I1000J0D01*
G01*
X43911D02*
G03*
X44911Y63711I0J1000D01*
G01*
X34711Y73111D02*
G03*
X33711Y72111I0J-1000D01*
G01*
X34711Y73111D02*
X43461D01*
X34711Y62711D02*
X43911D01*
X43461Y70461D02*
Y73111D01*
Y70461D02*
X45511D01*
X46680Y63711D02*
G03*
X47680Y62711I1000J0D01*
G01*
X56880D02*
G03*
X57880Y63711I0J1000D01*
G01*
X47680Y73111D02*
G03*
X46680Y72111I0J-1000D01*
G01*
X47680Y73111D02*
X56430D01*
X47680Y62711D02*
X56880D01*
X56430Y70461D02*
Y73111D01*
Y70461D02*
X58480D01*
M02*
