G04 Layer_Color=8421504*
%FSLAX24Y24*%
%MOIN*%
G70*
G01*
G75*
%ADD10C,0.0800*%
%ADD11R,0.0800X0.0800*%
%ADD12O,0.0177X0.0551*%
%ADD13R,0.0236X0.0157*%
%ADD14R,0.0512X0.0236*%
%ADD15R,0.0197X0.0354*%
%ADD16R,0.0236X0.0165*%
%ADD17R,0.0079X0.0276*%
%ADD18R,0.0118X0.0276*%
%ADD19R,0.0255X0.0160*%
%ADD20R,0.0160X0.0255*%
%ADD21R,0.0157X0.0236*%
%ADD22R,0.0354X0.0197*%
%ADD23O,0.0571X0.0177*%
%ADD24R,0.0177X0.0374*%
%ADD25O,0.0118X0.0236*%
%ADD26R,0.0630X0.0394*%
G36*
X55430Y72829D02*
X55622Y72761D01*
X55797Y72658D01*
X55949Y72523D01*
X56072Y72361D01*
X56161Y72178D01*
X56214Y71982D01*
X56221Y71880D01*
X56213Y71880D01*
X56221Y71880D01*
X56221Y71872D01*
X56222Y71854D01*
X56223Y71837D01*
X56223Y71820D01*
Y71811D01*
X56223Y71709D01*
X56184Y71510D01*
X56107Y71322D01*
X55995Y71152D01*
X55852Y71007D01*
X55684Y70892D01*
X55497Y70812D01*
X55299Y70770D01*
X55095Y70766D01*
X54895Y70802D01*
X54706Y70876D01*
X54534Y70985D01*
X54387Y71125D01*
X54269Y71291D01*
X54186Y71477D01*
X54140Y71675D01*
X54133Y71878D01*
X54166Y72079D01*
X54237Y72269D01*
X54343Y72443D01*
X54481Y72592D01*
X54645Y72712D01*
X54829Y72799D01*
X55026Y72848D01*
X55229Y72858D01*
X55430Y72829D01*
D02*
G37*
G36*
X42462D02*
X42653Y72761D01*
X42829Y72658D01*
X42980Y72523D01*
X43103Y72361D01*
X43193Y72178D01*
X43245Y71982D01*
X43252Y71880D01*
X43244Y71880D01*
X43252Y71880D01*
X43253Y71872D01*
X43253Y71854D01*
X43254Y71837D01*
X43254Y71820D01*
Y71811D01*
X43254Y71709D01*
X43215Y71510D01*
X43138Y71322D01*
X43026Y71152D01*
X42884Y71007D01*
X42716Y70892D01*
X42529Y70812D01*
X42330Y70770D01*
X42127Y70766D01*
X41927Y70802D01*
X41737Y70876D01*
X41566Y70985D01*
X41418Y71125D01*
X41301Y71291D01*
X41218Y71477D01*
X41172Y71675D01*
X41165Y71878D01*
X41198Y72079D01*
X41268Y72269D01*
X41374Y72443D01*
X41512Y72592D01*
X41676Y72712D01*
X41860Y72799D01*
X42057Y72848D01*
X42260Y72858D01*
X42462Y72829D01*
D02*
G37*
G36*
X29493D02*
X29685Y72761D01*
X29860Y72658D01*
X30012Y72523D01*
X30135Y72361D01*
X30224Y72178D01*
X30277Y71982D01*
X30284Y71880D01*
X30276Y71880D01*
X30284Y71880D01*
X30284Y71872D01*
X30285Y71854D01*
X30286Y71837D01*
X30286Y71820D01*
Y71811D01*
X30286Y71709D01*
X30247Y71510D01*
X30170Y71322D01*
X30058Y71152D01*
X29915Y71007D01*
X29747Y70892D01*
X29560Y70812D01*
X29362Y70770D01*
X29158Y70766D01*
X28958Y70802D01*
X28769Y70876D01*
X28597Y70985D01*
X28450Y71125D01*
X28332Y71291D01*
X28249Y71477D01*
X28203Y71675D01*
X28196Y71878D01*
X28229Y72079D01*
X28300Y72269D01*
X28406Y72443D01*
X28544Y72592D01*
X28708Y72712D01*
X28892Y72799D01*
X29089Y72848D01*
X29292Y72858D01*
X29493Y72829D01*
D02*
G37*
G36*
X16525D02*
X16716Y72761D01*
X16892Y72658D01*
X17043Y72523D01*
X17166Y72361D01*
X17256Y72178D01*
X17308Y71982D01*
X17315Y71880D01*
X17307Y71880D01*
X17315Y71880D01*
X17316Y71872D01*
X17316Y71854D01*
X17317Y71837D01*
X17317Y71820D01*
Y71811D01*
X17317Y71709D01*
X17278Y71510D01*
X17201Y71322D01*
X17089Y71152D01*
X16947Y71007D01*
X16779Y70892D01*
X16592Y70812D01*
X16393Y70770D01*
X16190Y70766D01*
X15990Y70802D01*
X15800Y70876D01*
X15629Y70985D01*
X15481Y71125D01*
X15364Y71291D01*
X15281Y71477D01*
X15235Y71675D01*
X15228Y71878D01*
X15260Y72079D01*
X15331Y72269D01*
X15437Y72443D01*
X15575Y72592D01*
X15739Y72712D01*
X15923Y72799D01*
X16120Y72848D01*
X16323Y72858D01*
X16525Y72829D01*
D02*
G37*
G36*
X49830Y65929D02*
X50022Y65861D01*
X50197Y65758D01*
X50349Y65623D01*
X50472Y65461D01*
X50561Y65278D01*
X50614Y65082D01*
X50621Y64980D01*
X50613Y64980D01*
X50621Y64980D01*
X50621Y64972D01*
X50622Y64954D01*
X50623Y64937D01*
X50623Y64920D01*
Y64911D01*
X50623Y64809D01*
X50584Y64610D01*
X50507Y64422D01*
X50395Y64252D01*
X50252Y64107D01*
X50084Y63992D01*
X49897Y63912D01*
X49699Y63870D01*
X49495Y63866D01*
X49295Y63902D01*
X49106Y63976D01*
X48934Y64085D01*
X48787Y64225D01*
X48669Y64391D01*
X48586Y64577D01*
X48540Y64775D01*
X48533Y64978D01*
X48566Y65179D01*
X48637Y65369D01*
X48743Y65543D01*
X48881Y65692D01*
X49045Y65812D01*
X49229Y65899D01*
X49426Y65948D01*
X49629Y65958D01*
X49830Y65929D01*
D02*
G37*
G36*
X36862D02*
X37053Y65861D01*
X37229Y65758D01*
X37380Y65623D01*
X37503Y65461D01*
X37593Y65278D01*
X37645Y65082D01*
X37652Y64980D01*
X37644Y64980D01*
X37652Y64980D01*
X37653Y64972D01*
X37653Y64954D01*
X37654Y64937D01*
X37654Y64920D01*
Y64911D01*
X37654Y64809D01*
X37615Y64610D01*
X37538Y64422D01*
X37426Y64252D01*
X37284Y64107D01*
X37116Y63992D01*
X36929Y63912D01*
X36730Y63870D01*
X36527Y63866D01*
X36327Y63902D01*
X36137Y63976D01*
X35966Y64085D01*
X35818Y64225D01*
X35701Y64391D01*
X35618Y64577D01*
X35572Y64775D01*
X35565Y64978D01*
X35598Y65179D01*
X35668Y65369D01*
X35774Y65543D01*
X35912Y65692D01*
X36076Y65812D01*
X36260Y65899D01*
X36457Y65948D01*
X36660Y65958D01*
X36862Y65929D01*
D02*
G37*
G36*
X23893D02*
X24085Y65861D01*
X24260Y65758D01*
X24412Y65623D01*
X24535Y65461D01*
X24624Y65278D01*
X24677Y65082D01*
X24684Y64980D01*
X24676Y64980D01*
X24684Y64980D01*
X24684Y64972D01*
X24685Y64954D01*
X24686Y64937D01*
X24686Y64920D01*
Y64911D01*
X24686Y64809D01*
X24647Y64610D01*
X24570Y64422D01*
X24458Y64252D01*
X24315Y64107D01*
X24147Y63992D01*
X23960Y63912D01*
X23762Y63870D01*
X23558Y63866D01*
X23358Y63902D01*
X23169Y63976D01*
X22997Y64085D01*
X22850Y64225D01*
X22732Y64391D01*
X22649Y64577D01*
X22603Y64775D01*
X22596Y64978D01*
X22629Y65179D01*
X22700Y65369D01*
X22806Y65543D01*
X22944Y65692D01*
X23108Y65812D01*
X23292Y65899D01*
X23489Y65948D01*
X23692Y65958D01*
X23893Y65929D01*
D02*
G37*
G36*
X10925D02*
X11116Y65861D01*
X11292Y65758D01*
X11443Y65623D01*
X11566Y65461D01*
X11656Y65278D01*
X11708Y65082D01*
X11715Y64980D01*
X11707Y64980D01*
X11715Y64980D01*
X11716Y64972D01*
X11716Y64954D01*
X11717Y64937D01*
X11717Y64920D01*
Y64911D01*
X11717Y64809D01*
X11678Y64610D01*
X11601Y64422D01*
X11489Y64252D01*
X11347Y64107D01*
X11179Y63992D01*
X10992Y63912D01*
X10793Y63870D01*
X10590Y63866D01*
X10390Y63902D01*
X10200Y63976D01*
X10029Y64085D01*
X9881Y64225D01*
X9764Y64391D01*
X9681Y64577D01*
X9635Y64775D01*
X9628Y64978D01*
X9660Y65179D01*
X9731Y65369D01*
X9837Y65543D01*
X9975Y65692D01*
X10139Y65812D01*
X10323Y65899D01*
X10520Y65948D01*
X10723Y65958D01*
X10925Y65929D01*
D02*
G37*
G36*
X55430Y61841D02*
X55622Y61774D01*
X55797Y61671D01*
X55949Y61535D01*
X56072Y61374D01*
X56161Y61191D01*
X56214Y60994D01*
X56221Y60893D01*
X56213Y60893D01*
X56221Y60893D01*
X56221Y60884D01*
X56222Y60867D01*
X56223Y60850D01*
X56223Y60832D01*
Y60824D01*
X56223Y60722D01*
X56184Y60522D01*
X56107Y60334D01*
X55995Y60165D01*
X55852Y60020D01*
X55684Y59905D01*
X55497Y59825D01*
X55299Y59782D01*
X55095Y59779D01*
X54895Y59815D01*
X54706Y59889D01*
X54534Y59998D01*
X54387Y60138D01*
X54269Y60304D01*
X54186Y60489D01*
X54140Y60687D01*
X54133Y60890D01*
X54166Y61091D01*
X54237Y61282D01*
X54343Y61455D01*
X54481Y61605D01*
X54645Y61725D01*
X54829Y61811D01*
X55026Y61861D01*
X55229Y61871D01*
X55430Y61841D01*
D02*
G37*
G36*
X42462D02*
X42653Y61774D01*
X42829Y61671D01*
X42980Y61535D01*
X43103Y61374D01*
X43193Y61191D01*
X43245Y60994D01*
X43252Y60893D01*
X43244Y60893D01*
X43252Y60893D01*
X43253Y60884D01*
X43253Y60867D01*
X43254Y60850D01*
X43254Y60832D01*
Y60824D01*
X43254Y60722D01*
X43215Y60522D01*
X43138Y60334D01*
X43026Y60165D01*
X42884Y60020D01*
X42716Y59905D01*
X42529Y59825D01*
X42330Y59782D01*
X42127Y59779D01*
X41927Y59815D01*
X41737Y59889D01*
X41566Y59998D01*
X41418Y60138D01*
X41301Y60304D01*
X41218Y60489D01*
X41172Y60687D01*
X41165Y60890D01*
X41198Y61091D01*
X41268Y61282D01*
X41374Y61455D01*
X41512Y61605D01*
X41676Y61725D01*
X41860Y61811D01*
X42057Y61861D01*
X42260Y61871D01*
X42462Y61841D01*
D02*
G37*
G36*
X29493D02*
X29685Y61774D01*
X29860Y61671D01*
X30012Y61535D01*
X30135Y61374D01*
X30224Y61191D01*
X30277Y60994D01*
X30284Y60893D01*
X30276Y60893D01*
X30284Y60893D01*
X30284Y60884D01*
X30285Y60867D01*
X30286Y60850D01*
X30286Y60832D01*
Y60824D01*
X30286Y60722D01*
X30247Y60522D01*
X30170Y60334D01*
X30058Y60165D01*
X29915Y60020D01*
X29747Y59905D01*
X29560Y59825D01*
X29362Y59782D01*
X29158Y59779D01*
X28958Y59815D01*
X28769Y59889D01*
X28597Y59998D01*
X28450Y60138D01*
X28332Y60304D01*
X28249Y60489D01*
X28203Y60687D01*
X28196Y60890D01*
X28229Y61091D01*
X28300Y61282D01*
X28406Y61455D01*
X28544Y61605D01*
X28708Y61725D01*
X28892Y61811D01*
X29089Y61861D01*
X29292Y61871D01*
X29493Y61841D01*
D02*
G37*
G36*
X16525D02*
X16716Y61774D01*
X16892Y61671D01*
X17043Y61535D01*
X17166Y61374D01*
X17256Y61191D01*
X17308Y60994D01*
X17315Y60893D01*
X17307Y60893D01*
X17315Y60893D01*
X17316Y60884D01*
X17316Y60867D01*
X17317Y60850D01*
X17317Y60832D01*
Y60824D01*
X17317Y60722D01*
X17278Y60522D01*
X17201Y60334D01*
X17089Y60165D01*
X16947Y60020D01*
X16779Y59905D01*
X16592Y59825D01*
X16393Y59782D01*
X16190Y59779D01*
X15990Y59815D01*
X15800Y59889D01*
X15629Y59998D01*
X15481Y60138D01*
X15364Y60304D01*
X15281Y60489D01*
X15235Y60687D01*
X15228Y60890D01*
X15260Y61091D01*
X15331Y61282D01*
X15437Y61455D01*
X15575Y61605D01*
X15739Y61725D01*
X15923Y61811D01*
X16120Y61861D01*
X16323Y61871D01*
X16525Y61841D01*
D02*
G37*
G36*
X49830Y54941D02*
X50022Y54874D01*
X50197Y54771D01*
X50349Y54635D01*
X50472Y54474D01*
X50561Y54291D01*
X50614Y54094D01*
X50621Y53993D01*
X50613Y53993D01*
X50621Y53993D01*
X50621Y53984D01*
X50622Y53967D01*
X50623Y53950D01*
X50623Y53932D01*
Y53924D01*
X50623Y53822D01*
X50584Y53622D01*
X50507Y53434D01*
X50395Y53265D01*
X50252Y53120D01*
X50084Y53005D01*
X49897Y52925D01*
X49699Y52882D01*
X49495Y52879D01*
X49295Y52915D01*
X49106Y52989D01*
X48934Y53098D01*
X48787Y53238D01*
X48669Y53404D01*
X48586Y53589D01*
X48540Y53787D01*
X48533Y53991D01*
X48566Y54191D01*
X48637Y54382D01*
X48743Y54555D01*
X48881Y54705D01*
X49045Y54825D01*
X49229Y54911D01*
X49426Y54961D01*
X49629Y54971D01*
X49830Y54941D01*
D02*
G37*
G36*
X36862D02*
X37053Y54874D01*
X37229Y54771D01*
X37380Y54635D01*
X37503Y54474D01*
X37593Y54291D01*
X37645Y54094D01*
X37652Y53993D01*
X37644Y53993D01*
X37652Y53993D01*
X37653Y53984D01*
X37653Y53967D01*
X37654Y53950D01*
X37654Y53932D01*
Y53924D01*
X37654Y53822D01*
X37615Y53622D01*
X37538Y53434D01*
X37426Y53265D01*
X37284Y53120D01*
X37116Y53005D01*
X36929Y52925D01*
X36730Y52882D01*
X36527Y52879D01*
X36327Y52915D01*
X36137Y52989D01*
X35966Y53098D01*
X35818Y53238D01*
X35701Y53404D01*
X35618Y53589D01*
X35572Y53787D01*
X35565Y53991D01*
X35598Y54191D01*
X35668Y54382D01*
X35774Y54555D01*
X35912Y54705D01*
X36076Y54825D01*
X36260Y54911D01*
X36457Y54961D01*
X36660Y54971D01*
X36862Y54941D01*
D02*
G37*
G36*
X23893D02*
X24085Y54874D01*
X24260Y54771D01*
X24412Y54635D01*
X24535Y54474D01*
X24624Y54291D01*
X24677Y54094D01*
X24684Y53993D01*
X24676Y53993D01*
X24684Y53993D01*
X24684Y53984D01*
X24685Y53967D01*
X24686Y53950D01*
X24686Y53932D01*
Y53924D01*
X24686Y53822D01*
X24647Y53622D01*
X24570Y53434D01*
X24458Y53265D01*
X24315Y53120D01*
X24147Y53005D01*
X23960Y52925D01*
X23762Y52882D01*
X23558Y52879D01*
X23358Y52915D01*
X23169Y52989D01*
X22997Y53098D01*
X22850Y53238D01*
X22732Y53404D01*
X22649Y53589D01*
X22603Y53787D01*
X22596Y53991D01*
X22629Y54191D01*
X22700Y54382D01*
X22806Y54555D01*
X22944Y54705D01*
X23108Y54825D01*
X23292Y54911D01*
X23489Y54961D01*
X23692Y54971D01*
X23893Y54941D01*
D02*
G37*
G36*
X10925D02*
X11116Y54874D01*
X11292Y54771D01*
X11443Y54635D01*
X11566Y54474D01*
X11656Y54291D01*
X11708Y54094D01*
X11715Y53993D01*
X11707Y53993D01*
X11715Y53993D01*
X11716Y53984D01*
X11716Y53967D01*
X11717Y53950D01*
X11717Y53932D01*
Y53924D01*
X11717Y53822D01*
X11678Y53622D01*
X11601Y53434D01*
X11489Y53265D01*
X11347Y53120D01*
X11179Y53005D01*
X10992Y52925D01*
X10793Y52882D01*
X10590Y52879D01*
X10390Y52915D01*
X10200Y52989D01*
X10029Y53098D01*
X9881Y53238D01*
X9764Y53404D01*
X9681Y53589D01*
X9635Y53787D01*
X9628Y53991D01*
X9660Y54191D01*
X9731Y54382D01*
X9837Y54555D01*
X9975Y54705D01*
X10139Y54825D01*
X10323Y54911D01*
X10520Y54961D01*
X10723Y54971D01*
X10925Y54941D01*
D02*
G37*
G36*
X55430Y50854D02*
X55622Y50787D01*
X55797Y50683D01*
X55949Y50548D01*
X56072Y50386D01*
X56161Y50203D01*
X56214Y50007D01*
X56221Y49906D01*
X56213Y49905D01*
X56221Y49906D01*
X56221Y49897D01*
X56222Y49880D01*
X56223Y49862D01*
X56223Y49845D01*
Y49836D01*
X56223Y49735D01*
X56184Y49535D01*
X56107Y49347D01*
X55995Y49177D01*
X55852Y49032D01*
X55684Y48917D01*
X55497Y48837D01*
X55299Y48795D01*
X55095Y48791D01*
X54895Y48827D01*
X54706Y48901D01*
X54534Y49010D01*
X54387Y49150D01*
X54269Y49316D01*
X54186Y49502D01*
X54140Y49700D01*
X54133Y49903D01*
X54166Y50104D01*
X54237Y50294D01*
X54343Y50468D01*
X54481Y50617D01*
X54645Y50738D01*
X54829Y50824D01*
X55026Y50873D01*
X55229Y50883D01*
X55430Y50854D01*
D02*
G37*
G36*
X42462D02*
X42653Y50787D01*
X42829Y50683D01*
X42980Y50548D01*
X43103Y50386D01*
X43193Y50203D01*
X43245Y50007D01*
X43252Y49906D01*
X43244Y49905D01*
X43252Y49906D01*
X43253Y49897D01*
X43253Y49880D01*
X43254Y49862D01*
X43254Y49845D01*
Y49836D01*
X43254Y49735D01*
X43215Y49535D01*
X43138Y49347D01*
X43026Y49177D01*
X42884Y49032D01*
X42716Y48917D01*
X42529Y48837D01*
X42330Y48795D01*
X42127Y48791D01*
X41927Y48827D01*
X41737Y48901D01*
X41566Y49010D01*
X41418Y49150D01*
X41301Y49316D01*
X41218Y49502D01*
X41172Y49700D01*
X41165Y49903D01*
X41198Y50104D01*
X41268Y50294D01*
X41374Y50468D01*
X41512Y50617D01*
X41676Y50738D01*
X41860Y50824D01*
X42057Y50873D01*
X42260Y50883D01*
X42462Y50854D01*
D02*
G37*
G36*
X29493D02*
X29685Y50787D01*
X29860Y50683D01*
X30012Y50548D01*
X30135Y50386D01*
X30224Y50203D01*
X30277Y50007D01*
X30284Y49906D01*
X30276Y49905D01*
X30284Y49906D01*
X30284Y49897D01*
X30285Y49880D01*
X30286Y49862D01*
X30286Y49845D01*
Y49836D01*
X30286Y49735D01*
X30247Y49535D01*
X30170Y49347D01*
X30058Y49177D01*
X29915Y49032D01*
X29747Y48917D01*
X29560Y48837D01*
X29362Y48795D01*
X29158Y48791D01*
X28958Y48827D01*
X28769Y48901D01*
X28597Y49010D01*
X28450Y49150D01*
X28332Y49316D01*
X28249Y49502D01*
X28203Y49700D01*
X28196Y49903D01*
X28229Y50104D01*
X28300Y50294D01*
X28406Y50468D01*
X28544Y50617D01*
X28708Y50738D01*
X28892Y50824D01*
X29089Y50873D01*
X29292Y50883D01*
X29493Y50854D01*
D02*
G37*
G36*
X16525D02*
X16716Y50787D01*
X16892Y50683D01*
X17043Y50548D01*
X17166Y50386D01*
X17256Y50203D01*
X17308Y50007D01*
X17315Y49906D01*
X17307Y49905D01*
X17315Y49906D01*
X17316Y49897D01*
X17316Y49880D01*
X17317Y49862D01*
X17317Y49845D01*
Y49836D01*
X17317Y49735D01*
X17278Y49535D01*
X17201Y49347D01*
X17089Y49177D01*
X16947Y49032D01*
X16779Y48917D01*
X16592Y48837D01*
X16393Y48795D01*
X16190Y48791D01*
X15990Y48827D01*
X15800Y48901D01*
X15629Y49010D01*
X15481Y49150D01*
X15364Y49316D01*
X15281Y49502D01*
X15235Y49700D01*
X15228Y49903D01*
X15260Y50104D01*
X15331Y50294D01*
X15437Y50468D01*
X15575Y50617D01*
X15739Y50738D01*
X15923Y50824D01*
X16120Y50873D01*
X16323Y50883D01*
X16525Y50854D01*
D02*
G37*
G36*
X49830Y43954D02*
X50022Y43887D01*
X50197Y43783D01*
X50349Y43648D01*
X50472Y43486D01*
X50561Y43303D01*
X50614Y43107D01*
X50621Y43006D01*
X50613Y43005D01*
X50621Y43006D01*
X50621Y42997D01*
X50622Y42980D01*
X50623Y42962D01*
X50623Y42945D01*
Y42936D01*
X50623Y42835D01*
X50584Y42635D01*
X50507Y42447D01*
X50395Y42277D01*
X50252Y42132D01*
X50084Y42017D01*
X49897Y41937D01*
X49699Y41895D01*
X49495Y41891D01*
X49295Y41927D01*
X49106Y42001D01*
X48934Y42110D01*
X48787Y42250D01*
X48669Y42416D01*
X48586Y42602D01*
X48540Y42800D01*
X48533Y43003D01*
X48566Y43204D01*
X48637Y43394D01*
X48743Y43568D01*
X48881Y43717D01*
X49045Y43838D01*
X49229Y43924D01*
X49426Y43973D01*
X49629Y43983D01*
X49830Y43954D01*
D02*
G37*
G36*
X36862D02*
X37053Y43887D01*
X37229Y43783D01*
X37380Y43648D01*
X37503Y43486D01*
X37593Y43303D01*
X37645Y43107D01*
X37652Y43006D01*
X37644Y43005D01*
X37652Y43006D01*
X37653Y42997D01*
X37653Y42980D01*
X37654Y42962D01*
X37654Y42945D01*
Y42936D01*
X37654Y42835D01*
X37615Y42635D01*
X37538Y42447D01*
X37426Y42277D01*
X37284Y42132D01*
X37116Y42017D01*
X36929Y41937D01*
X36730Y41895D01*
X36527Y41891D01*
X36327Y41927D01*
X36137Y42001D01*
X35966Y42110D01*
X35818Y42250D01*
X35701Y42416D01*
X35618Y42602D01*
X35572Y42800D01*
X35565Y43003D01*
X35598Y43204D01*
X35668Y43394D01*
X35774Y43568D01*
X35912Y43717D01*
X36076Y43838D01*
X36260Y43924D01*
X36457Y43973D01*
X36660Y43983D01*
X36862Y43954D01*
D02*
G37*
G36*
X23893D02*
X24085Y43887D01*
X24260Y43783D01*
X24412Y43648D01*
X24535Y43486D01*
X24624Y43303D01*
X24677Y43107D01*
X24684Y43006D01*
X24676Y43005D01*
X24684Y43006D01*
X24684Y42997D01*
X24685Y42980D01*
X24686Y42962D01*
X24686Y42945D01*
Y42936D01*
X24686Y42835D01*
X24647Y42635D01*
X24570Y42447D01*
X24458Y42277D01*
X24315Y42132D01*
X24147Y42017D01*
X23960Y41937D01*
X23762Y41895D01*
X23558Y41891D01*
X23358Y41927D01*
X23169Y42001D01*
X22997Y42110D01*
X22850Y42250D01*
X22732Y42416D01*
X22649Y42602D01*
X22603Y42800D01*
X22596Y43003D01*
X22629Y43204D01*
X22700Y43394D01*
X22806Y43568D01*
X22944Y43717D01*
X23108Y43838D01*
X23292Y43924D01*
X23489Y43973D01*
X23692Y43983D01*
X23893Y43954D01*
D02*
G37*
G36*
X10925D02*
X11116Y43887D01*
X11292Y43783D01*
X11443Y43648D01*
X11566Y43486D01*
X11656Y43303D01*
X11708Y43107D01*
X11715Y43006D01*
X11707Y43005D01*
X11715Y43006D01*
X11716Y42997D01*
X11716Y42980D01*
X11717Y42962D01*
X11717Y42945D01*
Y42936D01*
X11717Y42835D01*
X11678Y42635D01*
X11601Y42447D01*
X11489Y42277D01*
X11347Y42132D01*
X11179Y42017D01*
X10992Y41937D01*
X10793Y41895D01*
X10590Y41891D01*
X10390Y41927D01*
X10200Y42001D01*
X10029Y42110D01*
X9881Y42250D01*
X9764Y42416D01*
X9681Y42602D01*
X9635Y42800D01*
X9628Y43003D01*
X9660Y43204D01*
X9731Y43394D01*
X9837Y43568D01*
X9975Y43717D01*
X10139Y43838D01*
X10323Y43924D01*
X10520Y43973D01*
X10723Y43983D01*
X10925Y43954D01*
D02*
G37*
G36*
X55430Y39867D02*
X55622Y39799D01*
X55797Y39696D01*
X55949Y39561D01*
X56072Y39399D01*
X56161Y39216D01*
X56214Y39020D01*
X56221Y38918D01*
X56213Y38918D01*
X56221Y38918D01*
X56221Y38910D01*
X56222Y38892D01*
X56223Y38875D01*
X56223Y38858D01*
Y38849D01*
X56223Y38747D01*
X56184Y38548D01*
X56107Y38359D01*
X55995Y38190D01*
X55852Y38045D01*
X55684Y37930D01*
X55497Y37850D01*
X55299Y37807D01*
X55095Y37804D01*
X54895Y37840D01*
X54706Y37914D01*
X54534Y38023D01*
X54387Y38163D01*
X54269Y38329D01*
X54186Y38514D01*
X54140Y38712D01*
X54133Y38916D01*
X54166Y39116D01*
X54237Y39307D01*
X54343Y39480D01*
X54481Y39630D01*
X54645Y39750D01*
X54829Y39837D01*
X55026Y39886D01*
X55229Y39896D01*
X55430Y39867D01*
D02*
G37*
G36*
X42462D02*
X42653Y39799D01*
X42829Y39696D01*
X42980Y39561D01*
X43103Y39399D01*
X43193Y39216D01*
X43245Y39020D01*
X43252Y38918D01*
X43244Y38918D01*
X43252Y38918D01*
X43253Y38910D01*
X43253Y38892D01*
X43254Y38875D01*
X43254Y38858D01*
Y38849D01*
X43254Y38747D01*
X43215Y38548D01*
X43138Y38359D01*
X43026Y38190D01*
X42884Y38045D01*
X42716Y37930D01*
X42529Y37850D01*
X42330Y37807D01*
X42127Y37804D01*
X41927Y37840D01*
X41737Y37914D01*
X41566Y38023D01*
X41418Y38163D01*
X41301Y38329D01*
X41218Y38514D01*
X41172Y38712D01*
X41165Y38916D01*
X41198Y39116D01*
X41268Y39307D01*
X41374Y39480D01*
X41512Y39630D01*
X41676Y39750D01*
X41860Y39837D01*
X42057Y39886D01*
X42260Y39896D01*
X42462Y39867D01*
D02*
G37*
G36*
X29493D02*
X29685Y39799D01*
X29860Y39696D01*
X30012Y39561D01*
X30135Y39399D01*
X30224Y39216D01*
X30277Y39020D01*
X30284Y38918D01*
X30276Y38918D01*
X30284Y38918D01*
X30284Y38910D01*
X30285Y38892D01*
X30286Y38875D01*
X30286Y38858D01*
Y38849D01*
X30286Y38747D01*
X30247Y38548D01*
X30170Y38359D01*
X30058Y38190D01*
X29915Y38045D01*
X29747Y37930D01*
X29560Y37850D01*
X29362Y37807D01*
X29158Y37804D01*
X28958Y37840D01*
X28769Y37914D01*
X28597Y38023D01*
X28450Y38163D01*
X28332Y38329D01*
X28249Y38514D01*
X28203Y38712D01*
X28196Y38916D01*
X28229Y39116D01*
X28300Y39307D01*
X28406Y39480D01*
X28544Y39630D01*
X28708Y39750D01*
X28892Y39837D01*
X29089Y39886D01*
X29292Y39896D01*
X29493Y39867D01*
D02*
G37*
G36*
X16525D02*
X16716Y39799D01*
X16892Y39696D01*
X17043Y39561D01*
X17166Y39399D01*
X17256Y39216D01*
X17308Y39020D01*
X17315Y38918D01*
X17307Y38918D01*
X17315Y38918D01*
X17316Y38910D01*
X17316Y38892D01*
X17317Y38875D01*
X17317Y38858D01*
Y38849D01*
X17317Y38747D01*
X17278Y38548D01*
X17201Y38359D01*
X17089Y38190D01*
X16947Y38045D01*
X16779Y37930D01*
X16592Y37850D01*
X16393Y37807D01*
X16190Y37804D01*
X15990Y37840D01*
X15800Y37914D01*
X15629Y38023D01*
X15481Y38163D01*
X15364Y38329D01*
X15281Y38514D01*
X15235Y38712D01*
X15228Y38916D01*
X15260Y39116D01*
X15331Y39307D01*
X15437Y39480D01*
X15575Y39630D01*
X15739Y39750D01*
X15923Y39837D01*
X16120Y39886D01*
X16323Y39896D01*
X16525Y39867D01*
D02*
G37*
G36*
X49830Y32967D02*
X50022Y32899D01*
X50197Y32796D01*
X50349Y32661D01*
X50472Y32499D01*
X50561Y32316D01*
X50614Y32120D01*
X50621Y32018D01*
X50613Y32018D01*
X50621Y32018D01*
X50621Y32010D01*
X50622Y31992D01*
X50623Y31975D01*
X50623Y31957D01*
Y31949D01*
X50623Y31847D01*
X50584Y31648D01*
X50507Y31459D01*
X50395Y31290D01*
X50252Y31145D01*
X50084Y31030D01*
X49897Y30950D01*
X49699Y30907D01*
X49495Y30904D01*
X49295Y30940D01*
X49106Y31014D01*
X48934Y31123D01*
X48787Y31263D01*
X48669Y31429D01*
X48586Y31614D01*
X48540Y31812D01*
X48533Y32016D01*
X48566Y32216D01*
X48637Y32407D01*
X48743Y32580D01*
X48881Y32730D01*
X49045Y32850D01*
X49229Y32937D01*
X49426Y32986D01*
X49629Y32996D01*
X49830Y32967D01*
D02*
G37*
G36*
X36862D02*
X37053Y32899D01*
X37229Y32796D01*
X37380Y32661D01*
X37503Y32499D01*
X37593Y32316D01*
X37645Y32120D01*
X37652Y32018D01*
X37644Y32018D01*
X37652Y32018D01*
X37653Y32010D01*
X37653Y31992D01*
X37654Y31975D01*
X37654Y31957D01*
Y31949D01*
X37654Y31847D01*
X37615Y31648D01*
X37538Y31459D01*
X37426Y31290D01*
X37284Y31145D01*
X37116Y31030D01*
X36929Y30950D01*
X36730Y30907D01*
X36527Y30904D01*
X36327Y30940D01*
X36137Y31014D01*
X35966Y31123D01*
X35818Y31263D01*
X35701Y31429D01*
X35618Y31614D01*
X35572Y31812D01*
X35565Y32016D01*
X35598Y32216D01*
X35668Y32407D01*
X35774Y32580D01*
X35912Y32730D01*
X36076Y32850D01*
X36260Y32937D01*
X36457Y32986D01*
X36660Y32996D01*
X36862Y32967D01*
D02*
G37*
G36*
X23893D02*
X24085Y32899D01*
X24260Y32796D01*
X24412Y32661D01*
X24535Y32499D01*
X24624Y32316D01*
X24677Y32120D01*
X24684Y32018D01*
X24676Y32018D01*
X24684Y32018D01*
X24684Y32010D01*
X24685Y31992D01*
X24686Y31975D01*
X24686Y31957D01*
Y31949D01*
X24686Y31847D01*
X24647Y31648D01*
X24570Y31459D01*
X24458Y31290D01*
X24315Y31145D01*
X24147Y31030D01*
X23960Y30950D01*
X23762Y30907D01*
X23558Y30904D01*
X23358Y30940D01*
X23169Y31014D01*
X22997Y31123D01*
X22850Y31263D01*
X22732Y31429D01*
X22649Y31614D01*
X22603Y31812D01*
X22596Y32016D01*
X22629Y32216D01*
X22700Y32407D01*
X22806Y32580D01*
X22944Y32730D01*
X23108Y32850D01*
X23292Y32937D01*
X23489Y32986D01*
X23692Y32996D01*
X23893Y32967D01*
D02*
G37*
G36*
X10925D02*
X11116Y32899D01*
X11292Y32796D01*
X11443Y32661D01*
X11566Y32499D01*
X11656Y32316D01*
X11708Y32120D01*
X11715Y32018D01*
X11707Y32018D01*
X11715Y32018D01*
X11716Y32010D01*
X11716Y31992D01*
X11717Y31975D01*
X11717Y31957D01*
Y31949D01*
X11717Y31847D01*
X11678Y31648D01*
X11601Y31459D01*
X11489Y31290D01*
X11347Y31145D01*
X11179Y31030D01*
X10992Y30950D01*
X10793Y30907D01*
X10590Y30904D01*
X10390Y30940D01*
X10200Y31014D01*
X10029Y31123D01*
X9881Y31263D01*
X9764Y31429D01*
X9681Y31614D01*
X9635Y31812D01*
X9628Y32016D01*
X9660Y32216D01*
X9731Y32407D01*
X9837Y32580D01*
X9975Y32730D01*
X10139Y32850D01*
X10323Y32937D01*
X10520Y32986D01*
X10723Y32996D01*
X10925Y32967D01*
D02*
G37*
G36*
X55430Y28879D02*
X55622Y28812D01*
X55797Y28708D01*
X55949Y28573D01*
X56072Y28411D01*
X56161Y28229D01*
X56214Y28032D01*
X56221Y27931D01*
X56213Y27930D01*
X56221Y27931D01*
X56221Y27922D01*
X56222Y27905D01*
X56223Y27887D01*
X56223Y27870D01*
Y27861D01*
X56223Y27760D01*
X56184Y27560D01*
X56107Y27372D01*
X55995Y27202D01*
X55852Y27057D01*
X55684Y26943D01*
X55497Y26863D01*
X55299Y26820D01*
X55095Y26817D01*
X54895Y26852D01*
X54706Y26926D01*
X54534Y27035D01*
X54387Y27176D01*
X54269Y27342D01*
X54186Y27527D01*
X54140Y27725D01*
X54133Y27928D01*
X54166Y28129D01*
X54237Y28320D01*
X54343Y28493D01*
X54481Y28643D01*
X54645Y28763D01*
X54829Y28849D01*
X55026Y28898D01*
X55229Y28908D01*
X55430Y28879D01*
D02*
G37*
G36*
X42462D02*
X42653Y28812D01*
X42829Y28708D01*
X42980Y28573D01*
X43103Y28411D01*
X43193Y28229D01*
X43245Y28032D01*
X43252Y27931D01*
X43244Y27930D01*
X43252Y27931D01*
X43253Y27922D01*
X43253Y27905D01*
X43254Y27887D01*
X43254Y27870D01*
Y27861D01*
X43254Y27760D01*
X43215Y27560D01*
X43138Y27372D01*
X43026Y27202D01*
X42884Y27057D01*
X42716Y26943D01*
X42529Y26863D01*
X42330Y26820D01*
X42127Y26817D01*
X41927Y26852D01*
X41737Y26926D01*
X41566Y27035D01*
X41418Y27176D01*
X41301Y27342D01*
X41218Y27527D01*
X41172Y27725D01*
X41165Y27928D01*
X41198Y28129D01*
X41268Y28320D01*
X41374Y28493D01*
X41512Y28643D01*
X41676Y28763D01*
X41860Y28849D01*
X42057Y28898D01*
X42260Y28908D01*
X42462Y28879D01*
D02*
G37*
G36*
X29493D02*
X29685Y28812D01*
X29860Y28708D01*
X30012Y28573D01*
X30135Y28411D01*
X30224Y28229D01*
X30277Y28032D01*
X30284Y27931D01*
X30276Y27930D01*
X30284Y27931D01*
X30284Y27922D01*
X30285Y27905D01*
X30286Y27887D01*
X30286Y27870D01*
Y27861D01*
X30286Y27760D01*
X30247Y27560D01*
X30170Y27372D01*
X30058Y27202D01*
X29915Y27057D01*
X29747Y26943D01*
X29560Y26863D01*
X29362Y26820D01*
X29158Y26817D01*
X28958Y26852D01*
X28769Y26926D01*
X28597Y27035D01*
X28450Y27176D01*
X28332Y27342D01*
X28249Y27527D01*
X28203Y27725D01*
X28196Y27928D01*
X28229Y28129D01*
X28300Y28320D01*
X28406Y28493D01*
X28544Y28643D01*
X28708Y28763D01*
X28892Y28849D01*
X29089Y28898D01*
X29292Y28908D01*
X29493Y28879D01*
D02*
G37*
G36*
X16525D02*
X16716Y28812D01*
X16892Y28708D01*
X17043Y28573D01*
X17166Y28411D01*
X17256Y28229D01*
X17308Y28032D01*
X17315Y27931D01*
X17307Y27930D01*
X17315Y27931D01*
X17316Y27922D01*
X17316Y27905D01*
X17317Y27887D01*
X17317Y27870D01*
Y27861D01*
X17317Y27760D01*
X17278Y27560D01*
X17201Y27372D01*
X17089Y27202D01*
X16947Y27057D01*
X16779Y26943D01*
X16592Y26863D01*
X16393Y26820D01*
X16190Y26817D01*
X15990Y26852D01*
X15800Y26926D01*
X15629Y27035D01*
X15481Y27176D01*
X15364Y27342D01*
X15281Y27527D01*
X15235Y27725D01*
X15228Y27928D01*
X15260Y28129D01*
X15331Y28320D01*
X15437Y28493D01*
X15575Y28643D01*
X15739Y28763D01*
X15923Y28849D01*
X16120Y28898D01*
X16323Y28908D01*
X16525Y28879D01*
D02*
G37*
G36*
X49830Y21979D02*
X50022Y21912D01*
X50197Y21808D01*
X50349Y21673D01*
X50472Y21511D01*
X50561Y21329D01*
X50614Y21132D01*
X50621Y21031D01*
X50613Y21030D01*
X50621Y21031D01*
X50621Y21022D01*
X50622Y21005D01*
X50623Y20987D01*
X50623Y20970D01*
Y20961D01*
X50623Y20860D01*
X50584Y20660D01*
X50507Y20472D01*
X50395Y20302D01*
X50252Y20157D01*
X50084Y20043D01*
X49897Y19963D01*
X49699Y19920D01*
X49495Y19917D01*
X49295Y19952D01*
X49106Y20026D01*
X48934Y20135D01*
X48787Y20276D01*
X48669Y20442D01*
X48586Y20627D01*
X48540Y20825D01*
X48533Y21028D01*
X48566Y21229D01*
X48637Y21420D01*
X48743Y21593D01*
X48881Y21743D01*
X49045Y21863D01*
X49229Y21949D01*
X49426Y21998D01*
X49629Y22008D01*
X49830Y21979D01*
D02*
G37*
G36*
X36862D02*
X37053Y21912D01*
X37229Y21808D01*
X37380Y21673D01*
X37503Y21511D01*
X37593Y21329D01*
X37645Y21132D01*
X37652Y21031D01*
X37644Y21030D01*
X37652Y21031D01*
X37653Y21022D01*
X37653Y21005D01*
X37654Y20987D01*
X37654Y20970D01*
Y20961D01*
X37654Y20860D01*
X37615Y20660D01*
X37538Y20472D01*
X37426Y20302D01*
X37284Y20157D01*
X37116Y20043D01*
X36929Y19963D01*
X36730Y19920D01*
X36527Y19917D01*
X36327Y19952D01*
X36137Y20026D01*
X35966Y20135D01*
X35818Y20276D01*
X35701Y20442D01*
X35618Y20627D01*
X35572Y20825D01*
X35565Y21028D01*
X35598Y21229D01*
X35668Y21420D01*
X35774Y21593D01*
X35912Y21743D01*
X36076Y21863D01*
X36260Y21949D01*
X36457Y21998D01*
X36660Y22008D01*
X36862Y21979D01*
D02*
G37*
G36*
X23893D02*
X24085Y21912D01*
X24260Y21808D01*
X24412Y21673D01*
X24535Y21511D01*
X24624Y21329D01*
X24677Y21132D01*
X24684Y21031D01*
X24676Y21030D01*
X24684Y21031D01*
X24684Y21022D01*
X24685Y21005D01*
X24686Y20987D01*
X24686Y20970D01*
Y20961D01*
X24686Y20860D01*
X24647Y20660D01*
X24570Y20472D01*
X24458Y20302D01*
X24315Y20157D01*
X24147Y20043D01*
X23960Y19963D01*
X23762Y19920D01*
X23558Y19917D01*
X23358Y19952D01*
X23169Y20026D01*
X22997Y20135D01*
X22850Y20276D01*
X22732Y20442D01*
X22649Y20627D01*
X22603Y20825D01*
X22596Y21028D01*
X22629Y21229D01*
X22700Y21420D01*
X22806Y21593D01*
X22944Y21743D01*
X23108Y21863D01*
X23292Y21949D01*
X23489Y21998D01*
X23692Y22008D01*
X23893Y21979D01*
D02*
G37*
G36*
X10925D02*
X11116Y21912D01*
X11292Y21808D01*
X11443Y21673D01*
X11566Y21511D01*
X11656Y21329D01*
X11708Y21132D01*
X11715Y21031D01*
X11707Y21030D01*
X11715Y21031D01*
X11716Y21022D01*
X11716Y21005D01*
X11717Y20987D01*
X11717Y20970D01*
Y20961D01*
X11717Y20860D01*
X11678Y20660D01*
X11601Y20472D01*
X11489Y20302D01*
X11347Y20157D01*
X11179Y20043D01*
X10992Y19963D01*
X10793Y19920D01*
X10590Y19917D01*
X10390Y19952D01*
X10200Y20026D01*
X10029Y20135D01*
X9881Y20276D01*
X9764Y20442D01*
X9681Y20627D01*
X9635Y20825D01*
X9628Y21028D01*
X9660Y21229D01*
X9731Y21420D01*
X9837Y21593D01*
X9975Y21743D01*
X10139Y21863D01*
X10323Y21949D01*
X10520Y21998D01*
X10723Y22008D01*
X10925Y21979D01*
D02*
G37*
G36*
X55430Y17892D02*
X55622Y17824D01*
X55797Y17721D01*
X55949Y17586D01*
X56072Y17424D01*
X56161Y17241D01*
X56214Y17045D01*
X56221Y16943D01*
X56213Y16943D01*
X56221Y16943D01*
X56221Y16935D01*
X56222Y16917D01*
X56223Y16900D01*
X56223Y16883D01*
Y16874D01*
X56223Y16772D01*
X56184Y16573D01*
X56107Y16385D01*
X55995Y16215D01*
X55852Y16070D01*
X55684Y15955D01*
X55497Y15875D01*
X55299Y15833D01*
X55095Y15829D01*
X54895Y15865D01*
X54706Y15939D01*
X54534Y16048D01*
X54387Y16188D01*
X54269Y16354D01*
X54186Y16540D01*
X54140Y16738D01*
X54133Y16941D01*
X54166Y17142D01*
X54237Y17332D01*
X54343Y17506D01*
X54481Y17655D01*
X54645Y17775D01*
X54829Y17862D01*
X55026Y17911D01*
X55229Y17921D01*
X55430Y17892D01*
D02*
G37*
G36*
X42462D02*
X42653Y17824D01*
X42829Y17721D01*
X42980Y17586D01*
X43103Y17424D01*
X43193Y17241D01*
X43245Y17045D01*
X43252Y16943D01*
X43244Y16943D01*
X43252Y16943D01*
X43253Y16935D01*
X43253Y16917D01*
X43254Y16900D01*
X43254Y16883D01*
Y16874D01*
X43254Y16772D01*
X43215Y16573D01*
X43138Y16385D01*
X43026Y16215D01*
X42884Y16070D01*
X42716Y15955D01*
X42529Y15875D01*
X42330Y15833D01*
X42127Y15829D01*
X41927Y15865D01*
X41737Y15939D01*
X41566Y16048D01*
X41418Y16188D01*
X41301Y16354D01*
X41218Y16540D01*
X41172Y16738D01*
X41165Y16941D01*
X41198Y17142D01*
X41268Y17332D01*
X41374Y17506D01*
X41512Y17655D01*
X41676Y17775D01*
X41860Y17862D01*
X42057Y17911D01*
X42260Y17921D01*
X42462Y17892D01*
D02*
G37*
G36*
X29493D02*
X29685Y17824D01*
X29860Y17721D01*
X30012Y17586D01*
X30135Y17424D01*
X30224Y17241D01*
X30277Y17045D01*
X30284Y16943D01*
X30276Y16943D01*
X30284Y16943D01*
X30284Y16935D01*
X30285Y16917D01*
X30286Y16900D01*
X30286Y16883D01*
Y16874D01*
X30286Y16772D01*
X30247Y16573D01*
X30170Y16385D01*
X30058Y16215D01*
X29915Y16070D01*
X29747Y15955D01*
X29560Y15875D01*
X29362Y15833D01*
X29158Y15829D01*
X28958Y15865D01*
X28769Y15939D01*
X28597Y16048D01*
X28450Y16188D01*
X28332Y16354D01*
X28249Y16540D01*
X28203Y16738D01*
X28196Y16941D01*
X28229Y17142D01*
X28300Y17332D01*
X28406Y17506D01*
X28544Y17655D01*
X28708Y17775D01*
X28892Y17862D01*
X29089Y17911D01*
X29292Y17921D01*
X29493Y17892D01*
D02*
G37*
G36*
X16525D02*
X16716Y17824D01*
X16892Y17721D01*
X17043Y17586D01*
X17166Y17424D01*
X17256Y17241D01*
X17308Y17045D01*
X17315Y16943D01*
X17307Y16943D01*
X17315Y16943D01*
X17316Y16935D01*
X17316Y16917D01*
X17317Y16900D01*
X17317Y16883D01*
Y16874D01*
X17317Y16772D01*
X17278Y16573D01*
X17201Y16385D01*
X17089Y16215D01*
X16947Y16070D01*
X16779Y15955D01*
X16592Y15875D01*
X16393Y15833D01*
X16190Y15829D01*
X15990Y15865D01*
X15800Y15939D01*
X15629Y16048D01*
X15481Y16188D01*
X15364Y16354D01*
X15281Y16540D01*
X15235Y16738D01*
X15228Y16941D01*
X15260Y17142D01*
X15331Y17332D01*
X15437Y17506D01*
X15575Y17655D01*
X15739Y17775D01*
X15923Y17862D01*
X16120Y17911D01*
X16323Y17921D01*
X16525Y17892D01*
D02*
G37*
G36*
X49830Y10992D02*
X50022Y10924D01*
X50197Y10821D01*
X50349Y10686D01*
X50472Y10524D01*
X50561Y10341D01*
X50614Y10145D01*
X50621Y10043D01*
X50613Y10043D01*
X50621Y10043D01*
X50621Y10035D01*
X50622Y10017D01*
X50623Y10000D01*
X50623Y9983D01*
Y9974D01*
X50623Y9872D01*
X50584Y9673D01*
X50507Y9485D01*
X50395Y9315D01*
X50252Y9170D01*
X50084Y9055D01*
X49897Y8975D01*
X49699Y8933D01*
X49495Y8929D01*
X49295Y8965D01*
X49106Y9039D01*
X48934Y9148D01*
X48787Y9288D01*
X48669Y9454D01*
X48586Y9640D01*
X48540Y9838D01*
X48533Y10041D01*
X48566Y10242D01*
X48637Y10432D01*
X48743Y10606D01*
X48881Y10755D01*
X49045Y10875D01*
X49229Y10962D01*
X49426Y11011D01*
X49629Y11021D01*
X49830Y10992D01*
D02*
G37*
G36*
X36862D02*
X37053Y10924D01*
X37229Y10821D01*
X37380Y10686D01*
X37503Y10524D01*
X37593Y10341D01*
X37645Y10145D01*
X37652Y10043D01*
X37644Y10043D01*
X37652Y10043D01*
X37653Y10035D01*
X37653Y10017D01*
X37654Y10000D01*
X37654Y9983D01*
Y9974D01*
X37654Y9872D01*
X37615Y9673D01*
X37538Y9485D01*
X37426Y9315D01*
X37284Y9170D01*
X37116Y9055D01*
X36929Y8975D01*
X36730Y8933D01*
X36527Y8929D01*
X36327Y8965D01*
X36137Y9039D01*
X35966Y9148D01*
X35818Y9288D01*
X35701Y9454D01*
X35618Y9640D01*
X35572Y9838D01*
X35565Y10041D01*
X35598Y10242D01*
X35668Y10432D01*
X35774Y10606D01*
X35912Y10755D01*
X36076Y10875D01*
X36260Y10962D01*
X36457Y11011D01*
X36660Y11021D01*
X36862Y10992D01*
D02*
G37*
G36*
X23893D02*
X24085Y10924D01*
X24260Y10821D01*
X24412Y10686D01*
X24535Y10524D01*
X24624Y10341D01*
X24677Y10145D01*
X24684Y10043D01*
X24676Y10043D01*
X24684Y10043D01*
X24684Y10035D01*
X24685Y10017D01*
X24686Y10000D01*
X24686Y9983D01*
Y9974D01*
X24686Y9872D01*
X24647Y9673D01*
X24570Y9485D01*
X24458Y9315D01*
X24315Y9170D01*
X24147Y9055D01*
X23960Y8975D01*
X23762Y8933D01*
X23558Y8929D01*
X23358Y8965D01*
X23169Y9039D01*
X22997Y9148D01*
X22850Y9288D01*
X22732Y9454D01*
X22649Y9640D01*
X22603Y9838D01*
X22596Y10041D01*
X22629Y10242D01*
X22700Y10432D01*
X22806Y10606D01*
X22944Y10755D01*
X23108Y10875D01*
X23292Y10962D01*
X23489Y11011D01*
X23692Y11021D01*
X23893Y10992D01*
D02*
G37*
G36*
X10925D02*
X11116Y10924D01*
X11292Y10821D01*
X11443Y10686D01*
X11566Y10524D01*
X11656Y10341D01*
X11708Y10145D01*
X11715Y10043D01*
X11707Y10043D01*
X11715Y10043D01*
X11716Y10035D01*
X11716Y10017D01*
X11717Y10000D01*
X11717Y9983D01*
Y9974D01*
X11717Y9872D01*
X11678Y9673D01*
X11601Y9485D01*
X11489Y9315D01*
X11347Y9170D01*
X11179Y9055D01*
X10992Y8975D01*
X10793Y8933D01*
X10590Y8929D01*
X10390Y8965D01*
X10200Y9039D01*
X10029Y9148D01*
X9881Y9288D01*
X9764Y9454D01*
X9681Y9640D01*
X9635Y9838D01*
X9628Y10041D01*
X9660Y10242D01*
X9731Y10432D01*
X9837Y10606D01*
X9975Y10755D01*
X10139Y10875D01*
X10323Y10962D01*
X10520Y11011D01*
X10723Y11021D01*
X10925Y10992D01*
D02*
G37*
%LPC*%
G36*
X55194Y72421D02*
X55061Y72410D01*
X54933Y72369D01*
X54817Y72302D01*
X54718Y72211D01*
X54642Y72100D01*
X54592Y71976D01*
X54570Y71843D01*
X54578Y71709D01*
X54615Y71580D01*
X54679Y71462D01*
X54767Y71361D01*
X54875Y71282D01*
X54998Y71228D01*
X55130Y71203D01*
X55264Y71207D01*
X55394Y71240D01*
X55514Y71300D01*
X55617Y71386D01*
X55700Y71492D01*
X55757Y71613D01*
X55786Y71744D01*
X55790Y71811D01*
X55790Y71820D01*
X55789Y71837D01*
X55788Y71855D01*
X55787Y71872D01*
X55786Y71881D01*
X55790Y71880D01*
X55786Y71881D01*
X55774Y71947D01*
X55730Y72074D01*
X55660Y72188D01*
X55566Y72283D01*
X55453Y72356D01*
X55327Y72403D01*
X55194Y72421D01*
D02*
G37*
G36*
X42226D02*
X42092Y72410D01*
X41964Y72369D01*
X41848Y72302D01*
X41750Y72211D01*
X41674Y72100D01*
X41623Y71976D01*
X41602Y71843D01*
X41609Y71709D01*
X41646Y71580D01*
X41710Y71462D01*
X41798Y71361D01*
X41907Y71282D01*
X42030Y71228D01*
X42161Y71203D01*
X42295Y71207D01*
X42425Y71240D01*
X42545Y71300D01*
X42649Y71386D01*
X42731Y71492D01*
X42788Y71613D01*
X42818Y71744D01*
X42821Y71811D01*
X42821Y71820D01*
X42821Y71837D01*
X42820Y71855D01*
X42818Y71872D01*
X42817Y71881D01*
X42821Y71880D01*
X42817Y71881D01*
X42806Y71947D01*
X42762Y72074D01*
X42691Y72188D01*
X42597Y72283D01*
X42485Y72356D01*
X42359Y72403D01*
X42226Y72421D01*
D02*
G37*
G36*
X29257D02*
X29124Y72410D01*
X28996Y72369D01*
X28880Y72302D01*
X28781Y72211D01*
X28705Y72100D01*
X28655Y71976D01*
X28633Y71843D01*
X28641Y71709D01*
X28678Y71580D01*
X28742Y71462D01*
X28830Y71361D01*
X28938Y71282D01*
X29061Y71228D01*
X29193Y71203D01*
X29327Y71207D01*
X29457Y71240D01*
X29577Y71300D01*
X29680Y71386D01*
X29763Y71492D01*
X29820Y71613D01*
X29849Y71744D01*
X29853Y71811D01*
X29853Y71820D01*
X29852Y71837D01*
X29851Y71855D01*
X29850Y71872D01*
X29849Y71881D01*
X29853Y71880D01*
X29849Y71881D01*
X29837Y71947D01*
X29793Y72074D01*
X29723Y72188D01*
X29629Y72283D01*
X29516Y72356D01*
X29390Y72403D01*
X29257Y72421D01*
D02*
G37*
G36*
X16289D02*
X16155Y72410D01*
X16027Y72369D01*
X15911Y72302D01*
X15813Y72211D01*
X15737Y72100D01*
X15686Y71976D01*
X15665Y71843D01*
X15672Y71709D01*
X15709Y71580D01*
X15773Y71462D01*
X15861Y71361D01*
X15970Y71282D01*
X16093Y71228D01*
X16224Y71203D01*
X16358Y71207D01*
X16488Y71240D01*
X16608Y71300D01*
X16712Y71386D01*
X16794Y71492D01*
X16851Y71613D01*
X16881Y71744D01*
X16884Y71811D01*
X16884Y71820D01*
X16884Y71837D01*
X16883Y71855D01*
X16881Y71872D01*
X16880Y71881D01*
X16884Y71880D01*
X16880Y71881D01*
X16869Y71947D01*
X16825Y72074D01*
X16754Y72188D01*
X16660Y72283D01*
X16548Y72356D01*
X16422Y72403D01*
X16289Y72421D01*
D02*
G37*
G36*
X49594Y65521D02*
X49461Y65510D01*
X49333Y65469D01*
X49217Y65402D01*
X49118Y65311D01*
X49042Y65200D01*
X48992Y65076D01*
X48970Y64943D01*
X48978Y64809D01*
X49015Y64680D01*
X49079Y64562D01*
X49167Y64461D01*
X49275Y64382D01*
X49398Y64328D01*
X49530Y64303D01*
X49664Y64307D01*
X49794Y64340D01*
X49914Y64400D01*
X50017Y64486D01*
X50100Y64592D01*
X50157Y64713D01*
X50186Y64844D01*
X50190Y64911D01*
X50190Y64920D01*
X50189Y64937D01*
X50188Y64955D01*
X50187Y64972D01*
X50186Y64981D01*
X50190Y64980D01*
X50186Y64981D01*
X50174Y65047D01*
X50130Y65174D01*
X50060Y65288D01*
X49966Y65383D01*
X49853Y65456D01*
X49727Y65503D01*
X49594Y65521D01*
D02*
G37*
G36*
X36626D02*
X36492Y65510D01*
X36364Y65469D01*
X36248Y65402D01*
X36150Y65311D01*
X36074Y65200D01*
X36023Y65076D01*
X36002Y64943D01*
X36009Y64809D01*
X36046Y64680D01*
X36110Y64562D01*
X36198Y64461D01*
X36307Y64382D01*
X36430Y64328D01*
X36561Y64303D01*
X36695Y64307D01*
X36825Y64340D01*
X36945Y64400D01*
X37049Y64486D01*
X37131Y64592D01*
X37188Y64713D01*
X37218Y64844D01*
X37221Y64911D01*
X37221Y64920D01*
X37221Y64937D01*
X37220Y64955D01*
X37218Y64972D01*
X37217Y64981D01*
X37221Y64980D01*
X37217Y64981D01*
X37206Y65047D01*
X37162Y65174D01*
X37091Y65288D01*
X36997Y65383D01*
X36885Y65456D01*
X36759Y65503D01*
X36626Y65521D01*
D02*
G37*
G36*
X23657D02*
X23524Y65510D01*
X23396Y65469D01*
X23280Y65402D01*
X23181Y65311D01*
X23105Y65200D01*
X23055Y65076D01*
X23033Y64943D01*
X23041Y64809D01*
X23078Y64680D01*
X23142Y64562D01*
X23230Y64461D01*
X23338Y64382D01*
X23461Y64328D01*
X23593Y64303D01*
X23727Y64307D01*
X23857Y64340D01*
X23977Y64400D01*
X24080Y64486D01*
X24163Y64592D01*
X24220Y64713D01*
X24249Y64844D01*
X24253Y64911D01*
X24253Y64920D01*
X24252Y64937D01*
X24251Y64955D01*
X24250Y64972D01*
X24249Y64981D01*
X24253Y64980D01*
X24249Y64981D01*
X24237Y65047D01*
X24193Y65174D01*
X24123Y65288D01*
X24029Y65383D01*
X23916Y65456D01*
X23790Y65503D01*
X23657Y65521D01*
D02*
G37*
G36*
X10689D02*
X10555Y65510D01*
X10427Y65469D01*
X10311Y65402D01*
X10213Y65311D01*
X10137Y65200D01*
X10086Y65076D01*
X10065Y64943D01*
X10072Y64809D01*
X10109Y64680D01*
X10173Y64562D01*
X10261Y64461D01*
X10370Y64382D01*
X10493Y64328D01*
X10624Y64303D01*
X10758Y64307D01*
X10888Y64340D01*
X11008Y64400D01*
X11112Y64486D01*
X11194Y64592D01*
X11251Y64713D01*
X11281Y64844D01*
X11284Y64911D01*
X11284Y64920D01*
X11284Y64937D01*
X11283Y64955D01*
X11281Y64972D01*
X11280Y64981D01*
X11284Y64980D01*
X11280Y64981D01*
X11269Y65047D01*
X11225Y65174D01*
X11154Y65288D01*
X11060Y65383D01*
X10948Y65456D01*
X10822Y65503D01*
X10689Y65521D01*
D02*
G37*
G36*
X55194Y61434D02*
X55061Y61422D01*
X54933Y61382D01*
X54817Y61314D01*
X54718Y61223D01*
X54642Y61113D01*
X54592Y60988D01*
X54570Y60856D01*
X54578Y60722D01*
X54615Y60593D01*
X54679Y60475D01*
X54767Y60374D01*
X54875Y60295D01*
X54998Y60241D01*
X55130Y60215D01*
X55264Y60219D01*
X55394Y60252D01*
X55514Y60313D01*
X55617Y60398D01*
X55700Y60504D01*
X55757Y60626D01*
X55786Y60757D01*
X55790Y60824D01*
X55790Y60832D01*
X55789Y60850D01*
X55788Y60867D01*
X55787Y60885D01*
X55786Y60893D01*
X55790Y60893D01*
X55786Y60893D01*
X55774Y60959D01*
X55730Y61086D01*
X55660Y61200D01*
X55566Y61296D01*
X55453Y61369D01*
X55327Y61416D01*
X55194Y61434D01*
D02*
G37*
G36*
X42226D02*
X42092Y61422D01*
X41964Y61382D01*
X41848Y61314D01*
X41750Y61223D01*
X41674Y61113D01*
X41623Y60988D01*
X41602Y60856D01*
X41609Y60722D01*
X41646Y60593D01*
X41710Y60475D01*
X41798Y60374D01*
X41907Y60295D01*
X42030Y60241D01*
X42161Y60215D01*
X42295Y60219D01*
X42425Y60252D01*
X42545Y60313D01*
X42649Y60398D01*
X42731Y60504D01*
X42788Y60626D01*
X42818Y60757D01*
X42821Y60824D01*
X42821Y60832D01*
X42821Y60850D01*
X42820Y60867D01*
X42818Y60885D01*
X42817Y60893D01*
X42821Y60893D01*
X42817Y60893D01*
X42806Y60959D01*
X42762Y61086D01*
X42691Y61200D01*
X42597Y61296D01*
X42485Y61369D01*
X42359Y61416D01*
X42226Y61434D01*
D02*
G37*
G36*
X29257D02*
X29124Y61422D01*
X28996Y61382D01*
X28880Y61314D01*
X28781Y61223D01*
X28705Y61113D01*
X28655Y60988D01*
X28633Y60856D01*
X28641Y60722D01*
X28678Y60593D01*
X28742Y60475D01*
X28830Y60374D01*
X28938Y60295D01*
X29061Y60241D01*
X29193Y60215D01*
X29327Y60219D01*
X29457Y60252D01*
X29577Y60313D01*
X29680Y60398D01*
X29763Y60504D01*
X29820Y60626D01*
X29849Y60757D01*
X29853Y60824D01*
X29853Y60832D01*
X29852Y60850D01*
X29851Y60867D01*
X29850Y60885D01*
X29849Y60893D01*
X29853Y60893D01*
X29849Y60893D01*
X29837Y60959D01*
X29793Y61086D01*
X29723Y61200D01*
X29629Y61296D01*
X29516Y61369D01*
X29390Y61416D01*
X29257Y61434D01*
D02*
G37*
G36*
X16289D02*
X16155Y61422D01*
X16027Y61382D01*
X15911Y61314D01*
X15813Y61223D01*
X15737Y61113D01*
X15686Y60988D01*
X15665Y60856D01*
X15672Y60722D01*
X15709Y60593D01*
X15773Y60475D01*
X15861Y60374D01*
X15970Y60295D01*
X16093Y60241D01*
X16224Y60215D01*
X16358Y60219D01*
X16488Y60252D01*
X16608Y60313D01*
X16712Y60398D01*
X16794Y60504D01*
X16851Y60626D01*
X16881Y60757D01*
X16884Y60824D01*
X16884Y60832D01*
X16884Y60850D01*
X16883Y60867D01*
X16881Y60885D01*
X16880Y60893D01*
X16884Y60893D01*
X16880Y60893D01*
X16869Y60959D01*
X16825Y61086D01*
X16754Y61200D01*
X16660Y61296D01*
X16548Y61369D01*
X16422Y61416D01*
X16289Y61434D01*
D02*
G37*
G36*
X49594Y54534D02*
X49461Y54522D01*
X49333Y54482D01*
X49217Y54414D01*
X49118Y54323D01*
X49042Y54213D01*
X48992Y54088D01*
X48970Y53956D01*
X48978Y53822D01*
X49015Y53693D01*
X49079Y53575D01*
X49167Y53474D01*
X49275Y53395D01*
X49398Y53341D01*
X49530Y53315D01*
X49664Y53319D01*
X49794Y53352D01*
X49914Y53413D01*
X50017Y53498D01*
X50100Y53604D01*
X50157Y53726D01*
X50186Y53857D01*
X50190Y53924D01*
X50190Y53932D01*
X50189Y53950D01*
X50188Y53967D01*
X50187Y53985D01*
X50186Y53993D01*
X50190Y53993D01*
X50186Y53993D01*
X50174Y54059D01*
X50130Y54186D01*
X50060Y54300D01*
X49966Y54396D01*
X49853Y54469D01*
X49727Y54516D01*
X49594Y54534D01*
D02*
G37*
G36*
X36626D02*
X36492Y54522D01*
X36364Y54482D01*
X36248Y54414D01*
X36150Y54323D01*
X36074Y54213D01*
X36023Y54088D01*
X36002Y53956D01*
X36009Y53822D01*
X36046Y53693D01*
X36110Y53575D01*
X36198Y53474D01*
X36307Y53395D01*
X36430Y53341D01*
X36561Y53315D01*
X36695Y53319D01*
X36825Y53352D01*
X36945Y53413D01*
X37049Y53498D01*
X37131Y53604D01*
X37188Y53726D01*
X37218Y53857D01*
X37221Y53924D01*
X37221Y53932D01*
X37221Y53950D01*
X37220Y53967D01*
X37218Y53985D01*
X37217Y53993D01*
X37221Y53993D01*
X37217Y53993D01*
X37206Y54059D01*
X37162Y54186D01*
X37091Y54300D01*
X36997Y54396D01*
X36885Y54469D01*
X36759Y54516D01*
X36626Y54534D01*
D02*
G37*
G36*
X23657D02*
X23524Y54522D01*
X23396Y54482D01*
X23280Y54414D01*
X23181Y54323D01*
X23105Y54213D01*
X23055Y54088D01*
X23033Y53956D01*
X23041Y53822D01*
X23078Y53693D01*
X23142Y53575D01*
X23230Y53474D01*
X23338Y53395D01*
X23461Y53341D01*
X23593Y53315D01*
X23727Y53319D01*
X23857Y53352D01*
X23977Y53413D01*
X24080Y53498D01*
X24163Y53604D01*
X24220Y53726D01*
X24249Y53857D01*
X24253Y53924D01*
X24253Y53932D01*
X24252Y53950D01*
X24251Y53967D01*
X24250Y53985D01*
X24249Y53993D01*
X24253Y53993D01*
X24249Y53993D01*
X24237Y54059D01*
X24193Y54186D01*
X24123Y54300D01*
X24029Y54396D01*
X23916Y54469D01*
X23790Y54516D01*
X23657Y54534D01*
D02*
G37*
G36*
X10689D02*
X10555Y54522D01*
X10427Y54482D01*
X10311Y54414D01*
X10213Y54323D01*
X10137Y54213D01*
X10086Y54088D01*
X10065Y53956D01*
X10072Y53822D01*
X10109Y53693D01*
X10173Y53575D01*
X10261Y53474D01*
X10370Y53395D01*
X10493Y53341D01*
X10624Y53315D01*
X10758Y53319D01*
X10888Y53352D01*
X11008Y53413D01*
X11112Y53498D01*
X11194Y53604D01*
X11251Y53726D01*
X11281Y53857D01*
X11284Y53924D01*
X11284Y53932D01*
X11284Y53950D01*
X11283Y53967D01*
X11281Y53985D01*
X11280Y53993D01*
X11284Y53993D01*
X11280Y53993D01*
X11269Y54059D01*
X11225Y54186D01*
X11154Y54300D01*
X11060Y54396D01*
X10948Y54469D01*
X10822Y54516D01*
X10689Y54534D01*
D02*
G37*
G36*
X55194Y50446D02*
X55061Y50435D01*
X54933Y50394D01*
X54817Y50327D01*
X54718Y50236D01*
X54642Y50125D01*
X54592Y50001D01*
X54570Y49869D01*
X54578Y49735D01*
X54615Y49606D01*
X54679Y49488D01*
X54767Y49387D01*
X54875Y49307D01*
X54998Y49254D01*
X55130Y49228D01*
X55264Y49232D01*
X55394Y49265D01*
X55514Y49326D01*
X55617Y49411D01*
X55700Y49517D01*
X55757Y49638D01*
X55786Y49769D01*
X55790Y49836D01*
X55790Y49845D01*
X55789Y49862D01*
X55788Y49880D01*
X55787Y49897D01*
X55786Y49906D01*
X55790Y49905D01*
X55786Y49906D01*
X55774Y49972D01*
X55730Y50099D01*
X55660Y50213D01*
X55566Y50309D01*
X55453Y50382D01*
X55327Y50428D01*
X55194Y50446D01*
D02*
G37*
G36*
X42226D02*
X42092Y50435D01*
X41964Y50394D01*
X41848Y50327D01*
X41750Y50236D01*
X41674Y50125D01*
X41623Y50001D01*
X41602Y49869D01*
X41609Y49735D01*
X41646Y49606D01*
X41710Y49488D01*
X41798Y49387D01*
X41907Y49307D01*
X42030Y49254D01*
X42161Y49228D01*
X42295Y49232D01*
X42425Y49265D01*
X42545Y49326D01*
X42649Y49411D01*
X42731Y49517D01*
X42788Y49638D01*
X42818Y49769D01*
X42821Y49836D01*
X42821Y49845D01*
X42821Y49862D01*
X42820Y49880D01*
X42818Y49897D01*
X42817Y49906D01*
X42821Y49905D01*
X42817Y49906D01*
X42806Y49972D01*
X42762Y50099D01*
X42691Y50213D01*
X42597Y50309D01*
X42485Y50382D01*
X42359Y50428D01*
X42226Y50446D01*
D02*
G37*
G36*
X29257D02*
X29124Y50435D01*
X28996Y50394D01*
X28880Y50327D01*
X28781Y50236D01*
X28705Y50125D01*
X28655Y50001D01*
X28633Y49869D01*
X28641Y49735D01*
X28678Y49606D01*
X28742Y49488D01*
X28830Y49387D01*
X28938Y49307D01*
X29061Y49254D01*
X29193Y49228D01*
X29327Y49232D01*
X29457Y49265D01*
X29577Y49326D01*
X29680Y49411D01*
X29763Y49517D01*
X29820Y49638D01*
X29849Y49769D01*
X29853Y49836D01*
X29853Y49845D01*
X29852Y49862D01*
X29851Y49880D01*
X29850Y49897D01*
X29849Y49906D01*
X29853Y49905D01*
X29849Y49906D01*
X29837Y49972D01*
X29793Y50099D01*
X29723Y50213D01*
X29629Y50309D01*
X29516Y50382D01*
X29390Y50428D01*
X29257Y50446D01*
D02*
G37*
G36*
X16289D02*
X16155Y50435D01*
X16027Y50394D01*
X15911Y50327D01*
X15813Y50236D01*
X15737Y50125D01*
X15686Y50001D01*
X15665Y49869D01*
X15672Y49735D01*
X15709Y49606D01*
X15773Y49488D01*
X15861Y49387D01*
X15970Y49307D01*
X16093Y49254D01*
X16224Y49228D01*
X16358Y49232D01*
X16488Y49265D01*
X16608Y49326D01*
X16712Y49411D01*
X16794Y49517D01*
X16851Y49638D01*
X16881Y49769D01*
X16884Y49836D01*
X16884Y49845D01*
X16884Y49862D01*
X16883Y49880D01*
X16881Y49897D01*
X16880Y49906D01*
X16884Y49905D01*
X16880Y49906D01*
X16869Y49972D01*
X16825Y50099D01*
X16754Y50213D01*
X16660Y50309D01*
X16548Y50382D01*
X16422Y50428D01*
X16289Y50446D01*
D02*
G37*
G36*
X49594Y43546D02*
X49461Y43535D01*
X49333Y43494D01*
X49217Y43427D01*
X49118Y43336D01*
X49042Y43225D01*
X48992Y43101D01*
X48970Y42969D01*
X48978Y42835D01*
X49015Y42706D01*
X49079Y42588D01*
X49167Y42487D01*
X49275Y42407D01*
X49398Y42354D01*
X49530Y42328D01*
X49664Y42332D01*
X49794Y42365D01*
X49914Y42426D01*
X50017Y42511D01*
X50100Y42617D01*
X50157Y42738D01*
X50186Y42869D01*
X50190Y42936D01*
X50190Y42945D01*
X50189Y42962D01*
X50188Y42980D01*
X50187Y42997D01*
X50186Y43006D01*
X50190Y43005D01*
X50186Y43006D01*
X50174Y43072D01*
X50130Y43199D01*
X50060Y43313D01*
X49966Y43409D01*
X49853Y43482D01*
X49727Y43528D01*
X49594Y43546D01*
D02*
G37*
G36*
X36626D02*
X36492Y43535D01*
X36364Y43494D01*
X36248Y43427D01*
X36150Y43336D01*
X36074Y43225D01*
X36023Y43101D01*
X36002Y42969D01*
X36009Y42835D01*
X36046Y42706D01*
X36110Y42588D01*
X36198Y42487D01*
X36307Y42407D01*
X36430Y42354D01*
X36561Y42328D01*
X36695Y42332D01*
X36825Y42365D01*
X36945Y42426D01*
X37049Y42511D01*
X37131Y42617D01*
X37188Y42738D01*
X37218Y42869D01*
X37221Y42936D01*
X37221Y42945D01*
X37221Y42962D01*
X37220Y42980D01*
X37218Y42997D01*
X37217Y43006D01*
X37221Y43005D01*
X37217Y43006D01*
X37206Y43072D01*
X37162Y43199D01*
X37091Y43313D01*
X36997Y43409D01*
X36885Y43482D01*
X36759Y43528D01*
X36626Y43546D01*
D02*
G37*
G36*
X23657D02*
X23524Y43535D01*
X23396Y43494D01*
X23280Y43427D01*
X23181Y43336D01*
X23105Y43225D01*
X23055Y43101D01*
X23033Y42969D01*
X23041Y42835D01*
X23078Y42706D01*
X23142Y42588D01*
X23230Y42487D01*
X23338Y42407D01*
X23461Y42354D01*
X23593Y42328D01*
X23727Y42332D01*
X23857Y42365D01*
X23977Y42426D01*
X24080Y42511D01*
X24163Y42617D01*
X24220Y42738D01*
X24249Y42869D01*
X24253Y42936D01*
X24253Y42945D01*
X24252Y42962D01*
X24251Y42980D01*
X24250Y42997D01*
X24249Y43006D01*
X24253Y43005D01*
X24249Y43006D01*
X24237Y43072D01*
X24193Y43199D01*
X24123Y43313D01*
X24029Y43409D01*
X23916Y43482D01*
X23790Y43528D01*
X23657Y43546D01*
D02*
G37*
G36*
X10689D02*
X10555Y43535D01*
X10427Y43494D01*
X10311Y43427D01*
X10213Y43336D01*
X10137Y43225D01*
X10086Y43101D01*
X10065Y42969D01*
X10072Y42835D01*
X10109Y42706D01*
X10173Y42588D01*
X10261Y42487D01*
X10370Y42407D01*
X10493Y42354D01*
X10624Y42328D01*
X10758Y42332D01*
X10888Y42365D01*
X11008Y42426D01*
X11112Y42511D01*
X11194Y42617D01*
X11251Y42738D01*
X11281Y42869D01*
X11284Y42936D01*
X11284Y42945D01*
X11284Y42962D01*
X11283Y42980D01*
X11281Y42997D01*
X11280Y43006D01*
X11284Y43005D01*
X11280Y43006D01*
X11269Y43072D01*
X11225Y43199D01*
X11154Y43313D01*
X11060Y43409D01*
X10948Y43482D01*
X10822Y43528D01*
X10689Y43546D01*
D02*
G37*
G36*
X55194Y39459D02*
X55061Y39447D01*
X54933Y39407D01*
X54817Y39340D01*
X54718Y39248D01*
X54642Y39138D01*
X54592Y39014D01*
X54570Y38881D01*
X54578Y38747D01*
X54615Y38618D01*
X54679Y38500D01*
X54767Y38399D01*
X54875Y38320D01*
X54998Y38266D01*
X55130Y38241D01*
X55264Y38244D01*
X55394Y38277D01*
X55514Y38338D01*
X55617Y38424D01*
X55700Y38529D01*
X55757Y38651D01*
X55786Y38782D01*
X55790Y38849D01*
X55790Y38858D01*
X55789Y38875D01*
X55788Y38892D01*
X55787Y38910D01*
X55786Y38918D01*
X55790Y38918D01*
X55786Y38918D01*
X55774Y38985D01*
X55730Y39111D01*
X55660Y39225D01*
X55566Y39321D01*
X55453Y39394D01*
X55327Y39441D01*
X55194Y39459D01*
D02*
G37*
G36*
X42226D02*
X42092Y39447D01*
X41964Y39407D01*
X41848Y39340D01*
X41750Y39248D01*
X41674Y39138D01*
X41623Y39014D01*
X41602Y38881D01*
X41609Y38747D01*
X41646Y38618D01*
X41710Y38500D01*
X41798Y38399D01*
X41907Y38320D01*
X42030Y38266D01*
X42161Y38241D01*
X42295Y38244D01*
X42425Y38277D01*
X42545Y38338D01*
X42649Y38424D01*
X42731Y38529D01*
X42788Y38651D01*
X42818Y38782D01*
X42821Y38849D01*
X42821Y38858D01*
X42821Y38875D01*
X42820Y38892D01*
X42818Y38910D01*
X42817Y38918D01*
X42821Y38918D01*
X42817Y38918D01*
X42806Y38985D01*
X42762Y39111D01*
X42691Y39225D01*
X42597Y39321D01*
X42485Y39394D01*
X42359Y39441D01*
X42226Y39459D01*
D02*
G37*
G36*
X29257D02*
X29124Y39447D01*
X28996Y39407D01*
X28880Y39340D01*
X28781Y39248D01*
X28705Y39138D01*
X28655Y39014D01*
X28633Y38881D01*
X28641Y38747D01*
X28678Y38618D01*
X28742Y38500D01*
X28830Y38399D01*
X28938Y38320D01*
X29061Y38266D01*
X29193Y38241D01*
X29327Y38244D01*
X29457Y38277D01*
X29577Y38338D01*
X29680Y38424D01*
X29763Y38529D01*
X29820Y38651D01*
X29849Y38782D01*
X29853Y38849D01*
X29853Y38858D01*
X29852Y38875D01*
X29851Y38892D01*
X29850Y38910D01*
X29849Y38918D01*
X29853Y38918D01*
X29849Y38918D01*
X29837Y38985D01*
X29793Y39111D01*
X29723Y39225D01*
X29629Y39321D01*
X29516Y39394D01*
X29390Y39441D01*
X29257Y39459D01*
D02*
G37*
G36*
X16289D02*
X16155Y39447D01*
X16027Y39407D01*
X15911Y39340D01*
X15813Y39248D01*
X15737Y39138D01*
X15686Y39014D01*
X15665Y38881D01*
X15672Y38747D01*
X15709Y38618D01*
X15773Y38500D01*
X15861Y38399D01*
X15970Y38320D01*
X16093Y38266D01*
X16224Y38241D01*
X16358Y38244D01*
X16488Y38277D01*
X16608Y38338D01*
X16712Y38424D01*
X16794Y38529D01*
X16851Y38651D01*
X16881Y38782D01*
X16884Y38849D01*
X16884Y38858D01*
X16884Y38875D01*
X16883Y38892D01*
X16881Y38910D01*
X16880Y38918D01*
X16884Y38918D01*
X16880Y38918D01*
X16869Y38985D01*
X16825Y39111D01*
X16754Y39225D01*
X16660Y39321D01*
X16548Y39394D01*
X16422Y39441D01*
X16289Y39459D01*
D02*
G37*
G36*
X49594Y32559D02*
X49461Y32547D01*
X49333Y32507D01*
X49217Y32440D01*
X49118Y32348D01*
X49042Y32238D01*
X48992Y32114D01*
X48970Y31981D01*
X48978Y31847D01*
X49015Y31718D01*
X49079Y31600D01*
X49167Y31499D01*
X49275Y31420D01*
X49398Y31366D01*
X49530Y31341D01*
X49664Y31344D01*
X49794Y31377D01*
X49914Y31438D01*
X50017Y31524D01*
X50100Y31629D01*
X50157Y31751D01*
X50186Y31882D01*
X50190Y31949D01*
X50190Y31958D01*
X50189Y31975D01*
X50188Y31992D01*
X50187Y32010D01*
X50186Y32018D01*
X50190Y32018D01*
X50186Y32018D01*
X50174Y32085D01*
X50130Y32211D01*
X50060Y32325D01*
X49966Y32421D01*
X49853Y32494D01*
X49727Y32541D01*
X49594Y32559D01*
D02*
G37*
G36*
X36626D02*
X36492Y32547D01*
X36364Y32507D01*
X36248Y32440D01*
X36150Y32348D01*
X36074Y32238D01*
X36023Y32114D01*
X36002Y31981D01*
X36009Y31847D01*
X36046Y31718D01*
X36110Y31600D01*
X36198Y31499D01*
X36307Y31420D01*
X36430Y31366D01*
X36561Y31341D01*
X36695Y31344D01*
X36825Y31377D01*
X36945Y31438D01*
X37049Y31524D01*
X37131Y31629D01*
X37188Y31751D01*
X37218Y31882D01*
X37221Y31949D01*
X37221Y31958D01*
X37221Y31975D01*
X37220Y31992D01*
X37218Y32010D01*
X37217Y32018D01*
X37221Y32018D01*
X37217Y32018D01*
X37206Y32085D01*
X37162Y32211D01*
X37091Y32325D01*
X36997Y32421D01*
X36885Y32494D01*
X36759Y32541D01*
X36626Y32559D01*
D02*
G37*
G36*
X23657D02*
X23524Y32547D01*
X23396Y32507D01*
X23280Y32440D01*
X23181Y32348D01*
X23105Y32238D01*
X23055Y32114D01*
X23033Y31981D01*
X23041Y31847D01*
X23078Y31718D01*
X23142Y31600D01*
X23230Y31499D01*
X23338Y31420D01*
X23461Y31366D01*
X23593Y31341D01*
X23727Y31344D01*
X23857Y31377D01*
X23977Y31438D01*
X24080Y31524D01*
X24163Y31629D01*
X24220Y31751D01*
X24249Y31882D01*
X24253Y31949D01*
X24253Y31958D01*
X24252Y31975D01*
X24251Y31992D01*
X24250Y32010D01*
X24249Y32018D01*
X24253Y32018D01*
X24249Y32018D01*
X24237Y32085D01*
X24193Y32211D01*
X24123Y32325D01*
X24029Y32421D01*
X23916Y32494D01*
X23790Y32541D01*
X23657Y32559D01*
D02*
G37*
G36*
X10689D02*
X10555Y32547D01*
X10427Y32507D01*
X10311Y32440D01*
X10213Y32348D01*
X10137Y32238D01*
X10086Y32114D01*
X10065Y31981D01*
X10072Y31847D01*
X10109Y31718D01*
X10173Y31600D01*
X10261Y31499D01*
X10370Y31420D01*
X10493Y31366D01*
X10624Y31341D01*
X10758Y31344D01*
X10888Y31377D01*
X11008Y31438D01*
X11112Y31524D01*
X11194Y31629D01*
X11251Y31751D01*
X11281Y31882D01*
X11284Y31949D01*
X11284Y31958D01*
X11284Y31975D01*
X11283Y31992D01*
X11281Y32010D01*
X11280Y32018D01*
X11284Y32018D01*
X11280Y32018D01*
X11269Y32085D01*
X11225Y32211D01*
X11154Y32325D01*
X11060Y32421D01*
X10948Y32494D01*
X10822Y32541D01*
X10689Y32559D01*
D02*
G37*
G36*
X55194Y28471D02*
X55061Y28460D01*
X54933Y28420D01*
X54817Y28352D01*
X54718Y28261D01*
X54642Y28151D01*
X54592Y28026D01*
X54570Y27894D01*
X54578Y27760D01*
X54615Y27631D01*
X54679Y27513D01*
X54767Y27412D01*
X54875Y27333D01*
X54998Y27279D01*
X55130Y27253D01*
X55264Y27257D01*
X55394Y27290D01*
X55514Y27351D01*
X55617Y27436D01*
X55700Y27542D01*
X55757Y27663D01*
X55786Y27794D01*
X55790Y27861D01*
X55790Y27870D01*
X55789Y27888D01*
X55788Y27905D01*
X55787Y27922D01*
X55786Y27931D01*
X55790Y27930D01*
X55786Y27931D01*
X55774Y27997D01*
X55730Y28124D01*
X55660Y28238D01*
X55566Y28334D01*
X55453Y28407D01*
X55327Y28453D01*
X55194Y28471D01*
D02*
G37*
G36*
X42226D02*
X42092Y28460D01*
X41964Y28420D01*
X41848Y28352D01*
X41750Y28261D01*
X41674Y28151D01*
X41623Y28026D01*
X41602Y27894D01*
X41609Y27760D01*
X41646Y27631D01*
X41710Y27513D01*
X41798Y27412D01*
X41907Y27333D01*
X42030Y27279D01*
X42161Y27253D01*
X42295Y27257D01*
X42425Y27290D01*
X42545Y27351D01*
X42649Y27436D01*
X42731Y27542D01*
X42788Y27663D01*
X42818Y27794D01*
X42821Y27861D01*
X42821Y27870D01*
X42821Y27888D01*
X42820Y27905D01*
X42818Y27922D01*
X42817Y27931D01*
X42821Y27930D01*
X42817Y27931D01*
X42806Y27997D01*
X42762Y28124D01*
X42691Y28238D01*
X42597Y28334D01*
X42485Y28407D01*
X42359Y28453D01*
X42226Y28471D01*
D02*
G37*
G36*
X29257D02*
X29124Y28460D01*
X28996Y28420D01*
X28880Y28352D01*
X28781Y28261D01*
X28705Y28151D01*
X28655Y28026D01*
X28633Y27894D01*
X28641Y27760D01*
X28678Y27631D01*
X28742Y27513D01*
X28830Y27412D01*
X28938Y27333D01*
X29061Y27279D01*
X29193Y27253D01*
X29327Y27257D01*
X29457Y27290D01*
X29577Y27351D01*
X29680Y27436D01*
X29763Y27542D01*
X29820Y27663D01*
X29849Y27794D01*
X29853Y27861D01*
X29853Y27870D01*
X29852Y27888D01*
X29851Y27905D01*
X29850Y27922D01*
X29849Y27931D01*
X29853Y27930D01*
X29849Y27931D01*
X29837Y27997D01*
X29793Y28124D01*
X29723Y28238D01*
X29629Y28334D01*
X29516Y28407D01*
X29390Y28453D01*
X29257Y28471D01*
D02*
G37*
G36*
X16289D02*
X16155Y28460D01*
X16027Y28420D01*
X15911Y28352D01*
X15813Y28261D01*
X15737Y28151D01*
X15686Y28026D01*
X15665Y27894D01*
X15672Y27760D01*
X15709Y27631D01*
X15773Y27513D01*
X15861Y27412D01*
X15970Y27333D01*
X16093Y27279D01*
X16224Y27253D01*
X16358Y27257D01*
X16488Y27290D01*
X16608Y27351D01*
X16712Y27436D01*
X16794Y27542D01*
X16851Y27663D01*
X16881Y27794D01*
X16884Y27861D01*
X16884Y27870D01*
X16884Y27888D01*
X16883Y27905D01*
X16881Y27922D01*
X16880Y27931D01*
X16884Y27930D01*
X16880Y27931D01*
X16869Y27997D01*
X16825Y28124D01*
X16754Y28238D01*
X16660Y28334D01*
X16548Y28407D01*
X16422Y28453D01*
X16289Y28471D01*
D02*
G37*
G36*
X49594Y21571D02*
X49461Y21560D01*
X49333Y21520D01*
X49217Y21452D01*
X49118Y21361D01*
X49042Y21251D01*
X48992Y21126D01*
X48970Y20994D01*
X48978Y20860D01*
X49015Y20731D01*
X49079Y20613D01*
X49167Y20512D01*
X49275Y20433D01*
X49398Y20379D01*
X49530Y20353D01*
X49664Y20357D01*
X49794Y20390D01*
X49914Y20451D01*
X50017Y20536D01*
X50100Y20642D01*
X50157Y20763D01*
X50186Y20894D01*
X50190Y20961D01*
X50190Y20970D01*
X50189Y20988D01*
X50188Y21005D01*
X50187Y21022D01*
X50186Y21031D01*
X50190Y21030D01*
X50186Y21031D01*
X50174Y21097D01*
X50130Y21224D01*
X50060Y21338D01*
X49966Y21434D01*
X49853Y21507D01*
X49727Y21553D01*
X49594Y21571D01*
D02*
G37*
G36*
X36626D02*
X36492Y21560D01*
X36364Y21520D01*
X36248Y21452D01*
X36150Y21361D01*
X36074Y21251D01*
X36023Y21126D01*
X36002Y20994D01*
X36009Y20860D01*
X36046Y20731D01*
X36110Y20613D01*
X36198Y20512D01*
X36307Y20433D01*
X36430Y20379D01*
X36561Y20353D01*
X36695Y20357D01*
X36825Y20390D01*
X36945Y20451D01*
X37049Y20536D01*
X37131Y20642D01*
X37188Y20763D01*
X37218Y20894D01*
X37221Y20961D01*
X37221Y20970D01*
X37221Y20988D01*
X37220Y21005D01*
X37218Y21022D01*
X37217Y21031D01*
X37221Y21030D01*
X37217Y21031D01*
X37206Y21097D01*
X37162Y21224D01*
X37091Y21338D01*
X36997Y21434D01*
X36885Y21507D01*
X36759Y21553D01*
X36626Y21571D01*
D02*
G37*
G36*
X23657D02*
X23524Y21560D01*
X23396Y21520D01*
X23280Y21452D01*
X23181Y21361D01*
X23105Y21251D01*
X23055Y21126D01*
X23033Y20994D01*
X23041Y20860D01*
X23078Y20731D01*
X23142Y20613D01*
X23230Y20512D01*
X23338Y20433D01*
X23461Y20379D01*
X23593Y20353D01*
X23727Y20357D01*
X23857Y20390D01*
X23977Y20451D01*
X24080Y20536D01*
X24163Y20642D01*
X24220Y20763D01*
X24249Y20894D01*
X24253Y20961D01*
X24253Y20970D01*
X24252Y20988D01*
X24251Y21005D01*
X24250Y21022D01*
X24249Y21031D01*
X24253Y21030D01*
X24249Y21031D01*
X24237Y21097D01*
X24193Y21224D01*
X24123Y21338D01*
X24029Y21434D01*
X23916Y21507D01*
X23790Y21553D01*
X23657Y21571D01*
D02*
G37*
G36*
X10689D02*
X10555Y21560D01*
X10427Y21520D01*
X10311Y21452D01*
X10213Y21361D01*
X10137Y21251D01*
X10086Y21126D01*
X10065Y20994D01*
X10072Y20860D01*
X10109Y20731D01*
X10173Y20613D01*
X10261Y20512D01*
X10370Y20433D01*
X10493Y20379D01*
X10624Y20353D01*
X10758Y20357D01*
X10888Y20390D01*
X11008Y20451D01*
X11112Y20536D01*
X11194Y20642D01*
X11251Y20763D01*
X11281Y20894D01*
X11284Y20961D01*
X11284Y20970D01*
X11284Y20988D01*
X11283Y21005D01*
X11281Y21022D01*
X11280Y21031D01*
X11284Y21030D01*
X11280Y21031D01*
X11269Y21097D01*
X11225Y21224D01*
X11154Y21338D01*
X11060Y21434D01*
X10948Y21507D01*
X10822Y21553D01*
X10689Y21571D01*
D02*
G37*
G36*
X55194Y17484D02*
X55061Y17473D01*
X54933Y17432D01*
X54817Y17365D01*
X54718Y17274D01*
X54642Y17163D01*
X54592Y17039D01*
X54570Y16906D01*
X54578Y16772D01*
X54615Y16643D01*
X54679Y16525D01*
X54767Y16424D01*
X54875Y16345D01*
X54998Y16291D01*
X55130Y16266D01*
X55264Y16270D01*
X55394Y16303D01*
X55514Y16363D01*
X55617Y16449D01*
X55700Y16555D01*
X55757Y16676D01*
X55786Y16807D01*
X55790Y16874D01*
X55790Y16883D01*
X55789Y16900D01*
X55788Y16918D01*
X55787Y16935D01*
X55786Y16944D01*
X55790Y16943D01*
X55786Y16944D01*
X55774Y17010D01*
X55730Y17137D01*
X55660Y17251D01*
X55566Y17346D01*
X55453Y17419D01*
X55327Y17466D01*
X55194Y17484D01*
D02*
G37*
G36*
X42226D02*
X42092Y17473D01*
X41964Y17432D01*
X41848Y17365D01*
X41750Y17274D01*
X41674Y17163D01*
X41623Y17039D01*
X41602Y16906D01*
X41609Y16772D01*
X41646Y16643D01*
X41710Y16525D01*
X41798Y16424D01*
X41907Y16345D01*
X42030Y16291D01*
X42161Y16266D01*
X42295Y16270D01*
X42425Y16303D01*
X42545Y16363D01*
X42649Y16449D01*
X42731Y16555D01*
X42788Y16676D01*
X42818Y16807D01*
X42821Y16874D01*
X42821Y16883D01*
X42821Y16900D01*
X42820Y16918D01*
X42818Y16935D01*
X42817Y16944D01*
X42821Y16943D01*
X42817Y16944D01*
X42806Y17010D01*
X42762Y17137D01*
X42691Y17251D01*
X42597Y17346D01*
X42485Y17419D01*
X42359Y17466D01*
X42226Y17484D01*
D02*
G37*
G36*
X29257D02*
X29124Y17473D01*
X28996Y17432D01*
X28880Y17365D01*
X28781Y17274D01*
X28705Y17163D01*
X28655Y17039D01*
X28633Y16906D01*
X28641Y16772D01*
X28678Y16643D01*
X28742Y16525D01*
X28830Y16424D01*
X28938Y16345D01*
X29061Y16291D01*
X29193Y16266D01*
X29327Y16270D01*
X29457Y16303D01*
X29577Y16363D01*
X29680Y16449D01*
X29763Y16555D01*
X29820Y16676D01*
X29849Y16807D01*
X29853Y16874D01*
X29853Y16883D01*
X29852Y16900D01*
X29851Y16918D01*
X29850Y16935D01*
X29849Y16944D01*
X29853Y16943D01*
X29849Y16944D01*
X29837Y17010D01*
X29793Y17137D01*
X29723Y17251D01*
X29629Y17346D01*
X29516Y17419D01*
X29390Y17466D01*
X29257Y17484D01*
D02*
G37*
G36*
X16289D02*
X16155Y17473D01*
X16027Y17432D01*
X15911Y17365D01*
X15813Y17274D01*
X15737Y17163D01*
X15686Y17039D01*
X15665Y16906D01*
X15672Y16772D01*
X15709Y16643D01*
X15773Y16525D01*
X15861Y16424D01*
X15970Y16345D01*
X16093Y16291D01*
X16224Y16266D01*
X16358Y16270D01*
X16488Y16303D01*
X16608Y16363D01*
X16712Y16449D01*
X16794Y16555D01*
X16851Y16676D01*
X16881Y16807D01*
X16884Y16874D01*
X16884Y16883D01*
X16884Y16900D01*
X16883Y16918D01*
X16881Y16935D01*
X16880Y16944D01*
X16884Y16943D01*
X16880Y16944D01*
X16869Y17010D01*
X16825Y17137D01*
X16754Y17251D01*
X16660Y17346D01*
X16548Y17419D01*
X16422Y17466D01*
X16289Y17484D01*
D02*
G37*
G36*
X49594Y10584D02*
X49461Y10573D01*
X49333Y10532D01*
X49217Y10465D01*
X49118Y10374D01*
X49042Y10263D01*
X48992Y10139D01*
X48970Y10006D01*
X48978Y9872D01*
X49015Y9743D01*
X49079Y9625D01*
X49167Y9524D01*
X49275Y9445D01*
X49398Y9391D01*
X49530Y9366D01*
X49664Y9370D01*
X49794Y9403D01*
X49914Y9463D01*
X50017Y9549D01*
X50100Y9655D01*
X50157Y9776D01*
X50186Y9907D01*
X50190Y9974D01*
X50190Y9983D01*
X50189Y10000D01*
X50188Y10018D01*
X50187Y10035D01*
X50186Y10044D01*
X50190Y10043D01*
X50186Y10044D01*
X50174Y10110D01*
X50130Y10237D01*
X50060Y10351D01*
X49966Y10446D01*
X49853Y10519D01*
X49727Y10566D01*
X49594Y10584D01*
D02*
G37*
G36*
X36626D02*
X36492Y10573D01*
X36364Y10532D01*
X36248Y10465D01*
X36150Y10374D01*
X36074Y10263D01*
X36023Y10139D01*
X36002Y10006D01*
X36009Y9872D01*
X36046Y9743D01*
X36110Y9625D01*
X36198Y9524D01*
X36307Y9445D01*
X36430Y9391D01*
X36561Y9366D01*
X36695Y9370D01*
X36825Y9403D01*
X36945Y9463D01*
X37049Y9549D01*
X37131Y9655D01*
X37188Y9776D01*
X37218Y9907D01*
X37221Y9974D01*
X37221Y9983D01*
X37221Y10000D01*
X37220Y10018D01*
X37218Y10035D01*
X37217Y10044D01*
X37221Y10043D01*
X37217Y10044D01*
X37206Y10110D01*
X37162Y10237D01*
X37091Y10351D01*
X36997Y10446D01*
X36885Y10519D01*
X36759Y10566D01*
X36626Y10584D01*
D02*
G37*
G36*
X23657D02*
X23524Y10573D01*
X23396Y10532D01*
X23280Y10465D01*
X23181Y10374D01*
X23105Y10263D01*
X23055Y10139D01*
X23033Y10006D01*
X23041Y9872D01*
X23078Y9743D01*
X23142Y9625D01*
X23230Y9524D01*
X23338Y9445D01*
X23461Y9391D01*
X23593Y9366D01*
X23727Y9370D01*
X23857Y9403D01*
X23977Y9463D01*
X24080Y9549D01*
X24163Y9655D01*
X24220Y9776D01*
X24249Y9907D01*
X24253Y9974D01*
X24253Y9983D01*
X24252Y10000D01*
X24251Y10018D01*
X24250Y10035D01*
X24249Y10044D01*
X24253Y10043D01*
X24249Y10044D01*
X24237Y10110D01*
X24193Y10237D01*
X24123Y10351D01*
X24029Y10446D01*
X23916Y10519D01*
X23790Y10566D01*
X23657Y10584D01*
D02*
G37*
G36*
X10689D02*
X10555Y10573D01*
X10427Y10532D01*
X10311Y10465D01*
X10213Y10374D01*
X10137Y10263D01*
X10086Y10139D01*
X10065Y10006D01*
X10072Y9872D01*
X10109Y9743D01*
X10173Y9625D01*
X10261Y9524D01*
X10370Y9445D01*
X10493Y9391D01*
X10624Y9366D01*
X10758Y9370D01*
X10888Y9403D01*
X11008Y9463D01*
X11112Y9549D01*
X11194Y9655D01*
X11251Y9776D01*
X11281Y9907D01*
X11284Y9974D01*
X11284Y9983D01*
X11284Y10000D01*
X11283Y10018D01*
X11281Y10035D01*
X11280Y10044D01*
X11284Y10043D01*
X11280Y10044D01*
X11269Y10110D01*
X11225Y10237D01*
X11154Y10351D01*
X11060Y10446D01*
X10948Y10519D01*
X10822Y10566D01*
X10689Y10584D01*
D02*
G37*
%LPD*%
D10*
X60929Y8661D02*
D03*
X4724Y72224D02*
D03*
X60929D02*
D03*
D11*
X4724Y8661D02*
D03*
D12*
X15456Y12313D02*
D03*
X15712D02*
D03*
X15968D02*
D03*
X16224D02*
D03*
X16480D02*
D03*
X16736D02*
D03*
X16992D02*
D03*
X15456Y14635D02*
D03*
X15712D02*
D03*
X15968D02*
D03*
X16224D02*
D03*
X16480D02*
D03*
X16736D02*
D03*
X16992D02*
D03*
X28425Y12313D02*
D03*
X28681D02*
D03*
X28937D02*
D03*
X29193D02*
D03*
X29448D02*
D03*
X29704D02*
D03*
X29960D02*
D03*
X28425Y14635D02*
D03*
X28681D02*
D03*
X28937D02*
D03*
X29193D02*
D03*
X29448D02*
D03*
X29704D02*
D03*
X29960D02*
D03*
X41393Y12313D02*
D03*
X41649D02*
D03*
X41905D02*
D03*
X42161D02*
D03*
X42417D02*
D03*
X42673D02*
D03*
X42929D02*
D03*
X41393Y14635D02*
D03*
X41649D02*
D03*
X41905D02*
D03*
X42161D02*
D03*
X42417D02*
D03*
X42673D02*
D03*
X42929D02*
D03*
X54362Y12313D02*
D03*
X54618D02*
D03*
X54874D02*
D03*
X55130D02*
D03*
X55385D02*
D03*
X55641D02*
D03*
X55897D02*
D03*
X54362Y14635D02*
D03*
X54618D02*
D03*
X54874D02*
D03*
X55130D02*
D03*
X55385D02*
D03*
X55641D02*
D03*
X55897D02*
D03*
X15456Y23300D02*
D03*
X15712D02*
D03*
X15968D02*
D03*
X16224D02*
D03*
X16480D02*
D03*
X16736D02*
D03*
X16992D02*
D03*
X15456Y25623D02*
D03*
X15712D02*
D03*
X15968D02*
D03*
X16224D02*
D03*
X16480D02*
D03*
X16736D02*
D03*
X16992D02*
D03*
X28425Y23300D02*
D03*
X28681D02*
D03*
X28937D02*
D03*
X29193D02*
D03*
X29448D02*
D03*
X29704D02*
D03*
X29960D02*
D03*
X28425Y25623D02*
D03*
X28681D02*
D03*
X28937D02*
D03*
X29193D02*
D03*
X29448D02*
D03*
X29704D02*
D03*
X29960D02*
D03*
X41393Y23300D02*
D03*
X41649D02*
D03*
X41905D02*
D03*
X42161D02*
D03*
X42417D02*
D03*
X42673D02*
D03*
X42929D02*
D03*
X41393Y25623D02*
D03*
X41649D02*
D03*
X41905D02*
D03*
X42161D02*
D03*
X42417D02*
D03*
X42673D02*
D03*
X42929D02*
D03*
X54362Y23300D02*
D03*
X54618D02*
D03*
X54874D02*
D03*
X55130D02*
D03*
X55385D02*
D03*
X55641D02*
D03*
X55897D02*
D03*
X54362Y25623D02*
D03*
X54618D02*
D03*
X54874D02*
D03*
X55130D02*
D03*
X55385D02*
D03*
X55641D02*
D03*
X55897D02*
D03*
X15456Y34287D02*
D03*
X15712D02*
D03*
X15968D02*
D03*
X16224D02*
D03*
X16480D02*
D03*
X16736D02*
D03*
X16992D02*
D03*
X15456Y36610D02*
D03*
X15712D02*
D03*
X15968D02*
D03*
X16224D02*
D03*
X16480D02*
D03*
X16736D02*
D03*
X16992D02*
D03*
X28425Y34287D02*
D03*
X28681D02*
D03*
X28937D02*
D03*
X29193D02*
D03*
X29448D02*
D03*
X29704D02*
D03*
X29960D02*
D03*
X28425Y36610D02*
D03*
X28681D02*
D03*
X28937D02*
D03*
X29193D02*
D03*
X29448D02*
D03*
X29704D02*
D03*
X29960D02*
D03*
X41393Y34287D02*
D03*
X41649D02*
D03*
X41905D02*
D03*
X42161D02*
D03*
X42417D02*
D03*
X42673D02*
D03*
X42929D02*
D03*
X41393Y36610D02*
D03*
X41649D02*
D03*
X41905D02*
D03*
X42161D02*
D03*
X42417D02*
D03*
X42673D02*
D03*
X42929D02*
D03*
X54362Y34287D02*
D03*
X54618D02*
D03*
X54874D02*
D03*
X55130D02*
D03*
X55385D02*
D03*
X55641D02*
D03*
X55897D02*
D03*
X54362Y36610D02*
D03*
X54618D02*
D03*
X54874D02*
D03*
X55130D02*
D03*
X55385D02*
D03*
X55641D02*
D03*
X55897D02*
D03*
X15456Y45275D02*
D03*
X15712D02*
D03*
X15968D02*
D03*
X16224D02*
D03*
X16480D02*
D03*
X16736D02*
D03*
X16992D02*
D03*
X15456Y47598D02*
D03*
X15712D02*
D03*
X15968D02*
D03*
X16224D02*
D03*
X16480D02*
D03*
X16736D02*
D03*
X16992D02*
D03*
X28425Y45275D02*
D03*
X28681D02*
D03*
X28937D02*
D03*
X29193D02*
D03*
X29448D02*
D03*
X29704D02*
D03*
X29960D02*
D03*
X28425Y47598D02*
D03*
X28681D02*
D03*
X28937D02*
D03*
X29193D02*
D03*
X29448D02*
D03*
X29704D02*
D03*
X29960D02*
D03*
X41393Y45275D02*
D03*
X41649D02*
D03*
X41905D02*
D03*
X42161D02*
D03*
X42417D02*
D03*
X42673D02*
D03*
X42929D02*
D03*
X41393Y47598D02*
D03*
X41649D02*
D03*
X41905D02*
D03*
X42161D02*
D03*
X42417D02*
D03*
X42673D02*
D03*
X42929D02*
D03*
X54362Y45275D02*
D03*
X54618D02*
D03*
X54874D02*
D03*
X55130D02*
D03*
X55385D02*
D03*
X55641D02*
D03*
X55897D02*
D03*
X54362Y47598D02*
D03*
X54618D02*
D03*
X54874D02*
D03*
X55130D02*
D03*
X55385D02*
D03*
X55641D02*
D03*
X55897D02*
D03*
X15456Y56262D02*
D03*
X15712D02*
D03*
X15968D02*
D03*
X16224D02*
D03*
X16480D02*
D03*
X16736D02*
D03*
X16992D02*
D03*
X15456Y58585D02*
D03*
X15712D02*
D03*
X15968D02*
D03*
X16224D02*
D03*
X16480D02*
D03*
X16736D02*
D03*
X16992D02*
D03*
X28425Y56262D02*
D03*
X28681D02*
D03*
X28937D02*
D03*
X29193D02*
D03*
X29448D02*
D03*
X29704D02*
D03*
X29960D02*
D03*
X28425Y58585D02*
D03*
X28681D02*
D03*
X28937D02*
D03*
X29193D02*
D03*
X29448D02*
D03*
X29704D02*
D03*
X29960D02*
D03*
X41393Y56262D02*
D03*
X41649D02*
D03*
X41905D02*
D03*
X42161D02*
D03*
X42417D02*
D03*
X42673D02*
D03*
X42929D02*
D03*
X41393Y58585D02*
D03*
X41649D02*
D03*
X41905D02*
D03*
X42161D02*
D03*
X42417D02*
D03*
X42673D02*
D03*
X42929D02*
D03*
X54362Y56262D02*
D03*
X54618D02*
D03*
X54874D02*
D03*
X55130D02*
D03*
X55385D02*
D03*
X55641D02*
D03*
X55897D02*
D03*
X54362Y58585D02*
D03*
X54618D02*
D03*
X54874D02*
D03*
X55130D02*
D03*
X55385D02*
D03*
X55641D02*
D03*
X55897D02*
D03*
X15456Y67250D02*
D03*
X15712D02*
D03*
X15968D02*
D03*
X16224D02*
D03*
X16480D02*
D03*
X16736D02*
D03*
X16992D02*
D03*
X15456Y69572D02*
D03*
X15712D02*
D03*
X15968D02*
D03*
X16224D02*
D03*
X16480D02*
D03*
X16736D02*
D03*
X16992D02*
D03*
X28425Y67250D02*
D03*
X28681D02*
D03*
X28937D02*
D03*
X29193D02*
D03*
X29448D02*
D03*
X29704D02*
D03*
X29960D02*
D03*
X28425Y69572D02*
D03*
X28681D02*
D03*
X28937D02*
D03*
X29193D02*
D03*
X29448D02*
D03*
X29704D02*
D03*
X29960D02*
D03*
X41393Y67250D02*
D03*
X41649D02*
D03*
X41905D02*
D03*
X42161D02*
D03*
X42417D02*
D03*
X42673D02*
D03*
X42929D02*
D03*
X41393Y69572D02*
D03*
X41649D02*
D03*
X41905D02*
D03*
X42161D02*
D03*
X42417D02*
D03*
X42673D02*
D03*
X42929D02*
D03*
X54362Y67250D02*
D03*
X54618D02*
D03*
X54874D02*
D03*
X55130D02*
D03*
X55385D02*
D03*
X55641D02*
D03*
X55897D02*
D03*
X54362Y69572D02*
D03*
X54618D02*
D03*
X54874D02*
D03*
X55130D02*
D03*
X55385D02*
D03*
X55641D02*
D03*
X55897D02*
D03*
D13*
X14924Y12747D02*
D03*
Y13101D02*
D03*
X14124Y12747D02*
D03*
Y13101D02*
D03*
X13724Y12747D02*
D03*
Y13101D02*
D03*
X14924Y12097D02*
D03*
Y12451D02*
D03*
X14524Y12097D02*
D03*
Y12451D02*
D03*
X14124Y12097D02*
D03*
Y12451D02*
D03*
X13624Y17601D02*
D03*
Y17247D02*
D03*
X15974Y15147D02*
D03*
Y15501D02*
D03*
X14524Y12747D02*
D03*
Y13101D02*
D03*
X13724Y12097D02*
D03*
Y12451D02*
D03*
X10510Y16465D02*
D03*
Y16110D02*
D03*
X10224Y15551D02*
D03*
Y15197D02*
D03*
X9774Y15451D02*
D03*
Y15097D02*
D03*
X27893Y12747D02*
D03*
Y13101D02*
D03*
X27093Y12747D02*
D03*
Y13101D02*
D03*
X26693Y12747D02*
D03*
Y13101D02*
D03*
X27893Y12097D02*
D03*
Y12451D02*
D03*
X27493Y12097D02*
D03*
Y12451D02*
D03*
X27093Y12097D02*
D03*
Y12451D02*
D03*
X26593Y17601D02*
D03*
Y17247D02*
D03*
X28943Y15147D02*
D03*
Y15501D02*
D03*
X27493Y12747D02*
D03*
Y13101D02*
D03*
X26693Y12097D02*
D03*
Y12451D02*
D03*
X23479Y16465D02*
D03*
Y16110D02*
D03*
X23193Y15551D02*
D03*
Y15197D02*
D03*
X22743Y15451D02*
D03*
Y15097D02*
D03*
X40861Y12747D02*
D03*
Y13101D02*
D03*
X40061Y12747D02*
D03*
Y13101D02*
D03*
X39661Y12747D02*
D03*
Y13101D02*
D03*
X40861Y12097D02*
D03*
Y12451D02*
D03*
X40461Y12097D02*
D03*
Y12451D02*
D03*
X40061Y12097D02*
D03*
Y12451D02*
D03*
X39561Y17601D02*
D03*
Y17247D02*
D03*
X41911Y15147D02*
D03*
Y15501D02*
D03*
X40461Y12747D02*
D03*
Y13101D02*
D03*
X39661Y12097D02*
D03*
Y12451D02*
D03*
X36447Y16465D02*
D03*
Y16110D02*
D03*
X36161Y15551D02*
D03*
Y15197D02*
D03*
X35711Y15451D02*
D03*
Y15097D02*
D03*
X53830Y12747D02*
D03*
Y13101D02*
D03*
X53030Y12747D02*
D03*
Y13101D02*
D03*
X52630Y12747D02*
D03*
Y13101D02*
D03*
X53830Y12097D02*
D03*
Y12451D02*
D03*
X53430Y12097D02*
D03*
Y12451D02*
D03*
X53030Y12097D02*
D03*
Y12451D02*
D03*
X52530Y17601D02*
D03*
Y17247D02*
D03*
X54880Y15147D02*
D03*
Y15501D02*
D03*
X53430Y12747D02*
D03*
Y13101D02*
D03*
X52630Y12097D02*
D03*
Y12451D02*
D03*
X49416Y16465D02*
D03*
Y16110D02*
D03*
X49130Y15551D02*
D03*
Y15197D02*
D03*
X48680Y15451D02*
D03*
Y15097D02*
D03*
X14924Y23734D02*
D03*
Y24089D02*
D03*
X14124Y23734D02*
D03*
Y24089D02*
D03*
X13724Y23734D02*
D03*
Y24089D02*
D03*
X14924Y23084D02*
D03*
Y23439D02*
D03*
X14524Y23084D02*
D03*
Y23439D02*
D03*
X14124Y23084D02*
D03*
Y23439D02*
D03*
X13624Y28589D02*
D03*
Y28234D02*
D03*
X15974Y26134D02*
D03*
Y26489D02*
D03*
X14524Y23734D02*
D03*
Y24089D02*
D03*
X13724Y23084D02*
D03*
Y23439D02*
D03*
X10510Y27452D02*
D03*
Y27098D02*
D03*
X10224Y26539D02*
D03*
Y26184D02*
D03*
X9774Y26439D02*
D03*
Y26084D02*
D03*
X27893Y23734D02*
D03*
Y24089D02*
D03*
X27093Y23734D02*
D03*
Y24089D02*
D03*
X26693Y23734D02*
D03*
Y24089D02*
D03*
X27893Y23084D02*
D03*
Y23439D02*
D03*
X27493Y23084D02*
D03*
Y23439D02*
D03*
X27093Y23084D02*
D03*
Y23439D02*
D03*
X26593Y28589D02*
D03*
Y28234D02*
D03*
X28943Y26134D02*
D03*
Y26489D02*
D03*
X27493Y23734D02*
D03*
Y24089D02*
D03*
X26693Y23084D02*
D03*
Y23439D02*
D03*
X23479Y27452D02*
D03*
Y27098D02*
D03*
X23193Y26539D02*
D03*
Y26184D02*
D03*
X22743Y26439D02*
D03*
Y26084D02*
D03*
X40861Y23734D02*
D03*
Y24089D02*
D03*
X40061Y23734D02*
D03*
Y24089D02*
D03*
X39661Y23734D02*
D03*
Y24089D02*
D03*
X40861Y23084D02*
D03*
Y23439D02*
D03*
X40461Y23084D02*
D03*
Y23439D02*
D03*
X40061Y23084D02*
D03*
Y23439D02*
D03*
X39561Y28589D02*
D03*
Y28234D02*
D03*
X41911Y26134D02*
D03*
Y26489D02*
D03*
X40461Y23734D02*
D03*
Y24089D02*
D03*
X39661Y23084D02*
D03*
Y23439D02*
D03*
X36447Y27452D02*
D03*
Y27098D02*
D03*
X36161Y26539D02*
D03*
Y26184D02*
D03*
X35711Y26439D02*
D03*
Y26084D02*
D03*
X53830Y23734D02*
D03*
Y24089D02*
D03*
X53030Y23734D02*
D03*
Y24089D02*
D03*
X52630Y23734D02*
D03*
Y24089D02*
D03*
X53830Y23084D02*
D03*
Y23439D02*
D03*
X53430Y23084D02*
D03*
Y23439D02*
D03*
X53030Y23084D02*
D03*
Y23439D02*
D03*
X52530Y28589D02*
D03*
Y28234D02*
D03*
X54880Y26134D02*
D03*
Y26489D02*
D03*
X53430Y23734D02*
D03*
Y24089D02*
D03*
X52630Y23084D02*
D03*
Y23439D02*
D03*
X49416Y27452D02*
D03*
Y27098D02*
D03*
X49130Y26539D02*
D03*
Y26184D02*
D03*
X48680Y26439D02*
D03*
Y26084D02*
D03*
X14924Y34722D02*
D03*
Y35076D02*
D03*
X14124Y34722D02*
D03*
Y35076D02*
D03*
X13724Y34722D02*
D03*
Y35076D02*
D03*
X14924Y34072D02*
D03*
Y34426D02*
D03*
X14524Y34072D02*
D03*
Y34426D02*
D03*
X14124Y34072D02*
D03*
Y34426D02*
D03*
X13624Y39576D02*
D03*
Y39222D02*
D03*
X15974Y37122D02*
D03*
Y37476D02*
D03*
X14524Y34722D02*
D03*
Y35076D02*
D03*
X13724Y34072D02*
D03*
Y34426D02*
D03*
X10510Y38440D02*
D03*
Y38085D02*
D03*
X10224Y37526D02*
D03*
Y37172D02*
D03*
X9774Y37426D02*
D03*
Y37072D02*
D03*
X27893Y34722D02*
D03*
Y35076D02*
D03*
X27093Y34722D02*
D03*
Y35076D02*
D03*
X26693Y34722D02*
D03*
Y35076D02*
D03*
X27893Y34072D02*
D03*
Y34426D02*
D03*
X27493Y34072D02*
D03*
Y34426D02*
D03*
X27093Y34072D02*
D03*
Y34426D02*
D03*
X26593Y39576D02*
D03*
Y39222D02*
D03*
X28943Y37122D02*
D03*
Y37476D02*
D03*
X27493Y34722D02*
D03*
Y35076D02*
D03*
X26693Y34072D02*
D03*
Y34426D02*
D03*
X23479Y38440D02*
D03*
Y38085D02*
D03*
X23193Y37526D02*
D03*
Y37172D02*
D03*
X22743Y37426D02*
D03*
Y37072D02*
D03*
X40861Y34722D02*
D03*
Y35076D02*
D03*
X40061Y34722D02*
D03*
Y35076D02*
D03*
X39661Y34722D02*
D03*
Y35076D02*
D03*
X40861Y34072D02*
D03*
Y34426D02*
D03*
X40461Y34072D02*
D03*
Y34426D02*
D03*
X40061Y34072D02*
D03*
Y34426D02*
D03*
X39561Y39576D02*
D03*
Y39222D02*
D03*
X41911Y37122D02*
D03*
Y37476D02*
D03*
X40461Y34722D02*
D03*
Y35076D02*
D03*
X39661Y34072D02*
D03*
Y34426D02*
D03*
X36447Y38440D02*
D03*
Y38085D02*
D03*
X36161Y37526D02*
D03*
Y37172D02*
D03*
X35711Y37426D02*
D03*
Y37072D02*
D03*
X53830Y34722D02*
D03*
Y35076D02*
D03*
X53030Y34722D02*
D03*
Y35076D02*
D03*
X52630Y34722D02*
D03*
Y35076D02*
D03*
X53830Y34072D02*
D03*
Y34426D02*
D03*
X53430Y34072D02*
D03*
Y34426D02*
D03*
X53030Y34072D02*
D03*
Y34426D02*
D03*
X52530Y39576D02*
D03*
Y39222D02*
D03*
X54880Y37122D02*
D03*
Y37476D02*
D03*
X53430Y34722D02*
D03*
Y35076D02*
D03*
X52630Y34072D02*
D03*
Y34426D02*
D03*
X49416Y38440D02*
D03*
Y38085D02*
D03*
X49130Y37526D02*
D03*
Y37172D02*
D03*
X48680Y37426D02*
D03*
Y37072D02*
D03*
X14924Y45709D02*
D03*
Y46063D02*
D03*
X14124Y45709D02*
D03*
Y46063D02*
D03*
X13724Y45709D02*
D03*
Y46063D02*
D03*
X14924Y45059D02*
D03*
Y45413D02*
D03*
X14524Y45059D02*
D03*
Y45413D02*
D03*
X14124Y45059D02*
D03*
Y45413D02*
D03*
X13624Y50563D02*
D03*
Y50209D02*
D03*
X15974Y48109D02*
D03*
Y48463D02*
D03*
X14524Y45709D02*
D03*
Y46063D02*
D03*
X13724Y45059D02*
D03*
Y45413D02*
D03*
X10510Y49427D02*
D03*
Y49073D02*
D03*
X10224Y48513D02*
D03*
Y48159D02*
D03*
X9774Y48413D02*
D03*
Y48059D02*
D03*
X27893Y45709D02*
D03*
Y46063D02*
D03*
X27093Y45709D02*
D03*
Y46063D02*
D03*
X26693Y45709D02*
D03*
Y46063D02*
D03*
X27893Y45059D02*
D03*
Y45413D02*
D03*
X27493Y45059D02*
D03*
Y45413D02*
D03*
X27093Y45059D02*
D03*
Y45413D02*
D03*
X26593Y50563D02*
D03*
Y50209D02*
D03*
X28943Y48109D02*
D03*
Y48463D02*
D03*
X27493Y45709D02*
D03*
Y46063D02*
D03*
X26693Y45059D02*
D03*
Y45413D02*
D03*
X23479Y49427D02*
D03*
Y49073D02*
D03*
X23193Y48513D02*
D03*
Y48159D02*
D03*
X22743Y48413D02*
D03*
Y48059D02*
D03*
X40861Y45709D02*
D03*
Y46063D02*
D03*
X40061Y45709D02*
D03*
Y46063D02*
D03*
X39661Y45709D02*
D03*
Y46063D02*
D03*
X40861Y45059D02*
D03*
Y45413D02*
D03*
X40461Y45059D02*
D03*
Y45413D02*
D03*
X40061Y45059D02*
D03*
Y45413D02*
D03*
X39561Y50563D02*
D03*
Y50209D02*
D03*
X41911Y48109D02*
D03*
Y48463D02*
D03*
X40461Y45709D02*
D03*
Y46063D02*
D03*
X39661Y45059D02*
D03*
Y45413D02*
D03*
X36447Y49427D02*
D03*
Y49073D02*
D03*
X36161Y48513D02*
D03*
Y48159D02*
D03*
X35711Y48413D02*
D03*
Y48059D02*
D03*
X53830Y45709D02*
D03*
Y46063D02*
D03*
X53030Y45709D02*
D03*
Y46063D02*
D03*
X52630Y45709D02*
D03*
Y46063D02*
D03*
X53830Y45059D02*
D03*
Y45413D02*
D03*
X53430Y45059D02*
D03*
Y45413D02*
D03*
X53030Y45059D02*
D03*
Y45413D02*
D03*
X52530Y50563D02*
D03*
Y50209D02*
D03*
X54880Y48109D02*
D03*
Y48463D02*
D03*
X53430Y45709D02*
D03*
Y46063D02*
D03*
X52630Y45059D02*
D03*
Y45413D02*
D03*
X49416Y49427D02*
D03*
Y49073D02*
D03*
X49130Y48513D02*
D03*
Y48159D02*
D03*
X48680Y48413D02*
D03*
Y48059D02*
D03*
X14924Y56696D02*
D03*
Y57051D02*
D03*
X14124Y56696D02*
D03*
Y57051D02*
D03*
X13724Y56696D02*
D03*
Y57051D02*
D03*
X14924Y56046D02*
D03*
Y56401D02*
D03*
X14524Y56046D02*
D03*
Y56401D02*
D03*
X14124Y56046D02*
D03*
Y56401D02*
D03*
X13624Y61551D02*
D03*
Y61196D02*
D03*
X15974Y59096D02*
D03*
Y59451D02*
D03*
X14524Y56696D02*
D03*
Y57051D02*
D03*
X13724Y56046D02*
D03*
Y56401D02*
D03*
X10510Y60414D02*
D03*
Y60060D02*
D03*
X10224Y59501D02*
D03*
Y59146D02*
D03*
X9774Y59401D02*
D03*
Y59046D02*
D03*
X27893Y56696D02*
D03*
Y57051D02*
D03*
X27093Y56696D02*
D03*
Y57051D02*
D03*
X26693Y56696D02*
D03*
Y57051D02*
D03*
X27893Y56046D02*
D03*
Y56401D02*
D03*
X27493Y56046D02*
D03*
Y56401D02*
D03*
X27093Y56046D02*
D03*
Y56401D02*
D03*
X26593Y61551D02*
D03*
Y61196D02*
D03*
X28943Y59096D02*
D03*
Y59451D02*
D03*
X27493Y56696D02*
D03*
Y57051D02*
D03*
X26693Y56046D02*
D03*
Y56401D02*
D03*
X23479Y60414D02*
D03*
Y60060D02*
D03*
X23193Y59501D02*
D03*
Y59146D02*
D03*
X22743Y59401D02*
D03*
Y59046D02*
D03*
X40861Y56696D02*
D03*
Y57051D02*
D03*
X40061Y56696D02*
D03*
Y57051D02*
D03*
X39661Y56696D02*
D03*
Y57051D02*
D03*
X40861Y56046D02*
D03*
Y56401D02*
D03*
X40461Y56046D02*
D03*
Y56401D02*
D03*
X40061Y56046D02*
D03*
Y56401D02*
D03*
X39561Y61551D02*
D03*
Y61196D02*
D03*
X41911Y59096D02*
D03*
Y59451D02*
D03*
X40461Y56696D02*
D03*
Y57051D02*
D03*
X39661Y56046D02*
D03*
Y56401D02*
D03*
X36447Y60414D02*
D03*
Y60060D02*
D03*
X36161Y59501D02*
D03*
Y59146D02*
D03*
X35711Y59401D02*
D03*
Y59046D02*
D03*
X53830Y56696D02*
D03*
Y57051D02*
D03*
X53030Y56696D02*
D03*
Y57051D02*
D03*
X52630Y56696D02*
D03*
Y57051D02*
D03*
X53830Y56046D02*
D03*
Y56401D02*
D03*
X53430Y56046D02*
D03*
Y56401D02*
D03*
X53030Y56046D02*
D03*
Y56401D02*
D03*
X52530Y61551D02*
D03*
Y61196D02*
D03*
X54880Y59096D02*
D03*
Y59451D02*
D03*
X53430Y56696D02*
D03*
Y57051D02*
D03*
X52630Y56046D02*
D03*
Y56401D02*
D03*
X49416Y60414D02*
D03*
Y60060D02*
D03*
X49130Y59501D02*
D03*
Y59146D02*
D03*
X48680Y59401D02*
D03*
Y59046D02*
D03*
X14924Y67684D02*
D03*
Y68038D02*
D03*
X14124Y67684D02*
D03*
Y68038D02*
D03*
X13724Y67684D02*
D03*
Y68038D02*
D03*
X14924Y67034D02*
D03*
Y67388D02*
D03*
X14524Y67034D02*
D03*
Y67388D02*
D03*
X14124Y67034D02*
D03*
Y67388D02*
D03*
X13624Y72538D02*
D03*
Y72184D02*
D03*
X15974Y70084D02*
D03*
Y70438D02*
D03*
X14524Y67684D02*
D03*
Y68038D02*
D03*
X13724Y67034D02*
D03*
Y67388D02*
D03*
X10510Y71402D02*
D03*
Y71047D02*
D03*
X10224Y70488D02*
D03*
Y70134D02*
D03*
X9774Y70388D02*
D03*
Y70034D02*
D03*
X27893Y67684D02*
D03*
Y68038D02*
D03*
X27093Y67684D02*
D03*
Y68038D02*
D03*
X26693Y67684D02*
D03*
Y68038D02*
D03*
X27893Y67034D02*
D03*
Y67388D02*
D03*
X27493Y67034D02*
D03*
Y67388D02*
D03*
X27093Y67034D02*
D03*
Y67388D02*
D03*
X26593Y72538D02*
D03*
Y72184D02*
D03*
X28943Y70084D02*
D03*
Y70438D02*
D03*
X27493Y67684D02*
D03*
Y68038D02*
D03*
X26693Y67034D02*
D03*
Y67388D02*
D03*
X23479Y71402D02*
D03*
Y71047D02*
D03*
X23193Y70488D02*
D03*
Y70134D02*
D03*
X22743Y70388D02*
D03*
Y70034D02*
D03*
X40861Y67684D02*
D03*
Y68038D02*
D03*
X40061Y67684D02*
D03*
Y68038D02*
D03*
X39661Y67684D02*
D03*
Y68038D02*
D03*
X40861Y67034D02*
D03*
Y67388D02*
D03*
X40461Y67034D02*
D03*
Y67388D02*
D03*
X40061Y67034D02*
D03*
Y67388D02*
D03*
X39561Y72538D02*
D03*
Y72184D02*
D03*
X41911Y70084D02*
D03*
Y70438D02*
D03*
X40461Y67684D02*
D03*
Y68038D02*
D03*
X39661Y67034D02*
D03*
Y67388D02*
D03*
X36447Y71402D02*
D03*
Y71047D02*
D03*
X36161Y70488D02*
D03*
Y70134D02*
D03*
X35711Y70388D02*
D03*
Y70034D02*
D03*
X53830Y67684D02*
D03*
Y68038D02*
D03*
X53030Y67684D02*
D03*
Y68038D02*
D03*
X52630Y67684D02*
D03*
Y68038D02*
D03*
X53830Y67034D02*
D03*
Y67388D02*
D03*
X53430Y67034D02*
D03*
Y67388D02*
D03*
X53030Y67034D02*
D03*
Y67388D02*
D03*
X52530Y72538D02*
D03*
Y72184D02*
D03*
X54880Y70084D02*
D03*
Y70438D02*
D03*
X53430Y67684D02*
D03*
Y68038D02*
D03*
X52630Y67034D02*
D03*
Y67388D02*
D03*
X49416Y71402D02*
D03*
Y71047D02*
D03*
X49130Y70488D02*
D03*
Y70134D02*
D03*
X48680Y70388D02*
D03*
Y70034D02*
D03*
D14*
X10811Y12124D02*
D03*
X11637Y12498D02*
D03*
Y11750D02*
D03*
X10811Y13474D02*
D03*
X11637Y13848D02*
D03*
Y13100D02*
D03*
X10237Y11750D02*
D03*
Y12498D02*
D03*
X9411Y12124D02*
D03*
X10237Y13100D02*
D03*
Y13848D02*
D03*
X9411Y13474D02*
D03*
X13037Y11750D02*
D03*
Y12498D02*
D03*
X12211Y12124D02*
D03*
X13037Y13100D02*
D03*
Y13848D02*
D03*
X12211Y13474D02*
D03*
X23779Y12124D02*
D03*
X24606Y12498D02*
D03*
Y11750D02*
D03*
X23779Y13474D02*
D03*
X24606Y13848D02*
D03*
Y13100D02*
D03*
X23206Y11750D02*
D03*
Y12498D02*
D03*
X22379Y12124D02*
D03*
X23206Y13100D02*
D03*
Y13848D02*
D03*
X22379Y13474D02*
D03*
X26006Y11750D02*
D03*
Y12498D02*
D03*
X25179Y12124D02*
D03*
X26006Y13100D02*
D03*
Y13848D02*
D03*
X25179Y13474D02*
D03*
X36748Y12124D02*
D03*
X37574Y12498D02*
D03*
Y11750D02*
D03*
X36748Y13474D02*
D03*
X37574Y13848D02*
D03*
Y13100D02*
D03*
X36174Y11750D02*
D03*
Y12498D02*
D03*
X35348Y12124D02*
D03*
X36174Y13100D02*
D03*
Y13848D02*
D03*
X35348Y13474D02*
D03*
X38974Y11750D02*
D03*
Y12498D02*
D03*
X38148Y12124D02*
D03*
X38974Y13100D02*
D03*
Y13848D02*
D03*
X38148Y13474D02*
D03*
X49716Y12124D02*
D03*
X50543Y12498D02*
D03*
Y11750D02*
D03*
X49716Y13474D02*
D03*
X50543Y13848D02*
D03*
Y13100D02*
D03*
X49143Y11750D02*
D03*
Y12498D02*
D03*
X48316Y12124D02*
D03*
X49143Y13100D02*
D03*
Y13848D02*
D03*
X48316Y13474D02*
D03*
X51943Y11750D02*
D03*
Y12498D02*
D03*
X51116Y12124D02*
D03*
X51943Y13100D02*
D03*
Y13848D02*
D03*
X51116Y13474D02*
D03*
X10811Y23111D02*
D03*
X11637Y23485D02*
D03*
Y22737D02*
D03*
X10811Y24461D02*
D03*
X11637Y24835D02*
D03*
Y24087D02*
D03*
X10237Y22737D02*
D03*
Y23485D02*
D03*
X9411Y23111D02*
D03*
X10237Y24087D02*
D03*
Y24835D02*
D03*
X9411Y24461D02*
D03*
X13037Y22737D02*
D03*
Y23485D02*
D03*
X12211Y23111D02*
D03*
X13037Y24087D02*
D03*
Y24835D02*
D03*
X12211Y24461D02*
D03*
X23779Y23111D02*
D03*
X24606Y23485D02*
D03*
Y22737D02*
D03*
X23779Y24461D02*
D03*
X24606Y24835D02*
D03*
Y24087D02*
D03*
X23206Y22737D02*
D03*
Y23485D02*
D03*
X22379Y23111D02*
D03*
X23206Y24087D02*
D03*
Y24835D02*
D03*
X22379Y24461D02*
D03*
X26006Y22737D02*
D03*
Y23485D02*
D03*
X25179Y23111D02*
D03*
X26006Y24087D02*
D03*
Y24835D02*
D03*
X25179Y24461D02*
D03*
X36748Y23111D02*
D03*
X37574Y23485D02*
D03*
Y22737D02*
D03*
X36748Y24461D02*
D03*
X37574Y24835D02*
D03*
Y24087D02*
D03*
X36174Y22737D02*
D03*
Y23485D02*
D03*
X35348Y23111D02*
D03*
X36174Y24087D02*
D03*
Y24835D02*
D03*
X35348Y24461D02*
D03*
X38974Y22737D02*
D03*
Y23485D02*
D03*
X38148Y23111D02*
D03*
X38974Y24087D02*
D03*
Y24835D02*
D03*
X38148Y24461D02*
D03*
X49716Y23111D02*
D03*
X50543Y23485D02*
D03*
Y22737D02*
D03*
X49716Y24461D02*
D03*
X50543Y24835D02*
D03*
Y24087D02*
D03*
X49143Y22737D02*
D03*
Y23485D02*
D03*
X48316Y23111D02*
D03*
X49143Y24087D02*
D03*
Y24835D02*
D03*
X48316Y24461D02*
D03*
X51943Y22737D02*
D03*
Y23485D02*
D03*
X51116Y23111D02*
D03*
X51943Y24087D02*
D03*
Y24835D02*
D03*
X51116Y24461D02*
D03*
X10811Y34099D02*
D03*
X11637Y34473D02*
D03*
Y33725D02*
D03*
X10811Y35449D02*
D03*
X11637Y35823D02*
D03*
Y35075D02*
D03*
X10237Y33725D02*
D03*
Y34473D02*
D03*
X9411Y34099D02*
D03*
X10237Y35075D02*
D03*
Y35823D02*
D03*
X9411Y35449D02*
D03*
X13037Y33725D02*
D03*
Y34473D02*
D03*
X12211Y34099D02*
D03*
X13037Y35075D02*
D03*
Y35823D02*
D03*
X12211Y35449D02*
D03*
X23779Y34099D02*
D03*
X24606Y34473D02*
D03*
Y33725D02*
D03*
X23779Y35449D02*
D03*
X24606Y35823D02*
D03*
Y35075D02*
D03*
X23206Y33725D02*
D03*
Y34473D02*
D03*
X22379Y34099D02*
D03*
X23206Y35075D02*
D03*
Y35823D02*
D03*
X22379Y35449D02*
D03*
X26006Y33725D02*
D03*
Y34473D02*
D03*
X25179Y34099D02*
D03*
X26006Y35075D02*
D03*
Y35823D02*
D03*
X25179Y35449D02*
D03*
X36748Y34099D02*
D03*
X37574Y34473D02*
D03*
Y33725D02*
D03*
X36748Y35449D02*
D03*
X37574Y35823D02*
D03*
Y35075D02*
D03*
X36174Y33725D02*
D03*
Y34473D02*
D03*
X35348Y34099D02*
D03*
X36174Y35075D02*
D03*
Y35823D02*
D03*
X35348Y35449D02*
D03*
X38974Y33725D02*
D03*
Y34473D02*
D03*
X38148Y34099D02*
D03*
X38974Y35075D02*
D03*
Y35823D02*
D03*
X38148Y35449D02*
D03*
X49716Y34099D02*
D03*
X50543Y34473D02*
D03*
Y33725D02*
D03*
X49716Y35449D02*
D03*
X50543Y35823D02*
D03*
Y35075D02*
D03*
X49143Y33725D02*
D03*
Y34473D02*
D03*
X48316Y34099D02*
D03*
X49143Y35075D02*
D03*
Y35823D02*
D03*
X48316Y35449D02*
D03*
X51943Y33725D02*
D03*
Y34473D02*
D03*
X51116Y34099D02*
D03*
X51943Y35075D02*
D03*
Y35823D02*
D03*
X51116Y35449D02*
D03*
X10811Y45086D02*
D03*
X11637Y45460D02*
D03*
Y44712D02*
D03*
X10811Y46436D02*
D03*
X11637Y46810D02*
D03*
Y46062D02*
D03*
X10237Y44712D02*
D03*
Y45460D02*
D03*
X9411Y45086D02*
D03*
X10237Y46062D02*
D03*
Y46810D02*
D03*
X9411Y46436D02*
D03*
X13037Y44712D02*
D03*
Y45460D02*
D03*
X12211Y45086D02*
D03*
X13037Y46062D02*
D03*
Y46810D02*
D03*
X12211Y46436D02*
D03*
X23779Y45086D02*
D03*
X24606Y45460D02*
D03*
Y44712D02*
D03*
X23779Y46436D02*
D03*
X24606Y46810D02*
D03*
Y46062D02*
D03*
X23206Y44712D02*
D03*
Y45460D02*
D03*
X22379Y45086D02*
D03*
X23206Y46062D02*
D03*
Y46810D02*
D03*
X22379Y46436D02*
D03*
X26006Y44712D02*
D03*
Y45460D02*
D03*
X25179Y45086D02*
D03*
X26006Y46062D02*
D03*
Y46810D02*
D03*
X25179Y46436D02*
D03*
X36748Y45086D02*
D03*
X37574Y45460D02*
D03*
Y44712D02*
D03*
X36748Y46436D02*
D03*
X37574Y46810D02*
D03*
Y46062D02*
D03*
X36174Y44712D02*
D03*
Y45460D02*
D03*
X35348Y45086D02*
D03*
X36174Y46062D02*
D03*
Y46810D02*
D03*
X35348Y46436D02*
D03*
X38974Y44712D02*
D03*
Y45460D02*
D03*
X38148Y45086D02*
D03*
X38974Y46062D02*
D03*
Y46810D02*
D03*
X38148Y46436D02*
D03*
X49716Y45086D02*
D03*
X50543Y45460D02*
D03*
Y44712D02*
D03*
X49716Y46436D02*
D03*
X50543Y46810D02*
D03*
Y46062D02*
D03*
X49143Y44712D02*
D03*
Y45460D02*
D03*
X48316Y45086D02*
D03*
X49143Y46062D02*
D03*
Y46810D02*
D03*
X48316Y46436D02*
D03*
X51943Y44712D02*
D03*
Y45460D02*
D03*
X51116Y45086D02*
D03*
X51943Y46062D02*
D03*
Y46810D02*
D03*
X51116Y46436D02*
D03*
X10811Y56074D02*
D03*
X11637Y56448D02*
D03*
Y55700D02*
D03*
X10811Y57424D02*
D03*
X11637Y57798D02*
D03*
Y57050D02*
D03*
X10237Y55700D02*
D03*
Y56448D02*
D03*
X9411Y56074D02*
D03*
X10237Y57050D02*
D03*
Y57798D02*
D03*
X9411Y57424D02*
D03*
X13037Y55700D02*
D03*
Y56448D02*
D03*
X12211Y56074D02*
D03*
X13037Y57050D02*
D03*
Y57798D02*
D03*
X12211Y57424D02*
D03*
X23779Y56074D02*
D03*
X24606Y56448D02*
D03*
Y55700D02*
D03*
X23779Y57424D02*
D03*
X24606Y57798D02*
D03*
Y57050D02*
D03*
X23206Y55700D02*
D03*
Y56448D02*
D03*
X22379Y56074D02*
D03*
X23206Y57050D02*
D03*
Y57798D02*
D03*
X22379Y57424D02*
D03*
X26006Y55700D02*
D03*
Y56448D02*
D03*
X25179Y56074D02*
D03*
X26006Y57050D02*
D03*
Y57798D02*
D03*
X25179Y57424D02*
D03*
X36748Y56074D02*
D03*
X37574Y56448D02*
D03*
Y55700D02*
D03*
X36748Y57424D02*
D03*
X37574Y57798D02*
D03*
Y57050D02*
D03*
X36174Y55700D02*
D03*
Y56448D02*
D03*
X35348Y56074D02*
D03*
X36174Y57050D02*
D03*
Y57798D02*
D03*
X35348Y57424D02*
D03*
X38974Y55700D02*
D03*
Y56448D02*
D03*
X38148Y56074D02*
D03*
X38974Y57050D02*
D03*
Y57798D02*
D03*
X38148Y57424D02*
D03*
X49716Y56074D02*
D03*
X50543Y56448D02*
D03*
Y55700D02*
D03*
X49716Y57424D02*
D03*
X50543Y57798D02*
D03*
Y57050D02*
D03*
X49143Y55700D02*
D03*
Y56448D02*
D03*
X48316Y56074D02*
D03*
X49143Y57050D02*
D03*
Y57798D02*
D03*
X48316Y57424D02*
D03*
X51943Y55700D02*
D03*
Y56448D02*
D03*
X51116Y56074D02*
D03*
X51943Y57050D02*
D03*
Y57798D02*
D03*
X51116Y57424D02*
D03*
X10811Y67061D02*
D03*
X11637Y67435D02*
D03*
Y66687D02*
D03*
X10811Y68411D02*
D03*
X11637Y68785D02*
D03*
Y68037D02*
D03*
X10237Y66687D02*
D03*
Y67435D02*
D03*
X9411Y67061D02*
D03*
X10237Y68037D02*
D03*
Y68785D02*
D03*
X9411Y68411D02*
D03*
X13037Y66687D02*
D03*
Y67435D02*
D03*
X12211Y67061D02*
D03*
X13037Y68037D02*
D03*
Y68785D02*
D03*
X12211Y68411D02*
D03*
X23779Y67061D02*
D03*
X24606Y67435D02*
D03*
Y66687D02*
D03*
X23779Y68411D02*
D03*
X24606Y68785D02*
D03*
Y68037D02*
D03*
X23206Y66687D02*
D03*
Y67435D02*
D03*
X22379Y67061D02*
D03*
X23206Y68037D02*
D03*
Y68785D02*
D03*
X22379Y68411D02*
D03*
X26006Y66687D02*
D03*
Y67435D02*
D03*
X25179Y67061D02*
D03*
X26006Y68037D02*
D03*
Y68785D02*
D03*
X25179Y68411D02*
D03*
X36748Y67061D02*
D03*
X37574Y67435D02*
D03*
Y66687D02*
D03*
X36748Y68411D02*
D03*
X37574Y68785D02*
D03*
Y68037D02*
D03*
X36174Y66687D02*
D03*
Y67435D02*
D03*
X35348Y67061D02*
D03*
X36174Y68037D02*
D03*
Y68785D02*
D03*
X35348Y68411D02*
D03*
X38974Y66687D02*
D03*
Y67435D02*
D03*
X38148Y67061D02*
D03*
X38974Y68037D02*
D03*
Y68785D02*
D03*
X38148Y68411D02*
D03*
X49716Y67061D02*
D03*
X50543Y67435D02*
D03*
Y66687D02*
D03*
X49716Y68411D02*
D03*
X50543Y68785D02*
D03*
Y68037D02*
D03*
X49143Y66687D02*
D03*
Y67435D02*
D03*
X48316Y67061D02*
D03*
X49143Y68037D02*
D03*
Y68785D02*
D03*
X48316Y68411D02*
D03*
X51943Y66687D02*
D03*
Y67435D02*
D03*
X51116Y67061D02*
D03*
X51943Y68037D02*
D03*
Y68785D02*
D03*
X51116Y68411D02*
D03*
D15*
X10319Y14574D02*
D03*
X9729D02*
D03*
X14669Y16324D02*
D03*
X14079D02*
D03*
X23288Y14574D02*
D03*
X22697D02*
D03*
X27638Y16324D02*
D03*
X27047D02*
D03*
X36256Y14574D02*
D03*
X35666D02*
D03*
X40606Y16324D02*
D03*
X40016D02*
D03*
X49225Y14574D02*
D03*
X48634D02*
D03*
X53575Y16324D02*
D03*
X52984D02*
D03*
X10319Y25561D02*
D03*
X9729D02*
D03*
X14669Y27311D02*
D03*
X14079D02*
D03*
X23288Y25561D02*
D03*
X22697D02*
D03*
X27638Y27311D02*
D03*
X27047D02*
D03*
X36256Y25561D02*
D03*
X35666D02*
D03*
X40606Y27311D02*
D03*
X40016D02*
D03*
X49225Y25561D02*
D03*
X48634D02*
D03*
X53575Y27311D02*
D03*
X52984D02*
D03*
X10319Y36549D02*
D03*
X9729D02*
D03*
X14669Y38299D02*
D03*
X14079D02*
D03*
X23288Y36549D02*
D03*
X22697D02*
D03*
X27638Y38299D02*
D03*
X27047D02*
D03*
X36256Y36549D02*
D03*
X35666D02*
D03*
X40606Y38299D02*
D03*
X40016D02*
D03*
X49225Y36549D02*
D03*
X48634D02*
D03*
X53575Y38299D02*
D03*
X52984D02*
D03*
X10319Y47536D02*
D03*
X9729D02*
D03*
X14669Y49286D02*
D03*
X14079D02*
D03*
X23288Y47536D02*
D03*
X22697D02*
D03*
X27638Y49286D02*
D03*
X27047D02*
D03*
X36256Y47536D02*
D03*
X35666D02*
D03*
X40606Y49286D02*
D03*
X40016D02*
D03*
X49225Y47536D02*
D03*
X48634D02*
D03*
X53575Y49286D02*
D03*
X52984D02*
D03*
X10319Y58524D02*
D03*
X9729D02*
D03*
X14669Y60274D02*
D03*
X14079D02*
D03*
X23288Y58524D02*
D03*
X22697D02*
D03*
X27638Y60274D02*
D03*
X27047D02*
D03*
X36256Y58524D02*
D03*
X35666D02*
D03*
X40606Y60274D02*
D03*
X40016D02*
D03*
X49225Y58524D02*
D03*
X48634D02*
D03*
X53575Y60274D02*
D03*
X52984D02*
D03*
X10319Y69511D02*
D03*
X9729D02*
D03*
X14669Y71261D02*
D03*
X14079D02*
D03*
X23288Y69511D02*
D03*
X22697D02*
D03*
X27638Y71261D02*
D03*
X27047D02*
D03*
X36256Y69511D02*
D03*
X35666D02*
D03*
X40606Y71261D02*
D03*
X40016D02*
D03*
X49225Y69511D02*
D03*
X48634D02*
D03*
X53575Y71261D02*
D03*
X52984D02*
D03*
D16*
X12650Y10668D02*
D03*
Y10924D02*
D03*
Y11180D02*
D03*
X13398D02*
D03*
Y10924D02*
D03*
Y10668D02*
D03*
X25619D02*
D03*
Y10924D02*
D03*
Y11180D02*
D03*
X26367D02*
D03*
Y10924D02*
D03*
Y10668D02*
D03*
X38587D02*
D03*
Y10924D02*
D03*
Y11180D02*
D03*
X39335D02*
D03*
Y10924D02*
D03*
Y10668D02*
D03*
X51556D02*
D03*
Y10924D02*
D03*
Y11180D02*
D03*
X52304D02*
D03*
Y10924D02*
D03*
Y10668D02*
D03*
X12650Y21656D02*
D03*
Y21911D02*
D03*
Y22167D02*
D03*
X13398D02*
D03*
Y21911D02*
D03*
Y21656D02*
D03*
X25619D02*
D03*
Y21911D02*
D03*
Y22167D02*
D03*
X26367D02*
D03*
Y21911D02*
D03*
Y21656D02*
D03*
X38587D02*
D03*
Y21911D02*
D03*
Y22167D02*
D03*
X39335D02*
D03*
Y21911D02*
D03*
Y21656D02*
D03*
X51556D02*
D03*
Y21911D02*
D03*
Y22167D02*
D03*
X52304D02*
D03*
Y21911D02*
D03*
Y21656D02*
D03*
X12650Y32643D02*
D03*
Y32899D02*
D03*
Y33155D02*
D03*
X13398D02*
D03*
Y32899D02*
D03*
Y32643D02*
D03*
X25619D02*
D03*
Y32899D02*
D03*
Y33155D02*
D03*
X26367D02*
D03*
Y32899D02*
D03*
Y32643D02*
D03*
X38587D02*
D03*
Y32899D02*
D03*
Y33155D02*
D03*
X39335D02*
D03*
Y32899D02*
D03*
Y32643D02*
D03*
X51556D02*
D03*
Y32899D02*
D03*
Y33155D02*
D03*
X52304D02*
D03*
Y32899D02*
D03*
Y32643D02*
D03*
X12650Y43630D02*
D03*
Y43886D02*
D03*
Y44142D02*
D03*
X13398D02*
D03*
Y43886D02*
D03*
Y43630D02*
D03*
X25619D02*
D03*
Y43886D02*
D03*
Y44142D02*
D03*
X26367D02*
D03*
Y43886D02*
D03*
Y43630D02*
D03*
X38587D02*
D03*
Y43886D02*
D03*
Y44142D02*
D03*
X39335D02*
D03*
Y43886D02*
D03*
Y43630D02*
D03*
X51556D02*
D03*
Y43886D02*
D03*
Y44142D02*
D03*
X52304D02*
D03*
Y43886D02*
D03*
Y43630D02*
D03*
X12650Y54618D02*
D03*
Y54874D02*
D03*
Y55130D02*
D03*
X13398D02*
D03*
Y54874D02*
D03*
Y54618D02*
D03*
X25619D02*
D03*
Y54874D02*
D03*
Y55130D02*
D03*
X26367D02*
D03*
Y54874D02*
D03*
Y54618D02*
D03*
X38587D02*
D03*
Y54874D02*
D03*
Y55130D02*
D03*
X39335D02*
D03*
Y54874D02*
D03*
Y54618D02*
D03*
X51556D02*
D03*
Y54874D02*
D03*
Y55130D02*
D03*
X52304D02*
D03*
Y54874D02*
D03*
Y54618D02*
D03*
X12650Y65605D02*
D03*
Y65861D02*
D03*
Y66117D02*
D03*
X13398D02*
D03*
Y65861D02*
D03*
Y65605D02*
D03*
X25619D02*
D03*
Y65861D02*
D03*
Y66117D02*
D03*
X26367D02*
D03*
Y65861D02*
D03*
Y65605D02*
D03*
X38587D02*
D03*
Y65861D02*
D03*
Y66117D02*
D03*
X39335D02*
D03*
Y65861D02*
D03*
Y65605D02*
D03*
X51556D02*
D03*
Y65861D02*
D03*
Y66117D02*
D03*
X52304D02*
D03*
Y65861D02*
D03*
Y65605D02*
D03*
D17*
X11480Y16368D02*
D03*
X11638D02*
D03*
X11795D02*
D03*
X11953D02*
D03*
X12110D02*
D03*
X12268D02*
D03*
Y17580D02*
D03*
X12110D02*
D03*
X11953D02*
D03*
X11795D02*
D03*
X11638D02*
D03*
X11480D02*
D03*
X14480Y8368D02*
D03*
X14638D02*
D03*
X14795D02*
D03*
X14953D02*
D03*
X15110D02*
D03*
X15268D02*
D03*
Y9580D02*
D03*
X15110D02*
D03*
X14953D02*
D03*
X14795D02*
D03*
X14638D02*
D03*
X14480D02*
D03*
X24449Y16368D02*
D03*
X24606D02*
D03*
X24764D02*
D03*
X24921D02*
D03*
X25079D02*
D03*
X25236D02*
D03*
Y17580D02*
D03*
X25079D02*
D03*
X24921D02*
D03*
X24764D02*
D03*
X24606D02*
D03*
X24449D02*
D03*
X27449Y8368D02*
D03*
X27606D02*
D03*
X27764D02*
D03*
X27921D02*
D03*
X28079D02*
D03*
X28236D02*
D03*
Y9580D02*
D03*
X28079D02*
D03*
X27921D02*
D03*
X27764D02*
D03*
X27606D02*
D03*
X27449D02*
D03*
X37417Y16368D02*
D03*
X37575D02*
D03*
X37732D02*
D03*
X37890D02*
D03*
X38047D02*
D03*
X38205D02*
D03*
Y17580D02*
D03*
X38047D02*
D03*
X37890D02*
D03*
X37732D02*
D03*
X37575D02*
D03*
X37417D02*
D03*
X40417Y8368D02*
D03*
X40575D02*
D03*
X40732D02*
D03*
X40890D02*
D03*
X41047D02*
D03*
X41205D02*
D03*
Y9580D02*
D03*
X41047D02*
D03*
X40890D02*
D03*
X40732D02*
D03*
X40575D02*
D03*
X40417D02*
D03*
X50386Y16368D02*
D03*
X50543D02*
D03*
X50701D02*
D03*
X50858D02*
D03*
X51016D02*
D03*
X51173D02*
D03*
Y17580D02*
D03*
X51016D02*
D03*
X50858D02*
D03*
X50701D02*
D03*
X50543D02*
D03*
X50386D02*
D03*
X53386Y8368D02*
D03*
X53543D02*
D03*
X53701D02*
D03*
X53858D02*
D03*
X54016D02*
D03*
X54173D02*
D03*
Y9580D02*
D03*
X54016D02*
D03*
X53858D02*
D03*
X53701D02*
D03*
X53543D02*
D03*
X53386D02*
D03*
X11480Y27355D02*
D03*
X11638D02*
D03*
X11795D02*
D03*
X11953D02*
D03*
X12110D02*
D03*
X12268D02*
D03*
Y28568D02*
D03*
X12110D02*
D03*
X11953D02*
D03*
X11795D02*
D03*
X11638D02*
D03*
X11480D02*
D03*
X14480Y19355D02*
D03*
X14638D02*
D03*
X14795D02*
D03*
X14953D02*
D03*
X15110D02*
D03*
X15268D02*
D03*
Y20568D02*
D03*
X15110D02*
D03*
X14953D02*
D03*
X14795D02*
D03*
X14638D02*
D03*
X14480D02*
D03*
X24449Y27355D02*
D03*
X24606D02*
D03*
X24764D02*
D03*
X24921D02*
D03*
X25079D02*
D03*
X25236D02*
D03*
Y28568D02*
D03*
X25079D02*
D03*
X24921D02*
D03*
X24764D02*
D03*
X24606D02*
D03*
X24449D02*
D03*
X27449Y19355D02*
D03*
X27606D02*
D03*
X27764D02*
D03*
X27921D02*
D03*
X28079D02*
D03*
X28236D02*
D03*
Y20568D02*
D03*
X28079D02*
D03*
X27921D02*
D03*
X27764D02*
D03*
X27606D02*
D03*
X27449D02*
D03*
X37417Y27355D02*
D03*
X37575D02*
D03*
X37732D02*
D03*
X37890D02*
D03*
X38047D02*
D03*
X38205D02*
D03*
Y28568D02*
D03*
X38047D02*
D03*
X37890D02*
D03*
X37732D02*
D03*
X37575D02*
D03*
X37417D02*
D03*
X40417Y19355D02*
D03*
X40575D02*
D03*
X40732D02*
D03*
X40890D02*
D03*
X41047D02*
D03*
X41205D02*
D03*
Y20568D02*
D03*
X41047D02*
D03*
X40890D02*
D03*
X40732D02*
D03*
X40575D02*
D03*
X40417D02*
D03*
X50386Y27355D02*
D03*
X50543D02*
D03*
X50701D02*
D03*
X50858D02*
D03*
X51016D02*
D03*
X51173D02*
D03*
Y28568D02*
D03*
X51016D02*
D03*
X50858D02*
D03*
X50701D02*
D03*
X50543D02*
D03*
X50386D02*
D03*
X53386Y19355D02*
D03*
X53543D02*
D03*
X53701D02*
D03*
X53858D02*
D03*
X54016D02*
D03*
X54173D02*
D03*
Y20568D02*
D03*
X54016D02*
D03*
X53858D02*
D03*
X53701D02*
D03*
X53543D02*
D03*
X53386D02*
D03*
X11480Y38343D02*
D03*
X11638D02*
D03*
X11795D02*
D03*
X11953D02*
D03*
X12110D02*
D03*
X12268D02*
D03*
Y39555D02*
D03*
X12110D02*
D03*
X11953D02*
D03*
X11795D02*
D03*
X11638D02*
D03*
X11480D02*
D03*
X14480Y30343D02*
D03*
X14638D02*
D03*
X14795D02*
D03*
X14953D02*
D03*
X15110D02*
D03*
X15268D02*
D03*
Y31555D02*
D03*
X15110D02*
D03*
X14953D02*
D03*
X14795D02*
D03*
X14638D02*
D03*
X14480D02*
D03*
X24449Y38343D02*
D03*
X24606D02*
D03*
X24764D02*
D03*
X24921D02*
D03*
X25079D02*
D03*
X25236D02*
D03*
Y39555D02*
D03*
X25079D02*
D03*
X24921D02*
D03*
X24764D02*
D03*
X24606D02*
D03*
X24449D02*
D03*
X27449Y30343D02*
D03*
X27606D02*
D03*
X27764D02*
D03*
X27921D02*
D03*
X28079D02*
D03*
X28236D02*
D03*
Y31555D02*
D03*
X28079D02*
D03*
X27921D02*
D03*
X27764D02*
D03*
X27606D02*
D03*
X27449D02*
D03*
X37417Y38343D02*
D03*
X37575D02*
D03*
X37732D02*
D03*
X37890D02*
D03*
X38047D02*
D03*
X38205D02*
D03*
Y39555D02*
D03*
X38047D02*
D03*
X37890D02*
D03*
X37732D02*
D03*
X37575D02*
D03*
X37417D02*
D03*
X40417Y30343D02*
D03*
X40575D02*
D03*
X40732D02*
D03*
X40890D02*
D03*
X41047D02*
D03*
X41205D02*
D03*
Y31555D02*
D03*
X41047D02*
D03*
X40890D02*
D03*
X40732D02*
D03*
X40575D02*
D03*
X40417D02*
D03*
X50386Y38343D02*
D03*
X50543D02*
D03*
X50701D02*
D03*
X50858D02*
D03*
X51016D02*
D03*
X51173D02*
D03*
Y39555D02*
D03*
X51016D02*
D03*
X50858D02*
D03*
X50701D02*
D03*
X50543D02*
D03*
X50386D02*
D03*
X53386Y30343D02*
D03*
X53543D02*
D03*
X53701D02*
D03*
X53858D02*
D03*
X54016D02*
D03*
X54173D02*
D03*
Y31555D02*
D03*
X54016D02*
D03*
X53858D02*
D03*
X53701D02*
D03*
X53543D02*
D03*
X53386D02*
D03*
X11480Y49330D02*
D03*
X11638D02*
D03*
X11795D02*
D03*
X11953D02*
D03*
X12110D02*
D03*
X12268D02*
D03*
Y50543D02*
D03*
X12110D02*
D03*
X11953D02*
D03*
X11795D02*
D03*
X11638D02*
D03*
X11480D02*
D03*
X14480Y41330D02*
D03*
X14638D02*
D03*
X14795D02*
D03*
X14953D02*
D03*
X15110D02*
D03*
X15268D02*
D03*
Y42543D02*
D03*
X15110D02*
D03*
X14953D02*
D03*
X14795D02*
D03*
X14638D02*
D03*
X14480D02*
D03*
X24449Y49330D02*
D03*
X24606D02*
D03*
X24764D02*
D03*
X24921D02*
D03*
X25079D02*
D03*
X25236D02*
D03*
Y50543D02*
D03*
X25079D02*
D03*
X24921D02*
D03*
X24764D02*
D03*
X24606D02*
D03*
X24449D02*
D03*
X27449Y41330D02*
D03*
X27606D02*
D03*
X27764D02*
D03*
X27921D02*
D03*
X28079D02*
D03*
X28236D02*
D03*
Y42543D02*
D03*
X28079D02*
D03*
X27921D02*
D03*
X27764D02*
D03*
X27606D02*
D03*
X27449D02*
D03*
X37417Y49330D02*
D03*
X37575D02*
D03*
X37732D02*
D03*
X37890D02*
D03*
X38047D02*
D03*
X38205D02*
D03*
Y50543D02*
D03*
X38047D02*
D03*
X37890D02*
D03*
X37732D02*
D03*
X37575D02*
D03*
X37417D02*
D03*
X40417Y41330D02*
D03*
X40575D02*
D03*
X40732D02*
D03*
X40890D02*
D03*
X41047D02*
D03*
X41205D02*
D03*
Y42543D02*
D03*
X41047D02*
D03*
X40890D02*
D03*
X40732D02*
D03*
X40575D02*
D03*
X40417D02*
D03*
X50386Y49330D02*
D03*
X50543D02*
D03*
X50701D02*
D03*
X50858D02*
D03*
X51016D02*
D03*
X51173D02*
D03*
Y50543D02*
D03*
X51016D02*
D03*
X50858D02*
D03*
X50701D02*
D03*
X50543D02*
D03*
X50386D02*
D03*
X53386Y41330D02*
D03*
X53543D02*
D03*
X53701D02*
D03*
X53858D02*
D03*
X54016D02*
D03*
X54173D02*
D03*
Y42543D02*
D03*
X54016D02*
D03*
X53858D02*
D03*
X53701D02*
D03*
X53543D02*
D03*
X53386D02*
D03*
X11480Y60317D02*
D03*
X11638D02*
D03*
X11795D02*
D03*
X11953D02*
D03*
X12110D02*
D03*
X12268D02*
D03*
Y61530D02*
D03*
X12110D02*
D03*
X11953D02*
D03*
X11795D02*
D03*
X11638D02*
D03*
X11480D02*
D03*
X14480Y52317D02*
D03*
X14638D02*
D03*
X14795D02*
D03*
X14953D02*
D03*
X15110D02*
D03*
X15268D02*
D03*
Y53530D02*
D03*
X15110D02*
D03*
X14953D02*
D03*
X14795D02*
D03*
X14638D02*
D03*
X14480D02*
D03*
X24449Y60317D02*
D03*
X24606D02*
D03*
X24764D02*
D03*
X24921D02*
D03*
X25079D02*
D03*
X25236D02*
D03*
Y61530D02*
D03*
X25079D02*
D03*
X24921D02*
D03*
X24764D02*
D03*
X24606D02*
D03*
X24449D02*
D03*
X27449Y52317D02*
D03*
X27606D02*
D03*
X27764D02*
D03*
X27921D02*
D03*
X28079D02*
D03*
X28236D02*
D03*
Y53530D02*
D03*
X28079D02*
D03*
X27921D02*
D03*
X27764D02*
D03*
X27606D02*
D03*
X27449D02*
D03*
X37417Y60317D02*
D03*
X37575D02*
D03*
X37732D02*
D03*
X37890D02*
D03*
X38047D02*
D03*
X38205D02*
D03*
Y61530D02*
D03*
X38047D02*
D03*
X37890D02*
D03*
X37732D02*
D03*
X37575D02*
D03*
X37417D02*
D03*
X40417Y52317D02*
D03*
X40575D02*
D03*
X40732D02*
D03*
X40890D02*
D03*
X41047D02*
D03*
X41205D02*
D03*
Y53530D02*
D03*
X41047D02*
D03*
X40890D02*
D03*
X40732D02*
D03*
X40575D02*
D03*
X40417D02*
D03*
X50386Y60317D02*
D03*
X50543D02*
D03*
X50701D02*
D03*
X50858D02*
D03*
X51016D02*
D03*
X51173D02*
D03*
Y61530D02*
D03*
X51016D02*
D03*
X50858D02*
D03*
X50701D02*
D03*
X50543D02*
D03*
X50386D02*
D03*
X53386Y52317D02*
D03*
X53543D02*
D03*
X53701D02*
D03*
X53858D02*
D03*
X54016D02*
D03*
X54173D02*
D03*
Y53530D02*
D03*
X54016D02*
D03*
X53858D02*
D03*
X53701D02*
D03*
X53543D02*
D03*
X53386D02*
D03*
X11480Y71305D02*
D03*
X11638D02*
D03*
X11795D02*
D03*
X11953D02*
D03*
X12110D02*
D03*
X12268D02*
D03*
Y72517D02*
D03*
X12110D02*
D03*
X11953D02*
D03*
X11795D02*
D03*
X11638D02*
D03*
X11480D02*
D03*
X14480Y63305D02*
D03*
X14638D02*
D03*
X14795D02*
D03*
X14953D02*
D03*
X15110D02*
D03*
X15268D02*
D03*
Y64517D02*
D03*
X15110D02*
D03*
X14953D02*
D03*
X14795D02*
D03*
X14638D02*
D03*
X14480D02*
D03*
X24449Y71305D02*
D03*
X24606D02*
D03*
X24764D02*
D03*
X24921D02*
D03*
X25079D02*
D03*
X25236D02*
D03*
Y72517D02*
D03*
X25079D02*
D03*
X24921D02*
D03*
X24764D02*
D03*
X24606D02*
D03*
X24449D02*
D03*
X27449Y63305D02*
D03*
X27606D02*
D03*
X27764D02*
D03*
X27921D02*
D03*
X28079D02*
D03*
X28236D02*
D03*
Y64517D02*
D03*
X28079D02*
D03*
X27921D02*
D03*
X27764D02*
D03*
X27606D02*
D03*
X27449D02*
D03*
X37417Y71305D02*
D03*
X37575D02*
D03*
X37732D02*
D03*
X37890D02*
D03*
X38047D02*
D03*
X38205D02*
D03*
Y72517D02*
D03*
X38047D02*
D03*
X37890D02*
D03*
X37732D02*
D03*
X37575D02*
D03*
X37417D02*
D03*
X40417Y63305D02*
D03*
X40575D02*
D03*
X40732D02*
D03*
X40890D02*
D03*
X41047D02*
D03*
X41205D02*
D03*
Y64517D02*
D03*
X41047D02*
D03*
X40890D02*
D03*
X40732D02*
D03*
X40575D02*
D03*
X40417D02*
D03*
X50386Y71305D02*
D03*
X50543D02*
D03*
X50701D02*
D03*
X50858D02*
D03*
X51016D02*
D03*
X51173D02*
D03*
Y72517D02*
D03*
X51016D02*
D03*
X50858D02*
D03*
X50701D02*
D03*
X50543D02*
D03*
X50386D02*
D03*
X53386Y63305D02*
D03*
X53543D02*
D03*
X53701D02*
D03*
X53858D02*
D03*
X54016D02*
D03*
X54173D02*
D03*
Y64517D02*
D03*
X54016D02*
D03*
X53858D02*
D03*
X53701D02*
D03*
X53543D02*
D03*
X53386D02*
D03*
D18*
X11008Y17580D02*
D03*
Y16368D02*
D03*
X12740Y17580D02*
D03*
Y16368D02*
D03*
X14008Y9580D02*
D03*
Y8368D02*
D03*
X15740Y9580D02*
D03*
Y8368D02*
D03*
X23976Y17580D02*
D03*
Y16368D02*
D03*
X25709Y17580D02*
D03*
Y16368D02*
D03*
X26976Y9580D02*
D03*
Y8368D02*
D03*
X28709Y9580D02*
D03*
Y8368D02*
D03*
X36945Y17580D02*
D03*
Y16368D02*
D03*
X38677Y17580D02*
D03*
Y16368D02*
D03*
X39945Y9580D02*
D03*
Y8368D02*
D03*
X41677Y9580D02*
D03*
Y8368D02*
D03*
X49913Y17580D02*
D03*
Y16368D02*
D03*
X51646Y17580D02*
D03*
Y16368D02*
D03*
X52913Y9580D02*
D03*
Y8368D02*
D03*
X54646Y9580D02*
D03*
Y8368D02*
D03*
X11008Y28568D02*
D03*
Y27355D02*
D03*
X12740Y28568D02*
D03*
Y27355D02*
D03*
X14008Y20568D02*
D03*
Y19355D02*
D03*
X15740Y20568D02*
D03*
Y19355D02*
D03*
X23976Y28568D02*
D03*
Y27355D02*
D03*
X25709Y28568D02*
D03*
Y27355D02*
D03*
X26976Y20568D02*
D03*
Y19355D02*
D03*
X28709Y20568D02*
D03*
Y19355D02*
D03*
X36945Y28568D02*
D03*
Y27355D02*
D03*
X38677Y28568D02*
D03*
Y27355D02*
D03*
X39945Y20568D02*
D03*
Y19355D02*
D03*
X41677Y20568D02*
D03*
Y19355D02*
D03*
X49913Y28568D02*
D03*
Y27355D02*
D03*
X51646Y28568D02*
D03*
Y27355D02*
D03*
X52913Y20568D02*
D03*
Y19355D02*
D03*
X54646Y20568D02*
D03*
Y19355D02*
D03*
X11008Y39555D02*
D03*
Y38343D02*
D03*
X12740Y39555D02*
D03*
Y38343D02*
D03*
X14008Y31555D02*
D03*
Y30343D02*
D03*
X15740Y31555D02*
D03*
Y30343D02*
D03*
X23976Y39555D02*
D03*
Y38343D02*
D03*
X25709Y39555D02*
D03*
Y38343D02*
D03*
X26976Y31555D02*
D03*
Y30343D02*
D03*
X28709Y31555D02*
D03*
Y30343D02*
D03*
X36945Y39555D02*
D03*
Y38343D02*
D03*
X38677Y39555D02*
D03*
Y38343D02*
D03*
X39945Y31555D02*
D03*
Y30343D02*
D03*
X41677Y31555D02*
D03*
Y30343D02*
D03*
X49913Y39555D02*
D03*
Y38343D02*
D03*
X51646Y39555D02*
D03*
Y38343D02*
D03*
X52913Y31555D02*
D03*
Y30343D02*
D03*
X54646Y31555D02*
D03*
Y30343D02*
D03*
X11008Y50543D02*
D03*
Y49330D02*
D03*
X12740Y50543D02*
D03*
Y49330D02*
D03*
X14008Y42543D02*
D03*
Y41330D02*
D03*
X15740Y42543D02*
D03*
Y41330D02*
D03*
X23976Y50543D02*
D03*
Y49330D02*
D03*
X25709Y50543D02*
D03*
Y49330D02*
D03*
X26976Y42543D02*
D03*
Y41330D02*
D03*
X28709Y42543D02*
D03*
Y41330D02*
D03*
X36945Y50543D02*
D03*
Y49330D02*
D03*
X38677Y50543D02*
D03*
Y49330D02*
D03*
X39945Y42543D02*
D03*
Y41330D02*
D03*
X41677Y42543D02*
D03*
Y41330D02*
D03*
X49913Y50543D02*
D03*
Y49330D02*
D03*
X51646Y50543D02*
D03*
Y49330D02*
D03*
X52913Y42543D02*
D03*
Y41330D02*
D03*
X54646Y42543D02*
D03*
Y41330D02*
D03*
X11008Y61530D02*
D03*
Y60317D02*
D03*
X12740Y61530D02*
D03*
Y60317D02*
D03*
X14008Y53530D02*
D03*
Y52317D02*
D03*
X15740Y53530D02*
D03*
Y52317D02*
D03*
X23976Y61530D02*
D03*
Y60317D02*
D03*
X25709Y61530D02*
D03*
Y60317D02*
D03*
X26976Y53530D02*
D03*
Y52317D02*
D03*
X28709Y53530D02*
D03*
Y52317D02*
D03*
X36945Y61530D02*
D03*
Y60317D02*
D03*
X38677Y61530D02*
D03*
Y60317D02*
D03*
X39945Y53530D02*
D03*
Y52317D02*
D03*
X41677Y53530D02*
D03*
Y52317D02*
D03*
X49913Y61530D02*
D03*
Y60317D02*
D03*
X51646Y61530D02*
D03*
Y60317D02*
D03*
X52913Y53530D02*
D03*
Y52317D02*
D03*
X54646Y53530D02*
D03*
Y52317D02*
D03*
X11008Y72517D02*
D03*
Y71305D02*
D03*
X12740Y72517D02*
D03*
Y71305D02*
D03*
X14008Y64517D02*
D03*
Y63305D02*
D03*
X15740Y64517D02*
D03*
Y63305D02*
D03*
X23976Y72517D02*
D03*
Y71305D02*
D03*
X25709Y72517D02*
D03*
Y71305D02*
D03*
X26976Y64517D02*
D03*
Y63305D02*
D03*
X28709Y64517D02*
D03*
Y63305D02*
D03*
X36945Y72517D02*
D03*
Y71305D02*
D03*
X38677Y72517D02*
D03*
Y71305D02*
D03*
X39945Y64517D02*
D03*
Y63305D02*
D03*
X41677Y64517D02*
D03*
Y63305D02*
D03*
X49913Y72517D02*
D03*
Y71305D02*
D03*
X51646Y72517D02*
D03*
Y71305D02*
D03*
X52913Y64517D02*
D03*
Y63305D02*
D03*
X54646Y64517D02*
D03*
Y63305D02*
D03*
D19*
X14948Y15480D02*
D03*
Y15224D02*
D03*
Y14968D02*
D03*
X14200Y15480D02*
D03*
Y14968D02*
D03*
Y15224D02*
D03*
X27917Y15480D02*
D03*
Y15224D02*
D03*
Y14968D02*
D03*
X27169Y15480D02*
D03*
Y14968D02*
D03*
Y15224D02*
D03*
X40885Y15480D02*
D03*
Y15224D02*
D03*
Y14968D02*
D03*
X40137Y15480D02*
D03*
Y14968D02*
D03*
Y15224D02*
D03*
X53854Y15480D02*
D03*
Y15224D02*
D03*
Y14968D02*
D03*
X53106Y15480D02*
D03*
Y14968D02*
D03*
Y15224D02*
D03*
X14948Y26467D02*
D03*
Y26211D02*
D03*
Y25956D02*
D03*
X14200Y26467D02*
D03*
Y25956D02*
D03*
Y26211D02*
D03*
X27917Y26467D02*
D03*
Y26211D02*
D03*
Y25956D02*
D03*
X27169Y26467D02*
D03*
Y25956D02*
D03*
Y26211D02*
D03*
X40885Y26467D02*
D03*
Y26211D02*
D03*
Y25956D02*
D03*
X40137Y26467D02*
D03*
Y25956D02*
D03*
Y26211D02*
D03*
X53854Y26467D02*
D03*
Y26211D02*
D03*
Y25956D02*
D03*
X53106Y26467D02*
D03*
Y25956D02*
D03*
Y26211D02*
D03*
X14948Y37455D02*
D03*
Y37199D02*
D03*
Y36943D02*
D03*
X14200Y37455D02*
D03*
Y36943D02*
D03*
Y37199D02*
D03*
X27917Y37455D02*
D03*
Y37199D02*
D03*
Y36943D02*
D03*
X27169Y37455D02*
D03*
Y36943D02*
D03*
Y37199D02*
D03*
X40885Y37455D02*
D03*
Y37199D02*
D03*
Y36943D02*
D03*
X40137Y37455D02*
D03*
Y36943D02*
D03*
Y37199D02*
D03*
X53854Y37455D02*
D03*
Y37199D02*
D03*
Y36943D02*
D03*
X53106Y37455D02*
D03*
Y36943D02*
D03*
Y37199D02*
D03*
X14948Y48442D02*
D03*
Y48186D02*
D03*
Y47930D02*
D03*
X14200Y48442D02*
D03*
Y47930D02*
D03*
Y48186D02*
D03*
X27917Y48442D02*
D03*
Y48186D02*
D03*
Y47930D02*
D03*
X27169Y48442D02*
D03*
Y47930D02*
D03*
Y48186D02*
D03*
X40885Y48442D02*
D03*
Y48186D02*
D03*
Y47930D02*
D03*
X40137Y48442D02*
D03*
Y47930D02*
D03*
Y48186D02*
D03*
X53854Y48442D02*
D03*
Y48186D02*
D03*
Y47930D02*
D03*
X53106Y48442D02*
D03*
Y47930D02*
D03*
Y48186D02*
D03*
X14948Y59430D02*
D03*
Y59174D02*
D03*
Y58918D02*
D03*
X14200Y59430D02*
D03*
Y58918D02*
D03*
Y59174D02*
D03*
X27917Y59430D02*
D03*
Y59174D02*
D03*
Y58918D02*
D03*
X27169Y59430D02*
D03*
Y58918D02*
D03*
Y59174D02*
D03*
X40885Y59430D02*
D03*
Y59174D02*
D03*
Y58918D02*
D03*
X40137Y59430D02*
D03*
Y58918D02*
D03*
Y59174D02*
D03*
X53854Y59430D02*
D03*
Y59174D02*
D03*
Y58918D02*
D03*
X53106Y59430D02*
D03*
Y58918D02*
D03*
Y59174D02*
D03*
X14948Y70417D02*
D03*
Y70161D02*
D03*
Y69905D02*
D03*
X14200Y70417D02*
D03*
Y69905D02*
D03*
Y70161D02*
D03*
X27917Y70417D02*
D03*
Y70161D02*
D03*
Y69905D02*
D03*
X27169Y70417D02*
D03*
Y69905D02*
D03*
Y70161D02*
D03*
X40885Y70417D02*
D03*
Y70161D02*
D03*
Y69905D02*
D03*
X40137Y70417D02*
D03*
Y69905D02*
D03*
Y70161D02*
D03*
X53854Y70417D02*
D03*
Y70161D02*
D03*
Y69905D02*
D03*
X53106Y70417D02*
D03*
Y69905D02*
D03*
Y70161D02*
D03*
D20*
X10130Y16400D02*
D03*
X9874D02*
D03*
X9618D02*
D03*
X10130Y17148D02*
D03*
X9618D02*
D03*
X9874D02*
D03*
X23098Y16400D02*
D03*
X22843D02*
D03*
X22587D02*
D03*
X23098Y17148D02*
D03*
X22587D02*
D03*
X22843D02*
D03*
X36067Y16400D02*
D03*
X35811D02*
D03*
X35555D02*
D03*
X36067Y17148D02*
D03*
X35555D02*
D03*
X35811D02*
D03*
X49035Y16400D02*
D03*
X48780D02*
D03*
X48524D02*
D03*
X49035Y17148D02*
D03*
X48524D02*
D03*
X48780D02*
D03*
X10130Y27387D02*
D03*
X9874D02*
D03*
X9618D02*
D03*
X10130Y28135D02*
D03*
X9618D02*
D03*
X9874D02*
D03*
X23098Y27387D02*
D03*
X22843D02*
D03*
X22587D02*
D03*
X23098Y28135D02*
D03*
X22587D02*
D03*
X22843D02*
D03*
X36067Y27387D02*
D03*
X35811D02*
D03*
X35555D02*
D03*
X36067Y28135D02*
D03*
X35555D02*
D03*
X35811D02*
D03*
X49035Y27387D02*
D03*
X48780D02*
D03*
X48524D02*
D03*
X49035Y28135D02*
D03*
X48524D02*
D03*
X48780D02*
D03*
X10130Y38375D02*
D03*
X9874D02*
D03*
X9618D02*
D03*
X10130Y39123D02*
D03*
X9618D02*
D03*
X9874D02*
D03*
X23098Y38375D02*
D03*
X22843D02*
D03*
X22587D02*
D03*
X23098Y39123D02*
D03*
X22587D02*
D03*
X22843D02*
D03*
X36067Y38375D02*
D03*
X35811D02*
D03*
X35555D02*
D03*
X36067Y39123D02*
D03*
X35555D02*
D03*
X35811D02*
D03*
X49035Y38375D02*
D03*
X48780D02*
D03*
X48524D02*
D03*
X49035Y39123D02*
D03*
X48524D02*
D03*
X48780D02*
D03*
X10130Y49362D02*
D03*
X9874D02*
D03*
X9618D02*
D03*
X10130Y50110D02*
D03*
X9618D02*
D03*
X9874D02*
D03*
X23098Y49362D02*
D03*
X22843D02*
D03*
X22587D02*
D03*
X23098Y50110D02*
D03*
X22587D02*
D03*
X22843D02*
D03*
X36067Y49362D02*
D03*
X35811D02*
D03*
X35555D02*
D03*
X36067Y50110D02*
D03*
X35555D02*
D03*
X35811D02*
D03*
X49035Y49362D02*
D03*
X48780D02*
D03*
X48524D02*
D03*
X49035Y50110D02*
D03*
X48524D02*
D03*
X48780D02*
D03*
X10130Y60350D02*
D03*
X9874D02*
D03*
X9618D02*
D03*
X10130Y61098D02*
D03*
X9618D02*
D03*
X9874D02*
D03*
X23098Y60350D02*
D03*
X22843D02*
D03*
X22587D02*
D03*
X23098Y61098D02*
D03*
X22587D02*
D03*
X22843D02*
D03*
X36067Y60350D02*
D03*
X35811D02*
D03*
X35555D02*
D03*
X36067Y61098D02*
D03*
X35555D02*
D03*
X35811D02*
D03*
X49035Y60350D02*
D03*
X48780D02*
D03*
X48524D02*
D03*
X49035Y61098D02*
D03*
X48524D02*
D03*
X48780D02*
D03*
X10130Y71337D02*
D03*
X9874D02*
D03*
X9618D02*
D03*
X10130Y72085D02*
D03*
X9618D02*
D03*
X9874D02*
D03*
X23098Y71337D02*
D03*
X22843D02*
D03*
X22587D02*
D03*
X23098Y72085D02*
D03*
X22587D02*
D03*
X22843D02*
D03*
X36067Y71337D02*
D03*
X35811D02*
D03*
X35555D02*
D03*
X36067Y72085D02*
D03*
X35555D02*
D03*
X35811D02*
D03*
X49035Y71337D02*
D03*
X48780D02*
D03*
X48524D02*
D03*
X49035Y72085D02*
D03*
X48524D02*
D03*
X48780D02*
D03*
D21*
X13551Y16674D02*
D03*
X13197D02*
D03*
Y15874D02*
D03*
X13551D02*
D03*
X13197Y16274D02*
D03*
X13551D02*
D03*
X11947Y10874D02*
D03*
X12301D02*
D03*
X11347Y14324D02*
D03*
X11701D02*
D03*
X14097Y15874D02*
D03*
X14451D02*
D03*
X10051Y17574D02*
D03*
X9697D02*
D03*
X14097Y14574D02*
D03*
X14451D02*
D03*
X26520Y16674D02*
D03*
X26165D02*
D03*
Y15874D02*
D03*
X26520D02*
D03*
X26165Y16274D02*
D03*
X26520D02*
D03*
X24915Y10874D02*
D03*
X25270D02*
D03*
X24315Y14324D02*
D03*
X24670D02*
D03*
X27065Y15874D02*
D03*
X27420D02*
D03*
X23020Y17574D02*
D03*
X22665D02*
D03*
X27065Y14574D02*
D03*
X27420D02*
D03*
X39488Y16674D02*
D03*
X39134D02*
D03*
Y15874D02*
D03*
X39488D02*
D03*
X39134Y16274D02*
D03*
X39488D02*
D03*
X37884Y10874D02*
D03*
X38238D02*
D03*
X37284Y14324D02*
D03*
X37638D02*
D03*
X40034Y15874D02*
D03*
X40388D02*
D03*
X35988Y17574D02*
D03*
X35634D02*
D03*
X40034Y14574D02*
D03*
X40388D02*
D03*
X52457Y16674D02*
D03*
X52102D02*
D03*
Y15874D02*
D03*
X52457D02*
D03*
X52102Y16274D02*
D03*
X52457D02*
D03*
X50852Y10874D02*
D03*
X51207D02*
D03*
X50252Y14324D02*
D03*
X50607D02*
D03*
X53002Y15874D02*
D03*
X53357D02*
D03*
X48957Y17574D02*
D03*
X48602D02*
D03*
X53002Y14574D02*
D03*
X53357D02*
D03*
X13551Y27661D02*
D03*
X13197D02*
D03*
Y26861D02*
D03*
X13551D02*
D03*
X13197Y27261D02*
D03*
X13551D02*
D03*
X11947Y21861D02*
D03*
X12301D02*
D03*
X11347Y25311D02*
D03*
X11701D02*
D03*
X14097Y26861D02*
D03*
X14451D02*
D03*
X10051Y28561D02*
D03*
X9697D02*
D03*
X14097Y25561D02*
D03*
X14451D02*
D03*
X26520Y27661D02*
D03*
X26165D02*
D03*
Y26861D02*
D03*
X26520D02*
D03*
X26165Y27261D02*
D03*
X26520D02*
D03*
X24915Y21861D02*
D03*
X25270D02*
D03*
X24315Y25311D02*
D03*
X24670D02*
D03*
X27065Y26861D02*
D03*
X27420D02*
D03*
X23020Y28561D02*
D03*
X22665D02*
D03*
X27065Y25561D02*
D03*
X27420D02*
D03*
X39488Y27661D02*
D03*
X39134D02*
D03*
Y26861D02*
D03*
X39488D02*
D03*
X39134Y27261D02*
D03*
X39488D02*
D03*
X37884Y21861D02*
D03*
X38238D02*
D03*
X37284Y25311D02*
D03*
X37638D02*
D03*
X40034Y26861D02*
D03*
X40388D02*
D03*
X35988Y28561D02*
D03*
X35634D02*
D03*
X40034Y25561D02*
D03*
X40388D02*
D03*
X52457Y27661D02*
D03*
X52102D02*
D03*
Y26861D02*
D03*
X52457D02*
D03*
X52102Y27261D02*
D03*
X52457D02*
D03*
X50852Y21861D02*
D03*
X51207D02*
D03*
X50252Y25311D02*
D03*
X50607D02*
D03*
X53002Y26861D02*
D03*
X53357D02*
D03*
X48957Y28561D02*
D03*
X48602D02*
D03*
X53002Y25561D02*
D03*
X53357D02*
D03*
X13551Y38649D02*
D03*
X13197D02*
D03*
Y37849D02*
D03*
X13551D02*
D03*
X13197Y38249D02*
D03*
X13551D02*
D03*
X11947Y32849D02*
D03*
X12301D02*
D03*
X11347Y36299D02*
D03*
X11701D02*
D03*
X14097Y37849D02*
D03*
X14451D02*
D03*
X10051Y39549D02*
D03*
X9697D02*
D03*
X14097Y36549D02*
D03*
X14451D02*
D03*
X26520Y38649D02*
D03*
X26165D02*
D03*
Y37849D02*
D03*
X26520D02*
D03*
X26165Y38249D02*
D03*
X26520D02*
D03*
X24915Y32849D02*
D03*
X25270D02*
D03*
X24315Y36299D02*
D03*
X24670D02*
D03*
X27065Y37849D02*
D03*
X27420D02*
D03*
X23020Y39549D02*
D03*
X22665D02*
D03*
X27065Y36549D02*
D03*
X27420D02*
D03*
X39488Y38649D02*
D03*
X39134D02*
D03*
Y37849D02*
D03*
X39488D02*
D03*
X39134Y38249D02*
D03*
X39488D02*
D03*
X37884Y32849D02*
D03*
X38238D02*
D03*
X37284Y36299D02*
D03*
X37638D02*
D03*
X40034Y37849D02*
D03*
X40388D02*
D03*
X35988Y39549D02*
D03*
X35634D02*
D03*
X40034Y36549D02*
D03*
X40388D02*
D03*
X52457Y38649D02*
D03*
X52102D02*
D03*
Y37849D02*
D03*
X52457D02*
D03*
X52102Y38249D02*
D03*
X52457D02*
D03*
X50852Y32849D02*
D03*
X51207D02*
D03*
X50252Y36299D02*
D03*
X50607D02*
D03*
X53002Y37849D02*
D03*
X53357D02*
D03*
X48957Y39549D02*
D03*
X48602D02*
D03*
X53002Y36549D02*
D03*
X53357D02*
D03*
X13551Y49636D02*
D03*
X13197D02*
D03*
Y48836D02*
D03*
X13551D02*
D03*
X13197Y49236D02*
D03*
X13551D02*
D03*
X11947Y43836D02*
D03*
X12301D02*
D03*
X11347Y47286D02*
D03*
X11701D02*
D03*
X14097Y48836D02*
D03*
X14451D02*
D03*
X10051Y50536D02*
D03*
X9697D02*
D03*
X14097Y47536D02*
D03*
X14451D02*
D03*
X26520Y49636D02*
D03*
X26165D02*
D03*
Y48836D02*
D03*
X26520D02*
D03*
X26165Y49236D02*
D03*
X26520D02*
D03*
X24915Y43836D02*
D03*
X25270D02*
D03*
X24315Y47286D02*
D03*
X24670D02*
D03*
X27065Y48836D02*
D03*
X27420D02*
D03*
X23020Y50536D02*
D03*
X22665D02*
D03*
X27065Y47536D02*
D03*
X27420D02*
D03*
X39488Y49636D02*
D03*
X39134D02*
D03*
Y48836D02*
D03*
X39488D02*
D03*
X39134Y49236D02*
D03*
X39488D02*
D03*
X37884Y43836D02*
D03*
X38238D02*
D03*
X37284Y47286D02*
D03*
X37638D02*
D03*
X40034Y48836D02*
D03*
X40388D02*
D03*
X35988Y50536D02*
D03*
X35634D02*
D03*
X40034Y47536D02*
D03*
X40388D02*
D03*
X52457Y49636D02*
D03*
X52102D02*
D03*
Y48836D02*
D03*
X52457D02*
D03*
X52102Y49236D02*
D03*
X52457D02*
D03*
X50852Y43836D02*
D03*
X51207D02*
D03*
X50252Y47286D02*
D03*
X50607D02*
D03*
X53002Y48836D02*
D03*
X53357D02*
D03*
X48957Y50536D02*
D03*
X48602D02*
D03*
X53002Y47536D02*
D03*
X53357D02*
D03*
X13551Y60624D02*
D03*
X13197D02*
D03*
Y59824D02*
D03*
X13551D02*
D03*
X13197Y60224D02*
D03*
X13551D02*
D03*
X11947Y54824D02*
D03*
X12301D02*
D03*
X11347Y58274D02*
D03*
X11701D02*
D03*
X14097Y59824D02*
D03*
X14451D02*
D03*
X10051Y61524D02*
D03*
X9697D02*
D03*
X14097Y58524D02*
D03*
X14451D02*
D03*
X26520Y60624D02*
D03*
X26165D02*
D03*
Y59824D02*
D03*
X26520D02*
D03*
X26165Y60224D02*
D03*
X26520D02*
D03*
X24915Y54824D02*
D03*
X25270D02*
D03*
X24315Y58274D02*
D03*
X24670D02*
D03*
X27065Y59824D02*
D03*
X27420D02*
D03*
X23020Y61524D02*
D03*
X22665D02*
D03*
X27065Y58524D02*
D03*
X27420D02*
D03*
X39488Y60624D02*
D03*
X39134D02*
D03*
Y59824D02*
D03*
X39488D02*
D03*
X39134Y60224D02*
D03*
X39488D02*
D03*
X37884Y54824D02*
D03*
X38238D02*
D03*
X37284Y58274D02*
D03*
X37638D02*
D03*
X40034Y59824D02*
D03*
X40388D02*
D03*
X35988Y61524D02*
D03*
X35634D02*
D03*
X40034Y58524D02*
D03*
X40388D02*
D03*
X52457Y60624D02*
D03*
X52102D02*
D03*
Y59824D02*
D03*
X52457D02*
D03*
X52102Y60224D02*
D03*
X52457D02*
D03*
X50852Y54824D02*
D03*
X51207D02*
D03*
X50252Y58274D02*
D03*
X50607D02*
D03*
X53002Y59824D02*
D03*
X53357D02*
D03*
X48957Y61524D02*
D03*
X48602D02*
D03*
X53002Y58524D02*
D03*
X53357D02*
D03*
X13551Y71611D02*
D03*
X13197D02*
D03*
Y70811D02*
D03*
X13551D02*
D03*
X13197Y71211D02*
D03*
X13551D02*
D03*
X11947Y65811D02*
D03*
X12301D02*
D03*
X11347Y69261D02*
D03*
X11701D02*
D03*
X14097Y70811D02*
D03*
X14451D02*
D03*
X10051Y72511D02*
D03*
X9697D02*
D03*
X14097Y69511D02*
D03*
X14451D02*
D03*
X26520Y71611D02*
D03*
X26165D02*
D03*
Y70811D02*
D03*
X26520D02*
D03*
X26165Y71211D02*
D03*
X26520D02*
D03*
X24915Y65811D02*
D03*
X25270D02*
D03*
X24315Y69261D02*
D03*
X24670D02*
D03*
X27065Y70811D02*
D03*
X27420D02*
D03*
X23020Y72511D02*
D03*
X22665D02*
D03*
X27065Y69511D02*
D03*
X27420D02*
D03*
X39488Y71611D02*
D03*
X39134D02*
D03*
Y70811D02*
D03*
X39488D02*
D03*
X39134Y71211D02*
D03*
X39488D02*
D03*
X37884Y65811D02*
D03*
X38238D02*
D03*
X37284Y69261D02*
D03*
X37638D02*
D03*
X40034Y70811D02*
D03*
X40388D02*
D03*
X35988Y72511D02*
D03*
X35634D02*
D03*
X40034Y69511D02*
D03*
X40388D02*
D03*
X52457Y71611D02*
D03*
X52102D02*
D03*
Y70811D02*
D03*
X52457D02*
D03*
X52102Y71211D02*
D03*
X52457D02*
D03*
X50852Y65811D02*
D03*
X51207D02*
D03*
X50252Y69261D02*
D03*
X50607D02*
D03*
X53002Y70811D02*
D03*
X53357D02*
D03*
X48957Y72511D02*
D03*
X48602D02*
D03*
X53002Y69511D02*
D03*
X53357D02*
D03*
D22*
X13974Y11619D02*
D03*
Y11029D02*
D03*
X26943Y11619D02*
D03*
Y11029D02*
D03*
X39911Y11619D02*
D03*
Y11029D02*
D03*
X52880Y11619D02*
D03*
Y11029D02*
D03*
X13974Y22607D02*
D03*
Y22016D02*
D03*
X26943Y22607D02*
D03*
Y22016D02*
D03*
X39911Y22607D02*
D03*
Y22016D02*
D03*
X52880Y22607D02*
D03*
Y22016D02*
D03*
X13974Y33594D02*
D03*
Y33004D02*
D03*
X26943Y33594D02*
D03*
Y33004D02*
D03*
X39911Y33594D02*
D03*
Y33004D02*
D03*
X52880Y33594D02*
D03*
Y33004D02*
D03*
X13974Y44581D02*
D03*
Y43991D02*
D03*
X26943Y44581D02*
D03*
Y43991D02*
D03*
X39911Y44581D02*
D03*
Y43991D02*
D03*
X52880Y44581D02*
D03*
Y43991D02*
D03*
X13974Y55569D02*
D03*
Y54978D02*
D03*
X26943Y55569D02*
D03*
Y54978D02*
D03*
X39911Y55569D02*
D03*
Y54978D02*
D03*
X52880Y55569D02*
D03*
Y54978D02*
D03*
X13974Y66556D02*
D03*
Y65966D02*
D03*
X26943Y66556D02*
D03*
Y65966D02*
D03*
X39911Y66556D02*
D03*
Y65966D02*
D03*
X52880Y66556D02*
D03*
Y65966D02*
D03*
D23*
X12440Y15040D02*
D03*
Y15296D02*
D03*
Y15552D02*
D03*
Y15808D02*
D03*
X10708Y15040D02*
D03*
Y15296D02*
D03*
Y15552D02*
D03*
Y15808D02*
D03*
X14608Y11558D02*
D03*
Y11302D02*
D03*
Y11046D02*
D03*
Y10790D02*
D03*
X16340Y11558D02*
D03*
Y11302D02*
D03*
Y11046D02*
D03*
Y10790D02*
D03*
X25409Y15040D02*
D03*
Y15296D02*
D03*
Y15552D02*
D03*
Y15808D02*
D03*
X23676Y15040D02*
D03*
Y15296D02*
D03*
Y15552D02*
D03*
Y15808D02*
D03*
X27576Y11558D02*
D03*
Y11302D02*
D03*
Y11046D02*
D03*
Y10790D02*
D03*
X29309Y11558D02*
D03*
Y11302D02*
D03*
Y11046D02*
D03*
Y10790D02*
D03*
X38377Y15040D02*
D03*
Y15296D02*
D03*
Y15552D02*
D03*
Y15808D02*
D03*
X36645Y15040D02*
D03*
Y15296D02*
D03*
Y15552D02*
D03*
Y15808D02*
D03*
X40545Y11558D02*
D03*
Y11302D02*
D03*
Y11046D02*
D03*
Y10790D02*
D03*
X42277Y11558D02*
D03*
Y11302D02*
D03*
Y11046D02*
D03*
Y10790D02*
D03*
X51346Y15040D02*
D03*
Y15296D02*
D03*
Y15552D02*
D03*
Y15808D02*
D03*
X49613Y15040D02*
D03*
Y15296D02*
D03*
Y15552D02*
D03*
Y15808D02*
D03*
X53513Y11558D02*
D03*
Y11302D02*
D03*
Y11046D02*
D03*
Y10790D02*
D03*
X55246Y11558D02*
D03*
Y11302D02*
D03*
Y11046D02*
D03*
Y10790D02*
D03*
X12440Y26028D02*
D03*
Y26283D02*
D03*
Y26539D02*
D03*
Y26795D02*
D03*
X10708Y26028D02*
D03*
Y26283D02*
D03*
Y26539D02*
D03*
Y26795D02*
D03*
X14608Y22545D02*
D03*
Y22289D02*
D03*
Y22033D02*
D03*
Y21778D02*
D03*
X16340Y22545D02*
D03*
Y22289D02*
D03*
Y22033D02*
D03*
Y21778D02*
D03*
X25409Y26028D02*
D03*
Y26283D02*
D03*
Y26539D02*
D03*
Y26795D02*
D03*
X23676Y26028D02*
D03*
Y26283D02*
D03*
Y26539D02*
D03*
Y26795D02*
D03*
X27576Y22545D02*
D03*
Y22289D02*
D03*
Y22033D02*
D03*
Y21778D02*
D03*
X29309Y22545D02*
D03*
Y22289D02*
D03*
Y22033D02*
D03*
Y21778D02*
D03*
X38377Y26028D02*
D03*
Y26283D02*
D03*
Y26539D02*
D03*
Y26795D02*
D03*
X36645Y26028D02*
D03*
Y26283D02*
D03*
Y26539D02*
D03*
Y26795D02*
D03*
X40545Y22545D02*
D03*
Y22289D02*
D03*
Y22033D02*
D03*
Y21778D02*
D03*
X42277Y22545D02*
D03*
Y22289D02*
D03*
Y22033D02*
D03*
Y21778D02*
D03*
X51346Y26028D02*
D03*
Y26283D02*
D03*
Y26539D02*
D03*
Y26795D02*
D03*
X49613Y26028D02*
D03*
Y26283D02*
D03*
Y26539D02*
D03*
Y26795D02*
D03*
X53513Y22545D02*
D03*
Y22289D02*
D03*
Y22033D02*
D03*
Y21778D02*
D03*
X55246Y22545D02*
D03*
Y22289D02*
D03*
Y22033D02*
D03*
Y21778D02*
D03*
X12440Y37015D02*
D03*
Y37271D02*
D03*
Y37527D02*
D03*
Y37783D02*
D03*
X10708Y37015D02*
D03*
Y37271D02*
D03*
Y37527D02*
D03*
Y37783D02*
D03*
X14608Y33533D02*
D03*
Y33277D02*
D03*
Y33021D02*
D03*
Y32765D02*
D03*
X16340Y33533D02*
D03*
Y33277D02*
D03*
Y33021D02*
D03*
Y32765D02*
D03*
X25409Y37015D02*
D03*
Y37271D02*
D03*
Y37527D02*
D03*
Y37783D02*
D03*
X23676Y37015D02*
D03*
Y37271D02*
D03*
Y37527D02*
D03*
Y37783D02*
D03*
X27576Y33533D02*
D03*
Y33277D02*
D03*
Y33021D02*
D03*
Y32765D02*
D03*
X29309Y33533D02*
D03*
Y33277D02*
D03*
Y33021D02*
D03*
Y32765D02*
D03*
X38377Y37015D02*
D03*
Y37271D02*
D03*
Y37527D02*
D03*
Y37783D02*
D03*
X36645Y37015D02*
D03*
Y37271D02*
D03*
Y37527D02*
D03*
Y37783D02*
D03*
X40545Y33533D02*
D03*
Y33277D02*
D03*
Y33021D02*
D03*
Y32765D02*
D03*
X42277Y33533D02*
D03*
Y33277D02*
D03*
Y33021D02*
D03*
Y32765D02*
D03*
X51346Y37015D02*
D03*
Y37271D02*
D03*
Y37527D02*
D03*
Y37783D02*
D03*
X49613Y37015D02*
D03*
Y37271D02*
D03*
Y37527D02*
D03*
Y37783D02*
D03*
X53513Y33533D02*
D03*
Y33277D02*
D03*
Y33021D02*
D03*
Y32765D02*
D03*
X55246Y33533D02*
D03*
Y33277D02*
D03*
Y33021D02*
D03*
Y32765D02*
D03*
X12440Y48002D02*
D03*
Y48258D02*
D03*
Y48514D02*
D03*
Y48770D02*
D03*
X10708Y48002D02*
D03*
Y48258D02*
D03*
Y48514D02*
D03*
Y48770D02*
D03*
X14608Y44520D02*
D03*
Y44264D02*
D03*
Y44008D02*
D03*
Y43752D02*
D03*
X16340Y44520D02*
D03*
Y44264D02*
D03*
Y44008D02*
D03*
Y43752D02*
D03*
X25409Y48002D02*
D03*
Y48258D02*
D03*
Y48514D02*
D03*
Y48770D02*
D03*
X23676Y48002D02*
D03*
Y48258D02*
D03*
Y48514D02*
D03*
Y48770D02*
D03*
X27576Y44520D02*
D03*
Y44264D02*
D03*
Y44008D02*
D03*
Y43752D02*
D03*
X29309Y44520D02*
D03*
Y44264D02*
D03*
Y44008D02*
D03*
Y43752D02*
D03*
X38377Y48002D02*
D03*
Y48258D02*
D03*
Y48514D02*
D03*
Y48770D02*
D03*
X36645Y48002D02*
D03*
Y48258D02*
D03*
Y48514D02*
D03*
Y48770D02*
D03*
X40545Y44520D02*
D03*
Y44264D02*
D03*
Y44008D02*
D03*
Y43752D02*
D03*
X42277Y44520D02*
D03*
Y44264D02*
D03*
Y44008D02*
D03*
Y43752D02*
D03*
X51346Y48002D02*
D03*
Y48258D02*
D03*
Y48514D02*
D03*
Y48770D02*
D03*
X49613Y48002D02*
D03*
Y48258D02*
D03*
Y48514D02*
D03*
Y48770D02*
D03*
X53513Y44520D02*
D03*
Y44264D02*
D03*
Y44008D02*
D03*
Y43752D02*
D03*
X55246Y44520D02*
D03*
Y44264D02*
D03*
Y44008D02*
D03*
Y43752D02*
D03*
X12440Y58990D02*
D03*
Y59246D02*
D03*
Y59502D02*
D03*
Y59757D02*
D03*
X10708Y58990D02*
D03*
Y59246D02*
D03*
Y59502D02*
D03*
Y59757D02*
D03*
X14608Y55507D02*
D03*
Y55252D02*
D03*
Y54996D02*
D03*
Y54740D02*
D03*
X16340Y55507D02*
D03*
Y55252D02*
D03*
Y54996D02*
D03*
Y54740D02*
D03*
X25409Y58990D02*
D03*
Y59246D02*
D03*
Y59502D02*
D03*
Y59757D02*
D03*
X23676Y58990D02*
D03*
Y59246D02*
D03*
Y59502D02*
D03*
Y59757D02*
D03*
X27576Y55507D02*
D03*
Y55252D02*
D03*
Y54996D02*
D03*
Y54740D02*
D03*
X29309Y55507D02*
D03*
Y55252D02*
D03*
Y54996D02*
D03*
Y54740D02*
D03*
X38377Y58990D02*
D03*
Y59246D02*
D03*
Y59502D02*
D03*
Y59757D02*
D03*
X36645Y58990D02*
D03*
Y59246D02*
D03*
Y59502D02*
D03*
Y59757D02*
D03*
X40545Y55507D02*
D03*
Y55252D02*
D03*
Y54996D02*
D03*
Y54740D02*
D03*
X42277Y55507D02*
D03*
Y55252D02*
D03*
Y54996D02*
D03*
Y54740D02*
D03*
X51346Y58990D02*
D03*
Y59246D02*
D03*
Y59502D02*
D03*
Y59757D02*
D03*
X49613Y58990D02*
D03*
Y59246D02*
D03*
Y59502D02*
D03*
Y59757D02*
D03*
X53513Y55507D02*
D03*
Y55252D02*
D03*
Y54996D02*
D03*
Y54740D02*
D03*
X55246Y55507D02*
D03*
Y55252D02*
D03*
Y54996D02*
D03*
Y54740D02*
D03*
X12440Y69977D02*
D03*
Y70233D02*
D03*
Y70489D02*
D03*
Y70745D02*
D03*
X10708Y69977D02*
D03*
Y70233D02*
D03*
Y70489D02*
D03*
Y70745D02*
D03*
X14608Y66495D02*
D03*
Y66239D02*
D03*
Y65983D02*
D03*
Y65727D02*
D03*
X16340Y66495D02*
D03*
Y66239D02*
D03*
Y65983D02*
D03*
Y65727D02*
D03*
X25409Y69977D02*
D03*
Y70233D02*
D03*
Y70489D02*
D03*
Y70745D02*
D03*
X23676Y69977D02*
D03*
Y70233D02*
D03*
Y70489D02*
D03*
Y70745D02*
D03*
X27576Y66495D02*
D03*
Y66239D02*
D03*
Y65983D02*
D03*
Y65727D02*
D03*
X29309Y66495D02*
D03*
Y66239D02*
D03*
Y65983D02*
D03*
Y65727D02*
D03*
X38377Y69977D02*
D03*
Y70233D02*
D03*
Y70489D02*
D03*
Y70745D02*
D03*
X36645Y69977D02*
D03*
Y70233D02*
D03*
Y70489D02*
D03*
Y70745D02*
D03*
X40545Y66495D02*
D03*
Y66239D02*
D03*
Y65983D02*
D03*
Y65727D02*
D03*
X42277Y66495D02*
D03*
Y66239D02*
D03*
Y65983D02*
D03*
Y65727D02*
D03*
X51346Y69977D02*
D03*
Y70233D02*
D03*
Y70489D02*
D03*
Y70745D02*
D03*
X49613Y69977D02*
D03*
Y70233D02*
D03*
Y70489D02*
D03*
Y70745D02*
D03*
X53513Y66495D02*
D03*
Y66239D02*
D03*
Y65983D02*
D03*
Y65727D02*
D03*
X55246Y66495D02*
D03*
Y66239D02*
D03*
Y65983D02*
D03*
Y65727D02*
D03*
D24*
X13680Y14591D02*
D03*
X13168D02*
D03*
X13680Y15457D02*
D03*
X13424D02*
D03*
X13168D02*
D03*
X26648Y14591D02*
D03*
X26137D02*
D03*
X26648Y15457D02*
D03*
X26393D02*
D03*
X26137D02*
D03*
X39617Y14591D02*
D03*
X39105D02*
D03*
X39617Y15457D02*
D03*
X39361D02*
D03*
X39105D02*
D03*
X52585Y14591D02*
D03*
X52074D02*
D03*
X52585Y15457D02*
D03*
X52330D02*
D03*
X52074D02*
D03*
X13680Y25578D02*
D03*
X13168D02*
D03*
X13680Y26444D02*
D03*
X13424D02*
D03*
X13168D02*
D03*
X26648Y25578D02*
D03*
X26137D02*
D03*
X26648Y26444D02*
D03*
X26393D02*
D03*
X26137D02*
D03*
X39617Y25578D02*
D03*
X39105D02*
D03*
X39617Y26444D02*
D03*
X39361D02*
D03*
X39105D02*
D03*
X52585Y25578D02*
D03*
X52074D02*
D03*
X52585Y26444D02*
D03*
X52330D02*
D03*
X52074D02*
D03*
X13680Y36566D02*
D03*
X13168D02*
D03*
X13680Y37432D02*
D03*
X13424D02*
D03*
X13168D02*
D03*
X26648Y36566D02*
D03*
X26137D02*
D03*
X26648Y37432D02*
D03*
X26393D02*
D03*
X26137D02*
D03*
X39617Y36566D02*
D03*
X39105D02*
D03*
X39617Y37432D02*
D03*
X39361D02*
D03*
X39105D02*
D03*
X52585Y36566D02*
D03*
X52074D02*
D03*
X52585Y37432D02*
D03*
X52330D02*
D03*
X52074D02*
D03*
X13680Y47553D02*
D03*
X13168D02*
D03*
X13680Y48419D02*
D03*
X13424D02*
D03*
X13168D02*
D03*
X26648Y47553D02*
D03*
X26137D02*
D03*
X26648Y48419D02*
D03*
X26393D02*
D03*
X26137D02*
D03*
X39617Y47553D02*
D03*
X39105D02*
D03*
X39617Y48419D02*
D03*
X39361D02*
D03*
X39105D02*
D03*
X52585Y47553D02*
D03*
X52074D02*
D03*
X52585Y48419D02*
D03*
X52330D02*
D03*
X52074D02*
D03*
X13680Y58541D02*
D03*
X13168D02*
D03*
X13680Y59407D02*
D03*
X13424D02*
D03*
X13168D02*
D03*
X26648Y58541D02*
D03*
X26137D02*
D03*
X26648Y59407D02*
D03*
X26393D02*
D03*
X26137D02*
D03*
X39617Y58541D02*
D03*
X39105D02*
D03*
X39617Y59407D02*
D03*
X39361D02*
D03*
X39105D02*
D03*
X52585Y58541D02*
D03*
X52074D02*
D03*
X52585Y59407D02*
D03*
X52330D02*
D03*
X52074D02*
D03*
X13680Y69528D02*
D03*
X13168D02*
D03*
X13680Y70394D02*
D03*
X13424D02*
D03*
X13168D02*
D03*
X26648Y69528D02*
D03*
X26137D02*
D03*
X26648Y70394D02*
D03*
X26393D02*
D03*
X26137D02*
D03*
X39617Y69528D02*
D03*
X39105D02*
D03*
X39617Y70394D02*
D03*
X39361D02*
D03*
X39105D02*
D03*
X52585Y69528D02*
D03*
X52074D02*
D03*
X52585Y70394D02*
D03*
X52330D02*
D03*
X52074D02*
D03*
D25*
X14068Y16741D02*
D03*
X14324D02*
D03*
X14580D02*
D03*
Y17607D02*
D03*
X14324D02*
D03*
X14068D02*
D03*
X27037Y16741D02*
D03*
X27293D02*
D03*
X27548D02*
D03*
Y17607D02*
D03*
X27293D02*
D03*
X27037D02*
D03*
X40005Y16741D02*
D03*
X40261D02*
D03*
X40517D02*
D03*
Y17607D02*
D03*
X40261D02*
D03*
X40005D02*
D03*
X52974Y16741D02*
D03*
X53230D02*
D03*
X53485D02*
D03*
Y17607D02*
D03*
X53230D02*
D03*
X52974D02*
D03*
X14068Y27728D02*
D03*
X14324D02*
D03*
X14580D02*
D03*
Y28594D02*
D03*
X14324D02*
D03*
X14068D02*
D03*
X27037Y27728D02*
D03*
X27293D02*
D03*
X27548D02*
D03*
Y28594D02*
D03*
X27293D02*
D03*
X27037D02*
D03*
X40005Y27728D02*
D03*
X40261D02*
D03*
X40517D02*
D03*
Y28594D02*
D03*
X40261D02*
D03*
X40005D02*
D03*
X52974Y27728D02*
D03*
X53230D02*
D03*
X53485D02*
D03*
Y28594D02*
D03*
X53230D02*
D03*
X52974D02*
D03*
X14068Y38716D02*
D03*
X14324D02*
D03*
X14580D02*
D03*
Y39582D02*
D03*
X14324D02*
D03*
X14068D02*
D03*
X27037Y38716D02*
D03*
X27293D02*
D03*
X27548D02*
D03*
Y39582D02*
D03*
X27293D02*
D03*
X27037D02*
D03*
X40005Y38716D02*
D03*
X40261D02*
D03*
X40517D02*
D03*
Y39582D02*
D03*
X40261D02*
D03*
X40005D02*
D03*
X52974Y38716D02*
D03*
X53230D02*
D03*
X53485D02*
D03*
Y39582D02*
D03*
X53230D02*
D03*
X52974D02*
D03*
X14068Y49703D02*
D03*
X14324D02*
D03*
X14580D02*
D03*
Y50569D02*
D03*
X14324D02*
D03*
X14068D02*
D03*
X27037Y49703D02*
D03*
X27293D02*
D03*
X27548D02*
D03*
Y50569D02*
D03*
X27293D02*
D03*
X27037D02*
D03*
X40005Y49703D02*
D03*
X40261D02*
D03*
X40517D02*
D03*
Y50569D02*
D03*
X40261D02*
D03*
X40005D02*
D03*
X52974Y49703D02*
D03*
X53230D02*
D03*
X53485D02*
D03*
Y50569D02*
D03*
X53230D02*
D03*
X52974D02*
D03*
X14068Y60691D02*
D03*
X14324D02*
D03*
X14580D02*
D03*
Y61557D02*
D03*
X14324D02*
D03*
X14068D02*
D03*
X27037Y60691D02*
D03*
X27293D02*
D03*
X27548D02*
D03*
Y61557D02*
D03*
X27293D02*
D03*
X27037D02*
D03*
X40005Y60691D02*
D03*
X40261D02*
D03*
X40517D02*
D03*
Y61557D02*
D03*
X40261D02*
D03*
X40005D02*
D03*
X52974Y60691D02*
D03*
X53230D02*
D03*
X53485D02*
D03*
Y61557D02*
D03*
X53230D02*
D03*
X52974D02*
D03*
X14068Y71678D02*
D03*
X14324D02*
D03*
X14580D02*
D03*
Y72544D02*
D03*
X14324D02*
D03*
X14068D02*
D03*
X27037Y71678D02*
D03*
X27293D02*
D03*
X27548D02*
D03*
Y72544D02*
D03*
X27293D02*
D03*
X27037D02*
D03*
X40005Y71678D02*
D03*
X40261D02*
D03*
X40517D02*
D03*
Y72544D02*
D03*
X40261D02*
D03*
X40005D02*
D03*
X52974Y71678D02*
D03*
X53230D02*
D03*
X53485D02*
D03*
Y72544D02*
D03*
X53230D02*
D03*
X52974D02*
D03*
D26*
X14324Y17174D02*
D03*
X27293D02*
D03*
X40261D02*
D03*
X53230D02*
D03*
X14324Y28161D02*
D03*
X27293D02*
D03*
X40261D02*
D03*
X53230D02*
D03*
X14324Y39149D02*
D03*
X27293D02*
D03*
X40261D02*
D03*
X53230D02*
D03*
X14324Y50136D02*
D03*
X27293D02*
D03*
X40261D02*
D03*
X53230D02*
D03*
X14324Y61124D02*
D03*
X27293D02*
D03*
X40261D02*
D03*
X53230D02*
D03*
X14324Y72111D02*
D03*
X27293D02*
D03*
X40261D02*
D03*
X53230D02*
D03*
M02*
