M48
;Layer_Color=9474304
;FILE_FORMAT=2:4
INCH,LZ
;TYPE=PLATED
T1F00S00C0.0079
T2F00S00C0.0160
T3F00S00C0.0354
T4F00S00C0.0472
T5F00S00C0.0551
%
T01
X012Y002683
Y003117
T02
X0098Y0014
Y002
Y00258
X009Y0025
Y004
T03
X00075Y00075
X00175
Y0045
X00075
X0095Y00475
X0105
X014Y005
Y004
Y007
Y008
X013
Y007
X0109Y00745
Y00645
X0091Y00795
X0081
T04
X0015Y0021
Y0031
X0124Y0048
X00585Y00795
T05
X0005Y0021
Y0031
M30
