<?xml version="1.0" encoding="utf-8"?>
<!-- Generator: Adobe Illustrator 19.0.0, SVG Export Plug-In . SVG Version: 6.00 Build 0)  -->
<svg version="1.1" id="Layer_1" xmlns="http://www.w3.org/2000/svg" xmlns:xlink="http://www.w3.org/1999/xlink" x="0px" y="0px"
	 viewBox="0 0 72 54" style="enable-background:new 0 0 72 54;" xml:space="preserve">
<style type="text/css">
	.st0{clip-path:url(#XMLID_21_);}
	.st1{clip-path:url(#XMLID_22_);}
	.st2{clip-path:url(#XMLID_23_);fill:#F5C400;}
	.st3{fill:#2E3192;}
	.st4{font-family:'Rockwell';}
	.st5{font-size:15px;}
	.st6{fill:#FFCD05;}
	.st7{fill:#FEEE0B;}
	.st8{fill:#2478BA;}
	.st9{fill:#283A94;}
	.st10{fill:#292765;}
</style>
<g id="XMLID_1_">
	<g id="XMLID_2_">
		<defs>
			<rect id="XMLID_3_" x="6.9" y="1.6" width="30.1" height="20.2"/>
		</defs>
		<clipPath id="XMLID_21_">
			<use xlink:href="#XMLID_3_"  style="overflow:visible;"/>
		</clipPath>
		<g id="XMLID_4_" class="st0">
			<defs>
				<rect id="XMLID_5_" x="7.1" y="-180.6" width="156.2" height="202.2"/>
			</defs>
			<clipPath id="XMLID_22_">
				<use xlink:href="#XMLID_5_"  style="overflow:visible;"/>
			</clipPath>
			<g id="XMLID_6_" class="st1">
				<defs>
					<rect id="XMLID_7_" x="7.1" y="1.8" width="29.7" height="19.7"/>
				</defs>
				<clipPath id="XMLID_23_">
					<use xlink:href="#XMLID_7_"  style="overflow:visible;"/>
				</clipPath>
				<path id="XMLID_8_" class="st2" d="M20.9,18.1l-5.6-7.7V16h2.2v5.5H7.1V16h2.1V7.4H7.1V1.8h8.2l5.6,7.8l5.6-7.8h8.2v5.5h-2.1V16
					h2.1v5.5H24.3V16h2.2v-5.6L20.9,18.1z"/>
			</g>
		</g>
	</g>
</g>
<text id="XMLID_24_" transform="matrix(1 0 0 1 9.5005 36.5987)" class="st3 st4 st5">Triumvi</text>
<g id="XMLID_10_">
	<path id="XMLID_19_" class="st6" d="M60.9,14.1V6.6h-2.3l0-1.1l0-1.1l0.3,0c1.9-0.3,2.3-0.7,2.9-2.1l0.1-0.3h2v19.6h-3L60.9,14.1z"
		/>
	<path id="XMLID_18_" class="st7" d="M57.9,21.1l0-0.4l0.2-0.2c1-0.8,1.4-2.2,1.4-4.5c0-2.4-0.9-4.1-1.5-4.5l-0.1-0.1l0-0.5
		c0,0,0-1.4,0-2.4l0-2h-0.7c-0.4,0-0.9,0-1.2,0l-0.5,0V5.5l0-1.1l0.2,0c1,0,1.9-0.4,2.4-1c0.1-0.1,0.1-0.1,0.1-0.2
		c0.1-0.1,0.4-0.6,0.5-1l0.1-0.3h2l0,0.9l0,0.9l-0.1,0.1c-0.4,0.3-1.1,0.6-1.9,0.6l-0.3,0l0,1.1l0,1.1h2.3v15h-3L57.9,21.1z"/>
	<path id="XMLID_15_" class="st8" d="M52.2,1.9c-0.3,0-0.6,0-0.6,0s0,0.2,0,0.3C51.7,2.8,52,4.6,52,4.9c0,0.1,0,0.3,0.1,0.5
		c0,0.2,0.1,0.4,0.1,0.6c0,0.2,0.1,0.5,0.1,0.6c0,0.2,0.1,0.5,0.1,0.7c0,0.2,0.1,0.6,0.1,0.9c0,0.3,0.1,0.6,0.1,0.7
		c0,0.1,0,0.3,0.1,0.5c0,0.2,0.1,0.4,0.1,0.6c0,0.2,0.1,0.5,0.1,0.6c0,0.2,0.1,0.5,0.1,0.8c0,0.3,0.1,0.7,0.1,0.9l0.1,0.5H54
		c1.7,0,2.2,0.3,2.4,1.6c0,0.3,0.1,2.6,0,2.9c-0.1,1.1-0.6,1.5-1.8,1.5h-0.4l0,0.1c0,0.1,0.1,0.9,0.3,2.1h0l0.1,0.6l0.4,0
		c2.7-0.1,4.1-1.5,4.3-4.1c0-0.4,0-2.3,0-2.7c-0.1-1.8-0.8-2.9-1.9-3.5c-0.3-0.2-0.3-0.1-0.2-0.2c0.1-0.1,0.3-0.2,0.5-0.3l0.1-0.1
		l0-2v-2h-1.7l0,0.8c0,1.3-0.1,1.7-0.5,2.1C55.3,9.8,55,9.9,54,9.9l-0.8,0V4.7l0.9,0c1,0,1.1,0,1.4,0.2L55.6,5V4.4l0.2,0
		c1,0,1.9-0.4,2.4-1l0.1-0.1l-0.1-0.1c-0.6-0.6-1.4-1-2.6-1.2C55.3,1.9,53.2,1.9,52.2,1.9L52.2,1.9z M50.2,10.5l0,8.2h1.1L50.2,10.5
		z"/>
	<path id="XMLID_12_" class="st9" d="M51.6,21.5c0,0-0.1-0.5-0.3-2.4c0-0.2-0.1-0.5-0.1-0.7c0-0.2-0.1-0.4-0.1-0.4c0,0-0.8,0-1.8,0
		h-1.8l0,0.2c0,0.1,0,0.3-0.1,0.4c0,0.1,0-1.5,0-8.3l0-8.4h2.2c2,0,2.2,0,2.2,0s0,0.2,0.1,0.3c0.1,0.5,0.4,2.3,0.4,2.6
		c0,0.1,0,0.3,0.1,0.5c0,0.2,0.1,0.4,0.1,0.6c0,0.2,0.1,0.5,0.1,0.6c0,0.2,0.1,0.5,0.1,0.7c0,0.2,0.1,0.6,0.1,0.9s0.1,0.6,0.1,0.7
		c0,0.1,0,0.3,0.1,0.5c0,0.2,0.1,0.4,0.1,0.6c0,0.2,0.1,0.5,0.1,0.6c0,0.2,0.1,0.5,0.1,0.8c0,0.3,0.1,0.7,0.1,0.9
		c0.1,0.6,1,6.5,1,6.6c0,0,0.1,0.4,0.1,0.8c0.1,0.4,0.2,1,0.2,1.3c0,0.3,0.1,0.6,0.1,0.6s-0.5,0-1.5,0L51.6,21.5L51.6,21.5z
		 M50.7,15.3c0-0.1-0.2-1.6-0.4-2.7c-0.3-2-0.4-3-0.7-4.9c-0.2-1.1-0.3-2.1-0.3-2.1c0-0.1,0-0.1-0.1,0.2c0,0.2-0.4,2.6-0.9,5.9
		c-0.1,0.9-0.3,2.1-0.4,2.6c-0.1,0.5-0.1,1-0.2,1l0,0L50.7,15.3L50.7,15.3z"/>
	<path id="XMLID_11_" class="st10" d="M44.3,11.7V1.9h3l0,8.4l0,8.4l2,0l2,0l0,0.1c0,0.1,0.4,2.6,0.4,2.6l0,0.1h-7.3L44.3,11.7
		L44.3,11.7z"/>
</g>
</svg>
