<?xml version="1.0" encoding="utf-8"?>
<!-- Generator: Adobe Illustrator 19.0.0, SVG Export Plug-In . SVG Version: 6.00 Build 0)  -->
<svg version="1.1" id="Layer_1" xmlns="http://www.w3.org/2000/svg" xmlns:xlink="http://www.w3.org/1999/xlink" x="0px" y="0px"
	 viewBox="0 0 72 54" style="enable-background:new 0 0 72 54;" xml:space="preserve">
<style type="text/css">
	.st0{clip-path:url(#SVGID_2_);}
	.st1{clip-path:url(#SVGID_4_);}
	.st2{clip-path:url(#SVGID_6_);fill:#F5C400;}
	.st3{enable-background:new    ;}
	.st4{fill:#2E3192;}
	.st5{fill:#FFCD05;}
	.st6{fill:#FEEE0B;}
	.st7{fill:#2478BA;}
	.st8{fill:#283A94;}
	.st9{fill:#292765;}
</style>
<g>
	<g id="XMLID_1_">
		<defs>
			<rect id="SVGID_1_" x="6.9" y="1.6" width="30.1" height="20.2"/>
		</defs>
		<clipPath id="SVGID_2_">
			<use xlink:href="#SVGID_1_"  style="overflow:visible;"/>
		</clipPath>
		<g id="XMLID_2_" class="st0">
			<g>
				<defs>
					<rect id="SVGID_3_" x="7.1" y="-180.6" width="156.2" height="202.2"/>
				</defs>
				<clipPath id="SVGID_4_">
					<use xlink:href="#SVGID_3_"  style="overflow:visible;"/>
				</clipPath>
				<g id="XMLID_4_" class="st1">
					<g id="XMLID_6_">
						<defs>
							<rect id="SVGID_5_" x="7.1" y="1.8" width="29.7" height="19.7"/>
						</defs>
						<clipPath id="SVGID_6_">
							<use xlink:href="#SVGID_5_"  style="overflow:visible;"/>
						</clipPath>
						<path id="XMLID_8_" class="st2" d="M20.9,18.1l-5.6-7.7V16h2.2v5.5H7.1V16h2.1V7.4H7.1V1.8h8.2l5.6,7.8l5.6-7.8h8.2v5.5h-2.1
							V16h2.1v5.5H24.3V16h2.2v-5.6L20.9,18.1z"/>
					</g>
				</g>
			</g>
		</g>
	</g>
	<g class="st3">
		<path class="st4" d="M13,35.3v-7.6h-2.1v2.6H9.7v-3.9h8.3v3.9h-1.3v-2.6h-2.1v7.6h1.3v1.3h-4.2v-1.3H13z"/>
		<path class="st4" d="M19.9,35.4v-4.6h-1.4v-1.2H21v1.6c0.2-0.4,0.4-0.8,0.7-1s0.6-0.5,0.9-0.5s0.7-0.1,1.3-0.1h0.4v1.4h-0.3
			c-0.7,0-1.2,0.1-1.6,0.2c-0.3,0.1-0.6,0.4-0.8,0.8c-0.2,0.4-0.3,1-0.3,2v1.6h1.5v1.2h-4.4v-1.2H19.9z"/>
		<path class="st4" d="M26.2,35.4v-4.6h-1.1v-1.2h2.5v5.9h1.1v1.2h-3.6v-1.2H26.2z M26,27.1c0-0.2,0.1-0.4,0.2-0.6
			c0.2-0.2,0.4-0.2,0.6-0.2c0.2,0,0.4,0.1,0.6,0.2s0.2,0.4,0.2,0.6s-0.1,0.4-0.2,0.6c-0.2,0.2-0.4,0.2-0.6,0.2
			c-0.2,0-0.4-0.1-0.6-0.2S26,27.3,26,27.1z"/>
		<path class="st4" d="M37.3,35.4v1.2h-2.6v-0.8c-0.8,0.6-1.6,0.9-2.3,0.9c-0.5,0-0.9-0.1-1.2-0.3c-0.3-0.2-0.5-0.5-0.6-0.8
			c-0.1-0.3-0.2-0.9-0.2-1.6v-3.3h-1v-1.2h2.4v4.3c0,0.5,0,0.9,0,1.1s0.1,0.3,0.3,0.4s0.3,0.2,0.5,0.2c0.6,0,1.3-0.3,2.1-0.9v-3.8
			h-1.3v-1.2h2.6v5.9H37.3z"/>
		<path class="st4" d="M39.1,35.4v-4.6H38v-1.2h2.6v0.9c0.8-0.7,1.7-1,2.5-1c0.8,0,1.4,0.4,1.7,1.1c0.9-0.7,1.8-1.1,2.6-1.1
			c0.5,0,0.8,0.1,1.1,0.3c0.3,0.2,0.5,0.5,0.6,0.8c0.1,0.3,0.2,0.8,0.2,1.4v3.5h1.2v1.2h-2.6v-4.5c0-0.4,0-0.7-0.1-0.9
			c0-0.2-0.1-0.3-0.3-0.4c-0.1-0.1-0.3-0.2-0.5-0.2c-0.6,0-1.3,0.3-2,0.9v3.8h1.2v1.2h-2.6V32c0-0.5-0.1-0.8-0.2-1
			c-0.1-0.2-0.4-0.3-0.7-0.3c-0.5,0-1.2,0.3-2,0.9v3.8h1.2v1.2h-3.9v-1.2H39.1z"/>
		<path class="st4" d="M54,36.7l-2.3-6h-1.3v-1.2H54v1.2h-0.9l1.5,4l1.5-4h-1v-1.2h3.5v1.2h-1.1l-2.3,6H54z"/>
		<path class="st4" d="M60.2,35.4v-4.6h-1.1v-1.2h2.5v5.9h1.1v1.2h-3.6v-1.2H60.2z M60,27.1c0-0.2,0.1-0.4,0.2-0.6
			c0.2-0.2,0.4-0.2,0.6-0.2c0.2,0,0.4,0.1,0.6,0.2s0.2,0.4,0.2,0.6s-0.1,0.4-0.2,0.6c-0.2,0.2-0.4,0.2-0.6,0.2
			c-0.2,0-0.4-0.1-0.6-0.2C60.1,27.5,60,27.3,60,27.1z"/>
	</g>
	<g id="XMLID_10_">
		<path id="XMLID_19_" class="st5" d="M60.9,14.1V6.6h-2.3V5.5V4.4h0.3c1.9-0.3,2.3-0.7,2.9-2.1L61.9,2h2v19.6h-3V14.1z"/>
		<path id="XMLID_18_" class="st6" d="M57.9,21.1v-0.4l0.2-0.2c1-0.8,1.4-2.2,1.4-4.5c0-2.4-0.9-4.1-1.5-4.5l-0.1-0.1v-0.5
			c0,0,0-1.4,0-2.4v-2h-0.7c-0.4,0-0.9,0-1.2,0h-0.5v-1V4.4h0.2c1,0,1.9-0.4,2.4-1c0.1-0.1,0.1-0.1,0.1-0.2c0.1-0.1,0.4-0.6,0.5-1
			l0.1-0.3h2v0.9v0.9l-0.1,0.1c-0.4,0.3-1.1,0.6-1.9,0.6h-0.3v1.1v1.1h2.3v15h-3L57.9,21.1z"/>
		<path id="XMLID_15_" class="st7" d="M52.2,1.9c-0.3,0-0.6,0-0.6,0s0,0.2,0,0.3C51.7,2.8,52,4.6,52,4.9c0,0.1,0,0.3,0.1,0.5
			c0,0.2,0.1,0.4,0.1,0.6s0.1,0.5,0.1,0.6c0,0.2,0.1,0.5,0.1,0.7s0.1,0.6,0.1,0.9s0.1,0.6,0.1,0.7c0,0.1,0,0.3,0.1,0.5
			c0,0.2,0.1,0.4,0.1,0.6c0,0.2,0.1,0.5,0.1,0.6c0,0.2,0.1,0.5,0.1,0.8s0.1,0.7,0.1,0.9l0.1,0.5H54c1.7,0,2.2,0.3,2.4,1.6
			c0,0.3,0.1,2.6,0,2.9c-0.1,1.1-0.6,1.5-1.8,1.5h-0.4v0.1c0,0.1,0.1,0.9,0.3,2.1l0,0l0.1,0.6H55c2.7-0.1,4.1-1.5,4.3-4.1
			c0-0.4,0-2.3,0-2.7c-0.1-1.8-0.8-2.9-1.9-3.5c-0.3-0.2-0.3-0.1-0.2-0.2c0.1-0.1,0.3-0.2,0.5-0.3l0.1-0.1v-2v-2h-1.7v0.8
			c0,1.3-0.1,1.7-0.5,2.1C55.3,9.8,55,9.9,54,9.9h-0.8V4.7h0.9c1,0,1.1,0,1.4,0.2L55.6,5V4.4h0.2c1,0,1.9-0.4,2.4-1l0.1-0.1
			l-0.1-0.1c-0.6-0.6-1.4-1-2.6-1.2C55.3,1.9,53.2,1.9,52.2,1.9L52.2,1.9z M50.2,10.5v8.2h1.1L50.2,10.5z"/>
		<path id="XMLID_12_" class="st8" d="M51.6,21.5c0,0-0.1-0.5-0.3-2.4c0-0.2-0.1-0.5-0.1-0.7S51.1,18,51.1,18s-0.8,0-1.8,0h-1.8v0.2
			c0,0.1,0,0.3-0.1,0.4c0,0.1,0-1.5,0-8.3V1.9h2.2c2,0,2.2,0,2.2,0s0,0.2,0.1,0.3c0.1,0.5,0.4,2.3,0.4,2.6c0,0.1,0,0.3,0.1,0.5
			c0,0.2,0.1,0.4,0.1,0.6s0.1,0.5,0.1,0.6c0,0.2,0.1,0.5,0.1,0.7s0.1,0.6,0.1,0.9c0,0.3,0.1,0.6,0.1,0.7c0,0.1,0,0.3,0.1,0.5
			c0,0.2,0.1,0.4,0.1,0.6c0,0.2,0.1,0.5,0.1,0.6c0,0.2,0.1,0.5,0.1,0.8s0.1,0.7,0.1,0.9c0.1,0.6,1,6.5,1,6.6c0,0,0.1,0.4,0.1,0.8
			c0.1,0.4,0.2,1,0.2,1.3s0.1,0.6,0.1,0.6s-0.5,0-1.5,0L51.6,21.5L51.6,21.5z M50.7,15.3c0-0.1-0.2-1.6-0.4-2.7
			c-0.3-2-0.4-3-0.7-4.9c-0.2-1.1-0.3-2.1-0.3-2.1c0-0.1,0-0.1-0.1,0.2c0,0.2-0.4,2.6-0.9,5.9c-0.1,0.9-0.3,2.1-0.4,2.6
			c-0.1,0.5-0.1,1-0.2,1l0,0L50.7,15.3L50.7,15.3z"/>
		<path id="XMLID_11_" class="st9" d="M44.3,11.7V1.9h3v8.4v8.4h2h2v0.1c0,0.1,0.4,2.6,0.4,2.6v0.1h-7.3L44.3,11.7L44.3,11.7z"/>
	</g>
</g>
</svg>
