G04 Layer_Color=32896*
%FSLAX24Y24*%
%MOIN*%
G70*
G01*
G75*
%ADD79C,0.0050*%
%ADD82C,0.0039*%
D79*
X42824Y14774D02*
Y14574D01*
X42724Y14474D01*
X42624Y14574D01*
Y14774D01*
X42324Y14724D02*
X42374Y14774D01*
X42474D01*
X42524Y14724D01*
Y14524D01*
X42474Y14474D01*
X42374D01*
X42324Y14524D01*
X42024Y14724D02*
X42074Y14774D01*
X42174D01*
X42224Y14724D01*
Y14524D01*
X42174Y14474D01*
X42074D01*
X42024Y14524D01*
X41924Y14424D02*
X41725D01*
X41625Y14474D02*
Y14774D01*
X41525Y14674D01*
X41425Y14774D01*
Y14474D01*
X41125Y14724D02*
X41175Y14774D01*
X41275D01*
X41325Y14724D01*
Y14524D01*
X41275Y14474D01*
X41175D01*
X41125Y14524D01*
X41025Y14774D02*
Y14524D01*
X40975Y14474D01*
X40875D01*
X40825Y14524D01*
Y14774D01*
X42824Y13774D02*
Y13574D01*
X42724Y13474D01*
X42624Y13574D01*
Y13774D01*
X42324Y13724D02*
X42374Y13774D01*
X42474D01*
X42524Y13724D01*
Y13524D01*
X42474Y13474D01*
X42374D01*
X42324Y13524D01*
X42024Y13724D02*
X42074Y13774D01*
X42174D01*
X42224Y13724D01*
Y13524D01*
X42174Y13474D01*
X42074D01*
X42024Y13524D01*
X41924Y13424D02*
X41725D01*
X41425Y13724D02*
X41475Y13774D01*
X41575D01*
X41625Y13724D01*
Y13674D01*
X41575Y13624D01*
X41475D01*
X41425Y13574D01*
Y13524D01*
X41475Y13474D01*
X41575D01*
X41625Y13524D01*
X41175Y13474D02*
X41275D01*
X41325Y13524D01*
Y13624D01*
X41275Y13674D01*
X41175D01*
X41125Y13624D01*
Y13574D01*
X41325D01*
X41025Y13474D02*
Y13674D01*
X40875D01*
X40825Y13624D01*
Y13474D01*
X40725D02*
X40575D01*
X40525Y13524D01*
X40575Y13574D01*
X40675D01*
X40725Y13624D01*
X40675Y13674D01*
X40525D01*
X40275Y13474D02*
X40375D01*
X40425Y13524D01*
Y13624D01*
X40375Y13674D01*
X40275D01*
X40225Y13624D01*
Y13574D01*
X40425D01*
X42774Y12774D02*
Y12574D01*
X42674Y12474D01*
X42574Y12574D01*
Y12774D01*
X42474Y12424D02*
X42274D01*
X42174Y12474D02*
Y12774D01*
X42024D01*
X41974Y12724D01*
Y12624D01*
X42024Y12574D01*
X42174D01*
X41874Y12774D02*
Y12474D01*
Y12624D01*
X41824Y12674D01*
X41725D01*
X41675Y12624D01*
Y12474D01*
X41525Y12674D02*
X41425D01*
X41375Y12624D01*
Y12474D01*
X41525D01*
X41575Y12524D01*
X41525Y12574D01*
X41375D01*
X41275Y12474D02*
X41125D01*
X41075Y12524D01*
X41125Y12574D01*
X41225D01*
X41275Y12624D01*
X41225Y12674D01*
X41075D01*
X40825Y12474D02*
X40925D01*
X40975Y12524D01*
Y12624D01*
X40925Y12674D01*
X40825D01*
X40775Y12624D01*
Y12574D01*
X40975D01*
X42824Y11824D02*
X42724D01*
X42774D01*
Y11524D01*
X42824D01*
X42724D01*
X42574Y11474D02*
X42374D01*
X42274Y11824D02*
Y11524D01*
X42174Y11624D01*
X42074Y11524D01*
Y11824D01*
X41924Y11724D02*
X41824D01*
X41775Y11674D01*
Y11524D01*
X41924D01*
X41974Y11574D01*
X41924Y11624D01*
X41775D01*
X41675Y11724D02*
X41575Y11524D01*
X41475Y11724D01*
X41225Y11524D02*
X41325D01*
X41375Y11574D01*
Y11674D01*
X41325Y11724D01*
X41225D01*
X41175Y11674D01*
Y11624D01*
X41375D01*
X42424Y10774D02*
Y10574D01*
X42324Y10474D01*
X42224Y10574D01*
Y10774D01*
X41924Y10724D02*
X41974Y10774D01*
X42074D01*
X42124Y10724D01*
Y10524D01*
X42074Y10474D01*
X41974D01*
X41924Y10524D01*
X41824Y10474D02*
Y10674D01*
X41724Y10774D01*
X41624Y10674D01*
Y10474D01*
Y10624D01*
X41824D01*
X41524Y10474D02*
Y10774D01*
X41375D01*
X41325Y10724D01*
Y10624D01*
X41375Y10574D01*
X41524D01*
X42274Y9774D02*
X42324Y9824D01*
X42424D01*
X42474Y9774D01*
Y9574D01*
X42424Y9524D01*
X42324D01*
X42274Y9574D01*
Y9674D01*
X42374D01*
X42174Y9524D02*
Y9824D01*
X41974Y9524D01*
Y9824D01*
X41874D02*
Y9524D01*
X41724D01*
X41674Y9574D01*
Y9774D01*
X41724Y9824D01*
X41874D01*
X16824Y17524D02*
X16924D01*
X16874D01*
Y17274D01*
X16924Y17224D01*
X16974D01*
X17024Y17274D01*
X16724Y17524D02*
X16524D01*
X16624D01*
Y17224D01*
X16424D02*
Y17424D01*
X16324Y17524D01*
X16224Y17424D01*
Y17224D01*
Y17374D01*
X16424D01*
X15925Y17474D02*
X15975Y17524D01*
X16074D01*
X16124Y17474D01*
Y17274D01*
X16074Y17224D01*
X15975D01*
X15925Y17274D01*
Y17374D01*
X16024D01*
X82861Y14774D02*
Y14574D01*
X82762Y14474D01*
X82662Y14574D01*
Y14774D01*
X82362Y14724D02*
X82412Y14774D01*
X82512D01*
X82562Y14724D01*
Y14524D01*
X82512Y14474D01*
X82412D01*
X82362Y14524D01*
X82062Y14724D02*
X82112Y14774D01*
X82212D01*
X82262Y14724D01*
Y14524D01*
X82212Y14474D01*
X82112D01*
X82062Y14524D01*
X81962Y14424D02*
X81762D01*
X81662Y14474D02*
Y14774D01*
X81562Y14674D01*
X81462Y14774D01*
Y14474D01*
X81162Y14724D02*
X81212Y14774D01*
X81312D01*
X81362Y14724D01*
Y14524D01*
X81312Y14474D01*
X81212D01*
X81162Y14524D01*
X81062Y14774D02*
Y14524D01*
X81012Y14474D01*
X80912D01*
X80862Y14524D01*
Y14774D01*
X82861Y13774D02*
Y13574D01*
X82762Y13474D01*
X82662Y13574D01*
Y13774D01*
X82362Y13724D02*
X82412Y13774D01*
X82512D01*
X82562Y13724D01*
Y13524D01*
X82512Y13474D01*
X82412D01*
X82362Y13524D01*
X82062Y13724D02*
X82112Y13774D01*
X82212D01*
X82262Y13724D01*
Y13524D01*
X82212Y13474D01*
X82112D01*
X82062Y13524D01*
X81962Y13424D02*
X81762D01*
X81462Y13724D02*
X81512Y13774D01*
X81612D01*
X81662Y13724D01*
Y13674D01*
X81612Y13624D01*
X81512D01*
X81462Y13574D01*
Y13524D01*
X81512Y13474D01*
X81612D01*
X81662Y13524D01*
X81212Y13474D02*
X81312D01*
X81362Y13524D01*
Y13624D01*
X81312Y13674D01*
X81212D01*
X81162Y13624D01*
Y13574D01*
X81362D01*
X81062Y13474D02*
Y13674D01*
X80912D01*
X80862Y13624D01*
Y13474D01*
X80762D02*
X80612D01*
X80562Y13524D01*
X80612Y13574D01*
X80712D01*
X80762Y13624D01*
X80712Y13674D01*
X80562D01*
X80312Y13474D02*
X80412D01*
X80462Y13524D01*
Y13624D01*
X80412Y13674D01*
X80312D01*
X80262Y13624D01*
Y13574D01*
X80462D01*
X82811Y12774D02*
Y12574D01*
X82712Y12474D01*
X82612Y12574D01*
Y12774D01*
X82512Y12424D02*
X82312D01*
X82212Y12474D02*
Y12774D01*
X82062D01*
X82012Y12724D01*
Y12624D01*
X82062Y12574D01*
X82212D01*
X81912Y12774D02*
Y12474D01*
Y12624D01*
X81862Y12674D01*
X81762D01*
X81712Y12624D01*
Y12474D01*
X81562Y12674D02*
X81462D01*
X81412Y12624D01*
Y12474D01*
X81562D01*
X81612Y12524D01*
X81562Y12574D01*
X81412D01*
X81312Y12474D02*
X81162D01*
X81112Y12524D01*
X81162Y12574D01*
X81262D01*
X81312Y12624D01*
X81262Y12674D01*
X81112D01*
X80862Y12474D02*
X80962D01*
X81012Y12524D01*
Y12624D01*
X80962Y12674D01*
X80862D01*
X80812Y12624D01*
Y12574D01*
X81012D01*
X82861Y11824D02*
X82762D01*
X82811D01*
Y11524D01*
X82861D01*
X82762D01*
X82612Y11474D02*
X82412D01*
X82312Y11824D02*
Y11524D01*
X82212Y11624D01*
X82112Y11524D01*
Y11824D01*
X81962Y11724D02*
X81862D01*
X81812Y11674D01*
Y11524D01*
X81962D01*
X82012Y11574D01*
X81962Y11624D01*
X81812D01*
X81712Y11724D02*
X81612Y11524D01*
X81512Y11724D01*
X81262Y11524D02*
X81362D01*
X81412Y11574D01*
Y11674D01*
X81362Y11724D01*
X81262D01*
X81212Y11674D01*
Y11624D01*
X81412D01*
X82461Y10774D02*
Y10574D01*
X82362Y10474D01*
X82262Y10574D01*
Y10774D01*
X81962Y10724D02*
X82012Y10774D01*
X82112D01*
X82162Y10724D01*
Y10524D01*
X82112Y10474D01*
X82012D01*
X81962Y10524D01*
X81862Y10474D02*
Y10674D01*
X81762Y10774D01*
X81662Y10674D01*
Y10474D01*
Y10624D01*
X81862D01*
X81562Y10474D02*
Y10774D01*
X81412D01*
X81362Y10724D01*
Y10624D01*
X81412Y10574D01*
X81562D01*
X82312Y9774D02*
X82362Y9824D01*
X82461D01*
X82511Y9774D01*
Y9574D01*
X82461Y9524D01*
X82362D01*
X82312Y9574D01*
Y9674D01*
X82412D01*
X82212Y9524D02*
Y9824D01*
X82012Y9524D01*
Y9824D01*
X81912D02*
Y9524D01*
X81762D01*
X81712Y9574D01*
Y9774D01*
X81762Y9824D01*
X81912D01*
X56862Y17524D02*
X56962D01*
X56912D01*
Y17274D01*
X56962Y17224D01*
X57011D01*
X57061Y17274D01*
X56762Y17524D02*
X56562D01*
X56662D01*
Y17224D01*
X56462D02*
Y17424D01*
X56362Y17524D01*
X56262Y17424D01*
Y17224D01*
Y17374D01*
X56462D01*
X55962Y17474D02*
X56012Y17524D01*
X56112D01*
X56162Y17474D01*
Y17274D01*
X56112Y17224D01*
X56012D01*
X55962Y17274D01*
Y17374D01*
X56062D01*
X42824Y25524D02*
Y25324D01*
X42724Y25224D01*
X42624Y25324D01*
Y25524D01*
X42324Y25474D02*
X42374Y25524D01*
X42474D01*
X42524Y25474D01*
Y25274D01*
X42474Y25224D01*
X42374D01*
X42324Y25274D01*
X42024Y25474D02*
X42074Y25524D01*
X42174D01*
X42224Y25474D01*
Y25274D01*
X42174Y25224D01*
X42074D01*
X42024Y25274D01*
X41924Y25174D02*
X41725D01*
X41625Y25224D02*
Y25524D01*
X41525Y25424D01*
X41425Y25524D01*
Y25224D01*
X41125Y25474D02*
X41175Y25524D01*
X41275D01*
X41325Y25474D01*
Y25274D01*
X41275Y25224D01*
X41175D01*
X41125Y25274D01*
X41025Y25524D02*
Y25274D01*
X40975Y25224D01*
X40875D01*
X40825Y25274D01*
Y25524D01*
X42824Y24524D02*
Y24324D01*
X42724Y24224D01*
X42624Y24324D01*
Y24524D01*
X42324Y24474D02*
X42374Y24524D01*
X42474D01*
X42524Y24474D01*
Y24274D01*
X42474Y24224D01*
X42374D01*
X42324Y24274D01*
X42024Y24474D02*
X42074Y24524D01*
X42174D01*
X42224Y24474D01*
Y24274D01*
X42174Y24224D01*
X42074D01*
X42024Y24274D01*
X41924Y24174D02*
X41725D01*
X41425Y24474D02*
X41475Y24524D01*
X41575D01*
X41625Y24474D01*
Y24424D01*
X41575Y24374D01*
X41475D01*
X41425Y24324D01*
Y24274D01*
X41475Y24224D01*
X41575D01*
X41625Y24274D01*
X41175Y24224D02*
X41275D01*
X41325Y24274D01*
Y24374D01*
X41275Y24424D01*
X41175D01*
X41125Y24374D01*
Y24324D01*
X41325D01*
X41025Y24224D02*
Y24424D01*
X40875D01*
X40825Y24374D01*
Y24224D01*
X40725D02*
X40575D01*
X40525Y24274D01*
X40575Y24324D01*
X40675D01*
X40725Y24374D01*
X40675Y24424D01*
X40525D01*
X40275Y24224D02*
X40375D01*
X40425Y24274D01*
Y24374D01*
X40375Y24424D01*
X40275D01*
X40225Y24374D01*
Y24324D01*
X40425D01*
X42774Y23524D02*
Y23324D01*
X42674Y23224D01*
X42574Y23324D01*
Y23524D01*
X42474Y23174D02*
X42274D01*
X42174Y23224D02*
Y23524D01*
X42024D01*
X41974Y23474D01*
Y23374D01*
X42024Y23324D01*
X42174D01*
X41874Y23524D02*
Y23224D01*
Y23374D01*
X41824Y23424D01*
X41725D01*
X41675Y23374D01*
Y23224D01*
X41525Y23424D02*
X41425D01*
X41375Y23374D01*
Y23224D01*
X41525D01*
X41575Y23274D01*
X41525Y23324D01*
X41375D01*
X41275Y23224D02*
X41125D01*
X41075Y23274D01*
X41125Y23324D01*
X41225D01*
X41275Y23374D01*
X41225Y23424D01*
X41075D01*
X40825Y23224D02*
X40925D01*
X40975Y23274D01*
Y23374D01*
X40925Y23424D01*
X40825D01*
X40775Y23374D01*
Y23324D01*
X40975D01*
X42824Y22574D02*
X42724D01*
X42774D01*
Y22274D01*
X42824D01*
X42724D01*
X42574Y22224D02*
X42374D01*
X42274Y22574D02*
Y22274D01*
X42174Y22374D01*
X42074Y22274D01*
Y22574D01*
X41924Y22474D02*
X41824D01*
X41775Y22424D01*
Y22274D01*
X41924D01*
X41974Y22324D01*
X41924Y22374D01*
X41775D01*
X41675Y22474D02*
X41575Y22274D01*
X41475Y22474D01*
X41225Y22274D02*
X41325D01*
X41375Y22324D01*
Y22424D01*
X41325Y22474D01*
X41225D01*
X41175Y22424D01*
Y22374D01*
X41375D01*
X42424Y21524D02*
Y21324D01*
X42324Y21224D01*
X42224Y21324D01*
Y21524D01*
X41924Y21474D02*
X41974Y21524D01*
X42074D01*
X42124Y21474D01*
Y21274D01*
X42074Y21224D01*
X41974D01*
X41924Y21274D01*
X41824Y21224D02*
Y21424D01*
X41724Y21524D01*
X41624Y21424D01*
Y21224D01*
Y21374D01*
X41824D01*
X41524Y21224D02*
Y21524D01*
X41375D01*
X41325Y21474D01*
Y21374D01*
X41375Y21324D01*
X41524D01*
X42274Y20524D02*
X42324Y20574D01*
X42424D01*
X42474Y20524D01*
Y20324D01*
X42424Y20274D01*
X42324D01*
X42274Y20324D01*
Y20424D01*
X42374D01*
X42174Y20274D02*
Y20574D01*
X41974Y20274D01*
Y20574D01*
X41874D02*
Y20274D01*
X41724D01*
X41674Y20324D01*
Y20524D01*
X41724Y20574D01*
X41874D01*
X16824Y28274D02*
X16924D01*
X16874D01*
Y28024D01*
X16924Y27974D01*
X16974D01*
X17024Y28024D01*
X16724Y28274D02*
X16524D01*
X16624D01*
Y27974D01*
X16424D02*
Y28174D01*
X16324Y28274D01*
X16224Y28174D01*
Y27974D01*
Y28124D01*
X16424D01*
X15925Y28224D02*
X15975Y28274D01*
X16074D01*
X16124Y28224D01*
Y28024D01*
X16074Y27974D01*
X15975D01*
X15925Y28024D01*
Y28124D01*
X16024D01*
X82861Y25524D02*
Y25324D01*
X82762Y25224D01*
X82662Y25324D01*
Y25524D01*
X82362Y25474D02*
X82412Y25524D01*
X82512D01*
X82562Y25474D01*
Y25274D01*
X82512Y25224D01*
X82412D01*
X82362Y25274D01*
X82062Y25474D02*
X82112Y25524D01*
X82212D01*
X82262Y25474D01*
Y25274D01*
X82212Y25224D01*
X82112D01*
X82062Y25274D01*
X81962Y25174D02*
X81762D01*
X81662Y25224D02*
Y25524D01*
X81562Y25424D01*
X81462Y25524D01*
Y25224D01*
X81162Y25474D02*
X81212Y25524D01*
X81312D01*
X81362Y25474D01*
Y25274D01*
X81312Y25224D01*
X81212D01*
X81162Y25274D01*
X81062Y25524D02*
Y25274D01*
X81012Y25224D01*
X80912D01*
X80862Y25274D01*
Y25524D01*
X82861Y24524D02*
Y24324D01*
X82762Y24224D01*
X82662Y24324D01*
Y24524D01*
X82362Y24474D02*
X82412Y24524D01*
X82512D01*
X82562Y24474D01*
Y24274D01*
X82512Y24224D01*
X82412D01*
X82362Y24274D01*
X82062Y24474D02*
X82112Y24524D01*
X82212D01*
X82262Y24474D01*
Y24274D01*
X82212Y24224D01*
X82112D01*
X82062Y24274D01*
X81962Y24174D02*
X81762D01*
X81462Y24474D02*
X81512Y24524D01*
X81612D01*
X81662Y24474D01*
Y24424D01*
X81612Y24374D01*
X81512D01*
X81462Y24324D01*
Y24274D01*
X81512Y24224D01*
X81612D01*
X81662Y24274D01*
X81212Y24224D02*
X81312D01*
X81362Y24274D01*
Y24374D01*
X81312Y24424D01*
X81212D01*
X81162Y24374D01*
Y24324D01*
X81362D01*
X81062Y24224D02*
Y24424D01*
X80912D01*
X80862Y24374D01*
Y24224D01*
X80762D02*
X80612D01*
X80562Y24274D01*
X80612Y24324D01*
X80712D01*
X80762Y24374D01*
X80712Y24424D01*
X80562D01*
X80312Y24224D02*
X80412D01*
X80462Y24274D01*
Y24374D01*
X80412Y24424D01*
X80312D01*
X80262Y24374D01*
Y24324D01*
X80462D01*
X82811Y23524D02*
Y23324D01*
X82712Y23224D01*
X82612Y23324D01*
Y23524D01*
X82512Y23174D02*
X82312D01*
X82212Y23224D02*
Y23524D01*
X82062D01*
X82012Y23474D01*
Y23374D01*
X82062Y23324D01*
X82212D01*
X81912Y23524D02*
Y23224D01*
Y23374D01*
X81862Y23424D01*
X81762D01*
X81712Y23374D01*
Y23224D01*
X81562Y23424D02*
X81462D01*
X81412Y23374D01*
Y23224D01*
X81562D01*
X81612Y23274D01*
X81562Y23324D01*
X81412D01*
X81312Y23224D02*
X81162D01*
X81112Y23274D01*
X81162Y23324D01*
X81262D01*
X81312Y23374D01*
X81262Y23424D01*
X81112D01*
X80862Y23224D02*
X80962D01*
X81012Y23274D01*
Y23374D01*
X80962Y23424D01*
X80862D01*
X80812Y23374D01*
Y23324D01*
X81012D01*
X82861Y22574D02*
X82762D01*
X82811D01*
Y22274D01*
X82861D01*
X82762D01*
X82612Y22224D02*
X82412D01*
X82312Y22574D02*
Y22274D01*
X82212Y22374D01*
X82112Y22274D01*
Y22574D01*
X81962Y22474D02*
X81862D01*
X81812Y22424D01*
Y22274D01*
X81962D01*
X82012Y22324D01*
X81962Y22374D01*
X81812D01*
X81712Y22474D02*
X81612Y22274D01*
X81512Y22474D01*
X81262Y22274D02*
X81362D01*
X81412Y22324D01*
Y22424D01*
X81362Y22474D01*
X81262D01*
X81212Y22424D01*
Y22374D01*
X81412D01*
X82461Y21524D02*
Y21324D01*
X82362Y21224D01*
X82262Y21324D01*
Y21524D01*
X81962Y21474D02*
X82012Y21524D01*
X82112D01*
X82162Y21474D01*
Y21274D01*
X82112Y21224D01*
X82012D01*
X81962Y21274D01*
X81862Y21224D02*
Y21424D01*
X81762Y21524D01*
X81662Y21424D01*
Y21224D01*
Y21374D01*
X81862D01*
X81562Y21224D02*
Y21524D01*
X81412D01*
X81362Y21474D01*
Y21374D01*
X81412Y21324D01*
X81562D01*
X82312Y20524D02*
X82362Y20574D01*
X82461D01*
X82511Y20524D01*
Y20324D01*
X82461Y20274D01*
X82362D01*
X82312Y20324D01*
Y20424D01*
X82412D01*
X82212Y20274D02*
Y20574D01*
X82012Y20274D01*
Y20574D01*
X81912D02*
Y20274D01*
X81762D01*
X81712Y20324D01*
Y20524D01*
X81762Y20574D01*
X81912D01*
X56862Y28274D02*
X56962D01*
X56912D01*
Y28024D01*
X56962Y27974D01*
X57011D01*
X57061Y28024D01*
X56762Y28274D02*
X56562D01*
X56662D01*
Y27974D01*
X56462D02*
Y28174D01*
X56362Y28274D01*
X56262Y28174D01*
Y27974D01*
Y28124D01*
X56462D01*
X55962Y28224D02*
X56012Y28274D01*
X56112D01*
X56162Y28224D01*
Y28024D01*
X56112Y27974D01*
X56012D01*
X55962Y28024D01*
Y28124D01*
X56062D01*
X42824Y36275D02*
Y36075D01*
X42724Y35975D01*
X42624Y36075D01*
Y36275D01*
X42324Y36225D02*
X42374Y36275D01*
X42474D01*
X42524Y36225D01*
Y36025D01*
X42474Y35975D01*
X42374D01*
X42324Y36025D01*
X42024Y36225D02*
X42074Y36275D01*
X42174D01*
X42224Y36225D01*
Y36025D01*
X42174Y35975D01*
X42074D01*
X42024Y36025D01*
X41924Y35925D02*
X41725D01*
X41625Y35975D02*
Y36275D01*
X41525Y36175D01*
X41425Y36275D01*
Y35975D01*
X41125Y36225D02*
X41175Y36275D01*
X41275D01*
X41325Y36225D01*
Y36025D01*
X41275Y35975D01*
X41175D01*
X41125Y36025D01*
X41025Y36275D02*
Y36025D01*
X40975Y35975D01*
X40875D01*
X40825Y36025D01*
Y36275D01*
X42824Y35275D02*
Y35075D01*
X42724Y34975D01*
X42624Y35075D01*
Y35275D01*
X42324Y35225D02*
X42374Y35275D01*
X42474D01*
X42524Y35225D01*
Y35025D01*
X42474Y34975D01*
X42374D01*
X42324Y35025D01*
X42024Y35225D02*
X42074Y35275D01*
X42174D01*
X42224Y35225D01*
Y35025D01*
X42174Y34975D01*
X42074D01*
X42024Y35025D01*
X41924Y34925D02*
X41725D01*
X41425Y35225D02*
X41475Y35275D01*
X41575D01*
X41625Y35225D01*
Y35175D01*
X41575Y35125D01*
X41475D01*
X41425Y35075D01*
Y35025D01*
X41475Y34975D01*
X41575D01*
X41625Y35025D01*
X41175Y34975D02*
X41275D01*
X41325Y35025D01*
Y35125D01*
X41275Y35175D01*
X41175D01*
X41125Y35125D01*
Y35075D01*
X41325D01*
X41025Y34975D02*
Y35175D01*
X40875D01*
X40825Y35125D01*
Y34975D01*
X40725D02*
X40575D01*
X40525Y35025D01*
X40575Y35075D01*
X40675D01*
X40725Y35125D01*
X40675Y35175D01*
X40525D01*
X40275Y34975D02*
X40375D01*
X40425Y35025D01*
Y35125D01*
X40375Y35175D01*
X40275D01*
X40225Y35125D01*
Y35075D01*
X40425D01*
X42774Y34275D02*
Y34075D01*
X42674Y33975D01*
X42574Y34075D01*
Y34275D01*
X42474Y33925D02*
X42274D01*
X42174Y33975D02*
Y34275D01*
X42024D01*
X41974Y34225D01*
Y34125D01*
X42024Y34075D01*
X42174D01*
X41874Y34275D02*
Y33975D01*
Y34125D01*
X41824Y34175D01*
X41725D01*
X41675Y34125D01*
Y33975D01*
X41525Y34175D02*
X41425D01*
X41375Y34125D01*
Y33975D01*
X41525D01*
X41575Y34025D01*
X41525Y34075D01*
X41375D01*
X41275Y33975D02*
X41125D01*
X41075Y34025D01*
X41125Y34075D01*
X41225D01*
X41275Y34125D01*
X41225Y34175D01*
X41075D01*
X40825Y33975D02*
X40925D01*
X40975Y34025D01*
Y34125D01*
X40925Y34175D01*
X40825D01*
X40775Y34125D01*
Y34075D01*
X40975D01*
X42824Y33325D02*
X42724D01*
X42774D01*
Y33025D01*
X42824D01*
X42724D01*
X42574Y32975D02*
X42374D01*
X42274Y33325D02*
Y33025D01*
X42174Y33125D01*
X42074Y33025D01*
Y33325D01*
X41924Y33225D02*
X41824D01*
X41775Y33175D01*
Y33025D01*
X41924D01*
X41974Y33075D01*
X41924Y33125D01*
X41775D01*
X41675Y33225D02*
X41575Y33025D01*
X41475Y33225D01*
X41225Y33025D02*
X41325D01*
X41375Y33075D01*
Y33175D01*
X41325Y33225D01*
X41225D01*
X41175Y33175D01*
Y33125D01*
X41375D01*
X42424Y32275D02*
Y32075D01*
X42324Y31975D01*
X42224Y32075D01*
Y32275D01*
X41924Y32225D02*
X41974Y32275D01*
X42074D01*
X42124Y32225D01*
Y32025D01*
X42074Y31975D01*
X41974D01*
X41924Y32025D01*
X41824Y31975D02*
Y32175D01*
X41724Y32275D01*
X41624Y32175D01*
Y31975D01*
Y32125D01*
X41824D01*
X41524Y31975D02*
Y32275D01*
X41375D01*
X41325Y32225D01*
Y32125D01*
X41375Y32075D01*
X41524D01*
X42274Y31275D02*
X42324Y31325D01*
X42424D01*
X42474Y31275D01*
Y31075D01*
X42424Y31025D01*
X42324D01*
X42274Y31075D01*
Y31175D01*
X42374D01*
X42174Y31025D02*
Y31325D01*
X41974Y31025D01*
Y31325D01*
X41874D02*
Y31025D01*
X41724D01*
X41674Y31075D01*
Y31275D01*
X41724Y31325D01*
X41874D01*
X16824Y39025D02*
X16924D01*
X16874D01*
Y38775D01*
X16924Y38725D01*
X16974D01*
X17024Y38775D01*
X16724Y39025D02*
X16524D01*
X16624D01*
Y38725D01*
X16424D02*
Y38925D01*
X16324Y39025D01*
X16224Y38925D01*
Y38725D01*
Y38875D01*
X16424D01*
X15925Y38975D02*
X15975Y39025D01*
X16074D01*
X16124Y38975D01*
Y38775D01*
X16074Y38725D01*
X15975D01*
X15925Y38775D01*
Y38875D01*
X16024D01*
X82861Y36275D02*
Y36075D01*
X82762Y35975D01*
X82662Y36075D01*
Y36275D01*
X82362Y36225D02*
X82412Y36275D01*
X82512D01*
X82562Y36225D01*
Y36025D01*
X82512Y35975D01*
X82412D01*
X82362Y36025D01*
X82062Y36225D02*
X82112Y36275D01*
X82212D01*
X82262Y36225D01*
Y36025D01*
X82212Y35975D01*
X82112D01*
X82062Y36025D01*
X81962Y35925D02*
X81762D01*
X81662Y35975D02*
Y36275D01*
X81562Y36175D01*
X81462Y36275D01*
Y35975D01*
X81162Y36225D02*
X81212Y36275D01*
X81312D01*
X81362Y36225D01*
Y36025D01*
X81312Y35975D01*
X81212D01*
X81162Y36025D01*
X81062Y36275D02*
Y36025D01*
X81012Y35975D01*
X80912D01*
X80862Y36025D01*
Y36275D01*
X82861Y35275D02*
Y35075D01*
X82762Y34975D01*
X82662Y35075D01*
Y35275D01*
X82362Y35225D02*
X82412Y35275D01*
X82512D01*
X82562Y35225D01*
Y35025D01*
X82512Y34975D01*
X82412D01*
X82362Y35025D01*
X82062Y35225D02*
X82112Y35275D01*
X82212D01*
X82262Y35225D01*
Y35025D01*
X82212Y34975D01*
X82112D01*
X82062Y35025D01*
X81962Y34925D02*
X81762D01*
X81462Y35225D02*
X81512Y35275D01*
X81612D01*
X81662Y35225D01*
Y35175D01*
X81612Y35125D01*
X81512D01*
X81462Y35075D01*
Y35025D01*
X81512Y34975D01*
X81612D01*
X81662Y35025D01*
X81212Y34975D02*
X81312D01*
X81362Y35025D01*
Y35125D01*
X81312Y35175D01*
X81212D01*
X81162Y35125D01*
Y35075D01*
X81362D01*
X81062Y34975D02*
Y35175D01*
X80912D01*
X80862Y35125D01*
Y34975D01*
X80762D02*
X80612D01*
X80562Y35025D01*
X80612Y35075D01*
X80712D01*
X80762Y35125D01*
X80712Y35175D01*
X80562D01*
X80312Y34975D02*
X80412D01*
X80462Y35025D01*
Y35125D01*
X80412Y35175D01*
X80312D01*
X80262Y35125D01*
Y35075D01*
X80462D01*
X82811Y34275D02*
Y34075D01*
X82712Y33975D01*
X82612Y34075D01*
Y34275D01*
X82512Y33925D02*
X82312D01*
X82212Y33975D02*
Y34275D01*
X82062D01*
X82012Y34225D01*
Y34125D01*
X82062Y34075D01*
X82212D01*
X81912Y34275D02*
Y33975D01*
Y34125D01*
X81862Y34175D01*
X81762D01*
X81712Y34125D01*
Y33975D01*
X81562Y34175D02*
X81462D01*
X81412Y34125D01*
Y33975D01*
X81562D01*
X81612Y34025D01*
X81562Y34075D01*
X81412D01*
X81312Y33975D02*
X81162D01*
X81112Y34025D01*
X81162Y34075D01*
X81262D01*
X81312Y34125D01*
X81262Y34175D01*
X81112D01*
X80862Y33975D02*
X80962D01*
X81012Y34025D01*
Y34125D01*
X80962Y34175D01*
X80862D01*
X80812Y34125D01*
Y34075D01*
X81012D01*
X82861Y33325D02*
X82762D01*
X82811D01*
Y33025D01*
X82861D01*
X82762D01*
X82612Y32975D02*
X82412D01*
X82312Y33325D02*
Y33025D01*
X82212Y33125D01*
X82112Y33025D01*
Y33325D01*
X81962Y33225D02*
X81862D01*
X81812Y33175D01*
Y33025D01*
X81962D01*
X82012Y33075D01*
X81962Y33125D01*
X81812D01*
X81712Y33225D02*
X81612Y33025D01*
X81512Y33225D01*
X81262Y33025D02*
X81362D01*
X81412Y33075D01*
Y33175D01*
X81362Y33225D01*
X81262D01*
X81212Y33175D01*
Y33125D01*
X81412D01*
X82461Y32275D02*
Y32075D01*
X82362Y31975D01*
X82262Y32075D01*
Y32275D01*
X81962Y32225D02*
X82012Y32275D01*
X82112D01*
X82162Y32225D01*
Y32025D01*
X82112Y31975D01*
X82012D01*
X81962Y32025D01*
X81862Y31975D02*
Y32175D01*
X81762Y32275D01*
X81662Y32175D01*
Y31975D01*
Y32125D01*
X81862D01*
X81562Y31975D02*
Y32275D01*
X81412D01*
X81362Y32225D01*
Y32125D01*
X81412Y32075D01*
X81562D01*
X82312Y31275D02*
X82362Y31325D01*
X82461D01*
X82511Y31275D01*
Y31075D01*
X82461Y31025D01*
X82362D01*
X82312Y31075D01*
Y31175D01*
X82412D01*
X82212Y31025D02*
Y31325D01*
X82012Y31025D01*
Y31325D01*
X81912D02*
Y31025D01*
X81762D01*
X81712Y31075D01*
Y31275D01*
X81762Y31325D01*
X81912D01*
X56862Y39025D02*
X56962D01*
X56912D01*
Y38775D01*
X56962Y38725D01*
X57011D01*
X57061Y38775D01*
X56762Y39025D02*
X56562D01*
X56662D01*
Y38725D01*
X56462D02*
Y38925D01*
X56362Y39025D01*
X56262Y38925D01*
Y38725D01*
Y38875D01*
X56462D01*
X55962Y38975D02*
X56012Y39025D01*
X56112D01*
X56162Y38975D01*
Y38775D01*
X56112Y38725D01*
X56012D01*
X55962Y38775D01*
Y38875D01*
X56062D01*
X42824Y47025D02*
Y46825D01*
X42724Y46725D01*
X42624Y46825D01*
Y47025D01*
X42324Y46975D02*
X42374Y47025D01*
X42474D01*
X42524Y46975D01*
Y46775D01*
X42474Y46725D01*
X42374D01*
X42324Y46775D01*
X42024Y46975D02*
X42074Y47025D01*
X42174D01*
X42224Y46975D01*
Y46775D01*
X42174Y46725D01*
X42074D01*
X42024Y46775D01*
X41924Y46675D02*
X41725D01*
X41625Y46725D02*
Y47025D01*
X41525Y46925D01*
X41425Y47025D01*
Y46725D01*
X41125Y46975D02*
X41175Y47025D01*
X41275D01*
X41325Y46975D01*
Y46775D01*
X41275Y46725D01*
X41175D01*
X41125Y46775D01*
X41025Y47025D02*
Y46775D01*
X40975Y46725D01*
X40875D01*
X40825Y46775D01*
Y47025D01*
X42824Y46025D02*
Y45825D01*
X42724Y45725D01*
X42624Y45825D01*
Y46025D01*
X42324Y45975D02*
X42374Y46025D01*
X42474D01*
X42524Y45975D01*
Y45775D01*
X42474Y45725D01*
X42374D01*
X42324Y45775D01*
X42024Y45975D02*
X42074Y46025D01*
X42174D01*
X42224Y45975D01*
Y45775D01*
X42174Y45725D01*
X42074D01*
X42024Y45775D01*
X41924Y45675D02*
X41725D01*
X41425Y45975D02*
X41475Y46025D01*
X41575D01*
X41625Y45975D01*
Y45925D01*
X41575Y45875D01*
X41475D01*
X41425Y45825D01*
Y45775D01*
X41475Y45725D01*
X41575D01*
X41625Y45775D01*
X41175Y45725D02*
X41275D01*
X41325Y45775D01*
Y45875D01*
X41275Y45925D01*
X41175D01*
X41125Y45875D01*
Y45825D01*
X41325D01*
X41025Y45725D02*
Y45925D01*
X40875D01*
X40825Y45875D01*
Y45725D01*
X40725D02*
X40575D01*
X40525Y45775D01*
X40575Y45825D01*
X40675D01*
X40725Y45875D01*
X40675Y45925D01*
X40525D01*
X40275Y45725D02*
X40375D01*
X40425Y45775D01*
Y45875D01*
X40375Y45925D01*
X40275D01*
X40225Y45875D01*
Y45825D01*
X40425D01*
X42774Y45025D02*
Y44825D01*
X42674Y44725D01*
X42574Y44825D01*
Y45025D01*
X42474Y44675D02*
X42274D01*
X42174Y44725D02*
Y45025D01*
X42024D01*
X41974Y44975D01*
Y44875D01*
X42024Y44825D01*
X42174D01*
X41874Y45025D02*
Y44725D01*
Y44875D01*
X41824Y44925D01*
X41725D01*
X41675Y44875D01*
Y44725D01*
X41525Y44925D02*
X41425D01*
X41375Y44875D01*
Y44725D01*
X41525D01*
X41575Y44775D01*
X41525Y44825D01*
X41375D01*
X41275Y44725D02*
X41125D01*
X41075Y44775D01*
X41125Y44825D01*
X41225D01*
X41275Y44875D01*
X41225Y44925D01*
X41075D01*
X40825Y44725D02*
X40925D01*
X40975Y44775D01*
Y44875D01*
X40925Y44925D01*
X40825D01*
X40775Y44875D01*
Y44825D01*
X40975D01*
X42824Y44075D02*
X42724D01*
X42774D01*
Y43775D01*
X42824D01*
X42724D01*
X42574Y43725D02*
X42374D01*
X42274Y44075D02*
Y43775D01*
X42174Y43875D01*
X42074Y43775D01*
Y44075D01*
X41924Y43975D02*
X41824D01*
X41775Y43925D01*
Y43775D01*
X41924D01*
X41974Y43825D01*
X41924Y43875D01*
X41775D01*
X41675Y43975D02*
X41575Y43775D01*
X41475Y43975D01*
X41225Y43775D02*
X41325D01*
X41375Y43825D01*
Y43925D01*
X41325Y43975D01*
X41225D01*
X41175Y43925D01*
Y43875D01*
X41375D01*
X42424Y43025D02*
Y42825D01*
X42324Y42725D01*
X42224Y42825D01*
Y43025D01*
X41924Y42975D02*
X41974Y43025D01*
X42074D01*
X42124Y42975D01*
Y42775D01*
X42074Y42725D01*
X41974D01*
X41924Y42775D01*
X41824Y42725D02*
Y42925D01*
X41724Y43025D01*
X41624Y42925D01*
Y42725D01*
Y42875D01*
X41824D01*
X41524Y42725D02*
Y43025D01*
X41375D01*
X41325Y42975D01*
Y42875D01*
X41375Y42825D01*
X41524D01*
X42274Y42025D02*
X42324Y42075D01*
X42424D01*
X42474Y42025D01*
Y41825D01*
X42424Y41775D01*
X42324D01*
X42274Y41825D01*
Y41925D01*
X42374D01*
X42174Y41775D02*
Y42075D01*
X41974Y41775D01*
Y42075D01*
X41874D02*
Y41775D01*
X41724D01*
X41674Y41825D01*
Y42025D01*
X41724Y42075D01*
X41874D01*
X16824Y49775D02*
X16924D01*
X16874D01*
Y49525D01*
X16924Y49475D01*
X16974D01*
X17024Y49525D01*
X16724Y49775D02*
X16524D01*
X16624D01*
Y49475D01*
X16424D02*
Y49675D01*
X16324Y49775D01*
X16224Y49675D01*
Y49475D01*
Y49625D01*
X16424D01*
X15925Y49725D02*
X15975Y49775D01*
X16074D01*
X16124Y49725D01*
Y49525D01*
X16074Y49475D01*
X15975D01*
X15925Y49525D01*
Y49625D01*
X16024D01*
X82861Y47025D02*
Y46825D01*
X82762Y46725D01*
X82662Y46825D01*
Y47025D01*
X82362Y46975D02*
X82412Y47025D01*
X82512D01*
X82562Y46975D01*
Y46775D01*
X82512Y46725D01*
X82412D01*
X82362Y46775D01*
X82062Y46975D02*
X82112Y47025D01*
X82212D01*
X82262Y46975D01*
Y46775D01*
X82212Y46725D01*
X82112D01*
X82062Y46775D01*
X81962Y46675D02*
X81762D01*
X81662Y46725D02*
Y47025D01*
X81562Y46925D01*
X81462Y47025D01*
Y46725D01*
X81162Y46975D02*
X81212Y47025D01*
X81312D01*
X81362Y46975D01*
Y46775D01*
X81312Y46725D01*
X81212D01*
X81162Y46775D01*
X81062Y47025D02*
Y46775D01*
X81012Y46725D01*
X80912D01*
X80862Y46775D01*
Y47025D01*
X82861Y46025D02*
Y45825D01*
X82762Y45725D01*
X82662Y45825D01*
Y46025D01*
X82362Y45975D02*
X82412Y46025D01*
X82512D01*
X82562Y45975D01*
Y45775D01*
X82512Y45725D01*
X82412D01*
X82362Y45775D01*
X82062Y45975D02*
X82112Y46025D01*
X82212D01*
X82262Y45975D01*
Y45775D01*
X82212Y45725D01*
X82112D01*
X82062Y45775D01*
X81962Y45675D02*
X81762D01*
X81462Y45975D02*
X81512Y46025D01*
X81612D01*
X81662Y45975D01*
Y45925D01*
X81612Y45875D01*
X81512D01*
X81462Y45825D01*
Y45775D01*
X81512Y45725D01*
X81612D01*
X81662Y45775D01*
X81212Y45725D02*
X81312D01*
X81362Y45775D01*
Y45875D01*
X81312Y45925D01*
X81212D01*
X81162Y45875D01*
Y45825D01*
X81362D01*
X81062Y45725D02*
Y45925D01*
X80912D01*
X80862Y45875D01*
Y45725D01*
X80762D02*
X80612D01*
X80562Y45775D01*
X80612Y45825D01*
X80712D01*
X80762Y45875D01*
X80712Y45925D01*
X80562D01*
X80312Y45725D02*
X80412D01*
X80462Y45775D01*
Y45875D01*
X80412Y45925D01*
X80312D01*
X80262Y45875D01*
Y45825D01*
X80462D01*
X82811Y45025D02*
Y44825D01*
X82712Y44725D01*
X82612Y44825D01*
Y45025D01*
X82512Y44675D02*
X82312D01*
X82212Y44725D02*
Y45025D01*
X82062D01*
X82012Y44975D01*
Y44875D01*
X82062Y44825D01*
X82212D01*
X81912Y45025D02*
Y44725D01*
Y44875D01*
X81862Y44925D01*
X81762D01*
X81712Y44875D01*
Y44725D01*
X81562Y44925D02*
X81462D01*
X81412Y44875D01*
Y44725D01*
X81562D01*
X81612Y44775D01*
X81562Y44825D01*
X81412D01*
X81312Y44725D02*
X81162D01*
X81112Y44775D01*
X81162Y44825D01*
X81262D01*
X81312Y44875D01*
X81262Y44925D01*
X81112D01*
X80862Y44725D02*
X80962D01*
X81012Y44775D01*
Y44875D01*
X80962Y44925D01*
X80862D01*
X80812Y44875D01*
Y44825D01*
X81012D01*
X82861Y44075D02*
X82762D01*
X82811D01*
Y43775D01*
X82861D01*
X82762D01*
X82612Y43725D02*
X82412D01*
X82312Y44075D02*
Y43775D01*
X82212Y43875D01*
X82112Y43775D01*
Y44075D01*
X81962Y43975D02*
X81862D01*
X81812Y43925D01*
Y43775D01*
X81962D01*
X82012Y43825D01*
X81962Y43875D01*
X81812D01*
X81712Y43975D02*
X81612Y43775D01*
X81512Y43975D01*
X81262Y43775D02*
X81362D01*
X81412Y43825D01*
Y43925D01*
X81362Y43975D01*
X81262D01*
X81212Y43925D01*
Y43875D01*
X81412D01*
X82461Y43025D02*
Y42825D01*
X82362Y42725D01*
X82262Y42825D01*
Y43025D01*
X81962Y42975D02*
X82012Y43025D01*
X82112D01*
X82162Y42975D01*
Y42775D01*
X82112Y42725D01*
X82012D01*
X81962Y42775D01*
X81862Y42725D02*
Y42925D01*
X81762Y43025D01*
X81662Y42925D01*
Y42725D01*
Y42875D01*
X81862D01*
X81562Y42725D02*
Y43025D01*
X81412D01*
X81362Y42975D01*
Y42875D01*
X81412Y42825D01*
X81562D01*
X82312Y42025D02*
X82362Y42075D01*
X82461D01*
X82511Y42025D01*
Y41825D01*
X82461Y41775D01*
X82362D01*
X82312Y41825D01*
Y41925D01*
X82412D01*
X82212Y41775D02*
Y42075D01*
X82012Y41775D01*
Y42075D01*
X81912D02*
Y41775D01*
X81762D01*
X81712Y41825D01*
Y42025D01*
X81762Y42075D01*
X81912D01*
X56862Y49775D02*
X56962D01*
X56912D01*
Y49525D01*
X56962Y49475D01*
X57011D01*
X57061Y49525D01*
X56762Y49775D02*
X56562D01*
X56662D01*
Y49475D01*
X56462D02*
Y49675D01*
X56362Y49775D01*
X56262Y49675D01*
Y49475D01*
Y49625D01*
X56462D01*
X55962Y49725D02*
X56012Y49775D01*
X56112D01*
X56162Y49725D01*
Y49525D01*
X56112Y49475D01*
X56012D01*
X55962Y49525D01*
Y49625D01*
X56062D01*
D82*
X17254Y18154D02*
X19695D01*
Y16894D02*
Y18154D01*
X17254Y16894D02*
X19695D01*
X17254D02*
Y18154D01*
X57291D02*
X59732D01*
Y16894D02*
Y18154D01*
X57291Y16894D02*
X59732D01*
X57291D02*
Y18154D01*
X17254Y28904D02*
X19695D01*
Y27645D02*
Y28904D01*
X17254Y27645D02*
X19695D01*
X17254D02*
Y28904D01*
X57291D02*
X59732D01*
Y27645D02*
Y28904D01*
X57291Y27645D02*
X59732D01*
X57291D02*
Y28904D01*
X17254Y39655D02*
X19695D01*
Y38395D02*
Y39655D01*
X17254Y38395D02*
X19695D01*
X17254D02*
Y39655D01*
X57291D02*
X59732D01*
Y38395D02*
Y39655D01*
X57291Y38395D02*
X59732D01*
X57291D02*
Y39655D01*
X17254Y50405D02*
X19695D01*
Y49145D02*
Y50405D01*
X17254Y49145D02*
X19695D01*
X17254D02*
Y50405D01*
X57291D02*
X59732D01*
Y49145D02*
Y50405D01*
X57291Y49145D02*
X59732D01*
X57291D02*
Y50405D01*
M02*
