G04 Layer_Physical_Order=6*
G04 Layer_Color=16711680*
%FSLAX24Y24*%
%MOIN*%
G70*
G01*
G75*
%ADD10R,0.0800X0.0800*%
%ADD11C,0.0800*%
%ADD12C,0.0080*%
%ADD13C,0.0120*%
%ADD14C,0.0150*%
%ADD15C,0.0200*%
%ADD64C,0.0310*%
%ADD71C,0.0850*%
%ADD72C,0.0700*%
%ADD73C,0.0220*%
%ADD74C,0.0200*%
%ADD75C,0.0217*%
%ADD76C,0.0240*%
%ADD77R,0.0650X0.0400*%
D10*
X3937Y3937D02*
D03*
D11*
Y54837D02*
D03*
X86567D02*
D03*
Y3937D02*
D03*
D12*
X19974Y17974D02*
G03*
X19824Y18124I-150J0D01*
G01*
X18624D02*
G03*
X18474Y17974I0J-150D01*
G01*
X20124Y18024D02*
G03*
X19874Y18274I-250J0D01*
G01*
X18124D02*
G03*
X17974Y18124I0J-150D01*
G01*
X19824Y17774D02*
G03*
X19624Y17974I-200J0D01*
G01*
X19024D02*
G03*
X18974Y17924I0J-50D01*
G01*
X20961Y17811D02*
X23174D01*
X18624Y18124D02*
X19824D01*
X18474Y17774D02*
Y17974D01*
X19974Y15674D02*
Y17974D01*
X20124Y15722D02*
Y18024D01*
X18124Y18274D02*
X19874D01*
X17974Y17774D02*
Y18124D01*
X19024Y17974D02*
X19624D01*
X18974Y17774D02*
Y17924D01*
X19824Y15557D02*
Y17774D01*
X22124Y16174D02*
X30024D01*
X30824Y16974D01*
X22124Y15974D02*
X31474D01*
X22074Y16424D02*
X29024D01*
X21596Y15946D02*
X22074Y16424D01*
X21674Y16624D02*
X28274D01*
X17947Y14547D02*
Y15352D01*
X15924Y17374D02*
X17947Y15352D01*
X19724Y11274D02*
X19824Y11374D01*
X19527Y13774D02*
X19626Y13676D01*
X18724Y13774D02*
X19527D01*
X18518Y13980D02*
X18724Y13774D01*
X32124Y16524D02*
Y17724D01*
X31854Y17994D02*
X32124Y17724D01*
X35774D02*
X38824D01*
X34324Y16274D02*
X35774Y17724D01*
X32824Y16274D02*
X34324D01*
X23324Y11574D02*
X24724Y12974D01*
X19624Y11574D02*
X23324D01*
X19324Y11274D02*
X19624Y11574D01*
X23424Y11374D02*
X25024Y12974D01*
X19824Y11374D02*
X23424D01*
X20124Y15722D02*
X20722Y15124D01*
X18924Y15874D02*
Y16924D01*
Y15874D02*
X19574Y15224D01*
X18724Y16307D02*
Y16324D01*
X18518Y16101D02*
X18724Y16307D01*
X18518Y13980D02*
Y16101D01*
X18474Y17024D02*
Y17274D01*
X18374Y16924D02*
X18474Y17024D01*
X18324Y12720D02*
Y16874D01*
X18374Y16924D01*
X14674Y17813D02*
X15883Y16604D01*
X14674Y17813D02*
Y17824D01*
X15883Y16604D02*
X15894D01*
X17024Y15474D01*
X15924Y17374D02*
Y17824D01*
X18074Y10824D02*
X18724D01*
X13024D02*
X18074D01*
Y14024D01*
X17474Y14624D02*
X18074Y14024D01*
X17474Y14624D02*
Y15392D01*
X17233Y15633D02*
X17474Y15392D01*
X16774Y12824D02*
Y14724D01*
Y12824D02*
X17524Y12074D01*
X17024Y15424D02*
Y15474D01*
X11624Y12224D02*
X13024Y10824D01*
X15424Y13889D02*
X17174Y12139D01*
X15424Y13889D02*
Y15024D01*
X15274Y12124D02*
X15824D01*
X14174Y13224D02*
X15274Y12124D01*
X14174Y13224D02*
Y14074D01*
X9024Y10824D02*
Y13424D01*
X10624Y15024D01*
Y17874D01*
X19574Y12874D02*
X19924Y12524D01*
X23324D01*
X19147Y10964D02*
Y11897D01*
X19589Y12339D01*
X23789D01*
X24524Y13074D01*
X24724Y12974D02*
Y13574D01*
X24524Y13074D02*
Y13524D01*
X24374Y13674D02*
X24524Y13524D01*
X23974Y13674D02*
X24374D01*
X23774Y13474D02*
X23974Y13674D01*
X24374Y13924D02*
X24724Y13574D01*
X24274Y13924D02*
X24374D01*
X24174Y13374D02*
X24274D01*
X18807Y10624D02*
X19147Y10964D01*
X18624Y10624D02*
X18807D01*
X18574Y10574D02*
X18624Y10624D01*
X19324Y10943D02*
Y11274D01*
X23324Y12524D02*
X24174Y13374D01*
X25024Y12974D02*
Y13324D01*
X18324Y12720D02*
X18947Y12097D01*
X43274Y14624D02*
Y14974D01*
X23074Y18224D02*
X23624Y17674D01*
X24374D01*
X18474Y17274D02*
Y17324D01*
X21024Y18224D02*
X23074D01*
X20722Y15124D02*
X22422D01*
X20674Y14974D02*
X22374D01*
X20557Y14824D02*
X22324D01*
X9924Y11874D02*
X10274Y12224D01*
X34224Y16774D02*
Y17974D01*
X39207Y16968D02*
Y17341D01*
X38824Y17724D02*
X39207Y17341D01*
X32524Y16574D02*
X32824Y16274D01*
X33924Y16474D02*
X34224Y16774D01*
X33924Y18274D02*
X34224Y17974D01*
X20774Y15824D02*
Y16024D01*
X27774Y18274D02*
X33924D01*
X32524Y16574D02*
Y17874D01*
X32264Y18134D02*
X32524Y17874D01*
X19824Y15557D02*
X20557Y14824D01*
X19974Y15674D02*
X20674Y14974D01*
X21174Y15824D02*
Y16124D01*
X21420Y15946D02*
X21596D01*
X10274Y12224D02*
X11624D01*
X20424Y16574D02*
Y16924D01*
X20785Y17985D02*
X21024Y18224D01*
X20774Y17624D02*
X20961Y17811D01*
X32124Y16524D02*
X32624Y16024D01*
X34624D01*
X36074Y17474D01*
X21974Y15824D02*
X22124Y15974D01*
X21174Y16124D02*
X21674Y16624D01*
X26739Y17239D02*
X27774Y18274D01*
X20424Y16924D02*
X20739Y17239D01*
X26739D01*
X27909Y18134D02*
X32264D01*
X20774Y16024D02*
X21824Y17074D01*
X26849D01*
X27909Y18134D01*
X30824Y16974D02*
Y17574D01*
X29024Y16424D02*
X30374Y17774D01*
X31624D01*
X28274Y16624D02*
X29644Y17994D01*
X31854D01*
X22422Y15124D02*
X23774Y13772D01*
Y13474D02*
Y13772D01*
X22374Y14974D02*
X23574Y13774D01*
Y13274D02*
Y13774D01*
X22324Y14824D02*
X23224Y13924D01*
Y13074D02*
Y13924D01*
X31474Y15974D02*
X32374Y15074D01*
X33924D01*
X18705Y10324D02*
X19324Y10943D01*
X9024Y10824D02*
X9524Y10324D01*
X18705D01*
X60011Y17974D02*
G03*
X59861Y18124I-150J0D01*
G01*
X58661D02*
G03*
X58511Y17974I0J-150D01*
G01*
X60161Y18024D02*
G03*
X59911Y18274I-250J0D01*
G01*
X58161D02*
G03*
X58011Y18124I0J-150D01*
G01*
X59861Y17774D02*
G03*
X59661Y17974I-200J0D01*
G01*
X59061D02*
G03*
X59011Y17924I0J-50D01*
G01*
X60998Y17811D02*
X63211D01*
X58661Y18124D02*
X59861D01*
X58511Y17774D02*
Y17974D01*
X60011Y15674D02*
Y17974D01*
X60161Y15722D02*
Y18024D01*
X58161Y18274D02*
X59911D01*
X58011Y17774D02*
Y18124D01*
X59061Y17974D02*
X59661D01*
X59011Y17774D02*
Y17924D01*
X59861Y15557D02*
Y17774D01*
X62161Y16174D02*
X70061D01*
X70861Y16974D01*
X62161Y15974D02*
X71511D01*
X62111Y16424D02*
X69061D01*
X61633Y15946D02*
X62111Y16424D01*
X61711Y16624D02*
X68311D01*
X57984Y14547D02*
Y15352D01*
X55961Y17374D02*
X57984Y15352D01*
X59761Y11274D02*
X59861Y11374D01*
X59565Y13774D02*
X59663Y13676D01*
X58761Y13774D02*
X59565D01*
X58556Y13980D02*
X58761Y13774D01*
X72161Y16524D02*
Y17724D01*
X71891Y17994D02*
X72161Y17724D01*
X75811D02*
X78861D01*
X74361Y16274D02*
X75811Y17724D01*
X72861Y16274D02*
X74361D01*
X63361Y11574D02*
X64761Y12974D01*
X59661Y11574D02*
X63361D01*
X59361Y11274D02*
X59661Y11574D01*
X63461Y11374D02*
X65061Y12974D01*
X59861Y11374D02*
X63461D01*
X60161Y15722D02*
X60759Y15124D01*
X58961Y15874D02*
Y16924D01*
Y15874D02*
X59611Y15224D01*
X58761Y16307D02*
Y16324D01*
X58556Y16101D02*
X58761Y16307D01*
X58556Y13980D02*
Y16101D01*
X58511Y17024D02*
Y17274D01*
X58411Y16924D02*
X58511Y17024D01*
X58361Y12720D02*
Y16874D01*
X58411Y16924D01*
X54711Y17813D02*
X55920Y16604D01*
X54711Y17813D02*
Y17824D01*
X55920Y16604D02*
X55931D01*
X57061Y15474D01*
X55961Y17374D02*
Y17824D01*
X58111Y10824D02*
X58761D01*
X53061D02*
X58111D01*
Y14024D01*
X57511Y14624D02*
X58111Y14024D01*
X57511Y14624D02*
Y15392D01*
X57270Y15633D02*
X57511Y15392D01*
X56811Y12824D02*
Y14724D01*
Y12824D02*
X57561Y12074D01*
X57061Y15424D02*
Y15474D01*
X51661Y12224D02*
X53061Y10824D01*
X55461Y13889D02*
X57211Y12139D01*
X55461Y13889D02*
Y15024D01*
X55311Y12124D02*
X55861D01*
X54211Y13224D02*
X55311Y12124D01*
X54211Y13224D02*
Y14074D01*
X49061Y10824D02*
Y13424D01*
X50661Y15024D01*
Y17874D01*
X59611Y12874D02*
X59961Y12524D01*
X63361D01*
X59184Y10964D02*
Y11897D01*
X59626Y12339D01*
X63826D01*
X64561Y13074D01*
X64761Y12974D02*
Y13574D01*
X64561Y13074D02*
Y13524D01*
X64411Y13674D02*
X64561Y13524D01*
X64011Y13674D02*
X64411D01*
X63811Y13474D02*
X64011Y13674D01*
X64411Y13924D02*
X64761Y13574D01*
X64311Y13924D02*
X64411D01*
X64211Y13374D02*
X64311D01*
X58844Y10624D02*
X59184Y10964D01*
X58661Y10624D02*
X58844D01*
X58611Y10574D02*
X58661Y10624D01*
X59361Y10943D02*
Y11274D01*
X63361Y12524D02*
X64211Y13374D01*
X65061Y12974D02*
Y13324D01*
X58361Y12720D02*
X58984Y12097D01*
X83311Y14624D02*
Y14974D01*
X63111Y18224D02*
X63661Y17674D01*
X64411D01*
X58511Y17274D02*
Y17324D01*
X61061Y18224D02*
X63111D01*
X60759Y15124D02*
X62459D01*
X60711Y14974D02*
X62411D01*
X60594Y14824D02*
X62361D01*
X49961Y11874D02*
X50311Y12224D01*
X74261Y16774D02*
Y17974D01*
X79245Y16968D02*
Y17341D01*
X78861Y17724D02*
X79245Y17341D01*
X72561Y16574D02*
X72861Y16274D01*
X73961Y16474D02*
X74261Y16774D01*
X73961Y18274D02*
X74261Y17974D01*
X60811Y15824D02*
Y16024D01*
X67811Y18274D02*
X73961D01*
X72561Y16574D02*
Y17874D01*
X72301Y18134D02*
X72561Y17874D01*
X59861Y15557D02*
X60594Y14824D01*
X60011Y15674D02*
X60711Y14974D01*
X61211Y15824D02*
Y16124D01*
X61457Y15946D02*
X61633D01*
X50311Y12224D02*
X51661D01*
X60461Y16574D02*
Y16924D01*
X60823Y17985D02*
X61061Y18224D01*
X60811Y17624D02*
X60998Y17811D01*
X72161Y16524D02*
X72661Y16024D01*
X74661D01*
X76111Y17474D01*
X62011Y15824D02*
X62161Y15974D01*
X61211Y16124D02*
X61711Y16624D01*
X66776Y17239D02*
X67811Y18274D01*
X60461Y16924D02*
X60776Y17239D01*
X66776D01*
X67947Y18134D02*
X72301D01*
X60811Y16024D02*
X61861Y17074D01*
X66887D01*
X67947Y18134D01*
X70861Y16974D02*
Y17574D01*
X69061Y16424D02*
X70411Y17774D01*
X71661D01*
X68311Y16624D02*
X69681Y17994D01*
X71891D01*
X62459Y15124D02*
X63811Y13772D01*
Y13474D02*
Y13772D01*
X62411Y14974D02*
X63611Y13774D01*
Y13274D02*
Y13774D01*
X62361Y14824D02*
X63261Y13924D01*
Y13074D02*
Y13924D01*
X71511Y15974D02*
X72411Y15074D01*
X73961D01*
X58742Y10324D02*
X59361Y10943D01*
X49061Y10824D02*
X49561Y10324D01*
X58742D01*
X19974Y28724D02*
G03*
X19824Y28874I-150J0D01*
G01*
X18624D02*
G03*
X18474Y28724I0J-150D01*
G01*
X20124Y28774D02*
G03*
X19874Y29024I-250J0D01*
G01*
X18124D02*
G03*
X17974Y28874I0J-150D01*
G01*
X19824Y28524D02*
G03*
X19624Y28724I-200J0D01*
G01*
X19024D02*
G03*
X18974Y28674I0J-50D01*
G01*
X20961Y28561D02*
X23174D01*
X18624Y28874D02*
X19824D01*
X18474Y28524D02*
Y28724D01*
X19974Y26424D02*
Y28724D01*
X20124Y26472D02*
Y28774D01*
X18124Y29024D02*
X19874D01*
X17974Y28524D02*
Y28874D01*
X19024Y28724D02*
X19624D01*
X18974Y28524D02*
Y28674D01*
X19824Y26307D02*
Y28524D01*
X22124Y26924D02*
X30024D01*
X30824Y27724D01*
X22124Y26724D02*
X31474D01*
X22074Y27174D02*
X29024D01*
X21596Y26696D02*
X22074Y27174D01*
X21674Y27374D02*
X28274D01*
X17947Y25297D02*
Y26102D01*
X15924Y28124D02*
X17947Y26102D01*
X19724Y22024D02*
X19824Y22124D01*
X19527Y24524D02*
X19626Y24426D01*
X18724Y24524D02*
X19527D01*
X18518Y24730D02*
X18724Y24524D01*
X32124Y27274D02*
Y28474D01*
X31854Y28744D02*
X32124Y28474D01*
X35774D02*
X38824D01*
X34324Y27024D02*
X35774Y28474D01*
X32824Y27024D02*
X34324D01*
X23324Y22324D02*
X24724Y23724D01*
X19624Y22324D02*
X23324D01*
X19324Y22024D02*
X19624Y22324D01*
X23424Y22124D02*
X25024Y23724D01*
X19824Y22124D02*
X23424D01*
X20124Y26472D02*
X20722Y25874D01*
X18924Y26624D02*
Y27674D01*
Y26624D02*
X19574Y25974D01*
X18724Y27057D02*
Y27074D01*
X18518Y26851D02*
X18724Y27057D01*
X18518Y24730D02*
Y26851D01*
X18474Y27774D02*
Y28024D01*
X18374Y27674D02*
X18474Y27774D01*
X18324Y23470D02*
Y27624D01*
X18374Y27674D01*
X14674Y28563D02*
X15883Y27354D01*
X14674Y28563D02*
Y28574D01*
X15883Y27354D02*
X15894D01*
X17024Y26224D01*
X15924Y28124D02*
Y28574D01*
X18074Y21574D02*
X18724D01*
X13024D02*
X18074D01*
Y24774D01*
X17474Y25374D02*
X18074Y24774D01*
X17474Y25374D02*
Y26142D01*
X17233Y26383D02*
X17474Y26142D01*
X16774Y23574D02*
Y25474D01*
Y23574D02*
X17524Y22824D01*
X17024Y26174D02*
Y26224D01*
X11624Y22974D02*
X13024Y21574D01*
X15424Y24639D02*
X17174Y22889D01*
X15424Y24639D02*
Y25774D01*
X15274Y22874D02*
X15824D01*
X14174Y23974D02*
X15274Y22874D01*
X14174Y23974D02*
Y24824D01*
X9024Y21574D02*
Y24174D01*
X10624Y25774D01*
Y28624D01*
X19574Y23624D02*
X19924Y23274D01*
X23324D01*
X19147Y21714D02*
Y22647D01*
X19589Y23089D01*
X23789D01*
X24524Y23824D01*
X24724Y23724D02*
Y24324D01*
X24524Y23824D02*
Y24274D01*
X24374Y24424D02*
X24524Y24274D01*
X23974Y24424D02*
X24374D01*
X23774Y24224D02*
X23974Y24424D01*
X24374Y24674D02*
X24724Y24324D01*
X24274Y24674D02*
X24374D01*
X24174Y24124D02*
X24274D01*
X18807Y21374D02*
X19147Y21714D01*
X18624Y21374D02*
X18807D01*
X18574Y21324D02*
X18624Y21374D01*
X19324Y21694D02*
Y22024D01*
X23324Y23274D02*
X24174Y24124D01*
X25024Y23724D02*
Y24074D01*
X18324Y23470D02*
X18947Y22847D01*
X43274Y25374D02*
Y25724D01*
X23074Y28974D02*
X23624Y28424D01*
X24374D01*
X18474Y28024D02*
Y28074D01*
X21024Y28974D02*
X23074D01*
X20722Y25874D02*
X22422D01*
X20674Y25724D02*
X22374D01*
X20557Y25574D02*
X22324D01*
X9924Y22624D02*
X10274Y22974D01*
X34224Y27524D02*
Y28724D01*
X39207Y27719D02*
Y28091D01*
X38824Y28474D02*
X39207Y28091D01*
X32524Y27324D02*
X32824Y27024D01*
X33924Y27224D02*
X34224Y27524D01*
X33924Y29024D02*
X34224Y28724D01*
X20774Y26574D02*
Y26774D01*
X27774Y29024D02*
X33924D01*
X32524Y27324D02*
Y28624D01*
X32264Y28884D02*
X32524Y28624D01*
X19824Y26307D02*
X20557Y25574D01*
X19974Y26424D02*
X20674Y25724D01*
X21174Y26574D02*
Y26874D01*
X21420Y26696D02*
X21596D01*
X10274Y22974D02*
X11624D01*
X20424Y27324D02*
Y27674D01*
X20785Y28735D02*
X21024Y28974D01*
X20774Y28374D02*
X20961Y28561D01*
X32124Y27274D02*
X32624Y26774D01*
X34624D01*
X36074Y28224D01*
X21974Y26574D02*
X22124Y26724D01*
X21174Y26874D02*
X21674Y27374D01*
X26739Y27989D02*
X27774Y29024D01*
X20424Y27674D02*
X20739Y27989D01*
X26739D01*
X27909Y28884D02*
X32264D01*
X20774Y26774D02*
X21824Y27824D01*
X26849D01*
X27909Y28884D01*
X30824Y27724D02*
Y28324D01*
X29024Y27174D02*
X30374Y28524D01*
X31624D01*
X28274Y27374D02*
X29644Y28744D01*
X31854D01*
X22422Y25874D02*
X23774Y24522D01*
Y24224D02*
Y24522D01*
X22374Y25724D02*
X23574Y24524D01*
Y24024D02*
Y24524D01*
X22324Y25574D02*
X23224Y24674D01*
Y23824D02*
Y24674D01*
X31474Y26724D02*
X32374Y25824D01*
X33924D01*
X18705Y21074D02*
X19324Y21694D01*
X9024Y21574D02*
X9524Y21074D01*
X18705D01*
X60011Y28724D02*
G03*
X59861Y28874I-150J0D01*
G01*
X58661D02*
G03*
X58511Y28724I0J-150D01*
G01*
X60161Y28774D02*
G03*
X59911Y29024I-250J0D01*
G01*
X58161D02*
G03*
X58011Y28874I0J-150D01*
G01*
X59861Y28524D02*
G03*
X59661Y28724I-200J0D01*
G01*
X59061D02*
G03*
X59011Y28674I0J-50D01*
G01*
X60998Y28561D02*
X63211D01*
X58661Y28874D02*
X59861D01*
X58511Y28524D02*
Y28724D01*
X60011Y26424D02*
Y28724D01*
X60161Y26472D02*
Y28774D01*
X58161Y29024D02*
X59911D01*
X58011Y28524D02*
Y28874D01*
X59061Y28724D02*
X59661D01*
X59011Y28524D02*
Y28674D01*
X59861Y26307D02*
Y28524D01*
X62161Y26924D02*
X70061D01*
X70861Y27724D01*
X62161Y26724D02*
X71511D01*
X62111Y27174D02*
X69061D01*
X61633Y26696D02*
X62111Y27174D01*
X61711Y27374D02*
X68311D01*
X57984Y25297D02*
Y26102D01*
X55961Y28124D02*
X57984Y26102D01*
X59761Y22024D02*
X59861Y22124D01*
X59565Y24524D02*
X59663Y24426D01*
X58761Y24524D02*
X59565D01*
X58556Y24730D02*
X58761Y24524D01*
X72161Y27274D02*
Y28474D01*
X71891Y28744D02*
X72161Y28474D01*
X75811D02*
X78861D01*
X74361Y27024D02*
X75811Y28474D01*
X72861Y27024D02*
X74361D01*
X63361Y22324D02*
X64761Y23724D01*
X59661Y22324D02*
X63361D01*
X59361Y22024D02*
X59661Y22324D01*
X63461Y22124D02*
X65061Y23724D01*
X59861Y22124D02*
X63461D01*
X60161Y26472D02*
X60759Y25874D01*
X58961Y26624D02*
Y27674D01*
Y26624D02*
X59611Y25974D01*
X58761Y27057D02*
Y27074D01*
X58556Y26851D02*
X58761Y27057D01*
X58556Y24730D02*
Y26851D01*
X58511Y27774D02*
Y28024D01*
X58411Y27674D02*
X58511Y27774D01*
X58361Y23470D02*
Y27624D01*
X58411Y27674D01*
X54711Y28563D02*
X55920Y27354D01*
X54711Y28563D02*
Y28574D01*
X55920Y27354D02*
X55931D01*
X57061Y26224D01*
X55961Y28124D02*
Y28574D01*
X58111Y21574D02*
X58761D01*
X53061D02*
X58111D01*
Y24774D01*
X57511Y25374D02*
X58111Y24774D01*
X57511Y25374D02*
Y26142D01*
X57270Y26383D02*
X57511Y26142D01*
X56811Y23574D02*
Y25474D01*
Y23574D02*
X57561Y22824D01*
X57061Y26174D02*
Y26224D01*
X51661Y22974D02*
X53061Y21574D01*
X55461Y24639D02*
X57211Y22889D01*
X55461Y24639D02*
Y25774D01*
X55311Y22874D02*
X55861D01*
X54211Y23974D02*
X55311Y22874D01*
X54211Y23974D02*
Y24824D01*
X49061Y21574D02*
Y24174D01*
X50661Y25774D01*
Y28624D01*
X59611Y23624D02*
X59961Y23274D01*
X63361D01*
X59184Y21714D02*
Y22647D01*
X59626Y23089D01*
X63826D01*
X64561Y23824D01*
X64761Y23724D02*
Y24324D01*
X64561Y23824D02*
Y24274D01*
X64411Y24424D02*
X64561Y24274D01*
X64011Y24424D02*
X64411D01*
X63811Y24224D02*
X64011Y24424D01*
X64411Y24674D02*
X64761Y24324D01*
X64311Y24674D02*
X64411D01*
X64211Y24124D02*
X64311D01*
X58844Y21374D02*
X59184Y21714D01*
X58661Y21374D02*
X58844D01*
X58611Y21324D02*
X58661Y21374D01*
X59361Y21694D02*
Y22024D01*
X63361Y23274D02*
X64211Y24124D01*
X65061Y23724D02*
Y24074D01*
X58361Y23470D02*
X58984Y22847D01*
X83311Y25374D02*
Y25724D01*
X63111Y28974D02*
X63661Y28424D01*
X64411D01*
X58511Y28024D02*
Y28074D01*
X61061Y28974D02*
X63111D01*
X60759Y25874D02*
X62459D01*
X60711Y25724D02*
X62411D01*
X60594Y25574D02*
X62361D01*
X49961Y22624D02*
X50311Y22974D01*
X74261Y27524D02*
Y28724D01*
X79245Y27719D02*
Y28091D01*
X78861Y28474D02*
X79245Y28091D01*
X72561Y27324D02*
X72861Y27024D01*
X73961Y27224D02*
X74261Y27524D01*
X73961Y29024D02*
X74261Y28724D01*
X60811Y26574D02*
Y26774D01*
X67811Y29024D02*
X73961D01*
X72561Y27324D02*
Y28624D01*
X72301Y28884D02*
X72561Y28624D01*
X59861Y26307D02*
X60594Y25574D01*
X60011Y26424D02*
X60711Y25724D01*
X61211Y26574D02*
Y26874D01*
X61457Y26696D02*
X61633D01*
X50311Y22974D02*
X51661D01*
X60461Y27324D02*
Y27674D01*
X60823Y28735D02*
X61061Y28974D01*
X60811Y28374D02*
X60998Y28561D01*
X72161Y27274D02*
X72661Y26774D01*
X74661D01*
X76111Y28224D01*
X62011Y26574D02*
X62161Y26724D01*
X61211Y26874D02*
X61711Y27374D01*
X66776Y27989D02*
X67811Y29024D01*
X60461Y27674D02*
X60776Y27989D01*
X66776D01*
X67947Y28884D02*
X72301D01*
X60811Y26774D02*
X61861Y27824D01*
X66887D01*
X67947Y28884D01*
X70861Y27724D02*
Y28324D01*
X69061Y27174D02*
X70411Y28524D01*
X71661D01*
X68311Y27374D02*
X69681Y28744D01*
X71891D01*
X62459Y25874D02*
X63811Y24522D01*
Y24224D02*
Y24522D01*
X62411Y25724D02*
X63611Y24524D01*
Y24024D02*
Y24524D01*
X62361Y25574D02*
X63261Y24674D01*
Y23824D02*
Y24674D01*
X71511Y26724D02*
X72411Y25824D01*
X73961D01*
X58742Y21074D02*
X59361Y21694D01*
X49061Y21574D02*
X49561Y21074D01*
X58742D01*
X19974Y39475D02*
G03*
X19824Y39625I-150J0D01*
G01*
X18624D02*
G03*
X18474Y39475I0J-150D01*
G01*
X20124Y39525D02*
G03*
X19874Y39775I-250J0D01*
G01*
X18124D02*
G03*
X17974Y39625I0J-150D01*
G01*
X19824Y39275D02*
G03*
X19624Y39475I-200J0D01*
G01*
X19024D02*
G03*
X18974Y39425I0J-50D01*
G01*
X20961Y39312D02*
X23174D01*
X18624Y39625D02*
X19824D01*
X18474Y39275D02*
Y39475D01*
X19974Y37175D02*
Y39475D01*
X20124Y37223D02*
Y39525D01*
X18124Y39775D02*
X19874D01*
X17974Y39275D02*
Y39625D01*
X19024Y39475D02*
X19624D01*
X18974Y39275D02*
Y39425D01*
X19824Y37058D02*
Y39275D01*
X22124Y37675D02*
X30024D01*
X30824Y38475D01*
X22124Y37475D02*
X31474D01*
X22074Y37925D02*
X29024D01*
X21596Y37447D02*
X22074Y37925D01*
X21674Y38125D02*
X28274D01*
X17947Y36047D02*
Y36852D01*
X15924Y38875D02*
X17947Y36852D01*
X19724Y32775D02*
X19824Y32875D01*
X19527Y35275D02*
X19626Y35176D01*
X18724Y35275D02*
X19527D01*
X18518Y35481D02*
X18724Y35275D01*
X32124Y38025D02*
Y39225D01*
X31854Y39495D02*
X32124Y39225D01*
X35774D02*
X38824D01*
X34324Y37775D02*
X35774Y39225D01*
X32824Y37775D02*
X34324D01*
X23324Y33075D02*
X24724Y34475D01*
X19624Y33075D02*
X23324D01*
X19324Y32775D02*
X19624Y33075D01*
X23424Y32875D02*
X25024Y34475D01*
X19824Y32875D02*
X23424D01*
X20124Y37223D02*
X20722Y36625D01*
X18924Y37375D02*
Y38425D01*
Y37375D02*
X19574Y36725D01*
X18724Y37808D02*
Y37825D01*
X18518Y37602D02*
X18724Y37808D01*
X18518Y35481D02*
Y37602D01*
X18474Y38525D02*
Y38775D01*
X18374Y38425D02*
X18474Y38525D01*
X18324Y34220D02*
Y38375D01*
X18374Y38425D01*
X14674Y39314D02*
X15883Y38105D01*
X14674Y39314D02*
Y39325D01*
X15883Y38105D02*
X15894D01*
X17024Y36975D01*
X15924Y38875D02*
Y39325D01*
X18074Y32325D02*
X18724D01*
X13024D02*
X18074D01*
Y35525D01*
X17474Y36125D02*
X18074Y35525D01*
X17474Y36125D02*
Y36892D01*
X17233Y37134D02*
X17474Y36892D01*
X16774Y34325D02*
Y36225D01*
Y34325D02*
X17524Y33575D01*
X17024Y36925D02*
Y36975D01*
X11624Y33725D02*
X13024Y32325D01*
X15424Y35390D02*
X17174Y33640D01*
X15424Y35390D02*
Y36525D01*
X15274Y33625D02*
X15824D01*
X14174Y34725D02*
X15274Y33625D01*
X14174Y34725D02*
Y35575D01*
X9024Y32325D02*
Y34925D01*
X10624Y36525D01*
Y39375D01*
X19574Y34375D02*
X19924Y34025D01*
X23324D01*
X19147Y32465D02*
Y33398D01*
X19589Y33840D01*
X23789D01*
X24524Y34575D01*
X24724Y34475D02*
Y35075D01*
X24524Y34575D02*
Y35025D01*
X24374Y35175D02*
X24524Y35025D01*
X23974Y35175D02*
X24374D01*
X23774Y34975D02*
X23974Y35175D01*
X24374Y35425D02*
X24724Y35075D01*
X24274Y35425D02*
X24374D01*
X24174Y34875D02*
X24274D01*
X18807Y32125D02*
X19147Y32465D01*
X18624Y32125D02*
X18807D01*
X18574Y32075D02*
X18624Y32125D01*
X19324Y32444D02*
Y32775D01*
X23324Y34025D02*
X24174Y34875D01*
X25024Y34475D02*
Y34825D01*
X18324Y34220D02*
X18947Y33598D01*
X43274Y36125D02*
Y36475D01*
X23074Y39725D02*
X23624Y39175D01*
X24374D01*
X18474Y38775D02*
Y38825D01*
X21024Y39725D02*
X23074D01*
X20722Y36625D02*
X22422D01*
X20674Y36475D02*
X22374D01*
X20557Y36325D02*
X22324D01*
X9924Y33375D02*
X10274Y33725D01*
X34224Y38275D02*
Y39475D01*
X39207Y38469D02*
Y38842D01*
X38824Y39225D02*
X39207Y38842D01*
X32524Y38075D02*
X32824Y37775D01*
X33924Y37975D02*
X34224Y38275D01*
X33924Y39775D02*
X34224Y39475D01*
X20774Y37325D02*
Y37525D01*
X27774Y39775D02*
X33924D01*
X32524Y38075D02*
Y39375D01*
X32264Y39635D02*
X32524Y39375D01*
X19824Y37058D02*
X20557Y36325D01*
X19974Y37175D02*
X20674Y36475D01*
X21174Y37325D02*
Y37625D01*
X21420Y37447D02*
X21596D01*
X10274Y33725D02*
X11624D01*
X20424Y38075D02*
Y38425D01*
X20785Y39486D02*
X21024Y39725D01*
X20774Y39125D02*
X20961Y39312D01*
X32124Y38025D02*
X32624Y37525D01*
X34624D01*
X36074Y38975D01*
X21974Y37325D02*
X22124Y37475D01*
X21174Y37625D02*
X21674Y38125D01*
X26739Y38740D02*
X27774Y39775D01*
X20424Y38425D02*
X20739Y38740D01*
X26739D01*
X27909Y39635D02*
X32264D01*
X20774Y37525D02*
X21824Y38575D01*
X26849D01*
X27909Y39635D01*
X30824Y38475D02*
Y39075D01*
X29024Y37925D02*
X30374Y39275D01*
X31624D01*
X28274Y38125D02*
X29644Y39495D01*
X31854D01*
X22422Y36625D02*
X23774Y35273D01*
Y34975D02*
Y35273D01*
X22374Y36475D02*
X23574Y35275D01*
Y34775D02*
Y35275D01*
X22324Y36325D02*
X23224Y35425D01*
Y34575D02*
Y35425D01*
X31474Y37475D02*
X32374Y36575D01*
X33924D01*
X18705Y31825D02*
X19324Y32444D01*
X9024Y32325D02*
X9524Y31825D01*
X18705D01*
X60011Y39475D02*
G03*
X59861Y39625I-150J0D01*
G01*
X58661D02*
G03*
X58511Y39475I0J-150D01*
G01*
X60161Y39525D02*
G03*
X59911Y39775I-250J0D01*
G01*
X58161D02*
G03*
X58011Y39625I0J-150D01*
G01*
X59861Y39275D02*
G03*
X59661Y39475I-200J0D01*
G01*
X59061D02*
G03*
X59011Y39425I0J-50D01*
G01*
X60998Y39312D02*
X63211D01*
X58661Y39625D02*
X59861D01*
X58511Y39275D02*
Y39475D01*
X60011Y37175D02*
Y39475D01*
X60161Y37223D02*
Y39525D01*
X58161Y39775D02*
X59911D01*
X58011Y39275D02*
Y39625D01*
X59061Y39475D02*
X59661D01*
X59011Y39275D02*
Y39425D01*
X59861Y37058D02*
Y39275D01*
X62161Y37675D02*
X70061D01*
X70861Y38475D01*
X62161Y37475D02*
X71511D01*
X62111Y37925D02*
X69061D01*
X61633Y37447D02*
X62111Y37925D01*
X61711Y38125D02*
X68311D01*
X57984Y36047D02*
Y36852D01*
X55961Y38875D02*
X57984Y36852D01*
X59761Y32775D02*
X59861Y32875D01*
X59565Y35275D02*
X59663Y35176D01*
X58761Y35275D02*
X59565D01*
X58556Y35481D02*
X58761Y35275D01*
X72161Y38025D02*
Y39225D01*
X71891Y39495D02*
X72161Y39225D01*
X75811D02*
X78861D01*
X74361Y37775D02*
X75811Y39225D01*
X72861Y37775D02*
X74361D01*
X63361Y33075D02*
X64761Y34475D01*
X59661Y33075D02*
X63361D01*
X59361Y32775D02*
X59661Y33075D01*
X63461Y32875D02*
X65061Y34475D01*
X59861Y32875D02*
X63461D01*
X60161Y37223D02*
X60759Y36625D01*
X58961Y37375D02*
Y38425D01*
Y37375D02*
X59611Y36725D01*
X58761Y37808D02*
Y37825D01*
X58556Y37602D02*
X58761Y37808D01*
X58556Y35481D02*
Y37602D01*
X58511Y38525D02*
Y38775D01*
X58411Y38425D02*
X58511Y38525D01*
X58361Y34220D02*
Y38375D01*
X58411Y38425D01*
X54711Y39314D02*
X55920Y38105D01*
X54711Y39314D02*
Y39325D01*
X55920Y38105D02*
X55931D01*
X57061Y36975D01*
X55961Y38875D02*
Y39325D01*
X58111Y32325D02*
X58761D01*
X53061D02*
X58111D01*
Y35525D01*
X57511Y36125D02*
X58111Y35525D01*
X57511Y36125D02*
Y36892D01*
X57270Y37134D02*
X57511Y36892D01*
X56811Y34325D02*
Y36225D01*
Y34325D02*
X57561Y33575D01*
X57061Y36925D02*
Y36975D01*
X51661Y33725D02*
X53061Y32325D01*
X55461Y35390D02*
X57211Y33640D01*
X55461Y35390D02*
Y36525D01*
X55311Y33625D02*
X55861D01*
X54211Y34725D02*
X55311Y33625D01*
X54211Y34725D02*
Y35575D01*
X49061Y32325D02*
Y34925D01*
X50661Y36525D01*
Y39375D01*
X59611Y34375D02*
X59961Y34025D01*
X63361D01*
X59184Y32465D02*
Y33398D01*
X59626Y33840D01*
X63826D01*
X64561Y34575D01*
X64761Y34475D02*
Y35075D01*
X64561Y34575D02*
Y35025D01*
X64411Y35175D02*
X64561Y35025D01*
X64011Y35175D02*
X64411D01*
X63811Y34975D02*
X64011Y35175D01*
X64411Y35425D02*
X64761Y35075D01*
X64311Y35425D02*
X64411D01*
X64211Y34875D02*
X64311D01*
X58844Y32125D02*
X59184Y32465D01*
X58661Y32125D02*
X58844D01*
X58611Y32075D02*
X58661Y32125D01*
X59361Y32444D02*
Y32775D01*
X63361Y34025D02*
X64211Y34875D01*
X65061Y34475D02*
Y34825D01*
X58361Y34220D02*
X58984Y33598D01*
X83311Y36125D02*
Y36475D01*
X63111Y39725D02*
X63661Y39175D01*
X64411D01*
X58511Y38775D02*
Y38825D01*
X61061Y39725D02*
X63111D01*
X60759Y36625D02*
X62459D01*
X60711Y36475D02*
X62411D01*
X60594Y36325D02*
X62361D01*
X49961Y33375D02*
X50311Y33725D01*
X74261Y38275D02*
Y39475D01*
X79245Y38469D02*
Y38842D01*
X78861Y39225D02*
X79245Y38842D01*
X72561Y38075D02*
X72861Y37775D01*
X73961Y37975D02*
X74261Y38275D01*
X73961Y39775D02*
X74261Y39475D01*
X60811Y37325D02*
Y37525D01*
X67811Y39775D02*
X73961D01*
X72561Y38075D02*
Y39375D01*
X72301Y39635D02*
X72561Y39375D01*
X59861Y37058D02*
X60594Y36325D01*
X60011Y37175D02*
X60711Y36475D01*
X61211Y37325D02*
Y37625D01*
X61457Y37447D02*
X61633D01*
X50311Y33725D02*
X51661D01*
X60461Y38075D02*
Y38425D01*
X60823Y39486D02*
X61061Y39725D01*
X60811Y39125D02*
X60998Y39312D01*
X72161Y38025D02*
X72661Y37525D01*
X74661D01*
X76111Y38975D01*
X62011Y37325D02*
X62161Y37475D01*
X61211Y37625D02*
X61711Y38125D01*
X66776Y38740D02*
X67811Y39775D01*
X60461Y38425D02*
X60776Y38740D01*
X66776D01*
X67947Y39635D02*
X72301D01*
X60811Y37525D02*
X61861Y38575D01*
X66887D01*
X67947Y39635D01*
X70861Y38475D02*
Y39075D01*
X69061Y37925D02*
X70411Y39275D01*
X71661D01*
X68311Y38125D02*
X69681Y39495D01*
X71891D01*
X62459Y36625D02*
X63811Y35273D01*
Y34975D02*
Y35273D01*
X62411Y36475D02*
X63611Y35275D01*
Y34775D02*
Y35275D01*
X62361Y36325D02*
X63261Y35425D01*
Y34575D02*
Y35425D01*
X71511Y37475D02*
X72411Y36575D01*
X73961D01*
X58742Y31825D02*
X59361Y32444D01*
X49061Y32325D02*
X49561Y31825D01*
X58742D01*
X19974Y50225D02*
G03*
X19824Y50375I-150J0D01*
G01*
X18624D02*
G03*
X18474Y50225I0J-150D01*
G01*
X20124Y50275D02*
G03*
X19874Y50525I-250J0D01*
G01*
X18124D02*
G03*
X17974Y50375I0J-150D01*
G01*
X19824Y50025D02*
G03*
X19624Y50225I-200J0D01*
G01*
X19024D02*
G03*
X18974Y50175I0J-50D01*
G01*
X20961Y50062D02*
X23174D01*
X18624Y50375D02*
X19824D01*
X18474Y50025D02*
Y50225D01*
X19974Y47925D02*
Y50225D01*
X20124Y47973D02*
Y50275D01*
X18124Y50525D02*
X19874D01*
X17974Y50025D02*
Y50375D01*
X19024Y50225D02*
X19624D01*
X18974Y50025D02*
Y50175D01*
X19824Y47808D02*
Y50025D01*
X22124Y48425D02*
X30024D01*
X30824Y49225D01*
X22124Y48225D02*
X31474D01*
X22074Y48675D02*
X29024D01*
X21596Y48197D02*
X22074Y48675D01*
X21674Y48875D02*
X28274D01*
X17947Y46798D02*
Y47603D01*
X15924Y49625D02*
X17947Y47603D01*
X19724Y43525D02*
X19824Y43625D01*
X19527Y46025D02*
X19626Y45927D01*
X18724Y46025D02*
X19527D01*
X18518Y46231D02*
X18724Y46025D01*
X32124Y48775D02*
Y49975D01*
X31854Y50245D02*
X32124Y49975D01*
X35774D02*
X38824D01*
X34324Y48525D02*
X35774Y49975D01*
X32824Y48525D02*
X34324D01*
X23324Y43825D02*
X24724Y45225D01*
X19624Y43825D02*
X23324D01*
X19324Y43525D02*
X19624Y43825D01*
X23424Y43625D02*
X25024Y45225D01*
X19824Y43625D02*
X23424D01*
X20124Y47973D02*
X20722Y47375D01*
X18924Y48125D02*
Y49175D01*
Y48125D02*
X19574Y47475D01*
X18724Y48558D02*
Y48575D01*
X18518Y48352D02*
X18724Y48558D01*
X18518Y46231D02*
Y48352D01*
X18474Y49275D02*
Y49525D01*
X18374Y49175D02*
X18474Y49275D01*
X18324Y44971D02*
Y49125D01*
X18374Y49175D01*
X14674Y50064D02*
X15883Y48855D01*
X14674Y50064D02*
Y50075D01*
X15883Y48855D02*
X15894D01*
X17024Y47725D01*
X15924Y49625D02*
Y50075D01*
X18074Y43075D02*
X18724D01*
X13024D02*
X18074D01*
Y46275D01*
X17474Y46875D02*
X18074Y46275D01*
X17474Y46875D02*
Y47643D01*
X17233Y47884D02*
X17474Y47643D01*
X16774Y45075D02*
Y46975D01*
Y45075D02*
X17524Y44325D01*
X17024Y47675D02*
Y47725D01*
X11624Y44475D02*
X13024Y43075D01*
X15424Y46140D02*
X17174Y44390D01*
X15424Y46140D02*
Y47275D01*
X15274Y44375D02*
X15824D01*
X14174Y45475D02*
X15274Y44375D01*
X14174Y45475D02*
Y46325D01*
X9024Y43075D02*
Y45675D01*
X10624Y47275D01*
Y50125D01*
X19574Y45125D02*
X19924Y44775D01*
X23324D01*
X19147Y43215D02*
Y44148D01*
X19589Y44590D01*
X23789D01*
X24524Y45325D01*
X24724Y45225D02*
Y45825D01*
X24524Y45325D02*
Y45775D01*
X24374Y45925D02*
X24524Y45775D01*
X23974Y45925D02*
X24374D01*
X23774Y45725D02*
X23974Y45925D01*
X24374Y46175D02*
X24724Y45825D01*
X24274Y46175D02*
X24374D01*
X24174Y45625D02*
X24274D01*
X18807Y42875D02*
X19147Y43215D01*
X18624Y42875D02*
X18807D01*
X18574Y42825D02*
X18624Y42875D01*
X19324Y43194D02*
Y43525D01*
X23324Y44775D02*
X24174Y45625D01*
X25024Y45225D02*
Y45575D01*
X18324Y44971D02*
X18947Y44348D01*
X43274Y46875D02*
Y47225D01*
X23074Y50475D02*
X23624Y49925D01*
X24374D01*
X18474Y49525D02*
Y49575D01*
X21024Y50475D02*
X23074D01*
X20722Y47375D02*
X22422D01*
X20674Y47225D02*
X22374D01*
X20557Y47075D02*
X22324D01*
X9924Y44125D02*
X10274Y44475D01*
X34224Y49025D02*
Y50225D01*
X39207Y49219D02*
Y49592D01*
X38824Y49975D02*
X39207Y49592D01*
X32524Y48825D02*
X32824Y48525D01*
X33924Y48725D02*
X34224Y49025D01*
X33924Y50525D02*
X34224Y50225D01*
X20774Y48075D02*
Y48275D01*
X27774Y50525D02*
X33924D01*
X32524Y48825D02*
Y50125D01*
X32264Y50385D02*
X32524Y50125D01*
X19824Y47808D02*
X20557Y47075D01*
X19974Y47925D02*
X20674Y47225D01*
X21174Y48075D02*
Y48375D01*
X21420Y48197D02*
X21596D01*
X10274Y44475D02*
X11624D01*
X20424Y48825D02*
Y49175D01*
X20785Y50236D02*
X21024Y50475D01*
X20774Y49875D02*
X20961Y50062D01*
X32124Y48775D02*
X32624Y48275D01*
X34624D01*
X36074Y49725D01*
X21974Y48075D02*
X22124Y48225D01*
X21174Y48375D02*
X21674Y48875D01*
X26739Y49490D02*
X27774Y50525D01*
X20424Y49175D02*
X20739Y49490D01*
X26739D01*
X27909Y50385D02*
X32264D01*
X20774Y48275D02*
X21824Y49325D01*
X26849D01*
X27909Y50385D01*
X30824Y49225D02*
Y49825D01*
X29024Y48675D02*
X30374Y50025D01*
X31624D01*
X28274Y48875D02*
X29644Y50245D01*
X31854D01*
X22422Y47375D02*
X23774Y46023D01*
Y45725D02*
Y46023D01*
X22374Y47225D02*
X23574Y46025D01*
Y45525D02*
Y46025D01*
X22324Y47075D02*
X23224Y46175D01*
Y45325D02*
Y46175D01*
X31474Y48225D02*
X32374Y47325D01*
X33924D01*
X18705Y42575D02*
X19324Y43194D01*
X9024Y43075D02*
X9524Y42575D01*
X18705D01*
X60011Y50225D02*
G03*
X59861Y50375I-150J0D01*
G01*
X58661D02*
G03*
X58511Y50225I0J-150D01*
G01*
X60161Y50275D02*
G03*
X59911Y50525I-250J0D01*
G01*
X58161D02*
G03*
X58011Y50375I0J-150D01*
G01*
X59861Y50025D02*
G03*
X59661Y50225I-200J0D01*
G01*
X59061D02*
G03*
X59011Y50175I0J-50D01*
G01*
X60998Y50062D02*
X63211D01*
X58661Y50375D02*
X59861D01*
X58511Y50025D02*
Y50225D01*
X60011Y47925D02*
Y50225D01*
X60161Y47973D02*
Y50275D01*
X58161Y50525D02*
X59911D01*
X58011Y50025D02*
Y50375D01*
X59061Y50225D02*
X59661D01*
X59011Y50025D02*
Y50175D01*
X59861Y47808D02*
Y50025D01*
X62161Y48425D02*
X70061D01*
X70861Y49225D01*
X62161Y48225D02*
X71511D01*
X62111Y48675D02*
X69061D01*
X61633Y48197D02*
X62111Y48675D01*
X61711Y48875D02*
X68311D01*
X57984Y46798D02*
Y47603D01*
X55961Y49625D02*
X57984Y47603D01*
X59761Y43525D02*
X59861Y43625D01*
X59565Y46025D02*
X59663Y45927D01*
X58761Y46025D02*
X59565D01*
X58556Y46231D02*
X58761Y46025D01*
X72161Y48775D02*
Y49975D01*
X71891Y50245D02*
X72161Y49975D01*
X75811D02*
X78861D01*
X74361Y48525D02*
X75811Y49975D01*
X72861Y48525D02*
X74361D01*
X63361Y43825D02*
X64761Y45225D01*
X59661Y43825D02*
X63361D01*
X59361Y43525D02*
X59661Y43825D01*
X63461Y43625D02*
X65061Y45225D01*
X59861Y43625D02*
X63461D01*
X60161Y47973D02*
X60759Y47375D01*
X58961Y48125D02*
Y49175D01*
Y48125D02*
X59611Y47475D01*
X58761Y48558D02*
Y48575D01*
X58556Y48352D02*
X58761Y48558D01*
X58556Y46231D02*
Y48352D01*
X58511Y49275D02*
Y49525D01*
X58411Y49175D02*
X58511Y49275D01*
X58361Y44971D02*
Y49125D01*
X58411Y49175D01*
X54711Y50064D02*
X55920Y48855D01*
X54711Y50064D02*
Y50075D01*
X55920Y48855D02*
X55931D01*
X57061Y47725D01*
X55961Y49625D02*
Y50075D01*
X58111Y43075D02*
X58761D01*
X53061D02*
X58111D01*
Y46275D01*
X57511Y46875D02*
X58111Y46275D01*
X57511Y46875D02*
Y47643D01*
X57270Y47884D02*
X57511Y47643D01*
X56811Y45075D02*
Y46975D01*
Y45075D02*
X57561Y44325D01*
X57061Y47675D02*
Y47725D01*
X51661Y44475D02*
X53061Y43075D01*
X55461Y46140D02*
X57211Y44390D01*
X55461Y46140D02*
Y47275D01*
X55311Y44375D02*
X55861D01*
X54211Y45475D02*
X55311Y44375D01*
X54211Y45475D02*
Y46325D01*
X49061Y43075D02*
Y45675D01*
X50661Y47275D01*
Y50125D01*
X59611Y45125D02*
X59961Y44775D01*
X63361D01*
X59184Y43215D02*
Y44148D01*
X59626Y44590D01*
X63826D01*
X64561Y45325D01*
X64761Y45225D02*
Y45825D01*
X64561Y45325D02*
Y45775D01*
X64411Y45925D02*
X64561Y45775D01*
X64011Y45925D02*
X64411D01*
X63811Y45725D02*
X64011Y45925D01*
X64411Y46175D02*
X64761Y45825D01*
X64311Y46175D02*
X64411D01*
X64211Y45625D02*
X64311D01*
X58844Y42875D02*
X59184Y43215D01*
X58661Y42875D02*
X58844D01*
X58611Y42825D02*
X58661Y42875D01*
X59361Y43194D02*
Y43525D01*
X63361Y44775D02*
X64211Y45625D01*
X65061Y45225D02*
Y45575D01*
X58361Y44971D02*
X58984Y44348D01*
X83311Y46875D02*
Y47225D01*
X63111Y50475D02*
X63661Y49925D01*
X64411D01*
X58511Y49525D02*
Y49575D01*
X61061Y50475D02*
X63111D01*
X60759Y47375D02*
X62459D01*
X60711Y47225D02*
X62411D01*
X60594Y47075D02*
X62361D01*
X49961Y44125D02*
X50311Y44475D01*
X74261Y49025D02*
Y50225D01*
X79245Y49219D02*
Y49592D01*
X78861Y49975D02*
X79245Y49592D01*
X72561Y48825D02*
X72861Y48525D01*
X73961Y48725D02*
X74261Y49025D01*
X73961Y50525D02*
X74261Y50225D01*
X60811Y48075D02*
Y48275D01*
X67811Y50525D02*
X73961D01*
X72561Y48825D02*
Y50125D01*
X72301Y50385D02*
X72561Y50125D01*
X59861Y47808D02*
X60594Y47075D01*
X60011Y47925D02*
X60711Y47225D01*
X61211Y48075D02*
Y48375D01*
X61457Y48197D02*
X61633D01*
X50311Y44475D02*
X51661D01*
X60461Y48825D02*
Y49175D01*
X60823Y50236D02*
X61061Y50475D01*
X60811Y49875D02*
X60998Y50062D01*
X72161Y48775D02*
X72661Y48275D01*
X74661D01*
X76111Y49725D01*
X62011Y48075D02*
X62161Y48225D01*
X61211Y48375D02*
X61711Y48875D01*
X66776Y49490D02*
X67811Y50525D01*
X60461Y49175D02*
X60776Y49490D01*
X66776D01*
X67947Y50385D02*
X72301D01*
X60811Y48275D02*
X61861Y49325D01*
X66887D01*
X67947Y50385D01*
X70861Y49225D02*
Y49825D01*
X69061Y48675D02*
X70411Y50025D01*
X71661D01*
X68311Y48875D02*
X69681Y50245D01*
X71891D01*
X62459Y47375D02*
X63811Y46023D01*
Y45725D02*
Y46023D01*
X62411Y47225D02*
X63611Y46025D01*
Y45525D02*
Y46025D01*
X62361Y47075D02*
X63261Y46175D01*
Y45325D02*
Y46175D01*
X71511Y48225D02*
X72411Y47325D01*
X73961D01*
X58742Y42575D02*
X59361Y43194D01*
X49061Y43075D02*
X49561Y42575D01*
X58742D01*
D13*
X22365Y15765D02*
X28884D01*
X36224Y16674D02*
X39574D01*
X34574Y15024D02*
X36224Y16674D01*
X34574Y13824D02*
Y15024D01*
X41105Y13694D02*
Y14324D01*
Y13694D02*
X42274Y12524D01*
X42455Y13374D02*
Y14324D01*
Y13374D02*
X42655Y13174D01*
X33474Y14024D02*
X35874Y11624D01*
X29074Y14024D02*
X33474D01*
X28574Y14524D02*
X29074Y14024D01*
X35874Y11624D02*
X43274D01*
X33184Y13234D02*
X33524Y13574D01*
X31684Y13234D02*
X33184D01*
X28214D02*
X31684D01*
X32024Y13574D01*
X26764Y13234D02*
X28214D01*
X27924Y13524D02*
X28214Y13234D01*
X26498Y13500D02*
X26764Y13234D01*
X29374Y14324D02*
X33674D01*
X30824Y12374D02*
X31824D01*
X25324Y10374D02*
X27074D01*
X27424Y10724D01*
X25074Y10624D02*
X25324Y10374D01*
X25824Y10874D02*
X25974Y10724D01*
X24824Y10874D02*
X25824D01*
X24574Y10624D02*
X24824Y10874D01*
X35824Y12174D02*
X42424D01*
X33674Y14324D02*
X35824Y12174D01*
X28884Y15765D02*
X29174Y15474D01*
X21924Y15324D02*
X22365Y15765D01*
X28574Y14524D02*
Y15274D01*
X20774Y16274D02*
Y16574D01*
X20524Y15574D02*
X20774Y15324D01*
X21924D01*
X20524Y16024D02*
X20774Y16274D01*
X20524Y15574D02*
Y16024D01*
X12774Y10524D02*
X17874D01*
X11424Y11874D02*
X12774Y10524D01*
X28774Y12974D02*
X30824D01*
X42774Y9624D02*
X43274D01*
X42424Y12174D02*
X42874Y12624D01*
X29174Y14524D02*
X29374Y14324D01*
X42874Y12624D02*
X43274D01*
X38374Y17974D02*
X38624Y18224D01*
X43324D01*
X43754Y17794D01*
Y14104D02*
Y17794D01*
X43274Y13624D02*
X43754Y14104D01*
X17974Y17274D02*
Y17324D01*
Y16924D02*
Y17274D01*
X29174Y14524D02*
Y15474D01*
X25262Y12674D02*
X26124D01*
X24568Y11980D02*
X25262Y12674D01*
X26880Y11980D02*
X27574Y12674D01*
X25080Y11980D02*
X26880D01*
X62402Y15765D02*
X68921D01*
X76261Y16674D02*
X79611D01*
X74611Y15024D02*
X76261Y16674D01*
X74611Y13824D02*
Y15024D01*
X81142Y13694D02*
Y14324D01*
Y13694D02*
X82311Y12524D01*
X82492Y13374D02*
Y14324D01*
Y13374D02*
X82692Y13174D01*
X73511Y14024D02*
X75911Y11624D01*
X69111Y14024D02*
X73511D01*
X68611Y14524D02*
X69111Y14024D01*
X75911Y11624D02*
X83311D01*
X73221Y13234D02*
X73561Y13574D01*
X71721Y13234D02*
X73221D01*
X68251D02*
X71721D01*
X72061Y13574D01*
X66801Y13234D02*
X68251D01*
X67961Y13524D02*
X68251Y13234D01*
X66535Y13500D02*
X66801Y13234D01*
X69411Y14324D02*
X73711D01*
X70861Y12374D02*
X71861D01*
X65361Y10374D02*
X67111D01*
X67461Y10724D01*
X65111Y10624D02*
X65361Y10374D01*
X65861Y10874D02*
X66011Y10724D01*
X64861Y10874D02*
X65861D01*
X64611Y10624D02*
X64861Y10874D01*
X75861Y12174D02*
X82461D01*
X73711Y14324D02*
X75861Y12174D01*
X68921Y15765D02*
X69211Y15474D01*
X61961Y15324D02*
X62402Y15765D01*
X68611Y14524D02*
Y15274D01*
X60811Y16274D02*
Y16574D01*
X60561Y15574D02*
X60811Y15324D01*
X61961D01*
X60561Y16024D02*
X60811Y16274D01*
X60561Y15574D02*
Y16024D01*
X52811Y10524D02*
X57911D01*
X51461Y11874D02*
X52811Y10524D01*
X68811Y12974D02*
X70861D01*
X82811Y9624D02*
X83311D01*
X82461Y12174D02*
X82911Y12624D01*
X69211Y14524D02*
X69411Y14324D01*
X82911Y12624D02*
X83311D01*
X78411Y17974D02*
X78661Y18224D01*
X83361D01*
X83791Y17794D01*
Y14104D02*
Y17794D01*
X83311Y13624D02*
X83791Y14104D01*
X58011Y17274D02*
Y17324D01*
Y16924D02*
Y17274D01*
X69211Y14524D02*
Y15474D01*
X65300Y12674D02*
X66161D01*
X64606Y11980D02*
X65300Y12674D01*
X66917Y11980D02*
X67611Y12674D01*
X65117Y11980D02*
X66917D01*
X22365Y26515D02*
X28884D01*
X36224Y27424D02*
X39574D01*
X34574Y25774D02*
X36224Y27424D01*
X34574Y24574D02*
Y25774D01*
X41105Y24444D02*
Y25074D01*
Y24444D02*
X42274Y23274D01*
X42455Y24124D02*
Y25074D01*
Y24124D02*
X42655Y23924D01*
X33474Y24774D02*
X35874Y22374D01*
X29074Y24774D02*
X33474D01*
X28574Y25274D02*
X29074Y24774D01*
X35874Y22374D02*
X43274D01*
X33184Y23984D02*
X33524Y24324D01*
X31684Y23984D02*
X33184D01*
X28214D02*
X31684D01*
X32024Y24324D01*
X26764Y23984D02*
X28214D01*
X27924Y24274D02*
X28214Y23984D01*
X26498Y24250D02*
X26764Y23984D01*
X29374Y25074D02*
X33674D01*
X30824Y23124D02*
X31824D01*
X25324Y21124D02*
X27074D01*
X27424Y21474D01*
X25074Y21374D02*
X25324Y21124D01*
X25824Y21624D02*
X25974Y21474D01*
X24824Y21624D02*
X25824D01*
X24574Y21374D02*
X24824Y21624D01*
X35824Y22924D02*
X42424D01*
X33674Y25074D02*
X35824Y22924D01*
X28884Y26515D02*
X29174Y26224D01*
X21924Y26074D02*
X22365Y26515D01*
X28574Y25274D02*
Y26024D01*
X20774Y27024D02*
Y27324D01*
X20524Y26324D02*
X20774Y26074D01*
X21924D01*
X20524Y26774D02*
X20774Y27024D01*
X20524Y26324D02*
Y26774D01*
X12774Y21274D02*
X17874D01*
X11424Y22624D02*
X12774Y21274D01*
X28774Y23724D02*
X30824D01*
X42774Y20374D02*
X43274D01*
X42424Y22924D02*
X42874Y23374D01*
X29174Y25274D02*
X29374Y25074D01*
X42874Y23374D02*
X43274D01*
X38374Y28724D02*
X38624Y28974D01*
X43324D01*
X43754Y28544D01*
Y24854D02*
Y28544D01*
X43274Y24374D02*
X43754Y24854D01*
X17974Y28024D02*
Y28074D01*
Y27674D02*
Y28024D01*
X29174Y25274D02*
Y26224D01*
X25262Y23424D02*
X26124D01*
X24568Y22730D02*
X25262Y23424D01*
X26880Y22730D02*
X27574Y23424D01*
X25080Y22730D02*
X26880D01*
X62402Y26515D02*
X68921D01*
X76261Y27424D02*
X79611D01*
X74611Y25774D02*
X76261Y27424D01*
X74611Y24574D02*
Y25774D01*
X81142Y24444D02*
Y25074D01*
Y24444D02*
X82311Y23274D01*
X82492Y24124D02*
Y25074D01*
Y24124D02*
X82692Y23924D01*
X73511Y24774D02*
X75911Y22374D01*
X69111Y24774D02*
X73511D01*
X68611Y25274D02*
X69111Y24774D01*
X75911Y22374D02*
X83311D01*
X73221Y23984D02*
X73561Y24324D01*
X71721Y23984D02*
X73221D01*
X68251D02*
X71721D01*
X72061Y24324D01*
X66801Y23984D02*
X68251D01*
X67961Y24274D02*
X68251Y23984D01*
X66535Y24250D02*
X66801Y23984D01*
X69411Y25074D02*
X73711D01*
X70861Y23124D02*
X71861D01*
X65361Y21124D02*
X67111D01*
X67461Y21474D01*
X65111Y21374D02*
X65361Y21124D01*
X65861Y21624D02*
X66011Y21474D01*
X64861Y21624D02*
X65861D01*
X64611Y21374D02*
X64861Y21624D01*
X75861Y22924D02*
X82461D01*
X73711Y25074D02*
X75861Y22924D01*
X68921Y26515D02*
X69211Y26224D01*
X61961Y26074D02*
X62402Y26515D01*
X68611Y25274D02*
Y26024D01*
X60811Y27024D02*
Y27324D01*
X60561Y26324D02*
X60811Y26074D01*
X61961D01*
X60561Y26774D02*
X60811Y27024D01*
X60561Y26324D02*
Y26774D01*
X52811Y21274D02*
X57911D01*
X51461Y22624D02*
X52811Y21274D01*
X68811Y23724D02*
X70861D01*
X82811Y20374D02*
X83311D01*
X82461Y22924D02*
X82911Y23374D01*
X69211Y25274D02*
X69411Y25074D01*
X82911Y23374D02*
X83311D01*
X78411Y28724D02*
X78661Y28974D01*
X83361D01*
X83791Y28544D01*
Y24854D02*
Y28544D01*
X83311Y24374D02*
X83791Y24854D01*
X58011Y28024D02*
Y28074D01*
Y27674D02*
Y28024D01*
X69211Y25274D02*
Y26224D01*
X65300Y23424D02*
X66161D01*
X64606Y22730D02*
X65300Y23424D01*
X66917Y22730D02*
X67611Y23424D01*
X65117Y22730D02*
X66917D01*
X22365Y37265D02*
X28884D01*
X36224Y38175D02*
X39574D01*
X34574Y36525D02*
X36224Y38175D01*
X34574Y35325D02*
Y36525D01*
X41105Y35194D02*
Y35825D01*
Y35194D02*
X42274Y34025D01*
X42455Y34875D02*
Y35825D01*
Y34875D02*
X42655Y34675D01*
X33474Y35525D02*
X35874Y33125D01*
X29074Y35525D02*
X33474D01*
X28574Y36025D02*
X29074Y35525D01*
X35874Y33125D02*
X43274D01*
X33184Y34735D02*
X33524Y35075D01*
X31684Y34735D02*
X33184D01*
X28214D02*
X31684D01*
X32024Y35075D01*
X26764Y34735D02*
X28214D01*
X27924Y35025D02*
X28214Y34735D01*
X26498Y35001D02*
X26764Y34735D01*
X29374Y35825D02*
X33674D01*
X30824Y33875D02*
X31824D01*
X25324Y31875D02*
X27074D01*
X27424Y32225D01*
X25074Y32125D02*
X25324Y31875D01*
X25824Y32375D02*
X25974Y32225D01*
X24824Y32375D02*
X25824D01*
X24574Y32125D02*
X24824Y32375D01*
X35824Y33675D02*
X42424D01*
X33674Y35825D02*
X35824Y33675D01*
X28884Y37265D02*
X29174Y36975D01*
X21924Y36825D02*
X22365Y37265D01*
X28574Y36025D02*
Y36775D01*
X20774Y37775D02*
Y38075D01*
X20524Y37075D02*
X20774Y36825D01*
X21924D01*
X20524Y37525D02*
X20774Y37775D01*
X20524Y37075D02*
Y37525D01*
X12774Y32025D02*
X17874D01*
X11424Y33375D02*
X12774Y32025D01*
X28774Y34475D02*
X30824D01*
X42774Y31125D02*
X43274D01*
X42424Y33675D02*
X42874Y34125D01*
X29174Y36025D02*
X29374Y35825D01*
X42874Y34125D02*
X43274D01*
X38374Y39475D02*
X38624Y39725D01*
X43324D01*
X43754Y39295D01*
Y35605D02*
Y39295D01*
X43274Y35125D02*
X43754Y35605D01*
X17974Y38775D02*
Y38825D01*
Y38425D02*
Y38775D01*
X29174Y36025D02*
Y36975D01*
X25262Y34175D02*
X26124D01*
X24568Y33481D02*
X25262Y34175D01*
X26880Y33481D02*
X27574Y34175D01*
X25080Y33481D02*
X26880D01*
X62402Y37265D02*
X68921D01*
X76261Y38175D02*
X79611D01*
X74611Y36525D02*
X76261Y38175D01*
X74611Y35325D02*
Y36525D01*
X81142Y35194D02*
Y35825D01*
Y35194D02*
X82311Y34025D01*
X82492Y34875D02*
Y35825D01*
Y34875D02*
X82692Y34675D01*
X73511Y35525D02*
X75911Y33125D01*
X69111Y35525D02*
X73511D01*
X68611Y36025D02*
X69111Y35525D01*
X75911Y33125D02*
X83311D01*
X73221Y34735D02*
X73561Y35075D01*
X71721Y34735D02*
X73221D01*
X68251D02*
X71721D01*
X72061Y35075D01*
X66801Y34735D02*
X68251D01*
X67961Y35025D02*
X68251Y34735D01*
X66535Y35001D02*
X66801Y34735D01*
X69411Y35825D02*
X73711D01*
X70861Y33875D02*
X71861D01*
X65361Y31875D02*
X67111D01*
X67461Y32225D01*
X65111Y32125D02*
X65361Y31875D01*
X65861Y32375D02*
X66011Y32225D01*
X64861Y32375D02*
X65861D01*
X64611Y32125D02*
X64861Y32375D01*
X75861Y33675D02*
X82461D01*
X73711Y35825D02*
X75861Y33675D01*
X68921Y37265D02*
X69211Y36975D01*
X61961Y36825D02*
X62402Y37265D01*
X68611Y36025D02*
Y36775D01*
X60811Y37775D02*
Y38075D01*
X60561Y37075D02*
X60811Y36825D01*
X61961D01*
X60561Y37525D02*
X60811Y37775D01*
X60561Y37075D02*
Y37525D01*
X52811Y32025D02*
X57911D01*
X51461Y33375D02*
X52811Y32025D01*
X68811Y34475D02*
X70861D01*
X82811Y31125D02*
X83311D01*
X82461Y33675D02*
X82911Y34125D01*
X69211Y36025D02*
X69411Y35825D01*
X82911Y34125D02*
X83311D01*
X78411Y39475D02*
X78661Y39725D01*
X83361D01*
X83791Y39295D01*
Y35605D02*
Y39295D01*
X83311Y35125D02*
X83791Y35605D01*
X58011Y38775D02*
Y38825D01*
Y38425D02*
Y38775D01*
X69211Y36025D02*
Y36975D01*
X65300Y34175D02*
X66161D01*
X64606Y33481D02*
X65300Y34175D01*
X66917Y33481D02*
X67611Y34175D01*
X65117Y33481D02*
X66917D01*
X22365Y48016D02*
X28884D01*
X36224Y48925D02*
X39574D01*
X34574Y47275D02*
X36224Y48925D01*
X34574Y46075D02*
Y47275D01*
X41105Y45945D02*
Y46575D01*
Y45945D02*
X42274Y44775D01*
X42455Y45625D02*
Y46575D01*
Y45625D02*
X42655Y45425D01*
X33474Y46275D02*
X35874Y43875D01*
X29074Y46275D02*
X33474D01*
X28574Y46775D02*
X29074Y46275D01*
X35874Y43875D02*
X43274D01*
X33184Y45485D02*
X33524Y45825D01*
X31684Y45485D02*
X33184D01*
X28214D02*
X31684D01*
X32024Y45825D01*
X26764Y45485D02*
X28214D01*
X27924Y45775D02*
X28214Y45485D01*
X26498Y45751D02*
X26764Y45485D01*
X29374Y46575D02*
X33674D01*
X30824Y44625D02*
X31824D01*
X25324Y42625D02*
X27074D01*
X27424Y42975D01*
X25074Y42875D02*
X25324Y42625D01*
X25824Y43125D02*
X25974Y42975D01*
X24824Y43125D02*
X25824D01*
X24574Y42875D02*
X24824Y43125D01*
X35824Y44425D02*
X42424D01*
X33674Y46575D02*
X35824Y44425D01*
X28884Y48016D02*
X29174Y47725D01*
X21924Y47575D02*
X22365Y48016D01*
X28574Y46775D02*
Y47525D01*
X20774Y48525D02*
Y48825D01*
X20524Y47825D02*
X20774Y47575D01*
X21924D01*
X20524Y48275D02*
X20774Y48525D01*
X20524Y47825D02*
Y48275D01*
X12774Y42775D02*
X17874D01*
X11424Y44125D02*
X12774Y42775D01*
X28774Y45225D02*
X30824D01*
X42774Y41875D02*
X43274D01*
X42424Y44425D02*
X42874Y44875D01*
X29174Y46775D02*
X29374Y46575D01*
X42874Y44875D02*
X43274D01*
X38374Y50225D02*
X38624Y50475D01*
X43324D01*
X43754Y50045D01*
Y46355D02*
Y50045D01*
X43274Y45875D02*
X43754Y46355D01*
X17974Y49525D02*
Y49575D01*
Y49175D02*
Y49525D01*
X29174Y46775D02*
Y47725D01*
X25262Y44925D02*
X26124D01*
X24568Y44231D02*
X25262Y44925D01*
X26880Y44231D02*
X27574Y44925D01*
X25080Y44231D02*
X26880D01*
X62402Y48016D02*
X68921D01*
X76261Y48925D02*
X79611D01*
X74611Y47275D02*
X76261Y48925D01*
X74611Y46075D02*
Y47275D01*
X81142Y45945D02*
Y46575D01*
Y45945D02*
X82311Y44775D01*
X82492Y45625D02*
Y46575D01*
Y45625D02*
X82692Y45425D01*
X73511Y46275D02*
X75911Y43875D01*
X69111Y46275D02*
X73511D01*
X68611Y46775D02*
X69111Y46275D01*
X75911Y43875D02*
X83311D01*
X73221Y45485D02*
X73561Y45825D01*
X71721Y45485D02*
X73221D01*
X68251D02*
X71721D01*
X72061Y45825D01*
X66801Y45485D02*
X68251D01*
X67961Y45775D02*
X68251Y45485D01*
X66535Y45751D02*
X66801Y45485D01*
X69411Y46575D02*
X73711D01*
X70861Y44625D02*
X71861D01*
X65361Y42625D02*
X67111D01*
X67461Y42975D01*
X65111Y42875D02*
X65361Y42625D01*
X65861Y43125D02*
X66011Y42975D01*
X64861Y43125D02*
X65861D01*
X64611Y42875D02*
X64861Y43125D01*
X75861Y44425D02*
X82461D01*
X73711Y46575D02*
X75861Y44425D01*
X68921Y48016D02*
X69211Y47725D01*
X61961Y47575D02*
X62402Y48016D01*
X68611Y46775D02*
Y47525D01*
X60811Y48525D02*
Y48825D01*
X60561Y47825D02*
X60811Y47575D01*
X61961D01*
X60561Y48275D02*
X60811Y48525D01*
X60561Y47825D02*
Y48275D01*
X52811Y42775D02*
X57911D01*
X51461Y44125D02*
X52811Y42775D01*
X68811Y45225D02*
X70861D01*
X82811Y41875D02*
X83311D01*
X82461Y44425D02*
X82911Y44875D01*
X69211Y46775D02*
X69411Y46575D01*
X82911Y44875D02*
X83311D01*
X78411Y50225D02*
X78661Y50475D01*
X83361D01*
X83791Y50045D01*
Y46355D02*
Y50045D01*
X83311Y45875D02*
X83791Y46355D01*
X58011Y49525D02*
Y49575D01*
Y49175D02*
Y49525D01*
X69211Y46775D02*
Y47725D01*
X65300Y44925D02*
X66161D01*
X64606Y44231D02*
X65300Y44925D01*
X66917Y44231D02*
X67611Y44925D01*
X65117Y44231D02*
X66917D01*
D14*
X38879Y15629D02*
X41729D01*
X38824Y15574D02*
X38879Y15629D01*
X19224Y16724D02*
Y17074D01*
X38974Y14724D02*
X42474D01*
X42624Y14874D01*
X41729Y15629D02*
X43224Y17124D01*
X38424Y15274D02*
X38974Y14724D01*
X38424Y15274D02*
Y15924D01*
X18974Y17324D02*
X19224Y17074D01*
X78916Y15629D02*
X81766D01*
X78861Y15574D02*
X78916Y15629D01*
X59261Y16724D02*
Y17074D01*
X79011Y14724D02*
X82511D01*
X82661Y14874D01*
X81766Y15629D02*
X83261Y17124D01*
X78461Y15274D02*
X79011Y14724D01*
X78461Y15274D02*
Y15924D01*
X59011Y17324D02*
X59261Y17074D01*
X38879Y26379D02*
X41729D01*
X38824Y26324D02*
X38879Y26379D01*
X19224Y27474D02*
Y27824D01*
X38974Y25474D02*
X42474D01*
X42624Y25624D01*
X41729Y26379D02*
X43224Y27874D01*
X38424Y26024D02*
X38974Y25474D01*
X38424Y26024D02*
Y26674D01*
X18974Y28074D02*
X19224Y27824D01*
X78916Y26379D02*
X81766D01*
X78861Y26324D02*
X78916Y26379D01*
X59261Y27474D02*
Y27824D01*
X79011Y25474D02*
X82511D01*
X82661Y25624D01*
X81766Y26379D02*
X83261Y27874D01*
X78461Y26024D02*
X79011Y25474D01*
X78461Y26024D02*
Y26674D01*
X59011Y28074D02*
X59261Y27824D01*
X38879Y37130D02*
X41729D01*
X38824Y37075D02*
X38879Y37130D01*
X19224Y38225D02*
Y38575D01*
X38974Y36225D02*
X42474D01*
X42624Y36375D01*
X41729Y37130D02*
X43224Y38625D01*
X38424Y36775D02*
X38974Y36225D01*
X38424Y36775D02*
Y37425D01*
X18974Y38825D02*
X19224Y38575D01*
X78916Y37130D02*
X81766D01*
X78861Y37075D02*
X78916Y37130D01*
X59261Y38225D02*
Y38575D01*
X79011Y36225D02*
X82511D01*
X82661Y36375D01*
X81766Y37130D02*
X83261Y38625D01*
X78461Y36775D02*
X79011Y36225D01*
X78461Y36775D02*
Y37425D01*
X59011Y38825D02*
X59261Y38575D01*
X38879Y47880D02*
X41729D01*
X38824Y47825D02*
X38879Y47880D01*
X19224Y48975D02*
Y49325D01*
X38974Y46975D02*
X42474D01*
X42624Y47125D01*
X41729Y47880D02*
X43224Y49375D01*
X38424Y47525D02*
X38974Y46975D01*
X38424Y47525D02*
Y48175D01*
X18974Y49575D02*
X19224Y49325D01*
X78916Y47880D02*
X81766D01*
X78861Y47825D02*
X78916Y47880D01*
X59261Y48975D02*
Y49325D01*
X79011Y46975D02*
X82511D01*
X82661Y47125D01*
X81766Y47880D02*
X83261Y49375D01*
X78461Y47525D02*
X79011Y46975D01*
X78461Y47525D02*
Y48175D01*
X59011Y49575D02*
X59261Y49325D01*
D15*
X42674Y10624D02*
X43274D01*
X82711D02*
X83311D01*
X42674Y21374D02*
X43274D01*
X82711D02*
X83311D01*
X42674Y32125D02*
X43274D01*
X82711D02*
X83311D01*
X42674Y42875D02*
X43274D01*
X82711D02*
X83311D01*
D64*
X18974Y17274D02*
D03*
X18474D02*
D03*
X17974D02*
D03*
Y17774D02*
D03*
X18474D02*
D03*
X18974D02*
D03*
X59011Y17274D02*
D03*
X58511D02*
D03*
X58011D02*
D03*
Y17774D02*
D03*
X58511D02*
D03*
X59011D02*
D03*
X18974Y28024D02*
D03*
X18474D02*
D03*
X17974D02*
D03*
Y28524D02*
D03*
X18474D02*
D03*
X18974D02*
D03*
X59011Y28024D02*
D03*
X58511D02*
D03*
X58011D02*
D03*
Y28524D02*
D03*
X58511D02*
D03*
X59011D02*
D03*
X18974Y38775D02*
D03*
X18474D02*
D03*
X17974D02*
D03*
Y39275D02*
D03*
X18474D02*
D03*
X18974D02*
D03*
X59011Y38775D02*
D03*
X58511D02*
D03*
X58011D02*
D03*
Y39275D02*
D03*
X58511D02*
D03*
X59011D02*
D03*
X18974Y49525D02*
D03*
X18474D02*
D03*
X17974D02*
D03*
Y50025D02*
D03*
X18474D02*
D03*
X18974D02*
D03*
X59011Y49525D02*
D03*
X58511D02*
D03*
X58011D02*
D03*
Y50025D02*
D03*
X58511D02*
D03*
X59011D02*
D03*
D71*
X25324Y9224D02*
D03*
X33524D02*
D03*
X65361D02*
D03*
X73561D02*
D03*
X25324Y19974D02*
D03*
X33524D02*
D03*
X65361D02*
D03*
X73561D02*
D03*
X25324Y30725D02*
D03*
X33524D02*
D03*
X65361D02*
D03*
X73561D02*
D03*
X25324Y41475D02*
D03*
X33524D02*
D03*
X65361D02*
D03*
X73561D02*
D03*
D72*
X29424Y9224D02*
D03*
X69461D02*
D03*
X29424Y19974D02*
D03*
X69461D02*
D03*
X29424Y30725D02*
D03*
X69461D02*
D03*
X29424Y41475D02*
D03*
X69461D02*
D03*
D73*
X21024Y13374D02*
D03*
X21424Y13774D02*
D03*
Y12974D02*
D03*
X20624Y13774D02*
D03*
Y12974D02*
D03*
X22224D02*
D03*
X20624Y14574D02*
D03*
X22224D02*
D03*
X21424D02*
D03*
X22224Y13774D02*
D03*
X21824Y13374D02*
D03*
X21024Y14174D02*
D03*
X21824D02*
D03*
X35174Y13274D02*
D03*
X61061Y13374D02*
D03*
X61461Y13774D02*
D03*
Y12974D02*
D03*
X60661Y13774D02*
D03*
Y12974D02*
D03*
X62261D02*
D03*
X60661Y14574D02*
D03*
X62261D02*
D03*
X61461D02*
D03*
X62261Y13774D02*
D03*
X61861Y13374D02*
D03*
X61061Y14174D02*
D03*
X61861D02*
D03*
X75211Y13274D02*
D03*
X21024Y24124D02*
D03*
X21424Y24524D02*
D03*
Y23724D02*
D03*
X20624Y24524D02*
D03*
Y23724D02*
D03*
X22224D02*
D03*
X20624Y25324D02*
D03*
X22224D02*
D03*
X21424D02*
D03*
X22224Y24524D02*
D03*
X21824Y24124D02*
D03*
X21024Y24924D02*
D03*
X21824D02*
D03*
X35174Y24024D02*
D03*
X61061Y24124D02*
D03*
X61461Y24524D02*
D03*
Y23724D02*
D03*
X60661Y24524D02*
D03*
Y23724D02*
D03*
X62261D02*
D03*
X60661Y25324D02*
D03*
X62261D02*
D03*
X61461D02*
D03*
X62261Y24524D02*
D03*
X61861Y24124D02*
D03*
X61061Y24924D02*
D03*
X61861D02*
D03*
X75211Y24024D02*
D03*
X21024Y34875D02*
D03*
X21424Y35275D02*
D03*
Y34475D02*
D03*
X20624Y35275D02*
D03*
Y34475D02*
D03*
X22224D02*
D03*
X20624Y36075D02*
D03*
X22224D02*
D03*
X21424D02*
D03*
X22224Y35275D02*
D03*
X21824Y34875D02*
D03*
X21024Y35675D02*
D03*
X21824D02*
D03*
X35174Y34775D02*
D03*
X61061Y34875D02*
D03*
X61461Y35275D02*
D03*
Y34475D02*
D03*
X60661Y35275D02*
D03*
Y34475D02*
D03*
X62261D02*
D03*
X60661Y36075D02*
D03*
X62261D02*
D03*
X61461D02*
D03*
X62261Y35275D02*
D03*
X61861Y34875D02*
D03*
X61061Y35675D02*
D03*
X61861D02*
D03*
X75211Y34775D02*
D03*
X21024Y45625D02*
D03*
X21424Y46025D02*
D03*
Y45225D02*
D03*
X20624Y46025D02*
D03*
Y45225D02*
D03*
X22224D02*
D03*
X20624Y46825D02*
D03*
X22224D02*
D03*
X21424D02*
D03*
X22224Y46025D02*
D03*
X21824Y45625D02*
D03*
X21024Y46425D02*
D03*
X21824D02*
D03*
X35174Y45525D02*
D03*
X61061Y45625D02*
D03*
X61461Y46025D02*
D03*
Y45225D02*
D03*
X60661Y46025D02*
D03*
Y45225D02*
D03*
X62261D02*
D03*
X60661Y46825D02*
D03*
X62261D02*
D03*
X61461D02*
D03*
X62261Y46025D02*
D03*
X61861Y45625D02*
D03*
X61061Y46425D02*
D03*
X61861D02*
D03*
X75211Y45525D02*
D03*
D74*
X17258Y13641D02*
D03*
X17691D02*
D03*
X17258Y13208D02*
D03*
X17691D02*
D03*
X22704Y15545D02*
D03*
X23651Y15451D02*
D03*
X25674Y15474D02*
D03*
X32374Y10024D02*
D03*
X28624Y10424D02*
D03*
X26824Y9274D02*
D03*
X17947Y14547D02*
D03*
X17701Y14847D02*
D03*
X19724Y11274D02*
D03*
X27924Y13524D02*
D03*
X26498Y13500D02*
D03*
X18724Y16324D02*
D03*
X18718Y16018D02*
D03*
X15924Y17824D02*
D03*
X17224Y14874D02*
D03*
X16774Y14724D02*
D03*
X17024Y15424D02*
D03*
X16401Y14797D02*
D03*
X17233Y15633D02*
D03*
X21624Y9774D02*
D03*
X22524D02*
D03*
X22618Y10524D02*
D03*
X30824Y12974D02*
D03*
X19574Y12874D02*
D03*
X19582Y13282D02*
D03*
X19626Y13676D02*
D03*
X19174Y12974D02*
D03*
X24274Y13924D02*
D03*
Y14224D02*
D03*
Y13374D02*
D03*
X24247Y13101D02*
D03*
X23974Y11124D02*
D03*
X23199Y11999D02*
D03*
X22310Y11988D02*
D03*
X23574Y13274D02*
D03*
X17874Y10124D02*
D03*
X27424Y10724D02*
D03*
X25974D02*
D03*
X18424Y11674D02*
D03*
X18624Y11924D02*
D03*
X18947Y12097D02*
D03*
X18724Y10824D02*
D03*
X19074Y10374D02*
D03*
X19424Y10474D02*
D03*
X18574Y10574D02*
D03*
X18568Y11080D02*
D03*
X18724Y13274D02*
D03*
X31074Y13774D02*
D03*
X24374Y17674D02*
D03*
X35074Y18174D02*
D03*
X31824Y17574D02*
D03*
X30324Y17324D02*
D03*
X23724Y18174D02*
D03*
X19597Y15901D02*
D03*
X40074Y13474D02*
D03*
X39574Y16674D02*
D03*
X35024Y14374D02*
D03*
X18924Y16924D02*
D03*
X33824Y17474D02*
D03*
X33924Y15074D02*
D03*
X34574Y13824D02*
D03*
X30574Y14674D02*
D03*
X27574Y12674D02*
D03*
X26124D02*
D03*
X23274Y11124D02*
D03*
X10624Y17874D02*
D03*
X22624Y11124D02*
D03*
X25024Y13324D02*
D03*
X29174Y14524D02*
D03*
X33524Y13574D02*
D03*
X32774D02*
D03*
X32024D02*
D03*
X27224Y13524D02*
D03*
X25724D02*
D03*
X27197Y16901D02*
D03*
X22863Y16863D02*
D03*
X24159Y17439D02*
D03*
X16374Y11474D02*
D03*
X15224Y9624D02*
D03*
X14174Y14074D02*
D03*
X13224Y12524D02*
D03*
X14574Y16824D02*
D03*
X14674Y17824D02*
D03*
X27758Y15290D02*
D03*
X32824Y17924D02*
D03*
X24574Y10624D02*
D03*
X20224Y9774D02*
D03*
X15224Y12824D02*
D03*
X13824Y9624D02*
D03*
X15824Y12124D02*
D03*
X16374Y13474D02*
D03*
X25074Y10624D02*
D03*
X21424Y11124D02*
D03*
X27041Y18191D02*
D03*
X27057Y17857D02*
D03*
X19574Y15224D02*
D03*
X19026Y15222D02*
D03*
X36074Y17474D02*
D03*
X36689Y18060D02*
D03*
X23174Y17824D02*
D03*
X33924Y16474D02*
D03*
X30824Y17574D02*
D03*
X20774Y15824D02*
D03*
X31624Y17774D02*
D03*
X17224Y12074D02*
D03*
X17524D02*
D03*
X17724Y12274D02*
D03*
X18924Y14074D02*
D03*
X18816Y13566D02*
D03*
X30824Y12374D02*
D03*
X31824D02*
D03*
X25080Y11980D02*
D03*
X21524Y11974D02*
D03*
X20774Y11774D02*
D03*
X20124Y11174D02*
D03*
X18374Y16924D02*
D03*
X20424Y16274D02*
D03*
X19874Y15224D02*
D03*
X20924Y15574D02*
D03*
X21174Y15824D02*
D03*
X21056Y16592D02*
D03*
X21574Y16224D02*
D03*
X21420Y15946D02*
D03*
X23224Y13074D02*
D03*
X23574Y14324D02*
D03*
X18774Y14924D02*
D03*
X22124Y16174D02*
D03*
X21974Y15824D02*
D03*
X23574Y14624D02*
D03*
X23274Y14974D02*
D03*
X23574Y14924D02*
D03*
X22974Y15224D02*
D03*
X15424Y15024D02*
D03*
X14824Y15124D02*
D03*
X19824Y12124D02*
D03*
X20474Y11774D02*
D03*
X19324Y13574D02*
D03*
X17874Y10524D02*
D03*
X22861Y17611D02*
D03*
X22874Y18024D02*
D03*
X17974Y16924D02*
D03*
X20424Y16574D02*
D03*
X20774D02*
D03*
X20424Y17424D02*
D03*
X20785Y17985D02*
D03*
X20774Y17624D02*
D03*
X24568Y11980D02*
D03*
X23774Y13474D02*
D03*
X30624Y17374D02*
D03*
X24757Y15507D02*
D03*
X57295Y13641D02*
D03*
X57728D02*
D03*
X57295Y13208D02*
D03*
X57728D02*
D03*
X62741Y15545D02*
D03*
X63689Y15451D02*
D03*
X65711Y15474D02*
D03*
X72411Y10024D02*
D03*
X68661Y10424D02*
D03*
X66861Y9274D02*
D03*
X57984Y14547D02*
D03*
X57739Y14847D02*
D03*
X59761Y11274D02*
D03*
X67961Y13524D02*
D03*
X66535Y13500D02*
D03*
X58761Y16324D02*
D03*
X58756Y16018D02*
D03*
X55961Y17824D02*
D03*
X57261Y14874D02*
D03*
X56811Y14724D02*
D03*
X57061Y15424D02*
D03*
X56439Y14797D02*
D03*
X57270Y15633D02*
D03*
X61661Y9774D02*
D03*
X62561D02*
D03*
X62656Y10524D02*
D03*
X70861Y12974D02*
D03*
X59611Y12874D02*
D03*
X59619Y13282D02*
D03*
X59663Y13676D02*
D03*
X59211Y12974D02*
D03*
X64311Y13924D02*
D03*
Y14224D02*
D03*
Y13374D02*
D03*
X64284Y13101D02*
D03*
X64011Y11124D02*
D03*
X63236Y11999D02*
D03*
X62347Y11988D02*
D03*
X63611Y13274D02*
D03*
X57911Y10124D02*
D03*
X67461Y10724D02*
D03*
X66011D02*
D03*
X58461Y11674D02*
D03*
X58661Y11924D02*
D03*
X58984Y12097D02*
D03*
X58761Y10824D02*
D03*
X59111Y10374D02*
D03*
X59461Y10474D02*
D03*
X58611Y10574D02*
D03*
X58606Y11080D02*
D03*
X58761Y13274D02*
D03*
X71111Y13774D02*
D03*
X64411Y17674D02*
D03*
X75111Y18174D02*
D03*
X71861Y17574D02*
D03*
X70361Y17324D02*
D03*
X63761Y18174D02*
D03*
X59634Y15901D02*
D03*
X80111Y13474D02*
D03*
X79611Y16674D02*
D03*
X75061Y14374D02*
D03*
X58961Y16924D02*
D03*
X73861Y17474D02*
D03*
X73961Y15074D02*
D03*
X74611Y13824D02*
D03*
X70611Y14674D02*
D03*
X67611Y12674D02*
D03*
X66161D02*
D03*
X63311Y11124D02*
D03*
X50661Y17874D02*
D03*
X62661Y11124D02*
D03*
X65061Y13324D02*
D03*
X69211Y14524D02*
D03*
X73561Y13574D02*
D03*
X72811D02*
D03*
X72061D02*
D03*
X67261Y13524D02*
D03*
X65761D02*
D03*
X67234Y16901D02*
D03*
X62900Y16863D02*
D03*
X64197Y17439D02*
D03*
X56411Y11474D02*
D03*
X55261Y9624D02*
D03*
X54211Y14074D02*
D03*
X53261Y12524D02*
D03*
X54611Y16824D02*
D03*
X54711Y17824D02*
D03*
X67795Y15290D02*
D03*
X72861Y17924D02*
D03*
X64611Y10624D02*
D03*
X60261Y9774D02*
D03*
X55261Y12824D02*
D03*
X53861Y9624D02*
D03*
X55861Y12124D02*
D03*
X56411Y13474D02*
D03*
X65111Y10624D02*
D03*
X61461Y11124D02*
D03*
X67079Y18191D02*
D03*
X67094Y17857D02*
D03*
X59611Y15224D02*
D03*
X59063Y15222D02*
D03*
X76111Y17474D02*
D03*
X76726Y18060D02*
D03*
X63211Y17824D02*
D03*
X73961Y16474D02*
D03*
X70861Y17574D02*
D03*
X60811Y15824D02*
D03*
X71661Y17774D02*
D03*
X57261Y12074D02*
D03*
X57561D02*
D03*
X57761Y12274D02*
D03*
X58961Y14074D02*
D03*
X58854Y13566D02*
D03*
X70861Y12374D02*
D03*
X71861D02*
D03*
X65117Y11980D02*
D03*
X61561Y11974D02*
D03*
X60811Y11774D02*
D03*
X60161Y11174D02*
D03*
X58411Y16924D02*
D03*
X60461Y16274D02*
D03*
X59911Y15224D02*
D03*
X60961Y15574D02*
D03*
X61211Y15824D02*
D03*
X61094Y16592D02*
D03*
X61611Y16224D02*
D03*
X61457Y15946D02*
D03*
X63261Y13074D02*
D03*
X63611Y14324D02*
D03*
X58811Y14924D02*
D03*
X62161Y16174D02*
D03*
X62011Y15824D02*
D03*
X63611Y14624D02*
D03*
X63311Y14974D02*
D03*
X63611Y14924D02*
D03*
X63011Y15224D02*
D03*
X55461Y15024D02*
D03*
X54861Y15124D02*
D03*
X59861Y12124D02*
D03*
X60511Y11774D02*
D03*
X59361Y13574D02*
D03*
X57911Y10524D02*
D03*
X62898Y17611D02*
D03*
X62911Y18024D02*
D03*
X58011Y16924D02*
D03*
X60461Y16574D02*
D03*
X60811D02*
D03*
X60461Y17424D02*
D03*
X60823Y17985D02*
D03*
X60811Y17624D02*
D03*
X64606Y11980D02*
D03*
X63811Y13474D02*
D03*
X70661Y17374D02*
D03*
X64795Y15507D02*
D03*
X17258Y24391D02*
D03*
X17691D02*
D03*
X17258Y23958D02*
D03*
X17691D02*
D03*
X22704Y26295D02*
D03*
X23651Y26202D02*
D03*
X25674Y26224D02*
D03*
X32374Y20774D02*
D03*
X28624Y21174D02*
D03*
X26824Y20024D02*
D03*
X17947Y25297D02*
D03*
X17701Y25597D02*
D03*
X19724Y22024D02*
D03*
X27924Y24274D02*
D03*
X26498Y24250D02*
D03*
X18724Y27074D02*
D03*
X18718Y26769D02*
D03*
X15924Y28574D02*
D03*
X17224Y25624D02*
D03*
X16774Y25474D02*
D03*
X17024Y26174D02*
D03*
X16401Y25547D02*
D03*
X17233Y26383D02*
D03*
X21624Y20524D02*
D03*
X22524D02*
D03*
X22618Y21274D02*
D03*
X30824Y23724D02*
D03*
X19574Y23624D02*
D03*
X19582Y24032D02*
D03*
X19626Y24426D02*
D03*
X19174Y23724D02*
D03*
X24274Y24674D02*
D03*
Y24974D02*
D03*
Y24124D02*
D03*
X24247Y23852D02*
D03*
X23974Y21874D02*
D03*
X23199Y22749D02*
D03*
X22310Y22739D02*
D03*
X23574Y24024D02*
D03*
X17874Y20874D02*
D03*
X27424Y21474D02*
D03*
X25974D02*
D03*
X18424Y22424D02*
D03*
X18624Y22674D02*
D03*
X18947Y22847D02*
D03*
X18724Y21574D02*
D03*
X19074Y21124D02*
D03*
X19424Y21224D02*
D03*
X18574Y21324D02*
D03*
X18568Y21830D02*
D03*
X18724Y24024D02*
D03*
X31074Y24524D02*
D03*
X24374Y28424D02*
D03*
X35074Y28924D02*
D03*
X31824Y28324D02*
D03*
X30324Y28074D02*
D03*
X23724Y28924D02*
D03*
X19597Y26652D02*
D03*
X40074Y24224D02*
D03*
X39574Y27424D02*
D03*
X35024Y25124D02*
D03*
X18924Y27674D02*
D03*
X33824Y28224D02*
D03*
X33924Y25824D02*
D03*
X34574Y24574D02*
D03*
X30574Y25424D02*
D03*
X27574Y23424D02*
D03*
X26124D02*
D03*
X23274Y21874D02*
D03*
X10624Y28624D02*
D03*
X22624Y21874D02*
D03*
X25024Y24074D02*
D03*
X29174Y25274D02*
D03*
X33524Y24324D02*
D03*
X32774D02*
D03*
X32024D02*
D03*
X27224Y24274D02*
D03*
X25724D02*
D03*
X27197Y27652D02*
D03*
X22863Y27613D02*
D03*
X24159Y28189D02*
D03*
X16374Y22224D02*
D03*
X15224Y20374D02*
D03*
X14174Y24824D02*
D03*
X13224Y23274D02*
D03*
X14574Y27574D02*
D03*
X14674Y28574D02*
D03*
X27758Y26041D02*
D03*
X32824Y28674D02*
D03*
X24574Y21374D02*
D03*
X20224Y20524D02*
D03*
X15224Y23574D02*
D03*
X13824Y20374D02*
D03*
X15824Y22874D02*
D03*
X16374Y24224D02*
D03*
X25074Y21374D02*
D03*
X21424Y21874D02*
D03*
X27041Y28942D02*
D03*
X27057Y28607D02*
D03*
X19574Y25974D02*
D03*
X19026Y25972D02*
D03*
X36074Y28224D02*
D03*
X36689Y28810D02*
D03*
X23174Y28574D02*
D03*
X33924Y27224D02*
D03*
X30824Y28324D02*
D03*
X20774Y26574D02*
D03*
X31624Y28524D02*
D03*
X17224Y22824D02*
D03*
X17524D02*
D03*
X17724Y23024D02*
D03*
X18924Y24824D02*
D03*
X18816Y24317D02*
D03*
X30824Y23124D02*
D03*
X31824D02*
D03*
X25080Y22730D02*
D03*
X21524Y22724D02*
D03*
X20774Y22524D02*
D03*
X20124Y21924D02*
D03*
X18374Y27674D02*
D03*
X20424Y27024D02*
D03*
X19874Y25974D02*
D03*
X20924Y26324D02*
D03*
X21174Y26574D02*
D03*
X21056Y27342D02*
D03*
X21574Y26974D02*
D03*
X21420Y26696D02*
D03*
X23224Y23824D02*
D03*
X23574Y25074D02*
D03*
X18774Y25674D02*
D03*
X22124Y26924D02*
D03*
X21974Y26574D02*
D03*
X23574Y25374D02*
D03*
X23274Y25724D02*
D03*
X23574Y25674D02*
D03*
X22974Y25974D02*
D03*
X15424Y25774D02*
D03*
X14824Y25874D02*
D03*
X19824Y22874D02*
D03*
X20474Y22524D02*
D03*
X19324Y24324D02*
D03*
X17874Y21274D02*
D03*
X22861Y28361D02*
D03*
X22874Y28774D02*
D03*
X17974Y27674D02*
D03*
X20424Y27324D02*
D03*
X20774D02*
D03*
X20424Y28174D02*
D03*
X20785Y28735D02*
D03*
X20774Y28374D02*
D03*
X24568Y22730D02*
D03*
X23774Y24224D02*
D03*
X30624Y28124D02*
D03*
X24757Y26258D02*
D03*
X57295Y24391D02*
D03*
X57728D02*
D03*
X57295Y23958D02*
D03*
X57728D02*
D03*
X62741Y26295D02*
D03*
X63689Y26202D02*
D03*
X65711Y26224D02*
D03*
X72411Y20774D02*
D03*
X68661Y21174D02*
D03*
X66861Y20024D02*
D03*
X57984Y25297D02*
D03*
X57739Y25597D02*
D03*
X59761Y22024D02*
D03*
X67961Y24274D02*
D03*
X66535Y24250D02*
D03*
X58761Y27074D02*
D03*
X58756Y26769D02*
D03*
X55961Y28574D02*
D03*
X57261Y25624D02*
D03*
X56811Y25474D02*
D03*
X57061Y26174D02*
D03*
X56439Y25547D02*
D03*
X57270Y26383D02*
D03*
X61661Y20524D02*
D03*
X62561D02*
D03*
X62656Y21274D02*
D03*
X70861Y23724D02*
D03*
X59611Y23624D02*
D03*
X59619Y24032D02*
D03*
X59663Y24426D02*
D03*
X59211Y23724D02*
D03*
X64311Y24674D02*
D03*
Y24974D02*
D03*
Y24124D02*
D03*
X64284Y23852D02*
D03*
X64011Y21874D02*
D03*
X63236Y22749D02*
D03*
X62347Y22739D02*
D03*
X63611Y24024D02*
D03*
X57911Y20874D02*
D03*
X67461Y21474D02*
D03*
X66011D02*
D03*
X58461Y22424D02*
D03*
X58661Y22674D02*
D03*
X58984Y22847D02*
D03*
X58761Y21574D02*
D03*
X59111Y21124D02*
D03*
X59461Y21224D02*
D03*
X58611Y21324D02*
D03*
X58606Y21830D02*
D03*
X58761Y24024D02*
D03*
X71111Y24524D02*
D03*
X64411Y28424D02*
D03*
X75111Y28924D02*
D03*
X71861Y28324D02*
D03*
X70361Y28074D02*
D03*
X63761Y28924D02*
D03*
X59634Y26652D02*
D03*
X80111Y24224D02*
D03*
X79611Y27424D02*
D03*
X75061Y25124D02*
D03*
X58961Y27674D02*
D03*
X73861Y28224D02*
D03*
X73961Y25824D02*
D03*
X74611Y24574D02*
D03*
X70611Y25424D02*
D03*
X67611Y23424D02*
D03*
X66161D02*
D03*
X63311Y21874D02*
D03*
X50661Y28624D02*
D03*
X62661Y21874D02*
D03*
X65061Y24074D02*
D03*
X69211Y25274D02*
D03*
X73561Y24324D02*
D03*
X72811D02*
D03*
X72061D02*
D03*
X67261Y24274D02*
D03*
X65761D02*
D03*
X67234Y27652D02*
D03*
X62900Y27613D02*
D03*
X64197Y28189D02*
D03*
X56411Y22224D02*
D03*
X55261Y20374D02*
D03*
X54211Y24824D02*
D03*
X53261Y23274D02*
D03*
X54611Y27574D02*
D03*
X54711Y28574D02*
D03*
X67795Y26041D02*
D03*
X72861Y28674D02*
D03*
X64611Y21374D02*
D03*
X60261Y20524D02*
D03*
X55261Y23574D02*
D03*
X53861Y20374D02*
D03*
X55861Y22874D02*
D03*
X56411Y24224D02*
D03*
X65111Y21374D02*
D03*
X61461Y21874D02*
D03*
X67079Y28942D02*
D03*
X67094Y28607D02*
D03*
X59611Y25974D02*
D03*
X59063Y25972D02*
D03*
X76111Y28224D02*
D03*
X76726Y28810D02*
D03*
X63211Y28574D02*
D03*
X73961Y27224D02*
D03*
X70861Y28324D02*
D03*
X60811Y26574D02*
D03*
X71661Y28524D02*
D03*
X57261Y22824D02*
D03*
X57561D02*
D03*
X57761Y23024D02*
D03*
X58961Y24824D02*
D03*
X58854Y24317D02*
D03*
X70861Y23124D02*
D03*
X71861D02*
D03*
X65117Y22730D02*
D03*
X61561Y22724D02*
D03*
X60811Y22524D02*
D03*
X60161Y21924D02*
D03*
X58411Y27674D02*
D03*
X60461Y27024D02*
D03*
X59911Y25974D02*
D03*
X60961Y26324D02*
D03*
X61211Y26574D02*
D03*
X61094Y27342D02*
D03*
X61611Y26974D02*
D03*
X61457Y26696D02*
D03*
X63261Y23824D02*
D03*
X63611Y25074D02*
D03*
X58811Y25674D02*
D03*
X62161Y26924D02*
D03*
X62011Y26574D02*
D03*
X63611Y25374D02*
D03*
X63311Y25724D02*
D03*
X63611Y25674D02*
D03*
X63011Y25974D02*
D03*
X55461Y25774D02*
D03*
X54861Y25874D02*
D03*
X59861Y22874D02*
D03*
X60511Y22524D02*
D03*
X59361Y24324D02*
D03*
X57911Y21274D02*
D03*
X62898Y28361D02*
D03*
X62911Y28774D02*
D03*
X58011Y27674D02*
D03*
X60461Y27324D02*
D03*
X60811D02*
D03*
X60461Y28174D02*
D03*
X60823Y28735D02*
D03*
X60811Y28374D02*
D03*
X64606Y22730D02*
D03*
X63811Y24224D02*
D03*
X70661Y28124D02*
D03*
X64795Y26258D02*
D03*
X17258Y35141D02*
D03*
X17691D02*
D03*
X17258Y34708D02*
D03*
X17691D02*
D03*
X22704Y37045D02*
D03*
X23651Y36952D02*
D03*
X25674Y36975D02*
D03*
X32374Y31525D02*
D03*
X28624Y31925D02*
D03*
X26824Y30775D02*
D03*
X17947Y36047D02*
D03*
X17701Y36348D02*
D03*
X19724Y32775D02*
D03*
X27924Y35025D02*
D03*
X26498Y35001D02*
D03*
X18724Y37825D02*
D03*
X18718Y37519D02*
D03*
X15924Y39325D02*
D03*
X17224Y36375D02*
D03*
X16774Y36225D02*
D03*
X17024Y36925D02*
D03*
X16401Y36298D02*
D03*
X17233Y37134D02*
D03*
X21624Y31275D02*
D03*
X22524D02*
D03*
X22618Y32025D02*
D03*
X30824Y34475D02*
D03*
X19574Y34375D02*
D03*
X19582Y34783D02*
D03*
X19626Y35176D02*
D03*
X19174Y34475D02*
D03*
X24274Y35425D02*
D03*
Y35725D02*
D03*
Y34875D02*
D03*
X24247Y34602D02*
D03*
X23974Y32625D02*
D03*
X23199Y33500D02*
D03*
X22310Y33489D02*
D03*
X23574Y34775D02*
D03*
X17874Y31625D02*
D03*
X27424Y32225D02*
D03*
X25974D02*
D03*
X18424Y33175D02*
D03*
X18624Y33425D02*
D03*
X18947Y33598D02*
D03*
X18724Y32325D02*
D03*
X19074Y31875D02*
D03*
X19424Y31975D02*
D03*
X18574Y32075D02*
D03*
X18568Y32581D02*
D03*
X18724Y34775D02*
D03*
X31074Y35275D02*
D03*
X24374Y39175D02*
D03*
X35074Y39675D02*
D03*
X31824Y39075D02*
D03*
X30324Y38825D02*
D03*
X23724Y39675D02*
D03*
X19597Y37402D02*
D03*
X40074Y34975D02*
D03*
X39574Y38175D02*
D03*
X35024Y35875D02*
D03*
X18924Y38425D02*
D03*
X33824Y38975D02*
D03*
X33924Y36575D02*
D03*
X34574Y35325D02*
D03*
X30574Y36175D02*
D03*
X27574Y34175D02*
D03*
X26124D02*
D03*
X23274Y32625D02*
D03*
X10624Y39375D02*
D03*
X22624Y32625D02*
D03*
X25024Y34825D02*
D03*
X29174Y36025D02*
D03*
X33524Y35075D02*
D03*
X32774D02*
D03*
X32024D02*
D03*
X27224Y35025D02*
D03*
X25724D02*
D03*
X27197Y38402D02*
D03*
X22863Y38364D02*
D03*
X24159Y38940D02*
D03*
X16374Y32975D02*
D03*
X15224Y31125D02*
D03*
X14174Y35575D02*
D03*
X13224Y34025D02*
D03*
X14574Y38325D02*
D03*
X14674Y39325D02*
D03*
X27758Y36791D02*
D03*
X32824Y39425D02*
D03*
X24574Y32125D02*
D03*
X20224Y31275D02*
D03*
X15224Y34325D02*
D03*
X13824Y31125D02*
D03*
X15824Y33625D02*
D03*
X16374Y34975D02*
D03*
X25074Y32125D02*
D03*
X21424Y32625D02*
D03*
X27041Y39692D02*
D03*
X27057Y39357D02*
D03*
X19574Y36725D02*
D03*
X19026Y36723D02*
D03*
X36074Y38975D02*
D03*
X36689Y39560D02*
D03*
X23174Y39325D02*
D03*
X33924Y37975D02*
D03*
X30824Y39075D02*
D03*
X20774Y37325D02*
D03*
X31624Y39275D02*
D03*
X17224Y33575D02*
D03*
X17524D02*
D03*
X17724Y33775D02*
D03*
X18924Y35575D02*
D03*
X18816Y35067D02*
D03*
X30824Y33875D02*
D03*
X31824D02*
D03*
X25080Y33481D02*
D03*
X21524Y33475D02*
D03*
X20774Y33275D02*
D03*
X20124Y32675D02*
D03*
X18374Y38425D02*
D03*
X20424Y37775D02*
D03*
X19874Y36725D02*
D03*
X20924Y37075D02*
D03*
X21174Y37325D02*
D03*
X21056Y38092D02*
D03*
X21574Y37725D02*
D03*
X21420Y37447D02*
D03*
X23224Y34575D02*
D03*
X23574Y35825D02*
D03*
X18774Y36425D02*
D03*
X22124Y37675D02*
D03*
X21974Y37325D02*
D03*
X23574Y36125D02*
D03*
X23274Y36475D02*
D03*
X23574Y36425D02*
D03*
X22974Y36725D02*
D03*
X15424Y36525D02*
D03*
X14824Y36625D02*
D03*
X19824Y33625D02*
D03*
X20474Y33275D02*
D03*
X19324Y35075D02*
D03*
X17874Y32025D02*
D03*
X22861Y39112D02*
D03*
X22874Y39525D02*
D03*
X17974Y38425D02*
D03*
X20424Y38075D02*
D03*
X20774D02*
D03*
X20424Y38925D02*
D03*
X20785Y39486D02*
D03*
X20774Y39125D02*
D03*
X24568Y33481D02*
D03*
X23774Y34975D02*
D03*
X30624Y38875D02*
D03*
X24757Y37008D02*
D03*
X57295Y35141D02*
D03*
X57728D02*
D03*
X57295Y34708D02*
D03*
X57728D02*
D03*
X62741Y37045D02*
D03*
X63689Y36952D02*
D03*
X65711Y36975D02*
D03*
X72411Y31525D02*
D03*
X68661Y31925D02*
D03*
X66861Y30775D02*
D03*
X57984Y36047D02*
D03*
X57739Y36348D02*
D03*
X59761Y32775D02*
D03*
X67961Y35025D02*
D03*
X66535Y35001D02*
D03*
X58761Y37825D02*
D03*
X58756Y37519D02*
D03*
X55961Y39325D02*
D03*
X57261Y36375D02*
D03*
X56811Y36225D02*
D03*
X57061Y36925D02*
D03*
X56439Y36298D02*
D03*
X57270Y37134D02*
D03*
X61661Y31275D02*
D03*
X62561D02*
D03*
X62656Y32025D02*
D03*
X70861Y34475D02*
D03*
X59611Y34375D02*
D03*
X59619Y34783D02*
D03*
X59663Y35176D02*
D03*
X59211Y34475D02*
D03*
X64311Y35425D02*
D03*
Y35725D02*
D03*
Y34875D02*
D03*
X64284Y34602D02*
D03*
X64011Y32625D02*
D03*
X63236Y33500D02*
D03*
X62347Y33489D02*
D03*
X63611Y34775D02*
D03*
X57911Y31625D02*
D03*
X67461Y32225D02*
D03*
X66011D02*
D03*
X58461Y33175D02*
D03*
X58661Y33425D02*
D03*
X58984Y33598D02*
D03*
X58761Y32325D02*
D03*
X59111Y31875D02*
D03*
X59461Y31975D02*
D03*
X58611Y32075D02*
D03*
X58606Y32581D02*
D03*
X58761Y34775D02*
D03*
X71111Y35275D02*
D03*
X64411Y39175D02*
D03*
X75111Y39675D02*
D03*
X71861Y39075D02*
D03*
X70361Y38825D02*
D03*
X63761Y39675D02*
D03*
X59634Y37402D02*
D03*
X80111Y34975D02*
D03*
X79611Y38175D02*
D03*
X75061Y35875D02*
D03*
X58961Y38425D02*
D03*
X73861Y38975D02*
D03*
X73961Y36575D02*
D03*
X74611Y35325D02*
D03*
X70611Y36175D02*
D03*
X67611Y34175D02*
D03*
X66161D02*
D03*
X63311Y32625D02*
D03*
X50661Y39375D02*
D03*
X62661Y32625D02*
D03*
X65061Y34825D02*
D03*
X69211Y36025D02*
D03*
X73561Y35075D02*
D03*
X72811D02*
D03*
X72061D02*
D03*
X67261Y35025D02*
D03*
X65761D02*
D03*
X67234Y38402D02*
D03*
X62900Y38364D02*
D03*
X64197Y38940D02*
D03*
X56411Y32975D02*
D03*
X55261Y31125D02*
D03*
X54211Y35575D02*
D03*
X53261Y34025D02*
D03*
X54611Y38325D02*
D03*
X54711Y39325D02*
D03*
X67795Y36791D02*
D03*
X72861Y39425D02*
D03*
X64611Y32125D02*
D03*
X60261Y31275D02*
D03*
X55261Y34325D02*
D03*
X53861Y31125D02*
D03*
X55861Y33625D02*
D03*
X56411Y34975D02*
D03*
X65111Y32125D02*
D03*
X61461Y32625D02*
D03*
X67079Y39692D02*
D03*
X67094Y39357D02*
D03*
X59611Y36725D02*
D03*
X59063Y36723D02*
D03*
X76111Y38975D02*
D03*
X76726Y39560D02*
D03*
X63211Y39325D02*
D03*
X73961Y37975D02*
D03*
X70861Y39075D02*
D03*
X60811Y37325D02*
D03*
X71661Y39275D02*
D03*
X57261Y33575D02*
D03*
X57561D02*
D03*
X57761Y33775D02*
D03*
X58961Y35575D02*
D03*
X58854Y35067D02*
D03*
X70861Y33875D02*
D03*
X71861D02*
D03*
X65117Y33481D02*
D03*
X61561Y33475D02*
D03*
X60811Y33275D02*
D03*
X60161Y32675D02*
D03*
X58411Y38425D02*
D03*
X60461Y37775D02*
D03*
X59911Y36725D02*
D03*
X60961Y37075D02*
D03*
X61211Y37325D02*
D03*
X61094Y38092D02*
D03*
X61611Y37725D02*
D03*
X61457Y37447D02*
D03*
X63261Y34575D02*
D03*
X63611Y35825D02*
D03*
X58811Y36425D02*
D03*
X62161Y37675D02*
D03*
X62011Y37325D02*
D03*
X63611Y36125D02*
D03*
X63311Y36475D02*
D03*
X63611Y36425D02*
D03*
X63011Y36725D02*
D03*
X55461Y36525D02*
D03*
X54861Y36625D02*
D03*
X59861Y33625D02*
D03*
X60511Y33275D02*
D03*
X59361Y35075D02*
D03*
X57911Y32025D02*
D03*
X62898Y39112D02*
D03*
X62911Y39525D02*
D03*
X58011Y38425D02*
D03*
X60461Y38075D02*
D03*
X60811D02*
D03*
X60461Y38925D02*
D03*
X60823Y39486D02*
D03*
X60811Y39125D02*
D03*
X64606Y33481D02*
D03*
X63811Y34975D02*
D03*
X70661Y38875D02*
D03*
X64795Y37008D02*
D03*
X17258Y45892D02*
D03*
X17691D02*
D03*
X17258Y45459D02*
D03*
X17691D02*
D03*
X22704Y47796D02*
D03*
X23651Y47702D02*
D03*
X25674Y47725D02*
D03*
X32374Y42275D02*
D03*
X28624Y42675D02*
D03*
X26824Y41525D02*
D03*
X17947Y46798D02*
D03*
X17701Y47098D02*
D03*
X19724Y43525D02*
D03*
X27924Y45775D02*
D03*
X26498Y45751D02*
D03*
X18724Y48575D02*
D03*
X18718Y48269D02*
D03*
X15924Y50075D02*
D03*
X17224Y47125D02*
D03*
X16774Y46975D02*
D03*
X17024Y47675D02*
D03*
X16401Y47048D02*
D03*
X17233Y47884D02*
D03*
X21624Y42025D02*
D03*
X22524D02*
D03*
X22618Y42775D02*
D03*
X30824Y45225D02*
D03*
X19574Y45125D02*
D03*
X19582Y45533D02*
D03*
X19626Y45927D02*
D03*
X19174Y45225D02*
D03*
X24274Y46175D02*
D03*
Y46475D02*
D03*
Y45625D02*
D03*
X24247Y45352D02*
D03*
X23974Y43375D02*
D03*
X23199Y44250D02*
D03*
X22310Y44239D02*
D03*
X23574Y45525D02*
D03*
X17874Y42375D02*
D03*
X27424Y42975D02*
D03*
X25974D02*
D03*
X18424Y43925D02*
D03*
X18624Y44175D02*
D03*
X18947Y44348D02*
D03*
X18724Y43075D02*
D03*
X19074Y42625D02*
D03*
X19424Y42725D02*
D03*
X18574Y42825D02*
D03*
X18568Y43331D02*
D03*
X18724Y45525D02*
D03*
X31074Y46025D02*
D03*
X24374Y49925D02*
D03*
X35074Y50425D02*
D03*
X31824Y49825D02*
D03*
X30324Y49575D02*
D03*
X23724Y50425D02*
D03*
X19597Y48152D02*
D03*
X40074Y45725D02*
D03*
X39574Y48925D02*
D03*
X35024Y46625D02*
D03*
X18924Y49175D02*
D03*
X33824Y49725D02*
D03*
X33924Y47325D02*
D03*
X34574Y46075D02*
D03*
X30574Y46925D02*
D03*
X27574Y44925D02*
D03*
X26124D02*
D03*
X23274Y43375D02*
D03*
X10624Y50125D02*
D03*
X22624Y43375D02*
D03*
X25024Y45575D02*
D03*
X29174Y46775D02*
D03*
X33524Y45825D02*
D03*
X32774D02*
D03*
X32024D02*
D03*
X27224Y45775D02*
D03*
X25724D02*
D03*
X27197Y49152D02*
D03*
X22863Y49114D02*
D03*
X24159Y49690D02*
D03*
X16374Y43725D02*
D03*
X15224Y41875D02*
D03*
X14174Y46325D02*
D03*
X13224Y44775D02*
D03*
X14574Y49075D02*
D03*
X14674Y50075D02*
D03*
X27758Y47541D02*
D03*
X32824Y50175D02*
D03*
X24574Y42875D02*
D03*
X20224Y42025D02*
D03*
X15224Y45075D02*
D03*
X13824Y41875D02*
D03*
X15824Y44375D02*
D03*
X16374Y45725D02*
D03*
X25074Y42875D02*
D03*
X21424Y43375D02*
D03*
X27041Y50442D02*
D03*
X27057Y50108D02*
D03*
X19574Y47475D02*
D03*
X19026Y47473D02*
D03*
X36074Y49725D02*
D03*
X36689Y50311D02*
D03*
X23174Y50075D02*
D03*
X33924Y48725D02*
D03*
X30824Y49825D02*
D03*
X20774Y48075D02*
D03*
X31624Y50025D02*
D03*
X17224Y44325D02*
D03*
X17524D02*
D03*
X17724Y44525D02*
D03*
X18924Y46325D02*
D03*
X18816Y45817D02*
D03*
X30824Y44625D02*
D03*
X31824D02*
D03*
X25080Y44231D02*
D03*
X21524Y44225D02*
D03*
X20774Y44025D02*
D03*
X20124Y43425D02*
D03*
X18374Y49175D02*
D03*
X20424Y48525D02*
D03*
X19874Y47475D02*
D03*
X20924Y47825D02*
D03*
X21174Y48075D02*
D03*
X21056Y48843D02*
D03*
X21574Y48475D02*
D03*
X21420Y48197D02*
D03*
X23224Y45325D02*
D03*
X23574Y46575D02*
D03*
X18774Y47175D02*
D03*
X22124Y48425D02*
D03*
X21974Y48075D02*
D03*
X23574Y46875D02*
D03*
X23274Y47225D02*
D03*
X23574Y47175D02*
D03*
X22974Y47475D02*
D03*
X15424Y47275D02*
D03*
X14824Y47375D02*
D03*
X19824Y44375D02*
D03*
X20474Y44025D02*
D03*
X19324Y45825D02*
D03*
X17874Y42775D02*
D03*
X22861Y49862D02*
D03*
X22874Y50275D02*
D03*
X17974Y49175D02*
D03*
X20424Y48825D02*
D03*
X20774D02*
D03*
X20424Y49675D02*
D03*
X20785Y50236D02*
D03*
X20774Y49875D02*
D03*
X24568Y44231D02*
D03*
X23774Y45725D02*
D03*
X30624Y49625D02*
D03*
X24757Y47758D02*
D03*
X57295Y45892D02*
D03*
X57728D02*
D03*
X57295Y45459D02*
D03*
X57728D02*
D03*
X62741Y47796D02*
D03*
X63689Y47702D02*
D03*
X65711Y47725D02*
D03*
X72411Y42275D02*
D03*
X68661Y42675D02*
D03*
X66861Y41525D02*
D03*
X57984Y46798D02*
D03*
X57739Y47098D02*
D03*
X59761Y43525D02*
D03*
X67961Y45775D02*
D03*
X66535Y45751D02*
D03*
X58761Y48575D02*
D03*
X58756Y48269D02*
D03*
X55961Y50075D02*
D03*
X57261Y47125D02*
D03*
X56811Y46975D02*
D03*
X57061Y47675D02*
D03*
X56439Y47048D02*
D03*
X57270Y47884D02*
D03*
X61661Y42025D02*
D03*
X62561D02*
D03*
X62656Y42775D02*
D03*
X70861Y45225D02*
D03*
X59611Y45125D02*
D03*
X59619Y45533D02*
D03*
X59663Y45927D02*
D03*
X59211Y45225D02*
D03*
X64311Y46175D02*
D03*
Y46475D02*
D03*
Y45625D02*
D03*
X64284Y45352D02*
D03*
X64011Y43375D02*
D03*
X63236Y44250D02*
D03*
X62347Y44239D02*
D03*
X63611Y45525D02*
D03*
X57911Y42375D02*
D03*
X67461Y42975D02*
D03*
X66011D02*
D03*
X58461Y43925D02*
D03*
X58661Y44175D02*
D03*
X58984Y44348D02*
D03*
X58761Y43075D02*
D03*
X59111Y42625D02*
D03*
X59461Y42725D02*
D03*
X58611Y42825D02*
D03*
X58606Y43331D02*
D03*
X58761Y45525D02*
D03*
X71111Y46025D02*
D03*
X64411Y49925D02*
D03*
X75111Y50425D02*
D03*
X71861Y49825D02*
D03*
X70361Y49575D02*
D03*
X63761Y50425D02*
D03*
X59634Y48152D02*
D03*
X80111Y45725D02*
D03*
X79611Y48925D02*
D03*
X75061Y46625D02*
D03*
X58961Y49175D02*
D03*
X73861Y49725D02*
D03*
X73961Y47325D02*
D03*
X74611Y46075D02*
D03*
X70611Y46925D02*
D03*
X67611Y44925D02*
D03*
X66161D02*
D03*
X63311Y43375D02*
D03*
X50661Y50125D02*
D03*
X62661Y43375D02*
D03*
X65061Y45575D02*
D03*
X69211Y46775D02*
D03*
X73561Y45825D02*
D03*
X72811D02*
D03*
X72061D02*
D03*
X67261Y45775D02*
D03*
X65761D02*
D03*
X67234Y49152D02*
D03*
X62900Y49114D02*
D03*
X64197Y49690D02*
D03*
X56411Y43725D02*
D03*
X55261Y41875D02*
D03*
X54211Y46325D02*
D03*
X53261Y44775D02*
D03*
X54611Y49075D02*
D03*
X54711Y50075D02*
D03*
X67795Y47541D02*
D03*
X72861Y50175D02*
D03*
X64611Y42875D02*
D03*
X60261Y42025D02*
D03*
X55261Y45075D02*
D03*
X53861Y41875D02*
D03*
X55861Y44375D02*
D03*
X56411Y45725D02*
D03*
X65111Y42875D02*
D03*
X61461Y43375D02*
D03*
X67079Y50442D02*
D03*
X67094Y50108D02*
D03*
X59611Y47475D02*
D03*
X59063Y47473D02*
D03*
X76111Y49725D02*
D03*
X76726Y50311D02*
D03*
X63211Y50075D02*
D03*
X73961Y48725D02*
D03*
X70861Y49825D02*
D03*
X60811Y48075D02*
D03*
X71661Y50025D02*
D03*
X57261Y44325D02*
D03*
X57561D02*
D03*
X57761Y44525D02*
D03*
X58961Y46325D02*
D03*
X58854Y45817D02*
D03*
X70861Y44625D02*
D03*
X71861D02*
D03*
X65117Y44231D02*
D03*
X61561Y44225D02*
D03*
X60811Y44025D02*
D03*
X60161Y43425D02*
D03*
X58411Y49175D02*
D03*
X60461Y48525D02*
D03*
X59911Y47475D02*
D03*
X60961Y47825D02*
D03*
X61211Y48075D02*
D03*
X61094Y48843D02*
D03*
X61611Y48475D02*
D03*
X61457Y48197D02*
D03*
X63261Y45325D02*
D03*
X63611Y46575D02*
D03*
X58811Y47175D02*
D03*
X62161Y48425D02*
D03*
X62011Y48075D02*
D03*
X63611Y46875D02*
D03*
X63311Y47225D02*
D03*
X63611Y47175D02*
D03*
X63011Y47475D02*
D03*
X55461Y47275D02*
D03*
X54861Y47375D02*
D03*
X59861Y44375D02*
D03*
X60511Y44025D02*
D03*
X59361Y45825D02*
D03*
X57911Y42775D02*
D03*
X62898Y49862D02*
D03*
X62911Y50275D02*
D03*
X58011Y49175D02*
D03*
X60461Y48825D02*
D03*
X60811D02*
D03*
X60461Y49675D02*
D03*
X60823Y50236D02*
D03*
X60811Y49875D02*
D03*
X64606Y44231D02*
D03*
X63811Y45725D02*
D03*
X70661Y49625D02*
D03*
X64795Y47758D02*
D03*
D75*
X38474Y17224D02*
D03*
X41274Y16324D02*
D03*
X78511Y17224D02*
D03*
X81311Y16324D02*
D03*
X38474Y27974D02*
D03*
X41274Y27074D02*
D03*
X78511Y27974D02*
D03*
X81311Y27074D02*
D03*
X38474Y38725D02*
D03*
X41274Y37825D02*
D03*
X78511Y38725D02*
D03*
X81311Y37825D02*
D03*
X38474Y49475D02*
D03*
X41274Y48575D02*
D03*
X78511Y49475D02*
D03*
X81311Y48575D02*
D03*
D76*
X30524Y13474D02*
D03*
X29874D02*
D03*
X28574Y15274D02*
D03*
X19224Y16724D02*
D03*
X19574Y17024D02*
D03*
X34524Y15774D02*
D03*
X15974Y16824D02*
D03*
X42274Y12524D02*
D03*
X9374Y15174D02*
D03*
X8624Y14074D02*
D03*
Y10674D02*
D03*
X42774Y9624D02*
D03*
X42674Y10624D02*
D03*
X40605Y12774D02*
D03*
X41255Y12524D02*
D03*
X40655Y13674D02*
D03*
X38374Y17974D02*
D03*
X43274Y14974D02*
D03*
X35424Y9274D02*
D03*
X42624D02*
D03*
X40824D02*
D03*
X39024D02*
D03*
X37224D02*
D03*
X35324Y14774D02*
D03*
X41674Y17724D02*
D03*
X40774D02*
D03*
X40324Y17274D02*
D03*
X41224D02*
D03*
X42624Y14874D02*
D03*
X43174Y15524D02*
D03*
X42524Y15574D02*
D03*
Y17074D02*
D03*
X43224Y17124D02*
D03*
X42974Y14024D02*
D03*
X35474Y16274D02*
D03*
X40774Y16774D02*
D03*
X34924Y14874D02*
D03*
X39207Y16968D02*
D03*
X37757D02*
D03*
X38957Y17968D02*
D03*
X33174Y17724D02*
D03*
X33124Y16674D02*
D03*
X36274Y14574D02*
D03*
X9924Y11874D02*
D03*
X11424D02*
D03*
X28774Y12974D02*
D03*
X11424Y15074D02*
D03*
X42655Y13174D02*
D03*
X42455Y14324D02*
D03*
X41105D02*
D03*
X37955Y12474D02*
D03*
X39255Y15374D02*
D03*
X42205Y15024D02*
D03*
X37959Y14679D02*
D03*
X29524Y14674D02*
D03*
X30524Y9974D02*
D03*
X28974Y12724D02*
D03*
X38824Y15574D02*
D03*
X38424Y15924D02*
D03*
X34963Y17247D02*
D03*
X29724Y12224D02*
D03*
X11757Y10657D02*
D03*
X35424Y10374D02*
D03*
X33174Y15324D02*
D03*
X33124Y14824D02*
D03*
X12824Y17924D02*
D03*
X70561Y13474D02*
D03*
X69911D02*
D03*
X68611Y15274D02*
D03*
X59261Y16724D02*
D03*
X59611Y17024D02*
D03*
X74561Y15774D02*
D03*
X56011Y16824D02*
D03*
X82311Y12524D02*
D03*
X49411Y15174D02*
D03*
X48661Y14074D02*
D03*
Y10674D02*
D03*
X82811Y9624D02*
D03*
X82711Y10624D02*
D03*
X80642Y12774D02*
D03*
X81292Y12524D02*
D03*
X80692Y13674D02*
D03*
X78411Y17974D02*
D03*
X83311Y14974D02*
D03*
X75461Y9274D02*
D03*
X82661D02*
D03*
X80861D02*
D03*
X79061D02*
D03*
X77261D02*
D03*
X75361Y14774D02*
D03*
X81711Y17724D02*
D03*
X80811D02*
D03*
X80361Y17274D02*
D03*
X81261D02*
D03*
X82661Y14874D02*
D03*
X83211Y15524D02*
D03*
X82561Y15574D02*
D03*
Y17074D02*
D03*
X83261Y17124D02*
D03*
X83011Y14024D02*
D03*
X75511Y16274D02*
D03*
X80811Y16774D02*
D03*
X74961Y14874D02*
D03*
X79245Y16968D02*
D03*
X77795D02*
D03*
X78995Y17968D02*
D03*
X73211Y17724D02*
D03*
X73161Y16674D02*
D03*
X76311Y14574D02*
D03*
X49961Y11874D02*
D03*
X51461D02*
D03*
X68811Y12974D02*
D03*
X51461Y15074D02*
D03*
X82692Y13174D02*
D03*
X82492Y14324D02*
D03*
X81142D02*
D03*
X77992Y12474D02*
D03*
X79292Y15374D02*
D03*
X82242Y15024D02*
D03*
X77997Y14679D02*
D03*
X69561Y14674D02*
D03*
X70561Y9974D02*
D03*
X69011Y12724D02*
D03*
X78861Y15574D02*
D03*
X78461Y15924D02*
D03*
X75000Y17247D02*
D03*
X69761Y12224D02*
D03*
X51794Y10657D02*
D03*
X75461Y10374D02*
D03*
X73211Y15324D02*
D03*
X73161Y14824D02*
D03*
X52861Y17924D02*
D03*
X30524Y24224D02*
D03*
X29874D02*
D03*
X28574Y26024D02*
D03*
X19224Y27474D02*
D03*
X19574Y27774D02*
D03*
X34524Y26524D02*
D03*
X15974Y27574D02*
D03*
X42274Y23274D02*
D03*
X9374Y25924D02*
D03*
X8624Y24824D02*
D03*
Y21424D02*
D03*
X42774Y20374D02*
D03*
X42674Y21374D02*
D03*
X40605Y23524D02*
D03*
X41255Y23274D02*
D03*
X40655Y24424D02*
D03*
X38374Y28724D02*
D03*
X43274Y25724D02*
D03*
X35424Y20024D02*
D03*
X42624D02*
D03*
X40824D02*
D03*
X39024D02*
D03*
X37224D02*
D03*
X35324Y25524D02*
D03*
X41674Y28474D02*
D03*
X40774D02*
D03*
X40324Y28024D02*
D03*
X41224D02*
D03*
X42624Y25624D02*
D03*
X43174Y26274D02*
D03*
X42524Y26324D02*
D03*
Y27824D02*
D03*
X43224Y27874D02*
D03*
X42974Y24774D02*
D03*
X35474Y27024D02*
D03*
X40774Y27524D02*
D03*
X34924Y25624D02*
D03*
X39207Y27719D02*
D03*
X37757D02*
D03*
X38957Y28719D02*
D03*
X33174Y28474D02*
D03*
X33124Y27424D02*
D03*
X36274Y25324D02*
D03*
X9924Y22624D02*
D03*
X11424D02*
D03*
X28774Y23724D02*
D03*
X11424Y25824D02*
D03*
X42655Y23924D02*
D03*
X42455Y25074D02*
D03*
X41105D02*
D03*
X37955Y23224D02*
D03*
X39255Y26124D02*
D03*
X42205Y25774D02*
D03*
X37959Y25429D02*
D03*
X29524Y25424D02*
D03*
X30524Y20724D02*
D03*
X28974Y23474D02*
D03*
X38824Y26324D02*
D03*
X38424Y26674D02*
D03*
X34963Y27997D02*
D03*
X29724Y22974D02*
D03*
X11757Y21407D02*
D03*
X35424Y21124D02*
D03*
X33174Y26074D02*
D03*
X33124Y25574D02*
D03*
X12824Y28674D02*
D03*
X70561Y24224D02*
D03*
X69911D02*
D03*
X68611Y26024D02*
D03*
X59261Y27474D02*
D03*
X59611Y27774D02*
D03*
X74561Y26524D02*
D03*
X56011Y27574D02*
D03*
X82311Y23274D02*
D03*
X49411Y25924D02*
D03*
X48661Y24824D02*
D03*
Y21424D02*
D03*
X82811Y20374D02*
D03*
X82711Y21374D02*
D03*
X80642Y23524D02*
D03*
X81292Y23274D02*
D03*
X80692Y24424D02*
D03*
X78411Y28724D02*
D03*
X83311Y25724D02*
D03*
X75461Y20024D02*
D03*
X82661D02*
D03*
X80861D02*
D03*
X79061D02*
D03*
X77261D02*
D03*
X75361Y25524D02*
D03*
X81711Y28474D02*
D03*
X80811D02*
D03*
X80361Y28024D02*
D03*
X81261D02*
D03*
X82661Y25624D02*
D03*
X83211Y26274D02*
D03*
X82561Y26324D02*
D03*
Y27824D02*
D03*
X83261Y27874D02*
D03*
X83011Y24774D02*
D03*
X75511Y27024D02*
D03*
X80811Y27524D02*
D03*
X74961Y25624D02*
D03*
X79245Y27719D02*
D03*
X77795D02*
D03*
X78995Y28719D02*
D03*
X73211Y28474D02*
D03*
X73161Y27424D02*
D03*
X76311Y25324D02*
D03*
X49961Y22624D02*
D03*
X51461D02*
D03*
X68811Y23724D02*
D03*
X51461Y25824D02*
D03*
X82692Y23924D02*
D03*
X82492Y25074D02*
D03*
X81142D02*
D03*
X77992Y23224D02*
D03*
X79292Y26124D02*
D03*
X82242Y25774D02*
D03*
X77997Y25429D02*
D03*
X69561Y25424D02*
D03*
X70561Y20724D02*
D03*
X69011Y23474D02*
D03*
X78861Y26324D02*
D03*
X78461Y26674D02*
D03*
X75000Y27997D02*
D03*
X69761Y22974D02*
D03*
X51794Y21407D02*
D03*
X75461Y21124D02*
D03*
X73211Y26074D02*
D03*
X73161Y25574D02*
D03*
X52861Y28674D02*
D03*
X30524Y34975D02*
D03*
X29874D02*
D03*
X28574Y36775D02*
D03*
X19224Y38225D02*
D03*
X19574Y38525D02*
D03*
X34524Y37275D02*
D03*
X15974Y38325D02*
D03*
X42274Y34025D02*
D03*
X9374Y36675D02*
D03*
X8624Y35575D02*
D03*
Y32175D02*
D03*
X42774Y31125D02*
D03*
X42674Y32125D02*
D03*
X40605Y34275D02*
D03*
X41255Y34025D02*
D03*
X40655Y35175D02*
D03*
X38374Y39475D02*
D03*
X43274Y36475D02*
D03*
X35424Y30775D02*
D03*
X42624D02*
D03*
X40824D02*
D03*
X39024D02*
D03*
X37224D02*
D03*
X35324Y36275D02*
D03*
X41674Y39225D02*
D03*
X40774D02*
D03*
X40324Y38775D02*
D03*
X41224D02*
D03*
X42624Y36375D02*
D03*
X43174Y37025D02*
D03*
X42524Y37075D02*
D03*
Y38575D02*
D03*
X43224Y38625D02*
D03*
X42974Y35525D02*
D03*
X35474Y37775D02*
D03*
X40774Y38275D02*
D03*
X34924Y36375D02*
D03*
X39207Y38469D02*
D03*
X37757D02*
D03*
X38957Y39469D02*
D03*
X33174Y39225D02*
D03*
X33124Y38175D02*
D03*
X36274Y36075D02*
D03*
X9924Y33375D02*
D03*
X11424D02*
D03*
X28774Y34475D02*
D03*
X11424Y36575D02*
D03*
X42655Y34675D02*
D03*
X42455Y35825D02*
D03*
X41105D02*
D03*
X37955Y33975D02*
D03*
X39255Y36875D02*
D03*
X42205Y36525D02*
D03*
X37959Y36179D02*
D03*
X29524Y36175D02*
D03*
X30524Y31475D02*
D03*
X28974Y34225D02*
D03*
X38824Y37075D02*
D03*
X38424Y37425D02*
D03*
X34963Y38748D02*
D03*
X29724Y33725D02*
D03*
X11757Y32157D02*
D03*
X35424Y31875D02*
D03*
X33174Y36825D02*
D03*
X33124Y36325D02*
D03*
X12824Y39425D02*
D03*
X70561Y34975D02*
D03*
X69911D02*
D03*
X68611Y36775D02*
D03*
X59261Y38225D02*
D03*
X59611Y38525D02*
D03*
X74561Y37275D02*
D03*
X56011Y38325D02*
D03*
X82311Y34025D02*
D03*
X49411Y36675D02*
D03*
X48661Y35575D02*
D03*
Y32175D02*
D03*
X82811Y31125D02*
D03*
X82711Y32125D02*
D03*
X80642Y34275D02*
D03*
X81292Y34025D02*
D03*
X80692Y35175D02*
D03*
X78411Y39475D02*
D03*
X83311Y36475D02*
D03*
X75461Y30775D02*
D03*
X82661D02*
D03*
X80861D02*
D03*
X79061D02*
D03*
X77261D02*
D03*
X75361Y36275D02*
D03*
X81711Y39225D02*
D03*
X80811D02*
D03*
X80361Y38775D02*
D03*
X81261D02*
D03*
X82661Y36375D02*
D03*
X83211Y37025D02*
D03*
X82561Y37075D02*
D03*
Y38575D02*
D03*
X83261Y38625D02*
D03*
X83011Y35525D02*
D03*
X75511Y37775D02*
D03*
X80811Y38275D02*
D03*
X74961Y36375D02*
D03*
X79245Y38469D02*
D03*
X77795D02*
D03*
X78995Y39469D02*
D03*
X73211Y39225D02*
D03*
X73161Y38175D02*
D03*
X76311Y36075D02*
D03*
X49961Y33375D02*
D03*
X51461D02*
D03*
X68811Y34475D02*
D03*
X51461Y36575D02*
D03*
X82692Y34675D02*
D03*
X82492Y35825D02*
D03*
X81142D02*
D03*
X77992Y33975D02*
D03*
X79292Y36875D02*
D03*
X82242Y36525D02*
D03*
X77997Y36179D02*
D03*
X69561Y36175D02*
D03*
X70561Y31475D02*
D03*
X69011Y34225D02*
D03*
X78861Y37075D02*
D03*
X78461Y37425D02*
D03*
X75000Y38748D02*
D03*
X69761Y33725D02*
D03*
X51794Y32157D02*
D03*
X75461Y31875D02*
D03*
X73211Y36825D02*
D03*
X73161Y36325D02*
D03*
X52861Y39425D02*
D03*
X30524Y45725D02*
D03*
X29874D02*
D03*
X28574Y47525D02*
D03*
X19224Y48975D02*
D03*
X19574Y49275D02*
D03*
X34524Y48025D02*
D03*
X15974Y49075D02*
D03*
X42274Y44775D02*
D03*
X9374Y47425D02*
D03*
X8624Y46325D02*
D03*
Y42925D02*
D03*
X42774Y41875D02*
D03*
X42674Y42875D02*
D03*
X40605Y45025D02*
D03*
X41255Y44775D02*
D03*
X40655Y45925D02*
D03*
X38374Y50225D02*
D03*
X43274Y47225D02*
D03*
X35424Y41525D02*
D03*
X42624D02*
D03*
X40824D02*
D03*
X39024D02*
D03*
X37224D02*
D03*
X35324Y47025D02*
D03*
X41674Y49975D02*
D03*
X40774D02*
D03*
X40324Y49525D02*
D03*
X41224D02*
D03*
X42624Y47125D02*
D03*
X43174Y47775D02*
D03*
X42524Y47825D02*
D03*
Y49325D02*
D03*
X43224Y49375D02*
D03*
X42974Y46275D02*
D03*
X35474Y48525D02*
D03*
X40774Y49025D02*
D03*
X34924Y47125D02*
D03*
X39207Y49219D02*
D03*
X37757D02*
D03*
X38957Y50219D02*
D03*
X33174Y49975D02*
D03*
X33124Y48925D02*
D03*
X36274Y46825D02*
D03*
X9924Y44125D02*
D03*
X11424D02*
D03*
X28774Y45225D02*
D03*
X11424Y47325D02*
D03*
X42655Y45425D02*
D03*
X42455Y46575D02*
D03*
X41105D02*
D03*
X37955Y44725D02*
D03*
X39255Y47625D02*
D03*
X42205Y47275D02*
D03*
X37959Y46930D02*
D03*
X29524Y46925D02*
D03*
X30524Y42225D02*
D03*
X28974Y44975D02*
D03*
X38824Y47825D02*
D03*
X38424Y48175D02*
D03*
X34963Y49498D02*
D03*
X29724Y44475D02*
D03*
X11757Y42908D02*
D03*
X35424Y42625D02*
D03*
X33174Y47575D02*
D03*
X33124Y47075D02*
D03*
X12824Y50175D02*
D03*
X70561Y45725D02*
D03*
X69911D02*
D03*
X68611Y47525D02*
D03*
X59261Y48975D02*
D03*
X59611Y49275D02*
D03*
X74561Y48025D02*
D03*
X56011Y49075D02*
D03*
X82311Y44775D02*
D03*
X49411Y47425D02*
D03*
X48661Y46325D02*
D03*
Y42925D02*
D03*
X82811Y41875D02*
D03*
X82711Y42875D02*
D03*
X80642Y45025D02*
D03*
X81292Y44775D02*
D03*
X80692Y45925D02*
D03*
X78411Y50225D02*
D03*
X83311Y47225D02*
D03*
X75461Y41525D02*
D03*
X82661D02*
D03*
X80861D02*
D03*
X79061D02*
D03*
X77261D02*
D03*
X75361Y47025D02*
D03*
X81711Y49975D02*
D03*
X80811D02*
D03*
X80361Y49525D02*
D03*
X81261D02*
D03*
X82661Y47125D02*
D03*
X83211Y47775D02*
D03*
X82561Y47825D02*
D03*
Y49325D02*
D03*
X83261Y49375D02*
D03*
X83011Y46275D02*
D03*
X75511Y48525D02*
D03*
X80811Y49025D02*
D03*
X74961Y47125D02*
D03*
X79245Y49219D02*
D03*
X77795D02*
D03*
X78995Y50219D02*
D03*
X73211Y49975D02*
D03*
X73161Y48925D02*
D03*
X76311Y46825D02*
D03*
X49961Y44125D02*
D03*
X51461D02*
D03*
X68811Y45225D02*
D03*
X51461Y47325D02*
D03*
X82692Y45425D02*
D03*
X82492Y46575D02*
D03*
X81142D02*
D03*
X77992Y44725D02*
D03*
X79292Y47625D02*
D03*
X82242Y47275D02*
D03*
X77997Y46930D02*
D03*
X69561Y46925D02*
D03*
X70561Y42225D02*
D03*
X69011Y44975D02*
D03*
X78861Y47825D02*
D03*
X78461Y48175D02*
D03*
X75000Y49498D02*
D03*
X69761Y44475D02*
D03*
X51794Y42908D02*
D03*
X75461Y42625D02*
D03*
X73211Y47575D02*
D03*
X73161Y47075D02*
D03*
X52861Y50175D02*
D03*
D77*
X43274Y14624D02*
D03*
Y13624D02*
D03*
Y11624D02*
D03*
Y12624D02*
D03*
Y9624D02*
D03*
Y10624D02*
D03*
X83311Y14624D02*
D03*
Y13624D02*
D03*
Y11624D02*
D03*
Y12624D02*
D03*
Y9624D02*
D03*
Y10624D02*
D03*
X43274Y25374D02*
D03*
Y24374D02*
D03*
Y22374D02*
D03*
Y23374D02*
D03*
Y20374D02*
D03*
Y21374D02*
D03*
X83311Y25374D02*
D03*
Y24374D02*
D03*
Y22374D02*
D03*
Y23374D02*
D03*
Y20374D02*
D03*
Y21374D02*
D03*
X43274Y36125D02*
D03*
Y35125D02*
D03*
Y33125D02*
D03*
Y34125D02*
D03*
Y31125D02*
D03*
Y32125D02*
D03*
X83311Y36125D02*
D03*
Y35125D02*
D03*
Y33125D02*
D03*
Y34125D02*
D03*
Y31125D02*
D03*
Y32125D02*
D03*
X43274Y46875D02*
D03*
Y45875D02*
D03*
Y43875D02*
D03*
Y44875D02*
D03*
Y41875D02*
D03*
Y42875D02*
D03*
X83311Y46875D02*
D03*
Y45875D02*
D03*
Y43875D02*
D03*
Y44875D02*
D03*
Y41875D02*
D03*
Y42875D02*
D03*
M02*
