G04 Layer_Physical_Order=3*
G04 Layer_Color=16440176*
%FSLAX24Y24*%
%MOIN*%
G70*
G01*
G75*
%ADD12C,0.0080*%
%ADD13C,0.0120*%
%ADD74C,0.0200*%
%ADD76C,0.0240*%
D12*
X19174Y14153D02*
G03*
X19124Y14274I-171J0D01*
G01*
X18953Y13824D02*
G03*
X19074Y13874I0J171D01*
G01*
X18824Y13824D02*
G03*
X18653Y13753I0J-241D01*
G01*
X18645Y15245D02*
G03*
X18574Y15074I171J-171D01*
G01*
X19074Y13874D02*
G03*
X19174Y14116I-241J241D01*
G01*
X18645Y15245D02*
X20192Y16792D01*
X18574Y14824D02*
Y15074D01*
X19174Y14116D02*
Y14153D01*
X18824Y13824D02*
X18953D01*
X18574Y14824D02*
X19124Y14274D01*
X17224Y12324D02*
X18653Y13753D01*
X22326Y17072D02*
X23924Y15474D01*
X22863Y16863D02*
X24074Y15652D01*
X23924Y14674D02*
Y15474D01*
X24074Y13574D02*
Y15652D01*
X21866Y16932D02*
X23774Y15024D01*
X21789Y16792D02*
X23574Y15007D01*
X37524Y10924D02*
X40074Y13474D01*
X19174Y10924D02*
X37524D01*
X17330Y15051D02*
X18251D01*
X18226Y15224D02*
X20074Y17072D01*
X14924Y15224D02*
X18226D01*
X14824Y15124D02*
X14924Y15224D01*
X17307Y15074D02*
X17330Y15051D01*
X18251D02*
X20132Y16932D01*
X17124Y15074D02*
X17307D01*
X18424Y11674D02*
X19174Y10924D01*
X20074Y11574D02*
X29485D01*
X19174Y12474D02*
X20074Y11574D01*
X30174Y12263D02*
Y16774D01*
X25664Y12824D02*
X26340Y13500D01*
X26498D01*
X16774Y14724D02*
X17124Y15074D01*
X29485Y11574D02*
X30174Y12263D01*
X19174Y12474D02*
Y12974D01*
X24274Y14224D02*
X24374Y14324D01*
X24074Y13574D02*
X24274Y13374D01*
X23024Y12824D02*
X25664D01*
X22574Y13274D02*
X23024Y12824D01*
X30174Y16774D02*
X30624Y17224D01*
X20192Y16792D02*
X21789D01*
X20132Y16932D02*
X21866D01*
X22324Y14874D02*
X22574Y14624D01*
X20624Y14874D02*
X22324D01*
X22574Y13274D02*
Y14624D01*
X20424Y15074D02*
X20624Y14874D01*
X20424Y15074D02*
Y16274D01*
X23674Y14624D02*
X23774Y14724D01*
X23574Y14624D02*
X23674D01*
X23774Y14724D02*
Y15024D01*
X23574Y14924D02*
Y15007D01*
Y14324D02*
X23924Y14674D01*
X17224Y12074D02*
Y12324D01*
X20074Y17072D02*
X22326D01*
X30624Y17224D02*
Y17374D01*
X24374Y14324D02*
Y17674D01*
X59211Y14153D02*
G03*
X59161Y14274I-171J0D01*
G01*
X58991Y13824D02*
G03*
X59111Y13874I0J171D01*
G01*
X58861Y13824D02*
G03*
X58691Y13753I0J-241D01*
G01*
X58682Y15245D02*
G03*
X58611Y15074I171J-171D01*
G01*
X59111Y13874D02*
G03*
X59211Y14116I-241J241D01*
G01*
X58682Y15245D02*
X60229Y16792D01*
X58611Y14824D02*
Y15074D01*
X59211Y14116D02*
Y14153D01*
X58861Y13824D02*
X58991D01*
X58611Y14824D02*
X59161Y14274D01*
X57261Y12324D02*
X58691Y13753D01*
X62364Y17072D02*
X63961Y15474D01*
X62900Y16863D02*
X64111Y15652D01*
X63961Y14674D02*
Y15474D01*
X64111Y13574D02*
Y15652D01*
X61904Y16932D02*
X63811Y15024D01*
X61827Y16792D02*
X63611Y15007D01*
X77561Y10924D02*
X80111Y13474D01*
X59211Y10924D02*
X77561D01*
X57367Y15051D02*
X58289D01*
X58263Y15224D02*
X60111Y17072D01*
X54961Y15224D02*
X58263D01*
X54861Y15124D02*
X54961Y15224D01*
X57344Y15074D02*
X57367Y15051D01*
X58289D02*
X60169Y16932D01*
X57161Y15074D02*
X57344D01*
X58461Y11674D02*
X59211Y10924D01*
X60111Y11574D02*
X69523D01*
X59211Y12474D02*
X60111Y11574D01*
X70211Y12263D02*
Y16774D01*
X65701Y12824D02*
X66377Y13500D01*
X66535D01*
X56811Y14724D02*
X57161Y15074D01*
X69523Y11574D02*
X70211Y12263D01*
X59211Y12474D02*
Y12974D01*
X64311Y14224D02*
X64411Y14324D01*
X64111Y13574D02*
X64311Y13374D01*
X63061Y12824D02*
X65701D01*
X62611Y13274D02*
X63061Y12824D01*
X70211Y16774D02*
X70661Y17224D01*
X60229Y16792D02*
X61827D01*
X60169Y16932D02*
X61904D01*
X62361Y14874D02*
X62611Y14624D01*
X60661Y14874D02*
X62361D01*
X62611Y13274D02*
Y14624D01*
X60461Y15074D02*
X60661Y14874D01*
X60461Y15074D02*
Y16274D01*
X63711Y14624D02*
X63811Y14724D01*
X63611Y14624D02*
X63711D01*
X63811Y14724D02*
Y15024D01*
X63611Y14924D02*
Y15007D01*
Y14324D02*
X63961Y14674D01*
X57261Y12074D02*
Y12324D01*
X60111Y17072D02*
X62364D01*
X70661Y17224D02*
Y17374D01*
X64411Y14324D02*
Y17674D01*
X19174Y24904D02*
G03*
X19124Y25024I-171J0D01*
G01*
X18953Y24574D02*
G03*
X19074Y24624I0J171D01*
G01*
X18824Y24574D02*
G03*
X18653Y24504I0J-241D01*
G01*
X18645Y25995D02*
G03*
X18574Y25824I171J-171D01*
G01*
X19074Y24624D02*
G03*
X19174Y24866I-241J241D01*
G01*
X18645Y25995D02*
X20192Y27542D01*
X18574Y25574D02*
Y25824D01*
X19174Y24866D02*
Y24904D01*
X18824Y24574D02*
X18953D01*
X18574Y25574D02*
X19124Y25024D01*
X17224Y23074D02*
X18653Y24504D01*
X22326Y27822D02*
X23924Y26224D01*
X22863Y27613D02*
X24074Y26402D01*
X23924Y25424D02*
Y26224D01*
X24074Y24324D02*
Y26402D01*
X21866Y27682D02*
X23774Y25774D01*
X21789Y27542D02*
X23574Y25757D01*
X37524Y21674D02*
X40074Y24224D01*
X19174Y21674D02*
X37524D01*
X17330Y25802D02*
X18251D01*
X18226Y25974D02*
X20074Y27822D01*
X14924Y25974D02*
X18226D01*
X14824Y25874D02*
X14924Y25974D01*
X17307Y25824D02*
X17330Y25802D01*
X18251D02*
X20132Y27682D01*
X17124Y25824D02*
X17307D01*
X18424Y22424D02*
X19174Y21674D01*
X20074Y22324D02*
X29485D01*
X19174Y23224D02*
X20074Y22324D01*
X30174Y23013D02*
Y27524D01*
X25664Y23574D02*
X26340Y24250D01*
X26498D01*
X16774Y25474D02*
X17124Y25824D01*
X29485Y22324D02*
X30174Y23013D01*
X19174Y23224D02*
Y23724D01*
X24274Y24974D02*
X24374Y25074D01*
X24074Y24324D02*
X24274Y24124D01*
X23024Y23574D02*
X25664D01*
X22574Y24024D02*
X23024Y23574D01*
X30174Y27524D02*
X30624Y27974D01*
X20192Y27542D02*
X21789D01*
X20132Y27682D02*
X21866D01*
X22324Y25624D02*
X22574Y25374D01*
X20624Y25624D02*
X22324D01*
X22574Y24024D02*
Y25374D01*
X20424Y25824D02*
X20624Y25624D01*
X20424Y25824D02*
Y27024D01*
X23674Y25374D02*
X23774Y25474D01*
X23574Y25374D02*
X23674D01*
X23774Y25474D02*
Y25774D01*
X23574Y25674D02*
Y25757D01*
Y25074D02*
X23924Y25424D01*
X17224Y22824D02*
Y23074D01*
X20074Y27822D02*
X22326D01*
X30624Y27974D02*
Y28124D01*
X24374Y25074D02*
Y28424D01*
X59211Y24904D02*
G03*
X59161Y25024I-171J0D01*
G01*
X58991Y24574D02*
G03*
X59111Y24624I0J171D01*
G01*
X58861Y24574D02*
G03*
X58691Y24504I0J-241D01*
G01*
X58682Y25995D02*
G03*
X58611Y25824I171J-171D01*
G01*
X59111Y24624D02*
G03*
X59211Y24866I-241J241D01*
G01*
X58682Y25995D02*
X60229Y27542D01*
X58611Y25574D02*
Y25824D01*
X59211Y24866D02*
Y24904D01*
X58861Y24574D02*
X58991D01*
X58611Y25574D02*
X59161Y25024D01*
X57261Y23074D02*
X58691Y24504D01*
X62364Y27822D02*
X63961Y26224D01*
X62900Y27613D02*
X64111Y26402D01*
X63961Y25424D02*
Y26224D01*
X64111Y24324D02*
Y26402D01*
X61904Y27682D02*
X63811Y25774D01*
X61827Y27542D02*
X63611Y25757D01*
X77561Y21674D02*
X80111Y24224D01*
X59211Y21674D02*
X77561D01*
X57367Y25802D02*
X58289D01*
X58263Y25974D02*
X60111Y27822D01*
X54961Y25974D02*
X58263D01*
X54861Y25874D02*
X54961Y25974D01*
X57344Y25824D02*
X57367Y25802D01*
X58289D02*
X60169Y27682D01*
X57161Y25824D02*
X57344D01*
X58461Y22424D02*
X59211Y21674D01*
X60111Y22324D02*
X69523D01*
X59211Y23224D02*
X60111Y22324D01*
X70211Y23013D02*
Y27524D01*
X65701Y23574D02*
X66377Y24250D01*
X66535D01*
X56811Y25474D02*
X57161Y25824D01*
X69523Y22324D02*
X70211Y23013D01*
X59211Y23224D02*
Y23724D01*
X64311Y24974D02*
X64411Y25074D01*
X64111Y24324D02*
X64311Y24124D01*
X63061Y23574D02*
X65701D01*
X62611Y24024D02*
X63061Y23574D01*
X70211Y27524D02*
X70661Y27974D01*
X60229Y27542D02*
X61827D01*
X60169Y27682D02*
X61904D01*
X62361Y25624D02*
X62611Y25374D01*
X60661Y25624D02*
X62361D01*
X62611Y24024D02*
Y25374D01*
X60461Y25824D02*
X60661Y25624D01*
X60461Y25824D02*
Y27024D01*
X63711Y25374D02*
X63811Y25474D01*
X63611Y25374D02*
X63711D01*
X63811Y25474D02*
Y25774D01*
X63611Y25674D02*
Y25757D01*
Y25074D02*
X63961Y25424D01*
X57261Y22824D02*
Y23074D01*
X60111Y27822D02*
X62364D01*
X70661Y27974D02*
Y28124D01*
X64411Y25074D02*
Y28424D01*
X19174Y35654D02*
G03*
X19124Y35775I-171J0D01*
G01*
X18953Y35325D02*
G03*
X19074Y35375I0J171D01*
G01*
X18824Y35325D02*
G03*
X18653Y35254I0J-241D01*
G01*
X18645Y36745D02*
G03*
X18574Y36575I171J-171D01*
G01*
X19074Y35375D02*
G03*
X19174Y35616I-241J241D01*
G01*
X18645Y36745D02*
X20192Y38292D01*
X18574Y36325D02*
Y36575D01*
X19174Y35616D02*
Y35654D01*
X18824Y35325D02*
X18953D01*
X18574Y36325D02*
X19124Y35775D01*
X17224Y33825D02*
X18653Y35254D01*
X22326Y38572D02*
X23924Y36975D01*
X22863Y38364D02*
X24074Y37153D01*
X23924Y36175D02*
Y36975D01*
X24074Y35075D02*
Y37153D01*
X21866Y38432D02*
X23774Y36525D01*
X21789Y38292D02*
X23574Y36508D01*
X37524Y32425D02*
X40074Y34975D01*
X19174Y32425D02*
X37524D01*
X17330Y36552D02*
X18251D01*
X18226Y36725D02*
X20074Y38572D01*
X14924Y36725D02*
X18226D01*
X14824Y36625D02*
X14924Y36725D01*
X17307Y36575D02*
X17330Y36552D01*
X18251D02*
X20132Y38432D01*
X17124Y36575D02*
X17307D01*
X18424Y33175D02*
X19174Y32425D01*
X20074Y33075D02*
X29485D01*
X19174Y33975D02*
X20074Y33075D01*
X30174Y33764D02*
Y38275D01*
X25664Y34325D02*
X26340Y35001D01*
X26498D01*
X16774Y36225D02*
X17124Y36575D01*
X29485Y33075D02*
X30174Y33764D01*
X19174Y33975D02*
Y34475D01*
X24274Y35725D02*
X24374Y35825D01*
X24074Y35075D02*
X24274Y34875D01*
X23024Y34325D02*
X25664D01*
X22574Y34775D02*
X23024Y34325D01*
X30174Y38275D02*
X30624Y38725D01*
X20192Y38292D02*
X21789D01*
X20132Y38432D02*
X21866D01*
X22324Y36375D02*
X22574Y36125D01*
X20624Y36375D02*
X22324D01*
X22574Y34775D02*
Y36125D01*
X20424Y36575D02*
X20624Y36375D01*
X20424Y36575D02*
Y37775D01*
X23674Y36125D02*
X23774Y36225D01*
X23574Y36125D02*
X23674D01*
X23774Y36225D02*
Y36525D01*
X23574Y36425D02*
Y36508D01*
Y35825D02*
X23924Y36175D01*
X17224Y33575D02*
Y33825D01*
X20074Y38572D02*
X22326D01*
X30624Y38725D02*
Y38875D01*
X24374Y35825D02*
Y39175D01*
X59211Y35654D02*
G03*
X59161Y35775I-171J0D01*
G01*
X58991Y35325D02*
G03*
X59111Y35375I0J171D01*
G01*
X58861Y35325D02*
G03*
X58691Y35254I0J-241D01*
G01*
X58682Y36745D02*
G03*
X58611Y36575I171J-171D01*
G01*
X59111Y35375D02*
G03*
X59211Y35616I-241J241D01*
G01*
X58682Y36745D02*
X60229Y38292D01*
X58611Y36325D02*
Y36575D01*
X59211Y35616D02*
Y35654D01*
X58861Y35325D02*
X58991D01*
X58611Y36325D02*
X59161Y35775D01*
X57261Y33825D02*
X58691Y35254D01*
X62364Y38572D02*
X63961Y36975D01*
X62900Y38364D02*
X64111Y37153D01*
X63961Y36175D02*
Y36975D01*
X64111Y35075D02*
Y37153D01*
X61904Y38432D02*
X63811Y36525D01*
X61827Y38292D02*
X63611Y36508D01*
X77561Y32425D02*
X80111Y34975D01*
X59211Y32425D02*
X77561D01*
X57367Y36552D02*
X58289D01*
X58263Y36725D02*
X60111Y38572D01*
X54961Y36725D02*
X58263D01*
X54861Y36625D02*
X54961Y36725D01*
X57344Y36575D02*
X57367Y36552D01*
X58289D02*
X60169Y38432D01*
X57161Y36575D02*
X57344D01*
X58461Y33175D02*
X59211Y32425D01*
X60111Y33075D02*
X69523D01*
X59211Y33975D02*
X60111Y33075D01*
X70211Y33764D02*
Y38275D01*
X65701Y34325D02*
X66377Y35001D01*
X66535D01*
X56811Y36225D02*
X57161Y36575D01*
X69523Y33075D02*
X70211Y33764D01*
X59211Y33975D02*
Y34475D01*
X64311Y35725D02*
X64411Y35825D01*
X64111Y35075D02*
X64311Y34875D01*
X63061Y34325D02*
X65701D01*
X62611Y34775D02*
X63061Y34325D01*
X70211Y38275D02*
X70661Y38725D01*
X60229Y38292D02*
X61827D01*
X60169Y38432D02*
X61904D01*
X62361Y36375D02*
X62611Y36125D01*
X60661Y36375D02*
X62361D01*
X62611Y34775D02*
Y36125D01*
X60461Y36575D02*
X60661Y36375D01*
X60461Y36575D02*
Y37775D01*
X63711Y36125D02*
X63811Y36225D01*
X63611Y36125D02*
X63711D01*
X63811Y36225D02*
Y36525D01*
X63611Y36425D02*
Y36508D01*
Y35825D02*
X63961Y36175D01*
X57261Y33575D02*
Y33825D01*
X60111Y38572D02*
X62364D01*
X70661Y38725D02*
Y38875D01*
X64411Y35825D02*
Y39175D01*
X19174Y46404D02*
G03*
X19124Y46525I-171J0D01*
G01*
X18953Y46075D02*
G03*
X19074Y46125I0J171D01*
G01*
X18824Y46075D02*
G03*
X18653Y46004I0J-241D01*
G01*
X18645Y47496D02*
G03*
X18574Y47325I171J-171D01*
G01*
X19074Y46125D02*
G03*
X19174Y46366I-241J241D01*
G01*
X18645Y47496D02*
X20192Y49043D01*
X18574Y47075D02*
Y47325D01*
X19174Y46366D02*
Y46404D01*
X18824Y46075D02*
X18953D01*
X18574Y47075D02*
X19124Y46525D01*
X17224Y44575D02*
X18653Y46004D01*
X22326Y49323D02*
X23924Y47725D01*
X22863Y49114D02*
X24074Y47903D01*
X23924Y46925D02*
Y47725D01*
X24074Y45825D02*
Y47903D01*
X21866Y49183D02*
X23774Y47275D01*
X21789Y49043D02*
X23574Y47258D01*
X37524Y43175D02*
X40074Y45725D01*
X19174Y43175D02*
X37524D01*
X17330Y47302D02*
X18251D01*
X18226Y47475D02*
X20074Y49323D01*
X14924Y47475D02*
X18226D01*
X14824Y47375D02*
X14924Y47475D01*
X17307Y47325D02*
X17330Y47302D01*
X18251D02*
X20132Y49183D01*
X17124Y47325D02*
X17307D01*
X18424Y43925D02*
X19174Y43175D01*
X20074Y43825D02*
X29485D01*
X19174Y44725D02*
X20074Y43825D01*
X30174Y44514D02*
Y49025D01*
X25664Y45075D02*
X26340Y45751D01*
X26498D01*
X16774Y46975D02*
X17124Y47325D01*
X29485Y43825D02*
X30174Y44514D01*
X19174Y44725D02*
Y45225D01*
X24274Y46475D02*
X24374Y46575D01*
X24074Y45825D02*
X24274Y45625D01*
X23024Y45075D02*
X25664D01*
X22574Y45525D02*
X23024Y45075D01*
X30174Y49025D02*
X30624Y49475D01*
X20192Y49043D02*
X21789D01*
X20132Y49183D02*
X21866D01*
X22324Y47125D02*
X22574Y46875D01*
X20624Y47125D02*
X22324D01*
X22574Y45525D02*
Y46875D01*
X20424Y47325D02*
X20624Y47125D01*
X20424Y47325D02*
Y48525D01*
X23674Y46875D02*
X23774Y46975D01*
X23574Y46875D02*
X23674D01*
X23774Y46975D02*
Y47275D01*
X23574Y47175D02*
Y47258D01*
Y46575D02*
X23924Y46925D01*
X17224Y44325D02*
Y44575D01*
X20074Y49323D02*
X22326D01*
X30624Y49475D02*
Y49625D01*
X24374Y46575D02*
Y49925D01*
X59211Y46404D02*
G03*
X59161Y46525I-171J0D01*
G01*
X58991Y46075D02*
G03*
X59111Y46125I0J171D01*
G01*
X58861Y46075D02*
G03*
X58691Y46004I0J-241D01*
G01*
X58682Y47496D02*
G03*
X58611Y47325I171J-171D01*
G01*
X59111Y46125D02*
G03*
X59211Y46366I-241J241D01*
G01*
X58682Y47496D02*
X60229Y49043D01*
X58611Y47075D02*
Y47325D01*
X59211Y46366D02*
Y46404D01*
X58861Y46075D02*
X58991D01*
X58611Y47075D02*
X59161Y46525D01*
X57261Y44575D02*
X58691Y46004D01*
X62364Y49323D02*
X63961Y47725D01*
X62900Y49114D02*
X64111Y47903D01*
X63961Y46925D02*
Y47725D01*
X64111Y45825D02*
Y47903D01*
X61904Y49183D02*
X63811Y47275D01*
X61827Y49043D02*
X63611Y47258D01*
X77561Y43175D02*
X80111Y45725D01*
X59211Y43175D02*
X77561D01*
X57367Y47302D02*
X58289D01*
X58263Y47475D02*
X60111Y49323D01*
X54961Y47475D02*
X58263D01*
X54861Y47375D02*
X54961Y47475D01*
X57344Y47325D02*
X57367Y47302D01*
X58289D02*
X60169Y49183D01*
X57161Y47325D02*
X57344D01*
X58461Y43925D02*
X59211Y43175D01*
X60111Y43825D02*
X69523D01*
X59211Y44725D02*
X60111Y43825D01*
X70211Y44514D02*
Y49025D01*
X65701Y45075D02*
X66377Y45751D01*
X66535D01*
X56811Y46975D02*
X57161Y47325D01*
X69523Y43825D02*
X70211Y44514D01*
X59211Y44725D02*
Y45225D01*
X64311Y46475D02*
X64411Y46575D01*
X64111Y45825D02*
X64311Y45625D01*
X63061Y45075D02*
X65701D01*
X62611Y45525D02*
X63061Y45075D01*
X70211Y49025D02*
X70661Y49475D01*
X60229Y49043D02*
X61827D01*
X60169Y49183D02*
X61904D01*
X62361Y47125D02*
X62611Y46875D01*
X60661Y47125D02*
X62361D01*
X62611Y45525D02*
Y46875D01*
X60461Y47325D02*
X60661Y47125D01*
X60461Y47325D02*
Y48525D01*
X63711Y46875D02*
X63811Y46975D01*
X63611Y46875D02*
X63711D01*
X63811Y46975D02*
Y47275D01*
X63611Y47175D02*
Y47258D01*
Y46575D02*
X63961Y46925D01*
X57261Y44325D02*
Y44575D01*
X60111Y49323D02*
X62364D01*
X70661Y49475D02*
Y49625D01*
X64411Y46575D02*
Y49925D01*
D13*
X37664Y18214D02*
X42734D01*
X37178Y17728D02*
X37664Y18214D01*
X42734D02*
X43224Y17724D01*
X11424Y15124D02*
X12224Y14324D01*
X18274D01*
X19984Y11414D02*
X33364D01*
X18954Y12444D02*
X19984Y11414D01*
X28424Y12724D02*
Y15124D01*
X28574Y15274D01*
X34185Y12235D02*
Y16424D01*
X33364Y11414D02*
X34185Y12235D01*
X19982Y12916D02*
X20674Y12224D01*
X18954Y12444D02*
Y13204D01*
X20774Y12424D02*
X28124D01*
X20674Y12224D02*
X29724D01*
X34185Y16424D02*
X34963Y17202D01*
X35120Y17728D02*
X37178D01*
X26374Y17924D02*
X26824Y17474D01*
X43224Y17124D02*
Y17724D01*
X34674Y18174D02*
X35120Y17728D01*
X30274Y18174D02*
X34674D01*
X29574Y17474D02*
X30274Y18174D01*
X26824Y17474D02*
X29574D01*
X23254Y18244D02*
X23574Y17924D01*
X13144Y18244D02*
X23254D01*
X11424Y15074D02*
Y15124D01*
X20174Y13024D02*
Y14074D01*
Y13024D02*
X20774Y12424D01*
X18274Y14324D02*
X18524Y14074D01*
X18924D01*
X19026Y15222D02*
X20174Y14074D01*
X34963Y17202D02*
Y17247D01*
X28124Y12424D02*
X28424Y12724D01*
X19982Y12916D02*
Y13716D01*
X18774Y14924D02*
X19982Y13716D01*
X18954Y13204D02*
X19324Y13574D01*
X23574Y17924D02*
X26374D01*
X12824D02*
X13144Y18244D01*
X77701Y18214D02*
X82771D01*
X77216Y17728D02*
X77701Y18214D01*
X82771D02*
X83261Y17724D01*
X51461Y15124D02*
X52261Y14324D01*
X58311D01*
X60021Y11414D02*
X73401D01*
X58991Y12444D02*
X60021Y11414D01*
X68461Y12724D02*
Y15124D01*
X68611Y15274D01*
X74223Y12235D02*
Y16424D01*
X73401Y11414D02*
X74223Y12235D01*
X60019Y12916D02*
X60711Y12224D01*
X58991Y12444D02*
Y13204D01*
X60811Y12424D02*
X68161D01*
X60711Y12224D02*
X69761D01*
X74223Y16424D02*
X75000Y17202D01*
X75157Y17728D02*
X77216D01*
X66411Y17924D02*
X66861Y17474D01*
X83261Y17124D02*
Y17724D01*
X74711Y18174D02*
X75157Y17728D01*
X70311Y18174D02*
X74711D01*
X69611Y17474D02*
X70311Y18174D01*
X66861Y17474D02*
X69611D01*
X63291Y18244D02*
X63611Y17924D01*
X53181Y18244D02*
X63291D01*
X51461Y15074D02*
Y15124D01*
X60211Y13024D02*
Y14074D01*
Y13024D02*
X60811Y12424D01*
X58311Y14324D02*
X58561Y14074D01*
X58961D01*
X59063Y15222D02*
X60211Y14074D01*
X75000Y17202D02*
Y17247D01*
X68161Y12424D02*
X68461Y12724D01*
X60019Y12916D02*
Y13716D01*
X58811Y14924D02*
X60019Y13716D01*
X58991Y13204D02*
X59361Y13574D01*
X63611Y17924D02*
X66411D01*
X52861D02*
X53181Y18244D01*
X37664Y28964D02*
X42734D01*
X37178Y28479D02*
X37664Y28964D01*
X42734D02*
X43224Y28474D01*
X11424Y25874D02*
X12224Y25074D01*
X18274D01*
X19984Y22164D02*
X33364D01*
X18954Y23194D02*
X19984Y22164D01*
X28424Y23474D02*
Y25874D01*
X28574Y26024D01*
X34185Y22986D02*
Y27174D01*
X33364Y22164D02*
X34185Y22986D01*
X19982Y23667D02*
X20674Y22974D01*
X18954Y23194D02*
Y23954D01*
X20774Y23174D02*
X28124D01*
X20674Y22974D02*
X29724D01*
X34185Y27174D02*
X34963Y27952D01*
X35120Y28479D02*
X37178D01*
X26374Y28674D02*
X26824Y28224D01*
X43224Y27874D02*
Y28474D01*
X34674Y28924D02*
X35120Y28479D01*
X30274Y28924D02*
X34674D01*
X29574Y28224D02*
X30274Y28924D01*
X26824Y28224D02*
X29574D01*
X23254Y28994D02*
X23574Y28674D01*
X13144Y28994D02*
X23254D01*
X11424Y25824D02*
Y25874D01*
X20174Y23774D02*
Y24824D01*
Y23774D02*
X20774Y23174D01*
X18274Y25074D02*
X18524Y24824D01*
X18924D01*
X19026Y25972D02*
X20174Y24824D01*
X34963Y27952D02*
Y27997D01*
X28124Y23174D02*
X28424Y23474D01*
X19982Y23667D02*
Y24467D01*
X18774Y25674D02*
X19982Y24467D01*
X18954Y23954D02*
X19324Y24324D01*
X23574Y28674D02*
X26374D01*
X12824D02*
X13144Y28994D01*
X77701Y28964D02*
X82771D01*
X77216Y28479D02*
X77701Y28964D01*
X82771D02*
X83261Y28474D01*
X51461Y25874D02*
X52261Y25074D01*
X58311D01*
X60021Y22164D02*
X73401D01*
X58991Y23194D02*
X60021Y22164D01*
X68461Y23474D02*
Y25874D01*
X68611Y26024D01*
X74223Y22986D02*
Y27174D01*
X73401Y22164D02*
X74223Y22986D01*
X60019Y23667D02*
X60711Y22974D01*
X58991Y23194D02*
Y23954D01*
X60811Y23174D02*
X68161D01*
X60711Y22974D02*
X69761D01*
X74223Y27174D02*
X75000Y27952D01*
X75157Y28479D02*
X77216D01*
X66411Y28674D02*
X66861Y28224D01*
X83261Y27874D02*
Y28474D01*
X74711Y28924D02*
X75157Y28479D01*
X70311Y28924D02*
X74711D01*
X69611Y28224D02*
X70311Y28924D01*
X66861Y28224D02*
X69611D01*
X63291Y28994D02*
X63611Y28674D01*
X53181Y28994D02*
X63291D01*
X51461Y25824D02*
Y25874D01*
X60211Y23774D02*
Y24824D01*
Y23774D02*
X60811Y23174D01*
X58311Y25074D02*
X58561Y24824D01*
X58961D01*
X59063Y25972D02*
X60211Y24824D01*
X75000Y27952D02*
Y27997D01*
X68161Y23174D02*
X68461Y23474D01*
X60019Y23667D02*
Y24467D01*
X58811Y25674D02*
X60019Y24467D01*
X58991Y23954D02*
X59361Y24324D01*
X63611Y28674D02*
X66411D01*
X52861D02*
X53181Y28994D01*
X37664Y39715D02*
X42734D01*
X37178Y39229D02*
X37664Y39715D01*
X42734D02*
X43224Y39225D01*
X11424Y36625D02*
X12224Y35825D01*
X18274D01*
X19984Y32915D02*
X33364D01*
X18954Y33945D02*
X19984Y32915D01*
X28424Y34225D02*
Y36625D01*
X28574Y36775D01*
X34185Y33736D02*
Y37925D01*
X33364Y32915D02*
X34185Y33736D01*
X19982Y34417D02*
X20674Y33725D01*
X18954Y33945D02*
Y34705D01*
X20774Y33925D02*
X28124D01*
X20674Y33725D02*
X29724D01*
X34185Y37925D02*
X34963Y38703D01*
X35120Y39229D02*
X37178D01*
X26374Y39425D02*
X26824Y38975D01*
X43224Y38625D02*
Y39225D01*
X34674Y39675D02*
X35120Y39229D01*
X30274Y39675D02*
X34674D01*
X29574Y38975D02*
X30274Y39675D01*
X26824Y38975D02*
X29574D01*
X23254Y39745D02*
X23574Y39425D01*
X13144Y39745D02*
X23254D01*
X11424Y36575D02*
Y36625D01*
X20174Y34525D02*
Y35575D01*
Y34525D02*
X20774Y33925D01*
X18274Y35825D02*
X18524Y35575D01*
X18924D01*
X19026Y36723D02*
X20174Y35575D01*
X34963Y38703D02*
Y38748D01*
X28124Y33925D02*
X28424Y34225D01*
X19982Y34417D02*
Y35217D01*
X18774Y36425D02*
X19982Y35217D01*
X18954Y34705D02*
X19324Y35075D01*
X23574Y39425D02*
X26374D01*
X12824D02*
X13144Y39745D01*
X77701Y39715D02*
X82771D01*
X77216Y39229D02*
X77701Y39715D01*
X82771D02*
X83261Y39225D01*
X51461Y36625D02*
X52261Y35825D01*
X58311D01*
X60021Y32915D02*
X73401D01*
X58991Y33945D02*
X60021Y32915D01*
X68461Y34225D02*
Y36625D01*
X68611Y36775D01*
X74223Y33736D02*
Y37925D01*
X73401Y32915D02*
X74223Y33736D01*
X60019Y34417D02*
X60711Y33725D01*
X58991Y33945D02*
Y34705D01*
X60811Y33925D02*
X68161D01*
X60711Y33725D02*
X69761D01*
X74223Y37925D02*
X75000Y38703D01*
X75157Y39229D02*
X77216D01*
X66411Y39425D02*
X66861Y38975D01*
X83261Y38625D02*
Y39225D01*
X74711Y39675D02*
X75157Y39229D01*
X70311Y39675D02*
X74711D01*
X69611Y38975D02*
X70311Y39675D01*
X66861Y38975D02*
X69611D01*
X63291Y39745D02*
X63611Y39425D01*
X53181Y39745D02*
X63291D01*
X51461Y36575D02*
Y36625D01*
X60211Y34525D02*
Y35575D01*
Y34525D02*
X60811Y33925D01*
X58311Y35825D02*
X58561Y35575D01*
X58961D01*
X59063Y36723D02*
X60211Y35575D01*
X75000Y38703D02*
Y38748D01*
X68161Y33925D02*
X68461Y34225D01*
X60019Y34417D02*
Y35217D01*
X58811Y36425D02*
X60019Y35217D01*
X58991Y34705D02*
X59361Y35075D01*
X63611Y39425D02*
X66411D01*
X52861D02*
X53181Y39745D01*
X37664Y50465D02*
X42734D01*
X37178Y49979D02*
X37664Y50465D01*
X42734D02*
X43224Y49975D01*
X11424Y47375D02*
X12224Y46575D01*
X18274D01*
X19984Y43665D02*
X33364D01*
X18954Y44695D02*
X19984Y43665D01*
X28424Y44975D02*
Y47375D01*
X28574Y47525D01*
X34185Y44486D02*
Y48675D01*
X33364Y43665D02*
X34185Y44486D01*
X19982Y45167D02*
X20674Y44475D01*
X18954Y44695D02*
Y45455D01*
X20774Y44675D02*
X28124D01*
X20674Y44475D02*
X29724D01*
X34185Y48675D02*
X34963Y49453D01*
X35120Y49979D02*
X37178D01*
X26374Y50175D02*
X26824Y49725D01*
X43224Y49375D02*
Y49975D01*
X34674Y50425D02*
X35120Y49979D01*
X30274Y50425D02*
X34674D01*
X29574Y49725D02*
X30274Y50425D01*
X26824Y49725D02*
X29574D01*
X23254Y50495D02*
X23574Y50175D01*
X13144Y50495D02*
X23254D01*
X11424Y47325D02*
Y47375D01*
X20174Y45275D02*
Y46325D01*
Y45275D02*
X20774Y44675D01*
X18274Y46575D02*
X18524Y46325D01*
X18924D01*
X19026Y47473D02*
X20174Y46325D01*
X34963Y49453D02*
Y49498D01*
X28124Y44675D02*
X28424Y44975D01*
X19982Y45167D02*
Y45967D01*
X18774Y47175D02*
X19982Y45967D01*
X18954Y45455D02*
X19324Y45825D01*
X23574Y50175D02*
X26374D01*
X12824D02*
X13144Y50495D01*
X77701Y50465D02*
X82771D01*
X77216Y49979D02*
X77701Y50465D01*
X82771D02*
X83261Y49975D01*
X51461Y47375D02*
X52261Y46575D01*
X58311D01*
X60021Y43665D02*
X73401D01*
X58991Y44695D02*
X60021Y43665D01*
X68461Y44975D02*
Y47375D01*
X68611Y47525D01*
X74223Y44486D02*
Y48675D01*
X73401Y43665D02*
X74223Y44486D01*
X60019Y45167D02*
X60711Y44475D01*
X58991Y44695D02*
Y45455D01*
X60811Y44675D02*
X68161D01*
X60711Y44475D02*
X69761D01*
X74223Y48675D02*
X75000Y49453D01*
X75157Y49979D02*
X77216D01*
X66411Y50175D02*
X66861Y49725D01*
X83261Y49375D02*
Y49975D01*
X74711Y50425D02*
X75157Y49979D01*
X70311Y50425D02*
X74711D01*
X69611Y49725D02*
X70311Y50425D01*
X66861Y49725D02*
X69611D01*
X63291Y50495D02*
X63611Y50175D01*
X53181Y50495D02*
X63291D01*
X51461Y47325D02*
Y47375D01*
X60211Y45275D02*
Y46325D01*
Y45275D02*
X60811Y44675D01*
X58311Y46575D02*
X58561Y46325D01*
X58961D01*
X59063Y47473D02*
X60211Y46325D01*
X75000Y49453D02*
Y49498D01*
X68161Y44675D02*
X68461Y44975D01*
X60019Y45167D02*
Y45967D01*
X58811Y47175D02*
X60019Y45967D01*
X58991Y45455D02*
X59361Y45825D01*
X63611Y50175D02*
X66411D01*
X52861D02*
X53181Y50495D01*
D74*
X26498Y13500D02*
D03*
X16774Y14724D02*
D03*
X19174Y12974D02*
D03*
X24274Y14224D02*
D03*
Y13374D02*
D03*
X18424Y11674D02*
D03*
X24374Y17674D02*
D03*
X40074Y13474D02*
D03*
X22863Y16863D02*
D03*
X19026Y15222D02*
D03*
X17224Y12074D02*
D03*
X18924Y14074D02*
D03*
X20424Y16274D02*
D03*
X23574Y14324D02*
D03*
X18774Y14924D02*
D03*
X23574Y14624D02*
D03*
Y14924D02*
D03*
X14824Y15124D02*
D03*
X19324Y13574D02*
D03*
X30624Y17374D02*
D03*
X66535Y13500D02*
D03*
X56811Y14724D02*
D03*
X59211Y12974D02*
D03*
X64311Y14224D02*
D03*
Y13374D02*
D03*
X58461Y11674D02*
D03*
X64411Y17674D02*
D03*
X80111Y13474D02*
D03*
X62900Y16863D02*
D03*
X59063Y15222D02*
D03*
X57261Y12074D02*
D03*
X58961Y14074D02*
D03*
X60461Y16274D02*
D03*
X63611Y14324D02*
D03*
X58811Y14924D02*
D03*
X63611Y14624D02*
D03*
Y14924D02*
D03*
X54861Y15124D02*
D03*
X59361Y13574D02*
D03*
X70661Y17374D02*
D03*
X26498Y24250D02*
D03*
X16774Y25474D02*
D03*
X19174Y23724D02*
D03*
X24274Y24974D02*
D03*
Y24124D02*
D03*
X18424Y22424D02*
D03*
X24374Y28424D02*
D03*
X40074Y24224D02*
D03*
X22863Y27613D02*
D03*
X19026Y25972D02*
D03*
X17224Y22824D02*
D03*
X18924Y24824D02*
D03*
X20424Y27024D02*
D03*
X23574Y25074D02*
D03*
X18774Y25674D02*
D03*
X23574Y25374D02*
D03*
Y25674D02*
D03*
X14824Y25874D02*
D03*
X19324Y24324D02*
D03*
X30624Y28124D02*
D03*
X66535Y24250D02*
D03*
X56811Y25474D02*
D03*
X59211Y23724D02*
D03*
X64311Y24974D02*
D03*
Y24124D02*
D03*
X58461Y22424D02*
D03*
X64411Y28424D02*
D03*
X80111Y24224D02*
D03*
X62900Y27613D02*
D03*
X59063Y25972D02*
D03*
X57261Y22824D02*
D03*
X58961Y24824D02*
D03*
X60461Y27024D02*
D03*
X63611Y25074D02*
D03*
X58811Y25674D02*
D03*
X63611Y25374D02*
D03*
Y25674D02*
D03*
X54861Y25874D02*
D03*
X59361Y24324D02*
D03*
X70661Y28124D02*
D03*
X26498Y35001D02*
D03*
X16774Y36225D02*
D03*
X19174Y34475D02*
D03*
X24274Y35725D02*
D03*
Y34875D02*
D03*
X18424Y33175D02*
D03*
X24374Y39175D02*
D03*
X40074Y34975D02*
D03*
X22863Y38364D02*
D03*
X19026Y36723D02*
D03*
X17224Y33575D02*
D03*
X18924Y35575D02*
D03*
X20424Y37775D02*
D03*
X23574Y35825D02*
D03*
X18774Y36425D02*
D03*
X23574Y36125D02*
D03*
Y36425D02*
D03*
X14824Y36625D02*
D03*
X19324Y35075D02*
D03*
X30624Y38875D02*
D03*
X66535Y35001D02*
D03*
X56811Y36225D02*
D03*
X59211Y34475D02*
D03*
X64311Y35725D02*
D03*
Y34875D02*
D03*
X58461Y33175D02*
D03*
X64411Y39175D02*
D03*
X80111Y34975D02*
D03*
X62900Y38364D02*
D03*
X59063Y36723D02*
D03*
X57261Y33575D02*
D03*
X58961Y35575D02*
D03*
X60461Y37775D02*
D03*
X63611Y35825D02*
D03*
X58811Y36425D02*
D03*
X63611Y36125D02*
D03*
Y36425D02*
D03*
X54861Y36625D02*
D03*
X59361Y35075D02*
D03*
X70661Y38875D02*
D03*
X26498Y45751D02*
D03*
X16774Y46975D02*
D03*
X19174Y45225D02*
D03*
X24274Y46475D02*
D03*
Y45625D02*
D03*
X18424Y43925D02*
D03*
X24374Y49925D02*
D03*
X40074Y45725D02*
D03*
X22863Y49114D02*
D03*
X19026Y47473D02*
D03*
X17224Y44325D02*
D03*
X18924Y46325D02*
D03*
X20424Y48525D02*
D03*
X23574Y46575D02*
D03*
X18774Y47175D02*
D03*
X23574Y46875D02*
D03*
Y47175D02*
D03*
X14824Y47375D02*
D03*
X19324Y45825D02*
D03*
X30624Y49625D02*
D03*
X66535Y45751D02*
D03*
X56811Y46975D02*
D03*
X59211Y45225D02*
D03*
X64311Y46475D02*
D03*
Y45625D02*
D03*
X58461Y43925D02*
D03*
X64411Y49925D02*
D03*
X80111Y45725D02*
D03*
X62900Y49114D02*
D03*
X59063Y47473D02*
D03*
X57261Y44325D02*
D03*
X58961Y46325D02*
D03*
X60461Y48525D02*
D03*
X63611Y46575D02*
D03*
X58811Y47175D02*
D03*
X63611Y46875D02*
D03*
Y47175D02*
D03*
X54861Y47375D02*
D03*
X59361Y45825D02*
D03*
X70661Y49625D02*
D03*
D76*
X28574Y15274D02*
D03*
X43224Y17124D02*
D03*
X11424Y15074D02*
D03*
X34963Y17247D02*
D03*
X29724Y12224D02*
D03*
X12824Y17924D02*
D03*
X68611Y15274D02*
D03*
X83261Y17124D02*
D03*
X51461Y15074D02*
D03*
X75000Y17247D02*
D03*
X69761Y12224D02*
D03*
X52861Y17924D02*
D03*
X28574Y26024D02*
D03*
X43224Y27874D02*
D03*
X11424Y25824D02*
D03*
X34963Y27997D02*
D03*
X29724Y22974D02*
D03*
X12824Y28674D02*
D03*
X68611Y26024D02*
D03*
X83261Y27874D02*
D03*
X51461Y25824D02*
D03*
X75000Y27997D02*
D03*
X69761Y22974D02*
D03*
X52861Y28674D02*
D03*
X28574Y36775D02*
D03*
X43224Y38625D02*
D03*
X11424Y36575D02*
D03*
X34963Y38748D02*
D03*
X29724Y33725D02*
D03*
X12824Y39425D02*
D03*
X68611Y36775D02*
D03*
X83261Y38625D02*
D03*
X51461Y36575D02*
D03*
X75000Y38748D02*
D03*
X69761Y33725D02*
D03*
X52861Y39425D02*
D03*
X28574Y47525D02*
D03*
X43224Y49375D02*
D03*
X11424Y47325D02*
D03*
X34963Y49498D02*
D03*
X29724Y44475D02*
D03*
X12824Y50175D02*
D03*
X68611Y47525D02*
D03*
X83261Y49375D02*
D03*
X51461Y47325D02*
D03*
X75000Y49498D02*
D03*
X69761Y44475D02*
D03*
X52861Y50175D02*
D03*
M02*
