G04 Layer_Color=16711935*
%FSLAX24Y24*%
%MOIN*%
G70*
G01*
G75*
%ADD68C,0.0100*%
%ADD79C,0.0050*%
D68*
X0Y0D02*
Y58774D01*
X90504D01*
Y0D02*
Y58774D01*
X0Y0D02*
X90504D01*
X7934Y15841D02*
X9194D01*
Y17179D01*
X7934D02*
X9194D01*
X7924Y15841D02*
X9194D01*
X7924Y17179D02*
X9194D01*
Y15841D02*
Y17179D01*
X7924Y13374D02*
Y15841D01*
Y13374D02*
X8522D01*
Y12574D02*
Y13374D01*
X7924Y12574D02*
X8522D01*
X7924Y9974D02*
Y12574D01*
Y9974D02*
X8522D01*
Y9174D02*
Y9974D01*
X7924Y9174D02*
X8522D01*
X7924Y7924D02*
Y9174D01*
Y7924D02*
X43924D01*
Y18424D01*
X7924D02*
X43924D01*
X7924Y17179D02*
Y18424D01*
Y18414D02*
X7934Y18424D01*
X47972Y15841D02*
X49232D01*
Y17179D01*
X47972D02*
X49232D01*
X47961Y15841D02*
X49232D01*
X47961Y17179D02*
X49232D01*
Y15841D02*
Y17179D01*
X47961Y13374D02*
Y15841D01*
Y13374D02*
X48559D01*
Y12574D02*
Y13374D01*
X47961Y12574D02*
X48559D01*
X47961Y9974D02*
Y12574D01*
Y9974D02*
X48559D01*
Y9174D02*
Y9974D01*
X47961Y9174D02*
X48559D01*
X47961Y7924D02*
Y9174D01*
Y7924D02*
X83961D01*
Y18424D01*
X47961D02*
X83961D01*
X47961Y17179D02*
Y18424D01*
Y18414D02*
X47972Y18424D01*
X7934Y26591D02*
X9194D01*
Y27930D01*
X7934D02*
X9194D01*
X7924Y26591D02*
X9194D01*
X7924Y27930D02*
X9194D01*
Y26591D02*
Y27930D01*
X7924Y24124D02*
Y26591D01*
Y24124D02*
X8522D01*
Y23324D02*
Y24124D01*
X7924Y23324D02*
X8522D01*
X7924Y20724D02*
Y23324D01*
Y20724D02*
X8522D01*
Y19924D02*
Y20724D01*
X7924Y19924D02*
X8522D01*
X7924Y18674D02*
Y19924D01*
Y18674D02*
X43924D01*
Y29174D01*
X7924D02*
X43924D01*
X7924Y27930D02*
Y29174D01*
Y29164D02*
X7934Y29174D01*
X47972Y26591D02*
X49232D01*
Y27930D01*
X47972D02*
X49232D01*
X47961Y26591D02*
X49232D01*
X47961Y27930D02*
X49232D01*
Y26591D02*
Y27930D01*
X47961Y24124D02*
Y26591D01*
Y24124D02*
X48559D01*
Y23324D02*
Y24124D01*
X47961Y23324D02*
X48559D01*
X47961Y20724D02*
Y23324D01*
Y20724D02*
X48559D01*
Y19924D02*
Y20724D01*
X47961Y19924D02*
X48559D01*
X47961Y18674D02*
Y19924D01*
Y18674D02*
X83961D01*
Y29174D01*
X47961D02*
X83961D01*
X47961Y27930D02*
Y29174D01*
Y29164D02*
X47972Y29174D01*
X7934Y37341D02*
X9194D01*
Y38680D01*
X7934D02*
X9194D01*
X7924Y37341D02*
X9194D01*
X7924Y38680D02*
X9194D01*
Y37341D02*
Y38680D01*
X7924Y34875D02*
Y37341D01*
Y34875D02*
X8522D01*
Y34075D02*
Y34875D01*
X7924Y34075D02*
X8522D01*
X7924Y31475D02*
Y34075D01*
Y31475D02*
X8522D01*
Y30675D02*
Y31475D01*
X7924Y30675D02*
X8522D01*
X7924Y29425D02*
Y30675D01*
Y29425D02*
X43924D01*
Y39925D01*
X7924D02*
X43924D01*
X7924Y38680D02*
Y39925D01*
Y39915D02*
X7934Y39925D01*
X47972Y37341D02*
X49232D01*
Y38680D01*
X47972D02*
X49232D01*
X47961Y37341D02*
X49232D01*
X47961Y38680D02*
X49232D01*
Y37341D02*
Y38680D01*
X47961Y34875D02*
Y37341D01*
Y34875D02*
X48559D01*
Y34075D02*
Y34875D01*
X47961Y34075D02*
X48559D01*
X47961Y31475D02*
Y34075D01*
Y31475D02*
X48559D01*
Y30675D02*
Y31475D01*
X47961Y30675D02*
X48559D01*
X47961Y29425D02*
Y30675D01*
Y29425D02*
X83961D01*
Y39925D01*
X47961D02*
X83961D01*
X47961Y38680D02*
Y39925D01*
Y39915D02*
X47972Y39925D01*
X7934Y48092D02*
X9194D01*
Y49430D01*
X7934D02*
X9194D01*
X7924Y48092D02*
X9194D01*
X7924Y49430D02*
X9194D01*
Y48092D02*
Y49430D01*
X7924Y45625D02*
Y48092D01*
Y45625D02*
X8522D01*
Y44825D02*
Y45625D01*
X7924Y44825D02*
X8522D01*
X7924Y42225D02*
Y44825D01*
Y42225D02*
X8522D01*
Y41425D02*
Y42225D01*
X7924Y41425D02*
X8522D01*
X7924Y40175D02*
Y41425D01*
Y40175D02*
X43924D01*
Y50675D01*
X7924D02*
X43924D01*
X7924Y49430D02*
Y50675D01*
Y50665D02*
X7934Y50675D01*
X47972Y48092D02*
X49232D01*
Y49430D01*
X47972D02*
X49232D01*
X47961Y48092D02*
X49232D01*
X47961Y49430D02*
X49232D01*
Y48092D02*
Y49430D01*
X47961Y45625D02*
Y48092D01*
Y45625D02*
X48559D01*
Y44825D02*
Y45625D01*
X47961Y44825D02*
X48559D01*
X47961Y42225D02*
Y44825D01*
Y42225D02*
X48559D01*
Y41425D02*
Y42225D01*
X47961Y41425D02*
X48559D01*
X47961Y40175D02*
Y41425D01*
Y40175D02*
X83961D01*
Y50675D01*
X47961D02*
X83961D01*
X47961Y49430D02*
Y50675D01*
Y50665D02*
X47972Y50675D01*
D79*
X8522Y9174D02*
Y9974D01*
X7922Y9174D02*
X8522D01*
X7922Y9974D02*
X8522D01*
X7922Y13374D02*
X8522D01*
X7922Y12574D02*
X8522D01*
Y13374D01*
X48559Y9174D02*
Y9974D01*
X47959Y9174D02*
X48559D01*
X47959Y9974D02*
X48559D01*
X47959Y13374D02*
X48559D01*
X47959Y12574D02*
X48559D01*
Y13374D01*
X8522Y19924D02*
Y20724D01*
X7922Y19924D02*
X8522D01*
X7922Y20724D02*
X8522D01*
X7922Y24124D02*
X8522D01*
X7922Y23324D02*
X8522D01*
Y24124D01*
X48559Y19924D02*
Y20724D01*
X47959Y19924D02*
X48559D01*
X47959Y20724D02*
X48559D01*
X47959Y24124D02*
X48559D01*
X47959Y23324D02*
X48559D01*
Y24124D01*
X8522Y30675D02*
Y31475D01*
X7922Y30675D02*
X8522D01*
X7922Y31475D02*
X8522D01*
X7922Y34875D02*
X8522D01*
X7922Y34075D02*
X8522D01*
Y34875D01*
X48559Y30675D02*
Y31475D01*
X47959Y30675D02*
X48559D01*
X47959Y31475D02*
X48559D01*
X47959Y34875D02*
X48559D01*
X47959Y34075D02*
X48559D01*
Y34875D01*
X8522Y41425D02*
Y42225D01*
X7922Y41425D02*
X8522D01*
X7922Y42225D02*
X8522D01*
X7922Y45625D02*
X8522D01*
X7922Y44825D02*
X8522D01*
Y45625D01*
X48559Y41425D02*
Y42225D01*
X47959Y41425D02*
X48559D01*
X47959Y42225D02*
X48559D01*
X47959Y45625D02*
X48559D01*
X47959Y44825D02*
X48559D01*
Y45625D01*
M02*
