G04 Layer_Color=8421504*
%FSLAX24Y24*%
%MOIN*%
G70*
G01*
G75*
%ADD10R,0.0800X0.0800*%
%ADD11C,0.0800*%
%ADD16R,0.0433X0.0669*%
%ADD17R,0.0236X0.0157*%
%ADD18R,0.0157X0.0236*%
%ADD19R,0.1063X0.1457*%
%ADD20O,0.0276X0.0197*%
%ADD21O,0.0098X0.0236*%
%ADD22O,0.0236X0.0098*%
%ADD23R,0.2598X0.2598*%
%ADD24R,0.0394X0.0197*%
%ADD25R,0.0255X0.0160*%
%ADD26R,0.1043X0.1043*%
%ADD27O,0.0079X0.0335*%
%ADD28O,0.0335X0.0079*%
%ADD29R,0.0217X0.0413*%
%ADD30R,0.0335X0.0374*%
%ADD31R,0.0295X0.0118*%
%ADD32R,0.0315X0.0197*%
%ADD33R,0.0165X0.0236*%
%ADD34R,0.1614X0.0669*%
%ADD35R,0.0394X0.0394*%
%ADD36O,0.0551X0.0177*%
%ADD37O,0.0394X0.0165*%
%ADD38R,0.0394X0.0591*%
%ADD39R,0.0236X0.0512*%
%ADD40R,0.0197X0.0354*%
%ADD41R,0.0354X0.0197*%
%ADD42R,0.0374X0.0177*%
%ADD43O,0.0165X0.0394*%
%ADD44R,0.0413X0.0591*%
%ADD45R,0.0945X0.0591*%
%ADD46O,0.0098X0.0276*%
%ADD47R,0.0937X0.0650*%
%ADD48R,0.0236X0.0480*%
%ADD49R,0.0512X0.0236*%
%ADD50O,0.0236X0.0118*%
%ADD51R,0.0394X0.0630*%
%ADD52R,0.0276X0.0354*%
%ADD53O,0.0118X0.0236*%
%ADD54R,0.0630X0.0394*%
%ADD55R,0.0480X0.0244*%
%ADD56R,0.0413X0.0236*%
%ADD57R,0.0512X0.0512*%
%ADD58R,0.1378X0.0768*%
%ADD59R,0.0591X0.0787*%
%ADD60R,0.0591X0.0630*%
%ADD61R,0.0591X0.0709*%
%ADD62R,0.0335X0.0217*%
%ADD63R,0.0866X0.0787*%
%ADD65R,0.0866X0.0394*%
%ADD66R,0.0551X0.0413*%
G04:AMPARAMS|DCode=67|XSize=85mil|YSize=85mil|CornerRadius=21.3mil|HoleSize=0mil|Usage=FLASHONLY|Rotation=0.000|XOffset=0mil|YOffset=0mil|HoleType=Round|Shape=RoundedRectangle|*
%AMROUNDEDRECTD67*
21,1,0.0850,0.0425,0,0,0.0*
21,1,0.0425,0.0850,0,0,0.0*
1,1,0.0425,0.0213,-0.0213*
1,1,0.0425,-0.0213,-0.0213*
1,1,0.0425,-0.0213,0.0213*
1,1,0.0425,0.0213,0.0213*
%
%ADD67ROUNDEDRECTD67*%
G36*
X66143Y48412D02*
X65198D01*
Y49357D01*
X66143Y48412D01*
D02*
G37*
G36*
X26106D02*
X25161D01*
Y49357D01*
X26106Y48412D01*
D02*
G37*
G36*
X66143Y37662D02*
X65198D01*
Y38607D01*
X66143Y37662D01*
D02*
G37*
G36*
X26106D02*
X25161D01*
Y38607D01*
X26106Y37662D01*
D02*
G37*
G36*
X66143Y26911D02*
X65198D01*
Y27856D01*
X66143Y26911D01*
D02*
G37*
G36*
X26106D02*
X25161D01*
Y27856D01*
X26106Y26911D01*
D02*
G37*
G36*
X66143Y16161D02*
X65198D01*
Y17106D01*
X66143Y16161D01*
D02*
G37*
G36*
X26106D02*
X25161D01*
Y17106D01*
X26106Y16161D01*
D02*
G37*
D10*
X3937Y3937D02*
D03*
D11*
Y54837D02*
D03*
X86567D02*
D03*
Y3937D02*
D03*
D16*
X36956Y14574D02*
D03*
X35893D02*
D03*
X76993D02*
D03*
X75930D02*
D03*
X36956Y25324D02*
D03*
X35893D02*
D03*
X76993D02*
D03*
X75930D02*
D03*
X36956Y36075D02*
D03*
X35893D02*
D03*
X76993D02*
D03*
X75930D02*
D03*
X36956Y46825D02*
D03*
X35893D02*
D03*
X76993D02*
D03*
X75930D02*
D03*
D17*
X20424Y16847D02*
D03*
Y17201D02*
D03*
X19024Y11397D02*
D03*
Y11751D02*
D03*
X19424Y11397D02*
D03*
Y11751D02*
D03*
X19574Y12451D02*
D03*
Y12097D02*
D03*
X19174Y12451D02*
D03*
Y12097D02*
D03*
X18774Y12547D02*
D03*
Y12901D02*
D03*
X19874Y15547D02*
D03*
Y15901D02*
D03*
X23974Y12697D02*
D03*
Y13051D02*
D03*
Y12351D02*
D03*
Y11997D02*
D03*
X23274Y11801D02*
D03*
Y11447D02*
D03*
X22924Y11801D02*
D03*
Y11447D02*
D03*
X22556Y11699D02*
D03*
Y11344D02*
D03*
X22156Y11699D02*
D03*
Y11344D02*
D03*
X17274Y16301D02*
D03*
Y15947D02*
D03*
X16124Y14797D02*
D03*
Y15151D02*
D03*
X15724Y14797D02*
D03*
Y15151D02*
D03*
X15074Y14797D02*
D03*
Y15151D02*
D03*
X21424Y11701D02*
D03*
Y11347D02*
D03*
X20774Y11551D02*
D03*
Y11197D02*
D03*
X20374Y11551D02*
D03*
Y11197D02*
D03*
X19424Y10697D02*
D03*
Y11051D02*
D03*
X19824Y10701D02*
D03*
Y10347D02*
D03*
X17874Y10747D02*
D03*
Y11101D02*
D03*
X17424Y9947D02*
D03*
Y10301D02*
D03*
X17024Y9947D02*
D03*
Y10301D02*
D03*
X16624Y9947D02*
D03*
Y10301D02*
D03*
X23274Y15497D02*
D03*
Y15851D02*
D03*
X23474Y17447D02*
D03*
Y17801D02*
D03*
X24474Y15747D02*
D03*
Y16101D02*
D03*
X25074Y10847D02*
D03*
Y11201D02*
D03*
X24574Y10847D02*
D03*
Y11201D02*
D03*
X27424Y17601D02*
D03*
Y17247D02*
D03*
X30824Y11797D02*
D03*
Y12151D02*
D03*
X28724Y13797D02*
D03*
Y14151D02*
D03*
X29624Y15751D02*
D03*
Y15397D02*
D03*
X30524Y14301D02*
D03*
Y13947D02*
D03*
X28674Y11401D02*
D03*
Y11047D02*
D03*
X33974Y11797D02*
D03*
Y12151D02*
D03*
X34624Y14897D02*
D03*
Y15251D02*
D03*
X35074Y17951D02*
D03*
Y17597D02*
D03*
X32824Y17347D02*
D03*
Y17701D02*
D03*
X34624Y17247D02*
D03*
Y17601D02*
D03*
Y16247D02*
D03*
Y16601D02*
D03*
X35324Y15351D02*
D03*
Y14997D02*
D03*
X40174Y14797D02*
D03*
Y15151D02*
D03*
Y14151D02*
D03*
Y13797D02*
D03*
X27424Y16547D02*
D03*
Y16901D02*
D03*
X28624Y16547D02*
D03*
Y16901D02*
D03*
Y17247D02*
D03*
Y17601D02*
D03*
X29024Y16547D02*
D03*
Y16901D02*
D03*
Y17247D02*
D03*
Y17601D02*
D03*
X27824Y16547D02*
D03*
Y16901D02*
D03*
Y17247D02*
D03*
Y17601D02*
D03*
X28224Y16547D02*
D03*
Y16901D02*
D03*
Y17247D02*
D03*
Y17601D02*
D03*
X60461Y16847D02*
D03*
Y17201D02*
D03*
X59061Y11397D02*
D03*
Y11751D02*
D03*
X59461Y11397D02*
D03*
Y11751D02*
D03*
X59611Y12451D02*
D03*
Y12097D02*
D03*
X59211Y12451D02*
D03*
Y12097D02*
D03*
X58811Y12547D02*
D03*
Y12901D02*
D03*
X59911Y15547D02*
D03*
Y15901D02*
D03*
X64011Y12697D02*
D03*
Y13051D02*
D03*
Y12351D02*
D03*
Y11997D02*
D03*
X63311Y11801D02*
D03*
Y11447D02*
D03*
X62961Y11801D02*
D03*
Y11447D02*
D03*
X62593Y11699D02*
D03*
Y11344D02*
D03*
X62193Y11699D02*
D03*
Y11344D02*
D03*
X57311Y16301D02*
D03*
Y15947D02*
D03*
X56161Y14797D02*
D03*
Y15151D02*
D03*
X55761Y14797D02*
D03*
Y15151D02*
D03*
X55111Y14797D02*
D03*
Y15151D02*
D03*
X61461Y11701D02*
D03*
Y11347D02*
D03*
X60811Y11551D02*
D03*
Y11197D02*
D03*
X60411Y11551D02*
D03*
Y11197D02*
D03*
X59461Y10697D02*
D03*
Y11051D02*
D03*
X59861Y10701D02*
D03*
Y10347D02*
D03*
X57911Y10747D02*
D03*
Y11101D02*
D03*
X57461Y9947D02*
D03*
Y10301D02*
D03*
X57061Y9947D02*
D03*
Y10301D02*
D03*
X56661Y9947D02*
D03*
Y10301D02*
D03*
X63311Y15497D02*
D03*
Y15851D02*
D03*
X63511Y17447D02*
D03*
Y17801D02*
D03*
X64511Y15747D02*
D03*
Y16101D02*
D03*
X65111Y10847D02*
D03*
Y11201D02*
D03*
X64611Y10847D02*
D03*
Y11201D02*
D03*
X67461Y17601D02*
D03*
Y17247D02*
D03*
X70861Y11797D02*
D03*
Y12151D02*
D03*
X68761Y13797D02*
D03*
Y14151D02*
D03*
X69661Y15751D02*
D03*
Y15397D02*
D03*
X70561Y14301D02*
D03*
Y13947D02*
D03*
X68711Y11401D02*
D03*
Y11047D02*
D03*
X74011Y11797D02*
D03*
Y12151D02*
D03*
X74661Y14897D02*
D03*
Y15251D02*
D03*
X75111Y17951D02*
D03*
Y17597D02*
D03*
X72861Y17347D02*
D03*
Y17701D02*
D03*
X74661Y17247D02*
D03*
Y17601D02*
D03*
Y16247D02*
D03*
Y16601D02*
D03*
X75361Y15351D02*
D03*
Y14997D02*
D03*
X80211Y14797D02*
D03*
Y15151D02*
D03*
Y14151D02*
D03*
Y13797D02*
D03*
X67461Y16547D02*
D03*
Y16901D02*
D03*
X68661Y16547D02*
D03*
Y16901D02*
D03*
Y17247D02*
D03*
Y17601D02*
D03*
X69061Y16547D02*
D03*
Y16901D02*
D03*
Y17247D02*
D03*
Y17601D02*
D03*
X67861Y16547D02*
D03*
Y16901D02*
D03*
Y17247D02*
D03*
Y17601D02*
D03*
X68261Y16547D02*
D03*
Y16901D02*
D03*
Y17247D02*
D03*
Y17601D02*
D03*
X20424Y27597D02*
D03*
Y27952D02*
D03*
X19024Y22147D02*
D03*
Y22502D02*
D03*
X19424Y22147D02*
D03*
Y22502D02*
D03*
X19574Y23202D02*
D03*
Y22847D02*
D03*
X19174Y23202D02*
D03*
Y22847D02*
D03*
X18774Y23297D02*
D03*
Y23652D02*
D03*
X19874Y26297D02*
D03*
Y26652D02*
D03*
X23974Y23447D02*
D03*
Y23802D02*
D03*
Y23102D02*
D03*
Y22747D02*
D03*
X23274Y22552D02*
D03*
Y22197D02*
D03*
X22924Y22552D02*
D03*
Y22197D02*
D03*
X22556Y22449D02*
D03*
Y22095D02*
D03*
X22156Y22449D02*
D03*
Y22095D02*
D03*
X17274Y27052D02*
D03*
Y26697D02*
D03*
X16124Y25547D02*
D03*
Y25902D02*
D03*
X15724Y25547D02*
D03*
Y25902D02*
D03*
X15074Y25547D02*
D03*
Y25902D02*
D03*
X21424Y22452D02*
D03*
Y22097D02*
D03*
X20774Y22302D02*
D03*
Y21947D02*
D03*
X20374Y22302D02*
D03*
Y21947D02*
D03*
X19424Y21447D02*
D03*
Y21802D02*
D03*
X19824Y21452D02*
D03*
Y21097D02*
D03*
X17874Y21497D02*
D03*
Y21852D02*
D03*
X17424Y20697D02*
D03*
Y21052D02*
D03*
X17024Y20697D02*
D03*
Y21052D02*
D03*
X16624Y20697D02*
D03*
Y21052D02*
D03*
X23274Y26247D02*
D03*
Y26602D02*
D03*
X23474Y28197D02*
D03*
Y28552D02*
D03*
X24474Y26497D02*
D03*
Y26852D02*
D03*
X25074Y21597D02*
D03*
Y21952D02*
D03*
X24574Y21597D02*
D03*
Y21952D02*
D03*
X27424Y28352D02*
D03*
Y27997D02*
D03*
X30824Y22547D02*
D03*
Y22902D02*
D03*
X28724Y24547D02*
D03*
Y24902D02*
D03*
X29624Y26502D02*
D03*
Y26147D02*
D03*
X30524Y25052D02*
D03*
Y24697D02*
D03*
X28674Y22152D02*
D03*
Y21797D02*
D03*
X33974Y22547D02*
D03*
Y22902D02*
D03*
X34624Y25647D02*
D03*
Y26002D02*
D03*
X35074Y28702D02*
D03*
Y28347D02*
D03*
X32824Y28097D02*
D03*
Y28452D02*
D03*
X34624Y27997D02*
D03*
Y28352D02*
D03*
Y26997D02*
D03*
Y27352D02*
D03*
X35324Y26102D02*
D03*
Y25747D02*
D03*
X40174Y25547D02*
D03*
Y25902D02*
D03*
Y24902D02*
D03*
Y24547D02*
D03*
X27424Y27297D02*
D03*
Y27652D02*
D03*
X28624Y27297D02*
D03*
Y27652D02*
D03*
Y27997D02*
D03*
Y28352D02*
D03*
X29024Y27297D02*
D03*
Y27652D02*
D03*
Y27997D02*
D03*
Y28352D02*
D03*
X27824Y27297D02*
D03*
Y27652D02*
D03*
Y27997D02*
D03*
Y28352D02*
D03*
X28224Y27297D02*
D03*
Y27652D02*
D03*
Y27997D02*
D03*
Y28352D02*
D03*
X60461Y27597D02*
D03*
Y27952D02*
D03*
X59061Y22147D02*
D03*
Y22502D02*
D03*
X59461Y22147D02*
D03*
Y22502D02*
D03*
X59611Y23202D02*
D03*
Y22847D02*
D03*
X59211Y23202D02*
D03*
Y22847D02*
D03*
X58811Y23297D02*
D03*
Y23652D02*
D03*
X59911Y26297D02*
D03*
Y26652D02*
D03*
X64011Y23447D02*
D03*
Y23802D02*
D03*
Y23102D02*
D03*
Y22747D02*
D03*
X63311Y22552D02*
D03*
Y22197D02*
D03*
X62961Y22552D02*
D03*
Y22197D02*
D03*
X62593Y22449D02*
D03*
Y22095D02*
D03*
X62193Y22449D02*
D03*
Y22095D02*
D03*
X57311Y27052D02*
D03*
Y26697D02*
D03*
X56161Y25547D02*
D03*
Y25902D02*
D03*
X55761Y25547D02*
D03*
Y25902D02*
D03*
X55111Y25547D02*
D03*
Y25902D02*
D03*
X61461Y22452D02*
D03*
Y22097D02*
D03*
X60811Y22302D02*
D03*
Y21947D02*
D03*
X60411Y22302D02*
D03*
Y21947D02*
D03*
X59461Y21447D02*
D03*
Y21802D02*
D03*
X59861Y21452D02*
D03*
Y21097D02*
D03*
X57911Y21497D02*
D03*
Y21852D02*
D03*
X57461Y20697D02*
D03*
Y21052D02*
D03*
X57061Y20697D02*
D03*
Y21052D02*
D03*
X56661Y20697D02*
D03*
Y21052D02*
D03*
X63311Y26247D02*
D03*
Y26602D02*
D03*
X63511Y28197D02*
D03*
Y28552D02*
D03*
X64511Y26497D02*
D03*
Y26852D02*
D03*
X65111Y21597D02*
D03*
Y21952D02*
D03*
X64611Y21597D02*
D03*
Y21952D02*
D03*
X67461Y28352D02*
D03*
Y27997D02*
D03*
X70861Y22547D02*
D03*
Y22902D02*
D03*
X68761Y24547D02*
D03*
Y24902D02*
D03*
X69661Y26502D02*
D03*
Y26147D02*
D03*
X70561Y25052D02*
D03*
Y24697D02*
D03*
X68711Y22152D02*
D03*
Y21797D02*
D03*
X74011Y22547D02*
D03*
Y22902D02*
D03*
X74661Y25647D02*
D03*
Y26002D02*
D03*
X75111Y28702D02*
D03*
Y28347D02*
D03*
X72861Y28097D02*
D03*
Y28452D02*
D03*
X74661Y27997D02*
D03*
Y28352D02*
D03*
Y26997D02*
D03*
Y27352D02*
D03*
X75361Y26102D02*
D03*
Y25747D02*
D03*
X80211Y25547D02*
D03*
Y25902D02*
D03*
Y24902D02*
D03*
Y24547D02*
D03*
X67461Y27297D02*
D03*
Y27652D02*
D03*
X68661Y27297D02*
D03*
Y27652D02*
D03*
Y27997D02*
D03*
Y28352D02*
D03*
X69061Y27297D02*
D03*
Y27652D02*
D03*
Y27997D02*
D03*
Y28352D02*
D03*
X67861Y27297D02*
D03*
Y27652D02*
D03*
Y27997D02*
D03*
Y28352D02*
D03*
X68261Y27297D02*
D03*
Y27652D02*
D03*
Y27997D02*
D03*
Y28352D02*
D03*
X20424Y38348D02*
D03*
Y38702D02*
D03*
X19024Y32898D02*
D03*
Y33252D02*
D03*
X19424Y32898D02*
D03*
Y33252D02*
D03*
X19574Y33952D02*
D03*
Y33598D02*
D03*
X19174Y33952D02*
D03*
Y33598D02*
D03*
X18774Y34048D02*
D03*
Y34402D02*
D03*
X19874Y37048D02*
D03*
Y37402D02*
D03*
X23974Y34198D02*
D03*
Y34552D02*
D03*
Y33852D02*
D03*
Y33498D02*
D03*
X23274Y33302D02*
D03*
Y32948D02*
D03*
X22924Y33302D02*
D03*
Y32948D02*
D03*
X22556Y33199D02*
D03*
Y32845D02*
D03*
X22156Y33199D02*
D03*
Y32845D02*
D03*
X17274Y37802D02*
D03*
Y37448D02*
D03*
X16124Y36298D02*
D03*
Y36652D02*
D03*
X15724Y36298D02*
D03*
Y36652D02*
D03*
X15074Y36298D02*
D03*
Y36652D02*
D03*
X21424Y33202D02*
D03*
Y32848D02*
D03*
X20774Y33052D02*
D03*
Y32698D02*
D03*
X20374Y33052D02*
D03*
Y32698D02*
D03*
X19424Y32198D02*
D03*
Y32552D02*
D03*
X19824Y32202D02*
D03*
Y31848D02*
D03*
X17874Y32248D02*
D03*
Y32602D02*
D03*
X17424Y31448D02*
D03*
Y31802D02*
D03*
X17024Y31448D02*
D03*
Y31802D02*
D03*
X16624Y31448D02*
D03*
Y31802D02*
D03*
X23274Y36998D02*
D03*
Y37352D02*
D03*
X23474Y38948D02*
D03*
Y39302D02*
D03*
X24474Y37248D02*
D03*
Y37602D02*
D03*
X25074Y32348D02*
D03*
Y32702D02*
D03*
X24574Y32348D02*
D03*
Y32702D02*
D03*
X27424Y39102D02*
D03*
Y38748D02*
D03*
X30824Y33298D02*
D03*
Y33652D02*
D03*
X28724Y35298D02*
D03*
Y35652D02*
D03*
X29624Y37252D02*
D03*
Y36898D02*
D03*
X30524Y35802D02*
D03*
Y35448D02*
D03*
X28674Y32902D02*
D03*
Y32548D02*
D03*
X33974Y33298D02*
D03*
Y33652D02*
D03*
X34624Y36398D02*
D03*
Y36752D02*
D03*
X35074Y39452D02*
D03*
Y39098D02*
D03*
X32824Y38848D02*
D03*
Y39202D02*
D03*
X34624Y38748D02*
D03*
Y39102D02*
D03*
Y37748D02*
D03*
Y38102D02*
D03*
X35324Y36852D02*
D03*
Y36498D02*
D03*
X40174Y36298D02*
D03*
Y36652D02*
D03*
Y35652D02*
D03*
Y35298D02*
D03*
X27424Y38048D02*
D03*
Y38402D02*
D03*
X28624Y38048D02*
D03*
Y38402D02*
D03*
Y38748D02*
D03*
Y39102D02*
D03*
X29024Y38048D02*
D03*
Y38402D02*
D03*
Y38748D02*
D03*
Y39102D02*
D03*
X27824Y38048D02*
D03*
Y38402D02*
D03*
Y38748D02*
D03*
Y39102D02*
D03*
X28224Y38048D02*
D03*
Y38402D02*
D03*
Y38748D02*
D03*
Y39102D02*
D03*
X60461Y38348D02*
D03*
Y38702D02*
D03*
X59061Y32898D02*
D03*
Y33252D02*
D03*
X59461Y32898D02*
D03*
Y33252D02*
D03*
X59611Y33952D02*
D03*
Y33598D02*
D03*
X59211Y33952D02*
D03*
Y33598D02*
D03*
X58811Y34048D02*
D03*
Y34402D02*
D03*
X59911Y37048D02*
D03*
Y37402D02*
D03*
X64011Y34198D02*
D03*
Y34552D02*
D03*
Y33852D02*
D03*
Y33498D02*
D03*
X63311Y33302D02*
D03*
Y32948D02*
D03*
X62961Y33302D02*
D03*
Y32948D02*
D03*
X62593Y33199D02*
D03*
Y32845D02*
D03*
X62193Y33199D02*
D03*
Y32845D02*
D03*
X57311Y37802D02*
D03*
Y37448D02*
D03*
X56161Y36298D02*
D03*
Y36652D02*
D03*
X55761Y36298D02*
D03*
Y36652D02*
D03*
X55111Y36298D02*
D03*
Y36652D02*
D03*
X61461Y33202D02*
D03*
Y32848D02*
D03*
X60811Y33052D02*
D03*
Y32698D02*
D03*
X60411Y33052D02*
D03*
Y32698D02*
D03*
X59461Y32198D02*
D03*
Y32552D02*
D03*
X59861Y32202D02*
D03*
Y31848D02*
D03*
X57911Y32248D02*
D03*
Y32602D02*
D03*
X57461Y31448D02*
D03*
Y31802D02*
D03*
X57061Y31448D02*
D03*
Y31802D02*
D03*
X56661Y31448D02*
D03*
Y31802D02*
D03*
X63311Y36998D02*
D03*
Y37352D02*
D03*
X63511Y38948D02*
D03*
Y39302D02*
D03*
X64511Y37248D02*
D03*
Y37602D02*
D03*
X65111Y32348D02*
D03*
Y32702D02*
D03*
X64611Y32348D02*
D03*
Y32702D02*
D03*
X67461Y39102D02*
D03*
Y38748D02*
D03*
X70861Y33298D02*
D03*
Y33652D02*
D03*
X68761Y35298D02*
D03*
Y35652D02*
D03*
X69661Y37252D02*
D03*
Y36898D02*
D03*
X70561Y35802D02*
D03*
Y35448D02*
D03*
X68711Y32902D02*
D03*
Y32548D02*
D03*
X74011Y33298D02*
D03*
Y33652D02*
D03*
X74661Y36398D02*
D03*
Y36752D02*
D03*
X75111Y39452D02*
D03*
Y39098D02*
D03*
X72861Y38848D02*
D03*
Y39202D02*
D03*
X74661Y38748D02*
D03*
Y39102D02*
D03*
Y37748D02*
D03*
Y38102D02*
D03*
X75361Y36852D02*
D03*
Y36498D02*
D03*
X80211Y36298D02*
D03*
Y36652D02*
D03*
Y35652D02*
D03*
Y35298D02*
D03*
X67461Y38048D02*
D03*
Y38402D02*
D03*
X68661Y38048D02*
D03*
Y38402D02*
D03*
Y38748D02*
D03*
Y39102D02*
D03*
X69061Y38048D02*
D03*
Y38402D02*
D03*
Y38748D02*
D03*
Y39102D02*
D03*
X67861Y38048D02*
D03*
Y38402D02*
D03*
Y38748D02*
D03*
Y39102D02*
D03*
X68261Y38048D02*
D03*
Y38402D02*
D03*
Y38748D02*
D03*
Y39102D02*
D03*
X20424Y49098D02*
D03*
Y49452D02*
D03*
X19024Y43648D02*
D03*
Y44002D02*
D03*
X19424Y43648D02*
D03*
Y44002D02*
D03*
X19574Y44702D02*
D03*
Y44348D02*
D03*
X19174Y44702D02*
D03*
Y44348D02*
D03*
X18774Y44798D02*
D03*
Y45152D02*
D03*
X19874Y47798D02*
D03*
Y48152D02*
D03*
X23974Y44948D02*
D03*
Y45302D02*
D03*
Y44602D02*
D03*
Y44248D02*
D03*
X23274Y44052D02*
D03*
Y43698D02*
D03*
X22924Y44052D02*
D03*
Y43698D02*
D03*
X22556Y43950D02*
D03*
Y43595D02*
D03*
X22156Y43950D02*
D03*
Y43595D02*
D03*
X17274Y48552D02*
D03*
Y48198D02*
D03*
X16124Y47048D02*
D03*
Y47402D02*
D03*
X15724Y47048D02*
D03*
Y47402D02*
D03*
X15074Y47048D02*
D03*
Y47402D02*
D03*
X21424Y43952D02*
D03*
Y43598D02*
D03*
X20774Y43802D02*
D03*
Y43448D02*
D03*
X20374Y43802D02*
D03*
Y43448D02*
D03*
X19424Y42948D02*
D03*
Y43302D02*
D03*
X19824Y42952D02*
D03*
Y42598D02*
D03*
X17874Y42998D02*
D03*
Y43352D02*
D03*
X17424Y42198D02*
D03*
Y42552D02*
D03*
X17024Y42198D02*
D03*
Y42552D02*
D03*
X16624Y42198D02*
D03*
Y42552D02*
D03*
X23274Y47748D02*
D03*
Y48102D02*
D03*
X23474Y49698D02*
D03*
Y50052D02*
D03*
X24474Y47998D02*
D03*
Y48352D02*
D03*
X25074Y43098D02*
D03*
Y43452D02*
D03*
X24574Y43098D02*
D03*
Y43452D02*
D03*
X27424Y49852D02*
D03*
Y49498D02*
D03*
X30824Y44048D02*
D03*
Y44402D02*
D03*
X28724Y46048D02*
D03*
Y46402D02*
D03*
X29624Y48002D02*
D03*
Y47648D02*
D03*
X30524Y46552D02*
D03*
Y46198D02*
D03*
X28674Y43652D02*
D03*
Y43298D02*
D03*
X33974Y44048D02*
D03*
Y44402D02*
D03*
X34624Y47148D02*
D03*
Y47502D02*
D03*
X35074Y50202D02*
D03*
Y49848D02*
D03*
X32824Y49598D02*
D03*
Y49952D02*
D03*
X34624Y49498D02*
D03*
Y49852D02*
D03*
Y48498D02*
D03*
Y48852D02*
D03*
X35324Y47602D02*
D03*
Y47248D02*
D03*
X40174Y47048D02*
D03*
Y47402D02*
D03*
Y46402D02*
D03*
Y46048D02*
D03*
X27424Y48798D02*
D03*
Y49152D02*
D03*
X28624Y48798D02*
D03*
Y49152D02*
D03*
Y49498D02*
D03*
Y49852D02*
D03*
X29024Y48798D02*
D03*
Y49152D02*
D03*
Y49498D02*
D03*
Y49852D02*
D03*
X27824Y48798D02*
D03*
Y49152D02*
D03*
Y49498D02*
D03*
Y49852D02*
D03*
X28224Y48798D02*
D03*
Y49152D02*
D03*
Y49498D02*
D03*
Y49852D02*
D03*
X60461Y49098D02*
D03*
Y49452D02*
D03*
X59061Y43648D02*
D03*
Y44002D02*
D03*
X59461Y43648D02*
D03*
Y44002D02*
D03*
X59611Y44702D02*
D03*
Y44348D02*
D03*
X59211Y44702D02*
D03*
Y44348D02*
D03*
X58811Y44798D02*
D03*
Y45152D02*
D03*
X59911Y47798D02*
D03*
Y48152D02*
D03*
X64011Y44948D02*
D03*
Y45302D02*
D03*
Y44602D02*
D03*
Y44248D02*
D03*
X63311Y44052D02*
D03*
Y43698D02*
D03*
X62961Y44052D02*
D03*
Y43698D02*
D03*
X62593Y43950D02*
D03*
Y43595D02*
D03*
X62193Y43950D02*
D03*
Y43595D02*
D03*
X57311Y48552D02*
D03*
Y48198D02*
D03*
X56161Y47048D02*
D03*
Y47402D02*
D03*
X55761Y47048D02*
D03*
Y47402D02*
D03*
X55111Y47048D02*
D03*
Y47402D02*
D03*
X61461Y43952D02*
D03*
Y43598D02*
D03*
X60811Y43802D02*
D03*
Y43448D02*
D03*
X60411Y43802D02*
D03*
Y43448D02*
D03*
X59461Y42948D02*
D03*
Y43302D02*
D03*
X59861Y42952D02*
D03*
Y42598D02*
D03*
X57911Y42998D02*
D03*
Y43352D02*
D03*
X57461Y42198D02*
D03*
Y42552D02*
D03*
X57061Y42198D02*
D03*
Y42552D02*
D03*
X56661Y42198D02*
D03*
Y42552D02*
D03*
X63311Y47748D02*
D03*
Y48102D02*
D03*
X63511Y49698D02*
D03*
Y50052D02*
D03*
X64511Y47998D02*
D03*
Y48352D02*
D03*
X65111Y43098D02*
D03*
Y43452D02*
D03*
X64611Y43098D02*
D03*
Y43452D02*
D03*
X67461Y49852D02*
D03*
Y49498D02*
D03*
X70861Y44048D02*
D03*
Y44402D02*
D03*
X68761Y46048D02*
D03*
Y46402D02*
D03*
X69661Y48002D02*
D03*
Y47648D02*
D03*
X70561Y46552D02*
D03*
Y46198D02*
D03*
X68711Y43652D02*
D03*
Y43298D02*
D03*
X74011Y44048D02*
D03*
Y44402D02*
D03*
X74661Y47148D02*
D03*
Y47502D02*
D03*
X75111Y50202D02*
D03*
Y49848D02*
D03*
X72861Y49598D02*
D03*
Y49952D02*
D03*
X74661Y49498D02*
D03*
Y49852D02*
D03*
Y48498D02*
D03*
Y48852D02*
D03*
X75361Y47602D02*
D03*
Y47248D02*
D03*
X80211Y47048D02*
D03*
Y47402D02*
D03*
Y46402D02*
D03*
Y46048D02*
D03*
X67461Y48798D02*
D03*
Y49152D02*
D03*
X68661Y48798D02*
D03*
Y49152D02*
D03*
Y49498D02*
D03*
Y49852D02*
D03*
X69061Y48798D02*
D03*
Y49152D02*
D03*
Y49498D02*
D03*
Y49852D02*
D03*
X67861Y48798D02*
D03*
Y49152D02*
D03*
Y49498D02*
D03*
Y49852D02*
D03*
X68261Y48798D02*
D03*
Y49152D02*
D03*
Y49498D02*
D03*
Y49852D02*
D03*
D18*
X19301Y13274D02*
D03*
X18947D02*
D03*
X20997Y16224D02*
D03*
X21351D02*
D03*
X17801Y15624D02*
D03*
X17447D02*
D03*
X17347Y14624D02*
D03*
X17701D02*
D03*
X16597Y12174D02*
D03*
X16951D02*
D03*
X18097Y10124D02*
D03*
X18451D02*
D03*
X20801Y9774D02*
D03*
X20447D02*
D03*
X23297Y15224D02*
D03*
X23651D02*
D03*
X24274Y18124D02*
D03*
X23920D02*
D03*
X29901Y15074D02*
D03*
X29547D02*
D03*
X30251Y14674D02*
D03*
X29897D02*
D03*
X29497Y13224D02*
D03*
X29851D02*
D03*
X28797D02*
D03*
X29151D02*
D03*
X29447Y10574D02*
D03*
X29801D02*
D03*
X29447Y10124D02*
D03*
X29801D02*
D03*
X30297Y10974D02*
D03*
X30651D02*
D03*
X34001Y18124D02*
D03*
X33647D02*
D03*
X33947Y15774D02*
D03*
X34301D02*
D03*
X33947Y14374D02*
D03*
X34301D02*
D03*
X40001Y15524D02*
D03*
X39647D02*
D03*
X42747Y13624D02*
D03*
X43101D02*
D03*
X24624Y18124D02*
D03*
X24270D02*
D03*
X59339Y13274D02*
D03*
X58984D02*
D03*
X61034Y16224D02*
D03*
X61389D02*
D03*
X57839Y15624D02*
D03*
X57484D02*
D03*
X57384Y14624D02*
D03*
X57739D02*
D03*
X56634Y12174D02*
D03*
X56989D02*
D03*
X58134Y10124D02*
D03*
X58489D02*
D03*
X60839Y9774D02*
D03*
X60484D02*
D03*
X63334Y15224D02*
D03*
X63689D02*
D03*
X64311Y18124D02*
D03*
X63957D02*
D03*
X69939Y15074D02*
D03*
X69584D02*
D03*
X70289Y14674D02*
D03*
X69934D02*
D03*
X69534Y13224D02*
D03*
X69889D02*
D03*
X68834D02*
D03*
X69189D02*
D03*
X69484Y10574D02*
D03*
X69839D02*
D03*
X69484Y10124D02*
D03*
X69839D02*
D03*
X70334Y10974D02*
D03*
X70689D02*
D03*
X74039Y18124D02*
D03*
X73684D02*
D03*
X73984Y15774D02*
D03*
X74339D02*
D03*
X73984Y14374D02*
D03*
X74339D02*
D03*
X80039Y15524D02*
D03*
X79684D02*
D03*
X82784Y13624D02*
D03*
X83139D02*
D03*
X64661Y18124D02*
D03*
X64307D02*
D03*
X19301Y24024D02*
D03*
X18947D02*
D03*
X20997Y26974D02*
D03*
X21351D02*
D03*
X17801Y26374D02*
D03*
X17447D02*
D03*
X17347Y25374D02*
D03*
X17701D02*
D03*
X16597Y22924D02*
D03*
X16951D02*
D03*
X18097Y20874D02*
D03*
X18451D02*
D03*
X20801Y20524D02*
D03*
X20447D02*
D03*
X23297Y25974D02*
D03*
X23651D02*
D03*
X24274Y28874D02*
D03*
X23920D02*
D03*
X29901Y25824D02*
D03*
X29547D02*
D03*
X30251Y25424D02*
D03*
X29897D02*
D03*
X29497Y23974D02*
D03*
X29851D02*
D03*
X28797D02*
D03*
X29151D02*
D03*
X29447Y21324D02*
D03*
X29801D02*
D03*
X29447Y20874D02*
D03*
X29801D02*
D03*
X30297Y21724D02*
D03*
X30651D02*
D03*
X34001Y28874D02*
D03*
X33647D02*
D03*
X33947Y26524D02*
D03*
X34301D02*
D03*
X33947Y25124D02*
D03*
X34301D02*
D03*
X40001Y26274D02*
D03*
X39647D02*
D03*
X42747Y24374D02*
D03*
X43101D02*
D03*
X24624Y28874D02*
D03*
X24270D02*
D03*
X59339Y24024D02*
D03*
X58984D02*
D03*
X61034Y26974D02*
D03*
X61389D02*
D03*
X57839Y26374D02*
D03*
X57484D02*
D03*
X57384Y25374D02*
D03*
X57739D02*
D03*
X56634Y22924D02*
D03*
X56989D02*
D03*
X58134Y20874D02*
D03*
X58489D02*
D03*
X60839Y20524D02*
D03*
X60484D02*
D03*
X63334Y25974D02*
D03*
X63689D02*
D03*
X64311Y28874D02*
D03*
X63957D02*
D03*
X69939Y25824D02*
D03*
X69584D02*
D03*
X70289Y25424D02*
D03*
X69934D02*
D03*
X69534Y23974D02*
D03*
X69889D02*
D03*
X68834D02*
D03*
X69189D02*
D03*
X69484Y21324D02*
D03*
X69839D02*
D03*
X69484Y20874D02*
D03*
X69839D02*
D03*
X70334Y21724D02*
D03*
X70689D02*
D03*
X74039Y28874D02*
D03*
X73684D02*
D03*
X73984Y26524D02*
D03*
X74339D02*
D03*
X73984Y25124D02*
D03*
X74339D02*
D03*
X80039Y26274D02*
D03*
X79684D02*
D03*
X82784Y24374D02*
D03*
X83139D02*
D03*
X64661Y28874D02*
D03*
X64307D02*
D03*
X19301Y34775D02*
D03*
X18947D02*
D03*
X20997Y37725D02*
D03*
X21351D02*
D03*
X17801Y37125D02*
D03*
X17447D02*
D03*
X17347Y36125D02*
D03*
X17701D02*
D03*
X16597Y33675D02*
D03*
X16951D02*
D03*
X18097Y31625D02*
D03*
X18451D02*
D03*
X20801Y31275D02*
D03*
X20447D02*
D03*
X23297Y36725D02*
D03*
X23651D02*
D03*
X24274Y39625D02*
D03*
X23920D02*
D03*
X29901Y36575D02*
D03*
X29547D02*
D03*
X30251Y36175D02*
D03*
X29897D02*
D03*
X29497Y34725D02*
D03*
X29851D02*
D03*
X28797D02*
D03*
X29151D02*
D03*
X29447Y32075D02*
D03*
X29801D02*
D03*
X29447Y31625D02*
D03*
X29801D02*
D03*
X30297Y32475D02*
D03*
X30651D02*
D03*
X34001Y39625D02*
D03*
X33647D02*
D03*
X33947Y37275D02*
D03*
X34301D02*
D03*
X33947Y35875D02*
D03*
X34301D02*
D03*
X40001Y37025D02*
D03*
X39647D02*
D03*
X42747Y35125D02*
D03*
X43101D02*
D03*
X24624Y39625D02*
D03*
X24270D02*
D03*
X59339Y34775D02*
D03*
X58984D02*
D03*
X61034Y37725D02*
D03*
X61389D02*
D03*
X57839Y37125D02*
D03*
X57484D02*
D03*
X57384Y36125D02*
D03*
X57739D02*
D03*
X56634Y33675D02*
D03*
X56989D02*
D03*
X58134Y31625D02*
D03*
X58489D02*
D03*
X60839Y31275D02*
D03*
X60484D02*
D03*
X63334Y36725D02*
D03*
X63689D02*
D03*
X64311Y39625D02*
D03*
X63957D02*
D03*
X69939Y36575D02*
D03*
X69584D02*
D03*
X70289Y36175D02*
D03*
X69934D02*
D03*
X69534Y34725D02*
D03*
X69889D02*
D03*
X68834D02*
D03*
X69189D02*
D03*
X69484Y32075D02*
D03*
X69839D02*
D03*
X69484Y31625D02*
D03*
X69839D02*
D03*
X70334Y32475D02*
D03*
X70689D02*
D03*
X74039Y39625D02*
D03*
X73684D02*
D03*
X73984Y37275D02*
D03*
X74339D02*
D03*
X73984Y35875D02*
D03*
X74339D02*
D03*
X80039Y37025D02*
D03*
X79684D02*
D03*
X82784Y35125D02*
D03*
X83139D02*
D03*
X64661Y39625D02*
D03*
X64307D02*
D03*
X19301Y45525D02*
D03*
X18947D02*
D03*
X20997Y48475D02*
D03*
X21351D02*
D03*
X17801Y47875D02*
D03*
X17447D02*
D03*
X17347Y46875D02*
D03*
X17701D02*
D03*
X16597Y44425D02*
D03*
X16951D02*
D03*
X18097Y42375D02*
D03*
X18451D02*
D03*
X20801Y42025D02*
D03*
X20447D02*
D03*
X23297Y47475D02*
D03*
X23651D02*
D03*
X24274Y50375D02*
D03*
X23920D02*
D03*
X29901Y47325D02*
D03*
X29547D02*
D03*
X30251Y46925D02*
D03*
X29897D02*
D03*
X29497Y45475D02*
D03*
X29851D02*
D03*
X28797D02*
D03*
X29151D02*
D03*
X29447Y42825D02*
D03*
X29801D02*
D03*
X29447Y42375D02*
D03*
X29801D02*
D03*
X30297Y43225D02*
D03*
X30651D02*
D03*
X34001Y50375D02*
D03*
X33647D02*
D03*
X33947Y48025D02*
D03*
X34301D02*
D03*
X33947Y46625D02*
D03*
X34301D02*
D03*
X40001Y47775D02*
D03*
X39647D02*
D03*
X42747Y45875D02*
D03*
X43101D02*
D03*
X24624Y50375D02*
D03*
X24270D02*
D03*
X59339Y45525D02*
D03*
X58984D02*
D03*
X61034Y48475D02*
D03*
X61389D02*
D03*
X57839Y47875D02*
D03*
X57484D02*
D03*
X57384Y46875D02*
D03*
X57739D02*
D03*
X56634Y44425D02*
D03*
X56989D02*
D03*
X58134Y42375D02*
D03*
X58489D02*
D03*
X60839Y42025D02*
D03*
X60484D02*
D03*
X63334Y47475D02*
D03*
X63689D02*
D03*
X64311Y50375D02*
D03*
X63957D02*
D03*
X69939Y47325D02*
D03*
X69584D02*
D03*
X70289Y46925D02*
D03*
X69934D02*
D03*
X69534Y45475D02*
D03*
X69889D02*
D03*
X68834D02*
D03*
X69189D02*
D03*
X69484Y42825D02*
D03*
X69839D02*
D03*
X69484Y42375D02*
D03*
X69839D02*
D03*
X70334Y43225D02*
D03*
X70689D02*
D03*
X74039Y50375D02*
D03*
X73684D02*
D03*
X73984Y48025D02*
D03*
X74339D02*
D03*
X73984Y46625D02*
D03*
X74339D02*
D03*
X80039Y47775D02*
D03*
X79684D02*
D03*
X82784Y45875D02*
D03*
X83139D02*
D03*
X64661Y50375D02*
D03*
X64307D02*
D03*
D19*
X21824Y17424D02*
D03*
X61861D02*
D03*
X21824Y28174D02*
D03*
X61861D02*
D03*
X21824Y38925D02*
D03*
X61861D02*
D03*
X21824Y49675D02*
D03*
X61861D02*
D03*
D20*
X21056Y16863D02*
D03*
Y17237D02*
D03*
Y17611D02*
D03*
Y17985D02*
D03*
X22592D02*
D03*
Y17611D02*
D03*
Y17237D02*
D03*
Y16863D02*
D03*
X61094D02*
D03*
Y17237D02*
D03*
Y17611D02*
D03*
Y17985D02*
D03*
X62629D02*
D03*
Y17611D02*
D03*
Y17237D02*
D03*
Y16863D02*
D03*
X21056Y27613D02*
D03*
Y27987D02*
D03*
Y28361D02*
D03*
Y28735D02*
D03*
X22592D02*
D03*
Y28361D02*
D03*
Y27987D02*
D03*
Y27613D02*
D03*
X61094D02*
D03*
Y27987D02*
D03*
Y28361D02*
D03*
Y28735D02*
D03*
X62629D02*
D03*
Y28361D02*
D03*
Y27987D02*
D03*
Y27613D02*
D03*
X21056Y38364D02*
D03*
Y38738D02*
D03*
Y39112D02*
D03*
Y39486D02*
D03*
X22592D02*
D03*
Y39112D02*
D03*
Y38738D02*
D03*
Y38364D02*
D03*
X61094D02*
D03*
Y38738D02*
D03*
Y39112D02*
D03*
Y39486D02*
D03*
X62629D02*
D03*
Y39112D02*
D03*
Y38738D02*
D03*
Y38364D02*
D03*
X21056Y49114D02*
D03*
Y49488D02*
D03*
Y49862D02*
D03*
Y50236D02*
D03*
X22592D02*
D03*
Y49862D02*
D03*
Y49488D02*
D03*
Y49114D02*
D03*
X61094D02*
D03*
Y49488D02*
D03*
Y49862D02*
D03*
Y50236D02*
D03*
X62629D02*
D03*
Y49862D02*
D03*
Y49488D02*
D03*
Y49114D02*
D03*
D21*
X22704Y15310D02*
D03*
X22507D02*
D03*
X22310D02*
D03*
X22113D02*
D03*
X21916D02*
D03*
X21719D02*
D03*
X21523D02*
D03*
X21326D02*
D03*
X21129D02*
D03*
X20932D02*
D03*
X20735D02*
D03*
X20538D02*
D03*
X20341D02*
D03*
X20145D02*
D03*
Y12239D02*
D03*
X20341D02*
D03*
X20538D02*
D03*
X20735D02*
D03*
X20932D02*
D03*
X21129D02*
D03*
X21326D02*
D03*
X21523D02*
D03*
X21719D02*
D03*
X21916D02*
D03*
X22113D02*
D03*
X22310D02*
D03*
X22507D02*
D03*
X22704D02*
D03*
X62741Y15310D02*
D03*
X62544D02*
D03*
X62347D02*
D03*
X62150D02*
D03*
X61954D02*
D03*
X61757D02*
D03*
X61560D02*
D03*
X61363D02*
D03*
X61166D02*
D03*
X60969D02*
D03*
X60773D02*
D03*
X60576D02*
D03*
X60379D02*
D03*
X60182D02*
D03*
Y12239D02*
D03*
X60379D02*
D03*
X60576D02*
D03*
X60773D02*
D03*
X60969D02*
D03*
X61166D02*
D03*
X61363D02*
D03*
X61560D02*
D03*
X61757D02*
D03*
X61954D02*
D03*
X62150D02*
D03*
X62347D02*
D03*
X62544D02*
D03*
X62741D02*
D03*
X22704Y26060D02*
D03*
X22507D02*
D03*
X22310D02*
D03*
X22113D02*
D03*
X21916D02*
D03*
X21719D02*
D03*
X21523D02*
D03*
X21326D02*
D03*
X21129D02*
D03*
X20932D02*
D03*
X20735D02*
D03*
X20538D02*
D03*
X20341D02*
D03*
X20145D02*
D03*
Y22989D02*
D03*
X20341D02*
D03*
X20538D02*
D03*
X20735D02*
D03*
X20932D02*
D03*
X21129D02*
D03*
X21326D02*
D03*
X21523D02*
D03*
X21719D02*
D03*
X21916D02*
D03*
X22113D02*
D03*
X22310D02*
D03*
X22507D02*
D03*
X22704D02*
D03*
X62741Y26060D02*
D03*
X62544D02*
D03*
X62347D02*
D03*
X62150D02*
D03*
X61954D02*
D03*
X61757D02*
D03*
X61560D02*
D03*
X61363D02*
D03*
X61166D02*
D03*
X60969D02*
D03*
X60773D02*
D03*
X60576D02*
D03*
X60379D02*
D03*
X60182D02*
D03*
Y22989D02*
D03*
X60379D02*
D03*
X60576D02*
D03*
X60773D02*
D03*
X60969D02*
D03*
X61166D02*
D03*
X61363D02*
D03*
X61560D02*
D03*
X61757D02*
D03*
X61954D02*
D03*
X62150D02*
D03*
X62347D02*
D03*
X62544D02*
D03*
X62741D02*
D03*
X22704Y36810D02*
D03*
X22507D02*
D03*
X22310D02*
D03*
X22113D02*
D03*
X21916D02*
D03*
X21719D02*
D03*
X21523D02*
D03*
X21326D02*
D03*
X21129D02*
D03*
X20932D02*
D03*
X20735D02*
D03*
X20538D02*
D03*
X20341D02*
D03*
X20145D02*
D03*
Y33739D02*
D03*
X20341D02*
D03*
X20538D02*
D03*
X20735D02*
D03*
X20932D02*
D03*
X21129D02*
D03*
X21326D02*
D03*
X21523D02*
D03*
X21719D02*
D03*
X21916D02*
D03*
X22113D02*
D03*
X22310D02*
D03*
X22507D02*
D03*
X22704D02*
D03*
X62741Y36810D02*
D03*
X62544D02*
D03*
X62347D02*
D03*
X62150D02*
D03*
X61954D02*
D03*
X61757D02*
D03*
X61560D02*
D03*
X61363D02*
D03*
X61166D02*
D03*
X60969D02*
D03*
X60773D02*
D03*
X60576D02*
D03*
X60379D02*
D03*
X60182D02*
D03*
Y33739D02*
D03*
X60379D02*
D03*
X60576D02*
D03*
X60773D02*
D03*
X60969D02*
D03*
X61166D02*
D03*
X61363D02*
D03*
X61560D02*
D03*
X61757D02*
D03*
X61954D02*
D03*
X62150D02*
D03*
X62347D02*
D03*
X62544D02*
D03*
X62741D02*
D03*
X22704Y47561D02*
D03*
X22507D02*
D03*
X22310D02*
D03*
X22113D02*
D03*
X21916D02*
D03*
X21719D02*
D03*
X21523D02*
D03*
X21326D02*
D03*
X21129D02*
D03*
X20932D02*
D03*
X20735D02*
D03*
X20538D02*
D03*
X20341D02*
D03*
X20145D02*
D03*
Y44490D02*
D03*
X20341D02*
D03*
X20538D02*
D03*
X20735D02*
D03*
X20932D02*
D03*
X21129D02*
D03*
X21326D02*
D03*
X21523D02*
D03*
X21719D02*
D03*
X21916D02*
D03*
X22113D02*
D03*
X22310D02*
D03*
X22507D02*
D03*
X22704D02*
D03*
X62741Y47561D02*
D03*
X62544D02*
D03*
X62347D02*
D03*
X62150D02*
D03*
X61954D02*
D03*
X61757D02*
D03*
X61560D02*
D03*
X61363D02*
D03*
X61166D02*
D03*
X60969D02*
D03*
X60773D02*
D03*
X60576D02*
D03*
X60379D02*
D03*
X60182D02*
D03*
Y44490D02*
D03*
X60379D02*
D03*
X60576D02*
D03*
X60773D02*
D03*
X60969D02*
D03*
X61166D02*
D03*
X61363D02*
D03*
X61560D02*
D03*
X61757D02*
D03*
X61954D02*
D03*
X62150D02*
D03*
X62347D02*
D03*
X62544D02*
D03*
X62741D02*
D03*
D22*
X19889Y15054D02*
D03*
Y14857D02*
D03*
Y14660D02*
D03*
Y14463D02*
D03*
Y14266D02*
D03*
Y14069D02*
D03*
Y13873D02*
D03*
Y13676D02*
D03*
Y13479D02*
D03*
Y13282D02*
D03*
Y13085D02*
D03*
Y12888D02*
D03*
Y12691D02*
D03*
Y12495D02*
D03*
X22960D02*
D03*
Y12691D02*
D03*
Y12888D02*
D03*
Y13085D02*
D03*
Y13282D02*
D03*
Y13479D02*
D03*
Y13676D02*
D03*
Y13873D02*
D03*
Y14069D02*
D03*
Y14266D02*
D03*
Y14463D02*
D03*
Y14660D02*
D03*
Y14857D02*
D03*
Y15054D02*
D03*
X59926D02*
D03*
Y14857D02*
D03*
Y14660D02*
D03*
Y14463D02*
D03*
Y14266D02*
D03*
Y14069D02*
D03*
Y13873D02*
D03*
Y13676D02*
D03*
Y13479D02*
D03*
Y13282D02*
D03*
Y13085D02*
D03*
Y12888D02*
D03*
Y12691D02*
D03*
Y12495D02*
D03*
X62997D02*
D03*
Y12691D02*
D03*
Y12888D02*
D03*
Y13085D02*
D03*
Y13282D02*
D03*
Y13479D02*
D03*
Y13676D02*
D03*
Y13873D02*
D03*
Y14069D02*
D03*
Y14266D02*
D03*
Y14463D02*
D03*
Y14660D02*
D03*
Y14857D02*
D03*
Y15054D02*
D03*
X19889Y25804D02*
D03*
Y25607D02*
D03*
Y25410D02*
D03*
Y25213D02*
D03*
Y25017D02*
D03*
Y24820D02*
D03*
Y24623D02*
D03*
Y24426D02*
D03*
Y24229D02*
D03*
Y24032D02*
D03*
Y23835D02*
D03*
Y23639D02*
D03*
Y23442D02*
D03*
Y23245D02*
D03*
X22960D02*
D03*
Y23442D02*
D03*
Y23639D02*
D03*
Y23835D02*
D03*
Y24032D02*
D03*
Y24229D02*
D03*
Y24426D02*
D03*
Y24623D02*
D03*
Y24820D02*
D03*
Y25017D02*
D03*
Y25213D02*
D03*
Y25410D02*
D03*
Y25607D02*
D03*
Y25804D02*
D03*
X59926D02*
D03*
Y25607D02*
D03*
Y25410D02*
D03*
Y25213D02*
D03*
Y25017D02*
D03*
Y24820D02*
D03*
Y24623D02*
D03*
Y24426D02*
D03*
Y24229D02*
D03*
Y24032D02*
D03*
Y23835D02*
D03*
Y23639D02*
D03*
Y23442D02*
D03*
Y23245D02*
D03*
X62997D02*
D03*
Y23442D02*
D03*
Y23639D02*
D03*
Y23835D02*
D03*
Y24032D02*
D03*
Y24229D02*
D03*
Y24426D02*
D03*
Y24623D02*
D03*
Y24820D02*
D03*
Y25017D02*
D03*
Y25213D02*
D03*
Y25410D02*
D03*
Y25607D02*
D03*
Y25804D02*
D03*
X19889Y36554D02*
D03*
Y36357D02*
D03*
Y36161D02*
D03*
Y35964D02*
D03*
Y35767D02*
D03*
Y35570D02*
D03*
Y35373D02*
D03*
Y35176D02*
D03*
Y34979D02*
D03*
Y34783D02*
D03*
Y34586D02*
D03*
Y34389D02*
D03*
Y34192D02*
D03*
Y33995D02*
D03*
X22960D02*
D03*
Y34192D02*
D03*
Y34389D02*
D03*
Y34586D02*
D03*
Y34783D02*
D03*
Y34979D02*
D03*
Y35176D02*
D03*
Y35373D02*
D03*
Y35570D02*
D03*
Y35767D02*
D03*
Y35964D02*
D03*
Y36161D02*
D03*
Y36357D02*
D03*
Y36554D02*
D03*
X59926D02*
D03*
Y36357D02*
D03*
Y36161D02*
D03*
Y35964D02*
D03*
Y35767D02*
D03*
Y35570D02*
D03*
Y35373D02*
D03*
Y35176D02*
D03*
Y34979D02*
D03*
Y34783D02*
D03*
Y34586D02*
D03*
Y34389D02*
D03*
Y34192D02*
D03*
Y33995D02*
D03*
X62997D02*
D03*
Y34192D02*
D03*
Y34389D02*
D03*
Y34586D02*
D03*
Y34783D02*
D03*
Y34979D02*
D03*
Y35176D02*
D03*
Y35373D02*
D03*
Y35570D02*
D03*
Y35767D02*
D03*
Y35964D02*
D03*
Y36161D02*
D03*
Y36357D02*
D03*
Y36554D02*
D03*
X19889Y47305D02*
D03*
Y47108D02*
D03*
Y46911D02*
D03*
Y46714D02*
D03*
Y46517D02*
D03*
Y46320D02*
D03*
Y46123D02*
D03*
Y45927D02*
D03*
Y45730D02*
D03*
Y45533D02*
D03*
Y45336D02*
D03*
Y45139D02*
D03*
Y44942D02*
D03*
Y44746D02*
D03*
X22960D02*
D03*
Y44942D02*
D03*
Y45139D02*
D03*
Y45336D02*
D03*
Y45533D02*
D03*
Y45730D02*
D03*
Y45927D02*
D03*
Y46123D02*
D03*
Y46320D02*
D03*
Y46517D02*
D03*
Y46714D02*
D03*
Y46911D02*
D03*
Y47108D02*
D03*
Y47305D02*
D03*
X59926D02*
D03*
Y47108D02*
D03*
Y46911D02*
D03*
Y46714D02*
D03*
Y46517D02*
D03*
Y46320D02*
D03*
Y46123D02*
D03*
Y45927D02*
D03*
Y45730D02*
D03*
Y45533D02*
D03*
Y45336D02*
D03*
Y45139D02*
D03*
Y44942D02*
D03*
Y44746D02*
D03*
X62997D02*
D03*
Y44942D02*
D03*
Y45139D02*
D03*
Y45336D02*
D03*
Y45533D02*
D03*
Y45730D02*
D03*
Y45927D02*
D03*
Y46123D02*
D03*
Y46320D02*
D03*
Y46517D02*
D03*
Y46714D02*
D03*
Y46911D02*
D03*
Y47108D02*
D03*
Y47305D02*
D03*
D23*
X21424Y13774D02*
D03*
X61461D02*
D03*
X21424Y24524D02*
D03*
X61461D02*
D03*
X21424Y35275D02*
D03*
X61461D02*
D03*
X21424Y46025D02*
D03*
X61461D02*
D03*
D24*
X23524Y12741D02*
D03*
Y12308D02*
D03*
X63561Y12741D02*
D03*
Y12308D02*
D03*
X23524Y23491D02*
D03*
Y23058D02*
D03*
X63561Y23491D02*
D03*
Y23058D02*
D03*
X23524Y34241D02*
D03*
Y33808D02*
D03*
X63561Y34241D02*
D03*
Y33808D02*
D03*
X23524Y44992D02*
D03*
Y44559D02*
D03*
X63561Y44992D02*
D03*
Y44559D02*
D03*
D25*
X17700Y16274D02*
D03*
Y16018D02*
D03*
Y16530D02*
D03*
X18448Y16018D02*
D03*
Y16274D02*
D03*
Y16530D02*
D03*
X18300Y10568D02*
D03*
Y10824D02*
D03*
Y11080D02*
D03*
X19048Y10568D02*
D03*
Y11080D02*
D03*
Y10824D02*
D03*
X33450Y17218D02*
D03*
Y17474D02*
D03*
Y17730D02*
D03*
X34198Y17218D02*
D03*
Y17730D02*
D03*
Y17474D02*
D03*
Y16424D02*
D03*
Y16680D02*
D03*
Y16168D02*
D03*
X33450Y16680D02*
D03*
Y16424D02*
D03*
Y16168D02*
D03*
X34198Y15074D02*
D03*
Y15330D02*
D03*
Y14818D02*
D03*
X33450Y15330D02*
D03*
Y15074D02*
D03*
Y14818D02*
D03*
X41400Y14068D02*
D03*
Y14324D02*
D03*
Y14580D02*
D03*
X42148Y14068D02*
D03*
Y14580D02*
D03*
Y14324D02*
D03*
X57737Y16274D02*
D03*
Y16018D02*
D03*
Y16530D02*
D03*
X58485Y16018D02*
D03*
Y16274D02*
D03*
Y16530D02*
D03*
X58337Y10568D02*
D03*
Y10824D02*
D03*
Y11080D02*
D03*
X59085Y10568D02*
D03*
Y11080D02*
D03*
Y10824D02*
D03*
X73487Y17218D02*
D03*
Y17474D02*
D03*
Y17730D02*
D03*
X74235Y17218D02*
D03*
Y17730D02*
D03*
Y17474D02*
D03*
Y16424D02*
D03*
Y16680D02*
D03*
Y16168D02*
D03*
X73487Y16680D02*
D03*
Y16424D02*
D03*
Y16168D02*
D03*
X74235Y15074D02*
D03*
Y15330D02*
D03*
Y14818D02*
D03*
X73487Y15330D02*
D03*
Y15074D02*
D03*
Y14818D02*
D03*
X81437Y14068D02*
D03*
Y14324D02*
D03*
Y14580D02*
D03*
X82185Y14068D02*
D03*
Y14580D02*
D03*
Y14324D02*
D03*
X17700Y27024D02*
D03*
Y26769D02*
D03*
Y27280D02*
D03*
X18448Y26769D02*
D03*
Y27024D02*
D03*
Y27280D02*
D03*
X18300Y21319D02*
D03*
Y21574D02*
D03*
Y21830D02*
D03*
X19048Y21319D02*
D03*
Y21830D02*
D03*
Y21574D02*
D03*
X33450Y27969D02*
D03*
Y28224D02*
D03*
Y28480D02*
D03*
X34198Y27969D02*
D03*
Y28480D02*
D03*
Y28224D02*
D03*
Y27174D02*
D03*
Y27430D02*
D03*
Y26919D02*
D03*
X33450Y27430D02*
D03*
Y27174D02*
D03*
Y26919D02*
D03*
X34198Y25824D02*
D03*
Y26080D02*
D03*
Y25569D02*
D03*
X33450Y26080D02*
D03*
Y25824D02*
D03*
Y25569D02*
D03*
X41400Y24819D02*
D03*
Y25074D02*
D03*
Y25330D02*
D03*
X42148Y24819D02*
D03*
Y25330D02*
D03*
Y25074D02*
D03*
X57737Y27024D02*
D03*
Y26769D02*
D03*
Y27280D02*
D03*
X58485Y26769D02*
D03*
Y27024D02*
D03*
Y27280D02*
D03*
X58337Y21319D02*
D03*
Y21574D02*
D03*
Y21830D02*
D03*
X59085Y21319D02*
D03*
Y21830D02*
D03*
Y21574D02*
D03*
X73487Y27969D02*
D03*
Y28224D02*
D03*
Y28480D02*
D03*
X74235Y27969D02*
D03*
Y28480D02*
D03*
Y28224D02*
D03*
Y27174D02*
D03*
Y27430D02*
D03*
Y26919D02*
D03*
X73487Y27430D02*
D03*
Y27174D02*
D03*
Y26919D02*
D03*
X74235Y25824D02*
D03*
Y26080D02*
D03*
Y25569D02*
D03*
X73487Y26080D02*
D03*
Y25824D02*
D03*
Y25569D02*
D03*
X81437Y24819D02*
D03*
Y25074D02*
D03*
Y25330D02*
D03*
X82185Y24819D02*
D03*
Y25330D02*
D03*
Y25074D02*
D03*
X17700Y37775D02*
D03*
Y37519D02*
D03*
Y38031D02*
D03*
X18448Y37519D02*
D03*
Y37775D02*
D03*
Y38031D02*
D03*
X18300Y32069D02*
D03*
Y32325D02*
D03*
Y32581D02*
D03*
X19048Y32069D02*
D03*
Y32581D02*
D03*
Y32325D02*
D03*
X33450Y38719D02*
D03*
Y38975D02*
D03*
Y39231D02*
D03*
X34198Y38719D02*
D03*
Y39231D02*
D03*
Y38975D02*
D03*
Y37925D02*
D03*
Y38181D02*
D03*
Y37669D02*
D03*
X33450Y38181D02*
D03*
Y37925D02*
D03*
Y37669D02*
D03*
X34198Y36575D02*
D03*
Y36831D02*
D03*
Y36319D02*
D03*
X33450Y36831D02*
D03*
Y36575D02*
D03*
Y36319D02*
D03*
X41400Y35569D02*
D03*
Y35825D02*
D03*
Y36081D02*
D03*
X42148Y35569D02*
D03*
Y36081D02*
D03*
Y35825D02*
D03*
X57737Y37775D02*
D03*
Y37519D02*
D03*
Y38031D02*
D03*
X58485Y37519D02*
D03*
Y37775D02*
D03*
Y38031D02*
D03*
X58337Y32069D02*
D03*
Y32325D02*
D03*
Y32581D02*
D03*
X59085Y32069D02*
D03*
Y32581D02*
D03*
Y32325D02*
D03*
X73487Y38719D02*
D03*
Y38975D02*
D03*
Y39231D02*
D03*
X74235Y38719D02*
D03*
Y39231D02*
D03*
Y38975D02*
D03*
Y37925D02*
D03*
Y38181D02*
D03*
Y37669D02*
D03*
X73487Y38181D02*
D03*
Y37925D02*
D03*
Y37669D02*
D03*
X74235Y36575D02*
D03*
Y36831D02*
D03*
Y36319D02*
D03*
X73487Y36831D02*
D03*
Y36575D02*
D03*
Y36319D02*
D03*
X81437Y35569D02*
D03*
Y35825D02*
D03*
Y36081D02*
D03*
X82185Y35569D02*
D03*
Y36081D02*
D03*
Y35825D02*
D03*
X17700Y48525D02*
D03*
Y48269D02*
D03*
Y48781D02*
D03*
X18448Y48269D02*
D03*
Y48525D02*
D03*
Y48781D02*
D03*
X18300Y42819D02*
D03*
Y43075D02*
D03*
Y43331D02*
D03*
X19048Y42819D02*
D03*
Y43331D02*
D03*
Y43075D02*
D03*
X33450Y49469D02*
D03*
Y49725D02*
D03*
Y49981D02*
D03*
X34198Y49469D02*
D03*
Y49981D02*
D03*
Y49725D02*
D03*
Y48675D02*
D03*
Y48931D02*
D03*
Y48419D02*
D03*
X33450Y48931D02*
D03*
Y48675D02*
D03*
Y48419D02*
D03*
X34198Y47325D02*
D03*
Y47581D02*
D03*
Y47069D02*
D03*
X33450Y47581D02*
D03*
Y47325D02*
D03*
Y47069D02*
D03*
X41400Y46319D02*
D03*
Y46575D02*
D03*
Y46831D02*
D03*
X42148Y46319D02*
D03*
Y46831D02*
D03*
Y46575D02*
D03*
X57737Y48525D02*
D03*
Y48269D02*
D03*
Y48781D02*
D03*
X58485Y48269D02*
D03*
Y48525D02*
D03*
Y48781D02*
D03*
X58337Y42819D02*
D03*
Y43075D02*
D03*
Y43331D02*
D03*
X59085Y42819D02*
D03*
Y43331D02*
D03*
Y43075D02*
D03*
X73487Y49469D02*
D03*
Y49725D02*
D03*
Y49981D02*
D03*
X74235Y49469D02*
D03*
Y49981D02*
D03*
Y49725D02*
D03*
Y48675D02*
D03*
Y48931D02*
D03*
Y48419D02*
D03*
X73487Y48931D02*
D03*
Y48675D02*
D03*
Y48419D02*
D03*
X74235Y47325D02*
D03*
Y47581D02*
D03*
Y47069D02*
D03*
X73487Y47581D02*
D03*
Y47325D02*
D03*
Y47069D02*
D03*
X81437Y46319D02*
D03*
Y46575D02*
D03*
Y46831D02*
D03*
X82185Y46319D02*
D03*
Y46831D02*
D03*
Y46575D02*
D03*
D26*
X17474Y13424D02*
D03*
X57511D02*
D03*
X17474Y24174D02*
D03*
X57511D02*
D03*
X17474Y34925D02*
D03*
X57511D02*
D03*
X17474Y45675D02*
D03*
X57511D02*
D03*
D27*
X17947Y12647D02*
D03*
X17789D02*
D03*
X17632D02*
D03*
X17474D02*
D03*
X17317D02*
D03*
X17159D02*
D03*
X17002D02*
D03*
Y14202D02*
D03*
X17159D02*
D03*
X17317D02*
D03*
X17474D02*
D03*
X17632D02*
D03*
X17789D02*
D03*
X17947D02*
D03*
X57984Y12647D02*
D03*
X57826D02*
D03*
X57669D02*
D03*
X57511D02*
D03*
X57354D02*
D03*
X57197D02*
D03*
X57039D02*
D03*
Y14202D02*
D03*
X57197D02*
D03*
X57354D02*
D03*
X57511D02*
D03*
X57669D02*
D03*
X57826D02*
D03*
X57984D02*
D03*
X17947Y23397D02*
D03*
X17789D02*
D03*
X17632D02*
D03*
X17474D02*
D03*
X17317D02*
D03*
X17159D02*
D03*
X17002D02*
D03*
Y24952D02*
D03*
X17159D02*
D03*
X17317D02*
D03*
X17474D02*
D03*
X17632D02*
D03*
X17789D02*
D03*
X17947D02*
D03*
X57984Y23397D02*
D03*
X57826D02*
D03*
X57669D02*
D03*
X57511D02*
D03*
X57354D02*
D03*
X57197D02*
D03*
X57039D02*
D03*
Y24952D02*
D03*
X57197D02*
D03*
X57354D02*
D03*
X57511D02*
D03*
X57669D02*
D03*
X57826D02*
D03*
X57984D02*
D03*
X17947Y34147D02*
D03*
X17789D02*
D03*
X17632D02*
D03*
X17474D02*
D03*
X17317D02*
D03*
X17159D02*
D03*
X17002D02*
D03*
Y35702D02*
D03*
X17159D02*
D03*
X17317D02*
D03*
X17474D02*
D03*
X17632D02*
D03*
X17789D02*
D03*
X17947D02*
D03*
X57984Y34147D02*
D03*
X57826D02*
D03*
X57669D02*
D03*
X57511D02*
D03*
X57354D02*
D03*
X57197D02*
D03*
X57039D02*
D03*
Y35702D02*
D03*
X57197D02*
D03*
X57354D02*
D03*
X57511D02*
D03*
X57669D02*
D03*
X57826D02*
D03*
X57984D02*
D03*
X17947Y44898D02*
D03*
X17789D02*
D03*
X17632D02*
D03*
X17474D02*
D03*
X17317D02*
D03*
X17159D02*
D03*
X17002D02*
D03*
Y46453D02*
D03*
X17159D02*
D03*
X17317D02*
D03*
X17474D02*
D03*
X17632D02*
D03*
X17789D02*
D03*
X17947D02*
D03*
X57984Y44898D02*
D03*
X57826D02*
D03*
X57669D02*
D03*
X57511D02*
D03*
X57354D02*
D03*
X57197D02*
D03*
X57039D02*
D03*
Y46453D02*
D03*
X57197D02*
D03*
X57354D02*
D03*
X57511D02*
D03*
X57669D02*
D03*
X57826D02*
D03*
X57984D02*
D03*
D28*
X16697Y12952D02*
D03*
Y13109D02*
D03*
Y13267D02*
D03*
Y13424D02*
D03*
Y13582D02*
D03*
Y13739D02*
D03*
Y13897D02*
D03*
X18252D02*
D03*
Y13739D02*
D03*
Y13582D02*
D03*
Y13424D02*
D03*
Y13267D02*
D03*
Y13109D02*
D03*
Y12952D02*
D03*
X56734D02*
D03*
Y13109D02*
D03*
Y13267D02*
D03*
Y13424D02*
D03*
Y13582D02*
D03*
Y13739D02*
D03*
Y13897D02*
D03*
X58289D02*
D03*
Y13739D02*
D03*
Y13582D02*
D03*
Y13424D02*
D03*
Y13267D02*
D03*
Y13109D02*
D03*
Y12952D02*
D03*
X16697Y23702D02*
D03*
Y23860D02*
D03*
Y24017D02*
D03*
Y24174D02*
D03*
Y24332D02*
D03*
Y24489D02*
D03*
Y24647D02*
D03*
X18252D02*
D03*
Y24489D02*
D03*
Y24332D02*
D03*
Y24174D02*
D03*
Y24017D02*
D03*
Y23860D02*
D03*
Y23702D02*
D03*
X56734D02*
D03*
Y23860D02*
D03*
Y24017D02*
D03*
Y24174D02*
D03*
Y24332D02*
D03*
Y24489D02*
D03*
Y24647D02*
D03*
X58289D02*
D03*
Y24489D02*
D03*
Y24332D02*
D03*
Y24174D02*
D03*
Y24017D02*
D03*
Y23860D02*
D03*
Y23702D02*
D03*
X16697Y34452D02*
D03*
Y34610D02*
D03*
Y34767D02*
D03*
Y34925D02*
D03*
Y35082D02*
D03*
Y35240D02*
D03*
Y35397D02*
D03*
X18252D02*
D03*
Y35240D02*
D03*
Y35082D02*
D03*
Y34925D02*
D03*
Y34767D02*
D03*
Y34610D02*
D03*
Y34452D02*
D03*
X56734D02*
D03*
Y34610D02*
D03*
Y34767D02*
D03*
Y34925D02*
D03*
Y35082D02*
D03*
Y35240D02*
D03*
Y35397D02*
D03*
X58289D02*
D03*
Y35240D02*
D03*
Y35082D02*
D03*
Y34925D02*
D03*
Y34767D02*
D03*
Y34610D02*
D03*
Y34452D02*
D03*
X16697Y45203D02*
D03*
Y45360D02*
D03*
Y45518D02*
D03*
Y45675D02*
D03*
Y45833D02*
D03*
Y45990D02*
D03*
Y46148D02*
D03*
X18252D02*
D03*
Y45990D02*
D03*
Y45833D02*
D03*
Y45675D02*
D03*
Y45518D02*
D03*
Y45360D02*
D03*
Y45203D02*
D03*
X56734D02*
D03*
Y45360D02*
D03*
Y45518D02*
D03*
Y45675D02*
D03*
Y45833D02*
D03*
Y45990D02*
D03*
Y46148D02*
D03*
X58289D02*
D03*
Y45990D02*
D03*
Y45833D02*
D03*
Y45675D02*
D03*
Y45518D02*
D03*
Y45360D02*
D03*
Y45203D02*
D03*
D29*
X17324Y10719D02*
D03*
X17009D02*
D03*
X16694D02*
D03*
Y11664D02*
D03*
X17009D02*
D03*
X17324D02*
D03*
X57361Y10719D02*
D03*
X57047D02*
D03*
X56732D02*
D03*
Y11664D02*
D03*
X57047D02*
D03*
X57361D02*
D03*
X17324Y21469D02*
D03*
X17009D02*
D03*
X16694D02*
D03*
Y22414D02*
D03*
X17009D02*
D03*
X17324D02*
D03*
X57361Y21469D02*
D03*
X57047D02*
D03*
X56732D02*
D03*
Y22414D02*
D03*
X57047D02*
D03*
X57361D02*
D03*
X17324Y32219D02*
D03*
X17009D02*
D03*
X16694D02*
D03*
Y33164D02*
D03*
X17009D02*
D03*
X17324D02*
D03*
X57361Y32219D02*
D03*
X57047D02*
D03*
X56732D02*
D03*
Y33164D02*
D03*
X57047D02*
D03*
X57361D02*
D03*
X17324Y42970D02*
D03*
X17009D02*
D03*
X16694D02*
D03*
Y43914D02*
D03*
X17009D02*
D03*
X17324D02*
D03*
X57361Y42970D02*
D03*
X57047D02*
D03*
X56732D02*
D03*
Y43914D02*
D03*
X57047D02*
D03*
X57361D02*
D03*
D30*
X20248Y10760D02*
D03*
Y10189D02*
D03*
X20701D02*
D03*
Y10760D02*
D03*
X60285D02*
D03*
Y10189D02*
D03*
X60738D02*
D03*
Y10760D02*
D03*
X20248Y21510D02*
D03*
Y20939D02*
D03*
X20701D02*
D03*
Y21510D02*
D03*
X60285D02*
D03*
Y20939D02*
D03*
X60738D02*
D03*
Y21510D02*
D03*
X20248Y32260D02*
D03*
Y31689D02*
D03*
X20701D02*
D03*
Y32260D02*
D03*
X60285D02*
D03*
Y31689D02*
D03*
X60738D02*
D03*
Y32260D02*
D03*
X20248Y43011D02*
D03*
Y42440D02*
D03*
X20701D02*
D03*
Y43011D02*
D03*
X60285D02*
D03*
Y42440D02*
D03*
X60738D02*
D03*
Y43011D02*
D03*
D31*
X21568Y10780D02*
D03*
Y10524D02*
D03*
Y10268D02*
D03*
X22080Y10780D02*
D03*
Y10524D02*
D03*
Y10268D02*
D03*
X61606Y10780D02*
D03*
Y10524D02*
D03*
Y10268D02*
D03*
X62117Y10780D02*
D03*
Y10524D02*
D03*
Y10268D02*
D03*
X21568Y21530D02*
D03*
Y21274D02*
D03*
Y21019D02*
D03*
X22080Y21530D02*
D03*
Y21274D02*
D03*
Y21019D02*
D03*
X61606Y21530D02*
D03*
Y21274D02*
D03*
Y21019D02*
D03*
X62117Y21530D02*
D03*
Y21274D02*
D03*
Y21019D02*
D03*
X21568Y32281D02*
D03*
Y32025D02*
D03*
Y31769D02*
D03*
X22080Y32281D02*
D03*
Y32025D02*
D03*
Y31769D02*
D03*
X61606Y32281D02*
D03*
Y32025D02*
D03*
Y31769D02*
D03*
X62117Y32281D02*
D03*
Y32025D02*
D03*
Y31769D02*
D03*
X21568Y43031D02*
D03*
Y42775D02*
D03*
Y42519D02*
D03*
X22080Y43031D02*
D03*
Y42775D02*
D03*
Y42519D02*
D03*
X61606Y43031D02*
D03*
Y42775D02*
D03*
Y42519D02*
D03*
X62117Y43031D02*
D03*
Y42775D02*
D03*
Y42519D02*
D03*
D32*
X23891Y17754D02*
D03*
Y17439D02*
D03*
Y17124D02*
D03*
Y16809D02*
D03*
Y16494D02*
D03*
X24757Y17754D02*
D03*
Y17439D02*
D03*
Y17124D02*
D03*
Y16809D02*
D03*
Y16494D02*
D03*
X63928Y17754D02*
D03*
Y17439D02*
D03*
Y17124D02*
D03*
Y16809D02*
D03*
Y16494D02*
D03*
X64795Y17754D02*
D03*
Y17439D02*
D03*
Y17124D02*
D03*
Y16809D02*
D03*
Y16494D02*
D03*
X23891Y28504D02*
D03*
Y28189D02*
D03*
Y27874D02*
D03*
Y27559D02*
D03*
Y27245D02*
D03*
X24757Y28504D02*
D03*
Y28189D02*
D03*
Y27874D02*
D03*
Y27559D02*
D03*
Y27245D02*
D03*
X63928Y28504D02*
D03*
Y28189D02*
D03*
Y27874D02*
D03*
Y27559D02*
D03*
Y27245D02*
D03*
X64795Y28504D02*
D03*
Y28189D02*
D03*
Y27874D02*
D03*
Y27559D02*
D03*
Y27245D02*
D03*
X23891Y39255D02*
D03*
Y38940D02*
D03*
Y38625D02*
D03*
Y38310D02*
D03*
Y37995D02*
D03*
X24757Y39255D02*
D03*
Y38940D02*
D03*
Y38625D02*
D03*
Y38310D02*
D03*
Y37995D02*
D03*
X63928Y39255D02*
D03*
Y38940D02*
D03*
Y38625D02*
D03*
Y38310D02*
D03*
Y37995D02*
D03*
X64795Y39255D02*
D03*
Y38940D02*
D03*
Y38625D02*
D03*
Y38310D02*
D03*
Y37995D02*
D03*
X23891Y50005D02*
D03*
Y49690D02*
D03*
Y49375D02*
D03*
Y49060D02*
D03*
Y48745D02*
D03*
X24757Y50005D02*
D03*
Y49690D02*
D03*
Y49375D02*
D03*
Y49060D02*
D03*
Y48745D02*
D03*
X63928Y50005D02*
D03*
Y49690D02*
D03*
Y49375D02*
D03*
Y49060D02*
D03*
Y48745D02*
D03*
X64795Y50005D02*
D03*
Y49690D02*
D03*
Y49375D02*
D03*
Y49060D02*
D03*
Y48745D02*
D03*
D33*
X25080Y12398D02*
D03*
X24824D02*
D03*
X24568D02*
D03*
Y11650D02*
D03*
X24824D02*
D03*
X25080D02*
D03*
X65117Y12398D02*
D03*
X64861D02*
D03*
X64606D02*
D03*
Y11650D02*
D03*
X64861D02*
D03*
X65117D02*
D03*
X25080Y23148D02*
D03*
X24824D02*
D03*
X24568D02*
D03*
Y22400D02*
D03*
X24824D02*
D03*
X25080D02*
D03*
X65117Y23148D02*
D03*
X64861D02*
D03*
X64606D02*
D03*
Y22400D02*
D03*
X64861D02*
D03*
X65117D02*
D03*
X25080Y33899D02*
D03*
X24824D02*
D03*
X24568D02*
D03*
Y33151D02*
D03*
X24824D02*
D03*
X25080D02*
D03*
X65117Y33899D02*
D03*
X64861D02*
D03*
X64606D02*
D03*
Y33151D02*
D03*
X64861D02*
D03*
X65117D02*
D03*
X25080Y44649D02*
D03*
X24824D02*
D03*
X24568D02*
D03*
Y43901D02*
D03*
X24824D02*
D03*
X25080D02*
D03*
X65117Y44649D02*
D03*
X64861D02*
D03*
X64606D02*
D03*
Y43901D02*
D03*
X64861D02*
D03*
X65117D02*
D03*
D34*
X25968Y17953D02*
D03*
X66006D02*
D03*
X25968Y28703D02*
D03*
X66006D02*
D03*
X25968Y39453D02*
D03*
X66006D02*
D03*
X25968Y50203D02*
D03*
X66006D02*
D03*
D35*
X25417Y16407D02*
D03*
X65454D02*
D03*
X25417Y27158D02*
D03*
X65454D02*
D03*
X25417Y37908D02*
D03*
X65454D02*
D03*
X25417Y48658D02*
D03*
X65454D02*
D03*
D36*
X32236Y16306D02*
D03*
Y16562D02*
D03*
Y16818D02*
D03*
Y17074D02*
D03*
Y17330D02*
D03*
Y17586D02*
D03*
Y17842D02*
D03*
X29913Y16306D02*
D03*
Y16562D02*
D03*
Y16818D02*
D03*
Y17074D02*
D03*
Y17330D02*
D03*
Y17586D02*
D03*
Y17842D02*
D03*
X72273Y16306D02*
D03*
Y16562D02*
D03*
Y16818D02*
D03*
Y17074D02*
D03*
Y17330D02*
D03*
Y17586D02*
D03*
Y17842D02*
D03*
X69950Y16306D02*
D03*
Y16562D02*
D03*
Y16818D02*
D03*
Y17074D02*
D03*
Y17330D02*
D03*
Y17586D02*
D03*
Y17842D02*
D03*
X32236Y27057D02*
D03*
Y27313D02*
D03*
Y27569D02*
D03*
Y27824D02*
D03*
Y28080D02*
D03*
Y28336D02*
D03*
Y28592D02*
D03*
X29913Y27057D02*
D03*
Y27313D02*
D03*
Y27569D02*
D03*
Y27824D02*
D03*
Y28080D02*
D03*
Y28336D02*
D03*
Y28592D02*
D03*
X72273Y27057D02*
D03*
Y27313D02*
D03*
Y27569D02*
D03*
Y27824D02*
D03*
Y28080D02*
D03*
Y28336D02*
D03*
Y28592D02*
D03*
X69950Y27057D02*
D03*
Y27313D02*
D03*
Y27569D02*
D03*
Y27824D02*
D03*
Y28080D02*
D03*
Y28336D02*
D03*
Y28592D02*
D03*
X32236Y37807D02*
D03*
Y38063D02*
D03*
Y38319D02*
D03*
Y38575D02*
D03*
Y38831D02*
D03*
Y39087D02*
D03*
Y39342D02*
D03*
X29913Y37807D02*
D03*
Y38063D02*
D03*
Y38319D02*
D03*
Y38575D02*
D03*
Y38831D02*
D03*
Y39087D02*
D03*
Y39342D02*
D03*
X72273Y37807D02*
D03*
Y38063D02*
D03*
Y38319D02*
D03*
Y38575D02*
D03*
Y38831D02*
D03*
Y39087D02*
D03*
Y39342D02*
D03*
X69950Y37807D02*
D03*
Y38063D02*
D03*
Y38319D02*
D03*
Y38575D02*
D03*
Y38831D02*
D03*
Y39087D02*
D03*
Y39342D02*
D03*
X32236Y48557D02*
D03*
Y48813D02*
D03*
Y49069D02*
D03*
Y49325D02*
D03*
Y49581D02*
D03*
Y49837D02*
D03*
Y50093D02*
D03*
X29913Y48557D02*
D03*
Y48813D02*
D03*
Y49069D02*
D03*
Y49325D02*
D03*
Y49581D02*
D03*
Y49837D02*
D03*
Y50093D02*
D03*
X72273Y48557D02*
D03*
Y48813D02*
D03*
Y49069D02*
D03*
Y49325D02*
D03*
Y49581D02*
D03*
Y49837D02*
D03*
Y50093D02*
D03*
X69950Y48557D02*
D03*
Y48813D02*
D03*
Y49069D02*
D03*
Y49325D02*
D03*
Y49581D02*
D03*
Y49837D02*
D03*
Y50093D02*
D03*
D37*
X29101Y15290D02*
D03*
Y15546D02*
D03*
Y15802D02*
D03*
Y16058D02*
D03*
X27447Y15290D02*
D03*
Y15546D02*
D03*
Y15802D02*
D03*
Y16058D02*
D03*
X69138Y15290D02*
D03*
Y15546D02*
D03*
Y15802D02*
D03*
Y16058D02*
D03*
X67485Y15290D02*
D03*
Y15546D02*
D03*
Y15802D02*
D03*
Y16058D02*
D03*
X29101Y26041D02*
D03*
Y26297D02*
D03*
Y26552D02*
D03*
Y26808D02*
D03*
X27447Y26041D02*
D03*
Y26297D02*
D03*
Y26552D02*
D03*
Y26808D02*
D03*
X69138Y26041D02*
D03*
Y26297D02*
D03*
Y26552D02*
D03*
Y26808D02*
D03*
X67485Y26041D02*
D03*
Y26297D02*
D03*
Y26552D02*
D03*
Y26808D02*
D03*
X29101Y36791D02*
D03*
Y37047D02*
D03*
Y37303D02*
D03*
Y37559D02*
D03*
X27447Y36791D02*
D03*
Y37047D02*
D03*
Y37303D02*
D03*
Y37559D02*
D03*
X69138Y36791D02*
D03*
Y37047D02*
D03*
Y37303D02*
D03*
Y37559D02*
D03*
X67485Y36791D02*
D03*
Y37047D02*
D03*
Y37303D02*
D03*
Y37559D02*
D03*
X29101Y47541D02*
D03*
Y47797D02*
D03*
Y48053D02*
D03*
Y48309D02*
D03*
X27447Y47541D02*
D03*
Y47797D02*
D03*
Y48053D02*
D03*
Y48309D02*
D03*
X69138Y47541D02*
D03*
Y47797D02*
D03*
Y48053D02*
D03*
Y48309D02*
D03*
X67485Y47541D02*
D03*
Y47797D02*
D03*
Y48053D02*
D03*
Y48309D02*
D03*
D38*
X27297Y14724D02*
D03*
X26352D02*
D03*
X67334D02*
D03*
X66389D02*
D03*
X27297Y25474D02*
D03*
X26352D02*
D03*
X67334D02*
D03*
X66389D02*
D03*
X27297Y36225D02*
D03*
X26352D02*
D03*
X67334D02*
D03*
X66389D02*
D03*
X27297Y46975D02*
D03*
X26352D02*
D03*
X67334D02*
D03*
X66389D02*
D03*
D39*
X27948Y13888D02*
D03*
X27200D02*
D03*
X27574Y13061D02*
D03*
X26498Y13888D02*
D03*
X25750D02*
D03*
X26124Y13061D02*
D03*
X27948Y12338D02*
D03*
X27200D02*
D03*
X27574Y11511D02*
D03*
X26498Y12338D02*
D03*
X25750D02*
D03*
X26124Y11511D02*
D03*
X27948Y10788D02*
D03*
X27200D02*
D03*
X27574Y9961D02*
D03*
X26498Y10788D02*
D03*
X25750D02*
D03*
X26124Y9961D02*
D03*
X32048Y13938D02*
D03*
X31300D02*
D03*
X31674Y13111D02*
D03*
X32048Y12388D02*
D03*
X31300D02*
D03*
X31674Y11561D02*
D03*
X32048Y10838D02*
D03*
X31300D02*
D03*
X31674Y10011D02*
D03*
X33498Y10838D02*
D03*
X32750D02*
D03*
X33124Y10011D02*
D03*
X33498Y12388D02*
D03*
X32750D02*
D03*
X33124Y11561D02*
D03*
X33498Y13938D02*
D03*
X32750D02*
D03*
X33124Y13111D02*
D03*
X67985Y13888D02*
D03*
X67237D02*
D03*
X67611Y13061D02*
D03*
X66535Y13888D02*
D03*
X65787D02*
D03*
X66161Y13061D02*
D03*
X67985Y12338D02*
D03*
X67237D02*
D03*
X67611Y11511D02*
D03*
X66535Y12338D02*
D03*
X65787D02*
D03*
X66161Y11511D02*
D03*
X67985Y10788D02*
D03*
X67237D02*
D03*
X67611Y9961D02*
D03*
X66535Y10788D02*
D03*
X65787D02*
D03*
X66161Y9961D02*
D03*
X72085Y13938D02*
D03*
X71337D02*
D03*
X71711Y13111D02*
D03*
X72085Y12388D02*
D03*
X71337D02*
D03*
X71711Y11561D02*
D03*
X72085Y10838D02*
D03*
X71337D02*
D03*
X71711Y10011D02*
D03*
X73535Y10838D02*
D03*
X72787D02*
D03*
X73161Y10011D02*
D03*
X73535Y12388D02*
D03*
X72787D02*
D03*
X73161Y11561D02*
D03*
X73535Y13938D02*
D03*
X72787D02*
D03*
X73161Y13111D02*
D03*
X27948Y24638D02*
D03*
X27200D02*
D03*
X27574Y23811D02*
D03*
X26498Y24638D02*
D03*
X25750D02*
D03*
X26124Y23811D02*
D03*
X27948Y23088D02*
D03*
X27200D02*
D03*
X27574Y22261D02*
D03*
X26498Y23088D02*
D03*
X25750D02*
D03*
X26124Y22261D02*
D03*
X27948Y21538D02*
D03*
X27200D02*
D03*
X27574Y20711D02*
D03*
X26498Y21538D02*
D03*
X25750D02*
D03*
X26124Y20711D02*
D03*
X32048Y24688D02*
D03*
X31300D02*
D03*
X31674Y23861D02*
D03*
X32048Y23138D02*
D03*
X31300D02*
D03*
X31674Y22311D02*
D03*
X32048Y21588D02*
D03*
X31300D02*
D03*
X31674Y20761D02*
D03*
X33498Y21588D02*
D03*
X32750D02*
D03*
X33124Y20761D02*
D03*
X33498Y23138D02*
D03*
X32750D02*
D03*
X33124Y22311D02*
D03*
X33498Y24688D02*
D03*
X32750D02*
D03*
X33124Y23861D02*
D03*
X67985Y24638D02*
D03*
X67237D02*
D03*
X67611Y23811D02*
D03*
X66535Y24638D02*
D03*
X65787D02*
D03*
X66161Y23811D02*
D03*
X67985Y23088D02*
D03*
X67237D02*
D03*
X67611Y22261D02*
D03*
X66535Y23088D02*
D03*
X65787D02*
D03*
X66161Y22261D02*
D03*
X67985Y21538D02*
D03*
X67237D02*
D03*
X67611Y20711D02*
D03*
X66535Y21538D02*
D03*
X65787D02*
D03*
X66161Y20711D02*
D03*
X72085Y24688D02*
D03*
X71337D02*
D03*
X71711Y23861D02*
D03*
X72085Y23138D02*
D03*
X71337D02*
D03*
X71711Y22311D02*
D03*
X72085Y21588D02*
D03*
X71337D02*
D03*
X71711Y20761D02*
D03*
X73535Y21588D02*
D03*
X72787D02*
D03*
X73161Y20761D02*
D03*
X73535Y23138D02*
D03*
X72787D02*
D03*
X73161Y22311D02*
D03*
X73535Y24688D02*
D03*
X72787D02*
D03*
X73161Y23861D02*
D03*
X27948Y35388D02*
D03*
X27200D02*
D03*
X27574Y34561D02*
D03*
X26498Y35388D02*
D03*
X25750D02*
D03*
X26124Y34561D02*
D03*
X27948Y33838D02*
D03*
X27200D02*
D03*
X27574Y33011D02*
D03*
X26498Y33838D02*
D03*
X25750D02*
D03*
X26124Y33011D02*
D03*
X27948Y32288D02*
D03*
X27200D02*
D03*
X27574Y31461D02*
D03*
X26498Y32288D02*
D03*
X25750D02*
D03*
X26124Y31461D02*
D03*
X32048Y35438D02*
D03*
X31300D02*
D03*
X31674Y34611D02*
D03*
X32048Y33888D02*
D03*
X31300D02*
D03*
X31674Y33061D02*
D03*
X32048Y32338D02*
D03*
X31300D02*
D03*
X31674Y31511D02*
D03*
X33498Y32338D02*
D03*
X32750D02*
D03*
X33124Y31511D02*
D03*
X33498Y33888D02*
D03*
X32750D02*
D03*
X33124Y33061D02*
D03*
X33498Y35438D02*
D03*
X32750D02*
D03*
X33124Y34611D02*
D03*
X67985Y35388D02*
D03*
X67237D02*
D03*
X67611Y34561D02*
D03*
X66535Y35388D02*
D03*
X65787D02*
D03*
X66161Y34561D02*
D03*
X67985Y33838D02*
D03*
X67237D02*
D03*
X67611Y33011D02*
D03*
X66535Y33838D02*
D03*
X65787D02*
D03*
X66161Y33011D02*
D03*
X67985Y32288D02*
D03*
X67237D02*
D03*
X67611Y31461D02*
D03*
X66535Y32288D02*
D03*
X65787D02*
D03*
X66161Y31461D02*
D03*
X72085Y35438D02*
D03*
X71337D02*
D03*
X71711Y34611D02*
D03*
X72085Y33888D02*
D03*
X71337D02*
D03*
X71711Y33061D02*
D03*
X72085Y32338D02*
D03*
X71337D02*
D03*
X71711Y31511D02*
D03*
X73535Y32338D02*
D03*
X72787D02*
D03*
X73161Y31511D02*
D03*
X73535Y33888D02*
D03*
X72787D02*
D03*
X73161Y33061D02*
D03*
X73535Y35438D02*
D03*
X72787D02*
D03*
X73161Y34611D02*
D03*
X27948Y46138D02*
D03*
X27200D02*
D03*
X27574Y45312D02*
D03*
X26498Y46138D02*
D03*
X25750D02*
D03*
X26124Y45312D02*
D03*
X27948Y44588D02*
D03*
X27200D02*
D03*
X27574Y43762D02*
D03*
X26498Y44588D02*
D03*
X25750D02*
D03*
X26124Y43762D02*
D03*
X27948Y43038D02*
D03*
X27200D02*
D03*
X27574Y42212D02*
D03*
X26498Y43038D02*
D03*
X25750D02*
D03*
X26124Y42212D02*
D03*
X32048Y46188D02*
D03*
X31300D02*
D03*
X31674Y45362D02*
D03*
X32048Y44638D02*
D03*
X31300D02*
D03*
X31674Y43812D02*
D03*
X32048Y43088D02*
D03*
X31300D02*
D03*
X31674Y42262D02*
D03*
X33498Y43088D02*
D03*
X32750D02*
D03*
X33124Y42262D02*
D03*
X33498Y44638D02*
D03*
X32750D02*
D03*
X33124Y43812D02*
D03*
X33498Y46188D02*
D03*
X32750D02*
D03*
X33124Y45362D02*
D03*
X67985Y46138D02*
D03*
X67237D02*
D03*
X67611Y45312D02*
D03*
X66535Y46138D02*
D03*
X65787D02*
D03*
X66161Y45312D02*
D03*
X67985Y44588D02*
D03*
X67237D02*
D03*
X67611Y43762D02*
D03*
X66535Y44588D02*
D03*
X65787D02*
D03*
X66161Y43762D02*
D03*
X67985Y43038D02*
D03*
X67237D02*
D03*
X67611Y42212D02*
D03*
X66535Y43038D02*
D03*
X65787D02*
D03*
X66161Y42212D02*
D03*
X72085Y46188D02*
D03*
X71337D02*
D03*
X71711Y45362D02*
D03*
X72085Y44638D02*
D03*
X71337D02*
D03*
X71711Y43812D02*
D03*
X72085Y43088D02*
D03*
X71337D02*
D03*
X71711Y42262D02*
D03*
X73535Y43088D02*
D03*
X72787D02*
D03*
X73161Y42262D02*
D03*
X73535Y44638D02*
D03*
X72787D02*
D03*
X73161Y43812D02*
D03*
X73535Y46188D02*
D03*
X72787D02*
D03*
X73161Y45362D02*
D03*
D40*
X31429Y15174D02*
D03*
X32019D02*
D03*
X31429Y14624D02*
D03*
X32019D02*
D03*
X30769Y10524D02*
D03*
X30179D02*
D03*
X30769Y9974D02*
D03*
X30179D02*
D03*
X34779Y14374D02*
D03*
X35369D02*
D03*
X38657Y17968D02*
D03*
X38067D02*
D03*
X42519Y16724D02*
D03*
X41929D02*
D03*
X42519Y15924D02*
D03*
X41929D02*
D03*
X41969Y15024D02*
D03*
X41379D02*
D03*
X35229Y12124D02*
D03*
X35819D02*
D03*
X71466Y15174D02*
D03*
X72057D02*
D03*
X71466Y14624D02*
D03*
X72057D02*
D03*
X70807Y10524D02*
D03*
X70216D02*
D03*
X70807Y9974D02*
D03*
X70216D02*
D03*
X74816Y14374D02*
D03*
X75407D02*
D03*
X78695Y17968D02*
D03*
X78104D02*
D03*
X82557Y16724D02*
D03*
X81966D02*
D03*
X82557Y15924D02*
D03*
X81966D02*
D03*
X82007Y15024D02*
D03*
X81416D02*
D03*
X75266Y12124D02*
D03*
X75857D02*
D03*
X31429Y25924D02*
D03*
X32019D02*
D03*
X31429Y25374D02*
D03*
X32019D02*
D03*
X30769Y21274D02*
D03*
X30179D02*
D03*
X30769Y20724D02*
D03*
X30179D02*
D03*
X34779Y25124D02*
D03*
X35369D02*
D03*
X38657Y28719D02*
D03*
X38067D02*
D03*
X42519Y27474D02*
D03*
X41929D02*
D03*
X42519Y26674D02*
D03*
X41929D02*
D03*
X41969Y25774D02*
D03*
X41379D02*
D03*
X35229Y22874D02*
D03*
X35819D02*
D03*
X71466Y25924D02*
D03*
X72057D02*
D03*
X71466Y25374D02*
D03*
X72057D02*
D03*
X70807Y21274D02*
D03*
X70216D02*
D03*
X70807Y20724D02*
D03*
X70216D02*
D03*
X74816Y25124D02*
D03*
X75407D02*
D03*
X78695Y28719D02*
D03*
X78104D02*
D03*
X82557Y27474D02*
D03*
X81966D02*
D03*
X82557Y26674D02*
D03*
X81966D02*
D03*
X82007Y25774D02*
D03*
X81416D02*
D03*
X75266Y22874D02*
D03*
X75857D02*
D03*
X31429Y36675D02*
D03*
X32019D02*
D03*
X31429Y36125D02*
D03*
X32019D02*
D03*
X30769Y32025D02*
D03*
X30179D02*
D03*
X30769Y31475D02*
D03*
X30179D02*
D03*
X34779Y35875D02*
D03*
X35369D02*
D03*
X38657Y39469D02*
D03*
X38067D02*
D03*
X42519Y38225D02*
D03*
X41929D02*
D03*
X42519Y37425D02*
D03*
X41929D02*
D03*
X41969Y36525D02*
D03*
X41379D02*
D03*
X35229Y33625D02*
D03*
X35819D02*
D03*
X71466Y36675D02*
D03*
X72057D02*
D03*
X71466Y36125D02*
D03*
X72057D02*
D03*
X70807Y32025D02*
D03*
X70216D02*
D03*
X70807Y31475D02*
D03*
X70216D02*
D03*
X74816Y35875D02*
D03*
X75407D02*
D03*
X78695Y39469D02*
D03*
X78104D02*
D03*
X82557Y38225D02*
D03*
X81966D02*
D03*
X82557Y37425D02*
D03*
X81966D02*
D03*
X82007Y36525D02*
D03*
X81416D02*
D03*
X75266Y33625D02*
D03*
X75857D02*
D03*
X31429Y47425D02*
D03*
X32019D02*
D03*
X31429Y46875D02*
D03*
X32019D02*
D03*
X30769Y42775D02*
D03*
X30179D02*
D03*
X30769Y42225D02*
D03*
X30179D02*
D03*
X34779Y46625D02*
D03*
X35369D02*
D03*
X38657Y50219D02*
D03*
X38067D02*
D03*
X42519Y48975D02*
D03*
X41929D02*
D03*
X42519Y48175D02*
D03*
X41929D02*
D03*
X41969Y47275D02*
D03*
X41379D02*
D03*
X35229Y44375D02*
D03*
X35819D02*
D03*
X71466Y47425D02*
D03*
X72057D02*
D03*
X71466Y46875D02*
D03*
X72057D02*
D03*
X70807Y42775D02*
D03*
X70216D02*
D03*
X70807Y42225D02*
D03*
X70216D02*
D03*
X74816Y46625D02*
D03*
X75407D02*
D03*
X78695Y50219D02*
D03*
X78104D02*
D03*
X82557Y48975D02*
D03*
X81966D02*
D03*
X82557Y48175D02*
D03*
X81966D02*
D03*
X82007Y47275D02*
D03*
X81416D02*
D03*
X75266Y44375D02*
D03*
X75857D02*
D03*
D41*
X30324Y15129D02*
D03*
Y15719D02*
D03*
X39357Y18064D02*
D03*
Y17473D02*
D03*
X38324Y14679D02*
D03*
Y15269D02*
D03*
X40674Y13429D02*
D03*
Y14019D02*
D03*
X38324Y14269D02*
D03*
Y13679D02*
D03*
X42624Y14029D02*
D03*
Y14619D02*
D03*
X40624Y12429D02*
D03*
Y13019D02*
D03*
X38474Y12529D02*
D03*
Y13119D02*
D03*
X37974Y12819D02*
D03*
Y12229D02*
D03*
X70361Y15129D02*
D03*
Y15719D02*
D03*
X79395Y18064D02*
D03*
Y17473D02*
D03*
X78361Y14679D02*
D03*
Y15269D02*
D03*
X80711Y13429D02*
D03*
Y14019D02*
D03*
X78361Y14269D02*
D03*
Y13679D02*
D03*
X82661Y14029D02*
D03*
Y14619D02*
D03*
X80661Y12429D02*
D03*
Y13019D02*
D03*
X78511Y12529D02*
D03*
Y13119D02*
D03*
X78011Y12819D02*
D03*
Y12229D02*
D03*
X30324Y25879D02*
D03*
Y26470D02*
D03*
X39357Y28814D02*
D03*
Y28223D02*
D03*
X38324Y25429D02*
D03*
Y26020D02*
D03*
X40674Y24179D02*
D03*
Y24770D02*
D03*
X38324Y25020D02*
D03*
Y24429D02*
D03*
X42624Y24779D02*
D03*
Y25370D02*
D03*
X40624Y23179D02*
D03*
Y23770D02*
D03*
X38474Y23279D02*
D03*
Y23870D02*
D03*
X37974Y23570D02*
D03*
Y22979D02*
D03*
X70361Y25879D02*
D03*
Y26470D02*
D03*
X79395Y28814D02*
D03*
Y28223D02*
D03*
X78361Y25429D02*
D03*
Y26020D02*
D03*
X80711Y24179D02*
D03*
Y24770D02*
D03*
X78361Y25020D02*
D03*
Y24429D02*
D03*
X82661Y24779D02*
D03*
Y25370D02*
D03*
X80661Y23179D02*
D03*
Y23770D02*
D03*
X78511Y23279D02*
D03*
Y23870D02*
D03*
X78011Y23570D02*
D03*
Y22979D02*
D03*
X30324Y36629D02*
D03*
Y37220D02*
D03*
X39357Y39564D02*
D03*
Y38974D02*
D03*
X38324Y36179D02*
D03*
Y36770D02*
D03*
X40674Y34929D02*
D03*
Y35520D02*
D03*
X38324Y35770D02*
D03*
Y35179D02*
D03*
X42624Y35529D02*
D03*
Y36120D02*
D03*
X40624Y33929D02*
D03*
Y34520D02*
D03*
X38474Y34029D02*
D03*
Y34620D02*
D03*
X37974Y34320D02*
D03*
Y33729D02*
D03*
X70361Y36629D02*
D03*
Y37220D02*
D03*
X79395Y39564D02*
D03*
Y38974D02*
D03*
X78361Y36179D02*
D03*
Y36770D02*
D03*
X80711Y34929D02*
D03*
Y35520D02*
D03*
X78361Y35770D02*
D03*
Y35179D02*
D03*
X82661Y35529D02*
D03*
Y36120D02*
D03*
X80661Y33929D02*
D03*
Y34520D02*
D03*
X78511Y34029D02*
D03*
Y34620D02*
D03*
X78011Y34320D02*
D03*
Y33729D02*
D03*
X30324Y47380D02*
D03*
Y47970D02*
D03*
X39357Y50314D02*
D03*
Y49724D02*
D03*
X38324Y46930D02*
D03*
Y47520D02*
D03*
X40674Y45680D02*
D03*
Y46270D02*
D03*
X38324Y46520D02*
D03*
Y45930D02*
D03*
X42624Y46280D02*
D03*
Y46870D02*
D03*
X40624Y44680D02*
D03*
Y45270D02*
D03*
X38474Y44780D02*
D03*
Y45370D02*
D03*
X37974Y45070D02*
D03*
Y44480D02*
D03*
X70361Y47380D02*
D03*
Y47970D02*
D03*
X79395Y50314D02*
D03*
Y49724D02*
D03*
X78361Y46930D02*
D03*
Y47520D02*
D03*
X80711Y45680D02*
D03*
Y46270D02*
D03*
X78361Y46520D02*
D03*
Y45930D02*
D03*
X82661Y46280D02*
D03*
Y46870D02*
D03*
X80661Y44680D02*
D03*
Y45270D02*
D03*
X78511Y44780D02*
D03*
Y45370D02*
D03*
X78011Y45070D02*
D03*
Y44480D02*
D03*
D42*
X29191Y13768D02*
D03*
Y14024D02*
D03*
Y14280D02*
D03*
X30057Y13768D02*
D03*
Y14280D02*
D03*
X69228Y13768D02*
D03*
Y14024D02*
D03*
Y14280D02*
D03*
X70095Y13768D02*
D03*
Y14280D02*
D03*
X29191Y24519D02*
D03*
Y24774D02*
D03*
Y25030D02*
D03*
X30057Y24519D02*
D03*
Y25030D02*
D03*
X69228Y24519D02*
D03*
Y24774D02*
D03*
Y25030D02*
D03*
X70095Y24519D02*
D03*
Y25030D02*
D03*
X29191Y35269D02*
D03*
Y35525D02*
D03*
Y35781D02*
D03*
X30057Y35269D02*
D03*
Y35781D02*
D03*
X69228Y35269D02*
D03*
Y35525D02*
D03*
Y35781D02*
D03*
X70095Y35269D02*
D03*
Y35781D02*
D03*
X29191Y46019D02*
D03*
Y46275D02*
D03*
Y46531D02*
D03*
X30057Y46019D02*
D03*
Y46531D02*
D03*
X69228Y46019D02*
D03*
Y46275D02*
D03*
Y46531D02*
D03*
X70095Y46019D02*
D03*
Y46531D02*
D03*
D43*
X29190Y11047D02*
D03*
X29446D02*
D03*
X29702D02*
D03*
X29958D02*
D03*
X29190Y12701D02*
D03*
X29446D02*
D03*
X29702D02*
D03*
X29958D02*
D03*
X69228Y11047D02*
D03*
X69484D02*
D03*
X69739D02*
D03*
X69995D02*
D03*
X69228Y12701D02*
D03*
X69484D02*
D03*
X69739D02*
D03*
X69995D02*
D03*
X29190Y21798D02*
D03*
X29446D02*
D03*
X29702D02*
D03*
X29958D02*
D03*
X29190Y23451D02*
D03*
X29446D02*
D03*
X29702D02*
D03*
X29958D02*
D03*
X69228Y21798D02*
D03*
X69484D02*
D03*
X69739D02*
D03*
X69995D02*
D03*
X69228Y23451D02*
D03*
X69484D02*
D03*
X69739D02*
D03*
X69995D02*
D03*
X29190Y32548D02*
D03*
X29446D02*
D03*
X29702D02*
D03*
X29958D02*
D03*
X29190Y34202D02*
D03*
X29446D02*
D03*
X29702D02*
D03*
X29958D02*
D03*
X69228Y32548D02*
D03*
X69484D02*
D03*
X69739D02*
D03*
X69995D02*
D03*
X69228Y34202D02*
D03*
X69484D02*
D03*
X69739D02*
D03*
X69995D02*
D03*
X29190Y43298D02*
D03*
X29446D02*
D03*
X29702D02*
D03*
X29958D02*
D03*
X29190Y44952D02*
D03*
X29446D02*
D03*
X29702D02*
D03*
X29958D02*
D03*
X69228Y43298D02*
D03*
X69484D02*
D03*
X69739D02*
D03*
X69995D02*
D03*
X69228Y44952D02*
D03*
X69484D02*
D03*
X69739D02*
D03*
X69995D02*
D03*
D44*
X35854Y15424D02*
D03*
Y16274D02*
D03*
X75891Y15424D02*
D03*
Y16274D02*
D03*
X35854Y26174D02*
D03*
Y27024D02*
D03*
X75891Y26174D02*
D03*
Y27024D02*
D03*
X35854Y36925D02*
D03*
Y37775D02*
D03*
X75891Y36925D02*
D03*
Y37775D02*
D03*
X35854Y47675D02*
D03*
Y48525D02*
D03*
X75891Y47675D02*
D03*
Y48525D02*
D03*
D45*
X36789Y15424D02*
D03*
Y16274D02*
D03*
X76826Y15424D02*
D03*
Y16274D02*
D03*
X36789Y26174D02*
D03*
Y27024D02*
D03*
X76826Y26174D02*
D03*
Y27024D02*
D03*
X36789Y36925D02*
D03*
Y37775D02*
D03*
X76826Y36925D02*
D03*
Y37775D02*
D03*
X36789Y47675D02*
D03*
Y48525D02*
D03*
X76826Y47675D02*
D03*
Y48525D02*
D03*
D46*
X34780Y12713D02*
D03*
X34977D02*
D03*
X35174D02*
D03*
X35371D02*
D03*
X35568D02*
D03*
Y13835D02*
D03*
X35371D02*
D03*
X35174D02*
D03*
X34977D02*
D03*
X34780D02*
D03*
X74818Y12713D02*
D03*
X75015D02*
D03*
X75211D02*
D03*
X75408D02*
D03*
X75605D02*
D03*
Y13835D02*
D03*
X75408D02*
D03*
X75211D02*
D03*
X75015D02*
D03*
X74818D02*
D03*
X34780Y23463D02*
D03*
X34977D02*
D03*
X35174D02*
D03*
X35371D02*
D03*
X35568D02*
D03*
Y24585D02*
D03*
X35371D02*
D03*
X35174D02*
D03*
X34977D02*
D03*
X34780D02*
D03*
X74818Y23463D02*
D03*
X75015D02*
D03*
X75211D02*
D03*
X75408D02*
D03*
X75605D02*
D03*
Y24585D02*
D03*
X75408D02*
D03*
X75211D02*
D03*
X75015D02*
D03*
X74818D02*
D03*
X34780Y34214D02*
D03*
X34977D02*
D03*
X35174D02*
D03*
X35371D02*
D03*
X35568D02*
D03*
Y35336D02*
D03*
X35371D02*
D03*
X35174D02*
D03*
X34977D02*
D03*
X34780D02*
D03*
X74818Y34214D02*
D03*
X75015D02*
D03*
X75211D02*
D03*
X75408D02*
D03*
X75605D02*
D03*
Y35336D02*
D03*
X75408D02*
D03*
X75211D02*
D03*
X75015D02*
D03*
X74818D02*
D03*
X34780Y44964D02*
D03*
X34977D02*
D03*
X35174D02*
D03*
X35371D02*
D03*
X35568D02*
D03*
Y46086D02*
D03*
X35371D02*
D03*
X35174D02*
D03*
X34977D02*
D03*
X34780D02*
D03*
X74818Y44964D02*
D03*
X75015D02*
D03*
X75211D02*
D03*
X75408D02*
D03*
X75605D02*
D03*
Y46086D02*
D03*
X75408D02*
D03*
X75211D02*
D03*
X75015D02*
D03*
X74818D02*
D03*
D47*
X35174Y13274D02*
D03*
X75211D02*
D03*
X35174Y24024D02*
D03*
X75211D02*
D03*
X35174Y34775D02*
D03*
X75211D02*
D03*
X35174Y45525D02*
D03*
X75211D02*
D03*
D48*
X39648Y14990D02*
D03*
X39274D02*
D03*
X38900D02*
D03*
Y13958D02*
D03*
X39648D02*
D03*
X79685Y14990D02*
D03*
X79311D02*
D03*
X78937D02*
D03*
Y13958D02*
D03*
X79685D02*
D03*
X39648Y25740D02*
D03*
X39274D02*
D03*
X38900D02*
D03*
Y24709D02*
D03*
X39648D02*
D03*
X79685Y25740D02*
D03*
X79311D02*
D03*
X78937D02*
D03*
Y24709D02*
D03*
X79685D02*
D03*
X39648Y36491D02*
D03*
X39274D02*
D03*
X38900D02*
D03*
Y35459D02*
D03*
X39648D02*
D03*
X79685Y36491D02*
D03*
X79311D02*
D03*
X78937D02*
D03*
Y35459D02*
D03*
X79685D02*
D03*
X39648Y47241D02*
D03*
X39274D02*
D03*
X38900D02*
D03*
Y46209D02*
D03*
X39648D02*
D03*
X79685Y47241D02*
D03*
X79311D02*
D03*
X78937D02*
D03*
Y46209D02*
D03*
X79685D02*
D03*
D49*
X39262Y15950D02*
D03*
X38435Y15576D02*
D03*
Y16324D02*
D03*
X79299Y15950D02*
D03*
X78472Y15576D02*
D03*
Y16324D02*
D03*
X39262Y26700D02*
D03*
X38435Y26326D02*
D03*
Y27074D02*
D03*
X79299Y26700D02*
D03*
X78472Y26326D02*
D03*
Y27074D02*
D03*
X39262Y37451D02*
D03*
X38435Y37077D02*
D03*
Y37825D02*
D03*
X79299Y37451D02*
D03*
X78472Y37077D02*
D03*
Y37825D02*
D03*
X39262Y48201D02*
D03*
X38435Y47827D02*
D03*
Y48575D02*
D03*
X79299Y48201D02*
D03*
X78472Y47827D02*
D03*
Y48575D02*
D03*
D50*
X38041Y17480D02*
D03*
Y17224D02*
D03*
Y16968D02*
D03*
X38907D02*
D03*
Y17224D02*
D03*
Y17480D02*
D03*
X78078D02*
D03*
Y17224D02*
D03*
Y16968D02*
D03*
X78945D02*
D03*
Y17224D02*
D03*
Y17480D02*
D03*
X38041Y28230D02*
D03*
Y27974D02*
D03*
Y27719D02*
D03*
X38907D02*
D03*
Y27974D02*
D03*
Y28230D02*
D03*
X78078D02*
D03*
Y27974D02*
D03*
Y27719D02*
D03*
X78945D02*
D03*
Y27974D02*
D03*
Y28230D02*
D03*
X38041Y38981D02*
D03*
Y38725D02*
D03*
Y38469D02*
D03*
X38907D02*
D03*
Y38725D02*
D03*
Y38981D02*
D03*
X78078D02*
D03*
Y38725D02*
D03*
Y38469D02*
D03*
X78945D02*
D03*
Y38725D02*
D03*
Y38981D02*
D03*
X38041Y49731D02*
D03*
Y49475D02*
D03*
Y49219D02*
D03*
X38907D02*
D03*
Y49475D02*
D03*
Y49731D02*
D03*
X78078D02*
D03*
Y49475D02*
D03*
Y49219D02*
D03*
X78945D02*
D03*
Y49475D02*
D03*
Y49731D02*
D03*
D51*
X38474Y17224D02*
D03*
X78511D02*
D03*
X38474Y27974D02*
D03*
X78511D02*
D03*
X38474Y38725D02*
D03*
X78511D02*
D03*
X38474Y49475D02*
D03*
X78511D02*
D03*
D52*
X40430Y16698D02*
D03*
X39918D02*
D03*
X40174Y15950D02*
D03*
X80467Y16698D02*
D03*
X79956D02*
D03*
X80211Y15950D02*
D03*
X40430Y27448D02*
D03*
X39918D02*
D03*
X40174Y26700D02*
D03*
X80467Y27448D02*
D03*
X79956D02*
D03*
X80211Y26700D02*
D03*
X40430Y38199D02*
D03*
X39918D02*
D03*
X40174Y37451D02*
D03*
X80467Y38199D02*
D03*
X79956D02*
D03*
X80211Y37451D02*
D03*
X40430Y48949D02*
D03*
X39918D02*
D03*
X40174Y48201D02*
D03*
X80467Y48949D02*
D03*
X79956D02*
D03*
X80211Y48201D02*
D03*
D53*
X41530Y16757D02*
D03*
X41274D02*
D03*
X41018D02*
D03*
Y15891D02*
D03*
X41274D02*
D03*
X41530D02*
D03*
X81567Y16757D02*
D03*
X81311D02*
D03*
X81056D02*
D03*
Y15891D02*
D03*
X81311D02*
D03*
X81567D02*
D03*
X41530Y27508D02*
D03*
X41274D02*
D03*
X41018D02*
D03*
Y26641D02*
D03*
X41274D02*
D03*
X41530D02*
D03*
X81567Y27508D02*
D03*
X81311D02*
D03*
X81056D02*
D03*
Y26641D02*
D03*
X81311D02*
D03*
X81567D02*
D03*
X41530Y38258D02*
D03*
X41274D02*
D03*
X41018D02*
D03*
Y37392D02*
D03*
X41274D02*
D03*
X41530D02*
D03*
X81567Y38258D02*
D03*
X81311D02*
D03*
X81056D02*
D03*
Y37392D02*
D03*
X81311D02*
D03*
X81567D02*
D03*
X41530Y49008D02*
D03*
X41274D02*
D03*
X41018D02*
D03*
Y48142D02*
D03*
X41274D02*
D03*
X41530D02*
D03*
X81567Y49008D02*
D03*
X81311D02*
D03*
X81056D02*
D03*
Y48142D02*
D03*
X81311D02*
D03*
X81567D02*
D03*
D54*
X41274Y16324D02*
D03*
X81311D02*
D03*
X41274Y27074D02*
D03*
X81311D02*
D03*
X41274Y37825D02*
D03*
X81311D02*
D03*
X41274Y48575D02*
D03*
X81311D02*
D03*
D55*
X41258Y13548D02*
D03*
Y13174D02*
D03*
Y12800D02*
D03*
X42290D02*
D03*
Y13548D02*
D03*
Y13174D02*
D03*
X81296Y13548D02*
D03*
Y13174D02*
D03*
Y12800D02*
D03*
X82327D02*
D03*
Y13548D02*
D03*
Y13174D02*
D03*
X41258Y24298D02*
D03*
Y23924D02*
D03*
Y23550D02*
D03*
X42290D02*
D03*
Y24298D02*
D03*
Y23924D02*
D03*
X81296Y24298D02*
D03*
Y23924D02*
D03*
Y23550D02*
D03*
X82327D02*
D03*
Y24298D02*
D03*
Y23924D02*
D03*
X41258Y35049D02*
D03*
Y34675D02*
D03*
Y34301D02*
D03*
X42290D02*
D03*
Y35049D02*
D03*
Y34675D02*
D03*
X81296Y35049D02*
D03*
Y34675D02*
D03*
Y34301D02*
D03*
X82327D02*
D03*
Y35049D02*
D03*
Y34675D02*
D03*
X41258Y45799D02*
D03*
Y45425D02*
D03*
Y45051D02*
D03*
X42290D02*
D03*
Y45799D02*
D03*
Y45425D02*
D03*
X81296Y45799D02*
D03*
Y45425D02*
D03*
Y45051D02*
D03*
X82327D02*
D03*
Y45799D02*
D03*
Y45425D02*
D03*
D56*
X38993Y12824D02*
D03*
X40056Y12450D02*
D03*
Y12824D02*
D03*
Y13198D02*
D03*
X38993D02*
D03*
Y12450D02*
D03*
X79030Y12824D02*
D03*
X80093Y12450D02*
D03*
Y12824D02*
D03*
Y13198D02*
D03*
X79030D02*
D03*
Y12450D02*
D03*
X38993Y23574D02*
D03*
X40056Y23200D02*
D03*
Y23574D02*
D03*
Y23948D02*
D03*
X38993D02*
D03*
Y23200D02*
D03*
X79030Y23574D02*
D03*
X80093Y23200D02*
D03*
Y23574D02*
D03*
Y23948D02*
D03*
X79030D02*
D03*
Y23200D02*
D03*
X38993Y34325D02*
D03*
X40056Y33951D02*
D03*
Y34325D02*
D03*
Y34699D02*
D03*
X38993D02*
D03*
Y33951D02*
D03*
X79030Y34325D02*
D03*
X80093Y33951D02*
D03*
Y34325D02*
D03*
Y34699D02*
D03*
X79030D02*
D03*
Y33951D02*
D03*
X38993Y45075D02*
D03*
X40056Y44701D02*
D03*
Y45075D02*
D03*
Y45449D02*
D03*
X38993D02*
D03*
Y44701D02*
D03*
X79030Y45075D02*
D03*
X80093Y44701D02*
D03*
Y45075D02*
D03*
Y45449D02*
D03*
X79030D02*
D03*
Y44701D02*
D03*
D57*
X36574Y13815D02*
D03*
Y12634D02*
D03*
X76611Y13815D02*
D03*
Y12634D02*
D03*
X36574Y24565D02*
D03*
Y23384D02*
D03*
X76611Y24565D02*
D03*
Y23384D02*
D03*
X36574Y35315D02*
D03*
Y34134D02*
D03*
X76611Y35315D02*
D03*
Y34134D02*
D03*
X36574Y46066D02*
D03*
Y44885D02*
D03*
X76611Y46066D02*
D03*
Y44885D02*
D03*
D58*
X42624Y11224D02*
D03*
Y8724D02*
D03*
X40824Y11224D02*
D03*
Y8724D02*
D03*
X39024Y11224D02*
D03*
Y8724D02*
D03*
X37224Y11224D02*
D03*
Y8724D02*
D03*
X35424Y11224D02*
D03*
Y8724D02*
D03*
X82661Y11224D02*
D03*
Y8724D02*
D03*
X80861Y11224D02*
D03*
Y8724D02*
D03*
X79061Y11224D02*
D03*
Y8724D02*
D03*
X77261Y11224D02*
D03*
Y8724D02*
D03*
X75461Y11224D02*
D03*
Y8724D02*
D03*
X42624Y21974D02*
D03*
Y19474D02*
D03*
X40824Y21974D02*
D03*
Y19474D02*
D03*
X39024Y21974D02*
D03*
Y19474D02*
D03*
X37224Y21974D02*
D03*
Y19474D02*
D03*
X35424Y21974D02*
D03*
Y19474D02*
D03*
X82661Y21974D02*
D03*
Y19474D02*
D03*
X80861Y21974D02*
D03*
Y19474D02*
D03*
X79061Y21974D02*
D03*
Y19474D02*
D03*
X77261Y21974D02*
D03*
Y19474D02*
D03*
X75461Y21974D02*
D03*
Y19474D02*
D03*
X42624Y32725D02*
D03*
Y30225D02*
D03*
X40824Y32725D02*
D03*
Y30225D02*
D03*
X39024Y32725D02*
D03*
Y30225D02*
D03*
X37224Y32725D02*
D03*
Y30225D02*
D03*
X35424Y32725D02*
D03*
Y30225D02*
D03*
X82661Y32725D02*
D03*
Y30225D02*
D03*
X80861Y32725D02*
D03*
Y30225D02*
D03*
X79061Y32725D02*
D03*
Y30225D02*
D03*
X77261Y32725D02*
D03*
Y30225D02*
D03*
X75461Y32725D02*
D03*
Y30225D02*
D03*
X42624Y43475D02*
D03*
Y40975D02*
D03*
X40824Y43475D02*
D03*
Y40975D02*
D03*
X39024Y43475D02*
D03*
Y40975D02*
D03*
X37224Y43475D02*
D03*
Y40975D02*
D03*
X35424Y43475D02*
D03*
Y40975D02*
D03*
X82661Y43475D02*
D03*
Y40975D02*
D03*
X80861Y43475D02*
D03*
Y40975D02*
D03*
X79061Y43475D02*
D03*
Y40975D02*
D03*
X77261Y43475D02*
D03*
Y40975D02*
D03*
X75461Y43475D02*
D03*
Y40975D02*
D03*
D59*
X9824Y15146D02*
D03*
Y17874D02*
D03*
X49861Y15146D02*
D03*
Y17874D02*
D03*
X9824Y25896D02*
D03*
Y28624D02*
D03*
X49861Y25896D02*
D03*
Y28624D02*
D03*
X9824Y36646D02*
D03*
Y39375D02*
D03*
X49861Y36646D02*
D03*
Y39375D02*
D03*
X9824Y47397D02*
D03*
Y50125D02*
D03*
X49861Y47397D02*
D03*
Y50125D02*
D03*
D60*
X12383Y17927D02*
D03*
X10887Y15093D02*
D03*
X52421Y17927D02*
D03*
X50924Y15093D02*
D03*
X12383Y28678D02*
D03*
X10887Y25843D02*
D03*
X52421Y28678D02*
D03*
X50924Y25843D02*
D03*
X12383Y39428D02*
D03*
X10887Y36593D02*
D03*
X52421Y39428D02*
D03*
X50924Y36593D02*
D03*
X12383Y50178D02*
D03*
X10887Y47344D02*
D03*
X52421Y50178D02*
D03*
X50924Y47344D02*
D03*
D61*
X22096Y8424D02*
D03*
X18553D02*
D03*
X62133D02*
D03*
X58590D02*
D03*
X22096Y19174D02*
D03*
X18553D02*
D03*
X62133D02*
D03*
X58590D02*
D03*
X22096Y29925D02*
D03*
X18553D02*
D03*
X62133D02*
D03*
X58590D02*
D03*
X22096Y40675D02*
D03*
X18553D02*
D03*
X62133D02*
D03*
X58590D02*
D03*
D62*
X27424Y17857D02*
D03*
Y18191D02*
D03*
X67461Y17857D02*
D03*
Y18191D02*
D03*
X27424Y28607D02*
D03*
Y28942D02*
D03*
X67461Y28607D02*
D03*
Y28942D02*
D03*
X27424Y39357D02*
D03*
Y39692D02*
D03*
X67461Y39357D02*
D03*
Y39692D02*
D03*
X27424Y50108D02*
D03*
Y50442D02*
D03*
X67461Y50108D02*
D03*
Y50442D02*
D03*
D63*
X9191Y10657D02*
D03*
X10648Y8491D02*
D03*
Y10657D02*
D03*
X9191Y8491D02*
D03*
Y11891D02*
D03*
X10648Y14057D02*
D03*
Y11891D02*
D03*
X9191Y14057D02*
D03*
X49228Y10657D02*
D03*
X50685Y8491D02*
D03*
Y10657D02*
D03*
X49228Y8491D02*
D03*
Y11891D02*
D03*
X50685Y14057D02*
D03*
Y11891D02*
D03*
X49228Y14057D02*
D03*
X9191Y21407D02*
D03*
X10648Y19242D02*
D03*
Y21407D02*
D03*
X9191Y19242D02*
D03*
Y22642D02*
D03*
X10648Y24807D02*
D03*
Y22642D02*
D03*
X9191Y24807D02*
D03*
X49228Y21407D02*
D03*
X50685Y19242D02*
D03*
Y21407D02*
D03*
X49228Y19242D02*
D03*
Y22642D02*
D03*
X50685Y24807D02*
D03*
Y22642D02*
D03*
X49228Y24807D02*
D03*
X9191Y32157D02*
D03*
X10648Y29992D02*
D03*
Y32157D02*
D03*
X9191Y29992D02*
D03*
Y33392D02*
D03*
X10648Y35557D02*
D03*
Y33392D02*
D03*
X9191Y35557D02*
D03*
X49228Y32157D02*
D03*
X50685Y29992D02*
D03*
Y32157D02*
D03*
X49228Y29992D02*
D03*
Y33392D02*
D03*
X50685Y35557D02*
D03*
Y33392D02*
D03*
X49228Y35557D02*
D03*
X9191Y42908D02*
D03*
X10648Y40742D02*
D03*
Y42908D02*
D03*
X9191Y40742D02*
D03*
Y44142D02*
D03*
X10648Y46308D02*
D03*
Y44142D02*
D03*
X9191Y46308D02*
D03*
X49228Y42908D02*
D03*
X50685Y40742D02*
D03*
Y42908D02*
D03*
X49228Y40742D02*
D03*
Y44142D02*
D03*
X50685Y46308D02*
D03*
Y44142D02*
D03*
X49228Y46308D02*
D03*
D65*
X13995Y17824D02*
D03*
X16554D02*
D03*
X13995Y16824D02*
D03*
X16554D02*
D03*
X13995Y15824D02*
D03*
X16554D02*
D03*
X13245Y13824D02*
D03*
X15804D02*
D03*
X13245Y12824D02*
D03*
X15804D02*
D03*
X13245Y11824D02*
D03*
X15804D02*
D03*
X13245Y10624D02*
D03*
X15804D02*
D03*
X13245Y9624D02*
D03*
X15804D02*
D03*
X13245Y8624D02*
D03*
X15804D02*
D03*
X54032Y17824D02*
D03*
X56591D02*
D03*
X54032Y16824D02*
D03*
X56591D02*
D03*
X54032Y15824D02*
D03*
X56591D02*
D03*
X53282Y13824D02*
D03*
X55841D02*
D03*
X53282Y12824D02*
D03*
X55841D02*
D03*
X53282Y11824D02*
D03*
X55841D02*
D03*
X53282Y10624D02*
D03*
X55841D02*
D03*
X53282Y9624D02*
D03*
X55841D02*
D03*
X53282Y8624D02*
D03*
X55841D02*
D03*
X13995Y28574D02*
D03*
X16554D02*
D03*
X13995Y27574D02*
D03*
X16554D02*
D03*
X13995Y26574D02*
D03*
X16554D02*
D03*
X13245Y24574D02*
D03*
X15804D02*
D03*
X13245Y23574D02*
D03*
X15804D02*
D03*
X13245Y22574D02*
D03*
X15804D02*
D03*
X13245Y21374D02*
D03*
X15804D02*
D03*
X13245Y20374D02*
D03*
X15804D02*
D03*
X13245Y19374D02*
D03*
X15804D02*
D03*
X54032Y28574D02*
D03*
X56591D02*
D03*
X54032Y27574D02*
D03*
X56591D02*
D03*
X54032Y26574D02*
D03*
X56591D02*
D03*
X53282Y24574D02*
D03*
X55841D02*
D03*
X53282Y23574D02*
D03*
X55841D02*
D03*
X53282Y22574D02*
D03*
X55841D02*
D03*
X53282Y21374D02*
D03*
X55841D02*
D03*
X53282Y20374D02*
D03*
X55841D02*
D03*
X53282Y19374D02*
D03*
X55841D02*
D03*
X13995Y39325D02*
D03*
X16554D02*
D03*
X13995Y38325D02*
D03*
X16554D02*
D03*
X13995Y37325D02*
D03*
X16554D02*
D03*
X13245Y35325D02*
D03*
X15804D02*
D03*
X13245Y34325D02*
D03*
X15804D02*
D03*
X13245Y33325D02*
D03*
X15804D02*
D03*
X13245Y32125D02*
D03*
X15804D02*
D03*
X13245Y31125D02*
D03*
X15804D02*
D03*
X13245Y30125D02*
D03*
X15804D02*
D03*
X54032Y39325D02*
D03*
X56591D02*
D03*
X54032Y38325D02*
D03*
X56591D02*
D03*
X54032Y37325D02*
D03*
X56591D02*
D03*
X53282Y35325D02*
D03*
X55841D02*
D03*
X53282Y34325D02*
D03*
X55841D02*
D03*
X53282Y33325D02*
D03*
X55841D02*
D03*
X53282Y32125D02*
D03*
X55841D02*
D03*
X53282Y31125D02*
D03*
X55841D02*
D03*
X53282Y30125D02*
D03*
X55841D02*
D03*
X13995Y50075D02*
D03*
X16554D02*
D03*
X13995Y49075D02*
D03*
X16554D02*
D03*
X13995Y48075D02*
D03*
X16554D02*
D03*
X13245Y46075D02*
D03*
X15804D02*
D03*
X13245Y45075D02*
D03*
X15804D02*
D03*
X13245Y44075D02*
D03*
X15804D02*
D03*
X13245Y42875D02*
D03*
X15804D02*
D03*
X13245Y41875D02*
D03*
X15804D02*
D03*
X13245Y40875D02*
D03*
X15804D02*
D03*
X54032Y50075D02*
D03*
X56591D02*
D03*
X54032Y49075D02*
D03*
X56591D02*
D03*
X54032Y48075D02*
D03*
X56591D02*
D03*
X53282Y46075D02*
D03*
X55841D02*
D03*
X53282Y45075D02*
D03*
X55841D02*
D03*
X53282Y44075D02*
D03*
X55841D02*
D03*
X53282Y42875D02*
D03*
X55841D02*
D03*
X53282Y41875D02*
D03*
X55841D02*
D03*
X53282Y40875D02*
D03*
X55841D02*
D03*
D66*
X35666Y18060D02*
D03*
X37083D02*
D03*
X35666Y17489D02*
D03*
X37083D02*
D03*
X75703Y18060D02*
D03*
X77120D02*
D03*
X75703Y17489D02*
D03*
X77120D02*
D03*
X35666Y28810D02*
D03*
X37083D02*
D03*
X35666Y28239D02*
D03*
X37083D02*
D03*
X75703Y28810D02*
D03*
X77120D02*
D03*
X75703Y28239D02*
D03*
X77120D02*
D03*
X35666Y39560D02*
D03*
X37083D02*
D03*
X35666Y38989D02*
D03*
X37083D02*
D03*
X75703Y39560D02*
D03*
X77120D02*
D03*
X75703Y38989D02*
D03*
X77120D02*
D03*
X35666Y50311D02*
D03*
X37083D02*
D03*
X35666Y49740D02*
D03*
X37083D02*
D03*
X75703Y50311D02*
D03*
X77120D02*
D03*
X75703Y49740D02*
D03*
X77120D02*
D03*
D67*
X43174Y16124D02*
D03*
Y17724D02*
D03*
X83211Y16124D02*
D03*
Y17724D02*
D03*
X43174Y26874D02*
D03*
Y28474D02*
D03*
X83211Y26874D02*
D03*
Y28474D02*
D03*
X43174Y37625D02*
D03*
Y39225D02*
D03*
X83211Y37625D02*
D03*
Y39225D02*
D03*
X43174Y48375D02*
D03*
Y49975D02*
D03*
X83211Y48375D02*
D03*
Y49975D02*
D03*
M02*
