G04 Layer_Color=8388736*
%FSLAX24Y24*%
%MOIN*%
G70*
G01*
G75*
%ADD68C,0.0100*%
%ADD147C,0.0787*%
D68*
X8300Y6200D02*
X8700D01*
X8500D01*
Y5600D01*
X9000Y6000D02*
X9200D01*
X9300Y5900D01*
Y5600D01*
X9000D01*
X8900Y5700D01*
X9000Y5800D01*
X9300D01*
X9500Y6200D02*
Y5600D01*
X9800D01*
X9899Y5700D01*
Y5800D01*
Y5900D01*
X9800Y6000D01*
X9500D01*
X10099Y5900D02*
X10499D01*
X10699Y5600D02*
Y6200D01*
X10999D01*
X11099Y6100D01*
Y5900D01*
X10999Y5800D01*
X10699D01*
X10899D02*
X11099Y5600D01*
X11399D02*
X11599D01*
X11699Y5700D01*
Y5900D01*
X11599Y6000D01*
X11399D01*
X11299Y5900D01*
Y5700D01*
X11399Y5600D01*
X11899Y6000D02*
Y5700D01*
X11999Y5600D01*
X12299D01*
Y6000D01*
X12599Y6100D02*
Y6000D01*
X12499D01*
X12699D01*
X12599D01*
Y5700D01*
X12699Y5600D01*
X13298D02*
X13098D01*
X12998Y5700D01*
Y5900D01*
X13098Y6000D01*
X13298D01*
X13398Y5900D01*
Y5800D01*
X12998D01*
D147*
X7524Y7424D02*
Y9574D01*
X8174D01*
X7524D02*
X8174D01*
X7524D02*
Y12324D01*
Y12974D01*
X8124D01*
X7524D02*
X8124D01*
X7524D02*
Y16274D01*
X8774D01*
Y16724D01*
X7524D02*
X8774D01*
X7524D02*
Y18924D01*
X44324Y7424D02*
Y18924D01*
X47561Y7424D02*
Y9574D01*
X48211D01*
X47561D02*
X48211D01*
X47561D02*
Y12324D01*
Y12974D01*
X48161D01*
X47561D02*
X48161D01*
X47561D02*
Y16274D01*
X48811D01*
Y16724D01*
X47561D02*
X48811D01*
X47561D02*
Y18924D01*
X84361Y7424D02*
Y18924D01*
X7524Y18174D02*
Y20324D01*
X8174D01*
X7524D02*
X8174D01*
X7524D02*
Y23074D01*
Y23724D01*
X8124D01*
X7524D02*
X8124D01*
X7524D02*
Y27024D01*
X8774D01*
Y27474D01*
X7524D02*
X8774D01*
X7524D02*
Y29674D01*
X44324Y18174D02*
Y29674D01*
X47561Y18174D02*
Y20324D01*
X48211D01*
X47561D02*
X48211D01*
X47561D02*
Y23074D01*
Y23724D01*
X48161D01*
X47561D02*
X48161D01*
X47561D02*
Y27024D01*
X48811D01*
Y27474D01*
X47561D02*
X48811D01*
X47561D02*
Y29674D01*
X84361Y18174D02*
Y29674D01*
X7524Y28925D02*
Y31075D01*
X8174D01*
X7524D02*
X8174D01*
X7524D02*
Y33825D01*
Y34475D01*
X8124D01*
X7524D02*
X8124D01*
X7524D02*
Y37775D01*
X8774D01*
Y38225D01*
X7524D02*
X8774D01*
X7524D02*
Y40425D01*
X44324Y28925D02*
Y40425D01*
X47561Y28925D02*
Y31075D01*
X48211D01*
X47561D02*
X48211D01*
X47561D02*
Y33825D01*
Y34475D01*
X48161D01*
X47561D02*
X48161D01*
X47561D02*
Y37775D01*
X48811D01*
Y38225D01*
X47561D02*
X48811D01*
X47561D02*
Y40425D01*
X84361Y28925D02*
Y40425D01*
X7524Y39675D02*
Y41825D01*
X8174D01*
X7524D02*
X8174D01*
X7524D02*
Y44575D01*
Y45225D01*
X8124D01*
X7524D02*
X8124D01*
X7524D02*
Y48525D01*
X8774D01*
Y48975D01*
X7524D02*
X8774D01*
X7524D02*
Y51175D01*
X44324Y39675D02*
Y51175D01*
X47561Y39675D02*
Y41825D01*
X48211D01*
X47561D02*
X48211D01*
X47561D02*
Y44575D01*
Y45225D01*
X48161D01*
X47561D02*
X48161D01*
X47561D02*
Y48525D01*
X48811D01*
Y48975D01*
X47561D02*
X48811D01*
X47561D02*
Y51175D01*
X84361Y39675D02*
Y51175D01*
M02*
