M48
;Layer_Color=9474304
;FILE_FORMAT=2:4
INCH,LZ
;TYPE=PLATED
T1F00S00C0.0080
T2F00S00C0.0120
T3F00S00C0.0500
T4F00S00C0.0600
;TYPE=NON_PLATED
T5F00S00C0.0276
T6F00S00C0.0390
T7F00S00C0.0512
T8F00S00C0.0591
%
T01
X068661Y010424
X072411Y010024
X071861Y012374
X070861
Y012974
X071111Y013774
X072061Y013574
X072811
X073561
X074611Y013824
X075061Y014374
X075211Y013274
X073961Y015074
Y016474
X073861Y017474
X072861Y017924
X071861Y017574
X071661Y017774
X070861Y017574
X070661Y017374
X070361Y017324
X070611Y014674
X069211Y014524
X068661Y021174
X072411Y020774
X075111Y018174
X076111Y017474
X076726Y01806
X078511Y017224
X079611Y016674
X081311Y016324
X080111Y013474
X067961Y013524
X067261
X066535Y0135
X065761Y013524
X065061Y013324
X064311Y013374
X064284Y013101
X063611Y013274
X063811Y013474
X064311Y013924
Y014224
X063611Y014324
Y014624
Y014924
X063311Y014974
X063011Y015224
X062741Y015545
X062011Y015824
X062161Y016174
X061611Y016224
X061457Y015946
X061211Y015824
X060811
X060961Y015574
X061094Y016592
X060811Y016574
X060461
Y016274
Y017424
X060811Y017624
X060823Y017985
X062911Y018024
X062898Y017611
X063211Y017824
X063761Y018174
X064411Y017674
X064197Y017439
X0629Y016863
X063689Y015451
X064795Y015507
X065711Y015474
X067795Y01529
X067234Y016901
X067094Y017857
X067079Y018191
X066861Y020024
X062561Y020524
X061661
X060261
X059461Y021224
X059111Y021124
X057911Y020874
X055261Y020374
X053861
X054711Y017824
X054611Y016824
X054861Y015124
X055461Y015024
X056439Y014797
X056811Y014724
X057261Y014874
X057739Y014847
X057984Y014547
X057728Y013641
X057295
Y013208
X057728
X057761Y012274
X057561Y012074
X057261
X056411Y011474
X055861Y012124
X055261Y012824
X056411Y013474
X058854Y013566
X058761Y013274
X059211Y012974
X059611Y012874
X059619Y013282
X059663Y013676
X059361Y013574
X058961Y014074
X058811Y014924
X059063Y015222
X059611Y015224
X059911
X059634Y015901
X058756Y016018
X058761Y016324
X058961Y016924
X058411
X058011
X05727Y015633
X057061Y015424
X055961Y017824
X054211Y014074
X053261Y012524
X053861Y009624
X055261
X057911Y010124
Y010524
X058611Y010574
X058761Y010824
X058606Y01108
X058461Y011674
X058661Y011924
X058984Y012097
X059861Y012124
X059761Y011274
X060161Y011174
X060511Y011774
X060811
X061561Y011974
X062347Y011988
X063236Y011999
X063311Y011124
X062661
X062656Y010524
X062561Y009774
X061661
X060261
X059461Y010474
X059111Y010374
X061461Y011124
Y012974
X061061Y013374
X061461Y013774
X060661
Y012974
X062261
Y013774
Y014574
X061461
X060661
X061061Y014174
X061861
Y013374
X063261Y013074
X064606Y01198
X065117Y01198
X065111Y010624
X064611
X064011Y011124
X066011Y010724
X067461
X066861Y009274
X066161Y012674
X067611
X050661Y017874
X041274Y016324
X039574Y016674
X038474Y017224
X040074Y013474
X035174Y013274
X034574Y013824
X035024Y014374
X033924Y015074
Y016474
X033824Y017474
X032824Y017924
X031824Y017574
X031624Y017774
X030824Y017574
X030624Y017374
X030324Y017324
X030574Y014674
X031074Y013774
X030824Y012974
Y012374
X031824
X032024Y013574
X032774
X033524
X032374Y010024
X028624Y010424
X027424Y010724
X025974
X025074Y010624
X024574
X023974Y011124
X023274
X022624
X022618Y010524
X022524Y009774
X021624
X021424Y011124
X021524Y011974
X02231Y011988
X023199Y011999
X023224Y013074
X023574Y013274
X023774Y013474
X024274Y013374
X024247Y013101
X024274Y013924
Y014224
X023574Y014324
Y014624
Y014924
X023274Y014974
X022974Y015224
X022704Y015545
X021974Y015824
X022124Y016174
X021574Y016224
X02142Y015946
X021424Y014574
Y013774
Y012974
X022224
Y013774
Y014574
X021824Y014174
Y013374
X025024Y013324
X025724Y013524
X026498Y0135
X027224Y013524
X027924
X027574Y012674
X026124
X02508Y01198
X024568Y01198
X024757Y015507
X025674Y015474
X023651Y015451
X022863Y016863
X022861Y017611
X022874Y018024
X023174Y017824
X023724Y018174
X024374Y017674
X024159Y017439
X027057Y017857
X027041Y018191
X027197Y016901
X027758Y01529
X029174Y014524
X028624Y021174
X026824Y020024
X022524Y020524
X021624
X032374Y020774
X035074Y018174
X036074Y017474
X036689Y01806
X026824Y009274
X020224Y009774
X019424Y010474
X019074Y010374
X018574Y010574
X018724Y010824
X018568Y01108
X018424Y011674
X018624Y011924
X018947Y012097
X019824Y012124
X019724Y011274
X020124Y011174
X020474Y011774
X020774
X020624Y012974
X021024Y013374
X020624Y013774
Y014574
X021024Y014174
X020924Y015574
X020774Y015824
X021174
X021056Y016592
X020774Y016574
X020424
Y016274
Y017424
X020774Y017624
X020785Y017985
X018924Y016924
X018374
X017974
X018724Y016324
X018718Y016018
X019597Y015901
X019574Y015224
X019874
X019026Y015222
X018774Y014924
X018924Y014074
X018816Y013566
X018724Y013274
X019174Y012974
X019574Y012874
X019582Y013282
X019626Y013676
X019324Y013574
X017691Y013641
X017258
Y013208
X017691
X017724Y012274
X017524Y012074
X017224
X016374Y011474
X015824Y012124
X015224Y012824
X016374Y013474
X016401Y014797
X016774Y014724
X017224Y014874
X017701Y014847
X017947Y014547
X017024Y015424
X017233Y015633
X015424Y015024
X014824Y015124
X014174Y014074
X013224Y012524
X013824Y009624
X015224
X017874Y010124
Y010524
X015924Y017824
X014674
X014574Y016824
X015224Y020374
X013824
X017874Y020874
X019074Y021124
X019424Y021224
X020224Y020524
X010624Y017874
X013224Y023274
X015224Y023574
X015824Y022874
X016374Y022224
X017224Y022824
X017524
X017724Y023024
X017691Y023958
Y024391
X017258
Y023958
X016374Y024224
X016401Y025547
X016774Y025474
X017224Y025624
X017701Y025597
X017947Y025297
X018774Y025674
X019026Y025972
X019574Y025974
X019874
X019597Y026652
X018718Y026769
X018724Y027074
X018924Y027674
X018374
X017974
X017233Y026383
X017024Y026174
X015424Y025774
X014824Y025874
X014174Y024824
X014574Y027574
X014674Y028574
X015924
X015224Y031125
X013824
X013224Y034025
X015224Y034325
X015824Y033625
X016374Y032975
X017224Y033575
X017524
X017724Y033775
X017691Y034708
Y035141
X017258
Y034708
X016374Y034975
X016401Y036298
X016774Y036225
X017224Y036375
X017701Y036348
X017947Y036047
X018774Y036425
X019026Y036723
X019574Y036725
X019874
X020624Y036075
Y035275
X021024Y034875
X020624Y034475
X019574Y034375
X019582Y034783
X019626Y035176
X019324Y035075
X018816Y035067
X018724Y034775
X019174Y034475
X018947Y033598
X018624Y033425
X018424Y033175
X018568Y032581
X018724Y032325
X018574Y032075
X019074Y031875
X019424Y031975
X019724Y032775
X020124Y032675
X020474Y033275
X020774
X019824Y033625
X020224Y031275
X017874Y031625
Y032025
X018924Y035575
X021024Y035675
X015424Y036525
X014824Y036625
X014174Y035575
X010624Y028624
X020424Y028174
X020774Y028374
X020785Y028735
X020774Y027324
X021056Y027342
X020424Y027324
Y027024
X020774Y026574
X020924Y026324
X021174Y026574
X020624Y025324
Y024524
X021024Y024124
X020624Y023724
X019574Y023624
X019582Y024032
X019626Y024426
X019324Y024324
X018816Y024317
X018724Y024024
X019174Y023724
X018947Y022847
X018624Y022674
X018424Y022424
X018568Y02183
X018724Y021574
X018574Y021324
X017874Y021274
X019724Y022024
X020124Y021924
X020474Y022524
X020774
X019824Y022874
X018924Y024824
X021024Y024924
X021424Y024524
Y023724
X022224
Y024524
Y025324
X021424
X021824Y024924
Y024124
X021524Y022724
X02231Y022739
X023199Y022749
X023274Y021874
X022624
X022618Y021274
X021424Y021874
X023974
X024574Y021374
X025074
X025974Y021474
X027424
X027574Y023424
X027924Y024274
X027224
X026498Y02425
X025724Y024274
X025024Y024074
X024274Y024124
X024247Y023852
X023574Y024024
X023774Y024224
X024274Y024674
Y024974
X023574Y025074
Y025374
Y025674
X023274Y025724
X022974Y025974
X022704Y026295
X021974Y026574
X022124Y026924
X021574Y026974
X02142Y026696
X022863Y027613
X022861Y028361
X022874Y028774
X023174Y028574
X023724Y028924
X024374Y028424
X024159Y028189
X023651Y026202
X024757Y026258
X025674Y026224
X027758Y026041
X027197Y027652
X027057Y028607
X027041Y028942
X026824Y030775
X027424Y032225
X025974
X025074Y032125
X024574
X023974Y032625
X023274
X022624
X022618Y032025
X022524Y031275
X021624
X021424Y032625
X021524Y033475
X02231Y033489
X023199Y0335
X023224Y034575
X023574Y034775
X023774Y034975
X024274Y034875
X024247Y034602
X024274Y035425
Y035725
X023574Y035825
Y036125
Y036425
X023274Y036475
X022974Y036725
X022224Y036075
X021424
Y035275
Y034475
X022224
Y035275
X021824Y034875
Y035675
X025024Y034825
X025724Y035025
X026498Y035001
X027224Y035025
X027924
X027574Y034175
X026124
X02508Y033481
X024568Y033481
X028624Y031925
X032374Y031525
X031824Y033875
X030824
Y034475
X031074Y035275
X032024Y035075
X032774
X033524
X034574Y035325
X035024Y035875
X035174Y034775
X033924Y036575
X030574Y036175
X029174Y036025
X027758Y036791
X030324Y028074
X030624Y028124
X030824Y028324
X031824
X031624Y028524
X032824Y028674
X033824Y028224
X033924Y027224
Y025824
X035024Y025124
X034574Y024574
X035174Y024024
X033524Y024324
X032774
X032024
X031074Y024524
X030824Y023724
Y023124
X031824
X030574Y025424
X029174Y025274
X026124Y023424
X02508Y02273
X024568Y02273
X023224Y023824
X035074Y028924
X036074Y028224
X036689Y02881
X038474Y027974
X039574Y027424
X041274Y027074
X040074Y024224
Y034975
X050661Y028624
X054711Y028574
X054611Y027574
X054861Y025874
X055461Y025774
X056439Y025547
X056811Y025474
X057261Y025624
X057739Y025597
X057984Y025297
X057728Y024391
X057295
Y023958
X057728
X057761Y023024
X057561Y022824
X057261
X056411Y022224
X055861Y022874
X055261Y023574
X056411Y024224
X058854Y024317
X058761Y024024
X059211Y023724
X059611Y023624
X059619Y024032
X059663Y024426
X059361Y024324
X058961Y024824
X058811Y025674
X059063Y025972
X059611Y025974
X059911
X059634Y026652
X058756Y026769
X058761Y027074
X058961Y027674
X058411
X058011
X05727Y026383
X057061Y026174
X055961Y028574
X055261Y031125
X053861
X053261Y034025
X055261Y034325
X055861Y033625
X056411Y032975
X057261Y033575
X057561
X057761Y033775
X057728Y034708
Y035141
X057295
Y034708
X056411Y034975
X056439Y036298
X056811Y036225
X057261Y036375
X057739Y036348
X057984Y036047
X058811Y036425
X059063Y036723
X059611Y036725
X059911
X060661Y036075
Y035275
X061061Y034875
X061461Y035275
Y034475
X060661
X059611Y034375
X059619Y034783
X059663Y035176
X059361Y035075
X058854Y035067
X058761Y034775
X059211Y034475
X058984Y033598
X058661Y033425
X058461Y033175
X058606Y032581
X058761Y032325
X058611Y032075
X059111Y031875
X059461Y031975
X059761Y032775
X060161Y032675
X060511Y033275
X060811
X061561Y033475
X062347Y033489
X063236Y0335
X063311Y032625
X062661
X062656Y032025
X062561Y031275
X061661
X060261
X061461Y032625
X064011
X064611Y032125
X065111
X066011Y032225
X067461
X066861Y030775
X067079Y028942
X067094Y028607
X067234Y027652
X067795Y026041
X067961Y024274
X067261
X066535Y02425
X065761Y024274
X065061Y024074
X064311Y024124
X064284Y023852
X063611Y024024
X063811Y024224
X064311Y024674
Y024974
X063611Y025074
Y025374
Y025674
X063311Y025724
X063011Y025974
X062741Y026295
X062011Y026574
X062161Y026924
X061611Y026974
X061457Y026696
X061211Y026574
X060811
X060961Y026324
X061094Y027342
X060811Y027324
X060461
Y027024
Y028174
X060811Y028374
X060823Y028735
X062911Y028774
X062898Y028361
X063211Y028574
X063761Y028924
X064411Y028424
X064197Y028189
X0629Y027613
X063689Y026202
X064795Y026258
X065711Y026224
X066161Y023424
X067611
X067461Y021474
X066011
X065111Y021374
X064611
X064011Y021874
X063311
X062661
X062656Y021274
X062347Y022739
X061561Y022724
X061461Y021874
X060811Y022524
X060511
X060161Y021924
X059761Y022024
X059861Y022874
X058984Y022847
X058661Y022674
X058461Y022424
X058606Y02183
X058761Y021574
X058611Y021324
X057911Y021274
X060661Y023724
X061061Y024124
X061461Y024524
Y023724
X062261
Y024524
Y025324
X061461
X060661
Y024524
X061061Y024924
X061861
Y024124
X063261Y023824
X063236Y022749
X064606Y02273
X065117Y02273
Y033481
X064606Y033481
X064284Y034602
X064311Y034875
Y035425
Y035725
X063611Y035825
Y036125
Y036425
X063311Y036475
X063011Y036725
X062261Y036075
X061461
X061061Y035675
X061861
X062261Y035275
Y034475
X061861Y034875
X063261Y034575
X063611Y034775
X063811Y034975
X065061Y034825
X065761Y035025
X066535Y035001
X067261Y035025
X067961
X067611Y034175
X066161
X067795Y036791
X058961Y035575
X059861Y033625
X057911Y032025
Y031625
X055461Y036525
X054861Y036625
X054211Y035575
Y024824
X053261Y023274
X070861Y023124
Y023724
X071111Y024524
X072061Y024324
X072811
X073561
X074611Y024574
X075061Y025124
X075211Y024024
X073961Y025824
Y027224
X073861Y028224
X072861Y028674
X071861Y028324
X071661Y028524
X070861Y028324
X070661Y028124
X070361Y028074
X070611Y025424
X069211Y025274
X071861Y023124
X072411Y031525
X071861Y033875
X070861
Y034475
X071111Y035275
X072061Y035075
X072811
X073561
X074611Y035325
X075061Y035875
X075211Y034775
X073961Y036575
X070611Y036175
X069211Y036025
X068661Y031925
X075111Y028924
X076111Y028224
X076726Y02881
X078511Y027974
X079611Y027424
X081311Y027074
X080111Y024224
Y034975
X079611Y038175
X078511Y038725
X076726Y03956
X076111Y038975
X075111Y039675
X073861Y038975
X073961Y037975
X072861Y039425
X071861Y039075
X071661Y039275
X070861Y039075
X070661Y038875
X070361Y038825
X072411Y042275
X071861Y044625
X070861
Y045225
X071111Y046025
X072061Y045825
X072811
X073561
X074611Y046075
X075061Y046625
X075211Y045525
X073961Y047325
Y048725
X073861Y049725
X072861Y050175
X071861Y049825
X071661Y050025
X070861Y049825
X070661Y049625
X070361Y049575
X070611Y046925
X069211Y046775
X068661Y042675
X075111Y050425
X076111Y049725
X076726Y050311
X078511Y049475
X079611Y048925
X081311Y048575
X080111Y045725
X081311Y037825
X067234Y038402
X067094Y039357
X067079Y039692
X066861Y041525
X067461Y042975
X066011
X065111Y042875
X064611
X064011Y043375
X063311
X062661
X062656Y042775
X062561Y042025
X061661
X060261
X059461Y042725
X059111Y042625
X058611Y042825
X058761Y043075
X058606Y043331
X058461Y043925
X058661Y044175
X058984Y044348
X059861Y044375
X059761Y043525
X060161Y043425
X060511Y044025
X060811
X061561Y044225
X062347Y044239
X063236Y04425
X063261Y045325
X063611Y045525
X063811Y045725
X064311Y045625
X064284Y045352
X064311Y046175
Y046475
X063611Y046575
Y046875
Y047175
X063311Y047225
X063011Y047475
X062741Y047796
X062011Y048075
X062161Y048425
X061611Y048475
X061457Y048197
X061211Y048075
X060811
X060961Y047825
X061094Y048843
X060811Y048825
X060461
Y048525
Y049675
X060811Y049875
X060823Y050236
X062911Y050275
X062898Y049862
X063211Y050075
X063761Y050425
X064411Y049925
X064197Y04969
X0629Y049114
X063689Y047702
X064795Y047758
X065711Y047725
X065761Y045775
X066535Y045751
X067261Y045775
X067961
X067611Y044925
X066161
X065117Y044231
X064606Y044231
X065061Y045575
X062261Y045225
X061461
X061061Y045625
X061461Y046025
X060661
Y045225
X059611Y045125
X059619Y045533
X059663Y045927
X059361Y045825
X058854Y045817
X058761Y045525
X059211Y045225
X058961Y046325
X058811Y047175
X059063Y047473
X059611Y047475
X059911
X059634Y048152
X058756Y048269
X058761Y048575
X058961Y049175
X058411
X058011
X05727Y047884
X057061Y047675
X057261Y047125
X057739Y047098
X057984Y046798
X057728Y045892
X057295
Y045459
X057728
X057761Y044525
X057561Y044325
X057261
X056411Y043725
X055861Y044375
X055261Y045075
X056411Y045725
X056439Y047048
X056811Y046975
X055461Y047275
X054861Y047375
X054211Y046325
X053261Y044775
X053861Y041875
X055261
X054711Y039325
X054611Y038325
X055961Y039325
X058011Y038425
X058411
X058961
X058761Y037825
X058756Y037519
X059634Y037402
X060461Y037775
Y038075
X060811
X061094Y038092
X061211Y037325
X061457Y037447
X061611Y037725
X062161Y037675
X062011Y037325
X062741Y037045
X063689Y036952
X064795Y037008
X065711Y036975
X064197Y03894
X064411Y039175
X063761Y039675
X063211Y039325
X062911Y039525
X062898Y039112
X0629Y038364
X060811Y039125
X060823Y039486
X060461Y038925
X060811Y037325
X060961Y037075
X05727Y037134
X057061Y036925
X057911Y042375
Y042775
X061461Y043375
X061861Y045625
X062261Y046025
Y046825
X061461
X060661
X061061Y046425
X061861
X067795Y047541
X067234Y049152
X067094Y050108
X067079Y050442
X055961Y050075
X054711
X054611Y049075
X050661Y050125
Y039375
X041274Y037825
X039574Y038175
X038474Y038725
X040074Y045725
X039574Y048925
X038474Y049475
X041274Y048575
X036689Y050311
X036074Y049725
X035074Y050425
X033824Y049725
X033924Y048725
Y047325
X035024Y046625
X034574Y046075
X035174Y045525
X033524Y045825
X032774
X032024
X031074Y046025
X030824Y045225
Y044625
X031824
X032374Y042275
X032824Y039425
X031824Y039075
X031624Y039275
X030824Y039075
X030624Y038875
X030324Y038825
X027197Y038402
X027057Y039357
X027041Y039692
X026824Y041525
X027424Y042975
X025974
X025074Y042875
X024574
X023974Y043375
X023274
X022624
X022618Y042775
X022524Y042025
X021624
X021424Y043375
X021524Y044225
X02231Y044239
X023199Y04425
X023224Y045325
X023574Y045525
X023774Y045725
X024274Y045625
X024247Y045352
X024274Y046175
Y046475
X023574Y046575
Y046875
Y047175
X023274Y047225
X022974Y047475
X022704Y047796
X021974Y048075
X022124Y048425
X021574Y048475
X02142Y048197
X021424Y046825
Y046025
Y045225
X022224
Y046025
Y046825
X021824Y046425
Y045625
X025024Y045575
X025724Y045775
X026498Y045751
X027224Y045775
X027924
X027574Y044925
X026124
X02508Y044231
X024568Y044231
X024757Y047758
X025674Y047725
X023651Y047702
X022863Y049114
X022861Y049862
X022874Y050275
X023174Y050075
X023724Y050425
X024374Y049925
X024159Y04969
X027057Y050108
X027041Y050442
X027197Y049152
X027758Y047541
X029174Y046775
X030574Y046925
X030624Y049625
X030324Y049575
X030824Y049825
X031824
X031624Y050025
X032824Y050175
X028624Y042675
X024374Y039175
X024159Y03894
X023724Y039675
X023174Y039325
X022874Y039525
X022861Y039112
X022863Y038364
X022124Y037675
X021974Y037325
X02142Y037447
X021574Y037725
X022704Y037045
X023651Y036952
X024757Y037008
X025674Y036975
X033924Y037975
X033824Y038975
X035074Y039675
X036074Y038975
X036689Y03956
X020785Y039486
X020774Y039125
X020424Y038925
Y038075
Y037775
X020774Y038075
X021056Y038092
X021174Y037325
X020774
X020924Y037075
X019597Y037402
X018718Y037519
X018724Y037825
X018924Y038425
X018374
X017974
X017233Y037134
X017024Y036925
X015924Y039325
X014674
X014574Y038325
X015224Y041875
X013824
X013224Y044775
X015224Y045075
X015824Y044375
X016374Y043725
X017224Y044325
X017524
X017724Y044525
X017691Y045459
Y045892
X017258
Y045459
X016374Y045725
X016401Y047048
X016774Y046975
X017224Y047125
X017701Y047098
X017947Y046798
X018774Y047175
X019026Y047473
X019574Y047475
X019874
X019597Y048152
X018718Y048269
X018724Y048575
X018924Y049175
X018374
X017974
X017233Y047884
X017024Y047675
X015424Y047275
X014824Y047375
X014174Y046325
X014574Y049075
X014674Y050075
X015924
X020424Y049675
X020774Y049875
X020785Y050236
X020774Y048825
X021056Y048843
X020424Y048825
Y048525
X020774Y048075
X020924Y047825
X021174Y048075
X020624Y046825
Y046025
X021024Y045625
X020624Y045225
X019574Y045125
X019582Y045533
X019626Y045927
X019324Y045825
X018816Y045817
X018724Y045525
X019174Y045225
X018947Y044348
X018624Y044175
X018424Y043925
X018568Y043331
X018724Y043075
X018574Y042825
X019074Y042625
X019424Y042725
X019724Y043525
X020124Y043425
X020474Y044025
X020774
X019824Y044375
X020224Y042025
X017874Y042375
Y042775
X018924Y046325
X021024Y046425
X010624Y050125
Y039375
T02
X070561Y009974
X069761Y012224
X069011Y012724
X068811Y012974
X069911Y013474
X070561
X069561Y014674
X068611Y015274
X073211Y015324
X073161Y014824
X074961Y014874
X075361Y014774
X076311Y014574
X077997Y014679
X078461Y015924
X078861Y015574
X079292Y015374
X079245Y016968
X078995Y017968
X078411Y017974
X077795Y016968
X080361Y017274
X080811Y017724
X081711
X081261Y017274
X080811Y016774
X082561Y017074
X083261Y017124
X083211Y015524
X083311Y014974
X082661Y014874
X082242Y015024
X082561Y015574
X082492Y014324
X083011Y014024
X082692Y013174
X082311Y012524
X081292
X080642Y012774
X080692Y013674
X081142Y014324
X077992Y012474
X077261Y009274
X075461
Y010374
X079061Y009274
X080861
X082661
X082811Y009624
X082711Y010624
X082661Y020024
X082811Y020374
X080861Y020024
X079061
X077261
X075461
Y021124
X075Y017247
X075511Y016274
X074561Y015774
X073161Y016674
X073211Y017724
X070561Y020724
X059611Y017024
X059261Y016724
X056011Y016824
X052861Y017924
X051461Y015074
X049411Y015174
X048661Y014074
Y010674
X049961Y011874
X051461
X051794Y010657
X042674Y010624
X042774Y009624
X042624Y009274
X040824
X039024
X037224
X037955Y012474
X037959Y014679
X038424Y015924
X038824Y015574
X039255Y015374
X039207Y016968
X038957Y017968
X038374Y017974
X037757Y016968
X040324Y017274
X040774Y017724
X041674
X041224Y017274
X040774Y016774
X042524Y017074
X043224Y017124
X043174Y015524
X043274Y014974
X042624Y014874
X042205Y015024
X042524Y015574
X042455Y014324
X042974Y014024
X042655Y013174
X042274Y012524
X041255
X040605Y012774
X040655Y013674
X041105Y014324
X040824Y020024
X042624
X042774Y020374
X039024Y020024
X037224
X035424
Y021124
X034963Y017247
X035474Y016274
X034524Y015774
X034924Y014874
X035324Y014774
X036274Y014574
X033124Y014824
X033174Y015324
X033124Y016674
X033174Y017724
X030524Y020724
X029524Y014674
X029874Y013474
X030524
X029724Y012224
X028974Y012724
X028774Y012974
X028574Y015274
X030524Y009974
X035424Y010374
Y009274
X019574Y017024
X019224Y016724
X015974Y016824
X012824Y017924
X011424Y015074
X009374Y015174
X008624Y014074
Y010674
X009924Y011874
X011424
X011757Y010657
Y021407
X011424Y022624
X009924
X008624Y021424
Y024824
X009374Y025924
X011424Y025824
X012824Y028674
X015974Y027574
X019224Y027474
X019574Y027774
X011757Y032157
X011424Y033375
X009924
X008624Y032175
Y035575
X009374Y036675
X011424Y036575
X028574Y036775
X029524Y036175
X029874Y034975
X030524
X029724Y033725
X028974Y034225
X028774Y034475
X030524Y031475
X035424Y031875
Y030775
X034963Y027997
X035474Y027024
X034524Y026524
X034924Y025624
X035324Y025524
X036274Y025324
X033124Y025574
X033174Y026074
X033124Y027424
X033174Y028474
X029524Y025424
X029874Y024224
X030524
X029724Y022974
X028974Y023474
X028774Y023724
X028574Y026024
X033124Y036325
X033174Y036825
X034924Y036375
X035324Y036275
X036274Y036075
X037959Y036179
X037955Y033975
X040605Y034275
X041255Y034025
X042274
X042655Y034675
X042974Y035525
X042455Y035825
X042624Y036375
X042205Y036525
X043274Y036475
X041105Y035825
X040655Y035175
X040824Y030775
X042624
X042774Y031125
X042674Y032125
X042524Y027824
X043224Y027874
X043174Y026274
X043274Y025724
X042624Y025624
X042205Y025774
X042524Y026324
X042455Y025074
X042974Y024774
X042655Y023924
X042274Y023274
X041255
X040605Y023524
X040655Y024424
X041105Y025074
X040774Y027524
Y028474
X041674
X041224Y028024
X040324
X039207Y027719
X038957Y028719
X038374Y028724
X037757Y027719
X038424Y026674
X038824Y026324
X039255Y026124
X037959Y025429
X037955Y023224
X042674Y021374
X048661Y021424
X049961Y022624
X051461
X051794Y021407
X051461Y025824
X049411Y025924
X048661Y024824
Y032175
X049961Y033375
X051461
X051794Y032157
X051461Y036575
X049411Y036675
X048661Y035575
X039024Y030775
X037224
X052861Y028674
X056011Y027574
X059261Y027474
X059611Y027774
X068611Y026024
X069561Y025424
X069911Y024224
X070561
X069761Y022974
X069011Y023474
X068811Y023724
X073161Y025574
X073211Y026074
X073161Y027424
X073211Y028474
X075Y027997
X075511Y027024
X074561Y026524
X074961Y025624
X075361Y025524
X076311Y025324
X077997Y025429
X078461Y026674
X078861Y026324
X079292Y026124
X079245Y027719
X078995Y028719
X078411Y028724
X077795Y027719
X080361Y028024
X080811Y028474
X081711
X081261Y028024
X080811Y027524
X082561Y027824
X083261Y027874
X083211Y026274
X083311Y025724
X082661Y025624
X082242Y025774
X082561Y026324
X082492Y025074
X083011Y024774
X082692Y023924
X082311Y023274
X081292
X080642Y023524
X080692Y024424
X081142Y025074
X077992Y023224
X082711Y021374
X082661Y030775
X082811Y031125
X082711Y032125
X082311Y034025
X081292
X080642Y034275
X080692Y035175
X081142Y035825
X082492
X082661Y036375
X082242Y036525
X083311Y036475
X083011Y035525
X082692Y034675
X077992Y033975
X077997Y036179
X076311Y036075
X075361Y036275
X074961Y036375
X073161Y036325
X073211Y036825
X069561Y036175
X069911Y034975
X070561
X069761Y033725
X069011Y034225
X068811Y034475
X068611Y036775
X070561Y031475
X075461Y031875
Y030775
X077261
X079061
X080861
X080811Y038275
Y039225
X081711
X081261Y038775
X080361
X079245Y038469
X078995Y039469
X078411Y039475
X077795Y038469
X078461Y037425
X078861Y037075
X079292Y036875
X082561Y037075
X083211Y037025
X083261Y038625
X082561Y038575
X082661Y041525
X082811Y041875
X082711Y042875
X082311Y044775
X081292
X080642Y045025
X080692Y045925
X081142Y046575
X082492
X082661Y047125
X082242Y047275
X082561Y047825
X083211Y047775
X083311Y047225
X083011Y046275
X082692Y045425
X082561Y049325
X083261Y049375
X081711Y049975
X080811
X080361Y049525
X081261
X080811Y049025
X079245Y049219
X078995Y050219
X078411Y050225
X077795Y049219
X078461Y048175
X078861Y047825
X079292Y047625
X077997Y04693
X076311Y046825
X075361Y047025
X074961Y047125
X074561Y048025
X075511Y048525
X075Y049498
X073211Y049975
X073161Y048925
X073211Y047575
X073161Y047075
X069561Y046925
X069911Y045725
X070561
X069761Y044475
X069011Y044975
X068811Y045225
X068611Y047525
X070561Y042225
X075461Y042625
Y041525
X077261
X079061
X080861
X077992Y044725
X075Y038748
X075511Y037775
X074561Y037275
X073161Y038175
X073211Y039225
X059611Y038525
X059261Y038225
X056011Y038325
X052861Y039425
Y050175
X056011Y049075
X059261Y048975
X059611Y049275
X051461Y047325
X049411Y047425
X048661Y046325
Y042925
X049961Y044125
X051461
X051794Y042908
X042674Y042875
X042774Y041875
X042624Y041525
X040824
X039024
X037224
X038374Y039475
X038957Y039469
X039207Y038469
X040324Y038775
X040774Y039225
X041674
X041224Y038775
X040774Y038275
X042524Y038575
X043224Y038625
X043174Y037025
X042524Y037075
X039255Y036875
X038824Y037075
X038424Y037425
X037757Y038469
X037955Y044725
X037959Y04693
X038424Y048175
X038824Y047825
X039255Y047625
X039207Y049219
X038957Y050219
X038374Y050225
X037757Y049219
X040324Y049525
X040774Y049975
X041674
X041224Y049525
X040774Y049025
X042524Y049325
X043224Y049375
X043174Y047775
X043274Y047225
X042624Y047125
X042205Y047275
X042524Y047825
X042455Y046575
X042974Y046275
X042655Y045425
X042274Y044775
X041255
X040605Y045025
X040655Y045925
X041105Y046575
X036274Y046825
X035324Y047025
X034924Y047125
X034524Y048025
X035474Y048525
X034963Y049498
X033174Y049975
X033124Y048925
X033174Y047575
X033124Y047075
X029524Y046925
X029874Y045725
X030524
X029724Y044475
X028974Y044975
X028774Y045225
X028574Y047525
X030524Y042225
X035424Y042625
Y041525
X034963Y038748
X035474Y037775
X034524Y037275
X033124Y038175
X033174Y039225
X019574Y038525
X019224Y038225
X015974Y038325
X012824Y039425
X011757Y042908
X011424Y044125
X009924
X008624Y042925
Y046325
X009374Y047425
X011424Y047325
X012824Y050175
X015974Y049075
X019224Y048975
X019574Y049275
T03
X069461Y009224
Y019974
X029424
Y009224
Y030725
X069461
Y041475
X029424
T04
X073561Y009224
Y019974
X065361
Y009224
X033524
X025324
Y019974
X033524
Y030725
X025324
X065361
X073561
Y041475
X065361
X033524
X025324
T05
X076411Y01742
Y018128
X036374
Y01742
Y02817
Y028879
X076411
Y02817
Y03892
Y039629
Y049671
Y050379
X036374
Y049671
Y039629
Y03892
T06
X057511Y017124
Y017924
X059511Y017524
X019474
X017474Y017924
Y017124
Y027874
Y028674
X019474Y028274
X057511Y028674
Y027874
X059511Y028274
Y039025
X057511Y039425
Y038625
Y049375
Y050175
X059511Y049775
X019474
X017474Y050175
Y049375
Y039425
Y038625
X019474Y039025
T07
X052913Y01651
X012875
Y02726
X052913
Y038011
Y048761
X012875
Y038011
T08
X049661Y009574
X05163
Y012974
X049661
Y020324
X05163
X011593
X009624
Y012974
X011593
Y009574
X009624
Y023724
X011593
Y031075
X009624
Y034475
X011593
X049661
X05163
Y031075
X049661
Y023724
X05163
Y041825
X049661
Y045225
X05163
X011593
X009624
Y041825
X011593
M30
