G04 Layer_Color=16711935*
%FSLAX24Y24*%
%MOIN*%
G70*
G01*
G75*
%ADD12C,0.0100*%
%ADD44C,0.0200*%
D12*
X3937Y3937D02*
Y11437D01*
X28437D01*
Y3937D02*
Y11437D01*
X3937Y3937D02*
X28437D01*
X30396D02*
Y11437D01*
X54896D01*
Y3937D02*
Y11437D01*
X30396Y3937D02*
X54896D01*
X3937Y12324D02*
Y19824D01*
X28437D01*
Y12324D02*
Y19824D01*
X3937Y12324D02*
X28437D01*
X30396D02*
Y19824D01*
X54896D01*
Y12324D02*
Y19824D01*
X30396Y12324D02*
X54896D01*
X3937Y20712D02*
Y28212D01*
X28437D01*
Y20712D02*
Y28212D01*
X3937Y20712D02*
X28437D01*
X30396D02*
Y28212D01*
X54896D01*
Y20712D02*
Y28212D01*
X30396Y20712D02*
X54896D01*
X3937Y29099D02*
Y36599D01*
X28437D01*
Y29099D02*
Y36599D01*
X3937Y29099D02*
X28437D01*
X30396D02*
Y36599D01*
X54896D01*
Y29099D02*
Y36599D01*
X30396Y29099D02*
X54896D01*
X3937Y37487D02*
Y44987D01*
X28437D01*
Y37487D02*
Y44987D01*
X3937Y37487D02*
X28437D01*
X30396D02*
Y44987D01*
X54896D01*
Y37487D02*
Y44987D01*
X30396Y37487D02*
X54896D01*
X3937Y45874D02*
Y53374D01*
X28437D01*
Y45874D02*
Y53374D01*
X3937Y45874D02*
X28437D01*
X30396D02*
Y53374D01*
X54896D01*
Y45874D02*
Y53374D01*
X30396Y45874D02*
X54896D01*
D44*
X0Y0D02*
X58957D01*
Y57382D01*
X0D02*
X58957D01*
X0Y0D02*
Y57382D01*
M02*
