G04 Layer_Color=8388736*
%FSLAX24Y24*%
%MOIN*%
G70*
G01*
G75*
%ADD81R,0.2400X0.2400*%
%ADD82C,0.2400*%
%ADD83R,0.0217X0.0296*%
%ADD84R,0.0540X0.0304*%
%ADD85R,0.0225X0.0296*%
%ADD86R,0.0220X0.0315*%
%ADD87R,0.0315X0.0220*%
%ADD88O,0.0237X0.0631*%
%ADD89O,0.0631X0.0237*%
%ADD90R,0.0296X0.0572*%
%ADD91R,0.0414X0.0257*%
%ADD92R,0.0296X0.0217*%
%ADD93O,0.0611X0.0237*%
%ADD94R,0.0296X0.0257*%
%ADD95O,0.0296X0.0178*%
%ADD96R,0.0454X0.0690*%
%ADD97R,0.0572X0.0572*%
%ADD98R,0.0493X0.0729*%
%ADD99R,0.0257X0.0414*%
%ADD100O,0.0158X0.0336*%
%ADD101R,0.0997X0.0710*%
%ADD102R,0.1438X0.0828*%
%ADD103R,0.0651X0.0454*%
%ADD104R,0.0139X0.0336*%
%ADD105R,0.0178X0.0336*%
%ADD106R,0.0434X0.0237*%
%ADD107O,0.0158X0.0296*%
%ADD108O,0.0296X0.0158*%
%ADD109R,0.2658X0.2658*%
%ADD110R,0.0355X0.0178*%
%ADD111R,0.0434X0.0395*%
%ADD112R,0.0651X0.0769*%
%ADD113C,0.0370*%
%ADD114C,0.0080*%
%ADD115C,0.0060*%
%ADD116C,0.0760*%
%ADD117C,0.1010*%
G36*
X48147Y53092D02*
X48339Y53024D01*
X48514Y52921D01*
X48666Y52786D01*
X48788Y52624D01*
X48878Y52441D01*
X48930Y52245D01*
X48937Y52143D01*
X48930Y52143D01*
X48937Y52143D01*
X48938Y52135D01*
X48938Y52117D01*
X48939Y52100D01*
X48939Y52083D01*
Y52074D01*
X48939Y51972D01*
X48900Y51773D01*
X48823Y51585D01*
X48711Y51415D01*
X48569Y51270D01*
X48401Y51155D01*
X48214Y51075D01*
X48015Y51033D01*
X47812Y51029D01*
X47612Y51065D01*
X47422Y51139D01*
X47251Y51248D01*
X47103Y51388D01*
X46986Y51554D01*
X46903Y51740D01*
X46857Y51938D01*
X46850Y52141D01*
X46883Y52342D01*
X46953Y52532D01*
X47059Y52706D01*
X47197Y52855D01*
X47361Y52975D01*
X47545Y53062D01*
X47742Y53111D01*
X47946Y53121D01*
X48147Y53092D01*
D02*
G37*
G36*
X21688D02*
X21879Y53024D01*
X22055Y52921D01*
X22206Y52786D01*
X22329Y52624D01*
X22419Y52441D01*
X22471Y52245D01*
X22478Y52143D01*
X22470Y52143D01*
X22478Y52143D01*
X22479Y52135D01*
X22479Y52117D01*
X22480Y52100D01*
X22480Y52083D01*
Y52074D01*
X22480Y51972D01*
X22441Y51773D01*
X22364Y51585D01*
X22252Y51415D01*
X22110Y51270D01*
X21942Y51155D01*
X21755Y51075D01*
X21556Y51033D01*
X21353Y51029D01*
X21153Y51065D01*
X20963Y51139D01*
X20792Y51248D01*
X20644Y51388D01*
X20527Y51554D01*
X20444Y51740D01*
X20398Y51938D01*
X20391Y52141D01*
X20423Y52342D01*
X20494Y52532D01*
X20600Y52706D01*
X20738Y52855D01*
X20902Y52975D01*
X21086Y53062D01*
X21283Y53111D01*
X21486Y53121D01*
X21688Y53092D01*
D02*
G37*
G36*
X37197Y48192D02*
X37389Y48124D01*
X37564Y48021D01*
X37716Y47886D01*
X37838Y47724D01*
X37928Y47541D01*
X37980Y47345D01*
X37987Y47243D01*
X37980Y47243D01*
X37987Y47243D01*
X37988Y47235D01*
X37989Y47217D01*
X37989Y47200D01*
X37989Y47183D01*
Y47174D01*
X37989Y47072D01*
X37950Y46873D01*
X37873Y46685D01*
X37761Y46515D01*
X37619Y46370D01*
X37451Y46255D01*
X37264Y46175D01*
X37065Y46133D01*
X36862Y46129D01*
X36662Y46165D01*
X36472Y46239D01*
X36301Y46348D01*
X36153Y46488D01*
X36036Y46654D01*
X35953Y46840D01*
X35907Y47038D01*
X35900Y47241D01*
X35933Y47442D01*
X36003Y47632D01*
X36109Y47806D01*
X36247Y47955D01*
X36411Y48075D01*
X36595Y48162D01*
X36792Y48211D01*
X36996Y48221D01*
X37197Y48192D01*
D02*
G37*
G36*
X10738D02*
X10929Y48124D01*
X11105Y48021D01*
X11256Y47886D01*
X11379Y47724D01*
X11469Y47541D01*
X11521Y47345D01*
X11528Y47243D01*
X11520Y47243D01*
X11528Y47243D01*
X11529Y47235D01*
X11529Y47217D01*
X11530Y47200D01*
X11530Y47183D01*
Y47174D01*
X11530Y47072D01*
X11491Y46873D01*
X11414Y46685D01*
X11302Y46515D01*
X11160Y46370D01*
X10992Y46255D01*
X10805Y46175D01*
X10606Y46133D01*
X10403Y46129D01*
X10203Y46165D01*
X10013Y46239D01*
X9842Y46348D01*
X9694Y46488D01*
X9577Y46654D01*
X9494Y46840D01*
X9448Y47038D01*
X9441Y47241D01*
X9473Y47442D01*
X9544Y47632D01*
X9650Y47806D01*
X9788Y47955D01*
X9952Y48075D01*
X10136Y48162D01*
X10333Y48211D01*
X10536Y48221D01*
X10738Y48192D01*
D02*
G37*
G36*
X48147Y44704D02*
X48339Y44637D01*
X48514Y44534D01*
X48666Y44398D01*
X48788Y44237D01*
X48878Y44054D01*
X48930Y43857D01*
X48937Y43756D01*
X48930Y43756D01*
X48937Y43756D01*
X48938Y43747D01*
X48938Y43730D01*
X48939Y43713D01*
X48939Y43695D01*
Y43687D01*
X48939Y43585D01*
X48900Y43385D01*
X48823Y43197D01*
X48711Y43028D01*
X48569Y42883D01*
X48401Y42768D01*
X48214Y42688D01*
X48015Y42645D01*
X47812Y42642D01*
X47612Y42678D01*
X47422Y42752D01*
X47251Y42861D01*
X47103Y43001D01*
X46986Y43167D01*
X46903Y43352D01*
X46857Y43550D01*
X46850Y43753D01*
X46883Y43954D01*
X46953Y44145D01*
X47059Y44318D01*
X47197Y44468D01*
X47361Y44588D01*
X47545Y44674D01*
X47742Y44724D01*
X47946Y44734D01*
X48147Y44704D01*
D02*
G37*
G36*
X21688D02*
X21879Y44637D01*
X22055Y44534D01*
X22206Y44398D01*
X22329Y44237D01*
X22419Y44054D01*
X22471Y43857D01*
X22478Y43756D01*
X22470Y43756D01*
X22478Y43756D01*
X22479Y43747D01*
X22479Y43730D01*
X22480Y43713D01*
X22480Y43695D01*
Y43687D01*
X22480Y43585D01*
X22441Y43385D01*
X22364Y43197D01*
X22252Y43028D01*
X22110Y42883D01*
X21942Y42768D01*
X21755Y42688D01*
X21556Y42645D01*
X21353Y42642D01*
X21153Y42678D01*
X20963Y42752D01*
X20792Y42861D01*
X20644Y43001D01*
X20527Y43167D01*
X20444Y43352D01*
X20398Y43550D01*
X20391Y43753D01*
X20423Y43954D01*
X20494Y44145D01*
X20600Y44318D01*
X20738Y44468D01*
X20902Y44588D01*
X21086Y44674D01*
X21283Y44724D01*
X21486Y44734D01*
X21688Y44704D01*
D02*
G37*
G36*
X37197Y39804D02*
X37389Y39737D01*
X37564Y39634D01*
X37716Y39498D01*
X37838Y39337D01*
X37928Y39154D01*
X37980Y38957D01*
X37987Y38856D01*
X37980Y38856D01*
X37987Y38856D01*
X37988Y38847D01*
X37989Y38830D01*
X37989Y38813D01*
X37989Y38795D01*
Y38787D01*
X37989Y38685D01*
X37950Y38485D01*
X37873Y38297D01*
X37761Y38128D01*
X37619Y37983D01*
X37451Y37868D01*
X37264Y37788D01*
X37065Y37745D01*
X36862Y37742D01*
X36662Y37778D01*
X36472Y37852D01*
X36301Y37961D01*
X36153Y38101D01*
X36036Y38267D01*
X35953Y38452D01*
X35907Y38650D01*
X35900Y38853D01*
X35933Y39054D01*
X36003Y39245D01*
X36109Y39418D01*
X36247Y39568D01*
X36411Y39688D01*
X36595Y39774D01*
X36792Y39824D01*
X36996Y39834D01*
X37197Y39804D01*
D02*
G37*
G36*
X10738D02*
X10929Y39737D01*
X11105Y39634D01*
X11256Y39498D01*
X11379Y39337D01*
X11469Y39154D01*
X11521Y38957D01*
X11528Y38856D01*
X11520Y38856D01*
X11528Y38856D01*
X11529Y38847D01*
X11529Y38830D01*
X11530Y38813D01*
X11530Y38795D01*
Y38787D01*
X11530Y38685D01*
X11491Y38485D01*
X11414Y38297D01*
X11302Y38128D01*
X11160Y37983D01*
X10992Y37868D01*
X10805Y37788D01*
X10606Y37745D01*
X10403Y37742D01*
X10203Y37778D01*
X10013Y37852D01*
X9842Y37961D01*
X9694Y38101D01*
X9577Y38267D01*
X9494Y38452D01*
X9448Y38650D01*
X9441Y38853D01*
X9473Y39054D01*
X9544Y39245D01*
X9650Y39418D01*
X9788Y39568D01*
X9952Y39688D01*
X10136Y39774D01*
X10333Y39824D01*
X10536Y39834D01*
X10738Y39804D01*
D02*
G37*
G36*
X48147Y36317D02*
X48339Y36250D01*
X48514Y36146D01*
X48666Y36011D01*
X48788Y35849D01*
X48878Y35666D01*
X48930Y35470D01*
X48937Y35369D01*
X48930Y35368D01*
X48937Y35369D01*
X48938Y35360D01*
X48938Y35343D01*
X48939Y35325D01*
X48939Y35308D01*
Y35299D01*
X48939Y35198D01*
X48900Y34998D01*
X48823Y34810D01*
X48711Y34640D01*
X48569Y34495D01*
X48401Y34380D01*
X48214Y34300D01*
X48015Y34258D01*
X47812Y34254D01*
X47612Y34290D01*
X47422Y34364D01*
X47251Y34473D01*
X47103Y34613D01*
X46986Y34779D01*
X46903Y34965D01*
X46857Y35163D01*
X46850Y35366D01*
X46883Y35567D01*
X46953Y35757D01*
X47059Y35931D01*
X47197Y36080D01*
X47361Y36201D01*
X47545Y36287D01*
X47742Y36336D01*
X47946Y36346D01*
X48147Y36317D01*
D02*
G37*
G36*
X21688D02*
X21879Y36250D01*
X22055Y36146D01*
X22206Y36011D01*
X22329Y35849D01*
X22419Y35666D01*
X22471Y35470D01*
X22478Y35369D01*
X22470Y35368D01*
X22478Y35369D01*
X22479Y35360D01*
X22479Y35343D01*
X22480Y35325D01*
X22480Y35308D01*
Y35299D01*
X22480Y35198D01*
X22441Y34998D01*
X22364Y34810D01*
X22252Y34640D01*
X22110Y34495D01*
X21942Y34380D01*
X21755Y34300D01*
X21556Y34258D01*
X21353Y34254D01*
X21153Y34290D01*
X20963Y34364D01*
X20792Y34473D01*
X20644Y34613D01*
X20527Y34779D01*
X20444Y34965D01*
X20398Y35163D01*
X20391Y35366D01*
X20423Y35567D01*
X20494Y35757D01*
X20600Y35931D01*
X20738Y36080D01*
X20902Y36201D01*
X21086Y36287D01*
X21283Y36336D01*
X21486Y36346D01*
X21688Y36317D01*
D02*
G37*
G36*
X37197Y31417D02*
X37389Y31350D01*
X37564Y31246D01*
X37716Y31111D01*
X37838Y30949D01*
X37928Y30766D01*
X37980Y30570D01*
X37987Y30469D01*
X37980Y30468D01*
X37987Y30469D01*
X37988Y30460D01*
X37989Y30443D01*
X37989Y30425D01*
X37989Y30408D01*
Y30399D01*
X37989Y30298D01*
X37950Y30098D01*
X37873Y29910D01*
X37761Y29740D01*
X37619Y29595D01*
X37451Y29480D01*
X37264Y29400D01*
X37065Y29358D01*
X36862Y29354D01*
X36662Y29390D01*
X36472Y29464D01*
X36301Y29573D01*
X36153Y29713D01*
X36036Y29879D01*
X35953Y30065D01*
X35907Y30263D01*
X35900Y30466D01*
X35933Y30667D01*
X36003Y30857D01*
X36109Y31031D01*
X36247Y31180D01*
X36411Y31301D01*
X36595Y31387D01*
X36792Y31436D01*
X36996Y31446D01*
X37197Y31417D01*
D02*
G37*
G36*
X10738D02*
X10929Y31350D01*
X11105Y31246D01*
X11256Y31111D01*
X11379Y30949D01*
X11469Y30766D01*
X11521Y30570D01*
X11528Y30469D01*
X11520Y30468D01*
X11528Y30469D01*
X11529Y30460D01*
X11529Y30443D01*
X11530Y30425D01*
X11530Y30408D01*
Y30399D01*
X11530Y30298D01*
X11491Y30098D01*
X11414Y29910D01*
X11302Y29740D01*
X11160Y29595D01*
X10992Y29480D01*
X10805Y29400D01*
X10606Y29358D01*
X10403Y29354D01*
X10203Y29390D01*
X10013Y29464D01*
X9842Y29573D01*
X9694Y29713D01*
X9577Y29879D01*
X9494Y30065D01*
X9448Y30263D01*
X9441Y30466D01*
X9473Y30667D01*
X9544Y30857D01*
X9650Y31031D01*
X9788Y31180D01*
X9952Y31301D01*
X10136Y31387D01*
X10333Y31436D01*
X10536Y31446D01*
X10738Y31417D01*
D02*
G37*
G36*
X48147Y27930D02*
X48339Y27862D01*
X48514Y27759D01*
X48666Y27624D01*
X48788Y27462D01*
X48878Y27279D01*
X48930Y27083D01*
X48937Y26981D01*
X48930Y26981D01*
X48937Y26981D01*
X48938Y26973D01*
X48938Y26955D01*
X48939Y26938D01*
X48939Y26920D01*
Y26912D01*
X48939Y26810D01*
X48900Y26611D01*
X48823Y26422D01*
X48711Y26253D01*
X48569Y26108D01*
X48401Y25993D01*
X48214Y25913D01*
X48015Y25870D01*
X47812Y25867D01*
X47612Y25903D01*
X47422Y25977D01*
X47251Y26086D01*
X47103Y26226D01*
X46986Y26392D01*
X46903Y26577D01*
X46857Y26775D01*
X46850Y26979D01*
X46883Y27179D01*
X46953Y27370D01*
X47059Y27543D01*
X47197Y27693D01*
X47361Y27813D01*
X47545Y27900D01*
X47742Y27949D01*
X47946Y27959D01*
X48147Y27930D01*
D02*
G37*
G36*
X21688D02*
X21879Y27862D01*
X22055Y27759D01*
X22206Y27624D01*
X22329Y27462D01*
X22419Y27279D01*
X22471Y27083D01*
X22478Y26981D01*
X22470Y26981D01*
X22478Y26981D01*
X22479Y26973D01*
X22479Y26955D01*
X22480Y26938D01*
X22480Y26920D01*
Y26912D01*
X22480Y26810D01*
X22441Y26611D01*
X22364Y26422D01*
X22252Y26253D01*
X22110Y26108D01*
X21942Y25993D01*
X21755Y25913D01*
X21556Y25870D01*
X21353Y25867D01*
X21153Y25903D01*
X20963Y25977D01*
X20792Y26086D01*
X20644Y26226D01*
X20527Y26392D01*
X20444Y26577D01*
X20398Y26775D01*
X20391Y26979D01*
X20423Y27179D01*
X20494Y27370D01*
X20600Y27543D01*
X20738Y27693D01*
X20902Y27813D01*
X21086Y27900D01*
X21283Y27949D01*
X21486Y27959D01*
X21688Y27930D01*
D02*
G37*
G36*
X37197Y23030D02*
X37389Y22962D01*
X37564Y22859D01*
X37716Y22724D01*
X37838Y22562D01*
X37928Y22379D01*
X37980Y22183D01*
X37987Y22081D01*
X37980Y22081D01*
X37987Y22081D01*
X37988Y22073D01*
X37989Y22055D01*
X37989Y22038D01*
X37989Y22020D01*
Y22012D01*
X37989Y21910D01*
X37950Y21711D01*
X37873Y21522D01*
X37761Y21353D01*
X37619Y21208D01*
X37451Y21093D01*
X37264Y21013D01*
X37065Y20970D01*
X36862Y20967D01*
X36662Y21003D01*
X36472Y21077D01*
X36301Y21186D01*
X36153Y21326D01*
X36036Y21492D01*
X35953Y21677D01*
X35907Y21875D01*
X35900Y22079D01*
X35933Y22279D01*
X36003Y22470D01*
X36109Y22643D01*
X36247Y22793D01*
X36411Y22913D01*
X36595Y23000D01*
X36792Y23049D01*
X36996Y23059D01*
X37197Y23030D01*
D02*
G37*
G36*
X10738D02*
X10929Y22962D01*
X11105Y22859D01*
X11256Y22724D01*
X11379Y22562D01*
X11469Y22379D01*
X11521Y22183D01*
X11528Y22081D01*
X11520Y22081D01*
X11528Y22081D01*
X11529Y22073D01*
X11529Y22055D01*
X11530Y22038D01*
X11530Y22020D01*
Y22012D01*
X11530Y21910D01*
X11491Y21711D01*
X11414Y21522D01*
X11302Y21353D01*
X11160Y21208D01*
X10992Y21093D01*
X10805Y21013D01*
X10606Y20970D01*
X10403Y20967D01*
X10203Y21003D01*
X10013Y21077D01*
X9842Y21186D01*
X9694Y21326D01*
X9577Y21492D01*
X9494Y21677D01*
X9448Y21875D01*
X9441Y22079D01*
X9473Y22279D01*
X9544Y22470D01*
X9650Y22643D01*
X9788Y22793D01*
X9952Y22913D01*
X10136Y23000D01*
X10333Y23049D01*
X10536Y23059D01*
X10738Y23030D01*
D02*
G37*
G36*
X48147Y19542D02*
X48339Y19475D01*
X48514Y19371D01*
X48666Y19236D01*
X48788Y19074D01*
X48878Y18892D01*
X48930Y18695D01*
X48937Y18594D01*
X48930Y18593D01*
X48937Y18594D01*
X48938Y18585D01*
X48938Y18568D01*
X48939Y18550D01*
X48939Y18533D01*
Y18524D01*
X48939Y18423D01*
X48900Y18223D01*
X48823Y18035D01*
X48711Y17865D01*
X48569Y17720D01*
X48401Y17606D01*
X48214Y17526D01*
X48015Y17483D01*
X47812Y17480D01*
X47612Y17515D01*
X47422Y17589D01*
X47251Y17698D01*
X47103Y17839D01*
X46986Y18004D01*
X46903Y18190D01*
X46857Y18388D01*
X46850Y18591D01*
X46883Y18792D01*
X46953Y18983D01*
X47059Y19156D01*
X47197Y19306D01*
X47361Y19426D01*
X47545Y19512D01*
X47742Y19561D01*
X47946Y19571D01*
X48147Y19542D01*
D02*
G37*
G36*
X21688D02*
X21879Y19475D01*
X22055Y19371D01*
X22206Y19236D01*
X22329Y19074D01*
X22419Y18892D01*
X22471Y18695D01*
X22478Y18594D01*
X22470Y18593D01*
X22478Y18594D01*
X22479Y18585D01*
X22479Y18568D01*
X22480Y18550D01*
X22480Y18533D01*
Y18524D01*
X22480Y18423D01*
X22441Y18223D01*
X22364Y18035D01*
X22252Y17865D01*
X22110Y17720D01*
X21942Y17606D01*
X21755Y17526D01*
X21556Y17483D01*
X21353Y17480D01*
X21153Y17515D01*
X20963Y17589D01*
X20792Y17698D01*
X20644Y17839D01*
X20527Y18004D01*
X20444Y18190D01*
X20398Y18388D01*
X20391Y18591D01*
X20423Y18792D01*
X20494Y18983D01*
X20600Y19156D01*
X20738Y19306D01*
X20902Y19426D01*
X21086Y19512D01*
X21283Y19561D01*
X21486Y19571D01*
X21688Y19542D01*
D02*
G37*
G36*
X37197Y14642D02*
X37389Y14575D01*
X37564Y14471D01*
X37716Y14336D01*
X37838Y14174D01*
X37928Y13992D01*
X37980Y13795D01*
X37987Y13694D01*
X37980Y13693D01*
X37987Y13694D01*
X37988Y13685D01*
X37989Y13668D01*
X37989Y13650D01*
X37989Y13633D01*
Y13624D01*
X37989Y13523D01*
X37950Y13323D01*
X37873Y13135D01*
X37761Y12965D01*
X37619Y12820D01*
X37451Y12706D01*
X37264Y12625D01*
X37065Y12583D01*
X36862Y12580D01*
X36662Y12615D01*
X36472Y12689D01*
X36301Y12798D01*
X36153Y12939D01*
X36036Y13104D01*
X35953Y13290D01*
X35907Y13488D01*
X35900Y13691D01*
X35933Y13892D01*
X36003Y14083D01*
X36109Y14256D01*
X36247Y14406D01*
X36411Y14526D01*
X36595Y14612D01*
X36792Y14661D01*
X36996Y14671D01*
X37197Y14642D01*
D02*
G37*
G36*
X10738D02*
X10929Y14575D01*
X11105Y14471D01*
X11256Y14336D01*
X11379Y14174D01*
X11469Y13992D01*
X11521Y13795D01*
X11528Y13694D01*
X11520Y13693D01*
X11528Y13694D01*
X11529Y13685D01*
X11529Y13668D01*
X11530Y13650D01*
X11530Y13633D01*
Y13624D01*
X11530Y13523D01*
X11491Y13323D01*
X11414Y13135D01*
X11302Y12965D01*
X11160Y12820D01*
X10992Y12706D01*
X10805Y12625D01*
X10606Y12583D01*
X10403Y12580D01*
X10203Y12615D01*
X10013Y12689D01*
X9842Y12798D01*
X9694Y12939D01*
X9577Y13104D01*
X9494Y13290D01*
X9448Y13488D01*
X9441Y13691D01*
X9473Y13892D01*
X9544Y14083D01*
X9650Y14256D01*
X9788Y14406D01*
X9952Y14526D01*
X10136Y14612D01*
X10333Y14661D01*
X10536Y14671D01*
X10738Y14642D01*
D02*
G37*
G36*
X48147Y11155D02*
X48339Y11087D01*
X48514Y10984D01*
X48666Y10849D01*
X48788Y10687D01*
X48878Y10504D01*
X48930Y10308D01*
X48937Y10206D01*
X48930Y10206D01*
X48937Y10206D01*
X48938Y10198D01*
X48938Y10180D01*
X48939Y10163D01*
X48939Y10146D01*
Y10137D01*
X48939Y10035D01*
X48900Y9836D01*
X48823Y9648D01*
X48711Y9478D01*
X48569Y9333D01*
X48401Y9218D01*
X48214Y9138D01*
X48015Y9096D01*
X47812Y9092D01*
X47612Y9128D01*
X47422Y9202D01*
X47251Y9311D01*
X47103Y9451D01*
X46986Y9617D01*
X46903Y9803D01*
X46857Y10001D01*
X46850Y10204D01*
X46883Y10405D01*
X46953Y10595D01*
X47059Y10769D01*
X47197Y10918D01*
X47361Y11038D01*
X47545Y11125D01*
X47742Y11174D01*
X47946Y11184D01*
X48147Y11155D01*
D02*
G37*
G36*
X21688D02*
X21879Y11087D01*
X22055Y10984D01*
X22206Y10849D01*
X22329Y10687D01*
X22419Y10504D01*
X22471Y10308D01*
X22478Y10206D01*
X22470Y10206D01*
X22478Y10206D01*
X22479Y10198D01*
X22479Y10180D01*
X22480Y10163D01*
X22480Y10146D01*
Y10137D01*
X22480Y10035D01*
X22441Y9836D01*
X22364Y9648D01*
X22252Y9478D01*
X22110Y9333D01*
X21942Y9218D01*
X21755Y9138D01*
X21556Y9096D01*
X21353Y9092D01*
X21153Y9128D01*
X20963Y9202D01*
X20792Y9311D01*
X20644Y9451D01*
X20527Y9617D01*
X20444Y9803D01*
X20398Y10001D01*
X20391Y10204D01*
X20423Y10405D01*
X20494Y10595D01*
X20600Y10769D01*
X20738Y10918D01*
X20902Y11038D01*
X21086Y11125D01*
X21283Y11174D01*
X21486Y11184D01*
X21688Y11155D01*
D02*
G37*
G36*
X37197Y6255D02*
X37389Y6187D01*
X37564Y6084D01*
X37716Y5949D01*
X37838Y5787D01*
X37928Y5604D01*
X37980Y5408D01*
X37987Y5306D01*
X37980Y5306D01*
X37987Y5306D01*
X37988Y5298D01*
X37989Y5280D01*
X37989Y5263D01*
X37989Y5246D01*
Y5237D01*
X37989Y5135D01*
X37950Y4936D01*
X37873Y4748D01*
X37761Y4578D01*
X37619Y4433D01*
X37451Y4318D01*
X37264Y4238D01*
X37065Y4196D01*
X36862Y4192D01*
X36662Y4228D01*
X36472Y4302D01*
X36301Y4411D01*
X36153Y4551D01*
X36036Y4717D01*
X35953Y4903D01*
X35907Y5101D01*
X35900Y5304D01*
X35933Y5505D01*
X36003Y5695D01*
X36109Y5869D01*
X36247Y6018D01*
X36411Y6138D01*
X36595Y6225D01*
X36792Y6274D01*
X36996Y6284D01*
X37197Y6255D01*
D02*
G37*
G36*
X10738D02*
X10929Y6187D01*
X11105Y6084D01*
X11256Y5949D01*
X11379Y5787D01*
X11469Y5604D01*
X11521Y5408D01*
X11528Y5306D01*
X11520Y5306D01*
X11528Y5306D01*
X11529Y5298D01*
X11529Y5280D01*
X11530Y5263D01*
X11530Y5246D01*
Y5237D01*
X11530Y5135D01*
X11491Y4936D01*
X11414Y4748D01*
X11302Y4578D01*
X11160Y4433D01*
X10992Y4318D01*
X10805Y4238D01*
X10606Y4196D01*
X10403Y4192D01*
X10203Y4228D01*
X10013Y4302D01*
X9842Y4411D01*
X9694Y4551D01*
X9577Y4717D01*
X9494Y4903D01*
X9448Y5101D01*
X9441Y5304D01*
X9473Y5505D01*
X9544Y5695D01*
X9650Y5869D01*
X9788Y6018D01*
X9952Y6138D01*
X10136Y6225D01*
X10333Y6274D01*
X10536Y6284D01*
X10738Y6255D01*
D02*
G37*
%LPC*%
G36*
X47911Y52684D02*
X47777Y52673D01*
X47649Y52632D01*
X47533Y52565D01*
X47435Y52474D01*
X47359Y52363D01*
X47308Y52239D01*
X47287Y52106D01*
X47294Y51972D01*
X47331Y51843D01*
X47395Y51725D01*
X47483Y51624D01*
X47592Y51545D01*
X47715Y51491D01*
X47846Y51466D01*
X47980Y51470D01*
X48110Y51503D01*
X48230Y51563D01*
X48334Y51649D01*
X48416Y51755D01*
X48473Y51876D01*
X48503Y52007D01*
X48506Y52074D01*
X48506Y52083D01*
X48506Y52100D01*
X48505Y52118D01*
X48503Y52135D01*
X48502Y52144D01*
X48506Y52143D01*
X48502Y52144D01*
X48491Y52210D01*
X48447Y52337D01*
X48376Y52451D01*
X48282Y52546D01*
X48170Y52619D01*
X48044Y52666D01*
X47911Y52684D01*
D02*
G37*
G36*
X21452D02*
X21318Y52673D01*
X21190Y52632D01*
X21074Y52565D01*
X20976Y52474D01*
X20900Y52363D01*
X20849Y52239D01*
X20828Y52106D01*
X20835Y51972D01*
X20872Y51843D01*
X20936Y51725D01*
X21024Y51624D01*
X21133Y51545D01*
X21256Y51491D01*
X21387Y51466D01*
X21521Y51470D01*
X21651Y51503D01*
X21771Y51563D01*
X21875Y51649D01*
X21957Y51755D01*
X22014Y51876D01*
X22044Y52007D01*
X22047Y52074D01*
X22047Y52083D01*
X22047Y52100D01*
X22046Y52118D01*
X22044Y52135D01*
X22043Y52144D01*
X22047Y52143D01*
X22043Y52144D01*
X22032Y52210D01*
X21988Y52337D01*
X21917Y52451D01*
X21823Y52546D01*
X21711Y52619D01*
X21585Y52666D01*
X21452Y52684D01*
D02*
G37*
G36*
X36961Y47784D02*
X36827Y47773D01*
X36699Y47732D01*
X36583Y47665D01*
X36485Y47574D01*
X36409Y47463D01*
X36358Y47339D01*
X36337Y47206D01*
X36344Y47072D01*
X36381Y46943D01*
X36445Y46825D01*
X36533Y46724D01*
X36642Y46645D01*
X36765Y46591D01*
X36896Y46566D01*
X37030Y46570D01*
X37160Y46603D01*
X37280Y46663D01*
X37384Y46749D01*
X37466Y46855D01*
X37523Y46976D01*
X37553Y47107D01*
X37556Y47174D01*
X37556Y47183D01*
X37556Y47200D01*
X37555Y47218D01*
X37553Y47235D01*
X37552Y47244D01*
X37556Y47243D01*
X37552Y47244D01*
X37541Y47310D01*
X37497Y47437D01*
X37426Y47551D01*
X37332Y47646D01*
X37220Y47719D01*
X37094Y47766D01*
X36961Y47784D01*
D02*
G37*
G36*
X10502D02*
X10368Y47773D01*
X10240Y47732D01*
X10124Y47665D01*
X10026Y47574D01*
X9950Y47463D01*
X9899Y47339D01*
X9878Y47206D01*
X9885Y47072D01*
X9922Y46943D01*
X9986Y46825D01*
X10074Y46724D01*
X10183Y46645D01*
X10306Y46591D01*
X10437Y46566D01*
X10571Y46570D01*
X10701Y46603D01*
X10821Y46663D01*
X10925Y46749D01*
X11007Y46855D01*
X11064Y46976D01*
X11094Y47107D01*
X11097Y47174D01*
X11097Y47183D01*
X11097Y47200D01*
X11096Y47218D01*
X11094Y47235D01*
X11093Y47244D01*
X11097Y47243D01*
X11093Y47244D01*
X11082Y47310D01*
X11038Y47437D01*
X10967Y47551D01*
X10873Y47646D01*
X10761Y47719D01*
X10635Y47766D01*
X10502Y47784D01*
D02*
G37*
G36*
X47911Y44297D02*
X47777Y44285D01*
X47649Y44245D01*
X47533Y44177D01*
X47435Y44086D01*
X47359Y43976D01*
X47308Y43851D01*
X47287Y43719D01*
X47294Y43585D01*
X47331Y43456D01*
X47395Y43338D01*
X47483Y43237D01*
X47592Y43158D01*
X47715Y43104D01*
X47846Y43078D01*
X47980Y43082D01*
X48110Y43115D01*
X48230Y43176D01*
X48334Y43261D01*
X48416Y43367D01*
X48473Y43489D01*
X48503Y43620D01*
X48506Y43687D01*
X48506Y43695D01*
X48506Y43713D01*
X48505Y43730D01*
X48503Y43748D01*
X48502Y43756D01*
X48506Y43756D01*
X48502Y43756D01*
X48491Y43822D01*
X48447Y43949D01*
X48376Y44063D01*
X48282Y44159D01*
X48170Y44232D01*
X48044Y44279D01*
X47911Y44297D01*
D02*
G37*
G36*
X21452D02*
X21318Y44285D01*
X21190Y44245D01*
X21074Y44177D01*
X20976Y44086D01*
X20900Y43976D01*
X20849Y43851D01*
X20828Y43719D01*
X20835Y43585D01*
X20872Y43456D01*
X20936Y43338D01*
X21024Y43237D01*
X21133Y43158D01*
X21256Y43104D01*
X21387Y43078D01*
X21521Y43082D01*
X21651Y43115D01*
X21771Y43176D01*
X21875Y43261D01*
X21957Y43367D01*
X22014Y43489D01*
X22044Y43620D01*
X22047Y43687D01*
X22047Y43695D01*
X22047Y43713D01*
X22046Y43730D01*
X22044Y43748D01*
X22043Y43756D01*
X22047Y43756D01*
X22043Y43756D01*
X22032Y43822D01*
X21988Y43949D01*
X21917Y44063D01*
X21823Y44159D01*
X21711Y44232D01*
X21585Y44279D01*
X21452Y44297D01*
D02*
G37*
G36*
X36961Y39397D02*
X36827Y39385D01*
X36699Y39345D01*
X36583Y39277D01*
X36485Y39186D01*
X36409Y39076D01*
X36358Y38951D01*
X36337Y38819D01*
X36344Y38685D01*
X36381Y38556D01*
X36445Y38438D01*
X36533Y38337D01*
X36642Y38258D01*
X36765Y38204D01*
X36896Y38178D01*
X37030Y38182D01*
X37160Y38215D01*
X37280Y38276D01*
X37384Y38361D01*
X37466Y38467D01*
X37523Y38589D01*
X37553Y38720D01*
X37556Y38787D01*
X37556Y38795D01*
X37556Y38813D01*
X37555Y38830D01*
X37553Y38848D01*
X37552Y38856D01*
X37556Y38856D01*
X37552Y38856D01*
X37541Y38922D01*
X37497Y39049D01*
X37426Y39163D01*
X37332Y39259D01*
X37220Y39332D01*
X37094Y39379D01*
X36961Y39397D01*
D02*
G37*
G36*
X10502D02*
X10368Y39385D01*
X10240Y39345D01*
X10124Y39277D01*
X10026Y39186D01*
X9950Y39076D01*
X9899Y38951D01*
X9878Y38819D01*
X9885Y38685D01*
X9922Y38556D01*
X9986Y38438D01*
X10074Y38337D01*
X10183Y38258D01*
X10306Y38204D01*
X10437Y38178D01*
X10571Y38182D01*
X10701Y38215D01*
X10821Y38276D01*
X10925Y38361D01*
X11007Y38467D01*
X11064Y38589D01*
X11094Y38720D01*
X11097Y38787D01*
X11097Y38795D01*
X11097Y38813D01*
X11096Y38830D01*
X11094Y38848D01*
X11093Y38856D01*
X11097Y38856D01*
X11093Y38856D01*
X11082Y38922D01*
X11038Y39049D01*
X10967Y39163D01*
X10873Y39259D01*
X10761Y39332D01*
X10635Y39379D01*
X10502Y39397D01*
D02*
G37*
G36*
X47911Y35909D02*
X47777Y35898D01*
X47649Y35857D01*
X47533Y35790D01*
X47435Y35699D01*
X47359Y35588D01*
X47308Y35464D01*
X47287Y35332D01*
X47294Y35198D01*
X47331Y35069D01*
X47395Y34951D01*
X47483Y34850D01*
X47592Y34770D01*
X47715Y34717D01*
X47846Y34691D01*
X47980Y34695D01*
X48110Y34728D01*
X48230Y34789D01*
X48334Y34874D01*
X48416Y34980D01*
X48473Y35101D01*
X48503Y35232D01*
X48506Y35299D01*
X48506Y35308D01*
X48506Y35325D01*
X48505Y35343D01*
X48503Y35360D01*
X48502Y35369D01*
X48506Y35368D01*
X48502Y35369D01*
X48491Y35435D01*
X48447Y35562D01*
X48376Y35676D01*
X48282Y35772D01*
X48170Y35845D01*
X48044Y35891D01*
X47911Y35909D01*
D02*
G37*
G36*
X21452D02*
X21318Y35898D01*
X21190Y35857D01*
X21074Y35790D01*
X20976Y35699D01*
X20900Y35588D01*
X20849Y35464D01*
X20828Y35332D01*
X20835Y35198D01*
X20872Y35069D01*
X20936Y34951D01*
X21024Y34850D01*
X21133Y34770D01*
X21256Y34717D01*
X21387Y34691D01*
X21521Y34695D01*
X21651Y34728D01*
X21771Y34789D01*
X21875Y34874D01*
X21957Y34980D01*
X22014Y35101D01*
X22044Y35232D01*
X22047Y35299D01*
X22047Y35308D01*
X22047Y35325D01*
X22046Y35343D01*
X22044Y35360D01*
X22043Y35369D01*
X22047Y35368D01*
X22043Y35369D01*
X22032Y35435D01*
X21988Y35562D01*
X21917Y35676D01*
X21823Y35772D01*
X21711Y35845D01*
X21585Y35891D01*
X21452Y35909D01*
D02*
G37*
G36*
X36961Y31009D02*
X36827Y30998D01*
X36699Y30957D01*
X36583Y30890D01*
X36485Y30799D01*
X36409Y30688D01*
X36358Y30564D01*
X36337Y30432D01*
X36344Y30298D01*
X36381Y30169D01*
X36445Y30051D01*
X36533Y29950D01*
X36642Y29870D01*
X36765Y29817D01*
X36896Y29791D01*
X37030Y29795D01*
X37160Y29828D01*
X37280Y29889D01*
X37384Y29974D01*
X37466Y30080D01*
X37523Y30201D01*
X37553Y30332D01*
X37556Y30399D01*
X37556Y30408D01*
X37556Y30425D01*
X37555Y30443D01*
X37553Y30460D01*
X37552Y30469D01*
X37556Y30468D01*
X37552Y30469D01*
X37541Y30535D01*
X37497Y30662D01*
X37426Y30776D01*
X37332Y30872D01*
X37220Y30945D01*
X37094Y30991D01*
X36961Y31009D01*
D02*
G37*
G36*
X10502D02*
X10368Y30998D01*
X10240Y30957D01*
X10124Y30890D01*
X10026Y30799D01*
X9950Y30688D01*
X9899Y30564D01*
X9878Y30432D01*
X9885Y30298D01*
X9922Y30169D01*
X9986Y30051D01*
X10074Y29950D01*
X10183Y29870D01*
X10306Y29817D01*
X10437Y29791D01*
X10571Y29795D01*
X10701Y29828D01*
X10821Y29889D01*
X10925Y29974D01*
X11007Y30080D01*
X11064Y30201D01*
X11094Y30332D01*
X11097Y30399D01*
X11097Y30408D01*
X11097Y30425D01*
X11096Y30443D01*
X11094Y30460D01*
X11093Y30469D01*
X11097Y30468D01*
X11093Y30469D01*
X11082Y30535D01*
X11038Y30662D01*
X10967Y30776D01*
X10873Y30872D01*
X10761Y30945D01*
X10635Y30991D01*
X10502Y31009D01*
D02*
G37*
G36*
X47911Y27522D02*
X47777Y27510D01*
X47649Y27470D01*
X47533Y27403D01*
X47435Y27311D01*
X47359Y27201D01*
X47308Y27077D01*
X47287Y26944D01*
X47294Y26810D01*
X47331Y26681D01*
X47395Y26563D01*
X47483Y26462D01*
X47592Y26383D01*
X47715Y26329D01*
X47846Y26304D01*
X47980Y26307D01*
X48110Y26340D01*
X48230Y26401D01*
X48334Y26487D01*
X48416Y26592D01*
X48473Y26714D01*
X48503Y26845D01*
X48506Y26912D01*
X48506Y26921D01*
X48506Y26938D01*
X48505Y26955D01*
X48503Y26973D01*
X48502Y26981D01*
X48506Y26981D01*
X48502Y26981D01*
X48491Y27048D01*
X48447Y27174D01*
X48376Y27288D01*
X48282Y27384D01*
X48170Y27457D01*
X48044Y27504D01*
X47911Y27522D01*
D02*
G37*
G36*
X21452D02*
X21318Y27510D01*
X21190Y27470D01*
X21074Y27403D01*
X20976Y27311D01*
X20900Y27201D01*
X20849Y27077D01*
X20828Y26944D01*
X20835Y26810D01*
X20872Y26681D01*
X20936Y26563D01*
X21024Y26462D01*
X21133Y26383D01*
X21256Y26329D01*
X21387Y26304D01*
X21521Y26307D01*
X21651Y26340D01*
X21771Y26401D01*
X21875Y26487D01*
X21957Y26592D01*
X22014Y26714D01*
X22044Y26845D01*
X22047Y26912D01*
X22047Y26921D01*
X22047Y26938D01*
X22046Y26955D01*
X22044Y26973D01*
X22043Y26981D01*
X22047Y26981D01*
X22043Y26981D01*
X22032Y27048D01*
X21988Y27174D01*
X21917Y27288D01*
X21823Y27384D01*
X21711Y27457D01*
X21585Y27504D01*
X21452Y27522D01*
D02*
G37*
G36*
X36961Y22622D02*
X36827Y22610D01*
X36699Y22570D01*
X36583Y22503D01*
X36485Y22411D01*
X36409Y22301D01*
X36358Y22177D01*
X36337Y22044D01*
X36344Y21910D01*
X36381Y21781D01*
X36445Y21663D01*
X36533Y21562D01*
X36642Y21483D01*
X36765Y21429D01*
X36896Y21404D01*
X37030Y21407D01*
X37160Y21440D01*
X37280Y21501D01*
X37384Y21587D01*
X37466Y21692D01*
X37523Y21814D01*
X37553Y21945D01*
X37556Y22012D01*
X37556Y22021D01*
X37556Y22038D01*
X37555Y22055D01*
X37553Y22073D01*
X37552Y22081D01*
X37556Y22081D01*
X37552Y22081D01*
X37541Y22148D01*
X37497Y22274D01*
X37426Y22388D01*
X37332Y22484D01*
X37220Y22557D01*
X37094Y22604D01*
X36961Y22622D01*
D02*
G37*
G36*
X10502D02*
X10368Y22610D01*
X10240Y22570D01*
X10124Y22503D01*
X10026Y22411D01*
X9950Y22301D01*
X9899Y22177D01*
X9878Y22044D01*
X9885Y21910D01*
X9922Y21781D01*
X9986Y21663D01*
X10074Y21562D01*
X10183Y21483D01*
X10306Y21429D01*
X10437Y21404D01*
X10571Y21407D01*
X10701Y21440D01*
X10821Y21501D01*
X10925Y21587D01*
X11007Y21692D01*
X11064Y21814D01*
X11094Y21945D01*
X11097Y22012D01*
X11097Y22021D01*
X11097Y22038D01*
X11096Y22055D01*
X11094Y22073D01*
X11093Y22081D01*
X11097Y22081D01*
X11093Y22081D01*
X11082Y22148D01*
X11038Y22274D01*
X10967Y22388D01*
X10873Y22484D01*
X10761Y22557D01*
X10635Y22604D01*
X10502Y22622D01*
D02*
G37*
G36*
X47911Y19134D02*
X47777Y19123D01*
X47649Y19083D01*
X47533Y19015D01*
X47435Y18924D01*
X47359Y18814D01*
X47308Y18689D01*
X47287Y18557D01*
X47294Y18423D01*
X47331Y18294D01*
X47395Y18176D01*
X47483Y18075D01*
X47592Y17996D01*
X47715Y17942D01*
X47846Y17916D01*
X47980Y17920D01*
X48110Y17953D01*
X48230Y18014D01*
X48334Y18099D01*
X48416Y18205D01*
X48473Y18326D01*
X48503Y18457D01*
X48506Y18524D01*
X48506Y18533D01*
X48506Y18551D01*
X48505Y18568D01*
X48503Y18585D01*
X48502Y18594D01*
X48506Y18593D01*
X48502Y18594D01*
X48491Y18660D01*
X48447Y18787D01*
X48376Y18901D01*
X48282Y18997D01*
X48170Y19070D01*
X48044Y19116D01*
X47911Y19134D01*
D02*
G37*
G36*
X21452D02*
X21318Y19123D01*
X21190Y19083D01*
X21074Y19015D01*
X20976Y18924D01*
X20900Y18814D01*
X20849Y18689D01*
X20828Y18557D01*
X20835Y18423D01*
X20872Y18294D01*
X20936Y18176D01*
X21024Y18075D01*
X21133Y17996D01*
X21256Y17942D01*
X21387Y17916D01*
X21521Y17920D01*
X21651Y17953D01*
X21771Y18014D01*
X21875Y18099D01*
X21957Y18205D01*
X22014Y18326D01*
X22044Y18457D01*
X22047Y18524D01*
X22047Y18533D01*
X22047Y18551D01*
X22046Y18568D01*
X22044Y18585D01*
X22043Y18594D01*
X22047Y18593D01*
X22043Y18594D01*
X22032Y18660D01*
X21988Y18787D01*
X21917Y18901D01*
X21823Y18997D01*
X21711Y19070D01*
X21585Y19116D01*
X21452Y19134D01*
D02*
G37*
G36*
X36961Y14234D02*
X36827Y14223D01*
X36699Y14183D01*
X36583Y14115D01*
X36485Y14024D01*
X36409Y13914D01*
X36358Y13789D01*
X36337Y13657D01*
X36344Y13523D01*
X36381Y13394D01*
X36445Y13276D01*
X36533Y13175D01*
X36642Y13096D01*
X36765Y13042D01*
X36896Y13016D01*
X37030Y13020D01*
X37160Y13053D01*
X37280Y13114D01*
X37384Y13199D01*
X37466Y13305D01*
X37523Y13426D01*
X37553Y13557D01*
X37556Y13624D01*
X37556Y13633D01*
X37556Y13651D01*
X37555Y13668D01*
X37553Y13685D01*
X37552Y13694D01*
X37556Y13693D01*
X37552Y13694D01*
X37541Y13760D01*
X37497Y13887D01*
X37426Y14001D01*
X37332Y14097D01*
X37220Y14170D01*
X37094Y14216D01*
X36961Y14234D01*
D02*
G37*
G36*
X10502D02*
X10368Y14223D01*
X10240Y14183D01*
X10124Y14115D01*
X10026Y14024D01*
X9950Y13914D01*
X9899Y13789D01*
X9878Y13657D01*
X9885Y13523D01*
X9922Y13394D01*
X9986Y13276D01*
X10074Y13175D01*
X10183Y13096D01*
X10306Y13042D01*
X10437Y13016D01*
X10571Y13020D01*
X10701Y13053D01*
X10821Y13114D01*
X10925Y13199D01*
X11007Y13305D01*
X11064Y13426D01*
X11094Y13557D01*
X11097Y13624D01*
X11097Y13633D01*
X11097Y13651D01*
X11096Y13668D01*
X11094Y13685D01*
X11093Y13694D01*
X11097Y13693D01*
X11093Y13694D01*
X11082Y13760D01*
X11038Y13887D01*
X10967Y14001D01*
X10873Y14097D01*
X10761Y14170D01*
X10635Y14216D01*
X10502Y14234D01*
D02*
G37*
G36*
X47911Y10747D02*
X47777Y10736D01*
X47649Y10695D01*
X47533Y10628D01*
X47435Y10537D01*
X47359Y10426D01*
X47308Y10302D01*
X47287Y10169D01*
X47294Y10035D01*
X47331Y9906D01*
X47395Y9788D01*
X47483Y9687D01*
X47592Y9608D01*
X47715Y9554D01*
X47846Y9529D01*
X47980Y9533D01*
X48110Y9566D01*
X48230Y9626D01*
X48334Y9712D01*
X48416Y9818D01*
X48473Y9939D01*
X48503Y10070D01*
X48506Y10137D01*
X48506Y10146D01*
X48506Y10163D01*
X48505Y10181D01*
X48503Y10198D01*
X48502Y10207D01*
X48506Y10206D01*
X48502Y10207D01*
X48491Y10273D01*
X48447Y10400D01*
X48376Y10514D01*
X48282Y10609D01*
X48170Y10682D01*
X48044Y10729D01*
X47911Y10747D01*
D02*
G37*
G36*
X21452D02*
X21318Y10736D01*
X21190Y10695D01*
X21074Y10628D01*
X20976Y10537D01*
X20900Y10426D01*
X20849Y10302D01*
X20828Y10169D01*
X20835Y10035D01*
X20872Y9906D01*
X20936Y9788D01*
X21024Y9687D01*
X21133Y9608D01*
X21256Y9554D01*
X21387Y9529D01*
X21521Y9533D01*
X21651Y9566D01*
X21771Y9626D01*
X21875Y9712D01*
X21957Y9818D01*
X22014Y9939D01*
X22044Y10070D01*
X22047Y10137D01*
X22047Y10146D01*
X22047Y10163D01*
X22046Y10181D01*
X22044Y10198D01*
X22043Y10207D01*
X22047Y10206D01*
X22043Y10207D01*
X22032Y10273D01*
X21988Y10400D01*
X21917Y10514D01*
X21823Y10609D01*
X21711Y10682D01*
X21585Y10729D01*
X21452Y10747D01*
D02*
G37*
G36*
X36961Y5847D02*
X36827Y5836D01*
X36699Y5795D01*
X36583Y5728D01*
X36485Y5637D01*
X36409Y5526D01*
X36358Y5402D01*
X36337Y5269D01*
X36344Y5135D01*
X36381Y5006D01*
X36445Y4888D01*
X36533Y4787D01*
X36642Y4708D01*
X36765Y4654D01*
X36896Y4629D01*
X37030Y4633D01*
X37160Y4666D01*
X37280Y4726D01*
X37384Y4812D01*
X37466Y4918D01*
X37523Y5039D01*
X37553Y5170D01*
X37556Y5237D01*
X37556Y5246D01*
X37556Y5263D01*
X37555Y5281D01*
X37553Y5298D01*
X37552Y5307D01*
X37556Y5306D01*
X37552Y5307D01*
X37541Y5373D01*
X37497Y5500D01*
X37426Y5614D01*
X37332Y5709D01*
X37220Y5782D01*
X37094Y5829D01*
X36961Y5847D01*
D02*
G37*
G36*
X10502D02*
X10368Y5836D01*
X10240Y5795D01*
X10124Y5728D01*
X10026Y5637D01*
X9950Y5526D01*
X9899Y5402D01*
X9878Y5269D01*
X9885Y5135D01*
X9922Y5006D01*
X9986Y4888D01*
X10074Y4787D01*
X10183Y4708D01*
X10306Y4654D01*
X10437Y4629D01*
X10571Y4633D01*
X10701Y4666D01*
X10821Y4726D01*
X10925Y4812D01*
X11007Y4918D01*
X11064Y5039D01*
X11094Y5170D01*
X11097Y5237D01*
X11097Y5246D01*
X11097Y5263D01*
X11096Y5281D01*
X11094Y5298D01*
X11093Y5307D01*
X11097Y5306D01*
X11093Y5307D01*
X11082Y5373D01*
X11038Y5500D01*
X10967Y5614D01*
X10873Y5709D01*
X10761Y5782D01*
X10635Y5829D01*
X10502Y5847D01*
D02*
G37*
%LPD*%
D81*
X1969Y3937D02*
D03*
D82*
X56988D02*
D03*
Y53445D02*
D03*
X1969D02*
D03*
D83*
X19064Y5937D02*
D03*
X18710D02*
D03*
X12164Y8737D02*
D03*
X11810D02*
D03*
X20514Y8887D02*
D03*
X20160D02*
D03*
X19114D02*
D03*
X18760D02*
D03*
X12964Y5137D02*
D03*
X12610D02*
D03*
X12964Y4787D02*
D03*
X12610D02*
D03*
X10764Y7937D02*
D03*
X10410D02*
D03*
Y7537D02*
D03*
X10764D02*
D03*
X4560Y7187D02*
D03*
X4914D02*
D03*
Y6787D02*
D03*
X4560D02*
D03*
X45523Y5937D02*
D03*
X45169D02*
D03*
X38623Y8737D02*
D03*
X38269D02*
D03*
X46973Y8887D02*
D03*
X46619D02*
D03*
X45573D02*
D03*
X45219D02*
D03*
X39423Y5137D02*
D03*
X39069D02*
D03*
X39423Y4787D02*
D03*
X39069D02*
D03*
X37223Y7937D02*
D03*
X36869D02*
D03*
Y7537D02*
D03*
X37223D02*
D03*
X31019Y7187D02*
D03*
X31373D02*
D03*
Y6787D02*
D03*
X31019D02*
D03*
X19064Y14324D02*
D03*
X18710D02*
D03*
X12164Y17124D02*
D03*
X11810D02*
D03*
X20514Y17274D02*
D03*
X20160D02*
D03*
X19114D02*
D03*
X18760D02*
D03*
X12964Y13524D02*
D03*
X12610D02*
D03*
X12964Y13174D02*
D03*
X12610D02*
D03*
X10764Y16324D02*
D03*
X10410D02*
D03*
Y15924D02*
D03*
X10764D02*
D03*
X4560Y15574D02*
D03*
X4914D02*
D03*
Y15174D02*
D03*
X4560D02*
D03*
X45523Y14324D02*
D03*
X45169D02*
D03*
X38623Y17124D02*
D03*
X38269D02*
D03*
X46973Y17274D02*
D03*
X46619D02*
D03*
X45573D02*
D03*
X45219D02*
D03*
X39423Y13524D02*
D03*
X39069D02*
D03*
X39423Y13174D02*
D03*
X39069D02*
D03*
X37223Y16324D02*
D03*
X36869D02*
D03*
Y15924D02*
D03*
X37223D02*
D03*
X31019Y15574D02*
D03*
X31373D02*
D03*
Y15174D02*
D03*
X31019D02*
D03*
X19064Y22712D02*
D03*
X18710D02*
D03*
X12164Y25512D02*
D03*
X11810D02*
D03*
X20514Y25662D02*
D03*
X20160D02*
D03*
X19114D02*
D03*
X18760D02*
D03*
X12964Y21912D02*
D03*
X12610D02*
D03*
X12964Y21562D02*
D03*
X12610D02*
D03*
X10764Y24712D02*
D03*
X10410D02*
D03*
Y24312D02*
D03*
X10764D02*
D03*
X4560Y23962D02*
D03*
X4914D02*
D03*
Y23562D02*
D03*
X4560D02*
D03*
X45523Y22712D02*
D03*
X45169D02*
D03*
X38623Y25512D02*
D03*
X38269D02*
D03*
X46973Y25662D02*
D03*
X46619D02*
D03*
X45573D02*
D03*
X45219D02*
D03*
X39423Y21912D02*
D03*
X39069D02*
D03*
X39423Y21562D02*
D03*
X39069D02*
D03*
X37223Y24712D02*
D03*
X36869D02*
D03*
Y24312D02*
D03*
X37223D02*
D03*
X31019Y23962D02*
D03*
X31373D02*
D03*
Y23562D02*
D03*
X31019D02*
D03*
X19064Y31099D02*
D03*
X18710D02*
D03*
X12164Y33899D02*
D03*
X11810D02*
D03*
X20514Y34049D02*
D03*
X20160D02*
D03*
X19114D02*
D03*
X18760D02*
D03*
X12964Y30299D02*
D03*
X12610D02*
D03*
X12964Y29949D02*
D03*
X12610D02*
D03*
X10764Y33099D02*
D03*
X10410D02*
D03*
Y32699D02*
D03*
X10764D02*
D03*
X4560Y32349D02*
D03*
X4914D02*
D03*
Y31949D02*
D03*
X4560D02*
D03*
X45523Y31099D02*
D03*
X45169D02*
D03*
X38623Y33899D02*
D03*
X38269D02*
D03*
X46973Y34049D02*
D03*
X46619D02*
D03*
X45573D02*
D03*
X45219D02*
D03*
X39423Y30299D02*
D03*
X39069D02*
D03*
X39423Y29949D02*
D03*
X39069D02*
D03*
X37223Y33099D02*
D03*
X36869D02*
D03*
Y32699D02*
D03*
X37223D02*
D03*
X31019Y32349D02*
D03*
X31373D02*
D03*
Y31949D02*
D03*
X31019D02*
D03*
X19064Y39487D02*
D03*
X18710D02*
D03*
X12164Y42287D02*
D03*
X11810D02*
D03*
X20514Y42437D02*
D03*
X20160D02*
D03*
X19114D02*
D03*
X18760D02*
D03*
X12964Y38687D02*
D03*
X12610D02*
D03*
X12964Y38337D02*
D03*
X12610D02*
D03*
X10764Y41487D02*
D03*
X10410D02*
D03*
Y41087D02*
D03*
X10764D02*
D03*
X4560Y40737D02*
D03*
X4914D02*
D03*
Y40337D02*
D03*
X4560D02*
D03*
X45523Y39487D02*
D03*
X45169D02*
D03*
X38623Y42287D02*
D03*
X38269D02*
D03*
X46973Y42437D02*
D03*
X46619D02*
D03*
X45573D02*
D03*
X45219D02*
D03*
X39423Y38687D02*
D03*
X39069D02*
D03*
X39423Y38337D02*
D03*
X39069D02*
D03*
X37223Y41487D02*
D03*
X36869D02*
D03*
Y41087D02*
D03*
X37223D02*
D03*
X31019Y40737D02*
D03*
X31373D02*
D03*
Y40337D02*
D03*
X31019D02*
D03*
X19064Y47874D02*
D03*
X18710D02*
D03*
X12164Y50674D02*
D03*
X11810D02*
D03*
X20514Y50824D02*
D03*
X20160D02*
D03*
X19114D02*
D03*
X18760D02*
D03*
X12964Y47074D02*
D03*
X12610D02*
D03*
X12964Y46724D02*
D03*
X12610D02*
D03*
X10764Y49874D02*
D03*
X10410D02*
D03*
Y49474D02*
D03*
X10764D02*
D03*
X4560Y49124D02*
D03*
X4914D02*
D03*
Y48724D02*
D03*
X4560D02*
D03*
X45523Y47874D02*
D03*
X45169D02*
D03*
X38623Y50674D02*
D03*
X38269D02*
D03*
X46973Y50824D02*
D03*
X46619D02*
D03*
X45573D02*
D03*
X45219D02*
D03*
X39423Y47074D02*
D03*
X39069D02*
D03*
X39423Y46724D02*
D03*
X39069D02*
D03*
X37223Y49874D02*
D03*
X36869D02*
D03*
Y49474D02*
D03*
X37223D02*
D03*
X31019Y49124D02*
D03*
X31373D02*
D03*
Y48724D02*
D03*
X31019D02*
D03*
D84*
X26571Y8511D02*
D03*
Y8137D02*
D03*
Y7763D02*
D03*
X27603D02*
D03*
Y8511D02*
D03*
Y8137D02*
D03*
X53030Y8511D02*
D03*
Y8137D02*
D03*
Y7763D02*
D03*
X54062D02*
D03*
Y8511D02*
D03*
Y8137D02*
D03*
X26571Y16898D02*
D03*
Y16524D02*
D03*
Y16150D02*
D03*
X27603D02*
D03*
Y16898D02*
D03*
Y16524D02*
D03*
X53030Y16898D02*
D03*
Y16524D02*
D03*
Y16150D02*
D03*
X54062D02*
D03*
Y16898D02*
D03*
Y16524D02*
D03*
X26571Y25286D02*
D03*
Y24912D02*
D03*
Y24538D02*
D03*
X27603D02*
D03*
Y25286D02*
D03*
Y24912D02*
D03*
X53030Y25286D02*
D03*
Y24912D02*
D03*
Y24538D02*
D03*
X54062D02*
D03*
Y25286D02*
D03*
Y24912D02*
D03*
X26571Y33673D02*
D03*
Y33299D02*
D03*
Y32925D02*
D03*
X27603D02*
D03*
Y33673D02*
D03*
Y33299D02*
D03*
X53030Y33673D02*
D03*
Y33299D02*
D03*
Y32925D02*
D03*
X54062D02*
D03*
Y33673D02*
D03*
Y33299D02*
D03*
X26571Y42061D02*
D03*
Y41687D02*
D03*
Y41313D02*
D03*
X27603D02*
D03*
Y42061D02*
D03*
Y41687D02*
D03*
X53030Y42061D02*
D03*
Y41687D02*
D03*
Y41313D02*
D03*
X54062D02*
D03*
Y42061D02*
D03*
Y41687D02*
D03*
X26571Y50448D02*
D03*
Y50074D02*
D03*
Y49700D02*
D03*
X27603D02*
D03*
Y50448D02*
D03*
Y50074D02*
D03*
X53030Y50448D02*
D03*
Y50074D02*
D03*
Y49700D02*
D03*
X54062D02*
D03*
Y50448D02*
D03*
Y50074D02*
D03*
D85*
X16443Y7461D02*
D03*
X16187D02*
D03*
X15931D02*
D03*
Y6713D02*
D03*
X16187D02*
D03*
X16443D02*
D03*
X42902Y7461D02*
D03*
X42646D02*
D03*
X42390D02*
D03*
Y6713D02*
D03*
X42646D02*
D03*
X42902D02*
D03*
X16443Y15848D02*
D03*
X16187D02*
D03*
X15931D02*
D03*
Y15100D02*
D03*
X16187D02*
D03*
X16443D02*
D03*
X42902Y15848D02*
D03*
X42646D02*
D03*
X42390D02*
D03*
Y15100D02*
D03*
X42646D02*
D03*
X42902D02*
D03*
X16443Y24236D02*
D03*
X16187D02*
D03*
X15931D02*
D03*
Y23488D02*
D03*
X16187D02*
D03*
X16443D02*
D03*
X42902Y24236D02*
D03*
X42646D02*
D03*
X42390D02*
D03*
Y23488D02*
D03*
X42646D02*
D03*
X42902D02*
D03*
X16443Y32623D02*
D03*
X16187D02*
D03*
X15931D02*
D03*
Y31875D02*
D03*
X16187D02*
D03*
X16443D02*
D03*
X42902Y32623D02*
D03*
X42646D02*
D03*
X42390D02*
D03*
Y31875D02*
D03*
X42646D02*
D03*
X42902D02*
D03*
X16443Y41011D02*
D03*
X16187D02*
D03*
X15931D02*
D03*
Y40263D02*
D03*
X16187D02*
D03*
X16443D02*
D03*
X42902Y41011D02*
D03*
X42646D02*
D03*
X42390D02*
D03*
Y40263D02*
D03*
X42646D02*
D03*
X42902D02*
D03*
X16443Y49398D02*
D03*
X16187D02*
D03*
X15931D02*
D03*
Y48650D02*
D03*
X16187D02*
D03*
X16443D02*
D03*
X42902Y49398D02*
D03*
X42646D02*
D03*
X42390D02*
D03*
Y48650D02*
D03*
X42646D02*
D03*
X42902D02*
D03*
D86*
X20137Y8511D02*
D03*
X19881D02*
D03*
X20393D02*
D03*
X19881Y7763D02*
D03*
X20137D02*
D03*
X20393D02*
D03*
X18993D02*
D03*
X18737D02*
D03*
X18481D02*
D03*
X18993Y8511D02*
D03*
X18481D02*
D03*
X18737D02*
D03*
X46596D02*
D03*
X46340D02*
D03*
X46852D02*
D03*
X46340Y7763D02*
D03*
X46596D02*
D03*
X46852D02*
D03*
X45452D02*
D03*
X45196D02*
D03*
X44940D02*
D03*
X45452Y8511D02*
D03*
X44940D02*
D03*
X45196D02*
D03*
X20137Y16898D02*
D03*
X19881D02*
D03*
X20393D02*
D03*
X19881Y16150D02*
D03*
X20137D02*
D03*
X20393D02*
D03*
X18993D02*
D03*
X18737D02*
D03*
X18481D02*
D03*
X18993Y16898D02*
D03*
X18481D02*
D03*
X18737D02*
D03*
X46596D02*
D03*
X46340D02*
D03*
X46852D02*
D03*
X46340Y16150D02*
D03*
X46596D02*
D03*
X46852D02*
D03*
X45452D02*
D03*
X45196D02*
D03*
X44940D02*
D03*
X45452Y16898D02*
D03*
X44940D02*
D03*
X45196D02*
D03*
X20137Y25286D02*
D03*
X19881D02*
D03*
X20393D02*
D03*
X19881Y24538D02*
D03*
X20137D02*
D03*
X20393D02*
D03*
X18993D02*
D03*
X18737D02*
D03*
X18481D02*
D03*
X18993Y25286D02*
D03*
X18481D02*
D03*
X18737D02*
D03*
X46596D02*
D03*
X46340D02*
D03*
X46852D02*
D03*
X46340Y24538D02*
D03*
X46596D02*
D03*
X46852D02*
D03*
X45452D02*
D03*
X45196D02*
D03*
X44940D02*
D03*
X45452Y25286D02*
D03*
X44940D02*
D03*
X45196D02*
D03*
X20137Y33673D02*
D03*
X19881D02*
D03*
X20393D02*
D03*
X19881Y32925D02*
D03*
X20137D02*
D03*
X20393D02*
D03*
X18993D02*
D03*
X18737D02*
D03*
X18481D02*
D03*
X18993Y33673D02*
D03*
X18481D02*
D03*
X18737D02*
D03*
X46596D02*
D03*
X46340D02*
D03*
X46852D02*
D03*
X46340Y32925D02*
D03*
X46596D02*
D03*
X46852D02*
D03*
X45452D02*
D03*
X45196D02*
D03*
X44940D02*
D03*
X45452Y33673D02*
D03*
X44940D02*
D03*
X45196D02*
D03*
X20137Y42061D02*
D03*
X19881D02*
D03*
X20393D02*
D03*
X19881Y41313D02*
D03*
X20137D02*
D03*
X20393D02*
D03*
X18993D02*
D03*
X18737D02*
D03*
X18481D02*
D03*
X18993Y42061D02*
D03*
X18481D02*
D03*
X18737D02*
D03*
X46596D02*
D03*
X46340D02*
D03*
X46852D02*
D03*
X46340Y41313D02*
D03*
X46596D02*
D03*
X46852D02*
D03*
X45452D02*
D03*
X45196D02*
D03*
X44940D02*
D03*
X45452Y42061D02*
D03*
X44940D02*
D03*
X45196D02*
D03*
X20137Y50448D02*
D03*
X19881D02*
D03*
X20393D02*
D03*
X19881Y49700D02*
D03*
X20137D02*
D03*
X20393D02*
D03*
X18993D02*
D03*
X18737D02*
D03*
X18481D02*
D03*
X18993Y50448D02*
D03*
X18481D02*
D03*
X18737D02*
D03*
X46596D02*
D03*
X46340D02*
D03*
X46852D02*
D03*
X46340Y49700D02*
D03*
X46596D02*
D03*
X46852D02*
D03*
X45452D02*
D03*
X45196D02*
D03*
X44940D02*
D03*
X45452Y50448D02*
D03*
X44940D02*
D03*
X45196D02*
D03*
D87*
X11461Y8737D02*
D03*
Y8993D02*
D03*
Y8481D02*
D03*
X10713Y8993D02*
D03*
Y8737D02*
D03*
Y8481D02*
D03*
X26563Y9081D02*
D03*
Y9337D02*
D03*
Y9593D02*
D03*
X27311Y9081D02*
D03*
Y9593D02*
D03*
Y9337D02*
D03*
X37920Y8737D02*
D03*
Y8993D02*
D03*
Y8481D02*
D03*
X37172Y8993D02*
D03*
Y8737D02*
D03*
Y8481D02*
D03*
X53022Y9081D02*
D03*
Y9337D02*
D03*
Y9593D02*
D03*
X53770Y9081D02*
D03*
Y9593D02*
D03*
Y9337D02*
D03*
X11461Y17124D02*
D03*
Y17380D02*
D03*
Y16868D02*
D03*
X10713Y17380D02*
D03*
Y17124D02*
D03*
Y16868D02*
D03*
X26563Y17469D02*
D03*
Y17724D02*
D03*
Y17980D02*
D03*
X27311Y17469D02*
D03*
Y17980D02*
D03*
Y17724D02*
D03*
X37920Y17124D02*
D03*
Y17380D02*
D03*
Y16868D02*
D03*
X37172Y17380D02*
D03*
Y17124D02*
D03*
Y16868D02*
D03*
X53022Y17469D02*
D03*
Y17724D02*
D03*
Y17980D02*
D03*
X53770Y17469D02*
D03*
Y17980D02*
D03*
Y17724D02*
D03*
X11461Y25512D02*
D03*
Y25768D02*
D03*
Y25256D02*
D03*
X10713Y25768D02*
D03*
Y25512D02*
D03*
Y25256D02*
D03*
X26563Y25856D02*
D03*
Y26112D02*
D03*
Y26368D02*
D03*
X27311Y25856D02*
D03*
Y26368D02*
D03*
Y26112D02*
D03*
X37920Y25512D02*
D03*
Y25768D02*
D03*
Y25256D02*
D03*
X37172Y25768D02*
D03*
Y25512D02*
D03*
Y25256D02*
D03*
X53022Y25856D02*
D03*
Y26112D02*
D03*
Y26368D02*
D03*
X53770Y25856D02*
D03*
Y26368D02*
D03*
Y26112D02*
D03*
X11461Y33899D02*
D03*
Y34155D02*
D03*
Y33643D02*
D03*
X10713Y34155D02*
D03*
Y33899D02*
D03*
Y33643D02*
D03*
X26563Y34243D02*
D03*
Y34499D02*
D03*
Y34755D02*
D03*
X27311Y34243D02*
D03*
Y34755D02*
D03*
Y34499D02*
D03*
X37920Y33899D02*
D03*
Y34155D02*
D03*
Y33643D02*
D03*
X37172Y34155D02*
D03*
Y33899D02*
D03*
Y33643D02*
D03*
X53022Y34243D02*
D03*
Y34499D02*
D03*
Y34755D02*
D03*
X53770Y34243D02*
D03*
Y34755D02*
D03*
Y34499D02*
D03*
X11461Y42287D02*
D03*
Y42543D02*
D03*
Y42031D02*
D03*
X10713Y42543D02*
D03*
Y42287D02*
D03*
Y42031D02*
D03*
X26563Y42631D02*
D03*
Y42887D02*
D03*
Y43143D02*
D03*
X27311Y42631D02*
D03*
Y43143D02*
D03*
Y42887D02*
D03*
X37920Y42287D02*
D03*
Y42543D02*
D03*
Y42031D02*
D03*
X37172Y42543D02*
D03*
Y42287D02*
D03*
Y42031D02*
D03*
X53022Y42631D02*
D03*
Y42887D02*
D03*
Y43143D02*
D03*
X53770Y42631D02*
D03*
Y43143D02*
D03*
Y42887D02*
D03*
X11461Y50674D02*
D03*
Y50930D02*
D03*
Y50418D02*
D03*
X10713Y50930D02*
D03*
Y50674D02*
D03*
Y50418D02*
D03*
X26563Y51018D02*
D03*
Y51274D02*
D03*
Y51530D02*
D03*
X27311Y51018D02*
D03*
Y51530D02*
D03*
Y51274D02*
D03*
X37920Y50674D02*
D03*
Y50930D02*
D03*
Y50418D02*
D03*
X37172Y50930D02*
D03*
Y50674D02*
D03*
Y50418D02*
D03*
X53022Y51018D02*
D03*
Y51274D02*
D03*
Y51530D02*
D03*
X53770Y51018D02*
D03*
Y51530D02*
D03*
Y51274D02*
D03*
D88*
X12453Y5671D02*
D03*
X12709D02*
D03*
X12965D02*
D03*
X13221D02*
D03*
X12453Y7403D02*
D03*
X12709D02*
D03*
X12965D02*
D03*
X13221D02*
D03*
X38912Y5671D02*
D03*
X39168D02*
D03*
X39424D02*
D03*
X39680D02*
D03*
X38912Y7403D02*
D03*
X39168D02*
D03*
X39424D02*
D03*
X39680D02*
D03*
X12453Y14058D02*
D03*
X12709D02*
D03*
X12965D02*
D03*
X13221D02*
D03*
X12453Y15791D02*
D03*
X12709D02*
D03*
X12965D02*
D03*
X13221D02*
D03*
X38912Y14058D02*
D03*
X39168D02*
D03*
X39424D02*
D03*
X39680D02*
D03*
X38912Y15791D02*
D03*
X39168D02*
D03*
X39424D02*
D03*
X39680D02*
D03*
X12453Y22446D02*
D03*
X12709D02*
D03*
X12965D02*
D03*
X13221D02*
D03*
X12453Y24178D02*
D03*
X12709D02*
D03*
X12965D02*
D03*
X13221D02*
D03*
X38912Y22446D02*
D03*
X39168D02*
D03*
X39424D02*
D03*
X39680D02*
D03*
X38912Y24178D02*
D03*
X39168D02*
D03*
X39424D02*
D03*
X39680D02*
D03*
X12453Y30833D02*
D03*
X12709D02*
D03*
X12965D02*
D03*
X13221D02*
D03*
X12453Y32565D02*
D03*
X12709D02*
D03*
X12965D02*
D03*
X13221D02*
D03*
X38912Y30833D02*
D03*
X39168D02*
D03*
X39424D02*
D03*
X39680D02*
D03*
X38912Y32565D02*
D03*
X39168D02*
D03*
X39424D02*
D03*
X39680D02*
D03*
X12453Y39220D02*
D03*
X12709D02*
D03*
X12965D02*
D03*
X13221D02*
D03*
X12453Y40953D02*
D03*
X12709D02*
D03*
X12965D02*
D03*
X13221D02*
D03*
X38912Y39220D02*
D03*
X39168D02*
D03*
X39424D02*
D03*
X39680D02*
D03*
X38912Y40953D02*
D03*
X39168D02*
D03*
X39424D02*
D03*
X39680D02*
D03*
X12453Y47608D02*
D03*
X12709D02*
D03*
X12965D02*
D03*
X13221D02*
D03*
X12453Y49340D02*
D03*
X12709D02*
D03*
X12965D02*
D03*
X13221D02*
D03*
X38912Y47608D02*
D03*
X39168D02*
D03*
X39424D02*
D03*
X39680D02*
D03*
X38912Y49340D02*
D03*
X39168D02*
D03*
X39424D02*
D03*
X39680D02*
D03*
D89*
X17003Y10203D02*
D03*
Y10459D02*
D03*
Y10715D02*
D03*
Y10971D02*
D03*
X15271Y10203D02*
D03*
Y10459D02*
D03*
Y10715D02*
D03*
Y10971D02*
D03*
X43462Y10203D02*
D03*
Y10459D02*
D03*
Y10715D02*
D03*
Y10971D02*
D03*
X41730Y10203D02*
D03*
Y10459D02*
D03*
Y10715D02*
D03*
Y10971D02*
D03*
X17003Y18591D02*
D03*
Y18846D02*
D03*
Y19102D02*
D03*
Y19358D02*
D03*
X15271Y18591D02*
D03*
Y18846D02*
D03*
Y19102D02*
D03*
Y19358D02*
D03*
X43462Y18591D02*
D03*
Y18846D02*
D03*
Y19102D02*
D03*
Y19358D02*
D03*
X41730Y18591D02*
D03*
Y18846D02*
D03*
Y19102D02*
D03*
Y19358D02*
D03*
X17003Y26978D02*
D03*
Y27234D02*
D03*
Y27490D02*
D03*
Y27746D02*
D03*
X15271Y26978D02*
D03*
Y27234D02*
D03*
Y27490D02*
D03*
Y27746D02*
D03*
X43462Y26978D02*
D03*
Y27234D02*
D03*
Y27490D02*
D03*
Y27746D02*
D03*
X41730Y26978D02*
D03*
Y27234D02*
D03*
Y27490D02*
D03*
Y27746D02*
D03*
X17003Y35365D02*
D03*
Y35621D02*
D03*
Y35877D02*
D03*
Y36133D02*
D03*
X15271Y35365D02*
D03*
Y35621D02*
D03*
Y35877D02*
D03*
Y36133D02*
D03*
X43462Y35365D02*
D03*
Y35621D02*
D03*
Y35877D02*
D03*
Y36133D02*
D03*
X41730Y35365D02*
D03*
Y35621D02*
D03*
Y35877D02*
D03*
Y36133D02*
D03*
X17003Y43753D02*
D03*
Y44009D02*
D03*
Y44265D02*
D03*
Y44520D02*
D03*
X15271Y43753D02*
D03*
Y44009D02*
D03*
Y44265D02*
D03*
Y44520D02*
D03*
X43462Y43753D02*
D03*
Y44009D02*
D03*
Y44265D02*
D03*
Y44520D02*
D03*
X41730Y43753D02*
D03*
Y44009D02*
D03*
Y44265D02*
D03*
Y44520D02*
D03*
X17003Y52140D02*
D03*
Y52396D02*
D03*
Y52652D02*
D03*
Y52908D02*
D03*
X15271Y52140D02*
D03*
Y52396D02*
D03*
Y52652D02*
D03*
Y52908D02*
D03*
X43462Y52140D02*
D03*
Y52396D02*
D03*
Y52652D02*
D03*
Y52908D02*
D03*
X41730Y52140D02*
D03*
Y52396D02*
D03*
Y52652D02*
D03*
Y52908D02*
D03*
D90*
X15411Y8300D02*
D03*
X14663D02*
D03*
X15037Y7474D02*
D03*
X17337D02*
D03*
X16963Y8300D02*
D03*
X17711D02*
D03*
Y6950D02*
D03*
X16963D02*
D03*
X17337Y6124D02*
D03*
X15411Y6950D02*
D03*
X14663D02*
D03*
X15037Y6124D02*
D03*
X15411Y5650D02*
D03*
X14663D02*
D03*
X15037Y4824D02*
D03*
X17337D02*
D03*
X16963Y5650D02*
D03*
X17711D02*
D03*
X41870Y8300D02*
D03*
X41122D02*
D03*
X41496Y7474D02*
D03*
X43796D02*
D03*
X43422Y8300D02*
D03*
X44170D02*
D03*
Y6950D02*
D03*
X43422D02*
D03*
X43796Y6124D02*
D03*
X41870Y6950D02*
D03*
X41122D02*
D03*
X41496Y6124D02*
D03*
X41870Y5650D02*
D03*
X41122D02*
D03*
X41496Y4824D02*
D03*
X43796D02*
D03*
X43422Y5650D02*
D03*
X44170D02*
D03*
X15411Y16688D02*
D03*
X14663D02*
D03*
X15037Y15861D02*
D03*
X17337D02*
D03*
X16963Y16688D02*
D03*
X17711D02*
D03*
Y15338D02*
D03*
X16963D02*
D03*
X17337Y14511D02*
D03*
X15411Y15338D02*
D03*
X14663D02*
D03*
X15037Y14511D02*
D03*
X15411Y14038D02*
D03*
X14663D02*
D03*
X15037Y13211D02*
D03*
X17337D02*
D03*
X16963Y14038D02*
D03*
X17711D02*
D03*
X41870Y16688D02*
D03*
X41122D02*
D03*
X41496Y15861D02*
D03*
X43796D02*
D03*
X43422Y16688D02*
D03*
X44170D02*
D03*
Y15338D02*
D03*
X43422D02*
D03*
X43796Y14511D02*
D03*
X41870Y15338D02*
D03*
X41122D02*
D03*
X41496Y14511D02*
D03*
X41870Y14038D02*
D03*
X41122D02*
D03*
X41496Y13211D02*
D03*
X43796D02*
D03*
X43422Y14038D02*
D03*
X44170D02*
D03*
X15411Y25075D02*
D03*
X14663D02*
D03*
X15037Y24248D02*
D03*
X17337D02*
D03*
X16963Y25075D02*
D03*
X17711D02*
D03*
Y23725D02*
D03*
X16963D02*
D03*
X17337Y22898D02*
D03*
X15411Y23725D02*
D03*
X14663D02*
D03*
X15037Y22898D02*
D03*
X15411Y22425D02*
D03*
X14663D02*
D03*
X15037Y21598D02*
D03*
X17337D02*
D03*
X16963Y22425D02*
D03*
X17711D02*
D03*
X41870Y25075D02*
D03*
X41122D02*
D03*
X41496Y24248D02*
D03*
X43796D02*
D03*
X43422Y25075D02*
D03*
X44170D02*
D03*
Y23725D02*
D03*
X43422D02*
D03*
X43796Y22898D02*
D03*
X41870Y23725D02*
D03*
X41122D02*
D03*
X41496Y22898D02*
D03*
X41870Y22425D02*
D03*
X41122D02*
D03*
X41496Y21598D02*
D03*
X43796D02*
D03*
X43422Y22425D02*
D03*
X44170D02*
D03*
X15411Y33463D02*
D03*
X14663D02*
D03*
X15037Y32636D02*
D03*
X17337D02*
D03*
X16963Y33463D02*
D03*
X17711D02*
D03*
Y32113D02*
D03*
X16963D02*
D03*
X17337Y31286D02*
D03*
X15411Y32113D02*
D03*
X14663D02*
D03*
X15037Y31286D02*
D03*
X15411Y30813D02*
D03*
X14663D02*
D03*
X15037Y29986D02*
D03*
X17337D02*
D03*
X16963Y30813D02*
D03*
X17711D02*
D03*
X41870Y33463D02*
D03*
X41122D02*
D03*
X41496Y32636D02*
D03*
X43796D02*
D03*
X43422Y33463D02*
D03*
X44170D02*
D03*
Y32113D02*
D03*
X43422D02*
D03*
X43796Y31286D02*
D03*
X41870Y32113D02*
D03*
X41122D02*
D03*
X41496Y31286D02*
D03*
X41870Y30813D02*
D03*
X41122D02*
D03*
X41496Y29986D02*
D03*
X43796D02*
D03*
X43422Y30813D02*
D03*
X44170D02*
D03*
X15411Y41850D02*
D03*
X14663D02*
D03*
X15037Y41023D02*
D03*
X17337D02*
D03*
X16963Y41850D02*
D03*
X17711D02*
D03*
Y40500D02*
D03*
X16963D02*
D03*
X17337Y39673D02*
D03*
X15411Y40500D02*
D03*
X14663D02*
D03*
X15037Y39673D02*
D03*
X15411Y39200D02*
D03*
X14663D02*
D03*
X15037Y38373D02*
D03*
X17337D02*
D03*
X16963Y39200D02*
D03*
X17711D02*
D03*
X41870Y41850D02*
D03*
X41122D02*
D03*
X41496Y41023D02*
D03*
X43796D02*
D03*
X43422Y41850D02*
D03*
X44170D02*
D03*
Y40500D02*
D03*
X43422D02*
D03*
X43796Y39673D02*
D03*
X41870Y40500D02*
D03*
X41122D02*
D03*
X41496Y39673D02*
D03*
X41870Y39200D02*
D03*
X41122D02*
D03*
X41496Y38373D02*
D03*
X43796D02*
D03*
X43422Y39200D02*
D03*
X44170D02*
D03*
X15411Y50237D02*
D03*
X14663D02*
D03*
X15037Y49411D02*
D03*
X17337D02*
D03*
X16963Y50237D02*
D03*
X17711D02*
D03*
Y48887D02*
D03*
X16963D02*
D03*
X17337Y48061D02*
D03*
X15411Y48887D02*
D03*
X14663D02*
D03*
X15037Y48061D02*
D03*
X15411Y47587D02*
D03*
X14663D02*
D03*
X15037Y46761D02*
D03*
X17337D02*
D03*
X16963Y47587D02*
D03*
X17711D02*
D03*
X41870Y50237D02*
D03*
X41122D02*
D03*
X41496Y49411D02*
D03*
X43796D02*
D03*
X43422Y50237D02*
D03*
X44170D02*
D03*
Y48887D02*
D03*
X43422D02*
D03*
X43796Y48061D02*
D03*
X41870Y48887D02*
D03*
X41122D02*
D03*
X41496Y48061D02*
D03*
X41870Y47587D02*
D03*
X41122D02*
D03*
X41496Y46761D02*
D03*
X43796D02*
D03*
X43422Y47587D02*
D03*
X44170D02*
D03*
D91*
X13737Y6782D02*
D03*
Y6192D02*
D03*
X27837Y8992D02*
D03*
Y9582D02*
D03*
X26037Y10632D02*
D03*
Y10042D02*
D03*
Y9092D02*
D03*
Y9682D02*
D03*
X25987Y7992D02*
D03*
Y8582D02*
D03*
X21237Y7742D02*
D03*
Y8332D02*
D03*
X40196Y6782D02*
D03*
Y6192D02*
D03*
X54296Y8992D02*
D03*
Y9582D02*
D03*
X52496Y10632D02*
D03*
Y10042D02*
D03*
Y9092D02*
D03*
Y9682D02*
D03*
X52446Y7992D02*
D03*
Y8582D02*
D03*
X47696Y7742D02*
D03*
Y8332D02*
D03*
X13737Y15170D02*
D03*
Y14579D02*
D03*
X27837Y17379D02*
D03*
Y17970D02*
D03*
X26037Y19020D02*
D03*
Y18429D02*
D03*
Y17479D02*
D03*
Y18070D02*
D03*
X25987Y16379D02*
D03*
Y16970D02*
D03*
X21237Y16129D02*
D03*
Y16720D02*
D03*
X40196Y15170D02*
D03*
Y14579D02*
D03*
X54296Y17379D02*
D03*
Y17970D02*
D03*
X52496Y19020D02*
D03*
Y18429D02*
D03*
Y17479D02*
D03*
Y18070D02*
D03*
X52446Y16379D02*
D03*
Y16970D02*
D03*
X47696Y16129D02*
D03*
Y16720D02*
D03*
X13737Y23557D02*
D03*
Y22967D02*
D03*
X27837Y25767D02*
D03*
Y26357D02*
D03*
X26037Y27407D02*
D03*
Y26817D02*
D03*
Y25867D02*
D03*
Y26457D02*
D03*
X25987Y24767D02*
D03*
Y25357D02*
D03*
X21237Y24517D02*
D03*
Y25107D02*
D03*
X40196Y23557D02*
D03*
Y22967D02*
D03*
X54296Y25767D02*
D03*
Y26357D02*
D03*
X52496Y27407D02*
D03*
Y26817D02*
D03*
Y25867D02*
D03*
Y26457D02*
D03*
X52446Y24767D02*
D03*
Y25357D02*
D03*
X47696Y24517D02*
D03*
Y25107D02*
D03*
X13737Y31944D02*
D03*
Y31354D02*
D03*
X27837Y34154D02*
D03*
Y34744D02*
D03*
X26037Y35794D02*
D03*
Y35204D02*
D03*
Y34254D02*
D03*
Y34844D02*
D03*
X25987Y33154D02*
D03*
Y33744D02*
D03*
X21237Y32904D02*
D03*
Y33494D02*
D03*
X40196Y31944D02*
D03*
Y31354D02*
D03*
X54296Y34154D02*
D03*
Y34744D02*
D03*
X52496Y35794D02*
D03*
Y35204D02*
D03*
Y34254D02*
D03*
Y34844D02*
D03*
X52446Y33154D02*
D03*
Y33744D02*
D03*
X47696Y32904D02*
D03*
Y33494D02*
D03*
X13737Y40332D02*
D03*
Y39741D02*
D03*
X27837Y42541D02*
D03*
Y43132D02*
D03*
X26037Y44182D02*
D03*
Y43591D02*
D03*
Y42641D02*
D03*
Y43232D02*
D03*
X25987Y41541D02*
D03*
Y42132D02*
D03*
X21237Y41291D02*
D03*
Y41882D02*
D03*
X40196Y40332D02*
D03*
Y39741D02*
D03*
X54296Y42541D02*
D03*
Y43132D02*
D03*
X52496Y44182D02*
D03*
Y43591D02*
D03*
Y42641D02*
D03*
Y43232D02*
D03*
X52446Y41541D02*
D03*
Y42132D02*
D03*
X47696Y41291D02*
D03*
Y41882D02*
D03*
X13737Y48719D02*
D03*
Y48129D02*
D03*
X27837Y50929D02*
D03*
Y51519D02*
D03*
X26037Y52569D02*
D03*
Y51979D02*
D03*
Y51029D02*
D03*
Y51619D02*
D03*
X25987Y49929D02*
D03*
Y50519D02*
D03*
X21237Y49679D02*
D03*
Y50269D02*
D03*
X40196Y48719D02*
D03*
Y48129D02*
D03*
X54296Y50929D02*
D03*
Y51519D02*
D03*
X52496Y52569D02*
D03*
Y51979D02*
D03*
Y51029D02*
D03*
Y51619D02*
D03*
X52446Y49929D02*
D03*
Y50519D02*
D03*
X47696Y49679D02*
D03*
Y50269D02*
D03*
D92*
X12187Y8214D02*
D03*
Y7860D02*
D03*
X11937Y7514D02*
D03*
Y7160D02*
D03*
X11537D02*
D03*
Y7514D02*
D03*
X11137Y7864D02*
D03*
Y7510D02*
D03*
X28087Y8160D02*
D03*
Y8514D02*
D03*
X20787Y7860D02*
D03*
Y8214D02*
D03*
X19387Y7860D02*
D03*
Y8214D02*
D03*
X16437Y6314D02*
D03*
Y5960D02*
D03*
X15937Y6314D02*
D03*
Y5960D02*
D03*
X13687Y5510D02*
D03*
Y5864D02*
D03*
X11937Y6410D02*
D03*
Y6764D02*
D03*
X9587Y7014D02*
D03*
Y6660D02*
D03*
X8087Y6610D02*
D03*
Y6964D02*
D03*
X6387Y6210D02*
D03*
Y6564D02*
D03*
X4987Y6214D02*
D03*
Y5860D02*
D03*
X13787Y8214D02*
D03*
Y7860D02*
D03*
Y8914D02*
D03*
Y8560D02*
D03*
X13387Y8214D02*
D03*
Y7860D02*
D03*
Y8914D02*
D03*
Y8560D02*
D03*
X12587Y8214D02*
D03*
Y7860D02*
D03*
Y8914D02*
D03*
Y8560D02*
D03*
X12987Y8214D02*
D03*
Y7860D02*
D03*
Y8914D02*
D03*
Y8560D02*
D03*
X11837Y7860D02*
D03*
Y8214D02*
D03*
X38646D02*
D03*
Y7860D02*
D03*
X38396Y7514D02*
D03*
Y7160D02*
D03*
X37996D02*
D03*
Y7514D02*
D03*
X37596Y7864D02*
D03*
Y7510D02*
D03*
X54546Y8160D02*
D03*
Y8514D02*
D03*
X47246Y7860D02*
D03*
Y8214D02*
D03*
X45846Y7860D02*
D03*
Y8214D02*
D03*
X42896Y6314D02*
D03*
Y5960D02*
D03*
X42396Y6314D02*
D03*
Y5960D02*
D03*
X40146Y5510D02*
D03*
Y5864D02*
D03*
X38396Y6410D02*
D03*
Y6764D02*
D03*
X36046Y7014D02*
D03*
Y6660D02*
D03*
X34546Y6610D02*
D03*
Y6964D02*
D03*
X32846Y6210D02*
D03*
Y6564D02*
D03*
X31446Y6214D02*
D03*
Y5860D02*
D03*
X40246Y8214D02*
D03*
Y7860D02*
D03*
Y8914D02*
D03*
Y8560D02*
D03*
X39846Y8214D02*
D03*
Y7860D02*
D03*
Y8914D02*
D03*
Y8560D02*
D03*
X39046Y8214D02*
D03*
Y7860D02*
D03*
Y8914D02*
D03*
Y8560D02*
D03*
X39446Y8214D02*
D03*
Y7860D02*
D03*
Y8914D02*
D03*
Y8560D02*
D03*
X38296Y7860D02*
D03*
Y8214D02*
D03*
X12187Y16602D02*
D03*
Y16247D02*
D03*
X11937Y15902D02*
D03*
Y15547D02*
D03*
X11537D02*
D03*
Y15902D02*
D03*
X11137Y16252D02*
D03*
Y15897D02*
D03*
X28087Y16547D02*
D03*
Y16902D02*
D03*
X20787Y16247D02*
D03*
Y16602D02*
D03*
X19387Y16247D02*
D03*
Y16602D02*
D03*
X16437Y14702D02*
D03*
Y14347D02*
D03*
X15937Y14702D02*
D03*
Y14347D02*
D03*
X13687Y13897D02*
D03*
Y14252D02*
D03*
X11937Y14797D02*
D03*
Y15152D02*
D03*
X9587Y15402D02*
D03*
Y15047D02*
D03*
X8087Y14997D02*
D03*
Y15352D02*
D03*
X6387Y14597D02*
D03*
Y14952D02*
D03*
X4987Y14602D02*
D03*
Y14247D02*
D03*
X13787Y16602D02*
D03*
Y16247D02*
D03*
Y17302D02*
D03*
Y16947D02*
D03*
X13387Y16602D02*
D03*
Y16247D02*
D03*
Y17302D02*
D03*
Y16947D02*
D03*
X12587Y16602D02*
D03*
Y16247D02*
D03*
Y17302D02*
D03*
Y16947D02*
D03*
X12987Y16602D02*
D03*
Y16247D02*
D03*
Y17302D02*
D03*
Y16947D02*
D03*
X11837Y16247D02*
D03*
Y16602D02*
D03*
X38646D02*
D03*
Y16247D02*
D03*
X38396Y15902D02*
D03*
Y15547D02*
D03*
X37996D02*
D03*
Y15902D02*
D03*
X37596Y16252D02*
D03*
Y15897D02*
D03*
X54546Y16547D02*
D03*
Y16902D02*
D03*
X47246Y16247D02*
D03*
Y16602D02*
D03*
X45846Y16247D02*
D03*
Y16602D02*
D03*
X42896Y14702D02*
D03*
Y14347D02*
D03*
X42396Y14702D02*
D03*
Y14347D02*
D03*
X40146Y13897D02*
D03*
Y14252D02*
D03*
X38396Y14797D02*
D03*
Y15152D02*
D03*
X36046Y15402D02*
D03*
Y15047D02*
D03*
X34546Y14997D02*
D03*
Y15352D02*
D03*
X32846Y14597D02*
D03*
Y14952D02*
D03*
X31446Y14602D02*
D03*
Y14247D02*
D03*
X40246Y16602D02*
D03*
Y16247D02*
D03*
Y17302D02*
D03*
Y16947D02*
D03*
X39846Y16602D02*
D03*
Y16247D02*
D03*
Y17302D02*
D03*
Y16947D02*
D03*
X39046Y16602D02*
D03*
Y16247D02*
D03*
Y17302D02*
D03*
Y16947D02*
D03*
X39446Y16602D02*
D03*
Y16247D02*
D03*
Y17302D02*
D03*
Y16947D02*
D03*
X38296Y16247D02*
D03*
Y16602D02*
D03*
X12187Y24989D02*
D03*
Y24635D02*
D03*
X11937Y24289D02*
D03*
Y23935D02*
D03*
X11537D02*
D03*
Y24289D02*
D03*
X11137Y24639D02*
D03*
Y24285D02*
D03*
X28087Y24935D02*
D03*
Y25289D02*
D03*
X20787Y24635D02*
D03*
Y24989D02*
D03*
X19387Y24635D02*
D03*
Y24989D02*
D03*
X16437Y23089D02*
D03*
Y22735D02*
D03*
X15937Y23089D02*
D03*
Y22735D02*
D03*
X13687Y22285D02*
D03*
Y22639D02*
D03*
X11937Y23185D02*
D03*
Y23539D02*
D03*
X9587Y23789D02*
D03*
Y23435D02*
D03*
X8087Y23385D02*
D03*
Y23739D02*
D03*
X6387Y22985D02*
D03*
Y23339D02*
D03*
X4987Y22989D02*
D03*
Y22635D02*
D03*
X13787Y24989D02*
D03*
Y24635D02*
D03*
Y25689D02*
D03*
Y25335D02*
D03*
X13387Y24989D02*
D03*
Y24635D02*
D03*
Y25689D02*
D03*
Y25335D02*
D03*
X12587Y24989D02*
D03*
Y24635D02*
D03*
Y25689D02*
D03*
Y25335D02*
D03*
X12987Y24989D02*
D03*
Y24635D02*
D03*
Y25689D02*
D03*
Y25335D02*
D03*
X11837Y24635D02*
D03*
Y24989D02*
D03*
X38646D02*
D03*
Y24635D02*
D03*
X38396Y24289D02*
D03*
Y23935D02*
D03*
X37996D02*
D03*
Y24289D02*
D03*
X37596Y24639D02*
D03*
Y24285D02*
D03*
X54546Y24935D02*
D03*
Y25289D02*
D03*
X47246Y24635D02*
D03*
Y24989D02*
D03*
X45846Y24635D02*
D03*
Y24989D02*
D03*
X42896Y23089D02*
D03*
Y22735D02*
D03*
X42396Y23089D02*
D03*
Y22735D02*
D03*
X40146Y22285D02*
D03*
Y22639D02*
D03*
X38396Y23185D02*
D03*
Y23539D02*
D03*
X36046Y23789D02*
D03*
Y23435D02*
D03*
X34546Y23385D02*
D03*
Y23739D02*
D03*
X32846Y22985D02*
D03*
Y23339D02*
D03*
X31446Y22989D02*
D03*
Y22635D02*
D03*
X40246Y24989D02*
D03*
Y24635D02*
D03*
Y25689D02*
D03*
Y25335D02*
D03*
X39846Y24989D02*
D03*
Y24635D02*
D03*
Y25689D02*
D03*
Y25335D02*
D03*
X39046Y24989D02*
D03*
Y24635D02*
D03*
Y25689D02*
D03*
Y25335D02*
D03*
X39446Y24989D02*
D03*
Y24635D02*
D03*
Y25689D02*
D03*
Y25335D02*
D03*
X38296Y24635D02*
D03*
Y24989D02*
D03*
X12187Y33376D02*
D03*
Y33022D02*
D03*
X11937Y32676D02*
D03*
Y32322D02*
D03*
X11537D02*
D03*
Y32676D02*
D03*
X11137Y33026D02*
D03*
Y32672D02*
D03*
X28087Y33322D02*
D03*
Y33676D02*
D03*
X20787Y33022D02*
D03*
Y33376D02*
D03*
X19387Y33022D02*
D03*
Y33376D02*
D03*
X16437Y31476D02*
D03*
Y31122D02*
D03*
X15937Y31476D02*
D03*
Y31122D02*
D03*
X13687Y30672D02*
D03*
Y31026D02*
D03*
X11937Y31572D02*
D03*
Y31926D02*
D03*
X9587Y32176D02*
D03*
Y31822D02*
D03*
X8087Y31772D02*
D03*
Y32126D02*
D03*
X6387Y31372D02*
D03*
Y31726D02*
D03*
X4987Y31376D02*
D03*
Y31022D02*
D03*
X13787Y33376D02*
D03*
Y33022D02*
D03*
Y34076D02*
D03*
Y33722D02*
D03*
X13387Y33376D02*
D03*
Y33022D02*
D03*
Y34076D02*
D03*
Y33722D02*
D03*
X12587Y33376D02*
D03*
Y33022D02*
D03*
Y34076D02*
D03*
Y33722D02*
D03*
X12987Y33376D02*
D03*
Y33022D02*
D03*
Y34076D02*
D03*
Y33722D02*
D03*
X11837Y33022D02*
D03*
Y33376D02*
D03*
X38646D02*
D03*
Y33022D02*
D03*
X38396Y32676D02*
D03*
Y32322D02*
D03*
X37996D02*
D03*
Y32676D02*
D03*
X37596Y33026D02*
D03*
Y32672D02*
D03*
X54546Y33322D02*
D03*
Y33676D02*
D03*
X47246Y33022D02*
D03*
Y33376D02*
D03*
X45846Y33022D02*
D03*
Y33376D02*
D03*
X42896Y31476D02*
D03*
Y31122D02*
D03*
X42396Y31476D02*
D03*
Y31122D02*
D03*
X40146Y30672D02*
D03*
Y31026D02*
D03*
X38396Y31572D02*
D03*
Y31926D02*
D03*
X36046Y32176D02*
D03*
Y31822D02*
D03*
X34546Y31772D02*
D03*
Y32126D02*
D03*
X32846Y31372D02*
D03*
Y31726D02*
D03*
X31446Y31376D02*
D03*
Y31022D02*
D03*
X40246Y33376D02*
D03*
Y33022D02*
D03*
Y34076D02*
D03*
Y33722D02*
D03*
X39846Y33376D02*
D03*
Y33022D02*
D03*
Y34076D02*
D03*
Y33722D02*
D03*
X39046Y33376D02*
D03*
Y33022D02*
D03*
Y34076D02*
D03*
Y33722D02*
D03*
X39446Y33376D02*
D03*
Y33022D02*
D03*
Y34076D02*
D03*
Y33722D02*
D03*
X38296Y33022D02*
D03*
Y33376D02*
D03*
X12187Y41764D02*
D03*
Y41409D02*
D03*
X11937Y41064D02*
D03*
Y40709D02*
D03*
X11537D02*
D03*
Y41064D02*
D03*
X11137Y41414D02*
D03*
Y41059D02*
D03*
X28087Y41709D02*
D03*
Y42064D02*
D03*
X20787Y41409D02*
D03*
Y41764D02*
D03*
X19387Y41409D02*
D03*
Y41764D02*
D03*
X16437Y39864D02*
D03*
Y39509D02*
D03*
X15937Y39864D02*
D03*
Y39509D02*
D03*
X13687Y39059D02*
D03*
Y39414D02*
D03*
X11937Y39959D02*
D03*
Y40314D02*
D03*
X9587Y40564D02*
D03*
Y40209D02*
D03*
X8087Y40159D02*
D03*
Y40514D02*
D03*
X6387Y39759D02*
D03*
Y40114D02*
D03*
X4987Y39764D02*
D03*
Y39409D02*
D03*
X13787Y41764D02*
D03*
Y41409D02*
D03*
Y42464D02*
D03*
Y42109D02*
D03*
X13387Y41764D02*
D03*
Y41409D02*
D03*
Y42464D02*
D03*
Y42109D02*
D03*
X12587Y41764D02*
D03*
Y41409D02*
D03*
Y42464D02*
D03*
Y42109D02*
D03*
X12987Y41764D02*
D03*
Y41409D02*
D03*
Y42464D02*
D03*
Y42109D02*
D03*
X11837Y41409D02*
D03*
Y41764D02*
D03*
X38646D02*
D03*
Y41409D02*
D03*
X38396Y41064D02*
D03*
Y40709D02*
D03*
X37996D02*
D03*
Y41064D02*
D03*
X37596Y41414D02*
D03*
Y41059D02*
D03*
X54546Y41709D02*
D03*
Y42064D02*
D03*
X47246Y41409D02*
D03*
Y41764D02*
D03*
X45846Y41409D02*
D03*
Y41764D02*
D03*
X42896Y39864D02*
D03*
Y39509D02*
D03*
X42396Y39864D02*
D03*
Y39509D02*
D03*
X40146Y39059D02*
D03*
Y39414D02*
D03*
X38396Y39959D02*
D03*
Y40314D02*
D03*
X36046Y40564D02*
D03*
Y40209D02*
D03*
X34546Y40159D02*
D03*
Y40514D02*
D03*
X32846Y39759D02*
D03*
Y40114D02*
D03*
X31446Y39764D02*
D03*
Y39409D02*
D03*
X40246Y41764D02*
D03*
Y41409D02*
D03*
Y42464D02*
D03*
Y42109D02*
D03*
X39846Y41764D02*
D03*
Y41409D02*
D03*
Y42464D02*
D03*
Y42109D02*
D03*
X39046Y41764D02*
D03*
Y41409D02*
D03*
Y42464D02*
D03*
Y42109D02*
D03*
X39446Y41764D02*
D03*
Y41409D02*
D03*
Y42464D02*
D03*
Y42109D02*
D03*
X38296Y41409D02*
D03*
Y41764D02*
D03*
X12187Y50151D02*
D03*
Y49797D02*
D03*
X11937Y49451D02*
D03*
Y49097D02*
D03*
X11537D02*
D03*
Y49451D02*
D03*
X11137Y49801D02*
D03*
Y49447D02*
D03*
X28087Y50097D02*
D03*
Y50451D02*
D03*
X20787Y49797D02*
D03*
Y50151D02*
D03*
X19387Y49797D02*
D03*
Y50151D02*
D03*
X16437Y48251D02*
D03*
Y47897D02*
D03*
X15937Y48251D02*
D03*
Y47897D02*
D03*
X13687Y47447D02*
D03*
Y47801D02*
D03*
X11937Y48347D02*
D03*
Y48701D02*
D03*
X9587Y48951D02*
D03*
Y48597D02*
D03*
X8087Y48547D02*
D03*
Y48901D02*
D03*
X6387Y48147D02*
D03*
Y48501D02*
D03*
X4987Y48151D02*
D03*
Y47797D02*
D03*
X13787Y50151D02*
D03*
Y49797D02*
D03*
Y50851D02*
D03*
Y50497D02*
D03*
X13387Y50151D02*
D03*
Y49797D02*
D03*
Y50851D02*
D03*
Y50497D02*
D03*
X12587Y50151D02*
D03*
Y49797D02*
D03*
Y50851D02*
D03*
Y50497D02*
D03*
X12987Y50151D02*
D03*
Y49797D02*
D03*
Y50851D02*
D03*
Y50497D02*
D03*
X11837Y49797D02*
D03*
Y50151D02*
D03*
X38646D02*
D03*
Y49797D02*
D03*
X38396Y49451D02*
D03*
Y49097D02*
D03*
X37996D02*
D03*
Y49451D02*
D03*
X37596Y49801D02*
D03*
Y49447D02*
D03*
X54546Y50097D02*
D03*
Y50451D02*
D03*
X47246Y49797D02*
D03*
Y50151D02*
D03*
X45846Y49797D02*
D03*
Y50151D02*
D03*
X42896Y48251D02*
D03*
Y47897D02*
D03*
X42396Y48251D02*
D03*
Y47897D02*
D03*
X40146Y47447D02*
D03*
Y47801D02*
D03*
X38396Y48347D02*
D03*
Y48701D02*
D03*
X36046Y48951D02*
D03*
Y48597D02*
D03*
X34546Y48547D02*
D03*
Y48901D02*
D03*
X32846Y48147D02*
D03*
Y48501D02*
D03*
X31446Y48151D02*
D03*
Y47797D02*
D03*
X40246Y50151D02*
D03*
Y49797D02*
D03*
Y50851D02*
D03*
Y50497D02*
D03*
X39846Y50151D02*
D03*
Y49797D02*
D03*
Y50851D02*
D03*
Y50497D02*
D03*
X39046Y50151D02*
D03*
Y49797D02*
D03*
Y50851D02*
D03*
Y50497D02*
D03*
X39446Y50151D02*
D03*
Y49797D02*
D03*
Y50851D02*
D03*
Y50497D02*
D03*
X38296Y49797D02*
D03*
Y50151D02*
D03*
D93*
X12026Y10955D02*
D03*
Y10699D02*
D03*
Y10443D02*
D03*
Y10187D02*
D03*
Y9931D02*
D03*
Y9675D02*
D03*
Y9419D02*
D03*
X14348Y10955D02*
D03*
Y10699D02*
D03*
Y10443D02*
D03*
Y10187D02*
D03*
Y9931D02*
D03*
Y9675D02*
D03*
Y9419D02*
D03*
X38485Y10955D02*
D03*
Y10699D02*
D03*
Y10443D02*
D03*
Y10187D02*
D03*
Y9931D02*
D03*
Y9675D02*
D03*
Y9419D02*
D03*
X40807Y10955D02*
D03*
Y10699D02*
D03*
Y10443D02*
D03*
Y10187D02*
D03*
Y9931D02*
D03*
Y9675D02*
D03*
Y9419D02*
D03*
X12026Y19342D02*
D03*
Y19086D02*
D03*
Y18830D02*
D03*
Y18574D02*
D03*
Y18319D02*
D03*
Y18063D02*
D03*
Y17807D02*
D03*
X14348Y19342D02*
D03*
Y19086D02*
D03*
Y18830D02*
D03*
Y18574D02*
D03*
Y18319D02*
D03*
Y18063D02*
D03*
Y17807D02*
D03*
X38485Y19342D02*
D03*
Y19086D02*
D03*
Y18830D02*
D03*
Y18574D02*
D03*
Y18319D02*
D03*
Y18063D02*
D03*
Y17807D02*
D03*
X40807Y19342D02*
D03*
Y19086D02*
D03*
Y18830D02*
D03*
Y18574D02*
D03*
Y18319D02*
D03*
Y18063D02*
D03*
Y17807D02*
D03*
X12026Y27730D02*
D03*
Y27474D02*
D03*
Y27218D02*
D03*
Y26962D02*
D03*
Y26706D02*
D03*
Y26450D02*
D03*
Y26194D02*
D03*
X14348Y27730D02*
D03*
Y27474D02*
D03*
Y27218D02*
D03*
Y26962D02*
D03*
Y26706D02*
D03*
Y26450D02*
D03*
Y26194D02*
D03*
X38485Y27730D02*
D03*
Y27474D02*
D03*
Y27218D02*
D03*
Y26962D02*
D03*
Y26706D02*
D03*
Y26450D02*
D03*
Y26194D02*
D03*
X40807Y27730D02*
D03*
Y27474D02*
D03*
Y27218D02*
D03*
Y26962D02*
D03*
Y26706D02*
D03*
Y26450D02*
D03*
Y26194D02*
D03*
X12026Y36117D02*
D03*
Y35861D02*
D03*
Y35605D02*
D03*
Y35349D02*
D03*
Y35093D02*
D03*
Y34837D02*
D03*
Y34581D02*
D03*
X14348Y36117D02*
D03*
Y35861D02*
D03*
Y35605D02*
D03*
Y35349D02*
D03*
Y35093D02*
D03*
Y34837D02*
D03*
Y34581D02*
D03*
X38485Y36117D02*
D03*
Y35861D02*
D03*
Y35605D02*
D03*
Y35349D02*
D03*
Y35093D02*
D03*
Y34837D02*
D03*
Y34581D02*
D03*
X40807Y36117D02*
D03*
Y35861D02*
D03*
Y35605D02*
D03*
Y35349D02*
D03*
Y35093D02*
D03*
Y34837D02*
D03*
Y34581D02*
D03*
X12026Y44504D02*
D03*
Y44248D02*
D03*
Y43993D02*
D03*
Y43737D02*
D03*
Y43481D02*
D03*
Y43225D02*
D03*
Y42969D02*
D03*
X14348Y44504D02*
D03*
Y44248D02*
D03*
Y43993D02*
D03*
Y43737D02*
D03*
Y43481D02*
D03*
Y43225D02*
D03*
Y42969D02*
D03*
X38485Y44504D02*
D03*
Y44248D02*
D03*
Y43993D02*
D03*
Y43737D02*
D03*
Y43481D02*
D03*
Y43225D02*
D03*
Y42969D02*
D03*
X40807Y44504D02*
D03*
Y44248D02*
D03*
Y43993D02*
D03*
Y43737D02*
D03*
Y43481D02*
D03*
Y43225D02*
D03*
Y42969D02*
D03*
X12026Y52892D02*
D03*
Y52636D02*
D03*
Y52380D02*
D03*
Y52124D02*
D03*
Y51868D02*
D03*
Y51612D02*
D03*
Y51356D02*
D03*
X14348Y52892D02*
D03*
Y52636D02*
D03*
Y52380D02*
D03*
Y52124D02*
D03*
Y51868D02*
D03*
Y51612D02*
D03*
Y51356D02*
D03*
X38485Y52892D02*
D03*
Y52636D02*
D03*
Y52380D02*
D03*
Y52124D02*
D03*
Y51868D02*
D03*
Y51612D02*
D03*
Y51356D02*
D03*
X40807Y52892D02*
D03*
Y52636D02*
D03*
Y52380D02*
D03*
Y52124D02*
D03*
Y51868D02*
D03*
Y51612D02*
D03*
Y51356D02*
D03*
D94*
X25491Y10787D02*
D03*
X24783Y10531D02*
D03*
Y11043D02*
D03*
X51950Y10787D02*
D03*
X51242Y10531D02*
D03*
Y11043D02*
D03*
X25491Y19174D02*
D03*
X24783Y18918D02*
D03*
Y19430D02*
D03*
X51950Y19174D02*
D03*
X51242Y18918D02*
D03*
Y19430D02*
D03*
X25491Y27562D02*
D03*
X24783Y27306D02*
D03*
Y27818D02*
D03*
X51950Y27562D02*
D03*
X51242Y27306D02*
D03*
Y27818D02*
D03*
X25491Y35949D02*
D03*
X24783Y35693D02*
D03*
Y36205D02*
D03*
X51950Y35949D02*
D03*
X51242Y35693D02*
D03*
Y36205D02*
D03*
X25491Y44337D02*
D03*
X24783Y44081D02*
D03*
Y44593D02*
D03*
X51950Y44337D02*
D03*
X51242Y44081D02*
D03*
Y44593D02*
D03*
X25491Y52724D02*
D03*
X24783Y52468D02*
D03*
Y52980D02*
D03*
X51950Y52724D02*
D03*
X51242Y52468D02*
D03*
Y52980D02*
D03*
D95*
X27370Y10031D02*
D03*
Y10287D02*
D03*
Y10543D02*
D03*
X26504D02*
D03*
Y10287D02*
D03*
Y10031D02*
D03*
X21704Y8293D02*
D03*
Y8037D02*
D03*
Y7781D02*
D03*
X22570D02*
D03*
Y8037D02*
D03*
Y8293D02*
D03*
X53829Y10031D02*
D03*
Y10287D02*
D03*
Y10543D02*
D03*
X52963D02*
D03*
Y10287D02*
D03*
Y10031D02*
D03*
X48163Y8293D02*
D03*
Y8037D02*
D03*
Y7781D02*
D03*
X49029D02*
D03*
Y8037D02*
D03*
Y8293D02*
D03*
X27370Y18419D02*
D03*
Y18674D02*
D03*
Y18930D02*
D03*
X26504D02*
D03*
Y18674D02*
D03*
Y18419D02*
D03*
X21704Y16680D02*
D03*
Y16424D02*
D03*
Y16169D02*
D03*
X22570D02*
D03*
Y16424D02*
D03*
Y16680D02*
D03*
X53829Y18419D02*
D03*
Y18674D02*
D03*
Y18930D02*
D03*
X52963D02*
D03*
Y18674D02*
D03*
Y18419D02*
D03*
X48163Y16680D02*
D03*
Y16424D02*
D03*
Y16169D02*
D03*
X49029D02*
D03*
Y16424D02*
D03*
Y16680D02*
D03*
X27370Y26806D02*
D03*
Y27062D02*
D03*
Y27318D02*
D03*
X26504D02*
D03*
Y27062D02*
D03*
Y26806D02*
D03*
X21704Y25068D02*
D03*
Y24812D02*
D03*
Y24556D02*
D03*
X22570D02*
D03*
Y24812D02*
D03*
Y25068D02*
D03*
X53829Y26806D02*
D03*
Y27062D02*
D03*
Y27318D02*
D03*
X52963D02*
D03*
Y27062D02*
D03*
Y26806D02*
D03*
X48163Y25068D02*
D03*
Y24812D02*
D03*
Y24556D02*
D03*
X49029D02*
D03*
Y24812D02*
D03*
Y25068D02*
D03*
X27370Y35193D02*
D03*
Y35449D02*
D03*
Y35705D02*
D03*
X26504D02*
D03*
Y35449D02*
D03*
Y35193D02*
D03*
X21704Y33455D02*
D03*
Y33199D02*
D03*
Y32943D02*
D03*
X22570D02*
D03*
Y33199D02*
D03*
Y33455D02*
D03*
X53829Y35193D02*
D03*
Y35449D02*
D03*
Y35705D02*
D03*
X52963D02*
D03*
Y35449D02*
D03*
Y35193D02*
D03*
X48163Y33455D02*
D03*
Y33199D02*
D03*
Y32943D02*
D03*
X49029D02*
D03*
Y33199D02*
D03*
Y33455D02*
D03*
X27370Y43581D02*
D03*
Y43837D02*
D03*
Y44093D02*
D03*
X26504D02*
D03*
Y43837D02*
D03*
Y43581D02*
D03*
X21704Y41843D02*
D03*
Y41587D02*
D03*
Y41331D02*
D03*
X22570D02*
D03*
Y41587D02*
D03*
Y41843D02*
D03*
X53829Y43581D02*
D03*
Y43837D02*
D03*
Y44093D02*
D03*
X52963D02*
D03*
Y43837D02*
D03*
Y43581D02*
D03*
X48163Y41843D02*
D03*
Y41587D02*
D03*
Y41331D02*
D03*
X49029D02*
D03*
Y41587D02*
D03*
Y41843D02*
D03*
X27370Y51968D02*
D03*
Y52224D02*
D03*
Y52480D02*
D03*
X26504D02*
D03*
Y52224D02*
D03*
Y51968D02*
D03*
X21704Y50230D02*
D03*
Y49974D02*
D03*
Y49718D02*
D03*
X22570D02*
D03*
Y49974D02*
D03*
Y50230D02*
D03*
X53829Y51968D02*
D03*
Y52224D02*
D03*
Y52480D02*
D03*
X52963D02*
D03*
Y52224D02*
D03*
Y51968D02*
D03*
X48163Y50230D02*
D03*
Y49974D02*
D03*
Y49718D02*
D03*
X49029D02*
D03*
Y49974D02*
D03*
Y50230D02*
D03*
D96*
X26937Y10287D02*
D03*
X22137Y8037D02*
D03*
X53396Y10287D02*
D03*
X48596Y8037D02*
D03*
X26937Y18674D02*
D03*
X22137Y16424D02*
D03*
X53396Y18674D02*
D03*
X48596Y16424D02*
D03*
X26937Y27062D02*
D03*
X22137Y24812D02*
D03*
X53396Y27062D02*
D03*
X48596Y24812D02*
D03*
X26937Y35449D02*
D03*
X22137Y33199D02*
D03*
X53396Y35449D02*
D03*
X48596Y33199D02*
D03*
X26937Y43837D02*
D03*
X22137Y41587D02*
D03*
X53396Y43837D02*
D03*
X48596Y41587D02*
D03*
X26937Y52224D02*
D03*
X22137Y49974D02*
D03*
X53396Y52224D02*
D03*
X48596Y49974D02*
D03*
D97*
X24887Y9078D02*
D03*
Y7896D02*
D03*
X51346Y9078D02*
D03*
Y7896D02*
D03*
X24887Y17465D02*
D03*
Y16284D02*
D03*
X51346Y17465D02*
D03*
Y16284D02*
D03*
X24887Y25852D02*
D03*
Y24671D02*
D03*
X51346Y25852D02*
D03*
Y24671D02*
D03*
X24887Y34240D02*
D03*
Y33059D02*
D03*
X51346Y34240D02*
D03*
Y33059D02*
D03*
X24887Y42627D02*
D03*
Y41446D02*
D03*
X51346Y42627D02*
D03*
Y41446D02*
D03*
X24887Y51015D02*
D03*
Y49833D02*
D03*
X51346Y51015D02*
D03*
Y49833D02*
D03*
D98*
X24406Y9887D02*
D03*
X25468D02*
D03*
X50865D02*
D03*
X51928D02*
D03*
X24406Y18274D02*
D03*
X25468D02*
D03*
X50865D02*
D03*
X51928D02*
D03*
X24406Y26662D02*
D03*
X25468D02*
D03*
X50865D02*
D03*
X51928D02*
D03*
X24406Y35049D02*
D03*
X25468D02*
D03*
X50865D02*
D03*
X51928D02*
D03*
X24406Y43437D02*
D03*
X25468D02*
D03*
X50865D02*
D03*
X51928D02*
D03*
X24406Y51824D02*
D03*
X25468D02*
D03*
X50865D02*
D03*
X51928D02*
D03*
D99*
X23142Y10037D02*
D03*
X23732D02*
D03*
X23592Y7737D02*
D03*
X24182D02*
D03*
X22092Y8737D02*
D03*
X22682D02*
D03*
X12442Y4387D02*
D03*
X13032D02*
D03*
X49601Y10037D02*
D03*
X50191D02*
D03*
X50051Y7737D02*
D03*
X50641D02*
D03*
X48551Y8737D02*
D03*
X49141D02*
D03*
X38901Y4387D02*
D03*
X39491D02*
D03*
X23142Y18424D02*
D03*
X23732D02*
D03*
X23592Y16124D02*
D03*
X24182D02*
D03*
X22092Y17124D02*
D03*
X22682D02*
D03*
X12442Y12774D02*
D03*
X13032D02*
D03*
X49601Y18424D02*
D03*
X50191D02*
D03*
X50051Y16124D02*
D03*
X50641D02*
D03*
X48551Y17124D02*
D03*
X49141D02*
D03*
X38901Y12774D02*
D03*
X39491D02*
D03*
X23142Y26812D02*
D03*
X23732D02*
D03*
X23592Y24512D02*
D03*
X24182D02*
D03*
X22092Y25512D02*
D03*
X22682D02*
D03*
X12442Y21162D02*
D03*
X13032D02*
D03*
X49601Y26812D02*
D03*
X50191D02*
D03*
X50051Y24512D02*
D03*
X50641D02*
D03*
X48551Y25512D02*
D03*
X49141D02*
D03*
X38901Y21162D02*
D03*
X39491D02*
D03*
X23142Y35199D02*
D03*
X23732D02*
D03*
X23592Y32899D02*
D03*
X24182D02*
D03*
X22092Y33899D02*
D03*
X22682D02*
D03*
X12442Y29549D02*
D03*
X13032D02*
D03*
X49601Y35199D02*
D03*
X50191D02*
D03*
X50051Y32899D02*
D03*
X50641D02*
D03*
X48551Y33899D02*
D03*
X49141D02*
D03*
X38901Y29549D02*
D03*
X39491D02*
D03*
X23142Y43587D02*
D03*
X23732D02*
D03*
X23592Y41287D02*
D03*
X24182D02*
D03*
X22092Y42287D02*
D03*
X22682D02*
D03*
X12442Y37937D02*
D03*
X13032D02*
D03*
X49601Y43587D02*
D03*
X50191D02*
D03*
X50051Y41287D02*
D03*
X50641D02*
D03*
X48551Y42287D02*
D03*
X49141D02*
D03*
X38901Y37937D02*
D03*
X39491D02*
D03*
X23142Y51974D02*
D03*
X23732D02*
D03*
X23592Y49674D02*
D03*
X24182D02*
D03*
X22092Y50674D02*
D03*
X22682D02*
D03*
X12442Y46324D02*
D03*
X13032D02*
D03*
X49601Y51974D02*
D03*
X50191D02*
D03*
X50051Y49674D02*
D03*
X50641D02*
D03*
X48551Y50674D02*
D03*
X49141D02*
D03*
X38901Y46324D02*
D03*
X39491D02*
D03*
D100*
X23093Y8326D02*
D03*
X23290D02*
D03*
X23487D02*
D03*
X23684D02*
D03*
X23881D02*
D03*
Y9448D02*
D03*
X23684D02*
D03*
X23487D02*
D03*
X23290D02*
D03*
X23093D02*
D03*
X49552Y8326D02*
D03*
X49749D02*
D03*
X49946D02*
D03*
X50143D02*
D03*
X50340D02*
D03*
Y9448D02*
D03*
X50143D02*
D03*
X49946D02*
D03*
X49749D02*
D03*
X49552D02*
D03*
X23093Y16713D02*
D03*
X23290D02*
D03*
X23487D02*
D03*
X23684D02*
D03*
X23881D02*
D03*
Y17835D02*
D03*
X23684D02*
D03*
X23487D02*
D03*
X23290D02*
D03*
X23093D02*
D03*
X49552Y16713D02*
D03*
X49749D02*
D03*
X49946D02*
D03*
X50143D02*
D03*
X50340D02*
D03*
Y17835D02*
D03*
X50143D02*
D03*
X49946D02*
D03*
X49749D02*
D03*
X49552D02*
D03*
X23093Y25101D02*
D03*
X23290D02*
D03*
X23487D02*
D03*
X23684D02*
D03*
X23881D02*
D03*
Y26223D02*
D03*
X23684D02*
D03*
X23487D02*
D03*
X23290D02*
D03*
X23093D02*
D03*
X49552Y25101D02*
D03*
X49749D02*
D03*
X49946D02*
D03*
X50143D02*
D03*
X50340D02*
D03*
Y26223D02*
D03*
X50143D02*
D03*
X49946D02*
D03*
X49749D02*
D03*
X49552D02*
D03*
X23093Y33488D02*
D03*
X23290D02*
D03*
X23487D02*
D03*
X23684D02*
D03*
X23881D02*
D03*
Y34610D02*
D03*
X23684D02*
D03*
X23487D02*
D03*
X23290D02*
D03*
X23093D02*
D03*
X49552Y33488D02*
D03*
X49749D02*
D03*
X49946D02*
D03*
X50143D02*
D03*
X50340D02*
D03*
Y34610D02*
D03*
X50143D02*
D03*
X49946D02*
D03*
X49749D02*
D03*
X49552D02*
D03*
X23093Y41876D02*
D03*
X23290D02*
D03*
X23487D02*
D03*
X23684D02*
D03*
X23881D02*
D03*
Y42998D02*
D03*
X23684D02*
D03*
X23487D02*
D03*
X23290D02*
D03*
X23093D02*
D03*
X49552Y41876D02*
D03*
X49749D02*
D03*
X49946D02*
D03*
X50143D02*
D03*
X50340D02*
D03*
Y42998D02*
D03*
X50143D02*
D03*
X49946D02*
D03*
X49749D02*
D03*
X49552D02*
D03*
X23093Y50263D02*
D03*
X23290D02*
D03*
X23487D02*
D03*
X23684D02*
D03*
X23881D02*
D03*
Y51385D02*
D03*
X23684D02*
D03*
X23487D02*
D03*
X23290D02*
D03*
X23093D02*
D03*
X49552Y50263D02*
D03*
X49749D02*
D03*
X49946D02*
D03*
X50143D02*
D03*
X50340D02*
D03*
Y51385D02*
D03*
X50143D02*
D03*
X49946D02*
D03*
X49749D02*
D03*
X49552D02*
D03*
D101*
X23487Y8887D02*
D03*
X49946D02*
D03*
X23487Y17274D02*
D03*
X49946D02*
D03*
X23487Y25662D02*
D03*
X49946D02*
D03*
X23487Y34049D02*
D03*
X49946D02*
D03*
X23487Y42437D02*
D03*
X49946D02*
D03*
X23487Y50824D02*
D03*
X49946D02*
D03*
D102*
X27537Y6987D02*
D03*
Y4487D02*
D03*
X25687Y6987D02*
D03*
Y4487D02*
D03*
X23837Y6987D02*
D03*
Y4487D02*
D03*
X20137Y6987D02*
D03*
Y4487D02*
D03*
X21987Y6987D02*
D03*
Y4487D02*
D03*
X53996Y6987D02*
D03*
Y4487D02*
D03*
X52146Y6987D02*
D03*
Y4487D02*
D03*
X50296Y6987D02*
D03*
Y4487D02*
D03*
X46596Y6987D02*
D03*
Y4487D02*
D03*
X48446Y6987D02*
D03*
Y4487D02*
D03*
X27537Y15374D02*
D03*
Y12874D02*
D03*
X25687Y15374D02*
D03*
Y12874D02*
D03*
X23837Y15374D02*
D03*
Y12874D02*
D03*
X20137Y15374D02*
D03*
Y12874D02*
D03*
X21987Y15374D02*
D03*
Y12874D02*
D03*
X53996Y15374D02*
D03*
Y12874D02*
D03*
X52146Y15374D02*
D03*
Y12874D02*
D03*
X50296Y15374D02*
D03*
Y12874D02*
D03*
X46596Y15374D02*
D03*
Y12874D02*
D03*
X48446Y15374D02*
D03*
Y12874D02*
D03*
X27537Y23762D02*
D03*
Y21262D02*
D03*
X25687Y23762D02*
D03*
Y21262D02*
D03*
X23837Y23762D02*
D03*
Y21262D02*
D03*
X20137Y23762D02*
D03*
Y21262D02*
D03*
X21987Y23762D02*
D03*
Y21262D02*
D03*
X53996Y23762D02*
D03*
Y21262D02*
D03*
X52146Y23762D02*
D03*
Y21262D02*
D03*
X50296Y23762D02*
D03*
Y21262D02*
D03*
X46596Y23762D02*
D03*
Y21262D02*
D03*
X48446Y23762D02*
D03*
Y21262D02*
D03*
X27537Y32149D02*
D03*
Y29649D02*
D03*
X25687Y32149D02*
D03*
Y29649D02*
D03*
X23837Y32149D02*
D03*
Y29649D02*
D03*
X20137Y32149D02*
D03*
Y29649D02*
D03*
X21987Y32149D02*
D03*
Y29649D02*
D03*
X53996Y32149D02*
D03*
Y29649D02*
D03*
X52146Y32149D02*
D03*
Y29649D02*
D03*
X50296Y32149D02*
D03*
Y29649D02*
D03*
X46596Y32149D02*
D03*
Y29649D02*
D03*
X48446Y32149D02*
D03*
Y29649D02*
D03*
X27537Y40537D02*
D03*
Y38037D02*
D03*
X25687Y40537D02*
D03*
Y38037D02*
D03*
X23837Y40537D02*
D03*
Y38037D02*
D03*
X20137Y40537D02*
D03*
Y38037D02*
D03*
X21987Y40537D02*
D03*
Y38037D02*
D03*
X53996Y40537D02*
D03*
Y38037D02*
D03*
X52146Y40537D02*
D03*
Y38037D02*
D03*
X50296Y40537D02*
D03*
Y38037D02*
D03*
X46596Y40537D02*
D03*
Y38037D02*
D03*
X48446Y40537D02*
D03*
Y38037D02*
D03*
X27537Y48924D02*
D03*
Y46424D02*
D03*
X25687Y48924D02*
D03*
Y46424D02*
D03*
X23837Y48924D02*
D03*
Y46424D02*
D03*
X20137Y48924D02*
D03*
Y46424D02*
D03*
X21987Y48924D02*
D03*
Y46424D02*
D03*
X53996Y48924D02*
D03*
Y46424D02*
D03*
X52146Y48924D02*
D03*
Y46424D02*
D03*
X50296Y48924D02*
D03*
Y46424D02*
D03*
X46596Y48924D02*
D03*
Y46424D02*
D03*
X48446Y48924D02*
D03*
Y46424D02*
D03*
D103*
X16187Y8820D02*
D03*
Y7954D02*
D03*
X42646Y8820D02*
D03*
Y7954D02*
D03*
X16187Y17207D02*
D03*
Y16341D02*
D03*
X42646Y17207D02*
D03*
Y16341D02*
D03*
X16187Y25595D02*
D03*
Y24729D02*
D03*
X42646Y25595D02*
D03*
Y24729D02*
D03*
X16187Y33982D02*
D03*
Y33116D02*
D03*
X42646Y33982D02*
D03*
Y33116D02*
D03*
X16187Y42370D02*
D03*
Y41504D02*
D03*
X42646Y42370D02*
D03*
Y41504D02*
D03*
X16187Y50757D02*
D03*
Y49891D02*
D03*
X42646Y50757D02*
D03*
Y49891D02*
D03*
D104*
X10093Y9531D02*
D03*
X10251D02*
D03*
X10408D02*
D03*
X10566D02*
D03*
X10723D02*
D03*
X10881D02*
D03*
Y10743D02*
D03*
X10723D02*
D03*
X10566D02*
D03*
X10408D02*
D03*
X10251D02*
D03*
X10093D02*
D03*
X36552Y9531D02*
D03*
X36710D02*
D03*
X36867D02*
D03*
X37025D02*
D03*
X37182D02*
D03*
X37340D02*
D03*
Y10743D02*
D03*
X37182D02*
D03*
X37025D02*
D03*
X36867D02*
D03*
X36710D02*
D03*
X36552D02*
D03*
X10093Y17918D02*
D03*
X10251D02*
D03*
X10408D02*
D03*
X10566D02*
D03*
X10723D02*
D03*
X10881D02*
D03*
Y19131D02*
D03*
X10723D02*
D03*
X10566D02*
D03*
X10408D02*
D03*
X10251D02*
D03*
X10093D02*
D03*
X36552Y17918D02*
D03*
X36710D02*
D03*
X36867D02*
D03*
X37025D02*
D03*
X37182D02*
D03*
X37340D02*
D03*
Y19131D02*
D03*
X37182D02*
D03*
X37025D02*
D03*
X36867D02*
D03*
X36710D02*
D03*
X36552D02*
D03*
X10093Y26306D02*
D03*
X10251D02*
D03*
X10408D02*
D03*
X10566D02*
D03*
X10723D02*
D03*
X10881D02*
D03*
Y27518D02*
D03*
X10723D02*
D03*
X10566D02*
D03*
X10408D02*
D03*
X10251D02*
D03*
X10093D02*
D03*
X36552Y26306D02*
D03*
X36710D02*
D03*
X36867D02*
D03*
X37025D02*
D03*
X37182D02*
D03*
X37340D02*
D03*
Y27518D02*
D03*
X37182D02*
D03*
X37025D02*
D03*
X36867D02*
D03*
X36710D02*
D03*
X36552D02*
D03*
X10093Y34693D02*
D03*
X10251D02*
D03*
X10408D02*
D03*
X10566D02*
D03*
X10723D02*
D03*
X10881D02*
D03*
Y35906D02*
D03*
X10723D02*
D03*
X10566D02*
D03*
X10408D02*
D03*
X10251D02*
D03*
X10093D02*
D03*
X36552Y34693D02*
D03*
X36710D02*
D03*
X36867D02*
D03*
X37025D02*
D03*
X37182D02*
D03*
X37340D02*
D03*
Y35906D02*
D03*
X37182D02*
D03*
X37025D02*
D03*
X36867D02*
D03*
X36710D02*
D03*
X36552D02*
D03*
X10093Y43080D02*
D03*
X10251D02*
D03*
X10408D02*
D03*
X10566D02*
D03*
X10723D02*
D03*
X10881D02*
D03*
Y44293D02*
D03*
X10723D02*
D03*
X10566D02*
D03*
X10408D02*
D03*
X10251D02*
D03*
X10093D02*
D03*
X36552Y43080D02*
D03*
X36710D02*
D03*
X36867D02*
D03*
X37025D02*
D03*
X37182D02*
D03*
X37340D02*
D03*
Y44293D02*
D03*
X37182D02*
D03*
X37025D02*
D03*
X36867D02*
D03*
X36710D02*
D03*
X36552D02*
D03*
X10093Y51468D02*
D03*
X10251D02*
D03*
X10408D02*
D03*
X10566D02*
D03*
X10723D02*
D03*
X10881D02*
D03*
Y52680D02*
D03*
X10723D02*
D03*
X10566D02*
D03*
X10408D02*
D03*
X10251D02*
D03*
X10093D02*
D03*
X36552Y51468D02*
D03*
X36710D02*
D03*
X36867D02*
D03*
X37025D02*
D03*
X37182D02*
D03*
X37340D02*
D03*
Y52680D02*
D03*
X37182D02*
D03*
X37025D02*
D03*
X36867D02*
D03*
X36710D02*
D03*
X36552D02*
D03*
D105*
X9621Y10743D02*
D03*
Y9531D02*
D03*
X11353Y10743D02*
D03*
Y9531D02*
D03*
X36080Y10743D02*
D03*
Y9531D02*
D03*
X37812Y10743D02*
D03*
Y9531D02*
D03*
X9621Y19131D02*
D03*
Y17918D02*
D03*
X11353Y19131D02*
D03*
Y17918D02*
D03*
X36080Y19131D02*
D03*
Y17918D02*
D03*
X37812Y19131D02*
D03*
Y17918D02*
D03*
X9621Y27518D02*
D03*
Y26306D02*
D03*
X11353Y27518D02*
D03*
Y26306D02*
D03*
X36080Y27518D02*
D03*
Y26306D02*
D03*
X37812Y27518D02*
D03*
Y26306D02*
D03*
X9621Y35906D02*
D03*
Y34693D02*
D03*
X11353Y35906D02*
D03*
Y34693D02*
D03*
X36080Y35906D02*
D03*
Y34693D02*
D03*
X37812Y35906D02*
D03*
Y34693D02*
D03*
X9621Y44293D02*
D03*
Y43080D02*
D03*
X11353Y44293D02*
D03*
Y43080D02*
D03*
X36080Y44293D02*
D03*
Y43080D02*
D03*
X37812Y44293D02*
D03*
Y43080D02*
D03*
X9621Y52680D02*
D03*
Y51468D02*
D03*
X11353Y52680D02*
D03*
Y51468D02*
D03*
X36080Y52680D02*
D03*
Y51468D02*
D03*
X37812Y52680D02*
D03*
Y51468D02*
D03*
D106*
X10054Y6631D02*
D03*
Y6887D02*
D03*
Y7143D02*
D03*
X10920Y6631D02*
D03*
Y7143D02*
D03*
X36513Y6631D02*
D03*
Y6887D02*
D03*
Y7143D02*
D03*
X37379Y6631D02*
D03*
Y7143D02*
D03*
X10054Y15019D02*
D03*
Y15274D02*
D03*
Y15530D02*
D03*
X10920Y15019D02*
D03*
Y15530D02*
D03*
X36513Y15019D02*
D03*
Y15274D02*
D03*
Y15530D02*
D03*
X37379Y15019D02*
D03*
Y15530D02*
D03*
X10054Y23406D02*
D03*
Y23662D02*
D03*
Y23918D02*
D03*
X10920Y23406D02*
D03*
Y23918D02*
D03*
X36513Y23406D02*
D03*
Y23662D02*
D03*
Y23918D02*
D03*
X37379Y23406D02*
D03*
Y23918D02*
D03*
X10054Y31793D02*
D03*
Y32049D02*
D03*
Y32305D02*
D03*
X10920Y31793D02*
D03*
Y32305D02*
D03*
X36513Y31793D02*
D03*
Y32049D02*
D03*
Y32305D02*
D03*
X37379Y31793D02*
D03*
Y32305D02*
D03*
X10054Y40181D02*
D03*
Y40437D02*
D03*
Y40693D02*
D03*
X10920Y40181D02*
D03*
Y40693D02*
D03*
X36513Y40181D02*
D03*
Y40437D02*
D03*
Y40693D02*
D03*
X37379Y40181D02*
D03*
Y40693D02*
D03*
X10054Y48568D02*
D03*
Y48824D02*
D03*
Y49080D02*
D03*
X10920Y48568D02*
D03*
Y49080D02*
D03*
X36513Y48568D02*
D03*
Y48824D02*
D03*
Y49080D02*
D03*
X37379Y48568D02*
D03*
Y49080D02*
D03*
D107*
X8017Y10372D02*
D03*
X7820D02*
D03*
X7623D02*
D03*
X7426D02*
D03*
X7229D02*
D03*
X7032D02*
D03*
X6835D02*
D03*
X6639D02*
D03*
X6442D02*
D03*
X6245D02*
D03*
X6048D02*
D03*
X5851D02*
D03*
X5654D02*
D03*
X5457D02*
D03*
Y7302D02*
D03*
X5654D02*
D03*
X5851D02*
D03*
X6048D02*
D03*
X6245D02*
D03*
X6442D02*
D03*
X6639D02*
D03*
X6835D02*
D03*
X7032D02*
D03*
X7229D02*
D03*
X7426D02*
D03*
X7623D02*
D03*
X7820D02*
D03*
X8017D02*
D03*
X34476Y10372D02*
D03*
X34279D02*
D03*
X34082D02*
D03*
X33885D02*
D03*
X33688D02*
D03*
X33491D02*
D03*
X33294D02*
D03*
X33098D02*
D03*
X32901D02*
D03*
X32704D02*
D03*
X32507D02*
D03*
X32310D02*
D03*
X32113D02*
D03*
X31917D02*
D03*
Y7302D02*
D03*
X32113D02*
D03*
X32310D02*
D03*
X32507D02*
D03*
X32704D02*
D03*
X32901D02*
D03*
X33098D02*
D03*
X33294D02*
D03*
X33491D02*
D03*
X33688D02*
D03*
X33885D02*
D03*
X34082D02*
D03*
X34279D02*
D03*
X34476D02*
D03*
X8017Y18760D02*
D03*
X7820D02*
D03*
X7623D02*
D03*
X7426D02*
D03*
X7229D02*
D03*
X7032D02*
D03*
X6835D02*
D03*
X6639D02*
D03*
X6442D02*
D03*
X6245D02*
D03*
X6048D02*
D03*
X5851D02*
D03*
X5654D02*
D03*
X5457D02*
D03*
Y15689D02*
D03*
X5654D02*
D03*
X5851D02*
D03*
X6048D02*
D03*
X6245D02*
D03*
X6442D02*
D03*
X6639D02*
D03*
X6835D02*
D03*
X7032D02*
D03*
X7229D02*
D03*
X7426D02*
D03*
X7623D02*
D03*
X7820D02*
D03*
X8017D02*
D03*
X34476Y18760D02*
D03*
X34279D02*
D03*
X34082D02*
D03*
X33885D02*
D03*
X33688D02*
D03*
X33491D02*
D03*
X33294D02*
D03*
X33098D02*
D03*
X32901D02*
D03*
X32704D02*
D03*
X32507D02*
D03*
X32310D02*
D03*
X32113D02*
D03*
X31917D02*
D03*
Y15689D02*
D03*
X32113D02*
D03*
X32310D02*
D03*
X32507D02*
D03*
X32704D02*
D03*
X32901D02*
D03*
X33098D02*
D03*
X33294D02*
D03*
X33491D02*
D03*
X33688D02*
D03*
X33885D02*
D03*
X34082D02*
D03*
X34279D02*
D03*
X34476D02*
D03*
X8017Y27147D02*
D03*
X7820D02*
D03*
X7623D02*
D03*
X7426D02*
D03*
X7229D02*
D03*
X7032D02*
D03*
X6835D02*
D03*
X6639D02*
D03*
X6442D02*
D03*
X6245D02*
D03*
X6048D02*
D03*
X5851D02*
D03*
X5654D02*
D03*
X5457D02*
D03*
Y24076D02*
D03*
X5654D02*
D03*
X5851D02*
D03*
X6048D02*
D03*
X6245D02*
D03*
X6442D02*
D03*
X6639D02*
D03*
X6835D02*
D03*
X7032D02*
D03*
X7229D02*
D03*
X7426D02*
D03*
X7623D02*
D03*
X7820D02*
D03*
X8017D02*
D03*
X34476Y27147D02*
D03*
X34279D02*
D03*
X34082D02*
D03*
X33885D02*
D03*
X33688D02*
D03*
X33491D02*
D03*
X33294D02*
D03*
X33098D02*
D03*
X32901D02*
D03*
X32704D02*
D03*
X32507D02*
D03*
X32310D02*
D03*
X32113D02*
D03*
X31917D02*
D03*
Y24076D02*
D03*
X32113D02*
D03*
X32310D02*
D03*
X32507D02*
D03*
X32704D02*
D03*
X32901D02*
D03*
X33098D02*
D03*
X33294D02*
D03*
X33491D02*
D03*
X33688D02*
D03*
X33885D02*
D03*
X34082D02*
D03*
X34279D02*
D03*
X34476D02*
D03*
X8017Y35535D02*
D03*
X7820D02*
D03*
X7623D02*
D03*
X7426D02*
D03*
X7229D02*
D03*
X7032D02*
D03*
X6835D02*
D03*
X6639D02*
D03*
X6442D02*
D03*
X6245D02*
D03*
X6048D02*
D03*
X5851D02*
D03*
X5654D02*
D03*
X5457D02*
D03*
Y32464D02*
D03*
X5654D02*
D03*
X5851D02*
D03*
X6048D02*
D03*
X6245D02*
D03*
X6442D02*
D03*
X6639D02*
D03*
X6835D02*
D03*
X7032D02*
D03*
X7229D02*
D03*
X7426D02*
D03*
X7623D02*
D03*
X7820D02*
D03*
X8017D02*
D03*
X34476Y35535D02*
D03*
X34279D02*
D03*
X34082D02*
D03*
X33885D02*
D03*
X33688D02*
D03*
X33491D02*
D03*
X33294D02*
D03*
X33098D02*
D03*
X32901D02*
D03*
X32704D02*
D03*
X32507D02*
D03*
X32310D02*
D03*
X32113D02*
D03*
X31917D02*
D03*
Y32464D02*
D03*
X32113D02*
D03*
X32310D02*
D03*
X32507D02*
D03*
X32704D02*
D03*
X32901D02*
D03*
X33098D02*
D03*
X33294D02*
D03*
X33491D02*
D03*
X33688D02*
D03*
X33885D02*
D03*
X34082D02*
D03*
X34279D02*
D03*
X34476D02*
D03*
X8017Y43922D02*
D03*
X7820D02*
D03*
X7623D02*
D03*
X7426D02*
D03*
X7229D02*
D03*
X7032D02*
D03*
X6835D02*
D03*
X6639D02*
D03*
X6442D02*
D03*
X6245D02*
D03*
X6048D02*
D03*
X5851D02*
D03*
X5654D02*
D03*
X5457D02*
D03*
Y40851D02*
D03*
X5654D02*
D03*
X5851D02*
D03*
X6048D02*
D03*
X6245D02*
D03*
X6442D02*
D03*
X6639D02*
D03*
X6835D02*
D03*
X7032D02*
D03*
X7229D02*
D03*
X7426D02*
D03*
X7623D02*
D03*
X7820D02*
D03*
X8017D02*
D03*
X34476Y43922D02*
D03*
X34279D02*
D03*
X34082D02*
D03*
X33885D02*
D03*
X33688D02*
D03*
X33491D02*
D03*
X33294D02*
D03*
X33098D02*
D03*
X32901D02*
D03*
X32704D02*
D03*
X32507D02*
D03*
X32310D02*
D03*
X32113D02*
D03*
X31917D02*
D03*
Y40851D02*
D03*
X32113D02*
D03*
X32310D02*
D03*
X32507D02*
D03*
X32704D02*
D03*
X32901D02*
D03*
X33098D02*
D03*
X33294D02*
D03*
X33491D02*
D03*
X33688D02*
D03*
X33885D02*
D03*
X34082D02*
D03*
X34279D02*
D03*
X34476D02*
D03*
X8017Y52309D02*
D03*
X7820D02*
D03*
X7623D02*
D03*
X7426D02*
D03*
X7229D02*
D03*
X7032D02*
D03*
X6835D02*
D03*
X6639D02*
D03*
X6442D02*
D03*
X6245D02*
D03*
X6048D02*
D03*
X5851D02*
D03*
X5654D02*
D03*
X5457D02*
D03*
Y49239D02*
D03*
X5654D02*
D03*
X5851D02*
D03*
X6048D02*
D03*
X6245D02*
D03*
X6442D02*
D03*
X6639D02*
D03*
X6835D02*
D03*
X7032D02*
D03*
X7229D02*
D03*
X7426D02*
D03*
X7623D02*
D03*
X7820D02*
D03*
X8017D02*
D03*
X34476Y52309D02*
D03*
X34279D02*
D03*
X34082D02*
D03*
X33885D02*
D03*
X33688D02*
D03*
X33491D02*
D03*
X33294D02*
D03*
X33098D02*
D03*
X32901D02*
D03*
X32704D02*
D03*
X32507D02*
D03*
X32310D02*
D03*
X32113D02*
D03*
X31917D02*
D03*
Y49239D02*
D03*
X32113D02*
D03*
X32310D02*
D03*
X32507D02*
D03*
X32704D02*
D03*
X32901D02*
D03*
X33098D02*
D03*
X33294D02*
D03*
X33491D02*
D03*
X33688D02*
D03*
X33885D02*
D03*
X34082D02*
D03*
X34279D02*
D03*
X34476D02*
D03*
D108*
X5202Y10117D02*
D03*
Y9920D02*
D03*
Y9723D02*
D03*
Y9526D02*
D03*
Y9329D02*
D03*
Y9132D02*
D03*
Y8935D02*
D03*
Y8739D02*
D03*
Y8542D02*
D03*
Y8345D02*
D03*
Y8148D02*
D03*
Y7951D02*
D03*
Y7754D02*
D03*
Y7557D02*
D03*
X8272D02*
D03*
Y7754D02*
D03*
Y7951D02*
D03*
Y8148D02*
D03*
Y8345D02*
D03*
Y8542D02*
D03*
Y8739D02*
D03*
Y8935D02*
D03*
Y9132D02*
D03*
Y9329D02*
D03*
Y9526D02*
D03*
Y9723D02*
D03*
Y9920D02*
D03*
Y10117D02*
D03*
X31661D02*
D03*
Y9920D02*
D03*
Y9723D02*
D03*
Y9526D02*
D03*
Y9329D02*
D03*
Y9132D02*
D03*
Y8935D02*
D03*
Y8739D02*
D03*
Y8542D02*
D03*
Y8345D02*
D03*
Y8148D02*
D03*
Y7951D02*
D03*
Y7754D02*
D03*
Y7557D02*
D03*
X34732D02*
D03*
Y7754D02*
D03*
Y7951D02*
D03*
Y8148D02*
D03*
Y8345D02*
D03*
Y8542D02*
D03*
Y8739D02*
D03*
Y8935D02*
D03*
Y9132D02*
D03*
Y9329D02*
D03*
Y9526D02*
D03*
Y9723D02*
D03*
Y9920D02*
D03*
Y10117D02*
D03*
X5202Y18504D02*
D03*
Y18307D02*
D03*
Y18110D02*
D03*
Y17913D02*
D03*
Y17717D02*
D03*
Y17520D02*
D03*
Y17323D02*
D03*
Y17126D02*
D03*
Y16929D02*
D03*
Y16732D02*
D03*
Y16535D02*
D03*
Y16339D02*
D03*
Y16142D02*
D03*
Y15945D02*
D03*
X8272D02*
D03*
Y16142D02*
D03*
Y16339D02*
D03*
Y16535D02*
D03*
Y16732D02*
D03*
Y16929D02*
D03*
Y17126D02*
D03*
Y17323D02*
D03*
Y17520D02*
D03*
Y17717D02*
D03*
Y17913D02*
D03*
Y18110D02*
D03*
Y18307D02*
D03*
Y18504D02*
D03*
X31661D02*
D03*
Y18307D02*
D03*
Y18110D02*
D03*
Y17913D02*
D03*
Y17717D02*
D03*
Y17520D02*
D03*
Y17323D02*
D03*
Y17126D02*
D03*
Y16929D02*
D03*
Y16732D02*
D03*
Y16535D02*
D03*
Y16339D02*
D03*
Y16142D02*
D03*
Y15945D02*
D03*
X34732D02*
D03*
Y16142D02*
D03*
Y16339D02*
D03*
Y16535D02*
D03*
Y16732D02*
D03*
Y16929D02*
D03*
Y17126D02*
D03*
Y17323D02*
D03*
Y17520D02*
D03*
Y17717D02*
D03*
Y17913D02*
D03*
Y18110D02*
D03*
Y18307D02*
D03*
Y18504D02*
D03*
X5202Y26891D02*
D03*
Y26694D02*
D03*
Y26498D02*
D03*
Y26301D02*
D03*
Y26104D02*
D03*
Y25907D02*
D03*
Y25710D02*
D03*
Y25513D02*
D03*
Y25317D02*
D03*
Y25120D02*
D03*
Y24923D02*
D03*
Y24726D02*
D03*
Y24529D02*
D03*
Y24332D02*
D03*
X8272D02*
D03*
Y24529D02*
D03*
Y24726D02*
D03*
Y24923D02*
D03*
Y25120D02*
D03*
Y25317D02*
D03*
Y25513D02*
D03*
Y25710D02*
D03*
Y25907D02*
D03*
Y26104D02*
D03*
Y26301D02*
D03*
Y26498D02*
D03*
Y26694D02*
D03*
Y26891D02*
D03*
X31661D02*
D03*
Y26694D02*
D03*
Y26498D02*
D03*
Y26301D02*
D03*
Y26104D02*
D03*
Y25907D02*
D03*
Y25710D02*
D03*
Y25513D02*
D03*
Y25317D02*
D03*
Y25120D02*
D03*
Y24923D02*
D03*
Y24726D02*
D03*
Y24529D02*
D03*
Y24332D02*
D03*
X34732D02*
D03*
Y24529D02*
D03*
Y24726D02*
D03*
Y24923D02*
D03*
Y25120D02*
D03*
Y25317D02*
D03*
Y25513D02*
D03*
Y25710D02*
D03*
Y25907D02*
D03*
Y26104D02*
D03*
Y26301D02*
D03*
Y26498D02*
D03*
Y26694D02*
D03*
Y26891D02*
D03*
X5202Y35279D02*
D03*
Y35082D02*
D03*
Y34885D02*
D03*
Y34688D02*
D03*
Y34491D02*
D03*
Y34294D02*
D03*
Y34098D02*
D03*
Y33901D02*
D03*
Y33704D02*
D03*
Y33507D02*
D03*
Y33310D02*
D03*
Y33113D02*
D03*
Y32917D02*
D03*
Y32720D02*
D03*
X8272D02*
D03*
Y32917D02*
D03*
Y33113D02*
D03*
Y33310D02*
D03*
Y33507D02*
D03*
Y33704D02*
D03*
Y33901D02*
D03*
Y34098D02*
D03*
Y34294D02*
D03*
Y34491D02*
D03*
Y34688D02*
D03*
Y34885D02*
D03*
Y35082D02*
D03*
Y35279D02*
D03*
X31661D02*
D03*
Y35082D02*
D03*
Y34885D02*
D03*
Y34688D02*
D03*
Y34491D02*
D03*
Y34294D02*
D03*
Y34098D02*
D03*
Y33901D02*
D03*
Y33704D02*
D03*
Y33507D02*
D03*
Y33310D02*
D03*
Y33113D02*
D03*
Y32917D02*
D03*
Y32720D02*
D03*
X34732D02*
D03*
Y32917D02*
D03*
Y33113D02*
D03*
Y33310D02*
D03*
Y33507D02*
D03*
Y33704D02*
D03*
Y33901D02*
D03*
Y34098D02*
D03*
Y34294D02*
D03*
Y34491D02*
D03*
Y34688D02*
D03*
Y34885D02*
D03*
Y35082D02*
D03*
Y35279D02*
D03*
X5202Y43666D02*
D03*
Y43469D02*
D03*
Y43272D02*
D03*
Y43076D02*
D03*
Y42879D02*
D03*
Y42682D02*
D03*
Y42485D02*
D03*
Y42288D02*
D03*
Y42091D02*
D03*
Y41894D02*
D03*
Y41698D02*
D03*
Y41501D02*
D03*
Y41304D02*
D03*
Y41107D02*
D03*
X8272D02*
D03*
Y41304D02*
D03*
Y41501D02*
D03*
Y41698D02*
D03*
Y41894D02*
D03*
Y42091D02*
D03*
Y42288D02*
D03*
Y42485D02*
D03*
Y42682D02*
D03*
Y42879D02*
D03*
Y43076D02*
D03*
Y43272D02*
D03*
Y43469D02*
D03*
Y43666D02*
D03*
X31661D02*
D03*
Y43469D02*
D03*
Y43272D02*
D03*
Y43076D02*
D03*
Y42879D02*
D03*
Y42682D02*
D03*
Y42485D02*
D03*
Y42288D02*
D03*
Y42091D02*
D03*
Y41894D02*
D03*
Y41698D02*
D03*
Y41501D02*
D03*
Y41304D02*
D03*
Y41107D02*
D03*
X34732D02*
D03*
Y41304D02*
D03*
Y41501D02*
D03*
Y41698D02*
D03*
Y41894D02*
D03*
Y42091D02*
D03*
Y42288D02*
D03*
Y42485D02*
D03*
Y42682D02*
D03*
Y42879D02*
D03*
Y43076D02*
D03*
Y43272D02*
D03*
Y43469D02*
D03*
Y43666D02*
D03*
X5202Y52054D02*
D03*
Y51857D02*
D03*
Y51660D02*
D03*
Y51463D02*
D03*
Y51266D02*
D03*
Y51069D02*
D03*
Y50872D02*
D03*
Y50676D02*
D03*
Y50479D02*
D03*
Y50282D02*
D03*
Y50085D02*
D03*
Y49888D02*
D03*
Y49691D02*
D03*
Y49494D02*
D03*
X8272D02*
D03*
Y49691D02*
D03*
Y49888D02*
D03*
Y50085D02*
D03*
Y50282D02*
D03*
Y50479D02*
D03*
Y50676D02*
D03*
Y50872D02*
D03*
Y51069D02*
D03*
Y51266D02*
D03*
Y51463D02*
D03*
Y51660D02*
D03*
Y51857D02*
D03*
Y52054D02*
D03*
X31661D02*
D03*
Y51857D02*
D03*
Y51660D02*
D03*
Y51463D02*
D03*
Y51266D02*
D03*
Y51069D02*
D03*
Y50872D02*
D03*
Y50676D02*
D03*
Y50479D02*
D03*
Y50282D02*
D03*
Y50085D02*
D03*
Y49888D02*
D03*
Y49691D02*
D03*
Y49494D02*
D03*
X34732D02*
D03*
Y49691D02*
D03*
Y49888D02*
D03*
Y50085D02*
D03*
Y50282D02*
D03*
Y50479D02*
D03*
Y50676D02*
D03*
Y50872D02*
D03*
Y51069D02*
D03*
Y51266D02*
D03*
Y51463D02*
D03*
Y51660D02*
D03*
Y51857D02*
D03*
Y52054D02*
D03*
D109*
X6737Y8837D02*
D03*
X33196D02*
D03*
X6737Y17224D02*
D03*
X33196D02*
D03*
X6737Y25612D02*
D03*
X33196D02*
D03*
X6737Y33999D02*
D03*
X33196D02*
D03*
X6737Y42387D02*
D03*
X33196D02*
D03*
X6737Y50774D02*
D03*
X33196D02*
D03*
D110*
X6881Y6643D02*
D03*
Y6387D02*
D03*
Y6131D02*
D03*
X7393Y6643D02*
D03*
Y6387D02*
D03*
Y6131D02*
D03*
X33340Y6643D02*
D03*
Y6387D02*
D03*
Y6131D02*
D03*
X33852Y6643D02*
D03*
Y6387D02*
D03*
Y6131D02*
D03*
X6881Y15030D02*
D03*
Y14774D02*
D03*
Y14519D02*
D03*
X7393Y15030D02*
D03*
Y14774D02*
D03*
Y14519D02*
D03*
X33340Y15030D02*
D03*
Y14774D02*
D03*
Y14519D02*
D03*
X33852Y15030D02*
D03*
Y14774D02*
D03*
Y14519D02*
D03*
X6881Y23418D02*
D03*
Y23162D02*
D03*
Y22906D02*
D03*
X7393Y23418D02*
D03*
Y23162D02*
D03*
Y22906D02*
D03*
X33340Y23418D02*
D03*
Y23162D02*
D03*
Y22906D02*
D03*
X33852Y23418D02*
D03*
Y23162D02*
D03*
Y22906D02*
D03*
X6881Y31805D02*
D03*
Y31549D02*
D03*
Y31293D02*
D03*
X7393Y31805D02*
D03*
Y31549D02*
D03*
Y31293D02*
D03*
X33340Y31805D02*
D03*
Y31549D02*
D03*
Y31293D02*
D03*
X33852Y31805D02*
D03*
Y31549D02*
D03*
Y31293D02*
D03*
X6881Y40193D02*
D03*
Y39937D02*
D03*
Y39681D02*
D03*
X7393Y40193D02*
D03*
Y39937D02*
D03*
Y39681D02*
D03*
X33340Y40193D02*
D03*
Y39937D02*
D03*
Y39681D02*
D03*
X33852Y40193D02*
D03*
Y39937D02*
D03*
Y39681D02*
D03*
X6881Y48580D02*
D03*
Y48324D02*
D03*
Y48068D02*
D03*
X7393Y48580D02*
D03*
Y48324D02*
D03*
Y48068D02*
D03*
X33340Y48580D02*
D03*
Y48324D02*
D03*
Y48068D02*
D03*
X33852Y48580D02*
D03*
Y48324D02*
D03*
Y48068D02*
D03*
D111*
X5402Y5961D02*
D03*
X5972D02*
D03*
Y6413D02*
D03*
X5402D02*
D03*
X31861Y5961D02*
D03*
X32431D02*
D03*
Y6413D02*
D03*
X31861D02*
D03*
X5402Y14348D02*
D03*
X5972D02*
D03*
Y14801D02*
D03*
X5402D02*
D03*
X31861Y14348D02*
D03*
X32431D02*
D03*
Y14801D02*
D03*
X31861D02*
D03*
X5402Y22735D02*
D03*
X5972D02*
D03*
Y23188D02*
D03*
X5402D02*
D03*
X31861Y22735D02*
D03*
X32431D02*
D03*
Y23188D02*
D03*
X31861D02*
D03*
X5402Y31123D02*
D03*
X5972D02*
D03*
Y31576D02*
D03*
X5402D02*
D03*
X31861Y31123D02*
D03*
X32431D02*
D03*
Y31576D02*
D03*
X31861D02*
D03*
X5402Y39510D02*
D03*
X5972D02*
D03*
Y39963D02*
D03*
X5402D02*
D03*
X31861Y39510D02*
D03*
X32431D02*
D03*
Y39963D02*
D03*
X31861D02*
D03*
X5402Y47898D02*
D03*
X5972D02*
D03*
Y48350D02*
D03*
X5402D02*
D03*
X31861Y47898D02*
D03*
X32431D02*
D03*
Y48350D02*
D03*
X31861D02*
D03*
D112*
X7909Y4437D02*
D03*
X4365D02*
D03*
X34368D02*
D03*
X30824D02*
D03*
X7909Y12824D02*
D03*
X4365D02*
D03*
X34368D02*
D03*
X30824D02*
D03*
X7909Y21212D02*
D03*
X4365D02*
D03*
X34368D02*
D03*
X30824D02*
D03*
X7909Y29599D02*
D03*
X4365D02*
D03*
X34368D02*
D03*
X30824D02*
D03*
X7909Y37987D02*
D03*
X4365D02*
D03*
X34368D02*
D03*
X30824D02*
D03*
X7909Y46374D02*
D03*
X4365D02*
D03*
X34368D02*
D03*
X30824D02*
D03*
D113*
X19437Y10687D02*
D03*
X18937D02*
D03*
X18437D02*
D03*
Y10187D02*
D03*
X18937D02*
D03*
X19437D02*
D03*
X45896Y10687D02*
D03*
X45396D02*
D03*
X44896D02*
D03*
Y10187D02*
D03*
X45396D02*
D03*
X45896D02*
D03*
X19437Y19074D02*
D03*
X18937D02*
D03*
X18437D02*
D03*
Y18574D02*
D03*
X18937D02*
D03*
X19437D02*
D03*
X45896Y19074D02*
D03*
X45396D02*
D03*
X44896D02*
D03*
Y18574D02*
D03*
X45396D02*
D03*
X45896D02*
D03*
X19437Y27462D02*
D03*
X18937D02*
D03*
X18437D02*
D03*
Y26962D02*
D03*
X18937D02*
D03*
X19437D02*
D03*
X45896Y27462D02*
D03*
X45396D02*
D03*
X44896D02*
D03*
Y26962D02*
D03*
X45396D02*
D03*
X45896D02*
D03*
X19437Y35849D02*
D03*
X18937D02*
D03*
X18437D02*
D03*
Y35349D02*
D03*
X18937D02*
D03*
X19437D02*
D03*
X45896Y35849D02*
D03*
X45396D02*
D03*
X44896D02*
D03*
Y35349D02*
D03*
X45396D02*
D03*
X45896D02*
D03*
X19437Y44237D02*
D03*
X18937D02*
D03*
X18437D02*
D03*
Y43737D02*
D03*
X18937D02*
D03*
X19437D02*
D03*
X45896Y44237D02*
D03*
X45396D02*
D03*
X44896D02*
D03*
Y43737D02*
D03*
X45396D02*
D03*
X45896D02*
D03*
X19437Y52624D02*
D03*
X18937D02*
D03*
X18437D02*
D03*
Y52124D02*
D03*
X18937D02*
D03*
X19437D02*
D03*
X45896Y52624D02*
D03*
X45396D02*
D03*
X44896D02*
D03*
Y52124D02*
D03*
X45396D02*
D03*
X45896D02*
D03*
D114*
X56988Y1969D02*
D03*
Y55413D02*
D03*
X1969D02*
D03*
Y1969D02*
D03*
D115*
X16387Y10433D02*
D03*
Y11141D02*
D03*
X10487Y5237D02*
D03*
X21437Y10137D02*
D03*
X28807Y11537D02*
D03*
X29307D02*
D03*
X29057D02*
D03*
X28807Y3837D02*
D03*
X29307D02*
D03*
X29057D02*
D03*
X3067D02*
D03*
X3317D02*
D03*
X3567D02*
D03*
X3067Y11537D02*
D03*
X3317D02*
D03*
X3567D02*
D03*
X42846Y10433D02*
D03*
Y11141D02*
D03*
X36946Y5237D02*
D03*
X47896Y10137D02*
D03*
X55266Y11537D02*
D03*
X55766D02*
D03*
X55516D02*
D03*
X55266Y3837D02*
D03*
X55766D02*
D03*
X55516D02*
D03*
X29526D02*
D03*
X29776D02*
D03*
X30026D02*
D03*
X29526Y11537D02*
D03*
X29776D02*
D03*
X30026D02*
D03*
X16387Y18820D02*
D03*
Y19529D02*
D03*
X10487Y13624D02*
D03*
X21437Y18524D02*
D03*
X28807Y19924D02*
D03*
X29307D02*
D03*
X29057D02*
D03*
X28807Y12224D02*
D03*
X29307D02*
D03*
X29057D02*
D03*
X3067D02*
D03*
X3317D02*
D03*
X3567D02*
D03*
X3067Y19924D02*
D03*
X3317D02*
D03*
X3567D02*
D03*
X42846Y18820D02*
D03*
Y19529D02*
D03*
X36946Y13624D02*
D03*
X47896Y18524D02*
D03*
X55266Y19924D02*
D03*
X55766D02*
D03*
X55516D02*
D03*
X55266Y12224D02*
D03*
X55766D02*
D03*
X55516D02*
D03*
X29526D02*
D03*
X29776D02*
D03*
X30026D02*
D03*
X29526Y19924D02*
D03*
X29776D02*
D03*
X30026D02*
D03*
X16387Y27207D02*
D03*
Y27916D02*
D03*
X10487Y22012D02*
D03*
X21437Y26912D02*
D03*
X28807Y28312D02*
D03*
X29307D02*
D03*
X29057D02*
D03*
X28807Y20612D02*
D03*
X29307D02*
D03*
X29057D02*
D03*
X3067D02*
D03*
X3317D02*
D03*
X3567D02*
D03*
X3067Y28312D02*
D03*
X3317D02*
D03*
X3567D02*
D03*
X42846Y27207D02*
D03*
Y27916D02*
D03*
X36946Y22012D02*
D03*
X47896Y26912D02*
D03*
X55266Y28312D02*
D03*
X55766D02*
D03*
X55516D02*
D03*
X55266Y20612D02*
D03*
X55766D02*
D03*
X55516D02*
D03*
X29526D02*
D03*
X29776D02*
D03*
X30026D02*
D03*
X29526Y28312D02*
D03*
X29776D02*
D03*
X30026D02*
D03*
X16387Y35595D02*
D03*
Y36304D02*
D03*
X10487Y30399D02*
D03*
X21437Y35299D02*
D03*
X28807Y36699D02*
D03*
X29307D02*
D03*
X29057D02*
D03*
X28807Y28999D02*
D03*
X29307D02*
D03*
X29057D02*
D03*
X3067D02*
D03*
X3317D02*
D03*
X3567D02*
D03*
X3067Y36699D02*
D03*
X3317D02*
D03*
X3567D02*
D03*
X42846Y35595D02*
D03*
Y36304D02*
D03*
X36946Y30399D02*
D03*
X47896Y35299D02*
D03*
X55266Y36699D02*
D03*
X55766D02*
D03*
X55516D02*
D03*
X55266Y28999D02*
D03*
X55766D02*
D03*
X55516D02*
D03*
X29526D02*
D03*
X29776D02*
D03*
X30026D02*
D03*
X29526Y36699D02*
D03*
X29776D02*
D03*
X30026D02*
D03*
X16387Y43982D02*
D03*
Y44691D02*
D03*
X10487Y38787D02*
D03*
X21437Y43687D02*
D03*
X28807Y45087D02*
D03*
X29307D02*
D03*
X29057D02*
D03*
X28807Y37387D02*
D03*
X29307D02*
D03*
X29057D02*
D03*
X3067D02*
D03*
X3317D02*
D03*
X3567D02*
D03*
X3067Y45087D02*
D03*
X3317D02*
D03*
X3567D02*
D03*
X42846Y43982D02*
D03*
Y44691D02*
D03*
X36946Y38787D02*
D03*
X47896Y43687D02*
D03*
X55266Y45087D02*
D03*
X55766D02*
D03*
X55516D02*
D03*
X55266Y37387D02*
D03*
X55766D02*
D03*
X55516D02*
D03*
X29526D02*
D03*
X29776D02*
D03*
X30026D02*
D03*
X29526Y45087D02*
D03*
X29776D02*
D03*
X30026D02*
D03*
X16387Y52370D02*
D03*
Y53078D02*
D03*
X10487Y47174D02*
D03*
X21437Y52074D02*
D03*
X28807Y53474D02*
D03*
X29307D02*
D03*
X29057D02*
D03*
X28807Y45774D02*
D03*
X29307D02*
D03*
X29057D02*
D03*
X3067D02*
D03*
X3317D02*
D03*
X3567D02*
D03*
X3067Y53474D02*
D03*
X3317D02*
D03*
X3567D02*
D03*
X42846Y52370D02*
D03*
Y53078D02*
D03*
X36946Y47174D02*
D03*
X47896Y52074D02*
D03*
X55266Y53474D02*
D03*
X55766D02*
D03*
X55516D02*
D03*
X55266Y45774D02*
D03*
X55766D02*
D03*
X55516D02*
D03*
X29526D02*
D03*
X29776D02*
D03*
X30026D02*
D03*
X29526Y53474D02*
D03*
X29776D02*
D03*
X30026D02*
D03*
D116*
X16187Y4737D02*
D03*
X42646D02*
D03*
X16187Y13124D02*
D03*
X42646D02*
D03*
X16187Y21512D02*
D03*
X42646D02*
D03*
X16187Y29899D02*
D03*
X42646D02*
D03*
X16187Y38287D02*
D03*
X42646D02*
D03*
X16187Y46674D02*
D03*
X42646D02*
D03*
D117*
X18687Y4737D02*
D03*
X13687D02*
D03*
X45146D02*
D03*
X40146D02*
D03*
X18687Y13124D02*
D03*
X13687D02*
D03*
X45146D02*
D03*
X40146D02*
D03*
X18687Y21512D02*
D03*
X13687D02*
D03*
X45146D02*
D03*
X40146D02*
D03*
X18687Y29899D02*
D03*
X13687D02*
D03*
X45146D02*
D03*
X40146D02*
D03*
X18687Y38287D02*
D03*
X13687D02*
D03*
X45146D02*
D03*
X40146D02*
D03*
X18687Y46674D02*
D03*
X13687D02*
D03*
X45146D02*
D03*
X40146D02*
D03*
M02*
