M48
;Layer_Color=9474304
;FILE_FORMAT=2:4
INCH,LZ
;TYPE=PLATED
T1F00S00C0.0080
T2F00S00C0.0100
T3F00S00C0.0200
T4F00S00C0.0500
T5F00S00C0.0700
;TYPE=NON_PLATED
T6F00S00C0.0276
T7F00S00C0.0390
T8F00S00C0.1181
T9F00S00C0.1370
%
T01
X004537Y005637
X006537Y005687
X007191Y005677
X008337Y005687
X009137
Y005237
Y004787
Y004287
X012237Y004387
X013937Y005487
X014187
X018587Y005637
X018837
X019087
X021437Y005237
X022437Y005437
X024787Y004187
X030996Y005637
X032996Y005687
X03365Y005677
X034796Y005687
X035596
Y005237
Y004787
Y004287
X038696Y004387
X040396Y005487
X040646
X045046Y005637
X045296
X045546
X047896Y005237
X048896Y005437
X051246Y004187
X053746Y006087
X053846Y006437
X053696Y007787
Y008137
X053996Y009337
X054446Y010037
Y010537
Y011037
X053846
X053396Y010287
X052796Y009337
X053746Y014474
X053846Y014824
X053696Y016174
Y016524
X053996Y017724
X054446Y018424
Y018924
Y019424
X053846
X053396Y018674
X052796Y017724
X052496Y019224
X049846Y019424
X049796Y018424
X049946Y017274
X048746Y017124
X048596Y016424
X047696Y016324
X047246Y016074
Y016874
X047146Y017274
X046046
X045746
X046046Y016924
X04617Y01615
X044746Y016174
X043796Y016574
Y016924
X041496Y016874
Y016574
X041596Y017724
X041196Y018074
Y018324
X042046
X042546Y018874
X043146Y019574
X041296Y019274
X040382Y019074
X040046Y018424
Y018024
X039446Y018424
X038102Y018319
X038108Y018063
X038114Y017807
X038246Y017424
X038496
X038746
X038623Y016847
X038296Y016824
X037823Y016252
X037996Y016074
X038696Y015874
X040046
X039896Y014924
X040496Y014774
X040523Y014479
X040646Y013874
X040396
X038696Y012774
X037596Y010787
Y010237
X037884Y010251
X038102Y009931
X038108Y009675
X038114Y009419
X038246Y009037
X038496
X038746
X038623Y00846
X038296Y008437
X037823Y007864
X037996Y007687
X038696Y007487
X040046
X039896Y006537
X040496Y006387
X040523Y006091
X040546Y008937
X040796Y009237
X041196Y009687
Y009937
X042046
X042546Y010487
X043146Y011187
X041296Y010887
X040382Y010687
X040046Y010037
Y009637
X039446Y010037
X037182Y010001
X037146Y010287
X037496Y009537
X037396Y008987
X037246Y008237
X041496Y008187
Y008487
X041596Y009337
X043796Y008537
Y008187
X044746Y007787
X04617Y007763
X046046Y008537
Y008887
X045746
X047146
X047246Y008487
Y007687
X047696Y007937
X048596Y008037
X048746Y008737
X049946Y008887
X049796Y010037
X049846Y011037
X052496Y010837
X051246Y012574
X048896Y013824
X047896Y013624
X047496Y014974
X045546Y014024
X045296
X045046
X040546Y017324
X040796Y017624
X037496Y017924
X037396Y017374
X037246Y016624
X037182Y018388
X037146Y018674
X037596Y018624
X037884Y018638
X037596Y019174
X038696Y021162
X051246Y020962
X047496Y006587
X036796Y006887
Y007137
X036596Y007437
X036346Y008387
Y008987
X036746
X035596Y009137
X035346
X035446Y008537
X035196
X035596Y008287
X035396Y007937
X035146
X035268Y007212
X034082Y007001
X033296Y006987
X032704Y007045
X032446Y006937
X032196
X031946Y006987
X031446Y007537
X031263Y007754
X031446Y007937
X031256Y008147
X031446Y008337
X031251Y008542
X031448Y008739
X031451Y009132
X031246Y008937
X030896Y008887
X031257Y009526
X031432Y009723
X031263Y00992
X031417Y010117
X031746Y010387
X032046Y010637
X03231Y010623
X032507Y010776
X032704Y010629
X032901Y010782
X033098Y010635
X033294Y010785
X033491Y010642
X033688Y010795
X034246Y010687
X034746Y010287
X034996
X034946Y009937
X033996Y009637
Y008837
X033196
X032796Y008437
X033596
Y009237
X032796
X032396Y008837
Y008037
X033196
X033996
X033196Y009637
X032396
X031396Y010737
X027987Y010537
Y011037
X027387
X026937Y010287
X027987Y010037
X027537Y009337
X026337
X026037Y010837
X023387Y011037
X023337Y010037
X023487Y008887
X022287Y008737
X022137Y008037
X027237Y008137
Y007787
X027387Y006437
X027287Y006087
X030996Y006487
X031296
X034496Y006137
X036823Y011064
X035596Y012674
Y013174
Y013624
Y014074
X034796
X034496Y014524
X034082Y015389
X033296Y015374
X032704Y015432
X032446Y015324
X032196
X031946Y015374
X031446Y015924
X031263Y016142
X031446Y016324
X031256Y016534
X031446Y016724
X031251Y016929
X031448Y017126
X031451Y01752
X031246Y017324
X030896Y017274
X031257Y017913
X031432Y01811
X031263Y018307
X031417Y018504
X031746Y018774
X032046Y019024
X03231Y01901
X032507Y019163
X032704Y019017
X032901Y01917
X033098Y019023
X033294Y019173
X033491Y019029
X033688Y019182
X034246Y019074
X034746Y018674
X034996
X034946Y018324
X035346Y017524
X035596
X035446Y016924
X035196
X035596Y016674
X035396Y016324
X035146
X035268Y015599
X036596Y015824
X036796Y015524
Y015274
X036346Y016774
Y017374
X036746
X036823Y019452
X035596Y021062
X033996Y018024
Y017224
X033196
X032796Y016824
X033596
Y017624
X032796
X032396Y017224
Y016424
X033196
X033996
X033196Y018024
X032396
X031396Y019124
X027987Y018924
Y019424
X027387
X026937Y018674
X027987Y018424
X027537Y017724
X026337
X026037Y019224
X023387Y019424
X023337Y018424
X023487Y017274
X022287Y017124
X022137Y016424
X022437Y013824
X021437Y013624
X024787Y012574
X027287Y014474
X027387Y014824
X027237Y016174
Y016524
X030996Y014874
X031296
X030996Y014024
X032996Y014074
X03365Y014064
X024787Y020962
X020687Y017274
X020787Y016874
Y016074
X021237Y016324
X021037Y014974
X019711Y01615
X019587Y016924
Y017274
X019287
X018287Y016174
X017337Y016574
Y016924
X015037Y016874
Y016574
X015137Y017724
X014737Y018074
Y018324
X015587
X016087Y018874
X016687Y019574
X014837Y019274
X013923Y019074
X013587Y018424
Y018024
X012987Y018424
X011643Y018319
X011649Y018063
X011655Y017807
X011787Y017424
X012037
X012287
X012164Y016847
X011837Y016824
X011364Y016252
X011537Y016074
X012237Y015874
X013587
X013437Y014924
X014037Y014774
X014064Y014479
X014187Y013874
X013937
X012237Y012774
X011137Y010787
Y010237
X011425Y010251
X011643Y009931
X011649Y009675
X011655Y009419
X011787Y009037
X012037
X012287
X012164Y00846
X011837Y008437
X011364Y007864
X011537Y007687
X012237Y007487
X013587
X013437Y006537
X014037Y006387
X014064Y006091
X014087Y008937
X014337Y009237
X014737Y009687
Y009937
X015587
X016087Y010487
X016687Y011187
X014837Y010887
X013923Y010687
X013587Y010037
Y009637
X012987Y010037
X010723Y010001
X010687Y010287
X011037Y009537
X010937Y008987
X010287
X009887
Y008387
X009137Y008287
X008987Y008537
X008737
X008687Y007937
X008937
X008808Y007212
X007623Y007001
X006837Y006987
X006245Y007045
X005987Y006937
X005937Y008037
X006337Y008437
X006737Y008837
X007537
Y009637
X007137Y009237
Y008437
X006737Y008037
X007537
X006337Y009237
X005937Y008837
Y009637
X006737
X006639Y010635
X006442Y010782
X006245Y010629
X006048Y010776
X005851Y010623
X006835Y010785
X007032Y010642
X007229Y010795
X007787Y010687
X008287Y010287
X008537
X008487Y009937
X008887Y009137
X009137
X010787Y008237
X010137Y007437
X010337Y007137
Y006887
X008037Y006137
X010364Y011064
X009137Y012674
Y013174
Y013624
Y014074
X008337
X008037Y014524
X007623Y015389
X006837Y015374
X006245Y015432
X005987Y015324
X005937Y016424
X006337Y016824
X006737Y017224
X007537
Y018024
X007137Y017624
Y016824
X006737Y016424
X007537
X008687Y016324
X008937
X009137Y016674
X008987Y016924
X008737
X008887Y017524
X009137
X009887Y017374
X010287
X010937
X011037Y017924
X010723Y018388
X010687Y018674
X011137Y018624
X011425Y018638
X011137Y019174
X010364Y019452
X008537Y018674
X008287
X008487Y018324
X007787Y019074
X007229Y019182
X007032Y019029
X006835Y019173
X006639Y019023
X006442Y01917
X006245Y019017
X006048Y019163
X005851Y01901
X005937Y018024
X006337Y017624
X005937Y017224
X006737Y018024
X006537Y014074
X007191Y014064
X008808Y015599
X010137Y015824
X010337Y015524
Y015274
X010787Y016624
X009887Y016774
X014087Y017324
X014337Y017624
X012237Y021162
X009137Y021062
X018587Y014024
X018837
X019087
X019287Y008887
X019587
Y008537
X019711Y007763
X020787Y007687
X021237Y007937
X020787Y008487
X020687Y008887
X021037Y006587
X018287Y007787
X017337Y008187
Y008537
X015037Y008487
Y008187
X015137Y009337
X004992Y009132
X004989Y008739
X004792Y008542
X004787Y008937
X004437Y008887
X004798Y009526
X004973Y009723
X004804Y00992
X004957Y010117
X005287Y010387
X005587Y010637
X004937Y010737
X004987Y008337
X004797Y008147
X004804Y007754
X004987Y007937
Y007537
X005487Y006987
X005737Y006937
X004837Y006487
X004537
Y014024
Y014874
X004837
X005487Y015374
X005737Y015324
X004987Y015924
X004804Y016142
X004987Y016324
X004797Y016534
X004987Y016724
X004792Y016929
X004989Y017126
X004992Y01752
X004787Y017324
X004437Y017274
X004798Y017913
X004973Y01811
X004804Y018307
X004957Y018504
X005287Y018774
X005587Y019024
X004937Y019124
X004537Y022412
Y023262
X004837
X005487Y023762
X005737Y023712
X004987Y024312
X004804Y024529
X004987Y024712
X004797Y024922
X004987Y025112
X004792Y025317
X004989Y025513
X004992Y025907
X004787Y025712
X004437Y025662
X004798Y026301
X004973Y026498
X004804Y026694
X004957Y026891
X005287Y027162
X005587Y027412
X004937Y027512
X004537Y030799
Y031649
X004837
X005487Y032149
X005737Y032099
X004987Y032699
X004804Y032917
X004987Y033099
X004797Y033309
X004987Y033499
X004792Y033704
X004989Y033901
X004992Y034294
X004787Y034099
X004437Y034049
X004798Y034688
X004973Y034885
X004804Y035082
X004957Y035279
X005287Y035549
X005587Y035799
X004937Y035899
X005851Y035785
X006048Y035938
X006245Y035791
X006442Y035944
X006639Y035798
X006835Y035948
X007032Y035804
X007229Y035957
X007787Y035849
X008287Y035449
X008537
X008487Y035099
X008887Y034299
X009137
X008987Y033699
X008737
X009137Y033449
X008937Y033099
X008687
X008808Y032374
X007623Y032163
X006837Y032149
X006245Y032207
X005987Y032099
X005937Y033199
X006337Y033599
X006737Y033999
X007537
Y034799
X007137Y034399
Y033599
X006737Y033199
X007537
X006337Y034399
X005937Y033999
Y034799
X006737
X009887Y034149
X010287
X010937
X011037Y034699
X011655Y034581
X011649Y034837
X011643Y035093
X011425Y035413
X011137Y035399
X010687Y035449
X010723Y035163
X011137Y035949
X010364Y036226
X009887Y033549
X010787Y033399
X011364Y033026
X011537Y032849
X012237Y032649
X012164Y033622
X011837Y033599
X011787Y034199
X012037
X012287
X012987Y035199
X013587
Y034799
X014337Y034399
X014087Y034099
X014737Y034849
Y035099
X015587
X016087Y035649
X016687Y036349
X014837Y036049
X013923Y035849
X015137Y034499
X015037Y033649
Y033349
X013587Y032649
X013437Y031699
X014037Y031549
X014064Y031254
X014187Y030649
X013937
X012237Y029549
X011137Y027562
Y027012
X011425Y027026
X011643Y026706
X011649Y02645
X011655Y026194
X011787Y025812
X012037
X012287
X012164Y025235
X011837Y025212
X011364Y024639
X011537Y024462
X012237Y024262
X013587
X013437Y023312
X014037Y023162
X014064Y022866
X014187Y022262
X013937
X014087Y025712
X014337Y026012
X014737Y026462
Y026712
X015587
X016087Y027262
X016687Y027962
X014837Y027662
X013923Y027462
X013587Y026812
Y026412
X012987Y026812
X010723Y026776
X010687Y027062
X011037Y026312
X010937Y025762
X010287
X009887
Y025162
X009137Y025062
X008987Y025312
X008737
X008687Y024712
X008937
X008808Y023987
X007623Y023776
X006837Y023762
X006245Y02382
X005987Y023712
X005937Y024812
X006337Y025212
X006737Y025612
X007537
Y026412
X007137Y026012
Y025212
X006737Y024812
X007537
X006337Y026012
X005937Y025612
Y026412
X006737
X006639Y02741
X006442Y027557
X006245Y027404
X006048Y027551
X005851Y027398
X006835Y02756
X007032Y027417
X007229Y02757
X007787Y027462
X008287Y027062
X008537
X008487Y026712
X008887Y025912
X009137
X010787Y025012
X010137Y024212
X010337Y023912
Y023662
X009137Y022462
Y022012
Y021562
X008337Y022462
X008037Y022912
X007191Y022452
X006537Y022462
Y030849
X007191Y030839
X008337Y030849
X008037Y031299
X009137Y030849
Y030399
Y029949
Y029449
X010364Y027839
X010337Y032049
Y032299
X010137Y032599
X017337Y033349
Y033699
X018287Y032949
X019711Y032925
X019587Y033699
Y034049
X019287
X020687
X020787Y033649
Y032849
X021237Y033099
X021037Y031749
X019087Y030799
X018837
X018587
X019287Y025662
X019587
Y025312
X019711Y024538
X020787Y024462
X021237Y024712
X020787Y025262
X020687Y025662
X021037Y023362
X019087Y022412
X018837
X018587
X018287Y024562
X017337Y024962
Y025312
X015037Y025262
Y024962
X015137Y026112
X022287Y025512
X022137Y024812
X023487Y025662
X023337Y026812
X023387Y027812
X026037Y027612
X026937Y027062
X027387Y027812
X027987
Y027312
Y026812
X027537Y026112
X026337
X027237Y024912
Y024562
X027387Y023212
X027287Y022862
X030996Y023262
X031296
X030996Y022412
X032996Y022462
X03365Y022452
X034796Y022462
X034496Y022912
X034082Y023776
X033296Y023762
X032704Y02382
X032446Y023712
X032196
X031946Y023762
X031446Y024312
X031263Y024529
X031446Y024712
X031256Y024922
X031446Y025112
X031251Y025317
X031448Y025513
X031451Y025907
X031246Y025712
X030896Y025662
X031257Y026301
X031432Y026498
X031263Y026694
X031417Y026891
X031746Y027162
X032046Y027412
X03231Y027398
X032507Y027551
X032704Y027404
X032901Y027557
X033098Y02741
X033294Y02756
X033491Y027417
X033688Y02757
X034246Y027462
X034746Y027062
X034996
X034946Y026712
X035346Y025912
X035596
X035446Y025312
X035196
X035596Y025062
X035396Y024712
X035146
X035268Y023987
X036596Y024212
X036796Y023912
Y023662
X036346Y025162
Y025762
X036746
X036823Y027839
X035596Y029449
Y029949
Y030399
Y030849
X034796
X034496Y031299
X034082Y032163
X033296Y032149
X032704Y032207
X032446Y032099
X032196
X031946Y032149
X031446Y032699
X031263Y032917
X031446Y033099
X031256Y033309
X031446Y033499
X031251Y033704
X031448Y033901
X031451Y034294
X031246Y034099
X030896Y034049
X031257Y034688
X031432Y034885
X031263Y035082
X031417Y035279
X031746Y035549
X032046Y035799
X03231Y035785
X032507Y035938
X032704Y035791
X032901Y035944
X033098Y035798
X033294Y035948
X033491Y035804
X033688Y035957
X034246Y035849
X034746Y035449
X034996
X034946Y035099
X035346Y034299
X035596
X035446Y033699
X035196
X035596Y033449
X035396Y033099
X035146
X035268Y032374
X036596Y032599
X036796Y032299
Y032049
X036346Y033549
Y034149
X036746
X036823Y036226
X033996Y034799
Y033999
X033196
X032796Y033599
X033596
Y034399
X032796
X032396Y033999
Y033199
X033196
X033996
X033196Y034799
X032396
X031396Y035899
X027987Y035699
Y036199
X027387
X026937Y035449
X027987Y035199
X027537Y034499
X026337
X026037Y035999
X023387Y036199
X023337Y035199
X023487Y034049
X022287Y033899
X022137Y033199
X022437Y030599
X021437Y030399
X024787Y029349
X027287Y031249
X027387Y031599
X027237Y032949
Y033299
X030996Y031649
X031296
X030996Y030799
X032996Y030849
X03365Y030839
X033996Y026412
Y025612
X033196
X032796Y025212
X033596
Y026012
X032796
X032396Y025612
Y024812
X033196
X033996
X033196Y026412
X032396
X031396Y027512
X035596Y022462
Y022012
Y021562
X022437Y022212
X021437Y022012
X037246Y025012
X037396Y025762
X037496Y026312
X038114Y026194
X038108Y02645
X038102Y026706
X037884Y027026
X037596Y027012
X037146Y027062
X037182Y026776
X037596Y027562
X038246Y025812
X038496
X038746
X038623Y025235
X038296Y025212
X037823Y024639
X037996Y024462
X038696Y024262
X040046
X039896Y023312
X040496Y023162
X040523Y022866
X040646Y022262
X040396
X040546Y025712
X040796Y026012
X041196Y026462
Y026712
X042046
X042546Y027262
X043146Y027962
X041296Y027662
X040382Y027462
X040046Y026812
Y026412
X039446Y026812
X041596Y026112
X041496Y025262
Y024962
X043796
Y025312
X044746Y024562
X04617Y024538
X046046Y025312
Y025662
X045746
X047146
X047246Y025262
Y024462
X047696Y024712
X048596Y024812
X048746Y025512
X049946Y025662
X049796Y026812
X049846Y027812
X052496Y027612
X051246Y029349
X048896Y030599
X047896Y030399
X047496Y031749
X047246Y032849
X047696Y033099
X048596Y033199
X048746Y033899
X049946Y034049
X049796Y035199
X049846Y036199
X052496Y035999
X047146Y034049
X047246Y033649
X046046Y033699
Y034049
X045746
X04617Y032925
X044746Y032949
X043796Y033349
Y033699
X041496Y033649
Y033349
X041596Y034499
X041196Y034849
Y035099
X042046
X042546Y035649
X043146Y036349
X041296Y036049
X040382Y035849
X040046Y035199
Y034799
X039446Y035199
X038102Y035093
X038108Y034837
X038114Y034581
X038246Y034199
X038496
X038746
X038623Y033622
X038296Y033599
X037823Y033026
X037996Y032849
X038696Y032649
X040046
X039896Y031699
X040496Y031549
X040523Y031254
X040646Y030649
X040396
X038696Y029549
X037246Y033399
X037396Y034149
X037496Y034699
X037182Y035163
X037146Y035449
X037596Y035399
X037884Y035413
X037596Y035949
X040796Y034399
X040546Y034099
X045046Y030799
X045296
X045546
Y022412
X045296
X045046
X047896Y022012
X048896Y022212
X047496Y023362
X053846Y023212
X053746Y022862
X053696Y024562
Y024912
X053996Y026112
X054446Y026812
Y027312
Y027812
X053846
X053396Y027062
X052796Y026112
X053746Y031249
X053846Y031599
X053696Y032949
Y033299
X053996Y034499
X054446Y035199
Y035699
Y036199
X053846
X053396Y035449
X052796Y034499
X053746Y039637
X053846Y039987
X053696Y041337
Y041687
X053996Y042887
X054446Y043587
Y044087
Y044587
X053846
X053396Y043837
X052796Y042887
X053746Y048024
X053846Y048374
X053696Y049724
Y050074
X053996Y051274
X054446Y051974
Y052474
X053396Y052224
X052796Y051274
X049946Y050824
X049796Y051974
X048746Y050674
X048596Y049974
X047696Y049874
X047246Y049624
Y050424
X047146Y050824
X046046
X045746
X046046Y050474
X04617Y0497
X044746Y049724
X043796Y050124
Y050474
X041496Y050424
Y050124
X041596Y051274
X041196Y051624
Y051874
X042046
X042546Y052424
X040382Y052624
X040046Y051974
Y051574
X039446Y051974
X038102Y051868
X038108Y051612
X038114Y051356
X038246Y050974
X038496
X038746
X038623Y050397
X038296Y050374
X037823Y049801
X037996Y049624
X038696Y049424
X040046
X039896Y048474
X040496Y048324
X040523Y048028
X040646Y047424
X040396
X038696Y046324
X037596Y044337
Y043787
X037884Y0438
X038102Y043481
X038108Y043225
X038114Y042969
X038246Y042587
X038496
X038746
X038623Y042009
X038296Y041987
X037823Y041414
X037996Y041237
X038696Y041037
X040046
X039896Y040087
X040496Y039937
X040523Y039641
X040646Y039037
X040396
X038696Y037937
X037246Y041786
X037396Y042537
X037496Y043087
X037182Y04355
X037146Y043837
X039446Y043587
X040046
Y043187
X040796Y042787
X040546Y042487
X041196Y043237
Y043487
X042046
X042546Y044037
X043146Y044737
X041296Y044437
X040382Y044237
X041596Y042887
X041496Y042037
Y041737
X043796
Y042087
X044746Y041337
X04617Y041313
X046046Y042087
Y042437
X045746
X047146
X047246Y042037
Y041237
X047696Y041487
X048596Y041587
X048746Y042287
X049946Y042437
X049796Y043587
X049846Y044587
X052496Y044387
X051246Y046124
X048896Y047374
X047896Y047174
X047496Y048524
X045546Y047574
X045296
X045046
X040546Y050874
X040796Y051174
X037496Y051474
X037396Y050924
X037246Y050174
X037182Y051938
X037146Y052224
X037596Y052174
X037884Y052188
X045046Y039187
X045296
X045546
X047896Y038787
X048896Y038987
X047496Y040137
X051246Y037737
X035596Y037837
Y038337
Y038787
Y039237
X034796
X034496Y039687
X034082Y040551
X033296Y040537
X032704Y040594
X032446Y040487
X032196
X031946Y040537
X031446Y041087
X031263Y041304
X031446Y041487
X031256Y041697
X031446Y041887
X031251Y042091
X031448Y042288
X031451Y042682
X031246Y042487
X030896Y042437
X031257Y043076
X031432Y043272
X031263Y043469
X031417Y043666
X031746Y043937
X032046Y044187
X03231Y044172
X032507Y044326
X032704Y044179
X032901Y044332
X033098Y044185
X033294Y044335
X033491Y044191
X033688Y044344
X034246Y044237
X034746Y043837
X034996
X034946Y043487
X035346Y042687
X035596
X035446Y042087
X035196
X035596Y041837
X035396Y041487
X035146
X035268Y040762
X036596Y040987
X036796Y040687
Y040437
X036346Y041937
Y042537
X036746
X036823Y044614
X035596Y046224
Y046724
Y047174
Y047624
X034796
X034496Y048074
X034082Y048938
X033296Y048924
X032704Y048982
X032446Y048874
X032196
X031946Y048924
X031446Y049474
X031263Y049691
X031446Y049874
X031256Y050084
X031446Y050274
X031251Y050479
X031448Y050676
X031451Y051069
X031246Y050874
X030896Y050824
X031257Y051463
X031432Y05166
X031263Y051857
X031417Y052054
X031746Y052324
X032046Y052574
X03231Y05256
X032704Y052566
X033098Y052572
X033491Y052579
X034246Y052624
X034746Y052224
X034996
X034946Y051874
X035346Y051074
X035596
X035446Y050474
X035196
X035596Y050224
X035396Y049874
X035146
X035268Y049149
X036596Y049374
X036796Y049074
Y048824
X036346Y050324
Y050924
X036746
X033996Y050774
Y051574
X033596Y051174
X033196Y050774
X032796Y050374
X033596
X033196Y049974
X032396
Y050774
X032796Y051174
X032396Y051574
X033196
X033996Y049974
X03365Y047614
X032996Y047624
X030996Y047574
Y048424
X031296
X027387Y048374
X027287Y048024
X027237Y049724
Y050074
X027537Y051274
X027987Y051974
Y052474
X026937Y052224
X026337Y051274
X023487Y050824
X023337Y051974
X022287Y050674
X022137Y049974
X022437Y047374
X021437Y047174
X024787Y046124
X023387Y044587
X023337Y043587
X023487Y042437
X022287Y042287
X022137Y041587
X022437Y038987
X021437Y038787
X024787Y037737
X027287Y039637
X027387Y039987
X027237Y041337
Y041687
X027537Y042887
X027987Y043587
Y044087
Y044587
X027387
X026937Y043837
X026037Y044387
X026337Y042887
X032396Y043187
X032796Y042787
X033196Y042387
X033996
Y043187
X033596Y042787
Y041987
X032796
X033196Y041587
X032396
Y042387
X033196Y043187
X033996Y041587
X03365Y039227
X032996Y039237
X030996Y039187
Y040037
X031296
X031396Y044287
X020687Y042437
X020787Y042037
Y041237
X021237Y041487
X021037Y040137
X019711Y041313
X019587Y042087
Y042437
X019287
X018287Y041337
X017337Y041737
Y042087
X015037Y042037
Y041737
X015137Y042887
X014737Y043237
Y043487
X015587
X016087Y044037
X016687Y044737
X014837Y044437
X013923Y044237
X013587Y043587
Y043187
X012987Y043587
X011643Y043481
X011649Y043225
X011655Y042969
X011787Y042587
X012037
X012287
X012164Y042009
X011837Y041987
X011364Y041414
X011537Y041237
X012237Y041037
X013587
X013437Y040087
X014037Y039937
X014064Y039641
X014187Y039037
X013937
X012237Y037937
X009137Y037837
Y038337
Y038787
Y039237
X008337
X008037Y039687
X007623Y040551
X006837Y040537
X006245Y040594
X005987Y040487
X005937Y041587
X006337Y041987
X006737Y042387
X007537
Y043187
X007137Y042787
Y041987
X006737Y041587
X007537
X008687Y041487
X008937
X009137Y041837
X008987Y042087
X008737
X008887Y042687
X009137
X009887Y042537
X010287
X010937
X011037Y043087
X010723Y04355
X010687Y043837
X011137Y043787
X011425Y0438
X011137Y044337
X010364Y044614
X008537Y043837
X008287
X008487Y043487
X007787Y044237
X007229Y044344
X007032Y044191
X006835Y044335
X006639Y044185
X006442Y044332
X006245Y044179
X006048Y044326
X005851Y044172
X005937Y043187
X006337Y042787
X005937Y042387
X006737Y043187
X006537Y039237
X007191Y039227
X008808Y040762
X010137Y040987
X010337Y040687
Y040437
X010787Y041786
X009887Y041937
X014087Y042487
X014337Y042787
X014187Y047424
X013937
X014064Y048028
X014037Y048324
X013437Y048474
X013587Y049424
X012237
X011537Y049624
X011364Y049801
X010787Y050174
X010937Y050924
X010287
X009887
Y050324
X009137Y050224
X008987Y050474
X008737
X008687Y049874
X008937
X008808Y049149
X007623Y048938
X006837Y048924
X006245Y048982
X005987Y048874
X005937Y049974
X006337Y050374
X006737Y050774
X007537
Y051574
X007137Y051174
Y050374
X006737Y049974
X007537
X006337Y051174
X005937Y050774
Y051574
X006737
X006639Y052572
X007032Y052579
X006245Y052566
X005851Y05256
X007787Y052624
X008287Y052224
X008537
X008487Y051874
X008887Y051074
X009137
X011037Y051474
X011655Y051356
X011649Y051612
X011643Y051868
X011425Y052188
X011137Y052174
X010687Y052224
X010723Y051938
X011787Y050974
X012037
X012287
X012164Y050397
X011837Y050374
X010137Y049374
X010337Y049074
Y048824
X009137Y047624
Y047174
Y046724
Y046224
X008337Y047624
X008037Y048074
X007191Y047614
X006537Y047624
X012237Y046324
X012987Y051974
X013587
Y051574
X014337Y051174
X014087Y050874
X014737Y051624
Y051874
X015587
X016087Y052424
X015137Y051274
X015037Y050424
Y050124
X017337
Y050474
X018287Y049724
X019711Y0497
X019587Y050474
Y050824
X019287
X020687
X020787Y050424
Y049624
X021237Y049874
X021037Y048524
X019087Y047574
X018837
X018587
Y039187
X018837
X019087
X013923Y052624
X005587Y052574
X005287Y052324
X004957Y052054
X004804Y051857
X004973Y05166
X004798Y051463
X004992Y051069
X004989Y050676
X004792Y050479
X004787Y050874
X004437Y050824
X004797Y050084
X004987Y050274
Y049874
X004804Y049691
X004987Y049474
X005487Y048924
X005737Y048874
X004837Y048424
X004537
Y047574
X004937Y044287
X004957Y043666
X004804Y043469
X004973Y043272
X004798Y043076
X004992Y042682
X004989Y042288
X004792Y042091
X004787Y042487
X004437Y042437
X004797Y041697
X004987Y041887
Y041487
X004804Y041304
X004987Y041087
X005487Y040537
X005737Y040487
X004837Y040037
X004537
Y039187
X005287Y043937
X005587Y044187
X004937Y052674
X006048Y052713
X006442Y052719
X006835Y052722
X007229Y052732
X010364Y053001
X011137Y052724
X014837Y052824
X016687Y053124
X023387Y052974
X026037Y052774
X027387Y052974
X027987
X031396Y052674
X032507Y052713
X032901Y052719
X033294Y052722
X033688Y052732
X036823Y053001
X037596Y052724
X041296Y052824
X043146Y053124
X049846Y052974
X052496Y052774
X053846Y052974
X054446
T02
X013237Y005437
X016937Y004887
X020137Y005037
X021987
X025287Y005337
X027237Y005137
X039696Y005437
X043396Y004887
X046596Y005037
X048446
X051746Y005337
X053696Y005137
X053396Y008137
X054296Y009337
X054686Y009156
X053496Y010787
X053696Y013524
X053396Y016524
X054296Y017724
X054686Y017543
X053496Y019174
X051496Y019424
X050846
Y017624
X052496Y017774
X052196Y014474
X051296Y014374
X051746Y013724
X049946Y014474
X049046Y015974
X048446Y013424
X046596
X045746Y015374
X044746Y016524
X044646Y018074
X044946
X045396
X045896
X046329Y018107
X045946Y019424
X045646
X045346
X045046
X044746
X042396Y015574
X041796Y015874
X040496Y015174
X039696Y013824
X043396Y013274
X044746Y011037
X045046
X045346
X045646
X045946
X045896Y009687
X046329Y00972
X045396Y009687
X044946
X044646
X044746Y008137
X045746Y006987
X042396Y007187
X041796Y007487
X040496Y006787
X049046Y007587
X049946Y006087
X051296Y005987
X052196Y006087
X052496Y009387
X050846Y009237
Y011037
X051496
X036954Y010126
X035396Y007437
X035446Y007037
X034996Y007487
X035446Y015424
X035396Y015824
X034996Y015874
X036954Y018513
X028227Y017543
X027837Y017724
X026037Y017774
X024387Y017624
Y019424
X025037
X027037Y019174
X026937Y016524
X025737Y014474
X024837Y014374
X025287Y013724
X027237Y013524
X027037Y010787
X027837Y009337
X028227Y009156
X026937Y008137
X026037Y009387
X024387Y009237
Y011037
X025037
X023487Y014474
X022587Y015974
X021987Y013424
X022587Y007587
X023487Y006087
X024837Y005987
X025737Y006087
X019287Y006987
X018287Y008137
X018187Y009687
X018487
X018937
X019437
X01987Y00972
X019487Y011037
X019187
X018887
X018587
X018287
X016937Y013274
X015937Y015574
X015337Y015874
X014037Y015174
X013237Y013824
X008987Y015424
X008937Y015824
X008537Y015874
X010495Y018513
X018187Y018074
X018487
X018937
X019437
X01987Y018107
X019487Y019424
X019187
X018887
X018587
X018287
Y016524
X019287Y015374
X020137Y013424
X015937Y007187
X015337Y007487
X014037Y006787
X008987Y007037
X008937Y007437
X008537Y007487
X010495Y010126
X013237Y022212
X014037Y023562
X015337Y024262
X015937Y023962
X016937Y021662
X020137Y021812
X019287Y023762
X018287Y024912
X018187Y026462
X018487
X018937
X019437
X01987Y026494
X019487Y027812
X019187
X018887
X018587
X018287
X016937Y030049
X015937Y032349
X015337Y032649
X014037Y031949
X013237Y030599
X008987Y032199
X008937Y032599
X008537Y032649
X010495Y035288
X018187Y034849
X018487
X018937
X019437
X01987Y034882
X019487Y036199
X019187
X018887
X018587
X018287
Y033299
X019287Y032149
X020137Y030199
X010495Y026901
X008937Y024212
X008987Y023812
X008537Y024262
X022587Y024362
X023487Y022862
X024837Y022762
X025737Y022862
X025287Y022112
X027237Y021912
X026937Y024912
X027837Y026112
X028227Y025931
X026037Y026162
X024387Y026012
Y027812
X025037
X027037Y027562
X027237Y030299
X025287Y030499
X024837Y031149
X025737Y031249
X023487
X022587Y032749
X021987Y030199
X024387Y034399
Y036199
X025037
X027037Y035949
X027837Y034499
X028227Y034318
X026937Y033299
X026037Y034549
X034996Y032649
X035396Y032599
X035446Y032199
X036954Y035288
Y026901
X035396Y024212
X035446Y023812
X034996Y024262
X021987Y021812
X039696Y022212
X040496Y023562
X041796Y024262
X042396Y023962
X043396Y021662
X046596Y021812
X048446
X049946Y022862
X051296Y022762
X052196Y022862
X051746Y022112
X050846Y026012
Y027812
X051496
X052496Y026162
X051746Y030499
X051296Y031149
X052196Y031249
X049946
X049046Y032749
X048446Y030199
X046596
X045746Y032149
X044746Y033299
X044646Y034849
X044946
X045396
X045896
X046329Y034882
X045946Y036199
X045646
X045346
X045046
X044746
X050846
X051496
X050846Y034399
X052496Y034549
X042396Y032349
X041796Y032649
X040496Y031949
X039696Y030599
X043396Y030049
X044746Y027812
X045046
X045346
X045646
X045946
X045896Y026462
X046329Y026494
X045396Y026462
X044946
X044646
X044746Y024912
X045746Y023762
X049046Y024362
X053396Y024912
X054296Y026112
X054686Y025931
X053496Y027562
X053696Y030299
X053396Y033299
X054296Y034499
X054686Y034318
X053496Y035949
X053696Y021912
Y038687
X053396Y041687
X054296Y042887
X054686Y042705
X053496Y044337
X053696Y047074
X053396Y050074
X054296Y051274
X054686Y051093
X052496Y051324
X050846Y051174
X049046Y049524
X049946Y048024
X051296Y047924
X052196Y048024
X051746Y047274
X051496Y044587
X050846
Y042787
X052496Y042937
X052196Y039637
X051296Y039537
X051746Y038887
X049946Y039637
X049046Y041137
X048446Y038587
X046596
X045746Y040537
X044746Y041687
X044646Y043237
X044946
X045396
X045896
X046329Y043269
X045946Y044587
X045646
X045346
X045046
X044746
X043396Y046824
X042396Y049124
X041796Y049424
X040496Y048724
X039696Y047374
X046596Y046974
X048446
X045746Y048924
X044746Y050074
X044646Y051624
X044946
X045396
X045896
X046329Y051657
X042396Y040737
X041796Y041037
X040496Y040337
X039696Y038987
X043396Y038437
X035446Y040587
X035396Y040987
X034996Y041037
X036954Y043675
X035446Y048974
X035396Y049374
X034996Y049424
X036954Y052063
X028227Y051093
X027837Y051274
X026037Y051324
X024387Y051174
X022587Y049524
X023487Y048024
X024837Y047924
X025737Y048024
X025287Y047274
X027237Y047074
X027037Y044337
X027837Y042887
X028227Y042705
X026937Y041687
X026037Y042937
X024387Y042787
Y044587
X025037
X024837Y039537
X025737Y039637
X025287Y038887
X027237Y038687
X023487Y039637
X022587Y041137
X021987Y038587
Y046974
X026937Y050074
X01987Y051657
X019437Y051624
X018937
X018487
X018187
X018287Y050074
X019287Y048924
X020137Y046974
X019487Y044587
X019187
X018887
X018587
X018287
X018187Y043237
X018487
X018937
X019437
X01987Y043269
X018287Y041687
X019287Y040537
X020137Y038587
X016937Y038437
X015937Y040737
X015337Y041037
X014037Y040337
X013237Y038987
X008987Y040587
X008937Y040987
X008537Y041037
X010495Y043675
X013237Y047374
X014037Y048724
X015337Y049424
X015937Y049124
X016937Y046824
X008987Y048974
X008937Y049374
X008537Y049424
X010495Y052063
X018287Y052974
X018587
X018887
X019187
X019487
X024387
X025037
X027037Y052724
X044746Y052974
X045046
X045346
X045646
X045946
X050846
X051496
X053496Y052724
T03
X003067Y003837
X003317
X003567
X028807
X029057
X029307
X029526
X029776
X030026
X055266
X055516
X055766
Y011537
X055516
X055266
Y012224
X055516
X055766
Y019924
X055516
X055266
Y020612
X055516
X055766
X030026
X029776
X029526
X029307
X029057
X028807
Y019924
X029057
X029307
X029526
X029776
X030026
Y012224
X029776
X029526
X029307
X029057
X028807
Y011537
X029057
X029307
X029526
X029776
X030026
X003567
X003317
X003067
Y012224
X003317
X003567
Y019924
X003317
X003067
Y020612
X003317
X003567
Y028312
X003317
X003067
Y028999
X003317
X003567
Y036699
X003317
X003067
X028807
X029057
X029307
X029526
X029776
X030026
Y028999
X029776
X029526
X029307
X029057
X028807
Y028312
X029057
X029307
X029526
X029776
X030026
X055266
X055516
X055766
Y028999
X055516
X055266
Y036699
X055516
X055766
Y037387
X055516
X055266
Y045087
X055516
X055766
Y045774
X055516
X055266
X030026
X029776
X029526
X029307
X029057
X028807
Y045087
X029057
X029307
X029526
X029776
X030026
Y037387
X029776
X029526
X029307
X029057
X028807
X003567
X003317
X003067
Y045087
X003317
X003567
Y045774
X003317
X003067
Y053474
X003317
X003567
X028807
X029057
X029307
X029526
X029776
X030026
X055266
X055516
X055766
T04
X016187Y004737
X042646
Y013124
X016187
Y021512
Y029899
X042646
Y021512
Y038287
Y046674
X016187
Y038287
T05
X013687Y004737
X018687
X040146
X045146
Y013124
X040146
X018687
X013687
Y021512
X018687
Y029899
X013687
X040146
X045146
Y021512
X040146
Y038287
X045146
Y046674
X040146
X018687
X013687
Y038287
X018687
T06
X042846Y010433
Y011141
Y01882
Y019529
X016387
Y01882
Y011141
Y010433
Y027207
Y027916
Y035595
Y036304
X042846
Y035595
Y027916
Y027207
Y043982
Y044691
Y05237
X016387
Y044691
Y043982
Y053078
X042846
T07
X044396Y010037
Y010837
X046396Y010437
Y018824
X044396Y018424
Y019224
X019937Y018824
X017937Y018424
Y019224
Y010837
Y010037
X019937Y010437
Y027212
X017937Y026812
Y027612
Y035199
Y035999
X019937Y035599
X044396Y035199
Y035999
X046396Y035599
Y027212
X044396Y026812
Y027612
Y043587
Y044387
X046396Y043987
Y052374
X044396Y051974
X019937Y052374
X017937Y051974
Y044387
Y043587
X019937Y043987
X017937Y052774
X044396
T08
X010487Y005237
X036946
X047896Y010137
Y018524
X036946Y013624
X021437Y010137
Y018524
X010487Y013624
Y022012
Y030399
X021437Y026912
Y035299
X036946Y030399
Y022012
X047896Y026912
Y035299
Y043687
Y052074
X036946Y047174
Y038787
X021437Y043687
Y052074
X010487Y047174
Y038787
T09
X001969Y001969
X056988
X001969Y055413
X056988
M30
