G04 Layer_Color=8388736*
%FSLAX24Y24*%
%MOIN*%
G70*
G01*
G75*
%ADD31C,0.0600*%
%ADD40R,0.0414X0.0257*%
%ADD41R,0.0257X0.0414*%
%ADD42O,0.0631X0.0237*%
%ADD43R,0.0572X0.0296*%
%ADD44R,0.0296X0.0225*%
%ADD45R,0.0296X0.0572*%
%ADD46R,0.0473X0.0296*%
%ADD47R,0.1162X0.0552*%
%ADD48O,0.0690X0.0178*%
%ADD49R,0.0721X0.0800*%
%ADD50R,0.0572X0.0572*%
%ADD51R,0.0729X0.0493*%
%ADD52C,0.0651*%
%ADD53R,0.0651X0.0651*%
%ADD54C,0.0721*%
%ADD55C,0.0060*%
%ADD56C,0.0769*%
%ADD57C,0.1175*%
D31*
X17100Y13100D02*
D03*
D40*
X18900Y13095D02*
D03*
Y12505D02*
D03*
X18250Y13095D02*
D03*
Y12505D02*
D03*
X37150Y20645D02*
D03*
Y20055D02*
D03*
X36600D02*
D03*
Y20645D02*
D03*
X36050Y20055D02*
D03*
Y20645D02*
D03*
X30350Y20105D02*
D03*
Y20695D02*
D03*
X29800Y20105D02*
D03*
Y20695D02*
D03*
X30900Y19595D02*
D03*
Y19005D02*
D03*
X30350Y19595D02*
D03*
Y19005D02*
D03*
X29800Y19595D02*
D03*
Y19005D02*
D03*
X26450Y21295D02*
D03*
Y20705D02*
D03*
Y19705D02*
D03*
Y20295D02*
D03*
Y19295D02*
D03*
Y18705D02*
D03*
X34400Y17505D02*
D03*
Y18095D02*
D03*
Y14605D02*
D03*
Y15195D02*
D03*
X33550Y16695D02*
D03*
Y16105D02*
D03*
X33000Y16695D02*
D03*
Y16105D02*
D03*
X34000Y13545D02*
D03*
Y12955D02*
D03*
X30800Y16705D02*
D03*
Y17295D02*
D03*
X28250Y13545D02*
D03*
Y12955D02*
D03*
X26250Y16455D02*
D03*
Y17045D02*
D03*
X23000Y12955D02*
D03*
Y13545D02*
D03*
X19400Y15545D02*
D03*
Y14955D02*
D03*
Y16955D02*
D03*
Y17545D02*
D03*
D41*
X35355Y21900D02*
D03*
X35945D02*
D03*
X35355Y21350D02*
D03*
X35945D02*
D03*
X34205D02*
D03*
X34795D02*
D03*
X31705Y21600D02*
D03*
X32295D02*
D03*
X31755Y19600D02*
D03*
X32345D02*
D03*
X28545Y21000D02*
D03*
X27955D02*
D03*
X23455Y20800D02*
D03*
X24045D02*
D03*
X23455Y19250D02*
D03*
X24045D02*
D03*
X31605Y17300D02*
D03*
X32195D02*
D03*
X31895Y15200D02*
D03*
X31305D02*
D03*
X29605Y17050D02*
D03*
X30195D02*
D03*
X22855Y15000D02*
D03*
X23445D02*
D03*
X22855Y16500D02*
D03*
X23445D02*
D03*
D42*
X33634Y20734D02*
D03*
Y20478D02*
D03*
Y20222D02*
D03*
Y19966D02*
D03*
X35366Y20734D02*
D03*
Y20478D02*
D03*
Y20222D02*
D03*
Y19966D02*
D03*
X27384Y20384D02*
D03*
Y20128D02*
D03*
Y19872D02*
D03*
Y19616D02*
D03*
X29116Y20384D02*
D03*
Y20128D02*
D03*
Y19872D02*
D03*
Y19616D02*
D03*
D43*
X32563Y20600D02*
D03*
X31737Y20226D02*
D03*
Y20974D02*
D03*
X24837Y20750D02*
D03*
X25663Y21124D02*
D03*
Y20376D02*
D03*
X24837Y19250D02*
D03*
X25663Y19624D02*
D03*
Y18876D02*
D03*
X21837Y19250D02*
D03*
X22663Y19624D02*
D03*
Y18876D02*
D03*
X21837Y20750D02*
D03*
X22663Y21124D02*
D03*
Y20376D02*
D03*
X20087Y20750D02*
D03*
X20913Y21124D02*
D03*
Y20376D02*
D03*
X20087Y19250D02*
D03*
X20913Y19624D02*
D03*
Y18876D02*
D03*
X32887Y17800D02*
D03*
X33713Y18174D02*
D03*
Y17426D02*
D03*
X32887Y14900D02*
D03*
X33713Y15274D02*
D03*
Y14526D02*
D03*
X23587Y15500D02*
D03*
X24413Y15874D02*
D03*
Y15126D02*
D03*
X23587Y17000D02*
D03*
X24413Y17374D02*
D03*
Y16626D02*
D03*
X22663Y17000D02*
D03*
X21837Y16626D02*
D03*
Y17374D02*
D03*
X22663Y15500D02*
D03*
X21837Y15126D02*
D03*
Y15874D02*
D03*
X20087Y17000D02*
D03*
X20913Y17374D02*
D03*
Y16626D02*
D03*
X20087Y15500D02*
D03*
X20913Y15874D02*
D03*
Y15126D02*
D03*
D44*
X24074Y20256D02*
D03*
Y20000D02*
D03*
Y19744D02*
D03*
X23326D02*
D03*
Y20000D02*
D03*
Y20256D02*
D03*
D45*
X35500Y14887D02*
D03*
X35126Y15713D02*
D03*
X35874D02*
D03*
X35500Y17813D02*
D03*
X35874Y16987D02*
D03*
X35126D02*
D03*
D46*
X31369Y16674D02*
D03*
Y16300D02*
D03*
Y15926D02*
D03*
X32431D02*
D03*
Y16674D02*
D03*
D47*
X29640Y14950D02*
D03*
Y16150D02*
D03*
D48*
X27183Y17544D02*
D03*
Y17347D02*
D03*
Y17150D02*
D03*
Y16953D02*
D03*
Y16756D02*
D03*
X28817Y17544D02*
D03*
Y17347D02*
D03*
Y17150D02*
D03*
Y16953D02*
D03*
Y16756D02*
D03*
D49*
X28000Y17150D02*
D03*
D50*
X28541Y15700D02*
D03*
X27359D02*
D03*
D51*
X26500Y14819D02*
D03*
Y15882D02*
D03*
D52*
X18250Y17000D02*
D03*
Y19250D02*
D03*
X25000Y13250D02*
D03*
X20250Y22750D02*
D03*
X38250Y17000D02*
D03*
X20250Y13250D02*
D03*
X38250Y15250D02*
D03*
X18250Y15500D02*
D03*
X38250Y18750D02*
D03*
Y20500D02*
D03*
X29250Y13250D02*
D03*
X35000D02*
D03*
X18250Y20750D02*
D03*
D53*
X17250Y17000D02*
D03*
Y19250D02*
D03*
X24000Y13250D02*
D03*
X21250Y22750D02*
D03*
X39250Y17000D02*
D03*
X21250Y13250D02*
D03*
X39250Y15250D02*
D03*
X17250Y15500D02*
D03*
X39250Y18750D02*
D03*
Y20500D02*
D03*
X30250Y13250D02*
D03*
X36000D02*
D03*
X17250Y20750D02*
D03*
D54*
X28000Y23000D02*
D03*
X36500D02*
D03*
X30750D02*
D03*
D55*
X14300Y17600D02*
D03*
Y18600D02*
D03*
D56*
X15300Y17600D02*
D03*
Y18600D02*
D03*
D57*
X15050Y13300D02*
D03*
X38950Y22450D02*
D03*
X15050D02*
D03*
X38950Y13300D02*
D03*
M02*
