G04 Layer_Color=16711935*
%FSLAX24Y24*%
%MOIN*%
G70*
G01*
G75*
%ADD31C,0.0600*%
%ADD52C,0.0651*%
%ADD53R,0.0651X0.0651*%
%ADD54C,0.0721*%
%ADD55C,0.0060*%
%ADD56C,0.0769*%
%ADD57C,0.1175*%
%ADD58R,0.0418X0.1493*%
D31*
X17100Y13100D02*
D03*
D52*
X18250Y17000D02*
D03*
Y19250D02*
D03*
X25000Y13250D02*
D03*
X20250Y22750D02*
D03*
X38250Y17000D02*
D03*
X20250Y13250D02*
D03*
X38250Y15250D02*
D03*
X18250Y15500D02*
D03*
X38250Y18750D02*
D03*
Y20500D02*
D03*
X29250Y13250D02*
D03*
X35000D02*
D03*
X18250Y20750D02*
D03*
D53*
X17250Y17000D02*
D03*
Y19250D02*
D03*
X24000Y13250D02*
D03*
X21250Y22750D02*
D03*
X39250Y17000D02*
D03*
X21250Y13250D02*
D03*
X39250Y15250D02*
D03*
X17250Y15500D02*
D03*
X39250Y18750D02*
D03*
Y20500D02*
D03*
X30250Y13250D02*
D03*
X36000D02*
D03*
X17250Y20750D02*
D03*
D54*
X28000Y23000D02*
D03*
X36500D02*
D03*
X30750D02*
D03*
D55*
X14300Y17600D02*
D03*
Y18600D02*
D03*
D56*
X15300Y17600D02*
D03*
Y18600D02*
D03*
D57*
X15050Y13300D02*
D03*
X38950Y22450D02*
D03*
X15050D02*
D03*
X38950Y13300D02*
D03*
D58*
X23350Y14587D02*
D03*
Y16713D02*
D03*
X20450Y14587D02*
D03*
Y16713D02*
D03*
X23350Y20913D02*
D03*
Y18787D02*
D03*
X20450Y20913D02*
D03*
Y18787D02*
D03*
M02*
