G04 Layer_Physical_Order=1*
G04 Layer_Color=255*
%FSLAX24Y24*%
%MOIN*%
G70*
G01*
G75*
%ADD10R,0.0354X0.0197*%
%ADD11R,0.0197X0.0354*%
%ADD12R,0.0512X0.0236*%
%ADD13R,0.0661X0.0740*%
%ADD14O,0.0630X0.0118*%
%ADD15O,0.0571X0.0177*%
%ADD16R,0.0236X0.0165*%
%ADD17R,0.0413X0.0236*%
%ADD18R,0.0512X0.0512*%
%ADD19R,0.1102X0.0492*%
%ADD20R,0.0669X0.0433*%
%ADD21C,0.0120*%
%ADD22C,0.0100*%
%ADD23C,0.0150*%
%ADD24R,0.0591X0.0591*%
%ADD25C,0.0591*%
%ADD26C,0.0661*%
%ADD27C,0.0709*%
%ADD28C,0.0300*%
%ADD29C,0.0197*%
%ADD30C,0.0600*%
%ADD31C,0.0220*%
%ADD32C,0.1575*%
G36*
X29950Y14700D02*
X27634D01*
X27594Y14723D01*
X27594Y14750D01*
Y14960D01*
X27395D01*
Y15040D01*
X27594D01*
Y15277D01*
X27594Y15277D01*
X27594D01*
X27612Y15320D01*
X27631Y15348D01*
X27642Y15405D01*
X27395D01*
Y15445D01*
X27355D01*
Y15692D01*
X27298Y15681D01*
X27215Y15626D01*
X27160Y15543D01*
X27150Y15494D01*
X27100Y15499D01*
Y16350D01*
X29950D01*
Y14700D01*
D02*
G37*
G36*
X29100Y20950D02*
X30425Y20950D01*
X30473Y20944D01*
X30473Y20900D01*
Y20785D01*
X31027D01*
Y20900D01*
X31075Y20950D01*
X31150D01*
Y20435D01*
X31115Y20400D01*
X30399Y20400D01*
Y20448D01*
X29727D01*
Y20435D01*
X29692Y20400D01*
X29640D01*
X29593Y20406D01*
Y20584D01*
X28881D01*
Y20498D01*
X28877Y20496D01*
X28827Y20525D01*
Y20605D01*
X28273D01*
Y20450D01*
X28265Y20400D01*
X27650Y20400D01*
Y20497D01*
X27860D01*
Y20695D01*
Y20894D01*
X27650D01*
Y20956D01*
X27860D01*
Y21155D01*
Y21353D01*
X27623D01*
X27600Y21394D01*
Y21500D01*
X28250D01*
X28250Y22015D01*
X28285Y22050D01*
X29100D01*
X29100Y20950D01*
D02*
G37*
G36*
X25143Y18150D02*
Y17967D01*
X25657D01*
Y18117D01*
X25777D01*
X25797Y18093D01*
X26233D01*
Y18013D01*
X25823D01*
X25827Y17991D01*
X25862Y17938D01*
X25864Y17937D01*
X25846Y17911D01*
X25835Y17856D01*
X25846Y17802D01*
X25877Y17756D01*
X25923Y17725D01*
X25977Y17715D01*
X26090D01*
Y17026D01*
X26090Y17026D01*
X26101Y16972D01*
X26124Y16938D01*
Y16550D01*
X24428Y16550D01*
X24393Y16585D01*
Y17311D01*
X24403Y17312D01*
Y17388D01*
X24393Y17389D01*
Y18115D01*
X24428Y18150D01*
X25143D01*
D02*
G37*
%LPC*%
G36*
X28750Y16296D02*
X28139D01*
Y15990D01*
X28750D01*
Y16296D01*
D02*
G37*
G36*
X29441D02*
X28830D01*
Y15990D01*
X29441D01*
Y16296D01*
D02*
G37*
G36*
X27710Y16156D02*
X27668Y16148D01*
X27599Y16101D01*
X27552Y16032D01*
X27544Y15990D01*
X27710D01*
Y16156D01*
D02*
G37*
G36*
X29441Y15910D02*
X28830D01*
Y15604D01*
X29441D01*
Y15910D01*
D02*
G37*
G36*
X27710Y15910D02*
X27544D01*
X27552Y15868D01*
X27599Y15799D01*
X27668Y15752D01*
X27710Y15744D01*
Y15910D01*
D02*
G37*
G36*
X27956D02*
X27790D01*
Y15744D01*
X27832Y15752D01*
X27901Y15799D01*
X27948Y15868D01*
X27956Y15910D01*
D02*
G37*
G36*
X27790Y16156D02*
Y15990D01*
X27956D01*
X27948Y16032D01*
X27901Y16101D01*
X27832Y16148D01*
X27790Y16156D01*
D02*
G37*
G36*
X25510Y16941D02*
X25115D01*
Y16665D01*
X25510D01*
Y16941D01*
D02*
G37*
G36*
X25985D02*
X25590D01*
Y16665D01*
X25985D01*
Y16941D01*
D02*
G37*
G36*
X24810Y17056D02*
X24768Y17048D01*
X24699Y17001D01*
X24652Y16932D01*
X24644Y16890D01*
X24810D01*
Y17056D01*
D02*
G37*
G36*
X27960Y14960D02*
X27794D01*
X27802Y14918D01*
X27849Y14849D01*
X27918Y14802D01*
X27960Y14794D01*
Y14960D01*
D02*
G37*
G36*
X24810Y16810D02*
X24644D01*
X24652Y16768D01*
X24699Y16699D01*
X24768Y16652D01*
X24810Y16644D01*
Y16810D01*
D02*
G37*
G36*
X25056D02*
X24890D01*
Y16644D01*
X24932Y16652D01*
X25001Y16699D01*
X25048Y16768D01*
X25056Y16810D01*
D02*
G37*
G36*
X27960Y15206D02*
X27918Y15198D01*
X27849Y15151D01*
X27802Y15082D01*
X27794Y15040D01*
X27960D01*
Y15206D01*
D02*
G37*
G36*
X28040D02*
Y15040D01*
X28206D01*
X28198Y15082D01*
X28151Y15151D01*
X28082Y15198D01*
X28040Y15206D01*
D02*
G37*
G36*
X28760D02*
X28718Y15198D01*
X28649Y15151D01*
X28602Y15082D01*
X28594Y15040D01*
X28760D01*
Y15206D01*
D02*
G37*
G36*
X29006Y14960D02*
X28840D01*
Y14794D01*
X28882Y14802D01*
X28951Y14849D01*
X28998Y14918D01*
X29006Y14960D01*
D02*
G37*
G36*
X29510D02*
X29344D01*
X29352Y14918D01*
X29399Y14849D01*
X29468Y14802D01*
X29510Y14794D01*
Y14960D01*
D02*
G37*
G36*
X29756D02*
X29590D01*
Y14794D01*
X29632Y14802D01*
X29701Y14849D01*
X29748Y14918D01*
X29756Y14960D01*
D02*
G37*
G36*
X28840Y15206D02*
Y15040D01*
X29006D01*
X28998Y15082D01*
X28951Y15151D01*
X28882Y15198D01*
X28840Y15206D01*
D02*
G37*
G36*
X27435Y15692D02*
Y15485D01*
X27642D01*
X27631Y15543D01*
X27576Y15626D01*
X27493Y15681D01*
X27435Y15692D01*
D02*
G37*
G36*
X28206Y14960D02*
X28040D01*
Y14794D01*
X28082Y14802D01*
X28151Y14849D01*
X28198Y14918D01*
X28206Y14960D01*
D02*
G37*
G36*
X28750Y15910D02*
X28139D01*
Y15604D01*
X28750D01*
Y15910D01*
D02*
G37*
G36*
X29510Y15206D02*
X29468Y15198D01*
X29399Y15151D01*
X29352Y15082D01*
X29344Y15040D01*
X29510D01*
Y15206D01*
D02*
G37*
G36*
X29590D02*
Y15040D01*
X29756D01*
X29748Y15082D01*
X29701Y15151D01*
X29632Y15198D01*
X29590Y15206D01*
D02*
G37*
G36*
X28760Y14960D02*
X28594D01*
X28602Y14918D01*
X28649Y14849D01*
X28718Y14802D01*
X28760Y14794D01*
Y14960D01*
D02*
G37*
G36*
X24890Y17056D02*
Y16890D01*
X25056D01*
X25048Y16932D01*
X25001Y17001D01*
X24932Y17048D01*
X24890Y17056D01*
D02*
G37*
G36*
X29593Y20842D02*
X29277D01*
Y20664D01*
X29593D01*
Y20842D01*
D02*
G37*
G36*
X28510Y20844D02*
X28273D01*
Y20685D01*
X28510D01*
Y20844D01*
D02*
G37*
G36*
X28827D02*
X28590D01*
Y20685D01*
X28827D01*
Y20844D01*
D02*
G37*
G36*
X29197Y20842D02*
X28881D01*
Y20664D01*
X29197D01*
Y20842D01*
D02*
G37*
G36*
X28177Y20655D02*
X27940D01*
Y20497D01*
X28177D01*
Y20655D01*
D02*
G37*
G36*
X30710Y20705D02*
X30473D01*
Y20547D01*
X30710D01*
Y20705D01*
D02*
G37*
G36*
X31027D02*
X30790D01*
Y20547D01*
X31027D01*
Y20705D01*
D02*
G37*
G36*
X29043Y21710D02*
X28727D01*
Y21532D01*
X29043D01*
Y21710D01*
D02*
G37*
G36*
X28647Y21968D02*
X28331D01*
Y21790D01*
X28647D01*
Y21968D01*
D02*
G37*
G36*
X29043D02*
X28727D01*
Y21790D01*
X29043D01*
Y21968D01*
D02*
G37*
G36*
X28647Y21710D02*
X28331D01*
Y21532D01*
X28647D01*
Y21710D01*
D02*
G37*
G36*
X28177Y20894D02*
X27940D01*
Y20735D01*
X28177D01*
Y20894D01*
D02*
G37*
G36*
Y21115D02*
X27940D01*
Y20956D01*
X28177D01*
Y21115D01*
D02*
G37*
G36*
X27940Y21353D02*
Y21195D01*
X28177D01*
Y21353D01*
X27940D01*
D02*
G37*
G36*
X25360Y17515D02*
X25123D01*
Y17356D01*
X25360D01*
Y17515D01*
D02*
G37*
G36*
X25677D02*
X25440D01*
Y17356D01*
X25677D01*
Y17515D01*
D02*
G37*
G36*
X24610Y17556D02*
X24568Y17548D01*
X24499Y17501D01*
X24452Y17432D01*
X24444Y17390D01*
X24610D01*
Y17556D01*
D02*
G37*
G36*
X24856Y17310D02*
X24690D01*
Y17144D01*
X24732Y17152D01*
X24801Y17199D01*
X24848Y17268D01*
X24856Y17310D01*
D02*
G37*
G36*
X25510Y17298D02*
X25115D01*
Y17021D01*
X25510D01*
Y17298D01*
D02*
G37*
G36*
X25985D02*
X25590D01*
Y17021D01*
X25985D01*
Y17298D01*
D02*
G37*
G36*
X24610Y17310D02*
X24444D01*
X24452Y17268D01*
X24499Y17199D01*
X24568Y17152D01*
X24610Y17144D01*
Y17310D01*
D02*
G37*
G36*
X25056Y17810D02*
X24890D01*
Y17644D01*
X24932Y17652D01*
X25001Y17699D01*
X25048Y17768D01*
X25056Y17810D01*
D02*
G37*
G36*
X24810Y18056D02*
X24768Y18048D01*
X24699Y18001D01*
X24652Y17932D01*
X24644Y17890D01*
X24810D01*
Y18056D01*
D02*
G37*
G36*
X24890D02*
Y17890D01*
X25056D01*
X25048Y17932D01*
X25001Y18001D01*
X24932Y18048D01*
X24890Y18056D01*
D02*
G37*
G36*
X24810Y17810D02*
X24644D01*
X24652Y17768D01*
X24699Y17699D01*
X24768Y17652D01*
X24810Y17644D01*
Y17810D01*
D02*
G37*
G36*
X24690Y17556D02*
Y17390D01*
X24856D01*
X24848Y17432D01*
X24801Y17501D01*
X24732Y17548D01*
X24690Y17556D01*
D02*
G37*
G36*
X25360Y17753D02*
X25123D01*
Y17595D01*
X25360D01*
Y17753D01*
D02*
G37*
G36*
X25677D02*
X25440D01*
Y17595D01*
X25677D01*
Y17753D01*
D02*
G37*
%LPD*%
D10*
X16150Y15345D02*
D03*
Y14755D02*
D03*
X15550D02*
D03*
Y15345D02*
D03*
X30750Y20155D02*
D03*
Y20745D02*
D03*
X27900Y21745D02*
D03*
Y21155D02*
D03*
X28600Y18745D02*
D03*
Y18155D02*
D03*
X28550Y20055D02*
D03*
Y20645D02*
D03*
X27900Y20695D02*
D03*
Y20105D02*
D03*
X27250Y19505D02*
D03*
Y20095D02*
D03*
X26600Y19505D02*
D03*
Y20095D02*
D03*
X24500Y22295D02*
D03*
Y21705D02*
D03*
Y21295D02*
D03*
Y20705D02*
D03*
Y20295D02*
D03*
Y19705D02*
D03*
X29250Y18605D02*
D03*
Y19195D02*
D03*
X31100Y19745D02*
D03*
Y19155D02*
D03*
X31700Y17855D02*
D03*
Y18445D02*
D03*
X25400Y18145D02*
D03*
Y17555D02*
D03*
D11*
X29655Y22800D02*
D03*
X30245D02*
D03*
X30600Y19150D02*
D03*
X30009D02*
D03*
X26105Y22050D02*
D03*
X26695D02*
D03*
X21795Y21750D02*
D03*
X21205D02*
D03*
X21795Y20250D02*
D03*
X21205D02*
D03*
X26805Y15000D02*
D03*
X27395D02*
D03*
X23555D02*
D03*
X24145D02*
D03*
X21745Y16750D02*
D03*
X21155D02*
D03*
X21745Y18250D02*
D03*
X21155D02*
D03*
D12*
X31163Y21376D02*
D03*
Y22124D02*
D03*
X30337Y21750D02*
D03*
X29237Y20624D02*
D03*
Y19876D02*
D03*
X30063Y20250D02*
D03*
X29513Y21376D02*
D03*
Y22124D02*
D03*
X28687Y21750D02*
D03*
X23213Y21376D02*
D03*
Y22124D02*
D03*
X22387Y21750D02*
D03*
X23213Y19876D02*
D03*
Y20624D02*
D03*
X22387Y20250D02*
D03*
X23463Y17876D02*
D03*
Y18624D02*
D03*
X22637Y18250D02*
D03*
X23463Y16376D02*
D03*
Y17124D02*
D03*
X22637Y16750D02*
D03*
X19687Y17124D02*
D03*
Y16376D02*
D03*
X20513Y16750D02*
D03*
X19687Y18624D02*
D03*
Y17876D02*
D03*
X20513Y18250D02*
D03*
Y19876D02*
D03*
Y20624D02*
D03*
X19687Y20250D02*
D03*
X20513Y21376D02*
D03*
Y22124D02*
D03*
X19687Y21750D02*
D03*
X18713Y16376D02*
D03*
Y17124D02*
D03*
X17887Y16750D02*
D03*
X18713Y17876D02*
D03*
Y18624D02*
D03*
X17887Y18250D02*
D03*
X18713Y21376D02*
D03*
Y22124D02*
D03*
X17887Y21750D02*
D03*
X18713Y19876D02*
D03*
Y20624D02*
D03*
X17887Y20250D02*
D03*
D13*
X27050Y18250D02*
D03*
D14*
X27867Y17856D02*
D03*
Y18053D02*
D03*
Y18250D02*
D03*
Y18447D02*
D03*
Y18644D02*
D03*
X26233Y17856D02*
D03*
Y18053D02*
D03*
Y18250D02*
D03*
Y18447D02*
D03*
Y18644D02*
D03*
D15*
X25484Y21384D02*
D03*
Y21128D02*
D03*
Y20872D02*
D03*
Y20616D02*
D03*
X27216Y21384D02*
D03*
Y21128D02*
D03*
Y20872D02*
D03*
Y20616D02*
D03*
D16*
X21126Y21256D02*
D03*
Y21000D02*
D03*
Y20744D02*
D03*
X21874D02*
D03*
Y21000D02*
D03*
Y21256D02*
D03*
X22474Y17244D02*
D03*
Y17500D02*
D03*
Y17756D02*
D03*
X21726D02*
D03*
Y17500D02*
D03*
Y17244D02*
D03*
D17*
X31136Y18474D02*
D03*
Y17726D02*
D03*
X30073D02*
D03*
Y18100D02*
D03*
Y18474D02*
D03*
D18*
X26459Y16800D02*
D03*
X27641D02*
D03*
D19*
X28790Y17150D02*
D03*
Y15950D02*
D03*
D20*
X25550Y16982D02*
D03*
Y15919D02*
D03*
D21*
X25150Y22300D02*
Y23590D01*
X24850Y22000D02*
X25150Y22300D01*
X24150Y22000D02*
X24850D01*
X23526Y21376D02*
X24150Y22000D01*
X16150Y15345D02*
X16545D01*
X31150Y22450D02*
X31163Y22437D01*
Y22124D02*
Y22437D01*
X30733Y21807D02*
X31163Y21376D01*
X30733Y21807D02*
Y23717D01*
X30360Y24090D02*
X30733Y23717D01*
X25650Y24090D02*
X30360D01*
X25150Y23590D02*
X25650Y24090D01*
X23213Y21376D02*
X23526D01*
X22750Y15000D02*
X23555D01*
X26250Y23500D02*
X26400Y23350D01*
Y21050D02*
Y23350D01*
X27900Y21745D02*
Y22100D01*
X31700Y17500D02*
Y17855D01*
X21750Y15000D02*
X22750D01*
X30750Y20745D02*
X31255D01*
X31700Y20300D01*
Y18445D02*
Y20300D01*
X29237Y19876D02*
X29250Y19863D01*
Y19195D02*
Y19863D01*
X31136Y18474D02*
X31685D01*
X16750Y16750D02*
X17887D01*
X16750Y18250D02*
X17887D01*
X16750Y20250D02*
X17887D01*
X16750Y21750D02*
X17887D01*
X15750D02*
X16250Y21250D01*
Y17250D02*
Y21250D01*
X15750Y16750D02*
X16250Y17250D01*
X15750Y18250D02*
Y20250D01*
X14250D02*
X15750D01*
X13750Y19750D02*
X14250Y20250D01*
X13750Y18750D02*
X15750Y16750D01*
X27873Y21128D02*
X27900Y21155D01*
X27216Y21128D02*
X27873D01*
X26400Y21050D02*
X26578Y20872D01*
X27216D01*
X27891Y20095D02*
X27900Y20105D01*
X27250Y20095D02*
X27891D01*
X26600D02*
X27250D01*
X27216Y20129D02*
Y20616D01*
X27250Y19505D02*
X27255Y19500D01*
X28790Y17150D02*
Y17610D01*
X28544Y17856D02*
X28790Y17610D01*
X27867Y17856D02*
X28544D01*
X27641Y16800D02*
X27867Y17026D01*
Y17856D01*
X26233Y17026D02*
X26459Y16800D01*
X26233Y17026D02*
Y17856D01*
X30063Y19913D02*
Y20250D01*
X28745D02*
X29000D01*
X28550Y20055D02*
X28745Y20250D01*
X30245Y21841D02*
X30337Y21750D01*
X30245Y21841D02*
Y22800D01*
X29513Y22124D02*
X29655Y22265D01*
Y22800D01*
X29963Y21376D02*
X30337Y21750D01*
X29513Y21376D02*
X29963D01*
X29215Y20645D02*
X29237Y20624D01*
X28550Y20645D02*
X29215D01*
X27255Y19500D02*
X28861D01*
X29237Y19876D01*
X27216Y21384D02*
Y21884D01*
X27050Y22050D02*
X27216Y21884D01*
X26695Y22050D02*
X27050D01*
X25800D02*
X26105D01*
X25484Y21734D02*
X25800Y22050D01*
X25484Y21384D02*
Y21734D01*
Y20316D02*
Y20616D01*
X24500Y20705D02*
X24955D01*
X25122Y20872D01*
X25484D01*
X24500Y21295D02*
X24855D01*
X25022Y21128D01*
X25484D01*
X26155Y19505D02*
X26600D01*
X18424Y21376D02*
X18713D01*
X18300Y21500D02*
X18424Y21376D01*
X18300Y21500D02*
Y22350D01*
X18450Y22500D01*
X24295D01*
X24500Y22295D01*
Y21295D02*
Y21705D01*
Y20295D02*
Y20705D01*
X19687Y19713D02*
Y19987D01*
Y19713D02*
X19850Y19550D01*
X24345D01*
X24500Y19705D01*
X19687Y19987D02*
Y20250D01*
X19576Y19876D02*
X19687Y19987D01*
X18713Y19876D02*
X19576D01*
X19687Y18624D02*
X22424D01*
X22637Y18411D01*
X18317Y18867D02*
X18500Y19050D01*
X18317Y18272D02*
Y18867D01*
Y18272D02*
X18713Y17876D01*
X23213Y22124D02*
X23726D01*
X23213Y20624D02*
X23726D01*
X22783Y20307D02*
X23213Y19876D01*
X22783Y20307D02*
Y20967D01*
X22750Y21000D02*
X22783Y20967D01*
X22750Y21000D02*
Y21150D01*
X22976Y21376D01*
X23213D01*
X22387Y20087D02*
Y20250D01*
X22176Y19876D02*
X22387Y20087D01*
X21426Y19876D02*
X22176D01*
X21795Y20250D02*
X21874Y20329D01*
Y20744D01*
X21126D02*
X21356D01*
X21500Y20600D01*
Y19950D02*
Y20600D01*
X21426Y19876D02*
X21500Y19950D01*
X20513Y19876D02*
X21426D01*
X20831Y20624D02*
X21205Y20250D01*
X20513Y20624D02*
X20831D01*
X18713D02*
X20513D01*
X19687Y21587D02*
Y21750D01*
X19476Y21376D02*
X19687Y21587D01*
X18713Y21376D02*
X19476D01*
X22387Y21750D02*
Y22013D01*
X22250Y22150D02*
X22387Y22013D01*
X21650Y22150D02*
X22250D01*
X21500Y22000D02*
X21650Y22150D01*
X21500Y21450D02*
Y22000D01*
X21306Y21256D02*
X21500Y21450D01*
X21126Y21256D02*
X21306D01*
X21006Y21376D02*
X21126Y21256D01*
X20513Y21376D02*
X21006D01*
X21874Y21256D02*
Y21671D01*
X21795Y21750D02*
X21874Y21671D01*
X20831Y22124D02*
X21205Y21750D01*
X20513Y22124D02*
X20831D01*
X18713D02*
X20513D01*
X23463Y16376D02*
X23876D01*
X24000Y16500D01*
Y17750D01*
X23874Y17876D02*
X24000Y17750D01*
X23463Y17876D02*
X23874D01*
X23463Y16376D02*
Y16737D01*
X22976Y18624D02*
X23463D01*
X22974Y17124D02*
X23463D01*
X24250Y18246D02*
X24450Y18446D01*
X24250Y16350D02*
Y18246D01*
X23900Y16000D02*
X24250Y16350D01*
X21500Y16000D02*
X23900D01*
X21124Y16376D02*
X21500Y16000D01*
X19687Y16376D02*
X21124D01*
X22637Y18250D02*
Y18411D01*
X23950Y19050D02*
X24354Y18646D01*
X18500Y19050D02*
X23950D01*
X19687Y17124D02*
X21276D01*
X21450Y16950D01*
Y16500D02*
Y16950D01*
Y16500D02*
X21600Y16350D01*
X22237D01*
X22637Y16750D01*
Y17082D01*
X22474Y17244D02*
X22637Y17082D01*
Y17919D02*
Y18250D01*
X22474Y17756D02*
X22637Y17919D01*
X21745Y17775D02*
Y18250D01*
Y16750D02*
Y17225D01*
X19687Y17876D02*
X19687Y17876D01*
X18713Y17876D02*
X19687D01*
X18713Y18674D02*
X18738Y18649D01*
X20513Y18250D02*
X21155D01*
X19087D02*
X20513D01*
X18713Y18624D02*
X19087Y18250D01*
X19687Y16376D02*
X19687Y16376D01*
X18713Y16376D02*
X19687D01*
X20513Y16750D02*
X21155D01*
X19087D02*
X20513D01*
X18713Y17124D02*
X19087Y16750D01*
D22*
X30073Y17427D02*
Y17726D01*
Y17427D02*
X30100Y17400D01*
X15550Y14755D02*
X16545D01*
X15050Y15350D02*
X15550D01*
X13750Y16650D02*
X15050Y15350D01*
X13750Y16650D02*
Y17350D01*
X13250Y17850D02*
Y20500D01*
Y17850D02*
X13750Y17350D01*
X32100Y18500D02*
Y22650D01*
Y17350D02*
Y18500D01*
X32750D01*
X33750D01*
X31900Y17150D02*
X32100Y17350D01*
X30700Y17150D02*
X31900D01*
X30600Y17250D02*
X30700Y17150D01*
X31250Y23500D02*
X32100Y22650D01*
X30600Y17250D02*
Y18150D01*
X30276Y18474D02*
X30600Y18150D01*
X30073Y18474D02*
X30276D01*
X31136Y17726D02*
Y17914D01*
X30600Y18450D02*
X31136Y17914D01*
X30600Y18450D02*
Y19150D01*
X27867Y18644D02*
Y18917D01*
X27395Y15000D02*
Y15445D01*
X26000Y15000D02*
X26805D01*
X24145D02*
Y15445D01*
X28600Y18745D02*
Y19050D01*
X28302Y18447D02*
X28600Y18745D01*
X27867Y18447D02*
X28302D01*
X13250Y20500D02*
X16750Y24000D01*
X23250D01*
X23750Y23500D01*
X25000Y15000D02*
X26000D01*
X31100Y19745D02*
X31105Y19750D01*
Y20155D01*
X30750D02*
X31105D01*
X29250Y18000D02*
Y18605D01*
Y18000D02*
X29524Y17726D01*
X30073D01*
X29605Y18100D02*
X30073D01*
X30009Y18538D02*
Y19150D01*
Y18538D02*
X30073Y18474D01*
X30600Y19150D02*
X31059D01*
X24950Y15919D02*
X25550D01*
X24450Y18446D02*
X25000D01*
X24356Y18644D02*
X26233D01*
X28498Y18053D02*
X28600Y18155D01*
X27867Y18053D02*
X28498D01*
X28505Y18250D02*
X28600Y18155D01*
X27867Y18250D02*
X28505D01*
X25400Y18145D02*
X25505Y18250D01*
X26233D01*
X24354Y18646D02*
X24356Y18644D01*
X25000Y18446D02*
X25001Y18447D01*
X26233D01*
D23*
X29505Y16945D02*
X33695D01*
X29250Y22800D02*
X29655D01*
X29300Y17150D02*
X29505Y16945D01*
X28790Y17150D02*
X29300D01*
X33695Y16945D02*
X33750Y17000D01*
D24*
X20500Y23500D02*
D03*
X15750Y20250D02*
D03*
X33750Y18500D02*
D03*
X15750Y16750D02*
D03*
Y18250D02*
D03*
X22750Y15000D02*
D03*
X19500D02*
D03*
X33750Y17000D02*
D03*
Y20000D02*
D03*
X15750Y21750D02*
D03*
X26000Y15000D02*
D03*
X33750Y21500D02*
D03*
D25*
X19500Y23500D02*
D03*
X16750Y20250D02*
D03*
X32750Y18500D02*
D03*
X16750Y16750D02*
D03*
Y18250D02*
D03*
X21750Y15000D02*
D03*
X18500D02*
D03*
X32750Y17000D02*
D03*
Y20000D02*
D03*
X16750Y21750D02*
D03*
X25000Y15000D02*
D03*
X32750Y21500D02*
D03*
D26*
X31250Y23500D02*
D03*
X23750D02*
D03*
X28750D02*
D03*
X26250D02*
D03*
D27*
X13750Y19750D02*
D03*
Y18750D02*
D03*
D28*
X30100Y17400D02*
D03*
X16545Y14755D02*
D03*
Y15345D02*
D03*
X31150Y22450D02*
D03*
X29250Y22800D02*
D03*
X27867Y18917D02*
D03*
X27395Y15445D02*
D03*
X24145D02*
D03*
X28600Y19050D02*
D03*
X31105Y20155D02*
D03*
X27900Y22100D02*
D03*
X31700Y17500D02*
D03*
X29605Y18100D02*
D03*
X24950Y15919D02*
D03*
X30063Y19913D02*
D03*
X29000Y20250D02*
D03*
X25484Y20316D02*
D03*
X26155Y19505D02*
D03*
X23726Y22124D02*
D03*
Y20624D02*
D03*
X22750Y21000D02*
D03*
X23463Y16737D02*
D03*
X22976Y18624D02*
D03*
X22974Y17124D02*
D03*
D29*
X27050Y18033D02*
D03*
Y18467D02*
D03*
D30*
X13750Y17350D02*
D03*
D31*
X27750Y15950D02*
D03*
X29550Y15000D02*
D03*
X28800D02*
D03*
X28000D02*
D03*
X24650Y17350D02*
D03*
X24850Y16850D02*
D03*
Y17850D02*
D03*
D32*
X33450Y15300D02*
D03*
Y23200D02*
D03*
X13300Y15300D02*
D03*
Y23200D02*
D03*
M02*
