G04 Layer_Color=8388736*
%FSLAX24Y24*%
%MOIN*%
G70*
G01*
G75*
%ADD40R,0.0414X0.0257*%
%ADD41R,0.0257X0.0414*%
%ADD42R,0.0572X0.0296*%
%ADD43R,0.0721X0.0800*%
%ADD44O,0.0690X0.0178*%
%ADD45O,0.0631X0.0237*%
%ADD46R,0.0296X0.0225*%
%ADD47R,0.0473X0.0296*%
%ADD48R,0.0572X0.0572*%
%ADD49R,0.1162X0.0552*%
%ADD50R,0.0729X0.0493*%
%ADD51R,0.0651X0.0651*%
%ADD52C,0.0651*%
%ADD53C,0.0721*%
%ADD54C,0.0769*%
%ADD55C,0.0060*%
%ADD56C,0.0800*%
%ADD57C,0.1175*%
D40*
X16150Y15345D02*
D03*
Y14755D02*
D03*
X15550D02*
D03*
Y15345D02*
D03*
X30750Y20155D02*
D03*
Y20745D02*
D03*
X27900Y21745D02*
D03*
Y21155D02*
D03*
X28600Y18745D02*
D03*
Y18155D02*
D03*
X28550Y20055D02*
D03*
Y20645D02*
D03*
X27900Y20695D02*
D03*
Y20105D02*
D03*
X27250Y19505D02*
D03*
Y20095D02*
D03*
X26600Y19505D02*
D03*
Y20095D02*
D03*
X24500Y22295D02*
D03*
Y21705D02*
D03*
Y21295D02*
D03*
Y20705D02*
D03*
Y20295D02*
D03*
Y19705D02*
D03*
X29250Y18605D02*
D03*
Y19195D02*
D03*
X31100Y19745D02*
D03*
Y19155D02*
D03*
X31700Y17855D02*
D03*
Y18445D02*
D03*
X25400Y18145D02*
D03*
Y17555D02*
D03*
D41*
X29655Y22800D02*
D03*
X30245D02*
D03*
X30600Y19150D02*
D03*
X30009D02*
D03*
X26105Y22050D02*
D03*
X26695D02*
D03*
X21795Y21750D02*
D03*
X21205D02*
D03*
X21795Y20250D02*
D03*
X21205D02*
D03*
X26805Y15000D02*
D03*
X27395D02*
D03*
X23555D02*
D03*
X24145D02*
D03*
X21745Y16750D02*
D03*
X21155D02*
D03*
X21745Y18250D02*
D03*
X21155D02*
D03*
D42*
X31163Y21376D02*
D03*
Y22124D02*
D03*
X30337Y21750D02*
D03*
X29237Y20624D02*
D03*
Y19876D02*
D03*
X30063Y20250D02*
D03*
X29513Y21376D02*
D03*
Y22124D02*
D03*
X28687Y21750D02*
D03*
X23213Y21376D02*
D03*
Y22124D02*
D03*
X22387Y21750D02*
D03*
X23213Y19876D02*
D03*
Y20624D02*
D03*
X22387Y20250D02*
D03*
X23463Y17876D02*
D03*
Y18624D02*
D03*
X22637Y18250D02*
D03*
X23463Y16376D02*
D03*
Y17124D02*
D03*
X22637Y16750D02*
D03*
X19687Y17124D02*
D03*
Y16376D02*
D03*
X20513Y16750D02*
D03*
X19687Y18624D02*
D03*
Y17876D02*
D03*
X20513Y18250D02*
D03*
Y19876D02*
D03*
Y20624D02*
D03*
X19687Y20250D02*
D03*
X20513Y21376D02*
D03*
Y22124D02*
D03*
X19687Y21750D02*
D03*
X18713Y16376D02*
D03*
Y17124D02*
D03*
X17887Y16750D02*
D03*
X18713Y17876D02*
D03*
Y18624D02*
D03*
X17887Y18250D02*
D03*
X18713Y21376D02*
D03*
Y22124D02*
D03*
X17887Y21750D02*
D03*
X18713Y19876D02*
D03*
Y20624D02*
D03*
X17887Y20250D02*
D03*
D43*
X27050Y18250D02*
D03*
D44*
X27867Y17856D02*
D03*
Y18053D02*
D03*
Y18250D02*
D03*
Y18447D02*
D03*
Y18644D02*
D03*
X26233Y17856D02*
D03*
Y18053D02*
D03*
Y18250D02*
D03*
Y18447D02*
D03*
Y18644D02*
D03*
D45*
X25484Y21384D02*
D03*
Y21128D02*
D03*
Y20872D02*
D03*
Y20616D02*
D03*
X27216Y21384D02*
D03*
Y21128D02*
D03*
Y20872D02*
D03*
Y20616D02*
D03*
D46*
X21126Y21256D02*
D03*
Y21000D02*
D03*
Y20744D02*
D03*
X21874D02*
D03*
Y21000D02*
D03*
Y21256D02*
D03*
X22474Y17244D02*
D03*
Y17500D02*
D03*
Y17756D02*
D03*
X21726D02*
D03*
Y17500D02*
D03*
Y17244D02*
D03*
D47*
X31136Y18474D02*
D03*
Y17726D02*
D03*
X30073D02*
D03*
Y18100D02*
D03*
Y18474D02*
D03*
D48*
X26459Y16800D02*
D03*
X27641D02*
D03*
D49*
X28790Y17150D02*
D03*
Y15950D02*
D03*
D50*
X25550Y16982D02*
D03*
Y15919D02*
D03*
D51*
X20500Y23500D02*
D03*
X15750Y20250D02*
D03*
X33750Y18500D02*
D03*
X15750Y16750D02*
D03*
Y18250D02*
D03*
X22750Y15000D02*
D03*
X19500D02*
D03*
X33750Y17000D02*
D03*
Y20000D02*
D03*
X15750Y21750D02*
D03*
X26000Y15000D02*
D03*
X33750Y21500D02*
D03*
D52*
X19500Y23500D02*
D03*
X16750Y20250D02*
D03*
X32750Y18500D02*
D03*
X16750Y16750D02*
D03*
Y18250D02*
D03*
X21750Y15000D02*
D03*
X18500D02*
D03*
X32750Y17000D02*
D03*
Y20000D02*
D03*
X16750Y21750D02*
D03*
X25000Y15000D02*
D03*
X32750Y21500D02*
D03*
D53*
X31250Y23500D02*
D03*
X23750D02*
D03*
X28750D02*
D03*
X26250D02*
D03*
D54*
X13750Y19750D02*
D03*
Y18750D02*
D03*
D55*
X12750Y19750D02*
D03*
Y18750D02*
D03*
D56*
X13750Y17350D02*
D03*
D57*
X33450Y15300D02*
D03*
Y23200D02*
D03*
X13300Y15300D02*
D03*
Y23200D02*
D03*
M02*
