G04 Layer_Color=65535*
%FSLAX24Y24*%
%MOIN*%
G70*
G01*
G75*
%ADD22C,0.0100*%
%ADD34C,0.0098*%
%ADD35C,0.0236*%
%ADD36C,0.0039*%
%ADD37C,0.0079*%
%ADD38C,0.0050*%
%ADD39C,0.0060*%
G36*
X32426Y15653D02*
X32267D01*
Y15020D01*
X32426D01*
Y14600D01*
X31640D01*
Y15020D01*
X31800D01*
Y15400D01*
X31403Y14854D01*
X31377D01*
X30987Y15400D01*
Y15020D01*
X31147D01*
Y14600D01*
X30360D01*
Y15020D01*
X30514D01*
Y15653D01*
X30360D01*
Y16073D01*
X30984D01*
X31383Y15520D01*
X31403D01*
X31803Y16073D01*
X32426D01*
Y15653D01*
D02*
G37*
D22*
X21197Y21482D02*
G03*
X21197Y21482I-22J0D01*
G01*
X22447Y17018D02*
G03*
X22447Y17018I-22J0D01*
G01*
D34*
X31213Y21041D02*
G03*
X31213Y21041I-49J0D01*
G01*
X29286Y20959D02*
G03*
X29286Y20959I-49J0D01*
G01*
X29563Y21041D02*
G03*
X29563Y21041I-49J0D01*
G01*
X26282Y18919D02*
G03*
X26282Y18919I-49J0D01*
G01*
X25523Y21699D02*
G03*
X25523Y21699I-49J0D01*
G01*
X23263Y21041D02*
G03*
X23263Y21041I-49J0D01*
G01*
Y19541D02*
G03*
X23263Y19541I-49J0D01*
G01*
X30152Y18809D02*
G03*
X30152Y18809I-49J0D01*
G01*
X23513Y17541D02*
G03*
X23513Y17541I-49J0D01*
G01*
Y16041D02*
G03*
X23513Y16041I-49J0D01*
G01*
X19736Y17459D02*
G03*
X19736Y17459I-49J0D01*
G01*
Y18959D02*
G03*
X19736Y18959I-49J0D01*
G01*
X20563Y19541D02*
G03*
X20563Y19541I-49J0D01*
G01*
Y21041D02*
G03*
X20563Y21041I-49J0D01*
G01*
X18763Y16041D02*
G03*
X18763Y16041I-49J0D01*
G01*
Y17541D02*
G03*
X18763Y17541I-49J0D01*
G01*
Y21041D02*
G03*
X18763Y21041I-49J0D01*
G01*
Y19541D02*
G03*
X18763Y19541I-49J0D01*
G01*
D35*
X26409Y21217D02*
G03*
X26409Y21217I-118J0D01*
G01*
D36*
X15983Y14912D02*
Y15188D01*
X16327Y14912D02*
Y15188D01*
X15717Y14912D02*
Y15188D01*
X15373Y14912D02*
Y15188D01*
X29812Y22633D02*
X30088D01*
X29812Y22977D02*
X30088D01*
X30917Y20312D02*
Y20588D01*
X30573Y20312D02*
Y20588D01*
X30167Y19317D02*
X30443D01*
X30167Y18973D02*
X30443D01*
X27733Y21312D02*
Y21588D01*
X28077Y21312D02*
Y21588D01*
X28433Y18312D02*
Y18588D01*
X28777Y18312D02*
Y18588D01*
X28717Y20212D02*
Y20488D01*
X28373Y20212D02*
Y20488D01*
X27733Y20262D02*
Y20538D01*
X28077Y20262D02*
Y20538D01*
X27417Y19662D02*
Y19938D01*
X27073Y19662D02*
Y19938D01*
X26767Y19662D02*
Y19938D01*
X26423Y19662D02*
Y19938D01*
X26262Y21883D02*
X26538D01*
X26262Y22227D02*
X26538D01*
X24333Y21862D02*
Y22138D01*
X24677Y21862D02*
Y22138D01*
X24333Y20862D02*
Y21138D01*
X24677Y20862D02*
Y21138D01*
X24333Y19862D02*
Y20138D01*
X24677Y19862D02*
Y20138D01*
X21362Y21917D02*
X21638D01*
X21362Y21573D02*
X21638D01*
X21264Y21394D02*
X21736D01*
X21264Y20606D02*
X21736D01*
X21362Y20417D02*
X21638D01*
X21362Y20073D02*
X21638D01*
X29417Y18762D02*
Y19038D01*
X29073Y18762D02*
Y19038D01*
X30933Y19312D02*
Y19588D01*
X31277Y19312D02*
Y19588D01*
X31867Y18012D02*
Y18288D01*
X31523Y18012D02*
Y18288D01*
X25233Y17712D02*
Y17988D01*
X25577Y17712D02*
Y17988D01*
X26962Y14833D02*
X27238D01*
X26962Y15177D02*
X27238D01*
X23712Y14833D02*
X23988D01*
X23712Y15177D02*
X23988D01*
X21312Y16917D02*
X21588D01*
X21312Y16573D02*
X21588D01*
X21312Y18417D02*
X21588D01*
X21312Y18073D02*
X21588D01*
X21864Y17106D02*
X22336D01*
X21864Y17894D02*
X22336D01*
D37*
X30474Y21159D02*
X30750D01*
X30474D02*
Y21474D01*
Y22341D02*
X30750D01*
X30474Y22026D02*
Y22341D01*
X29650Y20841D02*
X29926D01*
Y20526D02*
Y20841D01*
X29650Y19659D02*
X29926D01*
Y19974D01*
X28824Y21159D02*
X29100D01*
X28824D02*
Y21474D01*
Y22341D02*
X29100D01*
X28824Y22026D02*
Y22341D01*
X26706Y17640D02*
X27394D01*
X26706Y18860D02*
X27394D01*
X25897Y20390D02*
Y21610D01*
X26803Y20390D02*
Y21610D01*
X25897D02*
X26803D01*
X25897Y20390D02*
X26803D01*
X22524Y21159D02*
X22800D01*
X22524D02*
Y21474D01*
Y22341D02*
X22800D01*
X22524Y22026D02*
Y22341D01*
Y19659D02*
X22800D01*
X22524D02*
Y19974D01*
Y20841D02*
X22800D01*
X22524Y20526D02*
Y20841D01*
X30802Y17490D02*
Y18710D01*
X30408Y17490D02*
Y18710D01*
Y17490D02*
X30802D01*
X30408Y18710D02*
X30802D01*
X29302Y16353D02*
Y16747D01*
X28278Y16353D02*
Y16747D01*
X25845Y16293D02*
Y16607D01*
X25255Y16293D02*
Y16607D01*
X22774Y17659D02*
X23050D01*
X22774D02*
Y17974D01*
Y18841D02*
X23050D01*
X22774Y18526D02*
Y18841D01*
Y16159D02*
X23050D01*
X22774D02*
Y16474D01*
Y17341D02*
X23050D01*
X22774Y17026D02*
Y17341D01*
X20100D02*
X20376D01*
Y17026D02*
Y17341D01*
X20100Y16159D02*
X20376D01*
Y16474D01*
X20100Y18841D02*
X20376D01*
Y18526D02*
Y18841D01*
X20100Y17659D02*
X20376D01*
Y17974D01*
X19824Y19659D02*
X20100D01*
X19824D02*
Y19974D01*
Y20841D02*
X20100D01*
X19824Y20526D02*
Y20841D01*
Y21159D02*
X20100D01*
X19824D02*
Y21474D01*
Y22341D02*
X20100D01*
X19824Y22026D02*
Y22341D01*
X18024Y16159D02*
X18300D01*
X18024D02*
Y16474D01*
Y17341D02*
X18300D01*
X18024Y17026D02*
Y17341D01*
Y17659D02*
X18300D01*
X18024D02*
Y17974D01*
Y18841D02*
X18300D01*
X18024Y18526D02*
Y18841D01*
Y21159D02*
X18300D01*
X18024D02*
Y21474D01*
Y22341D02*
X18300D01*
X18024Y22026D02*
Y22341D01*
Y19659D02*
X18300D01*
X18024D02*
Y19974D01*
Y20841D02*
X18300D01*
X18024Y20526D02*
Y20841D01*
D38*
X19000Y24000D02*
X21000D01*
X19000Y23000D02*
X21000D01*
X19000D02*
Y24000D01*
X21000Y23000D02*
Y24000D01*
X15250Y19750D02*
X17250D01*
X15250Y20750D02*
X17250D01*
Y19750D02*
Y20750D01*
X15250Y19750D02*
Y20750D01*
X32250Y19000D02*
X34250D01*
X32250Y18000D02*
X34250D01*
X32250D02*
Y19000D01*
X34250Y18000D02*
Y19000D01*
X12530Y18159D02*
Y20341D01*
X14970Y18159D02*
Y20341D01*
X12530Y18159D02*
X14970D01*
X12530Y20341D02*
X14970D01*
X15250Y16250D02*
X17250D01*
X15250Y17250D02*
X17250D01*
Y16250D02*
Y17250D01*
X15250Y16250D02*
Y17250D01*
Y17750D02*
X17250D01*
X15250Y18750D02*
X17250D01*
Y17750D02*
Y18750D01*
X15250Y17750D02*
Y18750D01*
X21250Y15500D02*
X23250D01*
X21250Y14500D02*
X23250D01*
X21250D02*
Y15500D01*
X23250Y14500D02*
Y15500D01*
X18000D02*
X20000D01*
X18000Y14500D02*
X20000D01*
X18000D02*
Y15500D01*
X20000Y14500D02*
Y15500D01*
X32250Y17500D02*
X34250D01*
X32250Y16500D02*
X34250D01*
X32250D02*
Y17500D01*
X34250Y16500D02*
Y17500D01*
X32250Y20500D02*
X34250D01*
X32250Y19500D02*
X34250D01*
X32250D02*
Y20500D01*
X34250Y19500D02*
Y20500D01*
X15250Y21250D02*
X17250D01*
X15250Y22250D02*
X17250D01*
Y21250D02*
Y22250D01*
X15250Y21250D02*
Y22250D01*
X24500Y15500D02*
X26500D01*
X24500Y14500D02*
X26500D01*
X24500D02*
Y15500D01*
X26500Y14500D02*
Y15500D01*
X32250Y22000D02*
X34250D01*
X32250Y21000D02*
X34250D01*
X32250D02*
Y22000D01*
X34250Y21000D02*
Y22000D01*
X15950Y15600D02*
Y15900D01*
X16100D01*
X16150Y15850D01*
Y15750D01*
X16100Y15700D01*
X15950D01*
X16050D02*
X16150Y15600D01*
X16250D02*
X16350D01*
X16300D01*
Y15900D01*
X16250Y15850D01*
X16500Y15650D02*
X16550Y15600D01*
X16650D01*
X16700Y15650D01*
Y15850D01*
X16650Y15900D01*
X16550D01*
X16500Y15850D01*
Y15800D01*
X16550Y15750D01*
X16700D01*
X15050Y15600D02*
Y15900D01*
X15200D01*
X15250Y15850D01*
Y15750D01*
X15200Y15700D01*
X15050D01*
X15150D02*
X15250Y15600D01*
X15350D02*
X15450D01*
X15400D01*
Y15900D01*
X15350Y15850D01*
X15600D02*
X15650Y15900D01*
X15750D01*
X15800Y15850D01*
Y15800D01*
X15750Y15750D01*
X15800Y15700D01*
Y15650D01*
X15750Y15600D01*
X15650D01*
X15600Y15650D01*
Y15700D01*
X15650Y15750D01*
X15600Y15800D01*
Y15850D01*
X15650Y15750D02*
X15750D01*
X30550Y22650D02*
Y22950D01*
X30700D01*
X30750Y22900D01*
Y22800D01*
X30700Y22750D01*
X30550D01*
X30650D02*
X30750Y22650D01*
X30850D02*
X30950D01*
X30900D01*
Y22950D01*
X30850Y22900D01*
X30250Y22250D02*
X30050D01*
X30000Y22200D01*
Y22100D01*
X30050Y22050D01*
X30250D01*
X30300Y22100D01*
Y22200D01*
X30200Y22150D02*
X30300Y22250D01*
Y22200D02*
X30250Y22250D01*
X30300Y22550D02*
Y22350D01*
X30100Y22550D01*
X30050D01*
X30000Y22500D01*
Y22400D01*
X30050Y22350D01*
X31450Y20250D02*
X31400Y20200D01*
Y20100D01*
X31450Y20050D01*
X31650D01*
X31700Y20100D01*
Y20200D01*
X31650Y20250D01*
X31700Y20350D02*
Y20450D01*
Y20400D01*
X31400D01*
X31450Y20350D01*
X31700Y20800D02*
Y20600D01*
X31500Y20800D01*
X31450D01*
X31400Y20750D01*
Y20650D01*
X31450Y20600D01*
X30050Y19400D02*
Y19700D01*
X30200D01*
X30250Y19650D01*
Y19550D01*
X30200Y19500D01*
X30050D01*
X30150D02*
X30250Y19400D01*
X30350D02*
X30450D01*
X30400D01*
Y19700D01*
X30350Y19650D01*
X30800Y19700D02*
X30600D01*
Y19550D01*
X30700Y19600D01*
X30750D01*
X30800Y19550D01*
Y19450D01*
X30750Y19400D01*
X30650D01*
X30600Y19450D01*
X30400Y21000D02*
X30150D01*
X30100Y20950D01*
Y20850D01*
X30150Y20800D01*
X30400D01*
X30350Y20700D02*
X30400Y20650D01*
Y20550D01*
X30350Y20500D01*
X30300D01*
X30250Y20550D01*
Y20600D01*
Y20550D01*
X30200Y20500D01*
X30150D01*
X30100Y20550D01*
Y20650D01*
X30150Y20700D01*
X28600Y22300D02*
X28400D01*
X28350Y22250D01*
Y22150D01*
X28400Y22100D01*
X28600D01*
X28650Y22150D01*
Y22250D01*
X28550Y22200D02*
X28650Y22300D01*
Y22250D02*
X28600Y22300D01*
X28650Y22400D02*
Y22500D01*
Y22450D01*
X28350D01*
X28400Y22400D01*
X27800Y22550D02*
X27750Y22500D01*
Y22400D01*
X27800Y22350D01*
X28000D01*
X28050Y22400D01*
Y22500D01*
X28000Y22550D01*
X28050Y22650D02*
Y22750D01*
Y22700D01*
X27750D01*
X27800Y22650D01*
X28950Y18050D02*
X28900Y18000D01*
Y17900D01*
X28950Y17850D01*
X29150D01*
X29200Y17900D01*
Y18000D01*
X29150Y18050D01*
Y18150D02*
X29200Y18200D01*
Y18300D01*
X29150Y18350D01*
X28950D01*
X28900Y18300D01*
Y18200D01*
X28950Y18150D01*
X29000D01*
X29050Y18200D01*
Y18350D01*
X28400Y19800D02*
X28350Y19850D01*
X28250D01*
X28200Y19800D01*
Y19600D01*
X28250Y19550D01*
X28350D01*
X28400Y19600D01*
X28500Y19550D02*
X28600D01*
X28550D01*
Y19850D01*
X28500Y19800D01*
X28750D02*
X28800Y19850D01*
X28900D01*
X28950Y19800D01*
Y19600D01*
X28900Y19550D01*
X28800D01*
X28750Y19600D01*
Y19800D01*
X28050Y19400D02*
X27750D01*
Y19550D01*
X27800Y19600D01*
X27900D01*
X27950Y19550D01*
Y19400D01*
Y19500D02*
X28050Y19600D01*
X27750Y19900D02*
X27800Y19800D01*
X27900Y19700D01*
X28000D01*
X28050Y19750D01*
Y19850D01*
X28000Y19900D01*
X27950D01*
X27900Y19850D01*
Y19700D01*
X26750Y19300D02*
Y19050D01*
X26800Y19000D01*
X26900D01*
X26950Y19050D01*
Y19300D01*
X27250Y19000D02*
X27050D01*
X27250Y19200D01*
Y19250D01*
X27200Y19300D01*
X27100D01*
X27050Y19250D01*
X26300Y19700D02*
X26000D01*
Y19850D01*
X26050Y19900D01*
X26150D01*
X26200Y19850D01*
Y19700D01*
Y19800D02*
X26300Y19900D01*
X26000Y20200D02*
Y20000D01*
X26150D01*
X26100Y20100D01*
Y20150D01*
X26150Y20200D01*
X26250D01*
X26300Y20150D01*
Y20050D01*
X26250Y20000D01*
X25850Y19700D02*
X25550D01*
Y19850D01*
X25600Y19900D01*
X25700D01*
X25750Y19850D01*
Y19700D01*
Y19800D02*
X25850Y19900D01*
X25550Y20000D02*
Y20200D01*
X25600D01*
X25800Y20000D01*
X25850D01*
X26200Y22350D02*
Y22650D01*
X26350D01*
X26400Y22600D01*
Y22500D01*
X26350Y22450D01*
X26200D01*
X26300D02*
X26400Y22350D01*
X26700D02*
X26500D01*
X26700Y22550D01*
Y22600D01*
X26650Y22650D01*
X26550D01*
X26500Y22600D01*
X25450Y22250D02*
Y22000D01*
X25500Y21950D01*
X25600D01*
X25650Y22000D01*
Y22250D01*
X25750Y21950D02*
X25850D01*
X25800D01*
Y22250D01*
X25750Y22200D01*
X24150Y21600D02*
X23850D01*
Y21750D01*
X23900Y21800D01*
X24000D01*
X24050Y21750D01*
Y21600D01*
Y21700D02*
X24150Y21800D01*
Y21900D02*
Y22000D01*
Y21950D01*
X23850D01*
X23900Y21900D01*
X24150Y22300D02*
X23850D01*
X24000Y22150D01*
Y22350D01*
X24150Y20600D02*
X23850D01*
Y20750D01*
X23900Y20800D01*
X24000D01*
X24050Y20750D01*
Y20600D01*
Y20700D02*
X24150Y20800D01*
Y20900D02*
Y21000D01*
Y20950D01*
X23850D01*
X23900Y20900D01*
Y21150D02*
X23850Y21200D01*
Y21300D01*
X23900Y21350D01*
X23950D01*
X24000Y21300D01*
Y21250D01*
Y21300D01*
X24050Y21350D01*
X24100D01*
X24150Y21300D01*
Y21200D01*
X24100Y21150D01*
X24150Y19600D02*
X23850D01*
Y19750D01*
X23900Y19800D01*
X24000D01*
X24050Y19750D01*
Y19600D01*
Y19700D02*
X24150Y19800D01*
Y19900D02*
Y20000D01*
Y19950D01*
X23850D01*
X23900Y19900D01*
X24150Y20350D02*
Y20150D01*
X23950Y20350D01*
X23900D01*
X23850Y20300D01*
Y20200D01*
X23900Y20150D01*
X22268Y22282D02*
X22068D01*
X22018Y22232D01*
Y22132D01*
X22068Y22082D01*
X22268D01*
X22318Y22132D01*
Y22232D01*
X22218Y22182D02*
X22318Y22282D01*
Y22232D02*
X22268Y22282D01*
X22318Y22382D02*
Y22482D01*
Y22432D01*
X22018D01*
X22068Y22382D01*
Y22632D02*
X22018Y22682D01*
Y22781D01*
X22068Y22831D01*
X22268D01*
X22318Y22781D01*
Y22682D01*
X22268Y22632D01*
X22068D01*
X22300Y19650D02*
X22100D01*
X22050Y19600D01*
Y19500D01*
X22100Y19450D01*
X22300D01*
X22350Y19500D01*
Y19600D01*
X22250Y19550D02*
X22350Y19650D01*
Y19600D02*
X22300Y19650D01*
Y19750D02*
X22350Y19800D01*
Y19900D01*
X22300Y19950D01*
X22100D01*
X22050Y19900D01*
Y19800D01*
X22100Y19750D01*
X22150D01*
X22200Y19800D01*
Y19950D01*
X21250Y22050D02*
Y22350D01*
X21400D01*
X21450Y22300D01*
Y22200D01*
X21400Y22150D01*
X21250D01*
X21350D02*
X21450Y22050D01*
X21700D02*
Y22350D01*
X21550Y22200D01*
X21750D01*
X22100Y20750D02*
X22400D01*
Y20900D01*
X22350Y20950D01*
X22150D01*
X22100Y20900D01*
Y20750D01*
Y21250D02*
X22150Y21150D01*
X22250Y21050D01*
X22350D01*
X22400Y21100D01*
Y21200D01*
X22350Y21250D01*
X22300D01*
X22250Y21200D01*
Y21050D01*
X21250Y19550D02*
Y19850D01*
X21400D01*
X21450Y19800D01*
Y19700D01*
X21400Y19650D01*
X21250D01*
X21350D02*
X21450Y19550D01*
X21550Y19800D02*
X21600Y19850D01*
X21700D01*
X21750Y19800D01*
Y19750D01*
X21700Y19700D01*
X21650D01*
X21700D01*
X21750Y19650D01*
Y19600D01*
X21700Y19550D01*
X21600D01*
X21550Y19600D01*
X29800Y18500D02*
X29500D01*
Y18650D01*
X29550Y18700D01*
X29650D01*
X29700Y18650D01*
Y18500D01*
Y18600D02*
X29800Y18700D01*
Y18800D02*
Y18900D01*
Y18850D01*
X29500D01*
X29550Y18800D01*
X29500Y19250D02*
X29550Y19150D01*
X29650Y19050D01*
X29750D01*
X29800Y19100D01*
Y19200D01*
X29750Y19250D01*
X29700D01*
X29650Y19200D01*
Y19050D01*
X31700Y19050D02*
X31400D01*
Y19200D01*
X31450Y19250D01*
X31550D01*
X31600Y19200D01*
Y19050D01*
Y19150D02*
X31700Y19250D01*
Y19350D02*
Y19450D01*
Y19400D01*
X31400D01*
X31450Y19350D01*
X31400Y19600D02*
Y19800D01*
X31450D01*
X31650Y19600D01*
X31700D01*
X31450Y17150D02*
X31400Y17200D01*
X31300D01*
X31250Y17150D01*
Y16950D01*
X31300Y16900D01*
X31400D01*
X31450Y16950D01*
X31550Y16900D02*
X31650D01*
X31600D01*
Y17200D01*
X31550Y17150D01*
X31800Y16900D02*
X31900D01*
X31850D01*
Y17200D01*
X31800Y17150D01*
X30400Y17245D02*
Y16995D01*
X30450Y16945D01*
X30550D01*
X30600Y16995D01*
Y17245D01*
X30850Y16945D02*
Y17245D01*
X30700Y17095D01*
X30900D01*
X26850Y16050D02*
Y15750D01*
X27050D01*
X27150D02*
X27250D01*
X27200D01*
Y16050D01*
X27150Y16000D01*
X28500Y17800D02*
X28450Y17850D01*
X28350D01*
X28300Y17800D01*
Y17600D01*
X28350Y17550D01*
X28450D01*
X28500Y17600D01*
X28600Y17800D02*
X28650Y17850D01*
X28750D01*
X28800Y17800D01*
Y17750D01*
X28750Y17700D01*
X28800Y17650D01*
Y17600D01*
X28750Y17550D01*
X28650D01*
X28600Y17600D01*
Y17650D01*
X28650Y17700D01*
X28600Y17750D01*
Y17800D01*
X28650Y17700D02*
X28750D01*
X25400Y18650D02*
X25350Y18700D01*
X25250D01*
X25200Y18650D01*
Y18450D01*
X25250Y18400D01*
X25350D01*
X25400Y18450D01*
X25500Y18700D02*
X25700D01*
Y18650D01*
X25500Y18450D01*
Y18400D01*
X24800Y16350D02*
X24750Y16300D01*
Y16200D01*
X24800Y16150D01*
X25000D01*
X25050Y16200D01*
Y16300D01*
X25000Y16350D01*
X24750Y16650D02*
X24800Y16550D01*
X24900Y16450D01*
X25000D01*
X25050Y16500D01*
Y16600D01*
X25000Y16650D01*
X24950D01*
X24900Y16600D01*
Y16450D01*
X26800Y14400D02*
Y14700D01*
X26950D01*
X27000Y14650D01*
Y14550D01*
X26950Y14500D01*
X26800D01*
X26900D02*
X27000Y14400D01*
X27100D02*
X27200D01*
X27150D01*
Y14700D01*
X27100Y14650D01*
X27350Y14400D02*
X27450D01*
X27400D01*
Y14700D01*
X27350Y14650D01*
X23500Y14400D02*
Y14700D01*
X23650D01*
X23700Y14650D01*
Y14550D01*
X23650Y14500D01*
X23500D01*
X23600D02*
X23700Y14400D01*
X23800D02*
X23900D01*
X23850D01*
Y14700D01*
X23800Y14650D01*
X24050D02*
X24100Y14700D01*
X24200D01*
X24250Y14650D01*
Y14450D01*
X24200Y14400D01*
X24100D01*
X24050Y14450D01*
Y14650D01*
X22550Y18700D02*
X22350D01*
X22300Y18650D01*
Y18550D01*
X22350Y18500D01*
X22550D01*
X22600Y18550D01*
Y18650D01*
X22500Y18600D02*
X22600Y18700D01*
Y18650D02*
X22550Y18700D01*
X22300Y19000D02*
X22350Y18900D01*
X22450Y18800D01*
X22550D01*
X22600Y18850D01*
Y18950D01*
X22550Y19000D01*
X22500D01*
X22450Y18950D01*
Y18800D01*
X22550Y16200D02*
X22350D01*
X22300Y16150D01*
Y16050D01*
X22350Y16000D01*
X22550D01*
X22600Y16050D01*
Y16150D01*
X22500Y16100D02*
X22600Y16200D01*
Y16150D02*
X22550Y16200D01*
X22300Y16500D02*
Y16300D01*
X22450D01*
X22400Y16400D01*
Y16450D01*
X22450Y16500D01*
X22550D01*
X22600Y16450D01*
Y16350D01*
X22550Y16300D01*
X21150Y16150D02*
Y16450D01*
X21300D01*
X21350Y16400D01*
Y16300D01*
X21300Y16250D01*
X21150D01*
X21250D02*
X21350Y16150D01*
X21450Y16200D02*
X21500Y16150D01*
X21600D01*
X21650Y16200D01*
Y16400D01*
X21600Y16450D01*
X21500D01*
X21450Y16400D01*
Y16350D01*
X21500Y16300D01*
X21650D01*
X21150Y18550D02*
Y18850D01*
X21300D01*
X21350Y18800D01*
Y18700D01*
X21300Y18650D01*
X21150D01*
X21250D02*
X21350Y18550D01*
X21450Y18800D02*
X21500Y18850D01*
X21600D01*
X21650Y18800D01*
Y18750D01*
X21600Y18700D01*
X21650Y18650D01*
Y18600D01*
X21600Y18550D01*
X21500D01*
X21450Y18600D01*
Y18650D01*
X21500Y18700D01*
X21450Y18750D01*
Y18800D01*
X21500Y18700D02*
X21600D01*
X21150Y17250D02*
X21450D01*
Y17400D01*
X21400Y17450D01*
X21200D01*
X21150Y17400D01*
Y17250D01*
X21200Y17550D02*
X21150Y17600D01*
Y17700D01*
X21200Y17750D01*
X21250D01*
X21300Y17700D01*
Y17650D01*
Y17700D01*
X21350Y17750D01*
X21400D01*
X21450Y17700D01*
Y17600D01*
X21400Y17550D01*
X20800Y17200D02*
X20600D01*
X20550Y17150D01*
Y17050D01*
X20600Y17000D01*
X20800D01*
X20850Y17050D01*
Y17150D01*
X20750Y17100D02*
X20850Y17200D01*
Y17150D02*
X20800Y17200D01*
X20600Y17300D02*
X20550Y17350D01*
Y17450D01*
X20600Y17500D01*
X20650D01*
X20700Y17450D01*
Y17400D01*
Y17450D01*
X20750Y17500D01*
X20800D01*
X20850Y17450D01*
Y17350D01*
X20800Y17300D01*
Y18750D02*
X20600D01*
X20550Y18700D01*
Y18600D01*
X20600Y18550D01*
X20800D01*
X20850Y18600D01*
Y18700D01*
X20750Y18650D02*
X20850Y18750D01*
Y18700D02*
X20800Y18750D01*
X20850Y19000D02*
X20550D01*
X20700Y18850D01*
Y19050D01*
X19550Y20700D02*
X19350D01*
X19300Y20650D01*
Y20550D01*
X19350Y20500D01*
X19550D01*
X19600Y20550D01*
Y20650D01*
X19500Y20600D02*
X19600Y20700D01*
Y20650D02*
X19550Y20700D01*
X19350Y20800D02*
X19300Y20850D01*
Y20950D01*
X19350Y21000D01*
X19400D01*
X19450Y20950D01*
X19500Y21000D01*
X19550D01*
X19600Y20950D01*
Y20850D01*
X19550Y20800D01*
X19500D01*
X19450Y20850D01*
X19400Y20800D01*
X19350D01*
X19450Y20850D02*
Y20950D01*
X19550Y22200D02*
X19350D01*
X19300Y22150D01*
Y22050D01*
X19350Y22000D01*
X19550D01*
X19600Y22050D01*
Y22150D01*
X19500Y22100D02*
X19600Y22200D01*
Y22150D02*
X19550Y22200D01*
X19300Y22300D02*
Y22500D01*
X19350D01*
X19550Y22300D01*
X19600D01*
X17550Y17000D02*
X17850D01*
Y17150D01*
X17800Y17200D01*
X17600D01*
X17550Y17150D01*
Y17000D01*
X17850Y17500D02*
Y17300D01*
X17650Y17500D01*
X17600D01*
X17550Y17450D01*
Y17350D01*
X17600Y17300D01*
X17500Y18500D02*
X17800D01*
Y18650D01*
X17750Y18700D01*
X17550D01*
X17500Y18650D01*
Y18500D01*
X17800Y18800D02*
Y18900D01*
Y18850D01*
X17500D01*
X17550Y18800D01*
X17500Y22000D02*
X17800D01*
Y22150D01*
X17750Y22200D01*
X17550D01*
X17500Y22150D01*
Y22000D01*
Y22500D02*
Y22300D01*
X17650D01*
X17600Y22400D01*
Y22450D01*
X17650Y22500D01*
X17750D01*
X17800Y22450D01*
Y22350D01*
X17750Y22300D01*
X17500Y20500D02*
X17800D01*
Y20650D01*
X17750Y20700D01*
X17550D01*
X17500Y20650D01*
Y20500D01*
X17800Y20950D02*
X17500D01*
X17650Y20800D01*
Y21000D01*
D39*
X14350Y23160D02*
Y22920D01*
X14470Y22800D01*
X14590Y22920D01*
Y23160D01*
X14710Y23100D02*
X14770Y23160D01*
X14890D01*
X14950Y23100D01*
Y23040D01*
X14890Y22980D01*
X14830D01*
X14890D01*
X14950Y22920D01*
Y22860D01*
X14890Y22800D01*
X14770D01*
X14710Y22860D01*
X15130Y22740D02*
X15190Y22800D01*
Y22860D01*
X15130D01*
Y22800D01*
X15190D01*
X15130Y22740D01*
X15070Y22680D01*
X15430Y22800D02*
Y23040D01*
X15550Y23160D01*
X15670Y23040D01*
Y22800D01*
Y22980D01*
X15430D01*
X15790Y22680D02*
Y23040D01*
X15969D01*
X16029Y22980D01*
Y22860D01*
X15969Y22800D01*
X15790D01*
X16149Y23040D02*
Y22800D01*
Y22920D01*
X16209Y22980D01*
X16269Y23040D01*
X16329D01*
X16509Y22800D02*
Y22860D01*
X16569D01*
Y22800D01*
X16509D01*
X16869Y23220D02*
Y23100D01*
X16809Y23040D01*
X17049Y22800D02*
X17169D01*
X17109D01*
Y23160D01*
X17049Y23100D01*
X17589Y23160D02*
X17349D01*
Y22980D01*
X17469Y23040D01*
X17529D01*
X17589Y22980D01*
Y22860D01*
X17529Y22800D01*
X17409D01*
X17349Y22860D01*
X14590Y23700D02*
X14530Y23760D01*
X14410D01*
X14350Y23700D01*
Y23460D01*
X14410Y23400D01*
X14530D01*
X14590Y23460D01*
X14770Y23400D02*
X14890D01*
X14950Y23460D01*
Y23580D01*
X14890Y23640D01*
X14770D01*
X14710Y23580D01*
Y23460D01*
X14770Y23400D01*
X15070D02*
X15190D01*
X15130D01*
Y23640D01*
X15070D01*
X15370Y23400D02*
X15490D01*
X15430D01*
Y23760D01*
X15370D01*
X15910Y23700D02*
X15850Y23760D01*
X15730D01*
X15670Y23700D01*
Y23460D01*
X15730Y23400D01*
X15850D01*
X15910Y23460D01*
X16029Y23640D02*
Y23460D01*
X16089Y23400D01*
X16269D01*
Y23640D01*
X16389Y23760D02*
Y23400D01*
X16569D01*
X16629Y23460D01*
Y23520D01*
Y23580D01*
X16569Y23640D01*
X16389D01*
X16929Y23400D02*
X16809D01*
X16749Y23460D01*
Y23580D01*
X16809Y23640D01*
X16929D01*
X16989Y23580D01*
Y23520D01*
X16749D01*
X13350Y16810D02*
Y16570D01*
X13470Y16450D01*
X13590Y16570D01*
Y16810D01*
X13710Y16450D02*
X13830D01*
X13770D01*
Y16690D01*
X13710D01*
X14010Y16450D02*
Y16690D01*
X14190D01*
X14250Y16630D01*
Y16450D01*
X30700Y16760D02*
Y16400D01*
Y16580D01*
X30940D01*
Y16760D01*
Y16400D01*
X31120Y16640D02*
X31240D01*
X31300Y16580D01*
Y16400D01*
X31120D01*
X31060Y16460D01*
X31120Y16520D01*
X31300D01*
X31420Y16640D02*
Y16400D01*
Y16520D01*
X31480Y16580D01*
X31540Y16640D01*
X31600D01*
X31780D02*
X31900Y16400D01*
X32020Y16640D01*
X31850Y19060D02*
Y18820D01*
X31970Y18700D01*
X32090Y18820D01*
Y19060D01*
Y20100D02*
X32030Y20160D01*
X31910D01*
X31850Y20100D01*
Y19860D01*
X31910Y19800D01*
X32030D01*
X32090Y19860D01*
Y19980D01*
X31970D01*
X31950Y21710D02*
X32070D01*
X32010D01*
Y21350D01*
X31950D01*
X32070D01*
X29400Y24010D02*
Y23770D01*
X29520Y23650D01*
X29640Y23770D01*
Y24010D01*
X29820Y23650D02*
X29940D01*
X30000Y23710D01*
Y23830D01*
X29940Y23890D01*
X29820D01*
X29760Y23830D01*
Y23710D01*
X29820Y23650D01*
X30120Y23890D02*
Y23710D01*
X30180Y23650D01*
X30360D01*
Y23890D01*
X30540Y23950D02*
Y23890D01*
X30480D01*
X30600D01*
X30540D01*
Y23710D01*
X30600Y23650D01*
X27550Y23600D02*
Y23960D01*
X27730D01*
X27790Y23900D01*
Y23780D01*
X27730Y23720D01*
X27550D01*
X28150Y23900D02*
X28090Y23960D01*
X27970D01*
X27910Y23900D01*
Y23660D01*
X27970Y23600D01*
X28090D01*
X28150Y23660D01*
Y23780D01*
X28030D01*
X24450Y24010D02*
X24570D01*
X24510D01*
Y23650D01*
X24450D01*
X24570D01*
X24930Y24010D02*
X24810D01*
X24750Y23950D01*
Y23710D01*
X24810Y23650D01*
X24930D01*
X24990Y23710D01*
Y23950D01*
X24930Y24010D01*
X25110Y23890D02*
Y23710D01*
X25170Y23650D01*
X25350D01*
Y23890D01*
X25530Y23950D02*
Y23890D01*
X25470D01*
X25590D01*
X25530D01*
Y23710D01*
X25590Y23650D01*
X22100Y24060D02*
Y23820D01*
X22220Y23700D01*
X22340Y23820D01*
Y24060D01*
X22460Y23700D02*
X22580D01*
X22520D01*
Y23940D01*
X22460D01*
X22760Y23700D02*
Y23940D01*
X22940D01*
X23000Y23880D01*
Y23700D01*
X24340Y15950D02*
X24280Y16010D01*
X24160D01*
X24100Y15950D01*
Y15890D01*
X24160Y15830D01*
X24280D01*
X24340Y15770D01*
Y15710D01*
X24280Y15650D01*
X24160D01*
X24100Y15710D01*
X24460Y16010D02*
Y15650D01*
X24580Y15770D01*
X24700Y15650D01*
Y16010D01*
X21940Y15950D02*
X21880Y16010D01*
X21760D01*
X21700Y15950D01*
Y15710D01*
X21760Y15650D01*
X21880D01*
X21940Y15710D01*
X22120Y15950D02*
Y15890D01*
X22060D01*
X22180D01*
X22120D01*
Y15710D01*
X22180Y15650D01*
X22360Y15890D02*
Y15650D01*
Y15770D01*
X22420Y15830D01*
X22480Y15890D01*
X22540D01*
X22720Y15650D02*
X22840D01*
X22780D01*
Y16010D01*
X22720D01*
X17090Y15100D02*
X17030Y15160D01*
X16910D01*
X16850Y15100D01*
Y14860D01*
X16910Y14800D01*
X17030D01*
X17090Y14860D01*
Y14980D01*
X16970D01*
X17210Y14800D02*
Y15160D01*
X17450Y14800D01*
Y15160D01*
X17570D02*
Y14800D01*
X17750D01*
X17810Y14860D01*
Y15100D01*
X17750Y15160D01*
X17570D01*
X18040Y23600D02*
X17980Y23660D01*
X17860D01*
X17800Y23600D01*
Y23360D01*
X17860Y23300D01*
X17980D01*
X18040Y23360D01*
Y23480D01*
X17920D01*
X18160Y23300D02*
Y23660D01*
X18400Y23300D01*
Y23660D01*
X18520D02*
Y23300D01*
X18700D01*
X18760Y23360D01*
Y23600D01*
X18700Y23660D01*
X18520D01*
M02*
